<svg width="221" height="220" viewBox="0 0 221 220" fill="none" xmlns="http://www.w3.org/2000/svg">
<circle cx="110" cy="94" r="85" fill="#F1EDFB"/>
<g filter="url(#filter0_d_3281_29917)">
<rect x="34" y="43" width="153" height="108" rx="3.45516" fill="white"/>
<path d="M37.7949 43.1924H183.278C185.08 43.1925 186.541 44.653 186.541 46.4551V53.0312H34.5322V46.4551C34.5323 44.6529 35.9928 43.1924 37.7949 43.1924Z" fill="#EDE3FF" stroke="#D2B8FF" stroke-width="0.383906"/>
<path fill-rule="evenodd" clip-rule="evenodd" d="M175.464 45.6709C175.234 45.6709 175.05 45.7933 175.05 45.9463C175.05 46.2566 175.196 46.5567 175.464 46.8058C175.731 46.5567 175.878 46.2566 175.878 45.9463C175.878 45.7933 175.694 45.6709 175.464 45.6709ZM176.016 47.2021C176.441 46.8481 176.678 46.4052 176.678 45.9477C176.678 45.4903 176.135 45.1406 175.464 45.1406C174.793 45.1406 174.249 45.5019 174.249 45.9477C174.249 46.3935 174.486 46.8481 174.911 47.2021L174.094 47.7455C173.561 47.4629 172.895 47.3055 172.207 47.3055C171.518 47.3055 170.992 47.6668 170.992 48.1126C170.992 48.5584 171.536 48.9197 172.207 48.9197C172.877 48.9197 173.561 48.7624 174.094 48.4798L174.911 49.0232C174.486 49.3772 174.249 49.8201 174.249 50.2775C174.249 50.735 174.793 51.0846 175.464 51.0846C176.135 51.0846 176.678 50.7233 176.678 50.2775C176.678 49.8317 176.441 49.3772 176.016 49.0232L176.834 48.4798C177.366 48.7624 178.033 48.9197 178.721 48.9197C179.409 48.9197 179.935 48.5584 179.935 48.1126C179.935 47.6668 179.392 47.3055 178.721 47.3055C178.05 47.3055 177.366 47.4629 176.834 47.7455L176.016 47.2021ZM175.464 47.5867L174.673 48.1126L175.464 48.6386L176.255 48.1126L175.464 47.5867ZM177.43 48.1126C177.805 48.2904 178.256 48.388 178.723 48.388C178.953 48.388 179.138 48.2656 179.138 48.1126C179.138 47.9597 178.953 47.8373 178.723 47.8373C178.256 47.8373 177.805 47.9349 177.43 48.1126ZM175.464 49.4194C175.196 49.6686 175.05 49.9687 175.05 50.279C175.05 50.432 175.234 50.5543 175.464 50.5543C175.694 50.5543 175.878 50.432 175.878 50.279C175.878 49.9687 175.731 49.6686 175.464 49.4194ZM173.498 48.1126C173.123 47.9349 172.671 47.8373 172.204 47.8373C171.974 47.8373 171.79 47.9597 171.79 48.1126C171.79 48.2656 171.974 48.388 172.204 48.388C172.671 48.388 173.123 48.2904 173.498 48.1126Z" fill="#D2B8FF"/>
<ellipse cx="44.1791" cy="48.1113" rx="2.68298" ry="1.7832" fill="#D2B8FF"/>
<ellipse cx="51.3314" cy="48.1113" rx="2.68298" ry="1.7832" fill="#D2B8FF"/>
<ellipse cx="58.4877" cy="48.1113" rx="2.68298" ry="1.7832" fill="#D2B8FF"/>
<path d="M37.7949 43.1924H183.278C185.08 43.1925 186.541 44.653 186.541 46.4551V58.1904H34.5322V46.4551C34.5323 44.6529 35.9928 43.1924 37.7949 43.1924Z" fill="#EDE3FF" stroke="#D2B8FF" stroke-width="0.383906"/>
<path fill-rule="evenodd" clip-rule="evenodd" d="M175.464 47.0166C175.234 47.0166 175.05 47.2008 175.05 47.4309C175.05 47.8978 175.196 48.3494 175.464 48.7242C175.731 48.3494 175.878 47.8978 175.878 47.4309C175.878 47.2008 175.694 47.0166 175.464 47.0166ZM176.016 49.3204C176.441 48.7877 176.678 48.1214 176.678 47.4331C176.678 46.7448 176.135 46.2188 175.464 46.2188C174.793 46.2188 174.249 46.7624 174.249 47.4331C174.249 48.1039 174.486 48.7877 174.911 49.3204L174.094 50.138C173.561 49.7128 172.895 49.476 172.207 49.476C171.518 49.476 170.992 50.0196 170.992 50.6904C170.992 51.3611 171.536 51.9047 172.207 51.9047C172.877 51.9047 173.561 51.668 174.094 51.2428L174.911 52.0604C174.486 52.593 174.249 53.2594 174.249 53.9477C174.249 54.636 174.793 55.162 175.464 55.162C176.135 55.162 176.678 54.6184 176.678 53.9477C176.678 53.2769 176.441 52.593 176.016 52.0604L176.834 51.2428C177.366 51.668 178.033 51.9047 178.721 51.9047C179.409 51.9047 179.935 51.3611 179.935 50.6904C179.935 50.0196 179.392 49.476 178.721 49.476C178.05 49.476 177.366 49.7128 176.834 50.138L176.016 49.3204ZM175.464 49.8991L174.673 50.6904L175.464 51.4817L176.255 50.6904L175.464 49.8991ZM177.43 50.6904C177.805 50.9578 178.256 51.1047 178.723 51.1047C178.953 51.1047 179.138 50.9205 179.138 50.6904C179.138 50.4602 178.953 50.2761 178.723 50.2761C178.256 50.2761 177.805 50.423 177.43 50.6904ZM175.464 52.6566C175.196 53.0314 175.05 53.483 175.05 53.9499C175.05 54.18 175.234 54.3641 175.464 54.3641C175.694 54.3641 175.878 54.18 175.878 53.9499C175.878 53.483 175.731 53.0314 175.464 52.6566ZM173.498 50.6904C173.123 50.423 172.671 50.2761 172.204 50.2761C171.974 50.2761 171.79 50.4602 171.79 50.6904C171.79 50.9205 171.974 51.1047 172.204 51.1047C172.671 51.1047 173.123 50.9578 173.498 50.6904Z" fill="#D2B8FF"/>
<circle cx="44.1791" cy="50.6908" r="2.68298" fill="#D2B8FF"/>
<circle cx="51.3314" cy="50.6908" r="2.68298" fill="#D2B8FF"/>
<circle cx="58.4877" cy="50.6908" r="2.68298" fill="#D2B8FF"/>
<path d="M37.4551 43.1924H183.502C185.304 43.1924 186.766 44.6529 186.766 46.4551V58.6309H34.1924V46.4551C34.1924 44.6529 35.6529 43.1924 37.4551 43.1924Z" fill="#F8F5FF" stroke="#F8F5FF" stroke-width="0.383906"/>
<circle cx="101.5" cy="50.5" r="2.5" fill="white"/>
<circle cx="109.5" cy="50.5" r="2.5" fill="white"/>
<circle cx="117.5" cy="50.5" r="2.5" fill="white"/>
<path d="M81.2252 96.2254C80.856 96.5948 80.2577 96.5948 79.8881 96.2254L67.2769 83.6139C66.9077 83.245 66.9077 82.6464 67.2769 82.277C67.6461 81.9077 68.2446 81.9077 68.614 82.277L81.2254 94.8882C81.5946 95.2576 81.5946 95.8562 81.2252 96.2254Z" fill="#D2B8FF"/>
<path d="M67.2769 96.2251C66.9077 95.856 66.9077 95.2572 67.2769 94.8883L79.8881 82.277C80.2577 81.9077 80.856 81.9077 81.2252 82.277C81.5946 82.6464 81.5946 83.245 81.2252 83.6139L68.6138 96.2254C68.2446 96.5943 67.6461 96.5945 67.2769 96.2251Z" fill="#D2B8FF"/>
<path d="M151.635 96.2254C151.266 96.5948 150.668 96.5948 150.299 96.2254L137.687 83.6139C137.318 83.245 137.318 82.6464 137.687 82.277C138.056 81.9077 138.655 81.9077 139.024 82.277L151.635 94.8882C152.005 95.2576 152.005 95.8562 151.635 96.2254Z" fill="#D2B8FF"/>
<path d="M137.687 96.2251C137.318 95.856 137.318 95.2572 137.687 94.8883L150.299 82.277C150.668 81.9077 151.266 81.9077 151.635 82.277C152.005 82.6464 152.005 83.245 151.635 83.6139L139.024 96.2254C138.655 96.5943 138.056 96.5945 137.687 96.2251Z" fill="#D2B8FF"/>
<path d="M155.128 122.961C155.006 122.962 154.882 122.939 154.762 122.892C127.197 111.978 96.8344 111.977 69.2688 122.892C68.7569 123.094 68.179 122.843 67.9765 122.332C67.7739 121.821 68.0246 121.243 68.5357 121.04C82.4362 115.536 97.0649 112.746 112.015 112.746C126.966 112.746 141.595 115.536 155.495 121.04C156.006 121.243 156.257 121.821 156.054 122.332C155.899 122.723 155.524 122.961 155.128 122.961Z" fill="#D2B8FF"/>
</g>
<path d="M41.7969 127.847C41.7969 127.847 41.8262 127.732 41.8937 127.511C41.9642 127.291 42.0704 126.965 42.159 126.523C42.347 125.649 42.5387 124.312 42.3188 122.615C42.0952 120.935 41.4544 118.866 39.9606 116.95C39.2159 115.999 38.2507 115.11 37.0731 114.407C35.8903 113.716 34.5068 113.213 33.0045 112.975C31.5017 112.762 29.877 112.794 28.274 113.23C27.475 113.445 26.6753 113.74 25.9253 114.164C25.1634 114.563 24.4436 115.083 23.8286 115.723C23.2167 116.362 22.7253 117.152 22.5192 118.041C22.3087 118.921 22.3694 119.905 22.831 120.718C23.2867 121.534 24.1278 122.106 25.0537 122.361C25.9853 122.621 27.0022 122.552 27.9361 122.21C29.8168 121.522 31.3719 120.001 32.4702 118.231C33.57 116.441 34.1705 114.309 34.2342 112.128C34.2483 111.036 34.1319 109.934 33.87 108.856C33.605 107.778 33.1581 106.74 32.5772 105.779C32.4204 105.546 32.2897 105.293 32.1103 105.075L31.5864 104.408C31.1977 103.996 30.8116 103.577 30.3648 103.219C29.49 102.487 28.5052 101.873 27.4434 101.41C25.3132 100.515 22.9647 100.159 20.7343 100.508C18.5092 100.825 16.3991 101.827 14.8684 103.377C14.1068 104.151 13.5003 105.071 13.1638 106.081C12.8201 107.086 12.8041 108.178 13.0648 109.183C13.3246 110.186 13.8734 111.114 14.67 111.74C15.4662 112.364 16.4951 112.639 17.478 112.558C18.4691 112.485 19.4049 112.096 20.2158 111.565C21.0275 111.029 21.7161 110.334 22.2557 109.56C23.3006 107.975 23.7785 106.113 23.7858 104.334C23.7889 102.547 23.3387 100.832 22.5647 99.3684C21.7833 97.905 20.6571 96.7204 19.4145 95.8503C16.9104 94.0942 14.0224 93.5749 11.6341 93.8394C9.22078 94.1244 7.29165 95.0976 5.91966 96.0937C4.53714 97.0994 3.66031 98.1195 3.12327 98.8371C2.85763 99.2007 2.66249 99.4829 2.54336 99.6807C2.41866 99.8751 2.34954 99.9717 2.34954 99.9717C2.34954 99.9717 2.40505 99.8673 2.52313 99.6682C2.63564 99.4658 2.82483 99.1782 3.0855 98.8091C3.61228 98.0799 4.48273 97.0442 5.86652 96.0203C7.24022 95.0061 9.17962 94.0106 11.6196 93.7098C14.0357 93.4297 16.9618 93.9423 19.5091 95.7149C20.773 96.5936 21.9226 97.7944 22.7231 99.2829C23.5155 100.77 23.9775 102.514 23.9787 104.334C23.9746 106.147 23.4949 108.045 22.4246 109.674C21.8706 110.472 21.1657 111.187 20.3312 111.739C19.4975 112.287 18.5313 112.693 17.4941 112.771C16.4652 112.858 15.3772 112.571 14.5353 111.912C13.6937 111.252 13.1209 110.281 12.8493 109.238C12.5765 108.195 12.5924 107.056 12.9493 106.009C13.2976 104.962 13.9237 104.012 14.705 103.217C16.2744 101.626 18.4296 100.603 20.7004 100.278C22.9755 99.922 25.366 100.284 27.536 101.196C28.6176 101.667 29.6214 102.294 30.5147 103.041C30.9706 103.406 31.3653 103.834 31.7621 104.256L32.2977 104.937C32.4808 105.161 32.6146 105.419 32.7747 105.657C33.3684 106.64 33.8238 107.7 34.0933 108.8C34.3599 109.899 34.4776 111.021 34.4624 112.133C34.3963 114.354 33.7837 116.523 32.66 118.347C31.5352 120.152 29.9569 121.699 28.0078 122.412C27.0416 122.765 25.9719 122.838 24.9978 122.563C24.0296 122.295 23.1388 121.692 22.6523 120.819C22.1618 119.949 22.104 118.913 22.3254 117.995C22.5427 117.065 23.0578 116.245 23.689 115.59C24.3236 114.932 25.0599 114.405 25.8362 114C26.6012 113.571 27.4156 113.272 28.2284 113.056C29.8588 112.618 31.5073 112.591 33.0301 112.813C34.5524 113.058 35.9534 113.574 37.1493 114.279C38.3406 114.996 39.3154 115.903 40.0637 116.87C41.5653 118.816 42.1979 120.909 42.4093 122.603C42.6168 124.314 42.4085 125.658 42.205 126.533C42.1084 126.975 41.9947 127.3 41.9167 127.518C41.8413 127.738 41.7969 127.847 41.7969 127.847Z" fill="#E2D2FF" stroke="#D2B8FF" stroke-width="1.6" stroke-linecap="round" stroke-linejoin="round"/>
<path d="M220.016 63.9288C220.016 63.9288 219.912 63.8713 219.715 63.7501C219.52 63.6262 219.231 63.4408 218.826 63.2431C218.028 62.8398 216.783 62.3157 215.086 62.0986C213.405 61.8895 211.241 61.9852 209.009 62.945C207.9 63.4244 206.795 64.1329 205.817 65.094C204.849 66.0634 204.012 67.2742 203.402 68.6674C202.815 70.0671 202.434 71.6469 202.45 73.3081C202.455 74.1355 202.539 74.984 202.759 75.8169C202.952 76.655 203.272 77.4831 203.735 78.24C204.199 78.9939 204.838 79.6692 205.646 80.0938C206.444 80.5204 207.412 80.7111 208.315 80.4704C209.22 80.2362 209.986 79.5675 210.467 78.7362C210.955 77.9009 211.146 76.8998 211.052 75.9097C210.862 73.916 209.785 72.0265 208.351 70.5156C206.898 68.9982 204.988 67.8773 202.893 67.2632C201.841 66.973 200.746 66.8065 199.636 66.7868C198.526 66.77 197.409 66.9394 196.332 67.2578C196.066 67.3505 195.789 67.413 195.532 67.5312L194.754 67.869C194.257 68.1407 193.754 68.4081 193.295 68.7498C192.366 69.4107 191.522 70.2077 190.805 71.1177C189.4 72.9518 188.46 75.1334 188.233 77.3794C187.976 79.6122 188.411 81.9075 189.523 83.7808C190.078 84.7136 190.815 85.5334 191.706 86.1147C192.592 86.7018 193.644 86.994 194.682 86.9962C195.718 86.9988 196.755 86.703 197.563 86.0911C198.368 85.4789 198.894 84.5531 199.065 83.5818C199.245 82.6044 199.106 81.6007 198.798 80.6818C198.485 79.7608 197.987 78.9186 197.375 78.2004C196.107 76.7883 194.426 75.8544 192.707 75.3965C190.98 74.941 189.206 74.9419 187.594 75.32C185.981 75.7053 184.549 76.4947 183.393 77.4764C181.06 79.454 179.826 82.1162 179.477 84.4936C179.141 86.9004 179.594 89.0132 180.21 90.5927C180.833 92.1849 181.597 93.2915 182.156 93.9928C182.44 94.3419 182.664 94.6022 182.825 94.7675C182.981 94.9374 183.057 95.0287 183.057 95.0287C183.057 95.0287 182.97 94.9486 182.808 94.7839C182.64 94.6238 182.41 94.368 182.119 94.0223C181.547 93.328 180.765 92.2236 180.125 90.6255C179.492 89.0397 179.021 86.9114 179.348 84.4748C179.689 82.0665 180.926 79.3658 183.286 77.3506C184.456 76.3505 185.909 75.5425 187.552 75.1452C189.191 74.7553 190.995 74.7502 192.756 75.2099C194.509 75.6732 196.223 76.618 197.528 78.066C198.16 78.8042 198.672 79.667 198.996 80.6143C199.314 81.5595 199.462 82.597 199.276 83.6203C199.098 84.6375 198.545 85.6173 197.695 86.2649C196.843 86.9119 195.759 87.2201 194.681 87.2187C193.603 87.2183 192.505 86.9144 191.583 86.304C190.657 85.7017 189.897 84.8554 189.326 83.8983C188.185 81.977 187.741 79.633 188.002 77.3539C188.234 75.0629 189.189 72.8419 190.621 70.9738C191.351 70.0468 192.212 69.2345 193.161 68.5596C193.629 68.211 194.143 67.9375 194.652 67.6605L195.447 67.3151C195.71 67.1946 195.993 67.1305 196.264 67.036C197.365 66.7105 198.506 66.5386 199.638 66.5565C200.77 66.5771 201.885 66.7474 202.956 67.0437C205.088 67.6702 207.031 68.8123 208.511 70.3613C209.972 71.9066 211.069 73.8254 211.265 75.8915C211.362 76.9155 211.161 77.9688 210.648 78.8415C210.145 79.7105 209.335 80.4192 208.367 80.6687C207.401 80.9229 206.384 80.7164 205.553 80.2697C204.708 79.8239 204.045 79.1179 203.571 78.3414C203.096 77.5609 202.772 76.7149 202.577 75.8615C202.356 75.0127 202.273 74.1492 202.27 73.3083C202.259 71.62 202.651 70.0184 203.251 68.6014C203.874 67.191 204.728 65.9663 205.713 64.988C206.709 64.0173 207.833 63.304 208.957 62.8249C211.221 61.8654 213.406 61.7835 215.098 62.0081C216.806 62.2409 218.053 62.7828 218.847 63.2011C219.25 63.4064 219.536 63.5989 219.728 63.7296C219.921 63.8582 220.016 63.9288 220.016 63.9288Z" fill="#E2D2FF" stroke="#D2B8FF" stroke-width="1.6" stroke-linecap="round" stroke-linejoin="round"/>
<defs>
<filter id="filter0_d_3281_29917" x="8.3" y="17.3" width="204.4" height="159.4" filterUnits="userSpaceOnUse" color-interpolation-filters="sRGB">
<feFlood flood-opacity="0" result="BackgroundImageFix"/>
<feColorMatrix in="SourceAlpha" type="matrix" values="0 0 0 0 0 0 0 0 0 0 0 0 0 0 0 0 0 0 127 0" result="hardAlpha"/>
<feOffset/>
<feGaussianBlur stdDeviation="12.85"/>
<feComposite in2="hardAlpha" operator="out"/>
<feColorMatrix type="matrix" values="0 0 0 0 0.682353 0 0 0 0 0.447059 0 0 0 0 1 0 0 0 0.14 0"/>
<feBlend mode="normal" in2="BackgroundImageFix" result="effect1_dropShadow_3281_29917"/>
<feBlend mode="normal" in="SourceGraphic" in2="effect1_dropShadow_3281_29917" result="shape"/>
</filter>
</defs>
</svg>
