<svg width="136" height="112" viewBox="0 0 136 112" fill="none" xmlns="http://www.w3.org/2000/svg">
<path d="M67.7356 101.061C93.6354 101.061 114.631 80.0029 114.631 54.026C114.631 28.0492 93.6354 6.99081 67.7356 6.99081C41.8357 6.99081 20.8398 28.0492 20.8398 54.026C20.8398 80.0029 41.8357 101.061 67.7356 101.061Z" fill="#F1EDFB"/>
<g filter="url(#filter0_d_11297_2139)">
<path d="M108.311 25.8049H27.7115C26.6587 25.8049 25.8052 26.6609 25.8052 27.7168V83.6554C25.8052 84.7113 26.6587 85.5673 27.7115 85.5673H108.311C109.364 85.5673 110.218 84.7113 110.218 83.6554V27.7168C110.218 26.6609 109.364 25.8049 108.311 25.8049Z" fill="white"/>
<path d="M27.8989 25.9114H108.164C109.158 25.9114 109.964 26.7196 109.964 27.7168V31.3557H26.0988V27.7168C26.0989 26.7195 26.9047 25.9114 27.8989 25.9114Z" fill="#EDE3FF" stroke="#D2B8FF" stroke-width="0.383906"/>
<path fill-rule="evenodd" clip-rule="evenodd" d="M103.853 27.2829C103.726 27.2829 103.625 27.3506 103.625 27.4353C103.625 27.607 103.705 27.773 103.853 27.9109C104 27.773 104.081 27.607 104.081 27.4353C104.081 27.3506 103.98 27.2829 103.853 27.2829ZM104.158 28.1302C104.392 27.9343 104.523 27.6892 104.523 27.436C104.523 27.1829 104.223 26.9894 103.853 26.9894C103.483 26.9894 103.183 27.1893 103.183 27.436C103.183 27.6827 103.314 27.9343 103.548 28.1302L103.097 28.4308C102.803 28.2745 102.436 28.1874 102.056 28.1874C101.676 28.1874 101.386 28.3873 101.386 28.634C101.386 28.8807 101.686 29.0806 102.056 29.0806C102.426 29.0806 102.803 28.9936 103.097 28.8372L103.548 29.1379C103.314 29.3338 103.183 29.5788 103.183 29.8319C103.183 30.0851 103.483 30.2786 103.853 30.2786C104.223 30.2786 104.523 30.0786 104.523 29.8319C104.523 29.5853 104.392 29.3338 104.158 29.1379L104.609 28.8372C104.902 28.9936 105.27 29.0806 105.65 29.0806C106.03 29.0806 106.32 28.8807 106.32 28.634C106.32 28.3873 106.02 28.1874 105.65 28.1874C105.28 28.1874 104.902 28.2745 104.609 28.4308L104.158 28.1302ZM103.853 28.343L103.417 28.634L103.853 28.9251L104.289 28.634L103.853 28.343ZM104.938 28.634C105.145 28.7324 105.393 28.7864 105.651 28.7864C105.778 28.7864 105.88 28.7186 105.88 28.634C105.88 28.5494 105.778 28.4816 105.651 28.4816C105.393 28.4816 105.145 28.5357 104.938 28.634ZM103.853 29.3571C103.705 29.495 103.625 29.6611 103.625 29.8328C103.625 29.9174 103.726 29.9851 103.853 29.9851C103.98 29.9851 104.081 29.9174 104.081 29.8328C104.081 29.6611 104 29.495 103.853 29.3571ZM102.768 28.634C102.562 28.5357 102.312 28.4816 102.054 28.4816C101.928 28.4816 101.826 28.5494 101.826 28.634C101.826 28.7186 101.928 28.7864 102.054 28.7864C102.312 28.7864 102.562 28.7324 102.768 28.634Z" fill="#D2B8FF"/>
<path d="M31.4212 29.62C32.2387 29.62 32.9014 29.1782 32.9014 28.6333C32.9014 28.0883 32.2387 27.6465 31.4212 27.6465C30.6037 27.6465 29.9409 28.0883 29.9409 28.6333C29.9409 29.1782 30.6037 29.62 31.4212 29.62Z" fill="#D2B8FF"/>
<path d="M35.3672 29.62C36.1847 29.62 36.8474 29.1782 36.8474 28.6333C36.8474 28.0883 36.1847 27.6465 35.3672 27.6465C34.5497 27.6465 33.887 28.0883 33.887 28.6333C33.887 29.1782 34.5497 29.62 35.3672 29.62Z" fill="#D2B8FF"/>
<path d="M39.3155 29.62C40.133 29.62 40.7957 29.1782 40.7957 28.6333C40.7957 28.0883 40.133 27.6465 39.3155 27.6465C38.498 27.6465 37.8352 28.0883 37.8352 28.6333C37.8352 29.1782 38.498 29.62 39.3155 29.62Z" fill="#D2B8FF"/>
<path d="M27.8989 25.9114H108.164C109.158 25.9114 109.964 26.7196 109.964 27.7168V34.2106H26.0988V27.7168C26.0989 26.7195 26.9047 25.9114 27.8989 25.9114Z" fill="#EDE3FF" stroke="#D2B8FF" stroke-width="0.383906"/>
<path fill-rule="evenodd" clip-rule="evenodd" d="M103.853 28.0275C103.726 28.0275 103.625 28.1294 103.625 28.2568C103.625 28.5151 103.705 28.765 103.853 28.9724C104 28.765 104.081 28.5151 104.081 28.2568C104.081 28.1294 103.98 28.0275 103.853 28.0275ZM104.158 29.3023C104.392 29.0076 104.523 28.6389 104.523 28.258C104.523 27.8771 104.223 27.586 103.853 27.586C103.483 27.586 103.183 27.8868 103.183 28.258C103.183 28.6292 103.314 29.0076 103.548 29.3023L103.097 29.7548C102.803 29.5195 102.436 29.3884 102.056 29.3884C101.676 29.3884 101.386 29.6892 101.386 30.0604C101.386 30.4316 101.686 30.7324 102.056 30.7324C102.426 30.7324 102.803 30.6014 103.097 30.3661L103.548 30.8185C103.314 31.1132 103.183 31.482 103.183 31.8629C103.183 32.2437 103.483 32.5348 103.853 32.5348C104.223 32.5348 104.523 32.234 104.523 31.8629C104.523 31.4917 104.392 31.1132 104.158 30.8185L104.609 30.3661C104.902 30.6014 105.27 30.7324 105.65 30.7324C106.03 30.7324 106.32 30.4316 106.32 30.0604C106.32 29.6892 106.02 29.3884 105.65 29.3884C105.28 29.3884 104.902 29.5195 104.609 29.7548L104.158 29.3023ZM103.853 29.6226L103.417 30.0604L103.853 30.4983L104.289 30.0604L103.853 29.6226ZM104.938 30.0604C105.145 30.2084 105.393 30.2897 105.651 30.2897C105.778 30.2897 105.88 30.1878 105.88 30.0604C105.88 29.933 105.778 29.8312 105.651 29.8312C105.393 29.8312 105.145 29.9125 104.938 30.0604ZM103.853 31.1484C103.705 31.3558 103.625 31.6057 103.625 31.8641C103.625 31.9914 103.726 32.0933 103.853 32.0933C103.98 32.0933 104.081 31.9914 104.081 31.8641C104.081 31.6057 104 31.3558 103.853 31.1484ZM102.768 30.0604C102.562 29.9125 102.312 29.8312 102.054 29.8312C101.928 29.8312 101.826 29.933 101.826 30.0604C101.826 30.1878 101.928 30.2897 102.054 30.2897C102.312 30.2897 102.562 30.2084 102.768 30.0604Z" fill="#D2B8FF"/>
<path d="M31.4212 31.5453C32.2387 31.5453 32.9014 30.8806 32.9014 30.0606C32.9014 29.2407 32.2387 28.576 31.4212 28.576C30.6037 28.576 29.9409 29.2407 29.9409 30.0606C29.9409 30.8806 30.6037 31.5453 31.4212 31.5453Z" fill="#D2B8FF"/>
<path d="M35.3672 31.5453C36.1847 31.5453 36.8474 30.8806 36.8474 30.0606C36.8474 29.2407 36.1847 28.576 35.3672 28.576C34.5497 28.576 33.887 29.2407 33.887 30.0606C33.887 30.8806 34.5497 31.5453 35.3672 31.5453Z" fill="#D2B8FF"/>
<path d="M39.3155 31.5453C40.133 31.5453 40.7957 30.8806 40.7957 30.0606C40.7957 29.2407 40.133 28.576 39.3155 28.576C38.498 28.576 37.8352 29.2407 37.8352 30.0606C37.8352 30.8806 38.498 31.5453 39.3155 31.5453Z" fill="#D2B8FF"/>
<path d="M27.7115 25.9114H108.288C109.282 25.9114 110.089 26.7195 110.089 27.7168V34.4543H25.9114V27.7168C25.9114 26.7195 26.7172 25.9114 27.7115 25.9114Z" fill="#F8F5FF" stroke="#F8F5FF" stroke-width="0.383906"/>
<path d="M63.046 31.3385C63.8078 31.3385 64.4253 30.7191 64.4253 29.9551C64.4253 29.191 63.8078 28.5717 63.046 28.5717C62.2843 28.5717 61.6667 29.191 61.6667 29.9551C61.6667 30.7191 62.2843 31.3385 63.046 31.3385Z" fill="white"/>
<path d="M67.4597 31.3385C68.2215 31.3385 68.839 30.7191 68.839 29.9551C68.839 29.191 68.2215 28.5717 67.4597 28.5717C66.698 28.5717 66.0804 29.191 66.0804 29.9551C66.0804 30.7191 66.698 31.3385 67.4597 31.3385Z" fill="white"/>
<path d="M71.8734 31.3385C72.6352 31.3385 73.2527 30.7191 73.2527 29.9551C73.2527 29.191 72.6352 28.5717 71.8734 28.5717C71.1117 28.5717 70.4941 29.191 70.4941 29.9551C70.4941 30.7191 71.1117 31.3385 71.8734 31.3385Z" fill="white"/>
<path d="M51.8601 55.2575C51.6564 55.4619 51.3263 55.4619 51.1224 55.2575L44.1646 48.2788C43.9609 48.0747 43.9609 47.7435 44.1646 47.5391C44.3683 47.3347 44.6985 47.3347 44.9023 47.5391L51.8602 54.5175C52.0639 54.7219 52.0639 55.0532 51.8601 55.2575Z" fill="#D2B8FF"/>
<path d="M44.1646 55.2573C43.9609 55.0531 43.9609 54.7217 44.1646 54.5176L51.1224 47.5391C51.3263 47.3347 51.6564 47.3347 51.8601 47.5391C52.0639 47.7435 52.0639 48.0747 51.8601 48.2788L44.9022 55.2575C44.6985 55.4616 44.3683 55.4617 44.1646 55.2573Z" fill="#D2B8FF"/>
<path d="M90.7063 55.2575C90.5027 55.4619 90.1728 55.4619 89.9692 55.2575L83.011 48.2788C82.8074 48.0747 82.8074 47.7435 83.011 47.5391C83.2145 47.3347 83.545 47.3347 83.7486 47.5391L90.7063 54.5175C90.9104 54.7219 90.9104 55.0532 90.7063 55.2575Z" fill="#D2B8FF"/>
<path d="M83.011 55.2573C82.8074 55.0531 82.8074 54.7217 83.011 54.5176L89.9692 47.5391C90.1728 47.3347 90.5027 47.3347 90.7063 47.5391C90.9104 47.7435 90.9104 48.0747 90.7063 48.2788L83.7486 55.2575C83.545 55.4616 83.2145 55.4617 83.011 55.2573Z" fill="#D2B8FF"/>
<path d="M92.6334 70.0518C92.5661 70.0523 92.4977 70.0396 92.4315 70.0136C77.2235 63.9743 60.472 63.9737 45.2636 70.0136C44.9812 70.1254 44.6623 69.9865 44.5506 69.7037C44.4388 69.4209 44.5771 69.1011 44.8591 68.9888C52.5282 65.9431 60.5991 64.3992 68.8473 64.3992C77.096 64.3992 85.1671 65.9431 92.8359 68.9888C93.1178 69.1011 93.2563 69.4209 93.1443 69.7037C93.0588 69.9201 92.8519 70.0518 92.6334 70.0518Z" fill="#D2B8FF"/>
</g>
<path d="M30.1069 72.7555C30.1069 72.7555 30.123 72.6918 30.1603 72.5695C30.1992 72.4478 30.2578 72.2674 30.3067 72.0228C30.4104 71.5392 30.5161 70.7993 30.3948 69.8603C30.2715 68.9307 29.9179 67.7858 29.0938 66.7255C28.6829 66.1993 28.1504 65.7074 27.5007 65.3184C26.8481 64.936 26.0848 64.6576 25.256 64.5259C24.4269 64.4081 23.5305 64.4258 22.6461 64.6671C22.2053 64.786 21.7641 64.9493 21.3503 65.1839C20.9299 65.4047 20.5328 65.6924 20.1935 66.0466C19.8559 66.4002 19.5848 66.8373 19.4711 67.3292C19.3549 67.8162 19.3884 68.3607 19.6431 68.8106C19.8945 69.2621 20.3586 69.5786 20.8694 69.7197C21.3834 69.8636 21.9444 69.8254 22.4597 69.6362C23.4973 69.2555 24.3552 68.4138 24.9612 67.4344C25.568 66.4439 25.8993 65.2641 25.9344 64.0573C25.9422 63.453 25.878 62.8432 25.7335 62.2467C25.5873 61.6502 25.3407 61.0758 25.0202 60.544C24.9337 60.4151 24.8616 60.2751 24.7626 60.1544L24.4736 59.7853C24.2591 59.5574 24.0461 59.3255 23.7996 59.1274C23.317 58.7224 22.7736 58.3826 22.1878 58.1264C21.0126 57.6311 19.7169 57.4341 18.4863 57.6273C17.2587 57.8027 16.0945 58.3571 15.25 59.2148C14.8298 59.6431 14.4952 60.1522 14.3096 60.7111C14.1199 61.2672 14.1111 61.8715 14.2549 62.4276C14.3983 62.9826 14.7011 63.4962 15.1406 63.8426C15.5798 64.1878 16.1475 64.34 16.6898 64.2952C17.2366 64.2548 17.7529 64.0396 18.2003 63.7457C18.6481 63.4491 19.028 63.0645 19.3257 62.6362C19.9022 61.7592 20.1659 60.7288 20.1699 59.7444C20.1716 58.7556 19.9232 57.8066 19.4962 56.9967C19.0651 56.1869 18.4437 55.5314 17.7582 55.0499C16.3766 54.0782 14.7833 53.7908 13.4656 53.9372C12.1341 54.0949 11.0698 54.6334 10.3129 55.1846C9.5501 55.7411 9.06634 56.3056 8.77004 56.7027C8.62348 56.9039 8.51582 57.06 8.4501 57.1695C8.3813 57.277 8.34316 57.3305 8.34316 57.3305C8.34316 57.3305 8.37379 57.2727 8.43894 57.1626C8.50101 57.0506 8.60539 56.8914 8.7492 56.6872C9.03984 56.2837 9.52008 55.7106 10.2835 55.144C11.0414 54.5828 12.1114 54.0319 13.4576 53.8654C14.7906 53.7104 16.405 53.9941 17.8104 54.975C18.5077 55.4612 19.1419 56.1257 19.5836 56.9493C20.0208 57.7722 20.2756 58.7373 20.2763 59.7444C20.274 60.7476 20.0094 61.7979 19.4189 62.6993C19.1132 63.1409 18.7243 63.5365 18.2639 63.842C17.804 64.1452 17.2709 64.3699 16.6987 64.4131C16.131 64.4612 15.5307 64.3024 15.0662 63.9377C14.6019 63.5725 14.2859 63.0352 14.136 62.4581C13.9855 61.8809 13.9943 61.2506 14.1912 60.6713C14.3834 60.0919 14.7288 59.5662 15.1599 59.1263C16.0257 58.2459 17.2148 57.6798 18.4676 57.5C19.7228 57.303 21.0417 57.5033 22.2389 58.008C22.8357 58.2686 23.3895 58.6156 23.8823 59.0289C24.1338 59.2309 24.3516 59.4677 24.5705 59.7012L24.866 60.0781C24.967 60.202 25.0409 60.3448 25.1292 60.4765C25.4567 61.0204 25.708 61.607 25.8567 62.2157C26.0038 62.8238 26.0687 63.4447 26.0603 64.06C26.0239 65.289 25.6859 66.4893 25.0659 67.4986C24.4453 68.4974 23.5746 69.3534 22.4992 69.748C21.9662 69.9433 21.376 69.9837 20.8386 69.8315C20.3044 69.6832 19.8129 69.3495 19.5445 68.8665C19.2739 68.3851 19.242 67.8118 19.3642 67.3038C19.484 66.7892 19.7682 66.3354 20.1165 65.973C20.4666 65.6089 20.8728 65.3172 21.3011 65.0931C21.7232 64.8557 22.1725 64.6903 22.6209 64.5708C23.5204 64.3284 24.43 64.3135 25.2701 64.4363C26.11 64.5719 26.8829 64.8574 27.5427 65.2475C28.2 65.6443 28.7378 66.1462 29.1506 66.6813C29.9791 67.7581 30.3281 68.9163 30.4448 69.8537C30.5592 70.8004 30.4443 71.5442 30.332 72.0283C30.2787 72.2729 30.216 72.4528 30.173 72.5734C30.1314 72.6951 30.1069 72.7555 30.1069 72.7555Z" fill="#E2D2FF" stroke="#D2B8FF" stroke-width="1.6" stroke-linecap="round" stroke-linejoin="round"/>
<path d="M128.433 37.386C128.433 37.386 128.376 37.3541 128.267 37.2871C128.159 37.2185 128 37.1159 127.777 37.0065C127.336 36.7834 126.649 36.4933 125.713 36.3732C124.786 36.2575 123.592 36.3105 122.36 36.8416C121.749 37.1068 121.139 37.4989 120.599 38.0307C120.065 38.5671 119.603 39.2371 119.267 40.0081C118.943 40.7826 118.733 41.6568 118.742 42.576C118.744 43.0339 118.791 43.5034 118.912 43.9643C119.019 44.4281 119.195 44.8863 119.451 45.3051C119.707 45.7223 120.059 46.096 120.505 46.331C120.945 46.567 121.479 46.6725 121.977 46.5393C122.477 46.4097 122.899 46.0397 123.165 45.5797C123.434 45.1175 123.539 44.5635 123.488 44.0157C123.383 42.9124 122.788 41.8669 121.997 41.0308C121.196 40.1911 120.142 39.5709 118.986 39.2311C118.406 39.0705 117.802 38.9783 117.189 38.9674C116.577 38.9581 115.96 39.0519 115.366 39.2281C115.219 39.2794 115.067 39.314 114.925 39.3794L114.496 39.5663C114.221 39.7166 113.944 39.8646 113.691 40.0537C113.178 40.4194 112.713 40.8604 112.317 41.364C111.542 42.3789 111.023 43.5861 110.898 44.8289C110.756 46.0645 110.996 47.3346 111.61 48.3712C111.916 48.8873 112.322 49.341 112.814 49.6626C113.303 49.9875 113.883 50.1492 114.456 50.1504C115.028 50.1519 115.6 49.9882 116.045 49.6496C116.49 49.3108 116.78 48.7985 116.874 48.2611C116.973 47.7202 116.897 47.1648 116.727 46.6563C116.554 46.1467 116.279 45.6806 115.942 45.2832C115.242 44.5018 114.315 43.9851 113.366 43.7317C112.413 43.4796 111.435 43.4801 110.545 43.6893C109.655 43.9025 108.865 44.3394 108.228 44.8826C106.94 45.9769 106.26 47.4501 106.067 48.7656C105.882 50.0974 106.132 51.2665 106.472 52.1406C106.815 53.0216 107.237 53.634 107.545 54.022C107.702 54.2152 107.825 54.3593 107.914 54.4507C108 54.5447 108.042 54.5953 108.042 54.5953C108.042 54.5953 107.994 54.5509 107.905 54.4598C107.812 54.3712 107.685 54.2297 107.525 54.0384C107.209 53.6542 106.778 53.043 106.425 52.1587C106.075 51.2812 105.816 50.1035 105.996 48.7552C106.184 47.4226 106.867 45.9281 108.169 44.813C108.814 44.2596 109.616 43.8125 110.522 43.5926C111.426 43.3769 112.422 43.374 113.393 43.6284C114.36 43.8848 115.306 44.4076 116.026 45.2089C116.375 45.6173 116.657 46.0948 116.836 46.619C117.011 47.142 117.093 47.7161 116.991 48.2824C116.892 48.8452 116.587 49.3874 116.118 49.7458C115.648 50.1038 115.05 50.2743 114.455 50.2736C113.861 50.2733 113.255 50.1052 112.746 49.7674C112.235 49.4341 111.816 48.9658 111.501 48.4362C110.871 47.373 110.626 46.076 110.77 44.8148C110.898 43.5471 111.425 42.3181 112.215 41.2843C112.618 40.7714 113.093 40.3219 113.617 39.9484C113.875 39.7555 114.159 39.6042 114.439 39.4509L114.878 39.2598C115.023 39.1931 115.179 39.1576 115.329 39.1053C115.936 38.9252 116.566 38.8301 117.19 38.84C117.815 38.8514 118.43 38.9456 119.021 39.1096C120.197 39.4563 121.269 40.0883 122.086 40.9454C122.892 41.8005 123.497 42.8623 123.605 44.0056C123.659 44.5722 123.548 45.1551 123.265 45.638C122.987 46.1188 122.54 46.511 122.006 46.6491C121.473 46.7897 120.912 46.6755 120.454 46.4283C119.987 46.1816 119.622 45.7909 119.36 45.3612C119.098 44.9294 118.919 44.4612 118.812 43.989C118.69 43.5193 118.644 43.0415 118.642 42.5762C118.636 41.6419 118.853 40.7557 119.184 39.9716C119.527 39.1911 119.998 38.5134 120.542 37.9721C121.091 37.4349 121.712 37.0402 122.332 36.7751C123.581 36.2442 124.786 36.1988 125.72 36.3231C126.662 36.4519 127.35 36.7518 127.788 36.9833C128.01 37.0969 128.168 37.2034 128.274 37.2757C128.381 37.3469 128.433 37.386 128.433 37.386Z" fill="#E2D2FF" stroke="#D2B8FF" stroke-width="1.6" stroke-linecap="round" stroke-linejoin="round"/>
<defs>
<filter id="filter0_d_11297_2139" x="1.14527e-05" y="0" width="136" height="111.287" filterUnits="userSpaceOnUse" color-interpolation-filters="sRGB">
<feFlood flood-opacity="0" result="BackgroundImageFix"/>
<feColorMatrix in="SourceAlpha" type="matrix" values="0 0 0 0 0 0 0 0 0 0 0 0 0 0 0 0 0 0 127 0" result="hardAlpha"/>
<feOffset/>
<feGaussianBlur stdDeviation="12.85"/>
<feComposite in2="hardAlpha" operator="out"/>
<feColorMatrix type="matrix" values="0 0 0 0 0.682353 0 0 0 0 0.447059 0 0 0 0 1 0 0 0 0.14 0"/>
<feBlend mode="normal" in2="BackgroundImageFix" result="effect1_dropShadow_11297_2139"/>
<feBlend mode="normal" in="SourceGraphic" in2="effect1_dropShadow_11297_2139" result="shape"/>
</filter>
</defs>
</svg>
