<svg width="110" height="110" viewBox="0 0 110 110" fill="none" xmlns="http://www.w3.org/2000/svg">
<circle cx="55" cy="55" r="55" fill="#F1EAFF"/>
<rect x="59.583" y="40.3334" width="25.6667" height="41.25" rx="3" fill="#E0CFFF"/>
<rect x="24.75" y="40.3334" width="25.6667" height="41.25" rx="3" fill="#E0CFFF"/>
<rect opacity="0.34" x="26.584" y="75.1667" width="22" height="4.58333" rx="2.29167" fill="#FBF9FF"/>
<rect opacity="0.34" x="61.417" y="75.1667" width="22" height="4.58333" rx="2.29167" fill="#FBF9FF"/>
<g filter="url(#filter0_d_1616_10196)">
<rect x="39.416" y="23.8333" width="31.1667" height="49.5" rx="3" fill="#634976"/>
</g>
<rect opacity="0.22" x="42.166" y="63.25" width="25.6667" height="5.5" rx="2.75" fill="#A177C1"/>
<path fill-rule="evenodd" clip-rule="evenodd" d="M51.32 42.9875C50.6369 42.4993 49.8135 42.2315 48.9641 42.2315C48.5449 42.2315 48.2081 42.5683 48.2081 42.9875C48.2081 43.4067 48.5449 43.7434 48.9641 43.7434C49.8135 43.7434 50.6369 43.4756 51.32 42.9875ZM54.9041 46.5716C54.416 47.2547 54.1482 48.0781 54.1482 48.9275C54.1482 49.3467 54.4849 49.6835 54.9041 49.6835C55.3233 49.6835 55.6601 49.3467 55.6601 48.9275C55.6601 48.0781 55.3923 47.2547 54.9041 46.5716ZM58.4883 42.9875C59.1714 43.4756 59.9947 43.7434 60.8442 43.7434C61.2634 43.7434 61.6002 43.4067 61.6002 42.9875C61.6002 42.5683 61.2634 42.2315 60.8442 42.2315C59.9947 42.2315 59.1714 42.4993 58.4883 42.9875ZM54.9041 41.5436L53.4603 42.9875L54.9041 44.4313L56.348 42.9875L54.9041 41.5436ZM55.9113 40.4881C56.6879 39.5166 57.1182 38.3034 57.1182 37.0474C57.1182 35.7914 56.1285 34.8333 54.9041 34.8333C53.6798 34.8333 52.6901 35.8231 52.6901 37.0474C52.6901 38.2717 53.1204 39.5166 53.897 40.4881L52.4056 41.9795C51.4341 41.2029 50.2209 40.7726 48.9649 40.7726C47.7088 40.7726 46.75 41.7631 46.75 42.9875C46.75 44.2118 47.7397 45.2015 48.9641 45.2015C50.1884 45.2015 51.4333 44.7712 52.4048 43.9946L53.8962 45.486C53.1196 46.4575 52.6893 47.6707 52.6893 48.9267C52.6893 50.1828 53.679 51.1408 54.9034 51.1408C56.1277 51.1408 57.1174 50.1511 57.1174 48.9267C57.1174 47.7024 56.6871 46.4575 55.9105 45.486L57.4019 43.9946C58.3734 44.7712 59.5866 45.2015 60.8426 45.2015C62.0986 45.2015 63.0567 44.2118 63.0567 42.9875C63.0567 41.7631 62.067 40.7734 60.8426 40.7734C59.6183 40.7734 58.3734 41.2037 57.4019 41.9803L55.9105 40.4889L55.9113 40.4881ZM54.9041 36.2914C54.4849 36.2914 54.1482 36.6282 54.1482 37.0474C54.1482 37.8969 54.416 38.7202 54.9041 39.4033C55.3923 38.7202 55.6601 37.8969 55.6601 37.0474C55.6601 36.6282 55.3233 36.2914 54.9041 36.2914Z" fill="#715386"/>
<defs>
<filter id="filter0_d_1616_10196" x="35.416" y="19.8333" width="39.167" height="57.5" filterUnits="userSpaceOnUse" color-interpolation-filters="sRGB">
<feFlood flood-opacity="0" result="BackgroundImageFix"/>
<feColorMatrix in="SourceAlpha" type="matrix" values="0 0 0 0 0 0 0 0 0 0 0 0 0 0 0 0 0 0 127 0" result="hardAlpha"/>
<feOffset/>
<feGaussianBlur stdDeviation="2"/>
<feComposite in2="hardAlpha" operator="out"/>
<feColorMatrix type="matrix" values="0 0 0 0 0.305882 0 0 0 0 0.2 0 0 0 0 0.447059 0 0 0 0.22 0"/>
<feBlend mode="normal" in2="BackgroundImageFix" result="effect1_dropShadow_1616_10196"/>
<feBlend mode="normal" in="SourceGraphic" in2="effect1_dropShadow_1616_10196" result="shape"/>
</filter>
</defs>
</svg>
