<svg width="93" height="70" viewBox="0 0 93 70" fill="none" xmlns="http://www.w3.org/2000/svg">
<circle cx="47.2245" cy="35" r="35" fill="#FBF9FF"/>
<g clip-path="url(#clip0_853_2227)">
<path d="M65.967 31.193C64.4791 31.1938 63.146 31.8607 62.2468 32.913C61.7914 33.446 61.1295 33.7558 60.4305 33.7558C59.112 33.7558 58.0435 32.6813 58.0435 31.3561L58.0472 16.1284H42.897C41.5785 16.1284 40.51 17.203 40.51 18.5281C40.51 19.2309 40.8183 19.8963 41.3484 20.3542C42.3951 21.2581 43.0585 22.5984 43.0592 24.0942C43.0607 26.8125 40.8573 29.0284 38.1534 29.0284C35.4443 29.0284 33.2477 26.8204 33.2477 24.0965C33.2477 22.5984 33.9122 21.2563 34.9611 20.3519C35.4909 19.8952 35.7968 19.2298 35.7968 18.5281C35.7968 17.2026 34.728 16.1284 33.4098 16.1284L19 16.125V56.1216L58.0435 56.125V40.8939C58.0435 39.5684 59.1123 38.4942 60.4305 38.4942C61.1284 38.4942 61.7903 38.8018 62.2446 39.3343C63.1441 40.3889 64.4791 41.057 65.9692 41.057C68.6783 41.057 70.875 38.849 70.875 36.125C70.875 33.4067 68.6705 31.1919 65.967 31.193Z" fill="#D2B8FF"/>
<path fill-rule="evenodd" clip-rule="evenodd" d="M34.9036 39.2504C34.3014 38.8014 33.5756 38.555 32.8268 38.555C32.4572 38.555 32.1604 38.8648 32.1604 39.2504C32.1604 39.636 32.4572 39.9457 32.8268 39.9457C33.5756 39.9457 34.3014 39.6994 34.9036 39.2504ZM38.0632 42.5472C37.6329 43.1755 37.3968 43.9328 37.3968 44.7142C37.3968 45.0998 37.6937 45.4096 38.0632 45.4096C38.4327 45.4096 38.7296 45.0998 38.7296 44.7142C38.7296 43.9328 38.4935 43.1755 38.0632 42.5472ZM41.2228 39.2504C41.825 39.6994 42.5508 39.9457 43.2996 39.9457C43.6692 39.9457 43.966 39.636 43.966 39.2504C43.966 38.8648 43.6692 38.555 43.2996 38.555C42.5508 38.555 41.825 38.8014 41.2228 39.2504ZM38.0632 37.9223L36.7904 39.2504L38.0632 40.5784L39.336 39.2504L38.0632 37.9223ZM38.9511 36.9514C39.6357 36.0578 40.015 34.9418 40.015 33.7865C40.015 32.6312 39.1425 31.75 38.0632 31.75C36.9839 31.75 36.1114 32.6604 36.1114 33.7865C36.1114 34.9127 36.4907 36.0578 37.1753 36.9514L35.8606 38.3232C35.0042 37.6089 33.9347 37.2131 32.8275 37.2131C31.7203 37.2131 30.875 38.1242 30.875 39.2504C30.875 40.3765 31.7475 41.2869 32.8268 41.2869C33.9061 41.2869 35.0035 40.8911 35.8599 40.1768L37.1746 41.5486C36.49 42.4422 36.1107 43.5582 36.1107 44.7135C36.1107 45.8688 36.9832 46.75 38.0625 46.75C39.1418 46.75 40.0143 45.8396 40.0143 44.7135C40.0143 43.5873 39.635 42.4422 38.9504 41.5486L40.2651 40.1768C41.1215 40.8911 42.191 41.2869 43.2982 41.2869C44.4054 41.2869 45.25 40.3765 45.25 39.2504C45.25 38.1242 44.3775 37.2138 43.2982 37.2138C42.2189 37.2138 41.1215 37.6096 40.2651 38.3239L38.9504 36.9521L38.9511 36.9514ZM38.0632 33.0912C37.6937 33.0912 37.3968 33.401 37.3968 33.7865C37.3968 34.5679 37.6329 35.3252 38.0632 35.9536C38.4935 35.3252 38.7296 34.5679 38.7296 33.7865C38.7296 33.401 38.4327 33.0912 38.0632 33.0912Z" fill="#1F0433"/>
<path d="M58.375 56.122L58.3788 40.826C58.3788 39.4949 59.4531 38.416 60.7785 38.416C61.4799 38.416 62.1456 38.7252 62.6023 39.2598C63.5067 40.3186 64.8491 40.9895 66.347 40.9895C69.0708 40.9895 71.2788 38.772 71.2788 36.0366C71.2788 33.3069 69.0629 31.0827 66.3444 31.0838C64.8487 31.0846 63.5083 31.7543 62.6046 32.8109C62.1468 33.3462 61.4814 33.6573 60.7785 33.6573C59.4531 33.6573 58.3788 32.5784 58.3788 31.2473V15.9513L73.606 15.9551C74.9314 15.9551 76.0057 14.8762 76.0057 13.5451C76.0057 12.8392 75.696 12.171 75.163 11.7112C74.1104 10.8033 73.4436 9.45754 73.4432 7.95546C73.4417 5.22575 75.6569 3 78.375 3C81.0988 3 83.3068 5.21744 83.3068 7.95282C83.3068 9.45716 82.6388 10.8052 81.5844 11.7135C81.0518 12.1721 80.7443 12.8407 80.7443 13.5451C80.7443 14.8762 81.8186 15.9551 83.144 15.9551H98.375L98.3712 56.125L58.3758 56.1212L58.375 56.122Z" fill="#F1EAFF"/>
</g>
<circle cx="18.5098" cy="12.7942" r="7.05882" fill="#D2B8FF"/>
<path d="M16.7798 12.8217C15.9032 12.8217 15.2156 12.1984 15.2156 11.4022C15.2156 10.598 15.8992 9.9707 16.7838 9.9707C17.6725 9.9707 18.3521 10.5819 18.3521 11.3942C18.3521 12.1984 17.6604 12.8217 16.7798 12.8217ZM17.6765 15.5722H16.3495L19.7032 10.1034H21.0503L17.6765 15.5722ZM16.7878 11.8244C17.005 11.8244 17.1337 11.6435 17.1337 11.4062C17.1337 11.1489 17.005 10.9559 16.7838 10.9559C16.5667 10.9559 16.438 11.1409 16.438 11.3982C16.438 11.6395 16.5667 11.8244 16.7878 11.8244ZM20.5235 15.6847C19.6509 15.6847 18.9633 15.0655 18.9633 14.2733C18.9633 13.4651 19.6509 12.8378 20.5355 12.8378C21.4162 12.8378 22.0957 13.449 22.0957 14.2613C22.0957 15.0655 21.4081 15.6847 20.5235 15.6847ZM20.5355 14.6955C20.7527 14.6955 20.8814 14.5106 20.8814 14.2733C20.8814 14.016 20.7487 13.823 20.5315 13.823C20.3144 13.823 20.1857 14.0079 20.1857 14.2653C20.1857 14.5025 20.3144 14.6955 20.5355 14.6955Z" fill="white"/>
<circle cx="72.6471" cy="56.6471" r="9.64706" fill="#FFC2A7"/>
<path d="M72.8631 61.0396C72.7765 61.0935 72.6668 61.0962 72.5775 61.0458C71.8029 60.6125 68.21 58.4477 68.3506 55.6162C68.4991 52.6229 71.7472 53.142 72.5492 54.6152C72.5793 54.6709 72.6394 54.7045 72.7031 54.701C72.7667 54.6974 72.8225 54.6585 72.8472 54.5993C73.2407 53.6531 74.5115 52.9678 75.7079 53.417C77.1352 53.9529 78.5854 57.4927 72.864 61.0387L72.8631 61.0396Z" fill="#FFEDE6"/>
<defs>
<clipPath id="clip0_853_2227">
<rect x="11" width="72" height="70" rx="35" fill="white"/>
</clipPath>
</defs>
</svg>
