<svg width="120" height="90" viewBox="0 0 120 90" fill="none" xmlns="http://www.w3.org/2000/svg">
<path d="M60.9348 90C85.8767 90 106.096 69.8528 106.096 45C106.096 20.1472 85.8767 0 60.9348 0C35.993 0 15.7736 20.1472 15.7736 45C15.7736 69.8528 35.993 90 60.9348 90Z" fill="#FBF9FF"/>
<mask id="mask0_11297_2193" style="mask-type:luminance" maskUnits="userSpaceOnUse" x="14" y="0" width="94" height="90">
<path d="M61.9355 0H59.3549C34.413 0 14.1936 20.1472 14.1936 45C14.1936 69.8528 34.413 90 59.3549 90H61.9355C86.8774 90 107.097 69.8528 107.097 45C107.097 20.1472 86.8774 0 61.9355 0Z" fill="white"/>
</mask>
<g mask="url(#mask0_11297_2193)">
<path d="M85.1188 40.1053C83.199 40.1063 81.4788 40.9638 80.3186 42.3167C79.7309 43.002 78.8769 43.4003 77.9749 43.4003C76.2737 43.4003 74.8949 42.0188 74.8949 40.315L74.8997 20.7365H55.3511C53.6498 20.7365 52.2711 22.1181 52.2711 23.8218C52.2711 24.7254 52.6689 25.581 53.3529 26.1697C54.7035 27.3318 55.5595 29.0551 55.5604 30.9783C55.5623 34.4732 52.7192 37.3222 49.2303 37.3222C45.7347 37.3222 42.9004 34.4834 42.9004 30.9812C42.9004 29.0551 43.7578 27.3295 45.1112 26.1667C45.7948 25.5795 46.1895 24.724 46.1895 23.8218C46.1895 22.1176 44.8104 20.7365 43.1095 20.7365L24.5162 20.7321V72.1563L74.8949 72.1607V52.5779C74.8949 50.8737 76.274 49.4925 77.9749 49.4925C78.8755 49.4925 79.7295 49.888 80.3157 50.5727C81.4764 51.9286 83.1989 52.7876 85.1217 52.7876C88.6173 52.7876 91.4517 49.9487 91.4517 46.4464C91.4517 42.9515 88.6072 40.1039 85.1188 40.1053Z" fill="#D2B8FF"/>
<path fill-rule="evenodd" clip-rule="evenodd" d="M45.0371 50.4648C44.26 49.8875 43.3235 49.5707 42.3573 49.5707C41.8804 49.5707 41.4974 49.969 41.4974 50.4648C41.4974 50.9606 41.8804 51.3588 42.3573 51.3588C43.3235 51.3588 44.26 51.0421 45.0371 50.4648ZM49.114 54.7035C48.5587 55.5114 48.2541 56.485 48.2541 57.4897C48.2541 57.9855 48.6372 58.3838 49.114 58.3838C49.5907 58.3838 49.9738 57.9855 49.9738 57.4897C49.9738 56.485 49.6692 55.5114 49.114 54.7035ZM53.1909 50.4648C53.9679 51.0421 54.9044 51.3588 55.8706 51.3588C56.3475 51.3588 56.7305 50.9606 56.7305 50.4648C56.7305 49.969 56.3475 49.5707 55.8706 49.5707C54.9044 49.5707 53.9679 49.8875 53.1909 50.4648ZM49.114 48.7572L47.4716 50.4648L49.114 52.1722L50.7563 50.4648L49.114 48.7572ZM50.2596 47.5089C51.143 46.36 51.6324 44.9252 51.6324 43.4398C51.6324 41.9544 50.5066 40.8214 49.114 40.8214C47.7213 40.8214 46.5955 41.9919 46.5955 43.4398C46.5955 44.8878 47.0849 46.36 47.9683 47.5089L46.2719 49.2727C45.1669 48.3543 43.7869 47.8454 42.3582 47.8454C40.9296 47.8454 39.8389 49.0168 39.8389 50.4648C39.8389 51.9126 40.9647 53.0832 42.3573 53.0832C43.75 53.0832 45.166 52.5743 46.271 51.6559L47.9674 53.4196C47.084 54.5685 46.5946 56.0034 46.5946 57.4888C46.5946 58.9742 47.7204 60.1071 49.1131 60.1071C50.5057 60.1071 51.6315 58.9366 51.6315 57.4888C51.6315 56.0408 51.1421 54.5685 50.2587 53.4196L51.9551 51.6559C53.0602 52.5743 54.4402 53.0832 55.8688 53.0832C57.2974 53.0832 58.3873 51.9126 58.3873 50.4648C58.3873 49.0168 57.2614 47.8463 55.8688 47.8463C54.4762 47.8463 53.0602 48.3552 51.9551 49.2736L50.2596 47.5089ZM49.114 42.5458C48.6372 42.5458 48.2541 42.9441 48.2541 43.4398C48.2541 44.4444 48.5587 45.4181 49.114 46.2261C49.6692 45.4181 49.9738 44.4444 49.9738 43.4398C49.9738 42.9441 49.5907 42.5458 49.114 42.5458Z" fill="#1F0433"/>
<path d="M75.3226 72.1569L75.3275 52.4906C75.3275 50.7792 76.7137 49.392 78.4239 49.392C79.329 49.392 80.1879 49.7895 80.7772 50.4769C81.9442 51.8382 83.6763 52.7008 85.6091 52.7008C89.1237 52.7008 91.9727 49.8497 91.9727 46.3328C91.9727 42.8232 89.1135 39.9635 85.6057 39.9649C83.6758 39.9659 81.9462 40.827 80.7802 42.1854C80.1895 42.8737 79.3309 43.2737 78.4239 43.2737C76.7137 43.2737 75.3275 41.8865 75.3275 40.1751V20.5088L94.9755 20.5137C96.6857 20.5137 98.0719 19.1265 98.0719 17.4151C98.0719 16.5075 97.6723 15.6484 96.9846 15.0573C95.6264 13.89 94.766 12.1597 94.7655 10.2284C94.7635 6.71882 97.6219 3.85714 101.129 3.85714C104.644 3.85714 107.493 6.70813 107.493 10.2251C107.493 12.1592 106.631 13.8924 105.27 15.0602C104.583 15.6498 104.186 16.5095 104.186 17.4151C104.186 19.1265 105.572 20.5137 107.283 20.5137H126.936L126.931 72.1607L75.3237 72.1558L75.3226 72.1569Z" fill="#F1EAFF"/>
</g>
<path d="M23.8837 25.5253C28.914 25.5253 32.9918 21.462 32.9918 16.4497C32.9918 11.4374 28.914 7.37406 23.8837 7.37406C18.8534 7.37406 14.7755 11.4374 14.7755 16.4497C14.7755 21.462 18.8534 25.5253 23.8837 25.5253Z" fill="#D2B8FF"/>
<path d="M21.6514 16.485C20.5203 16.485 19.6331 15.6837 19.6331 14.66C19.6331 13.626 20.5151 12.8195 21.6565 12.8195C22.8033 12.8195 23.6802 13.6053 23.6802 14.6497C23.6802 15.6837 22.7876 16.485 21.6514 16.485ZM22.8084 20.0214H21.0962L25.4235 12.9901H27.1617L22.8084 20.0214ZM21.6617 15.2028C21.942 15.2028 22.108 14.9702 22.108 14.6651C22.108 14.3343 21.942 14.0862 21.6565 14.0862C21.3764 14.0862 21.2103 14.324 21.2103 14.6548C21.2103 14.9651 21.3764 15.2028 21.6617 15.2028ZM26.482 20.166C25.356 20.166 24.4688 19.3699 24.4688 18.3514C24.4688 17.3123 25.356 16.5057 26.4974 16.5057C27.6338 16.5057 28.5106 17.2916 28.5106 18.336C28.5106 19.3699 27.6234 20.166 26.482 20.166ZM26.4974 18.8942C26.7777 18.8942 26.9438 18.6565 26.9438 18.3514C26.9438 18.0206 26.7725 17.7724 26.4923 17.7724C26.2122 17.7724 26.0461 18.0102 26.0461 18.3411C26.0461 18.6461 26.2122 18.8942 26.4974 18.8942Z" fill="white"/>
<path d="M93.7382 85.2353C100.613 85.2353 106.186 79.6822 106.186 72.832C106.186 65.9818 100.613 60.4286 93.7382 60.4286C86.8635 60.4286 81.2904 65.9818 81.2904 72.832C81.2904 79.6822 86.8635 85.2353 93.7382 85.2353Z" fill="#FFC2A7"/>
<path d="M94.017 78.4795C93.9052 78.5488 93.7637 78.5522 93.6485 78.4874C92.649 77.9303 88.013 75.147 88.1944 71.5065C88.386 67.658 92.5771 68.3254 93.6119 70.2195C93.6508 70.2912 93.7283 70.3344 93.8105 70.3299C93.8926 70.3252 93.9646 70.2752 93.9965 70.1991C94.5042 68.9826 96.1439 68.1014 97.6877 68.679C99.5294 69.368 101.401 73.9192 94.0181 78.4783L94.017 78.4795Z" fill="#FFEDE6"/>
</svg>
