<svg width="504" height="370" viewBox="0 0 504 370" fill="none" xmlns="http://www.w3.org/2000/svg">
<mask id="mask0_577_3653" style="mask-type:alpha" maskUnits="userSpaceOnUse" x="0" y="0" width="426" height="305">
<rect x="0.5" y="0.5" width="425" height="304" rx="8.5" fill="#FDFBFF" stroke="#3C1C54"/>
</mask>
<g mask="url(#mask0_577_3653)">
<path opacity="0.8" d="M0 276.349C0 276.349 37.6175 135.453 61.567 236.669C85.5166 337.885 123.134 -27.0227 194.306 144.657C260.336 303.992 282.839 44.3643 358.905 266.067C372.481 305.655 382.701 258.833 397.723 212.073C418.41 147.735 431 237.439 431 237.439V368.115H0V276.318" fill="#3C1C54"/>
<line opacity="0.11" x1="4.37114e-08" y1="252.5" x2="426" y2="252.5" stroke="#AE72FF"/>
<line opacity="0.11" x1="4.37114e-08" y1="191.5" x2="426" y2="191.5" stroke="#AE72FF"/>
<line opacity="0.11" x1="4.37114e-08" y1="130.5" x2="426" y2="130.5" stroke="#AE72FF"/>
<line opacity="0.11" x1="4.37114e-08" y1="65.5" x2="426" y2="65.5" stroke="#AE72FF"/>
<path opacity="0.8" d="M-16 317C-16 317 57.9403 20.7945 129.86 184.144C201.78 347.517 270.763 254.982 319.225 218.715C367.656 182.448 426 267.858 426 267.858V315.083H-16" fill="#AE72FF"/>
</g>
<rect x="0.5" y="0.5" width="425" height="304" rx="8.5" stroke="#AE72FF"/>
<path d="M9 0.5H417C421.694 0.5 425.5 4.30558 425.5 9V42.5H0.5V9C0.5 4.30558 4.30558 0.5 9 0.5Z" fill="#AE72FF" stroke="#AE72FF"/>
<path fill-rule="evenodd" clip-rule="evenodd" d="M394.5 11.2304C393.857 11.2304 393.342 11.7451 393.342 12.3885C393.342 13.6936 393.752 14.9559 394.5 16.0037C395.248 14.9559 395.658 13.6936 395.658 12.3885C395.658 11.7451 395.143 11.2304 394.5 11.2304ZM396.044 17.6703C397.233 16.1814 397.895 14.3186 397.895 12.3946C397.895 10.4706 396.375 9 394.5 9C392.625 9 391.105 10.5196 391.105 12.3946C391.105 14.2696 391.767 16.1814 392.956 17.6703L390.67 19.9559C389.181 18.7672 387.319 18.1054 385.395 18.1054C383.471 18.1054 382 19.625 382 21.5C382 23.375 383.52 24.8946 385.395 24.8946C387.27 24.8946 389.181 24.2328 390.67 23.0441L392.956 25.3297C391.767 26.8186 391.105 28.6814 391.105 30.6054C391.105 32.5294 392.625 34 394.5 34C396.375 34 397.895 32.4804 397.895 30.6054C397.895 28.7304 397.233 26.8186 396.044 25.3297L398.33 23.0441C399.819 24.2328 401.681 24.8946 403.605 24.8946C405.529 24.8946 407 23.375 407 21.5C407 19.625 405.48 18.1054 403.605 18.1054C401.73 18.1054 399.819 18.7672 398.33 19.9559L396.044 17.6703ZM394.5 19.288L392.288 21.5L394.5 23.712L396.712 21.5L394.5 19.288ZM399.996 21.5C401.044 22.2475 402.306 22.6581 403.612 22.6581C404.255 22.6581 404.77 22.1434 404.77 21.5C404.77 20.8566 404.255 20.3419 403.612 20.3419C402.306 20.3419 401.044 20.7525 399.996 21.5ZM394.5 26.9963C393.752 28.0441 393.342 29.3064 393.342 30.6115C393.342 31.2549 393.857 31.7696 394.5 31.7696C395.143 31.7696 395.658 31.2549 395.658 30.6115C395.658 29.3064 395.248 28.0441 394.5 26.9963ZM389.004 21.5C387.956 20.7525 386.694 20.3419 385.388 20.3419C384.745 20.3419 384.23 20.8566 384.23 21.5C384.23 22.1434 384.745 22.6581 385.388 22.6581C386.694 22.6581 387.956 22.2475 389.004 21.5Z" fill="#1F0433"/>
<circle cx="27.5" cy="21.5" r="7.5" fill="#1F0433"/>
<circle cx="47.5" cy="21.5" r="7.5" fill="#1F0433"/>
<circle cx="67.5" cy="21.5" r="7.5" fill="#1F0433"/>
<rect x="286.5" y="196.5" width="217" height="173" rx="17.5" fill="#1F0433" stroke="#AE72FF"/>
<path d="M304 196.5H486C495.665 196.5 503.5 204.335 503.5 214V243.5H286.5V214C286.5 204.335 294.335 196.5 304 196.5Z" fill="#1F0433" stroke="#AE72FF"/>
<path d="M370.477 308.726C356.429 308.726 350.319 300.921 350.319 291.645C350.319 282.146 356.875 274.476 370.477 274.476C385.06 274.476 390.679 282.369 390.679 291.556C390.679 300.921 384.302 308.726 370.477 308.726ZM383.454 337.134H368.069L405.44 276.483H421.094L383.454 337.134ZM370.521 297.131C371.993 297.131 372.796 295.615 372.796 291.601C372.796 287.453 371.993 285.982 370.521 285.982C369.05 285.982 368.247 287.453 368.247 291.601C368.247 295.615 369.05 297.131 370.521 297.131ZM418.15 338.695C404.147 338.695 397.993 330.935 397.993 321.659C397.993 312.16 404.593 304.445 418.24 304.445C432.733 304.445 438.353 312.383 438.353 321.57C438.353 330.935 432.02 338.695 418.15 338.695ZM418.24 327.144C419.711 327.144 420.469 325.583 420.469 321.614C420.469 317.467 419.711 315.995 418.195 315.995C416.768 315.995 416.01 317.467 416.01 321.57C416.01 325.583 416.768 327.144 418.24 327.144Z" fill="#36174D"/>
<rect x="418" y="210" width="67" height="20" fill="#36174D"/>
<rect x="304" y="210" width="17" height="20" fill="#36174D"/>
</svg>
