<svg width="80" height="81" viewBox="0 0 80 81" fill="none" xmlns="http://www.w3.org/2000/svg">
<circle cx="40" cy="40.4999" r="40" fill="#FBF9FF"/>
<circle cx="67.5098" cy="67.7942" r="7.05882" fill="#D2B8FF"/>
<path d="M65.7799 67.8217C64.9033 67.8217 64.2157 67.1984 64.2157 66.4022C64.2157 65.598 64.8993 64.9707 65.7839 64.9707C66.6726 64.9707 67.3522 65.5819 67.3522 66.3942C67.3522 67.1984 66.6606 67.8217 65.7799 67.8217ZM66.6766 70.5722H65.3497L68.7033 65.1034H70.0504L66.6766 70.5722ZM65.788 66.8244C66.0051 66.8244 66.1338 66.6435 66.1338 66.4062C66.1338 66.1489 66.0051 65.9559 65.7839 65.9559C65.5668 65.9559 65.4381 66.1409 65.4381 66.3982C65.4381 66.6395 65.5668 66.8244 65.788 66.8244ZM69.5236 70.6847C68.651 70.6847 67.9634 70.0655 67.9634 69.2733C67.9634 68.4651 68.651 67.8378 69.5357 67.8378C70.4163 67.8378 71.0959 68.449 71.0959 69.2613C71.0959 70.0655 70.4083 70.6847 69.5236 70.6847ZM69.5357 69.6955C69.7528 69.6955 69.8815 69.5106 69.8815 69.2733C69.8815 69.016 69.7488 68.823 69.5316 68.823C69.3145 68.823 69.1858 69.0079 69.1858 69.2653C69.1858 69.5025 69.3145 69.6955 69.5357 69.6955Z" fill="white"/>
<circle cx="13.1569" cy="12.9707" r="9.64706" fill="#FFC2A7"/>
<path d="M13.373 17.3633C13.2863 17.4173 13.1767 17.4199 13.0874 17.3695C12.3127 16.9362 8.71984 14.7715 8.86045 11.94C9.00901 8.94661 12.257 9.46569 13.0591 10.9389C13.0891 10.9946 13.1493 11.0282 13.2129 11.0247C13.2766 11.0212 13.3323 10.9823 13.3571 10.923C13.7506 9.97682 15.0213 9.29149 16.2178 9.74071C17.645 10.2766 19.0953 13.8164 13.3739 17.3624L13.373 17.3633Z" fill="#FFEDE6"/>
<mask id="mask0_642_2383" style="mask-type:alpha" maskUnits="userSpaceOnUse" x="0" y="0" width="80" height="81">
<circle cx="40" cy="40.5001" r="40" fill="#FBF9FF"/>
</mask>
<g mask="url(#mask0_642_2383)">
<path d="M31.6809 50.2838V47.8705H32.0921C34.5835 47.8705 36.603 45.851 36.603 43.3599H28.0464H28.0462H28.046C27.6207 43.3599 27.276 43.705 27.276 44.1302V52.5092L35.9225 52.5144C35.9225 50.1715 34.0235 50.2838 31.6809 50.2838Z" fill="#FFE4CA"/>
<path d="M29.075 46.7128L29.3302 46.7191L29.3335 50.6203L29.075 46.7128Z" fill="#EBC49A"/>
<path d="M67.0047 3.79419L20.2161 32.2034L22.0204 38.6887L23.9553 38.6946V41.3445C23.9553 44.3082 26.3665 46.7195 29.3302 46.7195H46.4818C49.4457 46.7195 51.8568 44.3081 51.8568 41.3445V38.7793L76.7581 38.8549L67.0047 3.79419ZM47.9724 41.3445C47.9724 42.1665 47.3038 42.835 46.4818 42.835H29.3302C28.5084 42.835 27.8399 42.1665 27.8399 41.3445V38.7064L47.9724 38.7673V41.3445Z" fill="#E2D2FF"/>
<path d="M13.3922 28.8589L17.9036 45.0765L22.0204 38.6886L20.2162 32.2033L13.3922 28.8589Z" fill="#D2B8FF"/>
<path d="M23.9553 38.6945L27.8399 38.7062V40.4415L23.9553 38.6945Z" fill="#D2B8FF"/>
<path d="M47.9724 38.7675L51.8568 38.7795V40.5148L47.9724 38.7675Z" fill="#D2B8FF"/>
<path d="M44.4965 39.3948H31.2848C30.2116 39.3948 29.3334 40.2729 29.3334 41.3459V50.6206H27.2759V52.5091L31.3049 55.1438V62.2986L46.4317 62.2893C46.4317 62.2893 46.4475 48.07 46.4477 47.4486V41.3459C46.4478 40.2729 45.5697 39.3948 44.4965 39.3948Z" fill="#FFE4CA"/>
<path d="M30.0392 60.4678L47.3903 60.4258L47.327 65.1654L30.0302 65.0996L30.0392 60.4678Z" fill="#F7F7F7"/>
<path d="M47.9667 57.6249L48.1254 91.7943H28.4588L29.4816 57.6605L47.9667 57.6249Z" fill="white"/>
<path d="M46.7063 46.7139V42.8162C46.6328 42.8274 46.5583 42.835 46.4818 42.835H46.4478V46.7196H46.4818C46.5571 46.7196 46.6317 46.7171 46.7063 46.7139Z" fill="#D2B8FF"/>
<path d="M29.3335 46.7195V42.8349H29.3302C29.2431 42.8349 29.1582 42.8259 29.075 42.8116V46.7132C29.1596 46.7173 29.2446 46.7195 29.3302 46.7195H29.3335Z" fill="#D2B8FF"/>
</g>
<path d="M67.0048 3.79419L20.2162 32.2034L22.0205 38.6887L23.9554 38.6946V41.3446C23.9554 33.4412 28.0755 34.1471 31.0393 34.1471L49.1569 29.4412C52.1207 29.4412 51.8569 44.3081 51.8569 41.3446V38.7793L76.7581 38.8549L67.0048 3.79419Z" fill="#E2D2FF"/>
</svg>
