<svg width="120" height="122" viewBox="0 0 120 122" fill="none" xmlns="http://www.w3.org/2000/svg">
<g clip-path="url(#clip0_11297_2197)">
<path d="M60 121.247C93.1371 121.247 120 94.2733 120 60.9998C120 27.7264 93.1371 0.75293 60 0.75293C26.8629 0.75293 0 27.7264 0 60.9998C0 94.2733 26.8629 121.247 60 121.247Z" fill="#FBF9FF"/>
<path d="M101.265 112.742C107.112 112.742 111.853 107.982 111.853 102.11C111.853 96.238 107.112 91.478 101.265 91.478C95.417 91.478 90.6765 96.238 90.6765 102.11C90.6765 107.982 95.417 112.742 101.265 112.742Z" fill="#D2B8FF"/>
<path d="M98.6698 102.151C97.3549 102.151 96.3235 101.212 96.3235 100.013C96.3235 98.8019 97.3489 97.8571 98.6758 97.8571C100.009 97.8571 101.028 98.7776 101.028 100.001C101.028 101.212 99.9908 102.151 98.6698 102.151ZM100.015 106.294H98.0245L103.055 98.0569H105.076L100.015 106.294ZM98.6819 100.649C99.0076 100.649 99.2006 100.377 99.2006 100.019C99.2006 99.6316 99.0076 99.3409 98.6758 99.3409C98.3501 99.3409 98.1571 99.6196 98.1571 100.007C98.1571 100.371 98.3501 100.649 98.6819 100.649ZM104.285 106.463C102.976 106.463 101.945 105.531 101.945 104.338C101.945 103.12 102.976 102.175 104.303 102.175C105.624 102.175 106.644 103.096 106.644 104.319C106.644 105.531 105.612 106.463 104.285 106.463ZM104.303 104.973C104.629 104.973 104.822 104.695 104.822 104.338C104.822 103.95 104.623 103.659 104.297 103.659C103.972 103.659 103.779 103.938 103.779 104.325C103.779 104.683 103.972 104.973 104.303 104.973Z" fill="white"/>
<path d="M19.7354 34.0663C27.7272 34.0663 34.206 27.5609 34.206 19.5361C34.206 11.5113 27.7272 5.00598 19.7354 5.00598C11.7435 5.00598 5.26477 11.5113 5.26477 19.5361C5.26477 27.5609 11.7435 34.0663 19.7354 34.0663Z" fill="#FFC2A7"/>
<path d="M20.0595 26.1521C19.9295 26.2334 19.7651 26.2373 19.6311 26.1614C18.4691 25.5088 13.0798 22.2484 13.2907 17.9836C13.5135 13.4751 18.3855 14.2569 19.5887 16.4758C19.6337 16.5597 19.724 16.6103 19.8194 16.605C19.9149 16.5998 19.9985 16.5412 20.0357 16.4519C20.6259 15.0268 22.532 13.9945 24.3267 14.6711C26.4675 15.4783 28.643 20.8098 20.0609 26.1507L20.0595 26.1521Z" fill="#FFEDE6"/>
<mask id="mask0_11297_2197" style="mask-type:alpha" maskUnits="userSpaceOnUse" x="0" y="0" width="120" height="122">
<path d="M60 121.247C93.1371 121.247 120 94.2737 120 61.0002C120 27.7268 93.1371 0.753296 60 0.753296C26.8629 0.753296 0 27.7268 0 61.0002C0 94.2737 26.8629 121.247 60 121.247Z" fill="#FBF9FF"/>
</mask>
<g mask="url(#mask0_11297_2197)">
<path d="M47.5213 75.7361V72.1012H48.1381C51.8752 72.1012 54.9044 69.0595 54.9044 65.3075H42.0695C41.4316 65.3075 40.9139 65.8273 40.9139 66.4677V79.0879L53.8837 79.0958C53.8837 75.5669 51.0352 75.7361 47.5213 75.7361Z" fill="#FFE4CA"/>
<path d="M43.6124 70.3575L43.9952 70.367L44.0002 76.2429L43.6124 70.3575Z" fill="#EBC49A"/>
<path d="M100.507 5.71472L30.3241 48.5039L33.0305 58.2719L35.9329 58.2808V62.272C35.9329 66.7358 39.5497 70.3677 43.9952 70.3677H69.7226C74.1685 70.3677 77.7851 66.7357 77.7851 62.272V58.4083L115.137 58.5222L100.507 5.71472ZM71.9585 62.272C71.9585 63.5101 70.9557 64.5169 69.7226 64.5169H43.9952C42.7625 64.5169 41.7598 63.5101 41.7598 62.272V58.2985L71.9585 58.3903V62.272Z" fill="#E2D2FF"/>
<path d="M20.0883 43.4666L26.8554 67.8931L33.0306 58.2718L30.3243 48.5038L20.0883 43.4666Z" fill="#D2B8FF"/>
<path d="M35.9329 58.2806L41.7598 58.2983V60.9119L35.9329 58.2806Z" fill="#D2B8FF"/>
<path d="M71.9585 58.3906L77.7851 58.4087V61.0224L71.9585 58.3906Z" fill="#D2B8FF"/>
<path d="M66.7447 59.3354H46.9272C45.3174 59.3354 44.0001 60.658 44.0001 62.2741V76.2434H40.9138V79.0879L46.9573 83.0562V93.8325L69.6475 93.8185C69.6475 93.8185 69.6712 72.4018 69.6715 71.4659V62.2741C69.6717 60.658 68.3545 59.3354 66.7447 59.3354Z" fill="#FFE4CA"/>
<path d="M45.0588 91.075L71.0854 91.0117L70.9905 98.1504L45.0453 98.0513L45.0588 91.075Z" fill="#F7F7F7"/>
<path d="M71.95 86.7931L72.188 138.258H42.6881L44.2223 86.8467L71.95 86.7931Z" fill="white"/>
<path d="M70.0594 70.3593V64.4886C69.9491 64.5055 69.8374 64.517 69.7226 64.517H69.6716V70.3678H69.7226C69.8356 70.3678 69.9475 70.3641 70.0594 70.3593Z" fill="#D2B8FF"/>
<path d="M44.0002 70.3677V64.5168H43.9952C43.8646 64.5168 43.7372 64.5032 43.6124 64.4817V70.3582C43.7393 70.3643 43.8668 70.3677 43.9952 70.3677H44.0002Z" fill="#D2B8FF"/>
</g>
<path d="M100.507 5.71472L30.3243 48.5039L33.0308 58.2719L35.9331 58.2808V62.2721C35.9331 50.3682 42.1133 51.4314 46.559 51.4314L73.7354 44.3436C78.1811 44.3436 77.7854 66.7357 77.7854 62.2721V58.4083L115.137 58.5222L100.507 5.71472Z" fill="#E2D2FF"/>
</g>
<defs>
<clipPath id="clip0_11297_2197">
<rect width="120" height="122" fill="white"/>
</clipPath>
</defs>
</svg>
