<svg width="118" height="35" viewBox="0 0 118 35" fill="none" xmlns="http://www.w3.org/2000/svg">
<g clip-path="url(#clip0_20_5064)">
<path d="M118 0H0V35H118V0Z" fill="white"/>
<path d="M2.32131 0H0V35H2.32131V0Z" fill="black"/>
<path d="M4.64308 0H3.48242V35H4.64308V0Z" fill="black"/>
<path d="M10.4458 0H6.96387V35H10.4458V0Z" fill="black"/>
<path d="M15.0889 0H12.7676V35H15.0889V0Z" fill="black"/>
<path d="M18.5703 0H16.249V35H18.5703V0Z" fill="black"/>
<path d="M23.2129 0H20.8916V35H23.2129V0Z" fill="black"/>
<path d="M27.8555 0H25.5342V35H27.8555V0Z" fill="black"/>
<path d="M31.3379 0H29.0166V35H31.3379V0Z" fill="black"/>
<path d="M35.9805 0H33.6592V35H35.9805V0Z" fill="black"/>
<path d="M39.4624 0H38.3018V35H39.4624V0Z" fill="black"/>
<path d="M42.9444 0H40.623V35H42.9444V0Z" fill="black"/>
<path d="M48.7476 0H45.2656V35H48.7476V0Z" fill="black"/>
<path d="M52.23 0H51.0693V35H52.23V0Z" fill="black"/>
<path d="M56.8726 0H55.7119V35H56.8726V0Z" fill="black"/>
<path d="M60.3545 0H58.0332V35H60.3545V0Z" fill="black"/>
<path d="M67.3179 0H63.8359V35H67.3179V0Z" fill="black"/>
<path d="M71.9605 0H70.7998V35H71.9605V0Z" fill="black"/>
<path d="M75.4424 0H73.1211V35H75.4424V0Z" fill="black"/>
<path d="M78.9248 0H76.6035V35H78.9248V0Z" fill="black"/>
<path d="M84.728 0H83.5674V35H84.728V0Z" fill="black"/>
<path d="M87.0493 0H85.8887V35H87.0493V0Z" fill="black"/>
<path d="M94.0127 0H89.3701V35H94.0127V0Z" fill="black"/>
<path d="M96.3345 0H95.1738V35H96.3345V0Z" fill="black"/>
<path d="M100.977 0H99.8164V35H100.977V0Z" fill="black"/>
<path d="M104.459 0H102.138V35H104.459V0Z" fill="black"/>
<path d="M111.423 0H107.941V35H111.423V0Z" fill="black"/>
<path d="M113.745 0H112.584V35H113.745V0Z" fill="black"/>
<path d="M117.227 0H114.905V35H117.227V0Z" fill="black"/>
</g>
<defs>
<clipPath id="clip0_20_5064">
<rect width="118" height="35" fill="white"/>
</clipPath>
</defs>
</svg>
