<svg width="118" height="46" viewBox="0 0 118 46" fill="none" xmlns="http://www.w3.org/2000/svg">
<path d="M5.21799 42.526C5.84799 42.526 6.20799 41.926 6.20799 40.822C6.20799 39.718 5.84799 39.118 5.21799 39.118C4.59399 39.118 4.23399 39.718 4.23399 40.822C4.23399 41.926 4.59399 42.526 5.21799 42.526ZM5.21799 43.078C4.06599 43.078 3.48999 42.16 3.48999 40.822C3.48999 39.496 4.06599 38.572 5.21799 38.572C6.38199 38.572 6.95199 39.496 6.95199 40.822C6.95199 42.16 6.38199 43.078 5.21799 43.078Z" fill="black"/>
<path d="M58.002 42.526C58.506 42.526 58.884 42.25 58.884 41.776C58.884 41.218 58.446 41.026 57.798 41.026H57.588V40.432H57.768C58.44 40.432 58.776 40.21 58.776 39.76C58.776 39.322 58.422 39.118 58.02 39.118C57.492 39.118 57.198 39.436 57.132 39.946H56.436C56.502 39.118 57.102 38.572 58.062 38.572C58.788 38.572 59.508 38.902 59.508 39.718C59.508 40.15 59.256 40.51 58.872 40.696C59.394 40.888 59.622 41.314 59.622 41.758C59.622 42.646 58.86 43.078 57.99 43.078C56.988 43.078 56.43 42.418 56.382 41.65H57.078C57.144 42.13 57.438 42.526 58.002 42.526Z" fill="black"/>
<path d="M14.218 42.526C14.848 42.526 15.208 41.926 15.208 40.822C15.208 39.718 14.848 39.118 14.218 39.118C13.594 39.118 13.234 39.718 13.234 40.822C13.234 41.926 13.594 42.526 14.218 42.526ZM14.218 43.078C13.066 43.078 12.49 42.16 12.49 40.822C12.49 39.496 13.066 38.572 14.218 38.572C15.382 38.572 15.952 39.496 15.952 40.822C15.952 42.16 15.382 43.078 14.218 43.078Z" fill="black"/>
<path d="M67.446 39.58L66.078 41.362H67.446V39.58ZM68.928 41.362V41.98H68.16V43H67.446V41.98H65.298V41.386L67.452 38.65H68.16V41.362H68.928Z" fill="black"/>
<path d="M23.218 42.526C23.848 42.526 24.208 41.926 24.208 40.822C24.208 39.718 23.848 39.118 23.218 39.118C22.594 39.118 22.234 39.718 22.234 40.822C22.234 41.926 22.594 42.526 23.218 42.526ZM23.218 43.078C22.066 43.078 21.49 42.16 21.49 40.822C21.49 39.496 22.066 38.572 23.218 38.572C24.382 38.572 24.952 39.496 24.952 40.822C24.952 42.16 24.382 43.078 23.218 43.078Z" fill="black"/>
<path d="M76.038 42.526C76.518 42.526 76.896 42.184 76.896 41.602C76.896 40.954 76.452 40.648 76.02 40.648C75.612 40.648 75.324 40.846 75.234 41.104L74.562 41.068L74.85 38.65H77.454V39.28H75.438L75.3 40.372C75.51 40.204 75.81 40.102 76.2 40.102C76.944 40.102 77.634 40.612 77.634 41.59C77.634 42.562 76.89 43.078 76.026 43.078C75.018 43.078 74.49 42.418 74.442 41.668H75.132C75.198 42.172 75.462 42.526 76.038 42.526Z" fill="black"/>
<path d="M32.218 42.526C32.848 42.526 33.208 41.926 33.208 40.822C33.208 39.718 32.848 39.118 32.218 39.118C31.594 39.118 31.234 39.718 31.234 40.822C31.234 41.926 31.594 42.526 32.218 42.526ZM32.218 43.078C31.066 43.078 30.49 42.16 30.49 40.822C30.49 39.496 31.066 38.572 32.218 38.572C33.382 38.572 33.952 39.496 33.952 40.822C33.952 42.16 33.382 43.078 32.218 43.078Z" fill="black"/>
<path d="M84.27 41.602C84.27 42.178 84.618 42.526 85.116 42.526C85.614 42.526 85.968 42.178 85.968 41.602C85.968 41.026 85.62 40.672 85.122 40.672C84.624 40.672 84.27 41.026 84.27 41.602ZM85.164 39.118C84.57 39.118 84.234 39.718 84.216 40.606C84.408 40.324 84.756 40.108 85.26 40.108C86.058 40.108 86.706 40.684 86.706 41.59C86.706 42.454 86.058 43.078 85.122 43.078C83.994 43.078 83.49 42.226 83.49 40.954C83.49 39.7 83.946 38.572 85.218 38.572C86.136 38.572 86.556 39.166 86.622 39.742H85.896C85.848 39.316 85.554 39.118 85.164 39.118Z" fill="black"/>
<path d="M40.936 43H40.222V39.688H39.25V39.196C39.88 39.178 40.186 39.124 40.408 38.65H40.936V43Z" fill="black"/>
<path d="M92.2321 39.28V38.65H95.3581V39.28C94.2481 40.342 93.6541 41.398 93.5581 43H92.7481C92.8261 41.464 93.5881 40.21 94.6021 39.28H92.2321Z" fill="black"/>
<path d="M49.0379 38.572C49.8419 38.572 50.4539 38.98 50.4539 39.724C50.4539 40.624 49.5899 41.464 48.2759 42.376H50.5559V43H47.3879V42.412C48.8399 41.284 49.7099 40.504 49.7099 39.784C49.7099 39.358 49.4399 39.118 49.0079 39.118C48.5939 39.118 48.1979 39.364 48.1979 40.042H47.4839C47.4659 39.166 48.0839 38.572 49.0379 38.572Z" fill="black"/>
<path d="M102.146 38.572C103.052 38.572 103.634 39.04 103.634 39.688C103.634 40.066 103.478 40.444 103.076 40.678C103.586 40.942 103.766 41.356 103.766 41.764C103.766 42.622 103.058 43.078 102.146 43.078C101.234 43.078 100.526 42.622 100.526 41.764C100.526 41.362 100.706 40.936 101.216 40.678C100.832 40.462 100.658 40.066 100.658 39.688C100.658 39.04 101.234 38.572 102.146 38.572ZM102.146 40.954C101.612 40.954 101.27 41.254 101.27 41.74C101.27 42.238 101.612 42.526 102.146 42.526C102.68 42.526 103.022 42.238 103.022 41.74C103.022 41.254 102.68 40.954 102.146 40.954ZM102.926 39.778C102.926 39.364 102.626 39.118 102.146 39.118C101.672 39.118 101.36 39.364 101.36 39.778C101.36 40.192 101.672 40.468 102.146 40.468C102.626 40.468 102.926 40.192 102.926 39.778Z" fill="black"/>
<path d="M113.384 40.048C113.384 39.466 113.024 39.118 112.538 39.118C112.034 39.118 111.686 39.466 111.686 40.048C111.686 40.624 112.034 40.978 112.532 40.978C113.012 40.978 113.384 40.618 113.384 40.048ZM112.49 42.526C113.084 42.526 113.42 41.932 113.438 41.044C113.246 41.326 112.898 41.542 112.394 41.542C111.596 41.542 110.948 40.966 110.948 40.054C110.948 39.19 111.596 38.572 112.532 38.572C113.66 38.572 114.164 39.424 114.164 40.696C114.164 41.95 113.702 43.078 112.43 43.078C111.518 43.078 111.098 42.484 111.032 41.908H111.758C111.806 42.334 112.1 42.526 112.49 42.526Z" fill="black"/>
<mask id="mask0_11297_2160" style="mask-type:luminance" maskUnits="userSpaceOnUse" x="0" y="0" width="118" height="35">
<path d="M118 0H0V35H118V0Z" fill="white"/>
</mask>
<g mask="url(#mask0_11297_2160)">
<path d="M118 0H0V35H118V0Z" fill="white"/>
<path d="M2.32131 0H0V35H2.32131V0Z" fill="black"/>
<path d="M4.64308 0H3.48242V35H4.64308V0Z" fill="black"/>
<path d="M10.4458 0H6.96387V35H10.4458V0Z" fill="black"/>
<path d="M15.0889 0H12.7676V35H15.0889V0Z" fill="black"/>
<path d="M18.5703 0H16.249V35H18.5703V0Z" fill="black"/>
<path d="M23.2129 0H20.8916V35H23.2129V0Z" fill="black"/>
<path d="M27.8555 0H25.5342V35H27.8555V0Z" fill="black"/>
<path d="M31.3379 0H29.0166V35H31.3379V0Z" fill="black"/>
<path d="M35.9805 0H33.6592V35H35.9805V0Z" fill="black"/>
<path d="M39.4624 0H38.3018V35H39.4624V0Z" fill="black"/>
<path d="M42.9444 0H40.623V35H42.9444V0Z" fill="black"/>
<path d="M48.7476 0H45.2656V35H48.7476V0Z" fill="black"/>
<path d="M52.23 0H51.0693V35H52.23V0Z" fill="black"/>
<path d="M56.8726 0H55.7119V35H56.8726V0Z" fill="black"/>
<path d="M60.3545 0H58.0332V35H60.3545V0Z" fill="black"/>
<path d="M67.3179 0H63.8359V35H67.3179V0Z" fill="black"/>
<path d="M71.9605 0H70.7998V35H71.9605V0Z" fill="black"/>
<path d="M75.4424 0H73.1211V35H75.4424V0Z" fill="black"/>
<path d="M78.9248 0H76.6035V35H78.9248V0Z" fill="black"/>
<path d="M84.728 0H83.5674V35H84.728V0Z" fill="black"/>
<path d="M87.0493 0H85.8887V35H87.0493V0Z" fill="black"/>
<path d="M94.0127 0H89.3701V35H94.0127V0Z" fill="black"/>
<path d="M96.3345 0H95.1738V35H96.3345V0Z" fill="black"/>
<path d="M100.977 0H99.8164V35H100.977V0Z" fill="black"/>
<path d="M104.459 0H102.138V35H104.459V0Z" fill="black"/>
<path d="M111.423 0H107.941V35H111.423V0Z" fill="black"/>
<path d="M113.745 0H112.584V35H113.745V0Z" fill="black"/>
<path d="M117.227 0H114.905V35H117.227V0Z" fill="black"/>
</g>
</svg>
