<svg width="120" height="70" viewBox="0 0 120 70" fill="none" xmlns="http://www.w3.org/2000/svg">
<g clip-path="url(#clip0_11297_2141)">
<path d="M60.6752 67.5829C76.1881 67.5829 88.7638 54.9943 88.7638 39.4655C88.7638 23.9366 76.1881 11.348 60.6752 11.348C45.1623 11.348 32.5867 23.9366 32.5867 39.4655C32.5867 54.9943 45.1623 67.5829 60.6752 67.5829Z" fill="#FBF9FF"/>
<path opacity="0.49" d="M14.8929 42.3408C14.8929 39.6568 17.0665 37.4809 19.7477 37.4809H100.252C102.933 37.4809 105.107 39.6568 105.107 42.3408V55.7767C105.107 58.4607 102.933 60.6365 100.252 60.6365H19.7477C17.0665 60.6365 14.8929 58.4607 14.8929 55.7767V42.3408Z" fill="#ECE2FF"/>
<path opacity="0.49" d="M21.5022 60.6364H98.8282V64.7081C98.8282 67.3921 96.6544 69.5679 93.9738 69.5679H26.357C23.6758 69.5679 21.5022 67.3921 21.5022 64.7081V60.6364Z" fill="#F6F2FF"/>
<path d="M61.3179 20.6028C66.8822 20.6028 71.3929 16.0874 71.3929 10.5175C71.3929 4.94747 66.8822 0.432098 61.3179 0.432098C55.7537 0.432098 51.2429 4.94747 51.2429 10.5175C51.2429 16.0874 55.7537 20.6028 61.3179 20.6028Z" fill="#B6F0B1"/>
<path d="M65.0064 13.2473L65.1848 13.4828C65.2588 13.5803 65.2388 13.7186 65.1402 13.7918C65.1016 13.8204 65.0546 13.836 65.0064 13.836H57.8666C57.7434 13.836 57.6436 13.7371 57.6436 13.6152C57.6436 13.5674 57.6592 13.5209 57.6882 13.4828L57.8666 13.2473V9.42096C57.8666 7.47034 59.465 5.88903 61.4365 5.88903C63.408 5.88903 65.0064 7.47034 65.0064 9.42096V13.2473ZM60.3209 14.2774H62.5521C62.5521 14.887 62.0526 15.3812 61.4365 15.3812C60.8204 15.3812 60.3209 14.887 60.3209 14.2774Z" fill="#EFFBEE"/>
<path d="M61.1997 17.5166L58.8291 19.8896L61.1997 22.2626L63.5703 19.8896L61.1997 17.5166Z" fill="#B6F0B1"/>
<g filter="url(#filter0_d_11297_2141)">
<path d="M9.60608 31.1646C9.60608 27.8935 12.2551 25.2417 15.5229 25.2417H104.478C107.745 25.2417 110.394 27.8935 110.394 31.1646V45.1207C110.394 48.3918 107.745 51.0436 104.478 51.0436H15.5229C12.2551 51.0436 9.60608 48.3919 9.60608 45.1207V31.1646Z" fill="white"/>
</g>
<mask id="mask0_11297_2141" style="mask-type:luminance" maskUnits="userSpaceOnUse" x="14" y="28" width="20" height="20">
<path d="M29.0783 28.8804H18.51C16.1475 28.8804 14.2323 30.7685 14.2323 33.0976V43.5164C14.2323 45.8455 16.1475 47.7336 18.51 47.7336H29.0783C31.4407 47.7336 33.3559 45.8455 33.3559 43.5164V33.0976C33.3559 30.7685 31.4407 28.8804 29.0783 28.8804Z" fill="white"/>
</mask>
<g mask="url(#mask0_11297_2141)">
<path d="M29.0788 28.8804H18.5105C16.148 28.8804 14.2328 30.7685 14.2328 33.0976V43.5164C14.2328 45.8455 16.148 47.7336 18.5105 47.7336H29.0788C31.4412 47.7336 33.3564 45.8455 33.3564 43.5164V33.0976C33.3564 30.7685 31.4412 28.8804 29.0788 28.8804Z" fill="#E2D2FF"/>
<path d="M33.3564 28.8804H14.2328V47.7336H33.3564V28.8804Z" fill="#E2D2FF"/>
</g>
<mask id="mask1_11297_2141" style="mask-type:luminance" maskUnits="userSpaceOnUse" x="18" y="32" width="12" height="13">
<path d="M29.4332 32.5192H18.1978V44.097H29.4332V32.5192Z" fill="white"/>
</mask>
<g mask="url(#mask1_11297_2141)">
<path fill-rule="evenodd" clip-rule="evenodd" d="M21.3462 38.3081C20.8756 37.9616 20.3084 37.7714 19.7231 37.7714C19.4343 37.7714 19.2023 38.0105 19.2023 38.3081C19.2023 38.6057 19.4343 38.8448 19.7231 38.8448C20.3084 38.8448 20.8756 38.6547 21.3462 38.3081ZM23.8155 40.8526C23.4791 41.3376 23.2946 41.922 23.2946 42.5252C23.2946 42.8228 23.5266 43.0618 23.8155 43.0618C24.1043 43.0618 24.3363 42.8228 24.3363 42.5252C24.3363 41.922 24.1517 41.3376 23.8155 40.8526ZM26.2847 38.3081C26.7553 38.6547 27.3226 38.8448 27.9078 38.8448C28.1966 38.8448 28.4287 38.6057 28.4287 38.3081C28.4287 38.0105 28.1966 37.7714 27.9078 37.7714C27.3226 37.7714 26.7553 37.9616 26.2847 38.3081ZM23.8155 37.2831L22.8208 38.3081L23.8155 39.3331L24.8102 38.3081L23.8155 37.2831ZM24.5093 36.5338C25.0444 35.8441 25.3408 34.9827 25.3408 34.091C25.3408 33.1994 24.6589 32.5192 23.8155 32.5192C22.972 32.5192 22.2901 33.2219 22.2901 34.091C22.2901 34.9602 22.5866 35.8441 23.1216 36.5338L22.0941 37.5925C21.4248 37.0412 20.5889 36.7357 19.7237 36.7357C18.8584 36.7357 18.1978 37.4389 18.1978 38.3081C18.1978 39.1773 18.8796 39.88 19.7231 39.88C20.5666 39.88 21.4243 39.5745 22.0936 39.0232L23.121 40.0819C22.586 40.7716 22.2896 41.6329 22.2896 42.5246C22.2896 43.4162 22.9714 44.0965 23.8149 44.0965C24.6584 44.0965 25.3403 43.3938 25.3403 42.5246C25.3403 41.6554 25.0438 40.7716 24.5088 40.0819L25.5362 39.0232C26.2056 39.5745 27.0414 39.88 27.9067 39.88C28.772 39.88 29.4321 39.1773 29.4321 38.3081C29.4321 37.4389 28.7502 36.7363 27.9067 36.7363C27.0632 36.7363 26.2056 37.0418 25.5362 37.5931L24.5093 36.5338ZM23.8155 33.5544C23.5266 33.5544 23.2946 33.7935 23.2946 34.091C23.2946 34.6942 23.4791 35.2786 23.8155 35.7636C24.1517 35.2786 24.3363 34.6942 24.3363 34.091C24.3363 33.7935 24.1043 33.5544 23.8155 33.5544Z" fill="#F0E7FF"/>
</g>
<path opacity="0.49" d="M55.8693 32.1884H39.677C38.947 32.1884 38.3552 32.7808 38.3552 33.5116V36.1579C38.3552 36.8887 38.947 37.4811 39.677 37.4811H55.8693C56.5993 37.4811 57.1911 36.8887 57.1911 36.1579V33.5116C57.1911 32.7808 56.5993 32.1884 55.8693 32.1884Z" fill="#E2D2FF"/>
<path opacity="0.49" d="M87.2623 39.4657H39.677C38.947 39.4657 38.3552 40.0581 38.3552 40.7889V43.4353C38.3552 44.166 38.947 44.7584 39.677 44.7584H87.2623C87.9923 44.7584 88.5841 44.166 88.5841 43.4353V40.7889C88.5841 40.0581 87.9923 39.4657 87.2623 39.4657Z" fill="#E2D2FF"/>
</g>
<defs>
<filter id="filter0_d_11297_2141" x="-0.690561" y="16.648" width="121.381" height="46.3951" filterUnits="userSpaceOnUse" color-interpolation-filters="sRGB">
<feFlood flood-opacity="0" result="BackgroundImageFix"/>
<feColorMatrix in="SourceAlpha" type="matrix" values="0 0 0 0 0 0 0 0 0 0 0 0 0 0 0 0 0 0 127 0" result="hardAlpha"/>
<feOffset dy="1.70292"/>
<feGaussianBlur stdDeviation="5.14832"/>
<feComposite in2="hardAlpha" operator="out"/>
<feColorMatrix type="matrix" values="0 0 0 0 0.823529 0 0 0 0 0.721569 0 0 0 0 1 0 0 0 0.4 0"/>
<feBlend mode="normal" in2="BackgroundImageFix" result="effect1_dropShadow_11297_2141"/>
<feBlend mode="normal" in="SourceGraphic" in2="effect1_dropShadow_11297_2141" result="shape"/>
</filter>
<clipPath id="clip0_11297_2141">
<rect width="120" height="70" fill="white"/>
</clipPath>
</defs>
</svg>
