<svg width="679" height="534" viewBox="0 0 679 534" fill="none" xmlns="http://www.w3.org/2000/svg">
<rect x="90.4346" y="0.5" width="498" height="533" rx="28.175" fill="#1F0433" stroke="#AE72FF"/>
<circle cx="160.934" cy="69" r="37.5" stroke="#AE72FF"/>
<rect x="214.935" y="55" width="110" height="28" rx="5" fill="#2E1044"/>
<path d="M524.899 53.0151L519.934 48.1304L522.1 46L527.065 50.8847H550.403C551.249 50.8847 551.934 51.5592 551.934 52.3911C551.934 52.5377 551.912 52.6836 551.87 52.824L548.195 64.8752C548 65.5124 547.404 65.9488 546.728 65.9488H527.962V68.9616H544.805V71.9744H526.43C525.585 71.9744 524.899 71.2998 524.899 70.468V53.0151ZM527.196 78C525.928 78 524.899 76.9883 524.899 75.7404C524.899 74.4923 525.928 73.4808 527.196 73.4808C528.465 73.4808 529.493 74.4923 529.493 75.7404C529.493 76.9883 528.465 78 527.196 78ZM545.571 78C544.302 78 543.274 76.9883 543.274 75.7404C543.274 74.4923 544.302 73.4808 545.571 73.4808C546.839 73.4808 547.867 74.4923 547.867 75.7404C547.867 76.9883 546.839 78 545.571 78Z" fill="#AE72FF"/>
<path d="M484.188 69.0257L490.935 75.7722L488.707 78L481.96 71.2535C479.535 73.1943 476.458 74.3552 473.112 74.3552C465.286 74.3552 458.935 68.0037 458.935 60.1776C458.935 52.3516 465.286 46 473.112 46C480.938 46 487.29 52.3516 487.29 60.1776C487.29 63.5235 486.129 66.5999 484.188 69.0257ZM481.028 67.8569C482.954 65.8717 484.139 63.1637 484.139 60.1776C484.139 54.0852 479.205 49.1506 473.112 49.1506C467.02 49.1506 462.085 54.0852 462.085 60.1776C462.085 66.2701 467.02 71.2047 473.112 71.2047C476.098 71.2047 478.806 70.0193 480.791 68.093L481.028 67.8569Z" fill="#AE72FF"/>
<g opacity="0.21">
<path fill-rule="evenodd" clip-rule="evenodd" d="M151.585 68.896C149.919 67.7049 147.91 67.0514 145.837 67.0514C144.814 67.0514 143.992 67.8731 143.992 68.896C143.992 69.9188 144.814 70.7405 145.837 70.7405C147.91 70.7405 149.919 70.087 151.585 68.896ZM160.331 77.6413C159.139 79.308 158.486 81.3169 158.486 83.3897C158.486 84.4125 159.308 85.2342 160.331 85.2342C161.353 85.2342 162.175 84.4125 162.175 83.3897C162.175 81.3169 161.522 79.308 160.331 77.6413ZM169.076 68.896C170.743 70.087 172.751 70.7405 174.824 70.7405C175.847 70.7405 176.669 69.9188 176.669 68.896C176.669 67.8731 175.847 67.0514 174.824 67.0514C172.751 67.0514 170.743 67.7049 169.076 68.896ZM160.331 65.3731L156.808 68.896L160.331 72.4188L163.853 68.896L160.331 65.3731ZM162.788 62.7976C164.683 60.4271 165.733 57.4669 165.733 54.4023C165.733 51.3376 163.318 49 160.331 49C157.343 49 154.928 51.415 154.928 54.4023C154.928 57.3896 155.978 60.4271 157.873 62.7976L154.234 66.4365C151.864 64.5417 148.903 63.4918 145.839 63.4918C142.774 63.4918 140.435 65.9087 140.435 68.896C140.435 71.8833 142.85 74.2982 145.837 74.2982C148.824 74.2982 151.862 73.2483 154.232 71.3535L157.871 74.9924C155.976 77.3629 154.926 80.3231 154.926 83.3877C154.926 86.4524 157.341 88.79 160.329 88.79C163.316 88.79 165.731 86.375 165.731 83.3877C165.731 80.4004 164.681 77.3629 162.786 74.9924L166.425 71.3535C168.795 73.2483 171.756 74.2982 174.82 74.2982C177.885 74.2982 180.223 71.8833 180.223 68.896C180.223 65.9087 177.808 63.4937 174.82 63.4937C171.833 63.4937 168.795 64.5436 166.425 66.4385L162.786 62.7996L162.788 62.7976ZM160.331 52.5577C159.308 52.5577 158.486 53.3794 158.486 54.4023C158.486 56.475 159.139 58.4839 160.331 60.1506C161.522 58.4839 162.175 56.475 162.175 54.4023C162.175 53.3794 161.353 52.5577 160.331 52.5577Z" fill="#AE72FF"/>
</g>
<rect x="233.6" y="173.5" width="211.75" height="284.825" rx="28.175" fill="#1F0433" stroke="#AE72FF"/>
<rect x="466.7" y="173.5" width="211.75" height="284.825" rx="28.175" fill="#1F0433" stroke="#AE72FF"/>
<rect x="0.5" y="173.5" width="211.75" height="284.825" rx="28.175" fill="#1F0433" stroke="#AE72FF"/>
<rect x="25" y="381" width="162" height="28" rx="5" fill="#2E1044"/>
<rect x="258" y="381" width="162" height="28" rx="5" fill="#2E1044"/>
<rect x="492" y="381" width="162" height="28" rx="5" fill="#2E1044"/>
<rect x="25" y="199" width="162" height="158" rx="17" fill="#2E1044"/>
<rect x="258" y="199" width="162" height="158" rx="17" fill="#2E1044"/>
<rect x="492" y="199" width="162" height="158" rx="17" fill="#2E1044"/>
<path d="M351.522 292.558C351.522 292.558 351.473 292.484 351.448 292.447C347.396 288.936 340.572 288.714 335.595 288.813C330.015 288.911 325.014 289.552 320.271 292.767C316.182 295.551 312.671 298.162 310.799 302.942C308.951 307.672 309.136 314.201 314.58 316.442C319.618 318.512 325.248 318.684 330.619 318.266C335.841 317.847 340.904 317.071 345.61 314.619C350.02 312.328 354.54 309.273 356.019 304.223C356.721 301.833 356.721 299.468 355.92 297.091C355.045 294.504 353.185 294.159 351.522 292.57V292.558Z" fill="#BC8AFF"/>
<path d="M348.073 285.057C348.553 285.229 349.354 285.513 350.303 285.894C350.29 285.821 350.253 285.759 350.253 285.685C350.204 285.02 350.45 284.392 350.598 283.751C350.623 283.653 350.66 283.579 350.721 283.517C350.093 283.221 349.453 282.938 348.75 282.729C348.344 282.606 348.258 282.174 348.393 281.879C348.369 281.866 348.344 281.854 348.319 281.842C348.221 282.076 347.999 282.261 347.679 282.174L347.137 282.051C347.112 282.187 347.026 282.322 346.854 282.408C346.041 282.815 346.176 283.776 346.151 284.613C346.804 284.712 347.457 284.847 348.085 285.081L348.073 285.057Z" fill="#AE72FF"/>
<path d="M358.594 293.063C358.409 292.743 357.374 291.487 357.325 291.117C355.871 289.75 352.779 288.518 351.819 288.038C350.242 287.249 348.665 286.301 346.928 285.931C345.007 285.525 343.073 285.599 341.126 285.439C334.61 284.909 327.306 284.379 321.073 286.954C314.704 289.577 309.358 294.628 306.439 300.898C305.49 302.943 304.689 305.382 304.332 307.858C304.258 307.931 304.209 308.018 304.197 308.153C304.111 308.917 304.098 309.656 304.147 310.383C304.135 313.82 305.17 317.121 308.114 319.301C313.83 323.551 321.738 326.199 328.895 325.756C335.534 325.337 342.851 324.906 348.801 321.654C353.863 318.895 358.532 315.606 360.823 310.26C359.382 313.08 357.3 315.31 354.91 317.367C350.624 321.063 344.711 322.812 339.279 323.847C333.366 324.967 324.743 325.941 318.917 323.883C316.687 323.095 313.756 321.531 313.509 321.395C312.167 320.693 310.91 319.868 309.863 318.759C309.272 318.131 308.446 317.675 308.003 316.961C307.732 316.53 308.139 315.975 308.631 316.086L308.915 316.148C309.235 316.222 309.358 316.48 309.333 316.739C309.728 317.121 310.294 317.527 310.664 317.909C311.354 318.648 312.154 319.24 313.004 319.757C312.98 319.72 312.943 319.683 312.918 319.646C312.918 319.621 312.906 319.609 312.906 319.584C315.739 321.063 318.843 322.11 321.886 322.799C327.798 324.154 334.044 323.871 339.944 322.504C345.228 321.272 350.71 319.671 354.824 315.901C357.115 313.807 358.988 311.553 360.269 308.695C361.304 306.392 363.114 302.844 362.043 298.225C361.304 295.047 358.741 293.261 358.618 293.039L358.594 293.063ZM357.411 303.62C355.834 309.015 351.966 312.612 347.088 315.162C341.558 318.032 335.805 319.203 329.621 319.498C323.856 319.782 317.66 319.584 312.511 316.677C308.508 314.411 307.769 308.227 309.099 304.273C310.972 298.73 314.137 295.539 318.855 292.337C321.331 290.661 324.127 289.048 327.084 288.383C330.213 287.693 333.415 287.705 336.606 287.631C341.866 287.52 348.912 288.136 352.829 292.127C352.841 292.14 352.841 292.164 352.853 292.177C354.566 293.593 356.327 294.197 357.029 296.747C357.645 298.976 358.064 301.354 357.411 303.62Z" fill="#AE72FF"/>
<path d="M360.404 242.497C362.572 244.333 363.582 246.969 364.506 249.58C365.787 253.152 366.97 256.749 368.201 260.346C368.583 261.467 368.891 262.625 369.15 263.795C369.064 263.068 368.965 262.354 368.854 261.64C367.832 255.394 365.479 248.915 362.252 243.483C362.128 243.286 362.153 243.101 362.239 242.941C359.061 237.878 354.196 233.332 349.305 230.635C345.745 228.664 341.052 226.348 336.876 227.432C335.755 227.715 334.721 228.159 333.698 228.627C336.211 228.43 338.847 228.91 341.015 229.76C347.889 232.433 353.198 238.716 357.595 244.406C362.289 250.492 365.073 258.338 366.735 265.778C368.029 271.543 368.423 278.725 363.952 283.356C362.313 285.044 360.096 286.374 357.645 286.202C356.006 286.091 354.664 285.524 353.358 284.872L352.865 286.99C354.504 287.742 356.216 288.653 357.448 289.663C357.743 288.407 358.445 287.15 359.074 286.35C359.271 286.091 359.542 286.103 359.751 286.239C359.924 286.153 360.108 286.116 360.318 286.116C362.929 284.872 364.999 282.938 366.563 280.622C366.785 279.969 367.08 279.378 367.388 278.786C369.667 272.566 368.866 265.828 366.76 259.644C365.738 256.638 364.74 253.633 363.681 250.639C362.732 247.991 361.845 245.219 359.628 243.347C359.049 242.867 359.862 242.017 360.429 242.497H360.404Z" fill="#512473"/>
<path d="M360.946 287.446C360.859 287.397 360.712 287.311 360.576 287.249C360.453 287.311 360.342 287.372 360.219 287.421C360.207 287.421 360.194 287.421 360.182 287.421C360.083 287.803 359.689 287.976 359.381 287.89C358.876 288.74 358.494 289.774 358.507 290.698C358.63 290.846 358.728 290.981 358.815 291.129C359.073 291.08 359.369 291.179 359.467 291.499C359.517 291.659 359.591 291.819 359.677 291.967C359.936 291.918 360.219 291.782 360.478 291.523C361.192 290.821 361.709 289.54 361.623 288.542C361.586 288.037 361.377 287.692 360.933 287.434L360.946 287.446ZM360.81 289.257C360.564 289.442 360.527 289.971 360.453 290.242C360.28 290.969 359.147 290.71 359.32 289.971C359.48 289.306 359.64 288.69 360.194 288.259C360.785 287.791 361.401 288.789 360.81 289.245V289.257Z" fill="#AE72FF"/>
<path d="M353.924 283.923C353.764 283.873 353.604 283.836 353.444 283.787C354.737 284.477 356.08 285.044 357.595 285.019C360.441 284.957 362.83 283.455 364.259 280.979C367.684 275.066 366.464 268.488 364.592 262.267C362.719 256.034 360.428 249.395 356.105 244.382C352.089 239.725 347.95 234.084 342.21 231.484C336.63 228.972 327.588 228.356 326.677 236.276C325.925 242.756 327.194 249.025 329.276 255.148C332.947 265.938 338.059 274.376 349.206 281.311C350.401 282.235 352.631 283.159 353.949 283.91L353.924 283.923ZM342.345 270.558C340.461 267.934 338.748 265.076 337.295 262.194C336.174 259.976 334.585 257.956 333.784 255.591C331.887 250.06 328.684 243.815 330.273 237.828C331.653 232.63 336.1 233.689 340.017 235.18C341.04 235.562 341.889 236.498 342.85 237.015C343.934 237.607 345.018 238.161 346.053 238.863C346.804 239.368 347.445 240.514 347.901 241.265C348.837 242.78 349.859 244.172 350.98 245.564C354.306 249.641 357.213 254.335 359.135 259.237C360.305 262.23 361.143 265.322 361.906 268.451C362.461 270.767 363.052 273.132 362.584 275.534C361.82 279.513 358.728 281.705 354.774 280.683C354.577 280.634 354.454 280.511 354.392 280.363C349.588 278.651 345.252 274.61 342.345 270.558Z" fill="#AE72FF"/>
<path d="M355.895 279.71C361.931 280.609 361.832 273.046 360.773 268.796C359.59 264.053 358.161 259.644 355.969 255.258C354.096 251.489 351.411 248.237 348.923 244.874C347.445 242.879 346.361 240.44 344.193 239.097C342.887 238.296 341.544 237.582 340.263 236.719C337.689 234.983 332.971 234.059 331.579 237.594C330.421 240.538 331.148 243.802 331.961 246.759C333.156 251.045 334.671 255.332 336.937 259.175C341.544 266.985 346.053 276.803 355.612 279.537C355.722 279.574 355.809 279.636 355.883 279.71H355.895Z" fill="#BC8AFF"/>
<path d="M351.843 286.104L352.237 284.429C352.237 284.429 352.274 284.342 352.298 284.305C352.114 284.207 351.929 284.108 351.744 284.01C351.633 284.441 351.485 284.872 351.424 285.315C351.375 285.71 351.547 285.931 351.843 286.104Z" fill="#AE72FF"/>
<path d="M370.012 258.893C369.433 257.069 369.137 254.975 368.3 253.251C367.844 252.315 367.4 251.415 366.982 250.504C366.723 249.839 366.44 249.186 366.156 248.533C365.971 248.053 365.799 247.572 365.639 247.067C364.641 243.914 361.956 240.502 359.849 237.976C357.028 234.614 353.629 231.817 349.859 229.588C346.521 227.617 342.37 225.917 338.453 226.003C335.275 226.077 333.944 227.321 331.148 228.467C331.641 228.405 329.879 229.107 328.056 230.918C327.884 231.091 327.009 231.509 327.12 231.657C327.009 231.793 326.886 231.904 326.775 232.051C325.186 234.232 325.322 237.693 325.235 240.243C325.112 244.111 325.95 248.028 326.972 251.736C330.089 263.044 336.235 274.783 346.46 280.794C346.299 280.868 346.164 281.004 346.127 281.188L346.065 281.472C346.065 281.472 346.065 281.496 346.065 281.521C344.981 282.198 345.166 283.332 345.031 284.465C344.39 284.416 343.762 284.391 343.121 284.403C341.052 284.403 339.007 283.96 336.95 283.8C332.737 283.455 328.266 284.108 324.114 284.847C311.414 287.089 299.293 303.053 304.061 315.827C306.278 321.789 314.26 324.425 319.791 325.977C323.425 326.999 327.256 327.123 331 326.765C335.016 326.384 339.081 326.088 343.01 325.102C349.268 323.538 356.277 319.756 359.936 314.275C363.422 309.04 365.294 301.292 362.485 295.379C362.03 294.418 361.118 293.716 360.404 292.915C360.859 292.73 361.291 292.435 361.623 292.065C362.646 290.92 363.422 288.382 362.338 287.089C362.19 286.916 362.017 286.756 361.833 286.621C364.247 285.253 366.082 283.406 367.499 281.25C367.573 281.188 367.622 281.102 367.671 281.004C367.671 281.004 367.671 280.991 367.671 280.979C368.176 280.191 368.62 279.353 369.014 278.491C369.359 277.924 369.679 277.357 369.864 276.742C370.11 275.941 370.32 275.128 370.468 274.303C370.849 272.861 371.145 271.371 371.354 269.868C371.896 266.012 371.219 262.576 370.049 258.905L370.012 258.893ZM329.251 255.16C327.169 249.038 325.901 242.768 326.652 236.289C327.576 228.368 336.605 228.984 342.185 231.497C347.938 234.084 352.077 239.738 356.08 244.394C360.404 249.408 362.695 256.047 364.567 262.28C366.44 268.501 367.659 275.079 364.235 280.991C362.806 283.455 360.428 284.97 357.57 285.032C356.055 285.069 354.725 284.502 353.419 283.8C353.579 283.849 353.74 283.886 353.9 283.935C352.582 283.172 350.352 282.26 349.157 281.336C338.009 274.401 332.897 265.963 329.226 255.172L329.251 255.16ZM352.298 284.305C352.298 284.305 352.249 284.379 352.237 284.428L351.843 286.103C351.535 285.931 351.374 285.721 351.424 285.315C351.473 284.871 351.633 284.44 351.744 284.009C351.929 284.108 352.114 284.206 352.298 284.305ZM346.854 282.396C347.026 282.309 347.112 282.174 347.137 282.038L347.679 282.161C347.999 282.235 348.221 282.063 348.32 281.829C348.344 281.829 348.369 281.854 348.393 281.866C348.258 282.161 348.344 282.593 348.751 282.716C349.453 282.925 350.093 283.209 350.722 283.504C350.672 283.566 350.623 283.64 350.598 283.738C350.438 284.379 350.204 285.007 350.254 285.672C350.254 285.746 350.29 285.808 350.303 285.882C349.354 285.5 348.554 285.216 348.073 285.044C347.445 284.81 346.804 284.687 346.139 284.576C346.176 283.738 346.028 282.79 346.841 282.371L346.854 282.396ZM362.017 298.249C363.089 302.856 361.278 306.404 360.244 308.719C358.962 311.577 357.09 313.831 354.799 315.925C350.685 319.695 345.203 321.296 339.919 322.528C334.018 323.895 327.773 324.179 321.86 322.824C318.805 322.122 315.713 321.074 312.88 319.609C312.88 319.633 312.88 319.646 312.893 319.67C312.93 319.707 312.954 319.744 312.979 319.781C312.129 319.264 311.341 318.672 310.638 317.933C310.269 317.539 309.702 317.133 309.308 316.763C309.32 316.517 309.21 316.246 308.889 316.172L308.606 316.11C308.113 315.999 307.707 316.554 307.978 316.985C308.421 317.699 309.246 318.155 309.838 318.783C310.885 319.892 312.141 320.717 313.484 321.419C313.743 321.555 316.662 323.119 318.892 323.908C324.718 325.965 333.341 325.004 339.253 323.871C344.686 322.836 350.598 321.087 354.885 317.391C357.275 315.334 359.357 313.105 360.798 310.284C358.519 315.63 353.838 318.919 348.775 321.678C342.813 324.93 335.509 325.361 328.869 325.78C321.712 326.223 313.804 323.575 308.089 319.325C305.157 317.145 304.11 313.844 304.122 310.407C304.073 309.68 304.085 308.929 304.171 308.177C304.184 308.042 304.245 307.956 304.307 307.882C304.664 305.393 305.452 302.954 306.413 300.922C309.333 294.652 314.679 289.602 321.047 286.978C327.28 284.403 334.585 284.933 341.101 285.463C343.047 285.623 344.981 285.537 346.903 285.955C348.652 286.325 350.217 287.274 351.793 288.062C352.754 288.542 355.846 289.774 357.299 291.141C357.336 291.511 358.383 292.767 358.568 293.088C358.691 293.309 361.254 295.096 361.993 298.274L362.017 298.249ZM360.49 291.536C360.231 291.794 359.948 291.93 359.689 291.979C359.603 291.831 359.529 291.671 359.48 291.511C359.369 291.191 359.086 291.092 358.827 291.141C358.741 290.994 358.63 290.846 358.519 290.71C358.519 289.786 358.889 288.752 359.394 287.902C359.702 287.988 360.096 287.816 360.194 287.434C360.207 287.434 360.219 287.434 360.231 287.434C360.354 287.384 360.465 287.323 360.588 287.261C360.724 287.323 360.872 287.409 360.958 287.458C361.401 287.717 361.611 288.062 361.648 288.567C361.722 289.565 361.204 290.858 360.502 291.548L360.49 291.536ZM359.603 243.335C361.82 245.207 362.707 247.979 363.656 250.627C364.727 253.608 365.713 256.626 366.735 259.632C368.842 265.803 369.642 272.541 367.363 278.774C367.055 279.365 366.76 279.957 366.538 280.609C364.974 282.925 362.917 284.859 360.293 286.103C360.096 286.103 359.899 286.14 359.726 286.226C359.517 286.091 359.258 286.079 359.049 286.337C358.42 287.138 357.718 288.394 357.423 289.651C356.179 288.641 354.479 287.729 352.84 286.978L353.333 284.859C354.639 285.512 355.981 286.079 357.62 286.19C360.071 286.362 362.288 285.032 363.927 283.344C368.41 278.725 368.004 271.531 366.711 265.766C365.048 258.338 362.264 250.479 357.57 244.394C353.173 238.691 347.864 232.409 340.99 229.748C338.822 228.91 336.174 228.43 333.673 228.615C334.696 228.146 335.743 227.715 336.851 227.42C341.027 226.336 345.72 228.652 349.28 230.622C354.171 233.32 359.036 237.853 362.214 242.928C362.128 243.088 362.116 243.273 362.227 243.47C365.466 248.903 367.807 255.382 368.829 261.627C368.94 262.342 369.039 263.056 369.125 263.783C368.866 262.613 368.558 261.455 368.176 260.334C366.957 256.749 365.762 253.14 364.481 249.568C363.545 246.956 362.547 244.32 360.379 242.485C359.812 242.004 358.999 242.842 359.578 243.335H359.603Z" fill="#512473"/>
<path d="M360.195 288.272C359.64 288.703 359.48 289.319 359.32 289.984C359.148 290.711 360.281 290.982 360.453 290.255C360.515 289.972 360.564 289.454 360.811 289.27C361.402 288.814 360.786 287.816 360.195 288.284V288.272Z" fill="#512473"/>
<path d="M352.853 292.176C352.853 292.176 352.84 292.152 352.828 292.127C348.911 288.136 341.865 287.52 336.605 287.631C333.415 287.692 330.212 287.68 327.083 288.382C324.127 289.035 321.331 290.649 318.855 292.336C314.124 295.551 310.959 298.729 309.099 304.273C307.768 308.227 308.507 314.41 312.511 316.677C317.66 319.584 323.856 319.769 329.621 319.498C335.817 319.202 341.569 318.044 347.088 315.162C351.966 312.624 355.834 309.015 357.41 303.62C358.075 301.353 357.644 298.964 357.028 296.746C356.326 294.196 354.565 293.605 352.853 292.176ZM356.031 304.223C354.552 309.286 350.019 312.329 345.622 314.62C340.916 317.071 335.854 317.847 330.631 318.266C325.26 318.697 319.631 318.525 314.592 316.443C309.148 314.201 308.963 307.685 310.811 302.942C312.671 298.163 316.194 295.551 320.283 292.768C325.026 289.54 330.027 288.912 335.607 288.813C340.596 288.715 347.408 288.937 351.461 292.447C351.485 292.484 351.498 292.521 351.535 292.558C353.185 294.147 355.058 294.504 355.932 297.079C356.733 299.456 356.733 301.834 356.031 304.211V304.223Z" fill="#512473"/>
<path d="M354.762 280.684C358.717 281.706 361.796 279.501 362.572 275.535C363.04 273.133 362.449 270.768 361.895 268.452C361.143 265.323 360.306 262.231 359.123 259.238C357.201 254.323 354.282 249.642 350.968 245.565C349.847 244.185 348.825 242.781 347.889 241.266C347.433 240.515 346.793 239.381 346.041 238.864C345.019 238.174 343.922 237.62 342.838 237.016C341.878 236.486 341.028 235.563 340.005 235.181C336.076 233.69 331.641 232.631 330.262 237.829C328.673 243.816 331.875 250.061 333.772 255.592C334.585 257.957 336.162 259.977 337.283 262.194C338.737 265.077 340.461 267.935 342.333 270.558C345.228 274.611 349.564 278.651 354.381 280.364C354.442 280.511 354.565 280.635 354.762 280.684ZM336.95 259.176C334.684 255.333 333.169 251.059 331.974 246.76C331.161 243.816 330.434 240.551 331.592 237.595C332.984 234.06 337.702 234.971 340.276 236.721C341.557 237.583 342.888 238.297 344.206 239.098C346.361 240.428 347.458 242.88 348.936 244.875C351.424 248.238 354.11 251.49 355.982 255.259C358.175 259.645 359.603 264.054 360.786 268.797C361.845 273.047 361.944 280.61 355.908 279.711C355.846 279.637 355.76 279.575 355.637 279.538C346.078 276.804 341.57 266.986 336.963 259.176H336.95Z" fill="#512473"/>
<path d="M110.011 251.64C110.111 251.67 110.191 251.74 110.251 251.82C110.911 251.85 111.571 251.87 112.231 251.9C112.201 248.55 111.971 245.21 111.931 241.86H110.021C109.991 245.12 109.761 248.39 110.021 251.64H110.011Z" fill="#AE72FF"/>
<path d="M114.441 251.95V241.86H112.871C112.911 245.22 113.151 248.56 113.171 251.92C113.591 251.92 114.011 251.94 114.441 251.95Z" fill="#AE72FF"/>
<path d="M85.6712 265.18C85.4512 265.56 85.1412 266.1 84.7712 266.76C84.3612 267.49 83.4012 269.26 82.7512 270.46C80.9212 273.81 79.7412 276.87 79.5412 280.73C79.3912 283.79 79.3212 286.86 79.2112 289.93C78.9912 296.18 78.7212 302.56 79.0312 308.81C79.3412 314.91 80.3412 320.91 80.4112 327.04C80.8612 328.84 82.1812 330.43 83.4912 331.7C83.7412 331.95 84.0012 332.15 84.2512 332.33C84.3712 332.12 84.6312 331.97 84.9112 332.09C88.8012 333.74 93.3312 331.25 97.2612 330.72C98.8512 330.51 100.931 330.16 102.811 330.26C104.681 330.17 106.741 330.51 108.311 330.72C112.241 331.25 116.761 333.74 120.661 332.09C120.941 331.97 121.201 332.12 121.321 332.33C121.581 332.15 121.831 331.94 122.081 331.7C123.391 330.43 124.711 328.84 125.161 327.04C125.231 320.91 126.231 314.92 126.541 308.81C126.851 302.56 126.581 296.19 126.361 289.93C126.251 286.87 126.181 283.79 126.031 280.74C125.831 276.88 124.651 273.82 122.821 270.47C121.361 267.81 119.971 265.14 118.331 262.58C117.671 261.54 116.971 260.51 116.251 259.51C115.851 258.95 114.151 256.36 113.331 256.36C113.081 256.36 112.941 256.2 112.891 256.01C112.701 255.97 112.541 255.82 112.541 255.57V252.85C111.541 252.83 110.531 252.79 109.531 252.75C108.771 252.95 107.911 252.81 107.131 252.71C106.851 252.67 106.571 252.65 106.291 252.63C105.251 252.6 104.201 252.57 103.151 252.57C102.921 252.57 102.691 252.57 102.461 252.57H102.401C101.401 252.57 100.391 252.59 99.3912 252.63C99.0712 252.65 98.7512 252.68 98.4312 252.72C97.6412 252.82 96.7812 252.97 96.0112 252.75C95.0112 252.79 94.0112 252.83 93.0212 252.85V255.57C93.0212 255.82 92.8612 255.96 92.6712 256.01C92.6312 256.2 92.4912 256.36 92.2312 256.36C91.4112 256.36 89.7112 258.95 89.3112 259.51C88.5912 260.51 87.9012 261.54 87.2312 262.58C86.6812 263.44 86.1712 264.31 85.6612 265.19C85.5812 265.33 86.0312 264.65 85.9412 264.79C85.8512 264.92 85.7512 265.06 85.6612 265.19L85.6712 265.18ZM122.451 282.47C122.631 293.65 119.661 302.94 114.061 308.62C110.701 312.04 106.581 313.92 102.461 313.92C93.5012 313.92 83.0512 305.68 83.0512 282.47C83.0512 274.25 89.4012 270.26 102.461 270.26C115.521 270.26 122.311 274.37 122.451 282.46V282.47ZM111.681 258.82C110.021 259.81 108.271 261.25 106.251 261.36C104.941 261.43 103.591 261.53 102.251 261.49C101.271 261.47 100.281 261.41 99.3212 261.35C97.3012 261.24 95.5412 259.79 93.8912 258.81C93.3712 258.5 93.8412 257.68 94.3712 257.99C95.9712 258.94 97.2912 259.79 98.9212 260.2C99.0212 260.14 99.1312 260.12 99.2812 260.15C99.9312 260.33 100.581 260.42 101.241 260.47C101.821 260.49 102.401 260.51 102.981 260.51C103.371 260.51 103.751 260.49 104.141 260.48C104.871 260.44 105.591 260.34 106.311 260.14C106.451 260.1 106.581 260.13 106.681 260.19C108.311 259.78 109.621 258.93 111.221 257.98C111.751 257.67 112.221 258.48 111.701 258.8L111.681 258.82Z" fill="#AE72FF"/>
<path d="M84.0015 282.481C84.0015 304.991 93.9515 312.981 102.471 312.981C106.331 312.981 110.221 311.201 113.401 307.961C118.821 302.461 121.691 293.411 121.521 282.491C121.391 274.911 115.161 271.221 102.481 271.221C89.8015 271.221 84.0115 274.901 84.0115 282.481H84.0015Z" fill="#512473"/>
<path d="M105.641 241.861C105.671 245.071 105.931 248.271 105.951 251.471C105.951 251.531 105.931 251.581 105.921 251.631C106.001 251.631 106.081 251.631 106.161 251.651C106.251 251.661 106.361 251.681 106.461 251.691C107.331 251.711 108.211 251.741 109.081 251.771C108.801 248.471 109.051 245.161 109.081 241.851H105.651L105.641 241.861Z" fill="#AE72FF"/>
<path d="M99.1712 251.69C99.2512 251.68 99.3312 251.67 99.4012 251.66C99.4812 251.66 99.5612 251.66 99.6412 251.64C99.6212 251.59 99.6112 251.54 99.6112 251.48C99.6312 248.27 99.8912 245.07 99.9212 241.86H96.4912C96.5212 245.17 96.7712 248.47 96.4912 251.77C97.3812 251.73 98.2812 251.71 99.1712 251.68V251.69Z" fill="#AE72FF"/>
<path d="M103.841 238.391H101.741C101.571 238.461 96.6213 238.391 96.6213 238.391C96.3013 239.381 95.8513 240.321 95.0913 240.911H109.891C109.891 240.911 109.901 240.911 109.911 240.911H110.481C109.721 240.321 109.271 239.381 108.951 238.391C108.951 238.391 104.001 238.461 103.841 238.391Z" fill="#AE72FF"/>
<path d="M101.581 237.151C101.961 237.171 102.381 237.181 102.801 237.221C103.211 237.191 103.621 237.181 103.981 237.161C104.321 237.141 104.661 237.151 105.001 237.141V233.501C105.001 233.151 105.321 233.001 105.581 233.061C106.211 232.511 106.901 232.011 107.641 231.591C104.201 231.821 100.601 231.131 97.1914 230.891C97.2814 231.061 97.3614 231.251 97.4114 231.481C97.4514 231.681 97.3814 231.831 97.2614 231.931C97.7014 233.451 97.3814 235.521 96.9814 237.121C98.5114 237.111 100.051 237.081 101.571 237.151H101.581Z" fill="#AE72FF"/>
<path d="M106.131 233.831C106.071 233.881 106.011 233.921 105.951 233.941V237.121C106.821 237.121 107.701 237.121 108.581 237.131C108.221 235.671 107.921 233.831 108.211 232.371C107.451 232.801 106.751 233.281 106.131 233.841V233.831Z" fill="#AE72FF"/>
<path d="M95.5511 251.65C95.8111 248.39 95.5711 245.12 95.5511 241.86H93.6511C93.6111 245.21 93.3811 248.55 93.3511 251.9C94.0111 251.88 94.6711 251.85 95.3311 251.82C95.3911 251.74 95.4711 251.68 95.5611 251.65H95.5511Z" fill="#AE72FF"/>
<path d="M104.361 251.58C104.401 248.34 104.611 245.1 104.651 241.86H100.911C100.951 245.1 101.171 248.34 101.211 251.59C101.711 251.59 102.201 251.59 102.701 251.61C103.251 251.59 103.801 251.59 104.361 251.59V251.58Z" fill="#AE72FF"/>
<path d="M92.7013 241.851H91.1313V251.941C91.5513 251.941 91.9713 251.921 92.3913 251.911C92.4213 248.551 92.6513 245.201 92.6913 241.851H92.7013Z" fill="#AE72FF"/>
<path d="M99.9713 331.38C99.8613 331.38 99.7413 331.4 99.6413 331.41C97.5513 331.55 95.4813 331.89 93.4613 332.46C92.0213 332.87 90.5513 333.27 89.0913 333.45C89.5313 333.46 89.9913 333.48 90.4613 333.53C94.6313 333.9 98.7313 334.18 102.911 334.22C107.011 334.17 111.031 333.9 115.131 333.54C115.601 333.5 116.051 333.48 116.501 333.46C115.041 333.29 113.571 332.9 112.131 332.47C104.761 330.3 100.101 331.62 99.9913 331.39L99.9713 331.38Z" fill="#AE72FF"/>
<path d="M127.201 229.29C125.711 228 123.831 227.03 121.961 226.41C117.891 225.07 113.461 223.08 109.121 222.96C105.061 222.84 100.591 222.75 96.6813 224.01C94.7313 224.64 92.6913 225.6 91.1613 227C89.2813 228.73 89.4013 230.28 89.9513 232.3C91.2213 231.26 93.6713 229.92 95.4413 229.94C95.5113 229.89 95.5913 229.86 95.6913 229.86C100.721 229.97 106.441 231.66 111.331 229.88C111.501 229.82 111.631 229.86 111.731 229.94C114.361 229.24 117.191 229.04 119.731 229.18C121.801 229.3 124.121 229.88 125.951 230.88C126.911 231.4 127.441 231.95 128.221 232.69C129.121 233.55 129.721 232.85 130.301 232.24C129.191 231.32 128.281 230.22 127.191 229.27L127.201 229.29Z" fill="#AE72FF"/>
<path d="M131.251 231.831C129.611 230.621 128.401 228.951 126.761 227.741C125.011 226.451 122.881 225.691 120.831 225.061C115.761 223.501 111.291 221.961 105.931 222.001C101.481 222.041 96.9712 222.391 93.0112 224.591C91.2812 225.551 89.6912 226.811 88.6712 228.531C87.8412 229.941 88.8612 231.941 89.2512 233.311C89.3412 233.631 89.8012 233.801 90.0412 233.521C90.8212 232.631 95.2412 229.871 96.3112 231.311C96.1912 231.451 96.1412 231.641 96.2412 231.851C96.8112 233.041 96.3812 235.271 96.1312 236.531C96.0812 236.781 96.0212 237.051 95.9612 237.341C95.9012 237.431 95.8812 237.541 95.8912 237.651C95.5512 239.001 94.9512 240.471 93.5012 240.601C93.2812 240.621 93.1512 240.751 93.0912 240.911H90.6712C90.3112 240.911 90.1712 241.241 90.2312 241.521C90.2112 241.571 90.1912 241.631 90.1912 241.701V252.741C90.1912 253.081 90.4912 253.231 90.7512 253.181C91.0312 253.461 91.3112 253.741 91.5912 254.021C91.7412 254.171 91.9312 254.181 92.0812 254.121V255.441C90.6312 255.601 89.3112 257.971 88.5012 259.041C86.6512 261.481 85.0912 264.161 83.6612 266.851C82.1412 269.711 80.1912 272.491 79.3412 275.631C78.4512 278.961 78.5812 282.431 78.4612 285.841C78.2112 292.631 77.9412 299.431 78.0112 306.221C78.0712 313.331 79.4412 320.331 79.4712 327.451C79.4712 327.621 79.5412 327.731 79.6412 327.811C80.5712 330.631 83.4712 334.051 86.4312 334.341C91.4212 334.831 96.4712 335.091 101.501 335.151C101.551 335.171 101.601 335.181 101.661 335.181C102.081 335.181 102.511 335.171 102.931 335.161C103.251 335.161 103.571 335.171 103.891 335.171C103.941 335.171 103.971 335.161 104.011 335.151C109.051 335.081 114.121 334.821 119.121 334.341C122.081 334.051 124.981 330.641 125.911 327.811C126.011 327.731 126.081 327.621 126.081 327.451C126.111 320.321 127.471 313.321 127.541 306.221C127.601 299.431 127.331 292.621 127.091 285.841C126.971 282.431 127.091 278.961 126.211 275.631C125.371 272.481 123.421 269.701 121.901 266.851C120.461 264.151 118.911 261.481 117.061 259.041C116.251 257.971 114.941 255.611 113.481 255.441V254.121C113.631 254.191 113.821 254.181 113.971 254.021C114.251 253.741 114.531 253.461 114.811 253.181C115.071 253.221 115.371 253.081 115.371 252.741V241.701C115.371 241.631 115.361 241.571 115.331 241.521C115.401 241.251 115.261 240.911 114.891 240.911H112.461C112.401 240.751 112.261 240.611 112.051 240.601C110.601 240.471 110.001 239.001 109.661 237.651C109.661 237.541 109.641 237.431 109.591 237.341C109.531 237.061 109.471 236.781 109.421 236.531C109.171 235.271 108.741 233.041 109.311 231.851C109.321 231.831 109.311 231.811 109.331 231.791C113.491 229.901 118.951 229.671 122.971 230.781C124.271 231.141 125.721 231.611 126.751 232.521C127.351 233.051 127.801 233.661 128.471 234.121C129.591 234.881 130.571 233.151 131.241 232.651C131.541 232.431 131.551 232.061 131.241 231.831H131.251ZM93.6512 241.851H95.5512C95.5812 245.111 95.8112 248.381 95.5512 251.641C95.4612 251.671 95.3812 251.731 95.3212 251.811C94.6612 251.841 94.0012 251.871 93.3412 251.891C93.3712 248.541 93.6012 245.201 93.6412 241.851H93.6512ZM91.1312 251.941V241.851H92.7012C92.6612 245.211 92.4312 248.561 92.4012 251.911C91.9812 251.911 91.5612 251.931 91.1412 251.941H91.1312ZM115.121 333.531C111.021 333.891 107.001 334.161 102.901 334.211C98.7212 334.171 94.6212 333.891 90.4512 333.521C89.9812 333.481 89.5312 333.461 89.0812 333.441C90.5512 333.271 92.0112 332.861 93.4512 332.451C95.4712 331.881 97.5412 331.541 99.6312 331.401C99.7412 331.401 99.8512 331.381 99.9612 331.371C100.071 331.601 104.731 330.281 112.101 332.451C113.541 332.871 115.011 333.261 116.471 333.441C116.031 333.451 115.571 333.471 115.101 333.521L115.121 333.531ZM114.441 241.861V251.951C114.021 251.951 113.601 251.931 113.171 251.921C113.141 248.561 112.911 245.211 112.871 241.861H114.441ZM112.541 252.861V255.581C112.541 255.831 112.701 255.971 112.891 256.021C112.931 256.211 113.081 256.371 113.331 256.371C114.151 256.371 115.851 258.961 116.251 259.521C116.971 260.521 117.661 261.551 118.331 262.591C119.961 265.151 121.361 267.821 122.821 270.481C124.651 273.831 125.831 276.891 126.031 280.751C126.191 283.811 126.251 286.881 126.361 289.941C126.591 296.191 126.851 302.571 126.541 308.821C126.231 314.921 125.231 320.921 125.171 327.051C124.721 328.851 123.401 330.441 122.091 331.711C121.841 331.961 121.591 332.161 121.331 332.341C121.211 332.131 120.951 331.981 120.671 332.101C116.781 333.751 112.251 331.261 108.321 330.731C106.751 330.521 104.691 330.171 102.821 330.271C100.941 330.171 98.8512 330.511 97.2712 330.731C93.3412 331.261 88.8212 333.751 84.9212 332.101C84.6412 331.981 84.3712 332.131 84.2612 332.341C84.0012 332.161 83.7512 331.951 83.5012 331.711C82.1912 330.441 80.8712 328.851 80.4212 327.051C80.3512 320.921 79.3512 314.931 79.0412 308.821C78.7312 302.571 79.0012 296.201 79.2212 289.941C79.3312 286.881 79.4012 283.801 79.5512 280.741C79.7512 276.881 80.9312 273.821 82.7612 270.471C83.4412 269.231 84.1012 268.001 84.7812 266.771C85.0612 266.201 85.3612 265.671 85.6812 265.191C86.1812 264.311 86.7012 263.441 87.2512 262.581C87.9212 261.541 88.6012 260.511 89.3312 259.511C89.7312 258.951 91.4312 256.361 92.2512 256.361C92.5012 256.361 92.6412 256.201 92.6912 256.011C92.8812 255.971 93.0412 255.821 93.0412 255.571V252.851C94.0412 252.831 95.0312 252.791 96.0312 252.751C96.8012 252.961 97.6612 252.821 98.4512 252.721C98.7712 252.681 99.0912 252.651 99.4112 252.631C100.411 252.601 101.421 252.571 102.421 252.571H102.481C102.711 252.571 102.941 252.571 103.171 252.571C104.221 252.571 105.261 252.601 106.311 252.631C106.591 252.651 106.871 252.671 107.151 252.711C107.931 252.811 108.781 252.961 109.551 252.751C110.551 252.791 111.561 252.831 112.561 252.851L112.541 252.861ZM96.4912 241.861H99.9212C99.8912 245.071 99.6312 248.271 99.6112 251.481C99.6112 251.541 99.6212 251.591 99.6412 251.641C99.5612 251.641 99.4812 251.641 99.4012 251.661C99.3312 251.661 99.2512 251.681 99.1712 251.691C98.2812 251.711 97.3812 251.741 96.4912 251.781C96.7712 248.481 96.5212 245.171 96.4912 241.871V241.861ZM100.911 241.861H104.651C104.611 245.101 104.401 248.341 104.361 251.581C103.801 251.581 103.251 251.581 102.701 251.601C102.201 251.581 101.711 251.581 101.211 251.581C101.171 248.341 100.961 245.101 100.911 241.851V241.861ZM109.071 251.781C108.201 251.741 107.321 251.721 106.451 251.701C106.351 251.681 106.251 251.671 106.151 251.661C106.071 251.661 105.991 251.661 105.911 251.641C105.931 251.591 105.941 251.541 105.941 251.481C105.921 248.271 105.661 245.071 105.631 241.871H109.061C109.031 245.181 108.781 248.481 109.061 251.791L109.071 251.781ZM111.921 241.861C111.961 245.211 112.191 248.551 112.221 251.901C111.561 251.881 110.901 251.851 110.241 251.821C110.181 251.741 110.101 251.671 110.001 251.641C109.741 248.381 109.981 245.121 110.001 241.861H111.911H111.921ZM110.481 240.911H109.911C109.911 240.911 109.911 240.911 109.891 240.911H95.0912C95.8412 240.321 96.3012 239.381 96.6212 238.391H100.631C102.191 238.391 108.951 238.391 108.951 238.391C109.271 239.381 109.721 240.321 110.481 240.911ZM97.2712 231.941C97.3912 231.841 97.4712 231.681 97.4212 231.491C97.3712 231.261 97.3012 231.071 97.2012 230.901C100.601 231.141 104.211 231.831 107.651 231.601C106.911 232.021 106.221 232.521 105.591 233.071C105.321 233.011 105.011 233.151 105.011 233.511V237.151C104.671 237.151 104.331 237.151 103.991 237.171C103.621 237.191 103.221 237.201 102.811 237.231C102.391 237.191 101.971 237.181 101.591 237.161C100.061 237.081 98.5312 237.121 97.0012 237.131C97.4012 235.531 97.7212 233.471 97.2812 231.941H97.2712ZM108.581 237.131C107.711 237.131 106.831 237.121 105.951 237.121V233.941C106.011 233.921 106.071 233.891 106.131 233.831C106.751 233.271 107.451 232.791 108.211 232.361C107.921 233.831 108.211 235.671 108.581 237.121V237.131ZM128.241 232.711C127.451 231.961 126.921 231.411 125.971 230.901C124.141 229.901 121.821 229.321 119.751 229.201C117.201 229.061 114.381 229.261 111.751 229.961C111.651 229.881 111.521 229.841 111.351 229.901C106.461 231.681 100.741 229.991 95.7112 229.881C95.6012 229.881 95.5312 229.911 95.4612 229.961C93.6912 229.941 91.2312 231.281 89.9712 232.321C89.4312 230.301 89.3012 228.751 91.1812 227.021C92.7112 225.621 94.7512 224.661 96.7012 224.031C100.611 222.771 105.071 222.861 109.141 222.981C113.471 223.101 117.911 225.091 121.981 226.431C123.841 227.051 125.731 228.021 127.221 229.311C128.311 230.261 129.221 231.361 130.331 232.281C129.751 232.891 129.161 233.591 128.251 232.731L128.241 232.711Z" fill="#512473"/>
<path d="M106.301 260.161C105.581 260.361 104.861 260.451 104.131 260.501C103.741 260.511 103.351 260.521 102.971 260.531C102.391 260.531 101.811 260.511 101.231 260.491C100.571 260.441 99.9212 260.351 99.2712 260.171C99.1312 260.131 99.0112 260.161 98.9112 260.221C97.2812 259.811 95.9612 258.961 94.3612 258.011C93.8312 257.701 93.3612 258.521 93.8812 258.831C95.5412 259.821 97.2912 261.261 99.3112 261.371C100.271 261.421 101.261 261.491 102.241 261.511C103.571 261.541 104.921 261.451 106.241 261.381C108.261 261.271 110.011 259.821 111.671 258.841C112.191 258.531 111.721 257.711 111.191 258.021C109.591 258.971 108.281 259.811 106.651 260.231C106.551 260.171 106.431 260.141 106.281 260.181L106.301 260.161Z" fill="#512473"/>
<path d="M83.0513 282.481C83.0513 305.691 93.5113 313.931 102.461 313.931C106.581 313.931 110.701 312.051 114.061 308.631C119.651 302.941 122.631 293.661 122.451 282.481C122.321 274.381 115.591 270.281 102.461 270.281C89.3313 270.281 83.0513 274.271 83.0513 282.491V282.481ZM121.511 282.481C121.691 293.401 118.811 302.451 113.391 307.951C110.211 311.191 106.331 312.971 102.461 312.971C93.9413 312.971 83.9913 304.981 83.9913 282.471C83.9913 274.891 90.0313 271.211 102.461 271.211C114.891 271.211 121.381 274.901 121.501 282.481H121.511Z" fill="#512473"/>
<path d="M563.557 267.581L563.347 285.201C563.337 286.471 563.687 287.671 564.347 288.571C564.977 289.431 565.817 289.911 566.707 289.921L576.607 290.041L576.637 290.511V290.041C578.507 290.041 580.047 287.961 580.077 285.401L580.287 267.781C580.297 266.511 579.947 265.311 579.287 264.411C578.657 263.551 577.817 263.071 576.927 263.061L567.027 262.941C565.127 262.941 563.587 265.021 563.557 267.581Z" fill="#512473"/>
<path d="M592.668 227.462C592.408 226.932 592.008 226.522 591.548 226.192C591.318 226.912 591.118 227.632 590.968 228.372C590.828 229.052 590.658 229.722 590.268 230.312C589.928 230.822 589.108 230.342 589.448 229.832C589.838 229.242 589.968 228.562 590.098 227.882C590.228 227.192 590.448 226.522 590.658 225.852C590.678 225.802 590.708 225.762 590.728 225.722C590.348 225.542 589.968 225.382 589.588 225.252C589.408 225.192 589.228 225.142 589.048 225.092C589.048 225.112 589.048 225.132 589.048 225.162C588.698 226.322 588.158 227.432 588.118 228.662C588.098 229.272 587.148 229.272 587.168 228.662C587.208 227.342 587.758 226.162 588.128 224.912C588.128 224.902 588.138 224.892 588.148 224.882C587.508 224.752 586.858 224.662 586.198 224.582C586.148 225.802 585.908 226.982 585.748 228.192C585.668 228.792 584.718 228.792 584.798 228.192C584.968 226.952 585.218 225.722 585.258 224.472C584.858 224.422 584.458 224.382 584.068 224.322C583.888 224.292 583.718 224.272 583.538 224.242C583.458 225.492 582.808 226.612 582.748 227.872C582.728 228.482 581.778 228.482 581.798 227.872C581.848 226.572 582.548 225.392 582.588 224.102C581.748 223.982 580.898 223.852 580.058 223.742C580.008 225.342 579.628 226.902 579.598 228.502C579.598 228.672 579.508 228.792 579.398 228.872C582.938 228.902 586.428 229.322 589.808 230.732C590.358 230.962 590.118 231.882 589.558 231.642C584.188 229.402 578.568 229.722 572.888 230.032C567.408 230.332 561.638 229.982 556.508 232.222C555.958 232.462 555.478 231.652 556.028 231.402C561.098 229.192 566.618 229.422 572.028 229.132C574.298 229.012 576.568 228.862 578.818 228.862C578.718 228.782 578.638 228.672 578.648 228.502C578.678 226.862 579.088 225.272 579.118 223.632C578.478 223.552 577.838 223.462 577.198 223.392C577.248 223.482 577.268 223.602 577.218 223.742C576.758 224.952 577.058 226.302 577.078 227.562C577.078 228.172 576.138 228.172 576.128 227.562C576.108 226.212 575.818 224.792 576.298 223.492C576.328 223.412 576.368 223.352 576.418 223.312C575.488 223.212 574.548 223.132 573.608 223.062C573.618 224.562 573.748 226.062 573.758 227.562C573.758 228.172 572.818 228.172 572.808 227.562C572.798 226.042 572.668 224.532 572.648 223.012C571.908 223.062 571.178 223.122 570.448 223.192C570.448 224.572 570.528 225.932 570.898 227.272C571.058 227.862 570.148 228.112 569.988 227.522C569.598 226.132 569.518 224.722 569.508 223.292C568.818 223.362 568.128 223.442 567.448 223.522C567.438 224.932 567.888 226.302 567.928 227.712C567.948 228.322 566.998 228.322 566.978 227.712C566.938 226.342 566.508 225.012 566.498 223.642C565.838 223.732 565.178 223.802 564.518 223.892C564.958 225.012 565.228 226.212 565.248 227.402C565.258 228.012 564.318 228.012 564.298 227.402C564.278 226.262 564.008 225.092 563.558 224.042C562.928 224.132 562.308 224.222 561.668 224.322H561.598C561.808 224.702 561.928 225.182 562.018 225.492C562.318 226.502 562.818 227.432 562.878 228.512C562.908 229.122 561.958 229.122 561.928 228.512C561.878 227.562 561.398 226.732 561.138 225.842C561.058 225.582 560.978 225.332 560.878 225.082C560.848 225.002 560.808 224.922 560.768 224.832C560.628 224.782 560.528 224.652 560.518 224.472C559.908 224.542 559.288 224.612 558.668 224.702C559.048 225.382 559.178 226.142 559.498 226.852C559.818 227.552 560.128 228.362 560.198 229.142C560.248 229.752 559.308 229.742 559.248 229.142C559.178 228.342 558.728 227.582 558.478 226.832C558.268 226.192 558.118 225.532 557.738 224.962C557.718 224.922 557.708 224.892 557.698 224.862C557.178 224.962 556.658 225.082 556.158 225.262C556.118 225.272 556.078 225.292 556.028 225.312C556.058 225.372 556.088 225.442 556.098 225.522C556.148 226.022 556.578 226.352 556.708 226.812C556.888 227.452 557.158 228.062 557.338 228.702C557.498 229.292 556.588 229.542 556.428 228.952C556.248 228.302 556.048 227.492 555.698 226.922C555.458 226.512 555.248 226.122 555.168 225.652C554.818 225.812 554.478 226.012 554.158 226.242C554.188 226.302 554.198 226.372 554.198 226.462C554.088 227.742 555.068 228.932 555.448 230.122C555.628 230.702 554.718 230.952 554.538 230.372C554.208 229.312 553.468 228.282 553.298 227.152C553.228 227.262 553.148 227.362 553.088 227.482C552.668 228.342 553.478 230.752 553.268 230.822C555.628 237.782 556.588 244.752 557.458 252.022C557.918 255.822 558.338 259.662 558.308 263.502C558.278 267.152 557.828 270.862 558.218 274.512C559.018 281.962 558.858 289.372 558.798 296.852C558.778 299.652 558.198 303.212 559.118 305.902C560.198 309.062 563.348 309.192 565.878 310.472C568.228 310.242 571.358 310.782 572.498 310.802C572.678 310.802 572.798 310.892 572.868 311.002C572.938 310.892 573.058 310.802 573.238 310.802C574.378 310.782 577.508 310.232 579.858 310.472C582.378 309.202 585.538 309.062 586.618 305.902C587.538 303.212 586.968 299.652 586.938 296.852C586.878 289.372 586.718 281.962 587.518 274.512C587.908 270.872 587.458 267.162 587.428 263.502C587.398 259.662 587.818 255.832 588.278 252.022C589.158 244.752 590.108 237.782 592.468 230.822C592.258 230.752 593.068 228.342 592.648 227.482L592.668 227.462ZM576.938 262.112C578.128 262.122 579.228 262.742 580.048 263.842C580.828 264.902 581.258 266.302 581.238 267.782L581.028 285.402C580.998 288.472 579.028 290.972 576.648 290.972H576.608L566.708 290.852C565.518 290.842 564.418 290.222 563.598 289.122C562.818 288.062 562.398 286.662 562.408 285.182L562.618 267.562C562.658 264.492 564.618 261.992 567.008 261.992L576.948 262.112H576.938ZM565.898 293.752C565.288 293.752 565.288 292.802 565.898 292.802H572.048C572.658 292.802 572.658 293.752 572.048 293.752H565.898ZM568.978 296.112H565.788C565.178 296.112 565.178 295.162 565.788 295.162H568.978C569.588 295.162 569.588 296.112 568.978 296.112ZM571.108 295.172H577.968C578.108 295.172 578.208 295.222 578.288 295.302C578.298 295.302 578.308 295.302 578.328 295.292C578.608 295.272 578.878 295.192 579.158 295.172C579.768 295.142 579.768 296.082 579.158 296.122C578.878 296.142 578.608 296.222 578.328 296.242C578.178 296.242 578.058 296.202 577.988 296.122C577.988 296.122 577.988 296.122 577.978 296.122H571.118C570.508 296.122 570.508 295.172 571.118 295.172H571.108ZM579.258 293.752H574.178C573.568 293.752 573.568 292.802 574.178 292.802H579.258C579.868 292.802 579.868 293.752 579.258 293.752ZM588.128 241.022C587.958 243.142 587.678 245.252 587.358 247.352C586.558 252.532 586.198 257.692 585.988 262.922C585.788 267.932 585.578 272.972 585.938 277.982C586.288 282.862 586.728 287.772 586.368 292.672C586.108 296.162 586.218 300.682 584.748 303.912C583.568 306.512 581.128 308.032 578.368 308.552C574.948 309.192 571.458 308.762 568.028 308.352C565.448 308.042 562.378 307.352 560.998 304.872C560.698 304.332 561.518 303.862 561.818 304.392C563.758 307.882 569.528 307.662 572.968 307.902C575.828 308.092 579.268 307.992 581.678 306.232C585.128 303.712 584.458 299.482 585.068 295.762C585.738 291.672 585.638 287.392 585.378 283.262C584.838 274.722 584.558 266.192 585.248 257.652C585.558 253.802 586.018 250.032 586.578 246.222C586.878 244.212 586.928 242.122 587.298 240.122C587.668 238.132 588.278 236.212 588.358 234.172C588.388 233.562 589.328 233.562 589.308 234.172C589.208 236.522 588.308 238.702 588.128 241.032V241.022Z" fill="#AE72FF"/>
<path d="M579.618 327.332C579.608 327.942 578.658 327.942 578.668 327.332C578.748 322.032 579.748 316.802 579.838 311.492C579.548 311.552 579.048 311.592 578.978 311.382C576.768 311.352 573.938 311.712 573.258 311.722C573.078 311.722 572.958 311.642 572.888 311.532C572.808 311.642 572.688 311.722 572.518 311.722C571.848 311.712 569.008 311.352 566.798 311.382C566.708 311.652 565.888 311.502 565.758 311.432C564.798 311.522 564.108 311.732 564.018 312.162C564.118 317.002 564.898 321.792 564.948 326.632C564.948 327.332 565.008 328.032 565.118 328.702C565.878 328.642 566.838 328.842 567.438 329.072C568.848 329.612 570.208 329.972 571.728 330.002C572.338 330.012 572.338 330.962 571.728 330.952C570.648 330.932 569.568 330.802 568.538 330.472C567.748 330.212 566.328 329.592 565.328 329.622C565.688 330.832 566.378 331.872 567.728 332.552C569.378 333.372 570.768 333.172 572.888 333.602C574.768 333.722 576.398 333.382 578.048 332.552C579.378 331.882 580.068 330.852 580.438 329.672C578.848 330.602 577.138 330.952 575.208 330.962C574.598 330.962 574.598 330.022 575.208 330.012C577.258 329.992 579.078 329.612 580.728 328.362C580.798 327.802 580.828 327.232 580.838 326.652C580.888 321.802 581.668 317.012 581.768 312.182C581.708 311.882 581.338 311.682 580.788 311.562C580.688 316.852 579.698 322.052 579.618 327.342V327.332Z" fill="#AE72FF"/>
<path d="M592.988 226.262C591.528 224.672 589.468 224.082 587.388 223.782C584.138 223.312 580.928 222.832 577.688 222.462C577.758 222.192 574.338 221.932 572.898 222.022C571.448 221.922 568.038 222.182 568.098 222.462C566.738 222.612 565.388 222.802 564.028 222.982C563.908 222.942 563.768 222.962 563.648 223.032C561.908 223.272 560.158 223.522 558.398 223.782C556.308 224.082 554.258 224.662 552.798 226.262C551.558 227.622 552.108 230.222 552.208 230.502C554.958 238.362 555.928 246.312 556.838 254.532C557.698 262.282 556.938 270.012 557.648 277.762C558.338 285.262 558.028 292.932 557.848 300.452C557.788 302.922 557.648 305.582 559.008 307.762C560.158 309.602 562.358 310.072 564.308 310.792C564.008 310.912 563.748 311.062 563.548 311.262C563.308 311.262 563.068 311.412 563.078 311.722C563.078 311.862 563.088 312.002 563.098 312.142C563.098 312.162 563.088 312.172 563.078 312.192C563.068 312.272 563.078 312.342 563.098 312.402C563.168 315.142 563.458 317.862 563.718 320.582C563.988 323.382 563.808 326.232 564.148 329.022C564.688 333.382 568.508 334.062 572.048 334.302C572.158 334.412 572.718 334.442 572.888 334.422C573.058 334.442 572.948 334.562 573.058 334.442C578.428 333.942 581.088 333.372 581.628 329.022C581.638 328.922 581.638 328.822 581.648 328.732C581.668 328.672 581.668 328.612 581.658 328.562C581.938 325.932 581.798 323.242 582.058 320.592C582.318 317.862 582.608 315.142 582.678 312.412C582.698 312.352 582.708 312.282 582.698 312.202C582.698 312.182 582.688 312.172 582.688 312.152C582.688 312.012 582.698 311.872 582.698 311.732C582.698 311.422 582.468 311.272 582.228 311.272C582.028 311.072 581.768 310.922 581.458 310.802C583.408 310.092 585.618 309.612 586.758 307.772C588.118 305.592 587.968 302.932 587.918 300.462C587.738 292.942 587.428 285.272 588.118 277.772C588.828 270.022 588.068 262.292 588.928 254.542C589.838 246.322 590.808 238.372 593.558 230.512C593.658 230.232 593.988 228.922 593.768 228.852C594.248 227.482 594.208 227.622 592.968 226.262H592.988ZM581.758 312.162C581.658 317.002 580.878 321.792 580.828 326.632C580.828 327.212 580.788 327.782 580.718 328.342C579.068 329.592 577.248 329.982 575.198 329.992C574.588 329.992 574.588 330.942 575.198 330.942C577.128 330.922 578.848 330.572 580.428 329.652C580.058 330.842 579.378 331.872 578.038 332.532C576.388 333.352 574.758 333.702 572.878 333.582C570.758 333.152 569.368 333.362 567.718 332.532C566.378 331.862 565.678 330.812 565.318 329.602C566.318 329.572 567.738 330.202 568.528 330.452C569.558 330.782 570.638 330.912 571.718 330.932C572.328 330.942 572.328 330.002 571.718 329.982C570.198 329.952 568.838 329.602 567.428 329.052C566.828 328.822 565.868 328.622 565.108 328.682C564.998 328.012 564.948 327.322 564.938 326.612C564.888 321.762 564.108 316.972 564.008 312.142C564.098 311.712 564.788 311.502 565.748 311.412C565.878 311.482 566.708 311.622 566.788 311.362C568.998 311.332 571.828 311.692 572.508 311.702C572.688 311.702 572.808 311.622 572.878 311.512C572.948 311.622 573.068 311.702 573.248 311.702C573.918 311.692 576.758 311.332 578.968 311.362C579.038 311.562 579.538 311.532 579.828 311.472C579.738 316.782 578.738 322.002 578.658 327.312C578.658 327.922 579.598 327.922 579.608 327.312C579.688 322.022 580.678 316.822 580.778 311.532C581.328 311.652 581.698 311.842 581.758 312.152V312.162ZM592.488 230.802C590.128 237.762 589.168 244.732 588.298 252.002C587.838 255.802 587.418 259.642 587.448 263.482C587.478 267.132 587.928 270.842 587.538 274.492C586.738 281.942 586.898 289.352 586.958 296.832C586.978 299.632 587.558 303.192 586.638 305.882C585.558 309.042 582.408 309.172 579.878 310.452C577.528 310.222 574.398 310.762 573.258 310.782C573.078 310.782 572.958 310.872 572.888 310.982C572.808 310.872 572.688 310.782 572.518 310.782C571.378 310.762 568.248 310.212 565.898 310.452C563.378 309.182 560.218 309.042 559.138 305.882C558.218 303.192 558.788 299.632 558.818 296.832C558.878 289.352 559.038 281.942 558.238 274.492C557.848 270.852 558.298 267.142 558.328 263.482C558.358 259.642 557.938 255.812 557.478 252.002C556.598 244.732 555.648 237.762 553.288 230.802C553.498 230.732 552.688 228.322 553.108 227.462C553.168 227.342 553.248 227.242 553.318 227.132C553.488 228.252 554.228 229.282 554.558 230.352C554.738 230.932 555.658 230.682 555.468 230.102C555.098 228.922 554.108 227.722 554.218 226.442C554.218 226.362 554.218 226.282 554.178 226.222C554.488 225.992 554.828 225.792 555.188 225.632C555.268 226.092 555.468 226.492 555.718 226.902C556.058 227.482 556.268 228.282 556.448 228.932C556.608 229.522 557.528 229.272 557.358 228.682C557.178 228.042 556.908 227.432 556.728 226.792C556.598 226.332 556.168 226.002 556.118 225.502C556.118 225.422 556.088 225.352 556.048 225.292C556.088 225.282 556.128 225.262 556.178 225.242C556.678 225.062 557.198 224.942 557.718 224.842C557.728 224.882 557.738 224.912 557.758 224.942C558.138 225.512 558.288 226.172 558.498 226.812C558.748 227.562 559.208 228.322 559.268 229.122C559.318 229.722 560.268 229.732 560.218 229.122C560.148 228.352 559.838 227.542 559.518 226.832C559.198 226.122 559.068 225.362 558.688 224.682C559.298 224.592 559.918 224.522 560.538 224.452C560.538 224.642 560.638 224.762 560.788 224.812C560.828 224.892 560.868 224.972 560.898 225.062C560.998 225.312 561.088 225.562 561.158 225.822C561.418 226.712 561.908 227.542 561.948 228.492C561.978 229.102 562.928 229.102 562.898 228.492C562.838 227.412 562.338 226.492 562.038 225.472C561.948 225.162 561.828 224.672 561.618 224.302H561.688C562.318 224.202 562.948 224.112 563.578 224.012C564.028 225.062 564.298 226.242 564.318 227.372C564.328 227.982 565.278 227.982 565.268 227.372C565.248 226.182 564.978 224.982 564.538 223.862C565.198 223.772 565.858 223.692 566.518 223.612C566.538 224.982 566.968 226.312 566.998 227.682C567.018 228.292 567.958 228.292 567.948 227.682C567.908 226.272 567.458 224.902 567.468 223.492C568.158 223.412 568.848 223.332 569.528 223.262C569.548 224.692 569.628 226.102 570.008 227.492C570.168 228.082 571.088 227.832 570.918 227.242C570.538 225.902 570.478 224.542 570.468 223.162C571.198 223.092 571.938 223.032 572.668 222.982C572.678 224.502 572.808 226.012 572.828 227.532C572.828 228.142 573.778 228.142 573.778 227.532C573.768 226.032 573.638 224.532 573.628 223.032C574.568 223.102 575.508 223.192 576.438 223.282C576.388 223.332 576.348 223.392 576.318 223.462C575.828 224.762 576.118 226.182 576.148 227.532C576.148 228.142 577.098 228.142 577.098 227.532C577.078 226.272 576.788 224.932 577.238 223.712C577.288 223.572 577.278 223.462 577.218 223.362C577.858 223.432 578.498 223.522 579.138 223.602C579.098 225.242 578.698 226.832 578.668 228.472C578.668 228.642 578.738 228.762 578.838 228.832C576.588 228.832 574.318 228.982 572.048 229.102C566.628 229.402 561.118 229.162 556.048 231.372C555.488 231.612 555.968 232.432 556.528 232.192C561.658 229.952 567.428 230.302 572.908 230.002C578.588 229.692 584.218 229.372 589.578 231.612C590.138 231.842 590.378 230.932 589.828 230.702C586.448 229.292 582.958 228.882 579.418 228.842C579.528 228.762 579.608 228.652 579.618 228.472C579.648 226.872 580.028 225.312 580.078 223.712C580.918 223.822 581.768 223.952 582.608 224.072C582.568 225.362 581.878 226.542 581.818 227.842C581.798 228.452 582.738 228.452 582.768 227.842C582.818 226.582 583.478 225.462 583.558 224.212C583.738 224.242 583.918 224.262 584.088 224.292C584.478 224.352 584.878 224.402 585.278 224.442C585.238 225.692 584.988 226.922 584.818 228.162C584.738 228.762 585.688 228.762 585.768 228.162C585.928 226.952 586.168 225.772 586.218 224.552C586.868 224.632 587.518 224.722 588.168 224.852C588.168 224.862 588.158 224.872 588.148 224.882C587.768 226.132 587.228 227.312 587.188 228.632C587.168 229.242 588.118 229.242 588.138 228.632C588.178 227.402 588.718 226.292 589.068 225.132C589.068 225.112 589.068 225.092 589.068 225.062C589.248 225.112 589.428 225.162 589.608 225.222C589.988 225.352 590.368 225.512 590.748 225.692C590.718 225.732 590.698 225.772 590.678 225.822C590.468 226.492 590.248 227.162 590.118 227.852C589.988 228.532 589.848 229.222 589.468 229.802C589.128 230.312 589.948 230.782 590.288 230.282C590.678 229.692 590.848 229.022 590.988 228.342C591.138 227.602 591.338 226.882 591.568 226.162C592.028 226.492 592.428 226.902 592.688 227.432C593.108 228.292 592.298 230.702 592.508 230.772L592.488 230.802Z" fill="#512473"/>
<path d="M588.367 234.162C588.277 236.202 587.677 238.122 587.307 240.112C586.937 242.112 586.877 244.202 586.587 246.212C586.027 250.032 585.567 253.802 585.257 257.642C584.567 266.182 584.847 274.712 585.387 283.252C585.647 287.372 585.747 291.662 585.077 295.752C584.467 299.482 585.137 303.712 581.687 306.222C579.267 307.982 575.827 308.082 572.977 307.892C569.527 307.662 563.757 307.882 561.827 304.382C561.537 303.842 560.717 304.322 561.007 304.862C562.387 307.342 565.457 308.032 568.037 308.342C571.467 308.752 574.957 309.182 578.377 308.542C581.137 308.032 583.587 306.502 584.757 303.902C586.227 300.662 586.117 296.142 586.377 292.662C586.737 287.762 586.297 282.852 585.947 277.972C585.587 272.962 585.797 267.922 585.997 262.912C586.207 257.682 586.567 252.522 587.367 247.342C587.697 245.242 587.977 243.132 588.137 241.012C588.317 238.682 589.217 236.502 589.317 234.152C589.347 233.542 588.397 233.542 588.367 234.152V234.162Z" fill="#512473"/>
<path d="M562.608 267.572L562.398 285.192C562.378 286.672 562.798 288.072 563.588 289.132C564.398 290.242 565.508 290.852 566.698 290.862L576.598 290.982H576.638C579.018 290.982 580.988 288.482 581.018 285.412L581.228 267.792C581.248 266.312 580.818 264.912 580.038 263.852C579.228 262.752 578.118 262.132 576.928 262.122L566.988 262.002C564.608 262.002 562.638 264.502 562.598 267.572H562.608ZM576.918 263.062C577.808 263.072 578.638 263.552 579.278 264.412C579.938 265.312 580.298 266.502 580.278 267.782L580.068 285.402C580.038 287.962 578.498 290.042 576.628 290.042V290.512L576.598 290.042L566.698 289.922C565.808 289.922 564.978 289.432 564.338 288.572C563.678 287.672 563.318 286.482 563.338 285.202L563.548 267.582C563.578 265.022 565.118 262.942 567.018 262.942L576.918 263.062Z" fill="#512473"/>
<path d="M572.047 292.802H565.897C565.287 292.802 565.287 293.752 565.897 293.752H572.047C572.657 293.752 572.657 292.802 572.047 292.802Z" fill="#512473"/>
<path d="M579.258 292.802H574.178C573.568 292.802 573.568 293.752 574.178 293.752H579.258C579.868 293.752 579.868 292.802 579.258 292.802Z" fill="#512473"/>
<path d="M565.788 295.172C565.178 295.172 565.178 296.122 565.788 296.122H568.978C569.588 296.122 569.588 295.172 568.978 295.172H565.788Z" fill="#512473"/>
<path d="M571.108 296.112H577.968C577.968 296.112 577.968 296.112 577.978 296.112C578.058 296.192 578.168 296.242 578.318 296.232C578.598 296.212 578.868 296.132 579.148 296.112C579.758 296.082 579.758 295.132 579.148 295.162C578.868 295.172 578.598 295.262 578.318 295.282C578.308 295.282 578.298 295.282 578.278 295.292C578.198 295.212 578.098 295.162 577.958 295.162H571.098C570.488 295.162 570.488 296.112 571.098 296.112H571.108Z" fill="#512473"/>
</svg>
