<svg width="141" height="124" viewBox="0 0 141 124" fill="none" xmlns="http://www.w3.org/2000/svg">
<mask id="mask0_532_16061" style="mask-type:alpha" maskUnits="userSpaceOnUse" x="1" y="1" width="139" height="122">
<ellipse cx="70.3043" cy="61.9981" rx="68.7193" ry="60.1824" transform="rotate(-1.53307 70.3043 61.9981)" fill="url(#paint0_linear_532_16061)"/>
</mask>
<g mask="url(#mask0_532_16061)">
<g opacity="0.76">
<path opacity="0.71" d="M76.777 67.0404L88.9776 29.471L115.016 -50.7114L90.7032 -50.0607L87.4518 -27.5379L76.3111 49.6327L71.4152 83.5485L71.4139 83.5554L71.4153 83.5518L76.777 67.0404Z" fill="url(#paint1_linear_532_16061)"/>
<path opacity="0.71" d="M67.857 -49.4493L67.856 -49.4493L67.8528 -49.4492L45.0107 -48.8379L71.4123 83.546L71.4142 83.5553L69.6358 17.0529L67.857 -49.4493Z" fill="url(#paint2_linear_532_16061)"/>
<path opacity="0.71" d="M20.6981 -48.1872L-6.94873 -47.4473L71.4122 83.5521L71.414 83.5553L71.4122 83.5508L20.6981 -48.1872Z" fill="url(#paint3_linear_532_16061)"/>
<path opacity="0.71" d="M77.025 76.3036L89.7895 59.807L165.907 -38.5661L165.546 -52.0638L142.664 -51.4514L89.5075 49.2714L76.9389 73.0867L71.4153 83.5531L71.4139 83.5554L71.4153 83.5536L77.025 76.3036Z" fill="url(#paint4_linear_532_16061)"/>
<path opacity="0.71" d="M-26.751 68.4863L-26.2777 86.169L71.4122 83.555L71.4139 83.555L71.4122 83.5545L-26.751 68.4863Z" fill="url(#paint5_linear_532_16061)"/>
<path opacity="0.71" d="M77.1233 79.96L90.1106 71.7864L167.557 23.0439L166.854 -3.20443L89.974 66.6821L77.0816 78.4015L71.4158 83.5523L71.4143 83.5534L71.4158 83.5523L77.1233 79.96Z" fill="url(#paint6_linear_532_16061)"/>
<path opacity="0.71" d="M-27.8271 28.2695L-27.2544 49.6684L71.4124 83.5539L71.4141 83.5546L71.4124 83.5537L-27.8271 28.2695Z" fill="url(#paint7_linear_532_16061)"/>
<path opacity="0.71" d="M-29.4761 -33.3477L-28.5295 2.0188L71.4125 83.552L-29.4761 -33.3477Z" fill="url(#paint8_linear_532_16061)"/>
<path opacity="0.71" d="M-25.8043 103.85L-25.3007 122.668L71.4123 83.5537L71.414 83.5534L71.4123 83.5537L-25.8043 103.85Z" fill="url(#paint9_linear_532_16061)"/>
<path opacity="0.71" d="M77.1872 82.3504L90.3198 79.6086L168.633 63.2614L168.129 44.444L90.2219 75.9497L77.1572 81.233L71.4157 83.5546L71.4143 83.5554L71.4157 83.5549L77.1872 82.3504Z" fill="url(#paint10_linear_532_16061)"/>
<path opacity="0.71" d="M77.2434 84.4494L90.5039 86.4853L169.58 98.6264L169.106 80.9439L90.4119 83.0468L77.2153 83.3997L71.4158 83.5546L71.4143 83.5547L71.4158 83.5549L77.2434 84.4494Z" fill="url(#paint11_linear_532_16061)"/>
</g>
</g>
<path d="M102.239 92.1875L87.4148 94.405C83.2776 94.6525 78.5603 95.2844 73.5369 96.0249C68.4985 96.7677 63.7581 97.553 59.653 98.5239L44.4422 100.776L44.8078 103.875L44.8097 103.875C44.8095 103.875 44.8082 103.878 44.8089 103.884C45.0425 105.864 58.3657 105.502 74.4279 103.1C90.3381 100.72 102.902 97.1316 102.643 95.19C102.642 95.1841 102.626 95.0718 102.626 95.0718L102.626 95.0718L102.239 92.1875Z" fill="#AE72FF"/>
<path d="M102.245 92.2268C102.504 94.1652 89.9363 97.6372 74.0374 100C57.9867 102.385 44.6729 102.732 44.4397 100.755C44.2067 98.781 57.1208 95.2628 73.145 92.9157C89.0179 90.5908 101.986 90.2904 102.245 92.2268Z" fill="#8E5AD4"/>
<g opacity="0.89" filter="url(#filter0_f_532_16061)">
<circle cx="70.8586" cy="69.342" r="24.3694" fill="#2E1641"/>
</g>
<path opacity="0.5" d="M78.0983 48.6875L71.4075 55.3585L79.5949 60.0712C88.734 65.3218 94.8965 74.6172 96.3053 85.2511L97.2707 92.5379C97.2887 92.6741 97.1807 92.805 96.9905 92.9666L74.198 95.1138L72.672 95.338L49.8148 99.9266C49.5854 99.8251 49.5028 99.7205 49.4862 99.5821L48.6022 92.1771C47.3122 81.3717 51.062 70.5544 58.7278 62.9291L65.4873 56.1909L57.3025 51.4642C48.1049 46.1832 42.002 36.8912 40.75 26.4047L39.8521 18.8832L62.8767 17.1519L64.3866 16.9654L86.7469 13.1042L87.728 20.5098C89.0958 30.8341 85.5482 41.2559 78.0983 48.6875Z" fill="#754AAE"/>
<path d="M97.2413 92.5396C97.2593 92.6757 97.1686 92.825 96.9784 92.9865C95.2825 94.4156 85.6364 96.7447 73.7947 98.4992C61.8691 100.266 51.8018 100.846 49.7622 99.9526C49.5328 99.8511 49.4051 99.7322 49.3886 99.5937C49.2254 98.2262 59.9177 95.5316 73.176 93.587C86.3306 91.6576 97.063 91.1939 97.2413 92.5396Z" fill="#584177"/>
<mask id="mask1_532_16061" style="mask-type:luminance" maskUnits="userSpaceOnUse" x="59" y="71" width="25" height="25">
<path d="M59.4664 85.1712C60.4033 91.8003 66.5369 96.4148 73.166 95.478C79.7952 94.5411 84.4097 88.4075 83.4728 81.7784C82.5359 75.1491 76.4024 70.5347 69.7732 71.4716C63.144 72.4085 58.5295 78.5419 59.4664 85.1712Z" fill="white"/>
</mask>
<g mask="url(#mask1_532_16061)">
<path d="M81.7771 69.7752L57.7708 73.168L61.1635 97.1743L85.1699 93.7815L81.7771 69.7752Z" fill="#F9DD02"/>
</g>
<path d="M61.5547 84.8788C62.3287 90.3551 67.3955 94.1671 72.8718 93.3932C78.3482 92.6192 82.1602 87.5523 81.3863 82.076C80.6123 76.5996 75.5454 72.7875 70.069 73.5615C64.5927 74.3355 60.7807 79.4023 61.5547 84.8788Z" fill="#FBAE17"/>
<path d="M61.8918 84.8303C62.6394 90.1203 67.5338 93.8026 72.8238 93.0549C78.1138 92.3073 81.7961 87.4129 81.0484 82.1229C80.3008 76.833 75.4064 73.1506 70.1164 73.8983C64.8264 74.6459 61.1442 79.5403 61.8918 84.8303Z" fill="#FFC40D"/>
<g filter="url(#filter1_i_532_16061)">
<path d="M73.152 87.4987C73.0078 87.9898 72.9402 88.5102 72.9614 89.0429L77.2593 87.4805C77.4035 86.9895 77.471 86.4691 77.4499 85.9364L73.152 87.4987Z" fill="#FBAE17"/>
<path d="M76.8629 84.675C77.007 84.184 77.0746 83.6636 77.0534 83.1309L73.7055 84.3483L73.5073 82.9456L76.4663 81.8701C76.6105 81.3792 76.6781 80.8587 76.6569 80.326L73.3089 81.5428L72.596 76.4983C72.1089 76.8682 71.6948 77.3274 71.3785 77.8448L71.97 82.0296L70.631 82.5163L69.7387 76.2023C69.2516 76.5721 68.8375 77.0314 68.5212 77.5488L69.292 83.0029L66.2961 84.0917C66.152 84.5827 66.0843 85.1032 66.1054 85.6359L69.4903 84.4056L69.7399 86.1721L66.1123 87.4905C65.9682 87.9814 65.9006 88.5019 65.9218 89.0346L69.7189 87.6545C70.0282 87.5436 70.2756 87.3177 70.4172 87.0348L70.9855 85.8754C71.0445 85.7554 71.0692 85.6171 71.0492 85.475L70.8292 83.9189L72.1682 83.4322L72.5647 86.2376L76.8629 84.675Z" fill="#FBAE17"/>
</g>
<circle opacity="0.35" cx="71.4631" cy="83.4699" r="12.1167" transform="rotate(-8.04427 71.4631 83.4699)" fill="black"/>
<mask id="mask2_532_16061" style="mask-type:luminance" maskUnits="userSpaceOnUse" x="54" y="26" width="25" height="26">
<path d="M56.5196 45.5905C60.146 51.2183 67.6482 52.8408 73.276 49.2144C78.9039 45.5879 80.5263 38.0857 76.8999 32.458C73.2734 26.8301 65.7713 25.2077 60.1435 28.8341C54.5157 32.4606 52.8932 39.9626 56.5196 45.5905Z" fill="white"/>
</mask>
<g mask="url(#mask2_532_16061)">
<path d="M70.3346 22.2698L49.9543 35.4023L63.0869 55.7826L83.4671 42.65L70.3346 22.2698Z" fill="#F9DD02"/>
</g>
<path d="M58.2943 44.4513C61.2901 49.1004 67.4875 50.4408 72.1366 47.445C76.7858 44.4492 78.1261 38.2517 75.1303 33.6026C72.1345 28.9534 65.937 27.6131 61.2878 30.6089C56.6387 33.6047 55.2984 39.8021 58.2943 44.4513Z" fill="#FBAE17"/>
<path d="M58.5794 44.2663C61.4732 48.7573 67.4597 50.0519 71.9507 47.1581C76.4416 44.2642 77.7363 38.2777 74.8424 33.7868C71.9486 29.2959 65.9621 28.0012 61.4711 30.895C56.9802 33.7888 55.6855 39.7754 58.5794 44.2663Z" fill="#FFC40D"/>
<g clip-path="url(#clip0_532_16061)">
<g filter="url(#filter2_i_532_16061)">
<path d="M69.9222 41.9779C69.9969 42.4842 70.1534 42.9851 70.3957 43.46L73.6446 40.2416C73.5699 39.7354 73.4133 39.2345 73.1711 38.7596L69.9222 41.9779Z" fill="#FBAE17"/>
<path d="M72.11 37.8596C72.0354 37.3534 71.8788 36.8525 71.6365 36.3776L69.106 38.8849L68.3386 37.6941L70.5755 35.4785C70.5009 34.9722 70.3443 34.4713 70.102 33.9964L67.5711 36.5032L64.8115 32.2206C64.5241 32.7605 64.3403 33.351 64.2698 33.9532L66.559 37.5059L65.5469 38.5085L62.0928 33.1482C61.8053 33.688 61.6216 34.2785 61.5511 34.8808L64.5347 39.511L62.2699 41.7542C62.3446 42.2604 62.501 42.7614 62.7432 43.2363L65.302 40.7019L66.2683 42.2015L63.5261 44.9176C63.6007 45.4239 63.7573 45.9248 63.9996 46.3997L66.8699 43.5566C67.1044 43.3264 67.2344 43.0176 67.2446 42.7014L67.2752 41.4106C67.2786 41.2769 67.2432 41.1409 67.1654 41.0203L66.3142 39.6993L67.3263 38.6967L68.861 41.0783L72.11 37.8596Z" fill="#FBAE17"/>
</g>
</g>
<path d="M70.7961 72.9228C70.7879 72.9213 70.7955 72.9176 70.7955 72.9176C70.7955 72.9176 70.8037 72.9191 70.7961 72.9228Z" fill="#FFC40D"/>
<mask id="mask3_532_16061" style="mask-type:luminance" maskUnits="userSpaceOnUse" x="50" y="75" width="25" height="25">
<path d="M50.5126 89.1575C51.4494 95.7866 57.583 100.401 64.2121 99.4643C70.8413 98.5274 75.4558 92.3938 74.519 85.7647C73.5821 79.1355 67.4485 74.521 60.8193 75.4579C54.1902 76.3948 49.5757 82.5283 50.5126 89.1575Z" fill="white"/>
</mask>
<g mask="url(#mask3_532_16061)">
<path d="M72.8228 73.7615L48.8164 77.1543L52.2092 101.161L76.2156 97.7679L72.8228 73.7615Z" fill="#F9DD02"/>
</g>
<path d="M52.6009 88.8651C53.3748 94.3414 58.4416 98.1535 63.918 97.3795C69.3943 96.6055 73.2064 91.5386 72.4324 86.0623C71.6584 80.5859 66.5915 76.7739 61.1152 77.5478C55.6388 78.3218 51.8269 83.3887 52.6009 88.8651Z" fill="#FBAE17"/>
<path d="M52.937 88.8167C53.6846 94.1066 58.579 97.7889 63.869 97.0413C69.1589 96.2936 72.8412 91.3992 72.0936 86.1093C71.346 80.8193 66.4516 77.137 61.1616 77.8846C55.8716 78.6322 52.1893 83.5267 52.937 88.8167Z" fill="#FFC40D"/>
<g filter="url(#filter3_i_532_16061)">
<path d="M64.1971 91.487C64.053 91.9781 63.9854 92.4985 64.0066 93.0311L68.3045 91.4688C68.4486 90.9778 68.5161 90.4574 68.495 89.9247L64.1971 91.487Z" fill="#FBAE17"/>
<path d="M67.908 88.6633C68.0522 88.1723 68.1198 87.6519 68.0985 87.1192L64.7507 88.3366L64.5524 86.9339L67.5115 85.8584C67.6556 85.3674 67.7232 84.847 67.702 84.3143L64.3541 85.5311L63.6411 80.4865C63.154 80.8564 62.74 81.3157 62.4237 81.8331L63.0151 86.0179L61.6762 86.5046L60.7838 80.1905C60.2967 80.5603 59.8827 81.0197 59.5664 81.5371L60.3372 86.9912L57.3413 88.08C57.1971 88.571 57.1294 89.0915 57.1506 89.6241L60.5355 88.3939L60.7851 90.1603L57.1575 91.4788C57.0134 91.9697 56.9458 92.4902 56.967 93.0229L60.7641 91.6428C61.0734 91.5319 61.3207 91.3059 61.4624 91.0231L62.0306 89.8637C62.0897 89.7437 62.1144 89.6054 62.0943 89.4632L61.8744 87.9072L63.2134 87.4205L63.6098 90.2259L67.908 88.6633Z" fill="#FBAE17"/>
</g>
<circle opacity="0.35" cx="62.5083" cy="87.4562" r="12.1167" transform="rotate(-8.04427 62.5083 87.4562)" fill="black"/>
<mask id="mask4_532_16061" style="mask-type:luminance" maskUnits="userSpaceOnUse" x="69" y="72" width="25" height="25">
<path d="M70.1287 87.8472C71.8512 94.3169 78.4922 98.1654 84.9619 96.4429C91.4316 94.7205 95.28 88.0794 93.5576 81.6098C91.8352 75.14 85.1941 71.2917 78.7244 73.0141C72.2548 74.7365 68.4063 81.3775 70.1287 87.8472Z" fill="white"/>
</mask>
<g mask="url(#mask4_532_16061)">
<path d="M90.4399 69.8993L67.011 76.1367L73.2484 99.5656L96.6773 93.3281L90.4399 69.8993Z" fill="#F9DD02"/>
</g>
<path d="M72.1684 87.3101C73.5913 92.6547 79.0774 95.8339 84.422 94.411C89.7666 92.9881 92.9458 87.502 91.5229 82.1574C90.1 76.8127 84.6138 73.6336 79.2692 75.0565C73.9246 76.4793 70.7455 81.9655 72.1684 87.3101Z" fill="#FBAE17"/>
<path d="M72.4972 87.221C73.8717 92.3837 79.1711 95.4546 84.3338 94.0802C89.4966 92.7057 92.5675 87.4063 91.193 82.2436C89.8186 77.0809 84.5192 74.0099 79.3565 75.3844C74.1937 76.7588 71.1228 82.0583 72.4972 87.221Z" fill="#FFC40D"/>
<g clip-path="url(#clip1_532_16061)">
<g filter="url(#filter4_i_532_16061)">
<path d="M83.9952 88.5264C83.9108 89.0312 83.9059 89.5559 83.9906 90.0822L88.071 88.0174C88.1554 87.5127 88.1602 86.9879 88.0756 86.4616L83.9952 88.5264Z" fill="#FBAE17"/>
<path d="M87.3422 85.2806C87.4266 84.776 87.4315 84.2511 87.3468 83.7248L84.1684 85.3336L83.804 83.9646L86.6133 82.5432C86.6978 82.0386 86.7027 81.5138 86.6179 80.9874L83.4394 82.5956L82.1287 77.6724C81.6893 78.0979 81.3331 78.6033 81.0809 79.1548L82.1682 83.2389L80.897 83.8822L79.2565 77.72C78.8171 78.1454 78.4609 78.651 78.2087 79.2024L79.6258 84.5253L76.7815 85.9644C76.6971 86.469 76.692 86.9939 76.7767 87.5202L79.9903 85.8943L80.4493 87.6182L77.0052 89.3607C76.9208 89.8654 76.9159 90.3902 77.0006 90.9165L80.6055 89.0926C80.8994 88.9455 81.118 88.6916 81.2248 88.3938L81.6504 87.1748C81.6947 87.0486 81.7027 86.9084 81.6658 86.7696L81.2615 85.251L82.5327 84.6078L83.2616 87.3457L87.3422 85.2806Z" fill="#FBAE17"/>
</g>
</g>
<circle opacity="0.35" cx="81.8376" cy="84.7257" r="12.1167" transform="rotate(-8.04427 81.8376 84.7257)" fill="black"/>
<mask id="mask5_532_16061" style="mask-type:luminance" maskUnits="userSpaceOnUse" x="58" y="59" width="25" height="26">
<path d="M58.4301 71.3895C58.0639 78.0744 63.1863 83.7907 69.8713 84.1569C76.5563 84.5232 82.2726 79.4007 82.6388 72.7157C83.005 66.0307 77.8826 60.3145 71.1976 59.9483C64.5126 59.5821 58.7964 64.7044 58.4301 71.3895Z" fill="white"/>
</mask>
<g mask="url(#mask5_532_16061)">
<path d="M83.3024 60.6114L59.0938 59.2852L57.7675 83.4938L81.9761 84.82L83.3024 60.6114Z" fill="#F9DD02"/>
</g>
<path d="M60.5362 71.5072C60.2336 77.0297 64.4652 81.7518 69.9876 82.0544C75.5101 82.3569 80.2323 78.1253 80.5348 72.6028C80.8374 67.0803 76.6057 62.3582 71.0832 62.0556C65.5608 61.7531 60.8387 65.9847 60.5362 71.5072Z" fill="#FBAE17"/>
<path d="M60.8756 71.5263C60.5834 76.8608 64.6709 81.4222 70.0055 81.7144C75.34 82.0067 79.9014 77.9191 80.1937 72.5846C80.4859 67.2501 76.3984 62.6886 71.0638 62.3964C65.7293 62.1041 61.1679 66.1917 60.8756 71.5263Z" fill="#FFC40D"/>
<g clip-path="url(#clip2_532_16061)">
<g filter="url(#filter5_i_532_16061)">
<path d="M71.4046 76.3256C71.168 76.7795 71.0008 77.2768 70.9183 77.8035L75.4376 77.1041C75.6742 76.6504 75.8413 76.1529 75.9239 75.6263L71.4046 76.3256Z" fill="#FBAE17"/>
<path d="M75.5925 74.2756C75.8291 73.8219 75.9964 73.3244 76.0788 72.7977L72.5585 73.3429L72.636 71.9284L75.7474 71.4471C75.984 70.9934 76.1512 70.4959 76.2337 69.9692L72.7133 70.5137L72.992 65.4267C72.4425 65.6951 71.9472 66.0654 71.5366 66.5117L71.3054 70.7317L69.8975 70.9496L70.2463 64.5823C69.6968 64.8506 69.2015 65.221 68.7909 65.6673L68.4896 71.1673L65.3394 71.6546C65.1028 72.1083 64.9355 72.6057 64.8529 73.1324L68.4121 72.5818L68.3145 74.3632L64.5001 74.9532C64.2635 75.4069 64.0963 75.9044 64.0139 76.4311L68.0064 75.8134C68.3314 75.7646 68.6179 75.5909 68.8117 75.3408L69.5939 74.3136C69.6751 74.2074 69.7262 74.0765 69.7341 73.9331L69.82 72.364L71.2279 72.1461L71.073 74.9752L75.5925 74.2756Z" fill="#FBAE17"/>
</g>
</g>
<path d="M51.553 28.7001C50.836 24.0568 50.8403 20.6237 50.8403 20.6237C50.8403 20.6237 49.2251 17.8298 44.9245 19.7141C44.1644 23.2946 44.0974 26.6555 44.507 29.5919L51.553 28.7001Z" fill="white"/>
<path d="M51.9059 30.7655L44.8774 31.6595C48.2793 46.9612 64.4491 54.0486 64.4491 54.0486L68.0298 53.5668C57.6664 50.869 53.533 39.3659 51.9059 30.7655Z" fill="white"/>
<path d="M60.0509 95.9178L53.7104 96.8485C52.5502 94.0948 51.879 91.2731 51.625 88.7593L58.7704 87.7281C59.1921 92.3967 60.0111 95.7412 60.0509 95.9178Z" fill="white"/>
<path d="M58.6087 85.5732L51.4885 86.5961C51.1057 70.3656 65.0834 59.1263 65.0834 59.1263L68.6684 58.6384C59.3093 64.2045 58.0923 76.5989 58.6087 85.5732Z" fill="white"/>
<path d="M91.5791 12.5458L77.0259 14.3518C72.9666 14.5057 68.3363 15.007 63.4066 15.614C58.4626 16.2227 53.8106 16.874 49.7818 17.719L34.8591 19.5613L35.1947 22.4058L35.1965 22.4055C35.1963 22.4056 35.2008 22.4574 35.2015 22.4632C35.425 24.3574 48.493 24.302 64.2527 22.3296C79.8665 20.3754 92.2154 17.2875 91.9666 15.4284C91.9658 15.4227 91.9618 15.4031 91.9616 15.4031L91.9618 15.4031L91.5791 12.5458Z" fill="#AE72FF"/>
<path d="M91.5778 12.5245C91.8262 14.3805 79.4847 17.4451 63.8819 19.384C48.1333 21.3409 35.0772 21.4063 34.854 19.5152C34.6311 17.626 47.3046 14.5249 63.0277 12.6033C78.6056 10.6993 91.3296 10.6704 91.5778 12.5245Z" fill="#8E5AD4"/>
<mask id="mask6_532_16061" style="mask-type:luminance" maskUnits="userSpaceOnUse" x="41" y="55" width="11" height="12">
<path d="M41.4735 60.0868C40.8323 62.963 42.5547 65.8091 45.3205 66.4438C48.0863 67.0784 50.8482 65.2612 51.4894 62.385C52.1307 59.5088 50.4083 56.6627 47.6425 56.028C44.8767 55.3934 42.1147 57.2105 41.4735 60.0868Z" fill="white"/>
</mask>
<g mask="url(#mask6_532_16061)">
<path d="M52.6502 57.1771L42.6343 54.8789L40.3123 65.2946L50.3282 67.5929L52.6502 57.1771Z" fill="#F9DD02"/>
</g>
<path d="M42.3434 60.2886C41.8137 62.6646 43.2365 65.0158 45.5213 65.54C47.8061 66.0643 50.0878 64.5631 50.6175 62.1871C51.1472 59.811 49.7244 57.4599 47.4395 56.9356C45.1547 56.4113 42.8731 57.9125 42.3434 60.2886Z" fill="#FBAE17"/>
<path d="M42.4844 60.3179C41.9727 62.6131 43.3471 64.8842 45.5542 65.3907C47.7613 65.8971 49.9653 64.447 50.4769 62.1519C50.9886 59.8567 49.6142 57.5855 47.4072 57.0791C45.2001 56.5726 42.9961 58.0227 42.4844 60.3179Z" fill="#FFC40D"/>
<g clip-path="url(#clip3_532_16061)">
<g filter="url(#filter6_i_532_16061)">
<path d="M46.5414 63.1107C46.4079 63.2869 46.3008 63.4867 46.2277 63.705L48.2027 63.7329C48.3362 63.5568 48.4432 63.357 48.5164 63.1386L46.5414 63.1107Z" fill="#FBAE17"/>
<path d="M48.4726 62.5405C48.6061 62.3644 48.7132 62.1646 48.7862 61.9462L47.2477 61.9247L47.3827 61.3278L48.7424 61.3471C48.8759 61.171 48.983 60.9712 49.0561 60.7528L47.5176 60.731L48.003 58.5847C47.7496 58.6594 47.512 58.7814 47.305 58.9418L46.9023 60.7223L46.2871 60.7136L46.8945 58.0272C46.6412 58.1019 46.4036 58.2239 46.1965 58.3843L45.6718 60.7049L44.2951 60.6853C44.1617 60.8615 44.0545 61.0613 43.9814 61.2796L45.5368 61.3017L45.3669 62.0533L43.7 62.0296C43.5665 62.2058 43.4594 62.4056 43.3863 62.6239L45.1312 62.6487C45.273 62.6513 45.4076 62.598 45.5081 62.5054L45.9153 62.1244C45.9575 62.085 45.9887 62.0329 46.0024 61.9724L46.1521 61.3104L46.7674 61.3191L46.4975 62.5127L48.4726 62.5405Z" fill="#FBAE17"/>
</g>
</g>
<path d="M100.642 31.4782L99.9558 30.6016L97.3258 32.6597L98.0119 33.5363L100.642 31.4782Z" fill="#AE72FF"/>
<path d="M56.6731 65.7805L56.5176 66.8828L59.8245 67.3494L59.98 66.2471L56.6731 65.7805Z" fill="#E2D2FF"/>
<path d="M20.1295 71.0813L19.9739 72.1836L23.2808 72.6505L23.4364 71.5482L20.1295 71.0813Z" fill="#E2D2FF"/>
<path d="M117.577 53.3996L116.591 52.8828L115.04 55.8407L116.026 56.3575L117.577 53.3996Z" fill="#9EEC98"/>
<path d="M42.6686 32.0445L42.9397 30.9648L39.7007 30.1515L39.4296 31.2311L42.6686 32.0445Z" fill="#9EEC98"/>
<path d="M23.1682 46.0669L24.1392 46.6113L25.7725 43.6984L24.8015 43.154L23.1682 46.0669Z" fill="#AE72FF"/>
<path d="M119.662 43.7171C120.149 43.6483 120.488 43.1977 120.419 42.7107C120.35 42.2237 119.899 41.8847 119.412 41.9535C118.925 42.0223 118.586 42.4729 118.655 42.9599C118.724 43.4469 119.175 43.7859 119.662 43.7171Z" fill="#E2D2FF"/>
<path d="M39.1149 42.9319C39.6019 42.8631 39.9409 42.4125 39.8721 41.9255C39.8033 41.4385 39.3527 41.0995 38.8657 41.1683C38.3787 41.2372 38.0397 41.6878 38.1085 42.1748C38.1773 42.6618 38.6279 43.0008 39.1149 42.9319Z" fill="#E2D2FF"/>
<path d="M88.5202 21.149C88.5652 20.6592 88.2046 20.2257 87.7148 20.1808C87.225 20.1359 86.7916 20.4965 86.7466 20.9862C86.7017 21.476 87.0623 21.9095 87.5521 21.9544C88.0419 21.9993 88.4753 21.6387 88.5202 21.149Z" fill="#9EEC98"/>
<path d="M36.4331 57.5786C36.478 57.0889 36.1174 56.6554 35.6276 56.6105C35.1379 56.5655 34.7044 56.9262 34.6595 57.4159C34.6145 57.9057 34.9752 58.3392 35.4649 58.3841C35.9547 58.429 36.3882 58.0684 36.4331 57.5786Z" fill="#9EEC98"/>
<path d="M98.6771 45.1898L97.9172 47.0748L99.9296 46.7904L98.6771 45.1898Z" fill="#E2D2FF"/>
<mask id="mask7_532_16061" style="mask-type:luminance" maskUnits="userSpaceOnUse" x="94" y="63" width="8" height="8">
<path d="M95.4368 68.7854C96.4792 70.3367 98.5403 70.7881 100.04 69.7935C101.54 68.799 101.911 66.7352 100.869 65.1839C99.8265 63.6326 97.7654 63.1813 96.2654 64.1758C94.7653 65.1703 94.3944 67.2341 95.4368 68.7854Z" fill="white"/>
</mask>
<g mask="url(#mask7_532_16061)">
<path d="M98.9815 62.3751L93.5493 65.9766L97.3243 71.5943L102.756 67.9928L98.9815 62.3751Z" fill="#F9DD02"/>
</g>
<path d="M95.9093 68.4728C96.7705 69.7543 98.4731 70.1271 99.7123 69.3056C100.951 68.484 101.258 66.7791 100.397 65.4976C99.5357 64.216 97.833 63.8432 96.5938 64.6648C95.3546 65.4863 95.0482 67.1912 95.9093 68.4728Z" fill="#FBAE17"/>
<path d="M95.9857 68.4231C96.8175 69.661 98.4622 70.0211 99.6592 69.2275C100.856 68.4339 101.152 66.787 100.32 65.5491C99.4886 64.3112 97.8439 63.9511 96.6469 64.7447C95.4499 65.5383 95.1538 67.1852 95.9857 68.4231Z" fill="#FFC40D"/>
<g clip-path="url(#clip4_532_16061)">
<g filter="url(#filter7_i_532_16061)">
<path d="M99.0412 67.7769C99.0639 67.9153 99.109 68.0518 99.1775 68.1807L100.053 67.2848C100.03 67.1465 99.9852 67.01 99.9168 66.881L99.0412 67.7769Z" fill="#FBAE17"/>
<path d="M99.6223 66.6383C99.5996 66.5 99.5545 66.3635 99.486 66.2345L98.804 66.9325L98.5885 66.6097L99.1914 65.9929C99.1687 65.8546 99.1236 65.7181 99.0551 65.5891L98.373 66.2869L97.5982 65.1262C97.5218 65.2753 97.4741 65.4379 97.4575 65.6031L98.1003 66.5661L97.8275 66.8452L96.8576 65.3923C96.7812 65.5414 96.7336 65.704 96.7169 65.8693L97.5547 67.1243L96.9443 67.7487C96.967 67.8871 97.0121 68.0236 97.0805 68.1526L97.7702 67.447L98.0415 67.8535L97.3024 68.6096C97.3251 68.748 97.3702 68.8845 97.4387 69.0135L98.2123 68.222C98.2755 68.1579 98.3097 68.0727 98.3111 67.9861L98.3138 67.6324C98.3141 67.5958 98.3038 67.5587 98.282 67.526L98.0429 67.1679L98.3157 66.8888L98.7466 67.5343L99.6223 66.6383Z" fill="#FBAE17"/>
</g>
</g>
<defs>
<filter id="filter0_f_532_16061" x="24.1893" y="22.6727" width="93.3388" height="93.3383" filterUnits="userSpaceOnUse" color-interpolation-filters="sRGB">
<feFlood flood-opacity="0" result="BackgroundImageFix"/>
<feBlend mode="normal" in="SourceGraphic" in2="BackgroundImageFix" result="shape"/>
<feGaussianBlur stdDeviation="11.15" result="effect1_foregroundBlur_532_16061"/>
</filter>
<filter id="filter1_i_532_16061" x="65.918" y="76.2031" width="11.6826" height="13.0848" filterUnits="userSpaceOnUse" color-interpolation-filters="sRGB">
<feFlood flood-opacity="0" result="BackgroundImageFix"/>
<feBlend mode="normal" in="SourceGraphic" in2="BackgroundImageFix" result="shape"/>
<feColorMatrix in="SourceAlpha" type="matrix" values="0 0 0 0 0 0 0 0 0 0 0 0 0 0 0 0 0 0 127 0" result="hardAlpha"/>
<feOffset dx="0.146945" dy="0.391852"/>
<feGaussianBlur stdDeviation="0.122454"/>
<feComposite in2="hardAlpha" operator="arithmetic" k2="-1" k3="1"/>
<feColorMatrix type="matrix" values="0 0 0 0 0.83451 0 0 0 0 0.55268 0 0 0 0 0 0 0 0 1 0"/>
<feBlend mode="normal" in2="shape" result="effect1_innerShadow_532_16061"/>
</filter>
<filter id="filter2_i_532_16061" x="61.551" y="32.2207" width="12.2405" height="14.4246" filterUnits="userSpaceOnUse" color-interpolation-filters="sRGB">
<feFlood flood-opacity="0" result="BackgroundImageFix"/>
<feBlend mode="normal" in="SourceGraphic" in2="BackgroundImageFix" result="shape"/>
<feColorMatrix in="SourceAlpha" type="matrix" values="0 0 0 0 0 0 0 0 0 0 0 0 0 0 0 0 0 0 127 0" result="hardAlpha"/>
<feOffset dx="0.146945" dy="0.391852"/>
<feGaussianBlur stdDeviation="0.122454"/>
<feComposite in2="hardAlpha" operator="arithmetic" k2="-1" k3="1"/>
<feColorMatrix type="matrix" values="0 0 0 0 0.83451 0 0 0 0 0.55268 0 0 0 0 0 0 0 0 1 0"/>
<feBlend mode="normal" in2="shape" result="effect1_innerShadow_532_16061"/>
</filter>
<filter id="filter3_i_532_16061" x="56.9631" y="80.1914" width="11.6826" height="13.0848" filterUnits="userSpaceOnUse" color-interpolation-filters="sRGB">
<feFlood flood-opacity="0" result="BackgroundImageFix"/>
<feBlend mode="normal" in="SourceGraphic" in2="BackgroundImageFix" result="shape"/>
<feColorMatrix in="SourceAlpha" type="matrix" values="0 0 0 0 0 0 0 0 0 0 0 0 0 0 0 0 0 0 127 0" result="hardAlpha"/>
<feOffset dx="0.146945" dy="0.391852"/>
<feGaussianBlur stdDeviation="0.122454"/>
<feComposite in2="hardAlpha" operator="arithmetic" k2="-1" k3="1"/>
<feColorMatrix type="matrix" values="0 0 0 0 0.83451 0 0 0 0 0.55268 0 0 0 0 0 0 0 0 1 0"/>
<feBlend mode="normal" in2="shape" result="effect1_innerShadow_532_16061"/>
</filter>
<filter id="filter4_i_532_16061" x="76.7156" y="77.6719" width="11.5681" height="13.489" filterUnits="userSpaceOnUse" color-interpolation-filters="sRGB">
<feFlood flood-opacity="0" result="BackgroundImageFix"/>
<feBlend mode="normal" in="SourceGraphic" in2="BackgroundImageFix" result="shape"/>
<feColorMatrix in="SourceAlpha" type="matrix" values="0 0 0 0 0 0 0 0 0 0 0 0 0 0 0 0 0 0 127 0" result="hardAlpha"/>
<feOffset dx="0.146945" dy="0.391852"/>
<feGaussianBlur stdDeviation="0.122454"/>
<feComposite in2="hardAlpha" operator="arithmetic" k2="-1" k3="1"/>
<feColorMatrix type="matrix" values="0 0 0 0 0.83451 0 0 0 0 0.55268 0 0 0 0 0 0 0 0 1 0"/>
<feBlend mode="normal" in2="shape" result="effect1_innerShadow_532_16061"/>
</filter>
<filter id="filter5_i_532_16061" x="64.0139" y="64.582" width="12.3667" height="13.4656" filterUnits="userSpaceOnUse" color-interpolation-filters="sRGB">
<feFlood flood-opacity="0" result="BackgroundImageFix"/>
<feBlend mode="normal" in="SourceGraphic" in2="BackgroundImageFix" result="shape"/>
<feColorMatrix in="SourceAlpha" type="matrix" values="0 0 0 0 0 0 0 0 0 0 0 0 0 0 0 0 0 0 127 0" result="hardAlpha"/>
<feOffset dx="0.146945" dy="0.391852"/>
<feGaussianBlur stdDeviation="0.122454"/>
<feComposite in2="hardAlpha" operator="arithmetic" k2="-1" k3="1"/>
<feColorMatrix type="matrix" values="0 0 0 0 0.83451 0 0 0 0 0.55268 0 0 0 0 0 0 0 0 1 0"/>
<feBlend mode="normal" in2="shape" result="effect1_innerShadow_532_16061"/>
</filter>
<filter id="filter6_i_532_16061" x="43.3862" y="58.0273" width="5.83282" height="5.97658" filterUnits="userSpaceOnUse" color-interpolation-filters="sRGB">
<feFlood flood-opacity="0" result="BackgroundImageFix"/>
<feBlend mode="normal" in="SourceGraphic" in2="BackgroundImageFix" result="shape"/>
<feColorMatrix in="SourceAlpha" type="matrix" values="0 0 0 0 0 0 0 0 0 0 0 0 0 0 0 0 0 0 127 0" result="hardAlpha"/>
<feOffset dx="0.1629" dy="0.434399"/>
<feGaussianBlur stdDeviation="0.13575"/>
<feComposite in2="hardAlpha" operator="arithmetic" k2="-1" k3="1"/>
<feColorMatrix type="matrix" values="0 0 0 0 0.83451 0 0 0 0 0.55268 0 0 0 0 0 0 0 0 1 0"/>
<feBlend mode="normal" in2="shape" result="effect1_innerShadow_532_16061"/>
</filter>
<filter id="filter7_i_532_16061" x="96.7168" y="65.127" width="3.4395" height="4.05891" filterUnits="userSpaceOnUse" color-interpolation-filters="sRGB">
<feFlood flood-opacity="0" result="BackgroundImageFix"/>
<feBlend mode="normal" in="SourceGraphic" in2="BackgroundImageFix" result="shape"/>
<feColorMatrix in="SourceAlpha" type="matrix" values="0 0 0 0 0 0 0 0 0 0 0 0 0 0 0 0 0 0 127 0" result="hardAlpha"/>
<feOffset dx="0.103318" dy="0.275514"/>
<feGaussianBlur stdDeviation="0.086098"/>
<feComposite in2="hardAlpha" operator="arithmetic" k2="-1" k3="1"/>
<feColorMatrix type="matrix" values="0 0 0 0 0.83451 0 0 0 0 0.55268 0 0 0 0 0 0 0 0 1 0"/>
<feBlend mode="normal" in2="shape" result="effect1_innerShadow_532_16061"/>
</filter>
<linearGradient id="paint0_linear_532_16061" x1="112.826" y1="58.1514" x2="20.98" y2="155.748" gradientUnits="userSpaceOnUse">
<stop stop-color="#2E1641"/>
<stop offset="1" stop-color="#975ED5"/>
</linearGradient>
<linearGradient id="paint1_linear_532_16061" x1="107.693" y1="11.7807" x2="47.7125" y2="33.3691" gradientUnits="userSpaceOnUse">
<stop stop-color="#2E1641"/>
<stop offset="1" stop-color="#975ED5"/>
</linearGradient>
<linearGradient id="paint2_linear_532_16061" x1="65.1683" y1="12.9188" x2="33.6073" y2="18.8338" gradientUnits="userSpaceOnUse">
<stop stop-color="#2E1641"/>
<stop offset="1" stop-color="#975ED5"/>
</linearGradient>
<linearGradient id="paint3_linear_532_16061" x1="55.2622" y1="13.1839" x2="-27.1147" y2="59.1468" gradientUnits="userSpaceOnUse">
<stop stop-color="#2E1641"/>
<stop offset="1" stop-color="#975ED5"/>
</linearGradient>
<linearGradient id="paint4_linear_532_16061" x1="148.591" y1="10.6862" x2="55.5865" y2="77.9774" gradientUnits="userSpaceOnUse">
<stop stop-color="#2E1641"/>
<stop offset="1" stop-color="#975ED5"/>
</linearGradient>
<linearGradient id="paint5_linear_532_16061" x1="52.5411" y1="74.6466" x2="48.1711" y2="100.833" gradientUnits="userSpaceOnUse">
<stop stop-color="#2E1641"/>
<stop offset="1" stop-color="#975ED5"/>
</linearGradient>
<linearGradient id="paint6_linear_532_16061" x1="149.287" y1="36.6764" x2="87.0085" y2="107.685" gradientUnits="userSpaceOnUse">
<stop stop-color="#2E1641"/>
<stop offset="1" stop-color="#975ED5"/>
</linearGradient>
<linearGradient id="paint7_linear_532_16061" x1="51.9687" y1="53.2527" x2="13.5437" y2="117.306" gradientUnits="userSpaceOnUse">
<stop stop-color="#2E1641"/>
<stop offset="1" stop-color="#975ED5"/>
</linearGradient>
<linearGradient id="paint8_linear_532_16061" x1="51.0916" y1="20.4745" x2="-35.1674" y2="89.809" gradientUnits="userSpaceOnUse">
<stop stop-color="#2E1641"/>
<stop offset="1" stop-color="#975ED5"/>
</linearGradient>
<linearGradient id="paint9_linear_532_16061" x1="53.2502" y1="101.135" x2="35.2412" y2="149.711" gradientUnits="userSpaceOnUse">
<stop stop-color="#2E1641"/>
<stop offset="1" stop-color="#975ED5"/>
</linearGradient>
<linearGradient id="paint10_linear_532_16061" x1="149.965" y1="62.0244" x2="131.959" y2="110.597" gradientUnits="userSpaceOnUse">
<stop stop-color="#2E1641"/>
<stop offset="1" stop-color="#975ED5"/>
</linearGradient>
<linearGradient id="paint11_linear_532_16061" x1="150.707" y1="89.7164" x2="146.335" y2="115.907" gradientUnits="userSpaceOnUse">
<stop stop-color="#2E1641"/>
<stop offset="1" stop-color="#975ED5"/>
</linearGradient>
<clipPath id="clip0_532_16061">
<rect width="15.7974" height="15.7974" fill="white" transform="translate(55.5872 35.7734) rotate(-32.7968)"/>
</clipPath>
<clipPath id="clip1_532_16061">
<rect width="15.7974" height="15.7974" fill="white" transform="translate(72.2585 78.2207) rotate(-14.9081)"/>
</clipPath>
<clipPath id="clip2_532_16061">
<rect width="15.7974" height="15.7974" fill="white" transform="translate(63.4373 62.8906) rotate(3.13579)"/>
</clipPath>
<clipPath id="clip3_532_16061">
<rect width="6.82332" height="6.82331" fill="white" transform="translate(44.1167 56.8164) rotate(12.7421)"/>
</clipPath>
<clipPath id="clip4_532_16061">
<rect width="4.32762" height="4.32762" fill="white" transform="translate(95.0872 66.1406) rotate(-33.7255)"/>
</clipPath>
</defs>
</svg>
