<svg width="139" height="81" viewBox="0 0 139 81" fill="none" xmlns="http://www.w3.org/2000/svg">
<circle cx="70.282" cy="45.6672" r="32.5359" fill="#FBF9FF"/>
<path opacity="0.49" d="M17.251 48.9943C17.251 45.8886 19.7687 43.3708 22.8744 43.3708H116.125C119.231 43.3708 121.749 45.8886 121.749 48.9943V64.5416C121.749 67.6474 119.231 70.1651 116.125 70.1651H22.8744C19.7687 70.1651 17.251 67.6474 17.251 64.5416V48.9943Z" fill="#ECE2FF"/>
<path opacity="0.49" d="M24.9067 70.165H114.476V74.8765C114.476 77.9823 111.958 80.5 108.853 80.5H30.5302C27.4245 80.5 24.9067 77.9823 24.9067 74.8765V70.165Z" fill="#F6F2FF"/>
<circle cx="71.0267" cy="12.1702" r="11.6702" fill="#B6F0B1"/>
<path d="M75.2991 15.329L75.5058 15.6015C75.5915 15.7143 75.5683 15.8744 75.4541 15.9591C75.4094 15.9922 75.355 16.0102 75.2991 16.0102H67.0289C66.8862 16.0102 66.7705 15.8958 66.7705 15.7547C66.7705 15.6994 66.7886 15.6456 66.8222 15.6015L67.0289 15.329V10.9014C67.0289 8.64425 68.8803 6.81445 71.164 6.81445C73.4477 6.81445 75.2991 8.64425 75.2991 10.9014V15.329ZM69.8718 16.521H72.4562C72.4562 17.2264 71.8777 17.7982 71.164 17.7982C70.4503 17.7982 69.8718 17.2264 69.8718 16.521Z" fill="#EFFBEE"/>
<rect x="68.1436" y="23.0151" width="3.88334" height="3.88334" transform="rotate(-45 68.1436 23.0151)" fill="#B6F0B1"/>
<g filter="url(#filter0_d_829_18028)">
<path d="M11.127 36.0619C11.127 32.2767 14.1954 29.2083 17.9806 29.2083H121.02C124.805 29.2083 127.873 32.2767 127.873 36.0619V52.2111C127.873 55.9962 124.805 59.0647 121.02 59.0647H17.9806C14.1954 59.0647 11.127 55.9963 11.127 52.2111V36.0619Z" fill="white"/>
</g>
<mask id="mask0_829_18028" style="mask-type:luminance" maskUnits="userSpaceOnUse" x="16" y="33" width="23" height="23">
<path d="M33.6824 33.4187H21.4408C18.7042 33.4187 16.4858 35.6035 16.4858 38.2986V50.3547C16.4858 53.0498 18.7042 55.2346 21.4408 55.2346H33.6824C36.4189 55.2346 38.6373 53.0498 38.6373 50.3547V38.2986C38.6373 35.6035 36.4189 33.4187 33.6824 33.4187Z" fill="white"/>
</mask>
<g mask="url(#mask0_829_18028)">
<path d="M33.6829 33.4187H21.4413C18.7047 33.4187 16.4863 35.6035 16.4863 38.2986V50.3547C16.4863 53.0498 18.7047 55.2346 21.4413 55.2346H33.6829C36.4194 55.2346 38.6378 53.0498 38.6378 50.3547V38.2986C38.6378 35.6035 36.4194 33.4187 33.6829 33.4187Z" fill="#E2D2FF"/>
<path d="M38.6378 33.4187H16.4863V55.2346H38.6378V33.4187Z" fill="#E2D2FF"/>
</g>
<g clip-path="url(#clip0_829_18028)">
<path fill-rule="evenodd" clip-rule="evenodd" d="M24.726 44.328C24.1809 43.927 23.5239 43.7069 22.846 43.7069C22.5114 43.7069 22.2427 43.9836 22.2427 44.328C22.2427 44.6723 22.5114 44.949 22.846 44.949C23.5239 44.949 24.1809 44.729 24.726 44.328ZM27.5863 47.2723C27.1967 47.8335 26.983 48.5098 26.983 49.2077C26.983 49.5521 27.2517 49.8287 27.5863 49.8287C27.9208 49.8287 28.1896 49.5521 28.1896 49.2077C28.1896 48.5098 27.9758 47.8335 27.5863 47.2723ZM30.4465 44.328C30.9916 44.729 31.6487 44.949 32.3266 44.949C32.6611 44.949 32.9299 44.6723 32.9299 44.328C32.9299 43.9836 32.6611 43.7069 32.3266 43.7069C31.6487 43.7069 30.9916 43.927 30.4465 44.328ZM27.5863 43.1419L26.4341 44.328L27.5863 45.514L28.7385 44.328L27.5863 43.1419ZM28.39 42.2748C29.0098 41.4767 29.3531 40.48 29.3531 39.4482C29.3531 38.4164 28.5633 37.6294 27.5863 37.6294C26.6093 37.6294 25.8194 38.4425 25.8194 39.4482C25.8194 40.454 26.1628 41.4767 26.7825 42.2748L25.5924 43.4999C24.8171 42.862 23.8489 42.5085 22.8466 42.5085C21.8443 42.5085 21.0791 43.3222 21.0791 44.328C21.0791 45.3337 21.8689 46.1468 22.846 46.1468C23.823 46.1468 24.8165 45.7933 25.5918 45.1554L26.7819 46.3805C26.1622 47.1786 25.8188 48.1752 25.8188 49.207C25.8188 50.2388 26.6086 51.0259 27.5856 51.0259C28.5627 51.0259 29.3525 50.2128 29.3525 49.207C29.3525 48.2013 29.0091 47.1786 28.3894 46.3805L29.5795 45.1554C30.3548 45.7933 31.323 46.1468 32.3253 46.1468C33.3276 46.1468 34.0922 45.3337 34.0922 44.328C34.0922 43.3222 33.3023 42.5091 32.3253 42.5091C31.3483 42.5091 30.3548 42.8626 29.5795 43.5006L28.3894 42.2754L28.39 42.2748ZM27.5863 38.8272C27.2517 38.8272 26.983 39.1039 26.983 39.4482C26.983 40.1461 27.1967 40.8224 27.5863 41.3836C27.9758 40.8224 28.1896 40.1461 28.1896 39.4482C28.1896 39.1039 27.9208 38.8272 27.5863 38.8272Z" fill="#F0E7FF"/>
</g>
<rect opacity="0.49" x="44.4282" y="37.2466" width="21.8182" height="6.1244" rx="1.5311" fill="#E2D2FF"/>
<rect opacity="0.49" x="44.4282" y="45.6675" width="58.1818" height="6.1244" rx="1.5311" fill="#E2D2FF"/>
<defs>
<filter id="filter0_d_829_18028" x="0.830303" y="20.6145" width="137.34" height="50.4497" filterUnits="userSpaceOnUse" color-interpolation-filters="sRGB">
<feFlood flood-opacity="0" result="BackgroundImageFix"/>
<feColorMatrix in="SourceAlpha" type="matrix" values="0 0 0 0 0 0 0 0 0 0 0 0 0 0 0 0 0 0 127 0" result="hardAlpha"/>
<feOffset dy="1.70292"/>
<feGaussianBlur stdDeviation="5.14832"/>
<feComposite in2="hardAlpha" operator="out"/>
<feColorMatrix type="matrix" values="0 0 0 0 0.823529 0 0 0 0 0.721569 0 0 0 0 1 0 0 0 0.4 0"/>
<feBlend mode="normal" in2="BackgroundImageFix" result="effect1_dropShadow_829_18028"/>
<feBlend mode="normal" in="SourceGraphic" in2="effect1_dropShadow_829_18028" result="shape"/>
</filter>
<clipPath id="clip0_829_18028">
<rect width="13.0144" height="13.3971" fill="white" transform="translate(21.0791 37.6294)"/>
</clipPath>
</defs>
</svg>
