<svg width="499" height="534" viewBox="0 0 499 534" fill="none" xmlns="http://www.w3.org/2000/svg">
<rect x="0.5" y="0.5" width="498" height="533" rx="28.175" fill="#1F0433" stroke="#AE72FF"/>
<rect x="180.072" y="317.5" width="138.805" height="186.825" rx="24.5" fill="#1F0433" stroke="#AE72FF"/>
<rect x="333.25" y="317.5" width="138.805" height="186.825" rx="24.5" fill="#1F0433" stroke="#AE72FF"/>
<rect x="25.8047" y="136" width="447" height="160" rx="25" fill="#2E1044"/>
<rect x="26.8945" y="317.5" width="138.805" height="186.825" rx="24.5" fill="#1F0433" stroke="#AE72FF"/>
<circle cx="71" cy="69" r="37.5" stroke="#AE72FF"/>
<rect x="125" y="55" width="110" height="28" rx="5" fill="#2E1044"/>
<rect x="43" y="334" width="106" height="104" rx="17" fill="#2E1044"/>
<rect x="196" y="334" width="106" height="104" rx="17" fill="#2E1044"/>
<rect x="350" y="334" width="106" height="104" rx="17" fill="#2E1044"/>
<path d="M434.965 53.0151L430 48.1304L432.165 46L437.131 50.8847H460.469C461.314 50.8847 462 51.5592 462 52.3911C462 52.5377 461.978 52.6836 461.936 52.824L458.261 64.8752C458.066 65.5124 457.47 65.9488 456.794 65.9488H438.028V68.9616H454.871V71.9744H436.496C435.651 71.9744 434.965 71.2998 434.965 70.468V53.0151ZM437.262 78C435.993 78 434.965 76.9883 434.965 75.7404C434.965 74.4923 435.993 73.4808 437.262 73.4808C438.53 73.4808 439.559 74.4923 439.559 75.7404C439.559 76.9883 438.53 78 437.262 78ZM455.636 78C454.368 78 453.34 76.9883 453.34 75.7404C453.34 74.4923 454.368 73.4808 455.636 73.4808C456.905 73.4808 457.933 74.4923 457.933 75.7404C457.933 76.9883 456.905 78 455.636 78Z" fill="#AE72FF"/>
<path d="M394.253 69.0257L401 75.7722L398.772 78L392.026 71.2535C389.6 73.1943 386.524 74.3552 383.178 74.3552C375.352 74.3552 369 68.0037 369 60.1776C369 52.3516 375.352 46 383.178 46C391.004 46 397.355 52.3516 397.355 60.1776C397.355 63.5235 396.194 66.5999 394.253 69.0257ZM391.093 67.8569C393.019 65.8717 394.205 63.1637 394.205 60.1776C394.205 54.0852 389.27 49.1506 383.178 49.1506C377.085 49.1506 372.151 54.0852 372.151 60.1776C372.151 66.2701 377.085 71.2047 383.178 71.2047C386.164 71.2047 388.872 70.0193 390.857 68.093L391.093 67.8569Z" fill="#AE72FF"/>
<g opacity="0.21">
<path fill-rule="evenodd" clip-rule="evenodd" d="M61.6506 68.896C59.9839 67.7049 57.975 67.0514 55.9023 67.0514C54.8794 67.0514 54.0577 67.8731 54.0577 68.896C54.0577 69.9188 54.8794 70.7405 55.9023 70.7405C57.975 70.7405 59.9839 70.087 61.6506 68.896ZM70.396 77.6413C69.2049 79.308 68.5514 81.3169 68.5514 83.3897C68.5514 84.4125 69.3731 85.2342 70.396 85.2342C71.4188 85.2342 72.2405 84.4125 72.2405 83.3897C72.2405 81.3169 71.587 79.308 70.396 77.6413ZM79.1413 68.896C80.808 70.087 82.8169 70.7405 84.8897 70.7405C85.9125 70.7405 86.7342 69.9188 86.7342 68.896C86.7342 67.8731 85.9125 67.0514 84.8897 67.0514C82.8169 67.0514 80.808 67.7049 79.1413 68.896ZM70.396 65.3731L66.8731 68.896L70.396 72.4188L73.9188 68.896L70.396 65.3731ZM72.8535 62.7976C74.7483 60.4271 75.7982 57.4669 75.7982 54.4023C75.7982 51.3376 73.3833 49 70.396 49C67.4087 49 64.9937 51.415 64.9937 54.4023C64.9937 57.3896 66.0436 60.4271 67.9385 62.7976L64.2996 66.4365C61.9291 64.5417 58.9688 63.4918 55.9042 63.4918C52.8396 63.4918 50.5 65.9087 50.5 68.896C50.5 71.8833 52.915 74.2982 55.9023 74.2982C58.8896 74.2982 61.9271 73.2483 64.2976 71.3535L67.9365 74.9924C66.0417 77.3629 64.9918 80.3231 64.9918 83.3877C64.9918 86.4524 67.4067 88.79 70.394 88.79C73.3813 88.79 75.7963 86.375 75.7963 83.3877C75.7963 80.4004 74.7464 77.3629 72.8515 74.9924L76.4904 71.3535C78.8609 73.2483 81.8212 74.2982 84.8858 74.2982C87.9504 74.2982 90.2881 71.8833 90.2881 68.896C90.2881 65.9087 87.8731 63.4937 84.8858 63.4937C81.8985 63.4937 78.8609 64.5436 76.4904 66.4385L72.8515 62.7996L72.8535 62.7976ZM70.396 52.5577C69.3731 52.5577 68.5514 53.3794 68.5514 54.4023C68.5514 56.475 69.2049 58.4839 70.396 60.1506C71.587 58.4839 72.2405 56.475 72.2405 54.4023C72.2405 53.3794 71.4188 52.5577 70.396 52.5577Z" fill="#AE72FF"/>
</g>
<path d="M82.9651 377.015L78 372.13L80.1654 370L85.1306 374.885H108.469C109.314 374.885 110 375.559 110 376.391C110 376.538 109.978 376.684 109.936 376.824L106.261 388.875C106.066 389.512 105.47 389.949 104.794 389.949H86.0276V392.962H102.871V395.974H84.4964C83.6507 395.974 82.9651 395.3 82.9651 394.468V377.015ZM85.262 402C83.9935 402 82.9651 400.988 82.9651 399.74C82.9651 398.492 83.9935 397.481 85.262 397.481C86.5304 397.481 87.5588 398.492 87.5588 399.74C87.5588 400.988 86.5304 402 85.262 402ZM103.636 402C102.368 402 101.34 400.988 101.34 399.74C101.34 398.492 102.368 397.481 103.636 397.481C104.905 397.481 105.933 398.492 105.933 399.74C105.933 400.988 104.905 402 103.636 402Z" fill="#482067"/>
<path d="M235.965 377.015L231 372.13L233.165 370L238.131 374.885H261.469C262.314 374.885 263 375.559 263 376.391C263 376.538 262.978 376.684 262.936 376.824L259.261 388.875C259.066 389.512 258.47 389.949 257.794 389.949H239.028V392.962H255.871V395.974H237.496C236.651 395.974 235.965 395.3 235.965 394.468V377.015ZM238.262 402C236.993 402 235.965 400.988 235.965 399.74C235.965 398.492 236.993 397.481 238.262 397.481C239.53 397.481 240.559 398.492 240.559 399.74C240.559 400.988 239.53 402 238.262 402ZM256.636 402C255.368 402 254.34 400.988 254.34 399.74C254.34 398.492 255.368 397.481 256.636 397.481C257.905 397.481 258.933 398.492 258.933 399.74C258.933 400.988 257.905 402 256.636 402Z" fill="#482067"/>
<path d="M389.965 377.015L385 372.13L387.165 370L392.131 374.885H415.469C416.314 374.885 417 375.559 417 376.391C417 376.538 416.978 376.684 416.936 376.824L413.261 388.875C413.066 389.512 412.47 389.949 411.794 389.949H393.028V392.962H409.871V395.974H391.496C390.651 395.974 389.965 395.3 389.965 394.468V377.015ZM392.262 402C390.993 402 389.965 400.988 389.965 399.74C389.965 398.492 390.993 397.481 392.262 397.481C393.53 397.481 394.559 398.492 394.559 399.74C394.559 400.988 393.53 402 392.262 402ZM410.636 402C409.368 402 408.34 400.988 408.34 399.74C408.34 398.492 409.368 397.481 410.636 397.481C411.905 397.481 412.933 398.492 412.933 399.74C412.933 400.988 411.905 402 410.636 402Z" fill="#482067"/>
<rect opacity="0.31" x="43" y="452" width="106" height="23" rx="11.5" fill="#AE72FF"/>
<rect opacity="0.31" x="196" y="452" width="106" height="23" rx="11.5" fill="#AE72FF"/>
<rect opacity="0.31" x="350" y="452" width="106" height="23" rx="11.5" fill="#AE72FF"/>
<circle cx="68.9777" cy="69.0002" r="41.4777" fill="#1F0433" stroke="#3C1C54"/>
<path d="M57.9307 82.4566C57.9307 76.3715 62.8424 71.4386 68.9012 71.4386C74.9602 71.4386 79.8718 76.3715 79.8718 82.4566H77.1292C77.1292 77.8928 73.4454 74.1931 68.9012 74.1931C64.3571 74.1931 60.6733 77.8928 60.6733 82.4566H57.9307ZM68.9012 70.0613C64.3553 70.0613 60.6733 66.3634 60.6733 61.7977C60.6733 57.2321 64.3553 53.5342 68.9012 53.5342C73.4472 53.5342 77.1292 57.2321 77.1292 61.7977C77.1292 66.3634 73.4472 70.0613 68.9012 70.0613ZM68.9012 67.3068C71.9319 67.3068 74.3865 64.8415 74.3865 61.7977C74.3865 58.754 71.9319 56.2887 68.9012 56.2887C65.8706 56.2887 63.416 58.754 63.416 61.7977C63.416 64.8415 65.8706 67.3068 68.9012 67.3068Z" fill="#3C1C54"/>
<circle cx="122.002" cy="69.0002" r="41.4777" fill="#1F0433" stroke="#3C1C54"/>
<path d="M134.655 79.3836H137.467V82.2558H106.536V79.3836H109.348V54.9703C109.348 54.1771 109.978 53.5342 110.754 53.5342H133.249C134.026 53.5342 134.655 54.1771 134.655 54.9703V79.3836ZM131.843 79.3836V56.4063H112.16V79.3836H131.843ZM116.378 66.4589H120.596V69.3311H116.378V66.4589ZM116.378 60.7146H120.596V63.5867H116.378V60.7146ZM116.378 72.2032H120.596V75.0754H116.378V72.2032ZM123.408 72.2032H127.625V75.0754H123.408V72.2032ZM123.408 66.4589H127.625V69.3311H123.408V66.4589ZM123.408 60.7146H127.625V63.5867H123.408V60.7146Z" fill="#3C1C54"/>
<circle cx="173.922" cy="69.0002" r="41.4777" fill="#1F0433" stroke="#3C1C54"/>
<path d="M188.383 79.0645H191.597V82.2558H156.247V79.0645H159.461V55.1298C159.461 54.2486 160.18 53.5342 161.067 53.5342H177.136C178.023 53.5342 178.742 54.2486 178.742 55.1298V79.0645H185.17V66.2993H181.956V63.108H186.776C187.664 63.108 188.383 63.8224 188.383 64.7037V79.0645ZM162.674 56.7255V79.0645H175.529V56.7255H162.674ZM165.888 66.2993H172.315V69.4906H165.888V66.2993ZM165.888 59.9168H172.315V63.108H165.888V59.9168Z" fill="#3C1C54"/>
<g filter="url(#filter0_d_726_2284)">
<circle cx="231.365" cy="69.0002" r="41.4777" fill="#1F0433" stroke="#B6F0B1"/>
<path d="M217.342 65.1191H221.666C222.186 65.1191 222.607 65.5406 222.607 66.0605V66.5605H223.107C225.348 66.5605 227.408 67.3286 229.04 68.6152L229.176 68.7217H229.35L232.478 68.7227C234.25 68.7227 235.842 69.4922 236.938 70.7168L237.087 70.8828H237.311L241.847 70.8848C244.41 70.8848 246.637 72.3229 247.767 74.4375C244.438 78.6732 239.155 81.417 233.198 81.417C229.248 81.417 225.932 80.563 223.262 79.0889L222.749 78.8057L222.55 79.3574C222.42 79.7177 222.073 79.9756 221.666 79.9756H217.342C216.822 79.9755 216.4 79.554 216.4 79.0342V66.0605L216.405 65.9648C216.453 65.4899 216.854 65.1192 217.342 65.1191ZM222.609 68.9434L222.607 76.1816V76.4346L222.812 76.584L222.877 76.6318L222.886 76.6387C225.572 78.5263 229.05 79.5342 233.198 79.5342C237.657 79.5342 241.811 77.8183 244.841 74.8818L244.847 74.876L245.038 74.6836L245.422 74.2979L245.006 73.9482L244.834 73.8037L244.82 73.792L244.532 73.584C243.844 73.1228 243.036 72.8376 242.177 72.7793L242.168 72.7783H242.159L241.864 72.7686L241.855 72.7676H241.848L238.804 72.7666H238.177L238.315 73.377C238.413 73.8049 238.464 74.2515 238.464 74.71V75.6514H226.491V73.7666H236.543L236.236 73.0664L236.187 72.9531L236.184 72.9453L236.18 72.9375L236.055 72.6982C235.393 71.524 234.17 70.7067 232.747 70.6143H232.738L232.73 70.6133L232.493 70.6064L232.485 70.6055H228.458C227.073 69.2686 225.187 68.4438 223.109 68.4434H222.609V68.9434ZM218.283 78.0928H220.725V67.002H218.283V78.0928ZM235.503 57.1533C236.715 55.9413 238.681 55.9413 239.893 57.1533C241.104 58.3654 241.105 60.331 239.893 61.543L234.64 66.7949L229.387 61.543C228.175 60.331 228.175 58.3654 229.387 57.1533C230.561 55.9792 232.442 55.9425 233.66 57.043L233.776 57.1533L234.285 57.6631L234.639 58.0166L234.993 57.6631L235.503 57.1533ZM238.561 58.4844C238.136 58.0605 237.479 58.0141 237.003 58.3438L236.984 58.3564L236.967 58.3711L236.867 58.4551L236.85 58.4688L236.834 58.4854L234.638 60.6797L232.443 58.4834L232.428 58.4668L232.41 58.4521L232.312 58.3711L232.295 58.3564L232.276 58.3438C231.8 58.0141 231.143 58.0605 230.719 58.4844C230.295 58.9082 230.248 59.5659 230.576 60.041L230.589 60.0596L230.604 60.0771L230.687 60.1758L230.701 60.1934L230.717 60.209L234.284 63.7773L234.638 64.1309L234.991 63.7773L238.561 60.2109C238.984 59.7868 239.031 59.1294 238.701 58.6533L238.688 58.6348L238.675 58.6172L238.591 58.5176L238.576 58.501L238.561 58.4844Z" fill="#B6F0B1" stroke="#B6F0B1"/>
</g>
<defs>
<filter id="filter0_d_726_2284" x="167.188" y="3.82246" width="128.355" height="128.355" filterUnits="userSpaceOnUse" color-interpolation-filters="sRGB">
<feFlood flood-opacity="0" result="BackgroundImageFix"/>
<feColorMatrix in="SourceAlpha" type="matrix" values="0 0 0 0 0 0 0 0 0 0 0 0 0 0 0 0 0 0 127 0" result="hardAlpha"/>
<feOffset dy="-1"/>
<feGaussianBlur stdDeviation="11.1"/>
<feComposite in2="hardAlpha" operator="out"/>
<feColorMatrix type="matrix" values="0 0 0 0 0.713726 0 0 0 0 0.941176 0 0 0 0 0.694118 0 0 0 0.3 0"/>
<feBlend mode="normal" in2="BackgroundImageFix" result="effect1_dropShadow_726_2284"/>
<feBlend mode="normal" in="SourceGraphic" in2="effect1_dropShadow_726_2284" result="shape"/>
</filter>
</defs>
</svg>
