<svg width="100" height="100" viewBox="0 0 100 100" fill="none" xmlns="http://www.w3.org/2000/svg">
<g clip-path="url(#clip0_1206_37276)">
<path d="M41.8611 91.4923C64.8708 91.4923 83.5239 72.9139 83.5239 49.9962C83.5239 27.0785 64.8708 8.5 41.8611 8.5C18.8513 8.5 0.198242 27.0785 0.198242 49.9962C0.198242 72.9139 18.8513 91.4923 41.8611 91.4923Z" fill="#FBF9FF"/>
<path d="M75.9059 86.1299C80.2371 86.1299 83.7483 82.6328 83.7483 78.3189C83.7483 74.0049 80.2371 70.5078 75.9059 70.5078C71.5746 70.5078 68.0635 74.0049 68.0635 78.3189C68.0635 82.6328 71.5746 86.1299 75.9059 86.1299Z" fill="white"/>
<path fill-rule="evenodd" clip-rule="evenodd" d="M76.3961 89.1398C82.938 89.1398 88.2414 83.8577 88.2414 77.3419C88.2414 70.8261 82.938 65.5439 76.3961 65.5439C69.854 65.5439 64.5508 70.8261 64.5508 77.3419C64.5508 83.8577 69.854 89.1398 76.3961 89.1398ZM77.2844 73.8026C77.2844 73.3139 76.8867 72.9177 76.3961 72.9177C75.9054 72.9177 75.5077 73.3139 75.5077 73.8026V76.4571H72.8425C72.3518 76.4571 71.954 76.8532 71.954 77.3419C71.954 77.8305 72.3518 78.2268 72.8425 78.2268H75.5077V80.8813C75.5077 81.37 75.9054 81.7661 76.3961 81.7661C76.8867 81.7661 77.2844 81.37 77.2844 80.8813V78.2268H79.9496C80.4403 78.2268 80.8381 77.8305 80.8381 77.3419C80.8381 76.8532 80.4403 76.4571 79.9496 76.4571H77.2844V73.8026Z" fill="#AE72FF"/>
<g filter="url(#filter0_d_1206_37276)">
<path d="M19.1377 59.2719H86.11C90.22 59.2719 93.5515 56.1683 93.5515 52.3396V31.5427C93.5515 27.7139 90.22 24.6104 86.11 24.6104H19.1377C15.0279 24.6104 11.6963 27.7139 11.6963 31.5427V52.3396C11.6963 56.1683 15.0279 59.2719 19.1377 59.2719Z" fill="white"/>
<path d="M18.6479 59.2275V70.524L29.989 59.2275H18.6479Z" fill="white"/>
</g>
<path d="M82.5319 40.708H23.3391C22.6672 40.708 22.1226 41.2505 22.1226 41.9197C22.1226 42.5889 22.6672 43.1314 23.3391 43.1314H82.5319C83.2038 43.1314 83.7485 42.5889 83.7485 41.9197C83.7485 41.2505 83.2038 40.708 82.5319 40.708Z" fill="#F1EAFF"/>
<path d="M82.5319 33.0918H23.3391C22.6672 33.0918 22.1226 33.6343 22.1226 34.3035C22.1226 34.9727 22.6672 35.5152 23.3391 35.5152H82.5319C83.2038 35.5152 83.7485 34.9727 83.7485 34.3035C83.7485 33.6343 83.2038 33.0918 82.5319 33.0918Z" fill="#F1EAFF"/>
<path d="M50.0865 48.3232H23.3391C22.6672 48.3232 22.1226 48.8658 22.1226 49.5349C22.1226 50.2041 22.6672 50.7465 23.3391 50.7465H50.0865C50.7584 50.7465 51.3031 50.2041 51.3031 49.5349C51.3031 48.8658 50.7584 48.3232 50.0865 48.3232Z" fill="#F1EAFF"/>
<path d="M73.1343 48.3232H60.2234C59.5515 48.3232 59.0068 48.8658 59.0068 49.5349C59.0068 50.2041 59.5515 50.7465 60.2234 50.7465H73.1343C73.8061 50.7465 74.3508 50.2041 74.3508 49.5349C74.3508 48.8658 73.8061 48.3232 73.1343 48.3232Z" fill="#F1EAFF"/>
</g>
<defs>
<filter id="filter0_d_1206_37276" x="6.14385" y="19.999" width="92.9599" height="57.0189" filterUnits="userSpaceOnUse" color-interpolation-filters="sRGB">
<feFlood flood-opacity="0" result="BackgroundImageFix"/>
<feColorMatrix in="SourceAlpha" type="matrix" values="0 0 0 0 0 0 0 0 0 0 0 0 0 0 0 0 0 0 127 0" result="hardAlpha"/>
<feOffset dy="0.94109"/>
<feGaussianBlur stdDeviation="2.77622"/>
<feComposite in2="hardAlpha" operator="out"/>
<feColorMatrix type="matrix" values="0 0 0 0 0.823529 0 0 0 0 0.721569 0 0 0 0 1 0 0 0 0.3 0"/>
<feBlend mode="normal" in2="BackgroundImageFix" result="effect1_dropShadow_1206_37276"/>
<feBlend mode="normal" in="SourceGraphic" in2="effect1_dropShadow_1206_37276" result="shape"/>
</filter>
<clipPath id="clip0_1206_37276">
<rect width="100" height="83" fill="white" transform="translate(0 8.5)"/>
</clipPath>
</defs>
</svg>
