<svg width="120" height="120" viewBox="0 0 120 120" fill="none" xmlns="http://www.w3.org/2000/svg">
<mask id="mask0_11297_2204" style="mask-type:luminance" maskUnits="userSpaceOnUse" x="0" y="10" width="120" height="100">
<path d="M120 10.2H0V109.8H120V10.2Z" fill="white"/>
</mask>
<g mask="url(#mask0_11297_2204)">
<path d="M50.2332 109.791C77.8449 109.791 100.229 87.4967 100.229 59.9954C100.229 32.4942 77.8449 10.2 50.2332 10.2C22.6215 10.2 0.237793 32.4942 0.237793 59.9954C0.237793 87.4967 22.6215 109.791 50.2332 109.791Z" fill="#FBF9FF"/>
<path d="M91.0869 103.356C96.2843 103.356 100.498 99.1593 100.498 93.9827C100.498 88.8059 96.2843 84.6093 91.0869 84.6093C85.8893 84.6093 81.676 88.8059 81.676 93.9827C81.676 99.1593 85.8893 103.356 91.0869 103.356Z" fill="white"/>
<path fill-rule="evenodd" clip-rule="evenodd" d="M91.6753 106.968C99.5256 106.968 105.89 100.629 105.89 92.8103C105.89 84.9913 99.5256 78.6527 91.6753 78.6527C83.8248 78.6527 77.4609 84.9913 77.4609 92.8103C77.4609 100.629 83.8248 106.968 91.6753 106.968ZM92.7413 88.5631C92.7413 87.9767 92.264 87.5012 91.6753 87.5012C91.0865 87.5012 90.6092 87.9767 90.6092 88.5631V91.7485H87.411C86.8221 91.7485 86.3448 92.2238 86.3448 92.8103C86.3448 93.3966 86.8221 93.8722 87.411 93.8722H90.6092V97.0576C90.6092 97.644 91.0865 98.1193 91.6753 98.1193C92.264 98.1193 92.7413 97.644 92.7413 97.0576V93.8722H95.9395C96.5283 93.8722 97.0057 93.3966 97.0057 92.8103C97.0057 92.2238 96.5283 91.7485 95.9395 91.7485H92.7413V88.5631Z" fill="#AE72FF"/>
<g filter="url(#filter0_d_11297_2204)">
<path d="M22.9651 71.1263H103.332C108.264 71.1263 112.262 67.402 112.262 62.8075V37.8512C112.262 33.2567 108.264 29.5325 103.332 29.5325H22.9651C18.0333 29.5325 14.0354 33.2567 14.0354 37.8512V62.8075C14.0354 67.402 18.0333 71.1263 22.9651 71.1263Z" fill="white"/>
<path d="M22.3774 71.073V84.6288L35.9868 71.073H22.3774Z" fill="white"/>
</g>
<path d="M99.0383 48.8496H28.0069C27.2006 48.8496 26.5471 49.5006 26.5471 50.3036C26.5471 51.1067 27.2006 51.7577 28.0069 51.7577H99.0383C99.8446 51.7577 100.498 51.1067 100.498 50.3036C100.498 49.5006 99.8446 48.8496 99.0383 48.8496Z" fill="#F1EAFF"/>
<path d="M99.0383 39.7102H28.0069C27.2006 39.7102 26.5471 40.3612 26.5471 41.1642C26.5471 41.9672 27.2006 42.6182 28.0069 42.6182H99.0383C99.8446 42.6182 100.498 41.9672 100.498 41.1642C100.498 40.3612 99.8446 39.7102 99.0383 39.7102Z" fill="#F1EAFF"/>
<path d="M60.1038 57.9878H28.0069C27.2006 57.9878 26.5471 58.639 26.5471 59.4419C26.5471 60.2449 27.2006 60.8958 28.0069 60.8958H60.1038C60.9101 60.8958 61.5637 60.2449 61.5637 59.4419C61.5637 58.639 60.9101 57.9878 60.1038 57.9878Z" fill="#F1EAFF"/>
<path d="M87.7611 57.9878H72.268C71.4617 57.9878 70.8081 58.639 70.8081 59.4419C70.8081 60.2449 71.4617 60.8958 72.268 60.8958H87.7611C88.5673 60.8958 89.2209 60.2449 89.2209 59.4419C89.2209 58.639 88.5673 57.9878 87.7611 57.9878Z" fill="#F1EAFF"/>
</g>
<defs>
<filter id="filter0_d_11297_2204" x="8.48296" y="24.9211" width="109.331" height="66.2012" filterUnits="userSpaceOnUse" color-interpolation-filters="sRGB">
<feFlood flood-opacity="0" result="BackgroundImageFix"/>
<feColorMatrix in="SourceAlpha" type="matrix" values="0 0 0 0 0 0 0 0 0 0 0 0 0 0 0 0 0 0 127 0" result="hardAlpha"/>
<feOffset dy="0.94109"/>
<feGaussianBlur stdDeviation="2.77622"/>
<feComposite in2="hardAlpha" operator="out"/>
<feColorMatrix type="matrix" values="0 0 0 0 0.823529 0 0 0 0 0.721569 0 0 0 0 1 0 0 0 0.3 0"/>
<feBlend mode="normal" in2="BackgroundImageFix" result="effect1_dropShadow_11297_2204"/>
<feBlend mode="normal" in="SourceGraphic" in2="effect1_dropShadow_11297_2204" result="shape"/>
</filter>
</defs>
</svg>
