<svg width="100" height="100" viewBox="0 0 100 100" fill="none" xmlns="http://www.w3.org/2000/svg">
<mask id="mask0_3352_35244" style="mask-type:luminance" maskUnits="userSpaceOnUse" x="0" y="18" width="100" height="64">
<path d="M100 18.5H0V81.5H100V18.5Z" fill="white"/>
</mask>
<g mask="url(#mask0_3352_35244)">
<path d="M51.605 81.5006C68.4257 81.5006 82.0616 67.8784 82.0616 51.0745C82.0616 34.2706 68.4257 20.6484 51.605 20.6484C34.7843 20.6484 21.1484 34.2706 21.1484 51.0745C21.1484 67.8784 34.7843 81.5006 51.605 81.5006Z" fill="#FBF9FF"/>
<path d="M39.9283 38.8212C47.2237 34.4356 64.2389 25.7519 72.7835 27.5061C76.1791 28.2031 76.5283 30.5478 78.1322 33.2232C79.3586 35.268 81.2192 37.8221 82.1529 39.9567C84.0728 44.3424 77.1285 51.0541 74.1489 53.6261C67.0691 59.7355 57.9298 64.8322 49.2378 68.2466C43.9886 70.3091 36.4802 72.6478 30.8322 72.3028C29.9233 72.2474 27.6139 72.0223 27.0493 71.309C25.2692 67.5867 22.5736 63.9095 20.9046 60.1811C19.1474 56.2564 23.889 51.3591 26.512 48.8462C30.4058 45.1182 35.302 41.6026 39.9283 38.8212ZM40.1997 39.8454C34.8839 43.0522 28.5984 47.6247 24.5865 52.3572C22.9438 54.2953 19.4646 58.8678 23.0584 60.5833C27.2504 62.5848 37.9997 58.7603 42.1688 57.0354C51.412 53.2113 61.988 47.0705 69.2778 40.2088C71.6542 37.9716 79.575 29.8312 72.5044 28.4728C69.6156 27.918 65.2216 28.908 62.3952 29.7066C54.7575 31.8648 46.9943 35.7463 40.1997 39.8454ZM75.0738 35.1225L72.285 38.8074L77.7392 48.4689C78.0603 48.56 80.5606 45.1362 80.4605 44.6691L75.0738 35.1225ZM30.6533 61.6491L26.136 62.2131L30.5883 71.2111C30.7974 71.3678 33.2604 71.266 33.7004 71.2283C34.0619 71.1974 34.9038 71.1606 35.181 71.0255C35.4248 70.906 35.3254 70.9405 35.2591 70.7617C35.0874 70.2991 34.6807 69.772 34.451 69.2969C34.3553 69.0992 34.3481 68.8663 34.25 68.6714C33.07 66.3225 31.7996 64.0126 30.6533 61.6491ZM71.3087 54.6488L75.3147 51.0313C74.2318 49.3369 73.3283 47.5357 72.3098 45.8043C71.5985 44.5957 70.6616 42.7658 69.9013 41.7026C69.7973 41.558 69.7237 41.3832 69.5021 41.4285C69.0024 41.5286 66.4846 44.2419 65.7007 44.5646L65.6145 44.8233L71.3113 54.6487L71.3087 54.6488ZM44.475 68.8368L39.6264 59.2791L39.3593 59.215L34.5004 60.8472L39.0176 70.3584L44.4756 68.8378L44.475 68.8368ZM58.6704 49.5795L64.1948 59.5927L68.5155 56.775C66.6119 53.4638 64.6537 50.2002 62.7087 46.9091L58.6711 49.5805L58.6704 49.5795ZM47.6325 55.657L42.9399 57.8006L48.0561 67.5917L52.808 65.5702L47.6325 55.657ZM55.5788 51.4284L50.8483 54.033L55.972 64.1188C57.6456 63.3427 59.2734 62.4814 60.879 61.5651L55.5788 51.4284Z" fill="#E2D2FF"/>
<path d="M40.2024 39.8445C46.9969 35.7454 54.7591 31.8644 62.3978 29.7056C65.2233 28.9077 69.6183 27.9171 72.507 28.4719C79.5776 29.8303 71.6579 37.9702 69.2805 40.2078C61.9907 47.0695 51.4146 53.2104 42.1715 57.0346C38.0023 58.7594 27.253 62.5839 23.061 60.5824C19.4682 58.8662 22.9464 54.2944 24.5891 52.3563C28.6011 47.6238 34.8872 43.0523 40.2024 39.8445ZM69.9409 33.0705C69.9916 32.8865 69.912 32.6032 69.7395 32.4882C69.5404 32.3838 69.3608 32.3831 69.1672 32.5059C68.94 32.6484 67.7732 34.3501 67.4186 34.7526C61.6214 41.3577 51.876 47.2727 43.9343 50.9456C40.0339 52.7499 34.2835 54.9417 30.0098 55.2195C29.2139 55.2715 26.9548 54.8128 27.4293 55.9781C27.761 56.4671 30.2556 56.2268 30.8748 56.1551C41.7827 54.8892 59.0407 44.7921 66.7176 37.008C67.4224 36.2929 68.1899 35.4693 68.8067 34.6801C68.9875 34.4487 69.8981 33.2178 69.9392 33.07L69.9409 33.0705Z" fill="white"/>
<path d="M55.5783 51.4277L60.8784 61.5644C59.2739 62.4802 57.646 63.3415 55.9715 64.1182L50.8477 54.0324L55.5783 51.4277Z" fill="white"/>
<path d="M71.3102 54.6472L65.6133 44.8219L65.6995 44.5631C66.4835 44.2405 69.0022 41.5266 69.501 41.427C69.7231 41.3827 69.7971 41.5559 69.9002 41.7011C70.6604 42.7643 71.5979 44.5953 72.3086 45.8029C73.3281 47.5336 74.2316 49.3348 75.3136 51.0298L71.3075 54.6473L71.3102 54.6472Z" fill="white"/>
<path d="M44.4751 68.8366L39.0172 70.3572L34.5 60.846L39.3594 59.2148L39.6266 59.279L44.4751 68.8366Z" fill="white"/>
<path d="M47.6339 55.6562L52.8094 65.5695L48.0576 67.591L42.9414 57.7999L47.6339 55.6562Z" fill="white"/>
<path d="M58.6726 49.5775L62.7102 46.9062C64.6553 50.1974 66.6129 53.4625 68.517 56.772L64.1963 59.5899L58.6719 49.5765L58.6726 49.5775Z" fill="white"/>
<path d="M75.0739 35.1211L80.4607 44.6678C80.5614 45.1359 78.0621 48.559 77.7395 48.4675L72.2852 38.806L75.0739 35.1211Z" fill="white"/>
<path d="M30.6539 61.6484C31.8003 64.0118 33.0706 66.3218 34.2506 68.6707C34.3488 68.8656 34.3566 69.0996 34.4516 69.2962C34.6814 69.7713 35.0876 70.3 35.2598 70.761C35.3261 70.9399 35.4256 70.9053 35.1816 71.0247C34.9045 71.1598 34.0627 71.1967 33.7011 71.2276C33.2612 71.2652 30.7986 71.3681 30.589 71.2103L26.1367 62.2125L30.6539 61.6484Z" fill="white"/>
<path d="M69.9381 33.0697C69.897 33.2175 68.9864 34.4483 68.8056 34.6798C68.1887 35.4689 67.4213 36.2926 66.7165 37.0076C59.0395 44.7917 41.7816 54.8889 30.8737 56.1547C30.2555 56.2259 27.7599 56.4667 27.4282 55.9777C26.9531 54.8113 29.2138 55.2705 30.0086 55.2191C34.2823 54.9414 40.0328 52.7495 43.9331 50.9452C51.8749 47.2723 61.6203 41.3573 67.4175 34.7522C67.7715 34.3488 68.9389 32.648 69.1661 32.5055C69.3603 32.3838 69.5399 32.3845 69.7384 32.4878C69.9104 32.6018 69.9904 32.8861 69.9397 33.0701L69.9381 33.0697Z" fill="#E2D2FF"/>
<path d="M83.7634 66.9969C83.9205 67.1783 84.1536 67.2727 84.3918 67.2513C84.6372 67.2313 84.8481 67.0912 84.9658 66.8885C86.4368 64.4168 88.692 62.4062 91.351 61.3095C94.306 60.0896 96.8817 57.8878 98.5132 55.1419C98.6781 54.8683 98.6465 54.5187 98.4366 54.2755L92.5438 47.5386C92.3862 47.3572 92.1537 47.2628 91.915 47.2842C91.6772 47.3056 91.4636 47.4379 91.3411 47.6469C89.8701 50.1186 87.5981 52.0857 84.936 53.1782C81.9807 54.4016 79.4532 56.5838 77.8201 59.3332C77.6546 59.6103 77.6872 59.9564 77.8975 60.1996L83.7634 66.9969ZM91.0357 53.7638C91.3456 53.494 91.8168 53.5305 92.0871 53.8405C92.3573 54.1505 92.3204 54.6215 92.0105 54.8913C91.6997 55.1611 91.2285 55.1246 90.9582 54.8146C90.6889 54.5046 90.7249 54.0336 91.0357 53.7638ZM86.6814 55.56C87.6152 54.7548 89.0274 54.8565 89.8335 55.7894C90.6402 56.7186 90.5375 58.133 89.6038 58.9382C88.6743 59.7406 87.2641 59.6465 86.4517 58.7088C85.6451 57.7796 85.7477 56.3651 86.6814 55.56ZM84.2755 59.6034C84.5859 59.3336 85.0573 59.3701 85.3274 59.6801C85.5974 59.9901 85.5609 60.4611 85.2506 60.7309C84.9403 61.0007 84.4689 60.9642 84.1988 60.6542C83.9287 60.3442 83.9653 59.8732 84.2755 59.6034Z" fill="#EEE5FF"/>
<path d="M5.62844 56.2106C5.74634 56.0746 5.9213 56.0037 6.10007 56.0198C6.28412 56.0348 6.44247 56.1399 6.53076 56.292C7.63455 58.1466 9.32676 59.6554 11.3223 60.4784C13.5393 61.3937 15.4717 63.0458 16.6966 65.1062C16.8203 65.3115 16.7964 65.5739 16.6385 65.7564L12.2169 70.8115C12.099 70.9476 11.9241 71.0185 11.7453 71.0024C11.5665 70.9864 11.4066 70.887 11.3146 70.7303C10.2108 68.8755 8.50593 67.3995 6.50836 66.5797C4.29077 65.6617 2.39425 64.0243 1.16886 61.9612C1.04464 61.7533 1.06903 61.4936 1.22695 61.3111L5.62844 56.2106ZM11.0852 66.1403C11.318 66.3428 11.6717 66.3154 11.8744 66.0827C12.0771 65.8502 12.0497 65.4968 11.8168 65.2943C11.5839 65.0918 11.2302 65.1193 11.0275 65.3519C10.8249 65.5845 10.8523 65.9379 11.0852 66.1403ZM7.81808 64.7925C8.51871 65.3968 9.57847 65.3204 10.1833 64.6204C10.7886 63.9231 10.7116 62.8618 10.0109 62.2576C9.31352 61.6556 8.25531 61.7261 7.64577 62.4297C7.04044 63.1271 7.11745 64.1883 7.81808 64.7925ZM6.01279 61.7585C6.24563 61.9609 6.59941 61.9336 6.80206 61.7009C7.00471 61.4684 6.97729 61.1149 6.74445 60.9124C6.5116 60.71 6.15783 60.7374 5.95518 60.97C5.75252 61.2026 5.77995 61.556 6.01279 61.7585Z" fill="#EEE5FF"/>
</g>
</svg>
