<svg width="120" height="120" viewBox="0 0 120 120" fill="none" xmlns="http://www.w3.org/2000/svg">
<mask id="mask0_11297_2142" style="mask-type:luminance" maskUnits="userSpaceOnUse" x="0" y="22" width="120" height="76">
<path d="M120 22.2H0V97.8H120V22.2Z" fill="white"/>
</mask>
<g mask="url(#mask0_11297_2142)">
<path d="M61.9261 97.8007C82.1109 97.8007 98.474 81.4541 98.474 61.2894C98.474 41.1247 82.1109 24.7781 61.9261 24.7781C41.7413 24.7781 25.3782 41.1247 25.3782 61.2894C25.3782 81.4541 41.7413 97.8007 61.9261 97.8007Z" fill="#FBF9FF"/>
<path d="M47.914 46.5854C56.6685 41.3227 77.0867 30.9023 87.3402 33.0073C91.415 33.8437 91.834 36.6574 93.7587 39.8678C95.2304 42.3216 97.4631 45.3865 98.5835 47.948C100.887 53.2109 92.5542 61.2649 88.9787 64.3513C80.483 71.6826 69.5158 77.7986 59.0854 81.8959C52.7864 84.3709 43.7763 87.1774 36.9987 86.7634C35.908 86.6969 33.1367 86.4268 32.4592 85.5708C30.3231 81.104 27.0884 76.6914 25.0856 72.2173C22.9769 67.5077 28.6668 61.6309 31.8144 58.6154C36.487 54.1418 42.3624 49.9231 47.914 46.5854ZM48.2397 47.8145C41.8607 51.6626 34.3181 57.1496 29.5038 62.8286C27.5326 65.1544 23.3576 70.6414 27.6701 72.7C32.7005 75.1018 45.5997 70.5124 50.6026 68.4425C61.6944 63.8536 74.3856 56.4846 83.1334 48.2506C85.9851 45.5659 95.49 35.7974 87.0053 34.1674C83.5388 33.5016 78.266 34.6896 74.8743 35.6479C65.709 38.2378 56.3932 42.8956 48.2397 47.8145ZM90.0886 42.147L86.742 46.5689L93.2871 58.1627C93.6724 58.272 96.6728 54.1634 96.5526 53.6029L90.0886 42.147ZM36.784 73.9789L31.3632 74.6557L36.706 85.4533C36.9569 85.6414 39.9125 85.5192 40.4405 85.474C40.8743 85.4369 41.8846 85.3927 42.2172 85.2306C42.5098 85.0872 42.3905 85.1286 42.311 84.914C42.1049 84.3589 41.6169 83.7264 41.3412 83.1563C41.2264 82.919 41.2178 82.6396 41.1 82.4057C39.684 79.587 38.1596 76.8151 36.784 73.9789ZM85.5705 65.5786L90.3777 61.2376C89.0782 59.2043 87.994 57.0428 86.7718 54.9652C85.9182 53.5148 84.794 51.319 83.8816 50.0431C83.7568 49.8696 83.6685 49.6598 83.4026 49.7142C82.8029 49.8343 79.7816 53.0903 78.8409 53.4775L78.7374 53.788L85.5736 65.5784L85.5705 65.5786ZM53.37 82.6042L47.5517 71.1349L47.2312 71.058L41.4005 73.0166L46.8212 84.4301L53.3708 82.6054L53.37 82.6042ZM70.4045 59.4954L77.0338 71.5112L82.2186 68.13C79.9343 64.1566 77.5845 60.2402 75.2505 56.2909L70.4054 59.4966L70.4045 59.4954ZM57.159 66.7884L51.5279 69.3607L57.6674 81.11L63.3696 78.6842L57.159 66.7884ZM66.6946 61.7141L61.018 64.8396L67.1664 76.9426C69.1748 76.0112 71.1281 74.9777 73.0548 73.8781L66.6946 61.7141Z" fill="#E2D2FF"/>
<path d="M48.243 47.8134C56.3964 42.8945 65.7111 38.2373 74.8775 35.6467C78.2681 34.6892 83.5421 33.5005 87.0085 34.1663C95.4933 35.7964 85.9896 45.5642 83.1367 48.2494C74.389 56.4834 61.6977 63.8525 50.6059 68.4415C45.6029 70.5113 32.7037 75.1007 27.6733 72.6989C23.362 70.6394 27.5358 65.1533 29.5071 62.8276C34.3215 57.1486 41.8648 51.6628 48.243 47.8134ZM83.9292 39.6846C83.9901 39.4638 83.8945 39.1238 83.6875 38.9858C83.4486 38.8606 83.2331 38.8597 83.0008 39.0071C82.7281 39.1781 81.328 41.2201 80.9025 41.7031C73.9458 49.6292 62.2513 56.7272 52.7213 61.1347C48.0408 63.2999 41.1403 65.93 36.0119 66.2634C35.0568 66.3258 32.3459 65.7754 32.9153 67.1737C33.3133 67.7605 36.3069 67.4722 37.0499 67.3861C50.1394 65.867 70.849 53.7505 80.0613 44.4096C80.907 43.5515 81.828 42.5632 82.5682 41.6161C82.7851 41.3384 83.8779 39.8614 83.9272 39.684L83.9292 39.6846Z" fill="white"/>
<path d="M66.6941 61.7132L73.0542 73.8773C71.1288 74.9762 69.1753 76.0098 67.1659 76.9418L61.0173 64.8389L66.6941 61.7132Z" fill="white"/>
<path d="M85.5724 65.5766L78.7361 53.7863L78.8395 53.4757C79.7803 53.0886 82.8028 49.8319 83.4013 49.7124C83.6678 49.6592 83.7566 49.8671 83.8804 50.0413C84.7926 51.3172 85.9176 53.5144 86.7705 54.9635C87.9938 57.0403 89.078 59.2018 90.3764 61.2358L85.5691 65.5768L85.5724 65.5766Z" fill="white"/>
<path d="M53.3703 82.6039L46.8208 84.4286L41.4001 73.0152L47.2314 71.0578L47.5521 71.1348L53.3703 82.6039Z" fill="white"/>
<path d="M57.1608 66.7874L63.3714 78.6834L57.6692 81.1092L51.5298 69.3599L57.1608 66.7874Z" fill="white"/>
<path d="M70.4071 59.493L75.2522 56.2874C77.5863 60.2369 79.9354 64.155 82.2204 68.1264L77.0355 71.5079L70.4062 59.4918L70.4071 59.493Z" fill="white"/>
<path d="M90.0886 42.1453L96.5528 53.6014C96.6736 54.1631 93.6745 58.2708 93.2873 58.161L86.7422 46.5672L90.0886 42.1453Z" fill="white"/>
<path d="M36.7847 73.9781C38.1603 76.8142 39.6847 79.5862 41.1007 82.4048C41.2185 82.6387 41.2279 82.9195 41.3419 83.1554C41.6177 83.7256 42.1051 84.36 42.3117 84.9132C42.3913 85.1279 42.5107 85.0863 42.2179 85.2296C41.8854 85.3918 40.8752 85.436 40.4413 85.4731C39.9134 85.5182 36.9583 85.6417 36.7068 85.4524L31.364 74.655L36.7847 73.9781Z" fill="white"/>
<path d="M83.9258 39.6836C83.8764 39.861 82.7837 41.338 82.5668 41.6158C81.8265 42.5627 80.9056 43.5511 80.0598 44.4091C70.8474 53.75 50.138 65.8667 37.0485 67.3856C36.3066 67.4711 33.3119 67.76 32.9139 67.1732C32.3438 65.7736 35.0566 66.3246 36.0104 66.2629C41.1388 65.9297 48.0394 63.2994 52.7198 61.1342C62.2499 56.7268 73.9444 49.6288 80.901 41.7026C81.3258 41.2186 82.7267 39.1776 82.9994 39.0066C83.2324 38.8606 83.4479 38.8614 83.6861 38.9854C83.8925 39.1222 83.9885 39.4633 83.9277 39.6841L83.9258 39.6836Z" fill="#E2D2FF"/>
<path d="M100.516 80.3963C100.705 80.614 100.984 80.7272 101.27 80.7015C101.565 80.6775 101.818 80.5094 101.959 80.2662C103.724 77.3001 106.43 74.8874 109.621 73.5714C113.167 72.1075 116.258 69.4654 118.216 66.1703C118.414 65.8419 118.376 65.4224 118.124 65.1306L111.053 57.0463C110.863 56.8286 110.584 56.7153 110.298 56.741C110.013 56.7667 109.756 56.9255 109.609 57.1763C107.844 60.1423 105.118 62.5028 101.923 63.8138C98.3768 65.2819 95.3438 67.9005 93.3841 71.1998C93.1855 71.5323 93.2246 71.9477 93.477 72.2395L100.516 80.3963ZM109.243 64.5166C109.615 64.1928 110.18 64.2366 110.504 64.6086C110.829 64.9806 110.784 65.5458 110.413 65.8696C110.04 66.1933 109.474 66.1495 109.15 65.7775C108.827 65.4055 108.87 64.8403 109.243 64.5166ZM104.018 66.672C105.138 65.7058 106.833 65.8278 107.8 66.9473C108.768 68.0623 108.645 69.7596 107.525 70.7258C106.409 71.6887 104.717 71.5758 103.742 70.4506C102.774 69.3355 102.897 67.6381 104.018 66.672ZM101.131 71.5241C101.503 71.2003 102.069 71.2441 102.393 71.6161C102.717 71.9881 102.673 72.5533 102.301 72.8771C101.928 73.2008 101.363 73.157 101.039 72.785C100.714 72.413 100.758 71.8478 101.131 71.5241Z" fill="#EEE5FF"/>
<path d="M6.75417 67.4527C6.89565 67.2895 7.1056 67.2044 7.32013 67.2238C7.54099 67.2418 7.73101 67.3679 7.83696 67.5504C9.1615 69.7759 11.1922 71.5865 13.5868 72.5741C16.2472 73.6724 18.5661 75.655 20.036 78.1274C20.1844 78.3738 20.1557 78.6887 19.9662 78.9077L14.6603 84.9738C14.5188 85.1371 14.309 85.2222 14.0944 85.2029C13.8798 85.1837 13.688 85.0644 13.5776 84.8764C12.253 82.6506 10.2072 80.8794 7.81008 79.8956C5.14897 78.794 2.87314 76.8292 1.40268 74.3534C1.25361 74.104 1.28288 73.7923 1.47238 73.5733L6.75417 67.4527ZM13.3023 79.3684C13.5816 79.6114 14.0061 79.5785 14.2493 79.2992C14.4926 79.0202 14.4597 78.5962 14.1802 78.3532C13.9007 78.1102 13.4763 78.1432 13.233 78.4223C12.9899 78.7014 13.0228 79.1255 13.3023 79.3684ZM9.38174 77.751C10.2225 78.4762 11.4942 78.3845 12.22 77.5445C12.9464 76.7077 12.854 75.4342 12.0131 74.7091C11.1763 73.9867 9.90642 74.0713 9.17497 74.9156C8.44857 75.7525 8.54098 77.026 9.38174 77.751ZM7.21539 74.1102C7.4948 74.3531 7.91934 74.3203 8.16252 74.0411C8.4057 73.7621 8.37279 73.3379 8.09338 73.0949C7.81396 72.852 7.38944 72.8849 7.14626 73.164C6.90307 73.4431 6.93598 73.8672 7.21539 74.1102Z" fill="#EEE5FF"/>
</g>
</svg>
