<svg width="120" height="120" viewBox="0 0 120 120" fill="none" xmlns="http://www.w3.org/2000/svg">
<mask id="mask0_11297_2170" style="mask-type:luminance" maskUnits="userSpaceOnUse" x="0" y="22" width="120" height="76">
<path d="M120 22.2H0V97.8H120V22.2Z" fill="white"/>
</mask>
<g mask="url(#mask0_11297_2170)">
<path d="M61.9273 97.7999C82.1122 97.7999 98.4752 81.4532 98.4752 61.2886C98.4752 41.1239 82.1122 24.7772 61.9273 24.7772C41.7425 24.7772 25.3794 41.1239 25.3794 61.2886C25.3794 81.4532 41.7425 97.7999 61.9273 97.7999Z" fill="#FBF9FF"/>
<path d="M47.914 46.5844C56.6685 41.3216 77.0867 30.9013 87.3402 33.0064C91.415 33.8426 91.834 36.6563 93.7587 39.8668C95.2304 42.3205 97.4631 45.3854 98.5835 47.947C100.887 53.2098 92.5542 61.2638 88.9787 64.3502C80.483 71.6815 69.5158 77.7976 59.0854 81.8948C52.7864 84.3698 43.7763 87.1763 36.9987 86.7623C35.908 86.6958 33.1367 86.4257 32.4592 85.5697C30.3231 81.103 27.0884 76.6903 25.0856 72.2162C22.9769 67.5066 28.6668 61.6298 31.8144 58.6144C36.487 54.1408 42.3624 49.922 47.914 46.5844ZM48.2397 47.8134C41.8607 51.6616 34.3181 57.1486 29.5038 62.8276C27.5326 65.1533 23.3576 70.6403 27.6701 72.6989C32.7005 75.1007 45.5997 70.5113 50.6026 68.4414C61.6944 63.8525 74.3856 56.4835 83.1334 48.2495C85.9851 45.5648 95.49 35.7964 87.0053 34.1663C83.5388 33.5005 78.266 34.6885 74.8743 35.6468C65.709 38.2367 56.3932 42.8945 48.2397 47.8134ZM90.0886 42.1459L86.742 46.5678L93.2871 58.1616C93.6724 58.2709 96.6728 54.1624 96.5526 53.6018L90.0886 42.1459ZM36.784 73.9778L31.3632 74.6546L36.706 85.4522C36.9569 85.6403 39.9125 85.5181 40.4405 85.4729C40.8743 85.4358 41.8846 85.3916 42.2172 85.2295C42.5098 85.0861 42.3905 85.1275 42.311 84.913C42.1049 84.3578 41.6169 83.7253 41.3412 83.1552C41.2264 82.918 41.2178 82.6385 41.1 82.4046C39.684 79.5859 38.1596 76.814 36.784 73.9778ZM85.5705 65.5775L90.3777 61.2365C89.0782 59.2032 87.994 57.0418 86.7718 54.9641C85.9182 53.5138 84.794 51.3179 83.8816 50.042C83.7568 49.8685 83.6685 49.6588 83.4026 49.7131C82.8029 49.8332 79.7816 53.0892 78.8409 53.4764L78.7374 53.7869L85.5736 65.5774L85.5705 65.5775ZM53.37 82.6031L47.5517 71.1338L47.2312 71.0569L41.4005 73.0156L46.8212 84.429L53.3708 82.6043L53.37 82.6031ZM70.4045 59.4943L77.0338 71.5102L82.2186 68.1289C79.9343 64.1555 77.5845 60.2392 75.2505 56.2898L70.4054 59.4955L70.4045 59.4943ZM57.159 66.7873L51.5279 69.3596L57.6674 81.109L63.3696 78.6832L57.159 66.7873ZM66.6946 61.713L61.018 64.8385L67.1664 76.9415C69.1748 76.0102 71.1281 74.9766 73.0548 73.877L66.6946 61.713Z" fill="#E2D2FF"/>
<path d="M48.2406 47.8132C56.394 42.8942 65.7086 38.237 74.8751 35.6465C78.2657 34.689 83.5396 33.5002 87.0061 34.166C95.4908 35.7961 85.9872 45.564 83.1343 48.2491C74.3865 56.4832 61.6952 63.8522 50.6035 68.4413C45.6004 70.511 32.7013 75.1004 27.6709 72.6986C23.3595 70.6392 27.5334 65.153 29.5046 62.8273C34.319 57.1483 41.8623 51.6625 48.2406 47.8132ZM83.9268 39.6844C83.9876 39.4636 83.8921 39.1236 83.6851 38.9856C83.4462 38.8603 83.2307 38.8595 82.9983 39.0068C82.7257 39.1778 81.3255 41.2199 80.9 41.7029C73.9434 49.629 62.2489 56.727 52.7189 61.1345C48.0384 63.2996 41.1379 65.9298 36.0095 66.2632C35.0544 66.3256 32.3435 65.7751 32.9129 67.1735C33.3109 67.7603 36.3044 67.4719 37.0475 67.3859C50.1369 65.8668 70.8465 53.7503 80.0588 44.4094C80.9046 43.5512 81.8256 42.5629 82.5657 41.6159C82.7827 41.3382 83.8754 39.8611 83.9247 39.6838L83.9268 39.6844Z" fill="white"/>
<path d="M66.695 61.7125L73.0552 73.8766C71.1298 74.9755 69.1763 76.0091 67.1669 76.9411L61.0183 64.8382L66.695 61.7125Z" fill="white"/>
<path d="M85.5711 65.5766L78.7349 53.7863L78.8383 53.4757C79.7791 53.0886 82.8015 49.8319 83.4001 49.7124C83.6666 49.6592 83.7554 49.8671 83.8791 50.0413C84.7914 51.3172 85.9164 53.5144 86.7692 54.9635C87.9926 57.0403 89.0768 59.2018 90.3752 61.2358L85.5679 65.5768L85.5711 65.5766Z" fill="white"/>
<path d="M53.37 82.6028L46.8205 84.4275L41.3999 73.0141L47.2312 71.0567L47.5518 71.1337L53.37 82.6028Z" fill="white"/>
<path d="M57.1583 66.787L63.3689 78.6828L57.6668 81.1087L51.5273 69.3593L57.1583 66.787Z" fill="white"/>
<path d="M70.4047 59.4936L75.2498 56.288C77.5839 60.2374 79.933 64.1556 82.2179 68.127L77.0331 71.5084L70.4038 59.4924L70.4047 59.4936Z" fill="white"/>
<path d="M90.0886 42.146L96.5528 53.6021C96.6736 54.1638 93.6745 58.2715 93.2873 58.1617L86.7422 46.5679L90.0886 42.146Z" fill="white"/>
<path d="M36.7834 73.9775C38.1591 76.8136 39.6835 79.5856 41.0995 82.4042C41.2173 82.6381 41.2267 82.9189 41.3407 83.1548C41.6164 83.725 42.1039 84.3594 42.3105 84.9126C42.3901 85.1273 42.5095 85.0858 42.2167 85.229C41.8842 85.3912 40.874 85.4354 40.4401 85.4725C39.9122 85.5176 36.9571 85.6411 36.7056 85.4518L31.3628 74.6544L36.7834 73.9775Z" fill="white"/>
<path d="M83.927 39.6839C83.8777 39.8612 82.7849 41.3382 82.568 41.616C81.8277 42.5629 80.9068 43.5514 80.0611 44.4094C70.8487 53.7503 50.1392 65.8669 37.0497 67.3859C36.3079 67.4713 33.3131 67.7603 32.9151 67.1735C32.345 65.7738 35.0578 66.3248 36.0116 66.2632C41.14 65.9299 48.0406 63.2996 52.721 61.1345C62.2511 56.727 73.9456 49.629 80.9023 41.7029C81.3271 41.2188 82.7279 39.1778 83.0006 39.0068C83.2336 38.8608 83.4491 38.8616 83.6873 38.9856C83.8937 39.1224 83.9897 39.4636 83.9289 39.6844L83.927 39.6839Z" fill="#E2D2FF"/>
<path d="M36.9706 43.2478C42.7887 43.2478 47.505 38.5361 47.505 32.7239C47.505 26.9117 42.7887 22.2 36.9706 22.2C31.1526 22.2 26.4363 26.9117 26.4363 32.7239C26.4363 38.5361 31.1526 43.2478 36.9706 43.2478Z" fill="#FFA97D"/>
<path d="M41.1911 33.0743V36.7141C41.1911 37.0013 40.9582 37.234 40.6707 37.234H33.3837C33.0963 37.234 32.8633 37.0013 32.8633 36.7141V33.0743H41.1911ZM38.3284 27.3545C39.3346 27.3545 40.1503 28.1693 40.1503 29.1744C40.1503 29.4538 40.0873 29.7184 39.9747 29.9549L41.7117 29.9544C41.9992 29.9544 42.2321 30.1872 42.2321 30.4744V32.0342C42.2321 32.3214 41.9992 32.5542 41.7117 32.5542H32.3427C32.0553 32.5542 31.8223 32.3214 31.8223 32.0342V30.4744C31.8223 30.1872 32.0553 29.9544 32.3427 29.9544L34.0798 29.9549C33.9673 29.7184 33.9043 29.4538 33.9043 29.1744C33.9043 28.1693 34.7198 27.3545 35.726 27.3545C36.2361 27.3545 36.6973 27.5639 37.0279 27.9014C37.3573 27.5639 37.8184 27.3545 38.3284 27.3545ZM35.726 28.3944C35.2947 28.3944 34.9453 28.7436 34.9453 29.1744C34.9453 29.5799 35.2549 29.913 35.6507 29.9508L35.726 29.9544H36.5067V29.1744C36.5067 28.7689 36.1971 28.4358 35.8011 28.398L35.726 28.3944ZM38.3284 28.3944L38.2532 28.398C37.8821 28.4334 37.5867 28.7285 37.5513 29.0993L37.5477 29.1744V29.9544H38.3284L38.4037 29.9508C38.7997 29.913 39.1093 29.5799 39.1093 29.1744C39.1093 28.7689 38.7997 28.4358 38.4037 28.398L38.3284 28.3944Z" fill="#FFEDE6"/>
<path d="M100.515 80.3962C100.703 80.6138 100.983 80.7271 101.269 80.7014C101.563 80.6774 101.816 80.5093 101.958 80.2661C103.723 77.3 106.429 74.8873 109.62 73.5713C113.166 72.1074 116.257 69.4652 118.215 66.1702C118.412 65.8418 118.375 65.4223 118.123 65.1305L111.051 57.0462C110.862 56.8285 110.583 56.7152 110.297 56.7409C110.011 56.7666 109.755 56.9254 109.608 57.1762C107.843 60.1422 105.116 62.5027 101.922 63.8137C98.3756 65.2818 95.3426 67.9004 93.3829 71.1997C93.1843 71.5322 93.2234 71.9476 93.4758 72.2394L100.515 80.3962ZM109.242 64.5164C109.613 64.1927 110.179 64.2365 110.503 64.6085C110.828 64.9805 110.783 65.5457 110.411 65.8694C110.038 66.1932 109.473 66.1494 109.149 65.7774C108.825 65.4054 108.869 64.8402 109.242 64.5164ZM104.016 66.6719C105.137 65.7056 106.832 65.8277 107.799 66.9472C108.767 68.0622 108.644 69.7595 107.523 70.7257C106.408 71.6886 104.716 71.5757 103.741 70.4504C102.773 69.3354 102.896 67.638 104.016 66.6719ZM101.129 71.524C101.502 71.2002 102.068 71.244 102.392 71.616C102.716 71.988 102.672 72.5532 102.299 72.877C101.927 73.2007 101.361 73.1569 101.037 72.7849C100.713 72.4129 100.757 71.8477 101.129 71.524Z" fill="#EEE5FF"/>
<path d="M6.75295 67.4531C6.89443 67.2899 7.10438 67.2048 7.31891 67.2241C7.53977 67.2421 7.72979 67.3682 7.83574 67.5508C9.16028 69.7763 11.1909 71.5868 13.5856 72.5744C16.246 73.6728 18.5648 75.6553 20.0347 78.1278C20.1832 78.3742 20.1545 78.689 19.965 78.908L14.6591 84.9742C14.5176 85.1375 14.3077 85.2226 14.0932 85.2032C13.8786 85.184 13.6867 85.0648 13.5763 84.8767C12.2518 82.651 10.2059 80.8798 7.80886 79.896C5.14775 78.7944 2.87192 76.8295 1.40146 74.3538C1.25239 74.1043 1.28166 73.7927 1.47116 73.5737L6.75295 67.4531ZM13.301 79.3687C13.5804 79.6117 14.0048 79.5788 14.2481 79.2996C14.4913 79.0206 14.4584 78.5965 14.179 78.3535C13.8995 78.1105 13.475 78.1435 13.2318 78.4226C12.9887 78.7018 13.0216 79.1258 13.301 79.3687ZM9.38052 77.7514C10.2213 78.4765 11.493 78.3848 12.2188 77.5448C12.9451 76.7081 12.8527 75.4345 12.0119 74.7095C11.175 73.9871 9.9052 74.0717 9.17375 74.916C8.44735 75.7529 8.53976 77.0263 9.38052 77.7514ZM7.21417 74.1106C7.49358 74.3534 7.91812 74.3207 8.1613 74.0414C8.40448 73.7624 8.37157 73.3382 8.09216 73.0952C7.81274 72.8524 7.38822 72.8852 7.14504 73.1644C6.90185 73.4435 6.93476 73.8676 7.21417 74.1106Z" fill="#EEE5FF"/>
</g>
</svg>
