<svg width="499" height="534" viewBox="0 0 499 534" fill="none" xmlns="http://www.w3.org/2000/svg">
<rect x="0.5" y="0.5" width="498" height="533" rx="28.175" fill="#1F0433" stroke="#AE72FF"/>
<rect x="180.072" y="317.5" width="138.805" height="186.825" rx="24.5" fill="#1F0433" stroke="#AE72FF"/>
<rect x="333.25" y="317.5" width="138.805" height="186.825" rx="24.5" fill="#1F0433" stroke="#AE72FF"/>
<rect x="25.8047" y="136" width="447" height="160" rx="25" fill="#2E1044"/>
<rect x="26.8945" y="317.5" width="138.805" height="186.825" rx="24.5" fill="#1F0433" stroke="#AE72FF"/>
<circle cx="71" cy="69" r="37.5" stroke="#AE72FF"/>
<rect x="125" y="55" width="110" height="28" rx="5" fill="#2E1044"/>
<rect x="43" y="334" width="106" height="104" rx="17" fill="#2E1044"/>
<rect x="196" y="334" width="106" height="104" rx="17" fill="#2E1044"/>
<rect x="350" y="334" width="106" height="104" rx="17" fill="#2E1044"/>
<path d="M434.965 53.0151L430 48.1304L432.165 46L437.131 50.8847H460.469C461.314 50.8847 462 51.5592 462 52.3911C462 52.5377 461.978 52.6836 461.936 52.824L458.261 64.8752C458.066 65.5124 457.47 65.9488 456.794 65.9488H438.028V68.9616H454.871V71.9744H436.496C435.651 71.9744 434.965 71.2998 434.965 70.468V53.0151ZM437.262 78C435.993 78 434.965 76.9883 434.965 75.7404C434.965 74.4923 435.993 73.4808 437.262 73.4808C438.53 73.4808 439.559 74.4923 439.559 75.7404C439.559 76.9883 438.53 78 437.262 78ZM455.636 78C454.368 78 453.34 76.9883 453.34 75.7404C453.34 74.4923 454.368 73.4808 455.636 73.4808C456.905 73.4808 457.933 74.4923 457.933 75.7404C457.933 76.9883 456.905 78 455.636 78Z" fill="#AE72FF"/>
<path d="M394.253 69.0257L401 75.7722L398.772 78L392.026 71.2535C389.6 73.1943 386.524 74.3552 383.178 74.3552C375.352 74.3552 369 68.0037 369 60.1776C369 52.3516 375.352 46 383.178 46C391.004 46 397.355 52.3516 397.355 60.1776C397.355 63.5235 396.194 66.5999 394.253 69.0257ZM391.093 67.8569C393.019 65.8717 394.205 63.1637 394.205 60.1776C394.205 54.0852 389.27 49.1506 383.178 49.1506C377.085 49.1506 372.151 54.0852 372.151 60.1776C372.151 66.2701 377.085 71.2047 383.178 71.2047C386.164 71.2047 388.872 70.0193 390.857 68.093L391.093 67.8569Z" fill="#AE72FF"/>
<g opacity="0.21">
<path fill-rule="evenodd" clip-rule="evenodd" d="M61.6506 68.896C59.9839 67.7049 57.975 67.0514 55.9023 67.0514C54.8794 67.0514 54.0577 67.8731 54.0577 68.896C54.0577 69.9188 54.8794 70.7405 55.9023 70.7405C57.975 70.7405 59.9839 70.087 61.6506 68.896ZM70.396 77.6413C69.2049 79.308 68.5514 81.3169 68.5514 83.3897C68.5514 84.4125 69.3731 85.2342 70.396 85.2342C71.4188 85.2342 72.2405 84.4125 72.2405 83.3897C72.2405 81.3169 71.587 79.308 70.396 77.6413ZM79.1413 68.896C80.808 70.087 82.8169 70.7405 84.8897 70.7405C85.9125 70.7405 86.7342 69.9188 86.7342 68.896C86.7342 67.8731 85.9125 67.0514 84.8897 67.0514C82.8169 67.0514 80.808 67.7049 79.1413 68.896ZM70.396 65.3731L66.8731 68.896L70.396 72.4188L73.9188 68.896L70.396 65.3731ZM72.8535 62.7976C74.7483 60.4271 75.7982 57.4669 75.7982 54.4023C75.7982 51.3376 73.3833 49 70.396 49C67.4087 49 64.9937 51.415 64.9937 54.4023C64.9937 57.3896 66.0436 60.4271 67.9385 62.7976L64.2996 66.4365C61.9291 64.5417 58.9688 63.4918 55.9042 63.4918C52.8396 63.4918 50.5 65.9087 50.5 68.896C50.5 71.8833 52.915 74.2982 55.9023 74.2982C58.8896 74.2982 61.9271 73.2483 64.2976 71.3535L67.9365 74.9924C66.0417 77.3629 64.9918 80.3231 64.9918 83.3877C64.9918 86.4524 67.4067 88.79 70.394 88.79C73.3813 88.79 75.7963 86.375 75.7963 83.3877C75.7963 80.4004 74.7464 77.3629 72.8515 74.9924L76.4904 71.3535C78.8609 73.2483 81.8212 74.2982 84.8858 74.2982C87.9504 74.2982 90.2881 71.8833 90.2881 68.896C90.2881 65.9087 87.8731 63.4937 84.8858 63.4937C81.8985 63.4937 78.8609 64.5436 76.4904 66.4385L72.8515 62.7996L72.8535 62.7976ZM70.396 52.5577C69.3731 52.5577 68.5514 53.3794 68.5514 54.4023C68.5514 56.475 69.2049 58.4839 70.396 60.1506C71.587 58.4839 72.2405 56.475 72.2405 54.4023C72.2405 53.3794 71.4188 52.5577 70.396 52.5577Z" fill="#AE72FF"/>
</g>
<path d="M82.9651 377.015L78 372.13L80.1654 370L85.1306 374.885H108.469C109.314 374.885 110 375.559 110 376.391C110 376.538 109.978 376.684 109.936 376.824L106.261 388.875C106.066 389.512 105.47 389.949 104.794 389.949H86.0276V392.962H102.871V395.974H84.4964C83.6507 395.974 82.9651 395.3 82.9651 394.468V377.015ZM85.262 402C83.9935 402 82.9651 400.988 82.9651 399.74C82.9651 398.492 83.9935 397.481 85.262 397.481C86.5304 397.481 87.5588 398.492 87.5588 399.74C87.5588 400.988 86.5304 402 85.262 402ZM103.636 402C102.368 402 101.34 400.988 101.34 399.74C101.34 398.492 102.368 397.481 103.636 397.481C104.905 397.481 105.933 398.492 105.933 399.74C105.933 400.988 104.905 402 103.636 402Z" fill="#482067"/>
<path d="M235.965 377.015L231 372.13L233.165 370L238.131 374.885H261.469C262.314 374.885 263 375.559 263 376.391C263 376.538 262.978 376.684 262.936 376.824L259.261 388.875C259.066 389.512 258.47 389.949 257.794 389.949H239.028V392.962H255.871V395.974H237.496C236.651 395.974 235.965 395.3 235.965 394.468V377.015ZM238.262 402C236.993 402 235.965 400.988 235.965 399.74C235.965 398.492 236.993 397.481 238.262 397.481C239.53 397.481 240.559 398.492 240.559 399.74C240.559 400.988 239.53 402 238.262 402ZM256.636 402C255.368 402 254.34 400.988 254.34 399.74C254.34 398.492 255.368 397.481 256.636 397.481C257.905 397.481 258.933 398.492 258.933 399.74C258.933 400.988 257.905 402 256.636 402Z" fill="#482067"/>
<path d="M389.965 377.015L385 372.13L387.165 370L392.131 374.885H415.469C416.314 374.885 417 375.559 417 376.391C417 376.538 416.978 376.684 416.936 376.824L413.261 388.875C413.066 389.512 412.47 389.949 411.794 389.949H393.028V392.962H409.871V395.974H391.496C390.651 395.974 389.965 395.3 389.965 394.468V377.015ZM392.262 402C390.993 402 389.965 400.988 389.965 399.74C389.965 398.492 390.993 397.481 392.262 397.481C393.53 397.481 394.559 398.492 394.559 399.74C394.559 400.988 393.53 402 392.262 402ZM410.636 402C409.368 402 408.34 400.988 408.34 399.74C408.34 398.492 409.368 397.481 410.636 397.481C411.905 397.481 412.933 398.492 412.933 399.74C412.933 400.988 411.905 402 410.636 402Z" fill="#482067"/>
<rect opacity="0.31" x="43" y="452" width="106" height="23" rx="11.5" fill="#AE72FF"/>
<rect opacity="0.31" x="196" y="452" width="106" height="23" rx="11.5" fill="#AE72FF"/>
<rect opacity="0.31" x="350" y="452" width="106" height="23" rx="11.5" fill="#AE72FF"/>
<circle cx="230.365" cy="69.0002" r="41.4668" fill="#1F0433" stroke="#3C1C54" stroke-width="1.02183"/>
<path d="M220.666 64.6191C221.462 64.6191 222.108 65.2645 222.108 66.0606C224.464 66.0606 226.632 66.8684 228.349 68.2221L231.477 68.2229C233.398 68.2229 235.123 69.0572 236.311 70.3832L240.847 70.3851C243.719 70.3851 246.198 72.0647 247.357 74.4953C243.948 78.9936 238.428 81.9169 232.198 81.9169C228.175 81.9169 224.774 81.0473 222.02 79.527C221.82 80.0799 221.29 80.4755 220.666 80.4755H216.342C215.546 80.4755 214.9 79.8301 214.9 79.034V66.0606C214.9 65.2645 215.546 64.6191 216.342 64.6191H220.666ZM222.109 68.9436L222.108 76.1814L222.173 76.2296C224.759 78.0464 228.13 79.034 232.198 79.034C236.528 79.034 240.557 77.3681 243.492 74.5229L243.684 74.3304L243.512 74.1857C242.843 73.6624 242.023 73.3377 241.143 73.278L240.847 73.2681L237.803 73.2666C237.908 73.7306 237.964 74.2135 237.964 74.7095V76.151H224.991V73.2681L234.778 73.2666L234.729 73.1535C234.18 72.0095 233.046 71.2 231.714 71.1135L231.477 71.1058L227.255 71.1055C225.947 69.7717 224.125 68.944 222.109 68.9436ZM219.225 67.5021H217.783V77.5925H219.225V67.5021ZM233.13 56.7996L233.639 57.3096L234.149 56.7996C235.557 55.3923 237.838 55.3923 239.246 56.7996C240.653 58.207 240.653 60.4887 239.246 61.896L233.64 67.5021L228.034 61.896C226.626 60.4887 226.626 58.207 228.034 56.7996C229.441 55.3923 231.723 55.3923 233.13 56.7996ZM230.072 58.8382C229.822 59.0884 229.794 59.4768 229.988 59.7566L230.071 59.8559L233.638 63.4241L237.207 59.8575C237.457 59.6073 237.485 59.2189 237.291 58.938L237.207 58.8382C236.957 58.588 236.569 58.5602 236.287 58.755L236.188 58.8385L233.637 61.3879L231.09 58.8367L230.992 58.7548C230.711 58.5602 230.322 58.588 230.072 58.8382Z" fill="#3C1C54"/>
<circle cx="67.9777" cy="69.0002" r="41.4668" fill="#1F0433" stroke="#3C1C54" stroke-width="1.02183"/>
<path d="M56.9307 82.4571C56.9307 76.372 61.8424 71.439 67.9012 71.439C73.9602 71.439 78.8718 76.372 78.8718 82.4571H76.1292C76.1292 77.8933 72.4454 74.1936 67.9012 74.1936C63.3571 74.1936 59.6733 77.8933 59.6733 82.4571H56.9307ZM67.9012 70.0618C63.3553 70.0618 59.6733 66.3638 59.6733 61.7982C59.6733 57.2326 63.3553 53.5347 67.9012 53.5347C72.4472 53.5347 76.1292 57.2326 76.1292 61.7982C76.1292 66.3638 72.4472 70.0618 67.9012 70.0618ZM67.9012 67.3073C70.9319 67.3073 73.3865 64.842 73.3865 61.7982C73.3865 58.7545 70.9319 56.2892 67.9012 56.2892C64.8706 56.2892 62.416 58.7545 62.416 61.7982C62.416 64.842 64.8706 67.3073 67.9012 67.3073Z" fill="#3C1C54"/>
<circle cx="172.922" cy="69.0002" r="41.4668" fill="#1F0433" stroke="#3C1C54" stroke-width="1.02183"/>
<path d="M187.383 79.065H190.597V82.2563H155.247V79.065H158.461V55.1303C158.461 54.2491 159.18 53.5347 160.067 53.5347H176.136C177.023 53.5347 177.742 54.2491 177.742 55.1303V79.065H184.17V66.2998H180.956V63.1085H185.776C186.664 63.1085 187.383 63.8229 187.383 64.7042V79.065ZM161.674 56.726V79.065H174.529V56.726H161.674ZM164.888 66.2998H171.315V69.4911H164.888V66.2998ZM164.888 59.9172H171.315V63.1085H164.888V59.9172Z" fill="#3C1C54"/>
<g filter="url(#filter0_d_726_2282)">
<circle cx="121.002" cy="69.0002" r="41.4254" fill="#1F0433" stroke="#95E9E9" stroke-width="1.10468"/>
<path d="M109.754 54.0874H132.249C132.709 54.0874 133.103 54.472 133.103 54.9712V79.936H135.915V81.7036H106.089V79.936H108.9V54.9712C108.9 54.4721 109.293 54.0874 109.754 54.0874ZM110.607 79.936H131.396V55.854H110.607V79.936ZM126.073 72.7563V74.5239H122.96V72.7563H126.073ZM119.043 72.7563V74.5239H115.93V72.7563H119.043ZM126.073 67.0122V68.7788H122.96V67.0122H126.073ZM119.043 67.0122V68.7788H115.93V67.0122H119.043ZM126.073 61.2671V63.0347H122.96V61.2671H126.073ZM119.043 61.2671V63.0347H115.93V61.2671H119.043Z" fill="#95E9E9" stroke="#95E9E9" stroke-width="1.10468"/>
</g>
<defs>
<filter id="filter0_d_726_2282" x="61.0244" y="12.0225" width="119.955" height="119.956" filterUnits="userSpaceOnUse" color-interpolation-filters="sRGB">
<feFlood flood-opacity="0" result="BackgroundImageFix"/>
<feColorMatrix in="SourceAlpha" type="matrix" values="0 0 0 0 0 0 0 0 0 0 0 0 0 0 0 0 0 0 127 0" result="hardAlpha"/>
<feOffset dy="3"/>
<feGaussianBlur stdDeviation="9"/>
<feComposite in2="hardAlpha" operator="out"/>
<feColorMatrix type="matrix" values="0 0 0 0 0.584314 0 0 0 0 0.913725 0 0 0 0 0.913725 0 0 0 0.3 0"/>
<feBlend mode="normal" in2="BackgroundImageFix" result="effect1_dropShadow_726_2282"/>
<feBlend mode="normal" in="SourceGraphic" in2="effect1_dropShadow_726_2282" result="shape"/>
</filter>
</defs>
</svg>
