<svg width="100" height="100" viewBox="0 0 100 100" fill="none" xmlns="http://www.w3.org/2000/svg">
<g clip-path="url(#clip0_3241_42913)">
<path d="M50.0018 90.7644C73.0973 90.7644 91.82 72.237 91.82 49.3822C91.82 26.5274 73.0973 8 50.0018 8C26.9062 8 8.18359 26.5274 8.18359 49.3822C8.18359 72.237 26.9062 90.7644 50.0018 90.7644Z" fill="#FBF9FF"/>
<path d="M90.1935 89.7018H10.5352V38.4841C10.5352 37.2093 11.5754 36.1758 12.8585 36.1758H87.8702C89.1533 36.1758 90.1935 37.2093 90.1935 38.4841V89.7018Z" fill="#F8F5FF" stroke="#3C1C54" stroke-width="0.154416" stroke-miterlimit="10" stroke-linecap="round" stroke-linejoin="round"/>
<path d="M90.8094 89.701H9.92188V37.9534C9.92188 36.6621 10.9754 35.6152 12.2751 35.6152H88.4561C89.7558 35.6152 90.8094 36.6621 90.8094 37.9534V89.701Z" fill="#F8F5FF" stroke="#3C1C54" stroke-width="0.154416" stroke-miterlimit="10" stroke-linecap="round" stroke-linejoin="round"/>
<path d="M88.7098 38.9746H11.9336V86.8273H88.7098V38.9746Z" fill="#F8F5FF" stroke="#3C1C54" stroke-width="0.154416" stroke-miterlimit="10" stroke-linecap="round" stroke-linejoin="round"/>
<path d="M0.910156 89.7129V90.2965H40.7427C41.1352 90.2965 41.5248 90.352 41.9068 90.4424C41.9517 90.4533 41.997 90.4628 42.0427 90.4712V89.713L0.910156 89.7129Z" fill="#F8F5FF" stroke="#3C1C54" stroke-width="0.154416" stroke-miterlimit="10" stroke-linecap="round" stroke-linejoin="round"/>
<path d="M58.5901 89.7129V90.4711C58.4205 90.5024 58.248 90.5186 58.0746 90.5186H42.5585C42.3852 90.5186 42.2126 90.5024 42.043 90.4711V89.7129H58.5901Z" fill="#F8F5FF" stroke="#3C1C54" stroke-width="0.154416" stroke-miterlimit="10" stroke-linecap="round" stroke-linejoin="round"/>
<path d="M40.9476 90.2949C40.9476 90.2949 41.6777 90.3448 42.0428 90.4656H58.5924C58.5924 90.4656 59.0791 90.3448 59.5659 90.2949H99.6464C99.66 90.2949 99.6628 90.3144 99.65 90.3184C96.1991 91.3798 92.6073 91.9197 88.9939 91.9197H50.3176H11.641C8.02815 91.9197 4.4359 91.38 0.984935 90.3184C0.971917 90.3144 0.974835 90.2949 0.988472 90.2949H40.9476Z" fill="white" stroke="#3C1C54" stroke-width="0.154416" stroke-miterlimit="10" stroke-linecap="round" stroke-linejoin="round"/>
<path d="M99.7224 89.7129V90.2965H59.8898C59.4974 90.2965 59.1078 90.352 58.7258 90.4424C58.6808 90.4533 58.6356 90.4628 58.5898 90.4712V89.713L99.7224 89.7129Z" fill="#F8F5FF" stroke="#3C1C54" stroke-width="0.154416" stroke-miterlimit="10" stroke-linecap="round" stroke-linejoin="round"/>
<path d="M78.8916 30.1836H21.709C21.0262 30.1836 20.4727 30.7336 20.4727 31.412V71.3496C20.4727 72.028 21.0262 72.5779 21.709 72.5779H78.8916C79.5744 72.5779 80.1279 72.028 80.1279 71.3496V31.412C80.1279 30.7336 79.5744 30.1836 78.8916 30.1836Z" fill="white" stroke="#3C1C54" stroke-width="0.16"/>
<path d="M21.7093 30.1836H78.8915C79.5743 30.1837 80.1282 30.7339 80.1282 31.4123V36.036H20.4727V31.4123C20.4727 30.7339 21.0265 30.1836 21.7093 30.1836Z" fill="#D2B8FF" stroke="#3C1C54" stroke-width="0.16"/>
<path fill-rule="evenodd" clip-rule="evenodd" d="M75.7782 31.6783C75.6879 31.6783 75.6156 31.7501 75.6156 31.8398C75.6156 32.0218 75.6733 32.1979 75.7782 32.344C75.8832 32.1979 75.9407 32.0218 75.9407 31.8398C75.9407 31.7501 75.8685 31.6783 75.7782 31.6783ZM75.995 32.5764C76.1618 32.3688 76.2547 32.109 76.2547 31.8407C76.2547 31.5723 76.0414 31.3672 75.7782 31.3672C75.515 31.3672 75.3016 31.5791 75.3016 31.8407C75.3016 32.1021 75.3945 32.3688 75.5614 32.5764L75.2406 32.8952C75.0315 32.7294 74.7701 32.6371 74.5 32.6371C74.2299 32.6371 74.0234 32.8491 74.0234 33.1106C74.0234 33.3721 74.2368 33.5841 74.5 33.5841C74.7632 33.5841 75.0315 33.4918 75.2406 33.3259L75.5614 33.6447C75.3945 33.8524 75.3016 34.1122 75.3016 34.3805C75.3016 34.6489 75.515 34.854 75.7782 34.854C76.0414 34.854 76.2547 34.642 76.2547 34.3805C76.2547 34.119 76.1618 33.8524 75.995 33.6447L76.3158 33.3259C76.5248 33.4918 76.7863 33.5841 77.0564 33.5841C77.3264 33.5841 77.5329 33.3721 77.5329 33.1106C77.5329 32.8491 77.3196 32.6371 77.0564 32.6371C76.7932 32.6371 76.5248 32.7294 76.3158 32.8952L75.995 32.5764ZM75.7782 32.8021L75.4677 33.1106L75.7782 33.419L76.0887 33.1106L75.7782 32.8021ZM76.5497 33.1106C76.6968 33.2148 76.874 33.2721 77.0573 33.2721C77.1475 33.2721 77.2198 33.2003 77.2198 33.1106C77.2198 33.0208 77.1475 32.9491 77.0573 32.9491C76.874 32.9491 76.6968 33.0063 76.5497 33.1106ZM75.7782 33.8772C75.6733 34.0233 75.6156 34.1993 75.6156 34.3813C75.6156 34.4711 75.6879 34.5429 75.7782 34.5429C75.8685 34.5429 75.9407 34.4711 75.9407 34.3813C75.9407 34.1993 75.8832 34.0233 75.7782 33.8772ZM75.0066 33.1106C74.8595 33.0063 74.6823 32.9491 74.4992 32.9491C74.4088 32.9491 74.3365 33.0208 74.3365 33.1106C74.3365 33.2003 74.4088 33.2721 74.4992 33.2721C74.6823 33.2721 74.8595 33.2148 75.0066 33.1106Z" fill="#C5A9F5"/>
<path d="M24.2599 34.1565C24.8413 34.1565 25.3127 33.6882 25.3127 33.1105C25.3127 32.5328 24.8413 32.0645 24.2599 32.0645C23.6784 32.0645 23.207 32.5328 23.207 33.1105C23.207 33.6882 23.6784 34.1565 24.2599 34.1565Z" fill="#E2D2FF"/>
<path d="M27.0685 34.1565C27.6499 34.1565 28.1213 33.6882 28.1213 33.1105C28.1213 32.5328 27.6499 32.0645 27.0685 32.0645C26.487 32.0645 26.0156 32.5328 26.0156 33.1105C26.0156 33.6882 26.487 34.1565 27.0685 34.1565Z" fill="#E2D2FF"/>
<path d="M29.877 34.1565C30.4585 34.1565 30.9299 33.6882 30.9299 33.1105C30.9299 32.5328 30.4585 32.0645 29.877 32.0645C29.2956 32.0645 28.8242 32.5328 28.8242 33.1105C28.8242 33.6882 29.2956 34.1565 29.877 34.1565Z" fill="#E2D2FF"/>
<path d="M54.4546 71.2091C54.4546 77.5334 50.4206 82.6603 50.4206 82.6603C50.4206 82.6603 46.3867 77.5334 46.3867 71.2091C46.3867 64.8848 48.1928 59.7578 50.4206 59.7578C52.6484 59.7578 54.4546 64.8848 54.4546 71.2091Z" fill="#E8D7FF"/>
<path d="M53.3019 66.2843C53.3019 72.1661 50.3052 76.934 50.3052 76.934C50.3052 76.934 47.3086 72.1661 47.3086 66.2843C47.3086 60.4027 48.6502 55.6348 50.3052 55.6348C51.9603 55.6348 53.3019 60.4027 53.3019 66.2843Z" fill="#F2E9FF"/>
<path d="M37.454 68.1283L37.4523 68.1301L37.4487 68.138C37.4026 68.2275 37.3391 68.2936 37.2676 68.3382L37.2667 68.3391C37.1022 68.4438 36.8819 68.4474 36.6914 68.362C36.5022 68.2771 36.3499 68.1073 36.3176 67.8751C36.0334 65.8379 35.6562 62.3187 35.6562 58.0067C35.6563 54.2374 37.1155 50.627 38.578 47.9556C39.3088 46.6207 40.039 45.5214 40.587 44.7564C40.8611 44.3739 41.0896 44.0749 41.2493 43.8717C41.3289 43.7704 41.3913 43.6927 41.434 43.6406L49.4124 57.0558C49.3643 57.0542 49.304 57.052 49.2323 57.0523C49.0273 57.0531 48.7291 57.0659 48.3543 57.1122C47.6042 57.205 46.5463 57.4328 45.3136 57.9758C44.823 58.192 44.3051 58.4578 43.768 58.7847C39.69 61.2633 38.7063 65.4779 37.4593 68.1159C37.458 68.1187 37.4567 68.1218 37.4558 68.1238C37.4549 68.1257 37.454 68.1283 37.454 68.1283Z" fill="#F8F5FF" stroke="#3C1C54" stroke-width="0.16"/>
<path d="M59.3849 43.8717C59.5446 44.0749 59.7733 44.374 60.0473 44.7564C60.5953 45.5215 61.3264 46.6206 62.0572 47.9556C63.5197 50.6272 64.978 54.2384 64.978 58.0075C64.9778 62.3193 64.6005 65.8388 64.3166 67.876C64.2766 68.162 64.0534 68.3543 63.8044 68.4079C63.5565 68.461 63.2972 68.3744 63.1758 68.1177C61.9282 65.4798 60.9457 61.2637 56.8663 58.7847C55.2467 57.8004 53.8035 57.37 52.7638 57.1855C52.2444 57.0933 51.8256 57.0625 51.5361 57.0549C51.4039 57.0515 51.2983 57.0524 51.2227 57.0549L59.2003 43.6406C59.2429 43.6927 59.3053 43.7703 59.3849 43.8717Z" fill="#F8F5FF" stroke="#3C1C54" stroke-width="0.16"/>
<path d="M45.3421 58.0427C44.8542 58.2577 44.3393 58.5213 43.8049 58.8465C39.7501 61.3108 38.7791 65.4935 37.5234 68.149C37.5196 68.1566 37.5165 68.1644 37.5118 68.1713C37.463 68.2708 37.3945 68.3478 37.3047 68.4002C37.3047 68.4002 37.8045 65.2789 38.904 62.5401C40.531 58.4875 43.7798 56.3457 43.7798 56.3457L45.3421 58.0427Z" fill="#E8D7FF"/>
<path d="M55.293 58.0427C55.7808 58.2577 56.2958 58.5213 56.8301 58.8465C60.885 61.3108 61.856 65.4935 63.1116 68.149C63.1155 68.1567 63.1186 68.1644 63.1232 68.1713C63.1675 68.2612 63.237 68.3374 63.3304 68.4002C63.3304 68.4002 62.8306 65.2789 61.7311 62.5401C60.1041 58.4875 56.8553 56.3457 56.8553 56.3457L55.293 58.0427Z" fill="#E8D7FF"/>
<path d="M50.38 8.15178C50.4587 8.21454 50.5752 8.30964 50.7227 8.43756C51.0176 8.6934 51.4395 9.08141 51.9461 9.60893C52.9595 10.6644 54.3123 12.2784 55.665 14.5114C58.37 18.977 61.0769 25.9197 61.0769 35.821C61.0769 47.5247 58.3686 54.4654 55.6668 58.4775C54.3157 60.4837 52.9649 61.7583 51.9541 62.5314C51.4486 62.9181 51.0279 63.1796 50.7342 63.3438C50.5874 63.4259 50.4722 63.4839 50.3942 63.5211C50.3553 63.5397 50.3252 63.5521 50.3054 63.5608C50.2855 63.5505 50.2559 63.5352 50.2175 63.514C50.1393 63.4708 50.0243 63.4039 49.8775 63.3111C49.5834 63.1254 49.1618 62.834 48.6559 62.4142C47.6443 61.5744 46.2937 60.2195 44.9423 58.16C42.2397 54.041 39.5312 47.0997 39.5312 35.821C39.5312 25.9197 42.2382 18.977 44.9432 14.5114C46.2958 12.2784 47.6486 10.6644 48.6622 9.60893C49.1687 9.08141 49.5905 8.6934 49.8855 8.43756C50.033 8.30964 50.1495 8.21454 50.2282 8.15178C50.2594 8.12687 50.2844 8.10662 50.3036 8.0918C50.3229 8.10667 50.3484 8.12664 50.38 8.15178Z" fill="#F8F5FF" stroke="#3C1C54" stroke-width="0.16"/>
<path d="M50.4224 8.18422C50.5282 8.26973 50.6832 8.39952 50.8788 8.57409C51.2702 8.9234 51.8246 9.45412 52.475 10.1777C53.7759 11.625 55.4615 13.8451 56.9947 16.9325L57.0027 16.9483C57.0782 17.1007 57.1534 17.255 57.2282 17.4114L57.451 17.886L57.4759 17.9407C52.7255 16.8076 47.9435 16.8234 43.1328 17.9424C43.2751 17.6312 43.4187 17.3277 43.5652 17.0321L43.567 17.0286C45.1048 13.9074 46.8017 11.6635 48.1134 10.2006C48.7691 9.46915 49.3286 8.93245 49.7237 8.57939C49.9212 8.40298 50.0777 8.2724 50.1845 8.18599C50.2366 8.14387 50.276 8.1111 50.3034 8.08984C50.3307 8.11085 50.3706 8.14234 50.4224 8.18422Z" fill="#D2B8FF" stroke="#3C1C54" stroke-width="0.16"/>
<path d="M50.018 16.1582C53.3097 16.1566 56.6347 16.8813 57.0128 16.9653L57.4754 17.9426C52.7264 16.8105 47.946 16.8267 43.1367 17.9453L43.5566 17.0588L43.5602 17.0579C43.5838 17.0513 43.6191 17.0421 43.665 17.0297C43.7568 17.0049 43.8918 16.969 44.0644 16.9265C44.4101 16.8413 44.9066 16.728 45.508 16.6142C46.7115 16.3866 48.3354 16.159 50.018 16.1582Z" fill="#D2B8FF" stroke="#3C1C54" stroke-width="0.16"/>
<path d="M52.5557 53.9614C52.5511 54.9623 52.5302 55.9634 52.4867 56.9643C52.3999 58.9671 52.2386 60.969 51.9726 62.971C51.8399 63.9728 51.6808 64.9739 51.487 65.9748C51.4381 66.2253 51.3877 66.4757 51.3342 66.7254L51.1658 67.4767C51.0456 67.9768 50.9193 68.4777 50.7626 68.9778C50.6842 69.2298 50.4151 69.37 50.1616 69.2923C50.0065 69.2437 49.8917 69.1219 49.8459 68.9778C49.6893 68.4777 49.5637 67.9768 49.4434 67.4767L49.2742 66.7254C49.2215 66.4757 49.1703 66.2253 49.1215 65.9748C48.9284 64.9739 48.7693 63.9728 48.6358 62.971C48.3699 60.969 48.2093 58.967 48.1225 56.9643C48.0783 55.9634 48.0581 54.9623 48.0527 53.9614C48.048 53.5461 48.0518 53.1307 48.0657 52.7154C48.068 52.6298 48.0713 52.545 48.0743 52.4595C48.0953 51.9594 48.1333 51.4584 48.186 50.9576C48.2923 49.9566 48.4645 48.9555 48.7251 47.9546C48.8555 47.4536 49.0075 46.9536 49.1888 46.4527C49.2812 46.2022 49.3781 45.9526 49.489 45.7021L49.5711 45.5141L49.6604 45.3268C49.7201 45.2012 49.7845 45.0764 49.8558 44.9508C49.9962 44.7049 50.3104 44.6187 50.5586 44.7581C50.6423 44.8052 50.7083 44.8737 50.7525 44.9508C50.8237 45.0764 50.8881 45.2012 50.9487 45.3268L51.0372 45.5141L51.1201 45.7021C51.231 45.9526 51.328 46.2022 51.4196 46.4527C51.6017 46.9536 51.7531 47.4536 51.8833 47.9546C52.1439 48.9555 52.3161 49.9566 52.4224 50.9576C52.4751 51.4584 52.5131 51.9594 52.5349 52.4595C52.5379 52.5396 52.541 52.6205 52.5435 52.7006C52.5557 53.1206 52.5603 53.5406 52.5557 53.9614Z" fill="#E8D7FF"/>
<path d="M49.9215 44.9859C50.0422 44.7752 50.312 44.7012 50.5252 44.821C50.5965 44.8612 50.6533 44.9199 50.6912 44.9859C50.7264 45.0481 50.7602 45.11 50.7924 45.1721L50.8847 45.3582L50.9726 45.5425L51.0552 45.7313C51.1653 45.9798 51.2623 46.228 51.3535 46.4775C51.5348 46.9758 51.6854 47.4737 51.8152 47.9726C52.0748 48.9697 52.2463 49.9676 52.3523 50.9654C52.3785 51.2151 52.401 51.4648 52.4197 51.7142L52.4641 52.4623C52.4669 52.5426 52.4698 52.6225 52.4721 52.7022C52.4604 53.3225 52.4424 53.9432 52.4153 54.5642C52.3294 56.5642 52.1678 58.5639 51.9022 60.564C51.8028 61.3137 51.6884 62.0636 51.5559 62.8132L51.4174 63.5629C51.3687 63.8128 51.3174 64.0626 51.2647 64.3118L51.0969 65.0616C50.9767 65.5613 50.8507 66.0608 50.6947 66.5593C50.6365 66.7454 50.4547 66.8601 50.266 66.8416L50.1852 66.8248C50.0866 66.794 50.0071 66.7282 49.957 66.6457L49.9171 66.5584C49.7613 66.0603 49.6349 65.5618 49.5149 65.0625L49.3471 64.3118L49.1944 63.5629C49.0016 62.5635 48.8422 61.5637 48.7097 60.564C48.4441 58.5638 48.2834 56.5642 48.1974 54.5642C48.1704 53.9487 48.1514 53.3327 48.1406 52.7172C48.1429 52.6321 48.1455 52.5471 48.1486 52.4614C48.1695 51.9634 48.2079 51.4645 48.2604 50.9654C48.3664 49.9675 48.5379 48.9697 48.7975 47.9726C48.9274 47.4738 49.0787 46.9759 49.2592 46.4775C49.3513 46.2279 49.4475 45.9798 49.5575 45.7313L49.6392 45.5452L49.728 45.3573C49.7869 45.2332 49.8511 45.1099 49.9215 44.9859Z" fill="#F8F5FF" stroke="#3C1C54" stroke-width="0.16"/>
<path d="M50.3073 37.0119C53.7045 37.0119 56.4584 34.2757 56.4584 30.9005C56.4584 27.5252 53.7045 24.7891 50.3073 24.7891C46.9102 24.7891 44.1562 27.5252 44.1562 30.9005C44.1562 34.2757 46.9102 37.0119 50.3073 37.0119Z" fill="#D2B8FF" fill-opacity="0.12" stroke="#E8D7FF" stroke-width="0.16"/>
<g opacity="0.21">
<path fill-rule="evenodd" clip-rule="evenodd" d="M48.7756 30.8821C48.5026 30.6883 48.1735 30.582 47.834 30.582C47.6665 30.582 47.5319 30.7157 47.5319 30.8821C47.5319 31.0486 47.6665 31.1823 47.834 31.1823C48.1735 31.1823 48.5026 31.076 48.7756 30.8821ZM50.2079 32.3053C50.0129 32.5765 49.9058 32.9034 49.9058 33.2406C49.9058 33.4071 50.0404 33.5409 50.2079 33.5409C50.3754 33.5409 50.51 33.4071 50.51 33.2406C50.51 32.9034 50.4029 32.5765 50.2079 32.3053ZM51.6402 30.8821C51.9132 31.076 52.2422 31.1823 52.5818 31.1823C52.7492 31.1823 52.8839 31.0486 52.8839 30.8821C52.8839 30.7157 52.7492 30.582 52.5818 30.582C52.2422 30.582 51.9132 30.6883 51.6402 30.8821ZM50.2079 30.3089L49.6309 30.8821L50.2079 31.4554L50.7849 30.8821L50.2079 30.3089ZM50.6104 29.8898C50.9208 29.504 51.0927 29.0223 51.0927 28.5236C51.0927 28.025 50.6971 27.6445 50.2079 27.6445C49.7186 27.6445 49.3231 28.0375 49.3231 28.5236C49.3231 29.0098 49.495 29.504 49.8054 29.8898L49.2094 30.4819C48.8211 30.1736 48.3363 30.0028 47.8344 30.0028C47.3324 30.0028 46.9492 30.396 46.9492 30.8821C46.9492 31.3683 47.3448 31.7613 47.834 31.7613C48.3233 31.7613 48.8209 31.5904 49.2091 31.2821L49.805 31.8742C49.4948 32.2599 49.3228 32.7417 49.3228 33.2404C49.3228 33.739 49.7183 34.1195 50.2076 34.1195C50.6969 34.1195 51.0924 33.7265 51.0924 33.2404C51.0924 32.7543 50.9204 32.2599 50.61 31.8742L51.206 31.2821C51.5943 31.5904 52.0791 31.7613 52.5811 31.7613C53.083 31.7613 53.4659 31.3683 53.4659 30.8821C53.4659 30.396 53.0704 30.003 52.5811 30.003C52.0919 30.003 51.5943 30.1739 51.206 30.4823L50.6104 29.8898ZM50.2079 28.2235C50.0404 28.2235 49.9058 28.3572 49.9058 28.5236C49.9058 28.8609 50.0129 29.1879 50.2079 29.459C50.4029 29.1879 50.51 28.8609 50.51 28.5236C50.51 28.3572 50.3754 28.2235 50.2079 28.2235Z" fill="#AE72FF"/>
</g>
</g>
<defs>
<clipPath id="clip0_3241_42913">
<rect width="100" height="84" fill="white" transform="translate(0 8)"/>
</clipPath>
</defs>
</svg>
