<svg width="120" height="99" viewBox="0 0 120 99" fill="none" xmlns="http://www.w3.org/2000/svg">
<g clip-path="url(#clip0_11297_2183)">
<mask id="mask0_11297_2183" style="mask-type:luminance" maskUnits="userSpaceOnUse" x="32" y="18" width="9" height="9">
<path d="M33.227 21.1556C32.3372 23.1208 33.2169 25.4317 35.192 26.3171C37.1671 27.2026 39.4895 26.3271 40.3793 24.3619C41.2692 22.3967 40.3894 20.0857 38.4143 19.2003C36.4392 18.3149 34.1169 19.1904 33.227 21.1556Z" fill="white"/>
</mask>
<g mask="url(#mask0_11297_2183)">
<path d="M41.9908 20.8035L34.8385 17.5972L31.6162 24.714L38.7685 27.9203L41.9908 20.8035Z" fill="#FFE200"/>
</g>
<path d="M33.8497 21.4372C33.1147 23.0607 33.8415 24.9697 35.473 25.7011C37.1046 26.4325 39.0232 25.7094 39.7582 24.0859C40.4933 22.4624 39.7666 20.5533 38.135 19.8219C36.5034 19.0905 34.5849 19.8137 33.8497 21.4372Z" fill="#FBAE17"/>
<path d="M33.9503 21.4818C33.2403 23.05 33.9424 24.894 35.5184 25.6006C37.0945 26.3072 38.9477 25.6086 39.6578 24.0404C40.3678 22.4721 39.6658 20.628 38.0897 19.9215C36.5137 19.215 34.6604 19.9135 33.9503 21.4818Z" fill="#FFC40D"/>
<g filter="url(#filter0_i_11297_2183)">
<path fill-rule="evenodd" clip-rule="evenodd" d="M37.6008 21.0431C37.4931 20.9948 37.3674 21.0427 37.3184 21.1507C37.2194 21.3694 37.1923 21.6123 37.238 21.8442C37.4429 21.7247 37.6079 21.5434 37.7068 21.3247C37.7558 21.2168 37.7084 21.0913 37.6008 21.0431ZM37.3703 22.2397C37.6832 22.079 37.9351 21.8161 38.0815 21.4927C38.2279 21.1693 38.0855 20.8086 37.7708 20.6676C37.4561 20.5265 37.0866 20.6675 36.9439 20.9827C36.8012 21.2979 36.7665 21.6682 36.8527 22.0077L36.2957 22.22C36.1366 21.9079 35.8752 21.6576 35.5525 21.513C35.2299 21.3684 34.8683 21.5129 34.7255 21.8282C34.5828 22.1434 34.7217 22.5124 35.0362 22.6533C35.3507 22.7943 35.7208 22.8269 36.0608 22.7388L36.27 23.2946C35.9571 23.4554 35.7053 23.7183 35.5588 24.0417C35.4124 24.365 35.5551 24.7258 35.8695 24.8668C36.184 25.0078 36.5537 24.8668 36.6965 24.5516C36.8392 24.2364 36.8738 23.8662 36.7876 23.5267L37.3446 23.3143C37.5038 23.6264 37.7652 23.8768 38.0878 24.0213C38.4104 24.166 38.772 24.0214 38.9147 23.7062C39.0575 23.391 38.9186 23.022 38.6041 22.881C38.2897 22.7401 37.9196 22.7075 37.5796 22.7955L37.3703 22.2397ZM36.9884 22.3955L36.4491 22.6011L36.6518 23.1392L37.191 22.9337L36.9884 22.3955ZM37.7409 23.1799C37.8594 23.3842 38.0398 23.5481 38.2579 23.6459C38.3655 23.6941 38.4913 23.6462 38.5402 23.5383C38.589 23.4304 38.5418 23.3048 38.4341 23.2565C38.2159 23.1587 37.9731 23.1329 37.7409 23.1799ZM36.4023 23.6901C36.1974 23.8097 36.0325 23.991 35.9335 24.2096C35.8846 24.3175 35.9318 24.443 36.0395 24.4913C36.1472 24.5396 36.273 24.4916 36.3218 24.3837C36.4209 24.1649 36.448 23.9221 36.4023 23.6901ZM35.8995 22.3544C35.7809 22.1502 35.6005 21.9862 35.3825 21.8885C35.2748 21.8402 35.149 21.8882 35.1002 21.9961C35.0513 22.1041 35.0985 22.2296 35.2062 22.2779C35.4245 22.3757 35.6672 22.4014 35.8995 22.3544Z" fill="#FBAE17"/>
</g>
<g opacity="0.5">
<path opacity="0.6" d="M120 70.2053L107.811 76.2753L81.4055 66.8276L91.6397 61.7229L120 70.2053Z" fill="#434343"/>
<path opacity="0.6" d="M28.4515 71.2686C28.4515 71.2686 23.4023 70.9448 18.4047 69.951C14.5603 69.1866 12.4096 68.2337 7.92266 68.2337C3.74425 68.2337 0 69.9044 0 69.9044C0 69.9044 11.7741 71.4368 16.3704 73.6568C22.5686 76.6502 26.299 75.7093 26.299 75.7093L28.4515 71.2686Z" fill="#434343"/>
<path opacity="0.6" d="M60.2439 67.6905L95.5799 78.5992L56.093 90.3394C56.093 90.3394 47.999 88.206 44.8928 87.5546C41.7864 86.9024 32.204 85.5912 29.3395 89.3592C25.7446 94.0878 10.077 98.8904 10.077 98.8904L2.36743 95.8585L17.0971 91.8229L23.0633 83.4245L25.6988 71.8993L60.2439 67.6905Z" fill="#434343"/>
<path opacity="0.6" d="M102.996 96.1917C102.996 96.1917 90.3683 90.8888 83.1014 90.6477C75.8343 90.4066 65.0881 87.3573 65.0881 87.3573L75.3762 85.4755C75.3762 85.4755 91.37 88.376 112.232 91.3898L102.996 96.1917Z" fill="#434343"/>
</g>
<path d="M22.3353 58.5778C22.3353 58.5778 15.1506 57.6926 9.6095 62.7173L2.36768 60.0686C2.36768 60.0686 7.59294 54.3643 12.455 55.0144C17.3171 55.6645 22.3353 58.5778 22.3353 58.5778Z" fill="#8E5AD4"/>
<path d="M32.5995 76.1899L25.5237 74.8857C25.5237 74.8857 20.6062 70.5487 18.8137 63.1238C17.0211 55.6989 12.4546 55.0159 12.4546 55.0159C12.4546 55.0159 20.3592 56.3841 22.3349 58.5793C24.3107 60.7744 24.5896 62.7302 25.3064 65.4985C26.5216 70.1925 32.5995 76.1899 32.5995 76.1899Z" fill="#AE72FF"/>
<path d="M86.0171 37.9567L107.812 76.2738L80.2275 63.7126L64.9767 45.3106L61.2493 31.6637L70.9624 32.5767L86.0171 37.9567Z" fill="#8C8C8C"/>
<path d="M114.676 52.8018C114.676 52.8018 111.774 50.3653 108.962 50.636C106.151 50.9067 104.427 51.7085 104.427 51.7085L100.89 46.5751C100.89 46.5751 110.594 44.319 113.316 47.8385C116.036 51.3579 114.676 52.8018 114.676 52.8018Z" fill="#8E5AD4"/>
<path d="M105.76 48.2011C105.76 48.2011 107.011 48.5881 107.755 49.5021C108.499 50.4162 110.038 52.2043 110.118 55.4869C110.199 58.7696 107.785 61.0114 106.095 61.732L102.544 56.5278C102.544 56.5278 107.198 54.6389 107.315 52.903C107.534 49.6623 105.76 48.2011 105.76 48.2011Z" fill="#AE72FF"/>
<path d="M89.8155 30.4829C89.8155 30.4829 86.4828 26.8141 83.0643 26.9052C79.6458 26.9963 78.7056 28.8671 78.022 30.9931C77.3377 33.1191 82.1241 34.7104 82.1241 34.7104L82.0382 32.1837C82.0382 32.1837 85.7134 31.6734 87.1663 31.9286C88.6193 32.1837 89.8155 30.4829 89.8155 30.4829Z" fill="#8E5AD4"/>
<path d="M101.888 35.5646L103.703 32.2256L94.1794 24.8258C94.1794 24.8258 91.7308 24.555 89.3733 27.533C87.0151 30.511 86.0171 33.6695 86.0171 33.6695L95.9938 41.385L101.888 35.5646Z" fill="#AE72FF"/>
<path d="M103.702 32.2262C103.702 32.2262 104.7 34.6628 102.795 38.0919C100.891 41.5212 99.8028 43.8674 99.8028 43.8674L96.3562 39.5358C96.3562 39.5358 99.3486 30.6921 103.702 32.2262Z" fill="#8E5AD4"/>
<path d="M83.1014 41.4814L92.0878 33.4902L69.7709 24.7367L61.2493 31.6644L83.1014 41.4814Z" fill="#EFF0F2"/>
<path d="M21.3069 43.6355L53.3213 36.5966L87.331 41.8306L56.1327 50.6744L21.3069 43.6355Z" fill="#F0F0F0"/>
<path d="M27.2322 43.6341L53.5004 37.8586L81.4056 42.1532L55.8073 49.4096L27.2322 43.6341Z" fill="#828282"/>
<path d="M34.6392 84.6049L40.2167 83.7925L42.906 85.9705C42.906 85.9705 41.3737 86.5902 38.732 86.5902C36.0902 86.5902 34.6392 84.6049 34.6392 84.6049Z" fill="#AE72FF"/>
<mask id="mask1_11297_2183" style="mask-type:luminance" maskUnits="userSpaceOnUse" x="34" y="23" width="40" height="39">
<path d="M34.8225 42.4133C34.8225 53.0773 43.5107 61.7223 54.2278 61.7223C64.9451 61.7223 73.6332 53.0773 73.6332 42.4133C73.6332 31.7491 64.9451 23.1043 54.2278 23.1043C43.5106 23.1043 34.8225 31.7491 34.8225 42.4133Z" fill="white"/>
</mask>
<g mask="url(#mask1_11297_2183)">
<path d="M73.634 23.1043H34.8232V61.7223H73.634V23.1043Z" fill="#FFE200"/>
</g>
<path d="M38.199 42.412C38.199 51.2215 45.376 58.3631 54.2295 58.3631C63.0831 58.3631 70.2603 51.2215 70.2603 42.412C70.2603 33.6023 63.0831 26.4607 54.2295 26.4607C45.376 26.4607 38.199 33.6023 38.199 42.412Z" fill="#FBAE17"/>
<path d="M38.7434 42.4123C38.7434 50.922 45.6763 57.8205 54.2285 57.8205C62.7807 57.8205 69.7136 50.922 69.7136 42.4123C69.7136 33.9025 62.7807 27.0039 54.2285 27.0039C45.6763 27.0039 38.7434 33.9024 38.7434 42.4123Z" fill="#FFC40D"/>
<g filter="url(#filter1_i_11297_2183)">
<path fill-rule="evenodd" clip-rule="evenodd" d="M54.3152 33.0534C53.731 33.0534 53.2615 33.524 53.2615 34.1097C53.2615 35.2967 53.6351 36.447 54.3152 37.4009C54.9952 36.447 55.369 35.2957 55.369 34.1097C55.369 33.524 54.8995 33.0534 54.3152 33.0534ZM55.7195 38.9172C56.8028 37.5592 57.4017 35.8644 57.4017 34.1097C57.4017 32.3548 56.0227 31.0157 54.3152 31.0157C52.6077 31.0157 51.2287 32.3991 51.2287 34.1097C51.2287 35.8202 51.8288 37.5602 52.9109 38.9172L50.8318 41.0013C49.477 39.9155 47.7864 39.3151 46.0357 39.3151C44.2851 39.3151 42.9492 40.6984 42.9492 42.409C42.9492 44.1195 44.3293 45.5029 46.0357 45.5029C47.7422 45.5029 49.4781 44.9014 50.8318 43.8166L52.9109 45.9007C51.8277 47.2587 51.2287 48.9535 51.2287 50.7083C51.2287 52.4631 52.6088 53.8022 54.3152 53.8022C56.0216 53.8022 57.4017 52.4188 57.4017 50.7083C57.4017 48.9978 56.8017 47.2577 55.7195 45.9007L57.7986 43.8166C59.1534 44.9025 60.844 45.5029 62.5947 45.5029C64.3453 45.5029 65.6812 44.1195 65.6812 42.409C65.6812 40.6984 64.3011 39.3151 62.5947 39.3151C60.8882 39.3151 59.1523 39.9166 57.7986 41.0013L55.7195 38.9172ZM54.3152 40.3925L52.3025 42.41L54.3152 44.4276L56.328 42.41L54.3152 40.3925ZM59.3113 42.409C60.2629 43.0906 61.4114 43.4652 62.5947 43.4652C63.1789 43.4652 63.6485 42.9946 63.6485 42.409C63.6485 41.8233 63.1789 41.3527 62.5947 41.3527C61.4104 41.3527 60.2629 41.7273 59.3113 42.409ZM54.3152 47.4171C53.6351 48.3709 53.2615 49.5222 53.2615 50.7083C53.2615 51.2939 53.731 51.7646 54.3152 51.7646C54.8995 51.7646 55.369 51.2939 55.369 50.7083C55.369 49.5212 54.9952 48.3709 54.3152 47.4171ZM49.3191 42.409C48.3674 41.7273 47.2189 41.3527 46.0357 41.3527C45.4515 41.3527 44.982 41.8233 44.982 42.409C44.982 42.9946 45.4515 43.4652 46.0357 43.4652C47.22 43.4652 48.3674 43.0906 49.3191 42.409Z" fill="#FBAE17"/>
</g>
<mask id="mask2_11297_2183" style="mask-type:luminance" maskUnits="userSpaceOnUse" x="22" y="27" width="11" height="11">
<path d="M22.2574 34.153C23.1235 36.8957 26.0603 38.4205 28.8166 37.5586C31.573 36.6967 33.1053 33.7746 32.2391 31.0319C31.3729 28.2891 28.4363 26.7645 25.6799 27.6264C22.9236 28.4883 21.3912 31.4103 22.2574 34.153Z" fill="white"/>
</mask>
<g mask="url(#mask2_11297_2183)">
<path d="M30.6704 26.0658L20.6887 29.1869L23.8254 39.1191L33.8071 35.998L30.6704 26.0658Z" fill="#FFE200"/>
</g>
<path d="M23.1245 33.8798C23.84 36.1456 26.2659 37.4051 28.543 36.6932C30.82 35.9811 32.0859 33.5672 31.3703 31.3015C30.6548 29.0357 28.2288 27.7761 25.9517 28.4882C23.6747 29.2002 22.4089 31.6141 23.1245 33.8798Z" fill="#FBAE17"/>
<path d="M23.2649 33.8362C23.9561 36.0248 26.2995 37.2415 28.499 36.5537C30.6985 35.866 31.9213 33.5342 31.2301 31.3455C30.5389 29.1569 28.1956 27.9402 25.996 28.628C23.7964 29.3157 22.5737 31.6475 23.2649 33.8362Z" fill="#FFC40D"/>
<g filter="url(#filter2_i_11297_2183)">
<path fill-rule="evenodd" clip-rule="evenodd" d="M26.5091 30.177C26.3589 30.224 26.2763 30.3828 26.324 30.5334C26.4203 30.8387 26.6099 31.1045 26.8623 31.2952C26.9597 30.9952 26.9623 30.669 26.8659 30.364C26.8184 30.2134 26.6594 30.13 26.5091 30.177ZM27.3466 31.5722C27.5149 31.1358 27.5313 30.6518 27.3888 30.2004C27.2462 29.7491 26.7828 29.5157 26.3436 29.653C25.9045 29.7903 25.6622 30.257 25.8011 30.6969C25.94 31.1369 26.2357 31.5361 26.6243 31.7981L26.2588 32.5013C25.8222 32.331 25.3386 32.3125 24.8884 32.4533C24.4381 32.5941 24.2069 33.0573 24.3459 33.4972C24.4848 33.9372 24.9521 34.182 25.3909 34.0447C25.8298 33.9075 26.2274 33.6132 26.4875 33.2254L27.1915 33.5942C27.0232 34.0305 27.0068 34.5146 27.1493 34.9659C27.2919 35.4172 27.7556 35.6507 28.1944 35.5134C28.6333 35.3762 28.8759 34.9094 28.7369 34.4695C28.598 34.0296 28.3024 33.6303 27.9138 33.3683L28.2793 32.6651C28.7159 32.8354 29.1995 32.8539 29.6497 32.7131C30.1 32.5723 30.3312 32.1091 30.1923 31.6691C30.0533 31.2292 29.586 30.9844 29.1471 31.1217C28.7082 31.2588 28.3106 31.5532 28.0506 31.941L27.3466 31.5722ZM27.1052 32.0646L26.7515 32.7453L27.433 33.1024L27.7868 32.4216L27.1052 32.0646ZM28.554 32.1814C28.8541 32.2802 29.1799 32.2842 29.4842 32.1891C29.6345 32.1421 29.717 31.9833 29.6695 31.8327C29.6219 31.682 29.4629 31.5987 29.3126 31.6457C29.0081 31.7409 28.7434 31.9295 28.554 32.1814ZM27.6758 33.8712C27.5784 34.1713 27.5758 34.4974 27.6721 34.8024C27.7197 34.953 27.8786 35.0363 28.0289 34.9894C28.1792 34.9424 28.2617 34.7836 28.2142 34.6329C28.1177 34.3276 27.9282 34.0619 27.6758 33.8712ZM25.9841 32.985C25.684 32.8862 25.3582 32.8822 25.0539 32.9774C24.9036 33.0244 24.8211 33.1831 24.8686 33.3338C24.9162 33.4844 25.0752 33.5677 25.2254 33.5207C25.5301 33.4254 25.7947 33.2369 25.9841 32.985Z" fill="#FBAE17"/>
</g>
<path d="M56.1101 90.0182L87.3312 77.5654V41.8291L56.1334 50.6729L56.1101 90.0182Z" fill="#E8E8E8"/>
<path d="M83.1016 41.4823L92.0879 33.491L116.797 68.2842L107.812 76.2753L83.1016 41.4823Z" fill="white"/>
<path d="M56.156 90.019L21.3069 79.37V43.6343L56.1327 50.6732L56.156 90.019Z" fill="#F7F7F7"/>
<path d="M38.0966 86.5517C38.0966 86.5517 37.4501 85.3728 37.0874 83.7487C36.7246 82.1247 36.7246 80.184 35.2735 79.8235C33.8225 79.4622 28.9705 80.3646 28.9705 80.3646L29.7985 83.7941C29.7985 83.7941 34.0156 86.3204 38.0966 86.5517Z" fill="#8E5AD4"/>
<path d="M35.2732 79.8212C28.9248 80.5437 30.2852 87.2213 25.2064 90.7407C20.1276 94.2601 9.69795 97.2384 9.69795 97.2384L1.53564 94.3508C1.53564 94.3508 13.235 92.8167 18.5858 86.9507C23.9366 81.0848 24.0274 77.4754 25.8412 77.4754L35.2732 79.8212Z" fill="#AE72FF"/>
<path d="M76.8608 43.4424L56.1561 49.4104L32.6392 44.7278L32.9612 45.9906L56.1327 50.6739L76.7005 44.8436L76.8608 43.4424Z" fill="#EFF0F2"/>
<path d="M66.0928 86.0378C66.0928 86.0378 68.2066 87.9513 72.9906 88.336C78.2491 88.7584 84.66 85.7635 84.66 85.7635C84.66 85.7635 81.9979 90.2419 74.7743 82.5751L66.0928 86.0378Z" fill="#AE72FF"/>
<path d="M86.9059 74.2775C83.1039 74.0182 80.3758 87.5538 72.991 88.3352C78.7466 89.1559 86.3439 86.9212 88.7659 85.4748C91.1887 84.0291 98.0758 74.9259 98.0758 74.9259C96.1983 73.4519 89.6196 74.4625 86.9059 74.2775Z" fill="#8E5AD4"/>
<path d="M102.694 94.2707C102.694 94.2707 93.4533 74.3828 85.6875 74.6542C85.6875 74.6542 92.3559 71.4655 98.788 74.9259C103.252 77.3273 112.232 91.3898 112.232 91.3898L102.694 94.2707Z" fill="#AE72FF"/>
<path d="M71.9842 7.8433L71.4191 6.86942L68.4829 8.55625L69.048 9.53015L71.9842 7.8433Z" fill="#AE72FF"/>
<path d="M48.5715 13.5778L48.2585 14.6584L51.5165 15.5926L51.8295 14.512L48.5715 13.5778Z" fill="#E2D2FF"/>
<path d="M7.56135 38.1758L7.24829 39.2564L10.5062 40.1909L10.8193 39.1103L7.56135 38.1758Z" fill="#E2D2FF"/>
<path d="M107.215 13.8212L106.65 12.8473L103.714 14.5342L104.279 15.5081L107.215 13.8212Z" fill="#AE72FF"/>
<path d="M37.9163 2.47483L38.3422 1.43322L35.2018 0.161743L34.7759 1.20336L37.9163 2.47483Z" fill="#9EEC98"/>
<path d="M18.4841 15.1426L19.3828 15.8245L21.4385 13.1417L20.5398 12.4599L18.4841 15.1426Z" fill="#AE72FF"/>
<path d="M111.31 31.1087C111.81 31.1087 112.214 30.7059 112.214 30.2091C112.214 29.7122 111.81 29.3094 111.31 29.3094C110.811 29.3094 110.406 29.7122 110.406 30.2091C110.406 30.7059 110.811 31.1087 111.31 31.1087Z" fill="#E2D2FF"/>
<path d="M61.0247 1.28851C61.1395 0.804958 60.8386 0.320405 60.3526 0.206226C59.8666 0.0920476 59.3796 0.391482 59.2649 0.875029C59.1501 1.35857 59.451 1.84313 59.937 1.9573C60.423 2.07149 60.9099 1.77205 61.0247 1.28851Z" fill="#9EEC98"/>
<path d="M85.3412 9.63103L84.3098 11.4092H86.3726L85.3412 9.63103Z" fill="#E2D2FF"/>
</g>
<defs>
<filter id="filter0_i_11297_2183" x="34.6694" y="20.6128" width="4.33781" height="4.36917" filterUnits="userSpaceOnUse" color-interpolation-filters="sRGB">
<feFlood flood-opacity="0" result="BackgroundImageFix"/>
<feBlend mode="normal" in="SourceGraphic" in2="BackgroundImageFix" result="shape"/>
<feColorMatrix in="SourceAlpha" type="matrix" values="0 0 0 0 0 0 0 0 0 0 0 0 0 0 0 0 0 0 127 0" result="hardAlpha"/>
<feOffset dx="0.0362964" dy="0.0967904"/>
<feGaussianBlur stdDeviation="0.030247"/>
<feComposite in2="hardAlpha" operator="arithmetic" k2="-1" k3="1"/>
<feColorMatrix type="matrix" values="0 0 0 0 0.83451 0 0 0 0 0.55268 0 0 0 0 0 0 0 0 1 0"/>
<feBlend mode="normal" in2="shape" result="effect1_innerShadow_11297_2183"/>
</filter>
<filter id="filter1_i_11297_2183" x="42.9492" y="31.0157" width="22.9115" height="23.0858" filterUnits="userSpaceOnUse" color-interpolation-filters="sRGB">
<feFlood flood-opacity="0" result="BackgroundImageFix"/>
<feBlend mode="normal" in="SourceGraphic" in2="BackgroundImageFix" result="shape"/>
<feColorMatrix in="SourceAlpha" type="matrix" values="0 0 0 0 0 0 0 0 0 0 0 0 0 0 0 0 0 0 127 0" result="hardAlpha"/>
<feOffset dx="0.179573" dy="0.47886"/>
<feGaussianBlur stdDeviation="0.149644"/>
<feComposite in2="hardAlpha" operator="arithmetic" k2="-1" k3="1"/>
<feColorMatrix type="matrix" values="0 0 0 0 0.83451 0 0 0 0 0.55268 0 0 0 0 0 0 0 0 1 0"/>
<feBlend mode="normal" in2="shape" result="effect1_innerShadow_11297_2183"/>
</filter>
<filter id="filter2_i_11297_2183" x="24.3057" y="29.6138" width="5.97517" height="6.01942" filterUnits="userSpaceOnUse" color-interpolation-filters="sRGB">
<feFlood flood-opacity="0" result="BackgroundImageFix"/>
<feBlend mode="normal" in="SourceGraphic" in2="BackgroundImageFix" result="shape"/>
<feColorMatrix in="SourceAlpha" type="matrix" values="0 0 0 0 0 0 0 0 0 0 0 0 0 0 0 0 0 0 127 0" result="hardAlpha"/>
<feOffset dx="0.0484109" dy="0.129096"/>
<feGaussianBlur stdDeviation="0.0403424"/>
<feComposite in2="hardAlpha" operator="arithmetic" k2="-1" k3="1"/>
<feColorMatrix type="matrix" values="0 0 0 0 0.83451 0 0 0 0 0.55268 0 0 0 0 0 0 0 0 1 0"/>
<feBlend mode="normal" in2="shape" result="effect1_innerShadow_11297_2183"/>
</filter>
<clipPath id="clip0_11297_2183">
<rect width="120" height="99" fill="white"/>
</clipPath>
</defs>
</svg>
