<svg width="120" height="120" viewBox="0 0 120 120" fill="none" xmlns="http://www.w3.org/2000/svg">
<mask id="mask0_11297_2209" style="mask-type:luminance" maskUnits="userSpaceOnUse" x="0" y="9" width="120" height="102">
<path d="M120 9.60001H0V110.4H120V9.60001Z" fill="white"/>
</mask>
<g mask="url(#mask0_11297_2209)">
<path d="M60.0022 108.917C87.7168 108.917 110.184 86.6844 110.184 59.2586C110.184 31.8329 87.7168 9.60001 60.0022 9.60001C32.2874 9.60001 9.82031 31.8329 9.82031 59.2586C9.82031 86.6844 32.2874 108.917 60.0022 108.917Z" fill="#FBF9FF"/>
<path d="M108.232 107.642H12.6422V46.1809C12.6422 44.6511 13.8905 43.4109 15.4302 43.4109H105.444C106.984 43.4109 108.232 44.6511 108.232 46.1809V107.642Z" fill="#F8F5FF" stroke="#3C1C54" stroke-width="0.154416" stroke-miterlimit="10" stroke-linecap="round" stroke-linejoin="round"/>
<path d="M108.971 107.641H11.9062V45.5441C11.9062 43.9945 13.1705 42.7383 14.7301 42.7383H106.147C107.707 42.7383 108.971 43.9945 108.971 45.5441V107.641Z" fill="#F8F5FF" stroke="#3C1C54" stroke-width="0.154416" stroke-miterlimit="10" stroke-linecap="round" stroke-linejoin="round"/>
<path d="M106.452 46.7695H14.3203V104.193H106.452V46.7695Z" fill="#F8F5FF" stroke="#3C1C54" stroke-width="0.154416" stroke-miterlimit="10" stroke-linecap="round" stroke-linejoin="round"/>
<path d="M1.09216 107.655V108.356H48.8912C49.3622 108.356 49.8297 108.422 50.2881 108.531C50.342 108.544 50.3964 108.555 50.4512 108.565V107.656L1.09216 107.655Z" fill="#F8F5FF" stroke="#3C1C54" stroke-width="0.154416" stroke-miterlimit="10" stroke-linecap="round" stroke-linejoin="round"/>
<path d="M70.3081 107.655V108.565C70.1046 108.603 69.8976 108.622 69.6895 108.622H51.0702C50.8622 108.622 50.6551 108.603 50.4516 108.565V107.655H70.3081Z" fill="#F8F5FF" stroke="#3C1C54" stroke-width="0.154416" stroke-miterlimit="10" stroke-linecap="round" stroke-linejoin="round"/>
<path d="M49.1371 108.354C49.1371 108.354 50.0132 108.414 50.4514 108.559H70.3109C70.3109 108.559 70.8949 108.414 71.4791 108.354H119.576C119.592 108.354 119.595 108.377 119.58 108.382C115.439 109.656 111.129 110.304 106.793 110.304H60.3811H13.9692C9.63378 110.304 5.32308 109.656 1.18192 108.382C1.1663 108.377 1.1698 108.354 1.18617 108.354H49.1371Z" fill="white" stroke="#3C1C54" stroke-width="0.154416" stroke-miterlimit="10" stroke-linecap="round" stroke-linejoin="round"/>
<path d="M119.667 107.655V108.356H71.8677C71.3969 108.356 70.9293 108.422 70.4709 108.531C70.4169 108.544 70.3627 108.555 70.3077 108.565V107.656L119.667 107.655Z" fill="#F8F5FF" stroke="#3C1C54" stroke-width="0.154416" stroke-miterlimit="10" stroke-linecap="round" stroke-linejoin="round"/>
<path d="M94.6699 36.2203H26.0508C25.2314 36.2203 24.5672 36.8803 24.5672 37.6944V85.6195C24.5672 86.4336 25.2314 87.0935 26.0508 87.0935H94.6699C95.4892 87.0935 96.1534 86.4336 96.1534 85.6195V37.6944C96.1534 36.8803 95.4892 36.2203 94.6699 36.2203Z" fill="white" stroke="#3C1C54" stroke-width="0.16"/>
<path d="M26.0511 36.2203H94.6698C95.4891 36.2205 96.1538 36.8807 96.1538 37.6948V43.2432H24.5672V37.6948C24.5672 36.8807 25.2318 36.2203 26.0511 36.2203Z" fill="#D2B8FF" stroke="#3C1C54" stroke-width="0.16"/>
<path fill-rule="evenodd" clip-rule="evenodd" d="M90.9338 38.014C90.8255 38.014 90.7387 38.1001 90.7387 38.2078C90.7387 38.4262 90.8079 38.6375 90.9338 38.8128C91.0598 38.6375 91.1288 38.4262 91.1288 38.2078C91.1288 38.1001 91.0422 38.014 90.9338 38.014ZM91.194 39.0917C91.3941 38.8426 91.5056 38.5308 91.5056 38.2089C91.5056 37.8868 91.2497 37.6407 90.9338 37.6407C90.618 37.6407 90.3619 37.8949 90.3619 38.2089C90.3619 38.5225 90.4734 38.8426 90.6737 39.0917L90.2887 39.4743C90.0378 39.2753 89.7241 39.1645 89.4 39.1645C89.0759 39.1645 88.8281 39.4189 88.8281 39.7327C88.8281 40.0465 89.0841 40.3009 89.4 40.3009C89.7158 40.3009 90.0378 40.1902 90.2887 39.9911L90.6737 40.3737C90.4734 40.6229 90.3619 40.9347 90.3619 41.2566C90.3619 41.5787 90.618 41.8248 90.9338 41.8248C91.2497 41.8248 91.5056 41.5704 91.5056 41.2566C91.5056 40.9428 91.3941 40.6229 91.194 40.3737L91.5789 39.9911C91.8297 40.1902 92.1435 40.3009 92.4677 40.3009C92.7917 40.3009 93.0395 40.0465 93.0395 39.7327C93.0395 39.4189 92.7835 39.1645 92.4677 39.1645C92.1518 39.1645 91.8297 39.2753 91.5789 39.4743L91.194 39.0917ZM90.9338 39.3625L90.5612 39.7327L90.9338 40.1028L91.3064 39.7327L90.9338 39.3625ZM91.8596 39.7327C92.0361 39.8578 92.2488 39.9265 92.4687 39.9265C92.577 39.9265 92.6637 39.8404 92.6637 39.7327C92.6637 39.625 92.577 39.5389 92.4687 39.5389C92.2488 39.5389 92.0361 39.6076 91.8596 39.7327ZM90.9338 40.6527C90.8079 40.828 90.7387 41.0392 90.7387 41.2576C90.7387 41.3653 90.8255 41.4515 90.9338 41.4515C91.0422 41.4515 91.1288 41.3653 91.1288 41.2576C91.1288 41.0392 91.0598 40.828 90.9338 40.6527ZM90.0079 39.7327C89.8314 39.6076 89.6187 39.5389 89.399 39.5389C89.2905 39.5389 89.2038 39.625 89.2038 39.7327C89.2038 39.8404 89.2905 39.9265 89.399 39.9265C89.6187 39.9265 89.8314 39.8578 90.0079 39.7327Z" fill="#C5A9F5"/>
<path d="M29.1119 40.9878C29.8095 40.9878 30.3752 40.4259 30.3752 39.7326C30.3752 39.0394 29.8095 38.4774 29.1119 38.4774C28.4141 38.4774 27.8484 39.0394 27.8484 39.7326C27.8484 40.4259 28.4141 40.9878 29.1119 40.9878Z" fill="#E2D2FF"/>
<path d="M32.4822 40.9878C33.1798 40.9878 33.7455 40.4259 33.7455 39.7326C33.7455 39.0394 33.1798 38.4774 32.4822 38.4774C31.7844 38.4774 31.2187 39.0394 31.2187 39.7326C31.2187 40.4259 31.7844 40.9878 32.4822 40.9878Z" fill="#E2D2FF"/>
<path d="M35.8524 40.9878C36.5502 40.9878 37.1158 40.4259 37.1158 39.7326C37.1158 39.0394 36.5502 38.4774 35.8524 38.4774C35.1547 38.4774 34.589 39.0394 34.589 39.7326C34.589 40.4259 35.1547 40.9878 35.8524 40.9878Z" fill="#E2D2FF"/>
<path d="M65.3455 85.4509C65.3455 93.0401 60.5047 99.1923 60.5047 99.1923C60.5047 99.1923 55.664 93.0401 55.664 85.4509C55.664 77.8617 57.8313 71.7094 60.5047 71.7094C63.178 71.7094 65.3455 77.8617 65.3455 85.4509Z" fill="#E8D7FF"/>
<path d="M63.9623 79.5412C63.9623 86.5993 60.3662 92.3208 60.3662 92.3208C60.3662 92.3208 56.7703 86.5993 56.7703 79.5412C56.7703 72.4833 58.3802 66.7618 60.3662 66.7618C62.3524 66.7618 63.9623 72.4833 63.9623 79.5412Z" fill="#F2E9FF"/>
<path d="M44.9448 81.754L44.9427 81.7561L44.9384 81.7656C44.8831 81.873 44.8069 81.9523 44.7211 82.0058L44.72 82.0069C44.5226 82.1326 44.2583 82.1369 44.0297 82.0344C43.8026 81.9325 43.6199 81.7288 43.5811 81.4501C43.2401 79.0055 42.7874 74.7824 42.7874 69.608C42.7875 65.0849 44.5386 60.7524 46.2936 57.5467C47.1705 55.9448 48.0468 54.6257 48.7044 53.7077C49.0333 53.2487 49.3075 52.8899 49.4991 52.646C49.5947 52.5245 49.6695 52.4312 49.7208 52.3687L59.2949 68.467C59.2371 68.465 59.1648 68.4624 59.0787 68.4628C58.8327 68.4637 58.4749 68.4791 58.0251 68.5346C57.125 68.646 55.8555 68.9194 54.3763 69.571C53.7876 69.8304 53.1661 70.1494 52.5216 70.5416C47.628 73.516 46.4475 78.5735 44.9511 81.7391C44.9496 81.7424 44.948 81.7462 44.9469 81.7486C44.9459 81.7508 44.9448 81.754 44.9448 81.754Z" fill="#F8F5FF" stroke="#3C1C54" stroke-width="0.16"/>
<path d="M71.2619 52.646C71.4535 52.8899 71.7279 53.2488 72.0567 53.7077C72.7143 54.6258 73.5917 55.9447 74.4686 57.5467C76.2236 60.7526 77.9736 65.0861 77.9736 69.609C77.9733 74.7832 77.5206 79.0066 77.1799 81.4512C77.1319 81.7944 76.8641 82.0252 76.5653 82.0895C76.2678 82.1532 75.9566 82.0493 75.8109 81.7412C74.3138 78.5758 73.1348 73.5164 68.2395 70.5416C66.296 69.3605 64.5642 68.844 63.3165 68.6226C62.6933 68.512 62.1907 68.475 61.8433 68.4659C61.6847 68.4618 61.5579 68.4629 61.4672 68.4659L71.0403 52.3687C71.0915 52.4312 71.1663 52.5244 71.2619 52.646Z" fill="#F8F5FF" stroke="#3C1C54" stroke-width="0.16"/>
<path d="M54.4105 69.6512C53.825 69.9092 53.2071 70.2256 52.5659 70.6158C47.7001 73.573 46.5349 78.5922 45.0281 81.7788C45.0235 81.7879 45.0198 81.7973 45.0141 81.8056C44.9556 81.925 44.8734 82.0174 44.7656 82.0802C44.7656 82.0802 45.3654 78.3347 46.6848 75.0481C48.6372 70.185 52.5357 67.6148 52.5357 67.6148L54.4105 69.6512Z" fill="#E8D7FF"/>
<path d="M66.3516 69.6512C66.9369 69.9092 67.5549 70.2256 68.1961 70.6158C73.062 73.573 74.2272 78.5922 75.7339 81.7788C75.7386 81.788 75.7423 81.7973 75.7478 81.8056C75.801 81.9134 75.8844 82.0049 75.9964 82.0802C75.9964 82.0802 75.3967 78.3347 74.0773 75.0481C72.1249 70.185 68.2263 67.6148 68.2263 67.6148L66.3516 69.6512Z" fill="#E8D7FF"/>
<path d="M60.456 9.78215C60.5504 9.85746 60.6902 9.97158 60.8672 10.1251C61.2211 10.4321 61.7274 10.8977 62.3353 11.5307C63.5514 12.7973 65.1748 14.7341 66.798 17.4137C70.044 22.7724 73.2923 31.1037 73.2923 42.9852C73.2923 57.0297 70.0423 65.3585 66.8002 70.173C65.1788 72.5805 63.5579 74.11 62.3449 75.0377C61.7383 75.5017 61.2335 75.8155 60.881 76.0126C60.7049 76.1111 60.5666 76.1807 60.473 76.2253C60.4264 76.2477 60.3902 76.2625 60.3665 76.273C60.3426 76.2606 60.3071 76.2423 60.261 76.2168C60.1672 76.165 60.0292 76.0847 59.853 75.9733C59.5001 75.7505 58.9942 75.4008 58.3871 74.8971C57.1732 73.8893 55.5524 72.2634 53.9308 69.792C50.6876 64.8492 47.4374 56.5197 47.4374 42.9852C47.4374 31.1037 50.6858 22.7724 53.9318 17.4137C55.555 14.7341 57.1783 12.7973 58.3946 11.5307C59.0024 10.8977 59.5086 10.4321 59.8626 10.1251C60.0396 9.97158 60.1794 9.85746 60.2738 9.78215C60.3113 9.75226 60.3413 9.72796 60.3643 9.71017C60.3875 9.72802 60.4181 9.75198 60.456 9.78215Z" fill="#F8F5FF" stroke="#3C1C54" stroke-width="0.16"/>
<path d="M60.5069 9.82108C60.6338 9.92369 60.8198 10.0794 61.0545 10.2889C61.5242 10.7081 62.1895 11.345 62.97 12.2133C64.5311 13.95 66.5538 16.6141 68.3936 20.319L68.4032 20.338C68.4938 20.5209 68.5841 20.706 68.6738 20.8937L68.9412 21.4632L68.9711 21.5289C63.2706 20.1691 57.5322 20.1881 51.7593 21.5309C51.9301 21.1575 52.1024 20.7933 52.2782 20.4385L52.2804 20.4343C54.1257 16.6889 56.162 13.9962 57.7361 12.2407C58.5229 11.363 59.1943 10.719 59.6684 10.2953C59.9054 10.0836 60.0932 9.9269 60.2214 9.82321C60.2839 9.77266 60.3312 9.73334 60.3641 9.70782C60.3968 9.73304 60.4447 9.77083 60.5069 9.82108Z" fill="#D2B8FF" stroke="#3C1C54" stroke-width="0.16"/>
<path d="M60.0216 19.3898C63.9716 19.3879 67.9616 20.2576 68.4154 20.3584L68.9705 21.5311C63.2717 20.1726 57.5352 20.192 51.764 21.5344L52.2679 20.4706L52.2722 20.4695C52.3006 20.4616 52.3429 20.4505 52.398 20.4356C52.5082 20.4059 52.6702 20.3628 52.8773 20.3118C53.2921 20.2096 53.8879 20.0736 54.6096 19.937C56.0538 19.6639 58.0025 19.3908 60.0216 19.3898Z" fill="#D2B8FF" stroke="#3C1C54" stroke-width="0.16"/>
<path d="M63.0668 64.7537C63.0613 65.9548 63.0362 67.1561 62.984 68.3572C62.8798 70.7605 62.6863 73.1628 62.3671 75.5652C62.2078 76.7674 62.0169 77.9687 61.7843 79.1698C61.7257 79.4704 61.6652 79.7709 61.601 80.0705L61.3989 80.9721C61.2547 81.5722 61.1031 82.1732 60.9151 82.7734C60.821 83.0758 60.4981 83.244 60.1939 83.1508C60.0077 83.0924 59.87 82.9463 59.815 82.7734C59.6271 82.1732 59.4764 81.5722 59.332 80.9721L59.129 80.0705C59.0657 79.7709 59.0043 79.4704 58.9457 79.1698C58.714 77.9687 58.5231 76.7674 58.3629 75.5652C58.0438 73.1628 57.8511 70.7604 57.747 68.3572C57.6939 67.1561 57.6697 65.9548 57.6632 64.7537C57.6575 64.2553 57.6621 63.7569 57.6788 63.2585C57.6815 63.1558 57.6855 63.054 57.6891 62.9514C57.7143 62.3513 57.7599 61.7501 57.8231 61.1491C57.9507 59.9479 58.1574 58.7466 58.4701 57.5455C58.6266 56.9443 58.8089 56.3443 59.0265 55.7433C59.1374 55.4427 59.2537 55.1431 59.3867 54.8425L59.4853 54.6169L59.5924 54.3922C59.6641 54.2415 59.7413 54.0917 59.8269 53.941C59.9954 53.6459 60.3724 53.5424 60.6703 53.7097C60.7707 53.7662 60.8499 53.8485 60.9029 53.941C60.9884 54.0917 61.0657 54.2415 61.1384 54.3922L61.2446 54.6169L61.3441 54.8425C61.4771 55.1431 61.5936 55.4427 61.7035 55.7433C61.922 56.3443 62.1037 56.9443 62.2599 57.5455C62.5726 58.7466 62.7793 59.9479 62.9068 61.1491C62.9701 61.7501 63.0157 62.3513 63.0418 62.9514C63.0454 63.0475 63.0491 63.1446 63.0521 63.2407C63.0668 63.7447 63.0723 64.2487 63.0668 64.7537Z" fill="#E8D7FF"/>
<path d="M59.9058 53.9831C60.0506 53.7302 60.3744 53.6414 60.6302 53.7852C60.7158 53.8334 60.7839 53.9039 60.8294 53.9831C60.8716 54.0577 60.9122 54.132 60.9508 54.2065L61.0616 54.4298L61.1671 54.651L61.2662 54.8776C61.3983 55.1758 61.5147 55.4736 61.6242 55.773C61.8417 56.371 62.0224 56.9684 62.1782 57.5671C62.4897 58.7636 62.6955 59.9611 62.8227 61.1585C62.8542 61.4581 62.8812 61.7578 62.9036 62.057L62.9569 62.9548C62.9602 63.0511 62.9637 63.147 62.9665 63.2426C62.9524 63.987 62.9308 64.7318 62.8983 65.477C62.7952 67.877 62.6013 70.2767 62.2826 72.6768C62.1633 73.5764 62.026 74.4763 61.867 75.3758L61.7008 76.2755C61.6424 76.5754 61.5808 76.8751 61.5176 77.1742L61.3162 78.0739C61.172 78.6736 61.0208 79.273 60.8336 79.8712C60.7638 80.0945 60.5456 80.2321 60.3192 80.2099L60.2222 80.1898C60.1039 80.1528 60.0085 80.0738 59.9484 79.9748L59.9005 79.8701C59.7135 79.2724 59.5618 78.6742 59.4178 78.075L59.2165 77.1742L59.0332 76.2755C58.8019 75.0762 58.6106 73.8764 58.4516 72.6768C58.1329 70.2766 57.94 67.877 57.8368 65.477C57.8044 64.7384 57.7816 63.9992 57.7687 63.2606C57.7714 63.1585 57.7746 63.0565 57.7783 62.9537C57.8034 62.3561 57.8494 61.7574 57.9124 61.1585C58.0396 59.961 58.2454 58.7636 58.557 57.5671C58.7128 56.9686 58.8944 56.3711 59.111 55.773C59.2215 55.4735 59.337 55.1758 59.469 54.8776L59.567 54.6542L59.6736 54.4288C59.7442 54.2798 59.8213 54.1319 59.9058 53.9831Z" fill="#F8F5FF" stroke="#3C1C54" stroke-width="0.16"/>
<path d="M60.3687 44.4143C64.4454 44.4143 67.7501 41.1308 67.7501 37.0806C67.7501 33.0302 64.4454 29.7469 60.3687 29.7469C56.2922 29.7469 52.9874 33.0302 52.9874 37.0806C52.9874 41.1308 56.2922 44.4143 60.3687 44.4143Z" fill="#D2B8FF" fill-opacity="0.12" stroke="#E8D7FF" stroke-width="0.16"/>
<g opacity="0.21">
<path fill-rule="evenodd" clip-rule="evenodd" d="M58.5307 37.0585C58.2031 36.826 57.8081 36.6984 57.4007 36.6984C57.1997 36.6984 57.0382 36.8588 57.0382 37.0585C57.0382 37.2583 57.1997 37.4188 57.4007 37.4188C57.8081 37.4188 58.2031 37.2912 58.5307 37.0585ZM60.2494 38.7664C60.0154 39.0918 59.8869 39.4841 59.8869 39.8887C59.8869 40.0885 60.0484 40.2491 60.2494 40.2491C60.4504 40.2491 60.6119 40.0885 60.6119 39.8887C60.6119 39.4841 60.4834 39.0918 60.2494 38.7664ZM61.9682 37.0585C62.2958 37.2912 62.6906 37.4188 63.0981 37.4188C63.299 37.4188 63.4606 37.2583 63.4606 37.0585C63.4606 36.8588 63.299 36.6984 63.0981 36.6984C62.6906 36.6984 62.2958 36.826 61.9682 37.0585ZM60.2494 36.3707L59.557 37.0585L60.2494 37.7465L60.9418 37.0585L60.2494 36.3707ZM60.7324 35.8678C61.1049 35.4048 61.3112 34.8268 61.3112 34.2283C61.3112 33.63 60.8365 33.1734 60.2494 33.1734C59.6623 33.1734 59.1877 33.645 59.1877 34.2283C59.1877 34.8118 59.394 35.4048 59.7664 35.8678L59.0512 36.5783C58.5853 36.2083 58.0035 36.0034 57.4012 36.0034C56.7988 36.0034 56.339 36.4752 56.339 37.0585C56.339 37.642 56.8137 38.1136 57.4007 38.1136C57.9879 38.1136 58.585 37.9085 59.0509 37.5385L59.7659 38.249C59.3937 38.7119 59.1873 39.29 59.1873 39.8885C59.1873 40.4868 59.6619 40.9434 60.2491 40.9434C60.8362 40.9434 61.3108 40.4718 61.3108 39.8885C61.3108 39.3052 61.1044 38.7119 60.732 38.249L61.4472 37.5385C61.9131 37.9085 62.4949 38.1136 63.0973 38.1136C63.6995 38.1136 64.159 37.642 64.159 37.0585C64.159 36.4752 63.6844 36.0036 63.0973 36.0036C62.5102 36.0036 61.9131 36.2087 61.4472 36.5788L60.7324 35.8678ZM60.2494 33.8682C60.0484 33.8682 59.8869 34.0286 59.8869 34.2283C59.8869 34.6331 60.0154 35.0255 60.2494 35.3508C60.4834 35.0255 60.6119 34.6331 60.6119 34.2283C60.6119 34.0286 60.4504 33.8682 60.2494 33.8682Z" fill="#AE72FF"/>
</g>
</g>
</svg>
