<svg width="158" height="131" viewBox="0 0 158 131" fill="none" xmlns="http://www.w3.org/2000/svg">
<mask id="mask0_507_32795" style="mask-type:luminance" maskUnits="userSpaceOnUse" x="43" y="24" width="11" height="12">
<path d="M43.7488 27.9938C42.5772 30.5942 43.7355 33.6521 46.336 34.8237C48.9365 35.9953 51.9944 34.8369 53.166 32.2365C54.3376 29.636 53.1792 26.5781 50.5787 25.4065C47.9782 24.2349 44.9204 25.3933 43.7488 27.9938Z" fill="white"/>
</mask>
<g mask="url(#mask0_507_32795)">
<path d="M55.2878 27.5279L45.8706 23.2852L41.6279 32.7024L51.0451 36.9451L55.2878 27.5279Z" fill="#FFE200"/>
</g>
<path d="M44.5688 28.3664C43.601 30.5146 44.5579 33.0407 46.7061 34.0085C48.8544 34.9764 51.3805 34.0195 52.3483 31.8712C53.3162 29.723 52.3593 27.1968 50.211 26.229C48.0628 25.2611 45.5367 26.2181 44.5688 28.3664Z" fill="#FBAE17"/>
<path d="M44.7012 28.4254C43.7663 30.5005 44.6907 32.9406 46.7658 33.8755C48.841 34.8105 51.2811 33.8861 52.216 31.811C53.1509 29.7358 52.2266 27.2957 50.1514 26.3608C48.0763 25.4259 45.6361 26.3502 44.7012 28.4254Z" fill="#FFC40D"/>
<g filter="url(#filter0_i_507_32795)">
<path fill-rule="evenodd" clip-rule="evenodd" d="M49.5077 27.8449C49.3659 27.781 49.2003 27.8444 49.1359 27.9873C49.0055 28.2767 48.9698 28.5981 49.03 28.905C49.2998 28.7468 49.517 28.5069 49.6473 28.2176C49.7117 28.0748 49.6494 27.9087 49.5077 27.8449ZM49.2042 29.4283C49.6162 29.2156 49.9478 28.8678 50.1406 28.4399C50.3333 28.0119 50.1458 27.5346 49.7315 27.348C49.3172 27.1613 48.8306 27.3479 48.6427 27.765C48.4548 28.1821 48.4092 28.6721 48.5227 29.1213L47.7893 29.4022C47.5798 28.9893 47.2356 28.6581 46.8108 28.4667C46.386 28.2753 45.9099 28.4666 45.7219 28.8838C45.534 29.3009 45.7169 29.7891 46.131 29.9756C46.545 30.1622 47.0323 30.2053 47.48 30.0887L47.7555 30.8242C47.3434 31.037 47.0119 31.3848 46.8191 31.8127C46.6263 32.2406 46.8141 32.718 47.2281 32.9046C47.6422 33.0911 48.129 32.9046 48.317 32.4875C48.5049 32.0704 48.5505 31.5805 48.437 31.1313L49.1704 30.8503C49.3799 31.2632 49.7241 31.5945 50.1489 31.7858C50.5737 31.9772 51.0498 31.7859 51.2377 31.3688C51.4257 30.9517 51.2428 30.4635 50.8287 30.2769C50.4147 30.0904 49.9274 30.0473 49.4797 30.1638L49.2042 29.4283ZM48.7014 29.6345L47.9913 29.9065L48.2581 30.6185L48.9681 30.3466L48.7014 29.6345ZM49.6921 30.6724C49.8481 30.9427 50.0857 31.1596 50.3728 31.289C50.5145 31.3528 50.6802 31.2894 50.7445 31.1466C50.8088 31.0038 50.7466 30.8377 50.6049 30.7738C50.3175 30.6443 49.9979 30.6102 49.6921 30.6724ZM47.9296 31.3475C47.6598 31.5058 47.4427 31.7457 47.3124 32.0349C47.248 32.1777 47.3102 32.3438 47.452 32.4077C47.5938 32.4716 47.7594 32.4081 47.8237 32.2653C47.9541 31.9758 47.9898 31.6545 47.9296 31.3475ZM47.2676 29.5801C47.1115 29.3098 46.874 29.0929 46.5869 28.9636C46.4451 28.8997 46.2795 28.9632 46.2152 29.106C46.1508 29.2488 46.213 29.4149 46.3548 29.4788C46.6422 29.6082 46.9618 29.6423 47.2676 29.5801Z" fill="#FBAE17"/>
</g>
<g opacity="0.5">
<path opacity="0.6" d="M158 92.8979L141.951 100.93L107.184 88.4284L120.659 81.6738L158 92.8979Z" fill="#434343"/>
<path opacity="0.6" d="M37.4611 94.3049C37.4611 94.3049 30.813 93.8764 24.2329 92.5614C19.1711 91.5499 16.3393 90.2891 10.4315 90.2891C4.92993 90.2891 0 92.4998 0 92.4998C0 92.4998 15.5026 94.5275 21.5543 97.465C29.7153 101.426 34.627 100.181 34.627 100.181L37.4611 94.3049Z" fill="#434343"/>
<path opacity="0.6" d="M79.3212 89.5703L125.847 104.005L73.8558 119.54C73.8558 119.54 63.1988 116.717 59.1089 115.855C55.0189 114.992 42.402 113.257 38.6304 118.243C33.8971 124.5 13.2681 130.855 13.2681 130.855L3.11719 126.843L22.5113 121.503L30.3667 110.39L33.8368 95.1395L79.3212 89.5703Z" fill="#434343"/>
<path opacity="0.6" d="M135.612 127.284C135.612 127.284 118.985 120.267 109.417 119.948C99.8486 119.629 85.6995 115.594 85.6995 115.594L99.2455 113.104C99.2455 113.104 120.304 116.942 147.772 120.93L135.612 127.284Z" fill="#434343"/>
</g>
<path d="M29.4082 77.512C29.4082 77.512 19.9483 76.3407 12.6525 82.9895L3.11743 79.4847C3.11743 79.4847 9.99736 71.9366 16.3991 72.7968C22.8009 73.6571 29.4082 77.512 29.4082 77.512Z" fill="#8E5AD4"/>
<path d="M42.9225 100.817L33.606 99.0912C33.606 99.0912 27.1314 93.3523 24.7712 83.5274C22.411 73.7026 16.3984 72.7988 16.3984 72.7988C16.3984 72.7988 26.8061 74.6092 29.4075 77.514C32.0089 80.4187 32.3762 83.0066 33.3199 86.6697C34.92 92.881 42.9225 100.817 42.9225 100.817Z" fill="#AE72FF"/>
<path d="M113.256 50.2256L141.952 100.928L105.633 84.3066L85.5528 59.9565L80.645 41.8984L93.434 43.1065L113.256 50.2256Z" fill="#8C8C8C"/>
<path d="M150.99 69.8691C150.99 69.8691 147.169 66.645 143.467 67.0032C139.765 67.3614 137.496 68.4223 137.496 68.4223L132.839 61.6297C132.839 61.6297 145.616 58.6444 149.199 63.3015C152.781 67.9585 150.99 69.8691 150.99 69.8691Z" fill="#8E5AD4"/>
<path d="M139.251 63.7812C139.251 63.7812 140.898 64.2934 141.878 65.5028C142.857 66.7123 144.883 69.0784 144.989 73.4221C145.095 77.7658 141.917 80.7322 139.692 81.6858L135.017 74.7994C135.017 74.7994 141.144 72.2999 141.298 70.003C141.586 65.7147 139.251 63.7812 139.251 63.7812Z" fill="#AE72FF"/>
<path d="M118.257 40.336C118.257 40.336 113.869 35.4813 109.368 35.6018C104.867 35.7224 103.629 38.1979 102.729 41.0111C101.828 43.8242 108.13 45.9299 108.13 45.9299L108.017 42.5865C108.017 42.5865 112.856 41.9113 114.769 42.2489C116.682 42.5865 118.257 40.336 118.257 40.336Z" fill="#8E5AD4"/>
<path d="M134.153 47.0602L136.542 42.642L124.003 32.8503C124.003 32.8503 120.779 32.492 117.675 36.4326C114.57 40.3732 113.256 44.5526 113.256 44.5526L126.392 54.7619L134.153 47.0602Z" fill="#AE72FF"/>
<path d="M136.541 42.6428C136.541 42.6428 137.855 45.8669 135.347 50.4045C132.84 54.9422 131.407 58.0468 131.407 58.0468L126.869 52.3151C126.869 52.3151 130.809 40.6128 136.541 42.6428Z" fill="#8E5AD4"/>
<path d="M109.417 54.8895L121.249 44.3153L91.8651 32.7324L80.645 41.8994L109.417 54.8895Z" fill="#EFF0F2"/>
<path d="M28.0542 57.7399L70.2065 48.4258L114.986 55.3516L73.9082 67.054L28.0542 57.7399Z" fill="#F0F0F0"/>
<path d="M35.8557 57.7381L70.4422 50.0957L107.184 55.7785L73.4796 65.3804L35.8557 57.7381Z" fill="#828282"/>
<path d="M45.6082 111.952L52.952 110.877L56.4929 113.759C56.4929 113.759 54.4754 114.579 50.9971 114.579C47.5187 114.579 45.6082 111.952 45.6082 111.952Z" fill="#AE72FF"/>
<mask id="mask1_507_32795" style="mask-type:luminance" maskUnits="userSpaceOnUse" x="45" y="30" width="52" height="52">
<path d="M45.8496 56.1226C45.8496 70.2336 57.289 81.673 71.3999 81.673C85.511 81.673 96.9503 70.2336 96.9503 56.1226C96.9503 42.0114 85.511 30.5723 71.3999 30.5723C57.2889 30.5723 45.8496 42.0114 45.8496 56.1226Z" fill="white"/>
</mask>
<g mask="url(#mask1_507_32795)">
<path d="M96.9511 30.5723H45.8503V81.673H96.9511V30.5723Z" fill="#FFE200"/>
</g>
<path d="M50.2954 56.1209C50.2954 67.7779 59.7452 77.2279 71.4023 77.2279C83.0595 77.2279 92.5095 67.7779 92.5095 56.1209C92.5095 44.4636 83.0595 35.0137 71.4023 35.0137C59.7452 35.0136 50.2954 44.4636 50.2954 56.1209Z" fill="#FBAE17"/>
<path d="M51.0122 56.1213C51.0122 67.3816 60.1405 76.5099 71.4009 76.5099C82.6613 76.5099 91.7896 67.3816 91.7896 56.1213C91.7896 44.8609 82.6613 35.7324 71.4009 35.7324C60.1405 35.7324 51.0122 44.8608 51.0122 56.1213Z" fill="#FFC40D"/>
<g filter="url(#filter1_i_507_32795)">
<path fill-rule="evenodd" clip-rule="evenodd" d="M71.515 43.7373C70.7458 43.7373 70.1276 44.36 70.1276 45.135C70.1276 46.7058 70.6196 48.2278 71.515 49.4901C72.4104 48.2278 72.9025 46.7044 72.9025 45.135C72.9025 44.36 72.2843 43.7373 71.515 43.7373ZM73.364 51.4965C74.7903 49.6995 75.5789 47.457 75.5789 45.135C75.5789 42.8129 73.7632 41.041 71.515 41.041C69.2668 41.041 67.4511 42.8716 67.4511 45.135C67.4511 47.3984 68.2412 49.7009 69.666 51.4965L66.9286 54.2543C65.1447 52.8175 62.9187 52.023 60.6137 52.023C58.3087 52.023 56.5498 53.8535 56.5498 56.1169C56.5498 58.3803 58.3669 60.2109 60.6137 60.2109C62.8605 60.2109 65.1461 59.415 66.9286 57.9796L69.666 60.7373C68.2398 62.5343 67.4511 64.7768 67.4511 67.0989C67.4511 69.4209 69.2682 71.1928 71.515 71.1928C73.7618 71.1928 75.5789 69.3623 75.5789 67.0989C75.5789 64.8355 74.7889 62.5329 73.364 60.7373L76.1015 57.9796C77.8853 59.4164 80.1113 60.2109 82.4163 60.2109C84.7213 60.2109 86.4802 58.3803 86.4802 56.1169C86.4802 53.8535 84.6631 52.023 82.4163 52.023C80.1695 52.023 77.8839 52.8189 76.1015 54.2543L73.364 51.4965ZM71.515 53.4486L68.8649 56.1183L71.515 58.7881L74.1652 56.1183L71.515 53.4486ZM78.0932 56.1169C79.3462 57.0189 80.8584 57.5146 82.4163 57.5146C83.1856 57.5146 83.8038 56.8919 83.8038 56.1169C83.8038 55.342 83.1856 54.7192 82.4163 54.7192C80.857 54.7192 79.3462 55.2149 78.0932 56.1169ZM71.515 62.7438C70.6196 64.006 70.1276 65.5294 70.1276 67.0989C70.1276 67.8738 70.7458 68.4966 71.515 68.4966C72.2843 68.4966 72.9025 67.8738 72.9025 67.0989C72.9025 65.528 72.4104 64.006 71.515 62.7438ZM64.9368 56.1169C63.6838 55.2149 62.1716 54.7192 60.6137 54.7192C59.8445 54.7192 59.2263 55.342 59.2263 56.1169C59.2263 56.8919 59.8445 57.5146 60.6137 57.5146C62.173 57.5146 63.6838 57.0189 64.9368 56.1169Z" fill="#FBAE17"/>
</g>
<mask id="mask2_507_32795" style="mask-type:luminance" maskUnits="userSpaceOnUse" x="28" y="36" width="15" height="15">
<path d="M29.3055 45.1924C30.4459 48.8216 34.3126 50.8392 37.9418 49.6987C41.571 48.5582 43.5885 44.6916 42.4481 41.0624C41.3076 37.4331 37.441 35.4156 33.8118 36.5561C30.1826 37.6966 28.165 41.5631 29.3055 45.1924Z" fill="white"/>
</mask>
<g mask="url(#mask2_507_32795)">
<path d="M40.3828 34.4911L27.2402 38.6211L31.3702 51.7637L44.5128 47.6337L40.3828 34.4911Z" fill="#FFE200"/>
</g>
<path d="M30.4474 44.8309C31.3895 47.829 34.5836 49.4957 37.5817 48.5536C40.5798 47.6114 42.2465 44.4172 41.3044 41.4191C40.3622 38.421 37.168 36.7543 34.1699 37.6965C31.1718 38.6386 29.5052 41.8328 30.4474 44.8309Z" fill="#FBAE17"/>
<path d="M30.632 44.7731C31.542 47.6692 34.6275 49.2791 37.5236 48.369C40.4196 47.459 42.0296 44.3735 41.1195 41.4774C40.2094 38.5814 37.124 36.9714 34.2279 37.8815C31.3318 38.7915 29.7219 41.877 30.632 44.7731Z" fill="#FFC40D"/>
<g filter="url(#filter2_i_507_32795)">
<path fill-rule="evenodd" clip-rule="evenodd" d="M34.9037 39.9312C34.7059 39.9934 34.5972 40.2035 34.6599 40.4028C34.7868 40.8068 35.0364 41.1585 35.3687 41.4108C35.4969 41.0138 35.5004 40.5822 35.3735 40.1786C35.3109 39.9793 35.1016 39.869 34.9037 39.9312ZM36.0064 41.7774C36.228 41.1999 36.2496 40.5595 36.0619 39.9622C35.8742 39.365 35.264 39.0561 34.6858 39.2378C34.1076 39.4195 33.7886 40.037 33.9715 40.6191C34.1544 41.2013 34.5437 41.7296 35.0553 42.0763L34.5741 43.0068C33.9992 42.7814 33.3625 42.757 32.7697 42.9433C32.1769 43.1296 31.8724 43.7425 32.0554 44.3246C32.2383 44.9068 32.8536 45.2307 33.4314 45.0491C34.0093 44.8675 34.5328 44.4781 34.8752 43.9649L35.8021 44.4529C35.5806 45.0303 35.559 45.6708 35.7466 46.268C35.9343 46.8652 36.5449 47.1741 37.1227 46.9925C37.7006 46.8109 38.02 46.1933 37.837 45.6111C37.6541 45.029 37.2648 44.5007 36.7532 44.154L37.2344 43.2235C37.8093 43.4489 38.446 43.4733 39.0388 43.287C39.6317 43.1007 39.9361 42.4878 39.7532 41.9056C39.5702 41.3235 38.9549 40.9996 38.3771 41.1812C37.7992 41.3627 37.2757 41.7522 36.9333 42.2654L36.0064 41.7774ZM35.6886 42.4289L35.2228 43.3297L36.1201 43.8021L36.586 42.9013L35.6886 42.4289ZM37.5961 42.5835C37.9913 42.7142 38.4202 42.7195 38.8209 42.5936C39.0188 42.5314 39.1274 42.3213 39.0648 42.122C39.0022 41.9226 38.7929 41.8124 38.595 41.8746C38.194 42.0006 37.8455 42.2502 37.5961 42.5835ZM36.4398 44.8195C36.3116 45.2165 36.3081 45.6481 36.435 46.0517C36.4976 46.251 36.7069 46.3612 36.9048 46.2991C37.1026 46.2369 37.2113 46.0268 37.1487 45.8274C37.0217 45.4234 36.7722 45.0718 36.4398 44.8195ZM34.2124 43.6468C33.8173 43.5161 33.3883 43.5108 32.9876 43.6367C32.7897 43.6989 32.6811 43.909 32.7437 44.1083C32.8064 44.3076 33.0157 44.4178 33.2135 44.3557C33.6146 44.2296 33.9631 43.9801 34.2124 43.6468Z" fill="#FBAE17"/>
</g>
<path d="M73.8782 119.115L114.986 102.637V55.3496L73.9089 67.052L73.8782 119.115Z" fill="#E8E8E8"/>
<path d="M109.417 54.8907L121.249 44.3164L153.783 90.3558L141.952 100.93L109.417 54.8907Z" fill="white"/>
<path d="M73.9389 119.116L28.0542 105.025V57.7383L73.9082 67.0524L73.9389 119.116Z" fill="#F7F7F7"/>
<path d="M50.1604 114.528C50.1604 114.528 49.3092 112.968 48.8316 110.819C48.3539 108.67 48.3539 106.102 46.4433 105.625C44.5328 105.147 38.1443 106.341 38.1443 106.341L39.2345 110.879C39.2345 110.879 44.7871 114.222 50.1604 114.528Z" fill="#8E5AD4"/>
<path d="M46.4431 105.622C38.0843 106.578 39.8755 115.414 33.1885 120.071C26.5014 124.728 12.769 128.669 12.769 128.669L2.02197 124.848C2.02197 124.848 17.4261 122.818 24.4713 115.056C31.5166 107.294 31.6361 102.518 34.0243 102.518L46.4431 105.622Z" fill="#AE72FF"/>
<path d="M101.2 57.4844L73.9389 65.3815L42.9749 59.1853L43.3989 60.8562L73.9081 67.0533L100.989 59.3385L101.2 57.4844Z" fill="#EFF0F2"/>
<path d="M87.0222 113.848C87.0222 113.848 89.8054 116.38 96.1043 116.889C103.028 117.448 111.469 113.485 111.469 113.485C111.469 113.485 107.964 119.411 98.4529 109.266L87.0222 113.848Z" fill="#AE72FF"/>
<path d="M114.426 98.2864C109.42 97.9433 105.828 115.854 96.1047 116.888C103.683 117.974 113.686 115.017 116.875 113.103C120.065 111.19 129.133 99.1443 129.133 99.1443C126.661 97.1939 117.999 98.5312 114.426 98.2864Z" fill="#8E5AD4"/>
<path d="M135.214 124.742C135.214 124.742 123.047 98.4257 112.822 98.7849C112.822 98.7849 121.602 94.5654 130.071 99.1444C135.949 102.322 147.772 120.93 147.772 120.93L135.214 124.742Z" fill="#AE72FF"/>
<path d="M94.7792 10.3785L94.0352 9.08984L90.1692 11.3219L90.9132 12.6106L94.7792 10.3785Z" fill="#AE72FF"/>
<path d="M63.9526 17.9666L63.5405 19.3965L67.8302 20.6326L68.2422 19.2027L63.9526 17.9666Z" fill="#E2D2FF"/>
<path d="M9.9559 50.5154L9.5437 51.9453L13.8333 53.1819L14.2455 51.752L9.9559 50.5154Z" fill="#E2D2FF"/>
<path d="M141.167 18.2887L140.423 17L136.557 19.2321L137.301 20.5208L141.167 18.2887Z" fill="#AE72FF"/>
<path d="M49.9231 3.27478L50.4839 1.89648L46.349 0.214025L45.7882 1.59232L49.9231 3.27478Z" fill="#9EEC98"/>
<path d="M24.3375 20.0372L25.5208 20.9395L28.2274 17.3895L27.0441 16.4873L24.3375 20.0372Z" fill="#AE72FF"/>
<path d="M146.558 41.1641C147.216 41.1641 147.749 40.6311 147.749 39.9736C147.749 39.3162 147.216 38.7832 146.558 38.7832C145.901 38.7832 145.368 39.3162 145.368 39.9736C145.368 40.6311 145.901 41.1641 146.558 41.1641Z" fill="#E2D2FF"/>
<path d="M80.3492 1.705C80.5003 1.06515 80.1041 0.423974 79.4642 0.272889C78.8244 0.121804 78.1832 0.518025 78.0321 1.15787C77.881 1.79771 78.2772 2.43889 78.9171 2.58997C79.5569 2.74106 80.1981 2.34484 80.3492 1.705Z" fill="#9EEC98"/>
<path d="M112.366 12.7441L111.008 15.097H113.724L112.366 12.7441Z" fill="#E2D2FF"/>
<defs>
<filter id="filter0_i_507_32795" x="45.6479" y="27.2754" width="5.69987" height="5.76167" filterUnits="userSpaceOnUse" color-interpolation-filters="sRGB">
<feFlood flood-opacity="0" result="BackgroundImageFix"/>
<feBlend mode="normal" in="SourceGraphic" in2="BackgroundImageFix" result="shape"/>
<feColorMatrix in="SourceAlpha" type="matrix" values="0 0 0 0 0 0 0 0 0 0 0 0 0 0 0 0 0 0 127 0" result="hardAlpha"/>
<feOffset dx="0.0362964" dy="0.0967904"/>
<feGaussianBlur stdDeviation="0.030247"/>
<feComposite in2="hardAlpha" operator="arithmetic" k2="-1" k3="1"/>
<feColorMatrix type="matrix" values="0 0 0 0 0.83451 0 0 0 0 0.55268 0 0 0 0 0 0 0 0 1 0"/>
<feBlend mode="normal" in2="shape" result="effect1_innerShadow_507_32795"/>
</filter>
<filter id="filter1_i_507_32795" x="56.5498" y="41.041" width="30.11" height="30.4516" filterUnits="userSpaceOnUse" color-interpolation-filters="sRGB">
<feFlood flood-opacity="0" result="BackgroundImageFix"/>
<feBlend mode="normal" in="SourceGraphic" in2="BackgroundImageFix" result="shape"/>
<feColorMatrix in="SourceAlpha" type="matrix" values="0 0 0 0 0 0 0 0 0 0 0 0 0 0 0 0 0 0 127 0" result="hardAlpha"/>
<feOffset dx="0.179573" dy="0.47886"/>
<feGaussianBlur stdDeviation="0.149644"/>
<feComposite in2="hardAlpha" operator="arithmetic" k2="-1" k3="1"/>
<feColorMatrix type="matrix" values="0 0 0 0 0.83451 0 0 0 0 0.55268 0 0 0 0 0 0 0 0 1 0"/>
<feBlend mode="normal" in2="shape" result="effect1_innerShadow_507_32795"/>
</filter>
<filter id="filter2_i_507_32795" x="32.0024" y="39.1855" width="7.85212" height="7.94006" filterUnits="userSpaceOnUse" color-interpolation-filters="sRGB">
<feFlood flood-opacity="0" result="BackgroundImageFix"/>
<feBlend mode="normal" in="SourceGraphic" in2="BackgroundImageFix" result="shape"/>
<feColorMatrix in="SourceAlpha" type="matrix" values="0 0 0 0 0 0 0 0 0 0 0 0 0 0 0 0 0 0 127 0" result="hardAlpha"/>
<feOffset dx="0.0484109" dy="0.129096"/>
<feGaussianBlur stdDeviation="0.0403424"/>
<feComposite in2="hardAlpha" operator="arithmetic" k2="-1" k3="1"/>
<feColorMatrix type="matrix" values="0 0 0 0 0.83451 0 0 0 0 0.55268 0 0 0 0 0 0 0 0 1 0"/>
<feBlend mode="normal" in2="shape" result="effect1_innerShadow_507_32795"/>
</filter>
</defs>
</svg>
