<svg width="120" height="119" viewBox="0 0 120 119" fill="none" xmlns="http://www.w3.org/2000/svg">
<path d="M65.9489 30.4689C65.9489 30.4689 70.9807 30.6224 71.165 30.7758C71.3492 30.9293 71.9932 31.5423 72.1161 32.2174C72.2389 32.8917 72.2696 33.7202 73.0057 33.8423C73.7419 33.965 75.7669 33.6274 76.4117 33.8423C77.0558 34.0571 77.5164 34.7008 77.6085 35.1918C77.7006 35.6828 77.8234 36.5412 78.1911 36.756C78.5596 36.9708 79.5413 38.5343 79.6335 39.148C79.7256 39.761 80.0326 39.8531 80.7688 40.0679C81.5049 40.2827 81.8121 40.5896 81.72 40.9571C81.6278 41.3254 82.2419 41.7235 82.4561 42.061C82.6711 42.3986 83.4685 42.7661 83.6528 42.9502C83.8371 43.1344 84.3583 43.6553 84.7267 43.9929C85.0952 44.3304 85.9542 44.2077 85.9234 44.8206C85.8928 45.4336 85.8928 45.7712 86.2306 46.0474C86.5683 46.3235 86.9053 46.1394 86.9053 46.6297C86.9053 47.12 87.1202 48.7762 86.7518 48.8069C86.3833 48.8376 86.1691 47.887 85.9542 48.3466C85.7393 48.8069 86.2305 49.7882 86.5368 50.0635C86.8439 50.3397 87.273 51.4131 87.4265 51.7806C87.58 52.1488 88.2547 52.7617 88.439 52.946C88.6233 53.1301 88.9909 53.8044 89.1138 54.2954C89.2366 54.7864 89.4822 55.8597 89.7271 56.1657C89.9728 56.4726 90.9853 57.6687 91.4757 57.9748C91.967 58.2817 92.5805 57.8521 92.9489 57.9748C93.3173 58.0976 93.5622 58.4658 93.7771 58.4965C93.9921 58.5272 94.3291 57.4539 94.5133 57.6687C94.6976 57.8835 94.6361 58.6806 94.3598 58.7727C94.0834 58.8647 93.7465 58.9568 93.6544 59.2023C93.5622 59.4478 93.5622 59.8459 93.9 59.8152C94.2378 59.7845 94.8511 59.8168 94.8511 59.8168C94.8511 59.8168 95.0046 60.0914 95.0046 60.1827C95.0046 60.2741 95.1581 61.3174 95.3117 61.4709C95.4652 61.6243 96.9382 63.0658 96.9382 63.0658C96.9382 63.0658 100.865 67.6045 101.019 67.6352C101.173 67.6659 108.352 68.3709 108.352 68.3709L114.274 68.8619C114.274 68.8619 115.318 68.9233 115.686 68.8619C116.055 68.8006 116.484 68.9233 116.852 69.3835C117.221 69.8438 118.908 72.358 118.908 72.358L117.803 76.6204L116.392 82.4471C116.392 82.4471 115.962 85.0541 115.011 85.4215C114.06 85.7898 103.259 90.2057 102.431 90.5118C101.602 90.8187 95.8643 93.088 95.373 93.0573C94.8818 93.0266 89.7885 93.701 88.3162 93.8852C86.8431 94.0693 82.3939 94.4367 81.8727 94.6208C81.3507 94.8049 78.3132 96.614 77.4849 96.7982C76.6566 96.9823 75.337 98.4844 74.8151 99.0368C74.293 99.5884 73.342 100.938 73.2499 101.03C73.1578 101.122 72.2374 102.471 72.1453 102.747C72.0532 103.023 71.5933 104.035 71.5933 104.035L72.7901 94.0991L73.4956 89.2537L75.1828 74.4117L76.2874 65.9481C76.2874 65.9481 76.8393 62.9737 76.5944 62.2679C76.3489 61.5629 75.7048 60.06 74.6923 59.3242C73.6797 58.5886 72.3294 57.8214 72.0839 57.2391C71.8383 56.6567 71.7154 54.6015 71.7461 53.8351C71.7768 53.0686 71.6847 50.5231 71.7461 49.7875C71.8075 49.0517 71.7461 47.8249 70.9793 47.5181C70.2123 47.2112 69.5369 46.9964 69.3526 46.8438C69.1685 46.6902 68.8613 45.6477 68.0023 45.5863C67.1434 45.5249 66.6828 45.7091 66.3151 45.4636C65.9466 45.2181 64.6885 44.2982 64.2594 44.2368C63.8295 44.1754 62.8477 44.2368 62.4801 43.8686C62.1123 43.5003 61.5596 42.9181 60.5778 42.5498C59.596 42.1816 59.0433 41.9675 58.9512 41.5379C58.859 41.1083 58.3581 40.4137 58.1843 40.1989C58.0106 39.9841 57.714 39.2686 57.7957 39.0336C57.8773 38.7985 58.7977 37.4595 59.0231 37.214C59.2478 36.9685 60.2812 35.2411 60.3936 34.8938C60.5059 34.5465 61.7589 32.6754 61.9587 32.4613C62.158 32.2465 62.6336 31.7563 63.0485 31.5871C63.4625 31.4187 63.9381 31.3573 64.3373 31.2346C64.7364 31.1118 65.9489 30.4689 65.9489 30.4689Z" fill="#E2D2FF" stroke="white" stroke-width="0.647723" stroke-linecap="round" stroke-linejoin="round"/>
<path d="M58.1805 40.1965C58.3542 40.4113 58.8552 41.1059 58.9474 41.5355C59.0395 41.9651 59.5914 42.1792 60.574 42.5474C61.5558 42.9157 62.1085 43.4979 62.4761 43.8662C62.8447 44.2344 63.8264 44.173 64.2556 44.2344C64.6854 44.2958 65.9428 45.2157 66.3113 45.4612C66.6797 45.7067 67.1396 45.5226 67.9985 45.5839C68.8575 45.6453 69.1645 46.6879 69.3488 46.8414C69.5331 46.9948 70.2078 47.2096 70.9755 47.5157C71.7423 47.8225 71.8037 49.0493 71.7423 49.7851C71.6808 50.5207 71.773 53.0663 71.7423 53.8327C71.7116 54.5991 71.8343 56.6536 72.0801 57.2367C72.3256 57.819 73.6759 58.5862 74.6884 59.3218C75.701 60.0576 76.345 61.5605 76.5906 62.2656C76.8363 62.9706 76.2836 65.9457 76.2836 65.9457L75.179 74.4094L73.4917 89.2513C73.4917 89.2513 70.8429 89.8995 69.6619 90.0222C68.4809 90.145 62.1594 90.743 61.8066 90.743C61.454 90.743 57.5724 90.8351 57.1118 90.743C56.6513 90.6509 56.0222 90.4054 55.6852 90.0993C55.3474 89.7924 54.9797 89.118 54.2585 88.6427C53.5373 88.1675 51.2667 86.3427 51.1595 85.9902C51.0525 85.6377 51.1139 84.9784 51.2517 84.6258C51.3896 84.2733 51.9879 83.6139 51.9265 83.1386C51.865 82.6633 51.1289 81.8199 50.8983 81.5437C50.6684 81.2675 50.4376 80.9307 50.2077 80.6388C49.9778 80.3476 49.2716 79.6268 49.0111 79.1515C48.7504 78.6763 48.1056 77.7565 48.1213 77.3425C48.1363 76.9286 48.4591 76.7138 48.4898 76.484C48.5205 76.2542 48.4284 75.196 48.6275 74.9355C48.8268 74.675 48.9653 74.2147 48.9189 73.9236C48.8732 73.6324 48.6425 72.5592 48.689 72.0532C48.7347 71.5472 48.9653 71.2254 48.8882 70.9342C48.8118 70.643 48.474 70.3975 48.0135 70.3818C47.5529 70.367 46.8324 70.5196 46.5562 70.4125C46.2798 70.3055 45.9577 70.167 45.9577 69.7839C45.9577 69.4007 46.2034 68.9561 46.249 68.6492C46.2948 68.3423 46.0035 68.1432 45.2673 68.0512C44.5311 67.9591 42.736 67.8057 42.5667 67.4838C42.3982 67.162 41.9534 66.5175 41.8613 65.9046C41.7691 65.2916 41.6006 64.2946 41.4471 63.7273C41.2936 63.16 41.033 62.9452 40.8338 62.6847C40.6346 62.4243 40.6346 61.7491 40.6189 61.5194C40.6039 61.2896 40.6496 58.9282 40.8031 58.6213C40.9566 58.3145 41.3857 58.2074 41.3707 57.8392C41.3558 57.4709 41.2943 57.2411 41.57 57.0113C41.8463 56.7817 42.0148 56.5668 42.2298 56.5668C42.4447 56.5668 43.4879 57.1956 43.795 57.2104C44.102 57.2254 44.7925 57.3482 45.1295 57.2104C45.4673 57.0728 45.39 56.9808 45.7736 57.057C46.157 57.1334 46.5868 57.3025 46.8931 57.3025C47.1994 57.3025 47.5222 57.1342 47.2765 56.6589C47.0309 56.1836 46.9238 55.754 47.016 55.5856C47.1081 55.4172 48.2126 54.2974 48.4583 54.2361C48.7039 54.1747 50.2684 53.945 50.5297 53.7452C50.7904 53.5461 51.6344 53.1778 51.7265 52.8403C51.8186 52.5027 52.2634 52.1195 52.6162 52.0274C52.9689 51.9354 53.3831 52.1038 54.0585 52.1038C54.7341 52.1038 55.6081 52.1651 55.8537 52.1188C56.0994 52.0731 56.345 51.8426 56.4214 51.5364C56.4978 51.2295 56.3293 50.5858 56.2529 50.3097C56.1765 50.0335 56.0686 50.0492 56.1607 49.8038C56.2529 49.5583 56.2064 49.3899 56.0072 49.1751C55.8081 48.9603 55.3939 48.1474 55.1018 47.872C54.8105 47.5958 54.442 47.366 54.5192 46.9522C54.5956 46.5382 54.9797 46.2471 54.8412 45.8332C54.7033 45.4193 54.4727 45.1738 54.7033 45.0817C54.9332 44.9896 55.4245 45.2044 55.6088 44.9133C55.793 44.6221 55.9308 44.239 56.2071 44.0085C56.4835 43.7787 57.0662 43.9321 57.1582 43.6401C57.2504 43.3491 56.9898 42.5669 56.7134 42.245C56.437 41.9232 56.1307 42.0459 56.023 41.8154C55.9158 41.5856 55.8387 41.4015 55.9772 41.0333C56.1151 40.665 56.2071 40.5273 56.4221 40.3283C56.637 40.1292 56.6827 40.0491 56.9898 40.1965C57.2968 40.344 57.4654 40.4352 57.6031 40.359C57.7409 40.2826 58.1805 40.1965 58.1805 40.1965Z" fill="#D2B8FF" stroke="white" stroke-width="0.647723" stroke-linecap="round" stroke-linejoin="round"/>
<path d="M56.0261 41.8088C56.1331 42.0385 56.4403 41.9157 56.7165 42.2383C56.9929 42.5602 57.2535 43.3423 57.1615 43.6335C57.0693 43.9247 56.4866 43.7712 56.2102 44.0017C55.934 44.2315 55.7962 44.6148 55.6119 44.9067C55.4277 45.1978 54.9372 44.983 54.7066 45.0751C54.4767 45.1671 54.7066 45.4126 54.8443 45.8264C54.9821 46.2404 54.5987 46.5315 54.5223 46.9454C54.4459 47.3593 54.8136 47.5891 55.1049 47.8653C55.3963 48.1415 55.8104 48.9535 56.0103 49.1683C56.2095 49.3832 56.256 49.5516 56.1639 49.7971C56.0717 50.0426 56.1789 50.0269 56.256 50.303C56.3324 50.5792 56.5016 51.2228 56.4245 51.5297C56.3474 51.8366 56.1025 52.0664 55.8568 52.112C55.6112 52.1577 54.7372 52.097 54.0616 52.097C53.3862 52.097 52.972 51.9286 52.6194 52.0207C52.2666 52.1128 51.8218 52.496 51.7296 52.8335C51.6375 53.1711 50.7935 53.5386 50.5329 53.7385C50.2723 53.9376 48.7072 54.1681 48.4614 54.2294C48.2159 54.2908 47.1112 55.4097 47.0191 55.579C46.927 55.7473 47.034 56.1769 47.2797 56.6522C47.5253 57.1275 47.2034 57.2959 46.8962 57.2959C46.5892 57.2959 46.1601 57.1275 45.7767 57.0504C45.3932 56.974 45.4696 57.0654 45.1326 57.2038C44.7948 57.3416 44.1044 57.2188 43.7981 57.2038C43.4911 57.1888 42.4478 56.5601 42.2329 56.5601C42.0179 56.5601 41.8495 56.7749 41.5731 57.0047C41.5731 57.0047 41.4353 57.1066 41.4001 57.2278C41.3649 57.3483 41.3566 57.4142 41.3566 57.4142C41.3566 57.4142 41.2031 57.3812 41.0661 57.3064C40.929 57.2315 40.7935 57.1485 40.7501 57.0841C40.7066 57.0197 40.6385 56.8461 40.6399 56.7465C40.6415 56.647 40.6415 56.4973 40.6063 56.4165C40.571 56.3356 40.4572 56.108 40.4168 56.0295C40.3764 55.9508 40.3613 55.7929 40.3711 55.7285C40.3808 55.665 40.3329 55.4696 40.279 55.4C40.2243 55.3304 40.1023 55.2211 39.9502 55.1508C39.799 55.0805 39.59 54.9786 39.4957 54.8963C39.4013 54.814 39.3002 54.7414 39.2275 54.5834C39.1549 54.4255 39.125 54.3537 39.1032 54.2781C39.0815 54.2025 39.0126 53.8859 39.0044 53.7504C38.9962 53.6157 39.0066 53.276 39.0134 53.1861C39.0209 53.0963 39.0268 52.8575 39.0148 52.7819C39.0021 52.7063 38.9468 52.4901 38.8546 52.3816C38.7625 52.2737 38.6516 52.1375 38.3858 52.0417C38.1199 51.9459 37.8054 51.8419 37.8054 51.8419L37.6819 51.8052C37.6819 51.8052 38.4861 51.4332 38.931 51.2917C39.3758 51.1503 40.6032 50.9662 40.7186 50.8276C40.834 50.69 40.7823 50.3307 40.6161 49.973C40.4497 49.6152 40.6647 49.3188 40.8182 49.2679C40.9718 49.217 41.1253 49.4827 41.4727 49.5539C41.8202 49.6256 42.0764 49.5232 42.1685 49.3494C42.2605 49.1758 42.2194 48.6541 42.1887 48.2657C42.158 47.8773 42.1685 47.6932 42.4748 47.6011C42.7818 47.509 43.0881 47.673 43.2012 47.4477C43.3136 47.2231 44.0092 46.0675 44.4594 45.792C44.9094 45.5158 47.2617 44.4635 47.589 44.1873C47.9162 43.9111 47.8856 43.3798 48.2435 43.0422C48.6015 42.7047 50.2072 41.6927 50.586 41.5296C50.9642 41.3657 51.1792 41.1307 51.5477 41.1516C51.9161 41.1719 52.1408 41.1516 52.4374 41.4682C52.7339 41.7848 53.1226 42.1837 53.4805 42.5004C53.8385 42.8169 53.8797 42.8783 54.2684 42.8783C54.6571 42.8783 55.0764 42.9293 55.2809 42.766C55.4854 42.6028 55.4854 42.4495 55.5976 42.2855C55.71 42.1216 56.0261 41.8088 56.0261 41.8088Z" fill="#E2D2FF" stroke="white" stroke-width="0.647723" stroke-linecap="round" stroke-linejoin="round"/>
<path d="M37.6826 51.8045C37.6826 51.8045 38.4868 51.4325 38.9317 51.291C39.3766 51.1495 40.604 50.9654 40.7193 50.827C40.8346 50.6892 40.7829 50.33 40.6167 49.9723C40.4505 49.6145 40.6654 49.3181 40.8189 49.2672C40.9725 49.2163 41.126 49.482 41.4735 49.5531C41.8209 49.625 42.077 49.5224 42.1691 49.3488C42.2613 49.1752 42.2201 48.6535 42.1894 48.265C42.1587 47.8765 42.1691 47.6925 42.4754 47.6004C42.7826 47.5084 43.0889 47.6722 43.202 47.447C43.3142 47.2224 44.01 46.0668 44.4601 45.7913C44.9101 45.5152 47.2625 44.4628 47.5897 44.1867C47.917 43.9105 47.8862 43.3791 48.2442 43.0416C48.6022 42.704 50.2078 41.692 50.5868 41.5289C50.965 41.365 51.1799 41.13 51.5484 41.1509C51.9168 41.1711 52.1415 41.1509 52.438 41.4676C52.7346 41.7841 53.1233 42.183 53.4812 42.4997C53.8392 42.8162 53.8804 42.8776 54.269 42.8776C54.6578 42.8776 55.0772 42.9285 55.2816 42.7654C55.486 42.6022 55.486 42.4487 55.5984 42.2849C55.7107 42.1209 56.026 41.8073 56.026 41.8073C56.026 41.8073 55.9047 41.5311 55.9039 41.4391C55.9039 41.3477 55.9227 41.0903 56.0515 40.8463C56.1803 40.6023 56.2544 40.4863 56.3668 40.38C56.4791 40.2738 56.5862 40.1659 56.6379 40.1464C56.6895 40.127 56.7427 39.9639 56.6379 39.7678C56.533 39.5724 55.9564 38.9527 55.6905 38.8097C55.4246 38.6668 54.9236 38.4415 54.5447 38.4213C54.1665 38.4011 53.5524 38.3801 53.3891 38.2372C53.2259 38.0942 52.653 37.4707 52.4582 36.8166C52.2643 36.1624 52.0591 35.5285 51.8959 35.2426C51.7325 34.9567 51.323 34.435 51.129 34.435C50.9351 34.435 50.4332 34.5884 50.2191 34.762C50.0042 34.9357 49.6567 34.9567 49.5136 34.8744C49.3706 34.7927 48.9819 34.5368 48.6441 34.5368C48.3064 34.5368 47.9282 34.6596 47.7334 34.5368C47.5395 34.4141 47.2729 34.1686 47.2729 33.8722C47.2729 33.5757 47.3344 33.1873 47.1299 33.1259C46.9254 33.0646 46.6692 33.0137 46.3937 33.1768C46.1174 33.3407 45.6882 33.7389 45.4014 33.5548C45.1153 33.3707 44.7881 33.013 44.4301 32.6349C44.0721 32.257 43.6527 31.8992 43.2535 31.8581L42.8544 31.8169C42.8544 31.8169 42.3017 31.8064 41.9954 31.6836C41.6884 31.5609 41.7603 31.4591 41.2382 31.51C40.7163 31.5609 40.4714 31.7039 40.1336 31.7039C39.7959 31.7039 39.3256 31.3566 38.9572 31.305C38.5887 31.254 38.221 31.1515 37.7402 31.2331C37.2595 31.3147 36.3697 31.4681 35.9398 31.5496C35.51 31.6313 35.2957 31.7645 34.8554 31.6724C34.4158 31.5803 34.2728 31.4067 33.9456 31.284C33.6182 31.1612 32.9637 31.1814 32.6057 31.3558C32.2477 31.5295 30.7852 32.1125 30.3456 32.2959C29.906 32.48 29.742 32.9395 29.2305 33.0114C28.719 33.0833 28.1978 32.95 27.9416 33.0931C27.6862 33.236 27.2361 33.5937 26.7756 33.8085C26.315 34.0233 25.6912 34.2995 25.5482 34.3504C25.4051 34.4013 25.3947 34.4933 25.2927 34.6161C25.1902 34.7388 25.0793 34.9716 25.0793 34.9716C25.0793 34.9716 25.4328 35.1782 25.6725 35.2553C25.9121 35.3324 26.2746 35.4312 26.4453 35.4678C26.6161 35.5046 27.1395 35.6071 27.2167 35.6243C27.2939 35.6423 27.5433 35.6962 27.6743 35.8248C27.8054 35.9536 28.0113 36.2275 28.1139 36.336C28.2165 36.4446 28.4134 36.6175 28.5048 36.6766C28.5962 36.7365 28.7767 36.8293 28.8762 36.9244C28.9759 37.0195 29.2065 37.3105 29.2567 37.4026C29.3069 37.4939 29.4371 37.7604 29.4822 37.8989C29.5262 38.0373 29.6057 38.3389 29.6146 38.4609C29.6237 38.583 29.608 38.8591 29.6237 38.9864C29.6402 39.1136 29.7075 39.4586 29.7645 39.6135C29.8214 39.7685 29.954 40.0934 30.064 40.249C30.1741 40.4039 30.2812 40.5469 30.4242 40.6554C30.5673 40.7648 30.8339 40.9354 30.9634 41.0064C31.093 41.0776 31.2719 41.1741 31.3266 41.2212C31.3805 41.2685 31.4824 41.3507 31.448 41.4308C31.4136 41.5109 31.3528 41.6239 31.1746 41.7586C30.9971 41.8933 30.6444 42.1247 30.5568 42.1756C30.4691 42.2264 30.237 42.347 30.1 42.5161C29.9629 42.686 29.8229 42.891 29.7637 43.0205C29.7046 43.1501 29.5802 43.5026 29.5593 43.582C29.5382 43.6605 29.4672 43.9494 29.45 44.0243C29.4334 44.0998 29.3638 44.4314 29.3532 44.486C29.3428 44.5407 29.3285 44.6163 29.3285 44.6163C29.3285 44.6163 29.3414 44.739 29.3181 44.8379C29.2949 44.9367 29.2072 45.2128 29.1466 45.334C29.0859 45.4553 28.9744 45.6529 28.8943 45.7419C28.8141 45.8311 28.6815 45.9725 28.6583 46.0399C28.6343 46.1073 28.674 46.1394 28.6987 46.1694C28.7234 46.1992 28.7946 46.2329 28.8351 46.2495C28.8755 46.2659 29.0156 46.3116 29.0433 46.3175C29.0717 46.3235 29.2394 46.3475 29.3668 46.3528C29.494 46.3587 29.5765 46.3639 29.6087 46.3894C29.6402 46.414 29.7742 46.5264 29.7937 46.6297C29.8139 46.733 29.8334 46.9178 29.691 47.3826C29.5488 47.8474 29.4207 48.3204 29.4027 48.4251C29.3847 48.53 29.3525 48.9334 29.3586 49.0629C29.3645 49.1932 29.3682 49.8375 29.3682 49.9288C29.3682 50.0209 29.3743 50.4505 29.393 50.6234C29.4117 50.7956 29.4462 51.1706 29.4611 51.3247C29.4761 51.4782 29.5255 51.9324 29.5495 52.0418C29.5727 52.151 29.6477 52.3831 29.6686 52.4302C29.6896 52.4766 29.7772 52.642 29.8513 52.6832C29.9247 52.7244 30.01 52.761 30.0902 52.7603C30.1703 52.7595 30.3456 52.7341 30.4811 52.6944C30.6167 52.6548 30.9874 52.5297 30.9874 52.5297C30.9874 52.5297 31.3041 52.4287 31.3821 52.4145C31.4599 52.4002 31.6389 52.3695 31.8546 52.3995C32.0695 52.4287 32.3788 52.4789 32.4148 52.4848C32.45 52.4901 32.8807 52.5417 32.8807 52.5417C32.8807 52.5417 33.0544 52.5544 33.1292 52.5319C33.2042 52.5096 33.2528 52.4976 33.2745 52.4571C33.2963 52.4168 33.4041 52.2041 33.4378 52.151C33.4715 52.0978 33.5965 51.922 33.6722 51.8509C33.7479 51.779 33.9186 51.6368 34.0399 51.5732C34.1612 51.5088 34.4219 51.3845 34.5424 51.3486C34.6629 51.3128 34.8772 51.2686 34.9416 51.2633C35.0052 51.2589 35.2524 51.2536 35.4014 51.2746C35.5505 51.2955 36.0776 51.3988 36.0776 51.3988C36.0776 51.3988 36.5824 51.5215 36.6288 51.5342C36.6753 51.547 37.0872 51.6548 37.0872 51.6548L37.4354 51.7371L37.684 51.8" fill="#E2D2FF"/>
<path d="M37.6826 51.8045C37.6826 51.8045 38.4868 51.4325 38.9317 51.291C39.3766 51.1495 40.604 50.9654 40.7193 50.827C40.8346 50.6892 40.7829 50.33 40.6167 49.9723C40.4505 49.6145 40.6654 49.3181 40.8189 49.2672C40.9725 49.2164 41.126 49.482 41.4735 49.5531C41.8209 49.625 42.077 49.5224 42.1691 49.3488C42.2613 49.1752 42.2201 48.6535 42.1894 48.265C42.1587 47.8765 42.1691 47.6925 42.4754 47.6004C42.7826 47.5084 43.0888 47.6722 43.202 47.447C43.3142 47.2224 44.01 46.0668 44.4601 45.7913C44.9101 45.5152 47.2625 44.4628 47.5897 44.1867C47.917 43.9105 47.8862 43.3791 48.2442 43.0416C48.6022 42.704 50.2078 41.692 50.5868 41.5289C50.965 41.365 51.1799 41.13 51.5484 41.1509C51.9168 41.1711 52.1415 41.1509 52.438 41.4676C52.7346 41.7841 53.1233 42.183 53.4812 42.4997C53.8392 42.8162 53.8804 42.8776 54.269 42.8776C54.6578 42.8776 55.0772 42.9285 55.2816 42.7654C55.486 42.6022 55.486 42.4487 55.5984 42.2849C55.7107 42.1209 56.026 41.8073 56.026 41.8073C56.026 41.8073 55.9047 41.5311 55.9039 41.4391C55.9039 41.3477 55.9227 41.0903 56.0515 40.8463C56.1803 40.6023 56.2544 40.4863 56.3668 40.38C56.4791 40.2738 56.5862 40.1659 56.6379 40.1464C56.6895 40.127 56.7427 39.9639 56.6379 39.7678C56.533 39.5724 55.9564 38.9527 55.6905 38.8097C55.4246 38.6668 54.9236 38.4415 54.5447 38.4213C54.1665 38.4011 53.5524 38.3801 53.3891 38.2372C53.2259 38.0942 52.653 37.4707 52.4582 36.8166C52.2643 36.1624 52.0591 35.5285 51.8959 35.2426C51.7325 34.9567 51.323 34.435 51.129 34.435C50.9351 34.435 50.4332 34.5884 50.2191 34.762C50.0042 34.9357 49.6567 34.9567 49.5136 34.8744C49.3706 34.7927 48.9819 34.5368 48.6441 34.5368C48.3064 34.5368 47.9282 34.6596 47.7334 34.5368C47.5395 34.4141 47.2729 34.1686 47.2729 33.8722C47.2729 33.5757 47.3344 33.1873 47.1299 33.1259C46.9254 33.0646 46.6692 33.0137 46.3937 33.1768C46.1174 33.3407 45.6882 33.7389 45.4014 33.5548C45.1153 33.3707 44.7881 33.013 44.4301 32.6349C44.0721 32.257 43.6527 31.8992 43.2535 31.8581L42.8544 31.8169C42.8544 31.8169 42.3017 31.8064 41.9954 31.6836C41.6884 31.5609 41.7603 31.4591 41.2382 31.51C40.7163 31.5609 40.4714 31.7039 40.1336 31.7039C39.7959 31.7039 39.3256 31.3566 38.9572 31.305C38.5887 31.254 38.221 31.1515 37.7402 31.2331C37.2593 31.3147 36.3697 31.4681 35.9398 31.5496C35.51 31.6313 35.2957 31.7645 34.8554 31.6724C34.4158 31.5803 34.2728 31.4067 33.9456 31.284C33.6182 31.1612 32.9637 31.1814 32.6057 31.3558C32.2477 31.5295 30.7852 32.1125 30.3456 32.2959C29.906 32.48 29.742 32.9395 29.2305 33.0114C28.719 33.0833 28.1978 32.95 27.9416 33.0931C27.6862 33.236 27.2361 33.5937 26.7756 33.8085C26.315 34.0233 25.6912 34.2995 25.5482 34.3504C25.4051 34.4013 25.3947 34.4933 25.2927 34.6161C25.1902 34.7388 25.0793 34.9716 25.0793 34.9716C25.0793 34.9716 25.4328 35.1782 25.6725 35.2553C25.9121 35.3324 26.2746 35.4312 26.4453 35.4678C26.6161 35.5046 27.1395 35.6071 27.2167 35.6243C27.2939 35.6423 27.5433 35.6962 27.6743 35.8248C27.8054 35.9536 28.0113 36.2275 28.1139 36.336C28.2165 36.4446 28.4134 36.6175 28.5048 36.6766C28.5962 36.7365 28.7767 36.8293 28.8762 36.9244C28.9759 37.0195 29.2065 37.3105 29.2567 37.4026C29.3069 37.4939 29.4371 37.7604 29.4822 37.8989C29.5262 38.0373 29.6057 38.3389 29.6146 38.4609C29.6237 38.583 29.608 38.8591 29.6237 38.9864C29.6402 39.1136 29.7075 39.4586 29.7645 39.6135C29.8214 39.7685 29.954 40.0934 30.064 40.249C30.1741 40.4039 30.2812 40.5469 30.4242 40.6554C30.5673 40.7648 30.8339 40.9354 30.9634 41.0064C31.093 41.0776 31.2719 41.1741 31.3266 41.2212C31.3805 41.2685 31.4824 41.3507 31.448 41.4308C31.4136 41.5109 31.3529 41.6239 31.1746 41.7586C30.9971 41.8933 30.6444 42.1247 30.5568 42.1756C30.4691 42.2264 30.237 42.347 30.1 42.5161C29.9629 42.686 29.8229 42.891 29.7637 43.0205C29.7046 43.1501 29.5802 43.5026 29.5593 43.582C29.5382 43.6605 29.4672 43.9494 29.45 44.0243C29.4334 44.0998 29.3638 44.4314 29.3532 44.486C29.3428 44.5407 29.3285 44.6163 29.3285 44.6163C29.3285 44.6163 29.3414 44.739 29.3181 44.8379C29.2949 44.9367 29.2072 45.2129 29.1466 45.3341C29.0859 45.4553 28.9744 45.6529 28.8943 45.7419C28.8141 45.8311 28.6815 45.9725 28.6583 46.0399C28.6343 46.1073 28.674 46.1394 28.6987 46.1694C28.7234 46.1992 28.7946 46.2329 28.8351 46.2495C28.8755 46.2659 29.0156 46.3116 29.0433 46.3175C29.0717 46.3235 29.2394 46.3475 29.3668 46.3528C29.494 46.3587 29.5765 46.3639 29.6087 46.3894C29.6402 46.414 29.7742 46.5264 29.7937 46.6297C29.8139 46.733 29.8334 46.9178 29.691 47.3826C29.5488 47.8474 29.4207 48.3204 29.4027 48.4251C29.3847 48.53 29.3525 48.9334 29.3586 49.0629C29.3645 49.1932 29.3682 49.8375 29.3682 49.9288C29.3682 50.0209 29.3743 50.4505 29.393 50.6234C29.4117 50.7956 29.4462 51.1706 29.4611 51.3247C29.4761 51.4782 29.5255 51.9324 29.5495 52.0418C29.5727 52.151 29.6477 52.3831 29.6686 52.4302C29.6896 52.4766 29.7772 52.642 29.8513 52.6832C29.9247 52.7244 30.01 52.761 30.0902 52.7603C30.1703 52.7595 30.3456 52.7341 30.4811 52.6944C30.6167 52.6548 30.9874 52.5297 30.9874 52.5297C30.9874 52.5297 31.3041 52.4287 31.3821 52.4145C31.4599 52.4002 31.6389 52.3695 31.8546 52.3995C32.0695 52.4287 32.3788 52.4789 32.4148 52.4848C32.45 52.4901 32.8807 52.5417 32.8807 52.5417C32.8807 52.5417 33.0544 52.5544 33.1292 52.5319C33.2042 52.5096 33.2528 52.4976 33.2745 52.4571C33.2963 52.4168 33.4041 52.2041 33.4378 52.151C33.4715 52.0978 33.5965 51.922 33.6722 51.8509C33.7479 51.779 33.9186 51.6368 34.0399 51.5732C34.1612 51.5088 34.4219 51.3845 34.5424 51.3486C34.6629 51.3128 34.8772 51.2686 34.9416 51.2633C35.0052 51.2589 35.2524 51.2536 35.4014 51.2746C35.5505 51.2955 36.0776 51.3988 36.0776 51.3988C36.0776 51.3988 36.5824 51.5215 36.6288 51.5342C36.6753 51.547 37.0872 51.6548 37.0872 51.6548L37.4354 51.7371L37.684 51.8" stroke="white" stroke-width="0.647723" stroke-linecap="round" stroke-linejoin="round"/>
<path d="M49.0087 79.1424C48.7481 78.6671 48.1033 77.7472 48.1191 77.3333C48.134 76.9195 48.4567 76.7045 48.4875 76.4749C48.5182 76.2451 48.4261 75.1867 48.6253 74.9262C48.8245 74.6658 48.963 74.2055 48.9167 73.9143C48.8709 73.6232 48.6403 72.5499 48.6868 72.0439C48.7324 71.538 48.963 71.2161 48.8859 70.9249C48.8095 70.6339 48.4717 70.3884 48.0112 70.3734C47.5507 70.3584 46.8302 70.5111 46.5538 70.4041C46.2775 70.297 45.9555 70.1586 45.9555 69.7754C45.9555 69.3921 46.2011 68.9475 46.2468 68.6407C46.2925 68.3338 46.0011 68.1348 45.265 68.0426C44.5288 67.9507 42.7337 67.7972 42.5645 67.4754C42.3959 67.1535 41.9511 66.5091 41.859 65.8961C41.7669 65.2832 41.5984 64.2862 41.4448 63.7188C41.2913 63.1515 41.0308 62.9367 40.8315 62.6762C40.6323 62.4157 40.6323 61.7406 40.6166 61.5109C40.6166 61.5109 39.5606 61.3948 39.3359 61.5109C39.1114 61.6269 39.0192 61.79 39.2236 62.1889C39.4281 62.5879 39.4895 63.0377 39.2132 63.2316C38.9368 63.4254 38.3946 63.6095 37.7611 63.8243C37.1274 64.0391 36.4931 64.4066 36.4415 64.6627C36.3906 64.9178 37.26 65.2966 37.2294 65.6948C37.1986 66.0937 36.258 66.3901 35.951 66.5532C35.6439 66.7171 34.2329 67.9432 33.8136 68.4035C33.3942 68.8637 32.9442 69.5179 32.5862 69.5584C32.2282 69.5995 31.7578 69.354 31.5325 69.3233C31.3078 69.2926 31.1131 69.5479 30.6428 69.7529C30.1724 69.9572 29.6198 70.1413 29.4154 69.9984C29.2109 69.8555 29.3337 69.5074 29.4154 69.324C29.497 69.1399 29.3127 68.7111 28.945 68.527C28.5765 68.3428 28.2493 68.1587 28.3721 67.7703C28.4949 67.3818 29.088 67.1363 28.9241 66.5233C28.76 65.9103 28.3108 65.685 27.7782 65.9305C27.2466 66.176 26.929 66.4006 26.3973 66.4522C25.8656 66.5031 25.906 66.3189 25.7734 66.0129C25.6401 65.706 25.6709 65.5833 25.1601 65.6656C24.6493 65.7478 24.5872 65.7269 24.3319 65.5016C24.0764 65.2771 23.8712 64.8168 23.5237 64.4081C23.1763 63.9995 23.1246 63.7645 22.7157 63.754C22.3068 63.7435 21.6523 63.8259 21.5601 63.9688C21.468 64.1117 21.6111 65.0009 21.8058 65.1753C21.9997 65.349 22.184 65.9216 22.184 66.1872C22.184 66.4529 22.2963 66.6782 22.4393 66.923C22.5824 67.1685 22.0919 67.1071 22.5824 67.7411C23.0736 68.375 23.401 68.3541 23.401 68.702C23.401 69.0501 23.7282 69.1213 23.5649 69.4895C23.401 69.8576 23.2579 69.9632 23.4421 70.3038C23.6264 70.6443 23.6668 70.8591 23.514 71.1046C23.3605 71.3501 23.0841 71.3194 23.0333 71.7588C22.9823 72.1981 22.9823 72.6172 22.9306 72.832C22.8797 73.0468 22.9201 73.3635 22.6542 73.374C22.3885 73.3844 22.4191 73.5071 22.5928 73.7729C22.7666 74.0386 23.401 74.6418 23.3807 74.9892C23.3605 75.3364 23.2272 75.6231 23.4527 76.0212C23.6773 76.4201 23.708 76.522 23.4833 76.7473C23.2586 76.9718 23.2174 77.1559 23.3298 77.3295C23.4421 77.5032 23.5956 77.6364 23.5545 77.8715C23.5133 78.1065 23.5343 78.4134 23.7386 78.5975C23.9431 78.7816 23.9019 79.5786 24.2195 79.64C24.5362 79.7014 24.7205 79.8855 24.8021 80.1101C24.8837 80.3346 24.8942 80.5494 25.0882 80.652C25.283 80.7545 25.3234 80.7949 25.405 81.1221C25.4866 81.4491 25.6709 81.8068 25.8858 82.1339C26.1007 82.461 26.7859 83.2888 27.1335 83.5141C27.481 83.7386 28.146 83.8412 28.3407 83.8306C28.5346 83.8201 28.8522 83.9123 29.0259 84.1577C29.1996 84.4032 29.7523 84.669 29.7523 84.669C29.7523 84.669 30.5603 85.2415 30.8675 85.5177C31.1745 85.7939 31.2561 86.4578 31.6553 86.7848C32.0544 87.1119 32.33 87.0198 32.4529 87.0812C32.5756 87.1426 32.6776 87.4495 32.6678 87.5924C32.6573 87.7354 32.5862 88.0932 32.9336 88.4411C33.2811 88.7885 33.5987 88.5228 33.5777 88.8603C33.5575 89.1979 33.1074 89.4022 33.4346 89.7705C33.762 90.1387 34.0076 90.4552 34.0277 90.5983C34.0479 90.7412 34.4674 91.0893 34.5902 91.2524C34.7131 91.4163 34.8868 91.8863 34.7437 92.0495C34.6007 92.2135 34.5797 92.4888 34.7235 92.6624C34.8666 92.8362 34.877 93.4289 34.877 93.6849C34.877 93.9409 35.0096 94.2574 35.2702 94.4512C35.5308 94.6451 35.8333 94.8503 35.8918 95.0134C35.9502 95.1766 36.2063 95.9684 36.3291 96.2266C36.452 96.4848 36.7995 97.1293 36.7995 97.1293L36.9837 97.2977C36.9837 97.2977 37.0818 97.0709 37.3881 96.8224C37.6944 96.574 37.9445 96.3397 38.1048 96.2918C38.2651 96.2439 38.2186 96.0852 38.244 95.943C38.2696 95.8008 38.3242 95.5119 38.3392 95.3824C38.3542 95.2529 38.3773 95.0075 38.3272 94.8846C38.2771 94.762 38.1415 94.4701 38.1152 94.3659C38.0891 94.2612 38.0434 93.967 37.988 93.8451C37.9318 93.7222 37.7753 93.4483 37.7056 93.393C37.6368 93.3376 37.6285 93.3061 37.3056 93.3136C36.9837 93.3211 36.6415 93.3429 36.4588 93.2935C36.276 93.244 36.0902 93.1288 36.0266 93.0098C35.963 92.89 35.9562 92.5973 35.9689 92.441C35.9816 92.2845 36.0348 91.801 36.0364 91.694C36.0378 91.5869 36.0416 91.4889 35.9959 91.3707C35.9494 91.2524 35.8784 91.0631 35.8911 91.0242C35.9038 90.9853 35.9764 90.8954 36.0663 90.9089C36.1554 90.9223 36.3119 90.9867 36.3906 91.0017C36.4692 91.0167 36.6287 91.0406 36.8744 90.8879C37.1199 90.7352 37.3596 90.5758 37.3596 90.5758C37.3596 90.5758 37.5761 90.4261 37.6502 90.4365C37.7243 90.447 38.0921 90.6177 38.1714 90.6379C38.2508 90.6581 38.5197 90.7075 38.6013 90.5945C38.6829 90.4815 38.9031 90.0781 39.0012 89.8707C39.0993 89.6634 39.1166 89.4763 39.1008 89.4261C39.0844 89.376 38.8971 89.126 38.8244 89.0257C38.7518 88.9255 38.6507 88.7233 38.6335 88.6515C38.6163 88.579 38.665 88.4584 38.7189 88.3686C38.7727 88.2787 38.954 88.007 38.9982 87.8978C39.0424 87.7886 39.121 87.6471 39.0207 87.4787C38.9203 87.3103 38.8058 87.1516 38.6949 87.094C38.5833 87.0371 38.441 87.0064 38.3242 86.9779C38.2066 86.9495 38.1302 86.8851 38.0404 86.936C37.9506 86.987 37.9497 87.0865 37.6434 87.0798C37.3371 87.073 37.0234 87.0453 36.917 87.0573C36.81 87.0692 36.5336 87.1029 36.4062 87.2773C36.279 87.4517 36.1718 87.6635 36.1224 87.8648C36.073 88.0655 36.0288 88.2623 36.0117 88.406C35.9944 88.5497 36.0041 88.6941 35.945 88.8655C35.8858 89.037 35.7945 89.2593 35.7165 89.3573C35.6387 89.4546 35.5683 89.5601 35.4552 89.5751C35.342 89.5893 35.1856 89.6006 35.0822 89.5107C34.9788 89.4209 34.9055 89.2787 34.8538 89.2174C34.8029 89.156 34.6097 88.9667 34.5131 88.8835C34.4157 88.8004 34.2734 88.6837 34.206 88.6133C34.1386 88.543 33.9341 88.2885 33.8577 88.1717C33.7815 88.055 33.6353 87.8184 33.6024 87.7392C33.5702 87.6598 33.5552 87.3686 33.5568 87.2766C33.5589 87.1845 33.5956 86.722 33.6114 86.6404C33.6271 86.5588 33.6706 86.4159 33.6922 86.2894C33.7148 86.1629 33.7364 85.8942 33.7095 85.7976C33.6826 85.7018 33.6443 85.609 33.562 85.5932C33.4795 85.5784 33.3029 85.5798 33.1186 85.5836C32.9344 85.5873 32.8109 85.5395 32.7787 85.5102C32.7464 85.481 32.6701 85.4182 32.7255 85.2708C32.7808 85.1233 32.8715 84.8808 32.9381 84.8126C33.0055 84.7445 33.2272 84.5679 33.3537 84.4983C33.4804 84.428 33.7162 84.3104 33.8144 84.2731C33.9125 84.2356 34.1783 84.1585 34.3535 84.0335C34.5288 83.9086 34.8965 83.6167 35.0822 83.4235C35.2679 83.2312 35.3893 83.1144 35.4215 82.8943C35.4529 82.6743 35.4282 82.5897 35.4238 82.5029C35.4193 82.4161 35.3953 81.9565 35.4057 81.8443C35.4162 81.7321 35.4388 81.4678 35.5435 81.3271C35.6476 81.1872 35.79 81.0389 35.8791 81.012C35.9682 80.9851 36.0723 80.9603 36.1697 81.0217C36.267 81.083 36.4168 81.1961 36.5096 81.3637C36.6025 81.5314 36.6878 81.7373 36.7156 81.8443C36.7433 81.9513 36.7942 82.2013 36.8376 82.2589C36.8803 82.3166 36.9283 82.3824 37.0975 82.315C37.2668 82.2477 37.4315 82.113 37.4757 82.0823C37.5199 82.0516 37.6098 81.9558 37.803 81.9842C37.9962 82.0127 38.459 82.0823 38.5376 82.0882C38.6163 82.0943 38.8185 82.11 38.9608 82.0156C39.103 81.9214 39.3547 81.7096 39.4191 81.6752C39.4835 81.6407 39.6108 81.5793 39.7014 81.6047C39.792 81.6302 39.8602 81.6527 39.9231 81.7096C39.986 81.7664 40.0969 81.9012 40.0969 81.9012L40.1665 82.0126C40.1665 82.0126 40.1994 82.0254 40.2257 82.0575C40.2511 82.0898 40.3529 82.2529 40.3529 82.2529C40.3529 82.2529 40.4556 82.4618 40.4638 82.4827C40.4721 82.5036 40.508 82.6256 40.52 82.6668C40.532 82.708 40.6465 83.0051 40.6637 83.044C40.681 83.0829 40.803 83.3359 40.8165 83.3614C40.83 83.3876 40.9476 83.5905 40.9746 83.6263C41.0015 83.6631 41.0675 83.7678 41.1752 83.8022C41.2838 83.8367 41.3303 83.8718 41.3947 83.8861C41.4584 83.9002 41.5781 83.9265 41.6425 83.9048C41.7062 83.8838 41.85 83.7723 41.9009 83.7282C41.9519 83.6832 42.2245 83.4399 42.2485 83.4183C42.2723 83.3966 42.6026 83.0979 42.6371 83.0665C42.6715 83.0351 43.1569 82.5972 43.1875 82.5703C43.2182 82.5433 43.6077 82.2051 43.6346 82.1833C43.6616 82.1616 43.8563 82.0104 43.9911 81.946C44.1259 81.8809 44.5408 81.7178 44.6195 81.6752C44.6988 81.6324 44.8689 81.5269 44.9587 81.4259C45.0485 81.3248 45.2148 81.11 45.2387 81.0958C45.2627 81.0816 45.3361 81.042 45.5182 81.0314C45.7001 81.0209 46.0041 81.0127 46.0708 81.0097C46.1374 81.0067 46.321 80.997 46.4355 80.9566C46.55 80.9162 46.7703 80.8174 46.8295 80.7942C46.8878 80.771 47.0189 80.7223 47.081 80.7335C47.1433 80.7448 47.3079 80.7994 47.3678 80.8263C47.4278 80.8534 47.636 80.9483 47.6809 80.9663C47.7258 80.9843 47.8958 81.042 47.9266 81.0464C47.9573 81.0509 48.0502 81.0614 48.1146 81.0345C48.179 81.0075 48.3481 80.9169 48.5526 80.7537C48.7571 80.5899 48.8716 80.4971 48.9339 80.4709C48.996 80.4446 49.303 80.3392 49.3645 80.3196C49.4266 80.3002 49.6393 80.2373 49.6393 80.2373H49.8549C49.8549 80.2373 49.5187 79.8504 49.4858 79.8107C49.4529 79.7718 49.2221 79.4814 49.1757 79.4148C49.1293 79.3481 49.0072 79.1476 49.0072 79.1476L49.0087 79.1424Z" fill="#E2D2FF" stroke="white" stroke-width="0.647723" stroke-linecap="round" stroke-linejoin="round"/>
<path d="M40.6167 61.5083C40.6167 61.5083 39.5607 61.3923 39.336 61.5083C39.1114 61.6244 39.0193 61.7875 39.2238 62.1864C39.4282 62.5853 39.4897 63.0352 39.2133 63.2291C38.937 63.4229 38.3947 63.607 37.7612 63.8218C37.1276 64.0366 36.4932 64.4041 36.4416 64.6601C36.3907 64.9153 37.2602 65.294 37.2294 65.6922C37.1987 66.0912 36.2581 66.3876 35.9511 66.5507C35.6441 66.7146 34.2331 67.9405 33.8138 68.4008C33.3944 68.8612 32.9442 69.5154 32.5863 69.5557C32.2284 69.5969 31.758 69.3514 31.5326 69.3207C31.3079 69.29 31.1132 69.5453 30.6429 69.7504C30.1726 69.9547 29.6199 70.1388 29.4155 69.9959C29.211 69.8529 29.3339 69.5049 29.4155 69.3215C29.4971 69.1373 29.3128 68.7084 28.9451 68.5244C28.5767 68.3403 28.2495 68.1562 28.3722 67.7676C28.4951 67.3792 29.0882 67.1337 28.9242 66.5207C28.7601 65.9078 28.3108 65.6825 27.7784 65.928C27.2467 66.1735 26.9291 66.3981 26.3974 66.4497C25.8656 66.5005 25.9061 66.3164 25.7736 66.0104C25.6402 65.7035 25.671 65.5807 25.1602 65.663C24.6495 65.7453 24.5873 65.7244 24.3319 65.4991C24.0766 65.2746 23.8714 64.8143 23.5239 64.4056C23.1764 63.997 23.1248 63.762 22.7158 63.7515C22.307 63.741 21.6524 63.8233 21.5602 63.9663C21.5602 63.9663 20.5679 62.494 20.4863 62.259C20.4047 62.024 20.0467 61.3287 19.6888 60.9612C19.3309 60.593 18.6043 59.4583 18.2465 59.2952C17.8885 59.1312 17.4279 59.2645 17.2234 59.1214C17.019 58.9785 16.8243 58.4673 16.5794 58.4568C16.3337 58.4464 16.2214 58.6208 15.9143 58.5385C15.6073 58.4568 14.9326 57.1583 14.7993 56.8926C14.666 56.6269 14.4825 56.5146 14.6254 56.2796C14.7685 56.0446 15.0246 55.8298 15.3617 55.8806C15.6994 55.9315 15.9653 56.0955 16.1496 55.9622C16.3337 55.829 16.3847 55.4922 16.7427 55.4615C17.1006 55.4308 17.1418 55.4308 17.5507 55.4615C17.9595 55.4922 18.3078 55.3493 18.3175 54.9609C18.3281 54.5723 18.3071 53.8367 18.4097 53.2131C18.5122 52.5897 18.543 52.0583 18.6141 51.8329C18.6861 51.6085 18.7879 51.1893 18.522 51.0868C18.2561 50.9842 17.9595 50.9842 17.8675 50.6983C17.7754 50.4124 17.806 49.5128 17.356 49.155C16.9059 48.7972 16.4761 48.6947 16.4461 48.4289C16.4153 48.1633 16.1802 47.7336 15.9503 47.4118C15.7204 47.09 15.2905 46.9059 14.9528 46.8752C14.615 46.8445 14.5776 46.4306 14.5739 46.2315C14.5694 46.0324 14.2323 45.8633 14.3851 45.5265C14.5386 45.1889 14.8149 44.7443 14.8457 44.591C14.8764 44.4374 14.7963 43.6404 14.3454 43.6097C13.8946 43.579 13.5419 43.3949 13.5111 43.058C13.4804 42.7205 13.634 42.2452 13.6489 41.7392C13.6639 41.2334 13.6797 40.8037 13.3884 40.5739C13.097 40.3442 12.4215 40.4512 12.3908 40.2214C12.36 39.9916 12.4364 39.8225 12.7435 39.7611C13.0506 39.6997 13.3726 39.8225 13.8024 39.669C14.2323 39.5156 14.3851 39.1937 14.6921 39.1324C14.9992 39.071 15.352 39.1937 15.5361 39.4086C15.7204 39.6234 16.1959 40.0373 16.625 39.8838C17.0549 39.7304 17.2691 39.3165 17.699 39.2858C18.1288 39.2551 18.3281 39.3928 18.3281 39.6847C18.3281 39.9766 18.4966 40.9572 18.758 41.1413C19.0185 41.3254 19.4633 41.2482 19.8318 41.3403C20.2003 41.4325 20.3538 41.6928 20.4144 41.969C20.4759 42.2452 20.7365 42.3522 20.8286 42.4907C20.9207 42.6284 20.6443 43.1037 20.9207 43.2572C21.197 43.4106 21.5648 43.1037 21.7797 42.8889C21.9946 42.6741 22.286 42.5207 22.4852 42.8126C22.6843 43.1037 22.9457 43.7631 23.0221 43.2265C23.0985 42.6898 22.8686 42.3066 23.0835 42.3373C23.2985 42.368 23.8197 42.4907 23.8968 42.8432C23.9732 43.1958 24.4795 43.6561 24.6637 43.6561C24.8479 43.6561 25.1242 44.1778 25.277 44.2234C25.4305 44.2691 26.2648 44.2085 26.5 44.2085C26.7352 44.2085 27.502 44.1014 27.6399 44.1014C27.7777 44.1014 28.3146 44.04 28.5295 44.1321C28.7444 44.2242 29.2814 44.3926 29.3271 44.6231C29.3727 44.8529 29.1586 45.3896 28.9587 45.6656C28.7594 45.9418 28.4366 46.0954 28.8515 46.2637C29.2664 46.4321 29.542 46.2944 29.6491 46.4321C29.7562 46.5698 29.9254 46.6162 29.7105 47.3213C29.4956 48.0264 29.3271 48.4867 29.3578 49.0689C29.3885 49.6512 29.3428 50.2493 29.3885 50.6025C29.4341 50.9551 29.4956 51.9521 29.5877 52.2124C29.6799 52.4729 29.7563 52.8868 30.3546 52.7341C30.9529 52.5807 31.0907 52.4579 31.5206 52.3966C31.9505 52.3352 33.1464 52.7341 33.285 52.4422C33.4228 52.1511 33.6071 51.7985 34.1133 51.5373C34.6196 51.2761 34.9574 51.2304 35.3714 51.2769C35.7856 51.3225 36.4603 51.4916 36.7831 51.5837C37.1051 51.6759 37.5964 51.7678 37.8571 51.8599C38.1176 51.9521 38.5625 52.059 38.7624 52.2738C38.9617 52.4886 39.0694 52.6877 39.0081 53.2401C38.9467 53.7917 39.0845 54.4818 39.3608 54.7737C39.6371 55.0649 39.9284 55.1113 40.1277 55.249C40.3269 55.3866 40.3733 55.5708 40.3733 55.8163C40.3733 56.0618 40.5516 56.2459 40.616 56.445C40.6804 56.6441 40.5882 56.7361 40.6954 56.9974C40.8024 57.2578 41.3559 57.4232 41.3567 57.4143C41.3574 57.4052 41.3708 57.7324 41.3694 57.8214C41.3678 57.9105 41.3717 58.0557 41.2001 58.2076C41.0286 58.3588 40.8369 58.513 40.8024 58.623C40.768 58.733 40.7036 59.2015 40.6976 59.2741C40.6916 59.3467 40.6571 59.8797 40.6526 59.9837C40.6482 60.087 40.6287 60.6012 40.6287 60.6012L40.6174 61.1109L40.6152 61.5129L40.6167 61.5083Z" fill="#E2D2FF" stroke="white" stroke-width="0.647723" stroke-linecap="round" stroke-linejoin="round"/>
<path d="M14.6253 56.2788C14.7684 56.0438 15.0246 55.829 15.3615 55.8798C15.6993 55.9307 15.9652 56.0946 16.1493 55.9614C16.3336 55.8281 16.3846 55.4914 16.7425 55.4607C17.1004 55.43 17.1417 55.43 17.5506 55.4607C17.9594 55.4914 18.3077 55.3485 18.3174 54.9599C18.3279 54.5715 18.307 53.8357 18.4095 53.2123C18.5122 52.5888 18.5428 52.0574 18.614 51.8321C18.6859 51.6076 18.7878 51.1884 18.5219 51.0859C18.256 50.9834 17.9594 50.9834 17.8674 50.6975C17.7753 50.4116 17.8059 49.512 17.3559 49.1541C16.9058 48.7964 16.476 48.6939 16.4459 48.4281C16.4152 48.1624 16.1801 47.7328 15.9502 47.411C15.7203 47.0891 15.2905 46.905 14.9527 46.8743C14.6149 46.8436 14.5775 46.4298 14.5737 46.2307C14.5693 46.0316 14.2322 45.8625 14.385 45.5256C14.5385 45.1881 14.8148 44.7435 14.8455 44.59C14.8763 44.4366 14.7961 43.6396 14.3453 43.6089C13.8944 43.5782 13.5418 43.3941 13.511 43.0572C13.4804 42.7197 13.6339 42.2444 13.6488 41.7384C13.6638 41.2324 13.6795 40.8028 13.3882 40.5731C13.0968 40.3433 12.4214 40.4504 12.3906 40.2206C12.36 39.9908 12.4364 39.8216 12.7434 39.7603C13.0505 39.6989 13.3725 39.8216 13.8023 39.6682C14.2322 39.5148 14.385 39.1929 14.692 39.1315C14.9991 39.0702 15.3518 39.1929 15.536 39.4077C15.7203 39.6225 16.1958 40.0365 16.6249 39.883C17.0548 39.7296 17.269 39.3157 17.6989 39.285C18.1287 39.2543 18.3279 39.392 18.3279 39.6839C18.3279 39.9758 18.4965 40.9562 18.7577 41.1404C19.0184 41.3245 19.4632 41.2474 19.8317 41.3395C20.2001 41.4315 20.3537 41.692 20.4143 41.9682C20.4758 42.2444 20.7363 42.3514 20.8285 42.4899C20.9206 42.6276 20.6442 43.1029 20.9206 43.2563C21.1969 43.4098 21.5647 43.1029 21.7796 42.8881C21.9945 42.6733 22.2859 42.5198 22.4851 42.8117C22.6842 43.1029 22.9456 43.7623 23.022 43.2256C23.0984 42.689 22.8685 42.3058 23.0834 42.3364C23.2984 42.3671 23.8196 42.4899 23.8967 42.8424C23.9731 43.195 24.4794 43.6553 24.6636 43.6553C24.8478 43.6553 25.1242 44.1769 25.2769 44.2225C25.4305 44.2682 26.2648 44.2076 26.4999 44.2076C26.735 44.2076 27.5019 44.1006 27.6398 44.1006C27.7775 44.1006 28.3145 44.0392 28.5294 44.1313C28.7444 44.2233 29.2813 44.3918 29.327 44.6223C29.327 44.6223 29.4647 43.8558 29.6183 43.3805C29.7718 42.9052 30.0632 42.4606 30.4159 42.2615C30.7686 42.0625 31.5205 41.6022 31.4441 41.3724C31.3677 41.1427 30.815 41.0199 30.3395 40.5903C29.8639 40.1607 29.5726 39.2101 29.6183 38.7199C29.664 38.2289 29.3112 37.1556 28.6979 36.8031C28.0846 36.4505 28.0232 36.1743 27.7468 35.8983C27.4705 35.6221 27.3326 35.6685 26.4273 35.4685C25.5218 35.2695 25.1234 35.039 24.9699 34.8863C24.8163 34.7329 24.3259 34.5644 23.9881 34.6715C23.6503 34.7785 23.1748 35.0854 23.037 34.932C22.8992 34.7785 22.8221 34.4874 22.5457 34.2883C22.2693 34.0892 21.9324 33.9357 21.7939 33.9971C21.656 34.0585 21.6402 34.396 21.2112 34.3347C20.7813 34.2733 19.524 34.1356 19.2011 33.798C18.8792 33.4604 18.4492 32.6177 18.5106 31.9583C18.572 31.2989 18.7099 30.992 18.7099 30.6395C18.7099 30.2871 18.5106 29.9802 18.2957 30.0721C18.0808 30.1642 17.6517 30.6238 17.4368 30.6395C17.2219 30.6545 17.0068 31.0077 16.8541 31.2989C16.7005 31.5901 16.7777 31.8812 16.2407 31.8812C15.7038 31.8812 15.1819 31.7435 14.6448 31.5437C14.1079 31.3446 13.5859 31.3289 13.1718 31.3289C12.7576 31.3289 11.9444 31.5744 11.3617 31.3745C10.779 31.1754 10.5334 30.8528 10.3799 30.5003C10.2264 30.1478 9.7201 29.519 9.39807 29.2735C9.07605 29.0282 9.15243 28.921 8.04781 28.8132C6.94319 28.7063 6.19129 28.7984 5.83856 28.8132C5.48584 28.8282 5.47011 28.951 4.99456 29.1044C4.51901 29.2578 4.36549 29.1658 3.73641 28.9203C3.10734 28.6748 2.5861 28.9053 2.5247 28.9353C2.46329 28.9659 2.32549 30.0543 2.32549 30.4075C2.32549 30.7608 2.12629 31.3581 1.88064 31.8183C1.63501 32.2786 1.4358 32.6768 1.19016 33.1214C0.944524 33.566 0.791 33.9186 0.929546 33.9492C1.06734 33.9799 1.298 33.3976 1.4665 33.4433C1.63501 33.4889 1.80426 33.8572 2.14126 33.9036C2.47902 33.9492 2.73963 33.8115 3.12306 33.8729C3.5065 33.9343 4.02848 34.072 4.04346 34.3332C4.05844 34.5937 4.18126 34.9461 4.54972 35.238C4.91818 35.5292 4.94888 35.3144 4.94888 35.8667C4.94888 36.4191 4.94888 37.1549 5.74645 38.0441C6.54402 38.9332 7.46442 40.5896 7.52584 40.6816C7.58724 40.7737 7.77147 41.356 8.10848 41.7855C8.44622 42.2151 8.23129 42.6597 8.56904 43.1043C8.9068 43.5489 9.12098 43.4419 9.38234 43.9629C9.64297 44.4845 9.76578 45.1124 9.84292 45.2352C9.9193 45.3579 10.4413 45.4957 10.5641 45.6955C10.6869 45.8946 10.6869 46.6004 10.6712 46.6925C10.6562 46.7845 10.6712 46.7845 11.0239 47.1835C11.3767 47.5824 11.6987 47.8122 11.5152 48.1034C11.331 48.3944 11.2853 48.7321 11.5766 48.9776C11.8679 49.223 12.0679 48.9626 12.267 49.4528C12.4663 49.9438 13.019 50.6331 13.0804 50.8786C13.1419 51.1241 13.4024 51.446 13.5559 51.8291C13.7094 52.2123 14.1544 52.8568 14.2465 52.9788C14.3385 53.1015 14.5535 53.1472 14.5378 53.5304C14.5228 53.9136 14.1079 54.5116 13.9551 54.7107C13.8016 54.9098 13.7094 55.0939 13.8481 55.3701C13.9858 55.6463 14.2621 56.0752 14.3236 56.1523C14.385 56.2286 14.6253 56.2802 14.6253 56.2802V56.2788Z" fill="#D2B8FF" stroke="white" stroke-width="0.647723" stroke-linecap="round" stroke-linejoin="round"/>
<path d="M24.9564 34.8869C24.8029 34.7335 24.3123 34.5651 23.9747 34.6721C23.6369 34.7791 23.1613 35.086 23.0236 34.9326C22.8857 34.7791 22.8086 34.488 22.5323 34.2889C22.2559 34.0898 21.9189 33.9363 21.7803 33.9977C21.6425 34.0591 21.6268 34.3966 21.1977 34.3353C20.7678 34.2739 19.5104 34.1362 19.1877 33.7986C18.8656 33.461 18.4358 32.6183 18.4972 31.9589C18.5586 31.2995 18.6964 30.9926 18.6964 30.6401C18.6964 30.2877 18.4972 29.9808 18.2823 30.0729C18.0673 30.1648 17.6382 30.6244 17.4233 30.6401C17.2083 30.6551 16.9934 31.0083 16.8406 31.2995C16.6871 31.5907 16.7642 31.8818 16.2273 31.8818C15.6903 31.8818 15.1683 31.7441 14.6314 31.5443C14.0944 31.3452 13.5724 31.3295 13.1583 31.3295C12.7442 31.3295 11.9308 31.575 11.3482 31.3751C10.7656 31.176 10.5199 30.8535 10.3664 30.5009C10.2129 30.1484 9.70663 29.5197 9.3846 29.2743C9.06258 29.0288 9.13896 28.9217 8.03434 28.8138C6.92973 28.7069 6.17782 28.799 5.8251 28.8138C5.47237 28.8288 5.45664 28.9516 4.98109 29.105C4.50554 29.2584 4.35202 29.1664 3.72295 28.9209C3.09387 28.6754 2.57263 28.9059 2.51123 28.9359C2.51123 28.9359 3.07814 27.7399 3.15453 27.3716C3.23092 27.0034 3.09312 26.8657 3.16951 26.5131C3.24589 26.1606 3.2766 25.9308 3.7222 26.0528C4.16704 26.1756 5.21026 26.5745 5.74721 26.6658C6.28417 26.7579 7.92575 27.2639 8.52412 27.3253C9.12249 27.3866 9.13746 27.5094 9.49095 27.3401C9.84368 27.1718 12.053 25.8373 12.2521 25.4084C12.4513 24.9788 12.7891 24.1204 13.0655 23.7828C13.3418 23.4452 13.5717 23.4609 14.063 23.4609C14.5543 23.4609 16.6406 23.3075 17.0391 23.2005C17.4382 23.0934 17.7753 22.7402 17.9445 22.3569C18.113 21.9737 17.9594 21.4827 18.6657 21.0381C19.3712 20.5936 19.801 20.5779 19.9081 20.3024C20.0153 20.0263 20.0459 19.5817 19.7703 19.2134C19.494 18.8452 18.083 17.6648 17.776 17.1125C17.469 16.5602 16.1502 14.7975 15.9809 14.5363C15.8124 14.2758 15.6431 13.7542 15.7203 13.6313C15.7967 13.5087 18.1444 13.0791 19.0034 12.8957C19.8625 12.7116 20.4458 12.6195 20.6301 12.5581C20.8143 12.4967 21.0906 12.6809 20.9371 12.8957C20.7836 13.1105 20.1545 14.2451 20.1238 14.5056C20.0931 14.766 19.8475 15.671 20.1852 15.9007C20.5229 16.1305 21.0906 16.6215 21.1827 16.8363C21.2749 17.0512 21.3055 17.8789 21.7812 17.8482C22.2566 17.8175 25.6776 17.7718 26.2303 17.7718C26.783 17.7718 27.7955 17.8025 28.1939 17.8789C28.5931 17.9552 29.5284 18.3235 30.0347 18.3542C30.5409 18.3849 30.7252 18.2621 30.9244 18.4155C31.1236 18.569 31.6298 19.1977 32.2132 19.3511C32.7958 19.5046 34.8524 19.3511 35.4657 19.4125C36.0791 19.4739 36.4782 19.673 36.8309 19.8878C37.1837 20.1026 37.0152 20.4095 37.5521 20.6393C38.089 20.869 38.5646 20.7769 38.8866 20.8233C39.2087 20.869 39.6078 20.7312 39.8071 21.0838C40.0063 21.4363 39.9449 21.9423 40.1448 22.3412C40.344 22.7402 41.0038 22.8322 41.3258 23.0313C41.6478 23.2304 41.7557 23.5523 41.5864 23.7596C41.4179 23.9669 39.3315 25.4234 38.6103 25.7609C37.8891 26.0985 36.2326 26.7729 35.8491 27.1718C35.4657 27.5706 35.0051 27.5094 34.9288 27.9995C34.8524 28.4905 35.0516 29.5025 34.8673 29.87C34.6831 30.2383 34.4375 30.7284 34.1768 30.8512C33.9162 30.9739 33.3179 31.2037 33.3179 31.2037C33.3179 31.2037 33.1269 31.2097 32.9688 31.2464C32.8101 31.2823 32.4507 31.4014 32.2222 31.527C31.9939 31.6535 31.3063 31.9058 31.3063 31.9058L30.69 32.1565C30.69 32.1565 30.3178 32.2972 30.2249 32.3593C30.1313 32.4207 29.8999 32.6221 29.828 32.6872C29.7553 32.7523 29.5696 32.9192 29.4295 32.9611C29.2896 33.003 29.1749 33.0412 28.7204 33.0337C28.2665 33.0262 28.1033 32.9895 27.9064 33.116C27.7094 33.2425 27.3716 33.4708 27.2698 33.5345C27.1687 33.5973 26.9073 33.7507 26.7433 33.8264C26.5793 33.9019 26.1396 34.101 26.0753 34.1295C26.0109 34.1579 25.7202 34.2859 25.6252 34.3233C25.5309 34.36 25.4545 34.3884 25.4087 34.4557C25.3631 34.5231 25.2657 34.6519 25.241 34.6893C25.2162 34.7274 25.1234 34.8891 25.1234 34.8891L25.0695 34.9654L24.9571 34.8832L24.9564 34.8869Z" fill="#E2D2FF" stroke="white" stroke-width="0.647723" stroke-linecap="round" stroke-linejoin="round"/>
<path d="M20.9319 12.8975C20.7784 13.1123 20.1493 14.2469 20.1186 14.5074C20.0879 14.7679 19.8423 15.6728 20.1801 15.9026C20.5177 16.1324 21.0854 16.6234 21.1776 16.8382C21.2697 17.0529 21.3003 17.8807 21.776 17.85C22.2514 17.8194 25.6725 17.7737 26.2251 17.7737C26.7778 17.7737 27.7903 17.8044 28.1887 17.8807C28.5879 17.9571 29.5233 18.3253 30.0296 18.356C30.5358 18.3867 30.72 18.264 30.9192 18.4174C31.1185 18.5708 31.6246 19.1996 32.2081 19.353C32.7908 19.5064 34.8472 19.353 35.4606 19.4144C36.0739 19.4757 36.4731 19.6748 36.8257 19.8897C37.1785 20.1045 37.01 20.4112 37.5469 20.641C38.084 20.8708 38.5594 20.7788 38.8815 20.8252C39.2035 20.8708 39.6027 20.7331 39.8019 21.0856C40.0011 21.4382 39.9397 21.9441 40.1396 22.3431C40.3389 22.742 40.9986 22.8341 41.3206 23.0332C41.6427 23.2323 41.7505 23.554 41.5813 23.7613C41.4128 23.9688 39.3264 25.4252 38.6052 25.7628C37.884 26.1003 36.2274 26.7747 35.844 27.1737C35.4606 27.5725 35 27.5111 34.9236 28.0014C34.8472 28.4924 35.0464 29.5043 34.8621 29.8719C34.678 30.24 34.4323 30.7303 34.1717 30.853C34.1717 30.853 33.7913 31.0184 33.7403 31.0387C33.6893 31.0589 33.3988 31.1741 33.3988 31.1741L33.3164 31.2063C33.3164 31.2063 33.5636 31.2078 33.6804 31.2273C33.7972 31.2468 33.9942 31.3066 34.0339 31.3246C34.0743 31.3433 34.3132 31.4705 34.3545 31.4922C34.3956 31.5139 34.6173 31.6143 34.6944 31.6359C34.7723 31.6576 35.0202 31.7183 35.1609 31.7078C35.3017 31.6973 35.5946 31.6329 35.7175 31.6038C35.8402 31.5745 36.4319 31.4637 36.4319 31.4637C36.4319 31.4637 37.0482 31.356 37.0685 31.3522C37.0887 31.3485 37.6616 31.2505 37.6908 31.2452C37.7192 31.24 38.0989 31.1929 38.2899 31.2138C38.4808 31.2341 38.9766 31.3089 39.0328 31.3231C39.089 31.3381 39.3901 31.4518 39.4454 31.4773C39.5001 31.5019 39.8544 31.6598 39.9487 31.6801C40.043 31.7003 40.2176 31.7198 40.3906 31.6816C40.5636 31.6427 40.9087 31.5618 40.9447 31.5551C40.9807 31.5483 41.3304 31.5042 41.3821 31.5019C41.4337 31.4997 41.5963 31.4953 41.6644 31.5237C41.7325 31.5513 41.9071 31.6523 41.9715 31.6778C42.0366 31.7026 42.22 31.7579 42.3459 31.7751C42.4717 31.7924 42.8326 31.8178 42.8911 31.8238C42.9502 31.8298 43.2087 31.8545 43.2595 31.862C43.3105 31.8694 43.464 31.9031 43.5479 31.9442C43.6318 31.9847 43.8617 32.1201 43.968 32.2085C44.0736 32.296 44.2811 32.4877 44.2811 32.4877L44.5327 32.7481C44.5327 32.7481 44.8202 33.0498 44.8719 33.1014C44.9236 33.1531 45.2014 33.4135 45.2718 33.4659C45.3422 33.5183 45.4688 33.6097 45.5519 33.6051C45.635 33.5999 45.7496 33.5976 45.9331 33.4816C46.1166 33.3656 46.3442 33.204 46.4095 33.171C46.4746 33.1381 46.5981 33.0864 46.6723 33.0789C46.7464 33.0714 46.8887 33.0648 47.0092 33.0969C47.1298 33.1291 47.198 33.1366 47.2339 33.2204C47.2692 33.3043 47.2833 33.3596 47.2781 33.412C47.2729 33.4636 47.2751 33.7533 47.2744 33.7892C47.2736 33.8259 47.2714 33.9689 47.3005 34.0415C47.3298 34.1141 47.3778 34.2196 47.4511 34.2982C47.5245 34.376 47.687 34.525 47.7514 34.5505C47.8165 34.5759 47.8691 34.6021 48.0008 34.5938C48.1334 34.5856 48.4202 34.5505 48.5033 34.5452C48.5857 34.5407 48.71 34.5362 48.7857 34.5527C48.8613 34.5692 49.0148 34.6148 49.0957 34.6522C49.1766 34.6897 49.3219 34.7646 49.3818 34.7997C49.4417 34.8349 49.5226 34.8984 49.6049 34.9097C49.6874 34.9209 49.8109 34.9232 49.9157 34.9029C50.0206 34.8827 50.1456 34.8199 50.1966 34.781C50.2476 34.7421 50.4002 34.6454 50.4991 34.6058C50.5979 34.5653 50.8616 34.4748 50.9627 34.4584C51.0638 34.4419 51.144 34.4187 51.2143 34.4622C51.2848 34.5055 51.4211 34.6193 51.4846 34.6904C51.5483 34.7623 51.7371 35.001 51.7587 35.0324C51.7805 35.0638 51.8801 35.2158 51.9011 35.2547C51.9221 35.2929 52.0224 35.5122 52.0403 35.5571C52.0575 35.6012 52.2568 36.1648 52.2853 36.2554C52.3137 36.3468 52.4433 36.7757 52.4658 36.8444C52.4882 36.9133 52.5855 37.152 52.6223 37.2209C52.659 37.2898 52.8798 37.6558 52.9818 37.7845C53.0836 37.9133 53.2895 38.1461 53.3194 38.1752C53.3495 38.2044 53.4146 38.2792 53.5202 38.3085C53.6257 38.3376 53.8482 38.3758 53.9164 38.3825C53.9845 38.3893 54.2893 38.4118 54.332 38.4139C54.3747 38.4162 54.5649 38.4223 54.6413 38.4342C54.7176 38.4462 55.0164 38.5225 55.0733 38.5427C55.1304 38.5629 55.4508 38.6946 55.4763 38.7067C55.5018 38.7186 55.7654 38.8578 55.8148 38.8975C55.8643 38.9372 56.038 39.0891 56.0559 39.1071C56.0747 39.1242 56.2664 39.3181 56.2948 39.3488C56.3234 39.3795 56.4948 39.5741 56.5263 39.6152C56.5585 39.6564 56.6558 39.7986 56.6716 39.8503C56.6866 39.9019 56.7007 40.0104 56.694 40.0441C56.6866 40.0778 56.7262 40.1122 56.7959 40.1301C56.8648 40.1489 57.1217 40.265 57.1613 40.2836C57.2017 40.3023 57.3636 40.3683 57.3838 40.3735C57.404 40.3787 57.5133 40.3997 57.5575 40.3817C57.6017 40.3637 57.7874 40.2934 57.8428 40.2791C57.899 40.2641 58.1791 40.2013 58.1791 40.2013C58.1791 40.2013 58.0113 39.9124 57.9836 39.8495C57.956 39.7867 57.8196 39.4139 57.7948 39.2755C57.7701 39.137 57.7814 39.0471 57.8465 38.9342C57.9118 38.8204 58.331 38.1715 58.331 38.1715C58.331 38.1715 58.728 37.6034 58.7579 37.563C58.7879 37.5226 59.0059 37.2478 59.0493 37.191C59.0935 37.1341 59.4192 36.6439 59.456 36.5848C59.4927 36.5256 59.9098 35.828 59.9098 35.828C59.9098 35.828 60.2805 35.1821 60.3472 35.0153C60.4138 34.8483 60.5261 34.629 60.5591 34.5721C60.592 34.5152 60.7943 34.1807 60.8099 34.1553C60.8257 34.1305 61.1761 33.5842 61.1761 33.5842L61.6218 32.9233C61.6218 32.9233 61.8682 32.5506 62.0605 32.3597C62.253 32.1681 62.5676 31.8717 62.7384 31.7661C62.9091 31.6607 63.0739 31.5708 63.2664 31.5154C63.4588 31.4593 63.9763 31.3365 64.04 31.3208C64.1036 31.3051 64.3769 31.2325 64.493 31.1838C64.6091 31.1352 65.1214 30.8957 65.182 30.8658C65.2427 30.8359 65.6313 30.6389 65.6313 30.6389L65.9474 30.4744C65.9474 30.4744 64.2137 30.4025 63.971 30.3823C63.7284 30.362 61.6517 30.1136 61.1611 30.1136C60.6707 30.1136 60.1779 30.2364 59.5616 30.1136C58.9445 29.9909 58.4614 29.7918 57.878 29.7611C57.2954 29.7304 56.7195 29.7611 56.4896 29.6765C56.2597 29.5919 55.1011 28.3884 54.6106 28.1122C54.1193 27.836 52.1632 26.1423 52.0636 26.0195C51.964 25.8968 48.7116 22.7001 48.2892 22.3393C47.8675 21.9793 47.1463 21.412 47.1463 21.412C47.1463 21.412 44.1238 18.6981 43.7785 18.353C43.4333 18.008 42.2134 17.1189 41.746 16.9347C41.278 16.7506 39.4604 15.7387 39.0455 15.4318C38.6313 15.1249 34.5581 12.2194 34.0593 12.0046C33.5605 11.7898 30.8376 11.069 30.416 10.977C29.9943 10.8849 28.1835 10.5706 28.1835 10.5706L27.4009 10.3939C27.4009 10.3939 26.2117 11.1454 25.4987 11.3445C24.785 11.5435 23.4811 11.9118 23.1127 11.9882C22.7443 12.0645 21.8238 12.2486 21.6479 12.2793C21.4719 12.31 21.218 12.3332 21.1341 12.3789C21.0495 12.4244 20.9806 12.444 20.9768 12.4597C20.9731 12.4747 20.8713 12.5824 20.89 12.6139C20.9095 12.6453 20.9573 12.6774 20.9671 12.7119C20.9768 12.7463 20.9305 12.8997 20.9305 12.8997L20.9319 12.8975Z" fill="#E2D2FF" stroke="white" stroke-width="0.647723" stroke-linecap="round" stroke-linejoin="round"/>
<path d="M54.2584 88.6433C54.2584 88.6433 54.4119 90.0744 54.2584 90.2788C54.1049 90.4831 53.6347 90.5857 53.5732 90.9943C53.5118 91.403 53.7163 92.078 53.6549 92.5279C53.5934 92.9777 53.4092 93.673 52.9591 93.7546C52.509 93.8361 51.8343 93.9185 51.5684 94.1842C51.3025 94.45 51.0981 95.2882 50.5663 95.6766C50.0347 96.0651 49.196 96.4947 49.0731 97.0051C48.9503 97.5163 48.9301 97.7618 49.0731 98.2933C49.2162 98.8246 48.9144 99.0701 48.9734 99.4587C49.0326 99.8471 49.0529 100.235 49.0731 100.706C49.0933 101.176 49.0416 101.707 48.9652 101.768C48.8888 101.83 49.9118 102.545 50.4638 102.545C51.0157 102.545 52.2844 102.504 52.6933 102.3C53.1021 102.095 53.389 101.911 53.7777 102.034C54.1663 102.157 54.0435 102.198 54.7594 102.198C55.4754 102.198 56.0887 102.055 56.6002 102.055C57.1118 102.055 58.6252 102.321 59.0342 102.546C59.443 102.771 60.2204 102.996 60.7117 103.057C61.203 103.119 65.7181 103.256 65.9488 103.164C66.1787 103.072 66.3322 102.904 66.8541 103.027C67.3761 103.149 67.821 103.456 68.0816 103.901C68.3423 104.345 68.6336 104.913 69.1406 105.02C69.6468 105.127 70.1995 105.157 70.4601 104.928C70.7208 104.698 71.6059 103.949 71.6059 103.949L71.9698 100.926L72.6903 94.9432L73.3217 90.4658L73.4917 89.2542C73.4917 89.2542 72.5615 89.4742 72.2634 89.5393C71.9654 89.6051 70.4392 89.9218 70.0714 89.9704C69.7037 90.0198 67.9714 90.1898 67.7955 90.2069C67.6195 90.2234 65.9532 90.3813 65.9532 90.3813L63.6368 90.5946C63.6368 90.5946 61.9085 90.7443 61.8058 90.7451C61.7033 90.7458 60.1748 90.7713 60.1748 90.7713L58.5841 90.7862C58.5841 90.7862 57.4832 90.7787 57.3356 90.7675C57.1881 90.7563 56.8556 90.7263 56.4864 90.5595C56.1172 90.3925 55.903 90.2825 55.6529 90.0722C55.4028 89.8619 55.3047 89.6523 55.1137 89.4353C54.922 89.2182 54.7063 88.9892 54.5737 88.8829C54.4411 88.7759 54.2577 88.6456 54.2577 88.6456L54.2584 88.6433Z" fill="#E2D2FF" stroke="white" stroke-width="0.647723" stroke-linecap="round" stroke-linejoin="round"/>
<path d="M54.254 88.641C54.254 88.641 54.4076 90.0721 54.254 90.2764C54.1005 90.4807 53.6302 90.5833 53.5688 90.9919C53.5073 91.4006 53.7118 92.0757 53.6504 92.5255C53.589 92.9753 53.4048 93.6706 52.9546 93.7522C52.5046 93.8338 51.8298 93.9161 51.5639 94.1818C51.2982 94.4476 51.0937 95.2858 50.562 95.6742C50.0302 96.0626 49.1915 96.4923 49.0687 97.0027C48.9458 97.514 48.9256 97.7594 49.0687 98.2909C49.2117 98.8222 48.9099 99.0677 48.9691 99.4562C49.0283 99.8447 49.0485 100.233 49.0687 100.703C49.0889 101.173 49.0372 101.705 48.9608 101.766C48.9608 101.766 48.7578 101.467 48.4051 101.437C48.0523 101.406 47.3694 101.421 47.2159 101.498C47.0624 101.574 47.0316 101.666 47.0316 101.666C47.0316 101.666 46.7935 100.815 46.5711 100.678C46.3487 100.54 46.1644 100.77 45.8881 100.394C45.6117 100.018 45.7502 99.7728 45.4126 99.5969C45.0748 99.4202 44.8681 99.4128 44.8681 99.1291C44.8681 98.8454 44.9138 98.4316 44.722 98.4316C44.5303 98.4316 43.8473 98.8612 43.7245 99.0295C43.6016 99.1979 43.6174 99.6815 43.4864 99.9801C43.3561 100.279 43.3635 100.494 43.0416 100.394C42.7195 100.295 42.1826 99.7885 42.1136 99.4741C42.0447 99.1598 41.9062 98.7915 41.6074 98.7915C41.3086 98.7915 40.7177 98.945 40.5409 98.8529C40.3643 98.7608 40.1321 98.2909 40.0496 98.1681C39.968 98.0454 39.7943 97.9174 39.5075 97.9383C39.2214 97.9585 39.0267 98.1067 39.0012 97.969C38.9757 97.8313 38.9908 97.1105 39.0012 96.8853C39.0117 96.6607 38.9555 96.374 38.6687 96.2671C38.3826 96.16 38.2239 96.3179 38.2186 96.1338C38.2134 95.9497 38.4283 95.1727 38.3363 94.9123C38.2441 94.6519 38.101 94.452 38.0704 94.1459C38.0396 93.839 37.7484 93.3278 37.5693 93.3077C37.3904 93.2874 36.4362 93.3869 36.2138 93.2028C35.9914 93.0187 35.9607 92.9498 35.9607 92.5973C35.9607 92.2447 36.076 91.67 36.0222 91.4552C35.9682 91.2404 35.7921 91.0031 35.9607 90.926C36.1292 90.8497 36.2371 90.9799 36.467 91.0106C36.6969 91.0413 37.0728 90.7501 37.2646 90.6348C37.4562 90.5196 37.5484 90.328 37.8554 90.4971C38.1624 90.6663 38.4687 90.7351 38.5998 90.5892C38.7301 90.4432 39.2057 89.6005 39.0829 89.3699C38.96 89.1402 38.5691 88.8175 38.638 88.5422C38.707 88.266 39.1675 87.8289 39.0446 87.5302C38.9219 87.2316 38.6845 87.0243 38.462 87.0011C38.2395 86.9779 38.1093 86.8708 38.1782 86.7406C38.247 86.6103 38.7226 85.8515 38.7841 85.591C38.8455 85.3305 38.7152 85.1464 38.838 84.9391C38.9607 84.7318 39.6131 84.3792 39.7658 84.2258C39.9194 84.0724 40.0422 83.8044 39.9501 83.5125C39.858 83.2213 39.6513 82.8531 39.8347 82.5313C40.019 82.2095 40.1493 82.0486 40.1875 82.0254C40.2257 82.0022 40.4713 82.4243 40.5094 82.6234C40.5477 82.8224 40.9087 83.6352 41.0921 83.7505C41.2764 83.8658 41.5677 83.9578 41.7137 83.8733C41.8597 83.7887 43.3246 82.4093 43.708 82.1174C44.0915 81.8263 44.4368 81.7881 44.7205 81.6114C45.0043 81.4348 45.1197 81.1975 45.2268 81.098C45.3339 80.9984 45.8252 81.0216 46.178 80.9984C46.5306 80.9752 46.7605 80.7836 46.9987 80.7297C47.2368 80.6758 47.7813 81.098 48.0577 81.0441C48.3339 80.9902 48.7481 80.5456 48.9399 80.4618C49.1315 80.3772 49.6378 80.2321 49.6378 80.2321H49.8535C49.8535 80.2321 50.2279 80.6653 50.3073 80.7702C50.3868 80.8749 50.8218 81.4528 50.8495 81.4864C50.8772 81.5201 51.2809 82.0088 51.352 82.1032C51.4231 82.1975 51.6464 82.5148 51.6936 82.5942C51.7407 82.6735 51.8897 82.9474 51.9077 83.0575C51.9264 83.1674 51.9391 83.3628 51.8485 83.5574C51.758 83.7521 51.5625 84.0859 51.5003 84.1846C51.4374 84.2834 51.2869 84.4923 51.2382 84.6509C51.1896 84.8096 51.1177 85.1726 51.1109 85.2991C51.1034 85.4256 51.0839 85.6494 51.1198 85.8192C51.1558 85.9892 51.1701 86.0617 51.3154 86.213C51.4599 86.3648 51.731 86.6231 51.731 86.6231C51.731 86.6231 52.0777 86.9322 52.1234 86.9711C52.1683 87.0101 52.5914 87.3663 52.6603 87.4225C52.7292 87.4794 53.1546 87.8207 53.2146 87.8685C53.2752 87.9158 53.7283 88.2644 53.7283 88.2644L54.054 88.504L54.251 88.6425L54.254 88.641Z" fill="#E2D2FF" stroke="white" stroke-width="0.647723" stroke-linecap="round" stroke-linejoin="round"/>
<path d="M38.167 86.7396C38.236 86.6094 38.7116 85.8504 38.773 85.5901C38.8343 85.3296 38.7041 85.1455 38.8268 84.9381C38.9497 84.7308 39.6019 84.3783 39.7547 84.2248C39.9082 84.0714 40.0311 83.8034 39.939 83.5115C39.8468 83.2204 39.6402 82.8521 39.8236 82.5303C40.0079 82.2084 40.1381 82.0475 40.1764 82.0243C40.1764 82.0243 39.9434 81.5506 39.6065 81.597C39.2687 81.6426 39.077 82.1187 38.6171 82.088C38.1566 82.0573 37.7424 81.9345 37.6279 81.9809C37.5125 82.0266 37.0759 82.4106 36.9142 82.3335C36.7532 82.2571 36.7838 81.8582 36.5689 81.4592C36.354 81.0603 36.0776 80.8844 35.8477 81.0221C35.6178 81.1599 35.4029 81.3904 35.4029 81.9577C35.4029 82.5251 35.5099 82.939 35.3108 83.177C35.1116 83.415 34.4137 84.0818 34.0376 84.1889C33.6617 84.2959 32.9637 84.6567 32.8641 84.9246C32.7646 85.1933 32.5421 85.492 32.933 85.5608C33.3239 85.6297 33.6467 85.4456 33.7082 85.7756C33.7696 86.105 33.6699 86.358 33.6236 86.5728C33.5778 86.7875 33.4857 87.6003 33.6542 87.8533C33.8227 88.1063 34.007 88.4357 34.2758 88.6737C34.5447 88.9117 34.8435 89.134 34.9281 89.3331C35.0127 89.5322 35.3272 89.6623 35.5414 89.5322C35.7564 89.4019 35.9713 88.9109 35.9863 88.6355C36.0012 88.3593 36.1166 87.6617 36.3315 87.3631C36.5465 87.0645 36.8378 87.0338 37.1523 87.0563C37.4669 87.0795 37.8353 87.0944 37.9424 87.0255C38.0495 86.9566 38.167 86.7396 38.167 86.7396Z" fill="#E2D2FF" stroke="white" stroke-width="0.647723" stroke-linecap="round" stroke-linejoin="round"/>
<path d="M47.0287 101.676C47.0287 101.676 46.7905 100.825 46.5681 100.687C46.3457 100.55 46.1614 100.779 45.8852 100.404C45.6088 100.028 45.7473 99.7825 45.4096 99.6066C45.0718 99.4299 44.8652 99.4224 44.8652 99.1388C44.8652 98.8551 44.9108 98.4412 44.719 98.4412C44.5274 98.4412 43.8443 98.8708 43.7216 99.0392C43.5987 99.2076 43.6144 99.6911 43.4834 99.9897C43.353 100.288 43.3605 100.503 43.0385 100.404C42.7166 100.304 42.1795 99.7982 42.1106 99.4838C42.0417 99.1695 41.9032 98.8012 41.6044 98.8012C41.3056 98.8012 40.7147 98.9547 40.538 98.8626C40.3612 98.7705 40.1291 98.3004 40.0467 98.1777C39.9651 98.0549 39.7913 97.927 39.5045 97.9479C39.2184 97.9682 39.0238 98.1163 38.9982 97.9786C38.9728 97.841 38.9878 97.1202 38.9982 96.8949C39.0087 96.6704 38.9526 96.3837 38.6658 96.2766C38.3789 96.1696 38.2239 96.2542 38.0553 96.3043C38.0553 96.3043 37.0226 97.0199 36.9815 97.2961C36.9403 97.5723 36.9507 97.7354 37.2017 97.945C37.4525 98.1545 38.1378 99.0796 38.2344 99.1866C38.3317 99.2937 39.1397 99.9583 39.2267 100.04C39.3136 100.121 40.6174 101.323 40.7709 101.538C40.9244 101.752 41.0315 102.09 41.0315 102.427C41.0315 102.764 41.0315 103.531 41.0622 103.914C41.0929 104.297 41.2157 104.405 41.2615 104.282C41.3071 104.159 41.2921 103.807 41.415 103.776C41.5377 103.746 41.6141 103.868 41.8755 104.114C42.1362 104.359 42.2282 104.421 42.2589 104.666C42.2897 104.912 41.8448 104.758 41.737 104.942C41.6299 105.126 41.746 105.602 41.9945 105.678C42.2432 105.754 42.8416 105.801 43.0258 106.016C43.21 106.23 43.3636 106.384 43.3786 106.583C43.3936 106.782 43.2251 107.257 43.3022 107.472C43.3786 107.687 43.8391 107.794 43.8549 108.131C43.8699 108.469 43.6863 108.607 43.6863 108.607C43.6863 108.607 44.7453 107.932 44.9445 107.656C45.1437 107.38 45.2358 106.813 45.4964 106.614C45.7571 106.415 45.8798 106.507 46.0791 106.337C46.2783 106.169 46.2633 105.602 46.0484 105.249C45.8335 104.897 45.8949 104.344 45.9562 104.16C46.0176 103.976 45.8185 103.363 46.0484 103.194C46.2783 103.026 46.616 103.056 46.616 102.887C46.616 102.718 46.2633 102.573 46.2019 102.415C46.1405 102.258 46.3756 102.131 46.4835 102.059C46.5905 101.987 46.8265 101.86 46.8265 101.86L47.0287 101.676Z" fill="#E2D2FF" stroke="white" stroke-width="0.647723" stroke-linecap="round" stroke-linejoin="round"/>
<path d="M0.194182 34.2524C0.194182 34.2524 0.447308 34.1453 0.478014 34.155C0.508718 34.1655 0.79255 34.3286 0.846471 34.4387C0.900391 34.5487 0.897396 34.7329 0.866691 34.8114C0.835985 34.8908 0.689202 35.003 0.541669 34.9491C0.394137 34.8952 0.173961 34.8444 0.150745 34.7036C0.127529 34.5629 0.0788509 34.4431 0.102067 34.3915C0.125283 34.3407 0.194182 34.2508 0.194182 34.2508V34.2524Z" fill="#E2D2FF" stroke="white" stroke-width="0.161523" stroke-linecap="round" stroke-linejoin="round"/>
</svg>
