<svg width="101" height="100" viewBox="0 0 101 100" fill="none" xmlns="http://www.w3.org/2000/svg">
<path d="M55.5069 25.6041C55.5069 25.6041 59.742 25.7331 59.8971 25.862C60.0522 25.991 60.5942 26.5061 60.6976 27.0734C60.801 27.6401 60.8268 28.3363 61.4464 28.4389C62.066 28.542 63.7704 28.2583 64.3131 28.4389C64.8552 28.6194 65.2429 29.1603 65.3204 29.5729C65.3979 29.9855 65.5013 30.7069 65.8108 30.8874C66.1209 31.0679 66.9472 32.3818 67.0248 32.8975C67.1023 33.4126 67.3607 33.49 67.9803 33.6705C68.5999 33.851 68.8584 34.1089 68.7809 34.4177C68.7033 34.7272 69.2202 35.0618 69.4005 35.3454C69.5814 35.6291 70.2526 35.9379 70.4077 36.0926C70.5628 36.2474 71.0015 36.6851 71.3116 36.9688C71.6217 37.2524 72.3447 37.1493 72.3188 37.6644C72.293 38.1795 72.293 38.4632 72.5773 38.6953C72.8616 38.9273 73.1452 38.7726 73.1452 39.1846C73.1452 39.5966 73.3261 40.9884 73.016 41.0142C72.7059 41.04 72.5256 40.2412 72.3447 40.6274C72.1638 41.0142 72.5773 41.8388 72.8351 42.0702C73.0935 42.3023 73.4547 43.2043 73.5839 43.5131C73.7131 43.8225 74.281 44.3376 74.4361 44.4924C74.5912 44.6471 74.9006 45.2138 75.004 45.6264C75.1074 46.039 75.3141 46.9409 75.5202 47.1981C75.727 47.456 76.5792 48.4611 76.992 48.7183C77.4055 48.9762 77.9218 48.6152 78.2319 48.7183C78.542 48.8215 78.7481 49.1309 78.929 49.1567C79.1099 49.1825 79.3936 48.2806 79.5486 48.4611C79.7037 48.6416 79.652 49.3114 79.4194 49.3888C79.1868 49.4661 78.9032 49.5435 78.8257 49.7498C78.7481 49.9561 78.7481 50.2907 79.0324 50.2649C79.3167 50.2391 79.8329 50.2662 79.8329 50.2662C79.8329 50.2662 79.9621 50.497 79.9621 50.5737C79.9621 50.6505 80.0913 51.5272 80.2206 51.6562C80.3498 51.7851 81.5896 52.9965 81.5896 52.9965C81.5896 52.9965 84.895 56.8105 85.0242 56.8363C85.1535 56.8621 91.1964 57.4545 91.1964 57.4545L96.1809 57.8671C96.1809 57.8671 97.059 57.9187 97.3691 57.8671C97.6792 57.8156 98.0404 57.9187 98.3505 58.3055C98.6606 58.6923 100.081 60.805 100.081 60.805L99.151 64.3869L97.9629 69.2833C97.9629 69.2833 97.601 71.474 96.8005 71.7828C96 72.0923 86.9095 75.8031 86.2124 76.0603C85.5153 76.3182 80.6857 78.2252 80.2722 78.1994C79.8588 78.1736 75.5719 78.7403 74.3327 78.8951C73.0929 79.0498 69.3481 79.3586 68.9094 79.5133C68.4701 79.668 65.9135 81.1882 65.2164 81.343C64.5192 81.4977 63.4086 82.76 62.9693 83.2242C62.5299 83.6877 61.7294 84.8217 61.6519 84.8991C61.5744 84.9764 60.7997 86.1104 60.7222 86.3419C60.6447 86.574 60.2576 87.4243 60.2576 87.4243L61.2649 79.0749L61.8587 75.0031L63.2788 62.5308L64.2085 55.4186C64.2085 55.4186 64.673 52.9191 64.4669 52.326C64.2602 51.7335 63.7181 50.4706 62.8659 49.8523C62.0137 49.2341 60.8772 48.5894 60.6705 48.1001C60.4638 47.6107 60.3604 45.8836 60.3862 45.2396C60.4121 44.5955 60.3345 42.4564 60.3862 41.8382C60.4379 41.2199 60.3862 40.189 59.7408 39.9312C59.0953 39.6733 58.5268 39.4928 58.3717 39.3645C58.2167 39.2355 57.9582 38.3594 57.2352 38.3078C56.5123 38.2562 56.1246 38.411 55.8151 38.2047C55.505 37.9984 54.4461 37.2254 54.0849 37.1738C53.7231 37.1222 52.8967 37.1738 52.5873 36.8644C52.2778 36.5549 51.8126 36.0656 50.9862 35.7561C50.1599 35.4467 49.6947 35.2668 49.6172 34.9058C49.5396 34.5448 49.118 33.9611 48.9717 33.7806C48.8255 33.6001 48.5759 32.9988 48.6446 32.8013C48.7133 32.6038 49.488 31.4786 49.6777 31.2723C49.8668 31.066 50.7366 29.6144 50.8312 29.3225C50.9257 29.0307 51.9803 27.4583 52.1485 27.2784C52.3162 27.0979 52.7165 26.686 53.0657 26.5438C53.4142 26.4023 53.8145 26.3507 54.1505 26.2476C54.4864 26.1444 55.5063 25.6035 55.5063 25.6035L55.5069 25.6041Z" fill="#E2D2FF" stroke="white" stroke-width="0.647723" stroke-linecap="round" stroke-linejoin="round"/>
<path d="M48.9686 33.7786C49.1148 33.9591 49.5365 34.5428 49.6141 34.9038C49.6916 35.2648 50.1561 35.4447 50.9831 35.7541C51.8095 36.0636 52.2747 36.5529 52.5841 36.8624C52.8943 37.1718 53.7206 37.1202 54.0818 37.1718C54.4436 37.2234 55.5019 37.9964 55.812 38.2027C56.1221 38.409 56.5092 38.2543 57.2321 38.3058C57.9551 38.3574 58.2135 39.2335 58.3686 39.3625C58.5237 39.4914 59.0916 39.6719 59.7377 39.9292C60.3831 40.187 60.4348 41.2179 60.3831 41.8362C60.3314 42.4544 60.409 44.5935 60.3831 45.2376C60.3573 45.8816 60.4606 47.6081 60.6674 48.0981C60.8741 48.5874 62.0106 49.2321 62.8628 49.8503C63.715 50.4686 64.2571 51.7315 64.4638 52.324C64.6706 52.9165 64.2054 55.4166 64.2054 55.4166L63.2757 62.5289L61.8555 75.0011C61.8555 75.0011 59.6261 75.5458 58.6321 75.6489C57.6381 75.7521 52.3175 76.2546 52.0206 76.2546C51.7238 76.2546 48.4568 76.332 48.0691 76.2546C47.6815 76.1772 47.152 75.9709 46.8684 75.7137C46.5841 75.4558 46.2746 74.8891 45.6676 74.4897C45.0606 74.0903 43.1495 72.5569 43.0593 72.2607C42.9692 71.9645 43.0209 71.4104 43.1369 71.1141C43.2529 70.8179 43.7565 70.2638 43.7048 69.8644C43.6531 69.465 43.0335 68.7562 42.8394 68.5241C42.6459 68.292 42.4517 68.009 42.2582 67.7637C42.0647 67.519 41.4703 66.9133 41.251 66.5139C41.0316 66.1145 40.4889 65.3416 40.5021 64.9937C40.5147 64.6459 40.7864 64.4654 40.8123 64.2723C40.8381 64.0792 40.7606 63.1899 40.9282 62.971C41.0959 62.7521 41.2125 62.3653 41.1734 62.1207C41.135 61.876 40.9408 60.9741 40.9799 60.5489C41.0184 60.1237 41.2125 59.8533 41.1476 59.6086C41.0833 59.3639 40.799 59.1576 40.4114 59.1444C40.0237 59.1319 39.4173 59.2602 39.1848 59.1702C38.9522 59.0803 38.6811 58.9639 38.6811 58.6419C38.6811 58.3199 38.8879 57.9463 38.9263 57.6884C38.9648 57.4305 38.7196 57.2632 38.1 57.1859C37.4804 57.1085 35.9695 56.9796 35.827 56.7091C35.6852 56.4387 35.3108 55.8971 35.2333 55.382C35.1557 54.8669 35.0139 54.0291 34.8847 53.5524C34.7555 53.0756 34.5361 52.8951 34.3685 52.6762C34.2008 52.4574 34.2008 51.89 34.1876 51.697C34.175 51.5039 34.2134 49.5195 34.3426 49.2616C34.4718 49.0038 34.833 48.9138 34.8204 48.6044C34.8078 48.2949 34.7561 48.1018 34.9881 47.9087C35.2207 47.7157 35.3625 47.5351 35.5434 47.5351C35.7243 47.5351 36.6023 48.0635 36.8608 48.076C37.1192 48.0886 37.7004 48.1918 37.984 48.076C38.2683 47.9603 38.2033 47.883 38.5261 47.9471C38.8488 48.0113 39.2106 48.1534 39.4684 48.1534C39.7262 48.1534 39.9979 48.0119 39.7911 47.6125C39.5844 47.2131 39.4942 46.8521 39.5718 46.7106C39.6493 46.5691 40.579 45.6281 40.7858 45.5766C40.9925 45.525 42.3093 45.3319 42.5292 45.164C42.7486 44.9967 43.459 44.6872 43.5365 44.4036C43.614 44.1199 43.9884 43.7979 44.2853 43.7205C44.5822 43.6432 44.9308 43.7847 45.4993 43.7847C46.0679 43.7847 46.8035 43.8362 47.0102 43.7973C47.217 43.7589 47.4237 43.5652 47.488 43.3079C47.5523 43.05 47.4105 42.5091 47.3462 42.2771C47.2819 42.045 47.1911 42.0582 47.2686 41.8519C47.3462 41.6456 47.3071 41.5041 47.1394 41.3236C46.9718 41.1431 46.6232 40.46 46.3774 40.2286C46.1322 39.9965 45.822 39.8034 45.887 39.4556C45.9513 39.1077 46.2746 38.8631 46.158 38.5153C46.042 38.1675 45.8479 37.9612 46.042 37.8838C46.2355 37.8064 46.649 37.9869 46.8041 37.7423C46.9591 37.4976 47.0751 37.1756 47.3077 36.9819C47.5403 36.7888 48.0307 36.9177 48.1082 36.6724C48.1858 36.4278 47.9664 35.7705 47.7338 35.5C47.5012 35.2296 47.2434 35.3327 47.1527 35.139C47.0625 34.9459 46.9976 34.7912 47.1142 34.4818C47.2302 34.1723 47.3077 34.0566 47.4886 33.8893C47.6695 33.722 47.708 33.6547 47.9664 33.7786C48.2248 33.9025 48.3667 33.9792 48.4826 33.9151C48.5986 33.8509 48.9686 33.7786 48.9686 33.7786Z" fill="#D2B8FF" stroke="white" stroke-width="0.647723" stroke-linecap="round" stroke-linejoin="round"/>
<path d="M47.1552 35.1334C47.2453 35.3265 47.5038 35.2233 47.7363 35.4944C47.9689 35.7649 48.1883 36.4221 48.1108 36.6668C48.0332 36.9115 47.5428 36.7825 47.3102 36.9762C47.0777 37.1693 46.9617 37.4914 46.8066 37.7367C46.6516 37.9813 46.2387 37.8008 46.0446 37.8782C45.8511 37.9555 46.0446 38.1618 46.1605 38.5096C46.2765 38.8575 45.9538 39.1021 45.8895 39.4499C45.8252 39.7977 46.1347 39.9908 46.3799 40.2229C46.6251 40.455 46.9737 41.1374 47.1419 41.3179C47.3096 41.4985 47.3487 41.64 47.2712 41.8463C47.1936 42.0526 47.2838 42.0394 47.3487 42.2714C47.413 42.5035 47.5554 43.0444 47.4905 43.3023C47.4256 43.5602 47.2195 43.7533 47.0127 43.7916C46.806 43.83 46.0704 43.779 45.5018 43.779C44.9333 43.779 44.5847 43.6375 44.2879 43.7149C43.991 43.7923 43.6166 44.1143 43.539 44.3979C43.4615 44.6816 42.7511 44.9904 42.5318 45.1584C42.3124 45.3257 40.9951 45.5194 40.7883 45.5709C40.5816 45.6225 39.6518 46.5628 39.5743 46.705C39.4968 46.8465 39.5869 47.2075 39.7937 47.6069C40.0004 48.0063 39.7294 48.1478 39.4709 48.1478C39.2125 48.1478 38.8513 48.0063 38.5286 47.9415C38.2059 47.8773 38.2702 47.9541 37.9865 48.0704C37.7022 48.1862 37.1211 48.083 36.8633 48.0704C36.6049 48.0578 35.7268 47.5295 35.5459 47.5295C35.365 47.5295 35.2232 47.71 34.9906 47.9031C34.9906 47.9031 34.8746 47.9887 34.845 48.0906C34.8154 48.1918 34.8084 48.2472 34.8084 48.2472C34.8084 48.2472 34.6792 48.2195 34.5639 48.1566C34.4485 48.0937 34.3344 48.0239 34.2979 47.9698C34.2613 47.9157 34.204 47.7698 34.2052 47.6861C34.2065 47.6025 34.2065 47.4767 34.1769 47.4088C34.1472 47.3408 34.0514 47.1496 34.0174 47.0836C33.9834 47.0175 33.9707 46.8848 33.9789 46.8307C33.9871 46.7773 33.9468 46.6131 33.9014 46.5546C33.8554 46.4961 33.7527 46.4043 33.6247 46.3452C33.4974 46.2861 33.3215 46.2005 33.2421 46.1313C33.1627 46.0622 33.0776 46.0012 33.0164 45.8684C32.9553 45.7357 32.9301 45.6754 32.9118 45.6118C32.8935 45.5483 32.8355 45.2823 32.8286 45.1684C32.8217 45.0552 32.8305 44.7697 32.8362 44.6942C32.8425 44.6187 32.8475 44.4181 32.8374 44.3545C32.8267 44.291 32.7801 44.1093 32.7025 44.0181C32.625 43.9275 32.5317 43.813 32.308 43.7325C32.0842 43.652 31.8195 43.5646 31.8195 43.5646L31.7155 43.5338C31.7155 43.5338 32.3924 43.2212 32.7668 43.1023C33.1412 42.9834 34.1743 42.8287 34.2714 42.7123C34.3685 42.5966 34.325 42.2947 34.1851 41.9941C34.0451 41.6934 34.226 41.4444 34.3552 41.4016C34.4845 41.3588 34.6137 41.5821 34.9061 41.6419C35.1986 41.7022 35.4142 41.6161 35.4917 41.4701C35.5692 41.3242 35.5346 40.8858 35.5087 40.5594C35.4829 40.233 35.4917 40.0783 35.7495 40.0009C36.0079 39.9235 36.2657 40.0613 36.3609 39.872C36.4555 39.6833 37.041 38.7122 37.4199 38.4807C37.7987 38.2486 39.7785 37.3643 40.054 37.1322C40.3294 36.9001 40.3036 36.4536 40.6049 36.1699C40.9062 35.8863 42.2576 35.0359 42.5765 34.8988C42.8948 34.7611 43.0757 34.5636 43.3859 34.5812C43.696 34.5982 43.8851 34.5812 44.1347 34.8472C44.3843 35.1133 44.7114 35.4485 45.0127 35.7146C45.314 35.9806 45.3487 36.0322 45.6758 36.0322C46.003 36.0322 46.3559 36.075 46.528 35.9378C46.7001 35.8007 46.7001 35.6718 46.7946 35.534C46.8892 35.3963 47.1546 35.1328 47.1546 35.1328L47.1552 35.1334Z" fill="#E2D2FF" stroke="white" stroke-width="0.647723" stroke-linecap="round" stroke-linejoin="round"/>
<path d="M31.7161 43.5332C31.7161 43.5332 32.393 43.2206 32.7675 43.1017C33.1419 42.9828 34.175 42.8281 34.272 42.7118C34.3691 42.596 34.3256 42.2941 34.1857 41.9935C34.0458 41.6929 34.2267 41.4438 34.3559 41.401C34.4851 41.3582 34.6143 41.5815 34.9068 41.6413C35.1992 41.7017 35.4148 41.6155 35.4923 41.4696C35.5699 41.3237 35.5352 40.8853 35.5094 40.5588C35.4835 40.2324 35.4923 40.0777 35.7501 40.0003C36.0086 39.923 36.2664 40.0607 36.3616 39.8714C36.4561 39.6827 37.0417 38.7116 37.4205 38.4801C37.7993 38.2481 39.7792 37.3637 40.0546 37.1317C40.3301 36.8996 40.3042 36.453 40.6055 36.1694C40.9068 35.8857 42.2582 35.0353 42.5772 34.8982C42.8955 34.7605 43.0764 34.563 43.3865 34.5806C43.6966 34.5976 43.8857 34.5806 44.1353 34.8467C44.3849 35.1127 44.7121 35.4479 45.0133 35.714C45.3146 35.98 45.3493 36.0316 45.6764 36.0316C46.0036 36.0316 46.3566 36.0744 46.5286 35.9373C46.7007 35.8002 46.7007 35.6712 46.7953 35.5335C46.8898 35.3957 47.1552 35.1322 47.1552 35.1322C47.1552 35.1322 47.0531 34.9001 47.0524 34.8228C47.0524 34.746 47.0682 34.5297 47.1766 34.3246C47.285 34.1196 47.3474 34.0221 47.442 33.9328C47.5365 33.8435 47.6267 33.7529 47.6702 33.7365C47.7136 33.7202 47.7584 33.5831 47.6702 33.4183C47.5819 33.2541 47.0966 32.7334 46.8728 32.6132C46.649 32.4931 46.2273 32.3038 45.9084 32.2868C45.5901 32.2698 45.0732 32.2522 44.9358 32.1321C44.7984 32.0119 44.3162 31.488 44.1523 30.9383C43.9891 30.3886 43.8164 29.8559 43.679 29.6156C43.5415 29.3754 43.1968 28.937 43.0335 28.937C42.8703 28.937 42.4479 29.0659 42.2677 29.2118C42.0868 29.3577 41.7943 29.3754 41.6739 29.3062C41.5535 29.2376 41.2264 29.0225 40.9421 29.0225C40.6578 29.0225 40.3395 29.1257 40.1756 29.0225C40.0124 28.9194 39.788 28.7131 39.788 28.464C39.788 28.2149 39.8397 27.8885 39.6676 27.8369C39.4955 27.7854 39.2799 27.7426 39.048 27.8797C38.8154 28.0174 38.4542 28.352 38.2128 28.1973C37.972 28.0426 37.6966 27.742 37.3953 27.4243C37.094 27.1067 36.741 26.8061 36.405 26.7715L36.0691 26.7369C36.0691 26.7369 35.6039 26.7281 35.3461 26.6249C35.0877 26.5218 35.1482 26.4362 34.7088 26.479C34.2695 26.5218 34.0634 26.6419 33.7791 26.6419C33.4948 26.6419 33.099 26.3501 32.7889 26.3067C32.4788 26.2639 32.1693 26.1777 31.7646 26.2463C31.36 26.3149 30.6111 26.4438 30.2493 26.5123C29.8875 26.5809 29.7072 26.6929 29.3366 26.6155C28.9666 26.5381 28.8462 26.3922 28.5708 26.2891C28.2953 26.1859 27.7444 26.2029 27.4431 26.3494C27.1418 26.4954 25.9108 26.9853 25.5408 27.1394C25.1708 27.2941 25.0328 27.6803 24.6023 27.7407C24.1718 27.8011 23.7331 27.6891 23.5175 27.8093C23.3025 27.9294 22.9237 28.23 22.5361 28.4105C22.1484 28.591 21.6234 28.8231 21.503 28.8659C21.3826 28.9087 21.3738 28.986 21.288 29.0892C21.2017 29.1923 21.1084 29.3879 21.1084 29.3879C21.1084 29.3879 21.4059 29.5615 21.6076 29.6263C21.8093 29.6911 22.1144 29.7741 22.2581 29.8049C22.4018 29.8358 22.8424 29.9219 22.9073 29.9364C22.9723 29.9515 23.1822 29.9968 23.2925 30.1049C23.4028 30.2131 23.5761 30.4433 23.6625 30.5345C23.7488 30.6257 23.9146 30.771 23.9915 30.8207C24.0684 30.871 24.2203 30.949 24.3041 31.0289C24.388 31.1088 24.5821 31.3534 24.6243 31.4308C24.6666 31.5075 24.7762 31.7314 24.8141 31.8478C24.8512 31.9641 24.9181 32.2176 24.9256 32.3201C24.9332 32.4227 24.92 32.6547 24.9332 32.7617C24.9471 32.8686 25.0038 33.1585 25.0517 33.2887C25.0996 33.4189 25.2112 33.6919 25.3038 33.8227C25.3965 33.9529 25.4866 34.073 25.607 34.1642C25.7274 34.2561 25.9518 34.3995 26.0608 34.4592C26.1699 34.519 26.3205 34.6001 26.3665 34.6397C26.4119 34.6794 26.4976 34.7485 26.4687 34.8158C26.4397 34.8831 26.3886 34.9781 26.2386 35.0913C26.0892 35.2045 25.7923 35.3989 25.7186 35.4417C25.6448 35.4844 25.4494 35.5857 25.3341 35.7278C25.2187 35.8706 25.1009 36.0429 25.0511 36.1517C25.0013 36.2606 24.8966 36.5568 24.879 36.6235C24.8613 36.6895 24.8015 36.9323 24.787 36.9952C24.7731 37.0587 24.7145 37.3373 24.7056 37.3832C24.6968 37.4292 24.6848 37.4927 24.6848 37.4927C24.6848 37.4927 24.6956 37.5958 24.676 37.6789C24.6565 37.7619 24.5827 37.994 24.5317 38.0958C24.4806 38.1977 24.3867 38.3638 24.3193 38.4386C24.2518 38.5135 24.1402 38.6324 24.1207 38.689C24.1005 38.7456 24.1339 38.7726 24.1547 38.7978C24.1755 38.8229 24.2354 38.8512 24.2695 38.8651C24.3035 38.8789 24.4214 38.9173 24.4447 38.9223C24.4686 38.9273 24.6098 38.9475 24.717 38.9519C24.8241 38.9569 24.8935 38.9613 24.9206 38.9827C24.9471 39.0034 25.0599 39.0978 25.0763 39.1846C25.0933 39.2714 25.1097 39.4267 24.9899 39.8173C24.8702 40.2079 24.7624 40.6054 24.7472 40.6934C24.7321 40.7815 24.705 41.1205 24.7101 41.2293C24.7151 41.3388 24.7182 41.8803 24.7182 41.957C24.7182 42.0344 24.7233 42.3954 24.7391 42.5407C24.7548 42.6854 24.7838 43.0005 24.7964 43.13C24.809 43.259 24.8506 43.6407 24.8708 43.7326C24.8903 43.8244 24.9534 44.0194 24.971 44.059C24.9887 44.098 25.0624 44.237 25.1248 44.2716C25.1866 44.3062 25.2584 44.337 25.3259 44.3364C25.3933 44.3357 25.5408 44.3144 25.6549 44.281C25.769 44.2477 26.081 44.1426 26.081 44.1426C26.081 44.1426 26.3476 44.0577 26.4132 44.0458C26.4787 44.0338 26.6294 44.008 26.8109 44.0332C26.9918 44.0577 27.2521 44.0999 27.2824 44.1049C27.312 44.1093 27.6745 44.1527 27.6745 44.1527C27.6745 44.1527 27.8207 44.1634 27.8837 44.1445C27.9468 44.1257 27.9877 44.1156 28.006 44.0816C28.0243 44.0477 28.1151 43.869 28.1434 43.8244C28.1718 43.7797 28.277 43.6319 28.3407 43.5722C28.4044 43.5118 28.5481 43.3923 28.6502 43.3388C28.7523 43.2847 28.9717 43.1803 29.0731 43.1501C29.1746 43.12 29.3549 43.0829 29.4091 43.0784C29.4627 43.0747 29.6707 43.0703 29.7961 43.0879C29.9216 43.1055 30.3653 43.1923 30.3653 43.1923C30.3653 43.1923 30.7901 43.2954 30.8292 43.3061C30.8683 43.3168 31.215 43.4074 31.215 43.4074L31.5081 43.4766L31.7173 43.5294" fill="#E2D2FF"/>
<path d="M31.7161 43.5332C31.7161 43.5332 32.393 43.2206 32.7675 43.1017C33.1419 42.9828 34.175 42.8281 34.272 42.7118C34.3691 42.596 34.3256 42.2941 34.1857 41.9935C34.0458 41.6929 34.2267 41.4438 34.3559 41.401C34.4851 41.3583 34.6143 41.5815 34.9068 41.6413C35.1992 41.7017 35.4148 41.6155 35.4923 41.4696C35.5699 41.3237 35.5352 40.8853 35.5094 40.5588C35.4835 40.2324 35.4923 40.0777 35.7501 40.0003C36.0086 39.923 36.2664 40.0607 36.3616 39.8714C36.4561 39.6827 37.0417 38.7116 37.4205 38.4801C37.7993 38.2481 39.7792 37.3637 40.0546 37.1317C40.3301 36.8996 40.3042 36.453 40.6055 36.1694C40.9068 35.8857 42.2582 35.0353 42.5772 34.8982C42.8955 34.7605 43.0764 34.563 43.3865 34.5806C43.6966 34.5976 43.8857 34.5806 44.1353 34.8467C44.3849 35.1127 44.7121 35.4479 45.0133 35.714C45.3146 35.98 45.3493 36.0316 45.6764 36.0316C46.0036 36.0316 46.3566 36.0744 46.5286 35.9373C46.7007 35.8002 46.7007 35.6712 46.7953 35.5335C46.8898 35.3957 47.1552 35.1322 47.1552 35.1322C47.1552 35.1322 47.0531 34.9001 47.0524 34.8228C47.0524 34.746 47.0682 34.5297 47.1766 34.3246C47.285 34.1196 47.3474 34.0221 47.442 33.9328C47.5365 33.8435 47.6267 33.7529 47.6702 33.7365C47.7136 33.7202 47.7584 33.5831 47.6702 33.4183C47.5819 33.2541 47.0966 32.7334 46.8728 32.6132C46.649 32.4931 46.2273 32.3038 45.9084 32.2868C45.5901 32.2698 45.0732 32.2522 44.9358 32.1321C44.7984 32.0119 44.3162 31.488 44.1523 30.9383C43.9891 30.3886 43.8164 29.8559 43.679 29.6156C43.5415 29.3754 43.1968 28.937 43.0335 28.937C42.8703 28.937 42.4479 29.0659 42.2677 29.2118C42.0868 29.3577 41.7943 29.3754 41.6739 29.3062C41.5535 29.2376 41.2264 29.0225 40.9421 29.0225C40.6578 29.0225 40.3395 29.1257 40.1756 29.0225C40.0124 28.9194 39.788 28.7131 39.788 28.464C39.788 28.2149 39.8397 27.8885 39.6676 27.8369C39.4955 27.7854 39.2799 27.7426 39.048 27.8797C38.8154 28.0174 38.4542 28.352 38.2128 28.1973C37.972 28.0426 37.6966 27.742 37.3953 27.4243C37.094 27.1067 36.741 26.8061 36.405 26.7715L36.0691 26.7369C36.0691 26.7369 35.6039 26.7281 35.3461 26.6249C35.0877 26.5218 35.1482 26.4362 34.7088 26.479C34.2695 26.5218 34.0634 26.6419 33.7791 26.6419C33.4948 26.6419 33.099 26.3501 32.7889 26.3067C32.4788 26.2639 32.1693 26.1777 31.7646 26.2463C31.3599 26.3149 30.6111 26.4438 30.2493 26.5123C29.8875 26.5809 29.7072 26.6929 29.3366 26.6155C28.9666 26.5381 28.8462 26.3922 28.5708 26.2891C28.2953 26.1859 27.7444 26.2029 27.4431 26.3494C27.1418 26.4954 25.9108 26.9853 25.5408 27.1394C25.1708 27.2941 25.0328 27.6803 24.6023 27.7407C24.1718 27.8011 23.7331 27.6891 23.5175 27.8093C23.3025 27.9294 22.9237 28.23 22.5361 28.4105C22.1484 28.591 21.6234 28.8231 21.503 28.8659C21.3826 28.9087 21.3738 28.986 21.288 29.0892C21.2017 29.1923 21.1084 29.3879 21.1084 29.3879C21.1084 29.3879 21.4059 29.5615 21.6076 29.6263C21.8093 29.6911 22.1144 29.7741 22.2581 29.8049C22.4018 29.8358 22.8424 29.9219 22.9073 29.9364C22.9723 29.9515 23.1822 29.9968 23.2925 30.1049C23.4028 30.2131 23.5761 30.4433 23.6625 30.5345C23.7488 30.6257 23.9146 30.771 23.9915 30.8207C24.0684 30.871 24.2203 30.949 24.3041 31.0289C24.388 31.1088 24.5821 31.3534 24.6243 31.4308C24.6666 31.5075 24.7762 31.7314 24.8141 31.8478C24.8512 31.9641 24.9181 32.2176 24.9256 32.3201C24.9332 32.4227 24.92 32.6547 24.9332 32.7617C24.9471 32.8686 25.0038 33.1585 25.0517 33.2887C25.0996 33.4189 25.2112 33.6919 25.3038 33.8227C25.3965 33.9529 25.4866 34.073 25.607 34.1642C25.7274 34.2561 25.9518 34.3995 26.0608 34.4592C26.1699 34.519 26.3205 34.6001 26.3665 34.6397C26.4119 34.6794 26.4976 34.7485 26.4687 34.8158C26.4397 34.8831 26.3886 34.9781 26.2386 35.0913C26.0892 35.2045 25.7923 35.3989 25.7186 35.4417C25.6448 35.4844 25.4494 35.5857 25.3341 35.7278C25.2187 35.8706 25.1009 36.0429 25.0511 36.1517C25.0013 36.2606 24.8966 36.5568 24.879 36.6235C24.8613 36.6895 24.8015 36.9323 24.787 36.9952C24.7731 37.0587 24.7145 37.3373 24.7056 37.3832C24.6968 37.4292 24.6848 37.4927 24.6848 37.4927C24.6848 37.4927 24.6956 37.5958 24.676 37.6789C24.6565 37.7619 24.5827 37.994 24.5317 38.0959C24.4806 38.1977 24.3867 38.3638 24.3193 38.4386C24.2518 38.5135 24.1402 38.6324 24.1207 38.689C24.1005 38.7456 24.1339 38.7726 24.1547 38.7978C24.1755 38.8229 24.2354 38.8512 24.2695 38.8651C24.3035 38.8789 24.4214 38.9173 24.4447 38.9223C24.4686 38.9273 24.6098 38.9475 24.717 38.9519C24.8241 38.9569 24.8935 38.9613 24.9206 38.9827C24.9471 39.0034 25.0599 39.0978 25.0763 39.1846C25.0933 39.2714 25.1097 39.4267 24.9899 39.8173C24.8702 40.2079 24.7624 40.6054 24.7472 40.6934C24.7321 40.7815 24.705 41.1205 24.7101 41.2293C24.7151 41.3388 24.7182 41.8803 24.7182 41.957C24.7182 42.0344 24.7233 42.3954 24.7391 42.5407C24.7548 42.6854 24.7838 43.0005 24.7964 43.13C24.809 43.259 24.8506 43.6407 24.8708 43.7326C24.8903 43.8244 24.9534 44.0194 24.971 44.059C24.9887 44.098 25.0624 44.237 25.1248 44.2716C25.1866 44.3062 25.2584 44.337 25.3259 44.3364C25.3933 44.3357 25.5408 44.3144 25.6549 44.281C25.769 44.2477 26.081 44.1426 26.081 44.1426C26.081 44.1426 26.3476 44.0577 26.4132 44.0458C26.4787 44.0338 26.6294 44.008 26.8109 44.0332C26.9918 44.0577 27.2521 44.0999 27.2824 44.1049C27.312 44.1093 27.6745 44.1527 27.6745 44.1527C27.6745 44.1527 27.8207 44.1634 27.8837 44.1445C27.9468 44.1257 27.9877 44.1156 28.006 44.0816C28.0243 44.0477 28.1151 43.869 28.1434 43.8244C28.1718 43.7797 28.277 43.6319 28.3407 43.5722C28.4044 43.5118 28.5481 43.3923 28.6502 43.3388C28.7523 43.2847 28.9717 43.1803 29.0731 43.1501C29.1746 43.12 29.3549 43.0829 29.4091 43.0784C29.4627 43.0747 29.6707 43.0703 29.7961 43.0879C29.9216 43.1055 30.3653 43.1923 30.3653 43.1923C30.3653 43.1923 30.7901 43.2954 30.8292 43.3061C30.8683 43.3168 31.215 43.4074 31.215 43.4074L31.5081 43.4766L31.7173 43.5294" stroke="white" stroke-width="0.647723" stroke-linecap="round" stroke-linejoin="round"/>
<path d="M41.2491 66.5062C41.0297 66.1068 40.487 65.3338 40.5003 64.986C40.5129 64.6382 40.7845 64.4576 40.8104 64.2646C40.8362 64.0715 40.7587 63.1821 40.9264 62.9632C41.094 62.7444 41.2106 62.3576 41.1716 62.1129C41.1331 61.8682 40.939 60.9663 40.9781 60.5411C41.0165 60.116 41.2106 59.8455 41.1457 59.6008C41.0814 59.3562 40.7971 59.1499 40.4095 59.1373C40.0219 59.1247 39.4155 59.253 39.1829 59.1631C38.9503 59.0731 38.6793 58.9568 38.6793 58.6348C38.6793 58.3127 38.886 57.9391 38.9245 57.6813C38.9629 57.4234 38.7177 57.2561 38.0981 57.1787C37.4785 57.1014 35.9676 56.9724 35.8252 56.702C35.6833 56.4315 35.3089 55.89 35.2314 55.3749C35.1539 54.8598 35.0121 54.022 34.8828 53.5452C34.7536 53.0685 34.5343 52.888 34.3666 52.6691C34.1989 52.4502 34.1989 51.8829 34.1857 51.6898C34.1857 51.6898 33.2969 51.5923 33.1078 51.6898C32.9188 51.7873 32.8412 51.9244 33.0133 52.2596C33.1854 52.5949 33.2371 52.9729 33.0045 53.1358C32.7719 53.2987 32.3155 53.4534 31.7823 53.6339C31.249 53.8144 30.7151 54.1232 30.6717 54.3384C30.6288 54.5528 31.3606 54.8711 31.3348 55.2057C31.3089 55.5409 30.5172 55.79 30.2588 55.9271C30.0004 56.0648 28.8128 57.0951 28.4599 57.4819C28.1069 57.8687 27.7281 58.4184 27.4268 58.4524C27.1255 58.487 26.7296 58.2807 26.5399 58.2549C26.3508 58.2291 26.1869 58.4436 25.7911 58.6159C25.3952 58.7876 24.9301 58.9423 24.758 58.8222C24.5859 58.7021 24.6893 58.4096 24.758 58.2555C24.8267 58.1008 24.6716 57.7404 24.3621 57.5857C24.052 57.4309 23.7766 57.2762 23.8799 56.9498C23.9833 56.6234 24.4825 56.4171 24.3445 55.9019C24.2064 55.3868 23.8283 55.1975 23.3801 55.4038C22.9326 55.6101 22.6653 55.7988 22.2178 55.8422C21.7703 55.885 21.8043 55.7302 21.6927 55.473C21.5805 55.2151 21.6064 55.112 21.1765 55.1812C20.7466 55.2503 20.6943 55.2327 20.4794 55.0434C20.2644 54.8547 20.0917 54.4679 19.7992 54.1245C19.5068 53.7811 19.4633 53.5836 19.1191 53.5748C18.775 53.566 18.2241 53.6352 18.1465 53.7553C18.069 53.8754 18.1894 54.6226 18.3533 54.7692C18.5165 54.9151 18.6716 55.3963 18.6716 55.6195C18.6716 55.8428 18.7661 56.0321 18.8865 56.2378C19.0069 56.4441 18.5941 56.3925 19.0069 56.9253C19.4204 57.458 19.6959 57.4404 19.6959 57.7328C19.6959 58.0253 19.9713 58.0851 19.8339 58.3945C19.6959 58.7039 19.5755 58.7926 19.7305 59.0788C19.8856 59.365 19.9196 59.5455 19.791 59.7518C19.6618 59.9581 19.4292 59.9323 19.3864 60.3015C19.3435 60.6707 19.3435 61.0229 19.3 61.2034C19.2572 61.3839 19.2912 61.65 19.0674 61.6588C18.8437 61.6676 18.8695 61.7707 19.0157 61.994C19.162 62.2173 19.6959 62.7242 19.6788 63.0161C19.6618 63.3079 19.5496 63.5488 19.7394 63.8834C19.9285 64.2186 19.9543 64.3042 19.7652 64.4935C19.5761 64.6822 19.5414 64.8369 19.636 64.9828C19.7305 65.1287 19.8597 65.2407 19.8251 65.4382C19.7904 65.6357 19.8081 65.8936 19.9801 66.0483C20.1522 66.203 20.1175 66.8728 20.3848 66.9244C20.6514 66.976 20.8065 67.1307 20.8752 67.3194C20.9439 67.5081 20.9527 67.6886 21.116 67.7748C21.2799 67.8609 21.3139 67.8949 21.3826 68.1698C21.4513 68.4446 21.6064 68.7452 21.7873 69.0201C21.9682 69.295 22.5449 69.9906 22.8374 70.1799C23.1299 70.3686 23.6896 70.4548 23.8535 70.4459C24.0167 70.4371 24.284 70.5145 24.4302 70.7208C24.5764 70.9271 25.0416 71.1504 25.0416 71.1504C25.0416 71.1504 25.7217 71.6315 25.9802 71.8636C26.2386 72.0957 26.3073 72.6536 26.6433 72.9284C26.9792 73.2033 27.2112 73.1259 27.3146 73.1775C27.4179 73.2291 27.5037 73.487 27.4955 73.6071C27.4866 73.7272 27.4268 74.0279 27.7192 74.3203C28.0117 74.6122 28.279 74.3889 28.2613 74.6725C28.2443 74.9562 27.8655 75.1279 28.1409 75.4374C28.4164 75.7468 28.6231 76.0128 28.6401 76.133C28.6571 76.2531 29.0101 76.5456 29.1135 76.6827C29.2169 76.8204 29.3631 77.2154 29.2427 77.3525C29.1223 77.4903 29.1047 77.7217 29.2257 77.8676C29.3461 78.0136 29.3549 78.5117 29.3549 78.7268C29.3549 78.9419 29.4665 79.2079 29.6858 79.3708C29.9052 79.5337 30.1598 79.7061 30.209 79.8432C30.2582 79.9803 30.4737 80.6457 30.5771 80.8627C30.6805 81.0797 30.973 81.6213 30.973 81.6213L31.128 81.7628C31.128 81.7628 31.2106 81.5722 31.4684 81.3634C31.7262 81.1546 31.9367 80.9577 32.0716 80.9175C32.2065 80.8772 32.1674 80.7439 32.1888 80.6244C32.2103 80.5049 32.2563 80.2621 32.2689 80.1533C32.2815 80.0445 32.301 79.8382 32.2588 79.735C32.2166 79.6319 32.1025 79.3866 32.0804 79.2991C32.0584 79.2111 32.0199 78.9639 31.9733 78.8614C31.926 78.7582 31.7943 78.528 31.7356 78.4815C31.6777 78.435 31.6707 78.4085 31.399 78.4148C31.128 78.4211 30.84 78.4394 30.6862 78.3979C30.5324 78.3563 30.376 78.2595 30.3225 78.1595C30.2689 78.0588 30.2632 77.8129 30.2739 77.6815C30.2846 77.55 30.3294 77.1437 30.3307 77.0538C30.3319 76.9638 30.3351 76.8814 30.2966 76.7821C30.2575 76.6827 30.1977 76.5236 30.2084 76.4909C30.2191 76.4582 30.2802 76.3827 30.3559 76.394C30.4309 76.4053 30.5626 76.4594 30.6288 76.472C30.695 76.4846 30.8292 76.5047 31.036 76.3764C31.2427 76.2481 31.4444 76.1141 31.4444 76.1141C31.4444 76.1141 31.6266 75.9883 31.689 75.9971C31.7514 76.0059 32.0609 76.1493 32.1277 76.1663C32.1945 76.1833 32.4208 76.2248 32.4895 76.1298C32.5582 76.0349 32.7435 75.6959 32.8261 75.5216C32.9087 75.3474 32.9232 75.1902 32.9099 75.148C32.8961 75.1059 32.7385 74.8958 32.6773 74.8115C32.6162 74.7273 32.5311 74.5574 32.5166 74.4971C32.5021 74.4361 32.5431 74.3348 32.5885 74.2593C32.6338 74.1838 32.7864 73.9555 32.8236 73.8637C32.8608 73.7719 32.9269 73.653 32.8425 73.5115C32.758 73.37 32.6616 73.2366 32.5683 73.1882C32.4744 73.1404 32.3546 73.1146 32.2563 73.0907C32.1573 73.0668 32.093 73.0127 32.0174 73.0555C31.9418 73.0983 31.9411 73.1819 31.6833 73.1763C31.4255 73.1706 31.1614 73.1473 31.0719 73.1574C30.9818 73.1674 30.7492 73.1957 30.642 73.3423C30.5349 73.4888 30.4447 73.6668 30.4031 73.836C30.3615 74.0046 30.3243 74.17 30.3099 74.2908C30.2954 74.4115 30.3035 74.5329 30.2538 74.6769C30.204 74.821 30.1271 75.0078 30.0615 75.0902C29.996 75.1719 29.9367 75.2606 29.8415 75.2732C29.7463 75.2851 29.6146 75.2946 29.5276 75.2191C29.4406 75.1436 29.3789 75.0241 29.3354 74.9726C29.2925 74.921 29.1299 74.7619 29.0486 74.692C28.9666 74.6222 28.8469 74.5241 28.7901 74.465C28.7334 74.4059 28.5613 74.192 28.497 74.0939C28.4328 73.9958 28.3098 73.797 28.2821 73.7304C28.255 73.6637 28.2424 73.419 28.2437 73.3417C28.2455 73.2643 28.2764 72.8756 28.2897 72.8071C28.3029 72.7385 28.3395 72.6184 28.3577 72.5121C28.3767 72.4058 28.3949 72.18 28.3722 72.0988C28.3496 72.0183 28.3174 71.9403 28.2481 71.9271C28.1787 71.9146 28.03 71.9158 27.8749 71.919C27.7199 71.9221 27.6159 71.8819 27.5888 71.8573C27.5616 71.8328 27.4974 71.78 27.544 71.6561C27.5906 71.5322 27.6669 71.3284 27.723 71.2711C27.7797 71.2139 27.9663 71.0655 28.0728 71.007C28.1794 70.9479 28.3779 70.8491 28.4605 70.8177C28.5431 70.7862 28.7668 70.7214 28.9143 70.6164C29.0618 70.5114 29.3713 70.2661 29.5276 70.1038C29.6839 69.9422 29.7861 69.844 29.8132 69.6591C29.8396 69.4742 29.8188 69.4031 29.8151 69.3302C29.8113 69.2572 29.7911 68.871 29.7999 68.7767C29.8087 68.6824 29.8277 68.4603 29.9159 68.3421C30.0035 68.2245 30.1233 68.0999 30.1983 68.0773C30.2733 68.0547 30.3609 68.0339 30.4429 68.0855C30.5248 68.137 30.6509 68.232 30.729 68.3729C30.8072 68.5138 30.879 68.6868 30.9024 68.7767C30.9257 68.8666 30.9685 69.0767 31.0051 69.1251C31.041 69.1736 31.0814 69.2289 31.2238 69.1723C31.3663 69.1157 31.5049 69.0025 31.5421 68.9767C31.5793 68.9509 31.655 68.8704 31.8176 68.8943C31.9802 68.9182 32.3697 68.9767 32.4359 68.9817C32.5021 68.9868 32.6723 69 32.7921 68.9207C32.9118 68.8415 33.1236 68.6635 33.1778 68.6346C33.232 68.6056 33.3392 68.554 33.4154 68.5754C33.4917 68.5968 33.5491 68.6157 33.602 68.6635C33.655 68.7113 33.7483 68.8245 33.7483 68.8245L33.8069 68.9182C33.8069 68.9182 33.8346 68.9289 33.8567 68.9559C33.8781 68.983 33.9638 69.1201 33.9638 69.1201C33.9638 69.1201 34.0502 69.2956 34.0571 69.3132C34.0641 69.3308 34.0943 69.4333 34.1044 69.4679C34.1145 69.5025 34.2109 69.7522 34.2254 69.7849C34.2399 69.8176 34.3426 70.0302 34.354 70.0516C34.3653 70.0736 34.4643 70.2441 34.487 70.2742C34.5097 70.3051 34.5652 70.3931 34.6559 70.422C34.7473 70.451 34.7864 70.4805 34.8406 70.4925C34.8942 70.5044 34.995 70.5265 35.0492 70.5082C35.1028 70.4906 35.2238 70.3969 35.2667 70.3598C35.3096 70.322 35.539 70.1176 35.5592 70.0994C35.5793 70.0812 35.8573 69.8302 35.8863 69.8038C35.9153 69.7774 36.3238 69.4094 36.3496 69.3868C36.3754 69.3641 36.7032 69.0799 36.7259 69.0616C36.7486 69.0434 36.9125 68.9163 37.0259 68.8622C37.1394 68.8075 37.4886 68.6704 37.5548 68.6346C37.6216 68.5987 37.7647 68.51 37.8403 68.4251C37.9159 68.3402 38.0559 68.1597 38.076 68.1477C38.0962 68.1358 38.158 68.1025 38.3112 68.0936C38.4643 68.0848 38.7202 68.0779 38.7763 68.0754C38.8324 68.0729 38.9869 68.0647 39.0833 68.0308C39.1797 67.9968 39.3651 67.9138 39.4149 67.8943C39.464 67.8748 39.5743 67.8339 39.6266 67.8433C39.679 67.8528 39.8176 67.8987 39.868 67.9213C39.9185 67.944 40.0937 68.0238 40.1315 68.0389C40.1693 68.054 40.3124 68.1025 40.3383 68.1062C40.3641 68.11 40.4423 68.1188 40.4965 68.0962C40.5507 68.0735 40.6931 67.9974 40.8652 67.8603C41.0373 67.7226 41.1337 67.6446 41.1861 67.6226C41.2384 67.6005 41.4968 67.5119 41.5485 67.4955C41.6008 67.4792 41.7798 67.4263 41.7798 67.4263H41.9613C41.9613 67.4263 41.6783 67.1012 41.6506 67.0678C41.6229 67.0351 41.4287 66.7911 41.3896 66.7351C41.3506 66.6791 41.2478 66.5106 41.2478 66.5106L41.2491 66.5062Z" fill="#E2D2FF" stroke="white" stroke-width="0.647723" stroke-linecap="round" stroke-linejoin="round"/>
<path d="M34.1857 51.6877C34.1857 51.6877 33.2969 51.5902 33.1078 51.6877C32.9187 51.7852 32.8412 51.9223 33.0133 52.2575C33.1854 52.5927 33.2371 52.9708 33.0045 53.1337C32.7719 53.2966 32.3155 53.4513 31.7823 53.6318C31.249 53.8123 30.7151 54.1211 30.6716 54.3362C30.6288 54.5507 31.3606 54.8689 31.3347 55.2035C31.3089 55.5388 30.5172 55.7879 30.2588 55.925C30.0004 56.0627 28.8128 57.0929 28.4599 57.4797C28.1069 57.8666 27.728 58.4163 27.4268 58.4502C27.1255 58.4848 26.7296 58.2785 26.5399 58.2527C26.3508 58.2269 26.1869 58.4414 25.7911 58.6138C25.3952 58.7855 24.93 58.9402 24.758 58.8201C24.5859 58.6999 24.6893 58.4075 24.758 58.2534C24.8267 58.0986 24.6716 57.7382 24.3621 57.5835C24.052 57.4288 23.7766 57.2741 23.8799 56.9476C23.9833 56.6212 24.4825 56.4149 24.3445 55.8998C24.2064 55.3847 23.8282 55.1954 23.3801 55.4017C22.9326 55.608 22.6653 55.7967 22.2178 55.8401C21.7702 55.8828 21.8043 55.7281 21.6927 55.4709C21.5805 55.213 21.6064 55.1098 21.1765 55.179C20.7466 55.2482 20.6943 55.2306 20.4793 55.0413C20.2644 54.8526 20.0917 54.4658 19.7992 54.1224C19.5068 53.779 19.4633 53.5815 19.1191 53.5727C18.775 53.5639 18.2241 53.633 18.1465 53.7532C18.1465 53.7532 17.3113 52.516 17.2426 52.3185C17.1739 52.121 16.8726 51.5367 16.5714 51.2279C16.2701 50.9185 15.6586 49.965 15.3574 49.8279C15.0561 49.6901 14.6684 49.8021 14.4963 49.6819C14.3243 49.5618 14.1604 49.1322 13.9543 49.1234C13.7475 49.1146 13.653 49.2612 13.3945 49.192C13.1361 49.1234 12.5682 48.0322 12.456 47.8089C12.3438 47.5856 12.1894 47.4913 12.3097 47.2938C12.4301 47.0963 12.6457 46.9158 12.9294 46.9585C13.2136 47.0013 13.4374 47.1391 13.5925 47.0271C13.7475 46.9151 13.7904 46.6321 14.0917 46.6063C14.393 46.5805 14.4276 46.5805 14.7718 46.6063C15.1159 46.6321 15.409 46.512 15.4172 46.1856C15.4261 45.8591 15.4084 45.2409 15.4948 44.7169C15.5811 44.193 15.607 43.7465 15.6668 43.5571C15.7274 43.3685 15.8131 43.0162 15.5893 42.9301C15.3655 42.8439 15.1159 42.8439 15.0384 42.6036C14.9609 42.3634 14.9867 41.6074 14.6079 41.3067C14.2291 41.0061 13.8673 40.9199 13.8421 40.6966C13.8162 40.4734 13.6183 40.1123 13.4248 39.8419C13.2313 39.5714 12.8695 39.4167 12.5852 39.3909C12.3009 39.3651 12.2694 39.0173 12.2663 38.85C12.2625 38.6827 11.9788 38.5406 12.1074 38.2576C12.2366 37.9739 12.4692 37.6003 12.4951 37.4714C12.5209 37.3424 12.4535 36.6726 12.074 36.6468C11.6946 36.621 11.3977 36.4663 11.3718 36.1832C11.346 35.8996 11.4752 35.5002 11.4878 35.075C11.5004 34.6499 11.5137 34.2888 11.2685 34.0957C11.0233 33.9027 10.4547 33.9926 10.4289 33.7995C10.403 33.6064 10.4673 33.4643 10.7257 33.4127C10.9842 33.3611 11.2552 33.4643 11.617 33.3353C11.9788 33.2064 12.1074 32.9359 12.3658 32.8844C12.6243 32.8328 12.9212 32.9359 13.0762 33.1165C13.2313 33.297 13.6315 33.6448 13.9927 33.5158C14.3545 33.3869 14.5348 33.0391 14.8966 33.0133C15.2584 32.9875 15.4261 33.1032 15.4261 33.3485C15.4261 33.5938 15.5679 34.4178 15.7879 34.5725C16.0072 34.7272 16.3816 34.6624 16.6917 34.7398C17.0019 34.8172 17.1311 35.036 17.1821 35.2681C17.2338 35.5002 17.4532 35.5901 17.5307 35.7065C17.6082 35.8222 17.3756 36.2216 17.6082 36.3506C17.8408 36.4795 18.1503 36.2216 18.3312 36.0411C18.5121 35.8606 18.7573 35.7317 18.925 35.977C19.0926 36.2216 19.3126 36.7757 19.3769 36.3248C19.4412 35.8738 19.2477 35.5518 19.4286 35.5776C19.6095 35.6034 20.0482 35.7065 20.1131 36.0027C20.1774 36.299 20.6035 36.6858 20.7586 36.6858C20.9136 36.6858 21.1462 37.1242 21.2748 37.1625C21.404 37.2009 22.1062 37.15 22.3041 37.15C22.5021 37.15 23.1475 37.06 23.2635 37.06C23.3795 37.06 23.8314 37.0084 24.0123 37.0858C24.1932 37.1632 24.6451 37.3047 24.6836 37.4984C24.722 37.6915 24.5418 38.1425 24.3735 38.3745C24.2058 38.6066 23.9341 38.7356 24.2833 38.8771C24.6325 39.0186 24.8645 38.9029 24.9546 39.0186C25.0448 39.1343 25.1872 39.1733 25.0063 39.7658C24.8254 40.3583 24.6836 40.7451 24.7094 41.2344C24.7353 41.7237 24.6968 42.2263 24.7353 42.5231C24.7737 42.8194 24.8254 43.6572 24.9029 43.876C24.9805 44.0949 25.0448 44.4427 25.5484 44.3144C26.052 44.1855 26.168 44.0823 26.5298 44.0308C26.8916 43.9792 27.8982 44.3144 28.0148 44.0691C28.1308 43.8245 28.2859 43.5282 28.712 43.3087C29.1381 43.0892 29.4224 43.0508 29.7709 43.0898C30.1195 43.1282 30.6874 43.2703 30.9591 43.3477C31.2301 43.4251 31.6436 43.5024 31.863 43.5798C32.0823 43.6572 32.4567 43.7471 32.625 43.9276C32.7927 44.1081 32.8834 44.2754 32.8318 44.7396C32.7801 45.2031 32.8961 45.783 33.1286 46.0283C33.3612 46.273 33.6064 46.312 33.7741 46.4277C33.9418 46.5434 33.9808 46.6982 33.9808 46.9045C33.9808 47.1108 34.1309 47.2655 34.1851 47.4328C34.2393 47.6001 34.1617 47.6774 34.2519 47.897C34.342 48.1158 34.8078 48.2548 34.8085 48.2473C34.8091 48.2397 34.8204 48.5146 34.8192 48.5894C34.8179 48.6643 34.8211 48.7863 34.6767 48.914C34.5324 49.041 34.371 49.1706 34.342 49.263C34.313 49.3555 34.2588 49.7492 34.2538 49.8102C34.2487 49.8712 34.2197 50.3191 34.2159 50.4065C34.2122 50.4933 34.1958 50.9254 34.1958 50.9254L34.1863 51.3537L34.1844 51.6915L34.1857 51.6877Z" fill="#E2D2FF" stroke="white" stroke-width="0.647723" stroke-linecap="round" stroke-linejoin="round"/>
<path d="M12.3097 47.2931C12.4301 47.0956 12.6457 46.9151 12.9293 46.9578C13.2136 47.0006 13.4374 47.1383 13.5924 47.0264C13.7475 46.9144 13.7904 46.6314 14.0916 46.6056C14.3929 46.5798 14.4276 46.5798 14.7718 46.6056C15.1159 46.6314 15.409 46.5113 15.4172 46.1848C15.426 45.8584 15.4084 45.2401 15.4947 44.7162C15.5811 44.1923 15.6069 43.7457 15.6668 43.5564C15.7273 43.3677 15.8131 43.0155 15.5893 42.9293C15.3655 42.8432 15.1159 42.8432 15.0384 42.6029C14.9609 42.3627 14.9867 41.6067 14.6079 41.306C14.2291 41.0054 13.8673 40.9192 13.842 40.6959C13.8162 40.4726 13.6183 40.1116 13.4248 39.8412C13.2313 39.5707 12.8695 39.416 12.5852 39.3902C12.3009 39.3644 12.2694 39.0166 12.2662 38.8493C12.2625 38.682 11.9788 38.5399 12.1074 38.2568C12.2366 37.9732 12.4692 37.5996 12.495 37.4706C12.5209 37.3417 12.4534 36.6719 12.074 36.6461C11.6945 36.6203 11.3977 36.4656 11.3718 36.1825C11.346 35.8989 11.4752 35.4995 11.4878 35.0743C11.5004 34.6491 11.5136 34.2881 11.2684 34.095C11.0232 33.9019 10.4547 33.9919 10.4288 33.7988C10.403 33.6057 10.4673 33.4635 10.7257 33.412C10.9842 33.3604 11.2552 33.4635 11.617 33.3346C11.9788 33.2057 12.1074 32.9352 12.3658 32.8836C12.6243 32.8321 12.9211 32.9352 13.0762 33.1157C13.2313 33.2962 13.6315 33.6441 13.9927 33.5151C14.3545 33.3862 14.5348 33.0384 14.8966 33.0126C15.2584 32.9868 15.426 33.1025 15.426 33.3478C15.426 33.5931 15.5679 34.417 15.7878 34.5718C16.0072 34.7265 16.3816 34.6617 16.6917 34.7391C17.0018 34.8164 17.1311 35.0353 17.1821 35.2674C17.2338 35.4995 17.4531 35.5894 17.5307 35.7058C17.6082 35.8215 17.3756 36.2209 17.6082 36.3498C17.8408 36.4788 18.1503 36.2209 18.3312 36.0404C18.5121 35.8599 18.7573 35.7309 18.925 35.9762C19.0926 36.2209 19.3126 36.775 19.3769 36.324C19.4412 35.8731 19.2477 35.5511 19.4286 35.5768C19.6095 35.6026 20.0482 35.7058 20.1131 36.002C20.1774 36.2983 20.6035 36.6851 20.7586 36.6851C20.9136 36.6851 21.1462 37.1234 21.2748 37.1618C21.404 37.2002 22.1062 37.1492 22.3041 37.1492C22.502 37.1492 23.1475 37.0593 23.2635 37.0593C23.3794 37.0593 23.8314 37.0077 24.0123 37.0851C24.1932 37.1624 24.6451 37.304 24.6836 37.4977C24.6836 37.4977 24.7995 36.8536 24.9288 36.4542C25.058 36.0548 25.3032 35.6812 25.6001 35.5139C25.8969 35.3466 26.5298 34.9598 26.4655 34.7667C26.4012 34.5737 25.936 34.4705 25.5358 34.1095C25.1355 33.7485 24.8903 32.9497 24.9288 32.5377C24.9672 32.1251 24.6703 31.2232 24.1541 30.927C23.6379 30.6307 23.5862 30.3986 23.3536 30.1666C23.121 29.9345 23.005 29.9735 22.243 29.8055C21.4809 29.6382 21.1456 29.4445 21.0164 29.3162C20.8871 29.1873 20.4743 29.0457 20.19 29.1357C19.9057 29.2256 19.5055 29.4835 19.3895 29.3546C19.2735 29.2256 19.2086 28.981 18.976 28.8137C18.7434 28.6464 18.4598 28.5174 18.3432 28.569C18.2272 28.6206 18.2139 28.9042 17.8528 28.8527C17.491 28.8011 16.4327 28.6854 16.161 28.4017C15.89 28.118 15.5281 27.4098 15.5798 26.8557C15.6315 26.3016 15.7475 26.0437 15.7475 25.7475C15.7475 25.4513 15.5798 25.1934 15.3989 25.2707C15.218 25.3481 14.8569 25.7343 14.676 25.7475C14.4951 25.7601 14.3141 26.0569 14.1856 26.3016C14.0563 26.5463 14.1213 26.7909 13.6693 26.7909C13.2174 26.7909 12.7781 26.6752 12.3261 26.5073C11.8742 26.34 11.4348 26.3268 11.0863 26.3268C10.7377 26.3268 10.0532 26.5331 9.56278 26.3651C9.07239 26.1978 8.86565 25.9267 8.73643 25.6305C8.60722 25.3343 8.18112 24.8059 7.91008 24.5996C7.63904 24.3934 7.70333 24.3034 6.77361 24.2128C5.84389 24.1229 5.21104 24.2003 4.91416 24.2128C4.61728 24.2254 4.60404 24.3286 4.20379 24.4575C3.80353 24.5864 3.67432 24.5091 3.14485 24.3028C2.61538 24.0965 2.17667 24.2902 2.12499 24.3154C2.0733 24.3411 1.95732 25.2557 1.95732 25.5525C1.95732 25.8494 1.78966 26.3513 1.58291 26.7381C1.37617 27.1249 1.2085 27.4595 1.00175 27.8331C0.795009 28.2067 0.665793 28.503 0.782402 28.5287C0.898382 28.5545 1.09252 28.0652 1.23434 28.1036C1.37617 28.1419 1.51862 28.4514 1.80226 28.4904C2.08654 28.5287 2.30589 28.413 2.62861 28.4646C2.95134 28.5162 3.39067 28.6319 3.40328 28.8514C3.41589 29.0703 3.51926 29.3665 3.82938 29.6118C4.1395 29.8565 4.16534 29.676 4.16534 30.1401C4.16534 30.6043 4.16534 31.2226 4.83663 31.9698C5.50792 32.717 6.28259 34.1089 6.33428 34.1862C6.38596 34.2636 6.54102 34.7529 6.82467 35.1139C7.10894 35.4749 6.92804 35.8485 7.21231 36.2221C7.49659 36.5957 7.67686 36.5058 7.89684 36.9436C8.1162 37.3819 8.21957 37.9096 8.28449 38.0128C8.34878 38.1159 8.78812 38.2317 8.89149 38.3996C8.99486 38.5669 8.99487 39.16 8.98163 39.2374C8.96902 39.3147 8.98163 39.3147 9.27851 39.65C9.57539 39.9852 9.84643 40.1783 9.692 40.423C9.53694 40.6676 9.49849 40.9513 9.74369 41.1576C9.98888 41.3639 10.1572 41.145 10.3248 41.557C10.4925 41.9696 10.9577 42.5488 11.0094 42.7551C11.0611 42.9614 11.2804 43.2319 11.4096 43.5539C11.5388 43.8759 11.9133 44.4175 11.9908 44.52C12.0683 44.6231 12.2492 44.6615 12.236 44.9835C12.2234 45.3055 11.8742 45.8081 11.7456 45.9754C11.6164 46.1427 11.5388 46.2974 11.6555 46.5295C11.7714 46.7616 12.004 47.122 12.0557 47.1868C12.1074 47.2509 12.3097 47.2943 12.3097 47.2943V47.2931Z" fill="#D2B8FF" stroke="white" stroke-width="0.647723" stroke-linecap="round" stroke-linejoin="round"/>
<path d="M21.005 29.3167C20.8758 29.1878 20.4629 29.0463 20.1787 29.1362C19.8944 29.2261 19.4941 29.484 19.3782 29.3551C19.2622 29.2261 19.1973 28.9815 18.9647 28.8142C18.7321 28.6469 18.4484 28.5179 18.3318 28.5695C18.2158 28.6211 18.2026 28.9047 17.8414 28.8532C17.4796 28.8016 16.4213 28.6859 16.1497 28.4022C15.8786 28.1185 15.5168 27.4103 15.5685 26.8562C15.6202 26.3021 15.7362 26.0442 15.7362 25.748C15.7362 25.4518 15.5685 25.1939 15.3876 25.2713C15.2067 25.3486 14.8455 25.7348 14.6646 25.748C14.4837 25.7606 14.3028 26.0574 14.1742 26.3021C14.045 26.5468 14.1099 26.7914 13.658 26.7914C13.206 26.7914 12.7667 26.6757 12.3148 26.5078C11.8628 26.3405 11.4235 26.3273 11.0749 26.3273C10.7264 26.3273 10.0418 26.5336 9.55144 26.3656C9.06105 26.1983 8.85431 25.9273 8.72509 25.631C8.59588 25.3348 8.16978 24.8065 7.89874 24.6002C7.6277 24.3939 7.69199 24.3039 6.76227 24.2133C5.83255 24.1234 5.1997 24.2008 4.90282 24.2133C4.60594 24.2259 4.5927 24.3291 4.19245 24.458C3.79219 24.5869 3.66298 24.5096 3.13351 24.3033C2.60404 24.097 2.16533 24.2907 2.11365 24.3159C2.11365 24.3159 2.5908 23.3108 2.65509 23.0013C2.71939 22.6919 2.60341 22.5762 2.6677 22.2799C2.73199 21.9837 2.75784 21.7906 3.13288 21.8931C3.50729 21.9963 4.38533 22.3315 4.83727 22.4082C5.28921 22.4856 6.67087 22.9108 7.1745 22.9624C7.67813 23.0139 7.69073 23.1171 7.98825 22.9749C8.28513 22.8334 10.1446 21.712 10.3122 21.3516C10.4799 20.9906 10.7642 20.2692 10.9968 19.9855C11.2294 19.7018 11.4229 19.715 11.8364 19.715C12.2499 19.715 14.0059 19.5861 14.3413 19.4962C14.6772 19.4062 14.9609 19.1094 15.1033 18.7873C15.2451 18.4653 15.1159 18.0527 15.7103 17.6791C16.3041 17.3055 16.6659 17.2923 16.756 17.0608C16.8462 16.8288 16.872 16.4552 16.64 16.1457C16.4075 15.8363 15.2199 14.8444 14.9615 14.3802C14.7031 13.9161 13.5931 12.4349 13.4506 12.2154C13.3088 11.9965 13.1663 11.5581 13.2313 11.4549C13.2956 11.3518 15.2716 10.9908 15.9946 10.8367C16.7176 10.682 17.2086 10.6046 17.3637 10.553C17.5187 10.5014 17.7513 10.6562 17.6221 10.8367C17.4929 11.0172 16.9634 11.9707 16.9376 12.1896C16.9117 12.4084 16.705 13.1689 16.9892 13.3619C17.2735 13.555 17.7513 13.9676 17.8288 14.1481C17.9064 14.3287 17.9322 15.0243 18.3325 14.9985C18.7327 14.9727 21.612 14.9343 22.0772 14.9343C22.5424 14.9343 23.3946 14.9601 23.7299 15.0243C24.0659 15.0884 24.8531 15.3979 25.2792 15.4237C25.7053 15.4495 25.8604 15.3463 26.0281 15.4752C26.1957 15.6042 26.6218 16.1325 27.1128 16.2614C27.6032 16.3904 29.3341 16.2614 29.8503 16.313C30.3666 16.3646 30.7025 16.5319 30.9994 16.7124C31.2963 16.8929 31.1545 17.1508 31.6064 17.3439C32.0583 17.537 32.4586 17.4596 32.7296 17.4986C33.0007 17.537 33.3366 17.4212 33.5043 17.7175C33.672 18.0137 33.6203 18.4389 33.7886 18.7741C33.9562 19.1094 34.5116 19.1867 34.7826 19.354C35.0536 19.5213 35.1444 19.7918 35.0019 19.966C34.8601 20.1402 33.104 21.3642 32.497 21.6478C31.89 21.9315 30.4958 22.4982 30.173 22.8334C29.8503 23.1686 29.4627 23.1171 29.3984 23.529C29.3341 23.9416 29.5018 24.792 29.3467 25.1008C29.1916 25.4103 28.9849 25.8222 28.7655 25.9254C28.5462 26.0285 28.0426 26.2216 28.0426 26.2216C28.0426 26.2216 27.8818 26.2266 27.7488 26.2575C27.6152 26.2876 27.3127 26.3877 27.1204 26.4933C26.9282 26.5996 26.3495 26.8116 26.3495 26.8116L25.8308 27.0223C25.8308 27.0223 25.5175 27.1405 25.4393 27.1927C25.3605 27.2443 25.1658 27.4135 25.1053 27.4682C25.0441 27.5229 24.8878 27.6632 24.7699 27.6984C24.6521 27.7336 24.5556 27.7657 24.173 27.7594C23.791 27.7531 23.6536 27.7223 23.4879 27.8286C23.3221 27.9349 23.0378 28.1267 22.9521 28.1802C22.867 28.233 22.647 28.3619 22.509 28.4255C22.3709 28.489 22.0009 28.6563 21.9467 28.6802C21.8925 28.7041 21.6479 28.8117 21.5679 28.8431C21.4885 28.8739 21.4242 28.8978 21.3857 28.9544C21.3473 29.011 21.2653 29.1192 21.2445 29.1507C21.2237 29.1827 21.1456 29.3186 21.1456 29.3186L21.1002 29.3827L21.0056 29.3136L21.005 29.3167Z" fill="#E2D2FF" stroke="white" stroke-width="0.647723" stroke-linecap="round" stroke-linejoin="round"/>
<path d="M17.6177 10.8382C17.4885 11.0187 16.959 11.9722 16.9332 12.1911C16.9073 12.41 16.7006 13.1704 16.9849 13.3635C17.2691 13.5566 17.7469 13.9692 17.8245 14.1497C17.902 14.3302 17.9278 15.0258 18.3281 15C18.7283 14.9743 21.6077 14.9359 22.0728 14.9359C22.538 14.9359 23.3902 14.9617 23.7255 15.0258C24.0615 15.09 24.8488 15.3994 25.2749 15.4252C25.701 15.451 25.856 15.3479 26.0237 15.4768C26.1914 15.6057 26.6174 16.1341 27.1085 16.263C27.5989 16.3919 29.3297 16.263 29.846 16.3146C30.3622 16.3661 30.6982 16.5334 30.995 16.714C31.2919 16.8945 31.1501 17.1523 31.602 17.3454C32.054 17.5385 32.4542 17.4612 32.7253 17.5002C32.9963 17.5385 33.3323 17.4228 33.4999 17.719C33.6676 18.0153 33.6159 18.4404 33.7842 18.7757C33.9519 19.1109 34.5072 19.1883 34.7782 19.3556C35.0493 19.5229 35.14 19.7933 34.9976 19.9675C34.8558 20.1418 33.0997 21.3657 32.4927 21.6494C31.8857 21.933 30.4914 22.4997 30.1687 22.835C29.846 23.1702 29.4583 23.1186 29.394 23.5306C29.3297 23.9432 29.4974 24.7935 29.3423 25.1024C29.1873 25.4118 28.9805 25.8238 28.7612 25.9269C28.7612 25.9269 28.441 26.0659 28.3981 26.0829C28.3552 26.0999 28.1107 26.1967 28.1107 26.1967L28.0413 26.2238C28.0413 26.2238 28.2494 26.225 28.3477 26.2414C28.446 26.2578 28.6118 26.3081 28.6452 26.3232C28.6792 26.3389 28.8803 26.4458 28.915 26.464C28.9496 26.4823 29.1362 26.5666 29.2011 26.5848C29.2667 26.603 29.4753 26.654 29.5938 26.6452C29.7123 26.6364 29.9588 26.5823 30.0622 26.5578C30.1655 26.5332 30.6635 26.4401 30.6635 26.4401C30.6635 26.4401 31.1822 26.3496 31.1993 26.3464C31.2163 26.3433 31.6985 26.2609 31.7231 26.2565C31.747 26.2521 32.0666 26.2125 32.2273 26.2301C32.388 26.2471 32.8053 26.31 32.8526 26.3219C32.8999 26.3345 33.1533 26.4301 33.1999 26.4515C33.2459 26.4722 33.5441 26.6049 33.6235 26.6219C33.7029 26.6389 33.8498 26.6553 33.9954 26.6232C34.141 26.5905 34.4315 26.5225 34.4618 26.5169C34.4921 26.5112 34.7864 26.4741 34.8299 26.4722C34.8734 26.4703 35.0102 26.4666 35.0675 26.4905C35.1249 26.5137 35.2718 26.5986 35.326 26.62C35.3808 26.6408 35.5352 26.6873 35.6411 26.7018C35.747 26.7163 36.0508 26.7376 36.1 26.7427C36.1498 26.7477 36.3673 26.7685 36.4101 26.7748C36.453 26.781 36.5822 26.8093 36.6528 26.8439C36.7234 26.8779 36.9169 26.9917 37.0064 27.066C37.0953 27.1395 37.2699 27.3006 37.2699 27.3006L37.4817 27.5194C37.4817 27.5194 37.7237 27.7729 37.7672 27.8163C37.8107 27.8597 38.0445 28.0786 38.1038 28.1226C38.163 28.1666 38.2696 28.2434 38.3395 28.2396C38.4095 28.2352 38.5059 28.2333 38.6604 28.1358C38.8148 28.0383 39.0064 27.9025 39.0613 27.8748C39.1161 27.8471 39.2201 27.8037 39.2825 27.7974C39.3449 27.7911 39.4647 27.7855 39.5661 27.8125C39.6676 27.8396 39.725 27.8459 39.7552 27.9163C39.7849 27.9868 39.7968 28.0333 39.7924 28.0773C39.788 28.1207 39.7899 28.3641 39.7893 28.3943C39.7886 28.4251 39.7868 28.5453 39.8113 28.6063C39.8359 28.6673 39.8763 28.756 39.938 28.822C39.9998 28.8874 40.1366 29.0126 40.1908 29.034C40.2456 29.0554 40.2898 29.0774 40.4007 29.0704C40.5123 29.0635 40.7537 29.034 40.8236 29.0296C40.893 29.0258 40.9976 29.022 41.0613 29.0359C41.1249 29.0497 41.2541 29.0881 41.3222 29.1195C41.3903 29.151 41.5126 29.2139 41.563 29.2434C41.6134 29.273 41.6815 29.3264 41.7508 29.3359C41.8202 29.3453 41.9242 29.3472 42.0124 29.3302C42.1007 29.3132 42.2059 29.2604 42.2488 29.2277C42.2917 29.195 42.4202 29.1138 42.5034 29.0805C42.5866 29.0465 42.8085 28.9704 42.8936 28.9566C42.9787 28.9428 43.0462 28.9233 43.1054 28.9598C43.1647 28.9962 43.2794 29.0918 43.3329 29.1516C43.3865 29.212 43.5454 29.4126 43.5636 29.439C43.5819 29.4654 43.6658 29.5931 43.6834 29.6258C43.7011 29.6579 43.7855 29.8422 43.8006 29.8799C43.8151 29.917 43.9828 30.3906 44.0068 30.4667C44.0307 30.5435 44.1398 30.9039 44.1587 30.9617C44.1776 31.0196 44.2595 31.2202 44.2904 31.2781C44.3213 31.336 44.5072 31.6435 44.593 31.7517C44.6787 31.8599 44.852 32.0555 44.8772 32.08C44.9025 32.1045 44.9573 32.1674 45.0462 32.192C45.135 32.2165 45.3222 32.2486 45.3796 32.2542C45.437 32.2599 45.6935 32.2788 45.7294 32.2806C45.7654 32.2825 45.9255 32.2876 45.9898 32.2976C46.054 32.3077 46.3055 32.3718 46.3534 32.3888C46.4014 32.4058 46.6711 32.5165 46.6926 32.5266C46.714 32.5366 46.9359 32.6536 46.9775 32.687C47.0191 32.7203 47.1653 32.848 47.1804 32.8631C47.1962 32.8775 47.3576 33.0404 47.3815 33.0662C47.4055 33.092 47.5498 33.2555 47.5763 33.2901C47.6034 33.3247 47.6853 33.4442 47.6986 33.4876C47.7112 33.531 47.7231 33.6222 47.7175 33.6505C47.7112 33.6788 47.7446 33.7077 47.8032 33.7228C47.8612 33.7386 48.0774 33.8361 48.1108 33.8518C48.1448 33.8675 48.281 33.9229 48.298 33.9273C48.315 33.9317 48.407 33.9493 48.4442 33.9342C48.4814 33.9191 48.6377 33.86 48.6844 33.848C48.7317 33.8354 48.9674 33.7826 48.9674 33.7826C48.9674 33.7826 48.8262 33.5398 48.8029 33.487C48.7796 33.4342 48.6648 33.1209 48.644 33.0046C48.6232 32.8882 48.6327 32.8127 48.6875 32.7178C48.7424 32.6222 49.0953 32.0769 49.0953 32.0769C49.0953 32.0769 49.4294 31.5995 49.4546 31.5655C49.4798 31.5316 49.6633 31.3007 49.6998 31.2529C49.737 31.2051 50.0112 30.7932 50.0421 30.7435C50.073 30.6938 50.4241 30.1076 50.4241 30.1076C50.4241 30.1076 50.7361 29.5648 50.7922 29.4246C50.8483 29.2843 50.9428 29.1 50.9706 29.0522C50.9983 29.0044 51.1685 28.7233 51.1817 28.7019C51.195 28.6811 51.4899 28.222 51.4899 28.222L51.865 27.6666C51.865 27.6666 52.0724 27.3534 52.2343 27.193C52.3963 27.032 52.6611 26.7829 52.8048 26.6942C52.9485 26.6056 53.0872 26.5301 53.2492 26.4835C53.4112 26.4364 53.8467 26.3332 53.9003 26.32C53.9539 26.3068 54.1839 26.2458 54.2816 26.2049C54.3793 26.164 54.8105 25.9628 54.8615 25.9376C54.9126 25.9125 55.2397 25.747 55.2397 25.747L55.5057 25.6087C55.5057 25.6087 54.0465 25.5483 53.8423 25.5313C53.6381 25.5143 51.8902 25.3055 51.4773 25.3055C51.0645 25.3055 50.6497 25.4087 50.131 25.3055C49.6116 25.2024 49.205 25.0351 48.714 25.0093C48.2236 24.9835 47.7389 25.0093 47.5454 24.9382C47.3519 24.8671 46.3768 23.8558 45.9639 23.6237C45.5504 23.3916 43.904 21.9683 43.8202 21.8651C43.7364 21.762 40.9989 19.0757 40.6434 18.7725C40.2885 18.47 39.6815 17.9933 39.6815 17.9933C39.6815 17.9933 37.1375 15.7127 36.8469 15.4227C36.5564 15.1328 35.5296 14.3856 35.1362 14.2308C34.7423 14.0761 33.2125 13.2258 32.8633 12.9679C32.5147 12.71 29.0864 10.2684 28.6666 10.0879C28.2468 9.90738 25.955 9.30169 25.6001 9.22433C25.2452 9.14697 23.7211 8.88281 23.7211 8.88281L23.0624 8.73438C23.0624 8.73438 22.0615 9.36585 21.4614 9.53315C20.8607 9.70045 19.7633 10.0099 19.4532 10.0741C19.1431 10.1382 18.3684 10.2929 18.2203 10.3187C18.0722 10.3445 17.8585 10.364 17.7879 10.4024C17.7167 10.4407 17.6587 10.4571 17.6555 10.4703C17.6524 10.4829 17.5667 10.5734 17.5824 10.5999C17.5988 10.6263 17.6391 10.6533 17.6473 10.6823C17.6555 10.7112 17.6165 10.8401 17.6165 10.8401L17.6177 10.8382Z" fill="#E2D2FF" stroke="white" stroke-width="0.647723" stroke-linecap="round" stroke-linejoin="round"/>
<path d="M45.6676 74.4902C45.6676 74.4902 45.7968 75.6928 45.6676 75.8645C45.5384 76.0362 45.1426 76.1224 45.0909 76.4658C45.0392 76.8092 45.2113 77.3765 45.1596 77.7545C45.1079 78.1325 44.9528 78.7168 44.574 78.7854C44.1952 78.8539 43.6273 78.9231 43.4035 79.1464C43.1797 79.3697 43.0077 80.0741 42.5601 80.4005C42.1126 80.727 41.4067 81.088 41.3033 81.5169C41.1999 81.9465 41.1829 82.1528 41.3033 82.5994C41.4237 83.0459 41.1697 83.2522 41.2194 83.5787C41.2692 83.9051 41.2863 84.2315 41.3033 84.6265C41.3203 85.0215 41.2768 85.4681 41.2125 85.5196C41.1482 85.5712 42.0092 86.1725 42.4738 86.1725C42.9383 86.1725 44.0061 86.1379 44.3503 85.9662C44.6944 85.7945 44.9358 85.6398 45.263 85.7429C45.5901 85.8461 45.4867 85.8806 46.0893 85.8806C46.6919 85.8806 47.2081 85.7605 47.6386 85.7605C48.0692 85.7605 49.343 85.9838 49.6872 86.1731C50.0313 86.3618 50.6856 86.5511 51.0991 86.6027C51.5126 86.6543 55.3128 86.77 55.507 86.6926C55.7005 86.6153 55.8297 86.4738 56.269 86.5769C56.7083 86.6801 57.0828 86.9379 57.3021 87.3115C57.5215 87.6851 57.7667 88.1619 58.1934 88.2518C58.6195 88.3418 59.0847 88.3676 59.304 88.1745C59.5234 87.9814 60.2684 87.3524 60.2684 87.3524L60.5747 84.8121L61.1811 79.7842L61.7125 76.0217L61.8556 75.0035C61.8556 75.0035 61.0727 75.1884 60.8218 75.2431C60.571 75.2984 59.2864 75.5645 58.9769 75.6054C58.6674 75.6469 57.2094 75.7897 57.0613 75.8041C56.9132 75.818 55.5107 75.9507 55.5107 75.9507L53.5611 76.1299C53.5611 76.1299 52.1064 76.2557 52.02 76.2564C51.9337 76.257 50.6472 76.2784 50.6472 76.2784L49.3084 76.2909C49.3084 76.2909 48.3818 76.2846 48.2576 76.2752C48.1334 76.2658 47.8536 76.2406 47.5428 76.1004C47.2321 75.9601 47.0518 75.8676 46.8413 75.6909C46.6308 75.5142 46.5482 75.3381 46.3875 75.1557C46.2261 74.9733 46.0446 74.7808 45.933 74.6915C45.8214 74.6016 45.667 74.4921 45.667 74.4921L45.6676 74.4902Z" fill="#E2D2FF" stroke="white" stroke-width="0.647723" stroke-linecap="round" stroke-linejoin="round"/>
<path d="M45.6638 74.4882C45.6638 74.4882 45.7931 75.6908 45.6638 75.8625C45.5346 76.0342 45.1388 76.1204 45.0871 76.4638C45.0354 76.8072 45.2075 77.3745 45.1558 77.7525C45.1041 78.1305 44.9491 78.7148 44.5702 78.7834C44.1914 78.8519 43.6235 78.9211 43.3997 79.1444C43.176 79.3677 43.0039 80.0721 42.5564 80.3985C42.1088 80.7249 41.4029 81.086 41.2995 81.5149C41.1961 81.9445 41.1791 82.1508 41.2995 82.5974C41.4199 83.0439 41.1659 83.2502 41.2157 83.5766C41.2655 83.9031 41.2825 84.2295 41.2995 84.6245C41.3165 85.0195 41.273 85.466 41.2087 85.5176C41.2087 85.5176 41.0379 85.2666 40.741 85.2409C40.4441 85.2151 39.8693 85.2276 39.7401 85.2924C39.6109 85.3566 39.585 85.4339 39.585 85.4339C39.585 85.4339 39.3846 84.7188 39.1974 84.6031C39.0102 84.4874 38.8551 84.6805 38.6225 84.3647C38.3899 84.049 38.5065 83.8427 38.2223 83.6949C37.938 83.5464 37.764 83.5402 37.764 83.3018C37.764 83.0634 37.8025 82.7156 37.6411 82.7156C37.4797 82.7156 36.9049 83.0766 36.8015 83.2181C36.6981 83.3596 36.7114 83.766 36.6011 84.0169C36.4914 84.2679 36.4977 84.4484 36.2267 84.3647C35.9556 84.2811 35.5037 83.8559 35.4457 83.5917C35.3877 83.3276 35.2711 83.0181 35.0196 83.0181C34.7681 83.0181 34.2708 83.1471 34.122 83.0697C33.9733 82.9923 33.7779 82.5974 33.7085 82.4942C33.6398 82.3911 33.4936 82.2835 33.2522 82.3011C33.0114 82.3181 32.8475 82.4426 32.8261 82.3269C32.8046 82.2112 32.8173 81.6055 32.8261 81.4162C32.8349 81.2275 32.7876 80.9866 32.5462 80.8967C32.3054 80.8067 32.1718 80.9394 32.1674 80.7847C32.163 80.63 32.3439 79.9771 32.2664 79.7582C32.1888 79.5394 32.0684 79.3714 32.0426 79.1142C32.0167 78.8563 31.7716 78.4267 31.6209 78.4098C31.4703 78.3928 30.6672 78.4764 30.48 78.3217C30.2928 78.167 30.267 78.1091 30.267 77.8129C30.267 77.5166 30.364 77.0336 30.3187 76.8531C30.2733 76.6726 30.1251 76.4732 30.267 76.4084C30.4088 76.3443 30.4996 76.4537 30.6931 76.4795C30.8866 76.5053 31.203 76.2606 31.3644 76.1637C31.5257 76.0669 31.6033 75.9059 31.8617 76.048C32.1201 76.1902 32.3779 76.248 32.4882 76.1254C32.5979 76.0027 32.9982 75.2945 32.8948 75.1008C32.7914 74.9077 32.4624 74.6366 32.5204 74.4052C32.5784 74.1731 32.966 73.8058 32.8626 73.5548C32.7593 73.3039 32.5595 73.1297 32.3722 73.1102C32.185 73.0907 32.0754 73.0007 32.1334 72.8913C32.1913 72.7818 32.5916 72.1441 32.6433 71.9252C32.695 71.7063 32.5853 71.5516 32.6887 71.3774C32.792 71.2032 33.3411 70.9069 33.4696 70.778C33.5989 70.6491 33.7022 70.4239 33.6247 70.1786C33.5472 69.9339 33.3732 69.6245 33.5276 69.354C33.6827 69.0836 33.7924 68.9484 33.8245 68.9289C33.8567 68.9094 34.0634 69.2641 34.0955 69.4314C34.1277 69.5987 34.4315 70.2817 34.5859 70.3786C34.741 70.4755 34.9862 70.5528 35.1091 70.4818C35.232 70.4107 36.4649 69.2515 36.7876 69.0062C37.1104 68.7616 37.401 68.7295 37.6398 68.581C37.8787 68.4326 37.9758 68.2332 38.0659 68.1496C38.1561 68.0659 38.5696 68.0854 38.8665 68.0659C39.1633 68.0464 39.3568 67.8854 39.5573 67.8401C39.7577 67.7948 40.216 68.1496 40.4486 68.1043C40.6811 68.059 41.0297 67.6854 41.1911 67.615C41.3524 67.5439 41.7785 67.4219 41.7785 67.4219H41.9601C41.9601 67.4219 42.2752 67.786 42.342 67.8741C42.4089 67.9621 42.7751 68.4477 42.7984 68.476C42.8217 68.5043 43.1615 68.915 43.2213 68.9943C43.2812 69.0735 43.4691 69.3402 43.5088 69.4069C43.5485 69.4735 43.6739 69.7037 43.689 69.7962C43.7048 69.8886 43.7155 70.0528 43.6392 70.2163C43.563 70.3799 43.3985 70.6604 43.3461 70.7434C43.2932 70.8264 43.1665 71.0019 43.1255 71.1352C43.0846 71.2686 43.0241 71.5736 43.0184 71.6799C43.0121 71.7862 42.9957 71.9743 43.0259 72.117C43.0562 72.2598 43.0682 72.3208 43.1905 72.4479C43.3121 72.5755 43.5403 72.7925 43.5403 72.7925C43.5403 72.7925 43.8321 73.0523 43.8706 73.085C43.9084 73.1177 44.2645 73.4171 44.3225 73.4643C44.3805 73.5121 44.7385 73.7989 44.789 73.8391C44.84 73.8788 45.2214 74.1718 45.2214 74.1718L45.4955 74.3731L45.6613 74.4895L45.6638 74.4882Z" fill="#E2D2FF" stroke="white" stroke-width="0.647723" stroke-linecap="round" stroke-linejoin="round"/>
<path d="M32.1239 72.8904C32.1819 72.781 32.5822 72.1432 32.6339 71.9244C32.6855 71.7055 32.5759 71.5508 32.6792 71.3765C32.7826 71.2023 33.3316 70.9061 33.4602 70.7771C33.5894 70.6482 33.6928 70.423 33.6153 70.1777C33.5377 69.9331 33.3638 69.6236 33.5182 69.3532C33.6733 69.0827 33.7829 68.9475 33.8151 68.928C33.8151 68.928 33.619 68.5299 33.3354 68.5689C33.0511 68.6072 32.8898 69.0073 32.5027 68.9815C32.1151 68.9557 31.7665 68.8525 31.6701 68.8915C31.573 68.9299 31.2055 69.2526 31.0694 69.1878C30.9339 69.1236 30.9597 68.7884 30.7788 68.4531C30.5979 68.1179 30.3653 67.9701 30.1718 68.0858C29.9783 68.2016 29.7974 68.3953 29.7974 68.872C29.7974 69.3488 29.8875 69.6966 29.7199 69.8966C29.5522 70.0966 28.9648 70.657 28.6483 70.747C28.3319 70.8369 27.7444 71.1401 27.6606 71.3652C27.5768 71.591 27.3896 71.842 27.7186 71.8998C28.0476 71.9577 28.3193 71.803 28.371 72.0803C28.4227 72.3571 28.3388 72.5697 28.2998 72.7502C28.2613 72.9307 28.1838 73.6137 28.3256 73.8263C28.4674 74.0389 28.6225 74.3157 28.8488 74.5157C29.0751 74.7157 29.3266 74.9025 29.3978 75.0698C29.469 75.2371 29.7337 75.3465 29.914 75.2371C30.0949 75.1276 30.2758 74.715 30.2884 74.4836C30.301 74.2515 30.3981 73.6653 30.579 73.4144C30.7599 73.1634 31.0051 73.1376 31.2698 73.1565C31.5346 73.176 31.8447 73.1886 31.9348 73.1307C32.025 73.0728 32.1239 72.8911 32.1239 72.8911V72.8904Z" fill="#E2D2FF" stroke="white" stroke-width="0.647723" stroke-linecap="round" stroke-linejoin="round"/>
<path d="M39.5826 85.442C39.5826 85.442 39.3821 84.7269 39.1949 84.6112C39.0077 84.4955 38.8526 84.6885 38.6201 84.3728C38.3875 84.0571 38.5041 83.8508 38.2198 83.703C37.9355 83.5545 37.7616 83.5482 37.7616 83.3099C37.7616 83.0715 37.8 82.7237 37.6386 82.7237C37.4773 82.7237 36.9024 83.0847 36.7991 83.2262C36.6957 83.3677 36.7089 83.774 36.5986 84.025C36.4889 84.2759 36.4952 84.4565 36.2242 84.3728C35.9532 84.2892 35.5012 83.864 35.4432 83.5998C35.3852 83.3357 35.2686 83.0262 35.0171 83.0262C34.7656 83.0262 34.2683 83.1552 34.1196 83.0778C33.9708 83.0004 33.7754 82.6054 33.7061 82.5023C33.6374 82.3991 33.4911 82.2916 33.2497 82.3092C33.0089 82.3262 32.8451 82.4507 32.8236 82.335C32.8022 82.2193 32.8148 81.6136 32.8236 81.4243C32.8324 81.2356 32.7852 80.9947 32.5438 80.9047C32.3023 80.8148 32.1719 80.8859 32.03 80.928C32.03 80.928 31.1608 81.5293 31.1262 81.7614C31.0915 81.9935 31.1003 82.1306 31.3115 82.3067C31.5226 82.4828 32.0994 83.2602 32.1807 83.3501C32.2626 83.4401 32.9427 83.9986 33.0159 84.0671C33.089 84.1357 34.1864 85.1452 34.3156 85.3257C34.4448 85.5062 34.5349 85.7899 34.5349 86.0729C34.5349 86.3559 34.5349 87.0006 34.5608 87.3226C34.5866 87.6446 34.69 87.7352 34.7285 87.6321C34.7669 87.5289 34.7543 87.2327 34.8577 87.2069C34.961 87.1811 35.0253 87.2843 35.2453 87.4906C35.4647 87.6969 35.5422 87.7484 35.568 87.9547C35.5939 88.161 35.2195 88.0321 35.1287 88.1868C35.0386 88.3415 35.1363 88.7409 35.3455 88.8051C35.5548 88.8692 36.0584 88.9082 36.2135 89.0887C36.3685 89.2692 36.4978 89.3982 36.5104 89.5655C36.523 89.7328 36.3812 90.1322 36.4461 90.3127C36.5104 90.4932 36.898 90.5831 36.9113 90.8668C36.9239 91.1505 36.7694 91.2662 36.7694 91.2662C36.7694 91.2662 37.6607 90.6995 37.8284 90.4674C37.996 90.2353 38.0736 89.7586 38.2929 89.5913C38.5123 89.424 38.6156 89.5013 38.7833 89.3592C38.951 89.2177 38.9384 88.7409 38.7575 88.4447C38.5766 88.1484 38.6283 87.6843 38.6799 87.5296C38.7316 87.3748 38.564 86.8597 38.7575 86.7176C38.951 86.5761 39.2352 86.6018 39.2352 86.4597C39.2352 86.3176 38.9384 86.1955 38.8867 86.0634C38.835 85.9314 39.0329 85.8244 39.1237 85.7641C39.2138 85.7037 39.4124 85.5968 39.4124 85.5968L39.5819 85.4427L39.5826 85.442Z" fill="#E2D2FF" stroke="white" stroke-width="0.647723" stroke-linecap="round" stroke-linejoin="round"/>
<path d="M0.16343 28.7835C0.16343 28.7835 0.376478 28.6935 0.402322 28.7017C0.428165 28.7105 0.667057 28.8476 0.71244 28.9401C0.757823 29.0325 0.755302 29.1873 0.729459 29.2533C0.703615 29.32 0.580072 29.4143 0.455899 29.369C0.331726 29.3237 0.146411 29.281 0.126871 29.1627C0.107331 29.0445 0.0663601 28.9438 0.0859001 28.9004C0.10544 28.8577 0.16343 28.7822 0.16343 28.7822V28.7835Z" fill="#E2D2FF" stroke="white" stroke-width="0.161523" stroke-linecap="round" stroke-linejoin="round"/>
</svg>
