<svg width="679" height="534" viewBox="0 0 679 534" fill="none" xmlns="http://www.w3.org/2000/svg">
<rect x="90.4346" y="0.5" width="498" height="533" rx="28.175" fill="#1F0433" stroke="#AE72FF"/>
<circle cx="160.934" cy="69" r="37.5" stroke="#AE72FF"/>
<rect x="214.935" y="55" width="110" height="28" rx="5" fill="#2E1044"/>
<path d="M524.899 53.0151L519.934 48.1304L522.1 46L527.065 50.8847H550.403C551.249 50.8847 551.934 51.5592 551.934 52.3911C551.934 52.5377 551.912 52.6836 551.87 52.824L548.195 64.8752C548 65.5124 547.404 65.9488 546.728 65.9488H527.962V68.9616H544.805V71.9744H526.43C525.585 71.9744 524.899 71.2998 524.899 70.468V53.0151ZM527.196 78C525.928 78 524.899 76.9883 524.899 75.7404C524.899 74.4923 525.928 73.4808 527.196 73.4808C528.465 73.4808 529.493 74.4923 529.493 75.7404C529.493 76.9883 528.465 78 527.196 78ZM545.571 78C544.302 78 543.274 76.9883 543.274 75.7404C543.274 74.4923 544.302 73.4808 545.571 73.4808C546.839 73.4808 547.867 74.4923 547.867 75.7404C547.867 76.9883 546.839 78 545.571 78Z" fill="#AE72FF"/>
<path d="M484.188 69.0257L490.935 75.7722L488.707 78L481.96 71.2535C479.535 73.1943 476.458 74.3552 473.112 74.3552C465.286 74.3552 458.935 68.0037 458.935 60.1776C458.935 52.3516 465.286 46 473.112 46C480.938 46 487.29 52.3516 487.29 60.1776C487.29 63.5235 486.129 66.5999 484.188 69.0257ZM481.028 67.8569C482.954 65.8717 484.139 63.1637 484.139 60.1776C484.139 54.0852 479.205 49.1506 473.112 49.1506C467.02 49.1506 462.085 54.0852 462.085 60.1776C462.085 66.2701 467.02 71.2047 473.112 71.2047C476.098 71.2047 478.806 70.0193 480.791 68.093L481.028 67.8569Z" fill="#AE72FF"/>
<g opacity="0.21">
<path fill-rule="evenodd" clip-rule="evenodd" d="M151.585 68.896C149.919 67.7049 147.91 67.0514 145.837 67.0514C144.814 67.0514 143.992 67.8731 143.992 68.896C143.992 69.9188 144.814 70.7405 145.837 70.7405C147.91 70.7405 149.919 70.087 151.585 68.896ZM160.331 77.6413C159.139 79.308 158.486 81.3169 158.486 83.3897C158.486 84.4125 159.308 85.2342 160.331 85.2342C161.353 85.2342 162.175 84.4125 162.175 83.3897C162.175 81.3169 161.522 79.308 160.331 77.6413ZM169.076 68.896C170.743 70.087 172.751 70.7405 174.824 70.7405C175.847 70.7405 176.669 69.9188 176.669 68.896C176.669 67.8731 175.847 67.0514 174.824 67.0514C172.751 67.0514 170.743 67.7049 169.076 68.896ZM160.331 65.3731L156.808 68.896L160.331 72.4188L163.853 68.896L160.331 65.3731ZM162.788 62.7976C164.683 60.4271 165.733 57.4669 165.733 54.4023C165.733 51.3376 163.318 49 160.331 49C157.343 49 154.928 51.415 154.928 54.4023C154.928 57.3896 155.978 60.4271 157.873 62.7976L154.234 66.4365C151.864 64.5417 148.903 63.4918 145.839 63.4918C142.774 63.4918 140.435 65.9087 140.435 68.896C140.435 71.8833 142.85 74.2982 145.837 74.2982C148.824 74.2982 151.862 73.2483 154.232 71.3535L157.871 74.9924C155.976 77.3629 154.926 80.3231 154.926 83.3877C154.926 86.4524 157.341 88.79 160.329 88.79C163.316 88.79 165.731 86.375 165.731 83.3877C165.731 80.4004 164.681 77.3629 162.786 74.9924L166.425 71.3535C168.795 73.2483 171.756 74.2982 174.82 74.2982C177.885 74.2982 180.223 71.8833 180.223 68.896C180.223 65.9087 177.808 63.4937 174.82 63.4937C171.833 63.4937 168.795 64.5436 166.425 66.4385L162.786 62.7996L162.788 62.7976ZM160.331 52.5577C159.308 52.5577 158.486 53.3794 158.486 54.4023C158.486 56.475 159.139 58.4839 160.331 60.1506C161.522 58.4839 162.175 56.475 162.175 54.4023C162.175 53.3794 161.353 52.5577 160.331 52.5577Z" fill="#AE72FF"/>
</g>
<rect x="233.6" y="173.5" width="211.75" height="284.825" rx="24.5" fill="#1F0433" stroke="#AE72FF"/>
<rect x="466.7" y="173.5" width="211.75" height="284.825" rx="24.5" fill="#1F0433" stroke="#AE72FF"/>
<rect x="0.5" y="173.5" width="211.75" height="284.825" rx="24.5" fill="#1F0433" stroke="#AE72FF"/>
<rect x="25" y="381" width="162" height="28" rx="5" fill="#2E1044"/>
<rect x="258" y="381" width="162" height="28" rx="5" fill="#2E1044"/>
<rect x="492" y="381" width="162" height="28" rx="5" fill="#2E1044"/>
<rect x="25" y="199" width="162" height="158" rx="17" fill="#2E1044"/>
<rect x="258" y="199" width="162" height="158" rx="17" fill="#2E1044"/>
<path d="M153.018 335.039C153.338 335.35 153.234 336.008 152.68 335.97C137.495 334.908 122.31 334.156 107.098 333.827C92.0165 333.507 76.8977 334.438 61.8447 334.024C61.7319 334.184 61.4968 334.268 61.3182 334.09C60.9139 333.686 60.5096 333.3 60.1241 332.886C59.7292 332.473 59.3907 332.031 59.0052 331.608C58.977 331.579 58.977 331.542 58.9676 331.514C58.8078 331.448 58.6856 331.297 58.6667 331.062C58.0368 321.97 58.8642 312.568 58.9488 303.448C59.024 294.478 59.0334 285.518 58.9864 276.548C58.9394 267.343 58.8172 258.139 58.6385 248.934C58.4505 240.011 57.6795 230.938 58.1496 222.034C58.1684 221.752 58.3941 221.667 58.5821 221.724C58.6103 221.573 58.7608 221.46 58.9112 221.507C58.9582 221.489 59.0052 221.46 59.0616 221.46C73.8796 220.614 88.9043 221.188 103.732 221.216C118.625 221.235 133.509 221.338 148.402 221.498C149.06 221.498 149.191 222.278 148.834 222.626C149.257 223.896 149.906 224.892 150.78 225.927C151.006 225.927 151.232 226.077 151.232 226.359C152.426 262.511 153.075 298.719 153.037 334.889C153.037 334.936 153.018 334.983 153.009 335.03L153.018 335.039ZM150.564 333.291C151.185 333.638 151.749 334.062 152.266 334.607C151.852 298.531 151.26 262.464 150.32 226.387C149.671 225.833 149.163 225.118 148.797 224.319C149.821 242.089 149.878 259.953 150.16 277.742C150.442 296.152 150.611 314.561 150.649 332.971C150.649 333.093 150.621 333.187 150.564 333.281V333.291ZM151.692 334.814C151.251 334.353 150.762 333.921 150.226 333.544C150.094 333.582 149.944 333.582 149.803 333.544C149.671 333.61 149.492 333.601 149.342 333.45C149.314 333.422 149.276 333.385 149.238 333.347C149.144 333.347 149.05 333.347 148.956 333.328C148.768 333.3 148.571 333.244 148.392 333.168C148.308 333.319 148.157 333.422 147.922 333.422C133.217 333.422 118.456 332.191 103.75 331.908C89.0454 331.617 74.218 332.275 59.5506 331.532C59.5224 331.532 59.4941 331.514 59.4659 331.514C59.842 331.824 60.2275 332.106 60.5848 332.444C60.9609 332.783 61.3182 333.131 61.6849 333.479C76.6438 332.012 92.0917 332.651 107.107 332.877C121.991 333.103 136.865 333.733 151.711 334.814H151.692ZM149.398 332.162C149.351 314.025 149.191 295.889 148.919 277.742C148.637 259.436 147.866 241.102 147.95 222.796C147.866 222.796 147.772 222.796 147.687 222.796H147.067C132.625 222.636 118.183 222.542 103.741 222.514C89.224 222.495 74.5753 223.106 60.0583 222.551L59.4847 223.002C59.3531 222.843 59.2215 222.683 59.0993 222.514H59.0804C59.0146 222.514 58.9488 222.495 58.8924 222.467C59.9172 231.408 59.6728 240.641 59.8608 249.63C60.0489 258.599 60.1805 267.56 60.2463 276.529C60.3121 285.744 60.3215 294.948 60.2463 304.153C60.1899 312.878 60.6788 321.952 59.7574 330.639H59.7762C61.2524 328.195 63.9038 326.239 65.9535 324.264C68.1818 322.13 70.3631 319.892 72.7043 317.88C72.6291 317.721 72.6573 317.523 72.7983 317.391C72.7983 317.373 72.7983 317.363 72.7983 317.344L73.3436 317.241C74.2556 317.147 75.1771 317.091 76.0985 317.034L76.5874 317.006C81.2415 316.79 85.9896 317.006 90.6155 316.978C96.2193 316.95 101.823 316.921 107.427 316.893C113.03 316.865 118.644 316.837 124.238 316.808C127.153 316.79 130.086 316.743 133.01 316.761C133.762 316.761 134.308 316.686 134.815 316.808C134.768 303.467 134.815 290.125 134.815 276.793C134.815 264.118 134.411 251.313 134.947 238.638C134.947 238.638 134.947 238.638 134.947 238.62V238.601C134.947 238.582 134.947 238.554 134.947 238.535V238.516C134.975 237.83 135.003 237.153 135.041 236.476L135.765 236.363C135.765 236.363 135.784 236.419 135.784 236.457C136.48 249.846 136.028 263.385 136.028 276.793C136.028 290.238 136.075 303.692 136.028 317.138C136.028 317.288 135.972 317.41 135.887 317.504C140.598 322.102 145.214 327.076 149.389 332.162H149.398ZM148.42 332.614C148.42 332.614 148.505 332.632 148.543 332.642C144.048 328.148 139.695 323.258 135.709 318.313C135.69 318.341 135.662 318.379 135.633 318.416C135.436 318.68 135.079 318.839 134.778 318.642C134.693 318.595 134.599 318.529 134.524 318.482C134.402 318.407 134.326 318.294 134.289 318.162C133.941 318.313 133.527 318.285 133.01 318.078C132.521 318.078 132.032 318.078 131.543 318.078C130.077 318.078 128.619 318.097 127.153 318.097C124.717 318.097 122.282 318.115 119.847 318.125C114.732 318.144 109.617 318.172 104.503 318.2C94.3482 318.247 83.7801 319.112 73.6539 318.2C71.4444 320.56 68.9622 322.713 66.6116 324.932C64.6184 326.812 62.6157 329.229 60.2087 330.611C74.6035 329.586 89.3368 330.301 103.75 330.583C118.39 330.865 133.349 330.733 147.922 332.247C148.176 332.266 148.345 332.426 148.42 332.604V332.614Z" fill="#512473"/>
<path d="M152.275 334.607C151.749 334.062 151.194 333.638 150.573 333.291C150.62 333.206 150.658 333.103 150.658 332.98C150.62 314.571 150.46 296.161 150.169 277.752C149.887 259.963 149.84 242.098 148.806 224.328C149.172 225.118 149.68 225.842 150.329 226.397C151.269 262.473 151.861 298.531 152.275 334.616V334.607Z" fill="#AE72FF"/>
<path d="M150.225 333.545C150.752 333.911 151.25 334.344 151.692 334.814C136.846 333.733 121.972 333.103 107.088 332.877C92.0725 332.651 76.6247 332.021 61.6657 333.479C61.3084 333.121 60.9417 332.783 60.5656 332.444C60.2084 332.115 59.8229 331.824 59.4468 331.514C59.475 331.514 59.5032 331.532 59.5314 331.532C74.2083 332.275 89.0262 331.617 103.731 331.909C118.436 332.2 133.198 333.422 147.903 333.422C148.138 333.422 148.288 333.31 148.373 333.168C148.561 333.244 148.749 333.3 148.937 333.328C149.031 333.347 149.125 333.347 149.219 333.347C149.257 333.385 149.295 333.422 149.323 333.451C149.473 333.601 149.652 333.61 149.783 333.545C149.924 333.592 150.075 333.592 150.207 333.545H150.225Z" fill="#AE72FF"/>
<path d="M148.919 277.751C149.191 295.888 149.342 314.025 149.398 332.171C145.224 327.085 140.617 322.102 135.897 317.513C135.981 317.41 136.038 317.297 136.038 317.137C136.085 303.692 136.038 290.237 136.038 276.792C136.038 263.385 136.489 249.846 135.793 236.457C135.793 236.419 135.793 236.391 135.774 236.363C135.972 236.231 136.066 235.996 136.047 235.77C138.153 233.692 140.146 231.483 142.168 229.32C144.02 227.346 146.211 225.428 147.687 223.153C147.762 223.04 147.734 222.908 147.687 222.805C147.772 222.805 147.866 222.805 147.95 222.805C147.866 241.111 148.646 259.445 148.919 277.751Z" fill="#AE72FF"/>
<path d="M148.542 332.642C148.542 332.642 148.458 332.623 148.42 332.613C148.336 332.425 148.166 332.275 147.922 332.256C133.348 330.752 118.39 330.883 103.75 330.592C89.3272 330.31 74.6033 329.595 60.2085 330.62C62.6155 329.229 64.6181 326.822 66.6114 324.941C68.962 322.722 71.4442 320.569 73.6537 318.209C83.7705 319.131 94.348 318.256 104.502 318.209C109.617 318.181 114.732 318.162 119.847 318.134C122.291 318.134 124.717 318.115 127.152 318.106C128.619 318.106 130.076 318.087 131.543 318.087C132.032 318.087 132.512 318.087 133.01 318.087C133.527 318.284 133.941 318.313 134.289 318.172C134.326 318.294 134.402 318.416 134.524 318.491C134.608 318.538 134.693 318.604 134.778 318.651C135.088 318.839 135.436 318.689 135.633 318.425C135.652 318.388 135.68 318.35 135.708 318.322C139.704 323.268 144.058 328.157 148.542 332.651V332.642Z" fill="#AE72FF"/>
<path d="M147.687 222.805C147.744 222.908 147.772 223.04 147.687 223.153C146.211 225.428 144.02 227.346 142.168 229.321C140.147 231.483 138.153 233.693 136.047 235.771C136.066 235.996 135.972 236.231 135.775 236.363L135.051 236.476C114.291 236.532 93.4741 236.984 72.7045 236.542C72.8644 250.203 73.0148 263.874 73.1558 277.535C73.2311 284.578 73.3063 291.629 73.3815 298.672C73.4473 304.595 74.4063 311.402 73.3251 317.269L72.7797 317.373C71.4822 311.308 72.3284 304.115 72.2344 297.948C72.1498 291.15 72.0464 284.343 71.9617 277.535C71.7737 263.686 71.5857 249.827 71.4164 235.987C71.4164 235.884 71.4352 235.799 71.4634 235.733C67.223 231.935 63.0672 227.497 59.4756 223.012L60.0491 222.561C64.2613 226.594 68.4453 230.919 72.2438 235.282C72.2908 235.329 72.3096 235.385 72.3284 235.432C72.3284 235.432 72.3472 235.432 72.3566 235.451C72.4037 235.432 72.4507 235.423 72.5071 235.423C93.4552 234.868 114.469 235.216 135.417 235.169C135.436 235.169 135.446 235.169 135.455 235.169C137.382 232.922 139.442 230.769 141.454 228.606C143.259 226.669 144.961 224.441 147.057 222.805H147.678H147.687Z" fill="#512473"/>
<path d="M147.057 222.796C144.96 224.432 143.259 226.66 141.453 228.597C139.441 230.769 137.382 232.912 135.455 235.159C135.455 235.159 135.436 235.159 135.417 235.159C114.469 235.206 93.455 234.859 72.5068 235.413C72.4598 235.413 72.4128 235.432 72.3563 235.442C72.3563 235.442 72.3375 235.442 72.3281 235.423C72.3093 235.376 72.2811 235.329 72.2435 235.272C68.445 230.919 64.261 226.585 60.0488 222.56C74.5659 223.115 89.2051 222.504 103.732 222.523C118.183 222.551 132.615 222.645 147.057 222.796Z" fill="#AE72FF"/>
<path d="M135.05 236.467C135.013 237.144 134.984 237.83 134.956 238.507C134.956 238.272 134.787 238.046 134.477 238.018C124.604 237.379 114.582 237.736 104.69 237.793C95.0249 237.849 84.8705 237.247 75.2614 238.432C75.2144 238.432 75.1768 238.432 75.1392 238.451C74.8289 238.234 74.2741 238.357 74.2647 238.855C73.8416 264.824 74.0109 291.15 76.0888 317.053C75.158 317.1 74.2459 317.166 73.3339 317.26C74.4152 311.403 73.4562 304.586 73.3903 298.663C73.3151 291.62 73.2399 284.569 73.1647 277.526C73.0142 263.865 72.8732 250.194 72.7134 236.533C93.4735 236.975 114.29 236.533 135.06 236.467H135.05Z" fill="#AE72FF"/>
<path d="M134.947 238.535C134.947 238.535 134.947 238.582 134.947 238.601V238.62V238.639C134.9 238.845 134.75 239.015 134.477 239.024C124.567 239.278 114.61 238.742 104.691 238.77C94.997 238.789 85.0024 239.71 75.3275 239.043L75.2617 238.451C84.8614 237.266 95.0252 237.868 104.691 237.811C114.582 237.764 124.605 237.397 134.477 238.037C134.787 238.056 134.947 238.291 134.956 238.526V238.545L134.947 238.535Z" fill="#512473"/>
<path d="M134.815 276.793C134.815 290.135 134.768 303.476 134.815 316.809C134.298 316.686 133.753 316.771 133.01 316.762C130.086 316.743 127.162 316.799 124.238 316.809C118.634 316.837 113.021 316.865 107.427 316.893C101.823 316.922 96.2192 316.95 90.6155 316.978C85.9896 316.997 81.2414 316.79 76.5873 317.006C75.9574 290.981 75.0924 265.059 75.3368 239.015C85.0023 239.682 95.0063 238.761 104.7 238.742C114.619 238.723 124.576 239.259 134.486 238.996C134.759 238.996 134.909 238.817 134.956 238.61C134.42 251.285 134.825 264.09 134.825 276.765L134.815 276.793ZM123.025 293.096C123.382 292.814 122.931 292.335 122.574 292.504C121.408 293.059 120.242 293.707 119.095 294.413C118.568 293.284 118.042 292.156 117.496 291.037C118.803 290.097 120.073 289.11 121.21 288.019C121.558 287.699 121.126 287.163 120.721 287.38C119.424 288.075 118.145 288.903 116.895 289.777C116.274 288.508 115.654 287.267 115.014 286.016C116.932 283.581 118.314 280.667 119.02 277.498C120.731 269.769 118.822 257.885 110.492 254.698C110.52 254.068 110.492 253.428 110.388 252.798C109.505 247.552 104.183 243.368 98.8236 244.543C94.0003 245.606 91.001 251.585 93.7464 255.863C93.7746 255.91 93.8122 255.948 93.8498 255.967C93.9533 256.258 94.0661 256.55 94.1977 256.832C93.2857 257.368 92.4113 257.97 91.6027 258.637C85.1622 263.978 82.8022 273.925 85.1716 281.814C87.4845 289.542 94.649 293.942 102.594 293.049C103.036 293.002 103.459 292.927 103.891 292.842C104.38 293.886 104.869 294.92 105.349 295.926C105.668 296.603 105.998 297.28 106.327 297.948C104.559 299.48 102.942 301.173 101.729 303.166C101.597 303.382 101.889 303.599 102.058 303.429C103.609 301.84 105.18 300.355 106.806 298.935C107.37 300.073 107.972 301.201 108.574 302.32C107.624 303.147 106.703 303.956 105.8 304.764C105.574 304.971 105.885 305.385 106.139 305.197C107.069 304.482 108.038 303.796 108.997 303.1C109.965 304.84 110.99 306.532 112.118 308.149C112.372 308.516 112.927 308.196 112.72 307.792C111.817 305.996 110.868 304.219 109.928 302.442C111.112 301.615 112.306 300.797 113.491 299.979C114.732 302.442 116.058 304.849 117.478 307.143C117.666 307.453 118.079 307.19 117.948 306.871C116.848 304.304 115.729 301.756 114.61 299.208C115.973 298.277 117.327 297.337 118.672 296.378C119.781 298.418 120.9 300.458 122.057 302.451C122.273 302.828 122.78 302.499 122.611 302.132C121.671 299.96 120.684 297.797 119.687 295.635C120.815 294.807 121.944 293.961 123.034 293.087L123.025 293.096Z" fill="#D5B6FF"/>
<path d="M122.574 292.513C122.931 292.334 123.382 292.814 123.025 293.105C121.934 293.979 120.815 294.826 119.678 295.653C120.674 297.816 121.662 299.978 122.602 302.15C122.762 302.526 122.254 302.846 122.047 302.47C120.891 300.476 119.772 298.436 118.662 296.396C117.327 297.355 115.964 298.295 114.6 299.226C115.719 301.774 116.838 304.322 117.938 306.889C118.07 307.208 117.656 307.472 117.468 307.161C116.048 304.858 114.723 302.46 113.482 299.997C112.288 300.815 111.103 301.633 109.918 302.46C110.858 304.237 111.808 306.014 112.711 307.81C112.917 308.214 112.363 308.534 112.109 308.167C110.981 306.55 109.965 304.848 108.987 303.118C108.028 303.814 107.06 304.501 106.129 305.215C105.875 305.403 105.565 304.989 105.791 304.783C106.684 303.983 107.615 303.165 108.564 302.338C107.962 301.219 107.37 300.091 106.797 298.953C105.161 300.373 103.6 301.859 102.048 303.448C101.879 303.617 101.588 303.401 101.719 303.184C102.932 301.182 104.549 299.499 106.317 297.966C105.988 297.298 105.659 296.622 105.339 295.945C104.86 294.939 104.371 293.904 103.882 292.861C103.449 292.945 103.026 293.011 102.584 293.067C94.6395 293.961 87.475 289.56 85.1621 281.832C82.7927 273.943 85.1621 263.996 91.5932 258.655C92.4018 257.988 93.2762 257.386 94.1882 256.85C94.066 256.559 93.9438 256.277 93.8403 255.985C93.8027 255.966 93.7651 255.929 93.7369 255.882C90.9915 251.604 93.9908 245.624 98.8141 244.561C104.173 243.386 109.495 247.579 110.379 252.817C110.482 253.437 110.51 254.076 110.482 254.716C118.813 257.903 120.721 269.788 119.01 277.516C118.305 280.694 116.923 283.609 115.005 286.035C115.644 287.285 116.274 288.536 116.885 289.795C118.145 288.921 119.414 288.094 120.712 287.398C121.116 287.182 121.549 287.718 121.201 288.037C120.063 289.128 118.794 290.115 117.487 291.055C118.032 292.174 118.549 293.303 119.085 294.431C120.232 293.735 121.398 293.086 122.564 292.522L122.574 292.513ZM116.913 280.168C119.894 272.157 118.465 260.996 110.924 256.126C110.727 256.079 110.529 256.041 110.332 255.994C109.551 260.084 106.11 263.563 101.569 262.915C98.7201 262.501 96.2379 260.508 94.7524 257.941C92.5146 259.238 90.5496 261.053 88.9982 263.422C83.827 271.395 83.8364 285.094 93.0976 290.134C96.4166 291.939 99.9894 292.353 103.355 291.714C102.227 289.213 101.183 286.636 100.572 284.06C100.45 283.571 101.155 283.242 101.39 283.703C102.65 286.185 103.647 288.808 104.681 291.403C106.11 291.008 107.502 290.416 108.809 289.664C107.615 286.693 106.496 283.712 105.49 280.741C105.255 280.064 106.345 279.763 106.552 280.45C107.68 283.28 108.856 286.082 110.05 288.865C111.234 288.056 112.325 287.097 113.294 286.035C111.977 283.346 110.708 280.647 109.495 277.949C109.222 277.347 110.116 276.811 110.388 277.422C111.742 279.829 113.049 282.293 114.337 284.765C115.4 283.374 116.274 281.832 116.885 280.158L116.913 280.168ZM117.985 295.108C117.412 294.045 116.838 292.983 116.283 291.911C115.024 292.776 113.764 293.622 112.532 294.487C113.03 295.625 113.529 296.763 114.036 297.9C115.334 296.922 116.65 295.982 117.995 295.117L117.985 295.108ZM115.635 290.67C115.052 289.542 114.478 288.413 113.924 287.285C112.927 288.348 111.817 289.297 110.605 290.106C111.084 291.206 111.564 292.315 112.052 293.415C113.228 292.485 114.422 291.563 115.635 290.67ZM112.87 298.775C112.316 297.656 111.78 296.527 111.272 295.399C110.04 296.302 108.865 297.233 107.718 298.192C108.282 299.32 108.875 300.448 109.457 301.567C110.567 300.627 111.705 299.687 112.87 298.775ZM109.401 295.474C109.871 295.117 110.341 294.75 110.811 294.384C110.294 293.218 109.796 292.061 109.307 290.896C108.009 291.61 106.627 292.184 105.142 292.569C105.603 293.716 106.082 294.844 106.609 295.963C106.797 296.386 107.013 296.791 107.21 297.204C107.934 296.612 108.668 296.039 109.392 295.484L109.401 295.474ZM109.185 254.631C109.232 253.465 109.063 252.29 108.649 251.209C107.135 247.279 102.425 244.552 98.2782 245.99C96.3225 246.667 94.9968 248.162 94.3387 249.921C94.3387 249.921 94.3387 249.939 94.3387 249.949C93.9156 252.027 94.2258 254.321 95.119 256.333C99.4159 254.105 104.559 253.352 109.166 254.669C109.166 254.65 109.185 254.65 109.185 254.631ZM109.072 255.722C104.484 254.894 99.7167 255.383 95.6832 257.424C96.9901 259.643 99.0774 261.354 101.729 261.73C105.866 262.332 108.498 259.248 109.072 255.712V255.722Z" fill="#512473"/>
<path d="M110.924 256.126C118.465 260.996 119.894 272.166 116.913 280.168C116.293 281.841 115.418 283.383 114.365 284.775C113.077 282.293 111.77 279.839 110.416 277.432C110.134 276.82 109.251 277.356 109.523 277.958C110.727 280.657 112.005 283.355 113.322 286.044C112.353 287.106 111.263 288.066 110.078 288.874C108.884 286.091 107.699 283.289 106.58 280.459C106.364 279.773 105.283 280.074 105.518 280.751C106.524 283.712 107.633 286.702 108.837 289.673C107.53 290.435 106.138 291.018 104.709 291.413C103.675 288.818 102.669 286.204 101.419 283.712C101.183 283.252 100.488 283.581 100.601 284.07C101.202 286.646 102.246 289.222 103.384 291.723C100.018 292.362 96.4447 291.949 93.1258 290.143C83.8646 285.104 83.8552 271.405 89.0264 263.432C90.5683 261.053 92.5428 259.248 94.7805 257.95C96.2661 260.508 98.7483 262.51 101.597 262.924C106.138 263.582 109.58 260.094 110.36 256.004C110.557 256.051 110.755 256.089 110.952 256.136L110.924 256.126Z" fill="#AE72FF"/>
<path d="M116.274 291.912C116.829 292.984 117.402 294.046 117.976 295.109C116.631 295.974 115.315 296.914 114.018 297.892C113.519 296.754 113.021 295.616 112.513 294.479C113.745 293.623 115.005 292.777 116.265 291.902L116.274 291.912Z" fill="#D5B6FF"/>
<path d="M113.923 287.286C114.478 288.414 115.052 289.552 115.635 290.671C114.422 291.564 113.228 292.486 112.052 293.416C111.564 292.316 111.084 291.207 110.604 290.107C111.817 289.298 112.917 288.349 113.923 287.286Z" fill="#D5B6FF"/>
<path d="M111.272 295.399C111.789 296.528 112.325 297.656 112.87 298.775C111.704 299.687 110.567 300.627 109.457 301.567C108.865 300.448 108.282 299.32 107.718 298.192C108.855 297.233 110.04 296.302 111.272 295.399Z" fill="#D5B6FF"/>
<path d="M110.812 294.384C110.341 294.751 109.871 295.118 109.401 295.475C108.677 296.03 107.934 296.603 107.22 297.196C107.022 296.782 106.806 296.368 106.618 295.955C106.092 294.845 105.621 293.707 105.151 292.56C106.628 292.175 108.019 291.601 109.317 290.887C109.805 292.053 110.304 293.218 110.821 294.375L110.812 294.384Z" fill="#D5B6FF"/>
<path d="M108.64 251.208C109.053 252.29 109.232 253.465 109.176 254.631C109.176 254.65 109.157 254.65 109.157 254.668C104.55 253.343 99.4066 254.104 95.1098 256.333C94.2166 254.32 93.9063 252.036 94.3294 249.948C94.3294 249.93 94.3294 249.93 94.3294 249.92C94.9876 248.153 96.3133 246.667 98.269 245.99C102.406 244.552 107.126 247.278 108.64 251.208Z" fill="#512473"/>
<path d="M95.6831 257.434C99.7167 255.393 104.484 254.895 109.072 255.732C108.498 259.267 105.866 262.351 101.729 261.749C99.0773 261.364 96.99 259.662 95.6831 257.443V257.434Z" fill="#AE72FF"/>
<path d="M76.5779 317.025L76.089 317.054C74.0111 291.151 73.8418 264.824 74.2649 238.855C74.2649 238.357 74.8291 238.235 75.1393 238.451C75.1864 238.451 75.224 238.451 75.2616 238.432L75.3274 239.025C75.0829 265.069 75.9479 290.991 76.5779 317.016V317.025Z" fill="#512473"/>
<path d="M72.7887 317.363C72.7887 317.363 72.7887 317.391 72.7887 317.41C72.6477 317.533 72.6195 317.73 72.6947 317.899C70.3535 319.911 68.1722 322.149 65.9439 324.283C63.8942 326.258 61.2428 328.213 59.7666 330.658H59.7478C60.6786 321.97 60.1803 312.897 60.2367 304.172C60.3025 294.967 60.2931 285.762 60.2367 276.548C60.1709 267.588 60.0487 258.618 59.8512 249.648C59.6632 240.66 59.9077 231.427 58.8828 222.485C58.9298 222.504 59.005 222.523 59.0709 222.532H59.0897C59.2119 222.692 59.3435 222.852 59.4752 223.021C63.0668 227.497 67.2226 231.944 71.4724 235.724C71.4348 235.799 71.4254 235.874 71.4254 235.978C71.5946 249.827 71.7827 263.677 71.9707 277.526C72.0553 284.324 72.1588 291.131 72.2434 297.938C72.328 304.106 71.4818 311.299 72.7887 317.363Z" fill="#AE72FF"/>
<g style="mix-blend-mode:multiply" opacity="0.6">
<path d="M153.018 335.039C153.018 335.039 153.047 334.954 153.047 334.898C153.084 298.728 152.435 262.52 151.241 226.368C151.241 226.077 151.016 225.936 150.79 225.936C149.916 224.901 149.257 223.895 148.844 222.635C149.201 222.278 149.06 221.507 148.411 221.507C141.914 221.432 135.417 221.385 128.92 221.338C128.967 221.78 128.996 222.212 129.043 222.654C135.051 222.692 141.068 222.739 147.076 222.805H147.697H147.96C147.875 241.111 148.656 259.445 148.928 277.751C149.201 295.888 149.351 314.025 149.408 332.171C145.233 327.085 140.626 322.102 135.906 317.513C135.991 317.41 136.047 317.297 136.047 317.137C136.094 303.692 136.047 290.237 136.047 276.792C136.047 263.385 136.499 249.845 135.803 236.457C135.803 236.419 135.803 236.391 135.784 236.363L135.06 236.475C135.022 237.152 134.994 237.839 134.966 238.516V238.535C134.966 238.535 134.966 238.582 134.966 238.6V238.619V238.638C134.43 251.312 134.834 264.118 134.834 276.792C134.834 290.134 134.787 303.476 134.834 316.808C134.317 316.686 133.772 316.771 133.029 316.761C132.042 316.761 131.064 316.761 130.077 316.771C130.03 317.222 129.926 317.664 129.785 318.087C130.378 318.087 130.97 318.087 131.562 318.087H133.029C133.546 318.284 133.96 318.313 134.308 318.171C134.346 318.294 134.421 318.416 134.543 318.491C134.628 318.538 134.712 318.604 134.797 318.651C135.107 318.839 135.455 318.689 135.652 318.425C135.671 318.388 135.699 318.35 135.728 318.322C139.724 323.267 144.077 328.157 148.562 332.651C148.515 332.632 148.477 332.632 148.439 332.623C148.355 332.435 148.186 332.284 147.941 332.265C133.368 330.761 118.409 330.893 103.769 330.601C89.3464 330.319 74.6225 329.605 60.2277 330.629C62.6347 329.238 64.6374 326.831 66.6306 324.95C68.0316 323.634 69.4607 322.337 70.871 321.002C70.3633 321.002 69.865 321.002 69.3573 321.002C68.2196 322.092 67.1008 323.202 65.9725 324.292C63.9228 326.267 61.2714 328.222 59.7952 330.667H59.7764C60.1149 327.489 60.2653 324.255 60.3217 321.002C60.2183 321.002 60.1149 321.002 60.0115 321.002C59.4567 321.002 58.949 320.917 58.4789 320.795C58.4225 324.245 58.4507 327.687 58.6858 331.081C58.7046 331.325 58.8268 331.466 58.9866 331.541C58.9866 331.57 58.9866 331.607 59.0242 331.635C59.4097 332.059 59.7482 332.5 60.1431 332.914C60.5286 333.328 60.9329 333.713 61.3372 334.118C61.5158 334.296 61.7509 334.212 61.8637 334.052C76.9261 334.466 92.0355 333.535 107.117 333.854C122.329 334.174 137.523 334.936 152.699 335.998C153.253 336.036 153.357 335.378 153.037 335.067L153.018 335.039ZM107.088 332.867C92.0731 332.642 76.6252 332.002 61.6663 333.469C61.309 333.112 60.9423 332.773 60.5662 332.435C60.2089 332.106 59.8234 331.814 59.4473 331.504C59.4755 331.504 59.5037 331.523 59.532 331.523C74.2088 332.265 89.0268 331.607 103.732 331.899C118.437 332.181 133.198 333.412 147.904 333.412C148.139 333.412 148.289 333.3 148.374 333.159C148.562 333.234 148.75 333.29 148.938 333.318C149.032 333.337 149.126 333.337 149.22 333.337L149.323 333.441C149.474 333.591 149.652 333.601 149.784 333.535C149.925 333.582 150.075 333.582 150.207 333.535C150.734 333.901 151.232 334.334 151.674 334.804C136.828 333.723 121.953 333.093 107.07 332.867H107.088ZM150.564 333.29C150.611 333.206 150.649 333.102 150.649 332.98C150.611 314.57 150.452 296.161 150.16 277.751C149.878 259.962 149.831 242.098 148.797 224.328C149.163 225.118 149.671 225.842 150.32 226.396C151.26 262.473 151.852 298.53 152.266 334.616C151.74 334.071 151.185 333.648 150.564 333.3V333.29Z" fill="#512473"/>
<path d="M147.687 222.805H147.067C144.97 224.431 143.268 226.669 141.463 228.596C139.451 230.768 137.392 232.912 135.464 235.159C135.464 235.159 135.446 235.159 135.427 235.159C133.49 235.159 131.553 235.159 129.616 235.159C129.616 235.611 129.616 236.052 129.616 236.504C131.421 236.494 133.236 236.485 135.041 236.476L135.765 236.363C135.963 236.231 136.057 235.996 136.038 235.77C138.144 233.692 140.137 231.483 142.159 229.32C144.011 227.346 146.202 225.428 147.678 223.153C147.753 223.04 147.725 222.908 147.678 222.805H147.687Z" fill="#512473"/>
<path d="M134.477 238.027C132.86 237.924 131.242 237.848 129.625 237.792C129.625 238.224 129.616 238.648 129.606 239.08C131.233 239.08 132.85 239.061 134.477 239.014C134.749 239.014 134.9 238.836 134.947 238.629C134.947 238.629 134.947 238.629 134.947 238.61V238.591C134.947 238.591 134.947 238.544 134.947 238.525V238.507C134.947 238.272 134.778 238.046 134.467 238.018L134.477 238.027Z" fill="#512473"/>
<path d="M60.2934 320.983C60.237 324.237 60.0959 327.471 59.748 330.649H59.7669C61.243 328.204 63.8944 326.249 65.9441 324.274C67.0724 323.193 68.2007 322.083 69.3289 320.983C66.3108 320.983 63.3021 320.983 60.284 320.983H60.2934Z" fill="#AE72FF"/>
</g>
<path d="M150.225 333.544C150.752 333.91 151.25 334.343 151.692 334.813C136.846 333.732 121.972 333.102 107.088 332.876C92.0725 332.65 76.6247 332.02 61.6657 333.478C61.3084 333.12 60.9417 332.782 60.5656 332.444C60.2084 332.114 59.8229 331.823 59.4468 331.513C59.475 331.513 59.5032 331.531 59.5314 331.531C74.2083 332.274 89.0262 331.616 103.731 331.908C118.436 332.199 133.198 333.421 147.903 333.421C148.138 333.421 148.288 333.309 148.373 333.167C148.561 333.243 148.749 333.299 148.937 333.327C149.031 333.346 149.125 333.346 149.219 333.346C149.257 333.384 149.295 333.421 149.323 333.45C149.473 333.6 149.652 333.609 149.783 333.544C149.924 333.591 150.075 333.591 150.207 333.544H150.225Z" fill="#512473"/>
<path d="M152.275 334.606C151.749 334.061 151.194 333.637 150.573 333.29C150.62 333.205 150.658 333.102 150.658 332.979C150.62 314.57 150.46 296.16 150.169 277.751C149.887 259.962 149.84 242.097 148.806 224.327C149.172 225.117 149.68 225.841 150.329 226.396C151.269 262.472 151.861 298.53 152.275 334.615V334.606Z" fill="#512473"/>
<path d="M405.536 262.435C405.585 262.435 405.634 262.415 405.683 262.406C399.204 266.201 393.193 271.363 386.792 275.422C385.065 271.773 382.694 268.397 379.815 265.567C379.913 265.509 380.011 265.44 380.118 265.382C388.207 260.63 396.257 262.65 405.048 262.152C405.048 262.172 405.048 262.191 405.058 262.201C405.146 262.396 405.331 262.474 405.536 262.435Z" fill="#AE72FF"/>
<path d="M386.002 275.92C385.104 276.477 384.206 277.013 383.289 277.511C382.987 273.276 380.694 269.549 376.986 267.392C377.708 266.895 378.44 266.417 379.191 265.958C381.923 269.002 384.177 272.261 386.002 275.92Z" fill="#D5B6FF"/>
<path d="M376.489 267.744C379.943 270.086 382.07 273.94 382.197 278.087C376.596 280.956 370.576 282.634 363.609 281.6C363.57 281.6 363.541 281.61 363.501 281.61C363.375 281.034 363.199 280.468 362.945 279.931C362.779 279.57 362.575 279.229 362.36 278.907C367.122 275.306 371.59 271.179 376.489 267.744Z" fill="#D5B6FF"/>
<path d="M351.139 277.071C356.925 275.12 364.633 279.335 361.823 286.175C358.418 294.439 347.372 284.799 341.723 289.551C341.723 289.531 341.752 289.502 341.762 289.473C343.303 284.428 345.713 278.896 351.139 277.071Z" fill="#512473"/>
<path d="M357.013 321.507C356.944 321.624 356.896 321.761 356.896 321.936C357.169 329.557 345.362 330.132 340.142 330.142C334.044 330.142 328.316 328.054 325.994 322.004C335.663 325.107 347.294 324.356 357.013 321.507Z" fill="#512473"/>
<path d="M374.39 289.844C375.854 298.548 374.751 308.393 367.638 314.443C360.847 320.219 350.407 321.653 341.8 322.034C333.399 322.405 324.257 321.195 317.573 315.653C310.518 309.808 308.001 300.255 308.82 291.415C309.747 281.414 314.655 272.749 319.329 264.094C322.871 257.537 325.876 250.775 324.481 243.242C328.355 245.252 333.731 245.389 337.722 244.911C338.141 244.862 338.171 244.247 337.722 244.238C332.053 244.082 323.603 244.443 321.417 237.788C319.885 233.143 323.212 230.089 327.281 229.026C330.248 228.245 333.399 227.943 336.434 227.669C341.176 227.23 346.074 227.084 350.816 227.543C354.768 227.923 358.857 229.182 360.535 233.153C362.594 238.022 359.559 242.501 354.905 244.16C354.329 244.364 354.554 245.223 355.158 245.077C356.29 244.813 357.305 244.345 358.213 243.75C359.032 251.848 362.242 259.118 365.628 266.329C365.784 266.28 365.931 266.26 366.077 266.231C366.838 268.104 367.833 269.91 368.819 271.676C366.36 273.783 363.989 275.969 361.706 278.057C359.091 275.13 354.475 274.515 350.777 275.754C345.03 277.667 341.781 283.57 340.981 289.259C340.922 289.62 341.283 289.844 341.537 289.737C341.303 290.098 341.761 290.556 342.171 290.361C348.026 287.571 354.163 293.103 359.891 290.283C362.681 288.917 363.93 285.824 363.696 282.848C366.741 283.443 369.746 283.433 372.683 282.946C373.405 285.2 374 287.483 374.39 289.844ZM359.071 234.89C359.647 234.558 359.257 233.543 358.613 233.797C347.216 238.168 336.551 239.515 324.618 236.119C324.169 235.983 324.013 236.646 324.432 236.802C335.312 240.891 348.797 240.715 359.071 234.89ZM336.17 290.439C336.541 290.742 337 290.283 336.697 289.912C335.078 287.951 333.009 285.922 330.228 286.234C328.072 286.468 326.862 288.429 324.988 289.142C321.154 290.605 319.339 286.361 315.972 285.912C313.865 285.629 312.128 286.341 310.664 287.795C310.235 288.215 310.791 288.966 311.318 288.644C318.139 284.351 318.256 291.532 322.998 291.347C323.993 291.298 324.832 290.791 325.662 290.283C326.306 289.903 326.862 289.239 327.535 288.917C329.838 287.834 334.121 288.771 336.17 290.439Z" fill="#AE72FF"/>
<path d="M406.932 261.694C407.449 261.421 408.025 262.123 407.566 262.533C400.99 268.466 392.764 274.018 385.036 278.369C384.46 278.691 383.875 279.004 383.289 279.296C383.211 279.696 382.782 279.833 382.48 279.706C379.865 280.984 377.142 282.009 374.352 282.633C375.376 285.805 376.157 289.064 376.498 292.459C377.786 305.163 372.459 316.16 360.047 320.541C359.374 320.785 358.691 321.01 357.988 321.224C358.262 321.332 358.486 321.566 358.496 321.937C358.788 330.338 348.26 331.235 342.006 331.616C335.107 332.036 326.725 329.84 325.154 322.102C325.125 321.966 325.154 321.849 325.223 321.761C324.423 321.488 323.632 321.185 322.861 320.854C310.626 315.545 305.61 302.451 307.328 289.776C308.274 282.799 310.987 276.194 314.265 270.007C318.734 261.548 324.95 253.098 323.398 243.018C323.369 242.872 323.408 242.755 323.466 242.647C321.261 241.184 319.72 238.969 319.534 235.68C319.095 227.972 329.116 227.172 334.59 226.567C341.791 225.777 354.866 223.786 360.32 230.197C363.765 234.236 362.848 239.71 359.393 242.852C359.618 242.969 359.793 243.184 359.823 243.486C360.72 251.566 363.96 258.864 367.356 266.114C367.287 266.114 367.209 266.124 367.131 266.124C368.126 267.626 368.975 269.246 369.805 270.837C373.483 267.763 377.357 264.914 381.475 262.884C388.676 259.342 397.77 259.889 405.517 260.904C405.82 260.943 406.005 261.138 406.073 261.352C406.181 261.323 406.278 261.274 406.376 261.255C406.6 261.216 406.805 261.304 406.903 261.518C406.922 261.567 406.932 261.635 406.932 261.694ZM405.683 262.406C405.634 262.416 405.585 262.435 405.537 262.435C405.332 262.475 405.146 262.396 405.058 262.201C405.049 262.201 405.049 262.172 405.049 262.153C396.257 262.65 388.207 260.63 380.118 265.382C380.011 265.441 379.913 265.509 379.816 265.568C382.694 268.397 385.065 271.773 386.792 275.423C393.193 271.364 399.204 266.202 405.683 262.406ZM383.289 277.511C384.207 277.013 385.104 276.477 386.002 275.92C384.177 272.261 381.923 269.002 379.191 265.958C378.44 266.417 377.708 266.895 376.986 267.392C380.694 269.549 382.987 273.276 383.289 277.511ZM382.197 278.086C382.07 273.94 379.943 270.085 376.489 267.744C371.59 271.178 367.121 275.306 362.36 278.906C362.574 279.228 362.779 279.57 362.945 279.931C363.199 280.467 363.374 281.033 363.501 281.609C363.54 281.609 363.57 281.599 363.609 281.599C370.575 282.633 376.596 280.955 382.197 278.086ZM367.638 314.443C374.752 308.393 375.854 298.548 374.391 289.844C374 287.483 373.405 285.2 372.683 282.946C369.746 283.434 366.741 283.443 363.696 282.848C363.931 285.824 362.682 288.917 359.891 290.283C354.163 293.103 348.026 287.571 342.171 290.361C341.762 290.557 341.303 290.098 341.537 289.737C341.284 289.844 340.923 289.62 340.981 289.259C341.781 283.57 345.03 277.667 350.778 275.754C354.476 274.515 359.091 275.13 361.706 278.057C363.989 275.969 366.36 273.783 368.819 271.676C367.834 269.91 366.838 268.105 366.077 266.231C365.931 266.26 365.785 266.28 365.628 266.329C362.243 259.118 359.032 251.849 358.213 243.75C357.305 244.345 356.291 244.813 355.159 245.077C354.554 245.223 354.329 244.365 354.905 244.16C359.559 242.501 362.594 238.022 360.535 233.153C358.857 229.182 354.768 227.923 350.817 227.543C346.074 227.084 341.176 227.231 336.434 227.67C333.4 227.943 330.248 228.245 327.282 229.026C323.213 230.089 319.885 233.144 321.417 237.788C323.603 244.443 332.053 244.082 337.722 244.238C338.171 244.248 338.142 244.862 337.722 244.911C333.731 245.389 328.355 245.253 324.481 243.243C325.876 250.775 322.871 257.537 319.329 264.094C314.655 272.749 309.747 281.414 308.82 291.415C308.001 300.255 310.518 309.808 317.573 315.653C324.257 321.195 333.4 322.405 341.801 322.034C350.407 321.654 360.847 320.219 367.638 314.443ZM361.823 286.175C364.633 279.335 356.925 275.12 351.139 277.072C345.713 278.896 343.303 284.429 341.762 289.473C341.752 289.503 341.732 289.532 341.723 289.552C347.372 284.8 358.418 294.44 361.823 286.175ZM356.896 321.937C356.896 321.761 356.944 321.624 357.013 321.507C347.294 324.356 335.663 325.108 325.994 322.005C328.316 328.055 334.044 330.152 340.142 330.143C345.362 330.133 357.169 329.557 356.896 321.937Z" fill="#512473"/>
<path d="M358.613 233.798C359.257 233.544 359.647 234.559 359.071 234.891C348.797 240.716 335.312 240.892 324.432 236.803C324.013 236.647 324.169 235.984 324.618 236.12C336.551 239.516 347.216 238.169 358.613 233.798Z" fill="#512473"/>
<path d="M336.697 289.913C337 290.284 336.541 290.743 336.17 290.44C334.121 288.772 329.838 287.835 327.535 288.918C326.862 289.24 326.306 289.903 325.662 290.284C324.832 290.791 323.993 291.299 322.998 291.348C318.256 291.533 318.139 284.351 311.318 288.645C310.791 288.967 310.235 288.215 310.664 287.796C312.128 286.342 313.865 285.63 315.972 285.913C319.339 286.361 321.154 290.606 324.988 289.142C326.862 288.43 328.072 286.469 330.228 286.235C333.009 285.922 335.078 287.952 336.697 289.913Z" fill="#512473"/>
<g style="mix-blend-mode:multiply" opacity="0.6">
<path d="M386.002 275.919C385.105 276.476 384.207 277.012 383.29 277.51C382.987 273.275 380.694 269.548 376.986 267.391C377.708 266.894 378.44 266.416 379.192 265.957C381.924 269.001 384.178 272.26 386.002 275.919Z" fill="#D5B6FF"/>
<path d="M376.489 267.743C379.943 270.085 382.07 273.939 382.197 278.086C376.596 280.955 370.576 282.633 363.609 281.599C363.57 281.599 363.541 281.609 363.501 281.609C363.375 281.033 363.199 280.467 362.945 279.93C362.779 279.569 362.575 279.228 362.36 278.906C367.122 275.305 371.59 271.178 376.489 267.743Z" fill="#D5B6FF"/>
<path d="M353.949 237.222C355.715 236.578 357.442 235.807 359.072 234.88C359.647 234.548 359.257 233.534 358.613 233.787C356.886 234.451 355.188 235.027 353.49 235.544C353.646 236.1 353.802 236.656 353.949 237.212V237.222Z" fill="#512473"/>
</g>
<rect x="492" y="196" width="162" height="158" rx="17" fill="#2E1044"/>
<path d="M533.375 322.135C533.315 322.146 533.255 322.15 533.195 322.145C533.051 321.555 532.903 320.966 532.766 320.374C532.715 320.156 532.665 319.935 532.656 319.713C532.591 318.149 532.601 316.582 532.753 315.025C532.976 312.736 533.275 310.455 533.516 308.168C533.741 306.038 533.952 303.908 534.134 301.775C534.663 295.564 535.184 289.353 535.689 283.141C535.909 280.434 536.086 277.724 536.28 275.015C536.462 272.466 536.635 269.916 536.823 267.367C536.988 265.136 537.157 262.906 537.343 260.677C537.656 256.949 537.977 253.223 538.308 249.497C538.554 246.724 538.934 243.972 539.654 241.277C539.927 240.256 540.265 239.26 540.855 238.368C541.102 237.995 541.329 237.608 541.559 237.225C542.313 235.967 543.344 234.96 544.55 234.165C545.825 233.324 547.097 232.471 548.549 231.919C549.887 231.411 551.162 230.74 552.574 230.432C552.73 230.398 552.895 230.361 553.027 230.279C553.422 230.033 553.838 229.932 554.305 229.963C554.522 229.977 554.747 229.908 554.965 229.861C555.837 229.672 556.691 229.391 557.601 229.412C557.788 229.416 557.974 229.328 558.163 229.297C559.137 229.138 560.111 228.983 561.086 228.827C561.117 228.822 561.15 228.824 561.182 228.82C561.623 228.764 562.064 228.711 562.505 228.652C562.695 228.627 562.882 228.587 563.073 228.562C563.513 228.505 563.955 228.454 564.397 228.397C564.618 228.369 564.838 228.331 565.059 228.303C565.437 228.254 565.817 228.214 566.194 228.163C566.447 228.129 566.697 228.077 566.95 228.042C567.39 227.979 567.836 227.947 568.271 227.858C568.96 227.716 569.641 227.541 570.324 227.371C570.571 227.309 570.814 227.229 571.055 227.145C571.474 226.997 571.89 226.841 572.308 226.688C573.217 226.562 574.124 226.425 575.035 226.312C575.883 226.206 576.733 226.124 577.583 226.034C578.338 225.955 579.093 225.882 579.848 225.801C580.132 225.771 580.413 225.714 580.696 225.694C580.912 225.678 581.131 225.701 581.349 225.707C581.315 225.828 581.25 225.95 581.253 226.07C581.274 226.804 581.344 227.531 581.542 228.246C581.711 228.862 581.886 229.489 581.932 230.121C581.969 230.636 582.046 231.134 582.163 231.631C582.362 232.472 582.566 233.312 582.765 234.152C582.817 234.37 582.908 234.591 582.901 234.808C582.87 235.754 583.19 236.634 583.378 237.539C583.43 237.789 583.467 238.042 583.501 238.294C583.557 238.704 583.586 239.118 583.663 239.524C583.764 240.056 583.94 240.573 583.893 241.131C583.878 241.316 583.951 241.508 583.981 241.697C584.125 242.609 584.286 243.52 584.407 244.435C584.529 245.35 584.6 246.271 584.71 247.186C584.861 248.451 585.038 249.712 585.184 250.977C585.282 251.831 585.347 252.688 585.424 253.544C585.475 254.115 585.527 254.686 585.566 255.258C585.632 256.211 585.688 257.166 585.749 258.119C585.836 259.455 585.951 260.789 586.002 262.126C586.063 263.72 586.15 265.317 585.966 266.91C585.951 267.035 585.971 267.165 585.972 267.293C585.984 269.142 586.158 270.984 586.111 272.837C586.046 275.361 585.968 277.883 585.759 280.398C585.589 282.436 585.412 284.476 585.167 286.506C584.946 288.344 584.702 290.187 584.33 291.999C584.028 293.466 583.758 294.942 583.355 296.393C582.825 298.304 582.229 300.184 581.511 302.033C580.815 303.827 579.968 305.536 578.94 307.158C578.477 307.887 578.07 308.655 577.566 309.354C576.914 310.258 576.198 311.116 575.495 311.982C574.222 313.549 572.743 314.912 571.212 316.217C570.631 316.713 569.981 317.128 569.358 317.573C566.785 319.41 563.963 320.709 560.89 321.454C560.081 321.65 559.273 321.843 558.464 322.035C558.246 322.086 558.028 322.142 557.807 322.169C556.796 322.292 555.786 322.413 554.774 322.518C554.11 322.587 553.444 322.651 552.777 322.678C551.055 322.746 549.334 322.784 547.611 322.68C545.636 322.56 543.656 322.514 541.682 322.373C539.291 322.203 536.905 321.968 534.517 321.761C534.262 321.739 534.008 321.708 533.752 321.701C533.46 321.692 533.363 321.872 533.375 322.135Z" fill="#AE72FF"/>
<path d="M533.375 322.135C533.363 321.871 533.461 321.691 533.751 321.7C534.006 321.707 534.261 321.739 534.515 321.761C536.903 321.968 539.29 322.203 541.681 322.373C543.654 322.514 545.634 322.56 547.61 322.679C549.333 322.783 551.054 322.745 552.776 322.677C553.443 322.651 554.109 322.587 554.773 322.518C555.785 322.413 556.796 322.292 557.806 322.169C558.027 322.142 558.245 322.085 558.463 322.034C559.272 321.843 560.08 321.65 560.888 321.454C563.962 320.708 566.783 319.41 569.356 317.572C569.98 317.127 570.63 316.712 571.211 316.217C572.741 314.912 574.221 313.548 575.494 311.981C576.197 311.115 576.913 310.257 577.565 309.353C578.069 308.655 578.476 307.887 578.938 307.157C579.967 305.535 580.814 303.827 581.51 302.033C582.228 300.184 582.824 298.303 583.354 296.393C583.757 294.942 584.026 293.465 584.328 291.998C584.701 290.186 584.944 288.344 585.166 286.506C585.41 284.475 585.588 282.436 585.758 280.397C585.967 277.882 586.045 275.36 586.109 272.837C586.157 270.983 585.983 269.141 585.971 267.292C585.97 267.164 585.95 267.035 585.964 266.91C586.149 265.316 586.062 263.719 586.001 262.125C585.95 260.789 585.834 259.454 585.748 258.119C585.686 257.165 585.631 256.211 585.565 255.257C585.525 254.686 585.474 254.114 585.423 253.544C585.346 252.688 585.281 251.83 585.183 250.977C585.037 249.712 584.86 248.45 584.709 247.186C584.599 246.269 584.527 245.349 584.406 244.435C584.285 243.519 584.124 242.609 583.98 241.697C583.95 241.507 583.876 241.315 583.892 241.13C583.939 240.573 583.763 240.056 583.662 239.523C583.584 239.118 583.556 238.703 583.5 238.294C583.465 238.041 583.428 237.788 583.377 237.538C583.189 236.634 582.869 235.754 582.9 234.807C582.907 234.59 582.816 234.369 582.764 234.151C582.564 233.311 582.361 232.471 582.162 231.63C582.044 231.133 581.968 230.636 581.931 230.12C581.885 229.489 581.71 228.861 581.541 228.246C581.344 227.53 581.272 226.804 581.252 226.069C581.249 225.95 581.314 225.828 581.348 225.707C582.071 225.614 582.791 225.499 583.517 225.435C584.59 225.341 585.666 225.268 586.742 225.216C587.247 225.192 587.757 225.221 588.262 225.262C589.031 225.323 589.659 225.664 590.104 226.305C590.234 226.492 590.335 226.695 590.615 226.637C590.506 227.028 590.47 227.41 590.488 227.829C590.525 228.686 590.745 229.496 590.931 230.319C590.648 230.567 590.676 230.874 590.752 231.199C591.121 232.779 591.537 234.349 591.696 235.973C591.786 236.889 591.985 237.794 592.091 238.709C592.237 239.971 592.344 241.238 592.464 242.503C592.585 243.768 592.696 245.034 592.823 246.298C592.892 246.994 592.986 247.686 593.069 248.38C593.042 248.502 592.985 248.627 592.994 248.748C593.058 249.634 593.148 250.519 593.205 251.406C593.33 253.339 593.473 255.272 593.547 257.208C593.649 259.876 593.695 262.547 593.764 265.216C593.777 265.375 593.798 265.534 593.801 265.694C593.827 267.577 593.832 269.461 593.879 271.343C593.976 275.206 594.025 279.07 593.947 282.934C593.892 285.615 593.789 288.297 593.675 290.978C593.589 292.988 593.439 294.996 593.342 297.006C593.3 297.895 593.146 298.786 593.324 299.677L593.328 299.662C593.29 299.805 593.253 299.947 593.215 300.089C593.167 300.336 593.087 300.581 593.074 300.829C592.991 302.385 592.921 303.942 592.849 305.498C592.791 306.768 592.736 308.038 592.679 309.309C592.721 309.497 592.764 309.684 592.806 309.872L592.809 309.858C592.753 310.102 592.667 310.343 592.647 310.591C592.587 311.32 592.568 312.053 592.507 312.782C592.291 315.352 592.066 317.922 591.839 320.491C591.797 320.966 591.731 321.439 591.671 321.913C591.65 322.079 591.655 322.229 591.823 322.324C591.698 322.819 591.573 323.314 591.448 323.809C591.261 323.922 591.164 324.089 591.151 324.307C591.126 324.366 591.102 324.425 591.077 324.484C590.679 325.435 590.036 326.003 588.935 325.855C586.223 326.175 583.515 325.924 580.806 325.794C577.107 325.617 573.409 325.416 569.704 325.369C564.878 325.307 560.068 324.959 555.266 324.488C552.914 324.257 550.56 324.036 548.206 323.819C545.694 323.589 543.177 323.397 540.668 323.136C538.444 322.904 536.229 322.604 534.011 322.324C533.795 322.296 533.587 322.199 533.375 322.135Z" fill="#AE72FF"/>
<path d="M601.744 322.559C601.331 322.583 600.918 322.627 600.504 322.629C599.291 322.633 598.078 322.631 596.865 322.611C596.451 322.604 596.033 322.565 595.626 322.49C595.02 322.378 594.691 321.967 594.846 321.391C595.316 319.641 595.252 317.841 595.409 316.062C595.567 314.28 595.685 312.494 595.82 310.709C595.866 310.103 595.927 309.498 595.95 308.891C595.963 308.545 595.913 308.196 595.891 307.849C596.09 303.475 596.366 299.1 596.473 294.722C596.738 283.854 596.794 272.985 596.498 262.116C596.405 258.696 596.227 255.28 595.91 251.872C595.624 248.784 595.351 245.695 595.073 242.606C595.213 242.26 595.117 241.928 595.01 241.596L595.012 241.612C595.041 241.521 595.098 241.43 595.094 241.341C595.015 239.558 594.946 237.775 594.838 235.993C594.767 234.817 594.649 233.644 594.528 232.471C594.483 232.029 594.364 231.594 594.293 231.153C594.181 230.462 594.059 229.77 593.982 229.075C593.899 228.329 594.043 228.135 594.813 227.786C595.035 227.782 595.257 227.78 595.479 227.772C596.618 227.729 597.76 227.714 598.896 227.629C599.684 227.57 600.465 227.41 601.248 227.296C601.356 228.113 601.385 228.942 601.621 229.739C601.639 229.799 601.646 229.867 601.639 229.928C601.58 230.481 601.751 231 601.868 231.527C601.924 231.775 602.026 232.027 602.016 232.274C601.987 233.022 602.23 233.717 602.361 234.435C602.56 235.527 602.624 236.643 602.94 237.715C602.887 238.428 603.102 239.1 603.246 239.783C603.285 239.968 603.284 240.162 603.307 240.351C603.35 240.696 603.392 241.042 603.442 241.387C603.479 241.639 603.579 241.892 603.562 242.138C603.528 242.661 603.676 243.147 603.776 243.644C603.587 243.661 603.398 243.683 603.208 243.693C602.447 243.733 601.685 243.761 600.924 243.812C600.571 243.836 600.408 244.003 600.365 244.35C600.342 244.537 600.343 244.731 600.359 244.919C600.401 245.394 600.464 245.866 600.507 246.341C600.706 248.556 600.895 250.771 601.103 252.985C601.166 253.648 601.279 254.305 601.369 254.965C601.393 255.12 601.41 255.277 601.444 255.431C601.564 255.98 601.756 256.167 602.327 256.24C602.606 256.275 602.892 256.264 603.174 256.269C603.862 256.28 604.55 256.289 605.238 256.299C605.077 256.732 605.136 257.18 605.167 257.621C605.26 258.954 605.412 260.285 605.467 261.621C605.6 264.837 605.724 268.053 605.79 271.271C605.849 274.172 605.848 277.075 605.836 279.977C605.815 284.571 605.8 289.167 605.564 293.757C605.442 296.116 605.341 298.476 605.186 300.832C605.07 302.616 604.884 304.397 604.726 306.179C604.698 306.497 604.662 306.814 604.622 307.131C604.453 308.493 604.277 309.854 604.11 311.216C603.842 313.403 603.469 315.573 603.043 317.735C602.895 318.486 602.756 319.24 602.598 319.989C602.452 320.677 602.284 321.359 602.128 322.045C602.078 322.275 601.968 322.459 601.744 322.559Z" fill="#D5B6FF"/>
<path d="M572.307 226.689C571.89 226.842 571.473 226.998 571.054 227.146C570.813 227.23 570.571 227.311 570.323 227.372C569.641 227.542 568.959 227.717 568.27 227.859C567.836 227.949 567.39 227.981 566.949 228.043C566.696 228.078 566.446 228.129 566.193 228.164C565.816 228.215 565.436 228.255 565.058 228.304C564.837 228.332 564.617 228.37 564.396 228.398C563.955 228.455 563.513 228.506 563.072 228.563C562.882 228.588 562.694 228.628 562.504 228.653C562.063 228.711 561.622 228.765 561.181 228.82C561.149 228.825 561.117 228.822 561.085 228.828C560.111 228.984 559.136 229.139 558.162 229.298C557.973 229.329 557.786 229.417 557.6 229.413C556.69 229.393 555.836 229.673 554.964 229.862C554.746 229.909 554.521 229.978 554.304 229.963C553.837 229.933 553.421 230.034 553.026 230.28C552.894 230.362 552.729 230.399 552.574 230.433C551.161 230.741 549.886 231.412 548.548 231.92C547.097 232.472 545.824 233.324 544.549 234.166C543.343 234.961 542.312 235.967 541.558 237.225C541.328 237.609 541.101 237.996 540.855 238.369C540.264 239.261 539.926 240.256 539.653 241.278C538.933 243.973 538.552 246.725 538.307 249.498C537.977 253.224 537.655 256.95 537.342 260.678C537.155 262.906 536.987 265.137 536.822 267.368C536.634 269.917 536.461 272.467 536.279 275.016C536.085 277.725 535.909 280.435 535.688 283.142C535.183 289.354 534.663 295.565 534.133 301.775C533.952 303.909 533.74 306.04 533.515 308.169C533.274 310.456 532.975 312.737 532.752 315.026C532.6 316.583 532.589 318.15 532.655 319.714C532.664 319.936 532.715 320.158 532.765 320.375C532.902 320.967 533.051 321.556 533.194 322.146C532.672 321.999 532.132 321.897 531.632 321.695C530.654 321.3 530.157 320.554 530.091 319.482C529.982 317.682 530.245 315.908 530.403 314.127C530.485 313.204 530.641 312.288 530.741 311.366C530.988 309.078 531.261 306.791 531.451 304.497C531.643 302.172 531.72 299.837 531.898 297.511C532.162 294.068 532.316 290.616 532.83 287.194C532.914 286.632 532.855 286.048 532.854 285.474C532.85 284.228 532.826 282.982 532.839 281.737C532.852 280.427 532.906 279.117 532.928 277.807C533.006 273.205 533.111 268.604 533.137 264.002C533.152 261.385 533.043 258.767 532.968 256.15C532.923 254.587 532.852 253.024 532.764 251.462C532.649 249.423 532.506 247.386 532.375 245.348C532.29 244.011 532.212 242.674 532.119 241.337C532.051 240.351 531.928 239.367 531.896 238.38C531.86 237.296 531.831 236.212 532.077 235.135C532.279 234.254 532.775 233.645 533.543 233.225C533.992 232.979 534.457 232.778 534.965 232.669C535.716 232.51 536.455 232.295 537.208 232.147C538.587 231.877 539.977 231.71 541.39 231.768C541.736 231.781 542.09 231.739 542.431 231.674C543.277 231.512 544.1 231.242 544.977 231.236C545.29 231.234 545.6 231.099 545.915 231.047C546.417 230.965 546.923 230.901 547.427 230.83C547.49 230.821 547.555 230.822 547.618 230.811C548.719 230.623 549.818 230.431 550.919 230.247C551.233 230.195 551.55 230.164 551.867 230.128C551.994 230.113 552.123 230.121 552.248 230.099C553.535 229.866 554.823 229.636 556.108 229.391C556.797 229.26 557.476 229.104 558.182 229.04C558.94 228.97 559.683 228.729 560.432 228.562C561.054 228.423 561.672 228.288 562.318 228.248C562.886 228.212 563.443 228.017 564.006 227.898C564.692 227.753 565.364 227.521 566.081 227.559C566.175 227.564 566.271 227.535 566.365 227.517C567.559 227.306 568.75 227.085 569.945 226.886C570.605 226.777 571.271 226.7 571.935 226.623C572.055 226.609 572.183 226.665 572.307 226.689Z" fill="#AE72FF"/>
<path d="M595.072 242.606C595.351 245.695 595.624 248.784 595.91 251.872C596.226 255.28 596.404 258.696 596.498 262.116C596.794 272.985 596.738 283.854 596.472 294.722C596.366 299.1 596.09 303.474 595.891 307.85C595.83 308.189 595.744 308.528 595.712 308.872C595.385 312.391 595.014 315.906 594.5 319.403C594.37 320.284 594.222 321.167 594.009 322.031C593.842 322.707 593.591 323.366 593.327 324.013C593.043 324.708 592.461 324.939 591.616 324.761C591.56 324.444 591.503 324.127 591.447 323.81C591.572 323.315 591.697 322.82 591.822 322.325C592.007 321.159 592.221 319.997 592.371 318.827C592.701 316.261 592.768 313.675 592.88 311.093C592.898 310.683 592.834 310.27 592.808 309.859L592.805 309.873C592.973 309.686 592.902 309.469 592.885 309.258C592.926 308.914 592.988 308.571 593.006 308.227C593.108 306.291 593.202 304.354 593.295 302.418C593.333 301.626 593.364 300.833 593.398 300.04C593.375 299.915 593.351 299.789 593.327 299.664L593.323 299.679C593.382 299.37 593.468 299.064 593.494 298.753C593.594 297.544 593.668 296.333 593.763 295.123C594.072 291.175 594.242 287.219 594.311 283.26C594.401 278.153 594.274 273.047 594.18 267.941C594.165 267.145 594.098 266.349 594.055 265.553C594.062 265.048 594.094 264.541 594.071 264.038C593.931 260.86 593.783 257.683 593.627 254.507C593.532 252.57 593.42 250.634 593.316 248.698C593.267 247.903 593.233 247.106 593.165 246.312C592.982 244.184 592.795 242.057 592.587 239.932C592.506 239.107 592.376 238.288 592.248 237.469C592.08 236.398 591.839 235.335 591.727 234.259C591.586 232.917 591.229 231.627 590.931 230.321C590.745 229.498 590.525 228.688 590.488 227.831C590.47 227.412 590.506 227.03 590.615 226.64C590.445 226.341 590.276 226.042 590.107 225.746C590.261 225.454 590.529 225.471 590.774 225.482C591.135 225.499 591.451 225.655 591.733 225.877C592.697 226.639 593.241 227.678 593.643 228.804C593.704 228.975 593.704 229.192 593.663 229.372C593.566 229.798 593.662 230.198 593.768 230.6C594.205 232.244 594.335 233.93 594.464 235.617C594.597 237.366 594.72 239.116 594.858 240.865C594.878 241.116 594.959 241.363 595.012 241.612L595.01 241.597C594.86 241.943 594.967 242.275 595.072 242.606Z" fill="#AE72FF"/>
<path d="M610.615 256.443C610.812 256.547 611.008 256.651 611.191 256.748C611.66 258.01 611.902 259.279 611.861 260.608C611.786 263.004 611.735 265.401 611.693 267.798C611.62 271.857 611.564 275.916 611.495 279.975C611.418 284.546 611.368 289.117 611.242 293.685C611.168 296.401 611.011 299.115 610.817 301.825C610.535 305.748 610.199 309.666 609.859 313.584C609.704 315.367 609.499 317.147 609.055 318.89C608.912 319.454 608.696 319.978 608.388 320.473C607.956 321.167 607.245 321.365 606.531 321.527C606.171 321.608 605.837 321.412 605.602 321.129C605.44 320.935 605.328 320.7 605.194 320.484C605.249 320.072 605.269 319.652 605.365 319.25C605.976 316.663 606.395 314.041 606.802 311.416C607.903 304.326 608.572 297.198 608.662 290.021C608.708 286.312 608.675 282.602 608.705 278.892C608.735 275.245 608.7 271.6 608.492 267.958C608.316 264.861 608.145 261.762 607.972 258.664C608.008 258.512 608.071 258.361 608.074 258.208C608.087 257.42 608.404 256.806 609.072 256.38C609.587 256.402 610.101 256.422 610.615 256.443Z" fill="#AE72FF"/>
<path d="M607.973 258.665C608.146 261.763 608.316 264.861 608.492 267.958C608.7 271.601 608.735 275.246 608.706 278.892C608.676 282.602 608.709 286.312 608.663 290.021C608.572 297.198 607.903 304.327 606.803 311.416C606.396 314.04 605.977 316.663 605.365 319.25C605.27 319.652 605.25 320.072 605.195 320.484C605.078 320.738 604.957 320.991 604.843 321.247C604.461 322.108 603.794 322.554 602.861 322.588C602.489 322.602 602.116 322.57 601.744 322.559C601.968 322.459 602.078 322.275 602.131 322.044C602.286 321.359 602.455 320.676 602.6 319.988C602.759 319.239 602.897 318.486 603.046 317.734C603.471 315.573 603.844 313.403 604.112 311.216C604.279 309.854 604.455 308.492 604.625 307.131C604.664 306.814 604.7 306.497 604.728 306.178C604.886 304.396 605.072 302.616 605.189 300.831C605.343 298.475 605.444 296.115 605.566 293.757C605.802 289.166 605.818 284.571 605.838 279.976C605.851 277.074 605.852 274.172 605.792 271.271C605.726 268.053 605.603 264.836 605.47 261.62C605.415 260.285 605.262 258.954 605.169 257.62C605.138 257.179 605.079 256.731 605.24 256.298C605.885 256.299 606.529 256.3 607.174 256.3C607.698 256.72 607.929 257.257 607.883 257.933C607.866 258.174 607.94 258.421 607.973 258.665Z" fill="#D5B6FF"/>
<path d="M609.255 244.143C609.568 244.192 609.88 244.254 610.195 244.29C612.708 244.574 615.203 244.959 617.641 245.649C618.317 245.841 618.985 246.066 619.643 246.311C619.935 246.419 620.194 246.615 620.468 246.771C618.806 247.218 617.081 247.431 615.491 248.147C614.96 248.386 614.444 248.63 614.076 249.095C613.526 249.792 613.393 250.588 613.546 251.45C613.605 251.785 613.803 252.119 613.593 252.475C613.254 252.679 612.881 252.714 612.492 252.734C610.894 252.819 609.301 252.701 607.711 252.601C605.829 252.482 603.947 252.459 602.064 252.433C601.844 252.43 601.623 252.484 601.402 252.512C601.38 252.419 601.347 252.328 601.339 252.234C601.227 250.904 601.12 249.575 601.007 248.246C600.939 247.455 600.846 246.665 600.793 245.873C600.761 245.405 600.726 244.922 600.994 244.489C602.124 244.215 603.234 243.967 604.389 244.011C604.669 244.021 604.953 243.944 605.235 243.907L605.215 243.905C605.971 244.057 606.731 244.104 607.496 243.984C608.071 244.167 608.661 244.179 609.255 244.143Z" fill="#512473"/>
<path d="M601.402 252.512C601.623 252.485 601.845 252.43 602.065 252.433C603.948 252.459 605.83 252.482 607.711 252.601C609.302 252.702 610.895 252.819 612.493 252.735C612.882 252.714 613.255 252.679 613.594 252.475C613.804 252.119 613.606 251.786 613.547 251.451C613.394 250.589 613.527 249.793 614.077 249.096C614.444 248.63 614.96 248.386 615.491 248.147C617.081 247.431 618.806 247.219 620.468 246.771C620.789 246.931 620.927 247.202 620.923 247.548C620.92 247.863 620.744 248.096 620.509 248.269C620.279 248.438 620.029 248.585 619.772 248.711C619.2 248.992 618.612 249.243 618.044 249.53C617.567 249.771 617.049 249.967 616.718 250.505C616.815 250.656 616.887 250.839 617.017 250.957C617.393 251.301 617.783 251.631 618.186 251.944C618.916 252.512 619.669 253.051 620.394 253.626C620.844 253.982 621.26 254.382 621.549 254.892C621.961 255.619 621.757 256.298 620.996 256.617C620.737 256.726 620.441 256.791 620.162 256.796C619.047 256.815 617.93 256.844 616.817 256.792C615.129 256.713 613.445 256.566 611.758 256.457C611.379 256.432 610.998 256.446 610.617 256.442C610.103 256.421 609.588 256.401 609.074 256.38C608.441 256.353 607.808 256.326 607.174 256.299C606.53 256.298 605.885 256.298 605.24 256.297C604.552 256.287 603.864 256.278 603.176 256.266C602.894 256.261 602.609 256.273 602.33 256.237C601.758 256.165 601.566 255.978 601.446 255.429C601.412 255.275 601.396 255.119 601.371 254.963C601.396 254.776 601.442 254.591 601.441 254.406C601.436 253.775 601.416 253.143 601.402 252.512Z" fill="#512473"/>
<path d="M609.255 244.142C608.661 244.179 608.071 244.167 607.496 243.984C607.077 243.518 606.84 242.957 606.644 242.374L606.643 242.377C606.794 242.108 606.718 241.845 606.622 241.583C606.568 239.731 606.344 237.9 605.93 236.094C605.674 234.977 605.416 233.858 605.116 232.752C604.631 230.97 604.111 229.197 603.604 227.421C603.554 227.245 603.494 227.073 603.432 226.878C602.635 226.846 601.945 227.09 601.248 227.294C600.465 227.409 599.684 227.567 598.896 227.627C597.76 227.713 596.618 227.727 595.479 227.77C595.257 227.779 595.035 227.78 594.813 227.784C594.529 227.752 594.244 227.733 593.965 227.681C593.813 227.652 593.654 227.59 593.531 227.499C593.2 227.257 593.242 226.688 593.621 226.545C593.944 226.423 594.299 226.355 594.645 226.332C595.568 226.272 596.493 226.231 597.418 226.217C598.638 226.197 599.839 226.073 601.021 225.763C601.639 225.601 602.262 225.46 602.884 225.312C603.101 225.26 603.318 225.197 603.539 225.17C605.006 224.989 605.871 225.339 606.62 226.579C606.883 227.014 607.123 227.477 607.288 227.956C607.988 229.982 608.586 232.036 608.884 234.166C608.924 234.451 608.985 234.733 609.052 235.013C609.546 237.098 609.956 239.199 610.313 241.311C610.365 241.625 610.378 241.945 610.403 242.263C610.476 243.167 610.127 243.815 609.255 244.142Z" fill="#AE72FF"/>
<path d="M601.249 227.296C601.946 227.092 602.635 226.847 603.433 226.88C603.495 227.074 603.555 227.247 603.605 227.422C604.112 229.198 604.632 230.971 605.117 232.753C605.417 233.859 605.675 234.978 605.931 236.096C606.345 237.901 606.569 239.732 606.623 241.584C606.481 241.853 606.539 242.116 606.644 242.378L606.645 242.375C606.586 242.487 606.514 242.592 606.472 242.709C606.254 243.322 605.854 243.739 605.216 243.906L605.236 243.909C604.75 243.821 604.263 243.732 603.777 243.644C603.677 243.147 603.529 242.66 603.563 242.138C603.579 241.892 603.48 241.639 603.443 241.387C603.393 241.042 603.351 240.697 603.308 240.351C603.285 240.162 603.286 239.969 603.247 239.783C603.103 239.099 602.888 238.427 602.941 237.715C602.626 236.643 602.561 235.527 602.362 234.435C602.232 233.717 601.988 233.022 602.017 232.274C602.027 232.027 601.924 231.775 601.869 231.527C601.752 231 601.58 230.481 601.64 229.929C601.647 229.867 601.64 229.799 601.622 229.739C601.386 228.942 601.357 228.112 601.249 227.296Z" fill="#D5B6FF"/>
<path d="M621.593 246.434C621.289 246.159 620.937 245.909 620.564 245.743C619.806 245.404 619.034 245.085 618.243 244.84C616.685 244.357 615.088 244.026 613.475 243.781C612.813 243.68 612.151 243.586 611.388 243.474C611.176 242.144 610.963 240.885 610.775 239.622C610.315 236.517 609.712 233.441 608.88 230.413C608.481 228.963 608.018 227.53 607.304 226.197C607.08 225.778 606.807 225.376 606.502 225.012C606.04 224.463 605.428 224.227 604.702 224.329C604.385 224.374 604.067 224.408 603.751 224.458C601.886 224.749 600.024 225.06 598.157 225.33C596.67 225.545 595.173 225.674 593.666 225.667C593.327 225.665 593.053 225.6 592.784 225.392C591.976 224.766 591.03 224.47 590.033 224.36C589.304 224.28 588.566 224.246 587.834 224.259C585.528 224.301 583.247 224.635 580.962 224.913C579.533 225.085 578.106 225.274 576.679 225.459C575.157 225.655 573.632 225.84 572.113 226.055C570.371 226.303 568.633 226.58 566.893 226.841C564.268 227.233 561.64 227.615 559.015 228.016C557.054 228.317 555.098 228.644 553.139 228.953C550.01 229.446 546.881 229.932 543.752 230.425C542.709 230.589 541.666 230.752 540.627 230.937C538.957 231.234 537.286 231.523 535.626 231.868C534.815 232.038 534.029 232.328 533.23 232.559C532.877 232.66 532.61 232.883 532.368 233.142C531.943 233.596 531.639 234.127 531.531 234.736C531.432 235.299 531.354 235.876 531.362 236.446C531.377 237.467 531.445 238.49 531.523 239.509C531.743 242.377 531.992 245.243 532.206 248.112C532.594 253.31 532.705 258.517 532.619 263.726C532.513 270.178 532.378 276.629 532.222 283.08C532.041 290.619 531.584 298.141 530.724 305.636C530.305 309.285 529.897 312.935 529.514 316.588C529.417 317.506 529.399 318.437 529.408 319.361C529.425 320.911 530.331 321.834 531.58 322.167C532.35 322.373 533.129 322.577 533.917 322.676C536.516 323.002 539.117 323.32 541.724 323.571C554.762 324.826 567.822 325.78 580.908 326.355C583.874 326.486 586.845 326.707 589.813 326.361C591.928 326.114 593.649 325.216 594.746 323.313C594.824 323.178 594.909 323.047 595.006 322.889C595.334 322.857 595.649 322.799 595.964 322.802C597.145 322.813 598.326 322.847 599.508 322.869C600.561 322.888 601.617 322.951 602.668 322.908C603.626 322.868 604.593 322.752 605.308 322.004C605.461 322.002 605.589 322.007 605.716 321.997C606.384 321.946 607.055 321.919 607.718 321.83C608.395 321.738 608.912 321.349 609.215 320.745C609.47 320.234 609.71 319.698 609.843 319.146C610.09 318.123 610.298 317.086 610.445 316.044C611.116 311.296 611.494 306.518 611.751 301.733C612.17 293.918 612.437 286.096 612.626 278.272C612.784 271.757 612.862 265.24 612.635 258.723C612.615 258.162 612.509 257.596 612.639 257.002C612.817 256.998 612.975 256.984 613.132 256.99C614.759 257.064 616.386 257.16 618.014 257.211C618.907 257.239 619.802 257.204 620.696 257.176C621.212 257.16 621.708 257.043 622.154 256.757C622.717 256.396 622.943 255.924 622.782 255.293C622.705 254.989 622.586 254.676 622.406 254.423C622.114 254.007 621.803 253.583 621.418 253.26C620.661 252.624 619.854 252.045 619.053 251.462C618.666 251.18 618.242 250.948 617.846 250.679C617.73 250.6 617.651 250.468 617.531 250.334C617.755 250.209 617.914 250.099 618.089 250.028C618.623 249.812 619.166 249.62 619.698 249.402C620.349 249.135 621.006 248.871 621.551 248.411C622.249 247.819 622.277 247.053 621.593 246.434ZM594.135 226.878C594.448 226.863 594.761 226.856 595.073 226.833C596.795 226.708 598.51 226.525 600.214 226.243C601.665 226.004 603.122 225.801 604.569 225.539C605.163 225.431 605.558 225.632 605.873 226.099C606.432 226.928 606.796 227.849 607.118 228.786C607.984 231.302 608.59 233.884 609.026 236.507C609.378 238.62 609.729 240.732 610.078 242.845C610.099 242.969 610.101 243.097 610.114 243.254C609.7 243.442 609.291 243.279 608.894 243.278C608.48 243.277 608.067 243.223 607.627 243.191C607.394 242.645 607.374 242.069 607.287 241.509C606.961 239.424 606.647 237.339 606.319 235.255C605.951 232.915 605.446 230.603 604.83 228.317C604.68 227.762 604.497 227.215 604.296 226.677C604.073 226.079 603.859 225.985 603.281 226.153C600.43 226.981 597.516 227.257 594.558 227.152C594.41 227.147 594.264 227.097 594.116 227.068C594.122 227.005 594.129 226.941 594.135 226.878ZM590.337 324.899C589.402 325.306 588.47 325.33 587.545 325.322C585.629 325.307 583.712 325.284 581.798 325.202C568.235 324.621 554.699 323.64 541.188 322.319C538.932 322.099 536.679 321.839 534.431 321.553C533.58 321.444 532.741 321.221 531.902 321.026C531.031 320.825 530.616 320.228 530.602 319.362C530.591 318.628 530.582 317.89 530.658 317.162C531.023 313.636 531.39 310.109 531.808 306.589C532.769 298.493 533.247 290.367 533.433 282.221C533.574 276.027 533.715 269.832 533.811 263.636C533.892 258.459 533.786 253.285 533.4 248.12C533.186 245.251 532.938 242.385 532.719 239.517C532.638 238.466 532.561 237.413 532.549 236.359C532.542 235.825 532.634 235.276 532.77 234.756C532.924 234.171 533.309 233.756 533.933 233.594C534.521 233.441 535.093 233.215 535.685 233.093C537.283 232.765 538.887 232.465 540.492 232.172C541.53 231.983 542.574 231.822 543.617 231.657C546.745 231.163 549.873 230.676 553.001 230.182C554.96 229.873 556.916 229.548 558.876 229.245C560.741 228.957 562.61 228.693 564.476 228.41C566.278 228.138 568.078 227.845 569.882 227.582C571.527 227.341 573.176 227.125 574.825 226.903C576.314 226.703 577.803 226.492 579.296 226.319C581.836 226.024 584.378 225.74 586.923 225.485C587.647 225.413 588.385 225.38 589.093 225.491C589.387 225.767 589.476 226.112 589.58 226.446C590.243 228.59 590.71 230.78 591.038 232.998C591.252 234.453 591.457 235.911 591.615 237.373C591.838 239.438 592.055 241.506 592.201 243.578C592.45 247.116 592.656 250.658 592.855 254.199C593.163 259.654 593.36 265.113 593.36 270.577C593.36 279.585 593.224 288.591 592.994 297.595C592.853 303.12 592.48 308.633 592.093 314.145C591.948 316.215 591.751 318.282 591.535 320.346C591.445 321.202 591.268 322.05 591.087 322.892C590.939 323.58 590.706 324.246 590.337 324.899ZM594.331 320.478C594.25 321.045 594.112 321.608 593.946 322.157C593.677 323.047 593.113 323.732 592.335 324.237C592.237 324.301 592.105 324.312 591.913 324.37C592.318 323.014 592.61 321.712 592.732 320.381C592.961 317.869 593.194 315.356 593.372 312.839C593.756 307.389 594.097 301.937 594.216 296.474C594.417 287.244 594.59 278.012 594.537 268.778C594.51 264.176 594.345 259.576 594.077 254.981C593.898 251.918 593.764 248.852 593.559 245.79C593.403 243.462 593.197 241.137 592.96 238.815C592.752 236.78 592.526 234.743 592.204 232.723C591.862 230.575 591.505 228.425 590.794 226.355C590.734 226.181 590.706 225.996 590.644 225.74C591.523 225.882 592.2 226.251 592.643 226.957C592.877 227.33 593.038 227.76 593.169 228.184C593.606 229.597 593.791 231.059 593.92 232.527C594.131 234.947 594.343 237.367 594.536 239.789C594.743 242.402 594.937 245.017 595.118 247.631C595.308 250.374 595.478 253.117 595.653 255.861C595.914 259.976 596.07 264.095 596.126 268.218C596.244 276.972 596.179 285.726 595.989 294.478C595.828 301.889 595.568 309.295 594.799 316.673C594.667 317.944 594.511 319.213 594.331 320.478ZM604.732 319.79C604.653 320.197 604.543 320.599 604.425 320.996C604.336 321.291 604.131 321.484 603.816 321.543C603.533 321.596 603.253 321.68 602.968 321.703C601.822 321.793 600.676 321.773 599.479 321.649C599.489 321.407 599.477 321.189 599.51 320.978C599.898 318.449 600.037 315.896 600.234 313.349C600.248 313.16 600.24 312.965 600.213 312.777C600.189 312.608 600.077 312.463 599.896 312.491C599.794 312.506 599.656 312.618 599.627 312.715C599.562 312.924 599.546 313.152 599.528 313.373C599.373 315.219 599.234 317.066 599.066 318.911C598.985 319.796 598.869 320.68 598.667 321.601C597.562 321.585 596.491 321.614 595.398 321.57C595.562 320.281 595.736 319.053 595.87 317.82C596.529 311.783 596.86 305.724 597.04 299.655C597.319 290.266 597.413 280.874 597.356 271.481C597.323 266.208 597.181 260.937 596.827 255.674C596.531 251.273 596.265 246.87 595.944 242.471C595.697 239.091 595.4 235.715 595.095 232.34C595.004 231.322 594.817 230.313 594.669 229.3C594.629 229.022 594.575 228.746 594.514 228.394C595.518 228.363 596.466 228.363 597.409 228.298C598.397 228.23 599.384 228.125 600.364 227.989C601.312 227.858 602.251 227.666 603.234 227.493C603.467 227.714 603.536 228.03 603.608 228.331C603.99 229.917 604.417 231.496 604.718 233.098C605.184 235.582 605.568 238.081 605.972 240.576C606.104 241.394 606.19 242.221 606.306 243.108C604.523 243.172 602.782 243.235 601.007 243.299C600.892 242.26 600.789 241.245 600.664 240.232C600.397 238.073 600.126 235.916 599.843 233.76C599.692 232.618 599.514 231.48 599.342 230.341C599.295 230.025 599.235 229.71 599.16 229.4C599.105 229.173 598.917 229.048 598.748 229.097C598.52 229.164 598.481 229.355 598.486 229.552C598.49 229.71 598.528 229.868 598.551 230.026C598.927 232.654 599.331 235.278 599.67 237.91C599.955 240.13 600.215 242.355 600.393 244.586C600.605 247.229 600.72 249.881 600.869 252.529C600.934 253.677 601.002 254.824 601.033 255.973C601.112 258.911 601.178 261.85 601.235 264.789C601.299 268.111 601.348 271.433 601.406 274.755C601.409 274.913 601.419 275.083 601.479 275.224C601.52 275.321 601.645 275.424 601.747 275.443C601.918 275.473 602.058 275.365 602.085 275.185C602.113 274.998 602.12 274.805 602.115 274.616C602.076 272.795 602.031 270.974 601.992 269.153C601.908 265.192 601.826 261.231 601.747 257.271C601.743 257.086 601.78 256.9 601.802 256.675C603.724 256.658 605.596 256.659 607.477 256.761C607.711 257.383 607.639 258.001 607.675 258.597C607.97 263.413 608.176 268.234 608.25 273.059C608.399 282.807 608.259 292.546 607.355 302.261C606.809 308.154 605.861 313.986 604.732 319.79ZM611.433 258.752C611.66 264.756 611.604 270.762 611.469 276.766C611.283 285.068 611.003 293.369 610.559 301.662C610.302 306.48 609.919 311.287 609.241 316.066C609.103 317.044 608.887 318.014 608.663 318.977C608.571 319.376 608.382 319.757 608.202 320.13C608.058 320.43 607.797 320.605 607.461 320.682C606.927 320.804 606.393 320.799 605.857 320.757C605.724 320.412 605.88 320.109 605.939 319.803C606.843 315.128 607.624 310.434 608.185 305.705C608.836 300.213 609.155 294.697 609.338 289.173C609.565 282.37 609.548 275.566 609.336 268.764C609.222 265.155 608.991 261.55 608.816 257.944C608.799 257.593 608.796 257.243 608.785 256.799C609.674 256.837 610.465 256.872 611.266 256.906C611.495 257.541 611.411 258.156 611.433 258.752ZM620.17 247.886C619.408 248.217 618.636 248.523 617.871 248.845C617.518 248.994 617.166 249.145 616.825 249.321C616.658 249.407 616.503 249.532 616.373 249.669C616.021 250.034 615.981 250.488 616.297 250.882C616.494 251.127 616.732 251.352 616.988 251.535C617.43 251.852 617.897 252.132 618.356 252.422C619.196 252.952 620.007 253.521 620.716 254.222C621.099 254.601 621.497 254.98 621.627 255.561C621.455 255.89 621.132 255.945 620.818 255.963C620.086 256.004 619.35 256.061 618.619 256.033C615.206 255.902 611.795 255.729 608.382 255.602C606.437 255.531 604.49 255.519 602.543 255.479C602.291 255.474 602.039 255.456 601.732 255.442C601.535 251.789 601.343 248.222 601.149 244.604C601.682 244.376 602.269 244.435 602.825 244.41C607.342 244.21 611.822 244.504 616.239 245.53C617.359 245.79 618.474 246.078 619.53 246.548C619.851 246.69 620.158 246.865 620.461 247.042C620.593 247.119 620.698 247.241 620.856 247.378C620.671 247.648 620.417 247.778 620.17 247.886Z" fill="#512473"/>
<path d="M604.954 268.646C604.906 267.913 604.838 267.181 604.791 266.596C604.758 266.419 604.758 266.385 604.746 266.356C604.686 266.204 604.611 266.065 604.419 266.058C604.246 266.052 604.1 266.224 604.101 266.457C604.101 266.745 604.116 267.032 604.132 267.319C604.259 269.646 604.421 271.972 604.51 274.301C604.691 279.057 604.596 283.813 604.406 288.566C604.093 296.411 603.702 304.252 602.949 312.07C602.925 312.323 602.904 312.579 602.911 312.833C602.915 312.997 603 313.146 603.189 313.166C603.372 313.185 603.501 313.081 603.539 312.911C603.586 312.694 603.609 312.47 603.629 312.248C603.775 310.659 603.931 309.071 604.058 307.481C604.505 301.881 604.772 296.271 605.026 290.659C605.359 283.319 605.435 275.982 604.954 268.646Z" fill="#512473"/>
<path d="M601.189 304.649C601.256 304.407 601.31 304.157 601.329 303.907C601.677 299.236 601.905 294.559 601.926 289.873C601.927 289.683 601.912 289.493 601.907 289.373C601.878 289.273 601.879 289.232 601.859 289.213C601.771 289.131 601.681 289.001 601.584 288.994C601.493 288.987 601.328 289.096 601.307 289.183C601.247 289.426 601.228 289.683 601.221 289.935C601.13 292.864 601.065 295.794 600.949 298.722C600.878 300.505 600.728 302.283 600.62 304.064C600.609 304.249 600.608 304.447 600.665 304.619C600.694 304.705 600.857 304.774 600.969 304.793C601.035 304.804 601.17 304.716 601.189 304.649Z" fill="#512473"/>
</svg>
