<svg width="120" height="110" viewBox="0 0 120 110" fill="none" xmlns="http://www.w3.org/2000/svg">
<path d="M55.3613 109.311C85.4832 109.311 109.902 84.9929 109.902 54.995C109.902 24.9971 85.4832 0.679016 55.3613 0.679016C25.2395 0.679016 0.820923 24.9971 0.820923 54.995C0.820923 84.9929 25.2395 109.311 55.3613 109.311Z" fill="#FBF9FF"/>
<path d="M99.9292 102.292C105.599 102.292 110.196 97.7144 110.196 92.0677C110.196 86.421 105.599 81.8435 99.9292 81.8435C94.2592 81.8435 89.6627 86.421 89.6627 92.0677C89.6627 97.7144 94.2592 102.292 99.9292 102.292Z" fill="white"/>
<path fill-rule="evenodd" clip-rule="evenodd" d="M100.571 106.232C109.135 106.232 116.078 99.3183 116.078 90.7896C116.078 82.2608 109.135 75.3469 100.571 75.3469C92.0069 75.3469 85.0643 82.2608 85.0643 90.7896C85.0643 99.3183 92.0069 106.232 100.571 106.232ZM101.734 86.1567C101.734 85.5171 101.213 84.9986 100.571 84.9986C99.9286 84.9986 99.4079 85.5171 99.4079 86.1567V89.6314H95.9189C95.2766 89.6314 94.756 90.15 94.756 90.7896C94.756 91.4293 95.2766 91.9478 95.9189 91.9478H99.4079V95.4224C99.4079 96.062 99.9286 96.5807 100.571 96.5807C101.213 96.5807 101.734 96.062 101.734 95.4224V91.9478H105.223C105.865 91.9478 106.386 91.4293 106.386 90.7896C106.386 90.15 105.865 89.6314 105.223 89.6314H101.734V86.1567Z" fill="#AE72FF"/>
<path d="M57.0963 40.8663C57.0963 32.6231 50.3863 25.9407 42.1091 25.9407C33.8318 25.9407 27.1218 32.6231 27.1218 40.8663C27.1218 49.1095 33.8318 55.7919 42.1091 55.7919C50.3863 55.7919 57.0963 49.1095 57.0963 40.8663Z" fill="#FFC2A7" stroke="#FBF9FF" stroke-width="0.499575"/>
<path d="M48.8868 49.1529H35.54V47.4913C35.54 45.1974 37.4074 43.3377 39.711 43.3377H44.7159C47.0194 43.3377 48.8868 45.1974 48.8868 47.4913V49.1529ZM42.2134 41.6761C39.4493 41.6761 37.2084 39.4446 37.2084 36.6918C37.2084 33.9389 39.4493 31.7073 42.2134 31.7073C44.9776 31.7073 47.2185 33.9389 47.2185 36.6918C47.2185 39.4446 44.9776 41.6761 42.2134 41.6761Z" fill="#FFEDE6"/>
<path d="M83.7483 40.8663C83.7483 32.6231 77.0383 25.9407 68.7611 25.9407C60.4838 25.9407 53.7738 32.6231 53.7738 40.8663C53.7738 49.1095 60.4838 55.7919 68.7611 55.7919C77.0383 55.7919 83.7483 49.1095 83.7483 40.8663Z" fill="#D1F4F4" stroke="#FBF9FF" stroke-width="0.499575"/>
<path d="M75.5384 49.1529H62.1917V47.4913C62.1917 45.1974 64.059 43.3377 66.3625 43.3377H71.3676C73.671 43.3377 75.5384 45.1974 75.5384 47.4913V49.1529ZM68.865 41.6761C66.1008 41.6761 63.8599 39.4446 63.8599 36.6918C63.8599 33.9389 66.1008 31.7073 68.865 31.7073C71.6291 31.7073 73.87 33.9389 73.87 36.6918C73.87 39.4446 71.6291 41.6761 68.865 41.6761Z" fill="#E9FAFA"/>
<path d="M83.7484 68.8428C83.7484 60.5996 77.0384 53.9172 68.7612 53.9172C60.4839 53.9172 53.7739 60.5996 53.7739 68.8428C53.7739 77.086 60.4839 83.7684 68.7612 83.7684C77.0384 83.7684 83.7484 77.086 83.7484 68.8428Z" fill="#E2D2FF" stroke="#FBF9FF" stroke-width="0.499575"/>
<path d="M75.5385 77.13H62.1918V75.4684C62.1918 73.1744 64.0591 71.3148 66.3626 71.3148H71.3677C73.6711 71.3148 75.5385 73.1744 75.5385 75.4684V77.13ZM68.8651 69.6534C66.1009 69.6534 63.86 67.4217 63.86 64.6689C63.86 61.916 66.1009 59.6845 68.8651 59.6845C71.6294 59.6845 73.8701 61.916 73.8701 64.6689C73.8701 67.4217 71.6294 69.6534 68.8651 69.6534Z" fill="#F1EAFF"/>
<path d="M57.0963 68.8428C57.0963 60.5996 50.3863 53.9172 42.1091 53.9172C33.8318 53.9172 27.1218 60.5996 27.1218 68.8428C27.1218 77.086 33.8318 83.7684 42.1091 83.7684C50.3863 83.7684 57.0963 77.086 57.0963 68.8428Z" fill="#DDF8DC" stroke="#FBF9FF" stroke-width="0.499575"/>
<path d="M48.8866 77.13H35.5399V75.4684C35.5399 73.1744 37.4073 71.3148 39.7107 71.3148H44.7158C47.0193 71.3148 48.8866 73.1744 48.8866 75.4684V77.13ZM42.2133 69.6534C39.4491 69.6534 37.2083 67.4217 37.2083 64.6689C37.2083 61.916 39.4491 59.6845 42.2133 59.6845C44.9775 59.6845 47.2184 61.916 47.2184 64.6689C47.2184 67.4217 44.9775 69.6534 42.2133 69.6534Z" fill="#EFFBEE"/>
</svg>
