<svg width="120" height="121" viewBox="0 0 120 121" fill="none" xmlns="http://www.w3.org/2000/svg">
<g clip-path="url(#clip0_11297_2201)">
<mask id="mask0_11297_2201" style="mask-type:luminance" maskUnits="userSpaceOnUse" x="0" y="0" width="120" height="121">
<path d="M120 0.598999H0V120.401H120V0.598999Z" fill="white"/>
</mask>
<g mask="url(#mask0_11297_2201)">
<path d="M60.0004 120.39C93.1343 120.39 119.995 93.5738 119.995 60.4945C119.995 27.4151 93.1343 0.598999 60.0004 0.598999C26.8663 0.598999 0.00585938 27.4151 0.00585938 60.4945C0.00585938 93.5738 26.8663 120.39 60.0004 120.39Z" fill="#FBF9FF"/>
<path d="M61.9079 44.9141C61.9079 35.8242 54.5269 28.4554 45.4219 28.4554C36.3169 28.4554 28.936 35.8242 28.936 44.9141C28.936 54.004 36.3169 61.3729 45.4219 61.3729C54.5269 61.3729 61.9079 54.004 61.9079 44.9141Z" fill="#FFC2A7" stroke="#FBF9FF" stroke-width="0.499575"/>
<path d="M52.8775 54.0514H38.1961V52.2192C38.1961 49.6895 40.2501 47.6389 42.7839 47.6389H48.2894C50.8233 47.6389 52.8775 49.6895 52.8775 52.2192V54.0514ZM45.5367 45.8068C42.4962 45.8068 40.0311 43.3459 40.0311 40.3102C40.0311 37.2747 42.4962 34.814 45.5367 34.814C48.5773 34.814 51.0422 37.2747 51.0422 40.3102C51.0422 43.3459 48.5773 45.8068 45.5367 45.8068Z" fill="#FFEDE6"/>
<path d="M91.2258 44.9141C91.2258 35.8242 83.8449 28.4554 74.7399 28.4554C65.635 28.4554 58.2539 35.8242 58.2539 44.9141C58.2539 54.004 65.635 61.3729 74.7399 61.3729C83.8449 61.3729 91.2258 54.004 91.2258 44.9141Z" fill="#D1F4F4" stroke="#FBF9FF" stroke-width="0.499575"/>
<path d="M82.1942 54.0514H67.5128V52.2192C67.5128 49.6895 69.567 47.6389 72.1008 47.6389H77.6064C80.1402 47.6389 82.1942 49.6895 82.1942 52.2192V54.0514ZM74.8536 45.8068C71.8129 45.8068 69.348 43.3459 69.348 40.3102C69.348 37.2747 71.8129 34.814 74.8536 34.814C77.8943 34.814 80.3591 37.2747 80.3591 40.3102C80.3591 43.3459 77.8943 45.8068 74.8536 45.8068Z" fill="#E9FAFA"/>
<path d="M91.2258 75.7631C91.2258 66.6732 83.8449 59.3044 74.7399 59.3044C65.635 59.3044 58.2539 66.6732 58.2539 75.7631C58.2539 84.853 65.635 92.2219 74.7399 92.2219C83.8449 92.2219 91.2258 84.853 91.2258 75.7631Z" fill="#E2D2FF" stroke="#FBF9FF" stroke-width="0.499575"/>
<path d="M82.1942 84.9017H67.5128V83.0695C67.5128 80.5399 69.567 78.4892 72.1008 78.4892H77.6064C80.1402 78.4892 82.1942 80.5399 82.1942 83.0695V84.9017ZM74.8536 76.657C71.8129 76.657 69.348 74.1962 69.348 71.1606C69.348 68.125 71.8129 65.6641 74.8536 65.6641C77.8943 65.6641 80.3591 68.125 80.3591 71.1606C80.3591 74.1962 77.8943 76.657 74.8536 76.657Z" fill="#F1EAFF"/>
<path d="M61.9079 75.7631C61.9079 66.6732 54.5269 59.3044 45.4219 59.3044C36.3169 59.3044 28.936 66.6732 28.936 75.7631C28.936 84.853 36.3169 92.2219 45.4219 92.2219C54.5269 92.2219 61.9079 84.853 61.9079 75.7631Z" fill="#DDF8DC" stroke="#FBF9FF" stroke-width="0.499575"/>
<path d="M52.8775 84.9017H38.1961V83.0695C38.1961 80.5399 40.2501 78.4892 42.7839 78.4892H48.2894C50.8233 78.4892 52.8775 80.5399 52.8775 83.0695V84.9017ZM45.5367 76.657C42.4962 76.657 40.0311 74.1962 40.0311 71.1606C40.0311 68.125 42.4962 65.6641 45.5367 65.6641C48.5773 65.6641 51.0422 68.125 51.0422 71.1606C51.0422 74.1962 48.5773 76.657 45.5367 76.657Z" fill="#EFFBEE"/>
</g>
</g>
<defs>
<clipPath id="clip0_11297_2201">
<rect width="120" height="121" fill="white"/>
</clipPath>
</defs>
</svg>
