<svg width="101" height="100" viewBox="0 0 101 100" fill="none" xmlns="http://www.w3.org/2000/svg">
<g clip-path="url(#clip0_1273_18736)">
<path d="M50.4989 99.5C77.7242 99.5 99.7947 77.3381 99.7947 50C99.7947 22.6619 77.7242 0.5 50.4989 0.5C23.2736 0.5 1.20312 22.6619 1.20312 50C1.20312 77.3381 23.2736 99.5 50.4989 99.5Z" fill="#FBF9FF"/>
<path opacity="0.2" d="M72.2703 40.8703C70.1302 40.8703 68.1936 39.9636 66.826 38.5117C65.4584 39.9636 63.5269 40.8703 61.3816 40.8703C59.2362 40.8703 57.3048 39.9636 55.9372 38.5117C54.5696 39.9636 52.6382 40.8703 50.4929 40.8703C48.3475 40.8703 46.4161 39.9636 45.0485 38.5117C43.6809 39.9636 41.7495 40.8703 39.6041 40.8703C37.4588 40.8703 35.5274 39.9636 34.1598 38.5117C32.7922 39.9636 30.8607 40.8703 28.7154 40.8703C28.6371 40.8703 28.5588 40.8599 28.4805 40.8599V90.471C28.4805 91.9335 29.6654 93.1234 31.1217 93.1234H37.6727C38.7429 93.1234 39.7189 92.4629 40.0634 91.4408C40.742 89.4123 42.6055 87.8503 44.7979 87.8503H56.1826C58.375 87.8503 60.2385 89.4123 60.9171 91.4408C61.2564 92.4577 62.2377 93.1234 63.3078 93.1234H69.8536C71.3099 93.1234 72.4948 91.9335 72.4948 90.471V40.8599C72.4165 40.8599 72.3382 40.8703 72.2599 40.8703H72.2703Z" fill="url(#paint0_linear_1273_18736)"/>
<path d="M25.5682 14.6102V8.86027C25.5682 6.50156 27.4736 4.5884 29.8224 4.5884H37.3444C37.9029 4.5884 38.3571 5.04443 38.3571 5.60526C38.3571 6.57495 39.1452 7.36643 40.1109 7.36643H60.8862C61.8519 7.36643 62.64 6.57495 62.64 5.60526C62.64 5.04443 63.0943 4.5884 63.6527 4.5884H71.1747C73.5236 4.5884 75.4289 6.50156 75.4289 8.86027V14.6102H78.6182V6.37578C78.6182 3.13125 75.9978 0.5 72.7667 0.5H28.2303C24.9992 0.5 22.3789 3.13125 22.3789 6.37578V14.6102H25.5682Z" fill="#E8DEFF"/>
<path d="M77.71 38.5117C77.0679 39.0678 76.2902 39.5177 75.4341 39.8447V81.6599C75.4341 83.5703 73.5288 85.1198 71.1799 85.1198H63.3917C62.8333 85.1198 62.379 84.7504 62.379 84.2962V82.3519C62.379 81.5241 61.549 80.8491 60.5312 80.8491H40.471C39.4531 80.8491 38.6233 81.5241 38.6233 82.3519V84.2962C38.6233 84.7504 38.169 85.1198 37.6106 85.1198H29.8224C27.4736 85.1198 25.5682 83.5703 25.5682 81.6599V39.8447C24.7069 39.5177 23.9344 39.0636 23.2923 38.5117C23.0105 38.7536 22.7024 38.9701 22.3789 39.1696V83.6764C22.3789 86.3042 24.9992 88.4353 28.2303 88.4353H72.7667C75.9978 88.4353 78.6182 86.3042 78.6182 83.6764V39.1696C78.2945 38.9701 77.9867 38.7536 77.7048 38.5117H77.71Z" fill="#E8DEFF"/>
<path d="M55.925 82.5381H45.2504C44.8381 82.5381 44.5039 82.8099 44.5039 83.1452V85.6457C44.5039 85.9809 44.8381 86.2527 45.2504 86.2527H55.925C56.3373 86.2527 56.6715 85.9809 56.6715 85.6457V83.1452C56.6715 82.8099 56.3373 82.5381 55.925 82.5381Z" fill="white"/>
<path d="M23.2897 30.7695H12.4062L22.3816 24.3066H30.415L23.2897 30.7695Z" fill="#D2B8FF"/>
<path d="M34.1778 30.7695H23.2891L30.4143 24.3066H38.4477L34.1778 30.7695Z" fill="#E1D7F8"/>
<path d="M45.0593 30.7695H34.1758L38.4456 24.3066H46.4842L45.0593 30.7695Z" fill="#D2B8FF"/>
<path d="M55.946 30.7695H45.0625L46.4876 24.3066H54.5211L55.946 30.7695Z" fill="#E1D7F8"/>
<path d="M66.8319 30.7695H55.9484L54.5234 24.3066H62.5568L66.8319 30.7695Z" fill="#D2B8FF"/>
<path d="M77.7133 30.7695H66.8298L62.5547 24.3066H70.5934L77.7133 30.7695Z" fill="#E1D7F8"/>
<path d="M88.6025 30.7695H77.7138L70.5938 24.3066H78.6273L88.6025 30.7695Z" fill="#D2B8FF"/>
<path d="M30.4123 17.2627H22.3789V24.3074H30.4123V17.2627Z" fill="#E1D7F8"/>
<path d="M38.4474 17.2627H30.4141V24.3074H38.4474V17.2627Z" fill="#D2B8FF"/>
<path d="M46.4827 17.2627H38.4492V24.3074H46.4827V17.2627Z" fill="#E1D7F8"/>
<path d="M54.5218 17.2627H46.4883V24.3074H54.5218V17.2627Z" fill="#D2B8FF"/>
<path d="M62.5568 17.2627H54.5234V24.3074H62.5568V17.2627Z" fill="#E1D7F8"/>
<path d="M70.5881 17.2627H62.5547V24.3074H70.5881V17.2627Z" fill="#D2B8FF"/>
<path d="M78.6273 17.2627H70.5938V24.3074H78.6273V17.2627Z" fill="#E1D7F8"/>
<path d="M23.2897 31.976C23.2897 34.9953 20.8521 37.443 17.8454 37.443C14.8388 37.443 12.4062 34.9953 12.4062 31.976V30.7705H23.2897V31.976Z" fill="#D2B8FF"/>
<path d="M45.0645 31.976C45.0645 34.9953 42.6268 37.443 39.6201 37.443C36.6134 37.443 34.1758 34.9953 34.1758 31.976V30.7705H45.0593V31.976H45.0645Z" fill="#D2B8FF"/>
<path d="M66.8301 31.976C66.8301 34.9953 64.3924 37.443 61.3858 37.443C58.379 37.443 55.9414 34.9953 55.9414 31.976V30.7705H66.8249V31.976H66.8301Z" fill="#D2B8FF"/>
<path d="M88.5997 31.976C88.5997 34.9953 86.1621 37.443 83.1553 37.443C80.1487 37.443 77.7109 34.9953 77.7109 31.976V30.7705H88.5945V31.976H88.5997Z" fill="#D2B8FF"/>
<path d="M34.1778 31.976C34.1778 34.9953 31.74 37.443 28.7334 37.443C25.7268 37.443 23.2891 34.9953 23.2891 31.976V30.7705H34.1726V31.976H34.1778Z" fill="#E1D7F8"/>
<path d="M55.9473 31.976C55.9473 34.9953 53.5097 37.443 50.503 37.443C47.4963 37.443 45.0586 34.9953 45.0586 31.976V30.7705H55.9421V31.976H55.9473Z" fill="#E1D7F8"/>
<path d="M77.7131 31.976C77.7131 34.9953 75.2753 37.443 72.2687 37.443C69.262 37.443 66.8242 34.9953 66.8242 31.976V30.7705H77.7079V31.976H77.7131Z" fill="#E1D7F8"/>
<path d="M23.2899 31.9766C23.4465 34.9642 20.8156 37.6269 17.8455 37.5744C14.8754 37.6269 12.2446 34.9695 12.4012 31.9766C12.4482 34.8645 14.9694 37.3753 17.8455 37.3124C20.7165 37.3753 23.243 34.8645 23.2899 31.9766Z" fill="#E1D7F8"/>
<path d="M45.0594 31.9766C45.2161 34.9642 42.5852 37.6269 39.6151 37.5744C36.6449 37.6269 34.0141 34.9695 34.1707 31.9766C34.2176 34.8645 36.7389 37.3753 39.6151 37.3124C42.4861 37.3753 45.0124 34.8645 45.0594 31.9766Z" fill="#E1D7F8"/>
<path d="M66.8329 31.9766C66.9895 34.9642 64.3587 37.6269 61.3885 37.5744C58.4184 37.6269 55.7875 34.9695 55.9442 31.9766C55.9912 34.8645 58.5123 37.3753 61.3885 37.3124C64.2595 37.3753 66.786 34.8645 66.8329 31.9766Z" fill="#E1D7F8"/>
<path d="M88.6024 31.9766C88.759 34.9642 86.1282 37.6269 83.1581 37.5744C80.1879 37.6269 77.5571 34.9695 77.7137 31.9766C77.7607 34.8645 80.282 37.3753 83.1581 37.3124C86.029 37.3753 88.5555 34.8645 88.6024 31.9766Z" fill="#E1D7F8"/>
<path d="M34.1766 31.9766C34.3333 34.9642 31.7024 37.6269 28.7323 37.5744C25.7621 37.6269 23.1313 34.9695 23.2879 31.9766C23.3349 34.8645 25.8561 37.3753 28.7323 37.3124C31.6033 37.3753 34.1297 34.8645 34.1766 31.9766Z" fill="#E1D7F8"/>
<path d="M55.9423 31.9766C56.0989 34.9642 53.468 37.6269 50.4979 37.5744C47.5278 37.6269 44.8969 34.9695 45.0535 31.9766C45.1006 34.8645 47.6218 37.3753 50.4979 37.3124C53.3689 37.3753 55.8954 34.8645 55.9423 31.9766Z" fill="#D2B8FF"/>
<path d="M77.7118 31.9766C77.8684 34.9642 75.2376 37.6269 72.2674 37.5744C69.2973 37.6269 66.6664 34.9695 66.8231 31.9766C66.87 34.8645 69.3912 37.3753 72.2674 37.3124C75.1383 37.3753 77.6648 34.8645 77.7118 31.9766Z" fill="#D2B8FF"/>
<path d="M51.0429 42.9287L53.8034 43.4944L48.5358 68.3859L45.7753 67.8201L51.0429 42.9287ZM60.4795 55.6573L55.4231 50.58V46.5776L64.4654 55.6573L55.4231 64.7229V60.7204L60.4795 55.6573ZM35.1133 55.6573L44.1555 46.5776V50.58L39.0992 55.6573L44.1555 60.7204V64.7229L35.1133 55.6573Z" fill="#EADDFF"/>
<mask id="mask0_1273_18736" style="mask-type:alpha" maskUnits="userSpaceOnUse" x="1" y="0" width="99" height="100">
<path d="M50.4989 99.5C77.7242 99.5 99.7947 77.3381 99.7947 50C99.7947 22.6619 77.7242 0.5 50.4989 0.5C23.2736 0.5 1.20312 22.6619 1.20312 50C1.20312 77.3381 23.2736 99.5 50.4989 99.5Z" fill="#FBF9FF"/>
</mask>
<g mask="url(#mask0_1273_18736)">
<path opacity="0.2" d="M72.2703 40.8703C70.1302 40.8703 68.1936 39.9636 66.826 38.5117C65.4584 39.9636 63.5269 40.8703 61.3816 40.8703C59.2362 40.8703 57.3048 39.9636 55.9372 38.5117C54.5696 39.9636 52.6382 40.8703 50.4929 40.8703C48.3475 40.8703 46.4161 39.9636 45.0485 38.5117C43.6809 39.9636 41.7495 40.8703 39.6041 40.8703C37.4588 40.8703 35.5274 39.9636 34.1598 38.5117C32.7922 39.9636 30.8607 40.8703 28.7154 40.8703C28.6371 40.8703 28.5588 40.8599 28.4805 40.8599V90.471C28.4805 91.9335 29.6654 93.1234 31.1217 93.1234H37.6727C38.7429 93.1234 39.7189 92.4629 40.0634 91.4408C40.742 89.4123 42.6055 87.8503 44.7979 87.8503H56.1826C58.375 87.8503 60.2385 89.4123 60.9171 91.4408C61.2564 92.4577 62.2377 93.1234 63.3078 93.1234H69.8536C71.3099 93.1234 72.4948 91.9335 72.4948 90.471V40.8599C72.4165 40.8599 72.3382 40.8703 72.2599 40.8703H72.2703Z" fill="url(#paint1_linear_1273_18736)"/>
<path d="M25.5682 14.6102V8.86027C25.5682 6.50156 27.4736 4.5884 29.8224 4.5884H37.3444C37.9029 4.5884 38.3571 5.04443 38.3571 5.60526C38.3571 6.57495 39.1452 7.36643 40.1109 7.36643H60.8862C61.8519 7.36643 62.64 6.57495 62.64 5.60526C62.64 5.04443 63.0943 4.5884 63.6527 4.5884H71.1747C73.5236 4.5884 75.4289 6.50156 75.4289 8.86027V14.6102H78.6182V6.37578C78.6182 3.13125 75.9978 0.5 72.7667 0.5H28.2303C24.9992 0.5 22.3789 3.13125 22.3789 6.37578V14.6102H25.5682Z" fill="#E8DEFF"/>
<path d="M77.71 38.5117C77.0679 39.1984 76.2902 39.7539 75.4341 40.1575V91.7867C75.4341 94.1455 73.5288 96.0586 71.1799 96.0586H63.3917C62.8333 96.0586 62.379 95.6026 62.379 95.0417V92.6411C62.379 91.619 61.549 90.7855 60.5312 90.7855H40.471C39.4531 90.7855 38.6233 91.619 38.6233 92.6411V95.0417C38.6233 95.6026 38.169 96.0586 37.6106 96.0586H29.8224C27.4736 96.0586 25.5682 94.1455 25.5682 91.7867V40.1575C24.7069 39.7539 23.9344 39.1931 23.2923 38.5117C23.0105 38.8104 22.7024 39.0777 22.3789 39.3241V94.2764C22.3789 97.521 24.9992 100.152 28.2303 100.152H72.7667C75.9978 100.152 78.6182 97.521 78.6182 94.2764V39.3241C78.2945 39.0777 77.9867 38.8104 77.7048 38.5117H77.71Z" fill="#E8DEFF"/>
<path d="M55.925 92.8721H45.2504C44.8381 92.8721 44.5039 93.2077 44.5039 93.6216V96.7089C44.5039 97.1228 44.8381 97.4585 45.2504 97.4585H55.925C56.3373 97.4585 56.6715 97.1228 56.6715 96.7089V93.6216C56.6715 93.2077 56.3373 92.8721 55.925 92.8721Z" fill="white"/>
<path d="M23.2897 30.7695H12.4062L22.3816 24.3066H30.415L23.2897 30.7695Z" fill="#D8C2FF"/>
<path d="M34.1778 30.7695H23.2891L30.4143 24.3066H38.4477L34.1778 30.7695Z" fill="#EDE6FF"/>
<path d="M45.0593 30.7695H34.1758L38.4456 24.3066H46.4842L45.0593 30.7695Z" fill="#D8C2FF"/>
<path d="M55.946 30.7695H45.0625L46.4876 24.3066H54.5211L55.946 30.7695Z" fill="#EDE6FF"/>
<path d="M66.8319 30.7695H55.9484L54.5234 24.3066H62.5568L66.8319 30.7695Z" fill="#D8C2FF"/>
<path d="M77.7133 30.7695H66.8298L62.5547 24.3066H70.5934L77.7133 30.7695Z" fill="#EDE6FF"/>
<path d="M88.6025 30.7695H77.7138L70.5938 24.3066H78.6273L88.6025 30.7695Z" fill="#D8C2FF"/>
<path d="M30.4123 17.2627H22.3789V24.3074H30.4123V17.2627Z" fill="#EDE6FF"/>
<path d="M38.4474 17.2627H30.4141V24.3074H38.4474V17.2627Z" fill="#D8C2FF"/>
<path d="M46.4827 17.2627H38.4492V24.3074H46.4827V17.2627Z" fill="#EDE6FF"/>
<path d="M54.5218 17.2627H46.4883V24.3074H54.5218V17.2627Z" fill="#D8C2FF"/>
<path d="M62.5568 17.2627H54.5234V24.3074H62.5568V17.2627Z" fill="#EDE6FF"/>
<path d="M70.5881 17.2627H62.5547V24.3074H70.5881V17.2627Z" fill="#D8C2FF"/>
<path d="M78.6273 17.2627H70.5938V24.3074H78.6273V17.2627Z" fill="#EDE6FF"/>
<path d="M23.2897 31.976C23.2897 34.9953 20.8521 37.443 17.8454 37.443C14.8388 37.443 12.4062 34.9953 12.4062 31.976V30.7705H23.2897V31.976Z" fill="#D8C2FF"/>
<path d="M45.0645 31.976C45.0645 34.9953 42.6268 37.443 39.6201 37.443C36.6134 37.443 34.1758 34.9953 34.1758 31.976V30.7705H45.0593V31.976H45.0645Z" fill="#D8C2FF"/>
<path d="M66.8301 31.976C66.8301 34.9953 64.3924 37.443 61.3858 37.443C58.379 37.443 55.9414 34.9953 55.9414 31.976V30.7705H66.8249V31.976H66.8301Z" fill="#D8C2FF"/>
<path d="M88.5997 31.976C88.5997 34.9953 86.1621 37.443 83.1553 37.443C80.1487 37.443 77.7109 34.9953 77.7109 31.976V30.7705H88.5945V31.976H88.5997Z" fill="#D8C2FF"/>
<path d="M34.1778 31.976C34.1778 34.9953 31.74 37.443 28.7334 37.443C25.7268 37.443 23.2891 34.9953 23.2891 31.976V30.7705H34.1726V31.976H34.1778Z" fill="#EDE6FF"/>
<path d="M55.9473 31.976C55.9473 34.9953 53.5097 37.443 50.503 37.443C47.4963 37.443 45.0586 34.9953 45.0586 31.976V30.7705H55.9421V31.976H55.9473Z" fill="#EDE6FF"/>
<path d="M77.7131 31.976C77.7131 34.9953 75.2753 37.443 72.2687 37.443C69.262 37.443 66.8242 34.9953 66.8242 31.976V30.7705H77.7079V31.976H77.7131Z" fill="#EDE6FF"/>
<path d="M23.2899 31.9766C23.4465 34.9642 20.8156 37.6269 17.8455 37.5744C14.8754 37.6269 12.2446 34.9695 12.4012 31.9766C12.4482 34.8645 14.9694 37.3753 17.8455 37.3124C20.7165 37.3753 23.243 34.8645 23.2899 31.9766Z" fill="#EDE6FF"/>
<path d="M45.0594 31.9766C45.2161 34.9642 42.5852 37.6269 39.6151 37.5744C36.6449 37.6269 34.0141 34.9695 34.1707 31.9766C34.2176 34.8645 36.7389 37.3753 39.6151 37.3124C42.4861 37.3753 45.0124 34.8645 45.0594 31.9766Z" fill="#EDE6FF"/>
<path d="M66.8329 31.9766C66.9895 34.9642 64.3587 37.6269 61.3885 37.5744C58.4184 37.6269 55.7875 34.9695 55.9442 31.9766C55.9912 34.8645 58.5123 37.3753 61.3885 37.3124C64.2595 37.3753 66.786 34.8645 66.8329 31.9766Z" fill="#EDE6FF"/>
<path d="M88.6024 31.9766C88.759 34.9642 86.1282 37.6269 83.1581 37.5744C80.1879 37.6269 77.5571 34.9695 77.7137 31.9766C77.7607 34.8645 80.282 37.3753 83.1581 37.3124C86.029 37.3753 88.5555 34.8645 88.6024 31.9766Z" fill="#EDE6FF"/>
<path d="M34.1766 31.9766C34.3333 34.9642 31.7024 37.6269 28.7323 37.5744C25.7621 37.6269 23.1313 34.9695 23.2879 31.9766C23.3349 34.8645 25.8561 37.3753 28.7323 37.3124C31.6033 37.3753 34.1297 34.8645 34.1766 31.9766Z" fill="#EDE6FF"/>
<path d="M55.9423 31.9766C56.0989 34.9642 53.468 37.6269 50.4979 37.5744C47.5278 37.6269 44.8969 34.9695 45.0535 31.9766C45.1006 34.8645 47.6218 37.3753 50.4979 37.3124C53.3689 37.3753 55.8954 34.8645 55.9423 31.9766Z" fill="#D8C2FF"/>
<path d="M77.7118 31.9766C77.8684 34.9642 75.2376 37.6269 72.2674 37.5744C69.2973 37.6269 66.6664 34.9695 66.8231 31.9766C66.87 34.8645 69.3912 37.3753 72.2674 37.3124C75.1383 37.3753 77.6648 34.8645 77.7118 31.9766Z" fill="#D8C2FF"/>
<path d="M24.335 65.7228C25.2335 65.714 26.1158 66.1455 26.6497 66.9519L35.1624 79.773H65.7645L74.2785 66.9519C74.8124 66.1457 75.6935 65.7142 76.592 65.7228H99.8796C101.395 65.7229 102.624 66.9569 102.624 68.4781V129.356C102.624 130.877 101.395 132.111 99.8796 132.111H1.04868C-0.466428 132.111 -1.6953 130.877 -1.69531 129.356V68.4781C-1.69531 66.9568 -0.466441 65.7228 1.04868 65.7228H24.335Z" fill="#D2B8FF"/>
<mask id="mask1_1273_18736" style="mask-type:luminance" maskUnits="userSpaceOnUse" x="-2" y="65" width="105" height="68">
<path d="M24.335 65.7228C25.2335 65.714 26.1158 66.1455 26.6497 66.9519L35.1624 79.773H65.7645L74.2785 66.9519C74.8124 66.1457 75.6935 65.7142 76.592 65.7228H99.8796C101.395 65.7229 102.624 66.9569 102.624 68.4781V129.356C102.624 130.877 101.395 132.111 99.8796 132.111H1.04868C-0.466428 132.111 -1.6953 130.877 -1.69531 129.356V68.4781C-1.69531 66.9568 -0.466441 65.7228 1.04868 65.7228H24.335Z" fill="white"/>
</mask>
<g mask="url(#mask1_1273_18736)">
<path d="M24.3368 65.7232V66.3056L24.3423 66.3054L24.3368 65.7232ZM35.1643 79.7734L34.6816 80.0966L34.8538 80.3558H35.1643V79.7734ZM65.7664 79.7734V80.3558H66.0767L66.2489 80.0966L65.7664 79.7734ZM76.5938 65.7232L76.5883 66.3054H76.5938V65.7232ZM24.3368 65.7232L24.3423 66.3054C25.0535 66.2985 25.7481 66.6395 26.1686 67.2748L26.6516 66.9523L27.1345 66.6299C26.4872 65.6523 25.4172 65.1303 24.3312 65.1408L24.3368 65.7232ZM26.6516 66.9523L26.1686 67.2748L34.6816 80.0966L35.1643 79.7734L35.6468 79.4504L27.1345 66.6299L26.6516 66.9523ZM35.1643 79.7734V80.3558H65.7664V79.7734V79.1911H35.1643V79.7734ZM65.7664 79.7734L66.2489 80.0966L74.7628 67.2755L74.2803 66.9523L73.7978 66.6293L65.2838 79.4504L65.7664 79.7734ZM74.2803 66.9523L74.7628 67.2755C75.1835 66.6402 75.8775 66.2987 76.5883 66.3054L76.5938 65.7232L76.5993 65.1408C75.5131 65.1305 74.445 65.6522 73.7978 66.6293L74.2803 66.9523ZM76.5938 65.7232V66.3054H99.8814V65.7232V65.1408H76.5938V65.7232ZM99.8814 65.7232V66.3054C101.076 66.3057 102.045 67.2789 102.045 68.4785H102.625H103.205C103.205 66.6355 101.717 65.1411 99.8814 65.1408V65.7232ZM102.625 68.4785H102.045V129.356H102.625L103.205 129.356V68.4785H102.625ZM102.625 129.356H102.045C102.045 130.556 101.076 131.529 99.8813 131.529L99.8814 132.112V132.694C101.717 132.694 103.205 131.199 103.205 129.356L102.625 129.356ZM99.8814 132.112L99.8813 131.529H1.05052V132.112V132.694H99.8814V132.112ZM1.05052 132.112V131.529C-0.144289 131.529 -1.11352 130.556 -1.11354 129.356H-1.69348H-2.27344C-2.27341 131.199 -0.784901 132.694 1.05052 132.694V132.112ZM-1.69348 129.356H-1.11354V68.4785H-1.69348H-2.27344V129.356H-1.69348ZM-1.69348 68.4785H-1.11354C-1.11354 67.2788 -0.144311 66.3054 1.05052 66.3054V65.7232V65.1408C-0.784907 65.1408 -2.27344 66.6355 -2.27344 68.4785H-1.69348ZM1.05052 65.7232V66.3054L24.3368 66.3056V65.7232V65.1408H1.05052V65.7232Z" fill="#E1D7F8"/>
</g>
</g>
</g>
<defs>
<linearGradient id="paint0_linear_1273_18736" x1="1.98414" y1="17.4983" x2="46.6417" y2="61.9717" gradientUnits="userSpaceOnUse">
<stop stop-color="white"/>
<stop offset="1" stop-color="white" stop-opacity="0"/>
</linearGradient>
<linearGradient id="paint1_linear_1273_18736" x1="1.98414" y1="17.4983" x2="46.6417" y2="61.9717" gradientUnits="userSpaceOnUse">
<stop stop-color="white"/>
<stop offset="1" stop-color="white" stop-opacity="0"/>
</linearGradient>
<clipPath id="clip0_1273_18736">
<rect width="100" height="99" fill="white" transform="translate(0.5 0.5)"/>
</clipPath>
</defs>
</svg>
