<svg width="100" height="101" viewBox="0 0 100 101" fill="none" xmlns="http://www.w3.org/2000/svg">
<g clip-path="url(#clip0_1219_38523)">
<path d="M50.0003 100.491C77.6119 100.491 99.9956 78.1071 99.9956 50.4954C99.9956 22.8837 77.6119 0.5 50.0003 0.5C22.3886 0.5 0.00488281 22.8837 0.00488281 50.4954C0.00488281 78.1071 22.3886 100.491 50.0003 100.491Z" fill="#FBF9FF"/>
<path d="M51.5899 37.4903C51.5899 29.9028 45.4391 23.752 37.8516 23.752C30.2641 23.752 24.1133 29.9028 24.1133 37.4903C24.1133 45.0777 30.2641 51.2286 37.8516 51.2286C45.4391 51.2286 51.5899 45.0777 51.5899 37.4903Z" fill="#FFC2A7" stroke="#FBF9FF" stroke-width="0.499575"/>
<path d="M44.0646 45.1173H31.8301V43.5879C31.8301 41.4764 33.5418 39.7647 35.6533 39.7647H40.2412C42.3528 39.7647 44.0646 41.4764 44.0646 43.5879V45.1173ZM37.9473 38.2354C35.4135 38.2354 33.3593 36.1813 33.3593 33.6474C33.3593 31.1136 35.4135 29.0596 37.9473 29.0596C40.4811 29.0596 42.5352 31.1136 42.5352 33.6474C42.5352 36.1813 40.4811 38.2354 37.9473 38.2354Z" fill="#FFEDE6"/>
<path d="M76.0215 37.4903C76.0215 29.9028 69.8707 23.752 62.2832 23.752C54.6958 23.752 48.5449 29.9028 48.5449 37.4903C48.5449 45.0777 54.6958 51.2286 62.2832 51.2286C69.8707 51.2286 76.0215 45.0777 76.0215 37.4903Z" fill="#D1F4F4" stroke="#FBF9FF" stroke-width="0.499575"/>
<path d="M68.4952 45.1173H56.2607V43.5879C56.2607 41.4764 57.9725 39.7647 60.084 39.7647H64.672C66.7835 39.7647 68.4952 41.4764 68.4952 43.5879V45.1173ZM62.378 38.2354C59.8441 38.2354 57.79 36.1813 57.79 33.6474C57.79 31.1136 59.8441 29.0596 62.378 29.0596C64.9119 29.0596 66.9659 31.1136 66.9659 33.6474C66.9659 36.1813 64.9119 38.2354 62.378 38.2354Z" fill="#E9FAFA"/>
<path d="M76.0215 63.2403C76.0215 55.6528 69.8707 49.502 62.2832 49.502C54.6958 49.502 48.5449 55.6528 48.5449 63.2403C48.5449 70.8277 54.6958 76.9786 62.2832 76.9786C69.8707 76.9786 76.0215 70.8277 76.0215 63.2403Z" fill="#E2D2FF" stroke="#FBF9FF" stroke-width="0.499575"/>
<path d="M68.4952 70.8684H56.2607V69.339C56.2607 67.2275 57.9725 65.5158 60.084 65.5158H64.672C66.7835 65.5158 68.4952 67.2275 68.4952 69.339V70.8684ZM62.378 63.9864C59.8441 63.9864 57.79 61.9324 57.79 59.3985C57.79 56.8647 59.8441 54.8105 62.378 54.8105C64.9119 54.8105 66.9659 56.8647 66.9659 59.3985C66.9659 61.9324 64.9119 63.9864 62.378 63.9864Z" fill="#F1EAFF"/>
<path d="M51.5899 63.2403C51.5899 55.6528 45.4391 49.502 37.8516 49.502C30.2641 49.502 24.1133 55.6528 24.1133 63.2403C24.1133 70.8277 30.2641 76.9786 37.8516 76.9786C45.4391 76.9786 51.5899 70.8277 51.5899 63.2403Z" fill="#DDF8DC" stroke="#FBF9FF" stroke-width="0.499575"/>
<path d="M44.0646 70.8684H31.8301V69.339C31.8301 67.2275 33.5418 65.5158 35.6533 65.5158H40.2412C42.3528 65.5158 44.0646 67.2275 44.0646 69.339V70.8684ZM37.9473 63.9864C35.4135 63.9864 33.3593 61.9324 33.3593 59.3985C33.3593 56.8647 35.4135 54.8105 37.9473 54.8105C40.4811 54.8105 42.5352 56.8647 42.5352 59.3985C42.5352 61.9324 40.4811 63.9864 37.9473 63.9864Z" fill="#EFFBEE"/>
</g>
<defs>
<clipPath id="clip0_1219_38523">
<rect width="100" height="100" fill="white" transform="translate(0 0.5)"/>
</clipPath>
</defs>
</svg>
