<svg width="88" height="80" viewBox="0 0 88 80" fill="none" xmlns="http://www.w3.org/2000/svg">
<circle cx="40.7059" cy="40" r="40" fill="#FBF9FF"/>
<mask id="mask0_525_37015" style="mask-type:alpha" maskUnits="userSpaceOnUse" x="0" y="0" width="81" height="80">
<circle cx="40.7059" cy="40" r="40" fill="#FBF9FF"/>
</mask>
<g mask="url(#mask0_525_37015)">
<g filter="url(#filter0_d_525_37015)">
<path d="M54.5619 16.9412L54.5619 31.3633L68.6302 31.3633L54.5619 16.9412Z" fill="#E1D7F8"/>
<path d="M54.5619 16.9417L16.4538 16.9417C14.2539 16.9417 12.4706 18.7701 12.4706 21.0253L12.4706 54.6123C12.4706 56.8675 14.2539 71.5293 16.4538 71.5293L62.2774 71.5293C64.4773 71.5293 68.6302 56.8675 68.6302 54.6123L68.6302 31.3639L54.5619 31.3639L54.5619 16.9417Z" fill="#FCFCFC"/>
<rect x="38.8236" y="34.354" width="23.4291" height="3.29988" rx="1.64994" fill="#D9DEE3" fill-opacity="0.4"/>
<rect x="38.8236" y="38.5884" width="15.5294" height="3.29412" rx="1.64706" fill="#D9DEE3" fill-opacity="0.3"/>
<rect x="38.8236" y="45.1775" width="10.5596" height="3.29988" rx="1.64994" fill="#E1D7F8"/>
<rect x="19.0589" y="32.9421" width="16.4706" height="16.4706" rx="1.88235" fill="#D1F4F4"/>
<path d="M30.9356 45.6481H23.7647V44.7517C23.7647 43.5141 24.768 42.5108 26.0056 42.5108H28.6947C29.9323 42.5108 30.9356 43.5141 30.9356 44.7517V45.6481ZM27.3501 41.6145C25.865 41.6145 24.6611 40.4105 24.6611 38.9254C24.6611 37.4403 25.865 36.2363 27.3501 36.2363C28.8353 36.2363 30.0392 37.4403 30.0392 38.9254C30.0392 40.4105 28.8353 41.6145 27.3501 41.6145Z" fill="#E9FAFA"/>
</g>
<mask id="path-10-inside-1_525_37015" fill="white">
<path d="M19.475 52.7059C20.2042 52.6989 20.9197 53.0484 21.353 53.7001L28.2602 64.0594H53.0922L60.0004 53.6991C60.4337 53.0476 61.1493 52.6989 61.8784 52.7059H80.7739C82.0032 52.706 83.0004 53.7031 83.0004 54.9325V104.127C83.0004 105.356 82.0032 106.353 80.7739 106.353H0.579533C-0.649884 106.353 -1.64703 105.356 -1.64703 104.127V54.9325C-1.64698 53.7031 -0.649852 52.7059 0.579533 52.7059H19.475Z"/>
</mask>
<path d="M19.475 52.7059C20.2042 52.6989 20.9197 53.0484 21.353 53.7001L28.2602 64.0594H53.0922L60.0004 53.6991C60.4337 53.0476 61.1493 52.6989 61.8784 52.7059H80.7739C82.0032 52.706 83.0004 53.7031 83.0004 54.9325V104.127C83.0004 105.356 82.0032 106.353 80.7739 106.353H0.579533C-0.649884 106.353 -1.64703 105.356 -1.64703 104.127V54.9325C-1.64698 53.7031 -0.649852 52.7059 0.579533 52.7059H19.475Z" fill="#D2B8FF"/>
<path d="M19.475 52.7059V53.1765L19.4796 53.1765L19.475 52.7059ZM21.353 53.7001L20.9611 53.9606L20.9614 53.9611L21.353 53.7001ZM28.2602 64.0594L27.8687 64.3205L28.0084 64.53H28.2602V64.0594ZM53.0922 64.0594V64.53H53.3441L53.4838 64.3205L53.0922 64.0594ZM60.0004 53.6991L60.392 53.9601L60.3923 53.9597L60.0004 53.6991ZM61.8784 52.7059L61.8738 53.1765H61.8784V52.7059ZM80.7739 52.7059L80.7739 52.2353H80.7739V52.7059ZM83.0004 104.127L83.471 104.127V104.127H83.0004ZM80.7739 106.353V106.824H80.7739L80.7739 106.353ZM-1.64703 54.9325L-2.11762 54.9325V54.9325H-1.64703ZM19.475 52.7059L19.4796 53.1765C20.0562 53.1709 20.6195 53.4469 20.9611 53.9606L21.353 53.7001L21.7448 53.4395C21.2199 52.6499 20.3522 52.2268 19.4705 52.2353L19.475 52.7059ZM21.353 53.7001L20.9614 53.9611L27.8687 64.3205L28.2602 64.0594L28.6517 63.7984L21.7445 53.439L21.353 53.7001ZM28.2602 64.0594V64.53H53.0922V64.0594V63.5888H28.2602V64.0594ZM53.0922 64.0594L53.4838 64.3205L60.392 53.9601L60.0004 53.6991L59.6089 53.438L52.7007 63.7984L53.0922 64.0594ZM60.0004 53.6991L60.3923 53.9597C60.7337 53.4464 61.2969 53.1709 61.8738 53.1765L61.8784 52.7059L61.8829 52.2353C61.0016 52.2268 60.1338 52.6488 59.6086 53.4385L60.0004 53.6991ZM61.8784 52.7059V53.1765H80.7739V52.7059V52.2353H61.8784V52.7059ZM80.7739 52.7059L80.7738 53.1765C81.7433 53.1766 82.5298 53.9631 82.5298 54.9325H83.0004H83.471C83.471 53.4432 82.2631 52.2354 80.7739 52.2353L80.7739 52.7059ZM83.0004 54.9325H82.5298V104.127H83.0004H83.471V54.9325H83.0004ZM83.0004 104.127L82.5298 104.127C82.5298 105.096 81.7433 105.883 80.7738 105.883L80.7739 106.353L80.7739 106.824C82.2631 106.824 83.471 105.616 83.471 104.127L83.0004 104.127ZM80.7739 106.353V105.883H0.579533V106.353V106.824H80.7739V106.353ZM0.579533 106.353V105.883C-0.389985 105.883 -1.17644 105.096 -1.17644 104.127H-1.64703H-2.11762C-2.11762 105.616 -0.909783 106.824 0.579533 106.824V106.353ZM-1.64703 104.127H-1.17644V54.9325H-1.64703H-2.11762V104.127H-1.64703ZM-1.64703 54.9325L-1.17644 54.9325C-1.1764 53.963 -0.389933 53.1765 0.579533 53.1765V52.7059V52.2353C-0.90977 52.2353 -2.11755 53.4432 -2.11762 54.9325L-1.64703 54.9325ZM0.579533 52.7059V53.1765H19.475V52.7059V52.2353H0.579533V52.7059Z" fill="#E1D7F8" mask="url(#path-10-inside-1_525_37015)"/>
</g>
<circle cx="73.1764" cy="67.2941" r="7.52941" fill="white"/>
<path fill-rule="evenodd" clip-rule="evenodd" d="M73.647 77.7253C79.9279 77.7253 85.0196 72.6336 85.0196 66.3528C85.0196 60.0719 79.9279 54.9802 73.647 54.9802C67.3661 54.9802 62.2745 60.0719 62.2745 66.3528C62.2745 72.6336 67.3661 77.7253 73.647 77.7253ZM74.5 62.941C74.5 62.4699 74.1181 62.0881 73.647 62.0881C73.176 62.0881 72.7941 62.4699 72.7941 62.941V65.4998H70.2353C69.7642 65.4998 69.3823 65.8817 69.3823 66.3528C69.3823 66.8238 69.7642 67.2057 70.2353 67.2057H72.7941V69.7645C72.7941 70.2356 73.176 70.6175 73.647 70.6175C74.1181 70.6175 74.5 70.2356 74.5 69.7645V67.2057H77.0588C77.5299 67.2057 77.9117 66.8238 77.9117 66.3528C77.9117 65.8817 77.5299 65.4998 77.0588 65.4998H74.5V62.941Z" fill="#AE72FF"/>
<defs>
<filter id="filter0_d_525_37015" x="7.76474" y="14.1176" width="65.5713" height="63.9999" filterUnits="userSpaceOnUse" color-interpolation-filters="sRGB">
<feFlood flood-opacity="0" result="BackgroundImageFix"/>
<feColorMatrix in="SourceAlpha" type="matrix" values="0 0 0 0 0 0 0 0 0 0 0 0 0 0 0 0 0 0 127 0" result="hardAlpha"/>
<feOffset dy="1.88235"/>
<feGaussianBlur stdDeviation="2.35294"/>
<feComposite in2="hardAlpha" operator="out"/>
<feColorMatrix type="matrix" values="0 0 0 0 0.823529 0 0 0 0 0.721569 0 0 0 0 1 0 0 0 0.5 0"/>
<feBlend mode="normal" in2="BackgroundImageFix" result="effect1_dropShadow_525_37015"/>
<feBlend mode="normal" in="SourceGraphic" in2="effect1_dropShadow_525_37015" result="shape"/>
</filter>
</defs>
</svg>
