<svg width="88" height="81" viewBox="0 0 88 81" fill="none" xmlns="http://www.w3.org/2000/svg">
<circle cx="40.5983" cy="40.4963" r="39.9963" fill="#FBF9FF"/>
<circle cx="73.2814" cy="67.7953" r="7.52872" fill="white"/>
<path fill-rule="evenodd" clip-rule="evenodd" d="M73.752 78.2257C80.0323 78.2257 85.1235 73.1344 85.1235 66.8542C85.1235 60.5739 80.0323 55.4827 73.752 55.4827C67.4717 55.4827 62.3805 60.5739 62.3805 66.8542C62.3805 73.1344 67.4717 78.2257 73.752 78.2257ZM74.6049 63.4427C74.6049 62.9717 74.223 62.5899 73.752 62.5899C73.281 62.5899 72.8991 62.9717 72.8991 63.4427V66.0013H70.3405C69.8695 66.0013 69.4877 66.3832 69.4877 66.8542C69.4877 67.3252 69.8695 67.707 70.3405 67.707H72.8991V70.2656C72.8991 70.7366 73.281 71.1185 73.752 71.1185C74.223 71.1185 74.6049 70.7366 74.6049 70.2656V67.707H77.1634C77.6345 67.707 78.0163 67.3252 78.0163 66.8542C78.0163 66.3832 77.6345 66.0013 77.1634 66.0013H74.6049V63.4427Z" fill="#AE72FF"/>
<rect x="19.8893" y="19.1018" width="21.9813" height="21.9813" rx="10.9907" fill="#FFC2A7" stroke="#FBF9FF" stroke-width="0.499575"/>
<path d="M35.8503 36.1944H26.0627V34.9709C26.0627 33.2817 27.4321 31.9123 29.1214 31.9123H32.7917C34.4809 31.9123 35.8503 33.2817 35.8503 34.9709V36.1944ZM30.9565 30.6888C28.9295 30.6888 27.2862 29.0456 27.2862 27.0185C27.2862 24.9914 28.9295 23.3481 30.9565 23.3481C32.9836 23.3481 34.6269 24.9914 34.6269 27.0185C34.6269 29.0456 32.9836 30.6888 30.9565 30.6888Z" fill="#FFEDE6"/>
<rect x="39.4341" y="19.1018" width="21.9813" height="21.9813" rx="10.9907" fill="#D1F4F4" stroke="#FBF9FF" stroke-width="0.499575"/>
<path d="M55.3948 36.1944H45.6072V34.9709C45.6072 33.2817 46.9766 31.9123 48.6658 31.9123H52.3362C54.0254 31.9123 55.3948 33.2817 55.3948 34.9709V36.1944ZM50.501 30.6888C48.4739 30.6888 46.8306 29.0456 46.8306 27.0185C46.8306 24.9914 48.4739 23.3481 50.501 23.3481C52.528 23.3481 54.1713 24.9914 54.1713 27.0185C54.1713 29.0456 52.528 30.6888 50.501 30.6888Z" fill="#E9FAFA"/>
<rect x="39.4342" y="39.7027" width="21.9813" height="21.9813" rx="10.9907" fill="#E2D2FF" stroke="#FBF9FF" stroke-width="0.499575"/>
<path d="M55.3949 56.7957H45.6073V55.5722C45.6073 53.883 46.9767 52.5136 48.6659 52.5136H52.3363C54.0255 52.5136 55.3949 53.883 55.3949 55.5722V56.7957ZM50.5011 51.2902C48.474 51.2902 46.8307 49.6469 46.8307 47.6198C46.8307 45.5927 48.474 43.9495 50.5011 43.9495C52.5282 43.9495 54.1714 45.5927 54.1714 47.6198C54.1714 49.6469 52.5282 51.2902 50.5011 51.2902Z" fill="#F1EAFF"/>
<rect x="19.8893" y="39.7027" width="21.9813" height="21.9813" rx="10.9907" fill="#DDF8DC" stroke="#FBF9FF" stroke-width="0.499575"/>
<path d="M35.8502 56.7957H26.0626V55.5722C26.0626 53.883 27.432 52.5136 29.1212 52.5136H32.7916C34.4808 52.5136 35.8502 53.883 35.8502 55.5722V56.7957ZM30.9564 51.2902C28.9293 51.2902 27.2861 49.6469 27.2861 47.6198C27.2861 45.5927 28.9293 43.9495 30.9564 43.9495C32.9835 43.9495 34.6268 45.5927 34.6268 47.6198C34.6268 49.6469 32.9835 51.2902 30.9564 51.2902Z" fill="#EFFBEE"/>
</svg>
