<svg width="100" height="84" viewBox="0 0 100 84" fill="none" xmlns="http://www.w3.org/2000/svg">
<g clip-path="url(#clip0_9273_202327)">
<path d="M54.7715 17.86C54.7715 17.86 58.9484 17.9876 59.1013 18.1151C59.2542 18.2427 59.7889 18.7525 59.8908 19.3139C59.9928 19.8746 60.0183 20.5636 60.6293 20.665C61.2404 20.7671 62.9213 20.4864 63.4567 20.665C63.9912 20.8436 64.3735 21.3789 64.45 21.7872C64.5264 22.1954 64.6284 22.9093 64.9336 23.0879C65.2395 23.2665 66.0545 24.5667 66.131 25.077C66.2074 25.5867 66.4622 25.6632 67.0734 25.8418C67.6845 26.0204 67.9393 26.2757 67.8628 26.5813C67.7864 26.8874 68.2961 27.2185 68.4739 27.4992C68.6524 27.7799 69.3143 28.0856 69.4674 28.2386C69.6203 28.3917 70.0529 28.8249 70.3588 29.1056C70.6646 29.3863 71.3776 29.2842 71.3521 29.7939C71.3267 30.3036 71.3267 30.5843 71.607 30.8139C71.8874 31.0436 72.1671 30.8906 72.1671 31.2982C72.1671 31.7058 72.3455 33.0831 72.0397 33.1086C71.7339 33.1342 71.5561 32.3438 71.3776 32.7259C71.1992 33.1086 71.607 33.9246 71.8613 34.1536C72.1162 34.3832 72.4724 35.2757 72.5998 35.5813C72.7272 35.8875 73.2874 36.3972 73.4403 36.5503C73.5932 36.7035 73.8984 37.2642 74.0004 37.6725C74.1024 38.0807 74.3062 38.9732 74.5094 39.2278C74.7134 39.483 75.5539 40.4775 75.9611 40.732C76.3689 40.9873 76.8779 40.63 77.1838 40.732C77.4897 40.8341 77.6929 41.1403 77.8713 41.1659C78.0498 41.1913 78.3295 40.2989 78.4825 40.4775C78.6354 40.6562 78.5843 41.3189 78.355 41.3955C78.1256 41.472 77.8458 41.5485 77.7695 41.7527C77.6929 41.9569 77.6929 42.288 77.9733 42.2624C78.2536 42.2369 78.7628 42.2637 78.7628 42.2637C78.7628 42.2637 78.8903 42.4921 78.8903 42.568C78.8903 42.6439 79.0177 43.5116 79.1451 43.6391C79.2726 43.7667 80.4954 44.9654 80.4954 44.9654C80.4954 44.9654 83.7553 48.7394 83.8827 48.765C84.0102 48.7905 89.9698 49.3768 89.9698 49.3768L94.8859 49.785C94.8859 49.785 95.7518 49.8361 96.0576 49.785C96.3635 49.734 96.7197 49.8361 97.0255 50.2189C97.3314 50.6015 98.732 52.6921 98.732 52.6921L97.815 56.2365L96.6432 61.0816C96.6432 61.0816 96.2864 63.2494 95.4969 63.5549C94.7074 63.8612 85.742 67.5331 85.0545 67.7877C84.3669 68.0428 79.6039 69.9298 79.1961 69.9044C78.7883 69.8788 74.5605 70.4395 73.3383 70.5927C72.1155 70.7458 68.4224 71.0513 67.9897 71.2045C67.5563 71.3576 65.0349 72.8619 64.3475 73.0149C63.6599 73.168 62.5646 74.4172 62.1313 74.8765C61.6979 75.3351 60.9085 76.4573 60.832 76.5338C60.7555 76.6104 59.9915 77.7325 59.915 77.9615C59.8386 78.1912 59.4569 79.0326 59.4569 79.0326L60.4503 70.7706L61.036 66.7414L62.4364 54.3998L63.3534 47.3622C63.3534 47.3622 63.8115 44.8888 63.6083 44.302C63.4043 43.7156 62.8698 42.466 62.0293 41.8542C61.1889 41.2424 60.0681 40.6045 59.8641 40.1203C59.6603 39.636 59.5583 37.927 59.5838 37.2897C59.6092 36.6524 59.5328 34.5357 59.5838 33.9239C59.6347 33.3121 59.5838 32.2921 58.9471 32.0369C58.3106 31.7818 57.7499 31.6032 57.597 31.4761C57.444 31.3486 57.1892 30.4817 56.4761 30.4306C55.7631 30.3796 55.3808 30.5326 55.0756 30.3285C54.7697 30.1244 53.7254 29.3594 53.3691 29.3085C53.0124 29.2575 52.1974 29.3085 51.8921 29.0022C51.5869 28.6961 51.1281 28.2118 50.3132 27.9057C49.4982 27.5994 49.0393 27.4215 48.9629 27.0643C48.8864 26.7069 48.4706 26.1294 48.3263 25.9508C48.1821 25.7722 47.936 25.1772 48.0038 24.9818C48.0714 24.7863 48.8355 23.6729 49.0226 23.4688C49.2091 23.2647 50.067 21.8283 50.1602 21.5394C50.2534 21.2506 51.2935 19.6948 51.4594 19.5167C51.6248 19.3381 52.0196 18.9305 52.364 18.7898C52.7077 18.6498 53.1025 18.5987 53.4338 18.4967C53.7652 18.3946 54.7715 17.86 54.7715 17.86Z" fill="#E2D2FF" stroke="white" stroke-width="0.647723" stroke-linecap="round" stroke-linejoin="round"/>
<path d="M48.3221 25.9478C48.4663 26.1265 48.8822 26.7041 48.9586 27.0613C49.0351 27.4185 49.4933 27.5965 50.3088 27.9027C51.1238 28.209 51.5826 28.6931 51.8878 28.9994C52.1937 29.3055 53.0086 29.2545 53.3649 29.3055C53.7216 29.3566 54.7655 30.1215 55.0713 30.3256C55.3771 30.5297 55.7588 30.3766 56.4719 30.4277C57.1849 30.4787 57.4398 31.3457 57.5927 31.4733C57.7456 31.6008 58.3057 31.7794 58.9429 32.034C59.5794 32.2891 59.6305 33.3093 59.5794 33.9211C59.5285 34.5328 59.6049 36.6494 59.5794 37.2868C59.554 37.9241 59.6559 39.6325 59.8598 40.1174C60.0637 40.6015 61.1845 41.2395 62.025 41.8513C62.8655 42.4631 63.4001 43.7128 63.604 44.299C63.8079 44.8853 63.3491 47.3592 63.3491 47.3592L62.4322 54.397L61.0316 66.7385C61.0316 66.7385 58.8329 67.2775 57.8526 67.3796C56.8722 67.4816 51.6249 67.9789 51.3321 67.9789C51.0393 67.9789 47.8173 68.0554 47.435 67.9789C47.0527 67.9023 46.5305 67.6982 46.2507 67.4436C45.9704 67.1885 45.6651 66.6278 45.0665 66.2325C44.4678 65.8373 42.583 64.32 42.4941 64.0269C42.4052 63.7337 42.4562 63.1854 42.5706 62.8923C42.685 62.5991 43.1816 62.0508 43.1307 61.6557C43.0797 61.2604 42.4686 60.559 42.2772 60.3294C42.0863 60.0997 41.8949 59.8197 41.704 59.5769C41.5131 59.3348 40.927 58.7355 40.7106 58.3402C40.4943 57.9451 39.9591 57.1802 39.9721 56.836C39.9845 56.4919 40.2524 56.3133 40.2779 56.1222C40.3034 55.9311 40.227 55.051 40.3923 54.8345C40.5577 54.6179 40.6727 54.2352 40.6342 53.993C40.5963 53.7509 40.4048 52.8584 40.4433 52.4377C40.4812 52.017 40.6727 51.7494 40.6086 51.5073C40.5452 51.2652 40.2649 51.061 39.8826 51.048C39.5002 51.0355 38.9022 51.1625 38.6728 51.0735C38.4435 50.9845 38.1762 50.8694 38.1762 50.5508C38.1762 50.232 38.38 49.8624 38.418 49.6073C38.4559 49.352 38.2141 49.1864 37.603 49.1099C36.9919 49.0334 35.5019 48.9057 35.3613 48.6382C35.2215 48.3706 34.8522 47.8347 34.7757 47.325C34.6993 46.8153 34.5594 45.9863 34.432 45.5145C34.3045 45.0428 34.0883 44.8642 33.9228 44.6475C33.7574 44.431 33.7574 43.8696 33.7444 43.6785C33.732 43.4875 33.7699 41.5239 33.8973 41.2687C34.0248 41.0136 34.3811 40.9246 34.3686 40.6183C34.3562 40.3121 34.3051 40.1211 34.534 39.93C34.7633 39.7389 34.9031 39.5603 35.0816 39.5603C35.26 39.5603 36.1259 40.0831 36.3808 40.0955C36.6357 40.108 37.2088 40.2101 37.4886 40.0955C37.769 39.981 37.705 39.9044 38.0233 39.9679C38.3415 40.0315 38.6984 40.1721 38.9526 40.1721C39.2069 40.1721 39.4748 40.0321 39.2708 39.6368C39.067 39.2417 38.978 38.8844 39.0545 38.7444C39.1311 38.6043 40.0479 37.6733 40.2519 37.6222C40.4557 37.5712 41.7543 37.3801 41.9713 37.214C42.1877 37.0484 42.8883 36.7422 42.9647 36.4615C43.0412 36.1808 43.4105 35.8622 43.7033 35.7856C43.996 35.7091 44.3398 35.8491 44.9005 35.8491C45.4613 35.8491 46.1867 35.9002 46.3906 35.8616C46.5945 35.8236 46.7984 35.6319 46.8617 35.3773C46.9252 35.1222 46.7854 34.587 46.722 34.3573C46.6585 34.1277 46.569 34.1408 46.6455 33.9366C46.722 33.7324 46.6834 33.5924 46.518 33.4138C46.3527 33.2352 46.009 32.5592 45.7665 32.3302C45.5247 32.1006 45.2188 31.9095 45.2828 31.5653C45.3463 31.2212 45.6651 30.9791 45.5501 30.6349C45.4357 30.2908 45.2443 30.0866 45.4357 30.0101C45.6266 29.9335 46.0344 30.1121 46.1873 29.8701C46.3402 29.628 46.4547 29.3092 46.684 29.1176C46.9134 28.9265 47.3971 29.0541 47.4735 28.8114C47.55 28.5692 47.3336 27.9189 47.1042 27.6513C46.8749 27.3837 46.6206 27.4857 46.531 27.2941C46.4422 27.103 46.3781 26.9499 46.4931 26.6436C46.6076 26.3375 46.684 26.2229 46.8624 26.0574C47.0408 25.8918 47.0787 25.8252 47.3336 25.9478C47.5885 26.0705 47.7284 26.1464 47.8428 26.0829C47.9571 26.0195 48.3221 25.9478 48.3221 25.9478Z" fill="#D2B8FF" stroke="white" stroke-width="0.647723" stroke-linecap="round" stroke-linejoin="round"/>
<path d="M46.532 27.2898C46.6208 27.4807 46.8757 27.3787 47.1052 27.647C47.3346 27.9145 47.5508 28.5649 47.4743 28.807C47.3979 29.0491 46.9143 28.9216 46.6849 29.1133C46.4555 29.3044 46.3411 29.623 46.1882 29.8656C46.0353 30.1078 45.6281 29.9292 45.4367 30.0058C45.2457 30.0823 45.4367 30.2865 45.551 30.6306C45.6654 30.9748 45.3471 31.2169 45.2838 31.561C45.2203 31.9052 45.5255 32.0963 45.7674 32.3259C46.0092 32.5555 46.3529 33.2309 46.5189 33.4095C46.6842 33.5881 46.7228 33.7281 46.6463 33.9323C46.5699 34.1363 46.6588 34.1233 46.7228 34.353C46.7862 34.5826 46.9267 35.1179 46.8627 35.373C46.7986 35.6282 46.5954 35.8193 46.3914 35.8572C46.1876 35.8952 45.4621 35.8448 44.9014 35.8448C44.3406 35.8448 43.9969 35.7048 43.7041 35.7813C43.4113 35.8579 43.042 36.1765 42.9656 36.4572C42.8891 36.7379 42.1885 37.0434 41.9722 37.2097C41.7559 37.3752 40.4567 37.5669 40.2527 37.6179C40.0489 37.6689 39.1319 38.5994 39.0554 38.74C38.979 38.8801 39.0678 39.2374 39.2718 39.6325C39.4756 40.0278 39.2084 40.1678 38.9535 40.1678C38.6986 40.1678 38.3424 40.0278 38.0241 39.9636C37.7059 39.9001 37.7692 39.9761 37.4895 40.0912C37.2091 40.2057 36.636 40.1036 36.3818 40.0912C36.1269 40.0788 35.2608 39.556 35.0825 39.556C34.9041 39.556 34.7642 39.7346 34.5348 39.9257C34.5348 39.9257 34.4204 40.0103 34.3912 40.1111C34.362 40.2113 34.3552 40.2661 34.3552 40.2661C34.3552 40.2661 34.2277 40.2387 34.114 40.1765C34.0002 40.1142 33.8877 40.0452 33.8517 39.9916C33.8156 39.9381 33.759 39.7937 33.7603 39.7109C33.7614 39.6282 33.7614 39.5037 33.7322 39.4365C33.7031 39.3693 33.6085 39.1801 33.575 39.1147C33.5414 39.0494 33.529 38.918 33.537 38.8645C33.5452 38.8116 33.5054 38.6491 33.4606 38.5913C33.4153 38.5334 33.3139 38.4425 33.1877 38.3841C33.0621 38.3255 32.8886 38.2409 32.8104 38.1724C32.732 38.1039 32.6481 38.0436 32.5878 37.9123C32.5275 37.781 32.5026 37.7213 32.4846 37.6584C32.4665 37.5955 32.4095 37.3322 32.4026 37.2196C32.3957 37.1076 32.4045 36.825 32.41 36.7504C32.4162 36.6756 32.4212 36.4771 32.4113 36.4143C32.4007 36.3514 32.3547 36.1715 32.2782 36.0813C32.2018 35.9917 32.1098 35.8784 31.8891 35.7987C31.6684 35.719 31.4074 35.6326 31.4074 35.6326L31.3047 35.602C31.3047 35.602 31.9724 35.2927 32.3417 35.1751C32.7109 35.0575 33.7298 34.9044 33.8255 34.7892C33.9212 34.6748 33.8784 34.376 33.7404 34.0785C33.6024 33.781 33.7807 33.5346 33.9082 33.4922C34.0356 33.4499 34.1631 33.6708 34.4515 33.73C34.7399 33.7897 34.9526 33.7044 35.029 33.5601C35.1055 33.4157 35.0713 32.9819 35.0458 32.6589C35.0203 32.3358 35.029 32.1828 35.2833 32.1062C35.5382 32.0297 35.7924 32.166 35.8863 31.9786C35.9796 31.7919 36.557 30.8309 36.9306 30.6019C37.3042 30.3723 39.2569 29.4972 39.5285 29.2676C39.8002 29.0379 39.7747 28.5961 40.0718 28.3154C40.369 28.0347 41.7018 27.1933 42.0163 27.0576C42.3303 26.9212 42.5086 26.7258 42.8146 26.7433C43.1204 26.7601 43.3069 26.7433 43.5531 27.0065C43.7992 27.2698 44.1219 27.6015 44.419 27.8648C44.7162 28.128 44.7504 28.1791 45.0729 28.1791C45.3956 28.1791 45.7438 28.2213 45.9134 28.0857C46.0832 27.9501 46.0832 27.8225 46.1764 27.6862C46.2697 27.5498 46.532 27.2898 46.532 27.2898Z" fill="#E2D2FF" stroke="white" stroke-width="0.647723" stroke-linecap="round" stroke-linejoin="round"/>
<path d="M31.3055 35.6018C31.3055 35.6018 31.9732 35.2926 32.3424 35.1748C32.7117 35.0572 33.7305 34.9042 33.8263 34.789C33.922 34.6745 33.8791 34.3758 33.7411 34.0783C33.6031 33.7808 33.7815 33.5343 33.909 33.492C34.0364 33.4497 34.1637 33.6707 34.4522 33.7298C34.7407 33.7895 34.9533 33.7043 35.0298 33.5598C35.1062 33.4155 35.072 32.9816 35.0465 32.6587C35.0211 32.3356 35.0298 32.1826 35.284 32.106C35.5389 32.0294 35.7932 32.1658 35.887 31.9784C35.9803 31.7917 36.5578 30.8308 36.9314 30.6017C37.305 30.372 39.2576 29.497 39.5292 29.2674C39.8008 29.0377 39.7754 28.5959 40.0726 28.3152C40.3697 28.0345 41.7025 27.193 42.0171 27.0573C42.331 26.921 42.5094 26.7256 42.8153 26.743C43.1211 26.7599 43.3076 26.743 43.5537 27.0063C43.7999 27.2696 44.1226 27.6013 44.4197 27.8645C44.7169 28.1278 44.7511 28.1788 45.0737 28.1788C45.3963 28.1788 45.7444 28.2212 45.9142 28.0855C46.0839 27.9498 46.0839 27.8223 46.1771 27.6859C46.2704 27.5496 46.5321 27.2889 46.5321 27.2889C46.5321 27.2889 46.4314 27.0592 46.4307 26.9826C46.4307 26.9067 46.4463 26.6926 46.5532 26.4897C46.6601 26.2868 46.7217 26.1903 46.8149 26.102C46.9082 26.0136 46.9971 25.924 47.04 25.9078C47.0828 25.8917 47.127 25.756 47.04 25.5929C46.9529 25.4305 46.4743 24.9152 46.2536 24.7963C46.0329 24.6774 45.617 24.49 45.3025 24.4732C44.9885 24.4564 44.4787 24.4391 44.3433 24.3202C44.2077 24.2013 43.7322 23.6828 43.5706 23.1389C43.4096 22.5949 43.2392 22.0678 43.1038 21.83C42.9682 21.5923 42.6282 21.1585 42.4671 21.1585C42.3062 21.1585 41.8897 21.2861 41.7119 21.4305C41.5334 21.5749 41.245 21.5923 41.1262 21.5239C41.0075 21.456 40.6849 21.2432 40.4046 21.2432C40.1241 21.2432 39.8103 21.3453 39.6486 21.2432C39.4876 21.1411 39.2663 20.937 39.2663 20.6906C39.2663 20.444 39.3172 20.121 39.1476 20.07C38.9778 20.019 38.7653 19.9767 38.5364 20.1124C38.3071 20.2486 37.9508 20.5797 37.7128 20.4267C37.4753 20.2735 37.2036 19.976 36.9065 19.6618C36.6093 19.3475 36.2612 19.05 35.9299 19.0157L35.5985 18.9815C35.5985 18.9815 35.1398 18.9728 34.8855 18.8707C34.6306 18.7686 34.6904 18.684 34.257 18.7264C33.8237 18.7686 33.6205 18.8875 33.3401 18.8875C33.0598 18.8875 32.6693 18.5987 32.3635 18.5558C32.0577 18.5134 31.7525 18.4282 31.3533 18.4961C30.9542 18.5638 30.2157 18.6915 29.8589 18.7593C29.5021 18.8272 29.3243 18.9379 28.9587 18.8613C28.5939 18.7848 28.4751 18.6404 28.2034 18.5384C27.9318 18.4363 27.3885 18.4531 27.0913 18.5981C26.7942 18.7425 25.5801 19.2273 25.2151 19.3798C24.8503 19.5329 24.7141 19.9151 24.2896 19.9748C23.865 20.0345 23.4324 19.9237 23.2197 20.0426C23.0077 20.1615 22.6341 20.459 22.2518 20.6376C21.8694 20.8162 21.3517 21.0459 21.2329 21.0882C21.1142 21.1305 21.1055 21.207 21.021 21.3091C20.9358 21.4112 20.8438 21.6048 20.8438 21.6048C20.8438 21.6048 21.1372 21.7765 21.3361 21.8407C21.535 21.9047 21.836 21.987 21.9777 22.0174C22.1194 22.0479 22.554 22.1331 22.6179 22.1475C22.682 22.1624 22.889 22.2072 22.9978 22.3143C23.1065 22.4213 23.2775 22.6492 23.3627 22.7393C23.4478 22.8296 23.6113 22.9734 23.6872 23.0225C23.7631 23.0723 23.9128 23.1495 23.9955 23.2285C24.0782 23.3076 24.2697 23.5497 24.3113 23.6262C24.3529 23.7022 24.4612 23.9237 24.4984 24.0389C24.5351 24.154 24.601 24.4048 24.6085 24.5063C24.616 24.6078 24.6029 24.8374 24.616 24.9432C24.6296 25.049 24.6856 25.3359 24.7328 25.4647C24.78 25.5935 24.89 25.8637 24.9814 25.9931C25.0728 26.122 25.1618 26.2407 25.2805 26.331C25.3992 26.4219 25.6205 26.5638 25.7281 26.6229C25.8356 26.6821 25.9842 26.7624 26.0296 26.8016C26.0743 26.8408 26.1589 26.9092 26.1303 26.9759C26.1017 27.0424 26.0513 27.1364 25.9034 27.2484C25.7561 27.3604 25.4633 27.5528 25.3905 27.5951C25.3178 27.6374 25.125 27.7376 25.0113 27.8783C24.8976 28.0196 24.7813 28.19 24.7322 28.2977C24.6831 28.4054 24.5799 28.6986 24.5625 28.7645C24.545 28.8298 24.486 29.07 24.4717 29.1323C24.4581 29.1952 24.4003 29.4709 24.3915 29.5163C24.3828 29.5618 24.371 29.6247 24.371 29.6247C24.371 29.6247 24.3815 29.7267 24.3624 29.8089C24.3431 29.891 24.2703 30.1206 24.2199 30.2214C24.1696 30.3223 24.077 30.4866 24.0105 30.5607C23.944 30.6348 23.8339 30.7524 23.8147 30.8084C23.7948 30.8644 23.8277 30.8912 23.8482 30.916C23.8687 30.9409 23.9278 30.9689 23.9613 30.9827C23.9949 30.9963 24.1112 31.0342 24.1342 31.0392C24.1578 31.0443 24.297 31.0642 24.4027 31.0685C24.5084 31.0735 24.5768 31.0779 24.6035 31.099C24.6296 31.1195 24.7408 31.213 24.757 31.2988C24.7739 31.3847 24.79 31.5383 24.6719 31.9249C24.5538 32.3114 24.4475 32.7048 24.4326 32.7918C24.4176 32.879 24.3908 33.2145 24.3958 33.3221C24.4008 33.4304 24.404 33.9663 24.404 34.0422C24.404 34.1188 24.409 34.476 24.4244 34.6197C24.44 34.7629 24.4686 35.0747 24.4811 35.203C24.4935 35.3305 24.5344 35.7082 24.5544 35.7991C24.5736 35.89 24.6358 36.083 24.6533 36.1222C24.6706 36.1607 24.7434 36.2982 24.8049 36.3325C24.8658 36.3667 24.9367 36.3973 25.0032 36.3966C25.0697 36.396 25.2151 36.3749 25.3277 36.3419C25.4403 36.3088 25.7479 36.2049 25.7479 36.2049C25.7479 36.2049 26.011 36.1209 26.0756 36.1091C26.1403 36.0972 26.2887 36.0718 26.4678 36.0966C26.6462 36.1209 26.9029 36.1625 26.9328 36.1676C26.962 36.172 27.3194 36.2149 27.3194 36.2149C27.3194 36.2149 27.4637 36.2254 27.5258 36.2068C27.5881 36.1881 27.6284 36.1782 27.6464 36.1446C27.6644 36.111 27.754 35.9342 27.782 35.89C27.8099 35.8458 27.9137 35.6996 27.9765 35.6405C28.0393 35.5807 28.1811 35.4624 28.2818 35.4096C28.3825 35.356 28.5989 35.2527 28.6989 35.2228C28.799 35.1929 28.9768 35.1562 29.0303 35.1519C29.0831 35.1481 29.2883 35.1438 29.4119 35.1612C29.5356 35.1786 29.9733 35.2646 29.9733 35.2646C29.9733 35.2646 30.3922 35.3666 30.4308 35.3771C30.4693 35.3878 30.8113 35.4774 30.8113 35.4774L31.1004 35.5458L31.3068 35.5981" fill="#E2D2FF"/>
<path d="M31.3055 35.6018C31.3055 35.6018 31.9732 35.2926 32.3424 35.1748C32.7117 35.0572 33.7305 34.9042 33.8263 34.789C33.922 34.6745 33.8791 34.3758 33.7411 34.0783C33.6031 33.7808 33.7815 33.5343 33.909 33.492C34.0364 33.4497 34.1637 33.6707 34.4522 33.7298C34.7407 33.7895 34.9533 33.7043 35.0298 33.5598C35.1062 33.4155 35.072 32.9816 35.0465 32.6587C35.0211 32.3356 35.0298 32.1826 35.284 32.106C35.5389 32.0294 35.7932 32.1658 35.887 31.9784C35.9803 31.7917 36.5578 30.8308 36.9314 30.6017C37.305 30.372 39.2576 29.497 39.5292 29.2674C39.8008 29.0377 39.7754 28.5959 40.0726 28.3152C40.3697 28.0345 41.7025 27.193 42.0171 27.0573C42.331 26.921 42.5094 26.7256 42.8153 26.743C43.1211 26.7599 43.3076 26.743 43.5537 27.0063C43.7999 27.2696 44.1226 27.6013 44.4197 27.8645C44.7169 28.1278 44.7511 28.1788 45.0737 28.1788C45.3963 28.1788 45.7444 28.2212 45.9142 28.0855C46.0839 27.9498 46.0839 27.8223 46.1771 27.6859C46.2704 27.5496 46.5321 27.2889 46.5321 27.2889C46.5321 27.2889 46.4314 27.0592 46.4307 26.9826C46.4307 26.9067 46.4463 26.6926 46.5532 26.4897C46.6601 26.2868 46.7217 26.1903 46.8149 26.102C46.9082 26.0136 46.9971 25.924 47.04 25.9078C47.0828 25.8917 47.127 25.756 47.04 25.5929C46.9529 25.4305 46.4743 24.9152 46.2536 24.7963C46.0329 24.6774 45.617 24.49 45.3025 24.4732C44.9885 24.4564 44.4787 24.4391 44.3433 24.3202C44.2077 24.2013 43.7322 23.6828 43.5706 23.1389C43.4096 22.5949 43.2392 22.0678 43.1037 21.83C42.9682 21.5923 42.6282 21.1585 42.4671 21.1585C42.3062 21.1585 41.8897 21.2861 41.7119 21.4305C41.5334 21.5749 41.245 21.5923 41.1262 21.5239C41.0075 21.456 40.6849 21.2432 40.4046 21.2432C40.1241 21.2432 39.8103 21.3453 39.6486 21.2432C39.4876 21.1411 39.2663 20.937 39.2663 20.6906C39.2663 20.444 39.3172 20.121 39.1476 20.07C38.9778 20.019 38.7653 19.9767 38.5364 20.1124C38.3071 20.2486 37.9508 20.5797 37.7128 20.4267C37.4753 20.2735 37.2036 19.976 36.9065 19.6618C36.6093 19.3475 36.2612 19.05 35.9299 19.0157L35.5985 18.9815C35.5985 18.9815 35.1398 18.9728 34.8855 18.8707C34.6306 18.7686 34.6904 18.684 34.257 18.7264C33.8237 18.7686 33.6205 18.8875 33.3401 18.8875C33.0598 18.8875 32.6693 18.5987 32.3635 18.5558C32.0577 18.5134 31.7525 18.4282 31.3533 18.4961C30.9542 18.5638 30.2157 18.6915 29.8589 18.7593C29.5021 18.8272 29.3243 18.9379 28.9587 18.8613C28.5939 18.7848 28.4751 18.6404 28.2034 18.5384C27.9318 18.4363 27.3885 18.4531 27.0913 18.5981C26.7942 18.7425 25.5801 19.2273 25.2151 19.3798C24.8503 19.5329 24.7141 19.9151 24.2896 19.9748C23.865 20.0345 23.4324 19.9237 23.2197 20.0426C23.0077 20.1615 22.6341 20.459 22.2518 20.6376C21.8694 20.8162 21.3517 21.0459 21.2329 21.0882C21.1142 21.1305 21.1055 21.207 21.021 21.3091C20.9358 21.4112 20.8438 21.6048 20.8438 21.6048C20.8438 21.6048 21.1372 21.7765 21.3361 21.8407C21.535 21.9047 21.836 21.987 21.9777 22.0174C22.1194 22.0479 22.554 22.1331 22.6179 22.1475C22.682 22.1624 22.889 22.2072 22.9978 22.3143C23.1065 22.4213 23.2775 22.6492 23.3627 22.7393C23.4478 22.8296 23.6113 22.9734 23.6872 23.0225C23.7631 23.0723 23.9128 23.1495 23.9955 23.2285C24.0782 23.3076 24.2697 23.5497 24.3113 23.6262C24.3529 23.7022 24.4612 23.9237 24.4984 24.0389C24.5351 24.154 24.601 24.4048 24.6085 24.5063C24.616 24.6078 24.6029 24.8374 24.616 24.9432C24.6296 25.049 24.6856 25.3359 24.7328 25.4647C24.78 25.5935 24.89 25.8637 24.9814 25.9931C25.0728 26.122 25.1618 26.2407 25.2805 26.331C25.3992 26.4219 25.6205 26.5638 25.7281 26.6229C25.8356 26.6821 25.9842 26.7624 26.0296 26.8016C26.0743 26.8408 26.1589 26.9092 26.1303 26.9759C26.1017 27.0424 26.0513 27.1364 25.9034 27.2484C25.7561 27.3604 25.4633 27.5528 25.3905 27.5951C25.3178 27.6374 25.125 27.7376 25.0113 27.8783C24.8976 28.0196 24.7813 28.19 24.7322 28.2977C24.6831 28.4054 24.5799 28.6986 24.5625 28.7645C24.545 28.8298 24.486 29.07 24.4717 29.1323C24.4581 29.1952 24.4003 29.4709 24.3915 29.5163C24.3828 29.5618 24.371 29.6247 24.371 29.6247C24.371 29.6247 24.3815 29.7267 24.3624 29.8089C24.3431 29.891 24.2703 30.1206 24.2199 30.2214C24.1696 30.3223 24.077 30.4866 24.0105 30.5607C23.944 30.6348 23.8339 30.7524 23.8147 30.8084C23.7948 30.8644 23.8277 30.8912 23.8482 30.916C23.8687 30.9409 23.9278 30.9689 23.9613 30.9827C23.9949 30.9963 24.1112 31.0342 24.1342 31.0392C24.1578 31.0443 24.297 31.0642 24.4027 31.0685C24.5084 31.0735 24.5768 31.0779 24.6035 31.099C24.6296 31.1195 24.7408 31.213 24.757 31.2988C24.7739 31.3847 24.79 31.5383 24.6719 31.9249C24.5537 32.3114 24.4475 32.7048 24.4326 32.7918C24.4176 32.879 24.3908 33.2145 24.3958 33.3221C24.4008 33.4304 24.404 33.9663 24.404 34.0422C24.404 34.1188 24.409 34.476 24.4244 34.6197C24.44 34.7629 24.4686 35.0747 24.4811 35.203C24.4935 35.3305 24.5344 35.7082 24.5544 35.7991C24.5736 35.89 24.6358 36.083 24.6533 36.1222C24.6706 36.1607 24.7434 36.2982 24.8049 36.3325C24.8658 36.3667 24.9367 36.3973 25.0032 36.3966C25.0697 36.396 25.2151 36.3749 25.3277 36.3419C25.4403 36.3088 25.7479 36.2049 25.7479 36.2049C25.7479 36.2049 26.011 36.1209 26.0756 36.1091C26.1403 36.0972 26.2887 36.0718 26.4678 36.0966C26.6462 36.1209 26.9029 36.1625 26.9328 36.1676C26.962 36.172 27.3194 36.2149 27.3194 36.2149C27.3194 36.2149 27.4637 36.2254 27.5258 36.2068C27.5881 36.1881 27.6284 36.1782 27.6464 36.1446C27.6644 36.111 27.754 35.9342 27.782 35.89C27.8099 35.8458 27.9137 35.6996 27.9765 35.6405C28.0393 35.5807 28.1811 35.4624 28.2818 35.4096C28.3825 35.356 28.5989 35.2527 28.6989 35.2228C28.799 35.1929 28.9768 35.1562 29.0303 35.1519C29.0831 35.1481 29.2883 35.1438 29.4119 35.1612C29.5356 35.1786 29.9733 35.2646 29.9733 35.2646C29.9733 35.2646 30.3922 35.3666 30.4308 35.3771C30.4693 35.3878 30.8113 35.4774 30.8113 35.4774L31.1004 35.5458L31.3068 35.5981" stroke="white" stroke-width="0.647723" stroke-linecap="round" stroke-linejoin="round"/>
<path d="M40.7068 58.3329C40.4905 57.9378 39.9553 57.1729 39.9683 56.8288C39.9807 56.4846 40.2486 56.3059 40.2741 56.1149C40.2996 55.9238 40.2232 55.0438 40.3885 54.8272C40.5539 54.6106 40.6689 54.2278 40.6304 53.9857C40.5925 53.7436 40.4009 52.8511 40.4394 52.4304C40.4773 52.0097 40.6689 51.7421 40.6048 51.5C40.5414 51.2579 40.2611 51.0538 39.8787 51.0413C39.4964 51.0289 38.8984 51.1558 38.669 51.0668C38.4397 50.9778 38.1723 50.8627 38.1723 50.544C38.1723 50.2254 38.3762 49.8557 38.4142 49.6006C38.4521 49.3453 38.2103 49.1797 37.5992 49.1032C36.988 49.0267 35.498 48.8992 35.3575 48.6315C35.2177 48.3639 34.8484 47.828 34.7719 47.3183C34.6955 46.8086 34.5556 45.9796 34.4282 45.5078C34.3007 45.0361 34.0844 44.8575 33.919 44.6408C33.7536 44.4243 33.7536 43.8629 33.7406 43.6718C33.7406 43.6718 32.8641 43.5753 32.6776 43.6718C32.4911 43.7683 32.4147 43.904 32.5843 44.2356C32.7541 44.5674 32.805 44.9415 32.5756 45.1027C32.3463 45.2638 31.8962 45.417 31.3703 45.5956C30.8443 45.7742 30.3178 46.0798 30.2749 46.2926C30.2327 46.5048 30.9544 46.8198 30.9289 47.1509C30.9034 47.4826 30.1226 47.7291 29.8677 47.8647C29.6129 48.0011 28.4416 49.0205 28.0936 49.4033C27.7455 49.7859 27.3719 50.33 27.0747 50.3636C26.7776 50.3977 26.3871 50.1936 26.2 50.1681C26.0135 50.1426 25.8519 50.3548 25.4615 50.5254C25.0712 50.6952 24.6123 50.8483 24.4427 50.7295C24.2729 50.6107 24.3749 50.3212 24.4427 50.1687C24.5104 50.0157 24.3575 49.659 24.0522 49.5059C23.7464 49.3528 23.4748 49.1997 23.5766 48.8768C23.6786 48.5537 24.1709 48.3495 24.0348 47.8398C23.8987 47.3301 23.5257 47.1427 23.0837 47.3469C22.6423 47.5511 22.3787 47.7377 21.9375 47.7807C21.4961 47.823 21.5296 47.67 21.4196 47.4154C21.309 47.1602 21.3344 47.0582 20.9105 47.1266C20.4865 47.195 20.4349 47.1776 20.2229 46.9903C20.0109 46.8036 19.8406 46.4208 19.5521 46.0811C19.2637 45.7412 19.2208 45.5458 18.8814 45.5371C18.542 45.5283 17.9986 45.5968 17.9222 45.7157C17.8457 45.8346 17.9644 46.574 18.1261 46.7189C18.2871 46.8633 18.44 47.3394 18.44 47.5604C18.44 47.7814 18.5333 47.9686 18.652 48.1722C18.7707 48.3763 18.3635 48.3253 18.7707 48.8524C19.1785 49.3796 19.4503 49.3621 19.4503 49.6515C19.4503 49.941 19.7219 50 19.5863 50.3063C19.4503 50.6125 19.3314 50.7003 19.4844 50.9834C19.6373 51.2666 19.6708 51.4452 19.5441 51.6493C19.4166 51.8535 19.1872 51.828 19.145 52.1934C19.1027 52.5586 19.1027 52.9071 19.0598 53.0857C19.0176 53.2644 19.0511 53.5277 18.8304 53.5364C18.6098 53.5451 18.6353 53.6471 18.7794 53.8681C18.9236 54.0891 19.4503 54.5906 19.4334 54.8795C19.4166 55.1682 19.3059 55.4066 19.493 55.7377C19.6796 56.0694 19.705 56.1541 19.5186 56.3414C19.3321 56.5281 19.2979 56.6812 19.3912 56.8256C19.4844 56.97 19.6119 57.0808 19.5776 57.2762C19.5434 57.4716 19.5608 57.7267 19.7306 57.8799C19.9003 58.033 19.8661 58.6958 20.1297 58.7469C20.3926 58.7979 20.5455 58.9509 20.6133 59.1377C20.6811 59.3244 20.6898 59.503 20.8507 59.5883C21.0123 59.6736 21.0459 59.7072 21.1137 59.9791C21.1815 60.2511 21.3344 60.5486 21.5128 60.8206C21.6912 61.0926 22.26 61.7809 22.5485 61.9683C22.8369 62.1549 23.389 62.2402 23.5506 62.2315C23.7115 62.2227 23.9751 62.2994 24.1194 62.5034C24.2636 62.7076 24.7223 62.9286 24.7223 62.9286C24.7223 62.9286 25.3932 63.4047 25.648 63.6343C25.9029 63.864 25.9706 64.4161 26.302 64.688C26.6333 64.96 26.8621 64.8834 26.9641 64.9344C27.0659 64.9855 27.1505 65.2407 27.1425 65.3595C27.1337 65.4784 27.0747 65.7759 27.3632 66.0653C27.6515 66.354 27.9151 66.1332 27.8978 66.4139C27.881 66.6944 27.5073 66.8644 27.779 67.1706C28.0507 67.4768 28.2546 67.7401 28.2714 67.8589C28.2882 67.9778 28.6363 68.2672 28.7383 68.4029C28.8401 68.5392 28.9844 68.93 28.8656 69.0657C28.7469 69.2021 28.7296 69.4311 28.8489 69.5754C28.9676 69.7198 28.9763 70.2128 28.9763 70.4256C28.9763 70.6385 29.0863 70.9017 29.3027 71.0629C29.519 71.2241 29.7701 71.3946 29.8186 71.5303C29.8671 71.666 30.0798 72.3244 30.1816 72.5392C30.2836 72.7539 30.5721 73.2897 30.5721 73.2897L30.725 73.4297C30.725 73.4297 30.8064 73.2412 31.0607 73.0346C31.3149 72.828 31.5226 72.6331 31.6556 72.5933C31.7886 72.5534 31.7501 72.4215 31.7712 72.3033C31.7923 72.185 31.8377 71.9448 31.8501 71.8371C31.8626 71.7294 31.8819 71.5254 31.8403 71.4233C31.7986 71.3212 31.6861 71.0784 31.6643 70.992C31.6426 70.9048 31.6047 70.6602 31.5586 70.5588C31.512 70.4567 31.3821 70.229 31.3243 70.1829C31.2671 70.1368 31.2603 70.1107 30.9923 70.1169C30.725 70.1232 30.4409 70.1411 30.2892 70.1001C30.1376 70.059 29.9834 69.9632 29.9305 69.8643C29.8777 69.7646 29.8721 69.5213 29.8827 69.3912C29.8933 69.2611 29.9373 68.8591 29.9386 68.7701C29.9399 68.681 29.9429 68.5996 29.905 68.5013C29.8665 68.4029 29.8075 68.2454 29.818 68.2131C29.8286 68.1807 29.8889 68.106 29.9635 68.1172C30.0375 68.1284 30.1673 68.1819 30.2327 68.1944C30.2979 68.2069 30.4304 68.2267 30.6342 68.0998C30.8382 67.9729 31.0371 67.8402 31.0371 67.8402C31.0371 67.8402 31.2168 67.7159 31.2783 67.7245C31.3398 67.7332 31.645 67.8751 31.7109 67.8919C31.7769 67.9087 32 67.9498 32.0678 67.8559C32.1355 67.7618 32.3183 67.4264 32.3997 67.254C32.4812 67.0817 32.4955 66.926 32.4823 66.8843C32.4687 66.8426 32.3133 66.6347 32.253 66.5514C32.1927 66.468 32.1087 66.2999 32.0944 66.2401C32.0803 66.1798 32.1206 66.0796 32.1654 66.0049C32.2101 65.9303 32.3606 65.7043 32.3972 65.6134C32.4339 65.5225 32.4992 65.4049 32.4158 65.2649C32.3326 65.1249 32.2375 64.993 32.1455 64.945C32.0528 64.8978 31.9347 64.8722 31.8377 64.8485C31.7401 64.8249 31.6768 64.7714 31.6021 64.8137C31.5276 64.856 31.5269 64.9388 31.2727 64.9332C31.0184 64.9276 30.7579 64.9045 30.6697 64.9146C30.5808 64.9245 30.3514 64.9525 30.2457 65.0975C30.14 65.2425 30.0512 65.4187 30.0101 65.5861C29.9691 65.7528 29.9323 65.9165 29.9182 66.036C29.9039 66.1556 29.9119 66.2756 29.8628 66.4182C29.8136 66.5607 29.7378 66.7455 29.6732 66.8271C29.6085 66.9079 29.5501 66.9957 29.4562 67.0082C29.3623 67.0199 29.2325 67.0293 29.1466 66.9546C29.0608 66.8799 28.9999 66.7618 28.957 66.7107C28.9148 66.6597 28.7544 66.5022 28.6742 66.4331C28.5934 66.364 28.4753 66.267 28.4193 66.2084C28.3634 66.15 28.1936 65.9383 28.1303 65.8413C28.0669 65.7442 27.9456 65.5475 27.9183 65.4815C27.8915 65.4155 27.8791 65.1735 27.8804 65.0969C27.8822 65.0203 27.9127 64.6357 27.9257 64.5678C27.9387 64.5001 27.9748 64.3812 27.9928 64.2759C28.0115 64.1708 28.0296 63.9474 28.0071 63.867C27.9848 63.7875 27.953 63.7102 27.8847 63.6972C27.8163 63.6847 27.6696 63.686 27.5166 63.6891C27.3637 63.6921 27.2612 63.6524 27.2344 63.6281C27.2077 63.6038 27.1443 63.5516 27.1904 63.4289C27.2363 63.3063 27.3115 63.1047 27.3669 63.048C27.4228 62.9914 27.6069 62.8446 27.7119 62.7867C27.817 62.7281 28.0128 62.6305 28.0942 62.5993C28.1756 62.5682 28.3963 62.5041 28.5418 62.4002C28.6872 62.2962 28.9925 62.0534 29.1466 61.8929C29.3008 61.733 29.4015 61.6359 29.4283 61.453C29.4543 61.2699 29.4339 61.1996 29.4301 61.1275C29.4264 61.0552 29.4065 60.673 29.4151 60.5797C29.4239 60.4864 29.4426 60.2667 29.5296 60.1497C29.6159 60.0332 29.7341 59.91 29.808 59.8876C29.882 59.8652 29.9685 59.8447 30.0493 59.8957C30.1301 59.9468 30.2544 60.0407 30.3315 60.1801C30.4086 60.3195 30.4794 60.4907 30.5025 60.5797C30.5255 60.6687 30.5677 60.8766 30.6037 60.9245C30.6392 60.9724 30.679 61.0272 30.8194 60.9712C30.96 60.9151 31.0968 60.8031 31.1334 60.7777C31.1701 60.7521 31.2447 60.6725 31.4051 60.6961C31.5655 60.7197 31.9497 60.7777 32.0149 60.7826C32.0801 60.7876 32.248 60.8007 32.3662 60.7223C32.4843 60.6439 32.6932 60.4677 32.7466 60.4391C32.8 60.4104 32.9057 60.3594 32.981 60.3806C33.0562 60.4017 33.1127 60.4203 33.165 60.4677C33.2172 60.515 33.3092 60.6271 33.3092 60.6271L33.367 60.7197C33.367 60.7197 33.3943 60.7303 33.4161 60.757C33.4372 60.7839 33.5218 60.9196 33.5218 60.9196C33.5218 60.9196 33.607 61.0932 33.6137 61.1107C33.6206 61.128 33.6505 61.2294 33.6604 61.2637C33.6704 61.2979 33.7655 61.545 33.7798 61.5773C33.7941 61.6098 33.8954 61.8201 33.9066 61.8412C33.9178 61.863 34.0154 62.0317 34.0378 62.0616C34.0601 62.0921 34.1149 62.1792 34.2043 62.2078C34.2946 62.2365 34.333 62.2658 34.3865 62.2776C34.4393 62.2893 34.5389 62.3112 34.5922 62.2931C34.6451 62.2757 34.7644 62.1829 34.8068 62.1462C34.849 62.1089 35.0753 61.9066 35.0951 61.8886C35.115 61.8705 35.3892 61.6222 35.4178 61.5961C35.4464 61.5699 35.8492 61.2059 35.8747 61.1835C35.9003 61.1611 36.2235 60.8797 36.2458 60.8617C36.2683 60.8436 36.4299 60.7178 36.5418 60.6644C36.6536 60.6103 36.998 60.4746 37.0633 60.4391C37.1292 60.4035 37.2704 60.3158 37.3449 60.2318C37.4196 60.1478 37.5576 59.9692 37.5775 59.9574C37.5973 59.9455 37.6583 59.9125 37.8093 59.9039C37.9604 59.8951 38.2127 59.8882 38.268 59.8858C38.3234 59.8833 38.4757 59.8752 38.5708 59.8416C38.666 59.808 38.8487 59.7258 38.8978 59.7066C38.9463 59.6872 39.055 59.6468 39.1066 59.6562C39.1583 59.6655 39.295 59.7109 39.3448 59.7333C39.3944 59.7557 39.5673 59.8348 39.6046 59.8497C39.6419 59.8647 39.783 59.9125 39.8085 59.9162C39.834 59.92 39.9111 59.9287 39.9646 59.9063C40.018 59.8839 40.1585 59.8087 40.3282 59.673C40.4979 59.5366 40.593 59.4595 40.6447 59.4377C40.6962 59.4158 40.9511 59.3281 41.0021 59.312C41.0536 59.2958 41.2303 59.2435 41.2303 59.2435H41.4092C41.4092 59.2435 41.1301 58.9218 41.1028 58.8887C41.0754 58.8564 40.884 58.6149 40.8454 58.5595C40.8069 58.5041 40.7055 58.3374 40.7055 58.3374L40.7068 58.3329Z" fill="#E2D2FF" stroke="white" stroke-width="0.647723" stroke-linecap="round" stroke-linejoin="round"/>
<path d="M33.7437 43.6722C33.7437 43.6722 32.8672 43.5757 32.6806 43.6722C32.4941 43.7687 32.4177 43.9044 32.5874 44.2361C32.7572 44.5677 32.8081 44.9419 32.5787 45.103C32.3494 45.2642 31.8992 45.4173 31.3733 45.5959C30.8474 45.7745 30.3209 46.0801 30.278 46.293C30.2358 46.5052 30.9575 46.8201 30.9319 47.1512C30.9065 47.483 30.1256 47.7294 29.8708 47.8651C29.616 48.0014 28.4447 49.0208 28.0967 49.4036C27.7485 49.7864 27.3749 50.3303 27.0777 50.3639C26.7806 50.3982 26.3902 50.194 26.2031 50.1684C26.0166 50.143 25.8549 50.3552 25.4646 50.5257C25.0742 50.6957 24.6154 50.8487 24.4458 50.7298C24.276 50.611 24.378 50.3216 24.4458 50.1691C24.5134 50.016 24.3605 49.6594 24.0553 49.5062C23.7495 49.3532 23.4778 49.2001 23.5797 48.8771C23.6817 48.554 24.174 48.35 24.0379 47.8402C23.9018 47.3305 23.5288 47.1432 23.0868 47.3473C22.6454 47.5514 22.3818 47.7382 21.9405 47.7811C21.4991 47.8234 21.5326 47.6703 21.4226 47.4157C21.312 47.1605 21.3375 47.0585 20.9135 47.1269C20.4896 47.1954 20.438 47.178 20.226 46.9907C20.014 46.804 19.8437 46.4212 19.5552 46.0814C19.2668 45.7415 19.2239 45.5461 18.8845 45.5375C18.5451 45.5287 18.0017 45.5972 17.9253 45.7161C17.9253 45.7161 17.1016 44.4919 17.0338 44.2965C16.9661 44.101 16.6689 43.5229 16.3718 43.2172C16.0746 42.9111 15.4716 41.9676 15.1745 41.8319C14.8773 41.6955 14.4951 41.8064 14.3253 41.6875C14.1556 41.5686 13.994 41.1436 13.7906 41.1348C13.5868 41.1261 13.4935 41.2711 13.2387 41.2026C12.9838 41.1348 12.4237 40.055 12.313 39.8341C12.2024 39.6131 12.0501 39.5198 12.1688 39.3243C12.2875 39.1289 12.5002 38.9502 12.7798 38.9926C13.0603 39.0349 13.2809 39.1712 13.4339 39.0605C13.5868 38.9497 13.629 38.6697 13.9262 38.6441C14.2233 38.6186 14.2575 38.6186 14.5969 38.6441C14.9363 38.6697 15.2254 38.5508 15.2335 38.2277C15.2423 37.9047 15.2248 37.2929 15.3099 36.7745C15.3952 36.2561 15.4206 35.8141 15.4797 35.6269C15.5394 35.4401 15.6239 35.0916 15.4032 35.0063C15.1825 34.921 14.9363 34.921 14.8599 34.6833C14.7834 34.4456 14.8089 33.6974 14.4353 33.4001C14.0617 33.1026 13.7049 33.0173 13.6801 32.7963C13.6546 32.5753 13.4594 32.2181 13.2685 31.9505C13.0776 31.6828 12.7209 31.5298 12.4404 31.5042C12.1601 31.4788 12.129 31.1346 12.1259 30.9691C12.1222 30.8035 11.8424 30.6628 11.9692 30.3827C12.0967 30.1021 12.3261 29.7324 12.3516 29.6048C12.377 29.4773 12.3105 28.8144 11.9363 28.7889C11.5621 28.7634 11.2693 28.6103 11.2438 28.3302C11.2183 28.0495 11.3457 27.6543 11.3582 27.2335C11.3706 26.8128 11.3837 26.4556 11.1418 26.2645C10.9 26.0735 10.3393 26.1625 10.3138 25.9714C10.2883 25.7803 10.3517 25.6397 10.6066 25.5886C10.8615 25.5377 11.1288 25.6397 11.4856 25.5121C11.8424 25.3845 11.9692 25.1168 12.2241 25.0659C12.479 25.0149 12.7718 25.1168 12.9247 25.2956C13.0776 25.4742 13.4724 25.8184 13.8285 25.6907C14.1854 25.5631 14.3632 25.2189 14.7201 25.1935C15.0769 25.1679 15.2423 25.2824 15.2423 25.5252C15.2423 25.7678 15.3822 26.5832 15.599 26.7363C15.8154 26.8894 16.1846 26.8253 16.4905 26.9018C16.7963 26.9784 16.9238 27.195 16.9741 27.4246C17.0251 27.6543 17.2415 27.7432 17.3179 27.8584C17.3944 27.973 17.1649 28.3681 17.3944 28.4957C17.6238 28.6234 17.929 28.3681 18.1074 28.1895C18.2858 28.0109 18.5276 27.8834 18.693 28.126C18.8583 28.3681 19.0753 28.9164 19.1387 28.4702C19.2022 28.0239 19.0112 27.7053 19.1897 27.7309C19.3681 27.7563 19.8008 27.8584 19.8648 28.1516C19.9282 28.4448 20.3484 28.8274 20.5013 28.8274C20.6542 28.8274 20.8837 29.2613 21.0105 29.2992C21.138 29.3371 21.8304 29.2867 22.0256 29.2867C22.2209 29.2867 22.8574 29.1977 22.9718 29.1977C23.0862 29.1977 23.5319 29.1467 23.7103 29.2233C23.8887 29.2998 24.3345 29.4399 24.3724 29.6316C24.4103 29.8226 24.2325 30.2688 24.0665 30.4986C23.9011 30.7282 23.6332 30.8558 23.9776 30.9958C24.322 31.1358 24.5508 31.0213 24.6397 31.1358C24.7285 31.2504 24.869 31.289 24.6906 31.8752C24.5123 32.4615 24.3724 32.8443 24.3979 33.3284C24.4233 33.8126 24.3854 34.3099 24.4233 34.6037C24.4612 34.8968 24.5123 35.7258 24.5887 35.9423C24.6652 36.159 24.7285 36.5032 25.2253 36.3762C25.7219 36.2486 25.8363 36.1465 26.1932 36.0955C26.5499 36.0444 27.5427 36.3762 27.6577 36.1334C27.7722 35.8914 27.9251 35.5982 28.3453 35.3811C28.7655 35.1638 29.0459 35.1258 29.3897 35.1644C29.7334 35.2024 30.2935 35.343 30.5615 35.4196C30.8288 35.4961 31.2366 35.5727 31.4529 35.6493C31.6692 35.7258 32.0385 35.8148 32.2045 35.9934C32.3698 36.1721 32.4594 36.3376 32.4084 36.7969C32.3574 37.2555 32.4718 37.8294 32.7012 38.0721C32.9305 38.3142 33.1724 38.3528 33.3377 38.4674C33.5031 38.5818 33.5417 38.735 33.5417 38.939C33.5417 39.1432 33.6896 39.2963 33.7431 39.4618C33.7966 39.6274 33.7201 39.704 33.8089 39.9211C33.8979 40.1378 34.3573 40.2753 34.3579 40.2679C34.3584 40.2604 34.3697 40.5324 34.3684 40.6064C34.3672 40.6805 34.3703 40.8012 34.228 40.9275C34.0855 41.0533 33.9265 41.1815 33.8979 41.273C33.8692 41.3644 33.8158 41.7541 33.8109 41.8144C33.8059 41.8748 33.7773 42.3179 33.7735 42.4044C33.7698 42.4904 33.7537 42.9178 33.7537 42.9178L33.7442 43.3417L33.7424 43.6759L33.7437 43.6722Z" fill="#E2D2FF" stroke="white" stroke-width="0.647723" stroke-linecap="round" stroke-linejoin="round"/>
<path d="M12.166 39.3223C12.2847 39.1269 12.4974 38.9483 12.7772 38.9906C13.0575 39.033 13.2782 39.1692 13.4311 39.0584C13.584 38.9477 13.6262 38.6676 13.9234 38.6421C14.2205 38.6166 14.2547 38.6166 14.5941 38.6421C14.9336 38.6676 15.2226 38.5487 15.2308 38.2257C15.2395 37.9027 15.2221 37.2909 15.3072 36.7725C15.3924 36.2541 15.4179 35.8121 15.4769 35.6249C15.5366 35.4381 15.6211 35.0896 15.4004 35.0043C15.1797 34.9191 14.9336 34.9191 14.8572 34.6813C14.7807 34.4436 14.8061 33.6955 14.4325 33.398C14.0589 33.1006 13.7022 33.0153 13.6773 32.7943C13.6518 32.5734 13.4566 32.2161 13.2658 31.9485C13.0748 31.6809 12.7181 31.5278 12.4377 31.5022C12.1573 31.4768 12.1262 31.1326 12.1231 30.9671C12.1194 30.8015 11.8397 30.6608 11.9665 30.3807C12.0939 30.1 12.3233 29.7304 12.3488 29.6028C12.3743 29.4753 12.3078 28.8124 11.9336 28.7868C11.5593 28.7614 11.2665 28.6082 11.241 28.3282C11.2155 28.0475 11.343 27.6524 11.3554 27.2315C11.3678 26.8108 11.3809 26.4536 11.1391 26.2625C10.8973 26.0715 10.3365 26.1605 10.311 25.9694C10.2856 25.7783 10.349 25.6376 10.6038 25.5867C10.8587 25.5357 11.126 25.6376 11.4828 25.5101C11.8397 25.3825 11.9665 25.1149 12.2214 25.0639C12.4762 25.0129 12.769 25.1149 12.9219 25.2935C13.0748 25.4721 13.4696 25.8163 13.8259 25.6887C14.1826 25.5611 14.3604 25.2169 14.7173 25.1915C15.0741 25.166 15.2395 25.2804 15.2395 25.5232C15.2395 25.7659 15.3794 26.5812 15.5962 26.7343C15.8126 26.8874 16.1818 26.8233 16.4878 26.8999C16.7936 26.9764 16.921 27.193 16.9714 27.4226C17.0223 27.6524 17.2387 27.7413 17.3152 27.8564C17.3916 27.971 17.1622 28.3661 17.3916 28.4938C17.621 28.6213 17.9262 28.3661 18.1046 28.1875C18.283 28.0089 18.5248 27.8814 18.6902 28.124C18.8555 28.3661 19.0725 28.9145 19.1359 28.4682C19.1994 28.022 19.0084 27.7033 19.1869 27.7289C19.3653 27.7543 19.798 27.8564 19.8621 28.1496C19.9254 28.4427 20.3457 28.8254 20.4986 28.8254C20.6515 28.8254 20.8809 29.2592 21.0077 29.2972C21.1352 29.3352 21.8276 29.2848 22.0229 29.2848C22.2181 29.2848 22.8546 29.1957 22.969 29.1957C23.0834 29.1957 23.5291 29.1448 23.7075 29.2213C23.8859 29.2978 24.3317 29.4378 24.3696 29.6295C24.3696 29.6295 24.4839 28.9923 24.6114 28.597C24.7388 28.2019 24.9807 27.8321 25.2734 27.6666C25.5662 27.501 26.1904 27.1183 26.1269 26.9273C26.0636 26.7362 25.6048 26.6341 25.2101 26.2769C24.8153 25.9196 24.5734 25.1292 24.6114 24.7216C24.6494 24.3132 24.3565 23.4209 23.8474 23.1277C23.3382 22.8345 23.2873 22.6049 23.0579 22.3753C22.8286 22.1456 22.7141 22.1842 21.9625 22.0179C21.211 21.8524 20.8803 21.6607 20.7529 21.5338C20.6254 21.4063 20.2182 21.2661 19.9379 21.3552C19.6575 21.4442 19.2628 21.6993 19.1483 21.5718C19.034 21.4442 18.97 21.2021 18.7405 21.0365C18.5112 20.871 18.2315 20.7434 18.1165 20.7945C18.0021 20.8454 17.989 21.1261 17.6327 21.0752C17.276 21.0241 16.2322 20.9096 15.9643 20.6289C15.6969 20.3482 15.3402 19.6474 15.3911 19.0991C15.4422 18.5507 15.5565 18.2956 15.5565 18.0025C15.5565 17.7093 15.3911 17.4542 15.2128 17.5307C15.0343 17.6072 14.6781 17.9894 14.4997 18.0025C14.3212 18.0149 14.1429 18.3086 14.016 18.5507C13.8886 18.7929 13.9526 19.035 13.5069 19.035C13.0612 19.035 12.6279 18.9204 12.1822 18.7543C11.7365 18.5888 11.3032 18.5757 10.9594 18.5757C10.6156 18.5757 9.94054 18.7799 9.4569 18.6136C8.97326 18.4481 8.76935 18.1798 8.64192 17.8867C8.51448 17.5936 8.09425 17.0708 7.82694 16.8666C7.55963 16.6625 7.62304 16.5735 6.70611 16.4839C5.78918 16.3948 5.16505 16.4715 4.87225 16.4839C4.57946 16.4963 4.5664 16.5984 4.17166 16.7259C3.77691 16.8536 3.64947 16.777 3.1273 16.5729C2.60511 16.3687 2.17244 16.5604 2.12147 16.5854C2.0705 16.6109 1.95611 17.5158 1.95611 17.8095C1.95611 18.1033 1.79075 18.6 1.58686 18.9827C1.38295 19.3654 1.21759 19.6965 1.01369 20.0662C0.809793 20.4359 0.682355 20.7291 0.79736 20.7546C0.911743 20.7801 1.10321 20.2959 1.24308 20.3339C1.38295 20.3718 1.52345 20.678 1.80318 20.7166C2.08354 20.7546 2.29988 20.6401 2.61816 20.6911C2.93645 20.7422 3.36974 20.8566 3.38217 21.0739C3.3946 21.2904 3.49655 21.5836 3.8024 21.8263C4.10825 22.0685 4.13374 21.8898 4.13374 22.349C4.13374 22.8084 4.13374 23.4202 4.79579 24.1596C5.45784 24.8989 6.22184 26.2763 6.27282 26.3528C6.3238 26.4293 6.47673 26.9135 6.75646 27.2707C7.03683 27.628 6.85841 27.9977 7.13877 28.3674C7.41915 28.7371 7.59694 28.6481 7.81389 29.0813C8.03022 29.5151 8.13217 30.0373 8.1962 30.1393C8.25961 30.2413 8.69289 30.3559 8.79484 30.522C8.8968 30.6876 8.8968 31.2745 8.88374 31.351C8.87131 31.4276 8.88374 31.4276 9.17654 31.7593C9.46933 32.0911 9.73663 32.2822 9.58433 32.5242C9.43141 32.7663 9.39349 33.047 9.63531 33.2511C9.87713 33.4552 10.0431 33.2387 10.2085 33.6463C10.3738 34.0546 10.8326 34.6279 10.8836 34.8319C10.9346 35.0361 11.1509 35.3037 11.2783 35.6223C11.4058 35.9411 11.7751 36.4769 11.8515 36.5783C11.928 36.6804 12.1064 36.7183 12.0933 37.037C12.0809 37.3556 11.7365 37.8529 11.6097 38.0184C11.4822 38.184 11.4058 38.3372 11.5208 38.5668C11.6352 38.7965 11.8645 39.153 11.9155 39.2172C11.9665 39.2806 12.166 39.3236 12.166 39.3236V39.3223Z" fill="#D2B8FF" stroke="white" stroke-width="0.647723" stroke-linecap="round" stroke-linejoin="round"/>
<path d="M20.7446 21.5322C20.6172 21.4045 20.2101 21.2645 19.9297 21.3536C19.6493 21.4426 19.2546 21.6977 19.1402 21.5701C19.0258 21.4426 18.9618 21.2004 18.7324 21.0348C18.503 20.8693 18.2232 20.7418 18.1082 20.7927C17.9939 20.8438 17.9808 21.1245 17.6246 21.0734C17.2677 21.0225 16.224 20.9079 15.9561 20.6272C15.6888 20.3465 15.3319 19.6458 15.383 19.0975C15.4339 18.5491 15.5483 18.294 15.5483 18.0008C15.5483 17.7077 15.383 17.4526 15.2045 17.5291C15.0261 17.6056 14.67 17.9877 14.4915 18.0008C14.3131 18.0133 14.1347 18.307 14.0079 18.5491C13.8804 18.7912 13.9445 19.0333 13.4988 19.0333C13.053 19.0333 12.6197 18.9188 12.174 18.7527C11.7283 18.5872 11.295 18.574 10.9512 18.574C10.6075 18.574 9.93235 18.7781 9.44871 18.612C8.96507 18.4465 8.76116 18.1782 8.63373 17.8851C8.50629 17.592 8.08606 17.0691 7.81875 16.865C7.55144 16.6609 7.61485 16.5719 6.69792 16.4823C5.78099 16.3932 5.15686 16.4698 4.86406 16.4823C4.57127 16.4947 4.55821 16.5967 4.16347 16.7243C3.76872 16.852 3.64128 16.7754 3.1191 16.5713C2.59692 16.3671 2.16425 16.5588 2.11328 16.5836C2.11328 16.5836 2.58386 15.5892 2.64727 15.2829C2.71068 14.9768 2.59629 14.8622 2.6597 14.569C2.72311 14.276 2.7486 14.0849 3.11848 14.1864C3.48773 14.2885 4.35369 14.6201 4.79941 14.6961C5.24513 14.7726 6.60778 15.1933 7.10448 15.2443C7.60118 15.2954 7.61361 15.3975 7.90702 15.2568C8.19982 15.1168 10.0337 14.0071 10.199 13.6505C10.3644 13.2933 10.6448 12.5794 10.8741 12.2987C11.1035 12.018 11.2944 12.0311 11.7022 12.0311C12.11 12.0311 13.8419 11.9034 14.1726 11.8145C14.5039 11.7255 14.7837 11.4317 14.9241 11.1131C15.064 10.7944 14.9366 10.3861 15.5229 10.0165C16.1084 9.64677 16.4652 9.63371 16.5541 9.40468C16.643 9.17502 16.6686 8.80534 16.4397 8.49913C16.2103 8.19292 15.0391 7.21145 14.7843 6.75214C14.5294 6.29283 13.4347 4.82716 13.2943 4.60995C13.1544 4.39337 13.0139 3.95958 13.0779 3.8575C13.1412 3.75543 15.0902 3.3982 15.8032 3.24572C16.5162 3.09261 17.0004 3.01606 17.1534 2.96503C17.3064 2.914 17.5357 3.0671 17.4083 3.24572C17.2809 3.42433 16.7587 4.36785 16.7332 4.58443C16.7076 4.80101 16.5038 5.55345 16.7841 5.74453C17.0645 5.93559 17.5357 6.34387 17.6122 6.52249C17.6887 6.7011 17.7141 7.38945 18.1089 7.36393C18.5036 7.33841 21.3433 7.30044 21.802 7.30044C22.2609 7.30044 23.1014 7.32597 23.432 7.38945C23.7633 7.45293 24.5398 7.75913 24.9601 7.78464C25.3803 7.81017 25.5332 7.7081 25.6986 7.83568C25.8639 7.96327 26.2841 8.48605 26.7684 8.61364C27.2521 8.74123 28.9591 8.61364 29.4682 8.66468C29.9774 8.71571 30.3087 8.88126 30.6015 9.05988C30.8943 9.2385 30.7544 9.49367 31.2001 9.68475C31.6459 9.87581 32.0405 9.79925 32.3079 9.83785C32.5752 9.87581 32.9066 9.76129 33.0719 10.0544C33.2373 10.3476 33.1862 10.7683 33.3523 11.1C33.5176 11.4317 34.0653 11.5083 34.3326 11.6738C34.6 11.8394 34.6895 12.107 34.5489 12.2793C34.409 12.4518 32.6772 13.6629 32.0786 13.9436C31.4798 14.2243 30.1048 14.7851 29.7865 15.1168C29.4682 15.4485 29.0859 15.3975 29.0225 15.8051C28.9591 16.2133 29.1245 17.0549 28.9715 17.3604C28.8186 17.6667 28.6147 18.0743 28.3983 18.1764C28.182 18.2785 27.6853 18.4694 27.6853 18.4694C27.6853 18.4694 27.5268 18.4745 27.3957 18.5049C27.2639 18.5348 26.9654 18.6338 26.7759 18.7384C26.5862 18.8435 26.0155 19.0532 26.0155 19.0532L25.504 19.2617C25.504 19.2617 25.1951 19.3787 25.118 19.4304C25.0402 19.4814 24.8481 19.6488 24.7884 19.703C24.7282 19.7572 24.574 19.8959 24.4577 19.9308C24.3415 19.9657 24.2463 19.9974 23.869 19.9911C23.4923 19.9849 23.3568 19.9545 23.1933 20.0596C23.0298 20.1648 22.7495 20.3547 22.665 20.4075C22.581 20.4598 22.364 20.5874 22.2279 20.6503C22.0918 20.7131 21.7268 20.8786 21.6734 20.9023C21.62 20.926 21.3787 21.0324 21.2998 21.0635C21.2215 21.094 21.1581 21.1177 21.1201 21.1737C21.0822 21.2297 21.0014 21.3368 20.9809 21.3678C20.9604 21.3996 20.8833 21.534 20.8833 21.534L20.8386 21.5975L20.7453 21.529L20.7446 21.5322Z" fill="#E2D2FF" stroke="white" stroke-width="0.647723" stroke-linecap="round" stroke-linejoin="round"/>
<path d="M17.4033 3.24784C17.2759 3.42646 16.7538 4.36997 16.7282 4.58655C16.7027 4.80313 16.4989 5.55559 16.7792 5.74665C17.0596 5.93772 17.5307 6.34599 17.6073 6.52461C17.6836 6.70323 17.7092 7.39157 18.1039 7.36606C18.4986 7.34054 21.3384 7.30257 21.7971 7.30257C22.2559 7.30257 23.0963 7.32809 23.4271 7.39157C23.7584 7.45505 24.5348 7.76125 24.955 7.78678C25.3753 7.81229 25.5283 7.71022 25.6936 7.83781C25.859 7.9654 26.2792 8.48818 26.7634 8.61577C27.2471 8.74335 28.9541 8.61577 29.4633 8.66681C29.9724 8.71784 30.3038 8.88339 30.5966 9.062C30.8893 9.24063 30.7495 9.49579 31.1952 9.68687C31.6409 9.87794 32.0356 9.80138 32.3029 9.83997C32.5703 9.87794 32.9016 9.76341 33.067 10.0566C33.2324 10.3497 33.1813 10.7704 33.3474 11.1021C33.5127 11.4338 34.0604 11.5104 34.3277 11.6759C34.5949 11.8415 34.6845 12.1091 34.544 12.2815C34.4041 12.4539 32.6723 13.6651 32.0735 13.9457C31.4749 14.2264 30.0998 14.7872 29.7816 15.1189C29.4633 15.4506 29.081 15.3996 29.0176 15.8072C28.9541 16.2155 29.1195 17.0569 28.9666 17.3625C28.8136 17.6687 28.6098 18.0764 28.3934 18.1785C28.3934 18.1785 28.0776 18.316 28.0354 18.3328C27.9931 18.3496 27.7519 18.4455 27.7519 18.4455L27.6835 18.4722C27.6835 18.4722 27.8886 18.4735 27.9856 18.4896C28.0826 18.5058 28.2461 18.5556 28.279 18.5706C28.3126 18.5861 28.511 18.6919 28.5452 18.71C28.5793 18.728 28.7633 18.8114 28.8274 18.8295C28.892 18.8475 29.0977 18.8979 29.2146 18.8892C29.3314 18.8804 29.5746 18.827 29.6766 18.8027C29.7784 18.7785 30.2696 18.6863 30.2696 18.6863C30.2696 18.6863 30.7812 18.5967 30.7979 18.5936C30.8147 18.5904 31.2903 18.509 31.3146 18.5045C31.3382 18.5002 31.6533 18.461 31.8119 18.4784C31.9704 18.4952 32.3819 18.5575 32.4285 18.5693C32.4752 18.5818 32.725 18.6764 32.7711 18.6975C32.8164 18.718 33.1105 18.8494 33.1888 18.8662C33.2671 18.883 33.412 18.8991 33.5556 18.8674C33.6992 18.8351 33.9857 18.7679 34.0156 18.7623C34.0454 18.7567 34.3357 18.7199 34.3786 18.718C34.4216 18.7162 34.5564 18.7124 34.6129 18.7361C34.6696 18.7591 34.8145 18.8431 34.8678 18.8643C34.9219 18.8849 35.0742 18.931 35.1786 18.9452C35.2832 18.9595 35.5827 18.9807 35.6312 18.9857C35.6804 18.9907 35.8948 19.0112 35.9371 19.0174C35.9793 19.0236 36.1068 19.0516 36.1764 19.0859C36.2461 19.1195 36.4369 19.2321 36.5252 19.3056C36.6128 19.3784 36.785 19.5377 36.785 19.5377L36.9939 19.7543C36.9939 19.7543 37.2326 20.0051 37.2755 20.048C37.3184 20.091 37.549 20.3076 37.6075 20.3511C37.6659 20.3947 37.771 20.4706 37.8399 20.4669C37.909 20.4626 38.0041 20.4607 38.1564 20.3642C38.3086 20.2677 38.4977 20.1333 38.5518 20.1059C38.6059 20.0785 38.7084 20.0356 38.7699 20.0294C38.8316 20.0232 38.9496 20.0176 39.0497 20.0443C39.1498 20.071 39.2063 20.0773 39.2362 20.147C39.2654 20.2167 39.2773 20.2628 39.2728 20.3063C39.2685 20.3493 39.2704 20.5902 39.2698 20.6201C39.2691 20.6505 39.2673 20.7694 39.2916 20.8297C39.3157 20.8902 39.3555 20.9779 39.4164 21.0432C39.4774 21.108 39.6122 21.2317 39.6657 21.253C39.7198 21.2741 39.7633 21.2959 39.8727 21.289C39.9828 21.2823 40.2209 21.253 40.2899 21.2487C40.3583 21.2449 40.4614 21.2412 40.5242 21.2548C40.587 21.2685 40.7145 21.3065 40.7816 21.3376C40.8488 21.3687 40.9693 21.431 41.0191 21.4602C41.0688 21.4895 41.136 21.5423 41.2043 21.5516C41.2727 21.561 41.3753 21.5628 41.4622 21.546C41.5493 21.5292 41.6532 21.477 41.6954 21.4447C41.7377 21.4123 41.8645 21.332 41.9466 21.2991C42.0286 21.2655 42.2475 21.1901 42.3313 21.1764C42.4153 21.1627 42.4818 21.1434 42.5403 21.1795C42.5986 21.2156 42.7118 21.3103 42.7647 21.3693C42.8175 21.4291 42.9741 21.6276 42.9921 21.6537C43.0102 21.6799 43.0928 21.8062 43.1103 21.8386C43.1277 21.8704 43.211 22.0527 43.226 22.0901C43.2402 22.1268 43.4056 22.5955 43.4292 22.6707C43.4528 22.7467 43.5604 23.1033 43.579 23.1605C43.5977 23.2178 43.6785 23.4163 43.709 23.4736C43.7393 23.5308 43.9228 23.8352 44.0074 23.9423C44.0919 24.0492 44.2628 24.2428 44.2877 24.2671C44.3126 24.2913 44.3667 24.3536 44.4543 24.3779C44.5419 24.4022 44.7266 24.4339 44.7832 24.4395C44.8397 24.4451 45.0927 24.4638 45.1282 24.4656C45.1636 24.4675 45.3214 24.4725 45.3849 24.4824C45.4483 24.4923 45.6963 24.5559 45.7435 24.5727C45.7909 24.5895 46.0569 24.699 46.0781 24.709C46.0991 24.7189 46.3179 24.8346 46.359 24.8677C46.4 24.9007 46.5442 25.027 46.5592 25.042C46.5747 25.0563 46.7339 25.2174 46.7575 25.243C46.7811 25.2685 46.9235 25.4303 46.9496 25.4645C46.9763 25.4987 47.0571 25.617 47.0702 25.6599C47.0826 25.7029 47.0945 25.7932 47.0889 25.8212C47.0826 25.8492 47.1155 25.8778 47.1734 25.8927C47.2306 25.9083 47.4438 26.0047 47.4768 26.0203C47.5103 26.0358 47.6446 26.0907 47.6613 26.095C47.6782 26.0993 47.7689 26.1168 47.8056 26.1019C47.8422 26.0869 47.9964 26.0284 48.0425 26.0166C48.0891 26.0041 48.3216 25.9518 48.3216 25.9518C48.3216 25.9518 48.1822 25.7116 48.1593 25.6594C48.1363 25.6071 48.0232 25.2971 48.0026 25.182C47.9821 25.0668 47.9914 24.9921 48.0455 24.8982C48.0996 24.8036 48.4477 24.264 48.4477 24.264C48.4477 24.264 48.7773 23.7916 48.8021 23.758C48.8269 23.7244 49.0078 23.496 49.0439 23.4486C49.0806 23.4014 49.351 22.9938 49.3814 22.9445C49.4119 22.8954 49.7582 22.3153 49.7582 22.3153C49.7582 22.3153 50.0659 21.7782 50.1212 21.6395C50.1766 21.5007 50.2698 21.3183 50.2971 21.2711C50.3245 21.2237 50.4924 20.9456 50.5054 20.9243C50.5184 20.9038 50.8093 20.4495 50.8093 20.4495L51.1792 19.8999C51.1792 19.8999 51.3838 19.59 51.5435 19.4313C51.7033 19.272 51.9645 19.0255 52.1061 18.9377C52.2478 18.85 52.3847 18.7753 52.5445 18.7292C52.7041 18.6826 53.1338 18.5805 53.1866 18.5674C53.2395 18.5544 53.4663 18.494 53.5627 18.4536C53.659 18.4131 54.0842 18.2139 54.1346 18.1891C54.1849 18.1641 54.5076 18.0004 54.5076 18.0004L54.7699 17.8636C54.7699 17.8636 53.3307 17.8038 53.1293 17.787C52.9279 17.7701 51.2041 17.5635 50.7969 17.5635C50.3898 17.5635 49.9807 17.6656 49.4691 17.5635C48.9569 17.4615 48.556 17.296 48.0717 17.2704C47.5881 17.2449 47.1099 17.2704 46.9191 17.2001C46.7283 17.1297 45.7666 16.129 45.3595 15.8994C44.9516 15.6697 43.3278 14.2613 43.2452 14.1592C43.1625 14.0571 40.4627 11.399 40.1121 11.099C39.7621 10.7997 39.1634 10.3279 39.1634 10.3279C39.1634 10.3279 36.6545 8.0712 36.3679 7.78428C36.0813 7.49738 35.0686 6.758 34.6807 6.6049C34.2923 6.4518 32.7835 5.61035 32.4391 5.35518C32.0954 5.1 28.7142 2.68398 28.3002 2.50535C27.8862 2.32673 25.6259 1.72739 25.2759 1.65084C24.9259 1.57429 23.4227 1.3129 23.4227 1.3129L22.7731 1.16602C22.7731 1.16602 21.786 1.79087 21.1941 1.95642C20.6017 2.12197 19.5195 2.42817 19.2135 2.49166C18.9077 2.55514 18.1438 2.70824 17.9976 2.73376C17.8516 2.75927 17.6409 2.77857 17.5712 2.81653C17.501 2.8545 17.4438 2.87068 17.4406 2.88376C17.4375 2.89621 17.3529 2.98582 17.3685 3.01196C17.3847 3.0381 17.4245 3.06486 17.4326 3.09349C17.4406 3.12212 17.4021 3.24971 17.4021 3.24971L17.4033 3.24784Z" fill="#E2D2FF" stroke="white" stroke-width="0.647723" stroke-linecap="round" stroke-linejoin="round"/>
<path d="M45.0652 66.2324C45.0652 66.2324 45.1926 67.4224 45.0652 67.5923C44.9377 67.7622 44.5474 67.8474 44.4963 68.1873C44.4454 68.5271 44.615 69.0884 44.5641 69.4625C44.5132 69.8366 44.3602 70.4147 43.9866 70.4826C43.613 70.5504 43.0528 70.6189 42.8323 70.8398C42.6116 71.0608 42.4418 71.7578 42.0004 72.0808C41.5591 72.4039 40.8628 72.7611 40.7609 73.1855C40.6589 73.6105 40.6421 73.8147 40.7609 74.2566C40.8796 74.6985 40.6291 74.9026 40.6782 75.2257C40.7273 75.5486 40.7441 75.8717 40.7609 76.2625C40.7777 76.6533 40.7348 77.0953 40.6713 77.1462C40.608 77.1973 41.4571 77.7923 41.9153 77.7923C42.3734 77.7923 43.4266 77.758 43.766 77.5882C44.1054 77.4183 44.3434 77.2651 44.6661 77.3672C44.9887 77.4693 44.8868 77.5035 45.4811 77.5035C46.0754 77.5035 46.5845 77.3846 47.009 77.3846C47.4337 77.3846 48.6899 77.6056 49.0293 77.7929C49.3688 77.9796 50.0141 78.167 50.4219 78.2181C50.8297 78.269 54.5776 78.3835 54.7691 78.307C54.9599 78.2304 55.0874 78.0904 55.5206 78.1925C55.9539 78.2946 56.3232 78.5497 56.5395 78.9195C56.7559 79.2891 56.9977 79.7609 57.4185 79.8499C57.8388 79.9389 58.2975 79.9643 58.5139 79.7733C58.7302 79.5822 59.465 78.9598 59.465 78.9598L59.7671 76.4461L60.3652 71.4709L60.8892 67.7479L61.0303 66.7403C61.0303 66.7403 60.2582 66.9232 60.0107 66.9773C59.7634 67.0322 58.4964 67.2954 58.1912 67.3359C57.886 67.3769 56.4482 67.5182 56.302 67.5326C56.156 67.5462 54.7728 67.6776 54.7728 67.6776L52.85 67.8549C52.85 67.8549 51.4153 67.9794 51.3302 67.9801C51.2449 67.9807 49.9762 68.0018 49.9762 68.0018L48.6557 68.0143C48.6557 68.0143 47.742 68.0081 47.6195 67.9988C47.497 67.9894 47.221 67.9645 46.9146 67.8256C46.6081 67.6869 46.4303 67.5954 46.2227 67.4206C46.015 67.2457 45.9337 67.0714 45.775 66.8909C45.616 66.7104 45.4369 66.52 45.3269 66.4316C45.2168 66.3426 45.0646 66.2343 45.0646 66.2343L45.0652 66.2324Z" fill="#E2D2FF" stroke="white" stroke-width="0.647723" stroke-linecap="round" stroke-linejoin="round"/>
<path d="M45.0645 66.2325C45.0645 66.2325 45.1919 67.4225 45.0645 67.5924C44.937 67.7623 44.5467 67.8476 44.4956 68.1874C44.4447 68.5273 44.6144 69.0885 44.5634 69.4626C44.5124 69.8367 44.3595 70.4148 43.9859 70.4827C43.6123 70.5505 43.0522 70.619 42.8315 70.8399C42.6109 71.0609 42.4411 71.7579 41.9997 72.0809C41.5583 72.404 40.8622 72.7612 40.7602 73.1856C40.6582 73.6107 40.6415 73.8148 40.7602 74.2568C40.8789 74.6986 40.6284 74.9027 40.6775 75.2258C40.7266 75.5487 40.7434 75.8718 40.7602 76.2626C40.7769 76.6534 40.734 77.0954 40.6706 77.1464C40.6706 77.1464 40.5022 76.8981 40.2094 76.8725C39.9166 76.847 39.3497 76.8595 39.2223 76.9236C39.0948 76.9871 39.0692 77.0636 39.0692 77.0636C39.0692 77.0636 38.8716 76.3559 38.687 76.2415C38.5024 76.1269 38.3495 76.318 38.1201 76.0056C37.8906 75.6932 38.0056 75.489 37.7253 75.3428C37.4449 75.1959 37.2733 75.1896 37.2733 74.9538C37.2733 74.7179 37.3113 74.3738 37.1522 74.3738C36.993 74.3738 36.4261 74.731 36.3241 74.871C36.2222 75.011 36.2352 75.413 36.1265 75.6614C36.0182 75.9097 36.0245 76.0884 35.7572 76.0056C35.4898 75.9229 35.0441 75.5021 34.9869 75.2407C34.9297 74.9793 34.8147 74.6731 34.5667 74.6731C34.3187 74.6731 33.8282 74.8007 33.6815 74.7241C33.5348 74.6476 33.342 74.2568 33.2737 74.1547C33.2059 74.0526 33.0617 73.9462 32.8237 73.9636C32.5861 73.9804 32.4245 74.1037 32.4034 73.9891C32.3823 73.8746 32.3947 73.2752 32.4034 73.0879C32.412 72.9012 32.3654 72.6629 32.1274 72.5738C31.8899 72.4848 31.7581 72.6162 31.7538 72.4631C31.7494 72.3099 31.9279 71.664 31.8513 71.4473C31.7749 71.2308 31.6561 71.0646 31.6306 70.8101C31.6052 70.5549 31.3633 70.1298 31.2148 70.113C31.0662 70.0962 30.2742 70.179 30.0896 70.0258C29.9049 69.8728 29.8795 69.8155 29.8795 69.5224C29.8795 69.2292 29.9752 68.7513 29.9305 68.5726C29.8858 68.394 29.7396 68.1967 29.8795 68.1326C30.0194 68.0691 30.1089 68.1775 30.2997 68.2029C30.4905 68.2285 30.8026 67.9864 30.9618 67.8905C31.1209 67.7947 31.1974 67.6353 31.4523 67.776C31.7072 67.9166 31.9613 67.9739 32.0702 67.8526C32.1783 67.7312 32.5731 67.0304 32.4711 66.8387C32.3692 66.6476 32.0447 66.3794 32.1019 66.1504C32.1591 65.9207 32.5413 65.5573 32.4395 65.3089C32.3375 65.0606 32.1404 64.8882 31.9558 64.8689C31.7711 64.8496 31.663 64.7607 31.7202 64.6523C31.7774 64.544 32.1722 63.913 32.2231 63.6964C32.2741 63.4798 32.1659 63.3267 32.2679 63.1543C32.3698 62.9819 32.9112 62.6888 33.0381 62.5612C33.1655 62.4336 33.2675 62.2108 33.191 61.968C33.1146 61.7259 32.943 61.4198 33.0953 61.1522C33.2482 60.8845 33.3563 60.7507 33.3881 60.7315C33.4198 60.7121 33.6237 61.0632 33.6554 61.2287C33.687 61.3943 33.9867 62.0701 34.139 62.166C34.2919 62.2618 34.5338 62.3383 34.6549 62.2681C34.7762 62.1977 35.9922 61.0507 36.3104 60.808C36.6287 60.5659 36.9153 60.5341 37.1509 60.3873C37.3865 60.2404 37.4823 60.0431 37.5711 59.9603C37.6601 59.8776 38.0679 59.8968 38.3606 59.8775C38.6534 59.8582 38.8442 59.6989 39.0419 59.6541C39.2396 59.6093 39.6916 59.9603 39.921 59.9155C40.1503 59.8707 40.4941 59.501 40.6532 59.4313C40.8124 59.361 41.2326 59.2402 41.2326 59.2402H41.4117C41.4117 59.2402 41.7225 59.6006 41.7884 59.6877C41.8542 59.7748 42.2154 60.2554 42.2384 60.2834C42.2615 60.3114 42.5966 60.7177 42.6555 60.7961C42.7146 60.8746 42.8999 61.1384 42.939 61.2044C42.9782 61.2704 43.1019 61.4982 43.1168 61.5897C43.1324 61.6811 43.143 61.8435 43.0677 62.0054C42.9925 62.1672 42.8303 62.4448 42.7787 62.527C42.7265 62.6091 42.6015 62.7827 42.5611 62.9147C42.5206 63.0466 42.461 63.3485 42.4554 63.4537C42.4492 63.5589 42.4331 63.745 42.4629 63.8863C42.4927 64.0275 42.5045 64.0879 42.6251 64.2136C42.7451 64.3399 42.9702 64.5546 42.9702 64.5546C42.9702 64.5546 43.258 64.8117 43.2959 64.8441C43.3332 64.8764 43.6844 65.1726 43.7416 65.2193C43.7988 65.2667 44.1519 65.5504 44.2016 65.5903C44.2519 65.6295 44.6281 65.9195 44.6281 65.9195L44.8984 66.1187L45.0619 66.2338L45.0645 66.2325Z" fill="#E2D2FF" stroke="white" stroke-width="0.647723" stroke-linecap="round" stroke-linejoin="round"/>
<path d="M31.7092 64.6503C31.7664 64.542 32.1611 63.9108 32.2121 63.6943C32.263 63.4778 32.1549 63.3246 32.2569 63.1523C32.3587 62.9798 32.9002 62.6867 33.0271 62.5591C33.1545 62.4315 33.2564 62.2087 33.18 61.966C33.1035 61.7239 32.932 61.4177 33.0842 61.15C33.2372 60.8824 33.3454 60.7486 33.377 60.7294C33.377 60.7294 33.1837 60.3354 32.904 60.374C32.6236 60.4119 32.4644 60.8077 32.0828 60.7822C31.7005 60.7568 31.3566 60.6547 31.2615 60.6933C31.1658 60.7312 30.8034 61.0505 30.6692 60.9864C30.5355 60.9229 30.5609 60.5912 30.3826 60.2594C30.2042 59.9277 29.9748 59.7814 29.784 59.896C29.593 60.0106 29.4147 60.2022 29.4147 60.6739C29.4147 61.1457 29.5036 61.4899 29.3381 61.6878C29.1728 61.8857 28.5935 62.4403 28.2814 62.5293C27.9693 62.6182 27.39 62.9183 27.3073 63.1411C27.2245 63.3645 27.04 63.6128 27.3644 63.67C27.689 63.7273 27.9569 63.5741 28.0079 63.8487C28.0588 64.1225 27.9762 64.3328 27.9377 64.5114C27.8997 64.6901 27.8233 65.366 27.9631 65.5764C28.103 65.7867 28.2559 66.0606 28.4791 66.2585C28.7022 66.4564 28.9502 66.6412 29.0206 66.8067C29.0908 66.9723 29.3519 67.0806 29.5297 66.9723C29.708 66.864 29.8865 66.4558 29.899 66.2267C29.9114 65.9971 30.0071 65.417 30.1855 65.1687C30.364 64.9204 30.6057 64.8948 30.8669 64.9135C31.1279 64.9328 31.4337 64.9453 31.5227 64.888C31.6115 64.8308 31.7092 64.6503 31.7092 64.6503Z" fill="#E2D2FF" stroke="white" stroke-width="0.647723" stroke-linecap="round" stroke-linejoin="round"/>
<path d="M39.0662 77.0699C39.0662 77.0699 38.8685 76.3623 38.6838 76.2477C38.4992 76.1332 38.3463 76.3243 38.1169 76.0118C37.8876 75.6994 38.0026 75.4952 37.7222 75.349C37.4417 75.2022 37.2702 75.196 37.2702 74.9601C37.2702 74.7242 37.3081 74.38 37.149 74.38C36.9899 74.38 36.4229 74.7372 36.3209 74.8772C36.2191 75.0174 36.2321 75.4194 36.1233 75.6677C36.0151 75.916 36.0213 76.0947 35.7541 76.0118C35.4867 75.9291 35.041 75.5083 34.9838 75.2469C34.9266 74.9855 34.8116 74.6794 34.5636 74.6794C34.3156 74.6794 33.825 74.8069 33.6784 74.7304C33.5316 74.6538 33.339 74.263 33.2706 74.1609C33.2028 74.0588 33.0586 73.9524 32.8205 73.9698C32.583 73.9866 32.4214 74.1099 32.4002 73.9954C32.3791 73.8809 32.3915 73.2815 32.4002 73.0942C32.409 72.9074 32.3623 72.6691 32.1242 72.5801C31.8862 72.4911 31.7574 72.5614 31.6176 72.6032C31.6176 72.6032 30.7603 73.1981 30.7262 73.4278C30.692 73.6574 30.7007 73.7931 30.909 73.9674C31.1172 74.1417 31.6859 74.9108 31.7662 74.9998C31.847 75.0889 32.5177 75.6415 32.5899 75.7094C32.662 75.7772 33.7442 76.7761 33.8716 76.9547C33.9991 77.1333 34.088 77.414 34.088 77.6942C34.088 77.9742 34.088 78.6121 34.1135 78.9307C34.139 79.2494 34.2409 79.339 34.2788 79.237C34.3167 79.1349 34.3043 78.8418 34.4063 78.8163C34.5083 78.7907 34.5716 78.8928 34.7886 79.097C35.0049 79.3011 35.0814 79.3521 35.1069 79.5563C35.1323 79.7603 34.7631 79.6328 34.6736 79.7859C34.5846 79.9389 34.681 80.3342 34.8874 80.3977C35.0938 80.4611 35.5906 80.4998 35.7435 80.6784C35.8964 80.857 36.0238 80.9846 36.0363 81.1502C36.0487 81.3157 35.9088 81.7109 35.9728 81.8895C36.0363 82.0681 36.4186 82.1571 36.4316 82.4378C36.4441 82.7185 36.2917 82.833 36.2917 82.833C36.2917 82.833 37.1708 82.2723 37.3362 82.0426C37.5015 81.813 37.5779 81.3412 37.7943 81.1756C38.0106 81.0101 38.1126 81.0866 38.2779 80.946C38.4433 80.806 38.4308 80.3342 38.2524 80.041C38.074 79.7479 38.125 79.2886 38.1759 79.1356C38.227 78.9824 38.0616 78.4727 38.2524 78.3321C38.4433 78.192 38.7236 78.2175 38.7236 78.0768C38.7236 77.9362 38.4308 77.8155 38.3799 77.6848C38.3288 77.554 38.5241 77.4482 38.6136 77.3885C38.7024 77.3288 38.8983 77.2229 38.8983 77.2229L39.0662 77.0699Z" fill="#E2D2FF" stroke="white" stroke-width="0.647723" stroke-linecap="round" stroke-linejoin="round"/>
<path d="M0.187011 21.0053C0.187011 21.0053 0.397127 20.9163 0.422615 20.9243C0.448103 20.9331 0.683707 21.0688 0.728466 21.1602C0.773224 21.2517 0.770738 21.4048 0.74525 21.4702C0.719762 21.5361 0.597919 21.6295 0.475455 21.5847C0.35299 21.5399 0.170226 21.4975 0.150955 21.3805C0.131684 21.2636 0.0912774 21.164 0.110548 21.121C0.129819 21.0787 0.187011 21.004 0.187011 21.004V21.0053Z" fill="#E2D2FF" stroke="white" stroke-width="0.161523" stroke-linecap="round" stroke-linejoin="round"/>
</g>
<defs>
<clipPath id="clip0_9273_202327">
<rect width="100" height="84" fill="white"/>
</clipPath>
</defs>
</svg>
