<svg width="100" height="100" viewBox="0 0 100 100" fill="none" xmlns="http://www.w3.org/2000/svg">
<ellipse cx="50.8137" cy="50" rx="49.1867" ry="50" fill="#FBF9FF"/>
<path opacity="0.2" d="M72.5387 40.778C70.4033 40.778 68.471 39.8621 67.1064 38.3955C65.7418 39.8621 63.8147 40.778 61.6741 40.778C59.5334 40.778 57.6063 39.8621 56.2417 38.3955C54.8771 39.8621 52.95 40.778 50.8094 40.778C48.6688 40.778 46.7417 39.8621 45.3771 38.3955C44.0125 39.8621 42.0854 40.778 39.9447 40.778C37.8041 40.778 35.877 39.8621 34.5124 38.3955C33.1478 39.8621 31.2207 40.778 29.0801 40.778C29.002 40.778 28.9238 40.7674 28.8457 40.7674V90.8798C28.8457 92.3569 30.028 93.5588 31.4811 93.5588H38.0176C39.0854 93.5588 40.0593 92.8917 40.4031 91.8593C41.0802 89.8103 42.9396 88.2325 45.1271 88.2325H56.4865C58.674 88.2325 60.5334 89.8103 61.2105 91.8593C61.5491 92.8864 62.5282 93.5588 63.5959 93.5588H70.1272C71.5804 93.5588 72.7627 92.3569 72.7627 90.8798V40.7674C72.6846 40.7674 72.6064 40.778 72.5283 40.778H72.5387Z" fill="url(#paint0_linear_8126_26279)"/>
<path d="M25.9401 14.2528V8.44471C25.9401 6.06219 27.8412 4.1297 30.1849 4.1297H37.6902C38.2475 4.1297 38.7006 4.59032 38.7006 5.15683C38.7006 6.13631 39.4871 6.93578 40.4506 6.93578H61.18C62.1435 6.93578 62.93 6.13631 62.93 5.15683C62.93 4.59032 63.3831 4.1297 63.9404 4.1297H71.4456C73.7894 4.1297 75.6905 6.06219 75.6905 8.44471V14.2528H78.8728V5.93512C78.8728 2.65783 76.2582 0 73.0342 0H28.5964C25.3724 0 22.7578 2.65783 22.7578 5.93512V14.2528H25.9401Z" fill="#E8DEFF"/>
<path d="M77.9665 38.3955C77.3259 38.9572 76.5499 39.4118 75.6957 39.742V81.9796C75.6957 83.9093 73.7946 85.4744 71.4509 85.4744H63.68C63.1227 85.4744 62.6695 85.1014 62.6695 84.6425V82.6786C62.6695 81.8424 61.8414 81.1606 60.8258 81.1606H40.81C39.7944 81.1606 38.9663 81.8424 38.9663 82.6786V84.6425C38.9663 85.1014 38.5131 85.4744 37.9558 85.4744H30.1849C27.8412 85.4744 25.9401 83.9093 25.9401 81.9796V39.742C25.0807 39.4118 24.3099 38.953 23.6693 38.3955C23.388 38.6399 23.0807 38.8586 22.7578 39.0602V84.0165C22.7578 86.6708 25.3724 88.8234 28.5964 88.8234H73.0342C76.2582 88.8234 78.8728 86.6708 78.8728 84.0165V39.0602C78.5499 38.8586 78.2426 38.6399 77.9613 38.3955H77.9665Z" fill="#E8DEFF"/>
<path d="M56.2279 82.8672H45.5768C45.1655 82.8672 44.832 83.1417 44.832 83.4804V86.0061C44.832 86.3447 45.1655 86.6193 45.5768 86.6193H56.2279C56.6393 86.6193 56.9727 86.3447 56.9727 86.0061V83.4804C56.9727 83.1417 56.6393 82.8672 56.2279 82.8672Z" fill="white"/>
<path d="M23.6651 30.575H12.8057L22.7589 24.0469H30.7745L23.6651 30.575Z" fill="#D2B8FF"/>
<path d="M34.5287 30.575H23.6641L30.7735 24.0469H38.7892L34.5287 30.575Z" fill="#E1D7F8"/>
<path d="M45.3887 30.575H34.5293L38.7897 24.0469H46.8106L45.3887 30.575Z" fill="#D2B8FF"/>
<path d="M56.2481 30.575H45.3887L46.8106 24.0469H54.8262L56.2481 30.575Z" fill="#E1D7F8"/>
<path d="M67.1085 30.575H56.249L54.8271 24.0469H62.8428L67.1085 30.575Z" fill="#D2B8FF"/>
<path d="M77.9669 30.575H67.1074L62.8418 24.0469H70.8627L77.9669 30.575Z" fill="#E1D7F8"/>
<path d="M88.8312 30.575H77.9665L70.8623 24.0469H78.878L88.8312 30.575Z" fill="#D2B8FF"/>
<path d="M30.7735 16.9326H22.7578V24.0484H30.7735V16.9326Z" fill="#E1D7F8"/>
<path d="M38.7901 16.9326H30.7744V24.0484H38.7901V16.9326Z" fill="#D2B8FF"/>
<path d="M46.8047 16.9326H38.7891V24.0484H46.8047V16.9326Z" fill="#E1D7F8"/>
<path d="M54.8253 16.9326H46.8096V24.0484H54.8253V16.9326Z" fill="#D2B8FF"/>
<path d="M62.8428 16.9326H54.8271V24.0484H62.8428V16.9326Z" fill="#E1D7F8"/>
<path d="M70.8575 16.9326H62.8418V24.0484H70.8575V16.9326Z" fill="#D2B8FF"/>
<path d="M78.878 16.9326H70.8623V24.0484H78.878V16.9326Z" fill="#E1D7F8"/>
<path d="M23.6651 31.7939C23.6651 34.8435 21.2328 37.3161 18.2328 37.3161C15.2328 37.3161 12.8057 34.8435 12.8057 31.7939V30.5762H23.6651V31.7939Z" fill="#D2B8FF"/>
<path d="M45.3881 31.7939C45.3881 34.8435 42.9558 37.3161 39.9558 37.3161C36.9557 37.3161 34.5234 34.8435 34.5234 31.7939V30.5762H45.3829V31.7939H45.3881Z" fill="#D2B8FF"/>
<path d="M67.1078 31.7939C67.1078 34.8435 64.6755 37.3161 61.6755 37.3161C58.6755 37.3161 56.2432 34.8435 56.2432 31.7939V30.5762H67.1026V31.7939H67.1078Z" fill="#D2B8FF"/>
<path d="M88.8315 31.7939C88.8315 34.8435 86.3991 37.3161 83.3991 37.3161C80.3991 37.3161 77.9668 34.8435 77.9668 31.7939V30.5762H88.8262V31.7939H88.8315Z" fill="#D2B8FF"/>
<path d="M34.5287 31.7939C34.5287 34.8435 32.0964 37.3161 29.0964 37.3161C26.0964 37.3161 23.6641 34.8435 23.6641 31.7939V30.5762H34.5235V31.7939H34.5287Z" fill="#E1D7F8"/>
<path d="M56.2484 31.7939C56.2484 34.8435 53.8161 37.3161 50.8161 37.3161C47.8161 37.3161 45.3838 34.8435 45.3838 31.7939V30.5762H56.2432V31.7939H56.2484Z" fill="#E1D7F8"/>
<path d="M77.9662 31.7939C77.9662 34.8435 75.5339 37.3161 72.5339 37.3161C69.5339 37.3161 67.1016 34.8435 67.1016 31.7939V30.5762H77.961V31.7939H77.9662Z" fill="#E1D7F8"/>
<path d="M23.6643 31.7939C23.8205 34.8118 21.1955 37.5014 18.2319 37.4485C15.2684 37.5014 12.6434 34.8171 12.7996 31.7939C12.8465 34.7112 15.3621 37.2473 18.2319 37.1837C21.0965 37.2473 23.6174 34.7112 23.6643 31.7939Z" fill="#E1D7F8"/>
<path d="M45.3899 31.7939C45.5461 34.8118 42.9211 37.5014 39.9575 37.4485C36.994 37.5014 34.3689 34.8171 34.5252 31.7939C34.5721 34.7112 37.0877 37.2473 39.9575 37.1837C42.8221 37.2473 45.343 34.7112 45.3899 31.7939Z" fill="#E1D7F8"/>
<path d="M67.1076 31.7939C67.2639 34.8118 64.6389 37.5014 61.6753 37.4485C58.7117 37.5014 56.0867 34.8171 56.243 31.7939C56.2898 34.7112 58.8055 37.2473 61.6753 37.1837C64.5399 37.2473 67.0607 34.7112 67.1076 31.7939Z" fill="#E1D7F8"/>
<path d="M88.8313 31.7939C88.9875 34.8118 86.3625 37.5014 83.3989 37.4485C80.4354 37.5014 77.8103 34.8171 77.9666 31.7939C78.0135 34.7112 80.5291 37.2473 83.3989 37.1837C86.2635 37.2473 88.7844 34.7112 88.8313 31.7939Z" fill="#E1D7F8"/>
<path d="M34.5295 31.7939C34.6858 34.8118 32.0607 37.5014 29.0972 37.4485C26.1336 37.5014 23.5086 34.8171 23.6648 31.7939C23.7117 34.7112 26.2274 37.2473 29.0972 37.1837C31.9618 37.2473 34.4826 34.7112 34.5295 31.7939Z" fill="#E1D7F8"/>
<path d="M56.2483 31.7939C56.4045 34.8118 53.7795 37.5014 50.8159 37.4485C47.8524 37.5014 45.2273 34.8171 45.3836 31.7939C45.4305 34.7112 47.9461 37.2473 50.8159 37.1837C53.6805 37.2473 56.2014 34.7112 56.2483 31.7939Z" fill="#D2B8FF"/>
<path d="M77.967 31.7939C78.1233 34.8118 75.4982 37.5014 72.5347 37.4485C69.5711 37.5014 66.9461 34.8171 67.1023 31.7939C67.1492 34.7112 69.6649 37.2473 72.5347 37.1837C75.3993 37.2473 77.9201 34.7112 77.967 31.7939Z" fill="#D2B8FF"/>
<path fill-rule="evenodd" clip-rule="evenodd" d="M50.4971 45.4426C49.8605 45.4426 49.3512 45.9603 49.3512 46.6074C49.3512 47.9201 49.7574 49.1897 50.4971 50.2436C51.2367 49.1897 51.643 47.9201 51.643 46.6074C51.643 45.9603 51.1337 45.4426 50.4971 45.4426ZM52.0249 51.92C53.2011 50.4223 53.8559 48.5488 53.8559 46.6136C53.8559 44.6784 52.3523 43.1992 50.4971 43.1992C48.6419 43.1992 47.1383 44.7277 47.1383 46.6136C47.1383 48.4995 47.7931 50.4223 48.9692 51.92L46.7078 54.2188C45.2345 53.0232 43.3914 52.3576 41.4877 52.3576C39.584 52.3576 38.1289 53.886 38.1289 55.7719C38.1289 57.6578 39.6325 59.1862 41.4877 59.1862C43.3429 59.1862 45.2345 58.5206 46.7078 57.325L48.9692 59.6238C47.7931 61.1215 47.1383 62.995 47.1383 64.9302C47.1383 66.8654 48.6419 68.3446 50.4971 68.3446C52.3523 68.3446 53.8559 66.8161 53.8559 64.9302C53.8559 63.0443 53.2011 61.1215 52.0249 59.6238L54.2864 57.325C55.7596 58.5206 57.6027 59.1862 59.5065 59.1862C61.4102 59.1862 62.8653 57.6578 62.8653 55.7719C62.8653 53.886 61.3617 52.3576 59.5065 52.3576C57.6512 52.3576 55.7596 53.0232 54.2864 54.2188L52.0249 51.92ZM50.4971 53.547L48.3084 55.7719L50.4971 57.9968L52.6858 55.7719L50.4971 53.547ZM55.9354 55.7719C56.9722 56.5238 58.2211 56.9367 59.5125 56.9367C60.1491 56.9367 60.6584 56.419 60.6584 55.7719C60.6584 55.1248 60.1491 54.6071 59.5125 54.6071C58.2211 54.6071 56.9722 55.02 55.9354 55.7719ZM50.4971 61.3002C49.7574 62.3541 49.3512 63.6237 49.3512 64.9364C49.3512 65.5835 49.8605 66.1012 50.4971 66.1012C51.1337 66.1012 51.643 65.5835 51.643 64.9364C51.643 63.6237 51.2367 62.3541 50.4971 61.3002ZM45.0587 55.7719C44.022 55.02 42.773 54.6071 41.4817 54.6071C40.8451 54.6071 40.3358 55.1248 40.3358 55.7719C40.3358 56.419 40.8451 56.9367 41.4817 56.9367C42.773 56.9367 44.022 56.5238 45.0587 55.7719Z" fill="#EADDFF"/>
<mask id="mask0_8126_26279" style="mask-type:alpha" maskUnits="userSpaceOnUse" x="1" y="0" width="99" height="100">
<ellipse cx="50.8137" cy="50" rx="49.1867" ry="50" fill="#FBF9FF"/>
</mask>
<g mask="url(#mask0_8126_26279)">
<path opacity="0.2" d="M72.5387 40.778C70.4033 40.778 68.471 39.8621 67.1064 38.3955C65.7418 39.8621 63.8147 40.778 61.6741 40.778C59.5334 40.778 57.6063 39.8621 56.2417 38.3955C54.8771 39.8621 52.95 40.778 50.8094 40.778C48.6688 40.778 46.7417 39.8621 45.3771 38.3955C44.0125 39.8621 42.0854 40.778 39.9447 40.778C37.8041 40.778 35.877 39.8621 34.5124 38.3955C33.1478 39.8621 31.2207 40.778 29.0801 40.778C29.002 40.778 28.9238 40.7674 28.8457 40.7674V90.8798C28.8457 92.3569 30.028 93.5588 31.4811 93.5588H38.0176C39.0854 93.5588 40.0593 92.8917 40.4031 91.8593C41.0802 89.8103 42.9396 88.2325 45.1271 88.2325H56.4865C58.674 88.2325 60.5334 89.8103 61.2105 91.8593C61.5491 92.8864 62.5282 93.5588 63.5959 93.5588H70.1272C71.5804 93.5588 72.7627 92.3569 72.7627 90.8798V40.7674C72.6846 40.7674 72.6064 40.778 72.5283 40.778H72.5387Z" fill="url(#paint1_linear_8126_26279)"/>
<path d="M25.9401 14.2528V8.44471C25.9401 6.06219 27.8412 4.1297 30.1849 4.1297H37.6902C38.2475 4.1297 38.7006 4.59032 38.7006 5.15683C38.7006 6.13631 39.4871 6.93578 40.4506 6.93578H61.18C62.1435 6.93578 62.93 6.13631 62.93 5.15683C62.93 4.59032 63.3831 4.1297 63.9404 4.1297H71.4456C73.7894 4.1297 75.6905 6.06219 75.6905 8.44471V14.2528H78.8728V5.93512C78.8728 2.65783 76.2582 0 73.0342 0H28.5964C25.3724 0 22.7578 2.65783 22.7578 5.93512V14.2528H25.9401Z" fill="#E8DEFF"/>
<path d="M77.9665 38.3955C77.3259 39.0891 76.5499 39.6503 75.6957 40.058V92.2087C75.6957 94.5912 73.7946 96.5237 71.4509 96.5237H63.68C63.1227 96.5237 62.6695 96.0631 62.6695 95.4966V93.0717C62.6695 92.0393 61.8414 91.1974 60.8258 91.1974H40.81C39.7944 91.1974 38.9663 92.0393 38.9663 93.0717V95.4966C38.9663 96.0631 38.5131 96.5237 37.9558 96.5237H30.1849C27.8412 96.5237 25.9401 94.5912 25.9401 92.2087V40.058C25.0807 39.6503 24.3099 39.0838 23.6693 38.3955C23.388 38.6973 23.0807 38.9673 22.7578 39.2162V94.7236C22.7578 98.0009 25.3724 100.659 28.5964 100.659H73.0342C76.2582 100.659 78.8728 98.0009 78.8728 94.7236V39.2162C78.5499 38.9673 78.2426 38.6973 77.9613 38.3955H77.9665Z" fill="#E8DEFF"/>
<path d="M56.226 93.3047H45.5749C45.1635 93.3047 44.8301 93.6437 44.8301 94.0618V97.1803C44.8301 97.5984 45.1635 97.9374 45.5749 97.9374H56.226C56.6373 97.9374 56.9708 97.5984 56.9708 97.1803V94.0618C56.9708 93.6437 56.6373 93.3047 56.226 93.3047Z" fill="white"/>
<path d="M23.6651 30.575H12.8057L22.7589 24.0469H30.7745L23.6651 30.575Z" fill="#D8C2FF"/>
<path d="M34.5287 30.575H23.6641L30.7735 24.0469H38.7892L34.5287 30.575Z" fill="#EDE6FF"/>
<path d="M45.3887 30.575H34.5293L38.7897 24.0469H46.8106L45.3887 30.575Z" fill="#D8C2FF"/>
<path d="M56.2481 30.575H45.3887L46.8106 24.0469H54.8262L56.2481 30.575Z" fill="#EDE6FF"/>
<path d="M67.1085 30.575H56.249L54.8271 24.0469H62.8428L67.1085 30.575Z" fill="#D8C2FF"/>
<path d="M77.9669 30.575H67.1074L62.8418 24.0469H70.8627L77.9669 30.575Z" fill="#EDE6FF"/>
<path d="M88.8312 30.575H77.9665L70.8623 24.0469H78.878L88.8312 30.575Z" fill="#D8C2FF"/>
<path d="M30.7735 16.9326H22.7578V24.0484H30.7735V16.9326Z" fill="#EDE6FF"/>
<path d="M38.7901 16.9326H30.7744V24.0484H38.7901V16.9326Z" fill="#D8C2FF"/>
<path d="M46.8047 16.9326H38.7891V24.0484H46.8047V16.9326Z" fill="#EDE6FF"/>
<path d="M54.8253 16.9326H46.8096V24.0484H54.8253V16.9326Z" fill="#D8C2FF"/>
<path d="M62.8428 16.9326H54.8271V24.0484H62.8428V16.9326Z" fill="#EDE6FF"/>
<path d="M70.8575 16.9326H62.8418V24.0484H70.8575V16.9326Z" fill="#D8C2FF"/>
<path d="M78.878 16.9326H70.8623V24.0484H78.878V16.9326Z" fill="#EDE6FF"/>
<path d="M23.6651 31.7939C23.6651 34.8435 21.2328 37.3161 18.2328 37.3161C15.2328 37.3161 12.8057 34.8435 12.8057 31.7939V30.5762H23.6651V31.7939Z" fill="#D8C2FF"/>
<path d="M45.3881 31.7939C45.3881 34.8435 42.9558 37.3161 39.9558 37.3161C36.9557 37.3161 34.5234 34.8435 34.5234 31.7939V30.5762H45.3829V31.7939H45.3881Z" fill="#D8C2FF"/>
<path d="M67.1078 31.7939C67.1078 34.8435 64.6755 37.3161 61.6755 37.3161C58.6755 37.3161 56.2432 34.8435 56.2432 31.7939V30.5762H67.1026V31.7939H67.1078Z" fill="#D8C2FF"/>
<path d="M88.8315 31.7939C88.8315 34.8435 86.3991 37.3161 83.3991 37.3161C80.3991 37.3161 77.9668 34.8435 77.9668 31.7939V30.5762H88.8262V31.7939H88.8315Z" fill="#D8C2FF"/>
<path d="M34.5287 31.7939C34.5287 34.8435 32.0964 37.3161 29.0964 37.3161C26.0964 37.3161 23.6641 34.8435 23.6641 31.7939V30.5762H34.5235V31.7939H34.5287Z" fill="#EDE6FF"/>
<path d="M56.2484 31.7939C56.2484 34.8435 53.8161 37.3161 50.8161 37.3161C47.8161 37.3161 45.3838 34.8435 45.3838 31.7939V30.5762H56.2432V31.7939H56.2484Z" fill="#EDE6FF"/>
<path d="M77.9662 31.7939C77.9662 34.8435 75.5339 37.3161 72.5339 37.3161C69.5339 37.3161 67.1016 34.8435 67.1016 31.7939V30.5762H77.961V31.7939H77.9662Z" fill="#EDE6FF"/>
<path d="M23.6643 31.7939C23.8205 34.8118 21.1955 37.5014 18.2319 37.4485C15.2684 37.5014 12.6434 34.8171 12.7996 31.7939C12.8465 34.7112 15.3621 37.2473 18.2319 37.1837C21.0965 37.2473 23.6174 34.7112 23.6643 31.7939Z" fill="#EDE6FF"/>
<path d="M45.3899 31.7939C45.5461 34.8118 42.9211 37.5014 39.9575 37.4485C36.994 37.5014 34.3689 34.8171 34.5252 31.7939C34.5721 34.7112 37.0877 37.2473 39.9575 37.1837C42.8221 37.2473 45.343 34.7112 45.3899 31.7939Z" fill="#EDE6FF"/>
<path d="M67.1076 31.7939C67.2639 34.8118 64.6389 37.5014 61.6753 37.4485C58.7117 37.5014 56.0867 34.8171 56.243 31.7939C56.2898 34.7112 58.8055 37.2473 61.6753 37.1837C64.5399 37.2473 67.0607 34.7112 67.1076 31.7939Z" fill="#EDE6FF"/>
<path d="M88.8313 31.7939C88.9875 34.8118 86.3625 37.5014 83.3989 37.4485C80.4354 37.5014 77.8103 34.8171 77.9666 31.7939C78.0135 34.7112 80.5291 37.2473 83.3989 37.1837C86.2635 37.2473 88.7844 34.7112 88.8313 31.7939Z" fill="#EDE6FF"/>
<path d="M34.5295 31.7939C34.6858 34.8118 32.0607 37.5014 29.0972 37.4485C26.1336 37.5014 23.5086 34.8171 23.6648 31.7939C23.7117 34.7112 26.2274 37.2473 29.0972 37.1837C31.9618 37.2473 34.4826 34.7112 34.5295 31.7939Z" fill="#EDE6FF"/>
<path d="M56.2483 31.7939C56.4045 34.8118 53.7795 37.5014 50.8159 37.4485C47.8524 37.5014 45.2273 34.8171 45.3836 31.7939C45.4305 34.7112 47.9461 37.2473 50.8159 37.1837C53.6805 37.2473 56.2014 34.7112 56.2483 31.7939Z" fill="#D8C2FF"/>
<path d="M77.967 31.7939C78.1233 34.8118 75.4982 37.5014 72.5347 37.4485C69.5711 37.5014 66.9461 34.8171 67.1023 31.7939C67.1492 34.7112 69.6649 37.2473 72.5347 37.1837C75.3993 37.2473 77.9201 34.7112 77.967 31.7939Z" fill="#D8C2FF"/>
<path fill-rule="evenodd" clip-rule="evenodd" d="M50.4971 45.4426C49.8605 45.4426 49.3512 45.9603 49.3512 46.6074C49.3512 47.9201 49.7574 49.1897 50.4971 50.2436C51.2367 49.1897 51.643 47.9201 51.643 46.6074C51.643 45.9603 51.1337 45.4426 50.4971 45.4426ZM52.0249 51.92C53.2011 50.4223 53.8559 48.5488 53.8559 46.6136C53.8559 44.6784 52.3523 43.1992 50.4971 43.1992C48.6419 43.1992 47.1383 44.7277 47.1383 46.6136C47.1383 48.4995 47.7931 50.4223 48.9692 51.92L46.7078 54.2188C45.2345 53.0232 43.3914 52.3576 41.4877 52.3576C39.584 52.3576 38.1289 53.886 38.1289 55.7719C38.1289 57.6578 39.6325 59.1862 41.4877 59.1862C43.3429 59.1862 45.2345 58.5206 46.7078 57.325L48.9692 59.6238C47.7931 61.1215 47.1383 62.995 47.1383 64.9302C47.1383 66.8654 48.6419 68.3446 50.4971 68.3446C52.3523 68.3446 53.8559 66.8161 53.8559 64.9302C53.8559 63.0443 53.2011 61.1215 52.0249 59.6238L54.2864 57.325C55.7596 58.5206 57.6027 59.1862 59.5065 59.1862C61.4102 59.1862 62.8653 57.6578 62.8653 55.7719C62.8653 53.886 61.3617 52.3576 59.5065 52.3576C57.6512 52.3576 55.7596 53.0232 54.2864 54.2188L52.0249 51.92ZM50.4971 53.547L48.3084 55.7719L50.4971 57.9968L52.6858 55.7719L50.4971 53.547ZM55.9354 55.7719C56.9722 56.5238 58.2211 56.9367 59.5125 56.9367C60.1491 56.9367 60.6584 56.419 60.6584 55.7719C60.6584 55.1248 60.1491 54.6071 59.5125 54.6071C58.2211 54.6071 56.9722 55.02 55.9354 55.7719ZM50.4971 61.3002C49.7574 62.3541 49.3512 63.6237 49.3512 64.9364C49.3512 65.5835 49.8605 66.1012 50.4971 66.1012C51.1337 66.1012 51.643 65.5835 51.643 64.9364C51.643 63.6237 51.2367 62.3541 50.4971 61.3002ZM45.0587 55.7719C44.022 55.02 42.773 54.6071 41.4817 54.6071C40.8451 54.6071 40.3358 55.1248 40.3358 55.7719C40.3358 56.419 40.8451 56.9367 41.4817 56.9367C42.773 56.9367 44.022 56.5238 45.0587 55.7719Z" fill="#EADDFF"/>
<mask id="path-69-inside-1_8126_26279" fill="white">
<path d="M24.707 65.8818C25.6037 65.873 26.4838 66.3094 27.0166 67.124L35.5107 80.0742H66.0459L74.54 67.124C75.0728 66.3094 75.9529 65.873 76.8496 65.8818H100.085C101.597 65.882 102.822 67.1284 102.822 68.665V130.158C102.822 131.695 101.596 132.94 100.085 132.94H1.47168C-0.0397826 132.94 -1.26538 131.695 -1.26562 130.158V68.665C-1.26562 67.1284 -0.0399339 65.882 1.47168 65.8818H24.707Z"/>
</mask>
<path d="M24.707 65.8818C25.6037 65.873 26.4838 66.3094 27.0166 67.124L35.5107 80.0742H66.0459L74.54 67.124C75.0728 66.3094 75.9529 65.873 76.8496 65.8818H100.085C101.597 65.882 102.822 67.1284 102.822 68.665V130.158C102.822 131.695 101.596 132.94 100.085 132.94H1.47168C-0.0397826 132.94 -1.26538 131.695 -1.26562 130.158V68.665C-1.26562 67.1284 -0.0399339 65.882 1.47168 65.8818H24.707Z" fill="#D2B8FF"/>
<path d="M24.707 65.8818L24.707 66.2936L24.7111 66.2936L24.707 65.8818ZM27.0166 67.124L26.672 67.3494L26.6723 67.3499L27.0166 67.124ZM35.5107 80.0742L35.1664 80.3001L35.2884 80.486H35.5107V80.0742ZM66.0459 80.0742V80.486H66.2683L66.3902 80.3001L66.0459 80.0742ZM74.54 67.124L74.8843 67.3499L74.8846 67.3494L74.54 67.124ZM76.8496 65.8818L76.8456 66.2936H76.8496V65.8818ZM100.085 65.8818L100.085 65.4701H100.085V65.8818ZM102.822 130.158L103.234 130.158V130.158H102.822ZM100.085 132.94L100.085 133.352L100.085 133.352L100.085 132.94ZM1.47168 132.94L1.47163 133.352H1.47168V132.94ZM-1.26562 130.158L-1.67739 130.158L-1.67739 130.158L-1.26562 130.158ZM1.47168 65.8818L1.47168 65.4701L1.47163 65.4701L1.47168 65.8818ZM24.707 65.8818L24.7111 66.2936C25.4714 66.2861 26.2182 66.6556 26.672 67.3494L27.0166 67.124L27.3612 66.8986C26.7494 65.9632 25.736 65.4599 24.703 65.4701L24.707 65.8818ZM27.0166 67.124L26.6723 67.3499L35.1664 80.3001L35.5107 80.0742L35.8551 79.8484L27.3609 66.8982L27.0166 67.124ZM35.5107 80.0742V80.486H66.0459V80.0742V79.6625H35.5107V80.0742ZM66.0459 80.0742L66.3902 80.3001L74.8843 67.3499L74.54 67.124L74.1957 66.8982L65.7016 79.8484L66.0459 80.0742ZM74.54 67.124L74.8846 67.3494C75.3384 66.6556 76.0852 66.2861 76.8456 66.2936L76.8496 65.8818L76.8537 65.4701C75.8207 65.4599 74.8073 65.9632 74.1954 66.8986L74.54 67.124ZM76.8496 65.8818V66.2936H100.085V65.8818V65.4701H76.8496V65.8818ZM100.085 65.8818L100.085 66.2936C101.363 66.2937 102.411 67.3493 102.411 68.665H102.822H103.234C103.234 66.9074 101.83 65.4703 100.085 65.4701L100.085 65.8818ZM102.822 68.665H102.411V130.158H102.822H103.234V68.665H102.822ZM102.822 130.158L102.411 130.158C102.41 131.474 101.363 132.529 100.085 132.529L100.085 132.94L100.085 133.352C101.83 133.352 103.234 131.916 103.234 130.158L102.822 130.158ZM100.085 132.94V132.529H1.47168V132.94V133.352H100.085V132.94ZM1.47168 132.94L1.47173 132.529C0.193929 132.529 -0.85365 131.474 -0.85386 130.158L-1.26562 130.158L-1.67739 130.158C-1.67711 131.916 -0.273494 133.352 1.47163 133.352L1.47168 132.94ZM-1.26562 130.158H-0.85386V68.665H-1.26562H-1.67739V130.158H-1.26562ZM-1.26562 68.665H-0.85386C-0.85386 67.3493 0.193899 66.2938 1.47173 66.2936L1.47168 65.8818L1.47163 65.4701C-0.273767 65.4703 -1.67739 66.9074 -1.67739 68.665H-1.26562ZM1.47168 65.8818V66.2936H24.707V65.8818V65.4701H1.47168V65.8818Z" fill="#E1D7F8" mask="url(#path-69-inside-1_8126_26279)"/>
</g>
<path d="M15.9726 52.5094L9.68828 51.9928L9.74954 51.2229L14.7776 45.6129L10.4431 45.2566L10.5231 44.2503L16.41 44.7342L16.3481 45.5118L11.3351 51.123L16.052 51.5108L15.9726 52.5094Z" fill="#D2B8FF"/>
<path d="M8.55072 45.7078L-0.000256268 45.1552L0.065266 44.1075L6.76837 36.3652L0.87044 35.984L0.956073 34.6148L8.96623 35.1325L8.90006 36.1905L2.21737 43.9342L8.6357 44.349L8.55072 45.7078Z" fill="#D2B8FF"/>
<defs>
<linearGradient id="paint0_linear_8126_26279" x1="2.40802" y1="17.1699" x2="47.511" y2="61.5392" gradientUnits="userSpaceOnUse">
<stop stop-color="white"/>
<stop offset="1" stop-color="white" stop-opacity="0"/>
</linearGradient>
<linearGradient id="paint1_linear_8126_26279" x1="2.40802" y1="17.1699" x2="47.511" y2="61.5392" gradientUnits="userSpaceOnUse">
<stop stop-color="white"/>
<stop offset="1" stop-color="white" stop-opacity="0"/>
</linearGradient>
</defs>
</svg>
