<svg width="120" height="119" viewBox="0 0 120 119" fill="none" xmlns="http://www.w3.org/2000/svg">
<mask id="mask0_11297_2147" style="mask-type:luminance" maskUnits="userSpaceOnUse" x="0" y="0" width="120" height="119">
<path d="M119.406 0.595001H0.593994V118.405H119.406V0.595001Z" fill="white"/>
</mask>
<g mask="url(#mask0_11297_2147)">
<path d="M59.9987 118.405C92.3456 118.405 118.568 92.0323 118.568 59.5C118.568 26.9677 92.3456 0.595001 59.9987 0.595001C27.6518 0.595001 1.42944 26.9677 1.42944 59.5C1.42944 92.0323 27.6518 118.405 59.9987 118.405Z" fill="#FBF9FF"/>
<path opacity="0.2" d="M85.8656 48.6357C83.3229 48.6357 81.022 47.5567 79.3971 45.8289C77.7723 47.5567 75.4774 48.6357 72.9286 48.6357C70.3796 48.6357 68.0848 47.5567 66.46 45.8289C64.8351 47.5567 62.5404 48.6357 59.9915 48.6357C57.4425 48.6357 55.1478 47.5567 53.5229 45.8289C51.898 47.5567 49.6033 48.6357 47.0543 48.6357C44.5054 48.6357 42.2107 47.5567 40.5858 45.8289C38.9609 47.5567 36.6661 48.6357 34.1172 48.6357C34.0242 48.6357 33.9312 48.6233 33.8381 48.6233V107.66C33.8381 109.401 35.2459 110.817 36.9762 110.817H44.7596C46.0311 110.817 47.1907 110.031 47.6 108.815C48.4063 106.401 50.6203 104.542 53.2251 104.542H66.7515C69.3563 104.542 71.5704 106.401 72.3767 108.815C72.7798 110.025 73.9457 110.817 75.2171 110.817H82.9943C84.7246 110.817 86.1324 109.401 86.1324 107.66V48.6233C86.0393 48.6233 85.9463 48.6357 85.8533 48.6357H85.8656Z" fill="url(#paint0_linear_11297_2147)"/>
<path d="M30.3781 17.3861V10.5437C30.3781 7.73686 32.642 5.4602 35.4326 5.4602H44.3697C45.0332 5.4602 45.5729 6.00287 45.5729 6.67026C45.5729 7.82419 46.5092 8.76605 47.6566 8.76605H72.3401C73.4875 8.76605 74.4238 7.82419 74.4238 6.67026C74.4238 6.00287 74.9636 5.4602 75.627 5.4602H84.5641C87.3548 5.4602 89.6186 7.73686 89.6186 10.5437V17.3861H93.4078V7.58718C93.4078 3.72619 90.2945 0.595001 86.4556 0.595001H33.541C29.7021 0.595001 26.5889 3.72619 26.5889 7.58718V17.3861H30.3781Z" fill="#E8DEFF"/>
<path d="M92.3288 45.8289C91.5659 46.4907 90.6419 47.0261 89.6247 47.4152V97.1753C89.6247 99.4487 87.361 101.293 84.5703 101.293H75.3169C74.6535 101.293 74.1137 100.853 74.1137 100.312V97.9988C74.1137 97.0137 73.1276 96.2104 71.9183 96.2104H48.0844C46.875 96.2104 45.8891 97.0137 45.8891 97.9988V100.312C45.8891 100.853 45.3494 101.293 44.6859 101.293H35.4326C32.642 101.293 30.3781 99.4487 30.3781 97.1753V47.4152C29.3548 47.0261 28.437 46.4857 27.6741 45.8289C27.3393 46.1168 26.9732 46.3744 26.5889 46.6118V99.5749C26.5889 102.702 29.7021 105.238 33.541 105.238H86.4556C90.2945 105.238 93.4078 102.702 93.4078 99.5749V46.6118C93.0232 46.3744 92.6575 46.1168 92.3226 45.8289H92.3288Z" fill="#E8DEFF"/>
<path d="M66.4456 98.2203H53.7629C53.273 98.2203 52.876 98.5438 52.876 98.9428V101.918C52.876 102.317 53.273 102.641 53.7629 102.641H66.4456C66.9355 102.641 67.3325 102.317 67.3325 101.918V98.9428C67.3325 98.5438 66.9355 98.2203 66.4456 98.2203Z" fill="white"/>
<path d="M27.6709 36.6157H14.74L26.5919 28.9249H36.1366L27.6709 36.6157Z" fill="#D2B8FF"/>
<path d="M40.6072 36.6157H27.6702L36.1358 28.9249H45.6804L40.6072 36.6157Z" fill="#E1D7F8"/>
<path d="M53.5359 36.6157H40.605L45.678 28.9249H55.2288L53.5359 36.6157Z" fill="#D2B8FF"/>
<path d="M66.4704 36.6157H53.5396L55.2327 28.9249H64.7775L66.4704 36.6157Z" fill="#E1D7F8"/>
<path d="M79.4042 36.6157H66.4733L64.7803 28.9249H74.3249L79.4042 36.6157Z" fill="#D2B8FF"/>
<path d="M92.3327 36.6157H79.4018L74.3225 28.9249H83.8734L92.3327 36.6157Z" fill="#E1D7F8"/>
<path d="M105.27 36.6157H92.3332L83.8738 28.9249H93.4185L105.27 36.6157Z" fill="#D2B8FF"/>
<path d="M36.1335 20.5426H26.5889V28.9258H36.1335V20.5426Z" fill="#E1D7F8"/>
<path d="M45.68 20.5426H36.1355V28.9258H45.68V20.5426Z" fill="#D2B8FF"/>
<path d="M55.2269 20.5426H45.6821V28.9258H55.2269V20.5426Z" fill="#E1D7F8"/>
<path d="M64.7784 20.5426H55.2336V28.9258H64.7784V20.5426Z" fill="#D2B8FF"/>
<path d="M74.3249 20.5426H64.7803V28.9258H74.3249V20.5426Z" fill="#E1D7F8"/>
<path d="M83.8671 20.5426H74.3225V28.9258H83.8671V20.5426Z" fill="#D2B8FF"/>
<path d="M93.4185 20.5426H83.8738V28.9258H93.4185V20.5426Z" fill="#E1D7F8"/>
<path d="M27.6709 38.0514C27.6709 41.6444 24.7747 44.5572 21.2024 44.5572C17.6302 44.5572 14.74 41.6444 14.74 38.0514V36.6169H27.6709V38.0514Z" fill="#D2B8FF"/>
<path d="M53.542 38.0514C53.542 41.6444 50.6458 44.5572 47.0735 44.5572C43.5011 44.5572 40.605 41.6444 40.605 38.0514V36.6169H53.5359V38.0514H53.542Z" fill="#D2B8FF"/>
<path d="M79.4022 38.0514C79.4022 41.6444 76.5059 44.5572 72.9337 44.5572C69.3612 44.5572 66.4651 41.6444 66.4651 38.0514V36.6169H79.396V38.0514H79.4022Z" fill="#D2B8FF"/>
<path d="M105.267 38.0514C105.267 41.6444 102.371 44.5572 98.7984 44.5572C95.2262 44.5572 92.3298 41.6444 92.3298 38.0514V36.6169H105.261V38.0514H105.267Z" fill="#D2B8FF"/>
<path d="M40.6072 38.0514C40.6072 41.6444 37.7108 44.5572 34.1386 44.5572C30.5664 44.5572 27.6702 41.6444 27.6702 38.0514V36.6169H40.6011V38.0514H40.6072Z" fill="#E1D7F8"/>
<path d="M66.472 38.0514C66.472 41.6444 63.5758 44.5572 60.0035 44.5572C56.4312 44.5572 53.5349 41.6444 53.5349 38.0514V36.6169H66.4658V38.0514H66.472Z" fill="#E1D7F8"/>
<path d="M92.3323 38.0514C92.3323 41.6444 89.4359 44.5572 85.8637 44.5572C82.2914 44.5572 79.395 41.6444 79.395 38.0514V36.6169H92.3261V38.0514H92.3323Z" fill="#E1D7F8"/>
<path d="M27.671 38.0522C27.8571 41.6074 24.7313 44.776 21.2025 44.7135C17.6736 44.776 14.5479 41.6137 14.734 38.0522C14.7898 41.4888 17.7853 44.4766 21.2025 44.4018C24.6135 44.4766 27.6153 41.4888 27.671 38.0522Z" fill="#E1D7F8"/>
<path d="M53.5358 38.0522C53.722 41.6074 50.5962 44.776 47.0673 44.7135C43.5384 44.776 40.4127 41.6137 40.5987 38.0522C40.6544 41.4888 43.6501 44.4766 47.0673 44.4018C50.4784 44.4766 53.48 41.4888 53.5358 38.0522Z" fill="#E1D7F8"/>
<path d="M79.4054 38.0522C79.5915 41.6074 76.4658 44.776 72.9368 44.7135C69.408 44.776 66.2822 41.6137 66.4684 38.0522C66.5242 41.4888 69.5196 44.4766 72.9368 44.4018C76.3479 44.4766 79.3497 41.4888 79.4054 38.0522Z" fill="#E1D7F8"/>
<path d="M105.27 38.0522C105.456 41.6074 102.331 44.776 98.8017 44.7135C95.2727 44.776 92.147 41.6137 92.3331 38.0522C92.3889 41.4888 95.3845 44.4766 98.8017 44.4018C102.213 44.4766 105.214 41.4888 105.27 38.0522Z" fill="#E1D7F8"/>
<path d="M40.6059 38.0522C40.792 41.6074 37.6662 44.776 34.1374 44.7135C30.6084 44.776 27.4827 41.6137 27.6688 38.0522C27.7246 41.4888 30.7201 44.4766 34.1374 44.4018C37.5485 44.4766 40.5501 41.4888 40.6059 38.0522Z" fill="#E1D7F8"/>
<path d="M66.4661 38.0522C66.6521 41.6074 63.5263 44.776 59.9975 44.7135C56.4687 44.776 53.3428 41.6137 53.5289 38.0522C53.5849 41.4888 56.5803 44.4766 59.9975 44.4018C63.4086 44.4766 66.4104 41.4888 66.4661 38.0522Z" fill="#D2B8FF"/>
<path d="M92.3307 38.0522C92.5168 41.6074 89.3911 44.776 85.8621 44.7135C82.3333 44.776 79.2075 41.6137 79.3937 38.0522C79.4494 41.4888 82.4449 44.4766 85.8621 44.4018C89.2731 44.4766 92.2749 41.4888 92.3307 38.0522Z" fill="#D2B8FF"/>
<path d="M60.645 51.0851L63.9248 51.7583L57.6663 81.3792L54.3865 80.7059L60.645 51.0851ZM71.8568 66.2322L65.8492 60.1902V55.4273L76.5925 66.2322L65.8492 77.0202V72.2573L71.8568 66.2322ZM41.7188 66.2322L52.462 55.4273V60.1902L46.4545 66.2322L52.462 72.2573V77.0202L41.7188 66.2322Z" fill="#EADDFF"/>
<mask id="mask1_11297_2147" style="mask-type:alpha" maskUnits="userSpaceOnUse" x="1" y="0" width="118" height="119">
<path d="M59.9987 118.405C92.3456 118.405 118.568 92.0323 118.568 59.5C118.568 26.9677 92.3456 0.595001 59.9987 0.595001C27.6518 0.595001 1.42944 26.9677 1.42944 59.5C1.42944 92.0323 27.6518 118.405 59.9987 118.405Z" fill="#FBF9FF"/>
</mask>
<g mask="url(#mask1_11297_2147)">
<path opacity="0.2" d="M85.8659 48.6357C83.3232 48.6357 81.0223 47.5567 79.3974 45.8289C77.7725 47.5567 75.4777 48.6357 72.9288 48.6357C70.3798 48.6357 68.0851 47.5567 66.4602 45.8289C64.8353 47.5567 62.5406 48.6357 59.9917 48.6357C57.4427 48.6357 55.148 47.5567 53.5231 45.8289C51.8983 47.5567 49.6035 48.6357 47.0545 48.6357C44.5057 48.6357 42.2109 47.5567 40.5861 45.8289C38.9612 47.5567 36.6663 48.6357 34.1175 48.6357C34.0244 48.6357 33.9314 48.6233 33.8384 48.6233V107.66C33.8384 109.401 35.2462 110.817 36.9764 110.817H44.7598C46.0313 110.817 47.1909 110.031 47.6002 108.815C48.4065 106.401 50.6206 104.542 53.2254 104.542H66.7518C69.3566 104.542 71.5707 106.401 72.3769 108.815C72.78 110.025 73.9459 110.817 75.2174 110.817H82.9945C84.7248 110.817 86.1326 109.401 86.1326 107.66V48.6233C86.0396 48.6233 85.9465 48.6357 85.8535 48.6357H85.8659Z" fill="url(#paint1_linear_11297_2147)"/>
<path d="M30.3781 17.3861V10.5437C30.3781 7.73686 32.642 5.4602 35.4326 5.4602H44.3697C45.0332 5.4602 45.5729 6.00287 45.5729 6.67026C45.5729 7.82419 46.5092 8.76605 47.6566 8.76605H72.3401C73.4875 8.76605 74.4238 7.82419 74.4238 6.67026C74.4238 6.00287 74.9636 5.4602 75.627 5.4602H84.5641C87.3548 5.4602 89.6186 7.73686 89.6186 10.5437V17.3861H93.4078V7.58718C93.4078 3.72619 90.2945 0.595001 86.4556 0.595001H33.541C29.7021 0.595001 26.5889 3.72619 26.5889 7.58718V17.3861H30.3781Z" fill="#E8DEFF"/>
<path d="M92.3288 45.8289C91.5659 46.6461 90.6419 47.3071 89.6247 47.7874V109.226C89.6247 112.033 87.361 114.31 84.5703 114.31H75.3169C74.6535 114.31 74.1137 113.767 74.1137 113.1V110.243C74.1137 109.027 73.1276 108.035 71.9183 108.035H48.0844C46.875 108.035 45.8891 109.027 45.8891 110.243V113.1C45.8891 113.767 45.3494 114.31 44.6859 114.31H35.4326C32.642 114.31 30.3781 112.033 30.3781 109.226V47.7874C29.3548 47.3071 28.437 46.6398 27.6741 45.8289C27.3393 46.1844 26.9732 46.5025 26.5889 46.7957V112.189C26.5889 116.05 29.7021 119.181 33.541 119.181H86.4556C90.2945 119.181 93.4078 116.05 93.4078 112.189V46.7957C93.0232 46.5025 92.6575 46.1844 92.3226 45.8289H92.3288Z" fill="#E8DEFF"/>
<path d="M66.4456 110.518H53.7629C53.273 110.518 52.876 110.917 52.876 111.41V115.084C52.876 115.576 53.273 115.976 53.7629 115.976H66.4456C66.9355 115.976 67.3325 115.576 67.3325 115.084V111.41C67.3325 110.917 66.9355 110.518 66.4456 110.518Z" fill="white"/>
<path d="M27.6709 36.6157H14.74L26.5919 28.9249H36.1366L27.6709 36.6157Z" fill="#D8C2FF"/>
<path d="M40.6075 36.6157H27.6704L36.136 28.9249H45.6806L40.6075 36.6157Z" fill="#EDE6FF"/>
<path d="M53.5359 36.6157H40.605L45.678 28.9249H55.2288L53.5359 36.6157Z" fill="#D8C2FF"/>
<path d="M66.4704 36.6157H53.5396L55.2327 28.9249H64.7775L66.4704 36.6157Z" fill="#EDE6FF"/>
<path d="M79.4042 36.6157H66.4733L64.7803 28.9249H74.3249L79.4042 36.6157Z" fill="#D8C2FF"/>
<path d="M92.3327 36.6157H79.4018L74.3225 28.9249H83.8734L92.3327 36.6157Z" fill="#EDE6FF"/>
<path d="M105.27 36.6157H92.3334L83.874 28.9249H93.4188L105.27 36.6157Z" fill="#D8C2FF"/>
<path d="M36.1335 20.5426H26.5889V28.9258H36.1335V20.5426Z" fill="#EDE6FF"/>
<path d="M45.6803 20.5426H36.1357V28.9258H45.6803V20.5426Z" fill="#D8C2FF"/>
<path d="M55.2271 20.5426H45.6824V28.9258H55.2271V20.5426Z" fill="#EDE6FF"/>
<path d="M64.7784 20.5426H55.2336V28.9258H64.7784V20.5426Z" fill="#D8C2FF"/>
<path d="M74.3249 20.5426H64.7803V28.9258H74.3249V20.5426Z" fill="#EDE6FF"/>
<path d="M83.8671 20.5426H74.3225V28.9258H83.8671V20.5426Z" fill="#D8C2FF"/>
<path d="M93.4188 20.5426H83.874V28.9258H93.4188V20.5426Z" fill="#EDE6FF"/>
<path d="M27.6709 38.0514C27.6709 41.6444 24.7747 44.5572 21.2024 44.5572C17.6302 44.5572 14.74 41.6444 14.74 38.0514V36.6169H27.6709V38.0514Z" fill="#D8C2FF"/>
<path d="M53.542 38.0514C53.542 41.6444 50.6458 44.5572 47.0735 44.5572C43.5011 44.5572 40.605 41.6444 40.605 38.0514V36.6169H53.5359V38.0514H53.542Z" fill="#D8C2FF"/>
<path d="M79.4022 38.0514C79.4022 41.6444 76.5059 44.5572 72.9337 44.5572C69.3612 44.5572 66.4651 41.6444 66.4651 38.0514V36.6169H79.396V38.0514H79.4022Z" fill="#D8C2FF"/>
<path d="M105.267 38.0514C105.267 41.6444 102.371 44.5572 98.7984 44.5572C95.2262 44.5572 92.3298 41.6444 92.3298 38.0514V36.6169H105.261V38.0514H105.267Z" fill="#D8C2FF"/>
<path d="M40.6075 38.0514C40.6075 41.6444 37.7111 44.5572 34.1389 44.5572C30.5667 44.5572 27.6704 41.6444 27.6704 38.0514V36.6169H40.6013V38.0514H40.6075Z" fill="#EDE6FF"/>
<path d="M66.4722 38.0514C66.4722 41.6444 63.5761 44.5572 60.0037 44.5572C56.4314 44.5572 53.5352 41.6444 53.5352 38.0514V36.6169H66.466V38.0514H66.4722Z" fill="#EDE6FF"/>
<path d="M92.3326 38.0514C92.3326 41.6444 89.4362 44.5572 85.864 44.5572C82.2917 44.5572 79.3953 41.6444 79.3953 38.0514V36.6169H92.3264V38.0514H92.3326Z" fill="#EDE6FF"/>
<path d="M27.6713 38.0522C27.8574 41.6074 24.7315 44.776 21.2027 44.7135C17.6739 44.776 14.5482 41.6137 14.7342 38.0522C14.7901 41.4888 17.7856 44.4766 21.2027 44.4018C24.6138 44.4766 27.6156 41.4888 27.6713 38.0522Z" fill="#EDE6FF"/>
<path d="M53.536 38.0522C53.7222 41.6074 50.5964 44.776 47.0676 44.7135C43.5386 44.776 40.4129 41.6137 40.599 38.0522C40.6547 41.4888 43.6503 44.4766 47.0676 44.4018C50.4787 44.4766 53.4802 41.4888 53.536 38.0522Z" fill="#EDE6FF"/>
<path d="M79.4054 38.0522C79.5915 41.6074 76.4658 44.776 72.9368 44.7135C69.408 44.776 66.2822 41.6137 66.4684 38.0522C66.5242 41.4888 69.5196 44.4766 72.9368 44.4018C76.3479 44.4766 79.3497 41.4888 79.4054 38.0522Z" fill="#EDE6FF"/>
<path d="M105.27 38.0522C105.456 41.6074 102.331 44.776 98.8017 44.7135C95.2727 44.776 92.147 41.6137 92.3331 38.0522C92.3889 41.4888 95.3845 44.4766 98.8017 44.4018C102.213 44.4766 105.214 41.4888 105.27 38.0522Z" fill="#EDE6FF"/>
<path d="M40.6059 38.0522C40.792 41.6074 37.6662 44.776 34.1374 44.7135C30.6084 44.776 27.4827 41.6137 27.6688 38.0522C27.7246 41.4888 30.7201 44.4766 34.1374 44.4018C37.5485 44.4766 40.5501 41.4888 40.6059 38.0522Z" fill="#EDE6FF"/>
<path d="M66.4661 38.0522C66.6521 41.6074 63.5263 44.776 59.9975 44.7135C56.4687 44.776 53.3428 41.6137 53.5289 38.0522C53.5849 41.4888 56.5803 44.4766 59.9975 44.4018C63.4086 44.4766 66.4104 41.4888 66.4661 38.0522Z" fill="#D8C2FF"/>
<path d="M92.331 38.0522C92.517 41.6074 89.3913 44.776 85.8624 44.7135C82.3336 44.776 79.2077 41.6137 79.3939 38.0522C79.4496 41.4888 82.4451 44.4766 85.8624 44.4018C89.2734 44.4766 92.2751 41.4888 92.331 38.0522Z" fill="#D8C2FF"/>
<path d="M28.9129 78.2101C29.9805 78.1997 31.0287 78.7132 31.6631 79.6728L41.7772 94.9299H78.1361L88.2518 79.6728C88.8861 78.7134 89.9329 78.1999 91.0005 78.2101H118.669C120.469 78.2103 121.93 79.6787 121.93 81.489V153.934C121.93 155.744 120.469 157.212 118.669 157.212H1.24603C-0.554102 157.212 -2.01415 155.744 -2.01416 153.934V81.489C-2.01416 79.6786 -0.554118 78.2101 1.24603 78.2101H28.9129Z" fill="#D2B8FF"/>
<mask id="mask2_11297_2147" style="mask-type:luminance" maskUnits="userSpaceOnUse" x="-3" y="78" width="125" height="80">
<path d="M28.9129 78.2101C29.9805 78.1997 31.0287 78.7132 31.6631 79.6728L41.7772 94.9299H78.1361L88.2518 79.6728C88.8861 78.7134 89.9329 78.1999 91.0005 78.2101H118.669C120.469 78.2103 121.93 79.6787 121.93 81.489V153.934C121.93 155.744 120.469 157.212 118.669 157.212H1.24603C-0.554102 157.212 -2.01415 155.744 -2.01416 153.934V81.489C-2.01416 79.6786 -0.554118 78.2101 1.24603 78.2101H28.9129Z" fill="white"/>
</mask>
<g mask="url(#mask2_11297_2147)">
<path d="M28.9152 78.2106V78.9037L28.9217 78.9034L28.9152 78.2106ZM41.7796 94.9304L41.2061 95.315L41.4106 95.6234H41.7796V94.9304ZM78.1385 94.9304V95.6234H78.5072L78.7118 95.315L78.1385 94.9304ZM91.0027 78.2106L90.9962 78.9034H91.0027V78.2106ZM28.9152 78.2106L28.9217 78.9034C29.7667 78.8952 30.592 79.301 31.0916 80.057L31.6655 79.6733L32.2392 79.2896C31.4701 78.1263 30.1988 77.5051 28.9085 77.5176L28.9152 78.2106ZM31.6655 79.6733L31.0916 80.057L41.2061 95.315L41.7796 94.9304L42.3528 94.546L32.2392 79.2896L31.6655 79.6733ZM41.7796 94.9304V95.6234H78.1385V94.9304V94.2374H41.7796V94.9304ZM78.1385 94.9304L78.7118 95.315L88.8273 80.0579L88.254 79.6733L87.6807 79.2889L77.5651 94.546L78.1385 94.9304ZM88.254 79.6733L88.8273 80.0579C89.3271 79.3019 90.1517 78.8955 90.9962 78.9034L91.0027 78.2106L91.0093 77.5176C89.7187 77.5053 88.4497 78.1261 87.6807 79.2889L88.254 79.6733ZM91.0027 78.2106V78.9034H118.671V78.2106V77.5176H91.0027V78.2106ZM118.671 78.2106V78.9034C120.09 78.9038 121.242 80.0619 121.242 81.4894H121.931H122.62C122.62 79.2963 120.852 77.5179 118.671 77.5176V78.2106ZM121.931 81.4894H121.242V153.934H121.931H122.62V81.4894H121.931ZM121.931 153.934H121.242C121.242 155.362 120.09 156.52 118.671 156.52L118.671 157.213V157.906C120.852 157.906 122.62 156.127 122.62 153.934H121.931ZM118.671 157.213L118.671 156.52H1.24833V157.213V157.906H118.671V157.213ZM1.24833 157.213V156.52C-0.171243 156.52 -1.32281 155.362 -1.32283 153.934H-2.01187H-2.70093C-2.70089 156.127 -0.932367 157.906 1.24833 157.906V157.213ZM-2.01187 153.934H-1.32283V81.4894H-2.01187H-2.70093V153.934H-2.01187ZM-2.01187 81.4894H-1.32283C-1.32283 80.0618 -0.17127 78.9034 1.24833 78.9034V78.2106V77.5176C-0.932374 77.5176 -2.70093 79.2963 -2.70093 81.4894H-2.01187ZM1.24833 78.2106V78.9034L28.9152 78.9037V78.2106V77.5176H1.24833V78.2106Z" fill="#E1D7F8"/>
</g>
</g>
</g>
<defs>
<linearGradient id="paint0_linear_11297_2147" x1="2.35731" y1="20.823" x2="55.4994" y2="73.6622" gradientUnits="userSpaceOnUse">
<stop stop-color="white"/>
<stop offset="1" stop-color="white" stop-opacity="0"/>
</linearGradient>
<linearGradient id="paint1_linear_11297_2147" x1="2.35756" y1="20.823" x2="55.4996" y2="73.6622" gradientUnits="userSpaceOnUse">
<stop stop-color="white"/>
<stop offset="1" stop-color="white" stop-opacity="0"/>
</linearGradient>
</defs>
</svg>
