<svg width="120" height="109" viewBox="0 0 120 109" fill="none" xmlns="http://www.w3.org/2000/svg">
<path d="M55.508 109C85.6327 109 110.053 84.5995 110.053 54.5C110.053 24.4005 85.6327 0 55.508 0C25.3834 0 0.962585 24.4005 0.962585 54.5C0.962585 84.5995 25.3834 109 55.508 109Z" fill="#FBF9FF"/>
<mask id="mask0_11297_2189" style="mask-type:alpha" maskUnits="userSpaceOnUse" x="0" y="0" width="111" height="109">
<path d="M55.508 109C85.6327 109 110.053 84.5995 110.053 54.5C110.053 24.4005 85.6327 0 55.508 0C25.3834 0 0.962585 24.4005 0.962585 54.5C0.962585 84.5995 25.3834 109 55.508 109Z" fill="#FBF9FF"/>
</mask>
<g mask="url(#mask0_11297_2189)">
<g filter="url(#filter0_d_11297_2189)">
<path d="M74.4026 23.0824V42.7325H93.5866L74.4026 23.0824Z" fill="#E1D7F8"/>
<path d="M74.4026 23.0829H22.437C19.4371 23.0829 17.0054 25.5741 17.0054 28.6468V74.4091C17.0054 77.4818 19.4371 97.4585 22.437 97.4585H84.9237C87.9236 97.4585 93.5866 77.4818 93.5866 74.4091V42.7331H74.4026V23.0829Z" fill="#FCFCFC"/>
<path d="M82.6401 46.8073H55.1912C53.9486 46.8073 52.9413 47.8138 52.9413 49.0554C52.9413 50.2969 53.9486 51.3034 55.1912 51.3034H82.6401C83.8827 51.3034 84.8901 50.2969 84.8901 49.0554C84.8901 47.8138 83.8827 46.8073 82.6401 46.8073Z" fill="#D9DEE3" fill-opacity="0.4"/>
<path d="M71.8717 52.5767H55.1873C53.9468 52.5767 52.9413 53.5814 52.9413 54.8208C52.9413 56.0602 53.9468 57.065 55.1873 57.065H71.8717C73.1122 57.065 74.1177 56.0602 74.1177 54.8208C74.1177 53.5814 73.1122 52.5767 71.8717 52.5767Z" fill="#D9DEE3" fill-opacity="0.3"/>
<path d="M65.0908 61.5544H55.1912C53.9486 61.5544 52.9413 62.5609 52.9413 63.8024C52.9413 65.044 53.9486 66.0505 55.1912 66.0505H65.0908C66.3334 66.0505 67.3407 65.044 67.3407 63.8024C67.3407 62.5609 66.3334 61.5544 65.0908 61.5544Z" fill="#E1D7F8"/>
<path d="M45.8825 44.8836H28.5563C27.1387 44.8836 25.9894 46.0319 25.9894 47.4483V64.7601C25.9894 66.1765 27.1387 67.3248 28.5563 67.3248H45.8825C47.3001 67.3248 48.4493 66.1765 48.4493 64.7601V47.4483C48.4493 46.0319 47.3001 44.8836 45.8825 44.8836Z" fill="#D1F4F4"/>
<path d="M42.1849 62.1955H32.4064V60.9742C32.4064 59.288 33.7746 57.921 35.4622 57.921H39.1292C40.8168 57.921 42.1849 59.288 42.1849 60.9742V62.1955ZM37.2956 56.6997C35.2705 56.6997 33.6288 55.0593 33.6288 53.0358C33.6288 51.0124 35.2705 49.3719 37.2956 49.3719C39.3209 49.3719 40.9626 51.0124 40.9626 53.0358C40.9626 55.0593 39.3209 56.6997 37.2956 56.6997Z" fill="#E9FAFA"/>
</g>
<path d="M26.5568 71.8118C27.5512 71.8022 28.5268 72.2784 29.1177 73.1664L38.5366 87.2809H72.3984L81.8187 73.165C82.4096 72.2774 83.3854 71.8022 84.3796 71.8118H110.146C111.823 71.8119 113.182 73.1705 113.182 74.8455V141.873C113.182 143.548 111.823 144.906 110.146 144.906H0.790251C-0.886227 144.906 -2.24597 143.548 -2.24597 141.873V74.8455C-2.2459 73.1705 -0.886184 71.8118 0.790251 71.8118H26.5568Z" fill="#D2B8FF"/>
<mask id="mask1_11297_2189" style="mask-type:luminance" maskUnits="userSpaceOnUse" x="-3" y="71" width="117" height="74">
<path d="M26.5568 71.8118C27.5512 71.8022 28.5268 72.2784 29.1177 73.1664L38.5366 87.2809H72.3984L81.8187 73.165C82.4096 72.2774 83.3854 71.8022 84.3796 71.8118H110.146C111.823 71.8119 113.182 73.1705 113.182 74.8455V141.873C113.182 143.548 111.823 144.906 110.146 144.906H0.790251C-0.886227 144.906 -2.24597 143.548 -2.24597 141.873V74.8455C-2.2459 73.1705 -0.886184 71.8118 0.790251 71.8118H26.5568Z" fill="white"/>
</mask>
<g mask="url(#mask1_11297_2189)">
<path d="M26.5568 71.8118V72.453H26.5631L26.5568 71.8118ZM38.5366 87.2809L38.0027 87.6367L38.1932 87.9221H38.5366V87.2809ZM72.3984 87.2809V87.9221H72.7419L72.9324 87.6367L72.3984 87.2809ZM84.3796 71.8118L84.3733 72.453H84.3796V71.8118ZM26.5568 71.8118L26.5631 72.453C27.3493 72.4453 28.1175 72.8214 28.5833 73.5213L29.1177 73.1664L29.652 72.8113C28.9362 71.7355 27.753 71.159 26.5507 71.1706L26.5568 71.8118ZM29.1177 73.1664L28.5833 73.5213L38.0027 87.6367L38.5366 87.2809L39.0705 86.9253L29.652 72.8113L29.1177 73.1664ZM38.5366 87.2809V87.9221H72.3984V87.2809V86.6397H38.5366V87.2809ZM72.3984 87.2809L72.9324 87.6367L82.3527 73.5206L81.8187 73.165L81.2848 72.8093L71.8646 86.9253L72.3984 87.2809ZM81.8187 73.165L82.3527 73.5206C82.8182 72.8213 83.5866 72.4453 84.3733 72.453L84.3796 71.8118L84.3857 71.1706C83.184 71.159 82.001 71.7333 81.2848 72.8093L81.8187 73.165ZM84.3796 71.8118V72.453H110.146V71.8118V71.1706H84.3796V71.8118ZM110.146 71.8118V72.453C111.468 72.4531 112.541 73.5247 112.541 74.8455H113.182H113.824C113.824 72.8163 112.177 71.1707 110.146 71.1706V71.8118ZM113.182 74.8455H112.541V141.873H113.182H113.824V74.8455H113.182ZM113.182 141.873H112.541C112.541 143.193 111.468 144.266 110.146 144.266L110.146 144.906V145.548C112.177 145.548 113.824 143.902 113.824 141.873H113.182ZM110.146 144.906L110.146 144.266H0.790241V144.906V145.548H110.146V144.906ZM0.790241 144.906V144.266C-0.531829 144.266 -1.60427 143.193 -1.60427 141.873H-2.24598H-2.8877C-2.8877 143.902 -1.24064 145.548 0.790241 145.548V144.906ZM-2.24598 141.873H-1.60427V74.8455H-2.24598H-2.8877V141.873H-2.24598ZM-2.24598 74.8455H-1.60427C-1.60421 73.5246 -0.531758 72.453 0.790241 72.453V71.8118V71.1706C-1.24063 71.1706 -2.8876 72.8163 -2.8877 74.8455H-2.24598ZM0.790241 71.8118V72.453H26.5568V71.8118V71.1706H0.790241V71.8118Z" fill="#E1D7F8"/>
</g>
</g>
<path d="M99.786 101.947C105.457 101.947 110.053 97.354 110.053 91.6882C110.053 86.0224 105.457 81.4294 99.786 81.4294C94.1155 81.4294 89.5186 86.0224 89.5186 91.6882C89.5186 97.354 94.1155 101.947 99.786 101.947Z" fill="white"/>
<path fill-rule="evenodd" clip-rule="evenodd" d="M100.428 105.901C108.993 105.901 115.936 98.9633 115.936 90.4057C115.936 81.848 108.993 74.9105 100.428 74.9105C91.8629 74.9105 84.9198 81.848 84.9198 90.4057C84.9198 98.9633 91.8629 105.901 100.428 105.901ZM101.591 85.7571C101.591 85.1152 101.07 84.595 100.428 84.595C99.7855 84.595 99.2647 85.1152 99.2647 85.7571V89.2435H95.7754C95.133 89.2435 94.6123 89.7638 94.6123 90.4057C94.6123 91.0474 95.133 91.5678 95.7754 91.5678H99.2647V95.0541C99.2647 95.696 99.7855 96.2163 100.428 96.2163C101.07 96.2163 101.591 95.696 101.591 95.0541V91.5678H105.08C105.723 91.5678 106.243 91.0474 106.243 90.4057C106.243 89.7638 105.723 89.2435 105.08 89.2435H101.591V85.7571Z" fill="#AE72FF"/>
<defs>
<filter id="filter0_d_11297_2189" x="12.2995" y="20.2589" width="85.9931" height="83.7879" filterUnits="userSpaceOnUse" color-interpolation-filters="sRGB">
<feFlood flood-opacity="0" result="BackgroundImageFix"/>
<feColorMatrix in="SourceAlpha" type="matrix" values="0 0 0 0 0 0 0 0 0 0 0 0 0 0 0 0 0 0 127 0" result="hardAlpha"/>
<feOffset dy="1.88235"/>
<feGaussianBlur stdDeviation="2.35294"/>
<feComposite in2="hardAlpha" operator="out"/>
<feColorMatrix type="matrix" values="0 0 0 0 0.823529 0 0 0 0 0.721569 0 0 0 0 1 0 0 0 0.5 0"/>
<feBlend mode="normal" in2="BackgroundImageFix" result="effect1_dropShadow_11297_2189"/>
<feBlend mode="normal" in="SourceGraphic" in2="effect1_dropShadow_11297_2189" result="shape"/>
</filter>
</defs>
</svg>
