<svg width="435" height="464" viewBox="0 0 435 464" fill="none" xmlns="http://www.w3.org/2000/svg">
<rect x="1.29844" y="0.4625" width="432.403" height="462.797" rx="28.2125" fill="#1F0433" stroke="#AE72FF" stroke-width="0.925"/>
<rect x="157.238" y="275.743" width="120.481" height="162.181" rx="24.5375" fill="#1F0433" stroke="#AE72FF" stroke-width="0.925"/>
<rect x="290.256" y="275.743" width="120.481" height="162.181" rx="24.5375" fill="#1F0433" stroke="#AE72FF" stroke-width="0.925"/>
<rect x="23.2441" y="118.102" width="388.172" height="138.943" rx="25" fill="#2E1044"/>
<rect x="24.2193" y="275.743" width="120.481" height="162.181" rx="24.5375" fill="#1F0433" stroke="#AE72FF" stroke-width="0.925"/>
<circle cx="62.4921" cy="59.9194" r="32.499" stroke="#AE72FF"/>
<rect x="109.385" y="47.7617" width="95.5233" height="24.315" rx="5" fill="#2E1044"/>
<rect x="38.1768" y="290.043" width="92.0497" height="90.3129" rx="17" fill="#2E1044"/>
<rect x="171.041" y="290.043" width="92.0497" height="90.3129" rx="17" fill="#2E1044"/>
<rect x="304.773" y="290.043" width="92.0497" height="90.3129" rx="17" fill="#2E1044"/>
<path d="M378.557 46.0381L374.245 41.7963L376.126 39.9463L380.437 44.1881H400.704C401.438 44.1881 402.034 44.7738 402.034 45.4963C402.034 45.6236 402.015 45.7502 401.978 45.8722L398.786 56.3374C398.618 56.8907 398.1 57.2697 397.513 57.2697H381.216V59.886H395.843V62.5023H379.887C379.152 62.5023 378.557 61.9165 378.557 61.1941V46.0381ZM380.551 67.7349C379.45 67.7349 378.557 66.8563 378.557 65.7727C378.557 64.6889 379.45 63.8104 380.551 63.8104C381.653 63.8104 382.546 64.6889 382.546 65.7727C382.546 66.8563 381.653 67.7349 380.551 67.7349ZM396.508 67.7349C395.406 67.7349 394.513 66.8563 394.513 65.7727C394.513 64.6889 395.406 63.8104 396.508 63.8104C397.609 63.8104 398.502 64.6889 398.502 65.7727C398.502 66.8563 397.609 67.7349 396.508 67.7349Z" fill="#AE72FF"/>
<path d="M343.203 59.9417L349.062 65.8003L347.127 67.7349L341.269 61.8763C339.162 63.5616 336.491 64.5698 333.585 64.5698C326.789 64.5698 321.273 59.0541 321.273 52.258C321.273 45.462 326.789 39.9463 333.585 39.9463C340.381 39.9463 345.897 45.462 345.897 52.258C345.897 55.1636 344.889 57.8351 343.203 59.9417ZM340.459 58.9266C342.132 57.2027 343.161 54.8512 343.161 52.258C343.161 46.9674 338.876 42.6822 333.585 42.6822C328.295 42.6822 324.009 46.9674 324.009 52.258C324.009 57.5487 328.295 61.8339 333.585 61.8339C336.178 61.8339 338.53 60.8045 340.254 59.1317L340.459 58.9266Z" fill="#AE72FF"/>
<g opacity="0.21">
<path fill-rule="evenodd" clip-rule="evenodd" d="M54.3726 59.8288C52.9252 58.7945 51.1807 58.227 49.3807 58.227C48.4925 58.227 47.7789 58.9406 47.7789 59.8288C47.7789 60.717 48.4925 61.4306 49.3807 61.4306C51.1807 61.4306 52.9252 60.8631 54.3726 59.8288ZM61.967 67.4232C60.9327 68.8705 60.3652 70.6151 60.3652 72.415C60.3652 73.3033 61.0788 74.0169 61.967 74.0169C62.8552 74.0169 63.5688 73.3033 63.5688 72.415C63.5688 70.6151 63.0013 68.8705 61.967 67.4232ZM69.5614 59.8288C71.0087 60.8631 72.7533 61.4306 74.5532 61.4306C75.4414 61.4306 76.155 60.717 76.155 59.8288C76.155 58.9406 75.4414 58.227 74.5532 58.227C72.7533 58.227 71.0087 58.7945 69.5614 59.8288ZM61.967 56.7695L58.9077 59.8288L61.967 62.888L65.0262 59.8288L61.967 56.7695ZM64.1011 54.533C65.7465 52.4745 66.6583 49.9039 66.6583 47.2426C66.6583 44.5813 64.5611 42.5513 61.967 42.5513C59.3728 42.5513 57.2757 44.6484 57.2757 47.2426C57.2757 49.8367 58.1874 52.4745 59.8329 54.533L56.6729 57.693C54.6144 56.0476 52.0437 55.1358 49.3824 55.1358C46.7211 55.1358 44.6895 57.2346 44.6895 59.8288C44.6895 62.4229 46.7866 64.5201 49.3807 64.5201C51.9749 64.5201 54.6127 63.6084 56.6712 61.9629L59.8312 65.1229C58.1857 67.1814 57.274 69.752 57.274 72.4134C57.274 75.0747 59.3712 77.1046 61.9653 77.1046C64.5594 77.1046 66.6566 75.0075 66.6566 72.4134C66.6566 69.8192 65.7449 67.1814 64.0994 65.1229L67.2594 61.9629C69.3179 63.6084 71.8885 64.5201 74.5499 64.5201C77.2112 64.5201 79.2411 62.4229 79.2411 59.8288C79.2411 57.2346 77.144 55.1375 74.5499 55.1375C71.9557 55.1375 69.3179 56.0492 67.2594 57.6947L64.0994 54.5347L64.1011 54.533ZM61.967 45.6407C61.0788 45.6407 60.3652 46.3543 60.3652 47.2426C60.3652 49.0425 60.9327 50.7871 61.967 52.2344C63.0013 50.7871 63.5688 49.0425 63.5688 47.2426C63.5688 46.3543 62.8552 45.6407 61.967 45.6407Z" fill="#AE72FF"/>
</g>
<path d="M72.882 327.398L68.5703 323.156L70.4508 321.306L74.7625 325.548H95.0292C95.7636 325.548 96.3589 326.133 96.3589 326.856C96.3589 326.983 96.34 327.11 96.3029 327.232L93.1117 337.697C92.9429 338.25 92.4252 338.629 91.838 338.629H75.5414V341.245H90.168V343.862H74.2117C73.4773 343.862 72.882 343.276 72.882 342.554V327.398ZM74.8765 349.094C73.775 349.094 72.882 348.216 72.882 347.132C72.882 346.048 73.775 345.17 74.8765 345.17C75.9781 345.17 76.8711 346.048 76.8711 347.132C76.8711 348.216 75.9781 349.094 74.8765 349.094ZM90.8329 349.094C89.7312 349.094 88.8383 348.216 88.8383 347.132C88.8383 346.048 89.7312 345.17 90.8329 345.17C91.9344 345.17 92.8274 346.048 92.8274 347.132C92.8274 348.216 91.9344 349.094 90.8329 349.094Z" fill="#482067"/>
<path d="M205.746 327.398L201.435 323.156L203.315 321.306L207.627 325.548H227.893C228.628 325.548 229.223 326.133 229.223 326.856C229.223 326.983 229.204 327.11 229.167 327.232L225.976 337.697C225.807 338.25 225.289 338.629 224.702 338.629H208.406V341.245H223.032V343.862H207.076C206.342 343.862 205.746 343.276 205.746 342.554V327.398ZM207.741 349.094C206.639 349.094 205.746 348.216 205.746 347.132C205.746 346.048 206.639 345.17 207.741 345.17C208.842 345.17 209.735 346.048 209.735 347.132C209.735 348.216 208.842 349.094 207.741 349.094ZM223.697 349.094C222.595 349.094 221.703 348.216 221.703 347.132C221.703 346.048 222.595 345.17 223.697 345.17C224.799 345.17 225.692 346.048 225.692 347.132C225.692 348.216 224.799 349.094 223.697 349.094Z" fill="#482067"/>
<path d="M339.479 327.398L335.167 323.156L337.047 321.306L341.359 325.548H361.626C362.36 325.548 362.956 326.133 362.956 326.856C362.956 326.983 362.937 327.11 362.9 327.232L359.708 337.697C359.54 338.25 359.022 338.629 358.435 338.629H342.138V341.245H356.765V343.862H340.808C340.074 343.862 339.479 343.276 339.479 342.554V327.398ZM341.473 349.094C340.372 349.094 339.479 348.216 339.479 347.132C339.479 346.048 340.372 345.17 341.473 345.17C342.575 345.17 343.468 346.048 343.468 347.132C343.468 348.216 342.575 349.094 341.473 349.094ZM357.43 349.094C356.328 349.094 355.435 348.216 355.435 347.132C355.435 346.048 356.328 345.17 357.43 345.17C358.531 345.17 359.424 346.048 359.424 347.132C359.424 348.216 358.531 349.094 357.43 349.094Z" fill="#482067"/>
<rect opacity="0.31" x="38.1768" y="392.514" width="92.0497" height="19.9731" rx="9.98653" fill="#AE72FF"/>
<rect opacity="0.31" x="171.041" y="392.514" width="92.0497" height="19.9731" rx="9.98653" fill="#AE72FF"/>
<rect opacity="0.31" x="304.773" y="392.514" width="92.0497" height="19.9731" rx="9.98653" fill="#AE72FF"/>
</svg>
