<svg width="120" height="110" viewBox="0 0 120 110" fill="none" xmlns="http://www.w3.org/2000/svg">
<path d="M55.3748 109.321C85.4994 109.321 109.92 85.0006 109.92 55C109.92 24.9993 85.4994 0.678986 55.3748 0.678986C25.2501 0.678986 0.829346 24.9993 0.829346 55C0.829346 85.0006 25.2501 109.321 55.3748 109.321Z" fill="#FBF9FF"/>
<path d="M101.734 8.34796H8.39873C7.17421 8.34796 6.18152 9.33656 6.18152 10.5561V79.6212C6.18152 80.8407 7.17421 81.8294 8.39873 81.8294H101.734C102.959 81.8294 103.951 80.8407 103.951 79.6212V10.5561C103.951 9.33656 102.959 8.34796 101.734 8.34796Z" fill="white"/>
<path d="M8.39869 8.46997H101.757C102.914 8.47017 103.851 9.40446 103.851 10.5561V14.7588H6.30396V10.5561C6.30396 9.40434 7.24217 8.46997 8.39869 8.46997Z" fill="#EDE3FF" stroke="#D2B8FF" stroke-width="0.180662"/>
<path fill-rule="evenodd" clip-rule="evenodd" d="M96.7432 10.0542C96.5956 10.0542 96.4775 10.1324 96.4775 10.2301C96.4775 10.4285 96.5717 10.6202 96.7432 10.7794C96.9149 10.6202 97.0091 10.4285 97.0091 10.2301C97.0091 10.1324 96.8909 10.0542 96.7432 10.0542ZM97.0978 11.0327C97.3707 10.8064 97.5226 10.5234 97.5226 10.2311C97.5226 9.93871 97.1738 9.71527 96.7432 9.71527C96.3129 9.71527 95.9641 9.94616 95.9641 10.2311C95.9641 10.516 96.116 10.8064 96.3889 11.0327L95.8641 11.38C95.5223 11.1994 95.0948 11.0988 94.6531 11.0988C94.2113 11.0988 93.8738 11.3297 93.8738 11.6146C93.8738 11.8995 94.2226 12.1304 94.6531 12.1304C95.0835 12.1304 95.5223 12.0298 95.8641 11.8492L96.3889 12.1965C96.116 12.4227 95.9641 12.7057 95.9641 12.9981C95.9641 13.2904 96.3129 13.5139 96.7432 13.5139C97.1738 13.5139 97.5226 13.283 97.5226 12.9981C97.5226 12.7133 97.3707 12.4227 97.0978 12.1965L97.6223 11.8492C97.9642 12.0298 98.3919 12.1304 98.8336 12.1304C99.2752 12.1304 99.6128 11.8995 99.6128 11.6146C99.6128 11.3297 99.2639 11.0988 98.8336 11.0988C98.4031 11.0988 97.9642 11.1994 97.6223 11.38L97.0978 11.0327ZM96.7432 11.2785L96.2355 11.6146L96.7432 11.9507L97.2511 11.6146L96.7432 11.2785ZM98.005 11.6146C98.2456 11.7282 98.5353 11.7906 98.8349 11.7906C98.9827 11.7906 99.1007 11.7123 99.1007 11.6146C99.1007 11.5168 98.9827 11.4386 98.8349 11.4386C98.5353 11.4386 98.2456 11.501 98.005 11.6146ZM96.7432 12.4497C96.5717 12.6089 96.4775 12.8008 96.4775 12.999C96.4775 13.0968 96.5956 13.175 96.7432 13.175C96.8909 13.175 97.0091 13.0968 97.0091 12.999C97.0091 12.8008 96.9149 12.6089 96.7432 12.4497ZM95.4815 11.6146C95.2411 11.501 94.9513 11.4386 94.6517 11.4386C94.5039 11.4386 94.3858 11.5168 94.3858 11.6146C94.3858 11.7123 94.5039 11.7906 94.6517 11.7906C94.9513 11.7906 95.2411 11.7282 95.4815 11.6146Z" fill="#D2B8FF"/>
<path d="M12.4942 12.754C13.4451 12.754 14.2158 12.2437 14.2158 11.6144C14.2158 10.985 13.4451 10.4748 12.4942 10.4748C11.5433 10.4748 10.7725 10.985 10.7725 11.6144C10.7725 12.2437 11.5433 12.754 12.4942 12.754Z" fill="#D2B8FF"/>
<path d="M17.0858 12.754C18.0367 12.754 18.8074 12.2437 18.8074 11.6144C18.8074 10.985 18.0367 10.4748 17.0858 10.4748C16.1349 10.4748 15.364 10.985 15.364 11.6144C15.364 12.2437 16.1349 12.754 17.0858 12.754Z" fill="#D2B8FF"/>
<path d="M21.677 12.754C22.6278 12.754 23.3986 12.2437 23.3986 11.6144C23.3986 10.985 22.6278 10.4748 21.677 10.4748C20.7261 10.4748 19.9552 10.985 19.9552 11.6144C19.9552 12.2437 20.7261 12.754 21.677 12.754Z" fill="#D2B8FF"/>
<mask id="mask0_11297_2199" style="mask-type:alpha" maskUnits="userSpaceOnUse" x="0" y="0" width="110" height="110">
<path d="M55.3748 109.321C85.4994 109.321 109.92 85.0006 109.92 55C109.92 24.9993 85.4994 0.678986 55.3748 0.678986C25.2501 0.678986 0.829346 24.9993 0.829346 55C0.829346 85.0006 25.2501 109.321 55.3748 109.321Z" fill="#FBF9FF"/>
</mask>
<g mask="url(#mask0_11297_2199)">
<g filter="url(#filter0_d_11297_2199)">
<path d="M101.734 8.34796H8.39873C7.17419 8.34796 6.18152 9.33656 6.18152 10.5561V116.699C6.18152 117.919 7.17419 118.907 8.39873 118.907H101.734C102.959 118.907 103.951 117.919 103.951 116.699V10.5561C103.951 9.33656 102.959 8.34796 101.734 8.34796Z" fill="white"/>
</g>
<path d="M8.3988 8.46997H101.757C102.914 8.47017 103.851 9.40446 103.851 10.5561V18.0557H6.30408V10.5561C6.30408 9.40434 7.2423 8.46997 8.3988 8.46997Z" fill="#EDE3FF" stroke="#D2B8FF" stroke-width="0.180662"/>
<path fill-rule="evenodd" clip-rule="evenodd" d="M96.743 10.9152C96.5953 10.9152 96.4771 11.0329 96.4771 11.18C96.4771 11.4784 96.5713 11.7669 96.743 12.0065C96.9146 11.7669 97.0088 11.4784 97.0088 11.18C97.0088 11.0329 96.8907 10.9152 96.743 10.9152ZM97.0975 12.3876C97.3702 12.0472 97.5221 11.6213 97.5221 11.1814C97.5221 10.7415 97.1734 10.4053 96.743 10.4053C96.3125 10.4053 95.9637 10.7527 95.9637 11.1814C95.9637 11.6101 96.1156 12.0472 96.3885 12.3876L95.8639 12.9101C95.522 12.6383 95.0944 12.4869 94.6527 12.4869C94.211 12.4869 93.8735 12.8344 93.8735 13.263C93.8735 13.6918 94.2224 14.0391 94.6527 14.0391C95.0831 14.0391 95.522 13.8879 95.8639 13.6161L96.3885 14.1385C96.1156 14.479 95.9637 14.9049 95.9637 15.3446C95.9637 15.7844 96.3125 16.1207 96.743 16.1207C97.1734 16.1207 97.5221 15.7733 97.5221 15.3446C97.5221 14.916 97.3702 14.479 97.0975 14.1385L97.6221 13.6161C97.9639 13.8879 98.3915 14.0391 98.8331 14.0391C99.2749 14.0391 99.6125 13.6918 99.6125 13.263C99.6125 12.8344 99.2637 12.4869 98.8331 12.4869C98.4028 12.4869 97.9639 12.6383 97.6221 12.9101L97.0975 12.3876ZM96.743 12.7574L96.2351 13.263L96.743 13.7688L97.2508 13.263L96.743 12.7574ZM98.0047 13.263C98.2451 13.4339 98.5349 13.5277 98.8346 13.5277C98.9824 13.5277 99.1005 13.4101 99.1005 13.263C99.1005 13.116 98.9824 12.9983 98.8346 12.9983C98.5349 12.9983 98.2451 13.0922 98.0047 13.263ZM96.743 14.5196C96.5713 14.7591 96.4771 15.0478 96.4771 15.3461C96.4771 15.4931 96.5953 15.6108 96.743 15.6108C96.8907 15.6108 97.0088 15.4931 97.0088 15.3461C97.0088 15.0478 96.9146 14.7591 96.743 14.5196ZM95.4812 13.263C95.2407 13.0922 94.9509 12.9983 94.6514 12.9983C94.5037 12.9983 94.3855 13.116 94.3855 13.263C94.3855 13.4101 94.5037 13.5277 94.6514 13.5277C94.9509 13.5277 95.2407 13.4339 95.4812 13.263Z" fill="#D2B8FF"/>
<path d="M12.4941 14.9783C13.4449 14.9783 14.2157 14.2106 14.2157 13.2636C14.2157 12.3166 13.4449 11.549 12.4941 11.549C11.5432 11.549 10.7723 12.3166 10.7723 13.2636C10.7723 14.2106 11.5432 14.9783 12.4941 14.9783Z" fill="#D2B8FF"/>
<path d="M17.0855 14.9783C18.0363 14.9783 18.8072 14.2106 18.8072 13.2636C18.8072 12.3166 18.0363 11.549 17.0855 11.549C16.1346 11.549 15.3638 12.3166 15.3638 13.2636C15.3638 14.2106 16.1346 14.9783 17.0855 14.9783Z" fill="#D2B8FF"/>
<path d="M21.6768 14.9783C22.6277 14.9783 23.3985 14.2106 23.3985 13.2636C23.3985 12.3166 22.6277 11.549 21.6768 11.549C20.726 11.549 19.9551 12.3166 19.9551 13.2636C19.9551 14.2106 20.726 14.9783 21.6768 14.9783Z" fill="#D2B8FF"/>
<path d="M26.4236 72.2554C27.4179 72.2458 28.3936 72.7191 28.9843 73.604L38.4033 87.6737H72.2651L81.6855 73.604C82.2762 72.7191 83.252 72.2457 84.2462 72.2554H110.013C111.689 72.2555 113.048 73.6096 113.048 75.279V142.086C113.047 143.756 111.689 145.108 110.013 145.109H0.656953C-1.01937 145.109 -2.37901 143.756 -2.37927 142.086V75.279C-2.37927 73.6095 -1.01952 72.2554 0.656953 72.2554H26.4236Z" fill="#D2B8FF"/>
<mask id="mask1_11297_2199" style="mask-type:luminance" maskUnits="userSpaceOnUse" x="-3" y="72" width="117" height="74">
<path d="M26.4236 72.2554C27.4179 72.2458 28.3936 72.7191 28.9843 73.604L38.4033 87.6737H72.2651L81.6855 73.604C82.2762 72.7191 83.252 72.2457 84.2462 72.2554H110.013C111.689 72.2555 113.048 73.6096 113.048 75.279V142.086C113.047 143.756 111.689 145.108 110.013 145.109H0.656953C-1.01937 145.109 -2.37901 143.756 -2.37927 142.086V75.279C-2.37927 73.6095 -1.01952 72.2554 0.656953 72.2554H26.4236Z" fill="white"/>
</mask>
<g mask="url(#mask1_11297_2199)">
<path d="M26.4236 72.2552V72.8942L26.4297 72.8941L26.4236 72.2552ZM38.4033 87.6736L37.8693 88.028L38.0598 88.3126H38.4033V87.6736ZM72.2651 87.6736V88.3126H72.6086L72.799 88.028L72.2651 87.6736ZM84.2462 72.2552L84.24 72.8941H84.2462V72.2552ZM26.4236 72.2552L26.4297 72.8941C27.2166 72.8867 27.9846 73.2606 28.45 73.9578L28.9842 73.6038L29.5187 73.2501C28.8026 72.1772 27.619 71.6046 26.4174 71.6161L26.4236 72.2552ZM28.9842 73.6038L28.45 73.9578L37.8693 88.028L38.4033 87.6736L38.9372 87.3189L29.5187 73.2501L28.9842 73.6038ZM38.4033 87.6736V88.3126H72.2651V87.6736V87.0345H38.4033V87.6736ZM72.2651 87.6736L72.799 88.028L82.2192 73.9584L81.6855 73.6038L81.1516 73.2493L71.7312 87.3189L72.2651 87.6736ZM81.6855 73.6038L82.2192 73.9584C82.6847 73.2612 83.4532 72.8867 84.24 72.8941L84.2462 72.2552L84.2525 71.6161C83.0507 71.6046 81.8678 72.1768 81.1516 73.2493L81.6855 73.6038ZM84.2462 72.2552V72.8941H110.013V72.2552L110.013 71.6161H84.2462V72.2552ZM110.013 72.2552V72.8941C111.334 72.8943 112.406 73.9621 112.406 75.2788H113.048H113.689C113.689 73.2567 112.044 71.6163 110.013 71.6161L110.013 72.2552ZM113.048 75.2788H112.406V142.085H113.048H113.689V75.2788H113.048ZM113.048 142.085H112.406C112.406 143.402 111.335 144.469 110.013 144.469V145.109V145.748C112.043 145.748 113.689 144.108 113.689 142.085H113.048ZM110.013 145.109V144.469H0.656944V145.109V145.748H110.013V145.109ZM0.656944 145.109V144.469C-0.665239 144.469 -1.73737 143.402 -1.73756 142.085H-2.37927H-3.021C-3.02067 144.108 -1.37352 145.748 0.656944 145.748V145.109ZM-2.37927 142.085H-1.73756V75.2788H-2.37927H-3.021V142.085H-2.37927ZM-2.37927 75.2788H-1.73756C-1.73756 73.9622 -0.665128 72.8941 0.656944 72.8941V72.2552V71.6161C-1.37394 71.6161 -3.021 73.2563 -3.021 75.2788H-2.37927ZM0.656944 72.2552V72.8941L26.4236 72.8942V72.2552V71.6161H0.656944V72.2552Z" fill="#E1D7F8"/>
</g>
</g>
<path d="M89.4386 31.2346H19.6524C16.3299 31.2346 13.6364 32.4507 13.6364 33.9507C13.6364 35.4507 16.3299 36.6667 19.6524 36.6667H89.4386C92.7611 36.6667 95.4545 35.4507 95.4545 33.9507C95.4545 32.4507 92.7611 31.2346 89.4386 31.2346Z" fill="#F3F3F3"/>
<path d="M84.0309 42.0989H20.9692C16.9194 42.0989 13.6364 43.3149 13.6364 44.815C13.6364 46.3149 16.9194 47.531 20.9692 47.531H84.0309C88.0806 47.531 91.3637 46.3149 91.3637 44.815C91.3637 43.3149 88.0806 42.0989 84.0309 42.0989Z" fill="#D9DEE3" fill-opacity="0.3"/>
<path d="M56.8611 52.9631H18.139C15.6522 52.9631 13.6364 54.1791 13.6364 55.6791C13.6364 57.1792 15.6522 58.3952 18.139 58.3952H56.8611C59.3478 58.3952 61.3637 57.1792 61.3637 55.6791C61.3637 54.1791 59.3478 52.9631 56.8611 52.9631Z" fill="#D9DEE3" fill-opacity="0.3"/>
<path d="M8.2058 8.46997H101.925C103.082 8.46997 104.02 9.40434 104.02 10.5561V18.3368H6.11108V10.5561C6.11108 9.40434 7.0493 8.46997 8.2058 8.46997Z" fill="#E1D7F8" stroke="#E1D7F8" stroke-width="0.180662"/>
<path fill-rule="evenodd" clip-rule="evenodd" d="M56.4072 10.9116C56.2506 10.9116 56.125 11.0365 56.125 11.1927C56.125 11.5094 56.225 11.8157 56.4072 12.07C56.5893 11.8157 56.6894 11.5094 56.6894 11.1927C56.6894 11.0365 56.564 10.9116 56.4072 10.9116ZM56.7836 12.4745C57.0732 12.1132 57.2346 11.6611 57.2346 11.1941C57.2346 10.7272 56.8641 10.3703 56.4072 10.3703C55.9503 10.3703 55.58 10.7391 55.58 11.1941C55.58 11.6492 55.7412 12.1132 56.031 12.4745L55.4739 13.0291C55.111 12.7408 54.6572 12.5801 54.1882 12.5801C53.7194 12.5801 53.3611 12.9489 53.3611 13.404C53.3611 13.859 53.7313 14.2278 54.1882 14.2278C54.6452 14.2278 55.111 14.0672 55.4739 13.7786L56.031 14.3334C55.7412 14.6948 55.58 15.1469 55.58 15.6138C55.58 16.0806 55.9503 16.4375 56.4072 16.4375C56.8641 16.4375 57.2346 16.0689 57.2346 15.6138C57.2346 15.1586 57.0732 14.6948 56.7836 14.3334L57.3405 13.7786C57.7033 14.0672 58.1572 14.2278 58.6261 14.2278C59.095 14.2278 59.4534 13.859 59.4534 13.404C59.4534 12.9489 59.083 12.5801 58.6261 12.5801C58.1692 12.5801 57.7033 12.7408 57.3405 13.0291L56.7836 12.4745ZM56.4072 12.8671L55.8681 13.404L56.4072 13.9408L56.9462 13.404L56.4072 12.8671ZM57.7467 13.404C58.002 13.5854 58.3096 13.6851 58.6276 13.6851C58.7844 13.6851 58.9099 13.5601 58.9099 13.404C58.9099 13.2478 58.7844 13.1229 58.6276 13.1229C58.3096 13.1229 58.002 13.2225 57.7467 13.404ZM56.4072 14.7379C56.225 14.9922 56.125 15.2985 56.125 15.6152C56.125 15.7714 56.2506 15.8963 56.4072 15.8963C56.564 15.8963 56.6894 15.7714 56.6894 15.6152C56.6894 15.2985 56.5893 14.9922 56.4072 14.7379ZM55.0678 13.404C54.8124 13.2225 54.5049 13.1229 54.1868 13.1229C54.03 13.1229 53.9047 13.2478 53.9047 13.404C53.9047 13.5601 54.03 13.6851 54.1868 13.6851C54.5049 13.6851 54.8124 13.5854 55.0678 13.404Z" fill="#D2B8FF"/>
<path d="M99.6529 102.291C105.323 102.291 109.92 97.7131 109.92 92.066C109.92 86.4189 105.323 81.8408 99.6529 81.8408C93.9825 81.8408 89.3855 86.4189 89.3855 92.066C89.3855 97.7131 93.9825 102.291 99.6529 102.291Z" fill="white"/>
<path fill-rule="evenodd" clip-rule="evenodd" d="M100.295 106.232C108.859 106.232 115.803 99.3174 115.803 90.7878C115.803 82.2581 108.859 75.3436 100.295 75.3436C91.7297 75.3436 84.7866 82.2581 84.7866 90.7878C84.7866 99.3174 91.7297 106.232 100.295 106.232ZM101.458 86.1545C101.458 85.5149 100.937 84.9962 100.295 84.9962C99.6522 84.9962 99.1315 85.5149 99.1315 86.1545V89.6295H95.6421C94.9998 89.6295 94.479 90.1481 94.479 90.7878C94.479 91.4275 94.9998 91.9462 95.6421 91.9462H99.1315V95.4211C99.1315 96.0608 99.6522 96.5793 100.295 96.5793C100.937 96.5793 101.458 96.0608 101.458 95.4211V91.9462H104.947C105.589 91.9462 106.11 91.4275 106.11 90.7878C106.11 90.1481 105.589 89.6295 104.947 89.6295H101.458V86.1545Z" fill="#AE72FF"/>
<defs>
<filter id="filter0_d_11297_2199" x="1.56488" y="5.71697" width="107.003" height="119.793" filterUnits="userSpaceOnUse" color-interpolation-filters="sRGB">
<feFlood flood-opacity="0" result="BackgroundImageFix"/>
<feColorMatrix in="SourceAlpha" type="matrix" values="0 0 0 0 0 0 0 0 0 0 0 0 0 0 0 0 0 0 127 0" result="hardAlpha"/>
<feOffset dy="1.98565"/>
<feGaussianBlur stdDeviation="2.30832"/>
<feComposite in2="hardAlpha" operator="out"/>
<feColorMatrix type="matrix" values="0 0 0 0 0.823529 0 0 0 0 0.721569 0 0 0 0 1 0 0 0 0.4 0"/>
<feBlend mode="normal" in2="BackgroundImageFix" result="effect1_dropShadow_11297_2199"/>
<feBlend mode="normal" in="SourceGraphic" in2="effect1_dropShadow_11297_2199" result="shape"/>
</filter>
</defs>
</svg>
