<svg width="100" height="92" viewBox="0 0 100 92" fill="none" xmlns="http://www.w3.org/2000/svg">
<path d="M46.1457 91.4321C71.2495 91.4321 91.6002 71.0914 91.6002 46C91.6002 20.9085 71.2495 0.567871 46.1457 0.567871C21.0418 0.567871 0.691139 20.9085 0.691139 46C0.691139 71.0914 21.0418 91.4321 46.1457 91.4321Z" fill="#FBF9FF"/>
<path d="M84.7784 6.98193H6.99891C5.97847 6.98193 5.15123 7.80876 5.15123 8.8287V66.5923C5.15123 67.6122 5.97847 68.4391 6.99891 68.4391H84.7784C85.7989 68.4391 86.6261 67.6122 86.6261 66.5923V8.8287C86.6261 7.80876 85.7989 6.98193 84.7784 6.98193Z" fill="white"/>
<path d="M6.99893 7.08398H84.7976C85.7613 7.08415 86.5422 7.86555 86.5422 8.82872V12.3437H5.25332V8.82872C5.25332 7.86545 6.03517 7.08398 6.99893 7.08398Z" fill="#EDE3FF" stroke="#D2B8FF" stroke-width="0.180662"/>
<path fill-rule="evenodd" clip-rule="evenodd" d="M80.6194 8.40893C80.4964 8.40893 80.398 8.47434 80.398 8.5561C80.398 8.72197 80.4765 8.88238 80.6194 9.01553C80.7625 8.88238 80.841 8.72197 80.841 8.5561C80.841 8.47434 80.7425 8.40893 80.6194 8.40893ZM80.9149 9.22733C81.1423 9.03811 81.2689 8.80138 81.2689 8.55688C81.2689 8.31237 80.9782 8.12549 80.6194 8.12549C80.2608 8.12549 79.9701 8.3186 79.9701 8.55688C79.9701 8.79516 80.0967 9.03811 80.3241 9.22733L79.8868 9.51778C79.602 9.36672 79.2457 9.28262 78.8776 9.28262C78.5095 9.28262 78.2282 9.47573 78.2282 9.71401C78.2282 9.95229 78.5189 10.1454 78.8776 10.1454C79.2363 10.1454 79.602 10.0613 79.8868 9.91023L80.3241 10.2007C80.0967 10.3899 79.9701 10.6266 79.9701 10.8711C79.9701 11.1156 80.2608 11.3025 80.6194 11.3025C80.9782 11.3025 81.2689 11.1094 81.2689 10.8711C81.2689 10.6329 81.1423 10.3899 80.9149 10.2007L81.352 9.91023C81.6369 10.0613 81.9933 10.1454 82.3614 10.1454C82.7294 10.1454 83.0107 9.95229 83.0107 9.71401C83.0107 9.47573 82.72 9.28262 82.3614 9.28262C82.0026 9.28262 81.6369 9.36672 81.352 9.51778L80.9149 9.22733ZM80.6194 9.4329L80.1963 9.71401L80.6194 9.99511L81.0426 9.71401L80.6194 9.4329ZM81.6709 9.71401C81.8714 9.80901 82.1128 9.86118 82.3625 9.86118C82.4856 9.86118 82.584 9.79576 82.584 9.71401C82.584 9.63224 82.4856 9.56683 82.3625 9.56683C82.1128 9.56683 81.8714 9.61901 81.6709 9.71401ZM80.6194 10.4125C80.4765 10.5456 80.398 10.7061 80.398 10.8719C80.398 10.9537 80.4964 11.0191 80.6194 11.0191C80.7425 11.0191 80.841 10.9537 80.841 10.8719C80.841 10.7061 80.7625 10.5456 80.6194 10.4125ZM79.568 9.71401C79.3676 9.61901 79.1261 9.56683 78.8765 9.56683C78.7533 9.56683 78.6549 9.63224 78.6549 9.71401C78.6549 9.79576 78.7533 9.86118 78.8765 9.86118C79.1261 9.86118 79.3676 9.80901 79.568 9.71401Z" fill="#D2B8FF"/>
<path d="M10.4118 10.667C11.2042 10.667 11.8465 10.2402 11.8465 9.71386C11.8465 9.18747 11.2042 8.76074 10.4118 8.76074C9.61938 8.76074 8.97702 9.18747 8.97702 9.71386C8.97702 10.2402 9.61938 10.667 10.4118 10.667Z" fill="#D2B8FF"/>
<path d="M14.2381 10.667C15.0305 10.667 15.6728 10.2402 15.6728 9.71386C15.6728 9.18747 15.0305 8.76074 14.2381 8.76074C13.4457 8.76074 12.8033 9.18747 12.8033 9.71386C12.8033 10.2402 13.4457 10.667 14.2381 10.667Z" fill="#D2B8FF"/>
<path d="M18.0641 10.667C18.8565 10.667 19.4988 10.2402 19.4988 9.71386C19.4988 9.18747 18.8565 8.76074 18.0641 8.76074C17.2717 8.76074 16.6293 9.18747 16.6293 9.71386C16.6293 10.2402 17.2717 10.667 18.0641 10.667Z" fill="#D2B8FF"/>
<mask id="mask0_1350_44770" style="mask-type:alpha" maskUnits="userSpaceOnUse" x="0" y="0" width="92" height="92">
<path d="M46.1457 91.4321C71.2495 91.4321 91.6002 71.0914 91.6002 46C91.6002 20.9085 71.2495 0.567871 46.1457 0.567871C21.0418 0.567871 0.691139 20.9085 0.691139 46C0.691139 71.0914 21.0418 91.4321 46.1457 91.4321Z" fill="#FBF9FF"/>
</mask>
<g mask="url(#mask0_1350_44770)">
<g filter="url(#filter0_d_1350_44770)">
<path d="M84.7786 6.98193H6.99905C5.9786 6.98193 5.15137 7.80876 5.15137 8.8287V97.6029C5.15137 98.6228 5.9786 99.4497 6.99905 99.4497H84.7786C85.799 99.4497 86.6263 98.6228 86.6263 97.6029V8.8287C86.6263 7.80876 85.799 6.98193 84.7786 6.98193Z" fill="white"/>
</g>
<path d="M6.99907 7.08398H84.7979C85.7614 7.08415 86.5423 7.86555 86.5423 8.82872V15.1011H5.25347V8.82872C5.25347 7.86545 6.03532 7.08398 6.99907 7.08398Z" fill="#EDE3FF" stroke="#D2B8FF" stroke-width="0.180662"/>
<path fill-rule="evenodd" clip-rule="evenodd" d="M80.6192 9.1291C80.4961 9.1291 80.3976 9.22751 80.3976 9.35053C80.3976 9.60008 80.4761 9.84144 80.6192 10.0418C80.7622 9.84144 80.8407 9.60008 80.8407 9.35053C80.8407 9.22751 80.7423 9.1291 80.6192 9.1291ZM80.9146 10.3605C81.1419 10.0758 81.2685 9.71959 81.2685 9.3517C81.2685 8.98382 80.9779 8.70264 80.6192 8.70264C80.2605 8.70264 79.9698 8.9932 79.9698 9.3517C79.9698 9.71022 80.0964 10.0758 80.3238 10.3605L79.8866 10.7975C79.6017 10.5702 79.2454 10.4436 78.8773 10.4436C78.5092 10.4436 78.228 10.7342 78.228 11.0927C78.228 11.4513 78.5187 11.7418 78.8773 11.7418C79.236 11.7418 79.6017 11.6153 79.8866 11.388L80.3238 11.8249C80.0964 12.1097 79.9698 12.4659 79.9698 12.8337C79.9698 13.2015 80.2605 13.4828 80.6192 13.4828C80.9779 13.4828 81.2685 13.1922 81.2685 12.8337C81.2685 12.4752 81.1419 12.1097 80.9146 11.8249L81.3518 11.388C81.6366 11.6153 81.993 11.7418 82.361 11.7418C82.7291 11.7418 83.0105 11.4513 83.0105 11.0927C83.0105 10.7342 82.7198 10.4436 82.361 10.4436C82.0024 10.4436 81.6366 10.5702 81.3518 10.7975L80.9146 10.3605ZM80.6192 10.6698L80.196 11.0927L80.6192 11.5157L81.0424 11.0927L80.6192 10.6698ZM81.6706 11.0927C81.871 11.2356 82.1125 11.3141 82.3622 11.3141C82.4854 11.3141 82.5838 11.2157 82.5838 11.0927C82.5838 10.9697 82.4854 10.8713 82.3622 10.8713C82.1125 10.8713 81.871 10.9498 81.6706 11.0927ZM80.6192 12.1437C80.4761 12.344 80.3976 12.5854 80.3976 12.8349C80.3976 12.9579 80.4961 13.0563 80.6192 13.0563C80.7423 13.0563 80.8407 12.9579 80.8407 12.8349C80.8407 12.5854 80.7622 12.344 80.6192 12.1437ZM79.5677 11.0927C79.3673 10.9498 79.1258 10.8713 78.8762 10.8713C78.7531 10.8713 78.6546 10.9697 78.6546 11.0927C78.6546 11.2157 78.7531 11.3141 78.8762 11.3141C79.1258 11.3141 79.3673 11.2356 79.5677 11.0927Z" fill="#D2B8FF"/>
<path d="M10.4118 12.5273C11.2042 12.5273 11.8465 11.8852 11.8465 11.0932C11.8465 10.3012 11.2042 9.65918 10.4118 9.65918C9.61939 9.65918 8.97703 10.3012 8.97703 11.0932C8.97703 11.8852 9.61939 12.5273 10.4118 12.5273Z" fill="#D2B8FF"/>
<path d="M14.238 12.5273C15.0303 12.5273 15.6727 11.8852 15.6727 11.0932C15.6727 10.3012 15.0303 9.65918 14.238 9.65918C13.4456 9.65918 12.8032 10.3012 12.8032 11.0932C12.8032 11.8852 13.4456 12.5273 14.238 12.5273Z" fill="#D2B8FF"/>
<path d="M18.0641 12.5273C18.8565 12.5273 19.4988 11.8852 19.4988 11.0932C19.4988 10.3012 18.8565 9.65918 18.0641 9.65918C17.2717 9.65918 16.6293 10.3012 16.6293 11.0932C16.6293 11.8852 17.2717 12.5273 18.0641 12.5273Z" fill="#D2B8FF"/>
<path d="M22.0197 60.4318C22.8483 60.4238 23.6614 60.8196 24.1536 61.5597L32.0028 73.3271H60.221L68.0713 61.5597C68.5636 60.8196 69.3767 60.4237 70.2052 60.4318H91.6774C93.0743 60.4319 94.2065 61.5644 94.2065 62.9606V118.836C94.2063 120.232 93.0742 121.363 91.6774 121.364H0.547518C-0.849416 121.364 -1.98245 120.232 -1.98267 118.836V62.9606C-1.98267 61.5643 -0.849547 60.4318 0.547518 60.4318H22.0197Z" fill="#D2B8FF"/>
<mask id="mask1_1350_44770" style="mask-type:luminance" maskUnits="userSpaceOnUse" x="-2" y="60" width="97" height="62">
<path d="M22.0197 60.4318C22.8483 60.4238 23.6614 60.8196 24.1536 61.5597L32.0028 73.3271H60.221L68.0713 61.5597C68.5636 60.8196 69.3767 60.4237 70.2052 60.4318H91.6774C93.0743 60.4319 94.2065 61.5644 94.2065 62.9606V118.836C94.2063 120.232 93.0742 121.363 91.6774 121.364H0.547518C-0.849416 121.364 -1.98245 120.232 -1.98267 118.836V62.9606C-1.98267 61.5643 -0.849547 60.4318 0.547518 60.4318H22.0197Z" fill="white"/>
</mask>
<g mask="url(#mask1_1350_44770)">
<path d="M22.0197 60.4316V60.9661L22.0248 60.966L22.0197 60.4316ZM32.0028 73.327L31.5578 73.6234L31.7166 73.8615H32.0028V73.327ZM60.221 73.327V73.8615H60.5072L60.6659 73.6234L60.221 73.327ZM70.2052 60.4316L70.2001 60.966H70.2052V60.4316ZM22.0197 60.4316L22.0248 60.966C22.6806 60.9598 23.3206 61.2725 23.7084 61.8556L24.1536 61.5596L24.599 61.2637C24.0022 60.3664 23.0159 59.8875 22.0146 59.8971L22.0197 60.4316ZM24.1536 61.5596L23.7084 61.8556L31.5578 73.6234L32.0028 73.327L32.4477 73.0304L24.599 61.2637L24.1536 61.5596ZM32.0028 73.327V73.8615H60.221V73.327V72.7925H32.0028V73.327ZM60.221 73.327L60.6659 73.6234L68.5161 61.8561L68.0713 61.5596L67.6264 61.2631L59.7761 73.0304L60.221 73.327ZM68.0713 61.5596L68.5161 61.8561C68.904 61.273 69.5444 60.9598 70.2001 60.966L70.2052 60.4316L70.2105 59.8971C69.209 59.8875 68.2232 60.3661 67.6264 61.2631L68.0713 61.5596ZM70.2052 60.4316V60.966H91.6774V60.4316L91.6775 59.8971H70.2052V60.4316ZM91.6774 60.4316V60.966C92.7788 60.9662 93.6717 61.8592 93.6717 62.9605H94.2065H94.7413C94.7413 61.2693 93.37 59.8973 91.6775 59.8971L91.6774 60.4316ZM94.2065 62.9605H93.6717V118.835H94.2065H94.7413V62.9605H94.2065ZM94.2065 118.835H93.6717C93.6716 119.936 92.7789 120.829 91.6774 120.829V121.364V121.898C93.3694 121.898 94.741 120.527 94.7413 118.835H94.2065ZM91.6774 121.364V120.829H0.54752V121.364V121.898H91.6774V121.364ZM0.54752 121.364V120.829C-0.554299 120.829 -1.44774 119.936 -1.4479 118.835H-1.98266H-2.51743C-2.51716 120.527 -1.14453 121.898 0.54752 121.898V121.364ZM-1.98266 118.835H-1.4479V62.9605H-1.98266H-2.51743V118.835H-1.98266ZM-1.98266 62.9605H-1.4479C-1.4479 61.8593 -0.554206 60.966 0.54752 60.966V60.4316V59.8971C-1.14488 59.8971 -2.51743 61.2689 -2.51743 62.9605H-1.98266ZM0.54752 60.4316V60.966L22.0197 60.9661V60.4316V59.8971H0.54752V60.4316Z" fill="#E1D7F8"/>
</g>
</g>
<path d="M74.5321 26.1235H16.377C13.6082 26.1235 11.3636 27.1406 11.3636 28.3951C11.3636 29.6497 13.6082 30.6667 16.377 30.6667H74.5321C77.3009 30.6667 79.5454 29.6497 79.5454 28.3951C79.5454 27.1406 77.3009 26.1235 74.5321 26.1235Z" fill="#F3F3F3"/>
<path d="M70.0257 35.21H17.4743C14.0995 35.21 11.3636 36.227 11.3636 37.4816C11.3636 38.7361 14.0995 39.7532 17.4743 39.7532H70.0257C73.4005 39.7532 76.1364 38.7361 76.1364 37.4816C76.1364 36.227 73.4005 35.21 70.0257 35.21Z" fill="#D9DEE3" fill-opacity="0.3"/>
<path d="M47.3842 44.2964H15.1158C13.0435 44.2964 11.3636 45.3134 11.3636 46.568C11.3636 47.8226 13.0435 48.8396 15.1158 48.8396H47.3842C49.4565 48.8396 51.1364 47.8226 51.1364 46.568C51.1364 45.3134 49.4565 44.2964 47.3842 44.2964Z" fill="#D9DEE3" fill-opacity="0.3"/>
<path d="M6.83816 7.08398H84.9376C85.9014 7.08398 86.6832 7.86545 86.6832 8.82872V15.3362H5.09256V8.82872C5.09256 7.86545 5.87441 7.08398 6.83816 7.08398Z" fill="#E1D7F8" stroke="#E1D7F8" stroke-width="0.180662"/>
<path fill-rule="evenodd" clip-rule="evenodd" d="M47.006 9.12606C46.8755 9.12606 46.7709 9.23053 46.7709 9.36113C46.7709 9.62604 46.8542 9.88225 47.006 10.0949C47.1578 9.88225 47.2412 9.62604 47.2412 9.36113C47.2412 9.23053 47.1367 9.12606 47.006 9.12606ZM47.3197 10.4332C47.561 10.131 47.6955 9.75291 47.6955 9.36237C47.6955 8.97184 47.3868 8.67334 47.006 8.67334C46.6253 8.67334 46.3167 8.98179 46.3167 9.36237C46.3167 9.74296 46.451 10.131 46.6925 10.4332L46.2283 10.8971C45.9259 10.6559 45.5477 10.5215 45.1569 10.5215C44.7662 10.5215 44.4676 10.83 44.4676 11.2106C44.4676 11.5912 44.7761 11.8996 45.1569 11.8996C45.5377 11.8996 45.9259 11.7653 46.2283 11.5239L46.6925 11.9879C46.451 12.2902 46.3167 12.6683 46.3167 13.0588C46.3167 13.4492 46.6253 13.7477 47.006 13.7477C47.3868 13.7477 47.6955 13.4394 47.6955 13.0588C47.6955 12.6781 47.561 12.2902 47.3197 11.9879L47.7838 11.5239C48.0861 11.7653 48.4644 11.8996 48.8551 11.8996C49.2459 11.8996 49.5445 11.5912 49.5445 11.2106C49.5445 10.83 49.2359 10.5215 48.8551 10.5215C48.4744 10.5215 48.0861 10.6559 47.7838 10.8971L47.3197 10.4332ZM47.006 10.7616L46.5568 11.2106L47.006 11.6596L47.4552 11.2106L47.006 10.7616ZM48.1223 11.2106C48.335 11.3623 48.5914 11.4457 48.8564 11.4457C48.987 11.4457 49.0916 11.3412 49.0916 11.2106C49.0916 11.08 48.987 10.9755 48.8564 10.9755C48.5914 10.9755 48.335 11.0588 48.1223 11.2106ZM47.006 12.3262C46.8542 12.5389 46.7709 12.7951 46.7709 13.06C46.7709 13.1906 46.8755 13.2951 47.006 13.2951C47.1367 13.2951 47.2412 13.1906 47.2412 13.06C47.2412 12.7951 47.1578 12.5389 47.006 12.3262ZM45.8899 11.2106C45.677 11.0588 45.4208 10.9755 45.1557 10.9755C45.025 10.9755 44.9206 11.08 44.9206 11.2106C44.9206 11.3412 45.025 11.4457 45.1557 11.4457C45.4208 11.4457 45.677 11.3623 45.8899 11.2106Z" fill="#D2B8FF"/>
<path d="M83.0441 85.5526C87.7695 85.5526 91.6002 81.7237 91.6002 77.0007C91.6002 72.2776 87.7695 68.4487 83.0441 68.4487C78.3187 68.4487 74.4879 72.2776 74.4879 77.0007C74.4879 81.7237 78.3187 85.5526 83.0441 85.5526Z" fill="white"/>
<path fill-rule="evenodd" clip-rule="evenodd" d="M83.5788 88.8486C90.716 88.8486 96.5022 83.0654 96.5022 75.9316C96.5022 68.7977 90.716 63.0146 83.5788 63.0146C76.4414 63.0146 70.6555 68.7977 70.6555 75.9316C70.6555 83.0654 76.4414 88.8486 83.5788 88.8486ZM84.548 72.0565C84.548 71.5215 84.1141 71.0877 83.5788 71.0877C83.0435 71.0877 82.6096 71.5215 82.6096 72.0565V74.9628H79.7017C79.1665 74.9628 78.7325 75.3966 78.7325 75.9316C78.7325 76.4666 79.1665 76.9004 79.7017 76.9004H82.6096V79.8067C82.6096 80.3417 83.0435 80.7754 83.5788 80.7754C84.1141 80.7754 84.548 80.3417 84.548 79.8067V76.9004H87.4558C87.991 76.9004 88.425 76.4666 88.425 75.9316C88.425 75.3966 87.991 74.9628 87.4558 74.9628H84.548V72.0565Z" fill="#AE72FF"/>
<defs>
<filter id="filter0_d_1350_44770" x="0.534727" y="4.35094" width="90.7082" height="101.701" filterUnits="userSpaceOnUse" color-interpolation-filters="sRGB">
<feFlood flood-opacity="0" result="BackgroundImageFix"/>
<feColorMatrix in="SourceAlpha" type="matrix" values="0 0 0 0 0 0 0 0 0 0 0 0 0 0 0 0 0 0 127 0" result="hardAlpha"/>
<feOffset dy="1.98565"/>
<feGaussianBlur stdDeviation="2.30832"/>
<feComposite in2="hardAlpha" operator="out"/>
<feColorMatrix type="matrix" values="0 0 0 0 0.823529 0 0 0 0 0.721569 0 0 0 0 1 0 0 0 0.4 0"/>
<feBlend mode="normal" in2="BackgroundImageFix" result="effect1_dropShadow_1350_44770"/>
<feBlend mode="normal" in="SourceGraphic" in2="effect1_dropShadow_1350_44770" result="shape"/>
</filter>
</defs>
</svg>
