<svg width="120" height="81" viewBox="0 0 120 81" fill="none" xmlns="http://www.w3.org/2000/svg">
<path d="M59.8015 81C82.2673 81 100.479 62.8675 100.479 40.5C100.479 18.1325 82.2673 0 59.8015 0C37.3357 0 19.1235 18.1325 19.1235 40.5C19.1235 62.8675 37.3357 81 59.8015 81Z" fill="#FBF9FF"/>
<g filter="url(#filter0_d_11297_2151)">
<path d="M105.01 37.1171H15.0382C10.3058 37.1171 6.46948 40.9367 6.46948 45.6483V62.7108C6.46948 67.4225 10.3058 71.242 15.0382 71.242H105.01C109.742 71.242 113.579 67.4225 113.579 62.7108V45.6483C113.579 40.9367 109.742 37.1171 105.01 37.1171Z" fill="white"/>
</g>
<path d="M23.8489 56.3566L20.4493 58.2512L21.2085 54.4467L18.3479 51.8131L22.2168 51.3562L23.8489 47.8339L25.4809 51.3562L29.3498 51.8131L26.4892 54.4467L27.2483 58.2512L23.8489 56.3566Z" fill="#F9E683"/>
<path d="M40.986 56.3566L37.5865 58.2512L38.3457 54.4467L35.4851 51.8131L39.354 51.3562L40.986 47.8339L42.618 51.3562L46.487 51.8131L43.6264 54.4467L44.3854 58.2512L40.986 56.3566Z" fill="#F9E683"/>
<path d="M58.1234 56.3566L54.724 58.2512L55.4831 54.4467L52.6226 51.8131L56.4914 51.3562L58.1234 47.8339L59.7554 51.3562L63.6244 51.8131L60.7638 54.4467L61.5229 58.2512L58.1234 56.3566Z" fill="#F9E683"/>
<path d="M75.2605 56.3566L71.861 58.2512L72.6202 54.4467L69.7595 51.8131L73.6285 51.3562L75.2605 47.8339L76.8925 51.3562L80.7615 51.8131L77.9008 54.4467L78.66 58.2512L75.2605 56.3566Z" fill="#F9E683"/>
<g opacity="0.28">
<path d="M92.3981 56.3566L88.9986 58.2512L89.7578 54.4467L86.8972 51.8131L90.7661 51.3562L92.3981 47.8339L94.0302 51.3562L97.8991 51.8131L95.0385 54.4467L95.7977 58.2512L92.3981 56.3566Z" fill="#D2B8FF"/>
</g>
<path opacity="0.27" d="M109.281 22.8704H38.1928C37.2539 22.8704 36.4927 23.6283 36.4927 24.5631V27.6102C36.4927 28.545 37.2539 29.3029 38.1928 29.3029H109.281C110.22 29.3029 110.981 28.545 110.981 27.6102V24.5631C110.981 23.6283 110.22 22.8704 109.281 22.8704Z" fill="#D2B8FF"/>
<path opacity="0.27" d="M79.2576 13.7897H38.1928C37.2539 13.7897 36.4927 14.5475 36.4927 15.4824V18.9078C36.4927 19.8427 37.2539 20.6005 38.1928 20.6005H79.2576C80.1966 20.6005 80.9578 19.8427 80.9578 18.9078V15.4824C80.9578 14.5475 80.1966 13.7897 79.2576 13.7897Z" fill="#D2B8FF"/>
<path d="M30.9082 22.0664C30.9082 15.2628 25.3686 9.74744 18.5352 9.74744C11.7017 9.74744 6.16211 15.2628 6.16211 22.0664C6.16211 28.8699 11.7017 34.3853 18.5352 34.3853C25.3686 34.3853 30.9082 28.8699 30.9082 22.0664Z" stroke="white" stroke-width="0.510497"/>
<path d="M30.6486 22.0664C30.6486 15.4055 25.2252 10.0059 18.5351 10.0059C11.845 10.0059 6.42163 15.4055 6.42163 22.0664C6.42163 28.7272 11.845 34.1269 18.5351 34.1269C25.2252 34.1269 30.6486 28.7272 30.6486 22.0664Z" fill="#E2D2FF"/>
<defs>
<filter id="filter0_d_11297_2151" x="1.02614" y="33.7674" width="117.996" height="45.0116" filterUnits="userSpaceOnUse" color-interpolation-filters="sRGB">
<feFlood flood-opacity="0" result="BackgroundImageFix"/>
<feColorMatrix in="SourceAlpha" type="matrix" values="0 0 0 0 0 0 0 0 0 0 0 0 0 0 0 0 0 0 127 0" result="hardAlpha"/>
<feOffset dy="2.09359"/>
<feGaussianBlur stdDeviation="2.72167"/>
<feComposite in2="hardAlpha" operator="out"/>
<feColorMatrix type="matrix" values="0 0 0 0 0.823529 0 0 0 0 0.721569 0 0 0 0 1 0 0 0 0.4 0"/>
<feBlend mode="normal" in2="BackgroundImageFix" result="effect1_dropShadow_11297_2151"/>
<feBlend mode="normal" in="SourceGraphic" in2="effect1_dropShadow_11297_2151" result="shape"/>
</filter>
</defs>
</svg>
