<svg width="120" height="119" viewBox="0 0 120 119" fill="none" xmlns="http://www.w3.org/2000/svg">
<mask id="mask0_11297_2190" style="mask-type:luminance" maskUnits="userSpaceOnUse" x="0" y="1" width="120" height="117">
<path d="M119.406 1.65253H0.593994V117.347H119.406V1.65253Z" fill="white"/>
</mask>
<g mask="url(#mask0_11297_2190)">
<path d="M116.931 59.4998C116.931 27.5516 91.0725 1.65253 59.175 1.65253C27.2773 1.65253 1.41919 27.5516 1.41919 59.4998C1.41919 91.4478 27.2773 117.347 59.175 117.347C91.0725 117.347 116.931 91.4478 116.931 59.4998Z" fill="#FBF9FF"/>
<g opacity="0.65">
<path d="M102.122 10.4218H16.6696C13.6859 10.4218 11.2671 12.8444 11.2671 15.833V66.1969C11.2671 69.1853 13.6859 71.608 16.6696 71.608H102.122C105.106 71.608 107.525 69.1853 107.525 66.1969V15.833C107.525 12.8444 105.106 10.4218 102.122 10.4218Z" fill="#E8DEFF"/>
<path d="M99.2202 18.9249H19.572C18.3212 18.9249 17.3071 19.9406 17.3071 21.1934V31.2125C17.3071 32.4653 18.3212 33.481 19.572 33.481H99.2202C100.471 33.481 101.485 32.4653 101.485 31.2125V21.1934C101.485 19.9406 100.471 18.9249 99.2202 18.9249Z" fill="#FBF9FF"/>
<path d="M40.0818 38.0196H19.572C18.3212 38.0196 17.3071 39.0353 17.3071 40.2881V60.8309C17.3071 62.0838 18.3212 63.0994 19.572 63.0994H40.0818C41.3327 63.0994 42.3466 62.0838 42.3466 60.8309V40.2881C42.3466 39.0353 41.3327 38.0196 40.0818 38.0196Z" fill="white"/>
<path d="M69.6509 38.0196H49.1411C47.8903 38.0196 46.8762 39.0353 46.8762 40.2881V60.8309C46.8762 62.0838 47.8903 63.0994 49.1411 63.0994H69.6509C70.9018 63.0994 71.9158 62.0838 71.9158 60.8309V40.2881C71.9158 39.0353 70.9018 38.0196 69.6509 38.0196Z" fill="white"/>
<path d="M99.2199 38.0196H78.7101C77.4593 38.0196 76.4453 39.0353 76.4453 40.2881V60.8309C76.4453 62.0838 77.4593 63.0994 78.7101 63.0994H99.2199C100.471 63.0994 101.485 62.0838 101.485 60.8309V40.2881C101.485 39.0353 100.471 38.0196 99.2199 38.0196Z" fill="white"/>
</g>
<path d="M111.597 21.4874H7.19465C3.54921 21.4874 0.593994 24.4473 0.593994 28.0985V89.6314C0.593994 93.2827 3.54921 96.2426 7.19465 96.2426H111.597C115.243 96.2426 118.198 93.2827 118.198 89.6314V28.0985C118.198 24.4473 115.243 21.4874 111.597 21.4874Z" fill="#E8DEFF"/>
<path d="M108.052 31.8766H10.7405C9.21228 31.8766 7.97339 33.1175 7.97339 34.6482V46.8892C7.97339 48.4199 9.21228 49.6607 10.7405 49.6607H108.052C109.58 49.6607 110.819 48.4199 110.819 46.8892V34.6482C110.819 33.1175 109.58 31.8766 108.052 31.8766Z" fill="#FBF9FF"/>
<path d="M35.7986 55.206H10.7405C9.21228 55.206 7.97339 56.4468 7.97339 57.9775V83.0761C7.97339 84.6068 9.21228 85.8477 10.7405 85.8477H35.7986C37.3269 85.8477 38.5657 84.6068 38.5657 83.0761V57.9775C38.5657 56.4468 37.3269 55.206 35.7986 55.206Z" fill="white"/>
<path d="M71.9251 55.206H46.867C45.3388 55.206 44.0999 56.4468 44.0999 57.9775V83.0761C44.0999 84.6068 45.3388 85.8477 46.867 85.8477H71.9251C73.4534 85.8477 74.6922 84.6068 74.6922 83.0761V57.9775C74.6922 56.4468 73.4534 55.206 71.9251 55.206Z" fill="white"/>
<path d="M108.052 55.206H82.9934C81.4653 55.206 80.2263 56.4468 80.2263 57.9775V83.0761C80.2263 84.6068 81.4653 85.8477 82.9934 85.8477H108.052C109.58 85.8477 110.819 84.6068 110.819 83.0761V57.9775C110.819 56.4468 109.58 55.206 108.052 55.206Z" fill="white"/>
</g>
</svg>
