<svg width="120" height="115" viewBox="0 0 120 115" fill="none" xmlns="http://www.w3.org/2000/svg">
<g clip-path="url(#clip0_11297_2157)">
<mask id="mask0_11297_2157" style="mask-type:luminance" maskUnits="userSpaceOnUse" x="0" y="0" width="120" height="115">
<path d="M120 0.598969H0V114.401H120V0.598969Z" fill="white"/>
</mask>
<g mask="url(#mask0_11297_2157)">
<path d="M4.72177 82.5277L79.9373 97.3161C80.2582 95.6751 81.8473 94.6045 83.4841 94.9264C85.1208 95.2482 86.1887 96.841 85.8677 98.4821L85.3271 85.5041C87.0635 85.8455 81.4614 85.9259 81.802 84.1852L83.1688 71.9052C83.5092 70.1645 88.4715 65.0277 86.735 64.6863L96.8218 42.4846C96.5008 44.1255 94.9119 45.1962 93.275 44.8743C91.6383 44.5526 90.5705 42.9595 90.8914 41.3187L15.6759 26.5303C13.9395 26.1889 12.2402 27.3337 11.8997 29.0745L2.18386 78.7419C1.84333 80.4826 2.9854 82.1863 4.72177 82.5277ZM92.7232 47.6961C93.3837 47.826 93.8152 48.4695 93.6856 49.1318C93.556 49.7939 92.914 50.2266 92.2535 50.0967C91.5929 49.9668 91.1615 49.3232 91.2911 48.6609C91.4205 47.9989 92.0625 47.5662 92.7232 47.6961ZM91.9015 51.8959C92.5622 52.0258 92.9934 52.6694 92.864 53.3316C92.7345 53.9937 92.0925 54.4264 91.4319 54.2964C90.7714 54.1666 90.3399 53.5232 90.4695 52.8608C90.599 52.1986 91.241 51.7661 91.9015 51.8959ZM91.0795 56.0981C91.7401 56.2281 92.1714 56.8717 92.042 57.5338C91.9124 58.1961 91.2705 58.6286 90.6099 58.4987C89.9494 58.3689 89.5179 57.7253 89.6475 57.063C89.777 56.4008 90.419 55.9682 91.0795 56.0981ZM90.258 60.2979C90.9185 60.4278 91.3499 61.0715 91.2205 61.7336C91.0909 62.3959 90.4489 62.8283 89.7884 62.6986C89.1279 62.5688 88.6964 61.9251 88.826 61.2629C88.9555 60.6006 89.5973 60.1681 90.258 60.2979ZM89.4361 64.5003C90.0965 64.63 90.5281 65.2737 90.3985 65.936C90.2689 66.5982 89.6269 67.0308 88.9664 66.9009C88.3058 66.7709 87.8744 66.1274 88.004 65.4652C88.1333 64.8029 88.7753 64.3704 89.4361 64.5003ZM88.6143 68.7001C89.275 68.83 89.7063 69.4734 89.5767 70.1358C89.4473 70.798 88.8053 71.2305 88.1447 71.1007C87.4843 70.9708 87.0527 70.3272 87.1822 69.665C87.3118 69.0028 87.9538 68.5702 88.6143 68.7001ZM87.7928 72.8998C88.4532 73.0298 88.8848 73.6734 88.7553 74.3355C88.6257 74.9977 87.9838 75.4303 87.3232 75.3005C86.6627 75.1706 86.2312 74.527 86.3607 73.8647C86.4903 73.2025 87.1323 72.77 87.7928 72.8998ZM86.9708 77.1021C87.6313 77.232 88.0628 77.8756 87.9333 78.5378C87.8037 79.2001 87.1617 79.6326 86.5012 79.5026C85.8407 79.3728 85.4092 78.7293 85.5387 78.0669C85.6683 77.4048 86.3102 76.9722 86.9708 77.1021ZM86.1493 81.3019C86.8097 81.4318 87.2413 82.0754 87.1118 82.7376C86.9822 83.3999 86.3402 83.8324 85.6797 83.7024C85.019 83.5727 84.5877 82.929 84.7173 82.2667C84.8467 81.6046 85.4887 81.1719 86.1493 81.3019ZM85.3271 85.5041C85.9877 85.634 86.4191 86.2777 86.2895 86.9398C86.1602 87.6021 85.5182 88.0345 84.8575 87.9048C84.197 87.775 83.7654 87.1313 83.8951 86.4691C84.0247 85.8068 84.6667 85.3743 85.3271 85.5041ZM84.5056 89.7041C85.1661 89.8338 85.5976 90.4775 85.468 91.1398C85.3385 91.8019 84.6966 92.2346 84.036 92.1046C83.3755 91.9747 82.9439 91.3311 83.0735 90.6689C83.2031 90.0066 83.8451 89.5741 84.5056 89.7041Z" fill="#E2D2FF"/>
<path d="M59.2784 114.401C87.773 114.401 110.872 91.243 110.872 62.6761C110.872 34.109 87.773 10.9509 59.2784 10.9509C30.7838 10.9509 7.68433 34.109 7.68433 62.6761C7.68433 91.243 30.7838 114.401 59.2784 114.401Z" fill="#FBF9FF"/>
<mask id="mask1_11297_2157" style="mask-type:alpha" maskUnits="userSpaceOnUse" x="7" y="10" width="104" height="105">
<path d="M59.2784 114.401C87.773 114.401 110.872 91.243 110.872 62.6761C110.872 34.109 87.773 10.9509 59.2784 10.9509C30.7838 10.9509 7.68433 34.109 7.68433 62.6761C7.68433 91.243 30.7838 114.401 59.2784 114.401Z" fill="#FBF9FF"/>
</mask>
<g mask="url(#mask1_11297_2157)">
<path d="M5.52658 82.763L80.7421 97.5512C81.0631 95.9103 82.652 94.8398 84.2888 95.1615C85.9257 95.4834 86.9936 97.0763 86.6725 98.7173L103.638 102.053C105.374 102.394 107.074 101.249 107.414 99.5086L117.13 49.8411C117.471 48.1004 116.329 46.3968 114.592 46.0554L97.6267 42.7197C97.3056 44.3607 95.7168 45.4313 94.0798 45.1096C92.443 44.7877 91.3752 43.1948 91.6963 41.5538L16.4808 26.7654C14.7444 26.424 13.045 27.5689 12.7045 29.3098L2.98867 78.9771C2.64814 80.7179 3.79019 82.4216 5.52658 82.763ZM93.5278 47.9312C94.1886 48.0611 94.6198 48.7047 94.4904 49.367C94.3608 50.0293 93.7189 50.4617 93.0583 50.332C92.3978 50.202 91.9663 49.5584 92.0959 48.8963C92.2254 48.234 92.8674 47.8015 93.5278 47.9312ZM92.7063 52.1311C93.3668 52.2609 93.7983 52.9045 93.6688 53.5668C93.5392 54.2291 92.8972 54.6616 92.2368 54.5318C91.5763 54.4018 91.1448 53.7582 91.2744 53.0961C91.4038 52.4337 92.0457 52.0013 92.7063 52.1311ZM91.8843 56.3334C92.5449 56.4633 92.9763 57.1067 92.8468 57.769C92.7172 58.4312 92.0752 58.8638 91.4148 58.7339C90.754 58.6041 90.3228 57.9604 90.4524 57.2982C90.5818 56.636 91.2237 56.2035 91.8843 56.3334ZM91.0627 60.5332C91.7234 60.6631 92.1547 61.3067 92.0253 61.9689C91.8957 62.631 91.2537 63.0636 90.5932 62.9337C89.9326 62.8039 89.5012 62.1602 89.6306 61.498C89.7602 60.8359 90.4022 60.4032 91.0627 60.5332ZM90.2407 64.7354C90.9014 64.8652 91.3327 65.5089 91.2031 66.1711C91.0736 66.8333 90.4317 67.2659 89.7711 67.136C89.1106 67.006 88.6791 66.3626 88.8086 65.7003C88.9382 65.0381 89.5802 64.6055 90.2407 64.7354ZM89.4192 68.9352C90.0796 69.065 90.5112 69.7087 90.3816 70.3709C90.2521 71.0332 89.6101 71.4656 88.9496 71.3358C88.2891 71.2061 87.8576 70.5624 87.9871 69.9001C88.1167 69.2379 88.7587 68.8053 89.4192 68.9352ZM88.5976 73.1349C89.2581 73.2648 89.6896 73.9084 89.56 74.5706C89.4306 75.233 88.7886 75.6654 88.1281 75.5357C87.4674 75.4058 87.0361 74.7622 87.1656 74.1C87.2952 73.4376 87.937 73.0052 88.5976 73.1349ZM87.7755 77.3373C88.4361 77.4671 88.8675 78.1107 88.7382 78.7731C88.6086 79.4353 87.9666 79.8678 87.3061 79.738C86.6454 79.608 86.2141 78.9644 86.3434 78.3023C86.473 77.6399 87.115 77.2075 87.7755 77.3373ZM86.954 81.5371C87.6146 81.667 88.046 82.3105 87.9164 82.9728C87.7868 83.635 87.145 84.0676 86.4843 83.9378C85.8238 83.8078 85.3923 83.1641 85.5219 82.502C85.6515 81.8398 86.2935 81.4073 86.954 81.5371ZM86.132 85.7393C86.7925 85.8693 87.224 86.5129 87.0944 87.175C86.9648 87.8372 86.3228 88.2698 85.6623 88.1399C85.0018 88.0101 84.5703 87.3664 84.6999 86.7042C84.8295 86.042 85.4715 85.6094 86.132 85.7393ZM85.3105 89.9392C85.971 90.069 86.4025 90.7127 86.2729 91.3748C86.1434 92.0371 85.5014 92.4696 84.8409 92.3397C84.1802 92.2098 83.7488 91.5663 83.8784 90.904C84.008 90.2419 84.6499 89.8092 85.3105 89.9392Z" fill="#E2D2FF"/>
<path d="M35.2704 62.2079C29.4169 62.4283 25.8919 58.9159 25.724 54.4377C25.5529 49.8711 28.9161 46.1213 34.6813 45.9041C40.6886 45.6779 44.0818 49.1953 44.2506 53.6957C44.42 58.2182 41.0796 61.989 35.2704 62.2079ZM41.4711 76.5551L34.0556 76.8344L51.3052 46.1397L58.8529 45.8553L41.4711 76.5551ZM35.1043 56.6028C36.0505 56.5672 36.5676 55.6641 36.5065 54.0315C36.4419 52.3108 35.8579 51.4271 34.8897 51.4635C33.9435 51.4991 33.4263 52.4022 33.4909 54.123C33.5528 55.7776 34.1361 56.6392 35.1043 56.6028ZM57.8472 76.6453C52.016 76.865 48.4695 73.3753 48.3026 68.9191C48.1305 64.3305 51.5158 60.5799 57.2811 60.3627C63.2665 60.1374 66.6596 63.6546 66.8282 68.155C66.9976 72.6775 63.6786 76.4257 57.8472 76.6453ZM57.6829 71.0843C58.6512 71.0479 59.1673 70.1226 59.1062 68.4901C59.0416 66.7694 58.4356 65.8864 57.4674 65.9228C56.5212 65.9584 56.0042 66.8615 56.0685 68.5825C56.1298 70.2149 56.7146 71.1207 57.6829 71.0843Z" fill="#F1EAFF"/>
</g>
<path d="M100.225 107.7C105.589 107.7 109.937 103.341 109.937 97.9636C109.937 92.5863 105.589 88.2271 100.225 88.2271C94.8614 88.2271 90.5132 92.5863 90.5132 97.9636C90.5132 103.341 94.8614 107.7 100.225 107.7Z" fill="white"/>
<path fill-rule="evenodd" clip-rule="evenodd" d="M100.832 111.452C108.933 111.452 115.501 104.868 115.501 96.7459C115.501 88.624 108.933 82.0398 100.832 82.0398C92.7304 82.0398 86.1631 88.624 86.1631 96.7459C86.1631 104.868 92.7304 111.452 100.832 111.452ZM101.932 92.3341C101.932 91.725 101.44 91.2312 100.832 91.2312C100.224 91.2312 99.7319 91.725 99.7319 92.3341V95.643H96.4314C95.8237 95.643 95.3311 96.1369 95.3311 96.7459C95.3311 97.355 95.8237 97.8489 96.4314 97.8489H99.7319V101.158C99.7319 101.767 100.224 102.261 100.832 102.261C101.44 102.261 101.932 101.767 101.932 101.158V97.8489H105.233C105.84 97.8489 106.333 97.355 106.333 96.7459C106.333 96.1369 105.84 95.643 105.233 95.643H101.932V92.3341Z" fill="#AE72FF"/>
<path d="M65.6268 26.1572C72.6667 26.1572 78.3735 20.4359 78.3735 13.3781C78.3735 6.32039 72.6667 0.598969 65.6268 0.598969C58.587 0.598969 52.8801 6.32039 52.8801 13.3781C52.8801 20.4359 58.587 26.1572 65.6268 26.1572Z" fill="#FFA97D"/>
<path d="M65.5811 20.5068C62.9246 20.5068 60.7715 18.3479 60.7715 15.6851C60.7715 14.3004 61.3537 13.052 62.2861 12.1726C63.1466 11.3608 65.2603 9.89867 64.9397 6.68448C68.7874 9.25608 70.7112 11.8277 66.8636 15.6851C67.5048 15.6851 68.4667 15.6851 70.0699 14.0969C70.243 14.5942 70.3904 15.1286 70.3904 15.6851C70.3904 18.3479 68.2372 20.5068 65.5811 20.5068Z" fill="#FFEDE6"/>
</g>
</g>
<defs>
<clipPath id="clip0_11297_2157">
<rect width="120" height="115" fill="white"/>
</clipPath>
</defs>
</svg>
