<svg width="120" height="119" viewBox="0 0 120 119" fill="none" xmlns="http://www.w3.org/2000/svg">
<mask id="mask0_11297_2202" style="mask-type:luminance" maskUnits="userSpaceOnUse" x="0" y="1" width="120" height="117">
<path d="M119.406 1.785H0.593994V117.215H119.406V1.785Z" fill="white"/>
</mask>
<g mask="url(#mask0_11297_2202)">
<path d="M116.931 59.5C116.931 27.6249 91.0726 1.785 59.175 1.785C27.2774 1.785 1.41919 27.6249 1.41919 59.5C1.41919 91.3751 27.2774 117.215 59.175 117.215C91.0726 117.215 116.931 91.3751 116.931 59.5Z" fill="#FBF9FF"/>
<path d="M111.597 21.5734H7.19466C3.54921 21.5734 0.593994 24.5265 0.593994 28.1694V89.5616C0.593994 93.2045 3.54921 96.1577 7.19466 96.1577H111.597C115.243 96.1577 118.198 93.2045 118.198 89.5616V28.1694C118.198 24.5265 115.243 21.5734 111.597 21.5734Z" fill="#E8DEFF"/>
<path d="M108.052 31.9418H10.7403C9.21203 31.9418 7.97314 33.1798 7.97314 34.707V46.9199C7.97314 48.4472 9.21203 49.6851 10.7403 49.6851H108.052C109.58 49.6851 110.819 48.4472 110.819 46.9199V34.707C110.819 33.1798 109.58 31.9418 108.052 31.9418Z" fill="#FBF9FF"/>
<path d="M35.7984 55.2165H10.7403C9.21203 55.2165 7.97314 56.4544 7.97314 57.9817V83.023C7.97314 84.5501 9.21203 85.7881 10.7403 85.7881H35.7984C37.3267 85.7881 38.5655 84.5501 38.5655 83.023V57.9817C38.5655 56.4544 37.3267 55.2165 35.7984 55.2165Z" fill="white"/>
<path d="M71.9251 55.2165H46.867C45.3387 55.2165 44.0999 56.4544 44.0999 57.9817V83.023C44.0999 84.5501 45.3387 85.7881 46.867 85.7881H71.9251C73.4533 85.7881 74.6922 84.5501 74.6922 83.023V57.9817C74.6922 56.4544 73.4533 55.2165 71.9251 55.2165Z" fill="white"/>
<path d="M108.052 55.2165H82.9937C81.4655 55.2165 80.2266 56.4544 80.2266 57.9817V83.023C80.2266 84.5501 81.4655 85.7881 82.9937 85.7881H108.052C109.58 85.7881 110.819 84.5501 110.819 83.023V57.9817C110.819 56.4544 109.58 55.2165 108.052 55.2165Z" fill="white"/>
<path d="M59.4175 40.9735C68.2095 40.9735 75.3368 33.8512 75.3368 25.0654C75.3368 16.2797 68.2095 9.15741 59.4175 9.15741C50.6256 9.15741 43.4983 16.2797 43.4983 25.0654C43.4983 33.8512 50.6256 40.9735 59.4175 40.9735Z" fill="#FFC2A7"/>
<path d="M59.6957 19.0516L61.1331 19.3447L58.3901 32.2436L56.9526 31.9504L59.6957 19.0516ZM64.6094 25.6476L61.9766 23.0165V20.9425L66.685 25.6476L61.9766 30.3455V28.2713L64.6094 25.6476ZM51.4009 25.6476L56.1093 20.9425V23.0165L53.4764 25.6476L56.1093 28.2713V30.3455L51.4009 25.6476Z" fill="#FFEDE6"/>
</g>
</svg>
