<svg width="120" height="117" viewBox="0 0 120 117" fill="none" xmlns="http://www.w3.org/2000/svg">
<path d="M117.67 58.5C117.67 26.1913 91.5894 0 59.4175 0C27.2455 0 1.16504 26.1913 1.16504 58.5C1.16504 90.8087 27.2455 117 59.4175 117C91.5894 117 117.67 90.8087 117.67 58.5Z" fill="#FBF9FF"/>
<path d="M112.29 20.0572H6.99019C3.31339 20.0572 0.332764 23.0505 0.332764 26.7429V88.9702C0.332764 92.6626 3.31339 95.6559 6.99019 95.6559H112.29C115.967 95.6559 118.948 92.6626 118.948 88.9702V26.7429C118.948 23.0505 115.967 20.0572 112.29 20.0572Z" fill="#E8DEFF"/>
<path d="M108.715 30.5676H10.5663C9.02494 30.5676 7.77539 31.8225 7.77539 33.3704V45.7495C7.77539 47.2974 9.02494 48.5523 10.5663 48.5523H108.715C110.256 48.5523 111.505 47.2974 111.505 45.7495V33.3704C111.505 31.8225 110.256 30.5676 108.715 30.5676Z" fill="#FBF9FF"/>
<path d="M35.8399 54.158H10.5663C9.02494 54.158 7.77539 55.4129 7.77539 56.9608V82.3426C7.77539 83.8905 9.02494 85.1454 10.5663 85.1454H35.8399C37.3813 85.1454 38.6309 83.8905 38.6309 82.3426V56.9608C38.6309 55.4129 37.3813 54.158 35.8399 54.158Z" fill="white"/>
<path d="M72.2774 54.158H47.0038C45.4624 54.158 44.2129 55.4129 44.2129 56.9608V82.3426C44.2129 83.8905 45.4624 85.1454 47.0038 85.1454H72.2774C73.8188 85.1454 75.0684 83.8905 75.0684 82.3426V56.9608C75.0684 55.4129 73.8188 54.158 72.2774 54.158Z" fill="white"/>
<path d="M108.715 54.158H83.4411C81.8997 54.158 80.6501 55.4129 80.6501 56.9608V82.3426C80.6501 83.8905 81.8997 85.1454 83.4411 85.1454H108.715C110.256 85.1454 111.506 83.8905 111.506 82.3426V56.9608C111.506 55.4129 110.256 54.158 108.715 54.158Z" fill="white"/>
<path d="M59.6623 39.7212C68.5299 39.7212 75.7184 32.502 75.7184 23.5968C75.7184 14.6916 68.5299 7.47244 59.6623 7.47244C50.7948 7.47244 43.6062 14.6916 43.6062 23.5968C43.6062 32.502 50.7948 39.7212 59.6623 39.7212Z" fill="#FFC2A7"/>
<path d="M63.0213 22.1744L65.1839 24.5013C65.5348 24.8738 65.8137 25.3174 66.0047 25.8064C66.1956 26.2954 66.2948 26.8202 66.2964 27.3507C66.298 27.8811 66.2022 28.4066 66.0143 28.897C65.8264 29.3875 65.5502 29.833 65.2016 30.208C64.853 30.5831 64.439 30.8803 63.9832 31.0824C63.5274 31.2846 63.039 31.3878 62.546 31.3859C62.0531 31.3842 61.5653 31.2775 61.1108 31.0721C60.6563 30.8667 60.2441 30.5665 59.8978 30.1889L59.1775 29.4138C59.0801 29.3127 59.0024 29.1917 58.9489 29.0579C58.8953 28.924 58.8672 28.7801 58.866 28.6346C58.8647 28.4889 58.8904 28.3444 58.9417 28.2096C58.9928 28.0747 59.0684 27.9522 59.1641 27.8493C59.2599 27.7462 59.3736 27.6646 59.4988 27.6095C59.6242 27.5543 59.7584 27.5265 59.8936 27.5276C60.029 27.5288 60.1629 27.559 60.2872 27.6164C60.4116 27.6739 60.5242 27.7574 60.6182 27.8621L61.3399 28.638C61.6592 28.9782 62.0906 29.1687 62.5399 29.1675C62.9892 29.1664 63.4198 28.9739 63.7375 28.6319C64.0552 28.29 64.234 27.8267 64.235 27.3431C64.2359 26.8597 64.0588 26.3955 63.7424 26.0523L61.5799 23.7254C61.3461 23.4738 61.0493 23.301 60.7256 23.2283C60.402 23.1556 60.0656 23.186 59.7578 23.3159C59.6482 23.3627 59.5454 23.4105 59.4493 23.4592L59.1339 23.618C58.7126 23.8227 58.3884 23.9105 57.9759 23.4673C57.3833 22.8296 57.5369 22.241 58.2593 21.705C58.979 21.1722 59.8493 20.9273 60.7192 21.0131C61.5891 21.0988 62.4036 21.5097 63.0213 22.1744ZM58.9369 17.7797L59.6573 18.5548C59.8431 18.7615 59.946 19.0386 59.9437 19.3262C59.9415 19.6137 59.8345 19.8889 59.6455 20.0924C59.4566 20.2959 59.201 20.4113 58.9337 20.4139C58.6664 20.4166 58.4088 20.3062 58.2164 20.1064L57.4954 19.3313C57.3387 19.1566 57.1514 19.0173 56.944 18.9215C56.7367 18.8256 56.5138 18.7751 56.2883 18.7729C56.0626 18.7708 55.8389 18.817 55.63 18.9088C55.4213 19.0007 55.2315 19.1363 55.072 19.3079C54.9124 19.4795 54.7862 19.6836 54.7007 19.9082C54.6152 20.1329 54.5722 20.3735 54.574 20.6163C54.5759 20.8591 54.6227 21.0989 54.7117 21.3221C54.8008 21.5451 54.9301 21.7469 55.0924 21.9156L57.2548 24.2424C57.4885 24.4941 57.7855 24.6667 58.1091 24.7395C58.4328 24.8123 58.769 24.7818 59.0768 24.6519C59.1866 24.6051 59.2893 24.5573 59.3855 24.5086L59.7007 24.3499C60.1221 24.1452 60.4469 24.0574 60.8588 24.5005C61.4514 25.1381 61.2979 25.7269 60.5754 26.2629C59.8558 26.7957 58.9854 27.0404 58.1156 26.9547C57.2456 26.8689 56.431 26.458 55.8134 25.7933L53.6509 23.4666C53.2999 23.094 53.021 22.6505 52.8301 22.1614C52.6391 21.6724 52.54 21.1475 52.5384 20.6171C52.5367 20.0867 52.6326 19.5612 52.8204 19.0708C53.0083 18.5804 53.2846 18.1349 53.6331 17.7598C53.9817 17.3847 54.3958 17.0875 54.8516 16.8853C55.3073 16.6831 55.7957 16.5801 56.2886 16.5818C56.7817 16.5836 57.2694 16.6903 57.7239 16.8957C58.1785 17.1012 58.5907 17.402 58.9369 17.7797Z" fill="#FFEDE6"/>
</svg>
