<svg width="100" height="101" viewBox="0 0 100 101" fill="none" xmlns="http://www.w3.org/2000/svg">
<ellipse cx="50.8136" cy="49.9997" rx="49.1864" ry="49.9997" fill="#FBF9FF"/>
<path opacity="0.2" d="M72.5387 40.778C70.4033 40.778 68.471 39.8621 67.1064 38.3955C65.7418 39.8621 63.8147 40.778 61.6741 40.778C59.5335 40.778 57.6064 39.8621 56.2418 38.3955C54.8772 39.8621 52.9501 40.778 50.8095 40.778C48.6689 40.778 46.7418 39.8621 45.3772 38.3955C44.0126 39.8621 42.0855 40.778 39.9449 40.778C37.8043 40.778 35.8772 39.8621 34.5126 38.3955C33.148 39.8621 31.2209 40.778 29.0803 40.778C29.0022 40.778 28.9241 40.7674 28.8459 40.7674V90.8794C28.8459 92.3566 30.0282 93.5584 31.4813 93.5584H38.0178C39.0855 93.5584 40.0595 92.8913 40.4032 91.8589C41.0803 89.81 42.9397 88.2322 45.1272 88.2322H56.4866C58.6741 88.2322 60.5335 89.81 61.2105 91.8589C61.5491 92.886 62.5282 93.5584 63.596 93.5584H70.1272C71.5803 93.5584 72.7626 92.3566 72.7626 90.8794V40.7674C72.6845 40.7674 72.6064 40.778 72.5283 40.778H72.5387Z" fill="url(#paint0_linear_1206_36998)"/>
<path d="M25.9404 14.2527V8.44466C25.9404 6.06215 27.8414 4.12968 30.1852 4.12968H37.6904C38.2477 4.12968 38.7008 4.59029 38.7008 5.1568C38.7008 6.13627 39.4873 6.93574 40.4508 6.93574H61.18C62.1435 6.93574 62.93 6.13627 62.93 5.1568C62.93 4.59029 63.3831 4.12968 63.9404 4.12968H71.4456C73.7894 4.12968 75.6904 6.06215 75.6904 8.44466V14.2527H78.8727V5.93508C78.8727 2.65782 76.2581 0 73.0341 0H28.5966C25.3727 0 22.7581 2.65782 22.7581 5.93508V14.2527H25.9404Z" fill="#E8DEFF"/>
<path d="M77.9664 38.3965C77.3258 38.9582 76.5498 39.4128 75.6956 39.7429V81.9803C75.6956 83.91 73.7946 85.4751 71.4508 85.4751H63.68C63.1227 85.4751 62.6696 85.102 62.6696 84.6432V82.6793C62.6696 81.8431 61.8414 81.1613 60.8258 81.1613H40.8102C39.7945 81.1613 38.9664 81.8431 38.9664 82.6793V84.6432C38.9664 85.102 38.5133 85.4751 37.956 85.4751H30.1852C27.8414 85.4751 25.9404 83.91 25.9404 81.9803V39.7429C25.081 39.4128 24.3102 38.9539 23.6695 38.3965C23.3883 38.6409 23.081 38.8596 22.7581 39.0611V84.0172C22.7581 86.6715 25.3727 88.8241 28.5966 88.8241H73.0341C76.2581 88.8241 78.8727 86.6715 78.8727 84.0172V39.0611C78.5498 38.8596 78.2425 38.6409 77.9612 38.3965H77.9664Z" fill="#E8DEFF"/>
<path d="M56.228 82.8682H45.5769C45.1656 82.8682 44.8322 83.1427 44.8322 83.4814V86.007C44.8322 86.3457 45.1656 86.6202 45.5769 86.6202H56.228C56.6393 86.6202 56.9728 86.3457 56.9728 86.007V83.4814C56.9728 83.1427 56.6393 82.8682 56.228 82.8682Z" fill="white"/>
<path d="M23.6654 30.5749H12.806L22.7591 24.0469H30.7748L23.6654 30.5749Z" fill="#D2B8FF"/>
<path d="M34.5289 30.5749H23.6643L30.7737 24.0469H38.7893L34.5289 30.5749Z" fill="#E1D7F8"/>
<path d="M45.3889 30.5749H34.5295L38.7899 24.0469H46.8107L45.3889 30.5749Z" fill="#D2B8FF"/>
<path d="M56.2482 30.5749H45.3888L46.8107 24.0469H54.8263L56.2482 30.5749Z" fill="#E1D7F8"/>
<path d="M67.1085 30.5749H56.2491L54.8272 24.0469H62.8428L67.1085 30.5749Z" fill="#D2B8FF"/>
<path d="M77.9668 30.5749H67.1074L62.8418 24.0469H70.8626L77.9668 30.5749Z" fill="#E1D7F8"/>
<path d="M88.831 30.5749H77.9664L70.8623 24.0469H78.8779L88.831 30.5749Z" fill="#D2B8FF"/>
<path d="M30.7737 16.9326H22.7581V24.0484H30.7737V16.9326Z" fill="#E1D7F8"/>
<path d="M38.7903 16.9326H30.7746V24.0484H38.7903V16.9326Z" fill="#D2B8FF"/>
<path d="M46.8049 16.9326H38.7892V24.0484H46.8049V16.9326Z" fill="#E1D7F8"/>
<path d="M54.8253 16.9326H46.8097V24.0484H54.8253V16.9326Z" fill="#D2B8FF"/>
<path d="M62.8428 16.9326H54.8272V24.0484H62.8428V16.9326Z" fill="#E1D7F8"/>
<path d="M70.8574 16.9326H62.8418V24.0484H70.8574V16.9326Z" fill="#D2B8FF"/>
<path d="M78.8779 16.9326H70.8623V24.0484H78.8779V16.9326Z" fill="#E1D7F8"/>
<path d="M23.6654 31.7939C23.6654 34.8435 21.2331 37.316 18.2331 37.316C15.2331 37.316 12.806 34.8435 12.806 31.7939V30.5762H23.6654V31.7939Z" fill="#D2B8FF"/>
<path d="M45.3882 31.7939C45.3882 34.8435 42.9559 37.316 39.9559 37.316C36.9559 37.316 34.5236 34.8435 34.5236 31.7939V30.5762H45.383V31.7939H45.3882Z" fill="#D2B8FF"/>
<path d="M67.1078 31.7939C67.1078 34.8435 64.6755 37.316 61.6755 37.316C58.6755 37.316 56.2432 34.8435 56.2432 31.7939V30.5762H67.1026V31.7939H67.1078Z" fill="#D2B8FF"/>
<path d="M88.8313 31.7939C88.8313 34.8435 86.399 37.316 83.399 37.316C80.399 37.316 77.9667 34.8435 77.9667 31.7939V30.5762H88.8261V31.7939H88.8313Z" fill="#D2B8FF"/>
<path d="M34.5289 31.7939C34.5289 34.8435 32.0966 37.316 29.0966 37.316C26.0966 37.316 23.6643 34.8435 23.6643 31.7939V30.5762H34.5237V31.7939H34.5289Z" fill="#E1D7F8"/>
<path d="M56.2485 31.7939C56.2485 34.8435 53.8162 37.316 50.8162 37.316C47.8162 37.316 45.3839 34.8435 45.3839 31.7939V30.5762H56.2433V31.7939H56.2485Z" fill="#E1D7F8"/>
<path d="M77.9661 31.7939C77.9661 34.8435 75.5338 37.316 72.5338 37.316C69.5338 37.316 67.1015 34.8435 67.1015 31.7939V30.5762H77.9609V31.7939H77.9661Z" fill="#E1D7F8"/>
<path d="M23.6645 31.7939C23.8208 34.8118 21.1958 37.5014 18.2322 37.4484C15.2687 37.5014 12.6437 34.8171 12.7999 31.7939C12.8468 34.7112 15.3624 37.2472 18.2322 37.1837C21.0968 37.2472 23.6177 34.7112 23.6645 31.7939Z" fill="#E1D7F8"/>
<path d="M45.39 31.7939C45.5462 34.8118 42.9212 37.5014 39.9577 37.4484C36.9941 37.5014 34.3691 34.8171 34.5254 31.7939C34.5723 34.7112 37.0879 37.2472 39.9577 37.1837C42.8223 37.2472 45.3431 34.7112 45.39 31.7939Z" fill="#E1D7F8"/>
<path d="M67.1076 31.7939C67.2639 34.8118 64.6389 37.5014 61.6753 37.4484C58.7118 37.5014 56.0868 34.8171 56.243 31.7939C56.2899 34.7112 58.8055 37.2472 61.6753 37.1837C64.5399 37.2472 67.0607 34.7112 67.1076 31.7939Z" fill="#E1D7F8"/>
<path d="M88.8311 31.7939C88.9874 34.8118 86.3624 37.5014 83.3988 37.4484C80.4353 37.5014 77.8103 34.8171 77.9665 31.7939C78.0134 34.7112 80.529 37.2472 83.3988 37.1837C86.2634 37.2472 88.7842 34.7112 88.8311 31.7939Z" fill="#E1D7F8"/>
<path d="M34.5297 31.7939C34.6859 34.8118 32.0609 37.5014 29.0974 37.4484C26.1339 37.5014 23.5088 34.8171 23.6651 31.7939C23.712 34.7112 26.2276 37.2472 29.0974 37.1837C31.962 37.2472 34.4828 34.7112 34.5297 31.7939Z" fill="#E1D7F8"/>
<path d="M56.2483 31.7939C56.4046 34.8118 53.7796 37.5014 50.816 37.4484C47.8525 37.5014 45.2275 34.8171 45.3837 31.7939C45.4306 34.7112 47.9462 37.2472 50.816 37.1837C53.6806 37.2472 56.2014 34.7112 56.2483 31.7939Z" fill="#D2B8FF"/>
<path d="M77.9669 31.7939C78.1232 34.8118 75.4982 37.5014 72.5346 37.4484C69.5711 37.5014 66.9461 34.8171 67.1023 31.7939C67.1492 34.7112 69.6648 37.2472 72.5346 37.1837C75.3992 37.2472 77.92 34.7112 77.9669 31.7939Z" fill="#D2B8FF"/>
<path fill-rule="evenodd" clip-rule="evenodd" d="M50.4971 45.4426C49.8605 45.4426 49.3513 45.9603 49.3513 46.6074C49.3513 47.9201 49.7575 49.1897 50.4971 50.2436C51.2368 49.1897 51.643 47.9201 51.643 46.6074C51.643 45.9603 51.1337 45.4426 50.4971 45.4426ZM52.025 51.9199C53.2012 50.4223 53.8559 48.5487 53.8559 46.6135C53.8559 44.6783 52.3524 43.1992 50.4971 43.1992C48.6419 43.1992 47.1384 44.7277 47.1384 46.6135C47.1384 48.4994 47.7931 50.4223 48.9693 51.9199L46.7079 54.2187C45.2346 53.0231 43.3915 52.3575 41.4878 52.3575C39.5841 52.3575 38.129 53.8859 38.129 55.7718C38.129 57.6577 39.6326 59.1861 41.4878 59.1861C43.343 59.1861 45.2346 58.5205 46.7079 57.3249L48.9693 59.6237C47.7931 61.1213 47.1384 62.9949 47.1384 64.9301C47.1384 66.8653 48.6419 68.3444 50.4971 68.3444C52.3524 68.3444 53.8559 66.816 53.8559 64.9301C53.8559 63.0442 53.2012 61.1213 52.025 59.6237L54.2864 57.3249C55.7596 58.5205 57.6027 59.1861 59.5065 59.1861C61.4102 59.1861 62.8652 57.6577 62.8652 55.7718C62.8652 53.8859 61.3617 52.3575 59.5065 52.3575C57.6512 52.3575 55.7596 53.0231 54.2864 54.2187L52.025 51.9199ZM50.4971 53.547L48.3085 55.7718L50.4971 57.9967L52.6858 55.7718L50.4971 53.547ZM55.9355 55.7718C56.9722 56.5237 58.2211 56.9366 59.5125 56.9366C60.1491 56.9366 60.6584 56.4189 60.6584 55.7718C60.6584 55.1247 60.1491 54.607 59.5125 54.607C58.2211 54.607 56.9722 55.0199 55.9355 55.7718ZM50.4971 61.3001C49.7575 62.3539 49.3513 63.6235 49.3513 64.9363C49.3513 65.5834 49.8605 66.1011 50.4971 66.1011C51.1337 66.1011 51.643 65.5834 51.643 64.9363C51.643 63.6235 51.2368 62.3539 50.4971 61.3001ZM45.0588 55.7718C44.0221 55.0199 42.7731 54.607 41.4818 54.607C40.8452 54.607 40.3359 55.1247 40.3359 55.7718C40.3359 56.4189 40.8452 56.9366 41.4818 56.9366C42.7731 56.9366 44.0221 56.5237 45.0588 55.7718Z" fill="#EADDFF"/>
<mask id="mask0_1206_36998" style="mask-type:alpha" maskUnits="userSpaceOnUse" x="1" y="0" width="99" height="100">
<ellipse cx="50.8136" cy="49.9997" rx="49.1864" ry="49.9997" fill="#FBF9FF"/>
</mask>
<g mask="url(#mask0_1206_36998)">
<path opacity="0.2" d="M72.5387 40.778C70.4033 40.778 68.471 39.8621 67.1064 38.3955C65.7418 39.8621 63.8147 40.778 61.6741 40.778C59.5335 40.778 57.6064 39.8621 56.2418 38.3955C54.8772 39.8621 52.9501 40.778 50.8095 40.778C48.6689 40.778 46.7418 39.8621 45.3772 38.3955C44.0126 39.8621 42.0855 40.778 39.9449 40.778C37.8043 40.778 35.8772 39.8621 34.5126 38.3955C33.148 39.8621 31.2209 40.778 29.0803 40.778C29.0022 40.778 28.9241 40.7674 28.8459 40.7674V90.8794C28.8459 92.3566 30.0282 93.5584 31.4813 93.5584H38.0178C39.0855 93.5584 40.0595 92.8913 40.4032 91.8589C41.0803 89.81 42.9397 88.2322 45.1272 88.2322H56.4866C58.6741 88.2322 60.5335 89.81 61.2105 91.8589C61.5491 92.886 62.5282 93.5584 63.596 93.5584H70.1272C71.5803 93.5584 72.7626 92.3566 72.7626 90.8794V40.7674C72.6845 40.7674 72.6064 40.778 72.5283 40.778H72.5387Z" fill="url(#paint1_linear_1206_36998)"/>
<path d="M25.9404 14.2527V8.44466C25.9404 6.06215 27.8414 4.12968 30.1852 4.12968H37.6904C38.2477 4.12968 38.7008 4.59029 38.7008 5.1568C38.7008 6.13627 39.4873 6.93574 40.4508 6.93574H61.18C62.1435 6.93574 62.93 6.13627 62.93 5.1568C62.93 4.59029 63.3831 4.12968 63.9404 4.12968H71.4456C73.7894 4.12968 75.6904 6.06215 75.6904 8.44466V14.2527H78.8727V5.93508C78.8727 2.65782 76.2581 0 73.0341 0H28.5966C25.3727 0 22.7581 2.65782 22.7581 5.93508V14.2527H25.9404Z" fill="#E8DEFF"/>
<path d="M77.9664 38.3965C77.3258 39.0901 76.5498 39.6513 75.6956 40.0589V92.2093C75.6956 94.5918 73.7946 96.5243 71.4508 96.5243H63.68C63.1227 96.5243 62.6696 96.0637 62.6696 95.4972V93.0723C62.6696 92.0399 61.8414 91.1981 60.8258 91.1981H40.8102C39.7945 91.1981 38.9664 92.0399 38.9664 93.0723V95.4972C38.9664 96.0637 38.5133 96.5243 37.956 96.5243H30.1852C27.8414 96.5243 25.9404 94.5918 25.9404 92.2093V40.0589C25.081 39.6513 24.3102 39.0848 23.6695 38.3965C23.3883 38.6983 23.081 38.9683 22.7581 39.2171V94.7242C22.7581 98.0015 25.3727 100.659 28.5966 100.659H73.0341C76.2581 100.659 78.8727 98.0015 78.8727 94.7242V39.2171C78.5498 38.9683 78.2425 38.6983 77.9612 38.3965H77.9664Z" fill="#E8DEFF"/>
<path d="M56.226 93.3057H45.575C45.1637 93.3057 44.8302 93.6446 44.8302 94.0628V97.1812C44.8302 97.5993 45.1637 97.9383 45.575 97.9383H56.226C56.6374 97.9383 56.9708 97.5993 56.9708 97.1812V94.0628C56.9708 93.6446 56.6374 93.3057 56.226 93.3057Z" fill="white"/>
<path d="M23.6654 30.5749H12.806L22.7591 24.0469H30.7748L23.6654 30.5749Z" fill="#D8C2FF"/>
<path d="M34.5289 30.5749H23.6643L30.7737 24.0469H38.7893L34.5289 30.5749Z" fill="#EDE6FF"/>
<path d="M45.3889 30.5749H34.5295L38.7899 24.0469H46.8107L45.3889 30.5749Z" fill="#D8C2FF"/>
<path d="M56.2482 30.5749H45.3888L46.8107 24.0469H54.8263L56.2482 30.5749Z" fill="#EDE6FF"/>
<path d="M67.1085 30.5749H56.2491L54.8272 24.0469H62.8428L67.1085 30.5749Z" fill="#D8C2FF"/>
<path d="M77.9668 30.5749H67.1074L62.8418 24.0469H70.8626L77.9668 30.5749Z" fill="#EDE6FF"/>
<path d="M88.831 30.5749H77.9664L70.8623 24.0469H78.8779L88.831 30.5749Z" fill="#D8C2FF"/>
<path d="M30.7737 16.9326H22.7581V24.0484H30.7737V16.9326Z" fill="#EDE6FF"/>
<path d="M38.7903 16.9326H30.7746V24.0484H38.7903V16.9326Z" fill="#D8C2FF"/>
<path d="M46.8049 16.9326H38.7892V24.0484H46.8049V16.9326Z" fill="#EDE6FF"/>
<path d="M54.8253 16.9326H46.8097V24.0484H54.8253V16.9326Z" fill="#D8C2FF"/>
<path d="M62.8428 16.9326H54.8272V24.0484H62.8428V16.9326Z" fill="#EDE6FF"/>
<path d="M70.8574 16.9326H62.8418V24.0484H70.8574V16.9326Z" fill="#D8C2FF"/>
<path d="M78.8779 16.9326H70.8623V24.0484H78.8779V16.9326Z" fill="#EDE6FF"/>
<path d="M23.6654 31.7939C23.6654 34.8435 21.2331 37.316 18.2331 37.316C15.2331 37.316 12.806 34.8435 12.806 31.7939V30.5762H23.6654V31.7939Z" fill="#D8C2FF"/>
<path d="M45.3882 31.7939C45.3882 34.8435 42.9559 37.316 39.9559 37.316C36.9559 37.316 34.5236 34.8435 34.5236 31.7939V30.5762H45.383V31.7939H45.3882Z" fill="#D8C2FF"/>
<path d="M67.1078 31.7939C67.1078 34.8435 64.6755 37.316 61.6755 37.316C58.6755 37.316 56.2432 34.8435 56.2432 31.7939V30.5762H67.1026V31.7939H67.1078Z" fill="#D8C2FF"/>
<path d="M88.8313 31.7939C88.8313 34.8435 86.399 37.316 83.399 37.316C80.399 37.316 77.9667 34.8435 77.9667 31.7939V30.5762H88.8261V31.7939H88.8313Z" fill="#D8C2FF"/>
<path d="M34.5289 31.7939C34.5289 34.8435 32.0966 37.316 29.0966 37.316C26.0966 37.316 23.6643 34.8435 23.6643 31.7939V30.5762H34.5237V31.7939H34.5289Z" fill="#EDE6FF"/>
<path d="M56.2485 31.7939C56.2485 34.8435 53.8162 37.316 50.8162 37.316C47.8162 37.316 45.3839 34.8435 45.3839 31.7939V30.5762H56.2433V31.7939H56.2485Z" fill="#EDE6FF"/>
<path d="M77.9661 31.7939C77.9661 34.8435 75.5338 37.316 72.5338 37.316C69.5338 37.316 67.1015 34.8435 67.1015 31.7939V30.5762H77.9609V31.7939H77.9661Z" fill="#EDE6FF"/>
<path d="M23.6645 31.7939C23.8208 34.8118 21.1958 37.5014 18.2322 37.4484C15.2687 37.5014 12.6437 34.8171 12.7999 31.7939C12.8468 34.7112 15.3624 37.2472 18.2322 37.1837C21.0968 37.2472 23.6177 34.7112 23.6645 31.7939Z" fill="#EDE6FF"/>
<path d="M45.39 31.7939C45.5462 34.8118 42.9212 37.5014 39.9577 37.4484C36.9941 37.5014 34.3691 34.8171 34.5254 31.7939C34.5723 34.7112 37.0879 37.2472 39.9577 37.1837C42.8223 37.2472 45.3431 34.7112 45.39 31.7939Z" fill="#EDE6FF"/>
<path d="M67.1076 31.7939C67.2639 34.8118 64.6389 37.5014 61.6753 37.4484C58.7118 37.5014 56.0868 34.8171 56.243 31.7939C56.2899 34.7112 58.8055 37.2472 61.6753 37.1837C64.5399 37.2472 67.0607 34.7112 67.1076 31.7939Z" fill="#EDE6FF"/>
<path d="M88.8311 31.7939C88.9874 34.8118 86.3624 37.5014 83.3988 37.4484C80.4353 37.5014 77.8103 34.8171 77.9665 31.7939C78.0134 34.7112 80.529 37.2472 83.3988 37.1837C86.2634 37.2472 88.7842 34.7112 88.8311 31.7939Z" fill="#EDE6FF"/>
<path d="M34.5297 31.7939C34.6859 34.8118 32.0609 37.5014 29.0974 37.4484C26.1339 37.5014 23.5088 34.8171 23.6651 31.7939C23.712 34.7112 26.2276 37.2472 29.0974 37.1837C31.962 37.2472 34.4828 34.7112 34.5297 31.7939Z" fill="#EDE6FF"/>
<path d="M56.2483 31.7939C56.4046 34.8118 53.7796 37.5014 50.816 37.4484C47.8525 37.5014 45.2275 34.8171 45.3837 31.7939C45.4306 34.7112 47.9462 37.2472 50.816 37.1837C53.6806 37.2472 56.2014 34.7112 56.2483 31.7939Z" fill="#D8C2FF"/>
<path d="M77.9669 31.7939C78.1232 34.8118 75.4982 37.5014 72.5346 37.4484C69.5711 37.5014 66.9461 34.8171 67.1023 31.7939C67.1492 34.7112 69.6648 37.2472 72.5346 37.1837C75.3992 37.2472 77.92 34.7112 77.9669 31.7939Z" fill="#D8C2FF"/>
<path fill-rule="evenodd" clip-rule="evenodd" d="M50.4971 45.4426C49.8605 45.4426 49.3513 45.9603 49.3513 46.6074C49.3513 47.9201 49.7575 49.1897 50.4971 50.2436C51.2368 49.1897 51.643 47.9201 51.643 46.6074C51.643 45.9603 51.1337 45.4426 50.4971 45.4426ZM52.025 51.9199C53.2012 50.4223 53.8559 48.5487 53.8559 46.6135C53.8559 44.6783 52.3524 43.1992 50.4971 43.1992C48.6419 43.1992 47.1384 44.7277 47.1384 46.6135C47.1384 48.4994 47.7931 50.4223 48.9693 51.9199L46.7079 54.2187C45.2346 53.0231 43.3915 52.3575 41.4878 52.3575C39.5841 52.3575 38.129 53.8859 38.129 55.7718C38.129 57.6577 39.6326 59.1861 41.4878 59.1861C43.343 59.1861 45.2346 58.5205 46.7079 57.3249L48.9693 59.6237C47.7931 61.1213 47.1384 62.9949 47.1384 64.9301C47.1384 66.8653 48.6419 68.3444 50.4971 68.3444C52.3524 68.3444 53.8559 66.816 53.8559 64.9301C53.8559 63.0442 53.2012 61.1213 52.025 59.6237L54.2864 57.3249C55.7596 58.5205 57.6027 59.1861 59.5065 59.1861C61.4102 59.1861 62.8652 57.6577 62.8652 55.7718C62.8652 53.8859 61.3617 52.3575 59.5065 52.3575C57.6512 52.3575 55.7596 53.0231 54.2864 54.2187L52.025 51.9199ZM50.4971 53.547L48.3085 55.7718L50.4971 57.9967L52.6858 55.7718L50.4971 53.547ZM55.9355 55.7718C56.9722 56.5237 58.2211 56.9366 59.5125 56.9366C60.1491 56.9366 60.6584 56.4189 60.6584 55.7718C60.6584 55.1247 60.1491 54.607 59.5125 54.607C58.2211 54.607 56.9722 55.0199 55.9355 55.7718ZM50.4971 61.3001C49.7575 62.3539 49.3513 63.6235 49.3513 64.9363C49.3513 65.5834 49.8605 66.1011 50.4971 66.1011C51.1337 66.1011 51.643 65.5834 51.643 64.9363C51.643 63.6235 51.2368 62.3539 50.4971 61.3001ZM45.0588 55.7718C44.0221 55.0199 42.7731 54.607 41.4818 54.607C40.8452 54.607 40.3359 55.1247 40.3359 55.7718C40.3359 56.4189 40.8452 56.9366 41.4818 56.9366C42.7731 56.9366 44.0221 56.5237 45.0588 55.7718Z" fill="#EADDFF"/>
<mask id="path-69-inside-1_1206_36998" fill="white">
<path d="M24.7073 65.881C25.6038 65.8722 26.4831 66.3078 27.0159 67.1222L35.511 80.0724H66.0471L74.5403 67.1232C75.0731 66.3088 75.9524 65.8732 76.8489 65.882H100.084C101.596 65.882 102.821 67.1277 102.822 68.6642V130.157C102.821 131.694 101.596 132.94 100.084 132.94H30.2874C30.2809 132.94 30.2743 132.939 30.2678 132.939H1.47194C-0.0395433 132.938 -1.26516 131.693 -1.26536 130.156V68.6632C-1.26519 67.1267 -0.0395644 65.8812 1.47194 65.881H24.7073Z"/>
</mask>
<path d="M24.7073 65.881C25.6038 65.8722 26.4831 66.3078 27.0159 67.1222L35.511 80.0724H66.0471L74.5403 67.1232C75.0731 66.3088 75.9524 65.8732 76.8489 65.882H100.084C101.596 65.882 102.821 67.1277 102.822 68.6642V130.157C102.821 131.694 101.596 132.94 100.084 132.94H30.2874C30.2809 132.94 30.2743 132.939 30.2678 132.939H1.47194C-0.0395433 132.938 -1.26516 131.693 -1.26536 130.156V68.6632C-1.26519 67.1267 -0.0395644 65.8812 1.47194 65.881H24.7073Z" fill="#D2B8FF"/>
<path d="M24.7073 65.881V66.2928L24.7113 66.2927L24.7073 65.881ZM27.0159 67.1222L26.6713 67.3476L26.6716 67.3481L27.0159 67.1222ZM35.511 80.0724L35.1667 80.2983L35.2887 80.4842H35.511V80.0724ZM66.0471 80.0724V80.4842H66.2695L66.3915 80.2982L66.0471 80.0724ZM74.5403 67.1232L74.8846 67.349L74.8849 67.3486L74.5403 67.1232ZM76.8489 65.882L76.8449 66.2937H76.8489V65.882ZM102.822 68.6642H103.233V68.6641L102.822 68.6642ZM102.822 130.157L103.233 130.157V130.157H102.822ZM30.2874 132.94L30.2873 133.351H30.2874V132.94ZM30.2678 132.939L30.2708 132.527H30.2678V132.939ZM1.47194 132.939L1.47189 133.35H1.47194V132.939ZM-1.26536 130.156H-1.67713V130.156L-1.26536 130.156ZM-1.26536 68.6632L-1.67713 68.6632V68.6632H-1.26536ZM1.47194 65.881V65.4692H1.47189L1.47194 65.881ZM24.7073 65.881L24.7113 66.2927C25.4717 66.2853 26.2176 66.6541 26.6713 67.3476L27.0159 67.1222L27.3605 66.8968C26.7485 65.9615 25.736 65.4591 24.7033 65.4692L24.7073 65.881ZM27.0159 67.1222L26.6716 67.3481L35.1667 80.2983L35.511 80.0724L35.8553 79.8465L27.3602 66.8963L27.0159 67.1222ZM35.511 80.0724V80.4842H66.0471V80.0724V79.6606H35.511V80.0724ZM66.0471 80.0724L66.3915 80.2982L74.8846 67.349L74.5403 67.1232L74.196 66.8973L65.7028 79.8466L66.0471 80.0724ZM74.5403 67.1232L74.8849 67.3486C75.3386 66.6551 76.0845 66.2863 76.8449 66.2937L76.8489 65.882L76.8529 65.4702C75.8202 65.4601 74.8076 65.9624 74.1957 66.8978L74.5403 67.1232ZM76.8489 65.882V66.2937H100.084V65.882V65.4702H76.8489V65.882ZM100.084 65.882V66.2937C101.362 66.2937 102.41 67.3487 102.41 68.6643L102.822 68.6642L103.233 68.6641C103.233 66.9066 101.83 65.4702 100.084 65.4702V65.882ZM102.822 68.6642H102.41V130.157H102.822H103.233V68.6642H102.822ZM102.822 130.157L102.41 130.157C102.41 131.473 101.362 132.528 100.084 132.528V132.94V133.351C101.83 133.351 103.233 131.915 103.233 130.157L102.822 130.157ZM100.084 132.94V132.528H30.2874V132.94V133.351H100.084V132.94ZM30.2874 132.94L30.2874 132.528C30.2954 132.528 30.3015 132.528 30.3047 132.528C30.3075 132.528 30.3096 132.529 30.3077 132.528C30.307 132.528 30.3019 132.528 30.2964 132.528C30.2905 132.527 30.2815 132.527 30.2708 132.527L30.2678 132.939L30.2649 133.35C30.2574 133.35 30.2517 133.35 30.249 133.35C30.2468 133.35 30.245 133.35 30.2475 133.35C30.2489 133.35 30.2542 133.35 30.2603 133.351C30.2667 133.351 30.2761 133.351 30.2873 133.351L30.2874 132.94ZM30.2678 132.939V132.527H1.47194V132.939V133.35H30.2678V132.939ZM1.47194 132.939L1.47199 132.527C0.194159 132.527 -0.853422 131.472 -0.853597 130.156L-1.26536 130.156L-1.67713 130.156C-1.67689 131.914 -0.273246 133.35 1.47189 133.35L1.47194 132.939ZM-1.26536 130.156H-0.853597V68.6632H-1.26536H-1.67713V130.156H-1.26536ZM-1.26536 68.6632L-0.853597 68.6633C-0.853451 67.3478 0.194129 66.2929 1.47199 66.2928L1.47194 65.881L1.47189 65.4692C-0.273258 65.4694 -1.67693 66.9056 -1.67713 68.6632L-1.26536 68.6632ZM1.47194 65.881V66.2928H24.7073V65.881V65.4692H1.47194V65.881Z" fill="#E1D7F8" mask="url(#path-69-inside-1_1206_36998)"/>
</g>
<path d="M15.9727 52.5084L9.68848 51.9918L9.74973 51.2218L14.7778 45.6119L10.4433 45.2556L10.5233 44.2493L16.4101 44.7333L16.3483 45.5108L11.3352 51.122L16.0522 51.5098L15.9727 52.5084Z" fill="#D2B8FF"/>
<path d="M8.55092 45.7077L1.68636e-07 45.1551L0.065522 44.1075L6.76858 36.3652L0.870691 35.984L0.956323 34.6148L8.96643 35.1325L8.90026 36.1905L2.21761 43.9341L8.6359 44.3489L8.55092 45.7077Z" fill="#D2B8FF"/>
<defs>
<linearGradient id="paint0_linear_1206_36998" x1="2.40841" y1="17.17" x2="47.5111" y2="61.5391" gradientUnits="userSpaceOnUse">
<stop stop-color="white"/>
<stop offset="1" stop-color="white" stop-opacity="0"/>
</linearGradient>
<linearGradient id="paint1_linear_1206_36998" x1="2.40841" y1="17.17" x2="47.5111" y2="61.5391" gradientUnits="userSpaceOnUse">
<stop stop-color="white"/>
<stop offset="1" stop-color="white" stop-opacity="0"/>
</linearGradient>
</defs>
</svg>
