<svg width="101" height="100" viewBox="0 0 101 100" fill="none" xmlns="http://www.w3.org/2000/svg">
<g clip-path="url(#clip0_1339_22217)">
<path d="M98.4167 50C98.4167 23.2142 76.6527 1.5 49.8056 1.5C22.9584 1.5 1.19444 23.2142 1.19444 50C1.19444 76.7858 22.9584 98.5 49.8056 98.5C76.6527 98.5 98.4167 76.7858 98.4167 50Z" fill="#FBF9FF"/>
<path d="M93.9278 18.1289H6.05556C2.98731 18.1289 0.5 20.6105 0.5 23.6718V75.2619C0.5 78.3231 2.98731 80.8048 6.05556 80.8048H93.9278C96.996 80.8048 99.4833 78.3231 99.4833 75.2619V23.6718C99.4833 20.6105 96.996 18.1289 93.9278 18.1289Z" fill="#E8DEFF"/>
<path d="M90.9435 26.8418H9.03972C7.75344 26.8418 6.71071 27.8822 6.71071 29.1655V39.4285C6.71071 40.7119 7.75344 41.7522 9.03972 41.7522H90.9435C92.2298 41.7522 93.2725 40.7119 93.2725 39.4285V29.1655C93.2725 27.8822 92.2298 26.8418 90.9435 26.8418Z" fill="#FBF9FF"/>
<path d="M30.1303 46.4004H9.03972C7.75344 46.4004 6.71071 47.4407 6.71071 48.7241V69.7672C6.71071 71.0505 7.75344 72.0908 9.03972 72.0908H30.1303C31.4166 72.0908 32.4593 71.0505 32.4593 69.7672V48.7241C32.4593 47.4407 31.4166 46.4004 30.1303 46.4004Z" fill="white"/>
<path d="M60.537 46.4004H39.4464C38.1601 46.4004 37.1174 47.4407 37.1174 48.7241V69.7672C37.1174 71.0505 38.1601 72.0908 39.4464 72.0908H60.537C61.8232 72.0908 62.866 71.0505 62.866 69.7672V48.7241C62.866 47.4407 61.8232 46.4004 60.537 46.4004Z" fill="white"/>
<path d="M90.9436 46.4004H69.853C68.5668 46.4004 67.524 47.4407 67.524 48.7241V69.7672C67.524 71.0505 68.5668 72.0908 69.853 72.0908H90.9436C92.2299 72.0908 93.2726 71.0505 93.2726 69.7672V48.7241C93.2726 47.4407 92.2299 46.4004 90.9436 46.4004Z" fill="white"/>
<path d="M50.0099 34.4315C57.4098 34.4315 63.4086 28.4464 63.4086 21.0634C63.4086 13.6804 57.4098 7.69531 50.0099 7.69531C42.61 7.69531 36.6112 13.6804 36.6112 21.0634C36.6112 28.4464 42.61 34.4315 50.0099 34.4315Z" fill="#FFC2A7"/>
<path d="M50.2439 16.0098L51.4537 16.2561L49.145 27.0955L47.9351 26.8491L50.2439 16.0098ZM54.3796 21.5526L52.1636 19.3416V17.5988L56.1265 21.5526L52.1636 25.5004V23.7574L54.3796 21.5526ZM43.2624 21.5526L47.2253 17.5988V19.3416L45.0093 21.5526L47.2253 23.7574V25.5004L43.2624 21.5526Z" fill="#FFEDE6"/>
</g>
<defs>
<clipPath id="clip0_1339_22217">
<rect width="100" height="97" fill="white" transform="translate(0.5 1.5)"/>
</clipPath>
</defs>
</svg>
