<svg width="120" height="93" viewBox="0 0 120 93" fill="none" xmlns="http://www.w3.org/2000/svg">
<g clip-path="url(#clip0_11297_2152)">
<path d="M60.8489 93C85.7908 93 106.01 72.7596 106.01 47.7917C106.01 22.8238 85.7908 2.58337 60.8489 2.58337C35.907 2.58337 15.6876 22.8238 15.6876 47.7917C15.6876 72.7596 35.907 93 60.8489 93Z" fill="#FBF9FF"/>
<path d="M89.5946 8.4758C89.5946 10.2616 88.1471 11.7093 86.3614 11.7093H35.4464C33.6607 11.7078 32.2131 10.2602 32.2131 8.4758C32.2131 6.69 33.6607 5.24231 35.4464 5.24231H86.3628C88.1485 5.24231 89.5961 6.69 89.5961 8.4758H89.5946Z" fill="#D2B8FF"/>
<g filter="url(#filter0_d_11297_2152)">
<path d="M35.7901 81.5376C37.3547 81.5376 37.3547 79.743 38.9194 79.743C40.484 79.743 40.484 81.5376 42.0473 81.5376C43.6105 81.5376 43.6119 79.743 45.1765 79.743C46.7412 79.743 46.7412 81.5376 48.306 81.5376C49.8706 81.5376 49.8706 79.743 51.4353 79.743C52.9999 79.743 52.9999 81.5376 54.5645 81.5376C56.1292 81.5376 56.1292 79.743 57.6938 79.743C59.2585 79.743 59.2585 81.5376 60.8231 81.5376C62.3878 81.5376 62.3878 79.743 63.9524 79.743C65.5171 79.743 65.5171 81.5376 67.0817 81.5376C68.6463 81.5376 68.6463 79.743 70.2111 79.743C71.7758 79.743 71.7758 81.5376 73.3389 81.5376C74.9021 81.5376 74.9035 79.743 76.4682 79.743C78.0329 79.743 78.0329 81.5376 79.599 81.5376C81.1651 81.5376 81.1636 79.743 82.7283 79.743C84.2929 79.743 84.2945 81.5376 85.8591 81.5376C85.9937 81.5376 86.1284 81.5201 86.263 81.4952V8.47595H35.5471V81.5201C35.6247 81.5303 35.7038 81.5376 35.7901 81.5376Z" fill="#FAFAFA"/>
</g>
<path d="M80.5624 25.9854H40.1829C39.596 25.9854 39.1202 26.4616 39.1202 27.0491V31.304C39.1202 31.8915 39.596 32.3677 40.1829 32.3677H80.5624C81.1493 32.3677 81.625 31.8915 81.625 31.304V27.0491C81.625 26.4616 81.1493 25.9854 80.5624 25.9854Z" fill="#F1EAFF"/>
<path d="M80.5624 57.8972H40.1829C39.596 57.8972 39.1202 58.3735 39.1202 58.9609V61.6203C39.1202 62.2077 39.596 62.684 40.1829 62.684H80.5624C81.1493 62.684 81.625 62.2077 81.625 61.6203V58.9609C81.625 58.3735 81.1493 57.8972 80.5624 57.8972Z" fill="#F1EAFF"/>
<path d="M58.7786 39.814H42.308C41.7211 39.814 41.2454 40.2902 41.2454 40.8777V43.0051C41.2454 43.5926 41.7211 44.0689 42.308 44.0689H58.7786C59.3655 44.0689 59.8412 43.5926 59.8412 43.0051V40.8777C59.8412 40.2902 59.3655 39.814 58.7786 39.814Z" fill="#F1EAFF"/>
<path d="M78.9684 39.814H70.9988C70.4119 39.814 69.9362 40.2902 69.9362 40.8777V43.0051C69.9362 43.5926 70.4119 44.0689 70.9988 44.0689H78.9684C79.5553 44.0689 80.031 43.5926 80.031 43.0051V40.8777C80.031 40.2902 79.5553 39.814 78.9684 39.814Z" fill="#D2B8FF"/>
<path d="M58.7786 46.1959H42.308C41.7211 46.1959 41.2454 46.6722 41.2454 47.2596V49.3871C41.2454 49.9746 41.7211 50.4508 42.308 50.4508H58.7786C59.3655 50.4508 59.8412 49.9746 59.8412 49.3871V47.2596C59.8412 46.6722 59.3655 46.1959 58.7786 46.1959Z" fill="#F1EAFF"/>
<path d="M78.9684 46.1959H70.9988C70.4119 46.1959 69.9362 46.6722 69.9362 47.2596V49.3871C69.9362 49.9746 70.4119 50.4508 70.9988 50.4508H78.9684C79.5553 50.4508 80.031 49.9746 80.031 49.3871V47.2596C80.031 46.6722 79.5553 46.1959 78.9684 46.1959Z" fill="#D2B8FF"/>
<g opacity="0.63">
<path fill-rule="evenodd" clip-rule="evenodd" d="M58.7706 16.8877C58.3746 16.6046 57.8974 16.4492 57.4051 16.4492C57.1621 16.4492 56.9669 16.6445 56.9669 16.8877C56.9669 17.1309 57.1621 17.3264 57.4051 17.3264C57.8974 17.3264 58.3746 17.171 58.7706 16.8877ZM60.848 18.9673C60.5651 19.3637 60.4098 19.8414 60.4098 20.3343C60.4098 20.5775 60.6051 20.7729 60.848 20.7729C61.091 20.7729 61.2861 20.5775 61.2861 20.3343C61.2861 19.8414 61.1309 19.3637 60.848 18.9673ZM62.9254 16.8877C63.3213 17.171 63.7985 17.3264 64.2909 17.3264C64.5338 17.3264 64.7291 17.1309 64.7291 16.8877C64.7291 16.6445 64.5338 16.4492 64.2909 16.4492C63.7985 16.4492 63.3213 16.6046 62.9254 16.8877ZM60.848 16.0501L60.0111 16.8877L60.848 17.7255L61.6848 16.8877L60.848 16.0501ZM61.4318 15.4376C61.8818 14.8739 62.1312 14.17 62.1312 13.4413C62.1312 12.7125 61.5576 12.1566 60.848 12.1566C60.1383 12.1566 59.5647 12.7309 59.5647 13.4413C59.5647 14.1516 59.8141 14.8739 60.2642 15.4376L59.3998 16.303C58.8367 15.8523 58.1334 15.6026 57.4054 15.6026C56.6776 15.6026 56.1217 16.1774 56.1217 16.8877C56.1217 17.5981 56.6954 18.1724 57.4051 18.1724C58.1146 18.1724 58.8363 17.9227 59.3994 17.4722L60.2638 18.3375C59.8136 18.9012 59.5643 19.6051 59.5643 20.3339C59.5643 21.0626 60.1378 21.6184 60.8475 21.6184C61.5572 21.6184 62.1309 21.0442 62.1309 20.3339C62.1309 19.6235 61.8814 18.9012 61.4313 18.3375L62.2956 17.4722C62.8589 17.9227 63.562 18.1724 64.29 18.1724C65.018 18.1724 65.5733 17.5981 65.5733 16.8877C65.5733 16.1774 64.9996 15.6031 64.29 15.6031C63.5804 15.6031 62.8589 15.8528 62.2956 16.3034L61.4318 15.4376ZM60.848 13.0026C60.6051 13.0026 60.4098 13.1981 60.4098 13.4413C60.4098 13.9342 60.5651 14.4118 60.848 14.8081C61.1309 14.4118 61.2861 13.9342 61.2861 13.4413C61.2861 13.1981 61.091 13.0026 60.848 13.0026Z" fill="#D2B8FF"/>
</g>
<path d="M1.09745 52.3702C0.879614 52.652 0.810544 53.0191 0.911493 53.3595C1.01244 53.7104 1.2781 53.9764 1.60751 54.0881C5.63483 55.5029 9.22117 58.194 11.5961 61.7416C14.2368 65.6827 18.195 68.7835 22.6686 70.3525C23.115 70.512 23.6143 70.3631 23.9066 69.9854L31.9824 59.4333C32.2003 59.1514 32.2694 58.7845 32.1684 58.4441C32.0675 58.1036 31.8124 57.8324 31.4724 57.7154C27.445 56.3006 23.9172 53.5722 21.5476 50.0193C18.9017 46.0782 14.9859 43.0412 10.5069 41.4723C10.0553 41.3127 9.56121 41.4617 9.26899 41.8394L1.09745 52.3702ZM22.4827 59.0663C22.9662 59.4387 23.0511 60.1354 22.6792 60.6194C22.3074 61.1034 21.6113 61.1885 21.1279 60.8161C20.6444 60.4439 20.5594 59.7471 20.9312 59.2632C21.3031 58.7792 21.9992 58.6941 22.4827 59.0663ZM18.5934 53.2583C20.0386 54.3807 20.3043 56.4655 19.1832 57.9122C18.0675 59.3589 15.9795 59.6248 14.5343 58.5025C13.0944 57.3856 12.8181 55.306 13.9445 53.8488C15.0603 52.4021 17.1483 52.1361 18.5934 53.2583ZM12.0052 50.9448C12.4887 51.3171 12.5737 52.0138 12.2018 52.4978C11.8299 52.9818 11.1339 53.0669 10.6504 52.6946C10.1669 52.3223 10.0819 51.6255 10.4538 51.1415C10.8257 50.6576 11.5217 50.5724 12.0052 50.9448Z" fill="#F1EAFF"/>
<path d="M100.716 57.0039C101.003 57.2156 101.371 57.2763 101.709 57.1675C102.057 57.0587 102.316 56.7868 102.42 56.4545C103.742 52.392 106.348 48.7417 109.838 46.2845C113.714 43.5523 116.72 39.5207 118.186 35.008C118.335 34.5577 118.175 34.0612 117.791 33.7773L107.07 25.9345C106.783 25.7228 106.415 25.6621 106.078 25.7709C105.74 25.8796 105.475 26.1409 105.366 26.4839C104.044 30.5465 101.399 34.1391 97.9046 36.5912C94.0287 39.3286 91.0845 43.3162 89.6192 47.8343C89.47 48.2899 89.63 48.781 90.0138 49.0649L100.716 57.0039ZM106.919 35.4501C107.28 34.9577 107.974 34.8568 108.465 35.2181C108.957 35.5793 109.058 36.2739 108.697 36.7663C108.336 37.2586 107.642 37.3594 107.15 36.9983C106.659 36.637 106.558 35.9424 106.919 35.4501ZM101.207 39.474C102.295 38.0023 104.371 37.6891 105.841 38.7782C107.311 39.862 107.624 41.9458 106.536 43.4175C105.453 44.8838 103.383 45.2075 101.902 44.1133C100.431 43.0295 100.119 40.9458 101.207 39.474ZM99.0454 46.1199C99.4063 45.6277 100.1 45.5268 100.592 45.8879C101.084 46.2492 101.184 46.9439 100.824 47.4361C100.463 47.9285 99.7689 48.0294 99.2771 47.6681C98.7853 47.3068 98.6845 46.6123 99.0454 46.1199Z" fill="#F1EAFF"/>
</g>
<defs>
<filter id="filter0_d_11297_2152" x="29.0824" y="2.01125" width="63.6452" height="85.991" filterUnits="userSpaceOnUse" color-interpolation-filters="sRGB">
<feFlood flood-opacity="0" result="BackgroundImageFix"/>
<feColorMatrix in="SourceAlpha" type="matrix" values="0 0 0 0 0 0 0 0 0 0 0 0 0 0 0 0 0 0 127 0" result="hardAlpha"/>
<feOffset/>
<feGaussianBlur stdDeviation="3.23235"/>
<feComposite in2="hardAlpha" operator="out"/>
<feColorMatrix type="matrix" values="0 0 0 0 0.823529 0 0 0 0 0.721569 0 0 0 0 1 0 0 0 0.5 0"/>
<feBlend mode="normal" in2="BackgroundImageFix" result="effect1_dropShadow_11297_2152"/>
<feBlend mode="normal" in="SourceGraphic" in2="effect1_dropShadow_11297_2152" result="shape"/>
</filter>
<clipPath id="clip0_11297_2152">
<rect width="120" height="93" fill="white"/>
</clipPath>
</defs>
</svg>
