<svg width="100" height="96" viewBox="0 0 100 96" fill="none" xmlns="http://www.w3.org/2000/svg">
<g clip-path="url(#clip0_1219_38182)">
<path d="M3.93477 68.8927L66.6144 81.2378C66.8818 79.8679 68.206 78.9742 69.57 79.2429C70.934 79.5115 71.8239 80.8412 71.5564 82.2111L71.1059 71.3773C72.5529 71.6623 67.8845 71.7294 68.1683 70.2763L69.3073 60.0252C69.591 58.5721 73.7262 54.284 72.2791 53.999L80.6848 35.4654C80.4173 36.8352 79.0932 37.729 77.7291 37.4603C76.3652 37.1917 75.4754 35.8618 75.7428 34.4921L13.0632 22.147C11.6162 21.862 10.2001 22.8177 9.91637 24.2709L1.81984 65.7324C1.53607 67.1855 2.48779 68.6077 3.93477 68.8927ZM77.2693 39.8159C77.8197 39.9243 78.1793 40.4615 78.0713 41.0144C77.9633 41.5671 77.4283 41.9283 76.8779 41.8198C76.3274 41.7114 75.9679 41.1741 76.0759 40.6213C76.1837 40.0686 76.7187 39.7074 77.2693 39.8159ZM76.5845 43.3218C77.1351 43.4302 77.4945 43.9675 77.3866 44.5203C77.2787 45.073 76.7437 45.4342 76.1932 45.3257C75.6428 45.2173 75.2832 44.6802 75.3912 44.1273C75.4991 43.5745 76.0341 43.2134 76.5845 43.3218ZM75.8995 46.8297C76.45 46.9382 76.8095 47.4755 76.7016 48.0282C76.5936 48.5811 76.0587 48.9421 75.5082 48.8337C74.9578 48.7253 74.5982 48.1881 74.7062 47.6352C74.8141 47.0824 75.3491 46.7213 75.8995 46.8297ZM75.215 50.3356C75.7654 50.4441 76.1249 50.9814 76.017 51.5341C75.909 52.087 75.374 52.448 74.8236 52.3397C74.2732 52.2313 73.9136 51.694 74.0216 51.1412C74.1295 50.5883 74.6644 50.2273 75.215 50.3356ZM74.53 53.8437C75.0804 53.952 75.44 54.4893 75.332 55.0422C75.224 55.595 74.689 55.9561 74.1386 55.8477C73.5881 55.7392 73.2286 55.202 73.3366 54.6492C73.4444 54.0963 73.9794 53.7353 74.53 53.8437ZM73.8452 57.3496C74.3958 57.4581 74.7552 57.9952 74.6472 58.5481C74.5394 59.1009 74.0044 59.462 73.4539 59.3536C72.9035 59.2452 72.5439 58.7079 72.6518 58.1551C72.7598 57.6023 73.2948 57.2412 73.8452 57.3496ZM73.1606 60.8555C73.711 60.964 74.0706 61.5013 73.9627 62.054C73.8547 62.6068 73.3198 62.9679 72.7693 62.8595C72.2189 62.7511 71.8593 62.2138 71.9672 61.661C72.0752 61.1082 72.6102 60.7471 73.1606 60.8555ZM72.4756 64.3635C73.026 64.4719 73.3856 65.0092 73.2777 65.562C73.1697 66.1149 72.6347 66.4759 72.0843 66.3674C71.5339 66.259 71.1743 65.7218 71.2822 65.1689C71.3902 64.6162 71.9251 64.255 72.4756 64.3635ZM71.791 67.8694C72.3414 67.9778 72.701 68.5151 72.5931 69.0679C72.4851 69.6208 71.9501 69.9818 71.3997 69.8733C70.8491 69.765 70.4897 69.2277 70.5977 68.6748C70.7055 68.1221 71.2405 67.7609 71.791 67.8694ZM71.1059 71.3773C71.6564 71.4858 72.0159 72.0231 71.9079 72.5758C71.8001 73.1287 71.2651 73.4897 70.7145 73.3814C70.1641 73.273 69.8045 72.7357 69.9125 72.1829C70.0205 71.63 70.5555 71.269 71.1059 71.3773ZM70.4213 74.8834C70.9717 74.9917 71.3313 75.529 71.2233 76.0819C71.1154 76.6346 70.5805 76.9958 70.03 76.8873C69.4795 76.7789 69.1199 76.2416 69.2279 75.6888C69.3359 75.1359 69.8709 74.7749 70.4213 74.8834Z" fill="#E2D2FF"/>
<path d="M49.3986 95.5001C73.1441 95.5001 92.3936 76.1681 92.3936 52.3209C92.3936 28.4736 73.1441 9.1416 49.3986 9.1416C25.6531 9.1416 6.40356 28.4736 6.40356 52.3209C6.40356 76.1681 25.6531 95.5001 49.3986 95.5001Z" fill="#FBF9FF"/>
<mask id="mask0_1219_38182" style="mask-type:alpha" maskUnits="userSpaceOnUse" x="6" y="9" width="87" height="87">
<path d="M49.3986 95.5001C73.1441 95.5001 92.3936 76.1681 92.3936 52.3209C92.3936 28.4736 73.1441 9.1416 49.3986 9.1416C25.6531 9.1416 6.40356 28.4736 6.40356 52.3209C6.40356 76.1681 25.6531 95.5001 49.3986 95.5001Z" fill="#FBF9FF"/>
</mask>
<g mask="url(#mask0_1219_38182)">
<path d="M4.60542 69.0891L67.285 81.4341C67.5525 80.0643 68.8766 79.1706 70.2406 79.4392C71.6047 79.7079 72.4946 81.0376 72.227 82.4075L86.365 85.192C87.812 85.477 89.228 84.5213 89.5117 83.0681L97.6084 41.6065C97.8921 40.1534 96.9404 38.7313 95.4934 38.4463L81.3555 35.6617C81.0879 37.0316 79.7639 37.9253 78.3998 37.6567C77.0358 37.388 76.1459 36.0583 76.4135 34.6884L13.7339 22.3433C12.2869 22.0583 10.8708 23.0141 10.587 24.4673L2.4905 65.9287C2.20672 67.3819 3.15843 68.8041 4.60542 69.0891ZM77.9398 40.0122C78.4904 40.1206 78.8498 40.6579 78.7419 41.2107C78.6339 41.7636 78.099 42.1246 77.5485 42.0163C76.9981 41.9078 76.6385 41.3705 76.7465 40.8178C76.8544 40.2649 77.3894 39.9039 77.9398 40.0122ZM77.2552 43.5182C77.8056 43.6265 78.1652 44.1638 78.0573 44.7167C77.9493 45.2695 77.4143 45.6306 76.8639 45.5222C76.3135 45.4137 75.9539 44.8764 76.0619 44.3237C76.1698 43.7708 76.7047 43.4098 77.2552 43.5182ZM76.5702 47.0262C77.1207 47.1346 77.4802 47.6717 77.3723 48.2246C77.2643 48.7774 76.7293 49.1385 76.1789 49.0301C75.6283 48.9217 75.2689 48.3844 75.3769 47.8316C75.4848 47.2788 76.0197 46.9177 76.5702 47.0262ZM75.8855 50.5321C76.4361 50.6405 76.7955 51.1778 76.6877 51.7306C76.5797 52.2833 76.0447 52.6444 75.4943 52.536C74.9438 52.4276 74.5843 51.8903 74.6921 51.3375C74.8001 50.7848 75.3351 50.4236 75.8855 50.5321ZM75.2005 54.04C75.7511 54.1484 76.1105 54.6857 76.0025 55.2385C75.8946 55.7913 75.3597 56.1524 74.8092 56.044C74.2588 55.9355 73.8992 55.3984 74.0071 54.8455C74.1151 54.2927 74.6501 53.9316 75.2005 54.04ZM74.5159 57.5459C75.0663 57.6543 75.4259 58.1916 75.3179 58.7444C75.21 59.2973 74.675 59.6583 74.1246 59.5499C73.5742 59.4416 73.2146 58.9043 73.3225 58.3514C73.4305 57.7986 73.9655 57.4375 74.5159 57.5459ZM73.8313 61.0518C74.3817 61.1602 74.7413 61.6975 74.6333 62.2503C74.5254 62.8032 73.9904 63.1642 73.44 63.0559C72.8894 62.9475 72.53 62.4102 72.6379 61.8574C72.7459 61.3045 73.2808 60.9435 73.8313 61.0518ZM73.1462 64.5599C73.6967 64.6682 74.0562 65.2055 73.9484 65.7584C73.8404 66.3112 73.3054 66.6723 72.755 66.5639C72.2044 66.4554 71.845 65.9181 71.9528 65.3654C72.0608 64.8125 72.5958 64.4515 73.1462 64.5599ZM72.4616 68.0658C73.0121 68.1742 73.3716 68.7114 73.2636 69.2643C73.1556 69.8171 72.6208 70.1782 72.0702 70.0698C71.5198 69.9613 71.1602 69.424 71.2682 68.8713C71.3762 68.3185 71.9112 67.9574 72.4616 68.0658ZM71.7766 71.5737C72.327 71.6822 72.6866 72.2195 72.5786 72.7722C72.4706 73.325 71.9356 73.6861 71.3852 73.5777C70.8348 73.4693 70.4752 72.932 70.5832 72.3792C70.6912 71.8264 71.2262 71.4653 71.7766 71.5737ZM71.092 75.0797C71.6424 75.1881 72.002 75.7254 71.894 76.2781C71.7861 76.831 71.2511 77.192 70.7007 77.0836C70.1501 76.9752 69.7906 76.438 69.8986 75.8851C70.0066 75.3324 70.5415 74.9712 71.092 75.0797Z" fill="#E2D2FF"/>
<path d="M29.3919 51.9301C24.514 52.1141 21.5765 49.182 21.4366 45.4437C21.294 41.6316 24.0967 38.5013 28.901 38.32C33.9071 38.1312 36.7348 41.0674 36.8754 44.8243C37.0166 48.5996 34.2329 51.7474 29.3919 51.9301ZM34.5592 63.9069L28.3796 64.1401L42.7543 38.5167L49.044 38.2793L34.5592 63.9069ZM29.2535 47.2511C30.042 47.2214 30.4729 46.4675 30.422 45.1046C30.3682 43.6682 29.8815 42.9305 29.0747 42.9609C28.2862 42.9906 27.8552 43.7445 27.909 45.181C27.9606 46.5622 28.4467 47.2815 29.2535 47.2511ZM48.2059 63.9822C43.3466 64.1656 40.3912 61.2525 40.2521 57.5325C40.1087 53.702 42.9298 50.5711 47.7342 50.3898C52.722 50.2017 55.5496 53.1378 55.6901 56.8947C55.8313 60.67 53.0654 63.7989 48.2059 63.9822ZM48.069 59.34C48.8759 59.3096 49.306 58.5372 49.2551 57.1744C49.2013 55.738 48.6963 55.0009 47.8894 55.0313C47.1009 55.061 46.6701 55.8149 46.7237 57.2515C46.7748 58.6142 47.2621 59.3704 48.069 59.34Z" fill="#F1EAFF"/>
</g>
<path d="M83.5209 89.9061C87.9907 89.9061 91.6141 86.2671 91.6141 81.7783C91.6141 77.2894 87.9907 73.6504 83.5209 73.6504C79.0512 73.6504 75.4277 77.2894 75.4277 81.7783C75.4277 86.2671 79.0512 89.9061 83.5209 89.9061Z" fill="white"/>
<path fill-rule="evenodd" clip-rule="evenodd" d="M84.0265 93.0382C90.7776 93.0382 96.2506 87.5418 96.2506 80.7618C96.2506 73.9818 90.7776 68.4854 84.0265 68.4854C77.2753 68.4854 71.8025 73.9818 71.8025 80.7618C71.8025 87.5418 77.2753 93.0382 84.0265 93.0382ZM84.9433 77.0789C84.9433 76.5704 84.5329 76.1582 84.0265 76.1582C83.5202 76.1582 83.1098 76.5704 83.1098 77.0789V79.8411H80.3594C79.853 79.8411 79.4425 80.2534 79.4425 80.7618C79.4425 81.2703 79.853 81.6826 80.3594 81.6826H83.1098V84.4448C83.1098 84.9532 83.5202 85.3655 84.0265 85.3655C84.5329 85.3655 84.9433 84.9532 84.9433 84.4448V81.6826H87.6937C88.2001 81.6826 88.6106 81.2703 88.6106 80.7618C88.6106 80.2534 88.2001 79.8411 87.6937 79.8411H84.9433V77.0789Z" fill="#AE72FF"/>
<path d="M54.6889 21.8356C60.5555 21.8356 65.3112 17.0595 65.3112 11.1678C65.3112 5.27614 60.5555 0.5 54.6889 0.5C48.8224 0.5 44.0667 5.27614 44.0667 11.1678C44.0667 17.0595 48.8224 21.8356 54.6889 21.8356Z" fill="#FFA97D"/>
<path d="M54.6508 17.1187C52.4371 17.1187 50.6428 15.3165 50.6428 13.0936C50.6428 11.9377 51.128 10.8956 51.905 10.1615C52.6221 9.48376 54.3835 8.26323 54.1163 5.58008C57.3227 7.72681 58.9259 9.87354 55.7196 13.0936C56.2539 13.0936 57.0555 13.0936 58.3915 11.7678C58.5357 12.183 58.6586 12.6291 58.6586 13.0936C58.6586 15.3165 56.8642 17.1187 54.6508 17.1187Z" fill="#FFEDE6"/>
</g>
<defs>
<clipPath id="clip0_1219_38182">
<rect width="100" height="95" fill="white" transform="translate(0 0.5)"/>
</clipPath>
</defs>
</svg>
