<svg width="118" height="80" viewBox="0 0 118 80" fill="none" xmlns="http://www.w3.org/2000/svg">
<circle cx="58.8049" cy="40" r="40" fill="#FBF9FF"/>
<g filter="url(#filter0_d_525_37041)">
<rect x="6.36157" y="36.6589" width="105.324" height="33.7036" rx="8.4259" fill="white"/>
</g>
<path d="M23.4513 55.6609L20.1084 57.5321L20.8549 53.7745L18.042 51.1735L21.8464 50.7222L23.4513 47.2434L25.0561 50.7222L28.8605 51.1735L26.0476 53.7745L26.7941 57.5321L23.4513 55.6609Z" fill="#F9E683"/>
<path d="M40.3028 55.6609L36.96 57.5321L37.7065 53.7745L34.8936 51.1735L38.698 50.7222L40.3028 47.2434L41.9076 50.7222L45.7121 51.1735L42.8992 53.7745L43.6456 57.5321L40.3028 55.6609Z" fill="#F9E683"/>
<path d="M57.1546 55.6609L53.8118 57.5321L54.5583 53.7745L51.7454 51.1735L55.5498 50.7222L57.1546 47.2434L58.7594 50.7222L62.5639 51.1735L59.751 53.7745L60.4974 57.5321L57.1546 55.6609Z" fill="#F9E683"/>
<path d="M74.0062 55.6609L70.6634 57.5321L71.4099 53.7745L68.5969 51.1735L72.4014 50.7222L74.0062 47.2434L75.611 50.7222L79.4155 51.1735L76.6025 53.7745L77.349 57.5321L74.0062 55.6609Z" fill="#F9E683"/>
<g opacity="0.28">
<path d="M90.8582 55.6609L87.5154 57.5321L88.2619 53.7745L85.449 51.1735L89.2534 50.7222L90.8582 47.2434L92.4631 50.7222L96.2675 51.1735L93.4546 53.7745L94.2011 57.5321L90.8582 55.6609Z" fill="#D2B8FF"/>
</g>
<rect opacity="0.27" x="35.8845" y="22.5881" width="73.2471" height="6.35306" rx="1.6718" fill="#D2B8FF"/>
<rect opacity="0.27" x="35.8845" y="13.6194" width="43.724" height="6.72677" rx="1.6718" fill="#D2B8FF"/>
<rect x="6.05945" y="9.62708" width="24.3337" height="24.3337" rx="12.1669" stroke="white" stroke-width="0.510497"/>
<rect x="6.3147" y="9.88232" width="23.8232" height="23.8232" rx="11.9116" fill="#E2D2FF"/>
<defs>
<filter id="filter0_d_525_37041" x="0.918231" y="33.3092" width="116.21" height="44.5903" filterUnits="userSpaceOnUse" color-interpolation-filters="sRGB">
<feFlood flood-opacity="0" result="BackgroundImageFix"/>
<feColorMatrix in="SourceAlpha" type="matrix" values="0 0 0 0 0 0 0 0 0 0 0 0 0 0 0 0 0 0 127 0" result="hardAlpha"/>
<feOffset dy="2.09359"/>
<feGaussianBlur stdDeviation="2.72167"/>
<feComposite in2="hardAlpha" operator="out"/>
<feColorMatrix type="matrix" values="0 0 0 0 0.823529 0 0 0 0 0.721569 0 0 0 0 1 0 0 0 0.4 0"/>
<feBlend mode="normal" in2="BackgroundImageFix" result="effect1_dropShadow_525_37041"/>
<feBlend mode="normal" in="SourceGraphic" in2="effect1_dropShadow_525_37041" result="shape"/>
</filter>
</defs>
</svg>
