<svg width="120" height="120" viewBox="0 0 120 120" fill="none" xmlns="http://www.w3.org/2000/svg">
<path d="M60.2987 102.075C84.9597 102.075 104.951 82.1793 104.951 57.6372C104.951 33.0953 84.9597 13.2 60.2987 13.2C35.6376 13.2 15.6458 33.0953 15.6458 57.6372C15.6458 82.1793 35.6376 102.075 60.2987 102.075Z" fill="#FBF9FF"/>
<g filter="url(#filter0_d_11297_2161)">
<path d="M15.5872 22.2522C15.5872 21.0059 16.6024 19.9957 17.8546 19.9957H102.381C103.634 19.9957 104.649 21.0059 104.649 22.2522V54.348C104.649 55.5941 103.634 56.6044 102.381 56.6044H17.8546C16.6024 56.6044 15.5872 55.5941 15.5872 54.348V22.2522Z" fill="#FBFBFB"/>
<path d="M91.6165 30.0093H57.5151C55.9715 30.0093 54.72 31.2548 54.72 32.7911C54.72 34.3273 55.9715 35.5728 57.5151 35.5728H91.6165C93.1603 35.5728 94.4118 34.3273 94.4118 32.7911C94.4118 31.2548 93.1603 30.0093 91.6165 30.0093Z" fill="#D9DEE3" fill-opacity="0.4"/>
<path d="M69.8139 37.7976H57.5151C55.9715 37.7976 54.72 39.0431 54.72 40.5793C54.72 42.1157 55.9715 43.361 57.5151 43.361H69.8139C71.3577 43.361 72.6092 42.1157 72.6092 40.5793C72.6092 39.0431 71.3577 37.7976 69.8139 37.7976Z" fill="#D9DEE3" fill-opacity="0.3"/>
<path d="M34.0099 47.7035C40.2476 47.7035 45.3044 42.6711 45.3044 36.4634C45.3044 30.2557 40.2476 25.2234 34.0099 25.2234C27.7721 25.2234 22.7153 30.2557 22.7153 36.4634C22.7153 42.6711 27.7721 47.7035 34.0099 47.7035Z" fill="#D2B8FF"/>
<path d="M34.0541 41.8427C37.0393 41.8427 39.4594 39.4343 39.4594 36.4635C39.4594 33.4924 37.0393 31.084 34.0541 31.084C31.0686 31.084 28.6486 33.4924 28.6486 36.4635C28.6486 39.4343 31.0686 41.8427 34.0541 41.8427Z" stroke="#F1EAFF" stroke-width="0.622222"/>
<path d="M33.0405 34.7809C33.0405 34.224 33.4942 33.7723 34.054 33.7723C34.6138 33.7723 35.0676 34.224 35.0676 34.7809C35.0676 35.1508 34.8676 35.4741 34.5694 35.6496C34.3124 35.8009 34.054 36.0305 34.054 36.3276V36.9999" stroke="#F1EAFF" stroke-width="0.622222" stroke-linecap="round"/>
<path d="M34.0541 39.1525C34.3526 39.1525 34.5946 38.9117 34.5946 38.6146C34.5946 38.3176 34.3526 38.0766 34.0541 38.0766C33.7555 38.0766 33.5135 38.3176 33.5135 38.6146C33.5135 38.9117 33.7555 39.1525 34.0541 39.1525Z" fill="#F1EAFF"/>
</g>
<g filter="url(#filter1_d_11297_2161)">
<path d="M8.53168 43.8792C8.53168 42.4356 9.70767 41.2653 11.1583 41.2653H109.078C110.529 41.2653 111.704 42.4356 111.704 43.8792V81.0604C111.704 82.5041 110.529 83.6745 109.078 83.6745H11.1583C9.70767 83.6745 8.53168 82.5041 8.53168 81.0604V43.8792Z" fill="#FBFBFB"/>
<path d="M96.6078 52.8657H57.1032C55.3148 52.8657 53.8651 54.3084 53.8651 56.0881C53.8651 57.8677 55.3148 59.3105 57.1032 59.3105H96.6078C98.3961 59.3105 99.8459 57.8677 99.8459 56.0881C99.8459 54.3084 98.3961 52.8657 96.6078 52.8657Z" fill="#D9DEE3" fill-opacity="0.4"/>
<path d="M71.3507 61.8879H57.1032C55.3148 61.8879 53.8651 63.3306 53.8651 65.1104C53.8651 66.8901 55.3148 68.3328 57.1032 68.3328H71.3507C73.139 68.3328 74.5888 66.8901 74.5888 65.1104C74.5888 63.3306 73.139 61.8879 71.3507 61.8879Z" fill="#D9DEE3" fill-opacity="0.3"/>
</g>
<path d="M31.6217 77.7515C40.1298 77.7515 47.027 70.8876 47.027 62.4205C47.027 53.9534 40.1298 47.0894 31.6217 47.0894C23.1134 47.0894 16.2162 53.9534 16.2162 62.4205C16.2162 70.8876 23.1134 77.7515 31.6217 77.7515Z" fill="#B5EFEF"/>
<path d="M31.6217 68.4729C34.9803 68.4729 37.7027 65.7636 37.7027 62.4212C37.7027 59.0789 34.9803 56.3695 31.6217 56.3695C28.2631 56.3695 25.5406 59.0789 25.5406 62.4212C25.5406 65.7636 28.2631 68.4729 31.6217 68.4729Z" stroke="#E9FAFA" stroke-width="0.7"/>
<path d="M30.4814 60.5299C30.4814 59.9033 30.992 59.3953 31.6217 59.3953C32.2513 59.3953 32.7618 59.9033 32.7618 60.5299C32.7618 60.946 32.5369 61.3098 32.2014 61.5073C31.9122 61.6775 31.6217 61.9356 31.6217 62.2698V63.0264" stroke="#E9FAFA" stroke-width="0.7" stroke-linecap="round"/>
<path d="M31.6217 65.4466C31.9575 65.4466 32.2298 65.1757 32.2298 64.8415C32.2298 64.5073 31.9575 64.2363 31.6217 64.2363C31.2858 64.2363 31.0135 64.5073 31.0135 64.8415C31.0135 65.1757 31.2858 65.4466 31.6217 65.4466Z" fill="#E9FAFA"/>
<defs>
<filter id="filter0_d_11297_2161" x="11.514" y="17.4891" width="97.208" height="44.755" filterUnits="userSpaceOnUse" color-interpolation-filters="sRGB">
<feFlood flood-opacity="0" result="BackgroundImageFix"/>
<feColorMatrix in="SourceAlpha" type="matrix" values="0 0 0 0 0 0 0 0 0 0 0 0 0 0 0 0 0 0 127 0" result="hardAlpha"/>
<feOffset dy="1.56662"/>
<feGaussianBlur stdDeviation="2.0366"/>
<feComposite in2="hardAlpha" operator="out"/>
<feColorMatrix type="matrix" values="0 0 0 0 0.823529 0 0 0 0 0.721569 0 0 0 0 1 0 0 0 0.4 0"/>
<feBlend mode="normal" in2="BackgroundImageFix" result="effect1_dropShadow_11297_2161"/>
<feBlend mode="normal" in="SourceGraphic" in2="effect1_dropShadow_11297_2161" result="shape"/>
</filter>
<filter id="filter1_d_11297_2161" x="3.8131" y="38.3615" width="112.61" height="51.8463" filterUnits="userSpaceOnUse" color-interpolation-filters="sRGB">
<feFlood flood-opacity="0" result="BackgroundImageFix"/>
<feColorMatrix in="SourceAlpha" type="matrix" values="0 0 0 0 0 0 0 0 0 0 0 0 0 0 0 0 0 0 127 0" result="hardAlpha"/>
<feOffset dy="1.81484"/>
<feGaussianBlur stdDeviation="2.35929"/>
<feComposite in2="hardAlpha" operator="out"/>
<feColorMatrix type="matrix" values="0 0 0 0 0.823529 0 0 0 0 0.721569 0 0 0 0 1 0 0 0 0.4 0"/>
<feBlend mode="normal" in2="BackgroundImageFix" result="effect1_dropShadow_11297_2161"/>
<feBlend mode="normal" in="SourceGraphic" in2="effect1_dropShadow_11297_2161" result="shape"/>
</filter>
</defs>
</svg>
