<svg width="100" height="100" viewBox="0 0 100 100" fill="none" xmlns="http://www.w3.org/2000/svg">
<path d="M50.2489 85.0621C70.7998 85.0621 87.4596 68.4827 87.4596 48.031C87.4596 27.5794 70.7998 11 50.2489 11C29.698 11 13.0382 27.5794 13.0382 48.031C13.0382 68.4827 29.698 85.0621 50.2489 85.0621Z" fill="#FBF9FF"/>
<g filter="url(#filter0_d_1339_22565)">
<path d="M12.9893 18.5435C12.9893 17.5049 13.8353 16.6631 14.8788 16.6631H85.3177C86.3613 16.6631 87.2073 17.5049 87.2073 18.5435V45.29C87.2073 46.3284 86.3613 47.1703 85.3177 47.1703H14.8788C13.8353 47.1703 12.9893 46.3284 12.9893 45.29V18.5435Z" fill="#FBFBFB"/>
<path d="M76.3471 25.0078H47.9293C46.6429 25.0078 45.6 26.0457 45.6 27.3259C45.6 28.6061 46.6429 29.644 47.9293 29.644H76.3471C77.6336 29.644 78.6765 28.6061 78.6765 27.3259C78.6765 26.0457 77.6336 25.0078 76.3471 25.0078Z" fill="#D9DEE3" fill-opacity="0.4"/>
<path d="M58.1783 31.498H47.9293C46.6429 31.498 45.6 32.5359 45.6 33.8161C45.6 35.0964 46.6429 36.1342 47.9293 36.1342H58.1783C59.4648 36.1342 60.5077 35.0964 60.5077 33.8161C60.5077 32.5359 59.4648 31.498 58.1783 31.498Z" fill="#D9DEE3" fill-opacity="0.3"/>
<path d="M28.3416 39.7529C33.5397 39.7529 37.7537 35.5593 37.7537 30.3862C37.7537 25.2131 33.5397 21.0195 28.3416 21.0195C23.1434 21.0195 18.9294 25.2131 18.9294 30.3862C18.9294 35.5593 23.1434 39.7529 28.3416 39.7529Z" fill="#D2B8FF"/>
<path d="M28.3784 34.8689C30.8661 34.8689 32.8828 32.8619 32.8828 30.3862C32.8828 27.9103 30.8661 25.9033 28.3784 25.9033C25.8905 25.9033 23.8738 27.9103 23.8738 30.3862C23.8738 32.8619 25.8905 34.8689 28.3784 34.8689Z" stroke="#F1EAFF" stroke-width="0.622222"/>
<path d="M27.5338 28.9841C27.5338 28.52 27.9119 28.1436 28.3784 28.1436C28.8449 28.1436 29.223 28.52 29.223 28.9841C29.223 29.2923 29.0564 29.5617 28.8079 29.708C28.5937 29.8341 28.3784 30.0254 28.3784 30.273V30.8332" stroke="#F1EAFF" stroke-width="0.622222" stroke-linecap="round"/>
<path d="M28.3784 32.6271C28.6272 32.6271 28.8288 32.4264 28.8288 32.1788C28.8288 31.9313 28.6272 31.7305 28.3784 31.7305C28.1296 31.7305 27.9279 31.9313 27.9279 32.1788C27.9279 32.4264 28.1296 32.6271 28.3784 32.6271Z" fill="#F1EAFF"/>
</g>
<g filter="url(#filter1_d_1339_22565)">
<path d="M7.10974 36.566C7.10974 35.363 8.08973 34.3877 9.29861 34.3877H90.8982C92.1071 34.3877 93.087 35.363 93.087 36.566V67.5503C93.087 68.7534 92.1071 69.7287 90.8982 69.7287H9.29861C8.08973 69.7287 7.10974 68.7534 7.10974 67.5503V36.566Z" fill="#FBFBFB"/>
<path d="M80.5065 44.0547H47.586C46.0957 44.0547 44.8876 45.257 44.8876 46.7401C44.8876 48.2231 46.0957 49.4254 47.586 49.4254H80.5065C81.9968 49.4254 83.2049 48.2231 83.2049 46.7401C83.2049 45.257 81.9968 44.0547 80.5065 44.0547Z" fill="#D9DEE3" fill-opacity="0.4"/>
<path d="M59.4589 51.5732H47.586C46.0957 51.5732 44.8876 52.7755 44.8876 54.2586C44.8876 55.7417 46.0957 56.944 47.586 56.944H59.4589C60.9492 56.944 62.1573 55.7417 62.1573 54.2586C62.1573 52.7755 60.9492 51.5732 59.4589 51.5732Z" fill="#D9DEE3" fill-opacity="0.3"/>
</g>
<path d="M26.3514 64.7929C33.4415 64.7929 39.1892 59.073 39.1892 52.0171C39.1892 44.9612 33.4415 39.2412 26.3514 39.2412C19.2612 39.2412 13.5135 44.9612 13.5135 52.0171C13.5135 59.073 19.2612 64.7929 26.3514 64.7929Z" fill="#B5EFEF"/>
<path d="M26.3514 57.0608C29.1502 57.0608 31.4189 54.803 31.4189 52.0177C31.4189 49.2324 29.1502 46.9746 26.3514 46.9746C23.5526 46.9746 21.2838 49.2324 21.2838 52.0177C21.2838 54.803 23.5526 57.0608 26.3514 57.0608Z" stroke="#E9FAFA" stroke-width="0.7"/>
<path d="M25.4012 50.4416C25.4012 49.9194 25.8267 49.4961 26.3514 49.4961C26.8761 49.4961 27.3015 49.9194 27.3015 50.4416C27.3015 50.7883 27.1141 51.0915 26.8345 51.2561C26.5935 51.3979 26.3514 51.613 26.3514 51.8915V52.522" stroke="#E9FAFA" stroke-width="0.7" stroke-linecap="round"/>
<path d="M26.3514 54.5389C26.6312 54.5389 26.8581 54.3131 26.8581 54.0346C26.8581 53.7561 26.6312 53.5303 26.3514 53.5303C26.0715 53.5303 25.8446 53.7561 25.8446 54.0346C25.8446 54.3131 26.0715 54.5389 26.3514 54.5389Z" fill="#E9FAFA"/>
<defs>
<filter id="filter0_d_1339_22565" x="8.91606" y="14.1565" width="82.3644" height="38.6532" filterUnits="userSpaceOnUse" color-interpolation-filters="sRGB">
<feFlood flood-opacity="0" result="BackgroundImageFix"/>
<feColorMatrix in="SourceAlpha" type="matrix" values="0 0 0 0 0 0 0 0 0 0 0 0 0 0 0 0 0 0 127 0" result="hardAlpha"/>
<feOffset dy="1.56662"/>
<feGaussianBlur stdDeviation="2.0366"/>
<feComposite in2="hardAlpha" operator="out"/>
<feColorMatrix type="matrix" values="0 0 0 0 0.823529 0 0 0 0 0.721569 0 0 0 0 1 0 0 0 0.4 0"/>
<feBlend mode="normal" in2="BackgroundImageFix" result="effect1_dropShadow_1339_22565"/>
<feBlend mode="normal" in="SourceGraphic" in2="effect1_dropShadow_1339_22565" result="shape"/>
</filter>
<filter id="filter1_d_1339_22565" x="2.39116" y="31.484" width="95.4145" height="44.778" filterUnits="userSpaceOnUse" color-interpolation-filters="sRGB">
<feFlood flood-opacity="0" result="BackgroundImageFix"/>
<feColorMatrix in="SourceAlpha" type="matrix" values="0 0 0 0 0 0 0 0 0 0 0 0 0 0 0 0 0 0 127 0" result="hardAlpha"/>
<feOffset dy="1.81484"/>
<feGaussianBlur stdDeviation="2.35929"/>
<feComposite in2="hardAlpha" operator="out"/>
<feColorMatrix type="matrix" values="0 0 0 0 0.823529 0 0 0 0 0.721569 0 0 0 0 1 0 0 0 0.4 0"/>
<feBlend mode="normal" in2="BackgroundImageFix" result="effect1_dropShadow_1339_22565"/>
<feBlend mode="normal" in="SourceGraphic" in2="effect1_dropShadow_1339_22565" result="shape"/>
</filter>
</defs>
</svg>
