<svg width="679" height="534" viewBox="0 0 679 534" fill="none" xmlns="http://www.w3.org/2000/svg">
<rect x="90.4346" y="0.5" width="498" height="533" rx="28.175" fill="#1F0433" stroke="#AE72FF"/>
<circle cx="160.934" cy="69" r="37.5" stroke="#AE72FF"/>
<rect x="214.935" y="55" width="110" height="28" rx="5" fill="#2E1044"/>
<path d="M524.899 53.0151L519.934 48.1304L522.1 46L527.065 50.8847H550.403C551.249 50.8847 551.934 51.5592 551.934 52.3911C551.934 52.5377 551.912 52.6836 551.87 52.824L548.195 64.8752C548 65.5124 547.404 65.9488 546.728 65.9488H527.962V68.9616H544.805V71.9744H526.43C525.585 71.9744 524.899 71.2998 524.899 70.468V53.0151ZM527.196 78C525.928 78 524.899 76.9883 524.899 75.7404C524.899 74.4923 525.928 73.4808 527.196 73.4808C528.465 73.4808 529.493 74.4923 529.493 75.7404C529.493 76.9883 528.465 78 527.196 78ZM545.571 78C544.302 78 543.274 76.9883 543.274 75.7404C543.274 74.4923 544.302 73.4808 545.571 73.4808C546.839 73.4808 547.867 74.4923 547.867 75.7404C547.867 76.9883 546.839 78 545.571 78Z" fill="#AE72FF"/>
<path d="M484.188 69.0257L490.935 75.7722L488.707 78L481.96 71.2535C479.535 73.1943 476.458 74.3552 473.112 74.3552C465.286 74.3552 458.935 68.0037 458.935 60.1776C458.935 52.3516 465.286 46 473.112 46C480.938 46 487.29 52.3516 487.29 60.1776C487.29 63.5235 486.129 66.5999 484.188 69.0257ZM481.028 67.8569C482.954 65.8717 484.139 63.1637 484.139 60.1776C484.139 54.0852 479.205 49.1506 473.112 49.1506C467.02 49.1506 462.085 54.0852 462.085 60.1776C462.085 66.2701 467.02 71.2047 473.112 71.2047C476.098 71.2047 478.806 70.0193 480.791 68.093L481.028 67.8569Z" fill="#AE72FF"/>
<g opacity="0.21">
<path fill-rule="evenodd" clip-rule="evenodd" d="M151.585 68.896C149.919 67.7049 147.91 67.0514 145.837 67.0514C144.814 67.0514 143.992 67.8731 143.992 68.896C143.992 69.9188 144.814 70.7405 145.837 70.7405C147.91 70.7405 149.919 70.087 151.585 68.896ZM160.331 77.6413C159.139 79.308 158.486 81.3169 158.486 83.3897C158.486 84.4125 159.308 85.2342 160.331 85.2342C161.353 85.2342 162.175 84.4125 162.175 83.3897C162.175 81.3169 161.522 79.308 160.331 77.6413ZM169.076 68.896C170.743 70.087 172.751 70.7405 174.824 70.7405C175.847 70.7405 176.669 69.9188 176.669 68.896C176.669 67.8731 175.847 67.0514 174.824 67.0514C172.751 67.0514 170.743 67.7049 169.076 68.896ZM160.331 65.3731L156.808 68.896L160.331 72.4188L163.853 68.896L160.331 65.3731ZM162.788 62.7976C164.683 60.4271 165.733 57.4669 165.733 54.4023C165.733 51.3376 163.318 49 160.331 49C157.343 49 154.928 51.415 154.928 54.4023C154.928 57.3896 155.978 60.4271 157.873 62.7976L154.234 66.4365C151.864 64.5417 148.903 63.4918 145.839 63.4918C142.774 63.4918 140.435 65.9087 140.435 68.896C140.435 71.8833 142.85 74.2982 145.837 74.2982C148.824 74.2982 151.862 73.2483 154.232 71.3535L157.871 74.9924C155.976 77.3629 154.926 80.3231 154.926 83.3877C154.926 86.4524 157.341 88.79 160.329 88.79C163.316 88.79 165.731 86.375 165.731 83.3877C165.731 80.4004 164.681 77.3629 162.786 74.9924L166.425 71.3535C168.795 73.2483 171.756 74.2982 174.82 74.2982C177.885 74.2982 180.223 71.8833 180.223 68.896C180.223 65.9087 177.808 63.4937 174.82 63.4937C171.833 63.4937 168.795 64.5436 166.425 66.4385L162.786 62.7996L162.788 62.7976ZM160.331 52.5577C159.308 52.5577 158.486 53.3794 158.486 54.4023C158.486 56.475 159.139 58.4839 160.331 60.1506C161.522 58.4839 162.175 56.475 162.175 54.4023C162.175 53.3794 161.353 52.5577 160.331 52.5577Z" fill="#AE72FF"/>
</g>
<rect x="233.6" y="173.5" width="211.75" height="284.825" rx="24.5" fill="#1F0433" stroke="#AE72FF"/>
<rect x="466.7" y="173.5" width="211.75" height="284.825" rx="24.5" fill="#1F0433" stroke="#AE72FF"/>
<rect x="0.5" y="173.5" width="211.75" height="284.825" rx="24.5" fill="#1F0433" stroke="#AE72FF"/>
<rect x="25" y="381" width="162" height="28" rx="5" fill="#2E1044"/>
<rect x="258" y="381" width="162" height="28" rx="5" fill="#2E1044"/>
<rect x="492" y="381" width="162" height="28" rx="5" fill="#2E1044"/>
<rect x="25" y="199" width="162" height="158" rx="17" fill="#2E1044"/>
<rect x="258" y="199" width="162" height="158" rx="17" fill="#2E1044"/>
<rect x="492" y="199" width="162" height="158" rx="17" fill="#2E1044"/>
<path d="M516.887 306.994L516.883 307.014C516.637 308.677 516.646 310.322 516.912 311.904C517.513 315.458 519.365 320.051 524.781 321.747C525.943 322.112 527.208 322.298 528.539 322.298H613.597C614.928 322.298 616.193 322.112 617.357 321.747C622.771 320.051 624.622 315.458 625.224 311.903C625.491 310.321 625.5 308.676 625.253 307.013C624.631 302.817 622.485 288.368 620.722 276.891C620.497 277.668 620.127 278.578 619.521 279.539C621.125 290.043 622.947 302.296 623.545 306.331C623.783 307.927 623.784 309.552 623.516 311.143C622.959 314.443 621.19 319.167 615.712 320.883C614.511 321.26 613.254 321.428 611.992 321.428H530.144C528.884 321.428 527.626 321.26 526.426 320.883C520.948 319.167 519.179 314.443 518.621 311.143C518.354 309.552 518.357 307.928 518.592 306.331C519.193 302.296 521.013 290.044 522.619 279.541C522.014 278.581 521.644 277.671 521.418 276.894C520.262 284.419 518.741 294.527 516.888 306.993L516.887 306.994Z" fill="#AE72FF"/>
<path d="M518.593 306.331C518.356 307.927 518.355 309.552 518.622 311.143C519.179 314.443 520.95 319.167 526.427 320.883C527.627 321.26 528.885 321.428 530.145 321.428H611.993C613.254 321.428 614.51 321.26 615.713 320.883C621.191 319.167 622.959 314.443 623.517 311.143C623.785 309.552 623.784 307.928 623.546 306.331C622.948 302.296 621.126 290.043 619.521 279.539C618.937 280.467 618.134 281.44 617.031 282.385L620.929 309.714C621.112 310.999 621.116 312.259 620.939 313.458C620.342 317.524 618.056 319.763 614.502 319.763H527.624C524.07 319.763 521.784 317.524 521.187 313.458C521.01 312.259 521.014 310.999 521.197 309.714L525.097 282.375C524.001 281.435 523.201 280.466 522.62 279.543C521.014 290.046 519.193 302.297 518.593 306.332V306.331Z" fill="#512473"/>
<path d="M620.228 309.813L616.39 282.904C615.732 283.407 614.981 283.897 614.128 284.365L617.268 306.7C617.43 307.843 617.444 309.003 617.279 310.147C616.926 312.582 615.689 315.83 611.597 315.83H530.527C526.436 315.83 525.199 312.582 524.845 310.147C524.68 309.003 524.695 307.843 524.855 306.7L527.996 284.358C527.142 283.89 526.391 283.399 525.734 282.896L521.895 309.814C521.721 311.033 521.717 312.224 521.883 313.355C522.265 315.956 523.571 319.058 527.621 319.058H614.499C618.549 319.058 619.855 315.957 620.237 313.355C620.403 312.224 620.4 311.032 620.226 309.814L620.228 309.813Z" fill="#AE72FF"/>
<path d="M524.845 310.147C525.198 312.582 526.435 315.829 530.527 315.829H611.598C615.69 315.829 616.926 312.582 617.28 310.147C617.445 309.003 617.43 307.843 617.27 306.699L614.129 284.364C613.821 284.533 613.502 284.697 613.167 284.858C605.331 288.621 577.849 298.016 571.177 298.016C571.138 298.016 571.1 298.016 571.063 298.016C571.026 298.016 570.987 298.016 570.95 298.016C564.293 298.016 536.809 288.621 528.973 284.858C528.633 284.695 528.309 284.528 527.998 284.357L524.857 306.699C524.697 307.843 524.681 309.003 524.846 310.147H524.845Z" fill="#AE72FF"/>
<path d="M613.013 281.978C604.847 285.898 577.311 295.206 571.069 295.099C564.827 295.205 537.291 285.898 529.125 281.978C524.267 279.645 522.465 276.535 521.802 274.398C521.795 274.443 521.788 274.487 521.782 274.533C521.782 274.533 521.782 274.533 521.782 274.534C521.766 274.775 521.502 280.487 529.28 284.22C537.941 288.378 564.734 297.308 570.961 297.308C570.997 297.308 571.031 297.308 571.064 297.308C571.098 297.308 571.133 297.308 571.169 297.308C577.405 297.308 604.2 288.378 612.862 284.22C620.636 280.488 620.375 274.775 620.36 274.534C620.36 274.534 620.36 274.534 620.36 274.533C620.353 274.486 620.346 274.441 620.339 274.395C619.677 276.532 617.875 279.644 613.015 281.978H613.013Z" fill="#512473"/>
<path d="M521.802 274.398C522.465 276.535 524.267 279.645 529.125 281.978C537.29 285.898 564.826 295.206 571.068 295.099C577.31 295.205 604.846 285.898 613.012 281.978C617.873 279.644 619.674 276.531 620.336 274.394C619.211 267.124 618.547 263.053 618.305 261.954C618.298 261.925 618.291 261.896 618.284 261.867C618.272 261.81 618.258 261.754 618.243 261.7C618.231 261.657 618.219 261.614 618.208 261.571C618.188 261.505 618.168 261.44 618.147 261.376C618.132 261.33 618.116 261.284 618.1 261.238C618.091 261.212 618.08 261.185 618.07 261.158C618.037 261.073 618.003 260.989 617.967 260.908C617.966 260.904 617.964 260.901 617.963 260.898C617.488 259.824 616.746 259.188 616.048 258.812C616.373 260.793 616.941 264.588 617.74 270.119C617.742 270.136 617.743 270.153 617.743 270.169C617.757 270.421 618.01 276.588 610.368 280.52C604.61 283.483 588.205 289.671 577.977 292.401C575.384 293.092 573.386 293.506 572.013 293.637C571.696 293.667 571.414 293.682 571.165 293.682C571.129 293.682 571.094 293.682 571.059 293.682C569.759 293.706 567.437 293.276 564.159 292.403C553.923 289.669 537.517 283.482 531.764 280.521C524.176 276.618 524.371 270.511 524.389 270.168C524.389 270.152 524.39 270.133 524.392 270.12C525.204 264.498 525.759 260.782 526.082 258.814C525.387 259.19 524.667 259.811 524.196 260.841C524.184 260.867 524.172 260.894 524.16 260.921C524.136 260.975 524.112 261.032 524.09 261.09C524.069 261.142 524.05 261.196 524.03 261.25C524.017 261.284 524.006 261.318 523.994 261.353C523.968 261.43 523.944 261.507 523.922 261.587C523.914 261.616 523.906 261.645 523.899 261.674C523.878 261.752 523.858 261.831 523.84 261.912C523.836 261.926 523.833 261.939 523.83 261.953C523.589 263.054 522.923 267.127 521.798 274.398H521.802Z" fill="#AE72FF"/>
<path d="M610.208 275.817C604.433 278.789 588.275 284.854 578.253 287.571V291.597C588.467 288.819 604.403 282.798 610.047 279.894C617.287 276.168 617.053 270.442 617.04 270.2V270.198C616.973 269.734 616.908 269.284 616.844 268.846C616.092 270.935 614.329 273.697 610.208 275.816V275.817Z" fill="#512473"/>
<path d="M531.928 275.817C527.808 273.697 526.044 270.935 525.293 268.846C525.229 269.284 525.164 269.734 525.098 270.199V270.201C525.084 270.444 524.849 276.17 532.091 279.895C537.729 282.796 553.665 288.817 563.886 291.599V287.573C553.865 284.854 537.705 278.79 531.93 275.818L531.928 275.817Z" fill="#512473"/>
<path d="M526.856 258.482C526.573 260.153 526.06 263.557 525.293 268.846C526.045 270.935 527.808 273.696 531.929 275.817C537.704 278.789 553.864 284.854 563.885 287.572V285.076C563.885 283.094 565.499 281.481 567.484 281.481H574.655C576.639 281.481 578.254 283.093 578.254 285.076V287.571C588.276 284.854 604.434 278.789 610.209 275.817C614.329 273.698 616.093 270.936 616.845 268.847C616.093 263.662 615.569 260.188 615.285 258.505C614.515 258.237 613.898 258.231 613.891 258.231H596.317C596.89 259.512 597.044 261.454 596.222 262.801C595.745 263.583 594.732 264.506 592.611 264.506C592.583 264.506 592.554 264.506 592.526 264.506C590.345 264.48 588.496 263.49 587.456 261.788C586.781 260.683 586.529 259.382 586.731 258.231H555.41C555.611 259.381 555.361 260.683 554.686 261.788C553.646 263.49 551.798 264.48 549.616 264.506C549.587 264.506 549.559 264.506 549.531 264.506C547.41 264.506 546.397 263.582 545.92 262.801C545.098 261.455 545.252 259.513 545.825 258.231H528.182C528.182 258.231 527.594 258.237 526.856 258.482Z" fill="#512473"/>
<path d="M519.413 285.362C518.488 291.47 517.411 298.667 516.188 306.89L516.185 306.91C515.928 308.646 515.939 310.365 516.216 312.021C516.849 315.77 518.812 320.617 524.57 322.421C525.801 322.808 527.137 323.004 528.54 323.004H613.598C615 323.004 616.336 322.808 617.568 322.422C621.055 321.33 623.148 319.119 624.399 316.713C625.213 315.147 625.67 313.5 625.92 312.022C626.2 310.368 626.21 308.648 625.951 306.911C625.536 304.107 624.44 296.727 623.231 288.71C623.166 288.281 623.101 287.851 623.036 287.418C621.322 276.065 619.448 263.874 618.995 261.803C618.988 261.772 618.98 261.744 618.973 261.714C618.956 261.641 618.938 261.569 618.92 261.498C618.909 261.459 618.899 261.419 618.889 261.38C618.862 261.287 618.833 261.198 618.804 261.11C618.793 261.078 618.783 261.047 618.772 261.017C618.739 260.923 618.705 260.832 618.668 260.743C618.661 260.726 618.653 260.708 618.646 260.69C617.965 259.08 616.764 258.297 615.792 257.916C614.807 257.529 613.99 257.524 613.956 257.524H595.983C595.311 255.847 595.422 253.471 595.654 249.902C595.707 249.09 595.705 248.205 595.65 247.269C595.405 243.147 594.151 238.975 592.024 235.203C584.796 222.386 572.526 222.003 571.159 222.001C571.022 221.997 567.739 221.942 563.481 223.537C559.554 225.009 554.049 228.226 550.114 235.203C547.987 238.975 546.733 243.147 546.488 247.269C546.432 248.204 546.431 249.09 546.483 249.902C546.715 253.471 546.826 255.847 546.154 257.524H528.116C528.085 257.524 527.344 257.528 526.427 257.859C526.386 257.875 526.35 257.899 526.319 257.926C525.256 258.348 523.994 259.222 523.36 261.031C523.355 261.048 523.349 261.066 523.343 261.083C523.309 261.183 523.277 261.285 523.247 261.39C523.24 261.416 523.233 261.441 523.226 261.467C523.199 261.563 523.175 261.662 523.152 261.762C523.149 261.776 523.146 261.788 523.143 261.802C522.897 262.924 522.221 267.06 521.079 274.448C521.078 274.456 521.077 274.466 521.075 274.478C520.629 277.363 520.12 280.694 519.551 284.456C519.506 284.755 519.459 285.057 519.414 285.362H519.413ZM547.188 249.856C547.137 249.074 547.138 248.218 547.192 247.312C547.432 243.297 548.654 239.229 550.729 235.55C554.552 228.771 559.893 225.641 563.701 224.209C567.836 222.654 571.112 222.706 571.151 222.707C572.484 222.708 584.378 223.082 591.411 235.55C593.485 239.229 594.708 243.296 594.947 247.312C595.001 248.219 595.002 249.075 594.952 249.858C594.691 253.881 594.58 256.441 595.568 258.306C596.064 259.242 596.408 261.142 595.62 262.434C595.184 263.147 594.465 263.584 593.477 263.737C593.186 263.782 592.874 263.804 592.536 263.8C590.603 263.778 588.971 262.91 588.061 261.42C587.284 260.15 587.15 258.596 587.717 257.462C589.14 254.621 591.167 246.518 588.357 239.606C585.516 232.619 577.925 227.103 571.069 227.048C564.218 227.103 556.627 232.619 553.786 239.606C550.975 246.519 553.004 254.621 554.426 257.462C554.994 258.596 554.859 260.15 554.082 261.42C553.172 262.91 551.541 263.778 549.607 263.8C549.27 263.804 548.956 263.782 548.665 263.737C547.679 263.583 546.958 263.147 546.523 262.434C545.733 261.141 546.077 259.242 546.574 258.306C547.562 256.443 547.451 253.881 547.19 249.858L547.188 249.856ZM555.056 257.145C553.681 254.397 551.719 246.56 554.44 239.87C557.181 233.128 564.488 227.804 571.068 227.753C577.653 227.806 584.959 233.128 587.7 239.87C590.419 246.56 588.459 254.398 587.083 257.145C587.022 257.268 586.97 257.396 586.922 257.526H555.218C555.17 257.396 555.118 257.268 555.056 257.145ZM545.918 262.8C546.395 263.582 547.407 264.505 549.529 264.505C549.556 264.505 549.585 264.505 549.613 264.505C551.795 264.479 553.643 263.489 554.684 261.787C555.358 260.682 555.61 259.381 555.408 258.231H586.729C586.528 259.38 586.779 260.682 587.454 261.787C588.494 263.489 590.341 264.479 592.524 264.505C592.553 264.505 592.581 264.505 592.609 264.505C594.73 264.505 595.743 263.581 596.22 262.8C597.042 261.454 596.887 259.512 596.315 258.231H613.889C613.896 258.231 614.514 258.236 615.282 258.504C615.567 260.187 616.09 263.661 616.843 268.846C616.907 269.285 616.972 269.735 617.039 270.198V270.2C617.053 270.443 617.287 276.168 610.046 279.894C604.403 282.797 588.466 288.819 578.252 291.597V285.076C578.252 283.094 576.638 281.481 574.653 281.481H567.482C565.498 281.481 563.883 283.093 563.883 285.076V291.598C553.662 288.817 537.726 282.796 532.088 279.894C524.848 276.17 525.082 270.443 525.095 270.2V270.198C525.162 269.733 525.227 269.283 525.29 268.845C526.056 263.556 526.57 260.152 526.853 258.481C527.59 258.236 528.173 258.231 528.179 258.231H545.82C545.248 259.511 545.093 261.453 545.915 262.8H545.918ZM523.901 261.674C523.91 261.645 523.916 261.616 523.925 261.587C523.948 261.507 523.971 261.43 523.997 261.353C524.008 261.318 524.02 261.284 524.033 261.25C524.052 261.195 524.072 261.142 524.093 261.09C524.115 261.032 524.138 260.976 524.163 260.921C524.174 260.894 524.186 260.867 524.199 260.841C524.67 259.811 525.389 259.189 526.084 258.814C525.761 260.781 525.206 264.497 524.395 270.12C524.393 270.133 524.391 270.153 524.391 270.168C524.374 270.511 524.179 276.618 531.766 280.521C537.52 283.482 553.925 289.67 564.161 292.403C567.439 293.275 569.761 293.706 571.062 293.682C571.097 293.682 571.131 293.682 571.167 293.682C571.417 293.682 571.7 293.667 572.016 293.637C573.387 293.506 575.386 293.092 577.979 292.401C588.207 289.671 604.613 283.483 610.371 280.52C618.013 276.587 617.76 270.421 617.746 270.169C617.746 270.152 617.745 270.135 617.743 270.119C616.944 264.588 616.376 260.793 616.051 258.811C616.749 259.188 617.491 259.824 617.965 260.897C617.967 260.901 617.969 260.904 617.97 260.908C618.006 260.989 618.04 261.073 618.072 261.158C618.083 261.185 618.092 261.212 618.102 261.238C618.119 261.284 618.134 261.33 618.15 261.376C618.171 261.44 618.191 261.505 618.21 261.571C618.222 261.613 618.234 261.656 618.245 261.7C618.259 261.754 618.273 261.81 618.287 261.867C618.294 261.896 618.301 261.925 618.308 261.954C618.549 263.053 619.214 267.124 620.339 274.394C620.346 274.441 620.353 274.486 620.36 274.532V274.534C620.375 274.775 620.637 280.488 612.861 284.22C604.2 288.379 577.405 297.308 571.169 297.308C571.134 297.308 571.099 297.308 571.064 297.308C571.03 297.308 570.996 297.308 570.961 297.308C564.734 297.308 537.941 288.378 529.279 284.22C521.501 280.487 521.766 274.775 521.781 274.534V274.532C521.788 274.487 521.795 274.443 521.802 274.398C522.927 267.126 523.591 263.054 523.834 261.953C523.838 261.939 523.841 261.926 523.843 261.912C523.862 261.831 523.882 261.752 523.903 261.674H523.901ZM577.547 291.769V291.786C577.494 291.8 577.439 291.814 577.387 291.828C577.287 291.855 577.188 291.88 577.089 291.906C576.996 291.93 576.904 291.953 576.813 291.976C576.72 292 576.627 292.024 576.536 292.046C576.443 292.069 576.352 292.091 576.261 292.114C576.175 292.135 576.088 292.157 576.003 292.177C575.91 292.199 575.82 292.221 575.728 292.242C575.649 292.26 575.57 292.279 575.494 292.298C575.399 292.32 575.308 292.34 575.216 292.361C575.145 292.378 575.074 292.394 575.005 292.409C574.911 292.43 574.819 292.449 574.727 292.469C574.663 292.483 574.598 292.497 574.536 292.51C574.442 292.529 574.35 292.548 574.259 292.567C574.202 292.578 574.146 292.59 574.09 292.601C573.996 292.62 573.905 292.637 573.813 292.655C573.764 292.664 573.714 292.674 573.665 292.682C573.572 292.7 573.481 292.716 573.392 292.731C573.349 292.739 573.305 292.746 573.262 292.754C573.17 292.769 573.082 292.785 572.994 292.798C572.957 292.804 572.917 292.811 572.881 292.817C572.792 292.831 572.706 292.842 572.62 292.855C572.587 292.86 572.554 292.865 572.521 292.869C572.434 292.881 572.352 292.891 572.269 292.9C572.241 292.904 572.211 292.907 572.184 292.911C572.1 292.92 572.02 292.928 571.939 292.935C571.916 292.938 571.892 292.94 571.87 292.942C571.789 292.949 571.712 292.955 571.635 292.96C571.617 292.961 571.596 292.963 571.577 292.964C571.498 292.969 571.424 292.971 571.351 292.974C571.337 292.974 571.322 292.975 571.308 292.976C571.222 292.978 571.14 292.978 571.062 292.976C570.984 292.977 570.901 292.976 570.817 292.975C570.81 292.975 570.8 292.975 570.794 292.975C570.716 292.972 570.634 292.969 570.55 292.964C570.528 292.963 570.504 292.961 570.482 292.96C570.41 292.955 570.338 292.95 570.263 292.943C570.226 292.94 570.185 292.935 570.147 292.932C570.083 292.926 570.02 292.919 569.953 292.912C569.903 292.906 569.85 292.899 569.797 292.894C569.739 292.887 569.682 292.88 569.622 292.871C569.559 292.863 569.494 292.853 569.43 292.844C569.377 292.836 569.324 292.829 569.269 292.82C569.197 292.81 569.123 292.797 569.048 292.785C568.997 292.776 568.946 292.768 568.894 292.759C568.815 292.745 568.734 292.731 568.653 292.716C568.599 292.707 568.548 292.698 568.493 292.687C568.411 292.672 568.325 292.655 568.239 292.638C568.183 292.628 568.128 292.618 568.071 292.606C567.985 292.589 567.897 292.571 567.808 292.553C567.747 292.54 567.686 292.528 567.624 292.514C567.537 292.496 567.448 292.477 567.359 292.458C567.291 292.442 567.222 292.429 567.152 292.412C567.066 292.394 566.978 292.373 566.891 292.353C566.813 292.336 566.736 292.318 566.657 292.3C566.573 292.28 566.488 292.26 566.402 292.241C566.314 292.22 566.226 292.199 566.136 292.177C566.055 292.157 565.973 292.137 565.89 292.117C565.793 292.092 565.695 292.069 565.597 292.044C565.515 292.024 565.433 292.003 565.35 291.981C565.246 291.954 565.141 291.928 565.036 291.901C564.952 291.879 564.867 291.857 564.783 291.835C564.72 291.819 564.657 291.801 564.593 291.785L564.593 292.177C566.136 292.353 568.202 293.281 569.797 293.281L574.09 292.817C575.684 292.817 574.727 292.046 575.728 292.716L577.549 291.766L577.547 291.769ZM614.502 319.057H527.624C523.573 319.057 522.268 315.957 521.886 313.355C521.72 312.223 521.723 311.031 521.897 309.813L525.737 282.895C526.394 283.399 527.144 283.891 527.999 284.357C528.31 284.527 528.634 284.694 528.974 284.858C536.811 288.621 564.294 298.015 570.951 298.015C570.99 298.015 571.028 298.015 571.064 298.015C571.101 298.015 571.138 298.015 571.178 298.015C577.849 298.015 605.331 288.619 613.168 284.858C613.503 284.697 613.823 284.532 614.13 284.364C614.985 283.898 615.735 283.407 616.392 282.903L620.231 309.812C620.405 311.031 620.408 312.222 620.242 313.353C619.86 315.954 618.554 319.056 614.504 319.056L614.502 319.057ZM522.618 279.542C523.2 280.465 524 281.434 525.096 282.374L521.196 309.713C521.013 310.997 521.009 312.258 521.186 313.457C521.782 317.523 524.069 319.762 527.623 319.762H614.501C618.055 319.762 620.341 317.523 620.938 313.457C621.114 312.258 621.111 310.998 620.927 309.713L617.03 282.384C618.133 281.439 618.936 280.466 619.52 279.538C620.125 278.577 620.495 277.667 620.722 276.89C622.484 288.367 624.631 302.817 625.252 307.012C625.501 308.675 625.49 310.32 625.223 311.902C624.623 315.456 622.77 320.05 617.356 321.746C616.193 322.111 614.927 322.297 613.596 322.297H528.54C527.209 322.297 525.944 322.111 524.781 321.746C519.366 320.05 517.513 315.456 516.913 311.903C516.647 310.32 516.638 308.675 516.884 307.013L516.887 306.993C518.74 294.526 520.261 284.42 521.418 276.894C521.644 277.671 522.013 278.581 522.618 279.542Z" fill="#512473"/>
<path d="M546.571 258.305C546.076 259.241 545.732 261.141 546.52 262.433C546.956 263.146 547.677 263.582 548.662 263.736C548.254 262.436 548.523 260.856 548.96 259.944C549.8 258.19 549.707 255.764 549.474 251.793C549.424 250.941 549.433 250.074 549.477 249.238C549.7 245.102 550.831 241.093 552.668 237.482C559.076 224.903 570.124 224.63 571.076 224.63H571.141C572.13 224.631 583.076 224.931 589.468 237.482C591.307 241.092 592.438 245.102 592.659 249.238C592.705 250.074 592.713 250.941 592.665 251.793C592.431 255.764 592.338 258.19 593.177 259.944C593.613 260.856 593.883 262.436 593.474 263.736C594.462 263.583 595.181 263.146 595.616 262.433C596.406 261.14 596.062 259.241 595.565 258.305C594.577 256.441 594.687 253.88 594.948 249.856C595 249.074 594.998 248.218 594.944 247.311C594.705 243.296 593.482 239.228 591.407 235.549C584.377 223.082 572.483 222.71 571.15 222.707C571.11 222.707 567.835 222.654 563.699 224.209C559.892 225.641 554.551 228.77 550.728 235.55C548.653 239.229 547.43 243.296 547.191 247.312C547.138 248.218 547.137 249.075 547.187 249.856C547.448 253.88 547.558 256.44 546.57 258.305H546.571Z" fill="#512473"/>
<path d="M593.178 259.945C592.339 258.19 592.433 255.764 592.666 251.793C592.716 250.941 592.707 250.075 592.66 249.239C592.44 245.103 591.309 241.093 589.47 237.482C583.078 224.933 572.131 224.632 571.142 224.63H571.077C570.125 224.63 559.077 224.904 552.669 237.482C550.831 241.092 549.702 245.103 549.479 249.239C549.435 250.075 549.425 250.941 549.475 251.793C549.709 255.764 549.803 258.19 548.961 259.945C548.524 260.856 548.255 262.436 548.664 263.736C548.955 263.781 549.269 263.803 549.607 263.799C551.54 263.777 553.171 262.909 554.081 261.419C554.858 260.149 554.993 258.595 554.425 257.461C553.003 254.62 550.975 246.517 553.785 239.605C556.626 232.618 564.217 227.102 571.068 227.048C577.924 227.102 585.515 232.618 588.356 239.605C591.167 246.518 589.139 254.62 587.716 257.461C587.149 258.595 587.283 260.149 588.06 261.419C588.97 262.909 590.602 263.777 592.535 263.799C592.873 263.803 593.186 263.781 593.476 263.736C593.885 262.436 593.616 260.856 593.179 259.945H593.178Z" fill="#512473"/>
<path d="M139.297 232.975C140.556 234.251 141.993 237.857 143.078 239.632C145.985 244.382 149.277 247.397 153.255 251.092C155.307 253 155.362 253.552 156.596 255.874C157.926 258.379 161.052 260.511 163.799 261.062C166.284 261.56 168.46 261.135 169.968 263.776C173.069 269.202 168.62 276.853 163.948 279.871L100.438 315.576C88.7816 321.626 68.5574 328.024 55.821 323.438C50.2722 321.44 47.0551 317.586 48.2463 311.348C49.1781 306.47 52.3256 305.439 55.9296 303.125C60.5814 300.136 67.3068 295.503 70.5413 291.033C71.4789 289.737 72.0875 287.965 73.6222 287.181C73.2106 285.869 73.6323 283.96 74.8148 283.192C75.067 283.028 75.3684 283.093 75.4974 283.005C75.5611 282.962 75.8683 282.181 76.1017 281.935C76.3495 281.675 76.9074 281.477 77.0277 281.273C77.4725 280.519 77.0074 279.451 77.9797 278.394C78.6072 277.714 78.7811 278.064 79.4419 277.795C80.6302 277.311 80.2433 274.661 80.4389 273.52C80.8215 271.288 83.8661 270.986 84.8298 269.324C85.7993 267.653 83.5807 265.677 86.0109 264.435C87.2803 263.787 88.715 263.303 89.5714 261.958C89.6395 261.851 90.167 260.769 90.1713 260.699C90.1829 260.528 89.6279 259.648 89.5888 259.094C89.4207 256.743 92.2291 255.94 93.629 254.541C94.8332 253.338 96.3939 250.334 97.0461 248.716C98.1894 245.879 97.917 242.059 102.241 242.592C102.435 243.675 102.434 244.257 103.177 245.12C104.803 247.003 108.248 247.848 108.81 251.023C121.257 256.364 132.108 249.223 131.612 235.397C131.57 234.227 131.118 233.38 131.579 232.157C132.17 230.588 133.822 229.728 135.448 230.068C136.367 230.26 136.508 230.99 137.061 231.475C137.665 232.004 138.651 232.314 139.299 232.97L139.297 232.975ZM135.526 231.515C133.28 230.854 132.651 232.272 132.712 234.288C132.75 235.509 132.951 236.666 132.875 237.962C132.22 249.121 123.667 255.875 112.808 253.662C111.926 253.483 109.867 252.621 109.262 252.61C108.988 252.606 109.004 252.565 109.054 252.82C109.099 253.058 109.18 253.825 109.207 253.871C109.48 254.328 113.765 255.616 114.523 255.768C128.623 258.579 137.305 245.84 135.861 232.696C135.837 232.467 135.648 231.641 135.526 231.513V231.515ZM62.2638 300.653C63.8622 301.87 65.4969 302.56 67.4474 303.007C79.7752 305.834 102.508 299.52 112.027 290.97C116.286 287.144 119.867 283.228 124.432 279.526C127.362 277.148 130.25 276.102 131.341 272.117C132.305 268.598 131.818 265.718 134.302 262.627C137.686 258.416 142.381 257.894 146.885 255.846C149.431 254.688 150.456 253.709 146.969 252.823C142.294 251.635 136.545 252.863 140.333 245.841C141.077 244.463 142.126 243.151 142.937 241.805C142.295 240.675 141.535 239.61 140.907 238.471C139.888 236.621 139.139 233.985 137.144 233.078C137.796 240.055 135.747 247.767 130.591 252.619C129.905 253.264 128.388 254.153 127.911 254.707C127.152 255.592 126.101 257.998 125.359 259.166C119.348 268.632 110.801 277.817 101.427 283.907C96.1751 287.319 89.9148 290.441 83.543 290.44C81.0113 293.827 76.4596 295.684 72.2933 295.211C71.0586 295.071 70.7239 294.505 70.2399 293.452L62.2638 300.652V300.653ZM143.931 243.01L143.605 243.111C142.735 244.798 140.593 247.178 140.332 249.056C140.185 250.109 140.714 250.228 141.53 250.489C143.769 251.203 148.264 251.167 149.864 252.769C151.484 254.391 149.803 255.853 148.306 256.646C144.13 258.861 139.207 259.061 135.715 262.94C132.776 266.205 133.538 270.045 132.088 273.913C135.822 271.521 139.581 269.067 143.669 267.318C147.263 265.781 150.928 265.05 153.651 261.904C159.056 255.659 151.635 251.827 147.879 247.894C146.453 246.401 145.013 244.768 143.931 243.007V243.01ZM101.282 243.807C99.0633 243.906 99.2777 246.05 98.7995 247.616C98.072 250.001 96.6736 252.491 95.281 254.535L98.8111 255.349C100.411 253.022 103.119 251.974 105.841 252.56C106.464 252.694 107.09 253.069 107.597 253.188C108.291 253.351 107.535 251.3 107.407 250.973C106.064 247.538 102.008 247.391 101.283 243.809L101.282 243.807ZM110.127 255.661C107.678 254.689 105.835 253.086 103.045 253.843C102.392 254.021 100.418 254.983 100.178 255.58C100.06 255.869 100.295 255.787 100.395 255.831C101.024 256.112 102.073 256.5 102.46 257.103C103.327 258.454 102.148 259.381 100.894 259.507C99.1024 259.689 97.3779 259.027 95.594 259.019C96.6881 261.287 98.2793 266.512 94.0145 265.743C94.0695 267.107 92.9218 267.446 91.806 267.024C91.8103 267.534 91.2452 268.335 91.2118 268.732C91.1394 269.591 92.0726 270.078 91.3046 271.405C90.4409 272.896 88.9338 271.759 88.8193 271.842C88.7845 271.869 88.7237 272.176 88.4512 272.355C87.9426 272.69 87.3455 272.812 86.8195 273.105C86.2166 274.599 88.0339 274.324 88.4932 275.101C89.1077 276.139 88.0614 277.001 87.0615 276.956C87.0412 277.352 87.4151 277.52 87.3499 277.956C87.2165 278.864 86.1978 279.033 86.1384 279.29C85.9529 280.084 87.3948 280.822 85.8007 282.162C84.427 283.316 83.1792 283.065 81.533 282.88C81.8315 283.945 81.8779 285.331 80.578 285.531C80.8461 285.919 80.5592 286.634 80.6563 286.88C80.8737 287.428 82.1185 287.41 81.5432 288.737C80.707 290.668 77.3841 291.108 75.7973 289.893L74.0337 288.328C73.0657 289.089 70.8398 292.416 71.7224 293.544C72.7121 294.811 77.9609 293.24 79.268 292.514C82.0953 290.944 81.7258 289.884 83.0474 287.379C84.5545 284.523 88.6729 283.572 89.7496 281.524C90.5756 279.953 88.7251 278.109 89.6134 276.421C90.1771 275.348 91.9002 274.201 93.0218 273.792C94.2623 273.34 96.0853 273.488 96.2302 271.751C96.2954 270.978 95.9056 270.241 95.894 269.509C95.8491 266.797 98.8575 265.85 100.324 264.061C102.837 260.997 101.801 259.064 106.17 257.015L110.122 255.661H110.127ZM101.44 258.059C101.176 257.525 100.618 257.296 100.104 257.093C98.3546 256.407 96.2186 256.198 94.4014 255.675L92.1204 257.34C93.4029 257.127 100.928 258.758 101.44 258.059ZM125.768 255.981C122.761 257.087 119.751 257.66 116.528 257.418C115.268 257.322 113.049 256.494 112.132 256.508C110.839 256.529 107.071 257.925 105.861 258.617C102.898 260.311 103.183 262.807 101.12 265.18C100.095 266.359 98.0199 267.21 97.4286 268.485C96.7504 269.947 98.1575 271.601 97.0881 273.265C96.2229 274.609 95.1129 274.442 93.8869 274.824C93.1102 275.066 91.1089 276.23 90.7814 276.959C90.3974 277.811 91.348 279.802 91.3162 280.864C91.2089 284.355 84.2878 285.422 83.7488 289.125C89.8091 289.078 95.794 286.035 100.796 282.787C110.975 276.18 119.566 266.422 125.769 255.979L125.768 255.981ZM90.8553 258.54C90.5452 260.083 92.1509 260.305 92.7305 261.043C93.3725 261.86 93.7768 265.463 95.281 264.549C96.2693 263.948 94.6202 259.425 93.9362 258.861C93.429 258.443 91.5335 258.573 90.8553 258.54ZM49.3085 312.346V315.308C49.3085 318.059 53.0647 320.911 55.3167 321.869C68.0401 327.282 89.5265 319.872 101.23 313.655C122.371 302.424 142.808 289.727 163.89 278.369C167.603 275.914 171.68 268.341 168.735 264.225C167.435 262.408 165.566 262.71 163.648 262.336C161.052 261.829 158.779 260.271 156.809 258.543C156.287 259.963 155.881 261.191 154.915 262.386C151.403 266.725 144.692 267.993 139.823 270.627C132.082 274.815 123.702 281.267 117.311 287.36C114.828 289.727 112.939 292.116 110.083 294.125C106.621 296.56 102.15 298.818 98.3851 300.843C84.4748 308.323 67.6517 317.825 51.4779 313.748L49.3071 312.345L49.3085 312.346ZM92.7523 265.908C93.0638 265.589 92.1233 261.472 91.0147 261.423C91.1712 262.687 89.7033 263.126 89.5989 264.246C89.512 265.192 90.2206 266.112 90.3829 267.027C91.0684 265.967 91.4364 265.755 92.7508 265.908H92.7523ZM88.0136 264.947C87.1426 266.579 88.8207 267.545 89.1671 268.979C89.2859 269.471 89.2062 270.51 89.3468 270.717C89.5555 271.027 90.2351 271.086 90.3583 270.593C90.5554 269.801 88.4773 266.351 88.4483 265.223L88.0136 264.945V264.947ZM85.6442 273.916C85.1399 270.831 88.6468 272.692 87.9773 269.387C87.76 268.312 86.2572 267.117 86.4311 265.748C85.7297 266.171 86.3529 267.152 86.4152 267.766C86.7615 271.127 83.185 271.506 81.6939 273.676L85.6428 273.916H85.6442ZM86.7499 275.517C85.0298 275.278 83.2633 274.859 81.5359 275.197L81.5432 275.667C83.1778 276.039 84.8516 276.081 86.5108 275.833C86.7238 275.801 87.0253 275.745 86.7499 275.517ZM86.1166 277.915C85.6355 276.901 84.3197 277.347 83.3546 277.275C82.7373 277.229 82.0011 277.057 81.3794 276.954L80.7461 278.394L84.8516 279.198C84.8211 278.393 85.4225 278.061 86.1166 277.914V277.915ZM85.1689 280.642L78.9434 279.387C78.6434 279.455 77.9841 281.099 78.9333 281.277C79.8491 281.449 83.4865 281.862 84.1936 281.653C84.4864 281.566 85.4486 281.054 85.1675 280.642H85.1689ZM80.4302 284.323C80.5317 283.828 80.294 283.001 79.8883 282.711C79.7274 282.596 78.2812 282.389 77.9812 282.388C77.2218 282.386 76.6886 282.876 76.4712 283.593L79.2463 285.763L79.5564 284.479L80.4302 284.323ZM75.2351 284.502C73.2845 287.638 77.7421 290.888 80.2708 288.402L75.6872 284.565L75.2365 284.502H75.2351ZM93.3826 301.939C91.5292 302.311 89.7308 302.92 87.8846 303.329C80.6143 304.935 68.3198 306.614 61.9595 302.003C61.6523 301.782 61.3726 301.216 60.9582 301.319C60.5031 301.432 58.028 303.341 57.3512 303.765C55.3456 305.023 52.3966 306.315 50.9808 308.197C48.0666 312.067 52.9502 313.179 55.8659 313.466C66.0722 314.465 77.0016 310.232 86.0138 305.759L93.3812 301.94L93.3826 301.939Z" fill="#1F0433"/>
<path d="M49.3086 312.346L51.4794 313.749C67.6532 317.827 84.4763 308.325 98.3866 300.844C102.151 298.819 106.622 296.561 110.084 294.126C112.94 292.118 114.828 289.729 117.312 287.362C123.703 281.268 132.083 274.816 139.825 270.629C144.695 267.994 151.405 266.726 154.916 262.387C155.883 261.193 156.288 259.964 156.81 258.545C158.781 260.273 161.052 261.832 163.65 262.337C165.567 262.71 167.437 262.408 168.736 264.227C171.681 268.342 167.603 275.915 163.892 278.371C142.81 289.729 122.373 302.424 101.231 313.657C89.528 319.875 68.0402 327.283 55.3182 321.87C53.0662 320.912 49.31 318.06 49.31 315.31V312.348L49.3086 312.346Z" fill="#AE72FF"/>
<path d="M62.2637 300.653L70.2397 293.454C70.7237 294.507 71.0585 295.073 72.2932 295.212C76.458 295.686 81.0097 293.828 83.5428 290.442C89.9147 290.444 96.175 287.321 101.427 283.909C110.803 277.818 119.348 268.632 125.359 259.168C126.101 258 127.152 255.593 127.911 254.709C128.388 254.153 129.904 253.266 130.591 252.621C135.747 247.769 137.796 240.056 137.144 233.08C139.138 233.987 139.888 236.621 140.907 238.473C141.534 239.613 142.295 240.677 142.937 241.806C142.126 243.151 141.077 244.465 140.333 245.843C136.547 252.865 142.294 251.638 146.969 252.825C150.455 253.711 149.431 254.69 146.885 255.847C142.381 257.896 137.686 258.417 134.302 262.628C131.818 265.72 132.305 268.598 131.341 272.119C130.25 276.102 127.362 277.15 124.432 279.527C119.867 283.23 116.286 287.147 112.027 290.972C102.508 299.522 79.7765 305.836 67.4472 303.009C65.4981 302.562 63.8635 301.87 62.2637 300.655V300.653Z" fill="#AE72FF"/>
<path d="M125.768 255.98C119.564 266.423 110.973 276.181 100.795 282.789C95.7923 286.036 89.8074 289.079 83.7471 289.126C84.2861 285.423 91.2072 284.356 91.3145 280.865C91.3478 279.801 90.3972 277.812 90.7797 276.96C91.1072 276.231 93.11 275.067 93.8852 274.825C95.1127 274.443 96.2213 274.61 97.0864 273.266C98.1559 271.602 96.7502 269.948 97.4269 268.486C98.0182 267.211 100.093 266.36 101.118 265.181C103.18 262.808 102.895 260.312 105.859 258.618C107.071 257.926 110.837 256.53 112.13 256.509C113.047 256.495 115.266 257.323 116.527 257.419C119.749 257.661 122.759 257.087 125.766 255.982L125.768 255.98Z" fill="#512473" stroke="#1F0433" stroke-miterlimit="10"/>
<path d="M93.3826 301.939L86.0152 305.757C77.0016 310.232 66.0722 314.463 55.8673 313.464C52.9517 313.179 48.0681 312.067 50.9823 308.195C52.3981 306.313 55.3486 305.021 57.3527 303.764C58.028 303.34 60.5046 301.432 60.9596 301.317C61.3741 301.214 61.6538 301.778 61.961 302.002C68.3198 306.611 80.6157 304.933 87.8861 303.327C89.7323 302.919 91.5306 302.309 93.3841 301.937L93.3826 301.939Z" fill="#512473" stroke="#1F0433" stroke-miterlimit="10"/>
<path d="M143.932 243.01C145.014 244.773 146.455 246.404 147.879 247.897C151.635 251.83 159.056 255.661 153.651 261.907C150.928 265.053 147.262 265.784 143.669 267.321C139.581 269.068 135.822 271.524 132.088 273.916C133.538 270.049 132.776 266.206 135.715 262.943C139.208 259.064 144.13 258.865 148.307 256.65C149.804 255.856 151.485 254.394 149.864 252.772C148.265 251.169 143.769 251.204 141.53 250.492C140.715 250.232 140.186 250.113 140.332 249.059C140.593 247.181 142.733 244.801 143.606 243.114L143.932 243.013V243.01Z" fill="#512473" stroke="#1F0433" stroke-miterlimit="10"/>
<path d="M110.127 255.661L106.176 257.015C101.806 259.064 102.843 260.996 100.33 264.061C98.8633 265.851 95.8534 266.798 95.8998 269.509C95.9114 270.241 96.3012 270.979 96.236 271.751C96.0911 273.488 94.2681 273.34 93.0276 273.792C91.9045 274.202 90.1829 275.348 89.6192 276.421C88.7309 278.109 90.58 279.955 89.7554 281.524C88.6787 283.572 84.5603 284.523 83.0532 287.379C81.7316 289.886 82.1011 290.945 79.2738 292.515C77.9667 293.241 72.7179 294.811 71.7282 293.545C70.8456 292.416 73.0715 289.088 74.0395 288.329L75.8031 289.893C77.3899 291.109 80.7143 290.668 81.549 288.737C82.1228 287.41 80.8795 287.428 80.6621 286.88C80.5636 286.633 80.8505 285.919 80.5838 285.531C81.8823 285.333 81.8374 283.946 81.5388 282.88C83.1851 283.065 84.4328 283.317 85.8065 282.162C87.4006 280.822 85.9587 280.084 86.1442 279.291C86.2036 279.034 87.2224 278.865 87.3557 277.956C87.4194 277.52 87.0456 277.353 87.0673 276.956C88.0672 277.003 89.1135 276.14 88.499 275.102C88.0382 274.324 86.2224 274.599 86.8253 273.105C87.3513 272.812 87.9484 272.69 88.457 272.355C88.7295 272.176 88.7903 271.869 88.8251 271.843C88.9381 271.759 90.4467 272.896 91.3104 271.405C92.0784 270.078 91.1452 269.592 91.2176 268.732C91.251 268.335 91.8161 267.536 91.8118 267.025C92.9276 267.446 94.0753 267.107 94.0203 265.743C98.2851 266.512 96.6939 261.287 95.5998 259.02C97.3823 259.027 99.1067 259.69 100.899 259.507C102.153 259.38 103.332 258.454 102.466 257.104C102.077 256.5 101.03 256.112 100.401 255.831C100.301 255.787 100.066 255.869 100.183 255.58C100.424 254.983 102.398 254.02 103.051 253.843C105.841 253.086 107.684 254.69 110.133 255.661H110.127Z" fill="#AE72FF"/>
<path d="M135.526 231.515C135.648 231.642 135.836 232.467 135.861 232.698C137.304 245.841 128.623 258.58 114.522 255.77C113.765 255.618 109.478 254.33 109.207 253.873C109.179 253.827 109.1 253.06 109.053 252.822C109.006 252.567 108.988 252.608 109.262 252.612C109.866 252.622 111.926 253.485 112.808 253.664C123.667 255.875 132.221 249.121 132.874 237.964C132.95 236.668 132.748 235.51 132.712 234.289C132.651 232.273 133.28 230.856 135.526 231.517V231.515Z" fill="#512473" stroke="#1F0433" stroke-miterlimit="10"/>
<path d="M101.282 243.807C102.006 247.389 106.061 247.536 107.406 250.972C107.533 251.298 108.291 253.349 107.596 253.186C107.088 253.067 106.462 252.692 105.839 252.559C103.118 251.974 100.409 253.02 98.8094 255.347L95.2793 254.533C96.6734 252.489 98.0703 249.997 98.7978 247.614C99.276 246.048 99.063 243.904 101.28 243.806L101.282 243.807Z" fill="#512473" stroke="#1F0433" stroke-miterlimit="10"/>
<path d="M85.6442 273.916L81.6953 273.677C83.1865 271.506 86.763 271.127 86.4166 267.767C86.3528 267.154 85.7312 266.171 86.4325 265.748C86.2572 267.117 87.76 268.312 87.9788 269.388C88.6483 272.692 85.1414 270.832 85.6457 273.916H85.6442Z" fill="#512473" stroke="#1F0433" stroke-miterlimit="10"/>
<path d="M75.235 284.502L75.6857 284.565L80.2694 288.402C77.7406 290.888 73.2831 287.638 75.2336 284.502H75.235Z" fill="#AE72FF"/>
<path d="M90.8551 258.541C91.5333 258.575 93.4288 258.444 93.936 258.861C94.62 259.426 96.2705 263.948 95.2808 264.549C93.7766 265.463 93.3723 261.86 92.7303 261.043C92.1507 260.306 90.5436 260.084 90.8551 258.541Z" fill="#AE72FF"/>
<path d="M101.44 258.059C100.928 258.76 93.4026 257.127 92.1201 257.341L94.4011 255.676C96.2168 256.199 98.3543 256.408 100.103 257.094C100.619 257.296 101.176 257.526 101.44 258.059Z" fill="#AE72FF"/>
<path d="M92.752 265.908C91.4376 265.755 91.0681 265.967 90.3841 267.028C90.2218 266.112 89.5132 265.193 89.6001 264.246C89.703 263.127 91.1724 262.687 91.0159 261.424C92.1245 261.472 93.0636 265.589 92.7535 265.908H92.752Z" fill="#512473" stroke="#1F0433" stroke-miterlimit="10"/>
<path d="M85.1689 280.643C85.4501 281.052 84.4878 281.567 84.1951 281.653C83.4879 281.864 79.8506 281.449 78.9347 281.277C77.9856 281.099 78.6449 279.455 78.9449 279.388L85.1704 280.643H85.1689Z" fill="#AE72FF"/>
<path d="M80.4302 284.323L79.5564 284.479L79.2463 285.763L76.4712 283.593C76.6886 282.874 77.2218 282.385 77.9812 282.388C78.2826 282.388 79.7274 282.596 79.8883 282.711C80.294 283.002 80.5317 283.828 80.4302 284.323Z" fill="#512473" stroke="#1F0433" stroke-miterlimit="10"/>
<path d="M86.1166 277.916C85.4225 278.062 84.8211 278.395 84.8515 279.2L80.7461 278.396L81.3794 276.956C81.9996 277.059 82.7372 277.231 83.3545 277.276C84.3211 277.347 85.6355 276.903 86.1166 277.917V277.916Z" fill="#512473" stroke="#1F0433" stroke-miterlimit="10"/>
<path d="M88.0134 264.947L88.4481 265.225C88.4771 266.353 90.5552 269.803 90.3581 270.595C90.2363 271.086 89.5567 271.027 89.3466 270.719C89.206 270.512 89.2857 269.473 89.1669 268.981C88.8205 267.547 87.1424 266.581 88.0134 264.949V264.947Z" fill="#AE72FF"/>
<path d="M86.7501 275.517C87.0255 275.744 86.7241 275.801 86.511 275.833C84.8518 276.082 83.178 276.039 81.5434 275.667L81.5361 275.197C83.2635 274.859 85.0315 275.278 86.7501 275.517Z" fill="#AE72FF"/>
<path d="M325.197 253.277C323.948 252.22 322.702 251.15 321.454 250.086C320.047 248.894 318.802 247.583 317.972 245.911C316.6 243.159 316.662 240.468 318.346 237.886C320.244 234.978 322.881 233.279 326.451 233.304C328.81 233.324 330.876 234.082 332.485 235.896C332.773 236.222 333.054 236.553 333.386 236.835C333.677 237.087 334.025 237.266 334.378 237.425C332.31 233.868 329.236 232.141 325.134 232.459C321.073 232.773 318.191 234.845 316.561 238.59C315.352 241.379 315.672 244.102 317.108 246.715C318.254 248.8 319.873 250.508 321.642 252.084C322.29 252.658 322.981 253.188 323.657 253.728C324.287 254.231 324.519 254.838 324.198 255.61C324.114 255.806 324.103 256.037 324.006 256.23C323.763 256.684 323.801 257.054 324.25 257.349C324.677 257.626 325.238 257.571 325.606 257.185C325.958 256.808 326.139 256.36 326.091 255.827C326.04 255.28 326.003 254.729 325.958 254.184C326.161 254.176 326.321 254.178 326.45 254.2C326.324 253.924 326.17 253.656 326.015 253.393C325.991 253.501 325.949 253.626 325.867 253.755C325.618 253.579 325.393 253.448 325.197 253.277Z" fill="#512473"/>
<path d="M327.394 291.922C327.468 290.07 327.406 288.228 327.239 286.403C326.874 294.001 324.238 301.572 316.544 304.619C312.228 306.309 307.3 304.306 304.338 300.796C304.369 300.897 304.4 300.998 304.431 301.098C305.366 303.886 307.265 305.778 309.948 306.889C313.184 308.224 316.449 308.354 319.668 306.84C322.206 305.642 323.945 303.622 325.212 301.167C326.705 298.275 327.265 295.153 327.391 291.934L327.394 291.922Z" fill="#AE72FF"/>
<path d="M316.545 304.612C324.244 301.572 326.875 293.994 327.241 286.396C327.018 283.956 326.604 281.533 326.045 279.131C325.667 277.506 325.247 275.885 324.862 274.259C324.772 273.884 324.635 273.478 324.859 273.08C324.724 272.782 324.562 272.491 324.389 272.218C324.348 272.282 324.308 272.34 324.268 272.398C323.929 272.838 323.526 273.022 323.008 273.06C321.305 273.193 319.752 272.831 318.33 271.649C318.057 271.849 317.818 271.989 317.617 272.172C313.848 275.598 310.372 279.277 307.754 283.691C305.656 287.225 304.285 291.008 303.904 295.121C303.729 297.037 303.778 298.936 304.341 300.783C307.297 304.292 312.224 306.294 316.547 304.606L316.545 304.612Z" fill="#AE72FF"/>
<path d="M318.33 271.649C318.057 271.849 317.818 271.989 317.617 272.172C313.848 275.598 310.371 279.277 307.754 283.692C305.656 287.225 304.285 291.008 303.904 295.121C303.719 297.142 303.786 299.139 304.44 301.087C305.375 303.874 307.274 305.766 309.957 306.877C313.193 308.213 316.458 308.343 319.677 306.828C322.216 305.63 323.954 303.61 325.222 301.156C326.714 298.263 327.274 295.142 327.4 291.923C327.568 287.595 327.022 283.341 326.051 279.133C325.673 277.508 325.253 275.887 324.868 274.261C324.77 273.83 324.599 273.37 324.983 272.914C325.579 273.181 325.705 273.725 325.847 274.192C326.42 276.088 327.041 277.975 327.457 279.91C328.366 284.125 328.833 288.401 328.526 292.724C328.249 296.673 327.347 300.427 325.002 303.718C321.205 309.059 315.219 309.986 310.351 308.285C304.839 306.352 302.518 302.015 302.625 296.675C302.733 291.39 304.469 286.604 307.281 282.186C309.846 278.155 313.116 274.744 316.719 271.636C317.019 271.375 317.372 271.173 317.564 271.035C317.82 270.49 317.966 270.047 318.223 269.676C318.841 268.804 319.176 267.727 320.095 267.063C320.175 267.007 320.172 266.839 320.223 266.73C320.403 266.316 320.591 265.896 320.835 265.348C320.463 264.468 320.787 263.65 321.703 262.998C321.165 261.907 321.331 260.96 322.357 260.205C321.699 259.047 322.141 258.182 323.102 257.48C322.871 256.752 323.029 256.165 323.564 255.749C323.629 255.074 323.262 254.737 322.797 254.425C320.53 252.919 318.614 251.043 317.009 248.855C315.583 246.915 314.686 244.765 314.616 242.332C314.476 238.002 317.319 233.746 321.455 232.082C324.574 230.834 327.697 230.912 330.747 232.299C332.661 233.17 334.204 234.467 334.795 236.669C335.084 236.573 335.307 236.476 335.542 236.442C336.153 236.344 336.53 236.723 336.351 237.313C336.271 237.582 336.06 237.863 335.833 238.04C334.899 238.741 333.811 238.698 332.839 237.924C332.431 237.598 332.052 237.225 331.716 236.815C329.617 234.262 325.792 234.033 323.46 235.023C320.983 236.068 319.29 237.884 318.45 240.434C317.887 242.136 318.197 243.799 318.973 245.385C319.653 246.77 320.635 247.914 321.797 248.912C322.527 249.537 323.306 250.094 324.01 250.747C324.62 251.313 325.176 251.939 325.701 252.58C325.938 252.867 326.191 253.232 325.859 253.76C325.61 253.584 325.385 253.453 325.189 253.282C323.94 252.225 322.693 251.155 321.446 250.092C320.039 248.899 318.793 247.588 317.963 245.916C316.592 243.164 316.653 240.473 318.337 237.891C320.235 234.983 322.873 233.284 326.443 233.309C328.802 233.329 330.868 234.087 332.477 235.901C332.765 236.227 333.046 236.558 333.377 236.84C333.669 237.092 334.017 237.271 334.37 237.431C332.31 233.868 329.236 232.141 325.134 232.459C321.073 232.773 318.191 234.845 316.56 238.591C315.352 241.379 315.672 244.103 317.108 246.715C318.254 248.8 319.872 250.509 321.641 252.084C322.289 252.658 322.981 253.188 323.656 253.728C324.287 254.231 324.518 254.838 324.198 255.61C324.114 255.806 324.102 256.037 324.005 256.23C323.763 256.684 323.8 257.054 324.25 257.349C324.676 257.626 325.238 257.571 325.606 257.185C325.958 256.809 326.139 256.36 326.091 255.827C326.04 255.28 326.003 254.73 325.958 254.184C326.634 254.155 326.838 254.261 327.018 254.83C327.328 255.804 327.194 256.731 326.574 257.556C326.411 257.774 326.201 257.961 326.025 258.149C326.253 259.673 326.195 259.841 325.112 260.817C325.528 261.707 325.363 262.534 324.643 263.296C325.275 264.268 324.948 265.099 324.25 265.766C324.252 266.442 324.243 267.05 324.262 267.65C324.267 267.778 324.364 267.914 324.444 268.032C325.182 269.129 325.062 271.365 324.262 272.397C323.922 272.836 323.519 273.021 323.002 273.058C321.298 273.192 319.745 272.83 318.323 271.647L318.33 271.649ZM323.678 268.523L320.682 267.851C319.992 268.808 319.349 269.701 318.687 270.624C318.811 270.786 318.901 270.953 319.035 271.07C320.15 272.01 321.442 272.253 322.853 272.021C323.68 271.885 323.787 271.795 323.788 270.958C323.793 270.129 323.716 269.308 323.678 268.523ZM324.225 260.919C323.578 261.029 322.862 260.312 322.382 261.229C322.136 261.696 322.202 262.24 322.556 262.6C322.881 262.941 323.332 263.022 323.74 262.813C324.292 262.534 324.433 262.024 324.227 260.913L324.225 260.919ZM325.195 258.479L323.537 258.107C322.893 258.712 322.758 259.043 322.975 259.48C323.187 259.91 323.851 260.172 324.409 260.043C324.995 259.907 325.171 259.571 325.195 258.479ZM322.142 263.492C321.942 263.815 321.728 264.082 321.613 264.384C321.549 264.551 321.588 264.827 321.694 264.978C321.962 265.366 322.93 265.47 323.418 265.204C323.928 264.93 324.039 264.527 323.791 263.781C323.551 263.774 323.306 263.793 323.067 263.753C322.797 263.706 322.544 263.609 322.148 263.493L322.142 263.492ZM321.033 267.12C321.525 267.257 321.958 267.414 322.402 267.494C323.48 267.675 323.794 267.257 323.432 266.158C323.256 266.165 323.074 266.171 322.893 266.171C322.681 266.164 322.462 266.155 322.247 266.127C321.385 266 321.322 266.04 321.033 267.12Z" fill="#512473"/>
<path d="M323.678 268.523C323.716 269.308 323.793 270.129 323.788 270.958C323.786 271.801 323.68 271.885 322.853 272.021C321.448 272.254 320.152 272.004 319.036 271.07C318.9 270.959 318.811 270.786 318.687 270.624C319.349 269.701 319.992 268.807 320.682 267.851L323.678 268.523Z" fill="#512473"/>
<path d="M324.225 260.919C324.438 262.031 324.29 262.541 323.739 262.819C323.332 263.022 322.888 262.942 322.554 262.606C322.2 262.246 322.135 261.702 322.38 261.235C322.862 260.312 323.577 261.035 324.224 260.925L324.225 260.919Z" fill="#512473"/>
<path d="M325.194 258.479C325.17 259.572 325.001 259.909 324.408 260.044C323.844 260.171 323.185 259.916 322.974 259.481C322.753 259.036 322.886 258.711 323.537 258.107L325.194 258.479Z" fill="#512473"/>
<path d="M322.142 263.491C322.538 263.607 322.796 263.712 323.061 263.751C323.3 263.791 323.552 263.774 323.785 263.78C324.031 264.531 323.922 264.929 323.412 265.202C322.924 265.468 321.956 265.365 321.688 264.976C321.582 264.825 321.55 264.55 321.607 264.382C321.722 264.08 321.936 263.813 322.136 263.49L322.142 263.491Z" fill="#512473"/>
<path d="M321.033 267.119C321.322 266.039 321.385 266 322.247 266.126C322.462 266.154 322.674 266.162 322.893 266.171C323.072 266.177 323.256 266.165 323.432 266.158C323.794 267.257 323.48 267.675 322.402 267.493C321.957 267.42 321.525 267.256 321.033 267.119Z" fill="#512473"/>
<path d="M365.788 297.445C365.151 296.61 364.481 295.804 363.784 295.02C365.791 298.744 367.024 302.916 367.647 307.096C368.37 311.622 367.416 316.838 363.707 319.691C360.854 321.813 356.791 322.041 353.271 320.839C356.431 323.636 360.631 324.416 364.778 322.884C367.377 321.925 369.461 320.387 370.687 317.84C371.682 315.762 371.836 313.553 371.599 311.309C371.054 306.107 368.915 301.557 365.782 297.447L365.788 297.445Z" fill="#AE72FF"/>
<path d="M363.707 319.691C367.416 316.838 368.372 311.628 367.647 307.096C367.018 302.918 365.791 298.743 363.784 295.02C361.581 292.544 359.114 290.329 356.516 288.247C356.257 288.036 355.968 287.861 355.628 287.627C354.771 288.495 353.76 288.993 352.61 289.205C352.216 289.278 351.815 289.327 351.418 289.34C350.574 289.361 349.912 289.097 349.494 288.573C349.396 288.866 349.275 289.153 349.148 289.442C349.312 289.537 349.327 289.73 349.318 289.91C349.279 290.431 349.221 290.958 349.125 291.469C348.511 294.696 347.916 297.916 347.728 301.203C347.541 304.516 347.569 307.821 348.215 311.096C348.807 314.115 349.88 316.919 351.841 319.336C352.287 319.887 352.772 320.385 353.277 320.837C356.797 322.039 360.86 321.811 363.713 319.689L363.707 319.691ZM351.398 311.702C351.305 311.382 351.212 311.062 351.117 310.736C351.099 310.673 351.504 312.066 351.398 311.702Z" fill="#AE72FF"/>
<path d="M346.875 271.951C346.854 272.488 346.858 273.038 347.258 273.432C347.503 273.667 347.865 273.881 348.194 273.915C348.923 273.989 349.291 273.405 349.027 272.707C348.948 272.505 348.905 272.286 348.803 272.098C348.334 271.234 348.616 270.567 349.307 269.972C350.778 268.687 352.199 267.349 353.334 265.754C354.016 264.8 354.699 263.826 355.219 262.784C358.214 256.818 354.343 251.105 349.846 249.561C346.778 248.507 343.818 248.741 340.994 250.378C339.592 251.194 338.384 252.586 337.415 254.473C338.018 254.393 338.32 253.958 338.666 253.579C339.221 252.962 339.71 252.255 340.348 251.736C342.654 249.862 345.32 249.414 348.132 250.168C351.15 250.979 353.26 252.951 354.53 255.8C355.222 257.361 355.258 258.983 354.822 260.62C354.42 262.139 353.709 263.509 352.672 264.694C352.003 265.46 351.265 266.171 350.54 266.885C349.621 267.799 348.687 268.703 347.75 269.601C347.516 269.826 347.27 270.033 346.996 270.283C346.984 270.266 346.973 270.249 346.963 270.238C346.896 270.36 346.829 270.481 346.77 270.607C346.808 270.596 346.843 270.599 346.883 270.595C346.878 271.072 346.89 271.511 346.875 271.951Z" fill="#512473"/>
<path d="M349.996 273.772C351.199 274.797 351.33 275.201 350.914 276.485C351.932 277.155 352.2 278.078 351.716 279.198C352.56 279.81 353.085 280.515 352.709 281.467C352.983 282.014 353.205 282.473 353.441 282.935C353.493 283.043 353.548 283.163 353.632 283.24C354.731 284.213 355.535 285.388 356.139 286.716C356.21 286.866 356.366 286.984 356.505 287.086C357.159 287.556 357.845 287.976 358.464 288.49C362.357 291.679 365.958 295.15 368.634 299.468C370.953 303.21 372.481 307.229 372.824 311.64C372.914 312.743 372.882 313.875 372.738 314.971C372.297 318.372 370.621 321.009 367.666 322.779C363.968 324.99 360.06 325.472 356.004 323.902C353.183 322.81 351.159 320.738 349.615 318.187C347.966 315.461 347.128 312.46 346.743 309.333C345.989 303.109 346.563 296.983 348.175 290.942C348.325 290.381 348.433 289.792 348.893 289.386C349.273 289.405 349.317 289.672 349.299 289.915C349.26 290.436 349.202 290.964 349.106 291.475C348.492 294.701 347.897 297.922 347.709 301.208C347.522 304.521 347.55 307.826 348.196 311.102C348.787 314.12 349.861 316.925 351.822 319.341C355.063 323.332 359.953 324.66 364.767 322.894C367.366 321.934 369.45 320.397 370.676 317.85C371.671 315.771 371.825 313.563 371.588 311.319C371.042 306.116 368.904 301.567 365.771 297.456C363.111 293.97 359.915 291.001 356.498 288.258C356.24 288.048 355.951 287.873 355.611 287.639C354.754 288.507 353.742 289.005 352.593 289.216C352.199 289.29 351.798 289.338 351.401 289.352C350.043 289.386 349.151 288.679 348.99 287.331C348.901 286.602 348.961 285.849 348.998 285.111C349.007 284.884 349.173 284.658 349.258 284.436C349.316 284.284 349.403 284.115 349.399 283.96C349.395 283.41 349.352 282.865 349.321 282.173C348.726 281.598 348.134 280.851 348.783 279.758C348.127 279.07 347.74 278.299 348.179 277.28C347.241 276.675 346.737 275.855 347.136 274.698C346.06 273.875 345.586 272.829 345.862 271.51C345.959 271.047 346.159 270.635 346.878 270.603C346.874 271.08 346.886 271.519 346.87 271.959C346.85 272.495 346.853 273.046 347.253 273.44C347.498 273.674 347.86 273.889 348.19 273.923C348.919 273.996 349.287 273.413 349.022 272.715C348.943 272.513 348.9 272.294 348.798 272.106C348.329 271.242 348.611 270.575 349.303 269.98C350.773 268.695 352.194 267.357 353.329 265.762C354.011 264.808 354.694 263.834 355.215 262.792C358.209 256.826 354.338 251.113 349.842 249.569C346.773 248.515 343.814 248.749 340.99 250.386C339.587 251.202 338.379 252.594 337.41 254.481C338.013 254.401 338.315 253.966 338.661 253.587C339.216 252.97 339.705 252.263 340.343 251.744C342.649 249.87 345.315 249.422 348.127 250.176C351.145 250.987 353.255 252.959 354.525 255.808C355.217 257.369 355.253 258.991 354.817 260.628C354.415 262.147 353.704 263.517 352.667 264.702C351.999 265.468 351.26 266.179 350.535 266.893C349.617 267.807 348.682 268.711 347.746 269.609C347.512 269.833 347.266 270.041 346.991 270.291C346.596 269.773 346.824 269.387 347.044 269.092C347.598 268.352 348.175 267.62 348.811 266.952C349.515 266.217 350.314 265.57 351.037 264.85C352.013 263.879 352.786 262.77 353.32 261.492C354.336 259.067 354.13 256.766 352.536 254.651C350.611 252.101 348.109 250.746 344.834 251.113C343.017 251.321 341.447 252.029 340.267 253.494C339.897 253.956 339.526 254.41 339.107 254.818C338.198 255.694 337.157 255.834 336.138 255.252C335.951 255.15 335.717 255.021 335.653 254.849C335.539 254.549 335.427 254.166 335.527 253.899C335.652 253.557 336.05 253.522 336.412 253.621C336.582 253.667 336.756 253.705 336.902 253.738C336.966 253.678 337.004 253.667 337.009 253.638C337.637 251.116 339.439 249.639 341.675 248.717C345.577 247.114 349.406 247.369 352.887 249.841C356.933 252.713 359.027 258.119 356.257 263.523C354.997 265.978 353.256 268.062 351.17 269.852C350.702 270.253 350.206 270.629 349.749 271.047C349.277 271.484 349.247 271.894 349.687 272.379C350.073 272.797 350.055 273.272 349.987 273.788L349.996 273.772ZM355.228 286.695C354.438 285.734 353.742 284.882 353.015 283.998L350.054 284.858C350.203 285.978 349.866 287.138 350.36 288.205C352.276 288.526 353.919 288.28 355.228 286.695ZM348.948 277.376C348.996 277.798 348.99 278.201 349.096 278.564C349.255 279.11 349.842 279.375 350.353 279.213C350.931 279.025 351.232 278.4 351.035 277.79C350.847 277.192 350.496 277.015 349.843 277.177C349.603 277.24 349.363 277.283 348.942 277.378L348.948 277.376ZM347.937 274.928C348.027 276.011 348.219 276.343 348.813 276.442C349.435 276.547 350.092 276.207 350.247 275.713C350.396 275.241 350.174 274.877 349.526 274.473L347.939 274.934L347.937 274.928ZM351.239 279.826C350.621 279.972 350.099 280.096 349.577 280.221C349.552 280.344 349.511 280.437 349.522 280.522C349.593 281.21 349.855 281.528 350.424 281.635C350.972 281.741 351.807 281.478 351.898 281.111C352.051 280.516 351.694 280.13 351.234 279.835L351.239 279.826ZM350.129 282.516C349.96 283.668 350.264 283.988 351.273 283.762C351.745 283.653 352.236 283.564 352.589 283.21C352.298 282.254 352.217 282.209 351.379 282.371C350.986 282.444 350.584 282.466 350.129 282.516Z" fill="#512473"/>
<path d="M355.228 286.695C353.922 288.286 352.277 288.525 350.36 288.205C349.865 287.131 350.203 285.978 350.054 284.858L353.016 283.997C353.744 284.888 354.447 285.738 355.228 286.695Z" fill="#512473"/>
<path d="M348.948 277.376C349.369 277.28 349.607 277.232 349.849 277.175C350.503 277.012 350.847 277.191 351.041 277.788C351.232 278.399 350.931 279.024 350.359 279.211C349.85 279.379 349.267 279.106 349.102 278.562C348.997 278.198 349.002 277.795 348.954 277.374L348.948 277.376Z" fill="#512473"/>
<path d="M347.938 274.928L349.525 274.467C350.175 274.877 350.394 275.235 350.246 275.707C350.092 276.207 349.434 276.541 348.811 276.437C348.218 276.337 348.028 276.011 347.936 274.922L347.938 274.928Z" fill="#512473"/>
<path d="M351.239 279.826C351.698 280.121 352.056 280.507 351.902 281.103C351.805 281.471 350.97 281.734 350.428 281.627C349.86 281.52 349.597 281.201 349.527 280.514C349.516 280.429 349.556 280.335 349.582 280.212C350.097 280.09 350.625 279.964 351.243 279.818L351.239 279.826Z" fill="#512473"/>
<path d="M350.129 282.517C350.584 282.467 350.986 282.445 351.379 282.371C352.217 282.21 352.296 282.248 352.589 283.211C352.236 283.565 351.747 283.659 351.273 283.763C350.266 283.995 349.966 283.667 350.129 282.517Z" fill="#512473"/>
</svg>
