<svg width="93" height="72" viewBox="0 0 93 72" fill="none" xmlns="http://www.w3.org/2000/svg">
<circle cx="47.1579" cy="37" r="35" fill="#FBF9FF"/>
<path d="M69.4358 6.56194C69.4358 7.94451 68.314 9.06529 66.9301 9.06529H27.471C26.0871 9.06416 24.9652 7.94337 24.9652 6.56194C24.9652 5.17938 26.0871 4.05859 27.471 4.05859H66.9312C68.3151 4.05859 69.437 5.17938 69.437 6.56194H69.4358Z" fill="#D2B8FF"/>
<g filter="url(#filter0_d_818_2200)">
<path d="M27.7373 63.1259C28.9499 63.1259 28.9499 61.7365 30.1625 61.7365C31.3751 61.7365 31.3751 63.1259 32.5866 63.1259C33.7981 63.1259 33.7992 61.7365 35.0118 61.7365C36.2244 61.7365 36.2244 63.1259 37.4371 63.1259C38.6497 63.1259 38.6497 61.7365 39.8623 61.7365C41.0749 61.7365 41.0749 63.1259 42.2875 63.1259C43.5001 63.1259 43.5001 61.7365 44.7127 61.7365C45.9253 61.7365 45.9253 63.1259 47.1379 63.1259C48.3505 63.1259 48.3505 61.7365 49.5631 61.7365C50.7757 61.7365 50.7757 63.1259 51.9883 63.1259C53.2009 63.1259 53.2009 61.7365 54.4136 61.7365C55.6262 61.7365 55.6262 63.1259 56.8376 63.1259C58.0491 63.1259 58.0502 61.7365 59.2628 61.7365C60.4755 61.7365 60.4755 63.1259 61.6892 63.1259C62.9029 63.1259 62.9018 61.7365 64.1144 61.7365C65.327 61.7365 65.3282 63.1259 66.5408 63.1259C66.6451 63.1259 66.7495 63.1123 66.8538 63.093V6.56201H27.549V63.1123C27.6091 63.1202 27.6704 63.1259 27.7373 63.1259Z" fill="#FAFAFA"/>
</g>
<rect x="30.3182" y="20.1177" width="32.9412" height="4.94118" rx="0.823529" fill="#F1EAFF"/>
<rect x="30.3182" y="44.8237" width="32.9412" height="3.70588" rx="0.823529" fill="#F1EAFF"/>
<rect x="31.9652" y="30.8237" width="14.4118" height="3.29412" rx="0.823529" fill="#F1EAFF"/>
<rect x="54.2005" y="30.8237" width="7.82353" height="3.29412" rx="0.823529" fill="#D2B8FF"/>
<rect x="31.9652" y="35.7646" width="14.4118" height="3.29412" rx="0.823529" fill="#F1EAFF"/>
<rect x="54.2005" y="35.7646" width="7.82353" height="3.29412" rx="0.823529" fill="#D2B8FF"/>
<g opacity="0.63">
<path fill-rule="evenodd" clip-rule="evenodd" d="M45.5472 13.0744C45.2403 12.8552 44.8705 12.7349 44.4889 12.7349C44.3006 12.7349 44.1493 12.8861 44.1493 13.0744C44.1493 13.2627 44.3006 13.414 44.4889 13.414C44.8705 13.414 45.2403 13.2937 45.5472 13.0744ZM47.1572 14.6844C46.9379 14.9913 46.8176 15.3611 46.8176 15.7427C46.8176 15.931 46.9689 16.0823 47.1572 16.0823C47.3455 16.0823 47.4967 15.931 47.4967 15.7427C47.4967 15.3611 47.3764 14.9913 47.1572 14.6844ZM48.7672 13.0744C49.074 13.2937 49.4438 13.414 49.8254 13.414C50.0137 13.414 50.165 13.2627 50.165 13.0744C50.165 12.8861 50.0137 12.7349 49.8254 12.7349C49.4438 12.7349 49.074 12.8552 48.7672 13.0744ZM47.1572 12.4259L46.5086 13.0744L47.1572 13.723L47.8057 13.0744L47.1572 12.4259ZM47.6096 11.9517C47.9584 11.5153 48.1517 10.9704 48.1517 10.4062C48.1517 9.84198 47.7071 9.41162 47.1572 9.41162C46.6072 9.41162 46.1626 9.85621 46.1626 10.4062C46.1626 10.9561 46.3559 11.5153 46.7047 11.9517L46.0348 12.6217C45.5984 12.2728 45.0534 12.0795 44.4892 12.0795C43.9251 12.0795 43.4943 12.5245 43.4943 13.0744C43.4943 13.6244 43.9389 14.069 44.4889 14.069C45.0388 14.069 45.5981 13.8757 46.0345 13.5269L46.7044 14.1968C46.3555 14.6332 46.1623 15.1782 46.1623 15.7424C46.1623 16.3066 46.6068 16.7369 47.1568 16.7369C47.7068 16.7369 48.1514 16.2923 48.1514 15.7424C48.1514 15.1924 47.9581 14.6332 47.6092 14.1968L48.2791 13.5269C48.7156 13.8757 49.2605 14.069 49.8247 14.069C50.3889 14.069 50.8193 13.6244 50.8193 13.0744C50.8193 12.5245 50.3747 12.0799 49.8247 12.0799C49.2748 12.0799 48.7156 12.2732 48.2791 12.622L47.6092 11.9521L47.6096 11.9517ZM47.1572 10.0666C46.9689 10.0666 46.8176 10.2179 46.8176 10.4062C46.8176 10.7878 46.9379 11.1576 47.1572 11.4644C47.3764 11.1576 47.4967 10.7878 47.4967 10.4062C47.4967 10.2179 47.3455 10.0666 47.1572 10.0666Z" fill="#D2B8FF"/>
</g>
<path d="M0.850528 40.5447C0.681704 40.7629 0.628175 41.0471 0.70641 41.3106C0.784645 41.5823 0.990528 41.7882 1.24582 41.8747C4.367 42.97 7.14641 45.0535 8.987 47.8C11.0335 50.8512 14.1011 53.2518 17.5682 54.4665C17.9141 54.59 18.3011 54.4747 18.5276 54.1823L24.7864 46.0129C24.9552 45.7947 25.0088 45.5106 24.9305 45.2471C24.8523 44.9835 24.6546 44.7735 24.3911 44.6829C21.2699 43.5876 18.5358 41.4753 16.6994 38.7247C14.6488 35.6735 11.6141 33.3223 8.14288 32.1076C7.79288 31.9841 7.40994 32.0994 7.18347 32.3918L0.850528 40.5447ZM17.4241 45.7288C17.7988 46.0171 17.8646 46.5565 17.5764 46.9312C17.2882 47.3059 16.7488 47.3718 16.3741 47.0835C15.9994 46.7953 15.9335 46.2559 16.2217 45.8812C16.5099 45.5065 17.0494 45.4406 17.4241 45.7288ZM14.4099 41.2323C15.5299 42.1012 15.7358 43.7153 14.867 44.8353C14.0023 45.9553 12.3841 46.1612 11.2641 45.2923C10.1482 44.4276 9.93406 42.8176 10.807 41.6894C11.6717 40.5694 13.2899 40.3635 14.4099 41.2323ZM9.30406 39.4412C9.67876 39.7294 9.74465 40.2688 9.45641 40.6435C9.16817 41.0182 8.62876 41.0841 8.25406 40.7959C7.87935 40.5076 7.81347 39.9682 8.1017 39.5935C8.38994 39.2188 8.92935 39.1529 9.30406 39.4412Z" fill="#F1EAFF"/>
<path d="M78.0552 44.132C78.2772 44.2959 78.5625 44.3429 78.8242 44.2587C79.0941 44.1744 79.2952 43.9639 79.3759 43.7067C80.4001 40.5615 82.4201 37.7355 85.1241 35.8331C88.128 33.7179 90.4584 30.5966 91.5941 27.1029C91.7098 26.7543 91.5858 26.3699 91.2883 26.1501L82.979 20.0783C82.757 19.9144 82.4718 19.8674 82.2101 19.9516C81.9484 20.0358 81.7429 20.2381 81.6583 20.5036C80.6341 23.6489 78.5844 26.4302 75.8761 28.3286C72.8723 30.4479 70.5905 33.5351 69.4549 37.033C69.3393 37.3857 69.4633 37.7659 69.7607 37.9857L78.0552 44.132ZM82.862 27.4452C83.1417 27.064 83.6795 26.9859 84.0606 27.2656C84.4418 27.5452 84.5199 28.083 84.2402 28.4642C83.9605 28.8453 83.4228 28.9234 83.0416 28.6438C82.6605 28.3641 82.5824 27.8263 82.862 27.4452ZM78.4351 30.5605C79.2783 29.4211 80.8873 29.1786 82.0267 30.0218C83.1661 30.8609 83.4086 32.4741 82.5654 33.6135C81.7262 34.7487 80.1215 34.9993 78.9738 34.1522C77.8344 33.3131 77.5919 31.6999 78.4351 30.5605ZM76.7602 35.7057C77.0399 35.3246 77.5776 35.2465 77.9588 35.5261C78.3399 35.8058 78.418 36.3436 78.1384 36.7247C77.8587 37.1059 77.3209 37.184 76.9398 36.9043C76.5586 36.6246 76.4805 36.0869 76.7602 35.7057Z" fill="#F1EAFF"/>
<defs>
<filter id="filter0_d_818_2200" x="21.0843" y="0.0973058" width="52.2342" height="69.4934" filterUnits="userSpaceOnUse" color-interpolation-filters="sRGB">
<feFlood flood-opacity="0" result="BackgroundImageFix"/>
<feColorMatrix in="SourceAlpha" type="matrix" values="0 0 0 0 0 0 0 0 0 0 0 0 0 0 0 0 0 0 127 0" result="hardAlpha"/>
<feOffset/>
<feGaussianBlur stdDeviation="3.23235"/>
<feComposite in2="hardAlpha" operator="out"/>
<feColorMatrix type="matrix" values="0 0 0 0 0.823529 0 0 0 0 0.721569 0 0 0 0 1 0 0 0 0.5 0"/>
<feBlend mode="normal" in2="BackgroundImageFix" result="effect1_dropShadow_818_2200"/>
<feBlend mode="normal" in="SourceGraphic" in2="effect1_dropShadow_818_2200" result="shape"/>
</filter>
</defs>
</svg>
