<svg width="85" height="71" viewBox="0 0 85 71" fill="none" xmlns="http://www.w3.org/2000/svg">
<circle cx="42.1212" cy="31.2763" r="23.1947" fill="#FBF9FF"/>
<path d="M63.5824 16.3424L21.4713 16.9873C20.1493 17.0075 19.094 18.0956 19.1143 19.4176L19.4793 43.2563C19.4996 44.5783 20.5877 45.6336 21.9097 45.6133L64.0208 44.9684C65.3428 44.9482 66.3981 43.8601 66.3778 42.5381L66.0128 18.6994C65.9925 17.3774 64.9044 16.3222 63.5824 16.3424Z" fill="#D2B8FF"/>
<path d="M63.5824 16.3424L21.4713 16.9873C20.1493 17.0075 19.094 18.0956 19.1143 19.4176L19.4793 43.2563C19.4996 44.5783 20.5877 45.6336 21.9097 45.6133L64.0208 44.9684C65.3428 44.9482 66.3981 43.8601 66.3778 42.5381L66.0128 18.6994C65.9925 17.3774 64.9044 16.3222 63.5824 16.3424Z" fill="#E2D2FF"/>
<path opacity="0.2" d="M31.7731 20.0792L23.5276 20.2055C22.8919 20.2153 22.3844 20.7385 22.3941 21.3743L22.4574 25.5107C22.4672 26.1465 22.9905 26.654 23.6262 26.6443L31.8717 26.518C32.5074 26.5083 33.0149 25.985 33.0052 25.3492L32.9419 21.2128C32.9321 20.577 32.4088 20.0695 31.7731 20.0792Z" fill="white"/>
<path opacity="0.4" d="M31.0961 36.0572L23.0174 36.1809C22.779 36.1845 22.5887 36.3808 22.5923 36.6192L22.6147 38.0787C22.6183 38.3171 22.8145 38.5074 23.053 38.5038L31.1317 38.3801C31.3701 38.3764 31.5604 38.1802 31.5567 37.9418L31.5344 36.4823C31.5307 36.2438 31.3345 36.0535 31.0961 36.0572Z" fill="white"/>
<path opacity="0.4" d="M41.6063 35.8946L33.5276 36.0183C33.2892 36.0219 33.0989 36.2182 33.1026 36.4566L33.1249 37.9161C33.1286 38.1545 33.3248 38.3448 33.5632 38.3412L41.6419 38.2175C41.8803 38.2138 42.0706 38.0176 42.067 37.7792L42.0446 36.3197C42.041 36.0812 41.8447 35.8909 41.6063 35.8946Z" fill="white"/>
<path opacity="0.4" d="M52.1146 35.7339L44.0359 35.8576C43.7975 35.8613 43.6072 36.0575 43.6109 36.2959L43.6332 37.7555C43.6369 37.9939 43.8331 38.1842 44.0715 38.1805L52.1502 38.0568C52.3886 38.0532 52.5789 37.8569 52.5753 37.6185L52.5529 36.159C52.5493 35.9206 52.353 35.7303 52.1146 35.7339Z" fill="white"/>
<path opacity="0.4" d="M62.6251 35.5738L54.5464 35.6975C54.308 35.7011 54.1177 35.8974 54.1214 36.1358L54.1437 37.5953C54.1474 37.8337 54.3436 38.024 54.582 38.0204L62.6607 37.8967C62.8991 37.893 63.0894 37.6968 63.0858 37.4584L63.0634 35.9989C63.0598 35.7604 62.8635 35.5701 62.6251 35.5738Z" fill="white"/>
<circle cx="42.5187" cy="54.1981" r="4.36607" fill="white"/>
<path fill-rule="evenodd" clip-rule="evenodd" d="M42.7914 60.2468C46.4334 60.2468 49.3859 57.2942 49.3859 53.6522C49.3859 50.0101 46.4334 47.0576 42.7914 47.0576C39.1493 47.0576 36.1968 50.0101 36.1968 53.6522C36.1968 57.2942 39.1493 60.2468 42.7914 60.2468ZM43.2859 51.6738C43.2859 51.4007 43.0645 51.1792 42.7914 51.1792C42.5182 51.1792 42.2968 51.4007 42.2968 51.6738V53.1576H40.813C40.5398 53.1576 40.3184 53.379 40.3184 53.6522C40.3184 53.9253 40.5398 54.1468 40.813 54.1468H42.2968V55.6306C42.2968 55.9037 42.5182 56.1252 42.7914 56.1252C43.0645 56.1252 43.2859 55.9037 43.2859 55.6306V54.1468H44.7697C45.0429 54.1468 45.2643 53.9253 45.2643 53.6522C45.2643 53.379 45.0429 53.1576 44.7697 53.1576H43.2859V51.6738Z" fill="#AE72FF"/>
<path d="M0.614251 41.2664C0.502371 41.411 0.466896 41.5993 0.518743 41.7739C0.57059 41.954 0.70703 42.0905 0.876215 42.1478C2.94464 42.8736 4.78657 44.2544 6.00634 46.0745C7.36255 48.0965 9.3955 49.6874 11.6931 50.4924C11.9224 50.5743 12.1789 50.4979 12.3289 50.3041L16.4767 44.8902C16.5886 44.7456 16.6241 44.5573 16.5722 44.3827C16.5204 44.208 16.3894 44.0688 16.2147 44.0088C14.1463 43.2829 12.3344 41.8831 11.1174 40.0602C9.75843 38.0382 7.74731 36.4801 5.44694 35.6751C5.21499 35.5932 4.96121 35.6696 4.81113 35.8634L0.614251 41.2664ZM11.5976 44.7019C11.846 44.8929 11.8896 45.2504 11.6986 45.4987C11.5076 45.747 11.1501 45.7907 10.9018 45.5997C10.6535 45.4087 10.6098 45.0512 10.8008 44.8029C10.9918 44.5546 11.3493 44.5109 11.5976 44.7019ZM9.60016 41.7221C10.3424 42.2979 10.4788 43.3675 9.90305 44.1098C9.33001 44.852 8.25759 44.9884 7.51536 44.4127C6.77586 43.8396 6.63396 42.7727 7.21247 42.025C7.78551 41.2827 8.85793 41.1463 9.60016 41.7221ZM6.21646 40.5351C6.46478 40.7261 6.50844 41.0835 6.31742 41.3319C6.12641 41.5802 5.76894 41.6238 5.52062 41.4328C5.2723 41.2418 5.22864 40.8843 5.41965 40.636C5.61067 40.3877 5.96814 40.344 6.21646 40.5351Z" fill="#F1EAFF"/>
<path d="M75.2456 37.9127C75.3928 38.0213 75.5818 38.0525 75.7552 37.9967C75.9341 37.9408 76.0674 37.8013 76.1209 37.6308C76.7996 35.5465 78.1382 33.6737 79.9302 32.413C81.9209 31.0112 83.4653 28.9427 84.218 26.6274C84.2946 26.3964 84.2124 26.1417 84.0153 25.996L78.5087 21.9722C78.3615 21.8636 78.1725 21.8324 77.9991 21.8882C77.8257 21.944 77.6895 22.0781 77.6334 22.254C76.9547 24.3384 75.5963 26.1816 73.8015 27.4397C71.8109 28.8441 70.2987 30.8901 69.5461 33.2081C69.4696 33.4419 69.5517 33.6939 69.7488 33.8395L75.2456 37.9127ZM78.4311 26.8542C78.6165 26.6017 78.9728 26.5499 79.2254 26.7352C79.478 26.9206 79.5298 27.277 79.3445 27.5295C79.1591 27.7821 78.8027 27.8339 78.5501 27.6486C78.2976 27.4632 78.2458 27.1068 78.4311 26.8542ZM75.4974 28.9188C76.0562 28.1637 77.1225 28.003 77.8776 28.5618C78.6326 29.1179 78.7933 30.1869 78.2346 30.942C77.6784 31.6943 76.615 31.8604 75.8544 31.299C75.0993 30.743 74.9386 29.6739 75.4974 28.9188ZM74.3874 32.3286C74.5727 32.076 74.9291 32.0242 75.1817 32.2096C75.4343 32.3949 75.4861 32.7513 75.3007 33.0039C75.1154 33.2565 74.759 33.3082 74.5064 33.1229C74.2538 32.9375 74.2021 32.5812 74.3874 32.3286Z" fill="#F1EAFF"/>
</svg>
