<svg width="13" height="16" viewBox="0 0 13 16" fill="none" xmlns="http://www.w3.org/2000/svg">
<path fill-rule="evenodd" clip-rule="evenodd" d="M11.9434 4.90662C10.9926 2.90662 9.33644 1.27062 7.02161 0.045817C6.89019 -0.023783 6.73344 -0.013383 6.61153 0.072217C6.48961 0.157017 6.42628 0.304217 6.44528 0.452217C6.68119 2.27382 6.35265 4.81542 5.39711 5.91465C5.18732 6.15705 4.96011 6.31785 4.70914 6.39945C4.7028 5.34425 4.37268 4.32822 3.7243 3.37382C3.66493 3.28582 3.5723 3.22502 3.4678 3.20662C3.3633 3.18742 3.25484 3.21142 3.16855 3.27382C2.8598 3.49622 2.18609 4.13542 1.98897 4.33382C-0.104197 6.34745 -0.591072 9.29305 0.746845 11.8386C1.79422 13.8306 3.65622 15.0194 5.74782 15.1698C4.87065 14.933 4.14626 14.365 3.72114 13.5098C3.18597 12.4331 3.20576 11.0722 3.7718 9.95625C4.29826 8.86025 5.98453 7.68265 6.17532 7.55145C6.37165 7.41545 6.63053 7.41305 6.83161 7.54505C7.0319 7.67625 7.13482 7.91705 7.09286 8.15465C7.01132 8.61625 6.92265 9.82025 7.29157 10.6739C7.43882 10.5018 7.59874 10.297 7.70719 10.1578C7.85999 9.96345 8.00011 9.78585 8.1054 9.66825C8.21228 9.54905 8.36349 9.47865 8.52261 9.47225C8.68015 9.46745 8.8369 9.52505 8.95328 9.63625C10.0798 10.7138 10.3648 12.1851 9.69507 13.4762C9.38632 14.0723 8.92161 14.545 8.37853 14.8651C9.9864 14.3898 11.2721 13.309 12.0455 11.757C13.0771 9.68505 13.0359 7.05625 11.9434 4.90662Z" fill="#AE72FF"/>
</svg>
