<svg width="679" height="534" viewBox="0 0 679 534" fill="none" xmlns="http://www.w3.org/2000/svg">
<rect x="90.4346" y="0.5" width="498" height="533" rx="28.175" fill="#1F0433" stroke="#AE72FF"/>
<circle cx="160.934" cy="69" r="37.5" stroke="#AE72FF"/>
<rect x="214.935" y="55" width="110" height="28" rx="5" fill="#2E1044"/>
<path d="M524.899 53.0151L519.934 48.1304L522.1 46L527.065 50.8847H550.403C551.249 50.8847 551.934 51.5592 551.934 52.3911C551.934 52.5377 551.912 52.6836 551.87 52.824L548.195 64.8752C548 65.5124 547.404 65.9488 546.728 65.9488H527.962V68.9616H544.805V71.9744H526.43C525.585 71.9744 524.899 71.2998 524.899 70.468V53.0151ZM527.196 78C525.928 78 524.899 76.9883 524.899 75.7404C524.899 74.4923 525.928 73.4808 527.196 73.4808C528.465 73.4808 529.493 74.4923 529.493 75.7404C529.493 76.9883 528.465 78 527.196 78ZM545.571 78C544.302 78 543.274 76.9883 543.274 75.7404C543.274 74.4923 544.302 73.4808 545.571 73.4808C546.839 73.4808 547.867 74.4923 547.867 75.7404C547.867 76.9883 546.839 78 545.571 78Z" fill="#AE72FF"/>
<path d="M484.188 69.0257L490.935 75.7722L488.707 78L481.96 71.2535C479.535 73.1943 476.458 74.3552 473.112 74.3552C465.286 74.3552 458.935 68.0037 458.935 60.1776C458.935 52.3516 465.286 46 473.112 46C480.938 46 487.29 52.3516 487.29 60.1776C487.29 63.5235 486.129 66.5999 484.188 69.0257ZM481.028 67.8569C482.954 65.8717 484.139 63.1637 484.139 60.1776C484.139 54.0852 479.205 49.1506 473.112 49.1506C467.02 49.1506 462.085 54.0852 462.085 60.1776C462.085 66.2701 467.02 71.2047 473.112 71.2047C476.098 71.2047 478.806 70.0193 480.791 68.093L481.028 67.8569Z" fill="#AE72FF"/>
<g opacity="0.21">
<path fill-rule="evenodd" clip-rule="evenodd" d="M151.585 68.896C149.919 67.7049 147.91 67.0514 145.837 67.0514C144.814 67.0514 143.992 67.8731 143.992 68.896C143.992 69.9188 144.814 70.7405 145.837 70.7405C147.91 70.7405 149.919 70.087 151.585 68.896ZM160.331 77.6413C159.139 79.308 158.486 81.3169 158.486 83.3897C158.486 84.4125 159.308 85.2342 160.331 85.2342C161.353 85.2342 162.175 84.4125 162.175 83.3897C162.175 81.3169 161.522 79.308 160.331 77.6413ZM169.076 68.896C170.743 70.087 172.751 70.7405 174.824 70.7405C175.847 70.7405 176.669 69.9188 176.669 68.896C176.669 67.8731 175.847 67.0514 174.824 67.0514C172.751 67.0514 170.743 67.7049 169.076 68.896ZM160.331 65.3731L156.808 68.896L160.331 72.4188L163.853 68.896L160.331 65.3731ZM162.788 62.7976C164.683 60.4271 165.733 57.4669 165.733 54.4023C165.733 51.3376 163.318 49 160.331 49C157.343 49 154.928 51.415 154.928 54.4023C154.928 57.3896 155.978 60.4271 157.873 62.7976L154.234 66.4365C151.864 64.5417 148.903 63.4918 145.839 63.4918C142.774 63.4918 140.435 65.9087 140.435 68.896C140.435 71.8833 142.85 74.2982 145.837 74.2982C148.824 74.2982 151.862 73.2483 154.232 71.3535L157.871 74.9924C155.976 77.3629 154.926 80.3231 154.926 83.3877C154.926 86.4524 157.341 88.79 160.329 88.79C163.316 88.79 165.731 86.375 165.731 83.3877C165.731 80.4004 164.681 77.3629 162.786 74.9924L166.425 71.3535C168.795 73.2483 171.756 74.2982 174.82 74.2982C177.885 74.2982 180.223 71.8833 180.223 68.896C180.223 65.9087 177.808 63.4937 174.82 63.4937C171.833 63.4937 168.795 64.5436 166.425 66.4385L162.786 62.7996L162.788 62.7976ZM160.331 52.5577C159.308 52.5577 158.486 53.3794 158.486 54.4023C158.486 56.475 159.139 58.4839 160.331 60.1506C161.522 58.4839 162.175 56.475 162.175 54.4023C162.175 53.3794 161.353 52.5577 160.331 52.5577Z" fill="#AE72FF"/>
</g>
<rect x="233.6" y="173.5" width="211.75" height="284.825" rx="24.5" fill="#1F0433" stroke="#AE72FF"/>
<rect x="466.7" y="173.5" width="211.75" height="284.825" rx="24.5" fill="#1F0433" stroke="#AE72FF"/>
<rect x="0.5" y="173.5" width="211.75" height="284.825" rx="24.5" fill="#1F0433" stroke="#AE72FF"/>
<circle cx="161" cy="69" r="37.5" fill="#1F0433" stroke="#AE72FF"/>
<rect x="25" y="381" width="162" height="28" rx="5" fill="#2E1044"/>
<rect x="258" y="381" width="162" height="28" rx="5" fill="#2E1044"/>
<rect x="492" y="381" width="162" height="28" rx="5" fill="#2E1044"/>
<rect x="25" y="199" width="162" height="158" rx="17" fill="#2E1044"/>
<rect x="258" y="199" width="162" height="158" rx="17" fill="#2E1044"/>
<rect x="492" y="199" width="162" height="158" rx="17" fill="#2E1044"/>
<path d="M87.5966 296.776L86.7405 306.699L54.7163 294.609V284.458L87.5966 296.776Z" fill="#AE72FF"/>
<path d="M87.1424 321.113V310.613L54.7163 298.663V306.682C54.7163 306.682 55.8694 310.263 59.2413 311.067C62.6132 311.871 87.1424 321.113 87.1424 321.113Z" fill="#AE72FF"/>
<path d="M67.4175 252.4L135.799 224.813L138.157 229.827C138.157 229.827 137.581 232.937 136.078 233.758C134.576 234.579 75.0348 259.44 75.0348 259.44C75.0348 259.44 70.0731 260.017 69.0423 257.274C68.0115 254.531 67.435 252.4 67.435 252.4H67.4175Z" fill="#AE72FF"/>
<path d="M66.3695 253.43L56.0791 278.589L124.181 252.225L129.946 235.959L72.5891 260.593C72.5891 260.593 69.5317 258.864 69.0076 257.274C68.4835 255.684 66.352 253.43 66.352 253.43H66.3695Z" fill="#512473" stroke="#3C1C54" stroke-miterlimit="10"/>
<path d="M65.7931 285.332L58.8047 281.908L124.827 254.706L129.964 257.291L65.7931 285.332Z" fill="#512473" stroke="#3C1C54" stroke-miterlimit="10"/>
<path d="M153.672 268.193L156.834 270.796L157.48 281.506L136.533 289.263V287.865C136.533 287.865 134.174 287.184 132.846 287.306C131.519 287.428 127.081 289.158 126.155 289.787C125.229 290.416 121.036 295.5 121.036 295.5L91.1258 306.699L91.5102 296.723L87.5967 296.775L86.7406 306.699L54.0176 294.347L54.8737 281.506L58.8046 281.908L71.3313 286.363L87.9461 293.194L91.4578 293.071L114.659 284.074L150.143 270.359L153.654 268.193H153.672Z" fill="#AE72FF"/>
<path d="M91.126 320.833V310.211L119.691 300.235C119.691 300.235 127.5 299.886 128.846 298.628C130.191 297.37 135.153 293.369 135.153 293.369L157.131 285.367L157.481 293.369L155.803 295.221L91.126 320.833Z" fill="#AE72FF"/>
<path d="M124.093 253.221C126.207 254.024 128.112 255.492 130.173 256.383C132.008 257.169 139.136 259.038 139.974 260.104C140.324 260.541 140.534 261.729 140.848 261.904C141.163 262.078 141.512 261.973 141.809 262.096C145.006 263.389 153.846 266.638 155.908 268.77C159.227 272.211 157.812 275.147 158.389 279.427C157.987 283.812 158.896 289.053 158.389 293.334C158.249 294.452 157.183 295.098 156.292 295.622L90.4793 321.794C88.6274 321.864 86.6357 321.514 84.8711 320.938C75.5591 317.968 66.2471 313.286 56.8652 310.281C55.2754 309.687 54.3145 308.097 54 306.472L54.0524 282.152L66.2122 252.225C88.54 243.437 110.518 233.705 132.864 224.987C133.615 224.69 135.589 223.66 136.201 224.114C136.812 224.568 138.839 230.089 138.856 230.7C138.944 234.719 132.654 235.103 130.226 237.007L124.128 253.255L124.093 253.221ZM135.222 225.634L67.7147 253.5C69.5491 255.963 70.0383 259.318 73.8645 258.934L136.236 232.57C136.865 232.098 137.301 231.294 137.197 230.508C137.092 229.722 135.467 225.651 135.205 225.634H135.222ZM57.4243 277.592L122.818 251.491L128.269 237.619L74.5633 260.384C69.4618 261.327 69.2347 258.042 66.9984 255.195C64.7621 252.347 66.9984 254.845 66.5616 254.95L57.4243 277.61V277.592ZM122.172 253.43L56.708 279.637L56.079 281.226L57.7912 281.331L120.774 255.562C121.787 255.282 121.962 254.339 122.172 253.43ZM128.845 257.414L124.635 255.597L104.351 263.86L104.089 264.262L110.256 266.918C111.025 266.271 112.545 263.406 113.366 263.161C114.187 262.917 116.895 264.192 117.245 263.983C118.048 263.074 119.219 259.038 120.093 258.637C120.966 258.235 120.687 258.567 121.053 258.637C121.979 258.794 126.26 260.698 126.644 260.628L128.863 257.414H128.845ZM138.699 260.89L130.488 258.2L126.504 263.563C126.225 264.21 126.33 264.909 126.504 265.572C127.168 268.403 130.191 271.949 130.855 274.553C131.012 275.181 130.925 275.828 130.942 276.457L142.927 272.246L142.857 269.591L138.717 260.89H138.699ZM125.613 261.799L120.687 260.296C120.634 261.03 118.608 264.297 118.957 264.664L122.399 265.695L127.378 275.758L127.815 277.802L129.405 277.208C129.492 277.086 129.457 275.531 129.405 275.251C129.073 273.137 125.84 268.909 125.124 266.394C124.862 265.485 124.705 264.384 124.845 263.458C124.984 262.533 125.666 262.55 125.596 261.834V261.799H125.613ZM146.142 271.093C146.229 270.988 146.578 268.647 146.561 268.385C146.526 267.914 144.919 265.136 144.517 264.891C144.115 264.647 141.914 263.808 141.791 263.895C142.787 266.324 144.779 268.787 144.657 271.513L146.142 271.093ZM103.32 264.472L87.3171 270.849L93.9211 272.613C94.6025 272.613 95.8953 270.01 96.3845 269.835C97.3279 269.503 99.0226 270.849 100.071 270.866L103.303 264.489H103.32V264.472ZM121.176 266.795L113.978 264.751L108.911 271.32L113.925 282.117L113.803 283.131L126.155 278.239L125.893 276.265L121.176 266.795ZM112.248 283.865L112.178 281.786L107.182 271.373C107.147 270.569 108.789 269.084 109.226 268.35L104.386 265.992L101.608 271.408L105.714 273.207C106.937 276.317 109.103 279.514 110.204 282.607C110.414 283.201 110.588 283.812 110.553 284.459L112.248 283.865ZM152.658 268.28L147.138 265.992C147.225 266.743 147.959 267.232 148.081 268.001C148.203 268.77 147.819 269.556 147.906 270.36C148.221 270.045 152.885 268.577 152.658 268.263V268.28ZM55.52 282.746C55.2579 284.389 55.9742 284.301 57.1797 284.791C67.0333 288.879 77.4809 292.198 87.4743 296.024L90.2697 296.251C110.449 288.407 130.697 280.667 150.789 272.613C151.96 272.142 153.864 271.565 154.877 270.988C155.891 270.412 155.366 270.779 155.314 270.482C155.314 270.412 154.458 269.556 154.371 269.521C153.881 269.311 145.583 272.91 144.325 273.382C126.627 279.969 108.981 286.625 91.4402 293.631C89.7455 294.085 88.1207 294.085 86.4086 293.683C77.3062 290.748 67.9767 285.961 58.8569 283.34C57.7737 283.026 56.6731 282.746 55.52 282.764V282.746ZM96.664 289.787C98.1141 289.211 108.614 285.594 108.946 285.035C109.278 284.476 108.439 282.414 108.125 281.663C107.094 279.235 105.644 276.789 104.561 274.378L96.9785 271.495L91.5101 278.449L96.5068 288.127L96.664 289.787ZM85.6049 271.705L71.139 277.61L77.5333 278.868C77.9177 278.815 78.8087 276.876 79.4726 276.684C80.3811 276.422 81.4119 277.47 82.3553 277.4L85.6049 271.705ZM137.232 288.459L156.659 281.139C157.113 280.702 156.659 279.811 156.659 279.235C156.624 277.942 156.921 273.137 156.45 272.386C155.978 271.635 156.275 272.072 156.083 272.159L92.1216 297.247L91.9119 305.406L92.8204 305.284C102.115 301.702 111.689 298.68 120.861 294.854C123.831 289.543 129.457 285.629 135.781 286.398C137.232 286.573 137.301 287.044 137.232 288.477V288.459ZM93.4144 291.115C94.9344 290.975 95.3362 290.014 95.0742 288.599L89.7805 278.449C89.6931 277.662 92.4361 274.867 93.0126 274.081L87.055 272.683L83.6831 278.169C85.3254 278.641 87.2297 279.217 88.6449 280.161L93.3096 289.018L93.397 291.115H93.4144ZM74.7729 287.673L87.0725 292.216C87.9286 292.443 91.545 292.495 91.8595 291.569C91.9993 291.167 91.9119 289.857 91.8071 289.403L87.5093 281.314L80.3112 278.396C80.154 278.344 80.0317 278.396 79.8919 278.449C79.0533 278.815 75.9435 283.987 74.8952 284.878L74.7729 287.656V287.673ZM67.7147 278.938L60.0974 282.17L65.426 284.074C64.0633 282.222 66.2471 280.894 67.3303 279.602C67.505 279.392 67.7846 279.287 67.7147 278.938ZM76.4676 280.266L69.9335 278.955L66.649 282.554C66.3869 283.113 67.5924 284.406 67.837 285.035L73.2355 286.922C72.5891 283.952 75.1748 282.537 76.4676 280.266ZM156.834 282.746L136.585 290.346L135.502 292.46L156.397 284.895L156.799 284.528L156.834 282.746ZM55.52 285.786V294.26L86.4785 305.773L87.1424 297.859L55.5374 285.786H55.52ZM156.834 293.316V286.363L133.93 294.784C130.068 298.837 124.355 302.139 118.59 301.143L92.1216 310.875C91.3529 311.329 91.7372 313.338 91.7023 314.264C91.6149 316.046 91.283 317.88 91.5975 319.68L155.628 294.207L156.834 293.316ZM135.694 287.883H132.357C131.99 287.883 130.208 288.512 129.737 288.687C125.596 290.311 122.381 294.172 121.019 298.348L127.046 293.229L127.937 293.037L128.426 293.823L122.259 299.676C128.461 298.54 134.122 294.12 135.677 287.865H135.694V287.883ZM88.6798 297.806C88.6274 298.156 88.5051 298.488 88.4702 298.837C88.278 301.231 88.4352 304.113 88.0683 306.437C87.981 306.961 87.6316 307.538 87.0375 307.503L55.52 296.059L55.6248 297.789L87.6141 309.949L87.981 310.333L88.2605 319.925C89.6931 320.501 89.8504 320.466 89.9901 318.999C90.2172 316.448 89.8853 313.321 90.1823 310.805C90.2173 310.438 90.2697 310.123 90.5667 309.861L118.8 299.449L119.691 297.195L91.2131 307.311C89.7455 307.206 90.5317 304.707 90.5492 303.781C90.5841 301.79 90.4968 299.781 90.5492 297.771H88.6623V297.806H88.6798ZM55.52 299.501V306.454C55.52 306.944 56.5158 308.481 57.0924 308.673L85.5001 319.505L86.7405 319.68L86.5309 311.137L55.52 299.501Z" fill="black"/>
<path d="M57.4243 277.593L66.5616 254.933C66.9984 254.828 66.8761 255.02 66.9984 255.177C69.2347 258.025 69.4618 261.31 74.5633 260.366L128.269 237.602L122.818 251.473L57.4243 277.575V277.593Z" fill="#512473" stroke="#3C1C54" stroke-miterlimit="10"/>
<path d="M135.222 225.634C135.484 225.651 137.179 230.141 137.214 230.508C137.301 231.294 136.864 232.098 136.253 232.57L73.8817 258.933C70.0556 259.318 69.5664 255.963 67.7319 253.5L135.24 225.634H135.222Z" fill="#AE72FF"/>
<path d="M137.232 288.46C137.302 287.044 137.232 286.573 135.782 286.381C129.457 285.612 123.832 289.525 120.861 294.836C111.689 298.663 102.115 301.685 92.8206 305.267L91.9121 305.389L92.1218 297.23L156.083 272.142C156.293 272.054 156.362 272.212 156.45 272.369C156.904 273.12 156.607 277.925 156.659 279.217C156.712 280.51 157.131 280.668 156.659 281.122L137.232 288.442V288.46Z" fill="#AE72FF"/>
<path d="M156.834 293.316L155.629 294.207L91.5976 319.68C91.2831 317.88 91.5976 316.046 91.7024 314.264C91.7548 313.338 91.353 311.329 92.1217 310.875L118.59 301.143C124.356 302.139 130.051 298.837 133.93 294.784L156.834 286.363V293.316Z" fill="#AE72FF"/>
<path d="M55.52 299.501L86.5309 311.137L86.7406 319.68L85.5002 319.505L57.0924 308.673C56.5159 308.464 55.52 306.944 55.52 306.454V299.501Z" fill="#AE72FF"/>
<path d="M55.52 285.786L87.1249 297.859L86.4785 305.773L55.52 294.26V285.786Z" fill="#AE72FF"/>
<path d="M55.5198 282.746C56.6729 282.746 57.7735 283.008 58.8567 283.323C67.9766 285.944 77.306 290.731 86.4084 293.666C88.1206 294.068 89.7279 294.068 91.44 293.613C108.981 286.625 126.627 279.951 144.325 273.365C145.6 272.893 153.881 269.294 154.37 269.503C154.86 269.713 155.296 270.394 155.314 270.464C155.366 270.761 155.087 270.849 154.877 270.971C153.864 271.548 151.959 272.124 150.789 272.596C130.697 280.667 110.448 288.407 90.2695 296.234L87.4741 296.007C77.4982 292.198 67.0506 288.861 57.1795 284.773C55.974 284.266 55.2403 284.371 55.5198 282.729V282.746Z" fill="#AE72FF"/>
<path d="M121.176 266.796L125.893 276.265L126.155 278.239L113.803 283.131L113.925 282.1L108.929 271.321L113.978 264.751L121.176 266.796Z" fill="#AE72FF"/>
<path d="M96.6642 289.787L96.5069 288.127L91.5103 278.449L96.9787 271.495L104.561 274.378C105.644 276.789 107.094 279.235 108.125 281.663C108.44 282.414 109.383 284.336 108.946 285.035C108.509 285.734 98.1143 289.211 96.6642 289.787Z" fill="#AE72FF"/>
<path d="M138.699 260.89L142.84 269.591L142.909 272.246L130.924 276.457C130.924 275.81 130.994 275.181 130.837 274.552C130.173 271.949 127.151 268.403 126.487 265.572C126.33 264.909 126.225 264.21 126.487 263.563L130.47 258.2L138.681 260.89H138.699Z" fill="#AE72FF"/>
<path d="M88.68 297.806H90.5668C90.5319 299.781 90.6192 301.79 90.5668 303.799C90.5668 304.725 89.7632 307.241 91.2307 307.328L119.708 297.212L118.817 299.466L90.5843 309.879C90.2873 310.141 90.2349 310.455 90.1999 310.822C89.9029 313.338 90.2349 316.465 90.0078 319.016C89.868 320.501 89.7282 320.536 88.2781 319.942L87.9986 310.35L87.6317 309.966L55.6424 297.806L55.5376 296.077L87.0552 307.52C87.6492 307.52 87.9986 306.979 88.086 306.454C88.4354 304.131 88.2781 301.248 88.4878 298.855C88.5227 298.505 88.645 298.173 88.6974 297.824H88.68V297.806Z" fill="#512473" stroke="#3C1C54" stroke-miterlimit="10"/>
<path d="M74.7729 287.673L74.8952 284.895C75.961 284.004 79.0708 278.833 79.8919 278.466C80.7131 278.099 80.154 278.344 80.3112 278.414L87.5093 281.331L91.8071 289.42C91.9294 289.875 91.9993 291.185 91.8595 291.587C91.545 292.513 87.946 292.478 87.0725 292.233L74.7729 287.691V287.673Z" fill="#AE72FF"/>
<path d="M122.172 253.43C121.962 254.339 121.787 255.265 120.774 255.562L57.7913 281.331L56.0791 281.226L56.7081 279.637L122.172 253.43Z" fill="#AE72FF"/>
<path d="M128.846 257.414L126.627 260.628C126.242 260.698 121.962 258.811 121.036 258.637C120.669 258.567 120.477 258.462 120.075 258.637C119.202 259.038 118.031 263.074 117.227 263.983C116.878 264.192 114.257 262.882 113.349 263.162C112.44 263.441 111.008 266.271 110.239 266.918L104.072 264.262L104.334 263.86L124.618 255.597L128.828 257.414H128.846Z" fill="#512473" stroke="#3C1C54" stroke-miterlimit="10"/>
<path d="M135.694 287.883C134.139 294.12 128.461 298.558 122.277 299.693L128.444 293.84L127.955 293.054L127.064 293.246L121.036 298.365C122.399 294.19 125.614 290.311 129.754 288.704C130.226 288.512 132.008 287.9 132.375 287.9H135.712H135.694V287.883Z" fill="#AE72FF"/>
<path d="M93.4145 291.115L93.3272 289.018L88.6624 280.161C87.2473 279.217 85.3604 278.641 83.7007 278.169L87.0726 272.683L93.0302 274.081C92.4536 274.867 89.7107 277.662 89.798 278.449L95.0917 288.599C95.3363 290.014 94.952 290.975 93.432 291.115H93.4145Z" fill="#AE72FF"/>
<path d="M112.248 283.864L110.554 284.458C110.588 283.812 110.414 283.218 110.204 282.607C109.086 279.514 106.937 276.3 105.714 273.207L101.608 271.408L104.386 265.992L109.226 268.35C108.789 269.067 107.164 270.569 107.182 271.373L112.178 281.785L112.248 283.864Z" fill="#AE72FF"/>
<path d="M125.613 261.799C125.683 262.515 124.984 262.672 124.862 263.423C124.74 264.175 124.862 265.45 125.141 266.359C125.858 268.874 129.09 273.12 129.422 275.216C129.754 277.313 129.492 277.051 129.422 277.173L127.832 277.767L127.395 275.723L122.416 265.66L118.974 264.629C118.625 264.262 120.669 260.995 120.704 260.261L125.631 261.764V261.799H125.613Z" fill="#AE72FF"/>
<path d="M103.32 264.472L100.088 270.849C99.04 270.849 97.3453 269.486 96.4019 269.818C95.4585 270.15 94.6199 272.596 93.9385 272.596L87.3345 270.831L103.338 264.455H103.32V264.472Z" fill="#512473" stroke="#3C1C54" stroke-miterlimit="10"/>
<path d="M76.4679 280.265C75.175 282.537 72.5893 283.969 73.2357 286.922L67.8372 285.035C67.5926 284.406 66.4046 283.113 66.6492 282.554L69.9337 278.955L76.4679 280.265Z" fill="#AE72FF"/>
<path d="M156.834 282.747L156.816 284.529L156.415 284.878L135.502 292.46L136.585 290.346L156.834 282.747Z" fill="#512473" stroke="#3C1C54" stroke-miterlimit="10"/>
<path d="M85.6051 271.705L82.3555 277.4C81.4121 277.47 80.3638 276.422 79.4728 276.684C78.8089 276.876 77.9353 278.815 77.5335 278.868L71.1392 277.61L85.6051 271.705Z" fill="#512473" stroke="#3C1C54" stroke-miterlimit="10"/>
<path d="M146.142 271.093L144.657 271.513C144.779 268.805 142.787 266.341 141.792 263.895C141.914 263.808 144.272 264.734 144.517 264.891C144.919 265.153 146.509 267.914 146.561 268.385C146.613 268.857 146.229 270.989 146.142 271.093Z" fill="#AE72FF"/>
<path d="M67.7145 278.938C67.8019 279.287 67.5048 279.392 67.3301 279.601C66.2469 280.894 64.0631 282.222 65.4258 284.074L60.0972 282.17L67.7145 278.938Z" fill="#512473" stroke="#3C1C54" stroke-miterlimit="10"/>
<path d="M152.659 268.28C152.886 268.578 148.221 270.063 147.906 270.377C147.819 269.556 148.203 268.84 148.081 268.018C147.959 267.197 147.225 266.761 147.138 266.009L152.659 268.298V268.28Z" fill="#512473" stroke="#3C1C54" stroke-miterlimit="10"/>
<path d="M524.965 53.0151L520 48.1304L522.165 46L527.131 50.8847H550.469C551.314 50.8847 552 51.5592 552 52.3911C552 52.5377 551.978 52.6836 551.936 52.824L548.261 64.8752C548.066 65.5124 547.47 65.9488 546.794 65.9488H528.028V68.9616H544.871V71.9744H526.496C525.651 71.9744 524.965 71.2998 524.965 70.468V53.0151ZM527.262 78C525.993 78 524.965 76.9883 524.965 75.7404C524.965 74.4923 525.993 73.4808 527.262 73.4808C528.53 73.4808 529.559 74.4923 529.559 75.7404C529.559 76.9883 528.53 78 527.262 78ZM545.636 78C544.368 78 543.34 76.9883 543.34 75.7404C543.34 74.4923 544.368 73.4808 545.636 73.4808C546.905 73.4808 547.933 74.4923 547.933 75.7404C547.933 76.9883 546.905 78 545.636 78Z" fill="#AE72FF"/>
<path d="M484.253 69.0257L491 75.7722L488.772 78L482.026 71.2535C479.6 73.1943 476.524 74.3552 473.178 74.3552C465.352 74.3552 459 68.0037 459 60.1776C459 52.3516 465.352 46 473.178 46C481.004 46 487.355 52.3516 487.355 60.1776C487.355 63.5235 486.194 66.5999 484.253 69.0257ZM481.093 67.8569C483.019 65.8717 484.205 63.1637 484.205 60.1776C484.205 54.0852 479.27 49.1506 473.178 49.1506C467.085 49.1506 462.151 54.0852 462.151 60.1776C462.151 66.2701 467.085 71.2047 473.178 71.2047C476.164 71.2047 478.872 70.0193 480.857 68.093L481.093 67.8569Z" fill="#AE72FF"/>
<g opacity="0.21">
<path fill-rule="evenodd" clip-rule="evenodd" d="M151.651 68.896C149.984 67.7049 147.975 67.0514 145.902 67.0514C144.879 67.0514 144.058 67.8731 144.058 68.896C144.058 69.9188 144.879 70.7405 145.902 70.7405C147.975 70.7405 149.984 70.087 151.651 68.896ZM160.396 77.6413C159.205 79.308 158.551 81.3169 158.551 83.3897C158.551 84.4125 159.373 85.2342 160.396 85.2342C161.419 85.2342 162.241 84.4125 162.241 83.3897C162.241 81.3169 161.587 79.308 160.396 77.6413ZM169.141 68.896C170.808 70.087 172.817 70.7405 174.89 70.7405C175.912 70.7405 176.734 69.9188 176.734 68.896C176.734 67.8731 175.912 67.0514 174.89 67.0514C172.817 67.0514 170.808 67.7049 169.141 68.896ZM160.396 65.3731L156.873 68.896L160.396 72.4188L163.919 68.896L160.396 65.3731ZM162.853 62.7976C164.748 60.4271 165.798 57.4669 165.798 54.4023C165.798 51.3376 163.383 49 160.396 49C157.409 49 154.994 51.415 154.994 54.4023C154.994 57.3896 156.044 60.4271 157.938 62.7976L154.3 66.4365C151.929 64.5417 148.969 63.4918 145.904 63.4918C142.84 63.4918 140.5 65.9087 140.5 68.896C140.5 71.8833 142.915 74.2982 145.902 74.2982C148.89 74.2982 151.927 73.2483 154.298 71.3535L157.937 74.9924C156.042 77.3629 154.992 80.3231 154.992 83.3877C154.992 86.4524 157.407 88.79 160.394 88.79C163.381 88.79 165.796 86.375 165.796 83.3877C165.796 80.4004 164.746 77.3629 162.852 74.9924L166.49 71.3535C168.861 73.2483 171.821 74.2982 174.886 74.2982C177.95 74.2982 180.288 71.8833 180.288 68.896C180.288 65.9087 177.873 63.4937 174.886 63.4937C171.898 63.4937 168.861 64.5436 166.49 66.4385L162.852 62.7996L162.853 62.7976ZM160.396 52.5577C159.373 52.5577 158.551 53.3794 158.551 54.4023C158.551 56.475 159.205 58.4839 160.396 60.1506C161.587 58.4839 162.241 56.475 162.241 54.4023C162.241 53.3794 161.419 52.5577 160.396 52.5577Z" fill="#AE72FF"/>
</g>
<path d="M297.523 264.346C297.523 264.346 296.534 272.866 312.503 276.961C328.462 281.047 343.222 280.104 349.488 279.801C355.746 279.499 367.372 277.465 372.465 274.066C377.559 270.667 379.3 266.774 379.3 266.774C379.3 266.774 380.83 272.829 377.908 280.424C374.985 288.019 369.332 298.482 353.492 303.512C337.651 308.541 322.553 304.684 317.835 303.063C313.116 301.441 303.405 295.468 299.502 288.377C295.599 281.286 292.714 269.595 294.088 263.42C294.088 263.42 295.664 264.758 297.533 264.355L297.523 264.346Z" fill="#512473"/>
<path d="M319.557 303.603C319.557 303.603 317.66 305.142 317.624 306.251C317.596 307.359 320.207 310.941 335.892 310.63C351.577 310.318 353.684 308.376 354.261 307.277C354.838 306.177 353.611 304.547 351.714 303.979C351.714 303.979 344.623 306.031 337.468 305.976C330.313 305.921 320.959 304.354 319.548 303.603H319.557Z" fill="#3C1C54"/>
<path d="M378.521 254.341C375.15 253.241 373.116 255.385 373.116 255.385C373.116 255.385 374.783 251.601 374.005 247.186C373.226 242.77 369.36 242.192 369.36 242.192C368.187 240.122 364.825 239.206 364.825 239.206C365.75 238.171 364.761 236.558 364.312 236.045C363.872 235.532 363.414 234.634 363.102 233.397C362.791 232.16 360.94 230.676 358.622 230.456C356.304 230.227 343.295 234.918 343.295 234.918C338.971 233.562 335.443 234.918 335.443 234.918C335.443 234.918 335.114 230.062 330.688 229.843C326.263 229.623 324.404 232.069 324.404 232.069C318.714 229.046 308.444 235.285 306.383 236.87C304.321 238.455 305.87 240.708 305.87 240.708C303.46 245.82 308.609 246.911 308.609 246.911C308.609 246.911 300.263 248.807 297.056 249.769C293.85 250.731 294.454 253.425 294.454 253.425C289.507 259.59 294.088 263.411 294.088 263.411C294.088 263.411 295.664 264.748 297.533 264.345C297.533 264.345 296.543 272.866 312.512 276.961C328.471 281.047 343.231 280.103 349.497 279.801C355.755 279.499 367.381 277.465 372.475 274.066C377.569 270.667 379.309 266.773 379.309 266.773C379.309 266.773 380.354 265.39 380.592 264.464C380.83 263.53 381.902 255.459 378.531 254.35L378.521 254.341Z" fill="#AE72FF"/>
<path d="M336.02 326.178C336.02 326.178 337.358 324.226 336.423 321.917C335.48 319.609 332.218 317.575 325.402 316.201C318.585 314.826 313.052 313.067 310.404 318.674C307.756 324.281 311.815 327.414 316.387 328.239C320.958 329.064 327.115 330.484 330.386 330.41C333.656 330.337 336.038 329.1 336.011 326.178H336.02Z" fill="#AE72FF"/>
<path d="M357.834 319.059C357.834 319.059 356.405 313.47 360.014 309.641C363.624 305.811 376.386 305.692 378.832 306.251C381.278 306.81 384.302 308.477 385.026 311.94C385.749 315.403 381.526 317.923 379.703 319.096C377.87 320.259 370.926 323.493 364.769 322.669C358.613 321.844 358.897 321.056 357.843 319.059H357.834Z" fill="#AE72FF"/>
<path d="M361.783 278.051C361.783 278.051 362.14 292.398 351.714 303.97C351.714 303.97 364.614 300.36 371.265 292.078C377.917 283.796 380.922 272.17 379.291 266.764C379.291 266.764 375.214 275.743 361.774 278.051H361.783Z" fill="#3C1C54"/>
<path d="M300.61 270.814C300.61 270.814 305.228 273.251 308.453 269.174C308.453 269.174 308.819 274.588 310.367 276.347C310.367 276.347 303.799 274.442 300.61 270.805V270.814Z" fill="#2D1242"/>
<path d="M332.218 273.516C332.218 273.516 337.55 272.243 339.996 269.33C339.996 269.33 338.576 271.647 340.07 273.251C340.07 273.251 339.154 277.639 345.64 280.049L336.259 280.067C336.259 280.067 336.808 277.025 332.218 273.516Z" fill="#2D1242"/>
<path d="M321.765 264.611C321.765 264.611 325.915 265.152 328.655 262.706C328.655 262.706 326.199 266.389 328.554 270.951L321.765 264.62V264.611Z" fill="#2D1242"/>
<path d="M345.475 266.114L352.365 258.885L352.099 254.79C352.099 254.79 355.159 252.298 354.371 248.826C354.371 248.826 356.332 250.511 358.723 250.484L352.42 260.433C352.42 260.433 350.926 263.97 352.346 266.627C352.346 266.627 348.498 265.619 345.484 266.114H345.475Z" fill="#2D1242"/>
<path d="M361.774 269.229C361.774 269.229 364.348 268.963 365.118 268.468C365.118 268.468 363.166 274.542 369.68 274.891L370.102 275.367L365.081 277.135C365.081 277.135 365.512 272.838 361.774 269.229Z" fill="#2D1242"/>
<path d="M350.422 242.193C350.422 242.193 351.284 240.232 354.536 239.169C354.536 239.169 351.293 242.486 352.832 245.656C352.832 245.656 350.596 243.668 350.422 242.193Z" fill="#2D1242"/>
<path d="M312.759 265.564C312.759 265.564 312.658 262.129 316.661 261.304C316.661 261.304 314.765 256.586 317.816 252.912C317.816 252.912 319.282 252.774 319.575 253.233C319.575 253.233 316.973 259.279 320.647 264.144C320.647 264.144 315.837 262.266 312.759 265.573V265.564Z" fill="#33154A"/>
<path d="M302.195 260.094C302.195 260.094 305.466 258.656 306.785 256.65C308.114 254.652 313.143 250.548 317.569 250.356L320.244 246.581L322.159 246.874L319.575 253.232C319.575 253.232 316.891 252.435 314.573 254.094C312.255 255.743 306.813 260.278 302.204 260.104L302.195 260.094Z" fill="#33154A"/>
<path d="M352.136 266.205C352.136 266.205 361.087 263.255 365.255 267.543C365.255 267.543 364.678 269.366 360.931 268.835C360.931 268.835 356.02 266.782 352.136 266.205Z" fill="#33154A"/>
<path d="M369.717 264.868C369.717 264.868 376.286 258.629 376.982 253.883C376.982 253.883 374.618 253.984 372.978 256.201C371.348 258.418 369.717 264.868 369.717 264.868Z" fill="#33154A"/>
<path d="M355.645 249.32C355.645 249.32 361.893 238.345 368.911 241.441L368.581 242.073C368.581 242.073 362.891 243.182 358.732 250.475C358.732 250.475 356.542 250.328 355.654 249.32H355.645Z" fill="#33154A"/>
<path d="M331.467 239.683C331.467 239.683 337.422 240.196 338.045 245.29C338.045 245.29 343.533 239.206 349.762 243.182C349.762 243.182 345.594 242.23 343.523 243.979C341.453 245.738 336.89 251.089 336.89 251.089C336.89 251.089 337.623 243.21 331.073 241.011L331.458 239.692L331.467 239.683Z" fill="#33154A"/>
<path d="M325.164 231.867C325.164 231.867 331.999 233.315 331.971 237.337L331.073 241.01L329.085 241.249C329.085 241.249 331.376 235.715 325.164 231.867Z" fill="#33154A"/>
<path d="M310.798 245.857C310.798 245.857 314.408 243.979 320.4 244.593C320.4 244.593 324.422 237.209 330.203 238.968L330.019 240.892C330.019 240.892 324.843 241.359 322.159 246.865C322.159 246.865 316.378 245.353 310.808 245.848L310.798 245.857Z" fill="#33154A"/>
<path d="M346.932 250.594C346.932 250.594 352.09 249.559 353.94 251.977C353.94 251.977 353.198 254.313 352.099 254.79C352.099 254.79 350.037 252.197 346.932 250.585V250.594Z" fill="#33154A"/>
<path d="M344.559 278.912C344.559 278.912 360.051 277.804 364.889 274.047L365.081 277.135C365.081 277.135 345.704 281.963 344.559 278.912Z" fill="#33154A"/>
<path d="M309.369 272.169C309.369 272.169 322.177 278.821 336.286 279.673C336.286 279.673 323.304 280.186 310.368 276.347C310.368 276.347 309.195 275.092 309.369 272.169Z" fill="#33154A"/>
<path d="M390.99 294.268C390.908 294.442 390.285 294.213 389.808 293.709C389.323 293.223 389.048 292.536 388.993 292.399C388.929 292.261 388.7 291.611 388.727 290.969C388.727 290.328 388.993 289.778 389.149 289.833C389.378 289.907 389.314 290.42 389.378 290.951C389.414 291.482 389.589 292.032 389.634 292.151C389.68 292.28 389.928 292.829 390.294 293.278C390.633 293.736 391.082 294.084 390.981 294.277L390.99 294.268Z" fill="#F6CFCC"/>
<path d="M335.956 325.838C336.021 325.792 336.387 326.305 336.25 327.313C336.167 327.799 335.956 328.385 335.526 328.944C335.104 329.503 334.445 330.007 333.666 330.327C330.45 331.61 326.062 330.804 321.857 330.007C319.722 329.594 317.596 329.246 315.48 328.761C314.427 328.504 313.373 328.165 312.429 327.643C311.477 327.13 310.643 326.397 310.066 325.554C308.92 323.841 308.774 321.954 308.975 320.579C309.177 319.178 309.717 318.225 310.001 317.767C310.295 317.309 310.881 316.466 311.935 315.66C312.979 314.853 314.491 314.102 316.341 313.882C318.174 313.662 320.171 314.011 322.095 314.496C324.019 315 325.998 315.568 327.949 316.109C329.891 316.658 331.861 317.162 333.584 318.078C334.436 318.536 335.223 319.114 335.828 319.792C336.46 320.47 336.854 321.276 337.056 322.036C337.477 323.566 337.129 324.95 336.607 325.692C336.075 326.452 335.544 326.617 335.526 326.562C335.443 326.452 335.828 326.141 336.158 325.426C336.479 324.73 336.653 323.557 336.204 322.293C335.984 321.661 335.636 321.038 335.086 320.506C334.546 319.956 333.849 319.489 333.07 319.104C331.504 318.335 329.571 317.877 327.61 317.364C325.659 316.851 323.68 316.338 321.774 315.834C319.887 315.366 318.073 315.073 316.506 315.266C314.958 315.449 313.657 316.09 312.787 316.759C311.907 317.437 311.422 318.124 311.183 318.5C310.945 318.875 310.524 319.627 310.359 320.772C310.194 321.89 310.331 323.429 311.229 324.757C312.1 326.095 313.84 326.956 315.819 327.414C317.807 327.881 320.015 328.266 322.113 328.715C324.239 329.146 326.3 329.594 328.233 329.787C330.148 329.97 331.98 329.961 333.345 329.475C334.738 329.017 335.498 327.982 335.746 327.185C336.002 326.379 335.846 325.857 335.966 325.829L335.956 325.838Z" fill="#1F0433"/>
<path d="M333.171 325.307C332.969 325.298 332.933 324.62 333.098 323.924C333.244 323.227 333.601 322.549 333.684 322.403C333.757 322.256 334.096 321.624 334.554 321.138C334.994 320.635 335.525 320.305 335.635 320.433C335.791 320.616 335.406 321.056 335.058 321.551C334.701 322.036 334.371 322.586 334.298 322.723C334.224 322.852 333.931 323.475 333.73 324.089C333.51 324.702 333.382 325.316 333.171 325.298V325.307Z" fill="#1F0433"/>
<path d="M334.554 327.515C334.399 327.643 334.133 327.423 334.032 327.075C333.922 326.736 334.014 326.37 334.032 326.297C334.041 326.223 334.133 325.884 334.362 325.646C334.582 325.399 334.893 325.325 334.967 325.472C335.077 325.683 334.967 325.848 334.884 326.031C334.793 326.205 334.719 326.397 334.71 326.452C334.701 326.498 334.664 326.727 334.674 326.938C334.674 327.149 334.719 327.369 334.554 327.506V327.515Z" fill="#1F0433"/>
<path d="M329.965 324.437C329.873 324.51 329.488 323.988 328.581 323.85C327.674 323.685 326.437 323.951 325.1 324.244C323.771 324.51 322.379 324.73 321.233 324.812C320.088 324.904 319.2 324.867 318.879 324.849C318.558 324.831 317.715 324.794 316.644 324.565C315.572 324.336 314.298 323.85 313.199 323.136C312.099 322.43 311.211 321.478 310.753 320.662C310.276 319.847 310.157 319.242 310.23 319.215C310.349 319.169 310.606 319.709 311.128 320.415C311.65 321.12 312.502 321.954 313.547 322.586C314.591 323.218 315.782 323.667 316.79 323.878C317.798 324.098 318.613 324.134 318.916 324.153C319.218 324.171 320.07 324.199 321.179 324.107C322.287 324.034 323.652 323.823 324.971 323.594C326.272 323.347 327.656 323.099 328.673 323.401C329.177 323.53 329.552 323.795 329.745 324.015C329.946 324.235 329.992 324.409 329.955 324.428L329.965 324.437Z" fill="#1F0433"/>
<path d="M376.973 271.061C377.083 271.162 375.305 273.186 371.751 275.147C369.964 276.091 367.793 277.043 365.365 277.831C362.928 278.592 360.253 279.215 357.504 279.682C352.017 280.616 346.3 280.836 341.664 280.836C337.046 280.818 333.483 280.681 332.2 280.616C330.927 280.552 327.537 280.415 323.194 279.874C318.861 279.343 313.565 278.308 308.655 276.512C306.208 275.614 303.836 274.496 301.893 273.021C299.96 271.537 298.476 269.742 297.78 267.891C297.083 266.049 297.157 264.4 297.294 263.338C297.459 262.257 297.679 261.679 297.752 261.698C297.881 261.725 297.826 262.33 297.816 263.383C297.826 264.428 297.89 265.949 298.604 267.552C299.301 269.155 300.739 270.777 302.562 272.096C304.404 273.425 306.694 274.451 309.085 275.294C313.886 276.979 319.081 277.969 323.359 278.491C327.638 279.022 330.991 279.169 332.255 279.242C333.519 279.316 337.056 279.425 341.655 279.444C346.236 279.453 351.879 279.251 357.285 278.399C359.978 277.987 362.617 277.419 365.008 276.732C367.399 276.026 369.543 275.174 371.32 274.35C374.857 272.637 376.79 270.878 376.964 271.07L376.973 271.061Z" fill="#1F0433"/>
<path d="M379.3 266.764C379.373 266.736 379.777 267.662 379.96 269.402C380.152 271.134 380.088 273.653 379.493 276.603C378.897 279.553 377.789 282.943 375.947 286.315C374.151 289.695 371.604 293.021 368.517 295.843C366.959 297.235 365.31 298.564 363.524 299.672C362.663 300.268 361.728 300.735 360.83 301.266C359.896 301.715 358.998 302.219 358.054 302.604C354.326 304.244 350.533 305.252 347.097 305.838C346.245 306.003 345.402 306.122 344.587 306.214C343.771 306.315 342.993 306.424 342.241 306.479C340.739 306.608 339.355 306.672 338.128 306.699C335.682 306.763 333.868 306.681 332.906 306.644C331.944 306.608 330.194 306.516 327.885 306.26C325.586 306.003 322.645 305.563 319.511 304.51C316.369 303.493 313.025 301.917 309.855 299.764C306.703 297.611 303.726 294.908 301.326 291.812C298.898 288.733 297.075 285.298 295.829 281.954C294.564 278.61 293.923 275.357 293.63 272.581C293.346 269.796 293.437 267.478 293.611 265.875C293.776 264.272 293.996 263.392 294.07 263.401C294.198 263.42 294.152 264.327 294.143 265.912C294.115 267.497 294.152 269.769 294.528 272.481C294.922 275.183 295.618 278.335 296.91 281.551C298.183 284.766 299.988 288.065 302.361 291.015C304.697 293.983 307.583 296.576 310.634 298.637C313.694 300.698 316.928 302.21 319.951 303.19C322.974 304.207 325.769 304.62 328.041 304.885C330.313 305.142 332.026 305.233 332.97 305.27C333.913 305.307 335.7 305.38 338.1 305.316C339.301 305.288 340.656 305.224 342.122 305.096C342.855 305.041 343.625 304.931 344.413 304.83C345.21 304.739 346.025 304.629 346.859 304.464C350.203 303.896 353.886 302.916 357.495 301.34C358.412 300.982 359.282 300.488 360.189 300.057C361.05 299.544 361.957 299.104 362.791 298.527C364.513 297.474 366.117 296.2 367.628 294.872C370.633 292.169 373.125 288.99 374.921 285.756C376.753 282.531 377.917 279.26 378.595 276.411C379.264 273.562 379.465 271.125 379.419 269.439C379.392 267.744 379.172 266.8 379.291 266.764H379.3Z" fill="#1F0433"/>
<path d="M342.204 310.337C342.241 310.52 341.407 310.813 340.116 310.997C338.824 311.189 337.065 311.29 335.26 311.281C331.65 311.29 327.857 310.832 327.033 310.722C326.199 310.603 322.654 310.255 319.346 309.164C318.925 309.009 318.494 308.816 318.1 308.541C317.706 308.266 317.331 307.882 317.138 307.396C316.937 306.92 316.955 306.388 317.102 305.958C317.248 305.527 317.496 305.216 317.725 304.968C318.21 304.492 318.677 304.245 319.007 304.098C319.346 303.951 319.548 303.924 319.594 303.997C319.74 304.208 319.044 304.693 318.412 305.555C318.109 305.994 317.954 306.498 318.192 306.938C318.393 307.359 319.026 307.708 319.758 307.927C322.846 308.798 326.401 309.228 327.198 309.338C328.004 309.448 331.742 309.833 335.287 309.961C337.056 310.035 338.778 310.062 340.051 310.08C341.325 310.099 342.168 310.108 342.204 310.328V310.337Z" fill="#1F0433"/>
<path d="M327.995 310.117C328.031 309.907 328.911 309.916 330.258 309.916C331.604 309.916 333.418 309.907 335.297 309.852C339.044 309.769 343.002 309.449 343.863 309.348C344.715 309.247 348.462 308.926 351.788 308.074C352.585 307.864 353.327 307.543 353.638 307.085C353.95 306.636 353.849 306.077 353.528 305.628C353.217 305.17 352.832 304.831 352.575 304.584C352.319 304.336 352.172 304.171 352.218 304.098C352.273 303.997 352.511 304.016 352.869 304.153C353.226 304.3 353.73 304.547 354.234 305.078C354.481 305.344 354.738 305.701 354.847 306.178C354.957 306.654 354.893 307.213 354.618 307.699C354.032 308.661 353.034 309.036 352.163 309.329C348.654 310.374 344.88 310.63 344.009 310.731C343.139 310.823 339.126 311.217 335.315 311.162C333.409 311.143 331.559 311.024 330.194 310.823C328.828 310.621 327.958 310.319 327.995 310.117Z" fill="#1F0433"/>
<path d="M340.235 272.536C340.418 272.637 340.4 272.939 340.4 273.333C340.4 273.727 340.427 274.24 340.574 274.753C340.839 275.807 341.6 276.732 341.792 276.897C341.957 277.099 342.827 277.822 343.808 278.39C344.779 278.968 345.759 279.517 345.622 279.838C345.448 280.259 344.348 280.049 343.212 279.545C342.067 279.068 341.013 278.125 340.812 277.877C340.702 277.767 340.363 277.438 340.042 276.934C339.712 276.439 339.41 275.752 339.3 275.037C339.181 274.323 339.282 273.59 339.52 273.123C339.758 272.646 340.061 272.445 340.235 272.545V272.536Z" fill="#1F0433"/>
<path d="M365.081 277.135C364.861 277.117 364.907 276.091 364.476 274.643C364.266 273.929 363.927 273.113 363.432 272.316C362.919 271.528 362.268 270.75 361.462 270.145C359.868 268.899 357.697 268.413 355.928 268.038C354.133 267.662 352.74 267.378 352.245 267.277C351.742 267.195 350.431 266.856 348.792 266.7C347.967 266.627 347.078 266.636 346.171 266.828C345.255 267.012 344.321 267.36 343.423 267.781C342.516 268.203 341.664 268.67 341.032 269.229C340.39 269.788 339.978 270.438 339.831 271.07C339.483 272.371 340.115 273.15 339.978 273.251C339.905 273.324 339.639 273.223 339.355 272.829C339.08 272.445 338.851 271.739 338.952 270.905C339.025 270.072 339.511 269.11 340.253 268.395C340.986 267.653 341.929 267.094 342.864 266.618C343.808 266.132 344.843 265.72 345.896 265.482C346.959 265.244 348.013 265.225 348.92 265.308C350.734 265.482 352.035 265.839 352.539 265.921C353.033 266.022 354.426 266.306 356.231 266.664C358.017 267.048 360.427 267.561 362.296 269.11C363.221 269.852 363.936 270.795 364.458 271.721C364.962 272.664 365.255 273.617 365.383 274.442C365.64 276.1 365.282 277.163 365.099 277.135H365.081Z" fill="#1F0433"/>
<path d="M311.934 265.949C312.026 266.333 310.972 266.801 310.294 267.799C309.562 268.752 309.296 270.026 309.287 270.291C309.232 270.566 309.204 271.775 309.525 272.93C309.809 274.084 310.313 275.129 310.029 275.321C309.644 275.577 308.774 274.634 308.288 273.324C308.05 272.682 307.903 271.968 307.867 271.372C307.83 270.777 307.876 270.31 307.903 270.135C307.912 269.961 307.977 269.458 308.178 268.853C308.38 268.248 308.755 267.534 309.268 266.966C309.781 266.388 310.432 265.976 310.963 265.83C311.495 265.674 311.87 265.747 311.925 265.939L311.934 265.949Z" fill="#1F0433"/>
<path d="M336.286 279.673C336.075 279.709 335.846 278.867 335.15 277.776C334.463 276.677 333.272 275.394 331.806 274.277C330.349 273.141 328.709 272.059 327.473 270.978C326.245 269.906 325.411 269.009 325.091 268.715C324.779 268.413 323.973 267.579 322.874 266.645C321.783 265.72 320.327 264.721 318.751 264.272C317.193 263.805 315.553 264.034 314.5 264.538C313.428 265.014 312.924 265.674 312.768 265.555C312.585 265.454 312.887 264.529 314.069 263.75C315.205 262.962 317.184 262.531 319.081 263.017C320.968 263.466 322.599 264.584 323.771 265.573C324.953 266.572 325.75 267.424 326.062 267.726C326.382 268.028 327.234 268.908 328.389 269.916C329.534 270.923 331.146 272.014 332.631 273.26C334.133 274.487 335.388 276.017 335.956 277.346C336.543 278.674 336.488 279.645 336.295 279.673H336.286Z" fill="#1F0433"/>
<path d="M349.918 253.682C349.707 253.764 349.35 252.802 348.104 252.152C347.499 251.831 346.693 251.584 345.805 251.556C344.925 251.51 343.991 251.73 343.065 252.133C341.233 252.93 339.556 254.369 338.118 255.45C336.689 256.54 335.589 257.383 335.195 257.676C334.811 257.988 333.739 258.766 332.474 259.82C331.21 260.874 329.763 262.284 328.929 263.961C328.095 265.619 327.976 267.525 328.324 268.808C328.645 270.108 329.314 270.786 329.176 270.924C329.057 271.089 328.086 270.567 327.472 269.092C326.849 267.644 326.84 265.399 327.765 263.411C328.672 261.423 330.266 259.866 331.586 258.766C332.914 257.658 333.977 256.897 334.371 256.586C334.765 256.284 335.864 255.441 337.284 254.341C338.713 253.288 340.436 251.785 342.589 250.924C343.642 250.503 344.824 250.283 345.905 250.402C346.977 250.503 347.921 250.897 348.608 251.391C349.304 251.877 349.707 252.491 349.872 252.94C350.056 253.388 350.019 253.673 349.927 253.7L349.918 253.682Z" fill="#1F0433"/>
<path d="M341.554 268.285C341.728 268.633 340.775 269.357 339.804 270.264C338.833 271.162 337.669 272.087 337.385 272.261C337.129 272.454 335.965 273.324 334.609 273.682C333.94 273.865 333.244 273.911 332.74 273.819C332.236 273.727 331.952 273.535 331.98 273.37C332.026 273.132 332.328 273.031 332.731 272.912C333.143 272.793 333.666 272.655 334.197 272.445C335.26 272.032 336.322 271.318 336.561 271.144C336.808 270.988 337.852 270.081 338.97 269.247C340.079 268.404 341.361 267.891 341.554 268.285Z" fill="#1F0433"/>
<path d="M349.121 253.013C349.085 252.838 349.726 252.564 350.661 252.921C351.577 253.269 352.539 254.268 352.896 255.569C353.272 256.915 352.924 258.253 352.502 259.206C352.081 260.159 351.613 260.791 351.458 261.02C351.155 261.487 349.717 263.365 347.985 264.73C346.272 266.132 344.385 266.984 344.229 266.682C344 266.269 345.631 265.161 347.143 263.741C348.682 262.357 350.065 260.635 350.331 260.223C350.468 260.021 350.871 259.444 351.229 258.647C351.577 257.868 351.842 256.805 351.632 255.889C351.439 254.936 350.826 254.13 350.248 253.727C349.671 253.306 349.14 253.232 349.121 253.013Z" fill="#1F0433"/>
<path d="M333.721 257.721C333.565 257.529 334.765 256.714 335.452 254.771C336.185 252.866 336.259 249.962 335.59 247.14C335.269 245.738 334.747 244.373 333.895 243.402C333.052 242.431 331.879 241.945 330.762 241.853C329.644 241.753 328.636 241.991 327.903 242.293C327.161 242.596 326.657 242.944 326.391 243.127C325.869 243.484 324.513 244.593 323.313 246.544C322.708 247.506 322.122 248.661 321.545 249.897C320.968 251.143 320.354 252.426 319.859 253.699C319.364 254.973 319.007 256.256 318.906 257.465C318.806 258.665 318.971 259.792 319.273 260.69C319.878 262.522 320.995 263.292 320.867 263.447C320.803 263.539 320.464 263.447 319.969 263.072C319.493 262.696 318.87 262.009 318.439 261.02C317.999 260.039 317.715 258.775 317.761 257.401C317.798 256.036 318.146 254.606 318.641 253.241C319.135 251.876 319.74 250.575 320.299 249.32C320.867 248.065 321.472 246.847 322.131 245.802C323.423 243.686 324.981 242.403 325.594 241.991C325.906 241.78 326.483 241.368 327.381 240.992C328.279 240.626 329.497 240.333 330.89 240.452C332.264 240.543 333.876 241.212 334.939 242.486C336.011 243.741 336.552 245.335 336.872 246.847C337.514 249.879 337.321 253.04 336.295 255.11C335.81 256.146 335.159 256.869 334.646 257.263C334.133 257.666 333.776 257.786 333.721 257.703V257.721Z" fill="#1F0433"/>
<path d="M330.203 260.525C330.377 260.608 330.359 260.965 330.166 261.469C329.956 261.955 329.562 262.568 329.021 263.082C327.968 264.144 326.465 264.703 326.154 264.804C325.851 264.932 324.422 265.39 323.029 265.225C322.342 265.18 321.692 264.978 321.252 264.767C320.812 264.529 320.574 264.3 320.638 264.144C320.73 263.924 321.06 263.879 321.49 263.897C321.93 263.897 322.489 263.952 323.066 263.924C324.22 263.924 325.411 263.595 325.677 263.494C325.943 263.411 327.17 262.898 328.132 262.11C328.627 261.735 329.039 261.295 329.388 260.974C329.717 260.645 329.992 260.434 330.194 260.525H330.203Z" fill="#1F0433"/>
<path d="M319.475 253.911C319.374 253.892 319.337 253.682 319.145 253.553C318.971 253.416 318.522 253.297 317.99 253.352C317.853 253.361 317.734 253.398 317.596 253.434C317.441 253.489 317.276 253.544 317.111 253.599C316.772 253.7 316.433 253.865 316.076 254.011C315.37 254.332 314.637 254.763 313.913 255.239C312.466 256.192 311.037 257.365 309.772 258.226C308.526 259.105 307.436 259.664 307.042 259.847C306.657 260.049 305.567 260.507 304.211 260.901C302.874 261.322 301.234 261.771 300.107 262.752C298.953 263.686 298.485 265.189 298.476 266.288C298.439 267.397 298.742 268.12 298.568 268.203C298.394 268.313 297.761 267.653 297.578 266.334C297.487 265.683 297.523 264.886 297.78 264.071C298.036 263.265 298.54 262.413 299.246 261.79C300.657 260.489 302.48 260.003 303.799 259.573C305.155 259.169 306.099 258.785 306.447 258.601C306.804 258.437 307.775 257.923 308.975 257.081C310.194 256.256 311.632 255.093 313.208 254.14C314.793 253.169 316.479 252.481 317.963 252.445C318.696 252.491 319.319 252.793 319.566 253.233C319.786 253.7 319.548 253.938 319.475 253.911Z" fill="#1F0433"/>
<path d="M295.096 255.312C295.004 255.358 294.83 255.184 294.592 254.826C294.363 254.469 294.06 253.919 293.905 253.122C293.831 252.728 293.813 252.252 293.941 251.757C294.06 251.263 294.363 250.768 294.757 250.392C295.554 249.632 296.589 249.274 297.523 248.945C301.28 247.58 305.448 246.691 306.355 246.526C306.813 246.444 308.023 246.205 309.589 245.985C311.165 245.784 313.098 245.628 314.985 245.646C318.778 245.628 322.232 246.544 322.15 246.865C322.049 247.341 318.65 246.783 314.995 246.947C313.171 247.002 311.293 247.167 309.773 247.369C308.243 247.58 307.07 247.799 306.621 247.882C305.732 248.038 301.683 248.963 297.927 250.181C296.983 250.466 296.103 250.759 295.535 251.235C294.958 251.702 294.766 252.362 294.802 253.003C294.83 253.645 294.995 254.203 295.077 254.607C295.169 255.01 295.187 255.257 295.096 255.303V255.312Z" fill="#1F0433"/>
<path d="M300.776 261.743C300.913 261.872 300.831 262.202 300.446 262.504C300.07 262.815 299.411 262.999 298.76 262.944C298.11 262.889 297.496 262.641 297.056 262.33C296.616 262.027 296.332 261.688 296.25 261.579C296.158 261.469 295.92 261.175 295.7 260.745C295.48 260.323 295.297 259.783 295.196 259.261C295.004 258.207 295.114 257.254 295.444 257.227C295.911 257.181 296.167 258.079 296.451 258.931C296.726 259.801 297.166 260.543 297.313 260.69C297.377 260.772 297.542 260.956 297.826 261.157C298.1 261.359 298.513 261.542 298.916 261.634C299.319 261.725 299.713 261.725 300.024 261.679C300.336 261.643 300.602 261.579 300.757 261.734L300.776 261.743Z" fill="#1F0433"/>
<path d="M328.205 241.588C328.15 241.487 328.407 241.295 328.7 240.882C328.984 240.47 329.286 239.783 329.295 238.913C329.314 238.042 328.966 237.071 328.242 236.173C327.536 235.275 326.51 234.46 325.429 233.709C324.348 232.967 323.185 232.335 322.003 231.996C320.821 231.638 319.685 231.62 318.64 231.831C317.605 232.032 316.662 232.371 315.919 232.628C315.177 232.884 314.637 233.113 314.353 233.223C313.73 233.48 311.989 234.222 309.946 235.44C308.938 236.045 307.793 236.787 306.767 237.584C306.281 237.969 305.906 238.445 305.814 238.885C305.768 239.114 305.778 239.371 305.86 239.572C305.906 239.682 305.924 239.746 306.025 239.847L306.19 239.966L306.455 240.095L306.969 240.342C306.831 240.534 306.63 240.754 306.465 240.965C306.291 241.166 306.107 241.441 306.089 241.487C305.979 241.689 305.887 241.909 305.814 242.128C305.677 242.568 305.64 243.026 305.686 243.457C305.778 244.318 306.236 245.023 306.758 245.472C307.839 246.398 308.883 246.352 308.865 246.526C308.865 246.627 308.627 246.746 308.15 246.755C307.674 246.755 306.969 246.618 306.245 246.132C305.53 245.665 304.797 244.776 304.605 243.603C304.504 243.026 304.522 242.412 304.669 241.799C304.751 241.496 304.861 241.194 305.008 240.901C305.118 240.699 305.09 240.745 305.1 240.727C305.1 240.718 305.118 240.708 305.1 240.699C305.063 240.681 305.1 240.727 305.026 240.644C304.889 240.488 304.733 240.241 304.651 240.021C304.477 239.572 304.44 239.096 304.513 238.629C304.706 237.667 305.319 237.025 305.887 236.531C307.033 235.605 308.15 234.882 309.222 234.231C311.357 232.948 313.171 232.197 313.821 231.932C314.115 231.812 314.683 231.574 315.452 231.299C316.222 231.034 317.184 230.676 318.384 230.438C319.575 230.191 321.041 230.227 322.397 230.658C323.762 231.079 325.044 231.803 326.18 232.628C327.307 233.452 328.379 234.359 329.167 235.468C329.561 236.018 329.854 236.613 330.038 237.209C330.221 237.822 330.257 238.427 330.193 238.958C330.074 240.04 329.552 240.846 329.085 241.231C328.599 241.625 328.233 241.661 328.196 241.57L328.205 241.588Z" fill="#1F0433"/>
<path d="M360.93 268.844C360.958 268.734 361.434 268.826 362.25 268.78C363.056 268.725 364.219 268.468 365.429 267.744C366.638 267.03 367.802 265.821 368.736 264.254C369.68 262.696 370.422 260.818 371.173 258.904C372.63 255.101 374.004 250.997 373.473 247.781C373.244 246.187 372.593 244.895 371.86 244.126C371.127 243.338 370.394 243.081 370.009 242.981C369.625 242.88 368.864 242.752 367.829 242.944C366.803 243.155 365.529 243.649 364.311 244.584C363.083 245.509 361.901 246.819 360.82 248.313C359.73 249.806 358.704 251.483 357.641 253.095C356.579 254.707 355.543 256.302 354.572 257.786C353.61 259.242 352.831 260.635 352.383 261.89C351.934 263.145 351.869 264.245 351.961 264.996C352.062 265.747 352.227 266.169 352.135 266.214C352.053 266.26 351.714 265.912 351.448 265.097C351.191 264.291 351.127 263.026 351.521 261.615C351.906 260.204 352.667 258.693 353.592 257.163C354.526 255.651 355.525 254.039 356.542 252.39C357.577 250.759 358.585 249.073 359.703 247.497C360.82 245.931 362.076 244.501 363.459 243.457C364.833 242.394 366.317 241.808 367.563 241.561C368.818 241.322 369.835 241.478 370.358 241.625C370.88 241.753 371.943 242.147 372.877 243.164C373.821 244.162 374.59 245.729 374.856 247.561C375.14 249.403 374.911 251.446 374.407 253.443C373.894 255.45 373.17 257.438 372.382 259.371C371.585 261.286 370.788 263.2 369.716 264.849C368.663 266.498 367.279 267.818 365.868 268.523C364.467 269.238 363.129 269.394 362.24 269.293C361.343 269.183 360.903 268.917 360.93 268.826V268.844Z" fill="#1F0433"/>
<path d="M367.71 274.661C367.756 274.451 368.709 274.579 370.064 274.203C371.43 273.864 373.088 272.902 374.517 271.501C375.946 270.108 377.348 268.487 378.273 267.112C379.226 265.738 379.638 264.547 379.767 264.126C379.904 263.695 380.206 262.586 380.142 261.002C380.115 260.223 380.06 259.297 379.959 258.4C379.858 257.502 379.666 256.604 379.244 255.889C378.832 255.156 378.182 254.726 377.43 254.515C376.688 254.332 375.937 254.378 375.342 254.57C374.123 254.927 373.638 255.724 373.473 255.605C373.381 255.55 373.39 255.285 373.619 254.909C373.839 254.533 374.306 254.048 375.021 253.727C375.726 253.388 376.661 253.214 377.678 253.397C378.182 253.498 378.695 253.681 379.171 253.993C379.648 254.295 380.06 254.744 380.353 255.211C380.967 256.164 381.196 257.254 381.324 258.226C381.443 259.206 381.507 260.104 381.544 260.956C381.626 262.669 381.251 264.052 381.095 264.529C380.949 265.014 380.472 266.398 379.437 267.882C378.411 269.384 376.991 270.997 375.406 272.444C374.609 273.159 373.729 273.791 372.831 274.249C371.933 274.707 371.026 274.973 370.239 275.074C368.644 275.284 367.646 274.826 367.71 274.643V274.661Z" fill="#1F0433"/>
<path d="M365.218 271.794C365.127 271.959 364.696 271.894 364.33 271.391C363.972 270.896 363.853 270.071 364.073 269.311C364.302 268.514 364.833 267.937 365.246 267.543C365.667 267.149 365.997 266.91 366.107 266.81C366.345 266.617 367.243 265.884 367.985 265.041C368.746 264.226 369.359 263.347 369.662 263.493C370.083 263.695 369.735 264.831 369.002 265.848C368.287 266.883 367.206 267.708 366.986 267.872C366.785 268.074 365.676 268.853 365.319 269.705C365.127 270.154 365.09 270.639 365.145 270.978C365.182 271.326 365.328 271.592 365.209 271.775L365.218 271.794Z" fill="#1F0433"/>
<path d="M352.099 254.79C351.961 254.625 352.566 254.011 353.189 252.949C353.491 252.417 353.784 251.758 353.903 251.043C354.013 250.328 353.922 249.568 353.564 248.863C353.216 248.157 352.648 247.507 352.044 246.902C351.43 246.316 350.788 245.72 350.248 245.253C349.158 244.3 348.168 244.016 347.793 243.924C347.435 243.842 346.418 243.613 345.154 243.879C344.522 244.007 343.853 244.263 343.23 244.676C342.598 245.088 342.002 245.647 341.453 246.261C339.272 248.817 337.174 251.3 336.899 251.071C336.551 250.777 338.319 248.157 340.472 245.409C341.04 244.731 341.7 244.062 342.461 243.54C343.221 243.017 344.073 242.678 344.852 242.514C346.428 242.175 347.683 242.468 348.122 242.578C348.351 242.642 348.782 242.743 349.332 242.999C349.881 243.247 350.523 243.65 351.137 244.172C351.76 244.694 352.364 245.262 353.015 245.922C353.656 246.581 354.325 247.351 354.746 248.295C355.186 249.238 355.269 250.347 355.039 251.254C354.82 252.17 354.371 252.903 353.94 253.443C353.042 254.524 352.218 254.928 352.099 254.772V254.79Z" fill="#1F0433"/>
<path d="M370.01 242.367C369.882 242.523 369.24 242.138 368.315 241.551C367.39 240.965 366.171 240.241 364.769 240.012C363.368 239.747 361.81 239.829 360.528 239.893C359.236 239.948 358.274 240.021 357.926 240.058C357.587 240.095 356.661 240.186 355.562 240.48C355.012 240.635 354.399 240.818 353.922 241.13C353.437 241.441 353.153 241.845 353.079 242.413C352.951 243.558 353.537 244.96 353.73 245.967C353.968 246.984 354.06 247.671 353.895 247.717C353.675 247.79 353.308 247.195 352.878 246.242C352.658 245.757 352.429 245.216 352.191 244.575C351.962 243.924 351.723 243.173 351.787 242.275C351.824 241.835 351.952 241.359 352.209 240.956C352.456 240.544 352.804 240.223 353.153 239.985C353.867 239.508 354.573 239.307 355.186 239.124C356.442 238.785 357.413 238.711 357.779 238.675C358.146 238.629 359.163 238.546 360.454 238.491C361.746 238.436 363.404 238.354 365.026 238.73C366.684 239.087 368.04 240.058 368.856 240.828C369.689 241.606 370.129 242.202 370.001 242.367H370.01Z" fill="#1F0433"/>
<path d="M353.235 246.554C353.107 246.691 352.337 246.169 351.384 245.143C350.422 244.126 349.341 242.596 348.242 241.084C347.142 239.563 345.951 238.107 344.788 237.172C343.643 236.21 342.589 235.77 342.214 235.642C341.838 235.505 340.812 235.157 339.419 235.102C338.036 235.056 336.313 235.367 334.848 236.137C333.373 236.888 332.218 238.07 331.705 239.114C331.165 240.15 331.265 240.965 331.082 240.992C330.972 241.011 330.826 240.818 330.734 240.424C330.642 240.03 330.661 239.435 330.871 238.766C331.284 237.41 332.557 235.917 334.215 234.992C335.865 234.03 337.853 233.645 339.447 233.691C341.05 233.746 342.25 234.158 342.69 234.323C343.13 234.469 344.385 234.982 345.677 236.064C346.987 237.126 348.26 238.72 349.314 240.305C350.377 241.899 351.329 243.439 352.09 244.547C352.841 245.665 353.382 246.37 353.235 246.526V246.554Z" fill="#1F0433"/>
<path d="M335.434 234.909C335.04 234.955 334.674 233.425 333.565 232.28C333.034 231.703 332.383 231.217 331.797 230.942C331.22 230.658 330.716 230.548 330.542 230.512C330.203 230.411 328.6 230.228 327.216 230.796C325.86 231.336 324.614 232.362 324.385 232.06C324.239 231.886 324.422 231.51 324.816 231.043C325.219 230.585 325.86 230.008 326.685 229.605C327.509 229.202 328.453 229.009 329.223 229C329.992 228.982 330.588 229.101 330.808 229.147C331.027 229.192 331.65 229.311 332.392 229.678C333.135 230.026 333.959 230.658 334.545 231.428C335.15 232.188 335.507 233.068 335.617 233.746C335.727 234.424 335.617 234.882 335.416 234.9L335.434 234.909Z" fill="#1F0433"/>
<path d="M298.055 264.492C298.119 264.666 297.697 265.005 296.9 265.088C296.121 265.188 295.031 264.959 294.115 264.364C293.181 263.787 292.475 262.816 292.127 262C291.77 261.166 291.669 260.489 291.632 260.25C291.596 260.012 291.504 259.362 291.568 258.546C291.623 257.722 291.852 256.741 292.219 255.862C292.951 254.094 294.088 252.784 294.362 252.967C294.765 253.233 293.95 254.698 293.446 256.302C293.19 257.108 293.016 257.942 292.97 258.62C292.915 259.307 292.988 259.829 293.016 260.03C293.043 260.223 293.135 260.782 293.419 261.423C293.694 262.073 294.188 262.779 294.857 263.274C295.526 263.787 296.305 264.062 296.918 264.171C297.532 264.3 297.99 264.272 298.055 264.483V264.492Z" fill="#1F0433"/>
<path d="M362.983 232.839C362.79 232.93 362.451 232.426 361.719 231.959C361.004 231.492 359.868 231.107 358.649 231.144C357.422 231.162 356.13 231.501 355.058 231.794C353.986 232.097 353.152 232.326 352.859 232.408C352.273 232.591 349.753 233.37 347.344 234.112C344.953 234.854 342.717 235.569 342.589 235.248C342.415 234.818 344.55 233.773 346.923 232.884C349.286 231.987 351.87 231.254 352.465 231.08C352.768 230.988 353.601 230.741 354.692 230.438C355.782 230.145 357.193 229.779 358.659 229.834C360.134 229.861 361.544 230.484 362.287 231.254C363.056 232.023 363.157 232.775 362.974 232.839H362.983Z" fill="#1F0433"/>
<path d="M362.489 239.27C362.553 238.867 363.478 238.949 364.019 238.738C364.266 238.638 364.358 238.5 364.413 238.344C364.467 238.189 364.44 237.978 364.413 237.914C364.403 237.85 364.348 237.648 364.229 237.392C364.119 237.144 363.899 236.824 363.67 236.448C363.441 236.072 363.24 235.642 363.194 235.266C363.148 234.9 363.258 234.643 363.423 234.634C363.661 234.607 363.835 234.762 364.028 234.946C364.22 235.129 364.449 235.385 364.715 235.688C364.971 235.99 365.283 236.366 365.475 236.769C365.668 237.153 365.741 237.502 365.768 237.639C365.787 237.767 365.906 238.152 365.75 238.729C365.677 239.013 365.503 239.316 365.255 239.554C365.008 239.792 364.678 239.948 364.376 240.012C363.762 240.131 363.267 240.003 362.937 239.856C362.608 239.7 362.434 239.499 362.479 239.297L362.489 239.27Z" fill="#1F0433"/>
<path d="M342.955 273.333C342.763 273.269 342.882 272.673 342.855 272.05C342.855 271.427 342.699 270.777 342.653 270.64C342.616 270.502 342.415 269.907 342.112 269.403C341.828 268.89 341.444 268.468 341.563 268.331C341.7 268.148 342.259 268.487 342.662 269.036C343.084 269.577 343.285 270.273 343.331 270.429C343.386 270.585 343.597 271.327 343.523 272.05C343.478 272.774 343.166 273.388 342.964 273.315L342.955 273.333Z" fill="#1F0433"/>
<path d="M341.847 274.909C342.158 275.157 341.636 275.688 341.581 275.761C341.526 275.835 341.114 276.384 340.848 276.174C340.482 275.88 340.986 275.404 341.041 275.331C341.096 275.257 341.517 274.653 341.847 274.909Z" fill="#1F0433"/>
<path d="M359.016 274.707C359.107 274.882 357.742 275.578 356.139 275.605C355.342 275.642 354.518 275.505 353.885 275.294C353.244 275.083 352.786 274.827 352.63 274.717C352.465 274.625 352.044 274.359 351.586 273.91C351.128 273.471 350.66 272.829 350.367 272.133C350.065 271.437 349.964 270.695 350.001 270.163C350.037 269.623 350.175 269.293 350.257 269.311C350.376 269.33 350.386 269.669 350.45 270.154C350.514 270.64 350.67 271.272 350.963 271.867C351.522 273.104 352.704 273.984 352.988 274.121C353.125 274.213 353.528 274.433 354.096 274.625C354.664 274.808 355.406 274.946 356.13 274.946C357.596 274.991 358.933 274.497 359.016 274.698V274.707Z" fill="#1F0433"/>
<path d="M370.468 268.596C370.468 268.386 371.283 268.395 371.934 268.88C372.603 269.329 373.006 270.09 373.07 270.245C373.161 270.401 373.473 271.097 373.592 271.785C373.72 272.463 373.739 273.095 373.574 273.131C373.345 273.177 373.152 272.563 372.96 271.94C372.786 271.317 372.538 270.703 372.456 270.566C372.392 270.429 372.035 269.824 371.54 269.403C371.063 268.963 370.459 268.798 370.468 268.596Z" fill="#1F0433"/>
<path d="M361.701 261.304C361.536 261.176 362.763 259.591 363.908 257.832C364.476 256.952 364.99 256.018 365.338 255.221C365.695 254.433 365.86 253.791 365.933 253.562C365.988 253.333 366.153 252.719 366.217 251.922C366.3 251.125 366.236 250.127 366.052 249.183C365.686 247.277 364.935 245.564 365.109 245.491C365.301 245.399 366.226 247.048 366.694 249.046C366.923 250.035 367.005 251.107 366.923 251.977C366.859 252.848 366.675 253.498 366.611 253.746C366.538 253.984 366.364 254.68 365.988 255.505C365.622 256.338 365.081 257.319 364.458 258.198C363.231 259.966 361.865 261.432 361.71 261.304H361.701Z" fill="#1F0433"/>
<path d="M368.535 246.755C368.682 246.892 368.37 247.36 368.105 247.891C367.83 248.413 367.61 249 367.564 249.137C367.518 249.265 367.353 249.833 367.271 250.383C367.17 250.933 367.134 251.464 366.969 251.482C366.74 251.51 366.593 250.933 366.63 250.319C366.648 249.696 366.859 249.073 366.914 248.926C366.959 248.78 367.17 248.111 367.546 247.57C367.903 247.021 368.389 246.618 368.544 246.764L368.535 246.755Z" fill="#1F0433"/>
<path d="M376.991 257.557C376.863 257.713 376.542 257.548 376.213 257.392C375.883 257.236 375.526 257.09 375.443 257.062C375.361 257.035 375.012 256.934 374.683 256.852C374.344 256.76 374.014 256.696 374.014 256.522C374.005 256.293 374.371 256.183 374.774 256.21C375.177 256.229 375.58 256.375 375.672 256.412C375.764 256.439 376.194 256.586 376.542 256.833C376.891 257.081 377.138 257.41 377.001 257.566L376.991 257.557Z" fill="#1F0433"/>
<path d="M356.387 262.11C356.341 262.312 355.736 262.266 355.104 262.385C354.472 262.486 353.84 262.733 353.711 262.797C353.574 262.852 353.006 263.145 352.557 263.539C352.081 263.906 351.732 264.364 351.577 264.281C351.375 264.171 351.623 263.558 352.117 263.063C352.594 262.559 353.272 262.238 353.418 262.174C353.565 262.101 354.289 261.771 355.031 261.734C355.773 261.679 356.442 261.908 356.396 262.11H356.387Z" fill="#1F0433"/>
<path d="M345.347 256.98C345.439 256.961 345.594 257.383 345.613 258.051C345.64 258.72 345.503 259.636 345.145 260.498C344.806 261.368 344.266 262.174 343.753 262.751C343.24 263.338 342.782 263.723 342.617 263.851C342.305 264.144 340.803 265.225 339.181 265.775C337.578 266.361 336.002 266.581 335.975 266.416C335.929 266.178 337.431 265.793 338.943 265.17C340.473 264.575 341.884 263.594 342.177 263.319C342.333 263.2 342.754 262.834 343.222 262.293C343.689 261.753 344.193 261.02 344.541 260.241C344.898 259.462 345.081 258.647 345.164 258.033C345.237 257.419 345.237 256.998 345.347 256.98Z" fill="#1F0433"/>
<path d="M331.925 264.052C331.732 264.052 331.677 262.99 331.925 261.89C332.163 260.791 332.713 259.728 332.832 259.508C332.942 259.279 333.482 258.299 334.206 257.538C334.902 256.76 335.745 256.228 335.837 256.357C335.983 256.549 335.296 257.181 334.701 257.96C334.078 258.72 333.546 259.618 333.446 259.838C333.327 260.049 332.841 261.047 332.557 262.064C332.245 263.072 332.126 264.071 331.916 264.061L331.925 264.052Z" fill="#1F0433"/>
<path d="M348.316 255.055C348.215 255.22 347.638 254.955 347.18 254.478C346.712 254.011 346.41 253.37 346.346 253.232C346.282 253.095 346.007 252.49 345.952 251.876C345.879 251.263 346.016 250.695 346.181 250.713C346.419 250.74 346.456 251.253 346.593 251.766C346.703 252.289 346.914 252.82 346.969 252.93C347.024 253.049 347.308 253.58 347.665 254.039C348.004 254.497 348.425 254.872 348.306 255.055H348.316Z" fill="#1F0433"/>
<path d="M329.974 279.251C330.001 279.334 329.662 279.526 329.085 279.526C328.517 279.535 327.757 279.306 327.115 278.857C326.465 278.417 325.952 277.776 325.631 277.226C325.301 276.677 325.137 276.228 325.063 276.063C324.917 275.742 324.44 274.377 324.11 273.04C323.946 272.362 323.872 271.675 323.927 271.161C323.964 270.648 324.11 270.337 324.193 270.355C324.312 270.383 324.321 270.694 324.376 271.161C324.431 271.629 324.55 272.243 324.743 272.875C325.127 274.148 325.567 275.513 325.705 275.797C325.833 276.081 326.392 277.51 327.491 278.317C328.022 278.729 328.636 278.976 329.122 279.068C329.598 279.169 329.946 279.132 329.965 279.251H329.974Z" fill="#1F0433"/>
<path d="M315.196 267.387C315.325 267.534 314.903 268.001 314.326 268.34C313.758 268.688 313.08 268.881 312.933 268.927C312.787 268.972 312.145 269.147 311.532 269.147C310.909 269.165 310.35 269.018 310.368 268.853C310.396 268.615 310.927 268.588 311.486 268.505C312.036 268.432 312.613 268.304 312.75 268.267C312.888 268.23 313.483 268.029 314.024 267.772C314.573 267.525 315.068 267.232 315.205 267.397L315.196 267.387Z" fill="#1F0433"/>
<path d="M318.027 267.039C317.844 267.103 317.615 266.645 317.578 266.114C317.532 265.583 317.688 265.042 317.725 264.923C317.752 264.804 317.908 264.3 318.21 263.906C318.494 263.503 318.897 263.246 319.007 263.375C319.163 263.549 318.943 263.878 318.769 264.245C318.577 264.602 318.421 265.015 318.403 265.106C318.375 265.207 318.274 265.656 318.247 266.096C318.21 266.535 318.247 266.966 318.036 267.03L318.027 267.039Z" fill="#1F0433"/>
<path d="M317.12 249.156C317.101 249.256 316.625 249.238 315.91 249.201C315.196 249.183 314.243 249.156 313.263 249.266C311.302 249.421 309.323 250.118 308.902 250.292C308.48 250.447 306.666 251.226 305.21 252.353C303.707 253.425 302.598 254.781 302.452 254.671C302.36 254.598 302.571 254.204 302.983 253.654C303.414 253.123 304.046 252.426 304.806 251.84C306.291 250.603 308.205 249.806 308.645 249.65C309.076 249.467 311.146 248.707 313.208 248.615C314.234 248.542 315.232 248.633 315.956 248.752C316.68 248.89 317.138 249.055 317.11 249.156H317.12Z" fill="#1F0433"/>
<path d="M300.281 257.016C300.079 257.035 299.896 256.128 299.484 255.239C299.09 254.341 298.467 253.517 298.32 253.352C298.183 253.178 297.532 252.445 296.79 251.922C296.066 251.364 295.26 251.015 295.324 250.851C295.389 250.631 296.314 250.832 297.157 251.382C298.018 251.895 298.705 252.72 298.861 252.903C299.017 253.086 299.731 253.975 300.098 254.982C300.482 255.981 300.501 256.998 300.29 257.007L300.281 257.016Z" fill="#1F0433"/>
<path d="M300.574 259.783C300.766 259.746 300.895 259.985 300.931 260.259C300.968 260.534 300.922 260.818 300.913 260.882C300.913 260.947 300.876 261.221 300.766 261.451C300.666 261.689 300.501 261.872 300.345 261.808C299.942 261.625 300.235 260.919 300.226 260.791C300.272 260.681 300.189 259.856 300.574 259.774V259.783Z" fill="#1F0433"/>
<path d="M327.463 252.509C327.445 252.426 327.839 252.289 328.38 252.509C328.911 252.72 329.507 253.306 329.708 254.103C329.91 254.891 329.708 255.715 329.433 256.283C329.158 256.861 328.838 257.227 328.728 257.365C328.618 257.493 328.316 257.859 327.793 258.18C327.289 258.51 326.501 258.775 325.723 258.546C324.981 258.308 324.477 257.685 324.367 257.145C324.248 256.595 324.486 256.265 324.55 256.302C324.669 256.338 324.623 256.65 324.797 257.007C324.953 257.365 325.384 257.786 325.906 257.914C326.41 258.042 327.015 257.85 327.418 257.584C327.839 257.319 328.105 257.016 328.196 256.906C328.288 256.797 328.563 256.467 328.792 255.981C329.021 255.505 329.186 254.845 329.067 254.25C328.957 253.654 328.545 253.15 328.169 252.912C327.793 252.655 327.463 252.619 327.463 252.509Z" fill="#1F0433"/>
<path d="M321.133 259.133C321.05 259.316 320.482 259.124 320.015 258.711C319.539 258.308 319.209 257.731 319.145 257.603C319.071 257.484 318.778 256.934 318.705 256.357C318.604 255.78 318.723 255.248 318.897 255.257C319.136 255.276 319.19 255.743 319.346 256.21C319.474 256.687 319.694 257.163 319.758 257.264C319.813 257.374 320.107 257.841 320.473 258.235C320.821 258.629 321.234 258.94 321.142 259.133H321.133Z" fill="#1F0433"/>
<path d="M309.103 241.423C308.902 241.405 308.847 241.102 308.746 240.8C308.655 240.498 308.526 240.195 308.49 240.131C308.453 240.067 308.297 239.801 308.114 239.563C307.94 239.325 307.738 239.105 307.821 238.959C307.931 238.757 308.288 238.858 308.581 239.114C308.874 239.362 309.058 239.728 309.103 239.811C309.149 239.893 309.36 240.278 309.397 240.681C309.442 241.084 309.323 241.46 309.113 241.441L309.103 241.423Z" fill="#1F0433"/>
<path d="M323.386 240.699C323.221 240.8 322.773 240.186 322.571 239.417C322.351 238.656 322.397 237.804 322.415 237.63C322.415 237.447 322.498 236.659 322.8 235.981C323.075 235.294 323.551 234.781 323.689 234.882C323.881 235.019 323.588 235.578 323.414 236.21C323.212 236.833 323.121 237.52 323.112 237.685C323.093 237.85 323.084 238.583 323.212 239.279C323.322 239.976 323.579 240.599 323.386 240.709V240.699Z" fill="#1F0433"/>
<path d="M335.48 241.891C335.333 241.753 335.856 241.066 336.222 240.241C336.607 239.426 336.799 238.482 336.827 238.281C336.863 238.079 336.973 237.181 336.882 236.339C336.827 235.496 336.57 234.726 336.735 234.653C336.946 234.552 337.386 235.331 337.523 236.256C337.697 237.181 337.55 238.171 337.505 238.391C337.477 238.611 337.294 239.664 336.799 240.535C336.332 241.423 335.617 242.046 335.471 241.9L335.48 241.891Z" fill="#1F0433"/>
<path d="M342.315 241.744C342.333 241.936 341.71 242.037 341.105 241.79C340.501 241.57 340.024 241.057 339.933 240.947C339.832 240.846 339.41 240.352 339.264 239.765C339.09 239.188 339.218 238.62 339.383 238.647C339.621 238.675 339.676 239.124 339.878 239.554C340.052 239.994 340.363 240.397 340.446 240.48C340.519 240.571 340.913 240.947 341.362 241.185C341.802 241.442 342.296 241.524 342.305 241.735L342.315 241.744Z" fill="#1F0433"/>
<path d="M360.812 236.256C360.784 236.338 360.537 236.347 360.225 236.155C359.914 235.972 359.612 235.569 359.437 235.129C359.089 234.24 359.144 233.278 359.135 233.086C359.126 232.894 359.144 232.042 358.979 231.336C358.897 230.979 358.759 230.667 358.622 230.457C358.485 230.237 358.366 230.099 358.411 230.026C358.466 229.934 358.695 229.953 358.952 230.154C359.218 230.356 359.474 230.741 359.602 231.162C359.877 232.005 359.813 232.894 359.831 233.086C359.831 233.288 359.831 234.167 360.051 234.918C360.161 235.294 360.335 235.605 360.509 235.816C360.683 236.027 360.839 236.164 360.803 236.265L360.812 236.256Z" fill="#1F0433"/>
<path d="M363.184 238.134C363.138 237.942 363.34 237.804 363.597 237.759C363.844 237.713 364.11 237.759 364.174 237.759C364.229 237.759 364.485 237.795 364.696 237.905C364.907 238.006 365.062 238.18 364.989 238.336C364.778 238.721 364.201 238.437 364.091 238.455C364.045 238.455 363.844 238.437 363.651 238.409C363.459 238.382 363.248 238.336 363.203 238.125L363.184 238.134Z" fill="#1F0433"/>
<path d="M359.236 236.467C359.373 236.604 358.311 237.676 356.909 238.418C355.525 239.197 353.876 239.582 353.528 239.646C353.18 239.737 351.623 240.03 350.148 239.911C348.663 239.838 347.353 239.371 347.399 239.215C347.463 238.986 348.764 239.261 350.175 239.261C351.577 239.307 353.052 239.05 353.391 238.968C353.73 238.904 355.278 238.51 356.616 237.832C357.981 237.19 359.099 236.302 359.245 236.457L359.236 236.467Z" fill="#1F0433"/>
<path d="M359.19 250.072C359.236 250.154 359.062 250.337 358.732 250.484C358.402 250.63 357.898 250.731 357.394 250.685C356.359 250.64 355.425 250.035 355.26 249.888C355.058 249.769 354.279 249.137 353.803 248.358C353.308 247.598 353.043 246.792 353.198 246.728C353.409 246.627 353.821 247.323 354.334 247.983C354.829 248.651 355.489 249.22 355.663 249.32C355.819 249.439 356.606 249.925 357.468 250.026C358.32 250.181 359.108 249.879 359.208 250.062L359.19 250.072Z" fill="#1F0433"/>
<path d="M309.277 267.589C309.461 267.644 309.057 268.972 308.068 270.044C307.592 270.585 306.987 271.034 306.446 271.327C305.906 271.611 305.457 271.757 305.292 271.794C305.127 271.849 304.687 271.959 304.119 271.996C303.542 272.032 302.837 271.959 302.186 271.739C301.536 271.519 300.968 271.153 300.62 270.814C300.271 270.466 300.134 270.182 300.189 270.127C300.281 270.044 300.528 270.227 300.904 270.466C301.279 270.695 301.801 270.96 302.379 271.125C303.542 271.483 304.843 271.235 305.109 271.134C305.246 271.098 305.649 270.97 306.126 270.713C306.602 270.456 307.143 270.063 307.61 269.595C308.563 268.679 309.103 267.516 309.296 267.598L309.277 267.589Z" fill="#1F0433"/>
<path d="M358.173 318.207C358.283 318.243 358.063 318.747 358.32 319.535C358.448 319.92 358.705 320.378 359.126 320.772C359.538 321.148 360.143 321.468 360.867 321.661C361.59 321.853 362.433 321.954 363.34 322.018C364.247 322.1 365.209 322.11 366.208 322.1C368.205 322.064 370.349 321.761 372.465 321.239C374.582 320.708 376.652 319.902 378.53 318.921C379.465 318.417 380.363 317.895 381.178 317.327C382.012 316.768 382.772 316.2 383.313 315.577C384.412 314.35 384.43 312.801 384.11 311.693C383.771 310.566 383.249 309.824 382.946 309.467C382.644 309.109 382.085 308.44 381.096 307.9C380.097 307.323 378.677 306.874 377 306.727C375.324 306.571 373.4 306.654 371.384 306.91C369.387 307.158 367.243 307.314 365.255 307.698C363.258 308.065 361.517 308.926 360.299 310.264C359.08 311.592 358.375 313.168 358.054 314.56C357.743 315.962 357.807 317.171 357.926 317.996C357.972 318.417 358.054 318.738 358.091 318.958C358.127 319.187 358.127 319.315 358.091 319.334C358.036 319.352 357.944 319.26 357.825 319.059C357.697 318.857 357.541 318.546 357.413 318.115C357.138 317.272 356.936 315.953 357.175 314.395C357.422 312.847 358.118 311.051 359.447 309.503C360.115 308.734 360.949 308.046 361.911 307.524C362.873 306.984 363.936 306.672 364.989 306.434C367.106 305.985 369.204 305.82 371.247 305.545C373.271 305.271 375.296 305.17 377.129 305.335C378.961 305.49 380.592 306.003 381.773 306.681C382.992 307.35 383.67 308.175 384.027 308.596C384.385 309.027 385.026 309.915 385.447 311.317C385.64 312.023 385.759 312.865 385.631 313.8C385.511 314.716 385.063 315.724 384.366 316.503C383.679 317.291 382.827 317.914 381.957 318.491C381.096 319.095 380.143 319.636 379.162 320.158C377.174 321.175 374.994 322 372.768 322.522C368.297 323.575 363.808 323.466 360.573 322.54C359.767 322.265 359.062 321.844 358.576 321.294C358.1 320.754 357.862 320.167 357.788 319.663C357.642 318.637 358.1 318.152 358.155 318.207H358.173Z" fill="#1F0433"/>
<path d="M362.589 317.639C362.387 317.657 362.213 316.851 361.847 316.072C361.499 315.275 360.967 314.533 360.839 314.377C360.72 314.221 360.161 313.562 359.52 313.067C358.897 312.545 358.21 312.197 358.274 312.032C358.356 311.821 359.172 312.032 359.904 312.545C360.656 313.03 361.251 313.782 361.379 313.956C361.517 314.121 362.14 314.927 362.451 315.834C362.79 316.732 362.79 317.639 362.589 317.648V317.639Z" fill="#1F0433"/>
<path d="M381.398 311.702C381.443 311.785 381.04 312.115 380.353 312.527C379.657 312.921 378.667 313.397 377.596 313.709C375.452 314.405 373.061 314.451 372.547 314.433C372.034 314.451 369.79 314.378 367.793 313.727C366.785 313.443 365.869 313.003 365.209 312.655C364.559 312.27 364.174 311.986 364.21 311.913C364.275 311.812 364.733 311.968 365.401 312.252C366.089 312.499 366.996 312.866 367.967 313.104C369.9 313.663 372.053 313.755 372.547 313.745C373.042 313.764 375.333 313.69 377.403 313.086C378.448 312.811 379.419 312.417 380.142 312.124C380.857 311.812 381.333 311.611 381.398 311.702Z" fill="#1F0433"/>
<path d="M370.899 319.773C370.954 319.966 370.386 320.213 369.818 320.525C369.24 320.827 368.672 321.203 368.544 321.294C368.425 321.377 367.912 321.771 367.463 322.183C367.005 322.586 366.602 323.007 366.464 322.907C366.272 322.769 366.556 322.22 367.005 321.725C367.436 321.23 368.013 320.827 368.15 320.735C368.278 320.644 368.883 320.204 369.543 319.938C370.193 319.664 370.853 319.572 370.908 319.773H370.899Z" fill="#1F0433"/>
<path d="M362.094 319.975C362.296 319.975 362.36 320.25 362.314 320.525C362.278 320.809 362.131 321.065 362.104 321.12C362.076 321.175 361.948 321.432 361.755 321.606C361.563 321.789 361.325 321.881 361.224 321.752C361.078 321.569 361.16 321.377 361.252 321.203C361.416 320.937 361.471 320.845 361.49 320.809C361.508 320.772 361.545 320.671 361.691 320.36C361.783 320.167 361.893 319.966 362.104 319.966L362.094 319.975Z" fill="#1F0433"/>
<path d="M383.066 310.969C382.919 311.107 382.617 310.877 382.424 310.538C382.223 310.2 382.159 309.787 382.149 309.705C382.131 309.622 382.076 309.228 382.149 308.871C382.213 308.514 382.415 308.221 382.571 308.285C382.791 308.367 382.781 308.651 382.8 308.935C382.8 309.219 382.818 309.512 382.836 309.586C382.846 309.659 382.919 309.961 383.02 310.254C383.111 310.548 383.23 310.823 383.075 310.969H383.066Z" fill="#1F0433"/>
<path d="M562.657 218.483C562.929 218.536 563.202 218.735 563.514 218.807C578.612 222.295 593.55 226.528 608.632 230.094C613.662 232.67 609.564 238.733 609.095 242.852C608.947 244.156 609.48 246.76 609.553 248.259C610.635 270.463 604.06 298.933 592.289 317.868C591.632 318.926 590.082 320.704 589.681 321.699C588.653 324.254 588.34 327.994 587.289 330.4C586.667 331.823 584.208 333.277 582.619 332.743L536.477 321.023C535.018 320.475 533.794 318.156 534.122 316.646C534.679 314.074 536.009 311.28 536.246 308.641C536.297 308.074 535.544 305.304 535.426 304.355C534.188 294.3 536.444 282.47 538.638 272.625C541.506 259.765 546.018 245.064 552.857 233.744C553.593 232.526 555.323 230.453 555.77 229.343C556.861 226.635 556.916 221.484 559.067 219.567C560.013 218.726 561.389 218.234 562.657 218.483ZM607.879 242.483L609.987 234.063C610.095 233.633 609.231 231.917 608.815 231.665C608.175 231.278 606.801 231.128 606.006 230.887C591.632 226.54 576.507 223.735 561.998 219.706C560.915 219.531 559.278 220.819 558.973 221.793C558.867 222.134 558.723 222.777 558.632 223.14L556.979 229.74L564.675 231.667C565.265 231.814 565.508 232.744 564.81 232.962C564.112 233.181 563.714 232.716 563.16 232.569C560.854 231.959 558.519 231.365 556.178 230.924C551.582 237.776 548.178 245.427 545.434 253.211C541.214 265.187 537.94 278.511 536.77 291.162C536.268 296.578 536.079 302.3 537.319 307.613C538.702 308.403 546.032 309.183 546.691 310.023C546.794 310.153 546.832 310.315 546.813 310.479C546.757 310.839 546.456 311.05 546.101 311.014L537.457 309.015L535.348 317.437C535.247 317.843 536.229 319.497 536.716 319.718C552.345 323.612 567.917 327.937 583.601 331.585C584.729 331.441 585.852 330.608 586.248 329.534L588.433 321.453C581.672 319.754 574.869 318.148 568.219 316.153C567.763 315.699 568.461 314.942 569.033 315.138L588.813 320.262C588.947 320.295 589.045 320.265 589.154 320.184C589.36 320.035 590.298 318.559 590.545 318.196C599.207 305.468 604.704 286.344 607.003 271.203C608.376 262.156 608.852 252.874 607.848 243.79C605.415 243.091 602.925 242.582 600.48 241.925C600.12 241.829 599.826 241.593 599.467 241.497C595.859 240.539 590.896 239.793 587.569 238.527C586.893 238.269 586.453 237.688 587.17 237.213L607.878 242.48L607.879 242.483Z" fill="#512473"/>
<path d="M607.878 242.483L587.17 237.216C586.451 237.691 586.891 238.272 587.569 238.53C590.896 239.797 595.859 240.541 599.466 241.5C599.826 241.596 600.12 241.832 600.479 241.928C602.925 242.585 605.415 243.094 607.847 243.793C608.852 252.877 608.376 262.159 607.002 271.207C604.703 286.347 599.207 305.469 590.545 318.2C590.298 318.561 589.36 320.036 589.154 320.188C589.045 320.268 588.947 320.298 588.812 320.265L569.032 315.141C568.461 314.945 567.762 315.702 568.218 316.156C574.871 318.15 581.673 319.757 588.432 321.457L586.247 329.537C585.851 330.61 584.729 331.443 583.601 331.588C567.917 327.94 552.345 323.615 536.715 319.722C536.228 319.501 535.246 317.846 535.348 317.44L537.456 309.019L546.101 311.017C546.457 311.053 546.757 310.843 546.813 310.482C546.832 310.318 546.793 310.156 546.691 310.026C546.032 309.186 538.701 308.406 537.319 307.616C536.08 302.304 536.268 296.581 536.769 291.165C537.941 278.515 541.213 265.191 545.434 253.214C548.178 245.43 551.58 237.778 556.177 230.927C558.518 231.37 560.854 231.962 563.16 232.572C563.714 232.718 564.137 233.176 564.809 232.966C565.482 232.755 565.265 231.818 564.675 231.67L556.979 229.743L558.631 223.143C558.722 222.78 558.867 222.137 558.973 221.797C559.278 220.822 560.915 219.534 561.997 219.709C576.507 223.736 591.632 226.544 606.006 230.891C606.8 231.131 608.173 231.281 608.815 231.668C609.231 231.918 610.095 233.635 609.987 234.066L607.878 242.487L607.878 242.483ZM585.086 236.978C584.672 236.3 580.79 235.96 579.875 235.634C579.191 235.591 578.807 236.53 579.875 236.924C581.35 237.468 582.976 237.508 584.484 237.912L585.101 237.634C585.185 237.473 585.18 237.129 585.088 236.977L585.086 236.978ZM606.383 245.032C605.917 245.047 605.025 246.404 604.73 246.815C597.294 257.192 592.267 275.539 589.682 287.992C588.356 294.384 585.961 308.009 588.444 314.027C588.649 314.522 589.256 315.989 589.915 315.215C590.401 314.643 589.575 313.434 589.359 312.707C587.523 306.51 589.63 293.614 591.01 287.2C593.67 274.843 598.414 258.948 605.243 248.309C605.589 247.771 606.912 246.255 607.03 245.883C607.172 245.434 606.861 245.015 606.383 245.031L606.383 245.032ZM577.435 244.236C577.284 244.24 577.009 244.383 576.947 244.517C577.29 245.903 578.292 246.982 578.839 248.384C579.385 249.786 580.033 252.098 579.257 253.508C578.342 255.168 574.103 255.076 572.47 256.847C571.036 258.402 571.355 260.653 572.198 262.413C572.401 262.837 573.244 264.329 573.638 264.392L574.098 264.269C574.742 263.614 573.836 263.062 573.553 262.508C572.812 261.063 572.092 258.85 573.562 257.587C575.477 255.942 579.265 256.503 580.465 254.01C581.335 252.203 580.724 249.837 580.057 248.044C579.73 247.162 578.469 244.211 577.433 244.236L577.435 244.236ZM567.298 245.252C565.87 245.316 562.748 250.011 562.422 251.338C561.691 254.323 563.817 256.825 564.45 259.42C565.156 262.315 562.514 262.5 560.384 262.993C560.071 263.344 560.2 263.867 560.629 264.037C561.057 264.206 563.297 263.543 563.801 263.295C568.469 261.002 563.715 256.415 563.579 252.97C563.5 250.961 565.146 248.759 566.474 247.329C566.769 247.01 569.307 245.162 567.297 245.253L567.298 245.252ZM588.149 255.141C587.165 255.038 583.969 256.519 583.169 257.204C578.669 261.055 586.562 266.93 585.293 270.605C584.75 272.178 582.096 272.163 582.191 273.355C582.266 274.275 584.551 273.127 584.973 272.873C587.517 271.344 586.809 268.765 585.816 266.551C584.419 263.437 580.747 259.675 585.297 257.303C585.899 256.989 588.38 256.295 588.503 256.18C588.869 255.833 588.646 255.194 588.149 255.143L588.149 255.141ZM570.447 266.375C555.696 263.871 542.34 287.201 554.37 295.635C562.908 301.622 574.312 293.668 577.802 285.453C580.908 278.144 579.76 267.955 570.447 266.375ZM563.438 313.587L550.941 310.458C550.666 310.389 550.265 311.357 550.828 311.687L562.978 314.757L563.43 314.649C563.768 314.314 563.933 313.802 563.438 313.587Z" fill="#AE72FF"/>
<g clip-path="url(#clip0_576_5304)">
<path d="M603.626 248.681C601.438 253.275 599.25 257.867 597.063 262.461L592.901 276.065L590.025 287.967L588.353 298.141L587.879 306.255L587.917 310.797L589.474 315.205L590.649 318.89L593.076 316.579L600.659 300.023L605.374 284.129L608.138 266.9C608.323 264.599 608.462 262.222 608.547 259.779C608.763 253.699 608.614 247.973 608.228 242.656C606.694 244.664 605.16 246.673 603.626 248.681Z" fill="#512473"/>
</g>
<path d="M570.448 266.375C579.759 267.955 580.909 278.144 577.803 285.453C574.312 293.668 562.907 301.622 554.371 295.635C542.343 287.2 555.697 263.872 570.448 266.375ZM553.71 293.255L554.716 289.234C554.87 288.621 556.159 286.502 556.602 285.921C560.323 281.032 568.809 282.79 571.906 277.171C572.956 275.267 573.702 272.203 573.923 270.034C574.026 269.024 573.563 268.818 572.729 268.423C567.329 265.856 560.833 268.837 556.936 272.731C551.826 277.839 548.51 287.156 553.709 293.256L553.71 293.255ZM575.026 270.215C574.517 274.317 573.877 278.348 570.196 280.778C564.57 284.492 558.277 282.387 555.74 290.29C555.446 291.204 554.933 293.038 554.825 293.947C554.802 294.139 554.737 294.249 554.873 294.434C555.056 294.682 556.575 295.524 556.932 295.658C568.669 300.015 581.918 284.116 577.26 273.207C577.085 272.796 575.482 269.93 575.027 270.217L575.026 270.215Z" fill="#512473"/>
<path d="M606.384 245.032C606.861 245.017 607.173 245.434 607.03 245.885C606.912 246.256 605.589 247.771 605.243 248.311C598.414 258.951 593.67 274.844 591.01 287.202C589.63 293.616 587.523 306.512 589.359 312.709C589.575 313.437 590.402 314.644 589.915 315.217C589.256 315.991 588.649 314.524 588.445 314.029C585.961 308.01 588.357 294.386 589.683 287.994C592.267 275.539 597.294 257.193 604.731 246.817C605.025 246.407 605.917 245.049 606.383 245.034L606.384 245.032Z" fill="#512473"/>
<path d="M577.436 244.236C578.471 244.212 579.732 247.162 580.059 248.044C580.726 249.837 581.337 252.203 580.467 254.011C579.267 256.503 575.479 255.943 573.564 257.588C572.094 258.85 572.814 261.063 573.555 262.509C573.838 263.064 574.744 263.614 574.1 264.27L573.64 264.393C573.246 264.33 572.403 262.837 572.2 262.414C571.357 260.655 571.038 258.402 572.472 256.847C574.105 255.077 578.345 255.167 579.259 253.509C580.036 252.098 579.399 249.817 578.841 248.384C578.283 246.952 577.292 245.903 576.949 244.517C577.011 244.383 577.286 244.24 577.437 244.237L577.436 244.236Z" fill="#512473"/>
<path d="M588.151 255.141C588.647 255.193 588.871 255.831 588.505 256.178C588.382 256.295 585.901 256.988 585.298 257.302C580.748 259.673 584.419 263.437 585.818 266.549C586.811 268.763 587.519 271.342 584.975 272.871C584.552 273.125 582.268 274.273 582.193 273.354C582.097 272.161 584.751 272.176 585.294 270.603C586.562 266.928 578.67 261.055 583.171 257.202C583.97 256.518 587.167 255.037 588.151 255.14L588.151 255.141Z" fill="#512473"/>
<path d="M567.3 245.253C569.31 245.163 566.772 247.01 566.477 247.328C565.149 248.759 563.504 250.961 563.582 252.969C563.718 256.415 568.472 261 563.804 263.295C563.299 263.542 561.051 264.202 560.632 264.036C560.213 263.871 560.075 263.343 560.387 262.992C562.517 262.499 565.159 262.314 564.453 259.42C563.819 256.825 561.694 254.322 562.425 251.338C562.75 250.011 565.872 245.317 567.302 245.252L567.3 245.253Z" fill="#512473"/>
<path d="M563.439 313.587C563.935 313.803 563.769 314.315 563.432 314.649L562.979 314.758L550.829 311.688C550.266 311.357 550.667 310.39 550.943 310.458L563.439 313.587Z" fill="#512473"/>
<path d="M585.087 236.979C585.18 237.131 585.186 237.474 585.101 237.636L584.483 237.913C582.976 237.508 581.35 237.469 579.874 236.925C578.807 236.531 579.19 235.593 579.875 235.635C580.789 235.962 584.671 236.302 585.086 236.98L585.087 236.979Z" fill="#512473"/>
<path d="M553.71 293.255C548.509 287.155 551.826 277.839 556.936 272.73C560.834 268.834 567.329 265.855 572.73 268.421C573.563 268.818 574.026 269.024 573.923 270.032C573.702 272.202 572.956 275.266 571.906 277.17C568.809 282.789 560.323 281.031 556.602 285.92C556.16 286.501 554.87 288.619 554.717 289.233L553.71 293.254L553.71 293.255Z" fill="#AE72FF"/>
<path d="M575.026 270.215C575.481 269.928 577.084 272.794 577.259 273.205C581.917 284.115 568.668 300.015 556.931 295.656C556.574 295.524 555.054 294.682 554.873 294.432C554.736 294.247 554.801 294.138 554.824 293.945C554.934 293.036 555.446 291.203 555.739 290.288C558.276 282.387 564.57 284.491 570.195 280.776C573.874 278.346 574.517 274.316 575.025 270.214L575.026 270.215Z" fill="#AE72FF"/>
<defs>
<clipPath id="clip0_576_5304">
<rect width="14.0199" height="78.2304" fill="white" transform="translate(601.374 241) rotate(13.5838)"/>
</clipPath>
</defs>
</svg>
