<svg width="679" height="534" viewBox="0 0 679 534" fill="none" xmlns="http://www.w3.org/2000/svg">
<rect x="90.4346" y="0.5" width="498" height="533" rx="28.175" fill="#1F0433" stroke="#AE72FF"/>
<circle cx="160.934" cy="69" r="37.5" stroke="#AE72FF"/>
<rect x="214.935" y="55" width="110" height="28" rx="5" fill="#2E1044"/>
<path d="M524.899 53.0151L519.934 48.1304L522.1 46L527.065 50.8847H550.403C551.249 50.8847 551.934 51.5592 551.934 52.3911C551.934 52.5377 551.912 52.6836 551.87 52.824L548.195 64.8752C548 65.5124 547.404 65.9488 546.728 65.9488H527.962V68.9616H544.805V71.9744H526.43C525.585 71.9744 524.899 71.2998 524.899 70.468V53.0151ZM527.196 78C525.928 78 524.899 76.9883 524.899 75.7404C524.899 74.4923 525.928 73.4808 527.196 73.4808C528.465 73.4808 529.493 74.4923 529.493 75.7404C529.493 76.9883 528.465 78 527.196 78ZM545.571 78C544.302 78 543.274 76.9883 543.274 75.7404C543.274 74.4923 544.302 73.4808 545.571 73.4808C546.839 73.4808 547.867 74.4923 547.867 75.7404C547.867 76.9883 546.839 78 545.571 78Z" fill="#AE72FF"/>
<path d="M484.188 69.0257L490.935 75.7722L488.707 78L481.96 71.2535C479.535 73.1943 476.458 74.3552 473.112 74.3552C465.286 74.3552 458.935 68.0037 458.935 60.1776C458.935 52.3516 465.286 46 473.112 46C480.938 46 487.29 52.3516 487.29 60.1776C487.29 63.5235 486.129 66.5999 484.188 69.0257ZM481.028 67.8569C482.954 65.8717 484.139 63.1637 484.139 60.1776C484.139 54.0852 479.205 49.1506 473.112 49.1506C467.02 49.1506 462.085 54.0852 462.085 60.1776C462.085 66.2701 467.02 71.2047 473.112 71.2047C476.098 71.2047 478.806 70.0193 480.791 68.093L481.028 67.8569Z" fill="#AE72FF"/>
<g opacity="0.21">
<path fill-rule="evenodd" clip-rule="evenodd" d="M151.585 68.896C149.919 67.7049 147.91 67.0514 145.837 67.0514C144.814 67.0514 143.992 67.8731 143.992 68.896C143.992 69.9188 144.814 70.7405 145.837 70.7405C147.91 70.7405 149.919 70.087 151.585 68.896ZM160.331 77.6413C159.139 79.308 158.486 81.3169 158.486 83.3897C158.486 84.4125 159.308 85.2342 160.331 85.2342C161.353 85.2342 162.175 84.4125 162.175 83.3897C162.175 81.3169 161.522 79.308 160.331 77.6413ZM169.076 68.896C170.743 70.087 172.751 70.7405 174.824 70.7405C175.847 70.7405 176.669 69.9188 176.669 68.896C176.669 67.8731 175.847 67.0514 174.824 67.0514C172.751 67.0514 170.743 67.7049 169.076 68.896ZM160.331 65.3731L156.808 68.896L160.331 72.4188L163.853 68.896L160.331 65.3731ZM162.788 62.7976C164.683 60.4271 165.733 57.4669 165.733 54.4023C165.733 51.3376 163.318 49 160.331 49C157.343 49 154.928 51.415 154.928 54.4023C154.928 57.3896 155.978 60.4271 157.873 62.7976L154.234 66.4365C151.864 64.5417 148.903 63.4918 145.839 63.4918C142.774 63.4918 140.435 65.9087 140.435 68.896C140.435 71.8833 142.85 74.2982 145.837 74.2982C148.824 74.2982 151.862 73.2483 154.232 71.3535L157.871 74.9924C155.976 77.3629 154.926 80.3231 154.926 83.3877C154.926 86.4524 157.341 88.79 160.329 88.79C163.316 88.79 165.731 86.375 165.731 83.3877C165.731 80.4004 164.681 77.3629 162.786 74.9924L166.425 71.3535C168.795 73.2483 171.756 74.2982 174.82 74.2982C177.885 74.2982 180.223 71.8833 180.223 68.896C180.223 65.9087 177.808 63.4937 174.82 63.4937C171.833 63.4937 168.795 64.5436 166.425 66.4385L162.786 62.7996L162.788 62.7976ZM160.331 52.5577C159.308 52.5577 158.486 53.3794 158.486 54.4023C158.486 56.475 159.139 58.4839 160.331 60.1506C161.522 58.4839 162.175 56.475 162.175 54.4023C162.175 53.3794 161.353 52.5577 160.331 52.5577Z" fill="#AE72FF"/>
</g>
<rect x="233.6" y="173.5" width="211.75" height="284.825" rx="28.175" fill="#1F0433" stroke="#AE72FF"/>
<rect x="466.7" y="173.5" width="211.75" height="284.825" rx="28.175" fill="#1F0433" stroke="#AE72FF"/>
<rect x="0.5" y="173.5" width="211.75" height="284.825" rx="28.175" fill="#1F0433" stroke="#AE72FF"/>
<rect x="25" y="381" width="162" height="28" rx="5" fill="#2E1044"/>
<rect x="258" y="381" width="162" height="28" rx="5" fill="#2E1044"/>
<rect x="492" y="381" width="162" height="28" rx="5" fill="#2E1044"/>
<rect x="25" y="199" width="162" height="158" rx="17" fill="#2E1044"/>
<rect x="258" y="199" width="162" height="158" rx="17" fill="#2E1044"/>
<rect x="492" y="199" width="162" height="158" rx="17" fill="#2E1044"/>
<path fill-rule="evenodd" clip-rule="evenodd" d="M383.444 247.951C384.263 249.696 384.631 251.681 384.851 253.703C385.154 256.48 385.492 259.255 385.749 262.036C385.926 263.959 385.992 265.895 386.107 267.824C386.133 268.265 386.163 268.702 386.182 269.142C386.212 269.833 386.021 270.447 385.657 271.045C385.492 271.318 385.44 271.696 385.443 272.025C385.505 276.426 385.597 280.831 385.66 285.232C385.68 286.61 385.647 287.99 385.617 289.368C385.61 289.601 385.535 289.867 385.407 290.061C381.613 295.82 376.952 300.79 371.555 305.06C368.258 307.667 364.619 309.754 360.944 311.782C356.763 314.089 352.395 315.976 347.915 317.616C347.865 317.636 347.822 317.679 347.78 317.709C347.97 318.691 347.915 318.797 347.024 319.063C344.917 319.694 342.82 320.371 340.693 320.936C339.46 321.265 338.182 321.577 336.919 321.6C335.473 321.63 334.122 322.064 332.718 322.245C329.796 322.616 326.874 323.017 323.949 323.336C320.849 323.675 317.743 324.023 314.633 324.204C311.908 324.365 309.163 324.536 306.438 324.069C305.765 323.954 305.229 323.701 304.778 323.162C303.174 321.236 301.36 319.457 299.956 317.396C298.119 314.701 296.314 311.953 295.006 308.929C293.767 306.069 292.528 303.206 291.226 300.376C290.118 297.97 289.181 295.518 288.724 292.895C288.606 292.221 288.353 291.567 288.172 290.903C287.255 287.546 286.69 284.141 286.654 280.65C286.647 280.055 286.437 279.444 286.226 278.875C285.309 276.384 285.326 273.764 285.115 271.177C285.033 270.151 284.902 269.07 285.119 268.09C285.543 266.184 285.26 264.284 285.345 262.384C285.572 257.546 286.259 252.806 287.837 248.184C288.984 244.825 290.332 241.6 292.337 238.668C294.368 235.7 296.913 233.225 299.802 231.098C302.28 229.274 305.009 227.88 307.786 226.581C308.618 226.194 309.505 225.934 310.35 225.569C311.323 225.148 312.243 224.566 313.249 224.261C314.538 223.873 315.882 223.643 317.22 223.436C318.518 223.235 319.836 223.143 321.148 223.028C321.585 222.989 322.032 222.989 322.463 223.041C322.683 223.068 322.972 223.202 323.077 223.38C323.298 223.748 323.597 223.84 323.981 223.866C327.357 224.09 330.602 224.99 333.524 226.588C337.564 228.797 341.37 231.39 343.842 235.489C344.887 237.222 344.943 237.208 346.928 236.745C351.136 235.756 355.383 235.437 359.699 235.779C362.358 235.989 365.004 236.183 367.565 236.972C368.275 237.192 368.978 237.452 369.658 237.757C371.663 238.658 373.629 239.647 375.657 240.486C376.795 240.956 377.945 241.376 378.918 242.129C380.184 243.112 381.439 244.118 382.613 245.209C383.063 245.63 383.316 246.297 383.563 246.892C383.661 247.135 383.5 247.487 383.438 247.944L383.444 247.951ZM346.587 290.12C348.371 289.621 350.084 289.295 351.675 288.667C354.735 287.461 357.772 286.182 360.734 284.752C363.16 283.579 365.477 282.179 367.804 280.808C370.053 279.483 371.821 277.567 373.724 275.822C377.567 272.298 380.805 268.337 382.514 263.321C383.231 261.217 383.803 259.084 383.865 256.826C383.941 254.104 383.651 251.445 382.902 248.828C382.662 247.99 382.659 247.967 381.85 248.266C381.798 248.286 381.738 248.296 381.682 248.312C377.745 249.44 373.79 250.518 369.872 251.708C363.078 253.765 356.218 255.619 349.542 258.052C349.295 258.14 349.045 258.213 348.694 258.325C348.983 258.581 349.187 258.775 349.404 258.946C351.369 260.517 351.681 262.302 350.377 264.452C350.018 265.04 349.736 265.674 349.367 266.256C348.615 267.453 347.855 268.646 347.047 269.803C346.596 270.444 345.936 270.819 345.153 271.016C344.062 271.292 342.994 271.213 341.909 270.996C341.413 270.898 340.907 270.848 340.243 270.753C342.389 277.297 344.483 283.684 346.593 290.124L346.587 290.12ZM334.092 293.424C332.455 286.758 329.987 280.453 327.863 273.935C327.643 274.191 327.499 274.365 327.347 274.533C326.111 275.92 324.846 277.278 323.291 278.33C322.584 278.806 321.825 278.905 321.046 278.652C320.211 278.379 319.406 278.027 318.591 277.698C318.183 277.534 317.782 277.35 317.381 277.169C315.918 276.509 314.452 275.858 312.999 275.174C312.697 275.029 312.45 274.76 312.184 274.546C311.767 274.208 311.625 273.757 311.767 273.258C312.161 271.9 312.582 270.552 312.996 269.201C313.036 269.067 313.091 268.938 313.154 268.764C311.754 269.159 310.419 269.553 309.075 269.911C306.728 270.539 304.345 271.052 302.03 271.782C299.352 272.627 296.735 273.675 294.079 274.595C292.636 275.095 291.167 275.519 289.671 275.992C289.743 276.157 289.809 276.334 289.901 276.495C291.354 279.059 292.745 281.663 294.293 284.164C295.43 285.998 296.797 287.688 298.033 289.463C299.322 291.313 300.86 292.931 302.504 294.459C302.639 294.584 302.81 294.748 302.971 294.755C303.822 294.785 304.673 294.762 305.528 294.768C307.75 294.785 309.975 294.702 312.187 294.854C315.662 295.094 319.117 294.771 322.571 294.597C325.549 294.449 328.514 294.045 331.483 293.743C332.317 293.657 333.149 293.539 334.089 293.42L334.092 293.424ZM312.483 258.811C311.915 258.535 311.323 258.338 310.836 257.989C309.045 256.704 307.507 255.241 307.757 252.75C307.858 251.731 308.427 250.909 309.058 250.179C310.544 248.454 312.118 246.807 313.617 245.091C314.278 244.335 315.07 244.072 316.023 244.167C316.5 244.213 316.97 244.309 317.44 244.378C317.578 244.397 317.72 244.414 317.92 244.44C317.835 244.092 317.779 243.809 317.697 243.536C317.056 241.413 316.392 239.296 315.777 237.162C315.412 235.894 315.225 234.569 314.784 233.333C313.976 231.062 313.032 228.84 312.164 226.591C312.017 226.21 311.849 226.082 311.445 226.253C309.946 226.884 308.394 227.4 306.948 228.13C305.002 229.112 303.066 230.141 301.255 231.344C296.492 234.513 292.843 238.701 290.509 243.934C289.484 246.231 288.692 248.647 287.962 251.063C286.496 255.912 286.203 260.918 286.17 265.947C286.17 266.016 286.2 266.089 286.226 266.21C294.865 263.364 303.556 260.81 312.48 258.811H312.483ZM291.627 289.492C291.538 292.339 291.449 295.018 291.38 297.697C291.374 297.953 291.449 298.229 291.555 298.469C293.139 302.121 294.605 305.829 296.367 309.392C297.701 312.094 299.296 314.691 300.985 317.189C302.277 319.099 303.894 320.785 305.383 322.56C305.502 322.702 305.728 322.787 305.919 322.833C308.914 323.543 311.944 323.221 314.958 323.08C317.44 322.965 319.912 322.633 322.384 322.366C325.806 321.995 329.224 321.607 332.643 321.193C333.56 321.081 334.464 320.851 335.407 320.67C335.213 319.516 334.954 318.484 334.881 317.442C334.641 314.024 334.477 310.602 334.273 307.18C334.211 306.141 334.106 305.103 334.027 304.153C324.586 305.993 315.208 306.657 305.676 305.491C305.646 305.776 305.6 306.056 305.594 306.335C305.554 308.403 305.495 310.47 305.495 312.541C305.495 315.24 305.538 317.939 305.551 320.637C305.551 320.792 305.423 320.946 305.354 321.101C305.272 320.95 305.127 320.805 305.12 320.65C305.002 318.205 304.87 315.759 304.808 313.31C304.755 311.358 304.788 309.402 304.785 307.45C304.785 306.749 304.785 306.049 304.785 305.339C304.345 305.297 303.98 305.283 303.625 305.214C303.395 305.172 303.122 305.106 302.967 304.951C302.053 304.024 301.12 303.111 300.282 302.118C297.146 298.407 294.424 294.407 292.031 290.179C291.923 289.989 291.811 289.798 291.634 289.489L291.627 289.492ZM347.527 316.857C347.849 316.745 348.066 316.686 348.273 316.594C350.196 315.736 352.115 314.875 354.035 314.011C355.396 313.396 356.773 312.817 358.098 312.137C359.271 311.535 360.399 310.839 361.526 310.152C364.156 308.547 366.887 307.078 369.366 305.264C371.782 303.495 374.043 301.48 376.173 299.37C378.438 297.125 380.489 294.663 382.577 292.247C383.273 291.442 383.776 290.469 384.417 289.614C384.703 289.236 384.831 288.865 384.808 288.404C384.73 286.915 384.628 285.423 384.601 283.931C384.539 280.446 384.516 276.962 384.476 273.478C384.476 273.32 384.447 273.162 384.421 272.903C384.263 273.116 384.174 273.235 384.085 273.353C383.047 274.747 382.014 276.15 380.963 277.534C380.315 278.389 379.658 279.237 378.971 280.059C377.807 281.452 376.703 282.908 375.421 284.187C371.71 287.892 367.627 291.152 363.114 293.838C361.092 295.041 359.041 296.221 356.908 297.201C354.097 298.492 351.297 299.85 348.256 300.57C347.98 300.636 347.826 300.747 347.839 301.073C347.865 301.625 347.563 301.967 347.05 302.131C346.78 302.217 346.511 302.305 346.274 302.384C346.692 307.19 347.106 311.969 347.53 316.857H347.527ZM373.856 240.716C373.57 240.568 373.277 240.397 372.968 240.265C371.861 239.799 370.753 239.319 369.629 238.891C368.521 238.471 367.41 238.04 366.269 237.734C363.87 237.093 361.398 236.998 358.933 236.817C354.686 236.505 350.524 236.949 346.412 238.004C344.877 238.398 344.476 238.267 343.543 236.969C342.961 236.16 342.432 235.315 341.833 234.52C340.203 232.34 338.083 230.713 335.808 229.26C334.858 228.652 333.968 227.886 332.935 227.482C330.805 226.644 328.61 225.957 326.417 225.293C325.612 225.05 324.731 225.063 323.853 224.951C326.134 231.591 328.386 238.139 330.625 244.657C331.884 243.217 333.047 241.856 334.247 240.525C335.177 239.496 336.229 239.306 337.518 239.841C338.329 240.177 339.158 240.479 339.97 240.811C340.252 240.926 340.525 241.071 340.782 241.235C341.488 241.692 342.205 242.132 342.875 242.642C343.566 243.168 344.44 243.451 344.907 244.282C345.502 245.347 345.462 246.445 345.196 247.569C345.074 248.079 344.907 248.578 344.742 249.147C344.963 249.068 345.104 249.016 345.249 248.97C347.343 248.299 349.413 247.543 351.537 246.984C354.663 246.162 357.861 245.6 360.967 244.716C365.28 243.487 369.537 242.063 373.859 240.712L373.856 240.716ZM328.337 273.231C328.751 274.214 329.191 275.108 329.514 276.042C331.012 280.361 332.501 284.687 333.938 289.026C334.441 290.548 334.825 292.115 335.174 293.683C335.394 294.67 335.45 295.689 335.568 296.694C335.762 298.367 335.956 300.041 336.134 301.714C336.242 302.746 336.282 302.864 337.301 302.825C338.615 302.772 339.94 302.683 341.235 302.46C342.774 302.197 344.282 301.776 345.801 301.418C346.876 301.161 346.859 301.158 346.741 300.073C346.445 297.371 346.202 294.663 345.857 291.968C345.715 290.857 345.406 289.762 345.084 288.687C344.815 287.793 344.364 286.955 344.075 286.064C343.467 284.19 342.938 282.29 342.333 280.417C341.327 277.284 340.282 274.165 339.266 271.036C339.171 270.74 339.039 270.572 338.717 270.47C336.854 269.882 335.151 269.017 333.734 267.62C333.123 267.016 332.373 266.552 331.604 265.964C331.045 268.758 329.648 271.029 328.337 273.225V273.231ZM384.614 260.412C384.555 260.412 384.493 260.418 384.434 260.422C384.348 260.773 384.269 261.122 384.177 261.47C383.642 263.531 383.02 265.579 381.936 267.417C379.937 270.796 377.567 273.882 374.605 276.495C372.669 278.205 370.934 280.151 368.718 281.525C364.465 284.158 360.093 286.57 355.432 288.421C352.641 289.529 349.821 290.541 346.78 291.103C347.089 293.996 347.402 296.878 347.721 299.866C349.542 299.143 351.261 298.509 352.94 297.776C354.867 296.934 356.786 296.067 358.653 295.107C362.91 292.921 366.891 290.301 370.516 287.178C372.212 285.719 373.909 284.233 375.414 282.59C377.219 280.617 378.882 278.504 380.499 276.37C382.044 274.329 383.464 272.189 384.914 270.076C385.075 269.842 385.147 269.504 385.144 269.215C385.124 267.512 385.111 265.806 385.016 264.103C384.946 262.867 384.756 261.641 384.618 260.409L384.614 260.412ZM382.724 247.093C382.392 246.626 382.215 246.241 381.922 245.988C380.802 245.005 379.667 244.036 378.491 243.125C377.906 242.672 377.238 242.313 376.574 241.981C375.371 241.383 374.149 241.83 372.988 242.113C371.226 242.54 369.507 243.145 367.772 243.677C365.395 244.41 363.048 245.258 360.639 245.86C355.35 247.185 349.956 248.102 344.792 249.906C344.568 249.985 344.305 250.169 344.217 250.373C343.398 252.257 342.05 253.693 340.463 254.939C340.371 255.011 340.298 255.107 340.157 255.258C342.915 255.692 345.383 256.743 347.872 257.726C348.026 257.785 348.247 257.776 348.404 257.713C351.948 256.319 355.491 254.932 359.16 253.871C363.074 252.737 366.953 251.478 370.865 250.324C374.241 249.328 377.636 248.394 381.025 247.448C381.531 247.306 382.057 247.231 382.724 247.093ZM303.74 295.892C303.815 298.565 303.891 301.181 303.957 303.801C303.967 304.149 304.177 304.192 304.443 304.228C308.868 304.807 313.292 305.333 317.769 305.037C319.412 304.928 321.053 304.8 322.693 304.695C325.845 304.495 328.997 304.297 332.081 303.551C333.136 303.295 334.181 303.009 335.292 302.723C334.94 299.88 334.599 297.102 334.25 294.285C329.129 295.13 324.083 295.573 319.018 295.879C313.946 296.188 308.887 295.685 303.74 295.892ZM320.77 260.954C320.744 260.921 320.734 260.895 320.721 260.895C320.625 260.885 320.53 260.875 320.435 260.872C318.702 260.836 316.983 260.708 315.402 259.909C314.364 259.383 313.351 259.238 312.191 259.616C310.702 260.103 309.147 260.379 307.638 260.796C304.042 261.789 300.446 262.778 296.87 263.837C293.425 264.856 290.003 265.964 286.571 267.019C286.226 267.124 286.164 267.318 286.134 267.643C286.039 268.679 286.19 269.632 286.686 270.572C287.4 271.92 288.005 273.323 288.655 274.701C288.82 275.049 289.083 275.151 289.457 275.046C290.25 274.819 291.062 274.658 291.834 274.388C294.431 273.478 297.018 272.528 299.608 271.604C300.509 271.282 301.409 270.953 302.326 270.694C306.008 269.655 309.699 268.656 313.374 267.607C313.765 267.495 314.176 267.223 314.429 266.907C315.682 265.359 316.921 263.804 318.548 262.614C319.284 262.075 320.011 261.52 320.763 260.954H320.77ZM320.974 224.001C319.896 224.149 318.814 224.287 317.736 224.445C316.51 224.626 315.274 224.77 314.064 225.033C312.766 225.316 312.769 225.385 313.236 226.614C313.249 226.65 313.262 226.687 313.275 226.723C314.133 228.955 315.133 231.147 315.82 233.432C316.908 237.038 317.775 240.712 318.768 244.348C318.84 244.614 319.09 244.897 319.337 245.035C321.352 246.162 323.502 247.083 325.073 248.881C325.664 249.558 326.312 250.182 326.946 250.823C327.068 250.948 327.236 251.027 327.384 251.129C327.466 250.988 327.561 250.85 327.624 250.702C327.794 250.278 327.919 249.831 328.123 249.423C328.659 248.365 329.247 247.333 329.763 246.264C329.885 246.015 329.905 245.636 329.816 245.374C328.554 241.764 327.249 238.165 325.98 234.556C324.889 231.45 323.863 228.324 322.746 225.227C322.229 223.797 322.545 223.998 320.974 224.004V224.001ZM345.354 302.512C344.969 302.568 344.68 302.568 344.417 302.657C342.484 303.288 340.509 303.712 338.477 303.791C337.682 303.821 336.863 303.775 336.091 303.607C335.608 303.502 335.256 303.554 334.96 303.735C335.092 305.602 335.24 307.394 335.335 309.185C335.529 312.893 335.7 316.597 336.446 320.253C336.535 320.687 336.653 320.782 337.074 320.67C338.842 320.194 340.624 319.773 342.389 319.28C343.819 318.879 345.229 318.405 346.619 317.975C346.412 315.385 346.212 312.831 346.001 310.28C345.791 307.729 345.574 305.178 345.351 302.516L345.354 302.512ZM335.703 259.84C335.447 256.329 334.97 255.678 333.376 253.328C332.613 252.204 331.331 251.55 330.01 251.622C326.759 251.803 324.366 253.608 323.176 256.891C322.604 258.466 323.091 259.975 323.778 261.434C324.889 263.788 327.637 264.974 329.875 264.609C331.239 264.386 332.508 263.909 333.622 263.097C334.868 262.19 335.614 260.974 335.7 259.837L335.703 259.84ZM322.348 260.839C321.243 261.671 320.254 262.424 319.258 263.163C317.312 264.609 315.905 266.542 314.538 268.491C313.634 269.78 313.302 271.318 312.967 272.84C312.773 273.718 312.779 273.895 313.607 274.28C315.79 275.296 317.996 276.265 320.195 277.248C320.221 277.261 320.264 277.238 320.277 277.235C319.685 274.678 320.731 272.482 321.947 270.404C323.189 268.284 324.885 266.545 327.272 265.553C324.853 264.843 323.275 263.298 322.348 260.839ZM346.774 268.449C346.905 268.288 347.05 268.156 347.142 267.998C348.043 266.467 348.973 264.951 349.808 263.383C350.173 262.693 350.423 261.819 349.939 261.125C349.141 259.971 348.27 258.841 346.833 258.361C345.689 257.979 344.575 257.522 343.431 257.144C341.308 256.441 339.154 255.974 336.896 256.454C336.439 256.55 336.278 256.694 336.423 257.177C336.564 257.651 336.614 258.15 336.689 258.643C336.873 259.883 336.768 261.059 335.877 262.032C335.562 262.377 335.197 262.673 334.829 263.015C334.934 263.081 335.01 263.14 335.095 263.176C336.219 263.666 337.409 263.84 338.622 263.837C340.328 263.83 341.998 264.103 343.543 264.797C345.065 265.48 346.587 266.266 346.672 268.288C346.672 268.334 346.728 268.38 346.777 268.452L346.774 268.449ZM321.819 258.042C322.275 255.047 323.995 252.993 326.437 251.478C325.306 250.054 323.173 248.118 322.19 247.605C321.375 247.178 320.563 246.748 319.751 246.323C318.535 245.686 317.276 245.216 315.876 245.183C315.258 245.17 314.778 245.337 314.357 245.814C313.226 247.086 312.059 248.325 310.912 249.588C310.57 249.962 310.255 250.36 309.824 250.866C311.543 250.731 312.94 251.29 314.225 252.112C316.046 253.272 317.871 254.433 319.603 255.718C320.431 256.333 321.053 257.23 321.819 258.048V258.042ZM342.642 243.625C342.041 243.247 341.452 242.981 340.992 242.57C339.825 241.518 338.293 241.248 336.942 240.607C336.377 240.338 335.66 240.288 335.18 240.844C333.908 242.317 332.607 243.776 331.456 245.341C330.556 246.563 329.849 247.934 329.073 249.249C328.79 249.729 328.567 250.242 328.232 250.906C329.915 250.291 331.298 250.679 332.649 251.376C334.027 252.086 334.71 253.404 335.516 254.725C335.611 254.443 335.67 254.285 335.72 254.12C336.413 251.823 337.297 249.607 338.609 247.582C339.638 245.995 340.775 244.519 342.645 243.628L342.642 243.625ZM302.895 303.755C302.944 303.725 302.997 303.699 303.046 303.669C303.056 303.489 303.079 303.305 303.072 303.124C303.046 302.282 303 301.441 302.987 300.599C302.964 299.183 302.984 297.766 302.941 296.349C302.934 296.086 302.783 295.758 302.589 295.58C301.883 294.939 301.113 294.367 300.397 293.736C298.671 292.214 297.452 290.275 296.094 288.447C294.092 285.758 292.13 283.05 290.713 279.986C290.335 279.168 289.845 278.399 289.323 277.458C289.306 277.735 289.293 277.837 289.293 277.942C289.336 279.832 289.379 281.725 289.438 283.615C289.444 283.812 289.55 284.019 289.655 284.194C290.312 285.292 291.045 286.353 291.64 287.484C293.849 291.678 296.383 295.662 299.256 299.429C300.397 300.925 301.675 302.315 302.892 303.752L302.895 303.755ZM330.861 265.48C330.003 265.556 329.211 265.622 328.416 265.697C328.324 265.707 328.228 265.74 328.149 265.789C326.22 266.897 324.494 268.245 323.252 270.119C322.16 271.765 321.421 273.557 321.194 275.539C321.112 276.246 321.233 276.988 321.848 277.32C322.466 277.656 323.094 277.235 323.613 276.801C325.694 275.052 327.492 273.074 328.843 270.69C329.777 269.044 330.447 267.318 330.861 265.484V265.48ZM322.134 259.942C322.003 259.669 321.93 259.449 321.805 259.265C320.865 257.877 319.781 256.589 318.384 255.669C316.533 254.452 314.597 253.364 312.674 252.26C311.803 251.76 310.82 251.678 309.831 251.767C309.315 251.813 308.845 252.056 308.792 252.592C308.736 253.18 308.68 253.877 308.93 254.37C309.604 255.698 310.554 256.826 312.007 257.407C312.967 257.792 313.903 258.229 314.88 258.568C316.066 258.979 317.266 259.383 318.489 259.653C319.544 259.886 320.645 259.932 321.723 260.05C321.825 260.06 321.937 259.998 322.137 259.945L322.134 259.942ZM331.946 265.053C332.285 265.316 332.561 265.54 332.843 265.753C333.422 266.19 334.043 266.578 334.582 267.058C336.075 268.393 337.794 269.254 339.756 269.616C340.732 269.793 341.715 269.957 342.701 270.049C343.359 270.112 344.049 270.128 344.69 270C346.038 269.727 346.501 268.189 345.492 267.223C344.831 266.588 344.023 266.049 343.191 265.661C341.587 264.918 339.845 264.77 338.089 264.747C336.771 264.731 335.512 264.438 334.323 263.857C334.198 263.794 333.987 263.797 333.869 263.863C333.261 264.215 332.666 264.6 331.943 265.05L331.946 265.053ZM336.084 255.511C336.831 255.419 337.531 255.34 338.224 255.238C338.425 255.208 338.635 255.136 338.806 255.031C341.82 253.167 343.599 250.442 344.351 247.017C344.503 246.323 344.539 245.607 344.161 244.953C344.088 244.828 343.927 244.69 343.793 244.667C343.129 244.565 342.488 244.641 341.975 245.134C341.383 245.702 340.742 246.231 340.236 246.869C338.221 249.43 336.982 252.375 336.078 255.511H336.084ZM286.115 271.736C286.049 274.743 287.535 281.078 288.54 282.008C288.554 281.949 288.58 281.896 288.58 281.843C288.57 279.914 288.563 277.984 288.544 276.055C288.544 275.943 288.452 275.822 288.376 275.723C288.195 275.48 287.965 275.266 287.821 275C287.235 273.915 286.677 272.814 286.115 271.732V271.736ZM290.746 296.767C290.766 296.517 290.779 296.412 290.779 296.306C290.766 293.706 290.7 291.106 290.759 288.51C290.782 287.454 290.049 286.932 289.609 286.195C289.063 289.63 289.632 294.939 290.746 296.767ZM287.715 282.767C287.64 282.787 287.567 282.81 287.492 282.83C287.801 284.877 288.11 286.929 288.419 288.976C288.485 288.97 288.554 288.963 288.619 288.957C288.619 287.642 288.606 286.33 288.623 285.015C288.636 284.118 288.139 283.461 287.712 282.767H287.715Z" fill="#512473"/>
<path fill-rule="evenodd" clip-rule="evenodd" d="M346.587 290.12C344.477 283.681 342.383 277.297 340.236 270.749C340.904 270.845 341.407 270.894 341.903 270.993C342.984 271.21 344.053 271.285 345.147 271.012C345.93 270.815 346.59 270.44 347.041 269.8C347.852 268.642 348.608 267.449 349.361 266.253C349.729 265.671 350.012 265.037 350.37 264.448C351.675 262.298 351.366 260.514 349.397 258.942C349.18 258.768 348.98 258.574 348.687 258.321C349.039 258.209 349.292 258.137 349.535 258.048C356.211 255.613 363.072 253.762 369.866 251.704C373.787 250.518 377.738 249.436 381.676 248.309C381.732 248.292 381.788 248.282 381.844 248.263C382.653 247.964 382.656 247.987 382.896 248.825C383.645 251.441 383.934 254.101 383.859 256.822C383.796 259.08 383.224 261.217 382.508 263.317C380.799 268.333 377.561 272.294 373.718 275.818C371.815 277.564 370.043 279.48 367.798 280.805C365.474 282.175 363.154 283.576 360.728 284.749C357.769 286.179 354.729 287.458 351.669 288.664C350.074 289.292 348.365 289.617 346.58 290.117L346.587 290.12Z" fill="#AE72FF"/>
<path fill-rule="evenodd" clip-rule="evenodd" d="M334.093 293.424C333.149 293.542 332.321 293.66 331.486 293.746C328.518 294.048 325.553 294.453 322.575 294.601C319.12 294.771 315.666 295.094 312.191 294.857C309.979 294.706 307.75 294.788 305.532 294.771C304.68 294.765 303.826 294.788 302.974 294.758C302.816 294.752 302.642 294.587 302.507 294.463C300.864 292.934 299.322 291.317 298.037 289.466C296.801 287.691 295.434 286.002 294.296 284.167C292.745 281.666 291.358 279.059 289.905 276.499C289.813 276.338 289.75 276.157 289.675 275.996C291.17 275.526 292.64 275.102 294.083 274.599C296.739 273.675 299.355 272.63 302.034 271.785C304.348 271.055 306.731 270.543 309.078 269.915C310.423 269.556 311.757 269.162 313.158 268.768C313.095 268.939 313.039 269.07 313 269.205C312.589 270.556 312.165 271.903 311.77 273.261C311.626 273.761 311.77 274.211 312.188 274.55C312.454 274.766 312.701 275.036 313.003 275.177C314.453 275.861 315.922 276.512 317.385 277.173C317.786 277.353 318.187 277.537 318.594 277.702C319.41 278.031 320.215 278.382 321.05 278.655C321.829 278.911 322.591 278.813 323.295 278.333C324.85 277.281 326.115 275.927 327.351 274.536C327.502 274.369 327.644 274.195 327.867 273.938C329.991 280.453 332.459 286.758 334.096 293.427L334.093 293.424Z" fill="#AE72FF"/>
<path fill-rule="evenodd" clip-rule="evenodd" d="M312.484 258.811C303.56 260.81 294.869 263.364 286.23 266.211C286.204 266.089 286.174 266.017 286.174 265.948C286.207 260.918 286.5 255.909 287.966 251.064C288.695 248.651 289.488 246.235 290.513 243.934C292.844 238.701 296.496 234.51 301.259 231.345C303.07 230.142 305.006 229.113 306.952 228.13C308.398 227.4 309.95 226.884 311.449 226.253C311.853 226.082 312.02 226.21 312.168 226.592C313.036 228.84 313.98 231.062 314.788 233.333C315.229 234.573 315.416 235.897 315.781 237.163C316.396 239.296 317.06 241.413 317.7 243.536C317.783 243.809 317.839 244.089 317.924 244.44C317.723 244.414 317.585 244.401 317.444 244.378C316.971 244.309 316.501 244.214 316.027 244.168C315.077 244.072 314.282 244.338 313.621 245.091C312.122 246.804 310.548 248.454 309.062 250.18C308.431 250.913 307.862 251.731 307.76 252.75C307.511 255.242 309.046 256.708 310.84 257.99C311.327 258.338 311.919 258.535 312.487 258.811H312.484Z" fill="#AE72FF"/>
<path fill-rule="evenodd" clip-rule="evenodd" d="M291.628 289.492C291.805 289.801 291.917 289.992 292.025 290.182C294.418 294.41 297.14 298.41 300.276 302.121C301.114 303.114 302.047 304.028 302.961 304.955C303.116 305.109 303.389 305.175 303.619 305.217C303.974 305.283 304.339 305.296 304.779 305.342C304.779 306.052 304.779 306.753 304.779 307.453C304.782 309.405 304.749 311.361 304.802 313.313C304.868 315.762 304.996 318.208 305.114 320.653C305.121 320.808 305.266 320.953 305.348 321.104C305.417 320.949 305.545 320.795 305.545 320.64C305.532 317.942 305.486 315.243 305.489 312.544C305.489 310.477 305.548 308.409 305.588 306.338C305.594 306.059 305.64 305.78 305.67 305.494C315.199 306.66 324.58 305.997 334.021 304.156C334.1 305.106 334.205 306.141 334.267 307.183C334.474 310.602 334.639 314.027 334.875 317.445C334.948 318.487 335.207 319.519 335.401 320.673C334.458 320.854 333.554 321.084 332.637 321.196C329.222 321.61 325.8 321.998 322.378 322.369C319.906 322.639 317.434 322.968 314.952 323.083C311.942 323.224 308.908 323.546 305.913 322.836C305.722 322.79 305.496 322.708 305.377 322.563C303.888 320.788 302.271 319.102 300.979 317.192C299.29 314.694 297.695 312.097 296.361 309.395C294.602 305.832 293.133 302.124 291.549 298.472C291.443 298.232 291.368 297.956 291.374 297.7C291.443 295.021 291.532 292.342 291.621 289.495L291.628 289.492Z" fill="#512473"/>
<path fill-rule="evenodd" clip-rule="evenodd" d="M347.527 316.856C347.103 311.968 346.689 307.189 346.271 302.383C346.511 302.304 346.778 302.215 347.047 302.13C347.56 301.966 347.862 301.624 347.836 301.071C347.82 300.749 347.977 300.634 348.254 300.569C351.294 299.849 354.095 298.491 356.905 297.199C359.038 296.22 361.09 295.04 363.111 293.837C367.621 291.148 371.703 287.89 375.418 284.186C376.7 282.907 377.804 281.451 378.968 280.057C379.655 279.236 380.312 278.387 380.96 277.533C382.012 276.146 383.044 274.745 384.083 273.352C384.171 273.233 384.26 273.115 384.418 272.901C384.444 273.161 384.474 273.319 384.474 273.477C384.516 276.961 384.539 280.445 384.599 283.929C384.625 285.422 384.723 286.911 384.806 288.403C384.832 288.863 384.7 289.235 384.414 289.613C383.774 290.471 383.271 291.44 382.574 292.246C380.483 294.662 378.432 297.124 376.171 299.369C374.044 301.479 371.782 303.494 369.363 305.262C366.885 307.077 364.153 308.546 361.523 310.15C360.396 310.837 359.269 311.534 358.095 312.136C356.767 312.816 355.39 313.395 354.032 314.009C352.113 314.874 350.193 315.735 348.27 316.593C348.063 316.685 347.846 316.744 347.524 316.856H347.527Z" fill="#512473"/>
<path fill-rule="evenodd" clip-rule="evenodd" d="M373.857 240.716C369.534 242.07 365.277 243.493 360.965 244.719C357.858 245.603 354.66 246.165 351.534 246.987C349.411 247.546 347.34 248.302 345.246 248.973C345.101 249.019 344.96 249.071 344.74 249.15C344.904 248.581 345.072 248.082 345.193 247.572C345.463 246.448 345.502 245.35 344.904 244.285C344.441 243.454 343.566 243.171 342.873 242.645C342.206 242.139 341.486 241.695 340.779 241.238C340.523 241.074 340.25 240.929 339.967 240.814C339.155 240.482 338.327 240.18 337.515 239.844C336.23 239.312 335.174 239.499 334.244 240.528C333.044 241.856 331.881 243.22 330.622 244.66C328.383 238.142 326.132 231.591 323.851 224.954C324.728 225.063 325.609 225.053 326.414 225.296C328.61 225.957 330.803 226.644 332.933 227.485C333.965 227.889 334.856 228.655 335.806 229.263C338.077 230.713 340.197 232.343 341.831 234.523C342.426 235.318 342.958 236.163 343.54 236.972C344.474 238.27 344.875 238.401 346.41 238.007C350.518 236.955 354.683 236.511 358.93 236.82C361.395 237.001 363.867 237.096 366.267 237.737C367.407 238.043 368.518 238.474 369.626 238.895C370.75 239.322 371.858 239.802 372.966 240.269C373.275 240.4 373.564 240.571 373.853 240.719L373.857 240.716Z" fill="#AE72FF"/>
<path fill-rule="evenodd" clip-rule="evenodd" d="M328.338 273.231C329.653 271.035 331.046 268.764 331.605 265.97C332.374 266.558 333.124 267.022 333.735 267.626C335.152 269.023 336.855 269.888 338.718 270.476C339.041 270.578 339.172 270.746 339.267 271.042C340.286 274.171 341.328 277.29 342.334 280.423C342.939 282.297 343.468 284.196 344.076 286.07C344.366 286.961 344.816 287.799 345.085 288.693C345.411 289.768 345.717 290.863 345.858 291.974C346.203 294.669 346.446 297.378 346.742 300.08C346.86 301.164 346.88 301.168 345.802 301.424C344.283 301.786 342.771 302.203 341.236 302.466C339.941 302.689 338.617 302.778 337.302 302.831C336.283 302.87 336.243 302.752 336.135 301.72C335.957 300.047 335.763 298.374 335.569 296.7C335.451 295.695 335.395 294.676 335.175 293.689C334.827 292.122 334.442 290.557 333.939 289.032C332.503 284.69 331.01 280.367 329.515 276.048C329.189 275.114 328.752 274.217 328.338 273.237V273.231Z" fill="#AE72FF"/>
<path fill-rule="evenodd" clip-rule="evenodd" d="M384.615 260.413C384.753 261.646 384.944 262.872 385.013 264.108C385.108 265.807 385.121 267.513 385.141 269.219C385.141 269.508 385.072 269.847 384.911 270.08C383.461 272.194 382.045 274.334 380.496 276.375C378.879 278.508 377.219 280.622 375.411 282.594C373.906 284.241 372.21 285.723 370.514 287.183C366.885 290.306 362.904 292.925 358.651 295.111C356.784 296.071 354.864 296.939 352.938 297.78C351.261 298.513 349.539 299.148 347.718 299.871C347.396 296.883 347.087 294 346.778 291.108C349.822 290.546 352.639 289.533 355.429 288.425C360.094 286.575 364.462 284.162 368.716 281.529C370.931 280.158 372.667 278.209 374.603 276.5C377.564 273.887 379.938 270.797 381.933 267.421C383.021 265.584 383.639 263.536 384.175 261.475C384.267 261.126 384.346 260.775 384.431 260.426C384.49 260.426 384.553 260.42 384.612 260.416L384.615 260.413Z" fill="#AE72FF"/>
<path fill-rule="evenodd" clip-rule="evenodd" d="M382.725 247.092C382.058 247.23 381.532 247.306 381.026 247.447C377.637 248.397 374.241 249.327 370.865 250.323C366.957 251.477 363.078 252.736 359.16 253.87C355.492 254.932 351.952 256.319 348.405 257.713C348.247 257.775 348.027 257.788 347.872 257.726C345.384 256.743 342.916 255.694 340.158 255.257C340.299 255.109 340.371 255.011 340.463 254.938C342.051 253.692 343.399 252.256 344.217 250.373C344.306 250.169 344.569 249.985 344.792 249.906C349.96 248.101 355.35 247.181 360.639 245.859C363.049 245.255 365.396 244.41 367.772 243.677C369.508 243.141 371.227 242.54 372.989 242.112C374.149 241.83 375.372 241.382 376.575 241.981C377.239 242.313 377.906 242.671 378.491 243.125C379.668 244.038 380.802 245.008 381.923 245.988C382.212 246.241 382.393 246.625 382.725 247.092Z" fill="#AE72FF"/>
<path fill-rule="evenodd" clip-rule="evenodd" d="M303.74 295.894C308.888 295.686 313.947 296.186 319.018 295.88C324.084 295.571 329.126 295.131 334.251 294.286C334.599 297.103 334.941 299.877 335.293 302.724C334.182 303.013 333.136 303.299 332.081 303.552C328.998 304.302 325.846 304.496 322.693 304.696C321.05 304.801 319.41 304.93 317.769 305.038C313.292 305.334 308.868 304.808 304.444 304.229C304.181 304.193 303.967 304.151 303.957 303.802C303.891 301.182 303.816 298.566 303.74 295.894Z" fill="#AE72FF"/>
<path fill-rule="evenodd" clip-rule="evenodd" d="M320.77 260.953C320.017 261.519 319.291 262.071 318.554 262.613C316.931 263.803 315.691 265.358 314.436 266.906C314.179 267.222 313.772 267.495 313.381 267.606C309.702 268.655 306.011 269.654 302.333 270.693C301.412 270.953 300.515 271.285 299.614 271.603C297.021 272.527 294.437 273.477 291.84 274.388C291.065 274.657 290.253 274.818 289.464 275.045C289.089 275.154 288.826 275.052 288.662 274.7C288.011 273.319 287.406 271.916 286.693 270.571C286.197 269.631 286.045 268.678 286.141 267.643C286.17 267.317 286.233 267.123 286.578 267.018C290.013 265.963 293.431 264.855 296.876 263.836C300.453 262.778 304.052 261.792 307.645 260.796C309.157 260.378 310.711 260.102 312.197 259.616C313.354 259.238 314.367 259.382 315.409 259.908C316.99 260.707 318.709 260.835 320.441 260.871C320.537 260.871 320.632 260.884 320.727 260.894C320.74 260.894 320.75 260.921 320.776 260.953H320.77Z" fill="#AE72FF"/>
<path fill-rule="evenodd" clip-rule="evenodd" d="M320.974 224.001C322.545 223.995 322.227 223.794 322.746 225.224C323.864 228.321 324.889 231.447 325.98 234.553C327.249 238.162 328.551 241.758 329.816 245.371C329.909 245.634 329.885 246.012 329.764 246.261C329.245 247.33 328.656 248.362 328.124 249.42C327.92 249.828 327.795 250.275 327.624 250.699C327.562 250.85 327.466 250.985 327.384 251.126C327.236 251.024 327.072 250.945 326.947 250.82C326.316 250.18 325.665 249.555 325.073 248.878C323.502 247.08 321.352 246.159 319.337 245.032C319.091 244.894 318.841 244.608 318.769 244.345C317.779 240.71 316.908 237.035 315.82 233.429C315.133 231.144 314.137 228.952 313.276 226.72C313.263 226.684 313.25 226.647 313.237 226.611C312.77 225.382 312.767 225.313 314.065 225.03C315.275 224.767 316.51 224.626 317.737 224.442C318.815 224.284 319.893 224.143 320.974 223.998V224.001Z" fill="#AE72FF"/>
<path fill-rule="evenodd" clip-rule="evenodd" d="M345.354 302.512C345.578 305.175 345.795 307.725 346.005 310.276C346.215 312.827 346.416 315.381 346.623 317.971C345.233 318.402 343.822 318.875 342.393 319.276C340.627 319.769 338.846 320.19 337.077 320.666C336.653 320.782 336.538 320.683 336.45 320.249C335.703 316.597 335.533 312.889 335.339 309.182C335.243 307.39 335.095 305.599 334.964 303.732C335.26 303.551 335.611 303.498 336.095 303.603C336.867 303.771 337.686 303.817 338.481 303.787C340.512 303.709 342.488 303.285 344.421 302.653C344.684 302.568 344.976 302.565 345.358 302.509L345.354 302.512Z" fill="#AE72FF"/>
<path fill-rule="evenodd" clip-rule="evenodd" d="M335.704 259.841C335.618 260.978 334.872 262.194 333.626 263.102C332.509 263.914 331.243 264.39 329.879 264.614C327.637 264.979 324.889 263.792 323.782 261.438C323.095 259.979 322.608 258.47 323.18 256.896C324.37 253.612 326.766 251.807 330.014 251.627C331.335 251.554 332.614 252.205 333.38 253.333C334.977 255.683 335.451 256.33 335.707 259.844L335.704 259.841Z" fill="#AE72FF"/>
<path fill-rule="evenodd" clip-rule="evenodd" d="M322.348 260.839C323.275 263.294 324.856 264.839 327.272 265.553C324.886 266.545 323.19 268.284 321.947 270.404C320.731 272.478 319.689 274.674 320.277 277.235C320.264 277.235 320.222 277.261 320.195 277.248C317.996 276.265 315.794 275.295 313.608 274.28C312.78 273.895 312.773 273.718 312.967 272.84C313.302 271.318 313.634 269.78 314.538 268.491C315.906 266.542 317.313 264.609 319.258 263.163C320.254 262.423 321.241 261.67 322.348 260.839Z" fill="#AE72FF"/>
<path fill-rule="evenodd" clip-rule="evenodd" d="M346.774 268.448C346.725 268.372 346.669 268.329 346.669 268.283C346.583 266.265 345.065 265.476 343.54 264.793C341.991 264.099 340.325 263.823 338.619 263.833C337.403 263.839 336.216 263.665 335.092 263.172C335.006 263.136 334.934 263.077 334.826 263.011C335.194 262.669 335.562 262.373 335.874 262.028C336.765 261.055 336.87 259.875 336.686 258.639C336.614 258.149 336.561 257.646 336.42 257.173C336.275 256.69 336.436 256.545 336.893 256.45C339.151 255.97 341.304 256.437 343.428 257.14C344.572 257.518 345.689 257.975 346.83 258.356C348.266 258.836 349.138 259.967 349.936 261.121C350.419 261.814 350.17 262.689 349.805 263.379C348.97 264.947 348.04 266.462 347.139 267.994C347.047 268.155 346.902 268.283 346.771 268.444L346.774 268.448Z" fill="#AE72FF"/>
<path fill-rule="evenodd" clip-rule="evenodd" d="M321.819 258.042C321.056 257.22 320.435 256.326 319.603 255.711C317.871 254.43 316.047 253.266 314.226 252.106C312.94 251.287 311.543 250.728 309.824 250.86C310.255 250.35 310.57 249.956 310.912 249.581C312.059 248.322 313.226 247.083 314.357 245.808C314.778 245.334 315.258 245.163 315.876 245.176C317.276 245.209 318.535 245.679 319.751 246.317C320.566 246.744 321.378 247.175 322.19 247.599C323.17 248.112 325.306 250.048 326.437 251.471C323.991 252.99 322.276 255.041 321.819 258.035V258.042Z" fill="#AE72FF"/>
<path fill-rule="evenodd" clip-rule="evenodd" d="M342.642 243.624C340.775 244.515 339.635 245.991 338.606 247.578C337.294 249.603 336.41 251.815 335.716 254.116C335.667 254.281 335.608 254.439 335.513 254.721C334.707 253.4 334.024 252.082 332.646 251.372C331.295 250.675 329.915 250.29 328.229 250.902C328.564 250.238 328.787 249.725 329.07 249.245C329.842 247.93 330.552 246.559 331.453 245.337C332.607 243.772 333.905 242.313 335.177 240.84C335.657 240.284 336.374 240.334 336.939 240.603C338.293 241.248 339.822 241.517 340.989 242.566C341.446 242.977 342.034 243.243 342.639 243.621L342.642 243.624Z" fill="#AE72FF"/>
<path fill-rule="evenodd" clip-rule="evenodd" d="M302.895 303.755C301.679 302.319 300.401 300.928 299.26 299.433C296.387 295.669 293.853 291.682 291.644 287.487C291.049 286.357 290.316 285.298 289.658 284.197C289.553 284.023 289.448 283.813 289.442 283.619C289.379 281.729 289.34 279.835 289.297 277.945C289.297 277.84 289.31 277.738 289.326 277.462C289.849 278.402 290.339 279.171 290.717 279.99C292.13 283.053 294.096 285.762 296.098 288.451C297.455 290.275 298.675 292.214 300.401 293.739C301.117 294.371 301.886 294.942 302.593 295.583C302.787 295.761 302.938 296.09 302.945 296.353C302.987 297.769 302.968 299.186 302.991 300.603C303.004 301.444 303.05 302.286 303.076 303.127C303.083 303.308 303.06 303.489 303.05 303.673C303.001 303.702 302.948 303.729 302.899 303.758L302.895 303.755Z" fill="#AE72FF"/>
<path fill-rule="evenodd" clip-rule="evenodd" d="M330.862 265.482C330.448 267.319 329.777 269.042 328.844 270.689C327.493 273.075 325.695 275.05 323.614 276.799C323.098 277.233 322.467 277.654 321.849 277.318C321.234 276.987 321.113 276.244 321.195 275.537C321.422 273.558 322.161 271.763 323.252 270.117C324.495 268.243 326.224 266.895 328.15 265.787C328.232 265.741 328.324 265.705 328.416 265.695C329.209 265.62 330.004 265.554 330.862 265.479V265.482Z" fill="#512473"/>
<path fill-rule="evenodd" clip-rule="evenodd" d="M322.134 259.941C321.934 259.994 321.825 260.056 321.72 260.046C320.639 259.928 319.541 259.882 318.486 259.649C317.263 259.379 316.063 258.975 314.877 258.564C313.904 258.225 312.964 257.788 312.004 257.404C310.551 256.825 309.601 255.694 308.927 254.366C308.677 253.873 308.733 253.18 308.789 252.588C308.842 252.052 309.308 251.809 309.828 251.763C310.817 251.674 311.8 251.753 312.671 252.256C314.594 253.36 316.53 254.448 318.381 255.665C319.778 256.582 320.862 257.87 321.802 259.261C321.927 259.445 322.003 259.665 322.131 259.938L322.134 259.941Z" fill="#512473"/>
<path fill-rule="evenodd" clip-rule="evenodd" d="M331.946 265.054C332.669 264.603 333.261 264.219 333.872 263.867C333.991 263.798 334.201 263.798 334.326 263.861C335.516 264.442 336.772 264.735 338.093 264.751C339.845 264.771 341.591 264.919 343.195 265.665C344.026 266.053 344.835 266.592 345.496 267.226C346.505 268.193 346.041 269.731 344.693 270.004C344.053 270.132 343.362 270.116 342.705 270.053C341.719 269.961 340.736 269.8 339.76 269.619C337.797 269.261 336.078 268.4 334.586 267.062C334.047 266.582 333.429 266.191 332.847 265.757C332.564 265.543 332.288 265.32 331.95 265.057L331.946 265.054Z" fill="#512473"/>
<path fill-rule="evenodd" clip-rule="evenodd" d="M336.085 255.511C336.986 252.375 338.225 249.43 340.243 246.87C340.746 246.232 341.39 245.699 341.982 245.134C342.495 244.641 343.132 244.565 343.8 244.667C343.934 244.687 344.096 244.825 344.168 244.953C344.546 245.607 344.51 246.324 344.358 247.018C343.606 250.443 341.827 253.171 338.813 255.031C338.642 255.14 338.432 255.209 338.231 255.239C337.535 255.34 336.834 255.419 336.092 255.511H336.085Z" fill="#512473"/>
<path fill-rule="evenodd" clip-rule="evenodd" d="M286.115 271.736C286.677 272.818 287.236 273.916 287.821 275.004C287.962 275.267 288.196 275.48 288.376 275.727C288.449 275.825 288.541 275.947 288.544 276.059C288.564 277.988 288.574 279.918 288.58 281.847C288.58 281.9 288.557 281.953 288.541 282.012C287.535 281.081 286.049 274.744 286.115 271.74V271.736Z" fill="#AE72FF"/>
<path fill-rule="evenodd" clip-rule="evenodd" d="M290.746 296.766C289.632 294.939 289.063 289.63 289.609 286.195C290.05 286.932 290.783 287.454 290.76 288.509C290.704 291.106 290.766 293.706 290.779 296.306C290.779 296.411 290.766 296.517 290.746 296.766Z" fill="#512473"/>
<path fill-rule="evenodd" clip-rule="evenodd" d="M287.716 282.767C288.143 283.46 288.64 284.118 288.626 285.015C288.607 286.33 288.623 287.641 288.623 288.956C288.557 288.963 288.488 288.969 288.423 288.976C288.114 286.928 287.805 284.877 287.496 282.829C287.571 282.809 287.644 282.79 287.719 282.767H287.716Z" fill="#AE72FF"/>
<path d="M615.946 303.452C616.257 303.632 616.44 304.057 616.119 304.395C608.587 312.329 598.684 317.09 588.361 320.315C578.565 323.385 567.268 326.242 557.169 322.985C556.758 322.857 556.777 322.365 557.063 322.194C557.002 322.134 556.959 322.039 556.959 321.918C557.399 307.819 557.814 293.735 558.075 279.639C558.058 279.63 558.041 279.62 558.024 279.611C557.717 279.445 557.836 279.073 558.088 278.984C558.099 278.223 558.115 277.46 558.13 276.69C558.302 266.583 558.604 256.459 559.347 246.376C559.224 246.226 559.255 246.017 559.382 245.915C559.671 242.017 560.036 238.111 560.485 234.223C559.51 235.685 558.669 237.193 558.139 238.902C557.632 240.497 557.713 242.433 557.041 243.955C556.287 245.681 554.523 244.652 553.157 243.977C550.847 242.846 551.442 241.668 552.808 239.761C554.512 237.403 556.498 235.298 558.759 233.49C555.656 234.582 552.808 236.12 550.178 238.152C550.042 238.249 549.807 238.226 549.7 238.108C548.473 236.791 544.514 233.452 547.896 232.485C550.113 231.856 552.857 231.943 555.151 231.914C555.47 231.905 555.805 231.899 556.155 231.874C553.148 231.163 550.165 230.56 546.97 230.349C546.641 230.325 546.321 229.969 546.538 229.64C547.766 227.753 550.251 223.54 552.917 224.115C555.737 224.724 558.323 227.583 560.036 230.272C559.493 226.922 559.953 223.409 561.232 220.269C561.509 219.586 561.653 218.964 562.409 218.812C563.077 218.678 564.04 219.487 564.619 219.751C565.789 220.298 566.96 220.845 568.131 221.392C568.406 221.525 568.411 221.881 568.246 222.094C566.149 224.719 564.419 227.52 562.966 230.505C565.582 228.499 568.63 227.201 571.953 226.66C572.28 226.605 572.615 226.842 572.524 227.212C571.992 229.444 571.839 231.607 572.03 233.889C572.058 234.202 571.747 234.359 571.486 234.322C568.601 233.976 565.727 233.834 562.831 233.863C567.195 238.834 571.081 244.269 575.131 249.484C579.69 255.356 584.245 261.214 588.738 267.127C597.883 279.127 606.938 291.19 615.894 303.325C615.921 303.367 615.933 303.406 615.953 303.45L615.946 303.452ZM614.829 303.955C613.445 302.084 612.058 300.228 610.66 298.361C593.807 301.778 574.072 300.107 558.963 291.291C558.931 294.705 558.89 298.136 558.823 301.553C558.84 301.562 558.855 301.565 558.872 301.574C573.28 309.568 589.157 313.328 605.602 311.333C608.924 309.247 612.032 306.823 614.821 303.951L614.829 303.955ZM609.994 297.465C606.9 293.304 603.789 289.156 600.682 284.999C587.033 287.738 571.608 286.661 559.086 280.154C559.04 283.594 559.005 287.045 558.972 290.502C567.025 293.95 574.861 296.954 583.582 298.195C592.379 299.448 601.281 299.147 609.994 297.465ZM599.978 284.07C596.715 279.724 593.441 275.388 590.162 271.06C590.149 271.064 590.14 271.081 590.127 271.085C580.297 274.551 568.627 273.978 559.299 269.198C559.218 272.133 559.152 275.071 559.104 277.996C559.099 278.413 559.096 278.836 559.092 279.259C572.39 284.499 585.779 286.815 599.976 284.064L599.978 284.07ZM589.557 270.274C589.067 269.633 588.587 268.981 588.09 268.342C585.866 265.425 583.64 262.502 581.413 259.572C581.377 259.597 581.342 259.622 581.287 259.631C574.144 261.542 566.214 261.068 559.72 257.33C559.551 261.006 559.415 264.694 559.311 268.372C569.237 272.517 579.176 273.303 589.542 270.272L589.557 270.274ZM580.733 258.68C578.692 255.995 576.641 253.32 574.587 250.639C574.017 249.9 573.443 249.169 572.873 248.43C568.807 249.743 564.035 249.234 560.353 247.043C560.118 250.253 559.919 253.466 559.772 256.685C566.606 259.472 573.501 260.51 580.74 258.678L580.733 258.68ZM588.019 319.137C593.542 317.406 598.924 315.245 603.886 312.371C588.343 313.984 572.051 310.755 558.816 302.277C558.743 305.31 558.65 308.349 558.501 311.368C565.518 317.785 577.052 319.778 586.256 319.681C586.848 319.505 587.438 319.323 588.028 319.141L588.019 319.137ZM571.498 227.681C568.091 228.348 565.032 229.756 562.312 231.871C562.176 232.184 562.033 232.498 561.89 232.812C561.93 232.85 561.966 232.897 561.999 232.937C565.056 232.875 568.081 233.043 571.1 233.407C570.961 231.467 571.098 229.588 571.491 227.683L571.498 227.681ZM567.236 221.943C566.027 221.293 563.814 219.933 562.854 220.024C562.497 219.737 562.289 219.806 562.253 220.238C561.988 220.817 561.762 221.406 561.577 222.012C561.408 222.527 561.269 223.047 561.145 223.571C560.522 226.244 560.548 228.912 560.82 231.613C560.914 231.786 561.001 231.96 561.093 232.126C561.201 232.03 561.299 231.929 561.407 231.832C562.914 228.281 564.875 224.982 567.236 221.943ZM560.41 246.197C564.306 247.952 567.998 248.416 572.186 247.561C568.633 243.057 564.977 238.591 561.74 233.872C561.718 233.872 561.703 233.869 561.683 233.875C561.64 233.873 561.608 233.861 561.563 233.853C561.087 237.964 560.712 242.08 560.418 246.201L560.41 246.197ZM559.601 232.061C559.826 232.122 560.039 232.188 560.24 232.286C558.978 229.914 557.278 227.871 555.052 226.322C554.592 226 553.64 225.131 553.032 225.104C551.936 225.05 550.765 225.926 550.064 226.649C549.226 227.513 548.498 228.458 547.82 229.453C551.803 229.717 555.951 230.439 559.607 232.059L559.601 232.061ZM557.823 237.401C558.432 235.862 559.256 234.444 560.272 233.142C558.395 234.7 556.633 236.381 555.065 238.255C554.382 239.065 552.886 240.482 552.664 241.52C552.377 242.843 553.079 242.992 553.939 243.381C554.524 243.643 555.409 244.239 555.988 243.925C556.671 243.55 556.696 241.562 556.85 240.779C557.078 239.618 557.387 238.489 557.827 237.393L557.823 237.401ZM558.799 232.663C557.004 232.444 554.743 232.829 553.267 232.916C552.193 232.984 550.983 232.957 549.94 233.202C549.016 233.147 548.259 233.514 547.677 234.302C547.922 234.644 548.166 234.986 548.431 235.323C549.645 236.908 549.61 237.155 551.25 236.389C552.328 235.876 553.326 235.044 554.405 234.488C555.819 233.754 557.296 233.166 558.804 232.654L558.799 232.663ZM583.661 320.407C578.979 320.294 574.345 319.551 569.876 318.108C566.097 316.89 561.178 315.331 558.457 312.183C558.281 315.425 558.062 318.665 557.754 321.896C557.748 322.02 557.688 322.109 557.614 322.174C566.509 323.877 575.116 322.727 583.668 320.406L583.661 320.407Z" fill="#512473"/>
<path d="M610.66 298.361C612.051 300.23 613.438 302.086 614.829 303.955C612.045 306.819 608.933 309.251 605.611 311.338C589.166 313.332 573.289 309.572 558.881 301.579C558.864 301.569 558.849 301.567 558.832 301.557C558.898 298.14 558.94 294.709 558.971 291.296C574.072 300.106 593.816 301.783 610.669 298.366L610.66 298.361Z" fill="#BC8AFF"/>
<path d="M600.676 285C603.789 289.155 606.894 293.305 609.987 297.466C601.274 299.149 592.373 299.45 583.576 298.196C574.854 296.956 567.012 293.953 558.966 290.503C558.997 287.039 559.034 283.595 559.08 280.156C571.602 286.663 587.022 287.748 600.676 285Z" fill="#AE72FF"/>
<path d="M590.164 271.067C593.443 275.394 596.717 279.73 599.98 284.077C585.785 286.834 572.387 284.514 559.096 279.272C559.099 278.849 559.103 278.426 559.108 278.009C559.161 275.076 559.22 272.14 559.303 269.212C568.624 273.993 580.294 274.566 590.13 271.098C590.143 271.094 590.153 271.077 590.166 271.074L590.164 271.067Z" fill="#BC8AFF"/>
<path d="M588.096 268.341C588.594 268.98 589.073 269.632 589.564 270.273C579.198 273.304 569.259 272.518 559.333 268.374C559.435 264.689 559.566 261.009 559.742 257.331C566.236 261.07 574.165 261.543 581.309 259.632C581.357 259.625 581.392 259.6 581.434 259.574C583.66 262.497 585.886 265.42 588.112 268.343L588.096 268.341Z" fill="#AE72FF"/>
<path d="M574.587 250.639C576.64 253.32 578.692 255.994 580.733 258.679C573.495 260.511 566.601 259.48 559.765 256.687C559.919 253.465 560.111 250.254 560.346 247.045C564.028 249.236 568.804 249.736 572.866 248.431C573.442 249.169 574.017 249.9 574.58 250.641L574.587 250.639Z" fill="#BC8AFF"/>
<path d="M603.886 312.371C598.93 315.243 593.542 317.406 588.019 319.137C587.429 319.319 586.839 319.501 586.248 319.676C577.043 319.774 565.509 317.78 558.493 311.364C558.641 308.344 558.736 305.312 558.808 302.273C572.043 310.75 588.335 313.979 603.878 312.367L603.886 312.371Z" fill="#AE72FF"/>
<path d="M562.312 231.871C565.03 229.749 568.091 228.348 571.498 227.681C571.104 229.586 570.974 231.462 571.106 233.404C568.081 233.043 565.056 232.874 562.005 232.935C561.972 232.895 561.937 232.848 561.897 232.81C562.033 232.497 562.176 232.183 562.319 231.869L562.312 231.871Z" fill="#512473"/>
<path d="M562.847 220.026C563.807 219.935 566.02 221.295 567.229 221.946C564.864 224.993 562.909 228.29 561.4 231.835C561.293 231.931 561.194 232.032 561.086 232.128C561.001 231.96 560.913 231.786 560.813 231.616C560.541 228.914 560.513 226.24 561.138 223.573C561.256 223.052 561.401 222.529 561.57 222.014C561.755 221.409 561.981 220.82 562.246 220.241C562.289 219.806 562.49 219.739 562.847 220.026Z" fill="#512473"/>
<path d="M572.177 247.556C567.989 248.412 564.297 247.948 560.401 246.192C560.703 242.076 561.076 237.953 561.545 233.844C561.584 233.854 561.616 233.866 561.666 233.866C561.686 233.86 561.701 233.862 561.722 233.863C564.96 238.582 568.616 243.048 572.169 247.552L572.177 247.556Z" fill="#AE72FF"/>
<path d="M560.239 232.286C560.039 232.188 559.826 232.122 559.6 232.06C555.944 230.441 551.796 229.719 547.813 229.455C548.491 228.46 549.219 227.515 550.057 226.651C550.763 225.92 551.929 225.052 553.025 225.106C553.634 225.133 554.592 226 555.045 226.323C557.271 227.873 558.978 229.913 560.233 232.288L560.239 232.286Z" fill="#512473"/>
<path d="M560.265 233.143C559.25 234.446 558.432 235.861 557.816 237.403C557.376 238.499 557.067 239.628 556.839 240.789C556.685 241.572 556.66 243.56 555.977 243.935C555.404 244.247 554.513 243.654 553.927 243.391C553.068 243.002 552.366 242.853 552.653 241.53C552.875 240.492 554.371 239.075 555.054 238.265C556.622 236.391 558.384 234.71 560.26 233.152L560.265 233.143Z" fill="#512473"/>
<path d="M553.26 232.918C554.743 232.829 557.003 232.444 558.792 232.665C557.283 233.17 555.807 233.765 554.394 234.498C553.314 235.055 552.317 235.887 551.239 236.4C549.605 237.163 549.633 236.919 548.419 235.333C548.155 234.997 547.904 234.657 547.666 234.312C548.248 233.525 549.011 233.155 549.929 233.212C550.976 232.959 552.186 232.986 553.256 232.926L553.26 232.918Z" fill="#512473"/>
<path d="M569.87 318.11C574.345 319.551 578.98 320.301 583.654 320.409C575.102 322.731 566.496 323.881 557.601 322.178C557.675 322.113 557.732 322.017 557.741 321.9C558.048 318.669 558.267 315.428 558.443 312.186C561.165 315.335 566.083 316.894 569.863 318.112L569.87 318.11Z" fill="#BC8AFF"/>
<path d="M110.474 289.831C108.994 289.451 107.429 289.492 105.936 289.887C104.614 290.232 102.353 291.052 101.842 292.479C101.254 294.156 103.633 294.583 104.78 294.608C105.508 294.632 106.223 294.51 106.913 294.285C104.015 297.023 101.649 300.358 99.7976 303.994C99.7866 303.948 99.007 305.526 99.0695 305.499C97.1242 309.698 95.8438 314.212 95.1989 318.616C95.1958 318.622 95.1961 318.639 95.1929 318.646C95.1792 318.623 94.8442 321.086 94.9 321.054C94.4591 325.062 94.2157 328.981 92.3801 332.723C92.3801 332.723 91.2188 334.779 91.2287 334.775C90.5251 335.881 89.7165 336.895 88.8365 337.835C89.2691 338.015 89.695 338.192 90.1244 338.378C90.867 337.538 91.5587 336.649 92.1793 335.702C92.1522 335.828 93.1396 334.175 93.1194 334.166C94.3916 331.858 95.2866 329.323 95.7228 326.629C95.975 325.088 96.1677 323.569 96.3605 322.049C96.3711 322.079 96.7913 318.95 96.7584 318.967C97.1881 315.817 97.7481 312.705 98.9191 309.569C99.3301 308.457 99.7625 307.56 99.7625 307.56C99.9181 307.231 99.8927 307.285 100.494 306.066C100.997 305.038 101.238 304.527 101.258 304.537C101.265 304.54 103.089 301.327 104.374 299.322C105.563 297.468 106.756 295.797 107.913 294.29C107.626 296.669 110.116 299.605 112.549 298.891C115.891 297.924 113.67 293.134 111.93 291.079C135.892 301.92 157.481 267.657 150.942 246.7C147.448 235.498 136.922 228.547 125.27 231.187C112.08 234.177 103.501 244.582 99.6229 257.038C97.4989 263.857 96.5384 270.543 99.2848 277.315C101.437 282.598 105.356 287.238 110.502 289.737C110.489 289.764 110.483 289.794 110.477 289.824L110.474 289.831ZM113.075 296.789C112.607 298.959 110.284 297.564 109.501 296.422C108.791 295.371 108.557 294.093 109.26 292.971C109.289 292.927 109.301 292.884 109.307 292.837C109.32 292.827 109.333 292.817 109.346 292.806C109.697 292.447 109.148 291.817 108.743 292.135C107.809 292.877 106.794 293.407 105.587 293.527C105.017 293.586 104.414 293.555 103.85 293.412C102.661 293.129 103.484 292.17 104.16 291.783C106.135 290.647 108.366 290.395 110.597 290.613C110.481 290.771 110.452 290.971 110.603 291.157C111.727 292.602 113.499 294.779 113.078 296.782L113.075 296.789ZM99.387 273.781C97.5 266.495 99.8298 258.755 102.684 252.027C108.049 239.362 124.624 226.576 138.851 233.659C167.346 247.843 140.693 303.254 111.869 289.661C111.844 289.575 111.782 289.48 111.688 289.419C105.738 285.824 101.152 280.631 99.3838 273.788L99.387 273.781Z" fill="#512473"/>
<path d="M125.979 288.636C126.38 288.448 126.718 289.125 126.336 289.323C124.359 290.359 121.909 290.483 119.881 289.54C119.636 289.432 119.754 289.011 120.028 289.091C122.104 289.654 124.018 289.533 125.979 288.636Z" fill="#512473"/>
<path d="M126.518 287.444C127.071 287.319 127.244 288.099 126.685 288.205C125.483 288.433 124.257 288.56 123.043 288.503C122.667 288.482 122.713 287.879 123.068 287.858C124.233 287.793 125.381 287.695 126.518 287.444Z" fill="#512473"/>
<path d="M113.075 296.789C112.608 298.959 110.284 297.565 109.502 296.422C108.791 295.371 108.557 294.093 109.26 292.971C109.289 292.927 109.302 292.884 109.307 292.837C109.32 292.827 109.333 292.817 109.346 292.807C109.698 292.447 109.149 291.817 108.744 292.135C107.81 292.877 106.794 293.407 105.587 293.527C105.017 293.586 104.415 293.556 103.85 293.412C102.661 293.129 103.484 292.17 104.16 291.783C106.136 290.647 108.367 290.396 110.598 290.613C110.482 290.771 110.453 290.971 110.603 291.158C111.728 292.602 113.5 294.779 113.079 296.782L113.075 296.789Z" fill="#512473"/>
<path d="M138.851 233.659C167.346 247.844 140.694 303.254 111.869 289.661C111.844 289.575 111.782 289.48 111.688 289.419C105.738 285.824 101.152 280.631 99.3841 273.788C97.5002 266.495 99.83 258.755 102.684 252.027C108.049 239.362 124.624 226.576 138.851 233.659Z" fill="#512473"/>
<path d="M87.3037 284.952C85.8031 285.242 84.4065 285.948 83.2254 286.943C82.178 287.82 80.4843 289.528 80.6328 291.036C80.8186 292.804 83.1511 292.173 84.1985 291.705C84.8671 291.415 85.4614 290.999 85.9888 290.501C84.5403 294.216 83.8271 298.242 83.7083 302.32C83.6785 302.283 83.6488 304.044 83.6934 303.992C83.7305 308.62 84.5031 313.248 85.8031 317.504C85.8031 317.511 85.8105 317.526 85.8105 317.534C85.7882 317.519 86.5385 319.889 86.5757 319.837C87.8905 323.647 89.3465 327.295 89.2871 331.462C89.2871 331.462 89.1162 333.817 89.1236 333.81C88.9602 335.11 88.6631 336.373 88.2694 337.598C88.7374 337.576 89.1979 337.554 89.6659 337.539C89.9779 336.462 90.2231 335.362 90.3791 334.241C90.4088 334.367 90.5945 332.45 90.5722 332.45C90.7356 329.821 90.4608 327.146 89.7031 324.524C89.2722 323.023 88.7968 321.567 88.3214 320.111C88.3437 320.134 87.3854 317.125 87.3631 317.155C86.4048 314.124 85.5802 311.071 85.298 307.736C85.194 306.554 85.2014 305.559 85.2014 305.559C85.2014 305.195 85.2014 305.254 85.2237 303.895C85.2385 302.751 85.2385 302.186 85.2608 302.186C85.2682 302.186 85.5431 298.502 85.8477 296.14C86.13 293.956 86.494 291.935 86.8951 290.078C87.6528 292.351 91.1591 293.941 93.0533 292.254C95.6608 289.952 91.6048 286.572 89.1534 285.457C115.45 285.012 120.316 244.808 105.444 228.659C97.4956 220.027 85.0082 218.244 75.6037 225.613C64.9587 233.955 61.653 247.03 63.4729 259.948C64.4684 267.02 66.4592 273.475 71.8375 278.423C76.042 282.278 81.5688 284.796 87.2888 284.856C87.2888 284.885 87.2962 284.915 87.3037 284.945V284.952ZM92.6299 290.13C93.1351 292.292 90.4385 292.024 89.2425 291.326C88.1505 290.68 87.3928 289.625 87.5488 288.31C87.5562 288.258 87.5488 288.213 87.5339 288.169C87.5414 288.154 87.5488 288.139 87.5562 288.124C87.7197 287.649 86.9545 287.315 86.7242 287.775C86.1968 288.845 85.506 289.758 84.466 290.382C83.9757 290.68 83.4185 290.91 82.8465 291.021C81.6506 291.274 81.9848 290.056 82.4305 289.417C83.7305 287.545 85.6397 286.364 87.7494 285.606C87.7122 285.799 87.7717 285.992 87.9871 286.096C89.6214 286.921 92.1545 288.132 92.6299 290.123V290.13ZM70.4186 275.184C65.5975 269.404 64.3941 261.411 64.0969 254.109C63.5324 240.366 73.0483 221.721 88.9379 222.04C120.762 222.679 120.361 284.165 88.4922 284.202C88.4328 284.135 88.3362 284.076 88.2248 284.061C81.3088 283.355 74.9426 280.621 70.4186 275.191V275.184Z" fill="#512473"/>
<path d="M100.809 277.241C101.091 276.899 101.685 277.367 101.425 277.709C100.081 279.492 97.9192 280.651 95.6832 280.666C95.4158 280.673 95.3415 280.242 95.6238 280.198C97.7409 279.819 99.4198 278.89 100.809 277.241Z" fill="#512473"/>
<path d="M100.786 275.934C101.232 275.585 101.722 276.216 101.262 276.551C100.274 277.271 99.2189 277.91 98.0972 278.378C97.7481 278.519 97.5327 277.955 97.8447 277.784C98.8698 277.227 99.8652 276.647 100.786 275.934Z" fill="#512473"/>
<path d="M92.6299 290.129C93.135 292.291 90.4384 292.024 89.2424 291.325C88.1505 290.679 87.3927 289.624 87.5487 288.309C87.5562 288.257 87.5487 288.213 87.5339 288.168C87.5413 288.153 87.5487 288.139 87.5562 288.124C87.7196 287.648 86.9545 287.314 86.7242 287.775C86.1967 288.844 85.5059 289.758 84.4659 290.382C83.9756 290.679 83.4185 290.909 82.8465 291.021C81.6505 291.273 81.9848 290.055 82.4305 289.416C83.7305 287.544 85.6396 286.363 87.7493 285.605C87.7122 285.799 87.7716 285.992 87.987 286.096C89.6213 286.92 92.1544 288.131 92.6299 290.122V290.129Z" fill="#AE72FF"/>
<path d="M88.938 222.04C120.762 222.679 120.361 284.165 88.4923 284.202C88.4329 284.135 88.3363 284.076 88.2249 284.061C81.3089 283.355 74.9427 280.622 70.4187 275.191C65.5976 269.404 64.3942 261.411 64.097 254.109C63.5325 240.366 73.0484 221.721 88.938 222.04Z" fill="#AE72FF"/>
</svg>
