<svg width="101" height="100" viewBox="0 0 101 100" fill="none" xmlns="http://www.w3.org/2000/svg">
<g clip-path="url(#clip0_1373_26726)">
<path d="M46.5899 95.9915C71.98 95.9915 92.5627 75.3985 92.5627 49.9957C92.5627 24.593 71.98 4 46.5899 4C21.1999 4 0.617188 24.593 0.617188 49.9957C0.617188 75.3985 21.1999 95.9915 46.5899 95.9915Z" fill="#FBF9FF"/>
<path d="M84.1569 90.0465C88.9362 90.0465 92.8106 86.1702 92.8106 81.3885C92.8106 76.6068 88.9362 72.7305 84.1569 72.7305C79.3776 72.7305 75.5032 76.6068 75.5032 81.3885C75.5032 86.1702 79.3776 90.0465 84.1569 90.0465Z" fill="white"/>
<path fill-rule="evenodd" clip-rule="evenodd" d="M84.6976 93.3849C91.9164 93.3849 97.7683 87.53 97.7683 80.3077C97.7683 73.0853 91.9164 67.2305 84.6976 67.2305C77.4789 67.2305 71.627 73.0853 71.627 80.3077C71.627 87.53 77.4789 93.3849 84.6976 93.3849ZM85.678 76.3846C85.678 75.8429 85.2391 75.4037 84.6976 75.4037C84.1563 75.4037 83.7174 75.8429 83.7174 76.3846V79.327H80.7765C80.2351 79.327 79.7961 79.766 79.7961 80.3077C79.7961 80.8493 80.2351 81.2885 80.7765 81.2885H83.7174V84.2309C83.7174 84.7726 84.1563 85.2116 84.6976 85.2116C85.2391 85.2116 85.678 84.7726 85.678 84.2309V81.2885H88.6189C89.1603 81.2885 89.5993 80.8493 89.5993 80.3077C89.5993 79.766 89.1603 79.327 88.6189 79.327H85.678V76.3846Z" fill="#AE72FF"/>
<path d="M48.0524 38.0318C48.0524 31.0514 42.3964 25.3926 35.4194 25.3926C28.4425 25.3926 22.7865 31.0514 22.7865 38.0318C22.7865 45.0123 28.4425 50.6711 35.4194 50.6711C42.3964 50.6711 48.0524 45.0123 48.0524 38.0318Z" fill="#FFC2A7" stroke="#FBF9FF" stroke-width="0.499575"/>
<path d="M41.1327 45.0485H29.8826V43.6415C29.8826 41.6989 31.4566 40.1241 33.3982 40.1241H37.6171C39.5587 40.1241 41.1327 41.6989 41.1327 43.6415V45.0485ZM35.5076 38.7172C33.1776 38.7172 31.2888 36.8274 31.2888 34.4962C31.2888 32.1651 33.1776 30.2754 35.5076 30.2754C37.8376 30.2754 39.7264 32.1651 39.7264 34.4962C39.7264 36.8274 37.8376 38.7172 35.5076 38.7172Z" fill="#FFEDE6"/>
<path d="M70.5177 38.0318C70.5177 31.0514 64.8617 25.3926 57.8848 25.3926C50.9078 25.3926 45.2518 31.0514 45.2518 38.0318C45.2518 45.0123 50.9078 50.6711 57.8848 50.6711C64.8617 50.6711 70.5177 45.0123 70.5177 38.0318Z" fill="#D1F4F4" stroke="#FBF9FF" stroke-width="0.499575"/>
<path d="M63.5975 45.0485H52.3474V43.6415C52.3474 41.6989 53.9214 40.1241 55.863 40.1241H60.0819C62.0235 40.1241 63.5975 41.6989 63.5975 43.6415V45.0485ZM57.9725 38.7172C55.6425 38.7172 53.7536 36.8274 53.7536 34.4962C53.7536 32.1651 55.6425 30.2754 57.9725 30.2754C60.3025 30.2754 62.1912 32.1651 62.1912 34.4962C62.1912 36.8274 60.3025 38.7172 57.9725 38.7172Z" fill="#E9FAFA"/>
<path d="M70.5178 61.7232C70.5178 54.7428 64.8619 49.084 57.8849 49.084C50.9079 49.084 45.252 54.7428 45.252 61.7232C45.252 68.7037 50.9079 74.3625 57.8849 74.3625C64.8619 74.3625 70.5178 68.7037 70.5178 61.7232Z" fill="#E2D2FF" stroke="#FBF9FF" stroke-width="0.499575"/>
<path d="M63.5975 68.7399H52.3474V67.333C52.3474 65.3904 53.9214 63.8156 55.863 63.8156H60.0819C62.0235 63.8156 63.5975 65.3904 63.5975 67.333V68.7399ZM57.9725 62.4086C55.6425 62.4086 53.7536 60.5188 53.7536 58.1878C53.7536 55.8566 55.6425 53.9668 57.9725 53.9668C60.3025 53.9668 62.1912 55.8566 62.1912 58.1878C62.1912 60.5188 60.3025 62.4086 57.9725 62.4086Z" fill="#F1EAFF"/>
<path d="M48.0525 61.7232C48.0525 54.7428 42.3965 49.084 35.4196 49.084C28.4426 49.084 22.7866 54.7428 22.7866 61.7232C22.7866 68.7037 28.4426 74.3625 35.4196 74.3625C42.3965 74.3625 48.0525 68.7037 48.0525 61.7232Z" fill="#DDF8DC" stroke="#FBF9FF" stroke-width="0.499575"/>
<path d="M41.1326 68.7399H29.8824V67.333C29.8824 65.3904 31.4565 63.8156 33.3982 63.8156H37.6169C39.5585 63.8156 41.1326 65.3904 41.1326 67.333V68.7399ZM35.5075 62.4086C33.1776 62.4086 31.2888 60.5188 31.2888 58.1878C31.2888 55.8566 33.1776 53.9668 35.5075 53.9668C37.8375 53.9668 39.7264 55.8566 39.7264 58.1878C39.7264 60.5188 37.8375 62.4086 35.5075 62.4086Z" fill="#EFFBEE"/>
</g>
<defs>
<clipPath id="clip0_1373_26726">
<rect width="100" height="92" fill="white" transform="translate(0.5 4)"/>
</clipPath>
</defs>
</svg>
