<svg width="587" height="394" viewBox="0 0 587 394" fill="none" xmlns="http://www.w3.org/2000/svg">
<mask id="mask0_726_2262" style="mask-type:alpha" maskUnits="userSpaceOnUse" x="0" y="0" width="426" height="305">
<rect x="0.5" y="0.5" width="425" height="304" rx="8.5" fill="#FDFBFF" stroke="#3C1C54"/>
</mask>
<g mask="url(#mask0_726_2262)">
<line opacity="0.11" x1="4.37114e-08" y1="252.5" x2="426" y2="252.5" stroke="#D1BFF1"/>
<line opacity="0.11" x1="4.37114e-08" y1="191.5" x2="426" y2="191.5" stroke="#D1BFF1"/>
<line opacity="0.11" x1="4.37114e-08" y1="130.5" x2="426" y2="130.5" stroke="#D1BFF1"/>
<line opacity="0.11" x1="4.37114e-08" y1="65.5" x2="426" y2="65.5" stroke="#D1BFF1"/>
</g>
<rect x="0.5" y="0.5" width="425" height="304" rx="8.5" stroke="#AE72FF"/>
<path d="M9 0.5H417C421.694 0.5 425.5 4.30558 425.5 9V42.5H0.5V9C0.5 4.30558 4.30558 0.5 9 0.5Z" fill="#AE72FF" stroke="#AE72FF"/>
<path fill-rule="evenodd" clip-rule="evenodd" d="M394.5 11.2304C393.857 11.2304 393.342 11.7451 393.342 12.3885C393.342 13.6936 393.752 14.9559 394.5 16.0037C395.248 14.9559 395.658 13.6936 395.658 12.3885C395.658 11.7451 395.143 11.2304 394.5 11.2304ZM396.044 17.6703C397.233 16.1814 397.895 14.3186 397.895 12.3946C397.895 10.4706 396.375 9 394.5 9C392.625 9 391.105 10.5196 391.105 12.3946C391.105 14.2696 391.767 16.1814 392.956 17.6703L390.67 19.9559C389.181 18.7672 387.319 18.1054 385.395 18.1054C383.471 18.1054 382 19.625 382 21.5C382 23.375 383.52 24.8946 385.395 24.8946C387.27 24.8946 389.181 24.2328 390.67 23.0441L392.956 25.3297C391.767 26.8186 391.105 28.6814 391.105 30.6054C391.105 32.5294 392.625 34 394.5 34C396.375 34 397.895 32.4804 397.895 30.6054C397.895 28.7304 397.233 26.8186 396.044 25.3297L398.33 23.0441C399.819 24.2328 401.681 24.8946 403.605 24.8946C405.529 24.8946 407 23.375 407 21.5C407 19.625 405.48 18.1054 403.605 18.1054C401.73 18.1054 399.819 18.7672 398.33 19.9559L396.044 17.6703ZM394.5 19.288L392.288 21.5L394.5 23.712L396.712 21.5L394.5 19.288ZM399.996 21.5C401.044 22.2475 402.306 22.6581 403.612 22.6581C404.255 22.6581 404.77 22.1434 404.77 21.5C404.77 20.8566 404.255 20.3419 403.612 20.3419C402.306 20.3419 401.044 20.7525 399.996 21.5ZM394.5 26.9963C393.752 28.0441 393.342 29.3064 393.342 30.6115C393.342 31.2549 393.857 31.7696 394.5 31.7696C395.143 31.7696 395.658 31.2549 395.658 30.6115C395.658 29.3064 395.248 28.0441 394.5 26.9963ZM389.004 21.5C387.956 20.7525 386.694 20.3419 385.388 20.3419C384.745 20.3419 384.23 20.8566 384.23 21.5C384.23 22.1434 384.745 22.6581 385.388 22.6581C386.694 22.6581 387.956 22.2475 389.004 21.5Z" fill="#1F0433"/>
<circle cx="27.5" cy="21.5" r="7.5" fill="#1F0433"/>
<circle cx="47.5" cy="21.5" r="7.5" fill="#1F0433"/>
<circle cx="67.5" cy="21.5" r="7.5" fill="#1F0433"/>
<path d="M110.896 191.525H48V273.453H110.896V191.525Z" fill="#3C1C54"/>
<path d="M196.326 147.709H133.43V273.498H196.326V147.709Z" fill="#3C1C54"/>
<path d="M281.755 111H218.859V273.498H281.755V111Z" fill="#3C1C54"/>
<path d="M372 76H309V273H372V76Z" fill="#3C1C54"/>
<rect x="288" y="315" width="39" height="77" fill="#1F0433"/>
<rect x="288.5" y="315.5" width="38" height="76" stroke="#AE72FF" stroke-opacity="0.7"/>
<path d="M369.49 227.182L288.252 244.315L253.193 258.807L236.412 271.423L236.291 271.527C233.163 273.611 231.304 280.76 231.858 289.096C232.405 297.339 235.225 304.121 238.551 305.894L238.423 305.901L255.774 315.819L292.208 325.263L375.792 331L458.909 385.675L459.536 385.969C438.703 371.938 421.424 328.448 417.956 276.072C414.492 223.758 425.861 178.528 444.631 161.976L444.617 161.958L370.442 226.351L369.494 227.175L369.49 227.182Z" fill="#1F0433"/>
<path d="M438.446 167.977C431.674 176.878 426.209 189.836 422.47 205.497C417.701 225.468 415.722 249.906 417.457 276.105C419.194 302.336 424.39 326.353 431.768 345.58C437.641 360.887 444.915 373.201 452.963 381.165L376.067 330.583L375.957 330.51L375.826 330.501L292.283 324.766L255.965 315.352L240.144 306.308L240.369 306.296L238.786 305.453C237.281 304.651 235.802 302.648 234.626 299.734C233.533 297.024 232.733 293.6 232.414 289.823L232.356 289.063C232.082 284.938 232.407 281.12 233.178 278.09C233.956 275.033 235.163 272.879 236.568 271.943L236.594 271.926L236.616 271.906L236.713 271.823L253.441 259.245L288.399 244.795L369.594 227.671L369.829 227.622L369.896 227.488L370.77 226.729L438.446 167.977Z" stroke="#AE72FF" stroke-opacity="0.7"/>
<path d="M475.188 390.688C502.423 388.859 520.967 334.686 516.606 269.688C512.245 204.691 486.631 153.483 459.396 155.311C432.161 157.14 413.617 211.313 417.978 276.311C422.339 341.308 447.953 392.516 475.188 390.688Z" fill="#1F0433"/>
<path d="M459.429 155.81C466.065 155.365 472.647 158.145 478.88 163.646C485.116 169.149 490.972 177.35 496.131 187.664C506.448 208.29 513.93 237.273 516.107 269.722C518.284 302.171 514.741 331.895 507.272 353.714C503.538 364.625 498.829 373.536 493.385 379.823C487.942 386.108 481.791 389.743 475.155 390.188C468.519 390.634 461.938 387.854 455.704 382.353C449.468 376.85 443.612 368.649 438.453 358.336C428.136 337.71 420.654 308.726 418.477 276.278C416.3 243.829 419.843 214.105 427.312 192.285C431.046 181.374 435.755 172.463 441.199 166.176C446.642 159.891 452.793 156.256 459.429 155.81Z" stroke="#AE72FF" stroke-opacity="0.7"/>
<path d="M473.759 391.505C460.72 391.505 447.801 379.942 437.236 358.744C426.401 337.006 419.286 307.666 417.196 276.131C414.032 228.363 423.165 184.78 440.465 165.098C446.244 158.524 452.629 154.972 459.443 154.55C470.105 153.896 480.774 160.982 490.294 175.079C499.51 188.723 506.975 207.844 511.882 230.374C511.972 230.786 511.709 231.191 511.3 231.281C510.888 231.375 510.484 231.111 510.394 230.699C500.597 185.728 480.788 156.032 460.796 156.032C460.377 156.032 459.962 156.045 459.543 156.07C453.148 156.468 447.116 159.843 441.614 166.102C424.57 185.496 415.583 228.647 418.722 276.027C422.992 340.506 448.255 391.595 475.04 389.937C481.435 389.538 487.467 386.163 492.969 379.904C510.013 360.51 519 317.36 515.861 269.979C515.204 260.047 514.031 250.215 512.373 240.75C512.3 240.334 512.577 239.939 512.993 239.867C513.411 239.798 513.802 240.071 513.875 240.486C515.543 250.003 516.723 259.891 517.384 269.879C520.547 317.647 511.414 361.23 494.115 380.915C488.336 387.489 481.951 391.037 475.137 391.463C474.68 391.491 474.223 391.505 473.766 391.505H473.759Z" fill="#3C1C54"/>
<path d="M459.474 155.049C469.871 154.411 480.397 161.317 489.88 175.359C499.049 188.933 506.495 207.989 511.394 230.48V230.481C511.424 230.621 511.334 230.761 511.192 230.792L511.189 230.793C511.054 230.824 510.914 230.739 510.882 230.593C505.975 208.068 498.554 189.337 489.834 176.224C481.129 163.134 471.048 155.532 460.796 155.532C460.366 155.532 459.941 155.546 459.515 155.571H459.512C452.947 155.98 446.801 159.444 441.238 165.772C432.635 175.562 426.102 191.296 422.109 210.468C418.114 229.653 416.651 252.331 418.223 276.06C420.361 308.349 427.756 337.309 437.989 358.005C443.105 368.352 448.943 376.658 455.207 382.278C461.473 387.899 468.2 390.861 475.07 390.436H475.071C481.636 390.027 487.782 386.562 493.345 380.234C501.948 370.444 508.481 354.711 512.474 335.539C516.469 316.354 517.932 293.675 516.36 269.946C515.702 259.996 514.526 250.147 512.865 240.664C512.84 240.521 512.934 240.385 513.075 240.359C513.208 240.337 513.325 240.41 513.368 240.522L513.383 240.573C515.048 250.071 516.225 259.941 516.885 269.912C518.464 293.757 516.973 316.549 512.934 335.826C508.955 354.813 502.513 370.343 494.14 380.124L493.739 380.584C488.201 386.885 482.144 390.33 475.728 390.917L475.105 390.964C474.659 390.991 474.213 391.004 473.767 391.004H473.76C461.028 391.004 448.235 379.69 437.684 358.521C426.885 336.858 419.781 307.586 417.694 276.098C416.115 252.253 417.607 229.462 421.646 210.185C425.689 190.897 432.271 175.176 440.84 165.428C446.379 159.127 452.436 155.68 458.852 155.096L459.474 155.049Z" stroke="#AE72FF" stroke-opacity="0.7"/>
<path d="M460.82 154.508C473.859 154.508 486.778 166.071 497.343 187.269C508.178 209.007 515.293 238.347 517.384 269.882C520.547 317.65 511.414 361.233 494.114 380.914C488.335 387.489 481.95 391.041 475.136 391.463C464.474 392.117 453.805 385.031 444.285 370.934C435.069 357.29 427.605 338.169 422.697 315.639C422.607 315.227 422.87 314.822 423.279 314.732C423.691 314.638 424.096 314.901 424.186 315.313C433.983 360.285 453.791 389.981 473.783 389.981C474.202 389.981 474.617 389.968 475.036 389.943C481.431 389.545 487.463 386.17 492.965 379.91C510.009 360.516 518.996 317.366 515.857 269.986C511.587 205.506 486.324 154.418 459.539 156.076C453.144 156.475 447.112 159.85 441.61 166.109C424.566 185.503 415.579 228.653 418.718 276.034C419.375 285.966 420.548 295.798 422.206 305.263C422.279 305.679 422.002 306.073 421.587 306.146C421.168 306.215 420.777 305.942 420.704 305.526C419.036 296.009 417.856 286.122 417.195 276.134C414.032 228.366 423.165 184.783 440.464 165.098C446.244 158.524 452.628 154.975 459.442 154.55C459.899 154.522 460.356 154.508 460.813 154.508L460.82 154.508Z" fill="#3C1C54"/>
<path d="M475.105 390.964C464.708 391.602 454.182 384.696 444.699 370.654C435.53 357.08 428.084 338.024 423.186 315.533L423.186 315.532C423.155 315.392 423.246 315.252 423.387 315.22L423.39 315.219C423.525 315.189 423.665 315.274 423.697 315.42C428.604 337.945 436.025 356.676 444.745 369.789C453.45 382.879 463.531 390.481 473.783 390.481C474.213 390.481 474.638 390.467 475.064 390.442L475.067 390.442C481.632 390.033 487.778 386.568 493.341 380.241C501.944 370.451 508.477 354.717 512.47 335.545C516.465 316.36 517.928 293.682 516.356 269.953C514.218 237.664 506.823 208.704 496.59 188.008C491.474 177.66 485.637 169.355 479.372 163.735C473.106 158.114 466.379 155.152 459.509 155.577L459.508 155.577C452.944 155.986 446.797 159.451 441.234 165.779C432.631 175.569 426.098 191.302 422.105 210.474C418.11 229.659 416.647 252.338 418.219 276.067C418.877 286.017 420.053 295.866 421.714 305.349C421.739 305.492 421.645 305.627 421.504 305.654C421.371 305.675 421.254 305.603 421.211 305.491L421.196 305.44C419.531 295.942 418.354 286.072 417.694 276.101C416.115 252.256 417.606 229.464 421.646 210.187C425.625 191.2 432.066 175.67 440.439 165.889L440.84 165.428C446.379 159.128 452.436 155.683 458.852 155.096L459.474 155.049C459.92 155.022 460.366 155.009 460.813 155.009L460.819 155.009C473.551 155.009 486.345 166.323 496.896 187.492C507.694 209.155 514.798 238.427 516.885 269.915C518.464 293.76 516.972 316.551 512.933 335.828C508.89 355.116 502.308 370.837 493.739 380.585C488.2 386.886 482.143 390.333 475.728 390.917L475.105 390.964Z" stroke="#AE72FF" stroke-opacity="0.7"/>
<path d="M473.008 377.823C461.45 377.823 450.002 367.586 440.648 348.819C431.069 329.598 424.774 303.654 422.926 275.771C420.13 233.531 428.21 194.986 443.513 177.572C448.635 171.742 454.3 168.595 460.349 168.218C476.517 167.203 492.768 186.975 502.763 219.798C502.887 220.199 502.659 220.629 502.254 220.75C501.853 220.871 501.423 220.646 501.302 220.241C491.523 188.131 475.884 168.792 460.443 169.741C454.816 170.091 449.504 173.064 444.659 178.579C429.609 195.702 421.677 233.815 424.449 275.667C428.159 331.699 449.805 376.289 473.005 376.293C473.379 376.293 473.752 376.282 474.129 376.258C495.533 374.922 511.238 335.234 510.653 283.938C510.649 283.515 510.985 283.169 511.407 283.166C511.809 283.176 512.172 283.498 512.179 283.92C512.463 308.919 508.857 332.184 502.026 349.431C495.056 367.029 485.183 377.096 474.223 377.781C473.818 377.806 473.41 377.82 473.005 377.82L473.008 377.823Z" fill="#3C1C54"/>
<path d="M460.381 168.717C468.236 168.224 476.201 172.777 483.485 181.636C490.763 190.488 497.299 203.571 502.284 219.943L502.285 219.946C502.327 220.081 502.249 220.229 502.11 220.27L502.109 220.271C501.968 220.314 501.822 220.233 501.781 220.097L501.78 220.095L501.316 218.595C496.479 203.198 490.278 190.8 483.385 182.279C476.277 173.493 468.366 168.753 460.412 169.242C454.616 169.602 449.188 172.666 444.283 178.249C436.676 186.903 430.907 200.81 427.381 217.748C423.853 234.698 422.562 254.735 423.95 275.7C425.808 303.765 432.159 328.987 440.968 347.209C445.372 356.319 450.401 363.7 455.809 368.811C461.216 373.923 467.036 376.792 473.005 376.793C473.388 376.793 473.772 376.783 474.161 376.758L474.16 376.757C479.671 376.413 484.777 373.601 489.311 368.827C493.842 364.056 497.823 357.304 501.102 349.016C507.455 332.957 511.206 311.045 511.168 286.332L511.153 283.932C511.153 283.786 511.265 283.672 511.402 283.666C511.561 283.674 511.677 283.804 511.679 283.928C511.962 308.883 508.361 332.077 501.561 349.247C494.607 366.802 484.844 376.616 474.191 377.282C473.796 377.306 473.398 377.319 473.005 377.319H472.706C461.555 377.142 450.352 367.166 441.096 348.595C431.554 329.449 425.27 303.574 423.425 275.738C422.029 254.658 423.349 234.507 426.922 217.465C430.497 200.41 436.319 186.516 443.889 177.902C448.948 172.143 454.499 169.083 460.381 168.717Z" stroke="#AE72FF" stroke-opacity="0.7"/>
<path d="M461.565 168.18C473.124 168.18 484.571 178.417 493.925 197.185C503.504 216.406 509.799 242.35 511.647 270.233C514.443 312.472 506.363 351.018 491.06 368.431C485.938 374.261 480.273 377.408 474.224 377.786C458.056 378.8 441.805 359.029 431.811 326.206C431.686 325.804 431.914 325.375 432.319 325.254C432.721 325.133 433.15 325.358 433.271 325.763C443.051 357.872 458.689 377.211 474.131 376.262C479.758 375.913 485.07 372.939 489.914 367.424C504.965 350.301 512.896 312.188 510.125 270.336C506.415 214.304 484.769 169.714 461.568 169.711C461.195 169.711 460.821 169.721 460.444 169.745C439.04 171.082 423.336 210.77 423.92 262.066C423.924 262.488 423.588 262.834 423.166 262.838C422.764 262.827 422.401 262.505 422.394 262.083C422.11 237.084 425.716 213.82 432.548 196.572C439.517 178.975 449.391 168.907 460.35 168.222C460.755 168.198 461.164 168.184 461.568 168.184L461.565 168.18Z" fill="#3C1C54"/>
<path d="M474.192 377.287C466.337 377.78 458.372 373.227 451.088 364.367C443.81 355.515 437.274 342.433 432.289 326.06L432.288 326.057C432.246 325.922 432.324 325.775 432.463 325.733L432.464 325.732C432.605 325.69 432.751 325.771 432.792 325.906L432.793 325.908L433.257 327.408C438.094 342.805 444.295 355.203 451.188 363.724C458.296 372.511 466.207 377.25 474.161 376.761C479.957 376.401 485.385 373.338 490.29 367.755C497.897 359.1 503.667 345.194 507.192 328.256C510.721 311.305 512.012 291.268 510.623 270.303C508.765 242.238 502.415 217.017 493.605 198.795C489.201 189.685 484.172 182.303 478.765 177.192C473.357 172.081 467.537 169.212 461.568 169.211C461.186 169.211 460.801 169.221 460.412 169.246L460.413 169.247C454.902 169.591 449.796 172.403 445.263 177.177C440.732 181.948 436.751 188.699 433.472 196.987C427.118 213.046 423.367 234.958 423.405 259.672L423.42 262.071C423.421 262.218 423.308 262.332 423.171 262.338C423.012 262.329 422.897 262.199 422.895 262.075C422.612 237.121 426.212 213.926 433.013 196.757C439.966 179.201 449.729 169.388 460.382 168.721C460.778 168.698 461.175 168.684 461.568 168.684L461.867 168.684C473.019 168.861 484.222 178.837 493.478 197.408C503.02 216.555 509.304 242.43 511.148 270.265C512.544 291.346 511.224 311.496 507.651 328.539C504.076 345.593 498.255 359.487 490.685 368.101C485.625 373.861 480.074 376.92 474.192 377.287Z" stroke="#AE72FF" stroke-opacity="0.7"/>
<path d="M454.263 301.246C460.569 300.823 464.863 288.279 463.853 273.229C462.843 258.18 456.912 246.323 450.606 246.746C444.3 247.169 440.006 259.713 441.016 274.763C442.026 289.813 447.956 301.67 454.263 301.246Z" fill="#1F0433"/>
<path d="M450.64 247.245C452.043 247.151 453.471 247.735 454.864 248.964C456.259 250.195 457.587 252.048 458.768 254.409C461.129 259.129 462.853 265.788 463.354 273.263C463.856 280.738 463.037 287.568 461.328 292.561C460.473 295.059 459.404 297.073 458.186 298.479C456.97 299.884 455.633 300.653 454.229 300.748C452.826 300.842 451.398 300.258 450.005 299.029C448.61 297.798 447.282 295.945 446.101 293.584C443.74 288.864 442.016 282.205 441.515 274.729C441.013 267.254 441.832 260.425 443.541 255.431C444.396 252.934 445.465 250.919 446.683 249.513C447.899 248.109 449.236 247.339 450.64 247.245Z" stroke="#AE72FF" stroke-opacity="0.7"/>
<path d="M453.929 302.027C447.24 302.027 441.27 290.2 440.246 274.763C439.505 263.557 441.675 253.299 445.779 248.629C447.223 246.985 448.839 246.098 450.579 245.988C457.386 245.534 463.574 257.53 464.616 273.237C465.356 284.447 463.186 294.704 459.082 299.371C457.639 301.016 456.023 301.902 454.282 302.013C454.165 302.02 454.047 302.023 453.929 302.023V302.027ZM450.932 247.504C450.846 247.504 450.759 247.504 450.673 247.511C449.354 247.594 448.091 248.307 446.925 249.636C443.077 254.016 441.052 263.841 441.769 274.663C442.72 289.023 448.41 300.881 454.185 300.493C455.504 300.41 456.767 299.697 457.933 298.367C461.781 293.988 463.806 284.163 463.09 273.341C462.152 259.195 456.618 247.504 450.929 247.504H450.932Z" fill="#3C1C54"/>
<path d="M450.612 246.487C452.152 246.384 453.692 246.981 455.176 248.228C456.663 249.478 458.071 251.365 459.315 253.781C461.805 258.611 463.6 265.466 464.117 273.27C464.485 278.835 464.129 284.155 463.177 288.654C462.222 293.164 460.678 296.8 458.707 299.042H458.706C457.414 300.514 456.014 301.31 454.545 301.487L454.253 301.513C454.145 301.52 454.037 301.523 453.93 301.523H453.787C450.796 301.44 447.814 298.74 445.41 293.959C443.066 289.297 441.363 282.82 440.796 275.447L440.745 274.73C440.378 269.167 440.732 263.847 441.685 259.349C442.639 254.839 444.184 251.203 446.155 248.959V248.958C447.534 247.388 449.034 246.587 450.611 246.487H450.612ZM450.633 247.012C449.146 247.109 447.771 247.914 446.55 249.306C444.543 251.59 443.051 255.239 442.146 259.633C441.238 264.039 440.909 269.247 441.27 274.696C441.749 281.926 443.421 288.545 445.717 293.325C446.864 295.713 448.179 297.667 449.6 299.004C451.019 300.341 452.587 301.101 454.219 300.992L454.218 300.991C455.708 300.896 457.084 300.091 458.308 298.697L458.309 298.698C460.315 296.414 461.808 292.765 462.713 288.371C463.621 283.964 463.95 278.757 463.589 273.307C463.117 266.185 461.487 259.663 459.243 254.905C458.122 252.527 456.837 250.568 455.448 249.196C454.062 247.826 452.53 247.003 450.929 247.003C450.846 247.003 450.741 247.004 450.633 247.012Z" stroke="#AE72FF" stroke-opacity="0.7"/>
<path d="M459.54 386.738C459.429 386.738 459.322 386.713 459.214 386.665L458.588 386.371C458.557 386.357 458.522 386.339 458.495 386.319L375.547 331.754L292.16 326.032C292.111 326.028 292.066 326.021 292.021 326.008L255.588 316.563C255.522 316.546 255.46 316.522 255.401 316.487L238.049 306.569C237.949 306.51 237.862 306.43 237.8 306.34C234.308 304.1 231.64 297.304 231.1 289.151C230.529 280.552 232.433 273.237 235.831 270.924L235.918 270.848L252.736 258.201C252.788 258.163 252.843 258.132 252.902 258.108L287.962 243.616C288.003 243.599 288.048 243.585 288.097 243.574L369.141 226.479L444.119 161.387C444.434 161.114 444.912 161.145 445.188 161.456C445.323 161.609 445.4 161.816 445.389 162.017C445.379 162.218 445.292 162.419 445.14 162.554C425.961 179.462 415.348 225.067 418.722 276.027C422.103 327.07 438.676 371.003 459.965 385.342C460.298 385.564 460.398 386.004 460.204 386.353C460.066 386.599 459.806 386.738 459.54 386.738ZM292.333 324.512L375.848 330.242C375.979 330.252 376.104 330.293 376.215 330.366L451.065 379.606C433.367 360.562 420.172 321.043 417.195 276.131C414.244 231.548 421.988 190.956 436.824 169.741L369.989 227.764C369.892 227.85 369.775 227.909 369.647 227.933L288.478 245.053L253.574 259.482L236.79 272.111C236.765 272.132 236.741 272.15 236.714 272.167C233.82 274.095 232.097 281.199 232.616 289.051C233.128 296.754 235.772 303.557 238.908 305.225C239.015 305.281 239.101 305.36 239.171 305.454L256.062 315.109L292.326 324.508L292.333 324.512Z" fill="#3C1C54"/>
<path d="M444.447 161.764C444.555 161.671 444.719 161.681 444.814 161.788C444.867 161.847 444.893 161.928 444.89 161.992C444.885 162.073 444.85 162.142 444.81 162.178C435.104 170.735 427.624 186.486 422.986 206.408C418.345 226.348 416.533 250.539 418.223 276.06C419.916 301.623 424.913 325.417 432.16 344.625C439.4 363.816 448.913 378.501 459.686 385.757L459.688 385.758C459.797 385.831 459.838 385.981 459.767 386.11C459.722 386.188 459.636 386.238 459.54 386.238C459.506 386.238 459.469 386.231 459.422 386.209L458.801 385.918V385.917L458.791 385.914L458.781 385.909L458.77 385.901L375.821 331.336L375.712 331.264L375.581 331.255L292.194 325.533H292.195C292.184 325.532 292.177 325.531 292.173 325.531C292.171 325.53 292.17 325.53 292.169 325.53H292.168L292.157 325.526L292.146 325.524L255.714 316.08H255.715C255.686 316.072 255.667 316.064 255.654 316.056L255.649 316.053L238.302 306.136C238.261 306.112 238.23 306.082 238.211 306.055L238.154 305.973L238.07 305.919L237.769 305.712C236.269 304.612 234.892 302.554 233.809 299.781C232.659 296.838 231.867 293.153 231.6 289.119C231.317 284.861 231.648 280.937 232.461 277.806C233.28 274.653 234.564 272.391 236.112 271.337L236.138 271.32L236.161 271.299L236.234 271.234L253.037 258.601C253.055 258.588 253.073 258.578 253.093 258.57H253.094L288.153 244.078H288.154C288.164 244.073 288.179 244.067 288.199 244.063L288.2 244.064L369.244 226.968L369.371 226.942L369.469 226.857L444.447 161.764ZM436.496 169.363L369.661 227.386L369.656 227.391C369.641 227.405 369.625 227.416 369.607 227.424L369.554 227.442L369.543 227.444L288.374 244.563L288.329 244.573L288.286 244.59L253.383 259.02L253.324 259.044L253.273 259.083L236.489 271.712L236.477 271.721L236.464 271.732C236.462 271.734 236.458 271.736 236.448 271.743L236.437 271.75C235.619 272.295 234.92 273.179 234.338 274.281C233.753 275.387 233.27 276.742 232.899 278.27C232.158 281.325 231.855 285.116 232.117 289.083V289.084C232.376 292.979 233.175 296.657 234.312 299.583C235.439 302.479 236.939 304.744 238.673 305.667L238.678 305.669C238.707 305.684 238.737 305.709 238.769 305.751L238.831 305.835L238.923 305.888L255.813 315.543L255.872 315.577L255.937 315.593L292.147 324.979L292.198 325.004L292.299 325.011L375.813 330.741C375.862 330.745 375.903 330.759 375.94 330.784L450.79 380.024L451.431 379.265C442.649 369.816 434.955 355.25 429.084 337.413C423.216 319.583 419.18 298.517 417.694 276.098C416.221 253.843 417.418 232.591 420.831 214.264C424.246 195.93 429.873 180.555 437.234 170.028L436.496 169.363Z" stroke="#AE72FF" stroke-opacity="0.7"/>
<path d="M369.716 226.988L444.618 161.965L444.631 161.983C425.861 178.534 414.493 223.769 417.957 276.079C421.424 328.452 438.703 371.941 459.536 385.976L458.91 385.682L375.931 331.097L374.003 329.84C364.383 323.442 356.379 303.778 354.863 280.091C353.305 255.775 360.147 235.2 368.778 227.774L369.709 226.992L369.716 226.988Z" fill="#1F0433"/>
<path d="M438.446 167.984C431.674 176.885 426.209 189.844 422.47 205.505C417.701 225.477 415.723 249.914 417.458 276.112C419.195 302.341 424.39 326.357 431.768 345.583C437.643 360.894 444.919 373.21 452.969 381.175L376.206 330.679L376.204 330.678L374.279 329.423H374.28C369.596 326.308 365.238 319.906 361.859 311.267C358.487 302.645 356.116 291.858 355.361 280.059C354.586 267.954 355.903 256.789 358.48 247.736C361.063 238.667 364.895 231.774 369.104 228.153L369.104 228.152L369.985 227.412L369.996 227.407L370.044 227.366L438.446 167.984Z" stroke="#AE72FF" stroke-opacity="0.7"/>
<path d="M459.54 386.738C459.429 386.738 459.322 386.713 459.215 386.665L458.588 386.371C458.557 386.357 458.523 386.339 458.495 386.319L375.516 331.734L373.592 330.477C363.432 323.719 355.604 303.491 354.109 280.136C352.409 253.6 360.269 234.089 368.29 227.192L369.225 226.406L444.119 161.387C444.434 161.114 444.912 161.145 445.189 161.456C445.324 161.609 445.4 161.816 445.39 162.017C445.379 162.218 445.293 162.419 445.14 162.554C425.962 179.462 415.348 225.067 418.722 276.027C422.103 327.07 438.676 371.003 459.966 385.342C460.298 385.564 460.398 386.004 460.204 386.353C460.066 386.599 459.806 386.738 459.54 386.738ZM436.828 169.737L370.218 227.563C370.218 227.563 370.211 227.57 370.207 227.57L369.277 228.352C361.293 235.217 354.039 255.179 355.631 280.036C357.099 302.94 364.653 322.698 374.433 329.199L376.354 330.453L451.068 379.602C433.371 360.558 420.175 321.04 417.199 276.127C414.247 231.544 421.992 190.952 436.828 169.737Z" fill="#3C1C54"/>
<path d="M444.447 161.764C444.542 161.682 444.68 161.68 444.776 161.752L444.815 161.789C444.867 161.848 444.894 161.929 444.891 161.992C444.886 162.073 444.85 162.142 444.81 162.178C435.104 170.735 427.625 186.486 422.987 206.408C418.345 226.348 416.533 250.539 418.223 276.06C419.916 301.623 424.913 325.417 432.16 344.625C439.401 363.817 448.914 378.501 459.687 385.757L459.688 385.758C459.797 385.831 459.838 385.98 459.769 386.108C459.724 386.187 459.637 386.238 459.54 386.238C459.506 386.238 459.47 386.23 459.423 386.209L458.801 385.918V385.917L458.791 385.914C458.786 385.912 458.783 385.91 458.781 385.909L458.77 385.901L375.791 331.316L375.789 331.315L373.865 330.058C368.913 326.762 364.466 320.13 361.067 311.35C357.674 302.583 355.352 291.738 354.607 280.104C353.761 266.892 355.296 255.44 358.032 246.445C360.773 237.436 364.705 230.934 368.616 227.572L368.615 227.571L369.547 226.79L369.553 226.784L444.447 161.764ZM436.5 169.36L369.948 227.134L369.886 227.187L368.955 227.969L368.95 227.973C364.853 231.496 361.007 238.31 358.383 247.307C355.753 256.321 354.332 267.584 355.132 280.068C355.868 291.562 358.133 302.279 361.448 310.948C364.757 319.6 369.139 326.28 374.156 329.616L374.159 329.619L376.08 330.871L450.794 380.02L451.435 379.262C442.653 369.813 434.959 355.246 429.088 337.409C423.219 319.579 419.184 298.513 417.698 276.094C416.225 253.84 417.422 232.588 420.835 214.261C424.25 195.927 429.876 180.551 437.237 170.024L436.5 169.36Z" stroke="#AE72FF" stroke-opacity="0.7"/>
<path d="M254.844 316.054C254.716 316.054 254.585 316.023 254.467 315.954L238.053 306.572C237.953 306.513 237.866 306.434 237.804 306.344C234.312 304.104 231.644 297.308 231.104 289.155C230.533 280.555 232.437 273.24 235.835 270.928L235.921 270.851L252.74 258.205C253.076 257.952 253.557 258.021 253.809 258.357C254.062 258.693 253.996 259.171 253.657 259.427L236.797 272.115C236.773 272.136 236.749 272.153 236.721 272.17C233.828 274.099 232.104 281.203 232.627 289.054C233.136 296.757 235.783 303.56 238.918 305.229C239.026 305.284 239.112 305.364 239.181 305.457L255.228 314.628C255.595 314.836 255.72 315.303 255.512 315.67C255.37 315.916 255.114 316.054 254.848 316.054H254.844Z" fill="#3C1C54"/>
<path d="M253.041 258.604C253.155 258.519 253.323 258.542 253.41 258.658C253.496 258.773 253.475 258.937 253.356 259.027L236.496 271.716L236.483 271.725L236.472 271.735C236.47 271.737 236.467 271.74 236.456 271.747L236.449 271.751L236.443 271.755C235.626 272.299 234.927 273.183 234.345 274.284C233.76 275.39 233.278 276.746 232.907 278.273C232.213 281.137 231.903 284.648 232.085 288.345L232.128 289.088C232.385 292.982 233.183 296.66 234.321 299.586C235.448 302.482 236.95 304.748 238.684 305.671L238.689 305.673C238.718 305.688 238.748 305.713 238.779 305.755L238.842 305.84L238.934 305.891L254.98 315.062L254.982 315.063C255.103 315.132 255.15 315.29 255.077 315.422C255.027 315.507 254.94 315.554 254.848 315.554H254.844C254.796 315.554 254.754 315.543 254.721 315.523L254.715 315.52L238.306 306.14H238.307C238.266 306.117 238.234 306.087 238.215 306.059L238.158 305.976L238.074 305.923L237.772 305.716C236.273 304.615 234.896 302.558 233.812 299.785C232.735 297.026 231.971 293.614 231.659 289.874L231.604 289.122C231.321 284.864 231.652 280.941 232.465 277.809C233.284 274.656 234.568 272.394 236.116 271.341L236.142 271.323L236.165 271.302L236.238 271.237L253.041 258.604Z" stroke="#AE72FF" stroke-opacity="0.7"/>
<path d="M255.982 315.795C250.556 312.949 246.199 301.594 245.309 288.151C244.364 273.908 248.202 261.272 253.75 258.606L236.419 271.426L236.298 271.53C233.169 273.614 231.311 280.763 231.865 289.1C232.411 297.342 235.232 304.125 238.558 305.897L238.43 305.904L255.982 315.791V315.795Z" fill="#1F0433"/>
<path d="M249.239 262.564C248.21 264.314 247.325 266.461 246.615 268.897C245.062 274.233 244.335 281.012 244.811 288.184C245.258 294.946 246.578 301.197 248.478 306.127C249.544 308.893 250.805 311.275 252.219 313.098L240.169 306.311L240.375 306.3L238.793 305.456C237.288 304.654 235.809 302.652 234.633 299.737C233.539 297.027 232.739 293.603 232.421 289.826L232.363 289.066C232.089 284.941 232.413 281.124 233.185 278.094C233.963 275.037 235.17 272.882 236.575 271.946L236.601 271.93L236.623 271.909L236.73 271.816L249.239 262.564Z" stroke="#AE72FF" stroke-opacity="0.7"/>
<path d="M255.979 316.556C255.861 316.556 255.74 316.529 255.626 316.47C255.491 316.397 255.352 316.321 255.217 316.241L238.053 306.572C237.949 306.513 237.862 306.434 237.8 306.34C234.308 304.1 231.64 297.304 231.1 289.151C230.529 280.552 232.433 273.237 235.831 270.924L235.918 270.848L251.155 259.576C251.868 258.859 252.622 258.302 253.418 257.917C253.771 257.748 254.197 257.876 254.401 258.212C254.605 258.551 254.518 258.984 254.2 259.219L252.086 260.784C247.85 265.174 245.282 276.294 246.064 288.102C246.919 300.991 250.964 311.893 255.972 314.919L256.349 315.134C256.712 315.338 256.844 315.795 256.643 316.162C256.505 316.415 256.242 316.56 255.972 316.56L255.979 316.556ZM239.174 305.45L251.286 312.274C247.756 307.091 245.22 298.322 244.548 288.203C243.901 278.419 245.462 269.262 248.417 263.502L236.797 272.112C236.772 272.132 236.748 272.15 236.72 272.167C233.827 274.095 232.104 281.199 232.627 289.051C233.135 296.754 235.783 303.557 238.918 305.225C239.022 305.281 239.108 305.36 239.177 305.45H239.174Z" fill="#3C1C54"/>
<path d="M253.635 258.367C253.739 258.318 253.865 258.344 253.943 258.431L253.974 258.472C254.043 258.589 254.013 258.735 253.902 258.817L251.788 260.382L251.755 260.407L251.726 260.437C249.513 262.729 247.786 266.714 246.705 271.552C245.62 276.407 245.171 282.188 245.565 288.136C245.995 294.619 247.229 300.615 248.992 305.383C250.746 310.125 253.059 313.743 255.713 315.347L255.725 315.354L256.102 315.568L256.104 315.569C256.213 315.631 256.261 315.758 256.226 315.873L256.204 315.922C256.157 316.007 256.07 316.056 255.979 316.059V316.057C255.941 316.057 255.9 316.048 255.859 316.027C255.728 315.957 255.597 315.885 255.472 315.811L255.463 315.806L238.299 306.137H238.3C238.26 306.114 238.232 306.087 238.216 306.062L238.158 305.976L238.07 305.919L237.769 305.712C236.269 304.611 234.892 302.554 233.809 299.781C232.659 296.839 231.867 293.153 231.6 289.118C231.317 284.861 231.648 280.937 232.461 277.806C233.28 274.653 234.564 272.392 236.112 271.338L236.138 271.32L236.161 271.3L236.234 271.234L251.452 259.978L251.482 259.955L251.509 259.929C252.189 259.245 252.898 258.723 253.635 258.367ZM248.12 263.1L236.499 271.71L236.484 271.721L236.471 271.732C236.469 271.734 236.465 271.737 236.455 271.743L236.443 271.751C235.626 272.296 234.927 273.18 234.345 274.281C233.76 275.387 233.277 276.742 232.906 278.27C232.165 281.325 231.864 285.116 232.128 289.084C232.385 292.979 233.183 296.656 234.321 299.582C235.221 301.895 236.362 303.805 237.667 304.95H237.268L238.929 305.886L251.041 312.71L251.699 311.992C248.239 306.912 245.715 298.243 245.047 288.17C244.403 278.443 245.961 269.384 248.862 263.729L248.12 263.1Z" stroke="#AE72FF" stroke-opacity="0.7"/>
<path d="M290.883 324.924L292.451 325.267C283.9 323.473 276.701 306.247 275.331 285.589C273.936 264.519 279.733 246.621 288.256 244.319L287.083 244.804L253.844 258.561C248.245 261.13 244.358 273.825 245.307 288.151C246.224 301.975 250.972 313.593 256.606 316.02L290.883 324.924Z" fill="#1F0433"/>
<path d="M283.373 246.879C282.913 247.366 282.47 247.901 282.043 248.479C280.281 250.867 278.779 254.033 277.598 257.765C275.235 265.232 274.131 275.038 274.832 285.623C275.52 295.994 277.672 305.523 280.738 312.699C282.271 316.286 284.041 319.303 285.983 321.543C286.705 322.375 287.454 323.105 288.228 323.717L256.771 315.545C254.156 314.4 251.637 311.061 249.65 306.171C247.668 301.293 246.261 294.986 245.806 288.118C245.335 281.005 246.065 274.31 247.6 269.088C248.367 266.477 249.331 264.249 250.436 262.524C251.543 260.795 252.77 259.603 254.052 259.015L283.373 246.879Z" stroke="#AE72FF" stroke-opacity="0.7"/>
<path d="M292.45 326.029C292.398 326.029 292.347 326.022 292.295 326.011C292.257 326.004 292.215 325.994 292.177 325.983L290.724 325.668C290.724 325.668 290.703 325.665 290.696 325.662L256.418 316.757C256.38 316.747 256.346 316.737 256.308 316.719C250.328 314.144 245.493 302.414 244.552 288.203C243.59 273.697 247.452 260.659 253.532 257.869L286.131 244.374C286.758 244.025 287.401 243.762 288.062 243.582C288.453 243.478 288.855 243.692 288.983 244.073C289.111 244.454 288.924 244.869 288.55 245.025L286.664 245.804C279.404 249.945 274.843 266.593 276.095 285.537C277.449 305.984 284.494 322.684 292.506 324.498L292.616 324.523C293.028 324.613 293.288 325.018 293.201 325.43C293.125 325.79 292.807 326.032 292.457 326.032L292.45 326.029ZM256.854 315.296L287.204 323.183C280.719 317.204 275.715 302.882 274.573 285.641C273.486 269.259 276.791 254.49 282.498 247.532L254.138 259.271C248.718 261.757 245.164 274.428 246.071 288.106C246.957 301.511 251.49 312.928 256.858 315.3L256.854 315.296Z" fill="#3C1C54"/>
<path d="M288.19 244.065C288.329 244.028 288.465 244.104 288.509 244.232C288.553 244.365 288.489 244.509 288.357 244.563L286.474 245.342L286.444 245.354L286.417 245.37C284.5 246.463 282.797 248.359 281.342 250.843C279.884 253.33 278.658 256.436 277.704 259.99C275.797 267.099 274.967 276.053 275.597 285.57C276.276 295.836 278.385 305.18 281.343 312.199C282.822 315.708 284.519 318.653 286.37 320.844C288.218 323.03 290.248 324.5 292.396 324.986L292.398 324.987L292.51 325.01V325.011C292.651 325.042 292.742 325.181 292.712 325.326C292.69 325.432 292.604 325.51 292.502 325.528H292.45C292.442 325.528 292.424 325.528 292.393 325.521L292.384 325.519L292.309 325.501L292.283 325.495L290.829 325.179L290.827 325.178L290.821 325.177L256.544 316.273H256.543C256.52 316.267 256.516 316.265 256.515 316.264L256.506 316.26L256.243 316.14C253.537 314.837 250.999 311.476 249.003 306.634C246.954 301.662 245.519 295.232 245.051 288.17C244.573 280.966 245.295 274.141 246.881 268.785C247.674 266.107 248.679 263.809 249.848 262.019C251.018 260.226 252.334 258.968 253.74 258.323L286.322 244.837L286.35 244.825L286.375 244.811C286.966 244.481 287.571 244.234 288.19 244.065ZM282.307 247.07L253.946 258.809L253.938 258.813L253.93 258.817C252.451 259.495 251.147 260.843 250.038 262.639C248.926 264.441 247.986 266.732 247.251 269.356C245.781 274.606 245.116 281.252 245.572 288.139C246.018 294.884 247.382 301.142 249.319 306.025C250.288 308.466 251.405 310.576 252.631 312.233C253.854 313.886 255.207 315.117 256.656 315.758L256.782 315.572L256.729 315.78L287.078 323.667L287.543 322.815C284.388 319.907 281.55 314.921 279.358 308.474C277.17 302.039 275.64 294.192 275.071 285.608C274.531 277.458 275.083 269.716 276.477 263.156C277.872 256.586 280.101 251.241 282.884 247.848L282.307 247.07Z" stroke="#AE72FF" stroke-opacity="0.7"/>
<path d="M450.625 246.749C444.317 247.144 439.742 259.683 441.008 274.712C443.133 299.915 452.951 301.334 454.145 301.414C454.166 301.414 454.166 301.445 454.145 301.452L428.557 308.417C426.418 298.187 424.896 287.185 424.134 275.691C423.404 264.675 423.428 254.019 424.11 243.983L450.629 246.742L450.625 246.749Z" fill="#3C1C54"/>
<path d="M448.149 246.987C447.349 247.431 446.598 248.06 445.908 248.841C444.556 250.37 443.404 252.508 442.504 255.078C440.759 260.059 439.926 266.751 440.455 274.046L440.51 274.754C441.577 287.41 444.581 294.178 447.538 297.801C449.273 299.926 450.982 300.953 452.244 301.451L428.94 307.795C426.863 297.735 425.38 286.935 424.633 275.658C423.917 264.853 423.93 254.396 424.576 244.534L448.149 246.987Z" stroke="#AE72FF" stroke-opacity="0.7"/>
<path d="M428.557 309.183C428.419 309.183 428.28 309.144 428.159 309.068C427.979 308.957 427.855 308.781 427.81 308.573C425.612 298.073 424.121 287.026 423.373 275.743C422.657 264.921 422.65 254.22 423.349 243.935C423.363 243.727 423.46 243.537 423.619 243.402C423.778 243.266 423.982 243.201 424.19 243.228L450.705 245.988C451.1 246.029 451.397 246.365 451.39 246.763C451.383 247.161 451.072 247.483 450.674 247.507C449.307 247.594 447.995 248.352 446.774 249.765C442.905 254.248 440.894 264.246 441.77 274.642C443.843 299.25 453.141 300.58 454.197 300.649C454.571 300.673 454.889 300.981 454.92 301.355C454.955 301.729 454.695 302.092 454.332 302.186L428.754 309.148C428.689 309.165 428.619 309.176 428.554 309.176L428.557 309.183ZM424.82 244.828C424.176 254.805 424.204 265.167 424.896 275.643C425.619 286.572 427.048 297.277 429.138 307.469L451.414 301.407C447.75 299.621 441.853 293.784 440.25 274.777C439.326 263.831 441.434 253.621 445.621 248.771C446.175 248.131 446.753 247.597 447.352 247.175L424.82 244.828Z" fill="#3C1C54"/>
<path d="M424.124 243.724L424.138 243.726L450.652 246.484V246.485C450.789 246.499 450.893 246.615 450.891 246.754C450.888 246.889 450.784 247 450.644 247.008H450.643C449.195 247.1 447.851 247.858 446.637 249.168L446.396 249.438C444.38 251.773 442.886 255.49 442.002 259.887C441.115 264.297 440.83 269.443 441.271 274.684C442.312 287.041 445.173 293.635 447.974 297.159C450.788 300.699 453.514 301.105 454.164 301.148C454.294 301.156 454.412 301.273 454.422 301.397V301.449C454.409 301.561 454.32 301.673 454.207 301.702L454.2 301.704L428.627 308.665C428.595 308.673 428.569 308.675 428.554 308.675H428.504C428.476 308.669 428.449 308.66 428.425 308.645L428.378 308.61C428.338 308.573 428.31 308.524 428.298 308.467C426.106 297.992 424.618 286.97 423.872 275.71C423.202 265.585 423.154 255.566 423.726 245.898L423.848 243.968C423.852 243.897 423.885 243.831 423.942 243.783C424.001 243.733 424.066 243.716 424.124 243.724ZM424.32 244.795C423.675 254.796 423.703 265.18 424.396 275.676C425.121 286.627 426.554 297.354 428.648 307.569L428.756 308.091L429.27 307.952L451.546 301.889L452.829 301.541L451.634 300.958C448.199 299.283 442.345 293.664 440.749 274.736V274.735C440.291 269.304 440.585 264.064 441.509 259.589C442.435 255.105 443.984 251.433 446 249.098C446.531 248.484 447.079 247.979 447.64 247.583L448.729 246.816L447.403 246.678L424.871 244.331L424.354 244.277L424.32 244.795Z" stroke="#AE72FF" stroke-opacity="0.7"/>
<circle cx="556" cy="143" r="30.5" stroke="#AE72FF"/>
<path d="M550.039 162.395H545.299L551.309 124H556.049L550.039 162.395Z" fill="#3C1C54"/>
<path d="M541.461 139.871L542.108 135.363H572.795L572.152 139.871H541.461Z" fill="#3C1C54"/>
<path d="M540 150.111L540.643 145.607H571.33L570.688 150.111H540Z" fill="#3C1C54"/>
<path d="M561.38 162.395H556.64L562.65 124H567.39L561.38 162.395Z" fill="#3C1C54"/>
<circle cx="486.5" cy="84.5" r="41" fill="#1F0433" stroke="#AE72FF"/>
<path d="M487.43 103.398C487.057 103.63 486.585 103.642 486.201 103.425C482.868 101.561 467.412 92.2484 468.017 80.0678C468.656 67.1909 482.629 69.4239 486.079 75.7615C486.208 76.0012 486.467 76.1457 486.741 76.1305C487.015 76.1153 487.255 75.9479 487.361 75.6931C489.054 71.6227 494.52 68.6745 499.667 70.607C505.807 72.9123 512.046 88.14 487.433 103.394L487.43 103.398Z" fill="#3C1C54"/>
</svg>
