<svg width="679" height="534" viewBox="0 0 679 534" fill="none" xmlns="http://www.w3.org/2000/svg">
<rect x="90.4346" y="0.5" width="498" height="533" rx="28.175" fill="#1F0433" stroke="#AE72FF"/>
<circle cx="160.934" cy="69" r="37.5" stroke="#AE72FF"/>
<rect x="214.935" y="55" width="110" height="28" rx="5" fill="#2E1044"/>
<path d="M524.899 53.0151L519.934 48.1304L522.1 46L527.065 50.8847H550.403C551.249 50.8847 551.934 51.5592 551.934 52.3911C551.934 52.5377 551.912 52.6836 551.87 52.824L548.195 64.8752C548 65.5124 547.404 65.9488 546.728 65.9488H527.962V68.9616H544.805V71.9744H526.43C525.585 71.9744 524.899 71.2998 524.899 70.468V53.0151ZM527.196 78C525.928 78 524.899 76.9883 524.899 75.7404C524.899 74.4923 525.928 73.4808 527.196 73.4808C528.465 73.4808 529.493 74.4923 529.493 75.7404C529.493 76.9883 528.465 78 527.196 78ZM545.571 78C544.302 78 543.274 76.9883 543.274 75.7404C543.274 74.4923 544.302 73.4808 545.571 73.4808C546.839 73.4808 547.867 74.4923 547.867 75.7404C547.867 76.9883 546.839 78 545.571 78Z" fill="#AE72FF"/>
<path d="M484.188 69.0257L490.935 75.7722L488.707 78L481.96 71.2535C479.535 73.1943 476.458 74.3552 473.112 74.3552C465.286 74.3552 458.935 68.0037 458.935 60.1776C458.935 52.3516 465.286 46 473.112 46C480.938 46 487.29 52.3516 487.29 60.1776C487.29 63.5235 486.129 66.5999 484.188 69.0257ZM481.028 67.8569C482.954 65.8717 484.139 63.1637 484.139 60.1776C484.139 54.0852 479.205 49.1506 473.112 49.1506C467.02 49.1506 462.085 54.0852 462.085 60.1776C462.085 66.2701 467.02 71.2047 473.112 71.2047C476.098 71.2047 478.806 70.0193 480.791 68.093L481.028 67.8569Z" fill="#AE72FF"/>
<g opacity="0.21">
<path fill-rule="evenodd" clip-rule="evenodd" d="M151.585 68.896C149.919 67.7049 147.91 67.0514 145.837 67.0514C144.814 67.0514 143.992 67.8731 143.992 68.896C143.992 69.9188 144.814 70.7405 145.837 70.7405C147.91 70.7405 149.919 70.087 151.585 68.896ZM160.331 77.6413C159.139 79.308 158.486 81.3169 158.486 83.3897C158.486 84.4125 159.308 85.2342 160.331 85.2342C161.353 85.2342 162.175 84.4125 162.175 83.3897C162.175 81.3169 161.522 79.308 160.331 77.6413ZM169.076 68.896C170.743 70.087 172.751 70.7405 174.824 70.7405C175.847 70.7405 176.669 69.9188 176.669 68.896C176.669 67.8731 175.847 67.0514 174.824 67.0514C172.751 67.0514 170.743 67.7049 169.076 68.896ZM160.331 65.3731L156.808 68.896L160.331 72.4188L163.853 68.896L160.331 65.3731ZM162.788 62.7976C164.683 60.4271 165.733 57.4669 165.733 54.4023C165.733 51.3376 163.318 49 160.331 49C157.343 49 154.928 51.415 154.928 54.4023C154.928 57.3896 155.978 60.4271 157.873 62.7976L154.234 66.4365C151.864 64.5417 148.903 63.4918 145.839 63.4918C142.774 63.4918 140.435 65.9087 140.435 68.896C140.435 71.8833 142.85 74.2982 145.837 74.2982C148.824 74.2982 151.862 73.2483 154.232 71.3535L157.871 74.9924C155.976 77.3629 154.926 80.3231 154.926 83.3877C154.926 86.4524 157.341 88.79 160.329 88.79C163.316 88.79 165.731 86.375 165.731 83.3877C165.731 80.4004 164.681 77.3629 162.786 74.9924L166.425 71.3535C168.795 73.2483 171.756 74.2982 174.82 74.2982C177.885 74.2982 180.223 71.8833 180.223 68.896C180.223 65.9087 177.808 63.4937 174.82 63.4937C171.833 63.4937 168.795 64.5436 166.425 66.4385L162.786 62.7996L162.788 62.7976ZM160.331 52.5577C159.308 52.5577 158.486 53.3794 158.486 54.4023C158.486 56.475 159.139 58.4839 160.331 60.1506C161.522 58.4839 162.175 56.475 162.175 54.4023C162.175 53.3794 161.353 52.5577 160.331 52.5577Z" fill="#AE72FF"/>
</g>
<rect x="233.6" y="173.5" width="211.75" height="284.825" rx="28.175" fill="#1F0433" stroke="#AE72FF"/>
<rect x="466.7" y="173.5" width="211.75" height="284.825" rx="28.175" fill="#1F0433" stroke="#AE72FF"/>
<rect x="0.5" y="173.5" width="211.75" height="284.825" rx="28.175" fill="#1F0433" stroke="#AE72FF"/>
<rect x="25" y="381" width="162" height="28" rx="5" fill="#2E1044"/>
<rect x="258" y="381" width="162" height="28" rx="5" fill="#2E1044"/>
<rect x="492" y="381" width="162" height="28" rx="5" fill="#2E1044"/>
<rect x="25" y="199" width="162" height="158" rx="17" fill="#2E1044"/>
<rect x="258" y="199" width="162" height="158" rx="17" fill="#2E1044"/>
<rect x="492" y="199" width="162" height="158" rx="17" fill="#2E1044"/>
<path d="M141.258 291.675C143.699 292.467 145.039 295.089 144.248 297.533L137.142 319.5C136.4 321.792 133.94 323.048 131.651 322.306L130.424 321.908C127.561 320.979 125.992 317.906 126.918 315.042L133.842 293.643C134.548 291.457 136.893 290.26 139.076 290.968L141.258 291.675Z" fill="#BC8AFF" stroke="#512473"/>
<path d="M143.992 294.69C144.393 296.083 144.144 297.786 143.519 299.719L140.806 308.104L130.311 304.701L133.023 296.315C133.655 294.362 134.39 292.763 135.499 291.836C136.556 290.953 138.045 290.61 140.395 291.394C142.573 292.183 143.603 293.34 143.992 294.69Z" fill="#512473" stroke="#512473"/>
<mask id="path-18-inside-1_726_2271" fill="white">
<path d="M129.404 305.016C129.403 304.99 129.406 304.963 129.415 304.938L132.944 294.029C133.399 292.621 134.376 291.475 135.693 290.802C137.01 290.129 138.509 290.01 139.916 290.466L140.873 290.777C144.033 291.802 145.773 295.209 144.75 298.372L141.371 308.814C141.331 308.937 141.198 309.006 141.075 308.966C140.952 308.926 140.883 308.793 140.923 308.67L144.302 298.227C145.246 295.311 143.642 292.17 140.727 291.225L139.771 290.914C138.484 290.497 137.111 290.606 135.906 291.222C134.701 291.837 133.808 292.886 133.392 294.174L129.863 305.083C129.823 305.206 129.69 305.275 129.567 305.235C129.469 305.204 129.407 305.114 129.405 305.018L129.404 305.016Z"/>
</mask>
<path d="M129.404 305.016C129.403 304.99 129.406 304.963 129.415 304.938L132.944 294.029C133.399 292.621 134.376 291.475 135.693 290.802C137.01 290.129 138.509 290.01 139.916 290.466L140.873 290.777C144.033 291.802 145.773 295.209 144.75 298.372L141.371 308.814C141.331 308.937 141.198 309.006 141.075 308.966C140.952 308.926 140.883 308.793 140.923 308.67L144.302 298.227C145.246 295.311 143.642 292.17 140.727 291.225L139.771 290.914C138.484 290.497 137.111 290.606 135.906 291.222C134.701 291.837 133.808 292.886 133.392 294.174L129.863 305.083C129.823 305.206 129.69 305.275 129.567 305.235C129.469 305.204 129.407 305.114 129.405 305.018L129.404 305.016Z" fill="#512473"/>
<path d="M129.404 305.016L128.404 305.045L128.416 305.459L128.717 305.743L129.404 305.016ZM129.415 304.938L130.361 305.261L130.364 305.253L130.367 305.245L129.415 304.938ZM132.944 294.029L133.895 294.337L133.895 294.337L132.944 294.029ZM139.916 290.466L139.607 291.417L139.608 291.418L139.916 290.466ZM140.873 290.777L141.181 289.825L141.181 289.825L140.873 290.777ZM144.75 298.372L143.798 298.064L143.798 298.064L144.75 298.372ZM141.371 308.814L142.322 309.123L142.322 309.122L141.371 308.814ZM140.923 308.67L141.874 308.978L141.875 308.978L140.923 308.67ZM144.302 298.227L145.253 298.535L145.253 298.535L144.302 298.227ZM140.727 291.225L141.036 290.273L141.036 290.273L140.727 291.225ZM139.771 290.914L139.462 291.866L139.462 291.866L139.771 290.914ZM133.392 294.174L134.343 294.482L134.343 294.482L133.392 294.174ZM129.863 305.083L130.814 305.391L130.814 305.391L129.863 305.083ZM129.567 305.235L129.876 304.284L129.872 304.282L129.567 305.235ZM129.405 305.018L130.404 304.989L130.392 304.575L130.091 304.291L129.405 305.018ZM129.404 305.016L130.403 304.988C130.405 305.068 130.395 305.162 130.361 305.261L129.415 304.938L128.469 304.614C128.417 304.764 128.4 304.912 128.404 305.045L129.404 305.016ZM129.415 304.938L130.367 305.245L133.895 294.337L132.944 294.029L131.992 293.721L128.464 304.63L129.415 304.938ZM132.944 294.029L133.895 294.337C134.269 293.182 135.067 292.245 136.148 291.693L135.693 290.802L135.238 289.912C133.684 290.705 132.529 292.061 131.992 293.721L132.944 294.029ZM135.693 290.802L136.148 291.693C137.228 291.141 138.453 291.043 139.607 291.417L139.916 290.466L140.225 289.515C138.565 288.977 136.791 289.118 135.238 289.912L135.693 290.802ZM139.916 290.466L139.608 291.418L140.564 291.728L140.873 290.777L141.181 289.825L140.224 289.515L139.916 290.466ZM140.873 290.777L140.564 291.728C143.2 292.583 144.652 295.427 143.798 298.064L144.75 298.372L145.701 298.68C146.895 294.992 144.867 291.021 141.181 289.825L140.873 290.777ZM144.75 298.372L143.798 298.064L140.42 308.506L141.371 308.814L142.322 309.122L145.701 298.679L144.75 298.372ZM141.371 308.814L140.42 308.506C140.548 308.109 140.976 307.882 141.384 308.015L141.075 308.966L140.766 309.917C141.421 310.129 142.114 309.766 142.322 309.123L141.371 308.814ZM141.075 308.966L141.384 308.015C141.781 308.144 142.006 308.571 141.874 308.978L140.923 308.67L139.972 308.361C139.76 309.015 140.123 309.708 140.766 309.917L141.075 308.966ZM140.923 308.67L141.875 308.978L145.253 298.535L144.302 298.227L143.351 297.919L139.972 308.362L140.923 308.67ZM144.302 298.227L145.253 298.535C146.367 295.093 144.475 291.389 141.036 290.273L140.727 291.225L140.419 292.176C142.808 292.951 144.124 295.528 143.351 297.919L144.302 298.227ZM140.727 291.225L141.036 290.273L140.079 289.963L139.771 290.914L139.462 291.866L140.419 292.176L140.727 291.225ZM139.771 290.914L140.079 289.963C138.54 289.464 136.893 289.595 135.451 290.331L135.906 291.222L136.361 292.112C137.33 291.618 138.428 291.53 139.462 291.866L139.771 290.914ZM135.906 291.222L135.451 290.331C134.01 291.068 132.938 292.326 132.44 293.867L133.392 294.174L134.343 294.482C134.678 293.446 135.392 292.607 136.361 292.112L135.906 291.222ZM133.392 294.174L132.44 293.866L128.911 304.775L129.863 305.083L130.814 305.391L134.343 294.482L133.392 294.174ZM129.863 305.083L128.912 304.774C129.04 304.378 129.468 304.151 129.876 304.284L129.567 305.235L129.258 306.186C129.913 306.398 130.606 306.034 130.814 305.391L129.863 305.083ZM129.567 305.235L129.872 304.282C130.199 304.387 130.395 304.684 130.404 304.989L129.405 305.018L128.405 305.046C128.419 305.544 128.739 306.02 129.262 306.187L129.567 305.235ZM129.405 305.018L130.091 304.291L130.09 304.29L129.404 305.016L128.717 305.743L128.718 305.744L129.405 305.018Z" fill="#512473" mask="url(#path-18-inside-1_726_2271)"/>
<mask id="path-20-inside-2_726_2271" fill="white">
<path d="M125.766 317.258C125.749 316.637 125.834 316.004 126.036 315.38L129.414 304.938C129.454 304.815 129.587 304.746 129.71 304.786C129.833 304.826 129.902 304.959 129.862 305.082L126.484 315.525C125.614 318.211 127.092 321.106 129.777 321.976L130.989 322.369C132.32 322.8 133.738 322.687 134.983 322.051C136.227 321.415 137.151 320.331 137.581 319.001L140.923 308.67C140.963 308.547 141.096 308.478 141.219 308.518C141.342 308.558 141.411 308.691 141.371 308.814L138.029 319.145C137.56 320.596 136.554 321.777 135.196 322.47C133.84 323.163 132.293 323.286 130.844 322.816L129.632 322.423C127.323 321.675 125.833 319.555 125.766 317.256L125.766 317.258Z"/>
</mask>
<path d="M125.766 317.258C125.749 316.637 125.834 316.004 126.036 315.38L129.414 304.938C129.454 304.815 129.587 304.746 129.71 304.786C129.833 304.826 129.902 304.959 129.862 305.082L126.484 315.525C125.614 318.211 127.092 321.106 129.777 321.976L130.989 322.369C132.32 322.8 133.738 322.687 134.983 322.051C136.227 321.415 137.151 320.331 137.581 319.001L140.923 308.67C140.963 308.547 141.096 308.478 141.219 308.518C141.342 308.558 141.411 308.691 141.371 308.814L138.029 319.145C137.56 320.596 136.554 321.777 135.196 322.47C133.84 323.163 132.293 323.286 130.844 322.816L129.632 322.423C127.323 321.675 125.833 319.555 125.766 317.256L125.766 317.258Z" fill="#512473"/>
<path d="M126.036 315.38L125.085 315.073L125.085 315.073L126.036 315.38ZM129.414 304.938L128.463 304.629L128.462 304.63L129.414 304.938ZM129.862 305.082L128.911 304.774L128.91 304.774L129.862 305.082ZM126.484 315.525L127.435 315.833L127.436 315.832L126.484 315.525ZM129.777 321.976L130.086 321.024L130.086 321.024L129.777 321.976ZM130.989 322.369L130.681 323.32L130.681 323.32L130.989 322.369ZM137.581 319.001L138.533 319.309L138.533 319.309L137.581 319.001ZM140.923 308.67L139.972 308.362L139.972 308.362L140.923 308.67ZM141.371 308.814L140.42 308.506L140.419 308.507L141.371 308.814ZM138.029 319.145L137.078 318.837L137.078 318.838L138.029 319.145ZM135.196 322.47L134.742 321.579L134.741 321.579L135.196 322.47ZM130.844 322.816L130.535 323.767L130.535 323.767L130.844 322.816ZM129.632 322.423L129.941 321.471L129.94 321.471L129.632 322.423ZM125.766 317.258L126.766 317.229C126.751 316.721 126.822 316.202 126.988 315.688L126.036 315.38L125.085 315.073C124.847 315.807 124.746 316.554 124.767 317.287L125.766 317.258ZM126.036 315.38L126.988 315.688L130.365 305.246L129.414 304.938L128.462 304.63L125.085 315.073L126.036 315.38ZM129.414 304.938L130.365 305.246C130.237 305.643 129.809 305.87 129.401 305.737L129.71 304.786L130.019 303.835C129.364 303.622 128.671 303.986 128.463 304.629L129.414 304.938ZM129.71 304.786L129.401 305.737C129.004 305.608 128.779 305.181 128.911 304.774L129.862 305.082L130.813 305.391C131.025 304.737 130.662 304.044 130.019 303.835L129.71 304.786ZM129.862 305.082L128.91 304.774L125.533 315.217L126.484 315.525L127.436 315.832L130.813 305.39L129.862 305.082ZM126.484 315.525L125.533 315.217C124.493 318.428 126.259 321.887 129.469 322.927L129.777 321.976L130.086 321.024C127.926 320.325 126.736 317.994 127.435 315.833L126.484 315.525ZM129.777 321.976L129.469 322.927L130.681 323.32L130.989 322.369L131.298 321.418L130.086 321.024L129.777 321.976ZM130.989 322.369L130.681 323.32C132.264 323.833 133.956 323.698 135.438 322.942L134.983 322.051L134.528 321.161C133.519 321.676 132.376 321.767 131.297 321.417L130.989 322.369ZM134.983 322.051L135.438 322.942C136.919 322.185 138.02 320.891 138.533 319.309L137.581 319.001L136.63 318.693C136.281 319.771 135.536 320.646 134.528 321.161L134.983 322.051ZM137.581 319.001L138.533 319.309L141.875 308.978L140.923 308.67L139.972 308.362L136.63 318.693L137.581 319.001ZM140.923 308.67L141.874 308.978C141.746 309.375 141.318 309.602 140.91 309.469L141.219 308.518L141.528 307.567C140.874 307.355 140.18 307.719 139.972 308.362L140.923 308.67ZM141.219 308.518L140.91 309.469C140.513 309.34 140.288 308.913 140.42 308.506L141.371 308.814L142.322 309.123C142.534 308.469 142.171 307.776 141.528 307.567L141.219 308.518ZM141.371 308.814L140.419 308.507L137.078 318.837L138.029 319.145L138.981 319.453L142.322 309.122L141.371 308.814ZM138.029 319.145L137.078 318.838C136.691 320.035 135.863 321.007 134.742 321.579L135.196 322.47L135.651 323.36C137.245 322.547 138.43 321.156 138.981 319.453L138.029 319.145ZM135.196 322.47L134.741 321.579C133.621 322.152 132.35 322.253 131.152 321.865L130.844 322.816L130.535 323.767C132.237 324.319 134.058 324.174 135.651 323.36L135.196 322.47ZM130.844 322.816L131.152 321.865L129.941 321.471L129.632 322.423L129.323 323.374L130.535 323.767L130.844 322.816ZM129.632 322.423L129.94 321.471C128.048 320.858 126.82 319.119 126.766 317.227L125.766 317.256L124.767 317.285C124.845 319.992 126.598 322.491 129.324 323.374L129.632 322.423ZM125.766 317.256L124.767 317.285L124.767 317.287L125.766 317.258L126.766 317.229L126.766 317.227L125.766 317.256Z" fill="#512473" mask="url(#path-20-inside-2_726_2271)"/>
<path fill-rule="evenodd" clip-rule="evenodd" d="M379.98 309.848C381.014 311.837 381.951 313.719 382.977 315.548C383.69 316.815 384.351 318.046 384.181 319.571C383.887 322.203 381.817 323.389 379.498 322.131C377.348 320.963 375.635 319.286 374.235 317.288C373.682 316.494 373.138 315.7 372.415 314.647C371.817 315.503 371.3 316.155 370.881 316.859C369.587 319.027 368.437 321.284 366.599 323.068C365.136 324.486 362.79 324.513 361.309 323.184C360.265 322.256 360.149 321.105 360.497 319.883C360.952 318.287 361.496 316.717 362.005 315.129C362.103 314.817 362.192 314.495 362.353 313.942C361.425 314.174 360.676 314.371 359.917 314.54C356.376 315.352 352.754 315.566 349.15 315.512C344.342 315.441 339.534 315.173 334.726 314.933C331.524 314.763 328.312 314.585 325.128 314.228C320.846 313.746 316.662 312.801 312.693 311.052C309.927 309.83 307.706 307.912 306.261 305.316C304.852 302.774 303.745 300.053 302.613 297.377C301.649 295.111 300.811 292.792 299.945 290.482C297.635 284.273 296.324 277.841 295.592 271.267C295.494 270.411 295.467 269.545 295.307 268.707C295.012 267.137 295.405 265.772 296.404 264.568C297.349 263.426 298.563 262.677 299.972 262.293C301.399 261.909 302.862 261.624 304.414 261.276C304.352 260.072 303.558 259.135 302.934 258.163C300.588 254.568 297.983 251.142 296.208 247.191C295.681 246.022 295.262 244.88 295.226 243.578C295.2 242.802 294.941 242.026 294.754 241.062C294.076 241.125 293.46 241.107 292.88 241.241C290.659 241.713 288.929 241.062 287.715 239.118C287.234 238.342 286.69 237.583 286.342 236.754C285.655 235.112 286.029 233.551 287.234 232.311C288.304 231.214 289.446 230.099 290.748 229.323C293.184 227.887 295.744 226.584 298.331 225.38C299.892 224.649 301.426 225.014 302.818 226.121C305.467 228.226 306.422 231.098 305.351 234.336C305.092 235.13 305.28 235.621 306.047 235.746C307.911 236.058 309.053 237.307 310.07 238.725C311.631 240.911 313.183 243.114 314.753 245.3C316.484 247.717 318.232 250.134 319.972 252.552C321.613 254.818 323.254 257.075 324.896 259.322C329.383 258.796 333.763 259.581 338.161 259.697C338.963 259.715 339.757 259.768 340.56 259.813C346.911 260.188 353.272 260.446 359.614 260.964C364.681 261.374 369.757 261.856 374.681 263.319C377.625 264.193 379.079 265.709 379.186 268.796C379.248 270.616 379.07 272.462 378.784 274.273C378.026 279.081 377.143 283.863 376.322 288.662C376.278 288.92 376.26 289.179 376.188 289.866C376.929 289.179 377.375 288.769 377.821 288.35C378.49 287.716 379.15 287.083 379.819 286.458C380.907 285.433 382.138 285.629 383.351 286.146C384.056 286.45 384.359 287.11 384.288 287.841C384.181 288.974 384.074 290.125 383.815 291.231C383.164 294.032 381.978 296.637 380.693 299.206C380.524 299.545 380.443 299.946 380.256 300.517C381.683 300.794 383.004 301.034 384.324 301.302C385.439 301.525 386.581 301.703 387.669 302.034C388.418 302.257 389.159 302.622 389.81 303.068C391.014 303.889 391.38 305.504 390.559 306.69C389.774 307.823 388.784 308.84 387.303 309.018C385.26 309.259 383.2 309.429 381.157 309.643C380.836 309.678 380.515 309.759 379.997 309.857L379.98 309.848ZM363.396 301.338C362.683 299.34 361.907 297.493 361.372 295.584C360.881 293.827 360.444 292.016 360.337 290.205C360.194 287.689 362.594 286.289 364.859 287.431C365.404 287.707 365.966 288.091 366.349 288.564C367.678 290.205 368.945 291.909 370.23 293.586C370.702 294.201 371.166 294.826 371.826 295.691C372.763 294.273 373.842 293.184 374.253 291.882C375.002 289.491 375.421 286.985 375.849 284.505C376.447 281.008 376.929 277.484 377.464 273.979C377.714 272.355 377.999 270.741 377.669 269.001C377.357 269.055 377.098 269.037 376.938 269.153C375.412 270.259 373.655 270.883 371.853 271.124C368.285 271.588 364.69 272.043 361.095 272.105C351.006 272.284 340.917 272.132 330.846 271.526C326.787 271.285 322.737 270.955 318.687 270.643C314.459 270.321 310.24 269.858 306.002 269.697C302.88 269.581 299.856 269.26 296.975 268.02C296.912 267.993 296.796 268.109 296.636 268.189C296.636 268.439 296.609 268.725 296.636 269.001C297.358 276.735 298.768 284.326 301.703 291.561C303.228 295.325 304.718 299.117 306.413 302.81C307.733 305.682 309.874 307.921 312.684 309.446C316.591 311.57 320.935 312.247 325.226 312.818C329.927 313.443 334.699 313.577 339.445 313.889C344.012 314.192 348.597 314.174 353.165 313.889C355.555 313.737 357.946 313.363 360.31 312.934C361.434 312.729 362.62 312.381 363.396 310.972C362.38 310.74 361.514 310.535 360.649 310.356C358.579 309.928 356.492 309.571 354.44 309.063C353.058 308.724 352.13 307.832 351.996 306.315C351.871 304.861 352.522 303.684 353.994 303.042C354.877 302.658 355.832 302.381 356.786 302.23C358.927 301.882 361.095 301.65 363.414 301.347L363.396 301.338ZM331.47 270.089C330.56 268.939 329.775 267.904 328.946 266.905C328.063 265.852 327.046 264.898 326.252 263.792C323.477 259.938 320.792 256.022 318.045 252.159C315.065 247.958 312.041 243.783 309.044 239.59C308.25 238.484 307.314 237.628 305.904 237.396C303.986 237.075 303.183 235.746 304.04 233.846C305.11 231.455 304.12 229.653 302.72 227.869C301.935 226.87 300.873 226.486 299.678 226.656C298.848 226.772 298.01 227.057 297.242 227.414C295.949 228.012 294.647 228.654 293.451 229.421C291.872 230.447 290.347 231.562 288.884 232.748C288.019 233.453 287.546 234.452 287.644 235.639C287.867 238.377 290.231 240.259 292.934 239.849C295.637 239.439 296.341 239.947 296.689 242.623C296.761 243.185 296.761 243.765 296.841 244.336C296.903 244.836 296.93 245.389 297.135 245.826C298.036 247.681 298.866 249.581 299.954 251.321C302.934 256.066 306.038 260.732 309.071 265.442C310.953 268.368 311.801 268.894 315.271 269.18C315.324 269.18 315.387 269.18 315.44 269.188C318.687 269.492 321.925 269.858 325.172 270.072C327.153 270.205 329.151 270.098 331.461 270.098L331.47 270.089ZM363.022 302.899C361.487 303.042 359.944 303.149 358.41 303.345C357.331 303.479 356.251 303.657 355.216 303.96C353.816 304.371 353.281 305.066 353.316 306.066C353.361 307.261 354.191 307.743 355.181 308.019C356.171 308.296 357.17 308.581 358.187 308.742C359.998 309.027 361.826 309.206 363.637 309.455C365.091 309.661 365.261 309.982 364.752 311.391C363.851 313.871 362.924 316.333 362.049 318.822C361.826 319.455 361.71 320.151 361.666 320.82C361.612 321.721 362.085 322.319 362.95 322.64C364.074 323.059 365.323 322.729 366.269 321.507C367.25 320.249 368.151 318.911 368.972 317.546C369.855 316.083 370.595 314.54 371.434 313.05C371.612 312.729 371.915 312.31 372.201 312.274C372.469 312.247 372.861 312.622 373.057 312.908C373.887 314.139 374.618 315.45 375.475 316.663C376.706 318.411 378.133 319.981 380.078 320.954C380.756 321.293 381.487 321.534 382.174 320.963C382.87 320.392 383.039 319.571 382.861 318.786C382.674 317.965 382.326 317.145 381.897 316.413C380.55 314.103 379.757 311.445 377.749 309.527C377.714 309.491 377.678 309.438 377.651 309.384C377.357 308.795 377.535 308.358 378.16 308.198C378.481 308.117 378.847 308.135 379.177 308.198C381.826 308.635 384.422 308.046 387.027 307.734C388.311 307.582 389.56 306.387 389.614 305.53C389.676 304.549 388.704 303.595 387.205 303.202C384.654 302.533 382.085 301.962 379.418 302.016C378.079 302.042 377.901 301.525 378.579 300.285C379.56 298.474 380.595 296.672 381.353 294.763C382.067 292.97 382.495 291.052 382.986 289.17C383.182 288.43 383.164 287.672 382.335 287.226C381.487 286.771 380.765 287.038 380.14 287.636C377.375 290.312 374.636 293.006 372.718 296.396C371.764 298.091 371.407 298.082 370.328 296.423C369.989 295.896 369.703 295.316 369.337 294.808C368.089 293.104 366.849 291.374 365.52 289.732C364.645 288.653 363.227 288.189 362.513 288.644C361.407 289.34 361.407 290.508 361.621 291.57C362.237 294.603 363.057 297.582 364.583 300.33C364.958 300.999 365.511 301.909 365.314 302.48C364.966 303.479 363.807 302.863 362.995 302.881L363.022 302.899ZM326.082 260.661C326.296 261.142 326.403 261.508 326.609 261.811C327.215 262.712 327.831 263.613 328.509 264.461C329.9 266.2 331.345 267.904 332.737 269.634C333.379 270.428 334.173 270.625 335.154 270.616C336.929 270.607 338.705 270.714 340.48 270.767C349.873 271.035 359.275 271.187 368.651 270.437C371.139 270.241 373.512 269.626 375.68 268.377C377.446 267.36 377.419 266.004 375.617 265.058C375.011 264.746 374.342 264.532 373.682 264.363C372.406 264.032 371.13 263.649 369.837 263.479C365.297 262.891 360.765 262.222 356.198 261.865C349.918 261.374 343.62 261.142 337.322 260.794C335.547 260.696 333.781 260.5 332.014 260.473C330.096 260.446 328.161 260.286 326.082 260.661ZM309.909 268.742C308.75 267.003 307.751 265.674 306.939 264.247C306.288 263.096 305.378 262.65 304.156 262.757C302.39 262.908 300.614 263.123 299.071 264.077C298.411 264.487 297.492 264.862 297.572 265.79C297.662 266.851 298.616 267.199 299.508 267.476C302.818 268.493 306.27 268.136 309.909 268.751V268.742Z" fill="#512473"/>
<path fill-rule="evenodd" clip-rule="evenodd" d="M363.396 301.338C361.077 301.641 358.909 301.873 356.768 302.221C355.814 302.372 354.859 302.649 353.976 303.032C352.513 303.675 351.853 304.852 351.978 306.306C352.112 307.823 353.04 308.715 354.422 309.054C356.474 309.553 358.561 309.91 360.631 310.347C361.505 310.526 362.37 310.74 363.378 310.963C362.602 312.372 361.416 312.72 360.292 312.925C357.928 313.353 355.537 313.728 353.147 313.88C348.579 314.174 343.994 314.192 339.427 313.88C334.681 313.567 329.918 313.443 325.208 312.809C320.917 312.238 316.573 311.56 312.666 309.437C309.856 307.912 307.706 305.682 306.395 302.8C304.7 299.107 303.219 295.316 301.685 291.552C298.75 284.317 297.34 276.726 296.618 268.992C296.591 268.715 296.618 268.43 296.618 268.18C296.778 268.1 296.894 267.984 296.957 268.011C299.838 269.251 302.871 269.572 305.984 269.688C310.222 269.848 314.441 270.312 318.669 270.633C322.719 270.946 326.769 271.267 330.828 271.516C340.899 272.123 350.988 272.275 361.077 272.096C364.672 272.034 368.267 271.579 371.835 271.115C373.637 270.883 375.394 270.25 376.92 269.144C377.08 269.028 377.339 269.054 377.651 268.992C377.981 270.731 377.696 272.346 377.446 273.97C376.911 277.475 376.438 280.999 375.831 284.496C375.403 286.976 374.984 289.482 374.235 291.873C373.833 293.175 372.745 294.255 371.808 295.682C371.157 294.817 370.684 294.192 370.212 293.577C368.927 291.9 367.669 290.196 366.331 288.555C365.948 288.082 365.394 287.698 364.841 287.422C362.585 286.271 360.176 287.68 360.319 290.196C360.426 292.007 360.854 293.818 361.354 295.575C361.889 297.484 362.665 299.33 363.378 301.329L363.396 301.338Z" fill="#AE72FF"/>
<path fill-rule="evenodd" clip-rule="evenodd" d="M331.471 270.089C329.16 270.089 327.162 270.196 325.182 270.062C321.935 269.848 318.688 269.483 315.449 269.179C315.396 269.179 315.334 269.179 315.28 269.17C311.81 268.885 310.971 268.359 309.08 265.433C306.047 260.723 302.943 256.057 299.964 251.312C298.875 249.572 298.037 247.672 297.145 245.817C296.931 245.371 296.913 244.827 296.85 244.327C296.779 243.765 296.779 243.185 296.699 242.614C296.342 239.938 295.637 239.43 292.943 239.84C290.249 240.25 287.885 238.359 287.653 235.63C287.555 234.443 288.028 233.444 288.893 232.739C290.356 231.553 291.882 230.438 293.461 229.412C294.656 228.636 295.958 228.003 297.252 227.405C298.019 227.048 298.857 226.772 299.687 226.647C300.882 226.477 301.944 226.852 302.729 227.86C304.129 229.644 305.12 231.446 304.049 233.837C303.193 235.737 303.996 237.075 305.914 237.387C307.323 237.619 308.26 238.475 309.054 239.581C312.051 243.774 315.066 247.949 318.054 252.15C320.802 256.022 323.487 259.938 326.261 263.782C327.064 264.889 328.081 265.843 328.955 266.896C329.785 267.895 330.57 268.93 331.48 270.08L331.471 270.089Z" fill="#AE72FF"/>
<path fill-rule="evenodd" clip-rule="evenodd" d="M363.022 302.899C363.834 302.881 364.994 303.497 365.341 302.498C365.538 301.927 364.976 301.017 364.61 300.348C363.085 297.6 362.273 294.621 361.648 291.588C361.434 290.517 361.425 289.358 362.54 288.662C363.254 288.216 364.672 288.671 365.547 289.75C366.885 291.392 368.116 293.113 369.365 294.826C369.739 295.334 370.016 295.905 370.355 296.441C371.434 298.1 371.791 298.109 372.745 296.414C374.663 293.024 377.411 290.33 380.167 287.654C380.783 287.056 381.514 286.789 382.362 287.244C383.191 287.69 383.209 288.457 383.013 289.188C382.522 291.071 382.103 292.988 381.38 294.781C380.622 296.69 379.587 298.492 378.606 300.303C377.937 301.543 378.107 302.06 379.445 302.034C382.112 301.98 384.681 302.542 387.232 303.22C388.731 303.613 389.703 304.567 389.641 305.548C389.587 306.405 388.338 307.591 387.054 307.752C384.449 308.073 381.853 308.653 379.204 308.216C378.874 308.162 378.499 308.144 378.187 308.216C377.562 308.376 377.384 308.813 377.678 309.402C377.705 309.456 377.732 309.509 377.777 309.545C379.784 311.463 380.578 314.112 381.925 316.431C382.353 317.163 382.701 317.983 382.888 318.804C383.066 319.589 382.888 320.41 382.201 320.981C381.505 321.552 380.774 321.311 380.105 320.972C378.151 319.991 376.733 318.421 375.502 316.681C374.645 315.459 373.914 314.157 373.084 312.926C372.888 312.631 372.487 312.257 372.228 312.292C371.943 312.328 371.639 312.747 371.461 313.068C370.622 314.558 369.882 316.101 368.999 317.564C368.178 318.929 367.277 320.267 366.296 321.525C365.341 322.747 364.093 323.077 362.978 322.658C362.112 322.337 361.639 321.739 361.693 320.838C361.738 320.16 361.854 319.473 362.077 318.84C362.951 316.351 363.879 313.889 364.779 311.409C365.288 310 365.118 309.679 363.664 309.473C361.845 309.224 360.025 309.045 358.214 308.76C357.197 308.599 356.198 308.314 355.208 308.037C354.218 307.761 353.397 307.279 353.343 306.084C353.308 305.085 353.843 304.389 355.244 303.978C356.278 303.675 357.367 303.506 358.437 303.363C359.971 303.167 361.506 303.06 363.049 302.917L363.022 302.899Z" fill="#BC8AFF"/>
<path fill-rule="evenodd" clip-rule="evenodd" d="M326.083 260.661C328.161 260.286 330.097 260.438 332.015 260.474C333.79 260.5 335.556 260.697 337.322 260.795C343.611 261.143 349.918 261.375 356.198 261.865C360.756 262.222 365.297 262.882 369.837 263.48C371.14 263.649 372.406 264.033 373.682 264.363C374.342 264.532 375.011 264.746 375.618 265.059C377.42 266.004 377.455 267.36 375.68 268.377C373.513 269.626 371.14 270.241 368.651 270.438C359.267 271.187 349.873 271.035 340.48 270.768C338.705 270.714 336.93 270.607 335.155 270.616C334.173 270.616 333.371 270.429 332.737 269.635C331.337 267.904 329.892 266.201 328.509 264.461C327.831 263.614 327.224 262.713 326.609 261.812C326.404 261.508 326.297 261.134 326.083 260.661Z" fill="#512473"/>
<path fill-rule="evenodd" clip-rule="evenodd" d="M309.909 268.742C306.27 268.127 302.818 268.484 299.508 267.467C298.607 267.19 297.662 266.842 297.572 265.781C297.492 264.853 298.411 264.478 299.071 264.068C300.623 263.114 302.398 262.899 304.156 262.748C305.378 262.641 306.288 263.087 306.939 264.238C307.742 265.674 308.741 266.994 309.909 268.733V268.742Z" fill="#512473"/>
<path opacity="0.2" fill-rule="evenodd" clip-rule="evenodd" d="M362.799 307.751C360.605 307.153 358.276 307.234 356.1 306.573C355.02 306.243 354.066 305.69 353.745 304.771C353.432 305.119 353.299 305.548 353.317 306.056C353.361 307.251 354.191 307.733 355.181 308.01C356.171 308.286 357.17 308.572 358.187 308.732C359.998 309.018 361.827 309.196 363.637 309.446C364.101 309.508 364.422 309.589 364.645 309.713C364.61 309.169 365.083 308.429 364.645 308.072C364.306 307.796 363.218 307.867 362.799 307.751Z" fill="#512473"/>
<path fill-rule="evenodd" clip-rule="evenodd" d="M600.049 229.54C599.919 231.66 599.859 233.58 599.669 235.48C599.109 241.1 598.579 246.73 597.869 252.34C596.999 259.22 596.349 266.12 595.859 273.04C595.519 277.83 594.709 282.59 594.179 287.38C593.909 289.87 593.779 292.37 593.589 294.87C593.349 298 593.029 301.13 592.919 304.26C592.799 307.66 592.989 311.07 592.819 314.46C592.679 317.2 592.299 319.94 591.839 322.65C591.459 324.87 589.839 326.04 587.719 326.44C586.339 326.7 584.919 326.85 583.509 326.87C579.139 326.91 574.759 327.03 570.399 326.79C567.569 326.64 564.759 326.72 561.949 326.73C561.309 326.73 560.669 326.62 560.049 326.49C558.289 326.12 557.349 325.2 557.119 323.39C556.789 320.78 556.559 318.15 556.349 315.53C555.779 308.3 555.509 301.05 554.209 293.88C553.559 290.29 553.409 286.61 552.899 282.99C552.469 279.88 551.769 276.8 551.349 273.69C550.849 270 550.569 266.28 550.119 262.58C549.589 258.25 549.029 253.92 548.399 249.6C547.679 244.58 546.869 239.57 546.099 234.55C545.719 232.04 546.379 231.19 549.049 230.9C556.259 230.12 563.469 229.3 570.739 229.23C578.959 229.15 587.179 229.03 595.399 229C596.909 229 598.419 229.34 600.039 229.54H600.049ZM591.249 300.56C591.349 300 591.429 299.69 591.459 299.37C592.069 293.82 592.659 288.27 593.279 282.72C593.719 278.77 594.249 274.82 594.639 270.87C594.859 268.63 594.779 266.37 595.029 264.14C595.589 258.97 596.319 253.82 596.879 248.65C597.439 243.48 597.869 238.3 598.329 233.12C598.379 232.5 598.269 231.86 598.229 231.08C596.279 230.59 594.379 230.32 592.469 230.35C583.799 230.46 575.139 230.48 566.479 230.81C560.979 231.02 555.489 231.71 549.999 232.21C548.489 232.35 547.909 233.13 548.129 234.73C548.429 236.96 548.809 239.17 549.129 241.4C549.979 247.24 550.839 253.08 551.639 258.93C552.079 262.17 552.319 265.44 552.799 268.68C553.739 274.96 554.799 281.23 555.769 287.51C556.339 291.19 556.849 294.88 557.319 298.57C557.459 299.69 557.819 300.34 559.059 300.42C561.229 300.56 563.399 300.96 565.569 300.98C572.439 301.05 579.309 301.02 586.169 300.97C587.819 300.96 589.469 300.72 591.249 300.58V300.56ZM590.989 302.25C579.779 302.61 568.649 303.01 557.459 301.73C557.399 302.45 557.329 302.89 557.339 303.32C557.389 305.12 557.409 306.92 557.539 308.71C557.879 313.38 558.249 318.05 558.679 322.71C558.849 324.54 559.399 324.98 561.319 325.04C562.989 325.09 564.659 325.05 566.329 325.01C568.029 324.96 568.129 324.83 568.219 323.12C568.279 321.97 568.339 320.81 568.469 319.67C568.599 318.53 569.209 317.75 570.419 317.64C571.759 317.52 573.099 317.4 574.439 317.34C578.189 317.19 577.819 318.03 578.759 320.72C578.879 321.07 578.819 321.47 578.849 321.85C578.929 322.93 579.009 324.01 579.099 325.24C579.779 325.28 580.329 325.36 580.889 325.33C582.609 325.26 584.339 325.16 586.059 325.07C589.219 324.89 590.299 323.93 590.659 320.79C591.309 315.11 591.519 309.4 591.209 303.68C591.189 303.25 591.079 302.83 590.989 302.26V302.25ZM577.129 325.32C577.499 323.36 577.129 321.67 576.759 320.01C576.679 319.64 576.079 319.14 575.699 319.11C573.939 318.99 572.009 318.55 570.489 319.54C569.189 320.39 569.839 322.14 569.629 323.5C569.599 323.69 569.629 323.88 569.629 324.07C569.649 324.94 570.089 325.32 570.959 325.31C572.939 325.29 574.909 325.31 577.129 325.31V325.32Z" fill="#512473"/>
<path fill-rule="evenodd" clip-rule="evenodd" d="M591.249 300.56C589.469 300.7 587.819 300.94 586.169 300.95C579.299 301 572.429 301.03 565.569 300.96C563.399 300.94 561.229 300.54 559.059 300.4C557.819 300.32 557.459 299.67 557.319 298.55C556.849 294.86 556.339 291.17 555.769 287.49C554.799 281.21 553.729 274.95 552.799 268.66C552.319 265.42 552.079 262.15 551.639 258.91C550.839 253.06 549.979 247.22 549.129 241.38C548.809 239.16 548.439 236.94 548.129 234.71C547.909 233.11 548.489 232.32 549.999 232.19C555.489 231.69 560.979 231.01 566.479 230.79C575.139 230.46 583.809 230.44 592.469 230.33C594.379 230.31 596.279 230.57 598.229 231.06C598.269 231.84 598.379 232.48 598.329 233.1C597.869 238.28 597.429 243.46 596.879 248.63C596.319 253.8 595.589 258.95 595.029 264.12C594.789 266.35 594.869 268.62 594.639 270.85C594.249 274.81 593.719 278.75 593.279 282.7C592.659 288.25 592.069 293.8 591.459 299.35C591.429 299.66 591.349 299.98 591.249 300.54V300.56ZM576.349 285.14V285.16C577.379 285.16 578.399 285.18 579.429 285.16C581.439 285.12 581.779 284.86 582.129 282.93C582.369 281.62 582.479 280.28 582.679 278.96C583.199 275.41 583.769 271.86 584.249 268.31C584.629 265.45 584.939 262.58 585.229 259.71C585.749 254.54 586.249 249.37 586.709 244.19C586.839 242.8 586.229 242.22 584.809 242.15C584.489 242.13 584.169 242.15 583.849 242.16C580.579 242.23 577.309 242.31 574.039 242.36C573.019 242.38 571.999 242.26 570.979 242.31C567.839 242.48 564.709 242.75 561.569 242.87C559.539 242.95 559.089 243.4 559.449 245.44C559.709 246.89 559.959 248.34 560.209 249.8C561.119 254.98 561.999 260.17 562.949 265.34C564.059 271.4 565.249 277.44 566.379 283.49C566.679 285.11 567.089 285.51 568.849 285.45C571.349 285.37 573.849 285.25 576.349 285.14Z" fill="#AE72FF"/>
<path fill-rule="evenodd" clip-rule="evenodd" d="M590.989 302.25C591.079 302.82 591.189 303.24 591.209 303.67C591.519 309.39 591.309 315.09 590.659 320.78C590.299 323.92 589.219 324.88 586.059 325.06C584.339 325.16 582.609 325.26 580.889 325.32C580.339 325.34 579.779 325.26 579.099 325.23C579.009 323.99 578.919 322.91 578.849 321.84C578.819 321.46 578.879 321.05 578.759 320.71C577.819 318.03 578.189 317.19 574.439 317.33C573.099 317.38 571.759 317.5 570.419 317.63C569.209 317.74 568.599 318.53 568.469 319.66C568.339 320.8 568.279 321.96 568.219 323.11C568.129 324.82 568.029 324.96 566.329 325C564.659 325.05 562.989 325.08 561.319 325.03C559.399 324.97 558.849 324.53 558.679 322.7C558.249 318.04 557.889 313.37 557.539 308.7C557.409 306.91 557.389 305.11 557.339 303.31C557.329 302.88 557.399 302.44 557.459 301.72C568.649 303 579.779 302.6 590.989 302.24V302.25Z" fill="#AE72FF"/>
<path fill-rule="evenodd" clip-rule="evenodd" d="M577.129 325.32C574.919 325.32 572.939 325.31 570.959 325.32C570.089 325.32 569.649 324.95 569.629 324.08C569.629 323.89 569.589 323.69 569.629 323.51C569.839 322.16 569.189 320.4 570.489 319.55C572.009 318.55 573.949 319 575.699 319.12C576.089 319.15 576.679 319.64 576.759 320.02C577.119 321.68 577.499 323.37 577.129 325.33V325.32Z" fill="#AE72FF"/>
<path fill-rule="evenodd" clip-rule="evenodd" d="M576.349 285.14C573.849 285.24 571.349 285.37 568.849 285.45C567.089 285.5 566.679 285.1 566.379 283.49C565.249 277.44 564.059 271.4 562.949 265.34C561.999 260.17 561.119 254.98 560.209 249.8C559.949 248.35 559.699 246.9 559.449 245.44C559.089 243.4 559.529 242.95 561.569 242.87C564.709 242.75 567.839 242.47 570.979 242.31C571.999 242.26 573.019 242.38 574.039 242.36C577.309 242.31 580.579 242.23 583.849 242.16C584.169 242.16 584.489 242.13 584.809 242.15C586.229 242.22 586.839 242.8 586.709 244.19C586.249 249.37 585.749 254.54 585.229 259.71C584.939 262.58 584.629 265.45 584.249 268.31C583.769 271.87 583.199 275.41 582.679 278.96C582.489 280.28 582.369 281.62 582.129 282.93C581.779 284.86 581.439 285.12 579.429 285.16C578.399 285.18 577.379 285.16 576.349 285.16V285.14ZM580.339 283.31C580.469 282.69 580.609 282.21 580.679 281.72C581.189 278.16 581.699 274.61 582.179 271.05C582.729 267.04 583.319 263.04 583.769 259.02C584.279 254.43 584.679 249.84 585.089 245.24C585.189 244.15 584.919 243.89 583.769 243.83C582.999 243.79 582.229 243.9 581.459 243.91C577.159 243.95 572.849 243.91 568.559 244.04C566.149 244.11 563.739 244.43 561.239 244.65C561.239 245.54 561.149 246.24 561.249 246.92C561.909 251.11 562.559 255.3 563.329 259.46C564.169 264.01 565.139 268.53 566.029 273.06C566.619 276.09 567.179 279.12 567.689 282.16C567.849 283.13 568.229 283.7 569.289 283.66C572.939 283.54 576.589 283.42 580.329 283.3L580.339 283.31Z" fill="#512473"/>
<path fill-rule="evenodd" clip-rule="evenodd" d="M580.339 283.31C576.589 283.43 572.949 283.54 569.299 283.67C568.239 283.71 567.859 283.14 567.699 282.17C567.179 279.13 566.629 276.1 566.039 273.07C565.159 268.53 564.179 264.01 563.339 259.47C562.569 255.3 561.929 251.11 561.259 246.93C561.149 246.26 561.249 245.55 561.249 244.66C563.749 244.45 566.159 244.12 568.569 244.05C572.869 243.93 577.169 243.96 581.469 243.92C582.239 243.92 583.009 243.8 583.779 243.84C584.929 243.9 585.199 244.16 585.099 245.25C584.689 249.85 584.289 254.45 583.779 259.03C583.329 263.05 582.739 267.05 582.189 271.06C581.699 274.62 581.199 278.18 580.689 281.73C580.619 282.22 580.479 282.7 580.349 283.32L580.339 283.31Z" fill="#512473"/>
<path opacity="0.2" fill-rule="evenodd" clip-rule="evenodd" d="M584.379 297.39C580.959 297.75 577.529 297.93 574.089 297.99C570.679 298.05 567.199 298.22 563.799 297.94C560.869 297.7 558.039 297.05 555.489 295.54C555.049 295.28 554.669 294.94 554.319 294.55C554.859 297.67 555.209 300.8 555.489 303.95C567.889 305.54 580.569 305.58 592.949 303.7C593.049 301.38 593.249 299.07 593.439 296.76C590.349 296.96 587.279 297.08 584.379 297.39Z" fill="#512473"/>
<path opacity="0.2" fill-rule="evenodd" clip-rule="evenodd" d="M591.919 319.8C589.369 320.58 586.709 320.96 584.039 321.06C581.939 321.13 578.939 321.42 577.549 319.44C576.859 318.45 576.079 317.67 574.779 317.7C573.929 317.72 573.109 317.93 572.339 318.27C571.119 318.81 569.989 319.55 568.759 320.08C566.709 320.95 564.249 320.74 562.099 320.37C560.169 320.04 558.229 319.34 556.589 318.26C556.739 319.97 556.909 321.69 557.119 323.39C557.349 325.21 558.279 326.12 560.049 326.49C560.679 326.62 561.319 326.73 561.949 326.73C564.769 326.71 567.579 326.63 570.399 326.79C574.759 327.03 579.139 326.91 583.509 326.87C584.919 326.86 586.339 326.71 587.719 326.44C589.839 326.04 591.459 324.86 591.839 322.65C592.009 321.66 592.159 320.66 592.299 319.67C592.169 319.71 592.049 319.77 591.919 319.81V319.8Z" fill="#512473"/>
<path d="M109.9 312.545C104.573 314.362 99.1376 314.981 93.6365 314.415C89.3961 313.979 85.2795 313 81.3681 311.346C78.7584 310.243 76.4719 308.709 74.6436 306.546C74.4625 306.331 74.2796 306.119 73.856 305.626C73.6907 306.435 73.6016 306.933 73.4837 307.423C73.4175 307.7 73.3348 307.981 73.2037 308.232C73.0994 308.432 72.8277 308.528 72.5814 308.507C72.6887 308.927 72.8307 309.333 72.991 309.73C73.2303 309.605 73.5706 309.622 73.7307 309.837C73.9316 310.107 74.1101 310.402 74.2442 310.711C74.7301 311.837 75.5202 312.708 76.4535 313.472C80.3308 316.64 84.7269 318.795 89.6443 319.979C93.468 320.9 97.3653 321.126 101.303 320.825C103.021 320.694 104.749 320.346 106.428 319.905C111.082 318.683 115.402 316.695 119.354 313.842C119.553 313.698 119.74 313.55 119.924 313.398L120.211 307.097C117.169 309.542 113.671 311.259 109.9 312.545Z" fill="#AE72FF"/>
<path d="M124.142 305.997C124.129 305.162 124.223 304.32 124.131 303.488C123.972 303.503 123.887 303.487 123.861 303.517C122.738 304.862 121.514 306.045 120.207 307.096L119.921 313.397C121.927 311.738 123.096 309.572 124.008 307.196C124.049 307.089 124.078 306.973 124.089 306.859C124.115 306.572 124.146 306.283 124.142 305.997Z" fill="#AE72FF"/>
<path d="M73.856 305.627C73.6907 306.437 73.6016 306.934 73.4838 307.424C73.4175 307.701 73.3349 307.982 73.2037 308.233C73.0241 308.576 72.3643 308.611 72.1627 308.293C72.0133 308.058 71.8588 307.798 71.8132 307.528C71.6815 306.739 71.5567 305.942 71.5178 305.142C71.451 303.766 71.4523 302.383 71.4211 301.004C71.3057 295.772 71.1853 290.541 71.0731 285.309C70.9709 280.595 70.8737 275.88 70.7797 271.165C70.7238 268.406 70.6712 265.646 70.6396 262.886C70.6347 262.456 70.5232 262.115 70.2605 261.791C69.2588 260.544 68.9278 259.026 68.8524 257.471C68.7502 255.349 68.8056 253.214 68.7748 251.085C68.7532 249.617 69.0708 248.214 69.7729 246.91C70.0397 246.415 70.4282 245.913 70.8846 245.595C71.8881 244.893 72.9379 244.235 74.0289 243.686C76.5994 242.391 79.3392 241.599 82.1164 240.956C86.1375 240.025 90.1861 239.338 94.2872 239.008C98.1545 238.696 102.022 238.478 105.881 238.663C111.878 238.952 117.786 239.714 123.45 241.655C125.127 242.23 126.749 242.927 128.246 243.852C129.01 244.324 129.708 244.923 130.351 245.551C130.7 245.893 130.944 246.389 131.102 246.864C131.285 247.416 131.114 248.072 131.765 248.469C131.965 248.592 131.998 249.101 131.978 249.43C131.825 251.905 131.65 254.378 131.458 256.852C131.432 257.189 131.363 257.582 131.17 257.845C130.282 259.047 130.285 260.591 129.486 261.807C129.136 262.339 128.66 262.791 128.142 263.395C128.116 263.891 128.072 264.518 128.052 265.147C127.898 270.044 127.81 274.941 127.586 279.836C127.255 287.037 126.844 294.237 126.428 301.436C126.348 302.812 126.093 304.185 125.905 305.559C125.724 306.873 125.515 308.184 125.336 309.499C125.191 310.565 124.7 311.483 124.089 312.354C123.204 313.614 122.12 314.679 120.878 315.586C115.373 319.607 109.297 322.196 102.6 322.984C93.7961 324.02 85.646 322.299 78.2966 317.576C76.8592 316.653 75.5479 315.576 74.3747 314.332C73.5369 313.444 72.9788 312.402 72.7013 311.218C72.614 310.849 72.6654 310.423 72.7438 310.037C72.8229 309.638 73.4909 309.509 73.7324 309.836C73.9333 310.106 74.1118 310.402 74.246 310.711C74.7317 311.838 75.522 312.708 76.4552 313.472C80.3326 316.64 84.7286 318.795 89.646 319.979C93.4698 320.899 97.3671 321.126 101.305 320.825C103.022 320.693 104.751 320.346 106.43 319.905C111.084 318.683 115.404 316.695 119.356 313.841C121.719 312.135 123.018 309.789 124.013 307.197C124.054 307.09 124.083 306.974 124.094 306.859C124.12 306.572 124.151 306.284 124.147 305.996C124.134 305.161 124.228 304.319 124.136 303.487C123.977 303.502 123.892 303.486 123.866 303.516C120.133 307.99 115.296 310.702 109.903 312.543C104.577 314.36 99.141 314.979 93.64 314.413C89.3995 313.977 85.283 312.998 81.3716 311.344C78.7618 310.241 76.4753 308.707 74.6471 306.544C74.4625 306.332 74.2796 306.121 73.856 305.627ZM72.3085 269.356C72.1509 270.327 72.236 271.296 72.2792 272.26C72.4137 275.245 72.5581 278.228 72.6944 281.212C72.8235 284.024 72.9428 286.837 73.0719 289.649C73.2646 293.837 73.493 298.025 73.6322 302.218C73.6639 303.186 73.8512 304.022 74.4334 304.759C74.8185 305.247 75.1914 305.751 75.6223 306.197C77.2969 307.93 79.2735 309.239 81.5056 310.175C86.9948 312.479 92.7533 313.501 98.7878 313.296C103.647 313.133 108.286 311.944 112.772 309.996C116.865 308.22 120.35 305.61 123.265 302.209C124.025 301.323 124.417 300.387 124.47 299.22C124.603 296.34 124.855 293.462 125.037 290.583C125.57 282.118 126.094 273.652 126.614 265.187C126.629 264.929 126.736 264.609 126.477 264.492C124.76 265.075 123.126 265.691 121.459 266.184C117.252 267.428 112.935 267.897 108.617 268.323C105.503 268.631 102.385 268.652 99.267 268.646C93.8919 268.638 88.5568 268.33 83.3126 267.244C79.7108 266.498 76.223 265.46 72.9825 263.745C72.6883 263.59 72.3761 263.47 72.0001 263.302C71.7323 264.896 72.1108 266.341 72.1582 267.782C74.2233 269.314 76.5558 270.061 78.9546 270.623C82.2415 271.393 85.5475 272.074 88.9491 272.288C92.0511 272.483 95.1453 272.763 98.2499 272.907C99.9724 272.988 101.712 272.861 103.445 272.829C106.915 272.763 110.366 272.379 113.797 271.784C117.51 271.138 121.19 270.309 124.798 269.15C125.046 269.07 125.333 269.117 125.592 269.107C125.656 269.68 125.259 269.783 124.966 269.917C123.156 270.739 121.297 271.437 119.372 271.896C113.298 273.346 107.16 274.103 100.963 274.1C97.5586 274.098 94.1631 274.013 90.7783 273.664C87.7472 273.351 84.7231 273.028 81.7489 272.401C78.6068 271.739 75.4927 271.005 72.6999 269.384C72.6214 269.339 72.4954 269.369 72.3085 269.356ZM129.104 259.417C128.723 258.542 128.739 257.706 128.9 256.833C129.434 253.949 129.923 251.056 130.412 248.264C129.53 247.732 128.721 247.316 127.992 246.79C126.319 245.582 124.462 244.734 122.517 244.061C118.345 242.617 114.007 241.794 109.587 241.453C104.766 241.082 99.9233 241.039 95.0621 241.405C90.7268 241.731 86.4427 242.407 82.1945 243.384C78.4388 244.249 74.8288 245.544 71.4806 247.549C71.1935 247.722 70.9345 247.943 70.6689 248.137C71.0915 249.545 71.1672 250.907 71.099 252.301C70.9999 254.316 71.0201 256.335 70.8952 258.349C70.8038 259.816 71.3936 260.746 72.6934 261.302C73.7387 261.748 74.749 262.274 75.8018 262.701C80.8156 264.728 86.1204 265.646 91.5286 266.01C97.7938 266.432 104.08 266.431 110.379 265.714C114.064 265.294 117.715 264.709 121.315 263.73C124.183 262.95 126.674 261.482 129.104 259.417Z" fill="#512473"/>
<path d="M125.597 269.29C125.565 269.706 125.226 269.802 124.967 269.92C123.944 270.385 122.905 270.807 121.848 271.172L120.294 305.227C121.343 304.304 122.334 303.297 123.265 302.211C124.025 301.324 124.416 300.388 124.47 299.222C124.603 296.342 124.855 293.464 125.037 290.585C125.49 283.388 125.934 276.192 126.377 268.995C126.128 269.11 125.866 269.204 125.597 269.29Z" fill="#512473"/>
<path d="M119.373 271.899C113.299 273.35 107.162 274.107 100.965 274.103C97.5602 274.102 94.1647 274.017 90.7799 273.667C87.7488 273.354 84.7247 273.032 81.7505 272.405C78.6083 271.743 75.4943 271.009 72.7015 269.387C72.6215 269.341 72.4939 269.369 72.3069 269.358C72.1493 270.329 72.2344 271.298 72.2776 272.262C72.4122 275.247 72.5565 278.23 72.6928 281.214C72.8219 284.025 72.9412 286.839 73.0703 289.651C73.2631 293.839 73.4914 298.027 73.6306 302.22C73.6623 303.188 73.8497 304.024 74.4319 304.761C74.8169 305.249 75.1899 305.753 75.6207 306.199C77.2954 307.932 79.2719 309.241 81.504 310.177C86.9933 312.481 92.7517 313.503 98.7863 313.298C103.645 313.135 108.284 311.946 112.771 309.998C115.555 308.789 118.059 307.194 120.294 305.227L121.848 271.172C121.035 271.452 120.21 271.699 119.373 271.899Z" fill="#512473"/>
<path d="M121.459 266.185C117.252 267.429 112.935 267.898 108.617 268.325C105.503 268.632 102.385 268.654 99.2668 268.648C93.8917 268.64 88.5566 268.332 83.3124 267.246C79.7106 266.5 76.2228 265.462 72.9823 263.747C72.6881 263.592 72.3759 263.472 71.9999 263.303C71.7321 264.897 72.1106 266.343 72.158 267.784C74.2231 269.315 76.5556 270.063 78.9544 270.625C82.2413 271.394 85.5473 272.075 88.9489 272.29C92.0509 272.484 95.1451 272.765 98.2498 272.908C99.9722 272.988 101.712 272.863 103.445 272.83C106.915 272.765 110.365 272.381 113.797 271.785C116.52 271.313 119.225 270.739 121.899 270.01L122.082 265.989C121.875 266.055 121.668 266.123 121.459 266.185Z" fill="#AE72FF"/>
<path d="M126.477 264.492C124.976 265.002 123.537 265.532 122.084 265.99L121.9 270.011C122.871 269.747 123.838 269.462 124.799 269.154C125.047 269.074 125.334 269.121 125.593 269.111C125.601 269.177 125.6 269.236 125.597 269.29C125.866 269.206 126.128 269.111 126.377 268.997C126.455 267.728 126.536 266.458 126.614 265.189C126.629 264.929 126.734 264.611 126.477 264.492Z" fill="#AE72FF"/>
<path d="M117.785 252.966C111.752 253.966 105.705 254.26 100.008 254.039C95.8898 254.017 92.1462 253.881 88.4327 253.448C84.6662 253.009 80.9343 252.402 77.2812 251.434C76.1666 251.138 75.1302 250.677 74.1787 250.047C73.999 249.928 73.8605 249.733 73.7408 249.549C73.7228 249.521 73.7336 249.469 73.7543 249.413C72.7945 249.066 71.9538 248.541 71.2373 247.713C71.0426 247.85 70.8568 248.002 70.6686 248.139C71.0911 249.546 71.1669 250.909 71.0987 252.303C70.9995 254.318 71.0198 256.336 70.8948 258.351C70.8034 259.817 71.3933 260.748 72.6931 261.303C73.7383 261.751 74.7487 262.276 75.8014 262.703C80.8153 264.73 86.1201 265.647 91.5283 266.011C97.7935 266.434 104.079 266.432 110.378 265.715C114.064 265.295 117.714 264.71 121.314 263.731C121.77 263.607 122.213 263.46 122.651 263.301L123.792 251.556C121.84 252.227 119.822 252.628 117.785 252.966ZM75.0632 260.192C75.0509 260.272 74.8905 260.404 74.8198 260.394C74.6738 260.372 74.5012 260.303 74.4165 260.194C74.3195 260.069 74.2856 259.883 74.2636 259.718C74.2333 259.493 74.2326 259.26 74.2349 259.031C74.2578 257.019 74.2839 255.01 74.3101 252.998C74.3127 252.825 74.2854 252.638 74.3467 252.485C74.4264 252.291 74.5507 252.08 74.7153 251.962C74.9086 251.822 75.1975 252.108 75.2108 252.471C75.271 254.19 75.32 255.909 75.3765 257.793C75.2882 258.491 75.1853 259.343 75.0632 260.192ZM79.895 261.56C79.8803 261.747 79.6856 262.039 79.5266 262.08C79.1955 262.166 79.0332 261.869 78.9783 261.591C78.8769 261.088 78.742 260.577 78.7557 260.069C78.8037 258.229 78.8952 256.39 78.9997 254.551C79.0338 253.961 79.3219 253.617 79.6351 253.685C80.0652 253.778 80.0846 254.148 80.0876 254.491C80.102 255.697 80.1002 256.903 80.1027 257.905C80.0316 259.261 79.9875 260.412 79.895 261.56ZM84.3995 262.662C84.3848 262.882 84.2813 263.098 84.1173 263.667C83.8061 263.282 83.5999 263.144 83.5733 262.972C83.4862 262.414 83.4029 261.844 83.4277 261.278C83.5134 259.333 83.6412 257.39 83.7657 255.446C83.7805 255.225 83.8335 254.986 83.9406 254.792C84.0103 254.666 84.2127 254.537 84.35 254.538C84.4858 254.538 84.6565 254.675 84.7371 254.803C84.8191 254.935 84.8479 255.126 84.8376 255.291C84.7008 257.747 84.5558 260.204 84.3995 262.662ZM89.5086 262.873C89.2701 262.765 89.0404 262.737 88.9976 262.628C88.8334 262.213 88.6782 261.783 88.614 261.341C88.3502 259.526 88.4801 257.696 88.6536 255.866C88.6747 255.648 88.7431 255.393 88.8808 255.232C89.0101 255.079 89.2746 254.937 89.4547 254.956C89.633 254.977 89.8163 255.182 89.9286 255.352C90.0109 255.479 90.0052 255.681 89.9995 255.851C89.9332 257.795 89.87 259.74 89.7762 261.684C89.7565 262.061 89.6108 262.435 89.5086 262.873ZM94.7802 264.21C94.6634 264.216 94.5484 264.22 94.4317 264.226C94.34 263.971 94.1913 263.723 94.1664 263.458C94.0695 262.437 93.9889 261.415 93.9457 260.389C93.8955 259.248 93.8795 258.105 93.8763 256.961C93.8759 256.569 93.9293 256.168 94.0205 255.784C94.0477 255.666 94.2831 255.523 94.4257 255.518C94.5618 255.512 94.7688 255.634 94.8238 255.757C94.9335 256.008 95.0138 256.297 95.0171 256.573C95.0342 258.745 95.04 260.917 95.0182 263.091C95.0134 263.461 94.8628 263.836 94.7802 264.21ZM100.732 262.153C100.692 262.776 100.53 263.398 100.384 264.01C100.325 264.258 100.104 264.357 99.805 264.238C99.4897 263.528 99.3773 262.743 99.4213 261.935C99.5301 259.983 99.6484 258.033 99.791 256.083C99.8463 255.336 100.24 254.823 100.602 254.959C101.144 255.163 101.072 255.668 101.05 256.126C100.949 258.136 100.865 260.145 100.732 262.153ZM105.257 263.73C105.145 263.46 104.959 263.218 104.953 262.966C104.907 260.971 104.886 258.975 104.884 256.979C104.883 256.714 105.022 256.439 105.132 256.183C105.167 256.101 105.32 256.018 105.417 256.02C105.514 256.02 105.639 256.103 105.693 256.186C105.78 256.321 105.868 256.489 105.868 256.644C105.855 258.643 105.835 260.642 105.795 262.64C105.787 263.026 105.751 263.439 105.257 263.73ZM111.348 262.209C111.337 262.291 111.207 262.363 110.963 262.616C110.841 262.223 110.731 262.017 110.719 261.802C110.619 260.036 110.531 258.269 110.459 256.5C110.451 256.283 110.517 256.041 110.621 255.847C110.687 255.726 110.895 255.602 111.028 255.609C111.165 255.616 111.29 255.778 111.411 255.884C111.447 255.915 111.454 255.986 111.458 256.043C111.612 258.094 111.609 260.15 111.348 262.209ZM116.32 261.61C116.308 261.782 116.103 261.948 115.926 262.21C115.791 261.928 115.678 261.794 115.66 261.643C115.417 259.587 115.524 257.519 115.686 255.45C115.695 255.337 115.703 255.187 115.772 255.122C115.925 254.977 116.11 254.824 116.301 254.781C116.398 254.758 116.562 254.951 116.654 255.077C116.715 255.159 116.72 255.297 116.713 255.409C116.59 257.474 116.469 259.542 116.32 261.61ZM120.153 260.507C120.095 260.309 119.981 260.114 119.987 259.915C120.038 258.137 120.102 256.36 120.18 254.582C120.19 254.364 120.264 254.125 120.381 253.939C120.451 253.826 120.659 253.768 120.811 253.745C120.897 253.732 121.035 253.818 121.084 253.9C121.168 254.039 121.247 254.211 121.242 254.368C121.168 256.43 120.966 258.479 120.153 260.507Z" fill="#BC8AFF"/>
<path d="M128.9 256.833C129.434 253.949 129.923 251.056 130.412 248.264C130.364 248.235 130.317 248.209 130.27 248.18C128.988 248.944 127.63 249.508 126.306 250.079C126.32 250.219 126.313 250.382 126.244 250.435C125.971 250.645 125.661 250.82 125.343 250.958C124.832 251.18 124.314 251.375 123.793 251.554L122.652 263.299C124.969 262.461 127.058 261.153 129.102 259.417C128.723 258.542 128.739 257.706 128.9 256.833ZM126.239 255.287C126 256.353 125.731 257.414 125.448 258.472C125.412 258.605 125.241 258.707 124.897 259.079C124.865 257.501 125.027 256.257 125.278 255.018C125.309 254.862 125.441 254.721 125.537 254.58C125.645 254.422 126.061 254.458 126.122 254.642C126.19 254.848 126.283 255.087 126.239 255.287Z" fill="#BC8AFF"/>
<path d="M127.993 246.79C126.32 245.582 124.464 244.734 122.518 244.061C118.347 242.617 114.009 241.794 109.589 241.453C104.768 241.082 99.9249 241.039 95.0637 241.405C90.7284 241.731 86.4442 242.407 82.1961 243.384C78.4404 244.249 74.8303 245.544 71.4822 247.549C71.3987 247.599 71.3182 247.654 71.2376 247.711C71.9542 248.537 72.7948 249.062 73.7546 249.412C73.7753 249.357 73.8059 249.298 73.8293 249.252C73.8511 249.207 73.9234 249.153 73.9685 249.156C74.1379 249.162 74.3331 249.141 74.4698 249.216C76.8671 250.516 79.5679 250.837 82.2073 251.313C89.8069 252.681 97.5339 252.821 105.273 252.694C111.694 252.59 118.059 251.745 124.338 250.125C124.897 249.981 125.469 249.89 126.038 249.798C126.118 249.785 126.277 249.897 126.292 249.977C126.299 250.008 126.303 250.045 126.306 250.08C127.629 249.509 128.988 248.945 130.27 248.181C129.445 247.689 128.682 247.288 127.993 246.79Z" fill="#BC8AFF"/>
<path d="M100.01 254.039C95.8918 254.017 92.1482 253.881 88.4347 253.448C84.6681 253.009 80.9363 252.402 77.2832 251.434C76.1686 251.138 75.1321 250.677 74.1806 250.047C74.0009 249.928 73.8624 249.733 73.7427 249.549C73.7053 249.492 73.7856 249.348 73.831 249.253C73.8527 249.208 73.9251 249.155 73.9702 249.157C74.1396 249.163 74.3347 249.142 74.4714 249.217C76.8688 250.517 79.5696 250.839 82.209 251.314C89.8086 252.682 97.5356 252.822 105.275 252.696C111.695 252.591 118.061 251.746 124.339 250.127C124.898 249.983 125.471 249.891 126.04 249.799C126.12 249.786 126.279 249.899 126.294 249.978C126.323 250.127 126.333 250.371 126.245 250.439C125.972 250.649 125.663 250.825 125.345 250.963C122.916 252.02 120.365 252.541 117.785 252.969C111.753 253.966 105.705 254.26 100.01 254.039Z" fill="#512473"/>
<path d="M99.8035 264.238C99.4882 263.528 99.3758 262.743 99.4197 261.935C99.5285 259.983 99.6469 258.033 99.7895 256.083C99.8448 255.336 100.239 254.823 100.6 254.959C101.142 255.164 101.071 255.668 101.048 256.126C100.949 258.135 100.865 260.143 100.732 262.151C100.692 262.774 100.53 263.396 100.385 264.009C100.325 264.258 100.104 264.358 99.8035 264.238Z" fill="#512473"/>
<path d="M80.1028 257.907C80.0318 259.262 79.9877 260.412 79.8952 261.56C79.8805 261.747 79.6857 262.04 79.5268 262.08C79.1957 262.167 79.0334 261.87 78.9785 261.591C78.8771 261.089 78.7422 260.578 78.7559 260.069C78.8038 258.229 78.8954 256.39 78.9998 254.551C79.034 253.961 79.322 253.617 79.6353 253.686C80.0653 253.779 80.0847 254.149 80.0878 254.491C80.1021 255.699 80.1003 256.905 80.1028 257.907Z" fill="#512473"/>
<path d="M89.5089 262.873C89.2705 262.766 89.0407 262.737 88.998 262.628C88.8338 262.214 88.6785 261.783 88.6144 261.341C88.3506 259.526 88.4804 257.696 88.6539 255.866C88.675 255.649 88.7434 255.393 88.8811 255.232C89.0104 255.08 89.2749 254.937 89.455 254.957C89.6333 254.978 89.8166 255.183 89.929 255.352C90.0112 255.48 90.0055 255.682 89.9998 255.851C89.9335 257.796 89.8704 259.74 89.7766 261.684C89.7568 262.062 89.6111 262.436 89.5089 262.873Z" fill="#512473"/>
<path d="M94.4319 264.224C94.3401 263.969 94.1915 263.721 94.1666 263.456C94.0697 262.435 93.9891 261.413 93.9458 260.387C93.8957 259.246 93.8796 258.103 93.8765 256.959C93.876 256.567 93.9294 256.166 94.0207 255.781C94.0479 255.664 94.2833 255.521 94.4258 255.516C94.5619 255.51 94.769 255.631 94.8239 255.755C94.9337 256.006 95.0139 256.294 95.0172 256.571C95.0344 258.743 95.0402 260.915 95.0183 263.089C95.0151 263.461 94.8644 263.836 94.7818 264.209C94.6636 264.213 94.5485 264.22 94.4319 264.224Z" fill="#512473"/>
<path d="M84.1173 263.667C83.806 263.282 83.5998 263.145 83.5733 262.973C83.4861 262.414 83.4028 261.845 83.4277 261.278C83.5134 259.334 83.6411 257.391 83.7656 255.447C83.7804 255.226 83.8334 254.986 83.9406 254.793C84.0102 254.666 84.2126 254.538 84.35 254.538C84.4857 254.539 84.6564 254.676 84.737 254.803C84.819 254.936 84.8478 255.127 84.8376 255.291C84.699 257.75 84.5541 260.206 84.3978 262.665C84.3864 262.882 84.2813 263.098 84.1173 263.667Z" fill="#512473"/>
<path d="M75.3769 257.794C75.2887 258.49 75.1875 259.342 75.0637 260.193C75.0514 260.273 74.8909 260.404 74.8203 260.395C74.6743 260.373 74.5017 260.304 74.4169 260.194C74.32 260.07 74.2861 259.884 74.264 259.718C74.2338 259.493 74.233 259.261 74.2353 259.032C74.2583 257.02 74.2844 255.01 74.3106 252.999C74.3132 252.826 74.2859 252.638 74.3472 252.486C74.4269 252.292 74.5511 252.081 74.7157 251.963C74.909 251.822 75.198 252.108 75.2112 252.472C75.2699 254.191 75.3187 255.912 75.3769 257.794Z" fill="#512473"/>
<path d="M105.258 263.73C105.146 263.46 104.96 263.218 104.953 262.966C104.908 260.971 104.886 258.975 104.884 256.979C104.883 256.714 105.022 256.439 105.133 256.182C105.168 256.1 105.321 256.018 105.418 256.019C105.515 256.019 105.64 256.102 105.694 256.185C105.78 256.321 105.868 256.489 105.868 256.644C105.856 258.643 105.835 260.641 105.795 262.64C105.788 263.026 105.752 263.438 105.258 263.73Z" fill="#512473"/>
<path d="M110.963 262.616C110.842 262.223 110.731 262.017 110.72 261.802C110.62 260.036 110.533 258.269 110.459 256.5C110.451 256.283 110.517 256.041 110.621 255.847C110.687 255.726 110.896 255.602 111.028 255.609C111.165 255.616 111.291 255.778 111.411 255.884C111.447 255.915 111.455 255.986 111.458 256.043C111.612 258.094 111.61 260.152 111.348 262.211C111.337 262.293 111.208 262.363 110.963 262.616Z" fill="#512473"/>
<path d="M115.927 262.209C115.791 261.927 115.678 261.792 115.66 261.642C115.417 259.585 115.524 257.517 115.686 255.448C115.695 255.335 115.703 255.185 115.773 255.12C115.926 254.976 116.11 254.823 116.301 254.779C116.398 254.757 116.562 254.95 116.654 255.076C116.715 255.158 116.721 255.295 116.713 255.408C116.59 257.476 116.467 259.544 116.319 261.61C116.308 261.782 116.104 261.948 115.927 262.209Z" fill="#512473"/>
<path d="M120.153 260.508C120.096 260.31 119.981 260.114 119.987 259.915C120.038 258.137 120.102 256.36 120.181 254.582C120.19 254.364 120.264 254.125 120.381 253.94C120.451 253.826 120.66 253.768 120.811 253.745C120.898 253.732 121.035 253.819 121.085 253.9C121.168 254.039 121.248 254.212 121.243 254.368C121.169 256.43 120.966 258.479 120.153 260.508Z" fill="#512473"/>
<path d="M124.899 259.08C124.866 257.501 125.029 256.257 125.28 255.018C125.31 254.862 125.442 254.72 125.539 254.58C125.647 254.422 126.062 254.458 126.124 254.642C126.192 254.848 126.285 255.086 126.241 255.287C126.002 256.353 125.733 257.415 125.449 258.472C125.413 258.606 125.243 258.708 124.899 259.08Z" fill="#512473"/>
</svg>
