<svg width="679" height="534" viewBox="0 0 679 534" fill="none" xmlns="http://www.w3.org/2000/svg">
<rect x="90.4346" y="0.5" width="498" height="533" rx="28.175" fill="#1F0433" stroke="#AE72FF"/>
<circle cx="160.934" cy="69" r="37.5" stroke="#AE72FF"/>
<rect x="214.935" y="55" width="110" height="28" rx="5" fill="#2E1044"/>
<path d="M524.899 53.0151L519.934 48.1304L522.1 46L527.065 50.8847H550.403C551.249 50.8847 551.934 51.5592 551.934 52.3911C551.934 52.5377 551.912 52.6836 551.87 52.824L548.195 64.8752C548 65.5124 547.404 65.9488 546.728 65.9488H527.962V68.9616H544.805V71.9744H526.43C525.585 71.9744 524.899 71.2998 524.899 70.468V53.0151ZM527.196 78C525.928 78 524.899 76.9883 524.899 75.7404C524.899 74.4923 525.928 73.4808 527.196 73.4808C528.465 73.4808 529.493 74.4923 529.493 75.7404C529.493 76.9883 528.465 78 527.196 78ZM545.571 78C544.302 78 543.274 76.9883 543.274 75.7404C543.274 74.4923 544.302 73.4808 545.571 73.4808C546.839 73.4808 547.867 74.4923 547.867 75.7404C547.867 76.9883 546.839 78 545.571 78Z" fill="#AE72FF"/>
<path d="M484.188 69.0257L490.935 75.7722L488.707 78L481.96 71.2535C479.535 73.1943 476.458 74.3552 473.112 74.3552C465.286 74.3552 458.935 68.0037 458.935 60.1776C458.935 52.3516 465.286 46 473.112 46C480.938 46 487.29 52.3516 487.29 60.1776C487.29 63.5235 486.129 66.5999 484.188 69.0257ZM481.028 67.8569C482.954 65.8717 484.139 63.1637 484.139 60.1776C484.139 54.0852 479.205 49.1506 473.112 49.1506C467.02 49.1506 462.085 54.0852 462.085 60.1776C462.085 66.2701 467.02 71.2047 473.112 71.2047C476.098 71.2047 478.806 70.0193 480.791 68.093L481.028 67.8569Z" fill="#AE72FF"/>
<g opacity="0.21">
<path fill-rule="evenodd" clip-rule="evenodd" d="M151.585 68.896C149.919 67.7049 147.91 67.0514 145.837 67.0514C144.814 67.0514 143.992 67.8731 143.992 68.896C143.992 69.9188 144.814 70.7405 145.837 70.7405C147.91 70.7405 149.919 70.087 151.585 68.896ZM160.331 77.6413C159.139 79.308 158.486 81.3169 158.486 83.3897C158.486 84.4125 159.308 85.2342 160.331 85.2342C161.353 85.2342 162.175 84.4125 162.175 83.3897C162.175 81.3169 161.522 79.308 160.331 77.6413ZM169.076 68.896C170.743 70.087 172.751 70.7405 174.824 70.7405C175.847 70.7405 176.669 69.9188 176.669 68.896C176.669 67.8731 175.847 67.0514 174.824 67.0514C172.751 67.0514 170.743 67.7049 169.076 68.896ZM160.331 65.3731L156.808 68.896L160.331 72.4188L163.853 68.896L160.331 65.3731ZM162.788 62.7976C164.683 60.4271 165.733 57.4669 165.733 54.4023C165.733 51.3376 163.318 49 160.331 49C157.343 49 154.928 51.415 154.928 54.4023C154.928 57.3896 155.978 60.4271 157.873 62.7976L154.234 66.4365C151.864 64.5417 148.903 63.4918 145.839 63.4918C142.774 63.4918 140.435 65.9087 140.435 68.896C140.435 71.8833 142.85 74.2982 145.837 74.2982C148.824 74.2982 151.862 73.2483 154.232 71.3535L157.871 74.9924C155.976 77.3629 154.926 80.3231 154.926 83.3877C154.926 86.4524 157.341 88.79 160.329 88.79C163.316 88.79 165.731 86.375 165.731 83.3877C165.731 80.4004 164.681 77.3629 162.786 74.9924L166.425 71.3535C168.795 73.2483 171.756 74.2982 174.82 74.2982C177.885 74.2982 180.223 71.8833 180.223 68.896C180.223 65.9087 177.808 63.4937 174.82 63.4937C171.833 63.4937 168.795 64.5436 166.425 66.4385L162.786 62.7996L162.788 62.7976ZM160.331 52.5577C159.308 52.5577 158.486 53.3794 158.486 54.4023C158.486 56.475 159.139 58.4839 160.331 60.1506C161.522 58.4839 162.175 56.475 162.175 54.4023C162.175 53.3794 161.353 52.5577 160.331 52.5577Z" fill="#AE72FF"/>
</g>
<rect x="233.6" y="173.5" width="211.75" height="284.825" rx="28.175" fill="#1F0433" stroke="#AE72FF"/>
<rect x="466.7" y="173.5" width="211.75" height="284.825" rx="28.175" fill="#1F0433" stroke="#AE72FF"/>
<rect x="0.5" y="173.5" width="211.75" height="284.825" rx="28.175" fill="#1F0433" stroke="#AE72FF"/>
<rect x="25" y="381" width="162" height="28" rx="5" fill="#2E1044"/>
<rect x="258" y="381" width="162" height="28" rx="5" fill="#2E1044"/>
<rect x="492" y="381" width="162" height="28" rx="5" fill="#2E1044"/>
<rect x="25" y="199" width="162" height="158" rx="17" fill="#2E1044"/>
<rect x="258" y="199" width="162" height="158" rx="17" fill="#2E1044"/>
<rect x="492" y="199" width="162" height="158" rx="17" fill="#2E1044"/>
<path fill-rule="evenodd" clip-rule="evenodd" d="M100.228 247.372C97.4789 243.759 93.7864 240.121 90.3146 238.052C88.0179 236.682 85.1196 235.424 82.4367 236.809C82.0989 236.981 81.9927 237.243 81.9922 237.535C81.9971 237.638 82.0166 237.762 82.0763 237.889C82.1182 237.979 82.2762 238.187 82.3245 238.246C82.4349 238.488 82.7478 239.178 82.7889 239.283C83.0624 239.94 83.3988 240.873 83.6122 241.5C84.5744 244.306 84.9487 247.228 85.8221 250.054C86.1459 251.12 86.6173 252.131 87.1616 253.106C85.0197 251.636 82.7321 250.395 80.3065 249.327C77.7303 248.194 75.1068 247.373 72.3717 246.72C70.839 246.356 68.7551 245.733 67.1121 246.201C66.8097 246.288 66.6668 246.466 66.5867 246.621C66.5014 246.786 66.47 246.974 66.516 247.182C66.5505 247.307 66.6238 247.475 66.7851 247.638C66.9462 247.806 67.3144 248.031 67.4599 248.193C67.7372 248.495 68.003 248.802 68.2802 249.104C69.6743 250.627 71.1726 252.032 72.616 253.505C77.151 258.128 80.4775 263.446 83.4514 269.199C86.0348 274.197 87.9898 279.299 91.7907 283.431L83.9115 283.38C83.5314 283.381 83.2131 283.662 83.168 284.039C83.168 284.039 80.7373 305.667 85.1285 320.306C87.0726 326.801 90.3894 331.914 95.6895 333.417C95.7604 333.436 95.8318 333.445 95.9038 333.443L126.353 332.871C126.544 332.871 126.727 332.793 126.863 332.657C126.863 332.657 142.047 317.555 135.493 284.313C135.424 283.965 135.118 283.718 134.769 283.714L126.34 283.66C128.513 280.943 129.995 277.877 131.533 274.844C133.121 271.716 134.769 268.632 137.401 266.073C139.275 264.255 141.633 262.993 144.037 262.036C144.914 261.686 145.806 261.349 146.695 261.045C146.967 260.951 147.238 260.869 147.51 260.785C147.555 260.782 147.86 260.757 147.974 260.733C148.172 260.686 148.305 260.601 148.381 260.533C148.57 260.358 148.643 260.156 148.638 259.945C148.63 259.791 148.596 259.563 148.34 259.354C146.751 258.037 144.785 257.481 142.728 257.434C139.778 257.361 136.639 258.32 134.254 259.397C132.496 260.193 130.828 261.144 129.259 262.238C129.049 257.453 128.807 252.682 129.435 247.906C129.923 244.212 131.577 240.023 131.363 236.298C131.344 235.973 131.188 235.8 131.06 235.701C130.902 235.574 130.711 235.508 130.473 235.536C130.359 235.551 130.197 235.604 130.025 235.734C129.886 235.845 129.672 236.106 129.543 236.207C129.302 236.39 129.056 236.572 128.82 236.765C127.787 237.624 126.848 238.588 125.928 239.567C124.224 241.373 122.672 243.32 121.235 245.351C118.338 239.202 114.892 233.316 110.891 227.813C110.048 226.653 108.772 224.839 107.298 223.554C106.201 222.596 104.986 221.936 103.766 221.902C103.715 221.9 103.122 221.924 103.003 222.546C102.959 222.785 102.814 223.975 102.814 223.979C102.676 224.851 102.584 225.314 102.39 226.176C101.926 228.248 101.29 230.276 100.8 232.341C100.199 234.878 99.6843 237.426 99.6544 240.045C99.6213 242.531 99.8679 244.953 100.229 247.372L100.228 247.372Z" fill="#BC8AFF"/>
<path fill-rule="evenodd" clip-rule="evenodd" d="M135.006 290.571C118.09 290.089 100.991 292.8 84.1664 290.396C83.7766 297.784 83.6844 310.343 86.5467 319.877C88.3162 325.787 91.1943 330.543 95.9852 331.962C95.9852 331.962 126.007 331.398 126.013 331.399C126.46 330.898 127.628 329.515 129.008 327.204C126.947 327.594 124.882 327.788 122.776 327.693C122.371 327.671 122.055 327.326 122.072 326.916C122.087 326.51 122.438 326.196 122.844 326.211C125.258 326.324 127.617 326.026 129.973 325.488C130.596 324.303 131.243 322.939 131.858 321.395C129.903 321.924 128.038 322.328 125.966 322.332C125.555 322.337 125.224 322.005 125.225 321.594C125.22 321.188 125.552 320.852 125.962 320.853C128.239 320.844 130.251 320.313 132.441 319.7C132.462 319.691 132.483 319.687 132.508 319.683C133.063 318.114 133.587 316.385 134.041 314.492C131.668 315.05 129.278 315.355 126.823 315.344C126.416 315.343 126.085 315.007 126.086 314.601C126.087 314.19 126.423 313.859 126.829 313.865C129.413 313.872 131.914 313.517 134.403 312.877C134.713 311.388 134.976 309.798 135.178 308.124C132.416 308.851 129.709 309.223 126.83 308.875C126.421 308.828 126.133 308.459 126.179 308.05C126.231 307.647 126.602 307.358 127.004 307.406C129.889 307.753 132.579 307.314 135.348 306.54L135.355 306.525C135.428 305.712 135.492 304.893 135.541 304.073C135.585 303.238 135.613 302.408 135.632 301.571C133.127 301.804 130.629 301.929 128.106 301.924C127.7 301.923 127.368 301.592 127.369 301.181C127.37 300.776 127.701 300.443 128.112 300.444C130.635 300.448 133.134 300.319 135.644 300.076L135.64 300.03C135.637 299.311 135.624 298.585 135.601 297.864C135.573 297.118 135.54 296.366 135.493 295.619L135.49 295.577C131.866 296.193 128.308 296.216 124.648 296.465C124.24 296.494 123.882 296.188 123.857 295.776C123.827 295.368 124.139 295.015 124.545 294.99C128.202 294.735 131.757 294.728 135.378 294.091C135.284 292.945 135.161 291.773 135.003 290.572L135.006 290.571Z" fill="#BC8AFF"/>
<path fill-rule="evenodd" clip-rule="evenodd" d="M134.802 289.086C134.622 287.818 134.403 286.521 134.149 285.192L84.5714 284.868C84.4943 285.64 84.3687 287.046 84.2498 288.91C100.981 291.329 117.987 288.635 134.802 289.085L134.802 289.086Z" fill="#BC8AFF"/>
<path fill-rule="evenodd" clip-rule="evenodd" d="M102.37 283.5C100.175 274.259 97.5385 264.449 90.4006 257.64C87.2651 254.648 83.6724 252.429 79.7101 250.683C77.2142 249.586 74.6769 248.794 72.0276 248.161C71.0991 247.937 69.9321 247.562 68.8306 247.504C69.0105 247.704 69.1896 247.903 69.3741 248.103C70.7538 249.615 72.2372 251.003 73.6708 252.466C78.3131 257.197 81.7258 262.633 84.7703 268.518C87.5071 273.811 89.4803 279.259 93.8786 283.447L97.448 283.471C95.3714 277.735 92.1473 272.725 88.5321 267.817C88.2928 267.486 88.363 267.022 88.695 266.783C89.0216 266.538 89.4848 266.609 89.7297 266.94C93.5224 272.094 96.8922 277.369 99.0076 283.43C99.0124 283.447 99.0163 283.462 99.021 283.478L102.37 283.5Z" fill="#BC8AFF"/>
<path fill-rule="evenodd" clip-rule="evenodd" d="M100.816 250.805C98.1697 246.617 93.7076 241.798 89.5519 239.328C87.8537 238.314 85.7783 237.228 83.7721 237.857C83.9151 238.172 84.1216 238.631 84.1579 238.72C84.4406 239.398 84.7898 240.372 85.012 241.026C85.9784 243.841 86.3574 246.78 87.2356 249.622C87.8807 251.711 89.1327 253.591 90.3328 255.392C90.3897 255.481 90.4314 255.576 90.4467 255.675C90.776 255.965 91.1038 256.264 91.422 256.57C98.8477 263.656 101.613 273.874 103.886 283.479C103.891 283.489 103.891 283.5 103.895 283.515L104.034 283.512C103.659 278.554 103.444 273.163 102.36 268.101C101.286 263.049 99.3414 258.317 95.4513 254.726C95.1522 254.448 95.1358 253.98 95.4143 253.675C95.6925 253.376 96.1602 253.36 96.4593 253.638C100.58 257.442 102.669 262.439 103.81 267.791C104.915 272.962 105.138 278.467 105.518 283.523L106.021 283.523C105.864 280.663 106.462 277.807 106.427 274.938C106.318 266.886 105.292 258.091 101.024 251.135L101.009 251.119C100.921 251.032 100.855 250.926 100.814 250.805L100.816 250.805Z" fill="#BC8AFF"/>
<path fill-rule="evenodd" clip-rule="evenodd" d="M120.264 246.76C120.241 246.722 120.216 246.685 120.198 246.643C117.279 240.338 113.774 234.311 109.692 228.685C108.897 227.596 107.708 225.878 106.323 224.669C105.705 224.127 105.049 223.682 104.371 223.487L104.282 224.217C104.131 225.123 104.038 225.606 103.837 226.505C103.368 228.577 102.731 230.609 102.242 232.679C101.666 235.11 101.163 237.55 101.134 240.061C101.094 243.527 101.602 246.858 102.22 250.241C102.244 250.283 102.267 250.32 102.292 250.358C106.696 257.537 107.8 266.608 107.912 274.917C107.951 277.781 107.337 280.642 107.506 283.497C107.511 283.513 107.51 283.523 107.51 283.533L110.16 283.55C109.915 280.68 109.548 278.204 109.805 275.284C110.122 271.72 110.768 268.228 111.728 264.837C111.64 264.744 111.575 264.623 111.546 264.488C110.331 258.865 109.788 252.624 106.831 247.586C106.624 247.236 106.74 246.78 107.096 246.572C107.446 246.364 107.901 246.485 108.11 246.836C110.782 251.397 111.571 256.906 112.571 262.102C114.076 257.629 116.121 253.332 118.654 249.263C119.176 248.417 119.713 247.582 120.266 246.759L120.264 246.76Z" fill="#BC8AFF"/>
<path fill-rule="evenodd" clip-rule="evenodd" d="M127.877 263.244C127.836 263.154 127.805 263.056 127.8 262.947C127.586 257.859 127.293 252.787 127.962 247.71C128.38 244.572 129.684 241.075 129.871 237.817C129.839 237.846 129.802 237.88 129.764 237.909C128.775 238.726 127.884 239.65 127.002 240.584C124.296 243.453 121.988 246.697 119.91 250.045C115.104 257.776 112.078 266.347 111.28 275.415C111.025 278.294 111.406 280.725 111.641 283.563L112.977 283.571C113.524 277.48 114.67 272.125 116.583 266.25C117.263 264.163 118.083 261.673 119.377 259.826C119.611 259.489 120.077 259.405 120.41 259.638C120.746 259.877 120.825 260.339 120.591 260.676C119.379 262.406 118.629 264.755 117.992 266.71C116.127 272.434 115.004 277.657 114.466 283.578L115.703 283.587C115.691 283.515 115.691 283.433 115.705 283.356C117.117 275.393 121.547 268.162 127.875 263.244L127.877 263.244Z" fill="#BC8AFF"/>
<path fill-rule="evenodd" clip-rule="evenodd" d="M124.555 283.648C124.578 283.516 124.63 283.39 124.724 283.282C127.089 280.518 128.609 277.321 130.209 274.173C131.866 270.904 133.608 267.688 136.365 265.013C138.38 263.058 140.903 261.691 143.485 260.661C144.351 260.316 145.232 259.977 146.116 259.674C145.063 259.167 143.894 258.945 142.688 258.913C139.963 258.845 137.064 259.751 134.858 260.75C125.635 264.919 118.937 273.655 117.169 283.597L120.101 283.618C120.096 283.531 120.106 283.438 120.136 283.347C121.344 279.551 122.744 275.905 125.04 272.615C125.273 272.283 125.735 272.2 126.072 272.434C126.404 272.667 126.487 273.129 126.254 273.466C124.086 276.578 122.752 280.033 121.602 283.625L124.555 283.647L124.555 283.648Z" fill="#BC8AFF"/>
<path fill-rule="evenodd" clip-rule="evenodd" d="M100.208 247.367C97.4607 243.749 93.7641 240.118 90.2889 238.043C87.994 236.675 85.0994 235.417 82.4145 236.804C82.071 236.979 81.9685 237.241 81.9681 237.53C81.9701 237.634 81.9937 237.754 82.0532 237.883C82.0932 237.974 82.2521 238.183 82.3012 238.244C82.4148 238.48 82.7275 239.172 82.7658 239.278C83.0432 239.931 83.3794 240.869 83.5909 241.495C84.5486 244.299 84.9285 247.221 85.7962 250.049C86.1257 251.112 86.5924 252.125 87.1411 253.103C85.0005 251.625 82.706 250.391 80.2834 249.32C77.7019 248.182 75.0886 247.362 72.3477 246.713C70.8159 246.35 68.7341 245.721 67.0921 246.191C66.7831 246.278 66.6401 246.457 66.5658 246.609C66.4745 246.782 66.4433 246.965 66.4914 247.169C66.522 247.296 66.6019 247.464 66.7567 247.628C66.9185 247.8 67.2925 248.02 67.4398 248.183C67.7132 248.487 67.9792 248.791 68.2601 249.095C69.6492 250.623 71.1478 252.022 72.5909 253.501C77.1262 258.119 80.4518 263.436 83.4286 269.189C86.0148 274.185 87.9715 279.291 91.7676 283.424L83.882 283.371C83.5041 283.366 83.1845 283.654 83.1423 284.03C83.1423 284.03 80.7097 305.659 85.1021 320.294C87.0525 326.793 90.3592 331.902 95.6601 333.407C95.7338 333.426 95.8069 333.437 95.8809 333.434L126.328 332.866C126.522 332.862 126.703 332.782 126.836 332.649C126.836 332.649 142.022 317.547 135.465 284.306C135.394 283.96 135.096 283.707 134.739 283.703L126.312 283.652C128.489 280.939 129.964 277.871 131.504 274.836C133.094 271.714 134.74 268.625 137.376 266.07C139.245 264.247 141.605 262.992 144.008 262.027C144.887 261.68 145.773 261.341 146.664 261.039C146.936 260.95 147.207 260.867 147.479 260.785C147.524 260.78 147.836 260.753 147.942 260.728C148.145 260.679 148.276 260.597 148.353 260.528C148.54 260.359 148.61 260.156 148.606 259.94C148.607 259.784 148.567 259.559 148.311 259.345C146.726 258.03 144.758 257.481 142.699 257.424C139.749 257.351 136.611 258.32 134.224 259.397C132.468 260.187 130.793 261.137 129.229 262.227C129.021 257.445 128.776 252.675 129.406 247.9C129.898 244.208 131.551 240.021 131.332 236.291C131.312 235.963 131.158 235.793 131.03 235.689C130.873 235.57 130.676 235.499 130.444 235.532C130.332 235.548 130.166 235.599 129.996 235.731C129.857 235.834 129.642 236.098 129.511 236.194C129.271 236.382 129.024 236.562 128.791 236.758C127.759 237.615 126.817 238.583 125.898 239.558C124.193 241.368 122.642 243.32 121.207 245.344C118.311 239.195 114.859 233.306 110.86 227.805C110.023 226.647 108.746 224.836 107.27 223.549C106.176 222.593 104.963 221.927 103.741 221.893C103.69 221.897 103.102 221.918 102.979 222.542C102.937 222.777 102.793 223.965 102.793 223.973C102.651 224.848 102.559 225.31 102.365 226.169C101.899 228.244 101.266 230.266 100.778 232.334C100.177 234.87 99.6642 237.417 99.6296 240.035C99.6018 242.527 99.8459 244.944 100.207 247.368L100.208 247.367Z" fill="#453824"/>
<path fill-rule="evenodd" clip-rule="evenodd" d="M134.988 290.565C118.072 290.081 100.972 292.792 84.1429 290.391C83.7532 297.776 83.662 310.335 86.5203 319.873C88.2939 325.776 91.167 330.537 95.9674 331.954C95.9674 331.954 125.984 331.386 125.992 331.386C126.441 330.891 127.604 329.505 128.98 327.195C126.926 327.591 124.861 327.779 122.758 327.683C122.344 327.661 122.028 327.318 122.049 326.911C122.071 326.504 122.414 326.18 122.821 326.202C125.235 326.314 127.595 326.023 129.947 325.48C130.573 324.296 131.216 322.935 131.84 321.387C129.883 321.915 128.013 322.321 125.943 322.322C125.535 322.331 125.203 321.994 125.203 321.586C125.202 321.178 125.532 320.846 125.94 320.846C128.219 320.833 130.228 320.308 132.419 319.689C132.442 319.683 132.465 319.677 132.487 319.678C133.046 318.104 133.567 316.373 134.023 314.482C131.649 315.04 129.258 315.344 126.802 315.333C126.394 315.334 126.064 314.997 126.063 314.589C126.069 314.181 126.399 313.849 126.807 313.849C129.389 313.867 131.893 313.509 134.383 312.869C134.691 311.379 134.953 309.79 135.16 308.116C132.398 308.839 129.693 309.215 126.809 308.87C126.404 308.818 126.111 308.447 126.163 308.042C126.206 307.636 126.578 307.344 126.983 307.395C129.865 307.748 132.56 307.304 135.332 306.529L135.333 306.514C135.413 305.703 135.472 304.882 135.515 304.068C135.566 303.232 135.595 302.396 135.609 301.565L135.61 301.558C133.104 301.796 130.604 301.917 128.088 301.918C127.68 301.919 127.348 301.582 127.348 301.174C127.348 300.766 127.684 300.435 128.092 300.435C130.615 300.442 133.115 300.314 135.621 300.067L135.624 300.022C135.617 299.302 135.604 298.574 135.582 297.853C135.554 297.102 135.52 296.359 135.471 295.614L135.465 295.568C131.849 296.186 128.286 296.207 124.629 296.459C124.22 296.482 123.865 296.174 123.834 295.772C123.803 295.362 124.119 295.008 124.521 294.977C128.186 294.725 131.741 294.719 135.358 294.087C135.262 292.939 135.138 291.768 134.987 290.564L134.988 290.565Z" fill="#512473"/>
<path fill-rule="evenodd" clip-rule="evenodd" d="M134.784 289.078C134.599 287.806 134.378 286.511 134.128 285.185L84.5452 284.862C84.4748 285.63 84.3481 287.04 84.2283 288.904C100.961 291.323 117.963 288.629 134.784 289.078L134.784 289.078Z" fill="#BC8AFF"/>
<path fill-rule="evenodd" clip-rule="evenodd" d="M102.346 283.493C100.155 274.249 97.5117 264.441 90.3758 257.631C87.2459 254.638 83.653 252.423 79.6935 250.678C77.191 249.582 74.6576 248.787 72.0053 248.158C71.0751 247.93 69.9145 247.558 68.812 247.5C68.9875 247.695 69.1692 247.897 69.3522 248.092C70.7347 249.605 72.2197 250.997 73.6486 252.459C78.2889 257.194 81.7055 262.628 84.7492 268.51C87.4831 273.804 89.4591 279.251 93.8537 283.439L97.4296 283.464C95.3502 277.729 92.1269 272.72 88.5118 267.81C88.2697 267.478 88.3465 267.015 88.6702 266.772C89.0024 266.53 89.4656 266.599 89.7077 266.93C93.5021 272.088 96.8673 277.363 98.9895 283.419C98.9958 283.442 98.995 283.457 99.0017 283.471L102.347 283.492L102.346 283.493Z" fill="#AE72FF"/>
<path fill-rule="evenodd" clip-rule="evenodd" d="M100.798 250.797C98.147 246.605 93.6893 241.792 89.5311 239.317C87.8327 238.307 85.7612 237.218 83.754 237.846C83.8931 238.166 84.0988 238.622 84.1388 238.713C84.4225 239.388 84.7716 240.364 84.9894 241.014C85.9612 243.833 86.3403 246.77 87.2146 249.613C87.8607 251.703 89.1125 253.587 90.3163 255.387C90.3716 255.472 90.4103 255.57 90.4276 255.667C90.754 255.959 91.079 256.258 91.405 256.557C98.8295 263.65 101.593 273.866 103.869 283.47C103.868 283.484 103.875 283.492 103.874 283.507L104.015 283.507C103.64 278.545 103.419 273.16 102.343 268.095C101.259 263.044 99.3194 258.311 95.4352 254.715C95.1304 254.439 95.1112 253.97 95.3939 253.673C95.6696 253.369 96.1384 253.349 96.4354 253.632C100.561 257.441 102.649 262.435 103.792 267.786C104.892 272.957 105.114 278.459 105.5 283.519L106.005 283.516C105.844 280.658 106.447 277.803 106.406 274.929C106.296 266.879 105.268 258.083 101.005 251.127L100.991 251.111C100.906 251.026 100.837 250.918 100.799 250.797L100.798 250.797Z" fill="#AE72FF"/>
<path fill-rule="evenodd" clip-rule="evenodd" d="M120.239 246.746C120.218 246.715 120.198 246.678 120.179 246.632C117.253 240.333 113.75 234.301 109.668 228.676C108.872 227.587 107.686 225.87 106.296 224.661C105.679 224.124 105.027 223.674 104.347 223.483L104.256 224.213C104.112 225.117 104.012 225.602 103.816 226.498C103.344 228.573 102.709 230.602 102.221 232.676C101.64 235.102 101.141 237.547 101.112 240.053C101.07 243.516 101.577 246.853 102.193 250.24C102.221 250.278 102.24 250.317 102.268 250.355C106.668 257.532 107.778 266.6 107.889 274.909C107.923 277.776 107.312 280.63 107.481 283.496C107.48 283.504 107.487 283.519 107.486 283.526L110.134 283.547C109.893 280.677 109.526 278.202 109.785 275.277C110.091 271.716 110.743 268.227 111.701 264.834C111.61 264.74 111.549 264.618 111.519 264.482C110.302 258.853 109.762 252.62 106.8 247.582C106.597 247.229 106.717 246.776 107.069 246.564C107.421 246.36 107.874 246.48 108.079 246.832C110.762 251.389 111.54 256.899 112.549 262.095C114.047 257.625 116.099 253.326 118.622 249.251C119.149 248.411 119.69 247.578 120.238 246.746L120.239 246.746Z" fill="#AE72FF"/>
<path fill-rule="evenodd" clip-rule="evenodd" d="M127.859 263.238C127.811 263.146 127.787 263.048 127.778 262.937C127.565 257.857 127.275 252.781 127.944 247.704C128.355 244.564 129.66 241.071 129.854 237.808C129.815 237.844 129.776 237.872 129.746 237.899C128.753 238.722 127.858 239.647 126.985 240.573C124.273 243.45 121.965 246.69 119.889 250.039C115.088 257.77 112.061 266.337 111.256 275.407C111.008 278.289 111.384 280.72 111.62 283.552L112.955 283.563C113.499 277.47 114.65 272.12 116.563 266.248C117.244 264.161 118.066 261.667 119.358 259.821C119.59 259.485 120.055 259.397 120.392 259.638C120.728 259.872 120.808 260.335 120.575 260.665C119.363 262.404 118.608 264.746 117.97 266.701C116.11 272.429 114.981 277.645 114.446 283.575L115.677 283.581C115.674 283.506 115.671 283.425 115.682 283.352C117.097 275.382 121.53 268.158 127.86 263.239L127.859 263.238Z" fill="#AE72FF"/>
<path fill-rule="evenodd" clip-rule="evenodd" d="M124.534 283.639C124.556 283.506 124.606 283.383 124.701 283.277C127.066 280.514 128.586 277.315 130.183 274.164C131.847 270.898 133.59 267.68 136.343 265.006C138.353 263.057 140.882 261.683 143.466 260.655C144.331 260.307 145.21 259.968 146.094 259.673C145.045 259.157 143.869 258.939 142.661 258.906C139.941 258.837 137.044 259.752 134.84 260.741C125.611 264.915 118.917 273.652 117.145 283.591L120.082 283.613C120.072 283.524 120.084 283.435 120.111 283.347C121.321 279.545 122.723 275.901 125.019 272.609C125.251 272.272 125.708 272.192 126.045 272.426C126.381 272.658 126.469 273.123 126.228 273.459C124.06 276.573 122.735 280.028 121.581 283.618L124.533 283.64L124.534 283.639Z" fill="#AE72FF"/>
<path fill-rule="evenodd" clip-rule="evenodd" d="M100.208 247.367C97.4607 243.749 93.7641 240.118 90.2889 238.043C87.994 236.675 85.0994 235.417 82.4145 236.804C82.071 236.979 81.9685 237.241 81.9681 237.53C81.9701 237.634 81.9937 237.754 82.0532 237.883C82.0932 237.974 82.2521 238.183 82.3012 238.244C82.4148 238.48 82.7275 239.172 82.7658 239.278C83.0432 239.931 83.3794 240.869 83.5909 241.495C84.5486 244.299 84.9285 247.221 85.7962 250.049C86.1257 251.112 86.5924 252.125 87.1411 253.103C85.0005 251.625 82.706 250.391 80.2834 249.32C77.7019 248.182 75.0886 247.362 72.3477 246.713C70.8159 246.35 68.7341 245.721 67.0921 246.191C66.7831 246.278 66.6401 246.457 66.5658 246.609C66.4745 246.782 66.4433 246.965 66.4914 247.169C66.522 247.296 66.6019 247.464 66.7567 247.628C66.9185 247.8 67.2925 248.02 67.4398 248.183C67.7132 248.487 67.9792 248.791 68.2601 249.095C69.6492 250.623 71.1478 252.022 72.5909 253.501C77.1262 258.119 80.4518 263.436 83.4286 269.189C86.0148 274.185 87.9715 279.291 91.7676 283.424L83.882 283.371C83.5041 283.366 83.1845 283.654 83.1423 284.03C83.1423 284.03 80.7097 305.659 85.1021 320.294C87.0525 326.793 90.3592 331.902 95.6601 333.407C95.7338 333.426 95.8069 333.437 95.8809 333.434L126.328 332.866C126.522 332.862 126.703 332.782 126.836 332.649C126.836 332.649 142.022 317.547 135.465 284.306C135.394 283.96 135.096 283.707 134.739 283.703L126.312 283.652C128.489 280.939 129.964 277.871 131.504 274.836C133.094 271.714 134.74 268.625 137.376 266.07C139.245 264.247 141.605 262.992 144.008 262.027C144.887 261.68 145.773 261.341 146.664 261.039C146.936 260.95 147.207 260.867 147.479 260.785C147.524 260.78 147.836 260.753 147.942 260.728C148.145 260.679 148.276 260.597 148.353 260.528C148.54 260.359 148.61 260.156 148.606 259.94C148.607 259.784 148.567 259.559 148.311 259.345C146.726 258.03 144.758 257.481 142.699 257.424C139.749 257.351 136.611 258.32 134.224 259.397C132.468 260.187 130.793 261.137 129.229 262.227C129.021 257.445 128.776 252.675 129.406 247.9C129.898 244.208 131.551 240.021 131.332 236.291C131.312 235.963 131.158 235.793 131.03 235.689C130.873 235.57 130.676 235.499 130.444 235.532C130.332 235.548 130.166 235.599 129.996 235.731C129.857 235.834 129.642 236.098 129.511 236.194C129.271 236.382 129.024 236.562 128.791 236.758C127.759 237.615 126.817 238.583 125.898 239.558C124.193 241.368 122.642 243.32 121.207 245.344C118.311 239.195 114.859 233.306 110.86 227.805C110.023 226.647 108.746 224.836 107.27 223.549C106.176 222.593 104.963 221.927 103.741 221.893C103.69 221.897 103.102 221.918 102.979 222.542C102.937 222.777 102.793 223.965 102.793 223.973C102.651 224.848 102.559 225.31 102.365 226.169C101.899 228.244 101.266 230.266 100.778 232.334C100.177 234.87 99.6642 237.417 99.6296 240.035C99.6018 242.527 99.8459 244.944 100.207 247.368L100.208 247.367ZM134.988 290.566C118.072 290.081 100.972 292.792 84.1428 290.391C83.7532 297.776 83.662 310.335 86.5202 319.873C88.2938 325.776 91.167 330.537 95.9674 331.954C95.9674 331.954 125.984 331.386 125.991 331.386C126.441 330.891 127.604 329.505 128.98 327.196C126.926 327.591 124.861 327.779 122.758 327.683C122.344 327.661 122.028 327.318 122.049 326.911C122.071 326.504 122.414 326.18 122.821 326.202C125.235 326.314 127.595 326.023 129.947 325.48C130.573 324.296 131.216 322.935 131.84 321.387C129.883 321.915 128.013 322.321 125.943 322.323C125.535 322.331 125.203 321.994 125.203 321.586C125.202 321.178 125.532 320.846 125.94 320.846C128.219 320.833 130.228 320.308 132.419 319.689C132.442 319.683 132.465 319.677 132.487 319.678C133.046 318.104 133.567 316.373 134.023 314.482C131.649 315.04 129.258 315.344 126.802 315.333C126.394 315.334 126.064 314.997 126.063 314.589C126.069 314.181 126.399 313.849 126.807 313.849C129.388 313.867 131.893 313.509 134.383 312.869C134.691 311.379 134.953 309.79 135.16 308.116C132.398 308.839 129.693 309.215 126.809 308.87C126.404 308.819 126.111 308.447 126.162 308.042C126.206 307.636 126.577 307.344 126.983 307.395C129.865 307.748 132.56 307.304 135.332 306.53L135.333 306.515C135.413 305.703 135.472 304.882 135.515 304.068C135.566 303.233 135.595 302.396 135.609 301.565L135.61 301.558C133.104 301.796 130.604 301.918 128.088 301.918C127.68 301.919 127.348 301.582 127.348 301.174C127.348 300.766 127.684 300.435 128.092 300.435C130.615 300.442 133.115 300.314 135.621 300.067L135.623 300.023C135.617 299.302 135.604 298.574 135.582 297.853C135.554 297.102 135.52 296.359 135.47 295.614L135.465 295.569C131.849 296.186 128.286 296.207 124.629 296.459C124.22 296.482 123.865 296.174 123.834 295.772C123.803 295.362 124.119 295.008 124.521 294.977C128.185 294.725 131.741 294.719 135.358 294.087C135.262 292.939 135.138 291.768 134.987 290.565L134.988 290.566ZM134.784 289.078C134.599 287.806 134.378 286.511 134.129 285.185L84.5457 284.862C84.4753 285.63 84.3486 287.04 84.2288 288.904C100.961 291.323 117.963 288.628 134.784 289.078ZM102.346 283.493C100.155 274.25 97.5118 264.441 90.3758 257.631C87.246 254.638 83.653 252.424 79.6935 250.679C77.191 249.582 74.6576 248.787 72.0054 248.158C71.0752 247.931 69.9146 247.558 68.8121 247.5C68.9876 247.695 69.1693 247.897 69.3523 248.093C70.7347 249.606 72.2197 250.997 73.6487 252.46C78.289 257.194 81.7055 262.629 84.7492 268.51C87.4831 273.804 89.4592 279.251 93.8538 283.439L97.4297 283.464C95.3502 277.729 92.1269 272.721 88.5118 267.811C88.2698 267.478 88.3465 267.016 88.6703 266.772C89.0024 266.53 89.4656 266.599 89.7077 266.931C93.5021 272.088 96.8673 277.363 98.9895 283.419C98.9958 283.442 98.995 283.457 99.0017 283.471L102.347 283.492L102.346 283.493ZM100.799 250.797C98.1475 246.605 93.6898 241.792 89.5316 239.317C87.8331 238.307 85.7617 237.217 83.7545 237.846C83.8936 238.166 84.0993 238.622 84.1393 238.713C84.423 239.388 84.7721 240.364 84.9899 241.014C85.9617 243.833 86.3408 246.77 87.2151 249.613C87.8612 251.703 89.113 253.587 90.3168 255.387C90.3721 255.472 90.4108 255.57 90.4281 255.667C90.7545 255.959 91.0795 256.258 91.4055 256.557C98.83 263.65 101.594 273.866 103.87 283.47C103.869 283.484 103.876 283.492 103.875 283.507L104.016 283.507C103.64 278.545 103.419 273.16 102.344 268.095C101.26 263.044 99.3199 258.311 95.4357 254.715C95.1309 254.439 95.1117 253.97 95.3944 253.673C95.6701 253.369 96.1389 253.349 96.4359 253.632C100.561 257.441 102.65 262.435 103.792 267.786C104.892 272.957 105.114 278.459 105.5 283.519L106.005 283.516C105.844 280.658 106.448 277.803 106.406 274.929C106.297 266.879 105.269 258.083 101.005 251.127L100.991 251.111C100.907 251.026 100.837 250.917 100.799 250.797ZM120.239 246.747C120.219 246.716 120.198 246.678 120.179 246.632C117.254 240.334 113.75 234.302 109.668 228.676C108.872 227.588 107.687 225.87 106.296 224.662C105.68 224.125 105.027 223.675 104.347 223.483L104.256 224.213C104.113 225.118 104.012 225.603 103.817 226.498C103.344 228.573 102.709 230.602 102.222 232.677C101.641 235.103 101.141 237.547 101.112 240.054C101.071 243.517 101.577 246.854 102.193 250.24C102.221 250.279 102.24 250.317 102.268 250.355C106.669 257.533 107.778 266.6 107.889 274.91C107.924 277.776 107.313 280.631 107.481 283.497C107.48 283.504 107.487 283.519 107.487 283.527L110.135 283.548C109.893 280.678 109.526 278.203 109.785 275.278C110.091 271.717 110.743 268.227 111.701 264.834C111.61 264.741 111.549 264.619 111.519 264.483C110.302 258.853 109.763 252.621 106.8 247.582C106.597 247.23 106.717 246.776 107.069 246.564C107.421 246.361 107.875 246.481 108.079 246.832C110.762 251.39 111.54 256.9 112.55 262.095C114.047 257.625 116.099 253.326 118.622 249.252C119.15 248.411 119.691 247.579 120.239 246.747ZM127.859 263.237C127.811 263.146 127.788 263.048 127.779 262.936C127.565 257.857 127.275 252.78 127.945 247.703C128.355 244.564 129.66 241.071 129.854 237.808C129.815 237.843 129.776 237.871 129.746 237.899C128.753 238.722 127.858 239.647 126.986 240.573C124.273 243.45 121.965 246.689 119.889 250.038C115.088 257.77 112.061 266.337 111.256 275.407C111.008 278.288 111.384 280.719 111.62 283.552L112.956 283.562C113.499 277.469 114.65 272.12 116.563 266.248C117.245 264.161 118.066 261.667 119.358 259.82C119.591 259.484 120.056 259.397 120.392 259.638C120.728 259.871 120.808 260.335 120.575 260.664C119.363 262.403 118.608 264.746 117.971 266.701C116.11 272.428 114.981 277.645 114.446 283.575L115.678 283.581C115.674 283.506 115.671 283.425 115.682 283.351C117.097 275.382 121.53 268.158 127.86 263.238L127.859 263.237ZM124.534 283.639C124.556 283.507 124.606 283.383 124.702 283.277C127.066 280.515 128.586 277.316 130.184 274.165C131.847 270.898 133.59 267.68 136.343 265.006C138.353 263.057 140.882 261.684 143.467 260.656C144.331 260.308 145.21 259.969 146.094 259.674C145.045 259.158 143.869 258.94 142.662 258.906C139.941 258.837 137.044 259.753 134.84 260.742C125.611 264.915 118.917 273.652 117.145 283.592L120.082 283.613C120.072 283.524 120.084 283.435 120.111 283.348C121.321 279.546 122.723 275.902 125.019 272.609C125.251 272.273 125.708 272.193 126.045 272.426C126.381 272.659 126.469 273.124 126.228 273.46C124.06 276.574 122.735 280.029 121.581 283.619L124.533 283.641L124.534 283.639Z" fill="#512473"/>
<path d="M336.712 310.319C336.712 303.253 336.712 296.261 336.712 289.168C335.243 288.997 333.816 288.846 332.394 288.663C325.365 287.755 318.533 286.088 312.089 283.085C309.592 281.921 307.165 280.585 304.793 279.181C302.689 277.936 302.694 277.677 303.501 275.395C307.411 264.341 311.445 253.335 316.288 242.647C317.953 238.973 319.751 235.359 321.461 231.706C322.004 230.547 322.895 229.798 324.073 229.452C326.146 228.842 328.221 228.185 330.341 227.796C337.726 226.443 345.059 226.854 352.319 228.725C352.688 228.82 353.048 228.954 353.412 229.067C355.088 229.585 356.416 230.404 357.189 232.156C359.296 236.935 361.621 241.618 363.726 246.397C368.059 256.239 371.657 266.367 375.279 276.484C375.546 277.229 375.501 277.814 374.967 278.34C374.212 279.082 373.479 279.867 372.633 280.493C368.341 283.665 363.536 285.753 358.39 287.102C353.354 288.422 348.239 289.161 343.033 289.274C342.651 289.282 342.269 289.315 341.889 289.349C341.812 289.356 341.74 289.421 341.633 289.475C341.633 296.457 341.633 303.453 341.633 310.498C343.301 310.709 344.898 310.874 346.484 311.119C350.438 311.729 354.313 312.669 358.026 314.181C359.042 314.595 360.009 315.148 360.954 315.712C361.84 316.241 362.217 317.044 362.367 318.119C362.75 320.865 361.611 322.66 359.296 323.976C356.633 325.49 353.755 326.333 350.786 326.907C344.691 328.085 338.545 328.282 332.38 327.638C328.525 327.235 324.744 326.435 321.17 324.871C319.57 324.171 318.051 323.333 316.843 322.011C316.294 321.411 315.953 320.791 316.029 319.959C316.068 319.537 316.086 319.102 316.025 318.685C315.808 317.205 316.576 316.202 317.717 315.534C319.214 314.658 320.765 313.838 322.372 313.192C326.542 311.515 330.903 310.641 335.392 310.417C335.805 310.395 336.218 310.356 336.712 310.319ZM303.722 277.306C304.89 278.043 306.01 278.803 307.18 279.479C316.174 284.678 325.975 287.201 336.237 288.13C342.672 288.713 349.051 288.239 355.37 286.892C360.897 285.714 366.167 283.887 370.883 280.7C372.004 279.943 373.023 279.033 374.07 278.169C374.615 277.719 374.737 277.201 374.438 276.482C373.72 274.758 373.077 273.002 372.449 271.242C367.877 258.433 362.793 245.836 356.883 233.58C356.593 232.978 356.299 232.379 356.027 231.821C350.61 234.272 344.955 234.819 339.242 234.711C333.512 234.602 327.814 234.067 322.613 231.336C315.204 246.161 309.326 261.544 303.722 277.306ZM341.567 311.51C341.567 312.287 341.572 312.791 341.566 313.294C341.556 314.102 341.579 314.912 341.514 315.716C341.438 316.638 340.633 317.186 339.359 317.266C337.946 317.356 337.119 316.938 336.911 315.979C336.813 315.525 336.786 315.052 336.77 314.586C336.747 313.906 336.774 313.225 336.759 312.545C336.751 312.179 336.702 311.815 336.668 311.411C336.322 311.395 336.072 311.367 335.824 311.375C332.322 311.473 328.899 312.042 325.544 313.051C323.052 313.8 320.654 314.757 318.424 316.107C317.354 316.755 316.533 317.546 316.839 318.972C316.9 319.257 316.888 319.572 316.841 319.862C316.734 320.527 317.011 320.959 317.504 321.391C319.431 323.08 321.685 324.133 324.095 324.892C327.348 325.917 330.682 326.513 334.085 326.776C340.571 327.277 346.996 326.957 353.322 325.376C356.015 324.703 358.595 323.739 360.726 321.844C361.27 321.361 361.619 320.89 361.514 320.103C361.425 319.435 361.458 318.741 361.514 318.066C361.563 317.472 361.333 317.071 360.847 316.81C359.652 316.169 358.486 315.451 357.235 314.943C353.878 313.58 350.359 312.764 346.797 312.157C345.13 311.874 343.439 311.737 341.567 311.51ZM323.469 230.695C325.145 231.618 326.75 232.14 328.392 232.522C334.235 233.882 340.151 234.171 346.103 233.506C348.757 233.21 351.395 232.75 353.91 231.786C354.387 231.603 354.836 231.349 355.409 231.074C348.537 227.501 332.791 226.647 323.469 230.695ZM337.679 289.162C337.679 298.186 337.679 307.053 337.679 315.955C338.693 316.647 339.706 316.596 340.704 315.968C340.704 307.081 340.704 298.256 340.704 289.325C339.711 289.271 338.79 289.222 337.679 289.162Z" fill="#512473"/>
<path d="M322.768 231.808C327.958 234.436 333.608 234.954 339.234 235.061C344.864 235.168 350.469 234.641 355.858 232.276C356.088 232.747 356.328 233.237 356.566 233.731V233.732C362.47 245.975 367.549 258.559 372.118 271.359C372.746 273.12 373.391 274.883 374.113 276.616V276.617C374.246 276.935 374.268 277.168 374.228 277.351C374.188 277.529 374.077 277.709 373.846 277.899C372.786 278.775 371.788 279.665 370.686 280.41C366.019 283.565 360.796 285.378 355.296 286.55C349.008 287.89 342.665 288.361 336.268 287.781C326.042 286.856 316.293 284.343 307.354 279.176C306.271 278.549 305.238 277.856 304.145 277.161C309.679 261.606 315.483 246.434 322.768 231.808Z" fill="#AE72FF" stroke="#512473" stroke-width="0.7"/>
<path d="M361.514 320.104C361.425 319.436 361.458 318.742 361.514 318.067C361.542 317.729 361.476 317.455 361.327 317.232L360.617 317.974C360.551 318.205 360.517 318.389 360.407 318.481C360.019 318.804 359.596 319.095 359.156 319.345C355.523 321.409 351.555 322.449 347.467 323.083C343.004 323.775 338.517 324.008 334.009 323.597C329.292 323.167 324.691 322.252 320.368 320.231C319.582 319.864 318.788 319.473 318.286 318.731C318.339 318.638 318.392 318.545 318.445 318.451L317.067 317.331C316.803 317.772 316.695 318.302 316.839 318.974C316.9 319.259 316.888 319.574 316.841 319.864C316.734 320.529 317.011 320.961 317.504 321.393C319.431 323.082 321.685 324.135 324.095 324.894C327.348 325.919 330.682 326.515 334.085 326.778C340.571 327.279 346.996 326.959 353.322 325.378C356.015 324.705 358.595 323.742 360.726 321.846C361.27 321.362 361.619 320.891 361.514 320.104Z" fill="#BC8AFF"/>
<path d="M318.468 318.409C320.369 319.179 322.233 320.067 324.182 320.687C326.154 321.314 328.193 321.774 330.234 322.124C332.278 322.474 334.357 322.705 336.429 322.789C338.502 322.874 340.591 322.793 342.662 322.64C344.731 322.487 346.806 322.259 348.843 321.874C350.877 321.489 352.91 320.995 354.862 320.315C356.8 319.641 358.636 318.675 360.684 317.763C360.657 317.836 360.636 317.906 360.617 317.972L361.327 317.23C361.214 317.062 361.056 316.921 360.846 316.809C359.651 316.168 358.485 315.45 357.234 314.942C353.877 313.579 350.358 312.763 346.796 312.156C345.13 311.872 343.439 311.735 341.567 311.508C341.567 312.285 341.572 312.789 341.566 313.292C341.556 314.1 341.579 314.91 341.514 315.714C341.438 316.636 340.633 317.184 339.359 317.264C337.946 317.354 337.119 316.936 336.911 315.977C336.813 315.523 336.786 315.05 336.77 314.584C336.747 313.904 336.774 313.223 336.759 312.543C336.751 312.178 336.702 311.813 336.668 311.409C336.322 311.393 336.072 311.365 335.824 311.372C332.322 311.47 328.899 312.039 325.544 313.048C323.052 313.797 320.654 314.754 318.424 316.104C317.858 316.447 317.363 316.831 317.067 317.327L318.445 318.447C318.453 318.437 318.461 318.423 318.468 318.409Z" fill="#512473"/>
<path d="M328.335 232.509C328.354 232.513 328.373 232.518 328.392 232.523C334.235 233.883 340.151 234.172 346.103 233.507C347.855 233.311 349.6 233.044 351.307 232.608C350.239 231.796 348.914 231.438 347.51 231.237C340.895 230.154 334.503 230.302 328.335 232.509Z" fill="#AE72FF"/>
<path d="M355.409 231.076C348.537 227.502 332.791 226.648 323.469 230.696C325.125 231.608 326.713 232.129 328.335 232.51C334.503 230.303 340.895 230.155 347.51 231.237C348.914 231.437 350.239 231.796 351.307 232.608C352.186 232.384 353.055 232.115 353.91 231.788C354.386 231.606 354.836 231.351 355.409 231.076Z" fill="#512473"/>
<path d="M337.679 289.162C338.789 289.222 339.711 289.271 340.704 289.325C340.704 298.255 340.704 307.081 340.704 315.968C339.707 316.597 338.693 316.647 337.679 315.955C337.679 307.053 337.679 298.186 337.679 289.162Z" fill="#512473"/>
<path d="M318.468 318.41C320.369 319.18 322.233 320.068 324.182 320.688C326.154 321.315 328.193 321.775 330.234 322.125C332.278 322.475 334.357 322.706 336.429 322.79C338.502 322.875 340.591 322.794 342.662 322.641C344.731 322.488 346.806 322.26 348.843 321.875C350.877 321.49 352.91 320.996 354.862 320.316C356.8 319.642 358.636 318.676 360.684 317.764C360.564 318.093 360.549 318.362 360.407 318.48C360.019 318.803 359.595 319.094 359.156 319.344C355.523 321.408 351.555 322.448 347.467 323.082C343.004 323.774 338.517 324.007 334.009 323.596C329.292 323.166 324.691 322.251 320.368 320.23C319.582 319.863 318.788 319.472 318.286 318.73C318.346 318.624 318.407 318.517 318.468 318.41Z" fill="#512473"/>
<path d="M610.17 236.931C612.983 234.537 617.149 235.689 618.696 238.545C619.523 240.07 619.59 241.664 618.759 243.164C618.012 244.512 617.184 245.897 616.135 247.064C609.997 253.891 603.402 260.255 596.572 266.368L595.203 267.588C594.556 268.162 593.858 268.734 593.091 269.183H593.09C592.803 269.35 592.445 269.557 592.084 269.702C591.734 269.843 591.315 269.955 590.928 269.857H590.927C590.374 269.717 589.989 269.801 589.664 269.985C589.314 270.183 589.017 270.503 588.654 270.893C587.144 272.513 585.627 274.129 584.11 275.75C586.056 276.327 588.217 276.566 590.367 276.52C593.086 276.46 595.803 276.081 598.537 275.736L599.011 275.685C600.115 275.584 601.213 275.654 602.245 276.352C602.589 276.584 602.87 276.881 602.972 277.263C603.077 277.657 602.971 278.059 602.705 278.447H602.704C602.444 278.827 602.18 279.236 601.893 279.63L601.597 280.016C593.576 289.964 584.947 299.344 575.855 308.328C567.824 316.265 558.254 321.264 547.621 324.485C544.323 325.484 540.979 326.427 537.497 326.76C535.034 326.995 533.178 326.672 531.708 325.811C530.239 324.95 529.202 323.58 528.323 321.815C526.749 318.657 526.578 315.252 526.67 311.895C526.903 303.37 529.56 295.693 534.622 288.791C541.481 279.438 549.284 270.966 557.715 263.062L559.409 261.489C559.964 260.979 560.553 260.732 561.168 260.684C561.773 260.636 562.377 260.785 562.966 261.017C564.117 261.469 564.89 262.324 565.529 263.287H565.528C566.737 265.108 567.916 266.93 569.245 268.631C570.685 270.472 572.477 271.851 574.969 272.467C577.734 270.032 580.472 267.621 583.309 265.124C582.933 264.105 582.97 263.199 583.29 262.367C583.628 261.488 584.272 260.715 585 259.986C593.05 251.924 601.499 244.304 610.17 236.931ZM561.107 262.508C560.825 262.551 560.511 262.719 560.168 263.066C558.913 264.336 557.618 265.567 556.335 266.798C555.051 268.03 553.777 269.263 552.554 270.542C546.365 277.014 540.421 283.67 535.281 291.017C530.283 298.161 528.307 306.095 528.583 314.708C528.648 316.748 528.991 318.736 529.822 320.605C530.604 322.365 531.444 323.484 532.524 324.15C533.604 324.817 534.977 325.064 536.894 324.964C539.852 324.809 542.682 324.008 545.56 323.195C557.277 319.889 567.475 314.172 576.1 305.402C584.641 296.717 592.729 287.667 600.422 278.24C600.505 278.137 600.58 278.019 600.668 277.868C600.695 277.821 600.725 277.771 600.756 277.717C599.992 277.503 599.285 277.601 598.517 277.707C598.073 277.768 597.631 277.853 597.177 277.938C596.726 278.023 596.264 278.108 595.797 278.165C591.942 278.634 588.098 278.577 584.292 277.733L583.531 277.554C582.831 277.378 581.848 277.102 581.556 276.052C581.478 275.774 581.481 275.52 581.558 275.29C581.633 275.064 581.77 274.888 581.913 274.749C582.053 274.613 582.216 274.496 582.352 274.397C582.496 274.293 582.612 274.207 582.705 274.115L586.323 270.546C587.532 269.358 588.745 268.174 589.968 267C590.269 266.711 590.374 266.452 590.381 266.234C590.387 266.013 590.294 265.768 590.072 265.506C589.716 265.084 589.2 264.704 588.766 264.631C587.534 264.423 586.472 264.646 585.45 265.601C582.602 268.263 579.552 270.761 576.666 273.347C576.126 273.831 575.571 274.099 574.974 274.177C574.383 274.253 573.784 274.138 573.16 273.914C571.145 273.189 569.463 271.979 568.155 270.352C567.412 269.427 566.728 268.459 566.057 267.494C565.383 266.527 564.722 265.566 564.016 264.641V264.64C563.47 263.924 562.761 263.282 562.008 262.763H562.007C561.677 262.535 561.382 262.466 561.107 262.508ZM614.846 237.718C613.439 237.342 612.119 237.344 610.984 238.392C605.33 243.611 599.639 248.768 594.008 254.006C591.24 256.581 588.586 259.269 585.869 261.92C585.531 262.25 585.252 262.55 585.094 262.858C584.992 263.058 584.944 263.256 584.971 263.472C585.95 263.186 586.96 262.834 587.971 262.692C588.763 262.581 589.514 262.67 590.179 262.979C590.845 263.288 591.405 263.809 591.829 264.527C592.238 265.22 592.38 265.905 592.275 266.581C592.218 266.95 592.087 267.305 591.899 267.648C592.658 267.327 593.262 266.759 593.896 266.155C599.379 260.932 604.853 255.701 610.276 250.418C612.157 248.587 613.941 246.646 615.679 244.669C616.765 243.432 617.565 242.033 617.344 240.444C617.153 239.074 616.213 238.084 614.846 237.718Z" fill="#512473" stroke="#512473" stroke-width="0.7"/>
<mask id="path-42-outside-1_726_2272" maskUnits="userSpaceOnUse" x="527.208" y="261.144" width="76" height="65" fill="black">
<rect fill="white" x="527.208" y="261.144" width="76" height="65"/>
<path d="M559.919 262.818C560.672 262.057 561.434 261.938 562.208 262.472C562.986 263.008 563.722 263.676 564.294 264.426C565.72 266.291 566.96 268.301 568.429 270.13C569.697 271.707 571.325 272.879 573.28 273.582C574.47 274.01 575.439 273.974 576.433 273.084C579.339 270.48 582.364 268.006 585.212 265.343C586.323 264.304 587.5 264.06 588.825 264.283C589.377 264.376 589.962 264.828 590.341 265.277C590.344 265.281 590.346 265.285 590.349 265.288C579.531 275.116 569.291 285.76 557.533 294.509C558.121 293.407 558.786 292.482 559.53 291.624C562.011 288.766 564.558 285.965 567.105 283.166C569.075 281.003 571.09 278.882 573.075 276.733C573.44 276.336 573.754 275.893 574.165 275.381C573.226 274.955 572.906 275.533 572.542 275.911C569.279 279.3 565.961 282.639 562.795 286.116C560.716 288.401 558.826 290.864 556.925 293.304C556.373 294.012 556.058 294.91 555.666 295.735C555.396 296.301 555.422 296.863 555.925 297.305C556.432 297.75 557.001 297.67 557.524 297.357C558.555 296.741 559.615 296.154 560.572 295.434C562.083 294.296 563.551 293.095 564.983 291.859C569.412 288.036 573.822 284.192 578.219 280.333C578.969 279.676 579.773 279.025 580.271 277.798C580.223 277.802 580.179 277.804 580.133 277.808V277.809C579.679 277.84 579.367 277.795 579.18 277.926C578.572 278.351 578.011 278.848 577.452 279.341C574.18 282.223 570.94 285.141 567.638 287.987C565.12 290.16 562.539 292.262 559.958 294.36C559.063 295.086 558.124 295.779 556.707 296.314C556.962 295.659 557.237 295.062 557.534 294.511C569.292 285.762 579.532 275.118 590.35 265.29C590.859 265.9 590.904 266.588 590.212 267.253C587.769 269.6 585.363 271.983 582.954 274.364C582.493 274.818 581.65 275.075 581.895 275.958C581.918 276.043 581.95 276.121 581.984 276.194L581.982 276.195C582.283 276.84 582.967 277.052 583.616 277.214C587.62 278.215 591.675 278.314 595.754 277.817C596.663 277.707 597.56 277.485 598.468 277.36C599.357 277.238 600.26 277.106 601.278 277.527C601.037 277.916 600.896 278.212 600.696 278.457C592.996 287.892 584.9 296.952 576.35 305.646C567.68 314.462 557.426 320.209 545.656 323.53C542.785 324.341 539.916 325.154 536.913 325.311C533.011 325.514 531.095 324.324 529.503 320.745C528.649 318.824 528.3 316.789 528.234 314.718C527.955 306.04 529.948 298.028 534.996 290.814C540.15 283.445 546.108 276.774 552.301 270.298C554.759 267.728 557.417 265.349 559.919 262.818Z"/>
</mask>
<path d="M559.919 262.818C560.672 262.057 561.434 261.938 562.208 262.472C562.986 263.008 563.722 263.676 564.294 264.426C565.72 266.291 566.96 268.301 568.429 270.13C569.697 271.707 571.325 272.879 573.28 273.582C574.47 274.01 575.439 273.974 576.433 273.084C579.339 270.48 582.364 268.006 585.212 265.343C586.323 264.304 587.5 264.06 588.825 264.283C589.377 264.376 589.962 264.828 590.341 265.277C590.344 265.281 590.346 265.285 590.349 265.288C579.531 275.116 569.291 285.76 557.533 294.509C558.121 293.407 558.786 292.482 559.53 291.624C562.011 288.766 564.558 285.965 567.105 283.166C569.075 281.003 571.09 278.882 573.075 276.733C573.44 276.336 573.754 275.893 574.165 275.381C573.226 274.955 572.906 275.533 572.542 275.911C569.279 279.3 565.961 282.639 562.795 286.116C560.716 288.401 558.826 290.864 556.925 293.304C556.373 294.012 556.058 294.91 555.666 295.735C555.396 296.301 555.422 296.863 555.925 297.305C556.432 297.75 557.001 297.67 557.524 297.357C558.555 296.741 559.615 296.154 560.572 295.434C562.083 294.296 563.551 293.095 564.983 291.859C569.412 288.036 573.822 284.192 578.219 280.333C578.969 279.676 579.773 279.025 580.271 277.798C580.223 277.802 580.179 277.804 580.133 277.808V277.809C579.679 277.84 579.367 277.795 579.18 277.926C578.572 278.351 578.011 278.848 577.452 279.341C574.18 282.223 570.94 285.141 567.638 287.987C565.12 290.16 562.539 292.262 559.958 294.36C559.063 295.086 558.124 295.779 556.707 296.314C556.962 295.659 557.237 295.062 557.534 294.511C569.292 285.762 579.532 275.118 590.35 265.29C590.859 265.9 590.904 266.588 590.212 267.253C587.769 269.6 585.363 271.983 582.954 274.364C582.493 274.818 581.65 275.075 581.895 275.958C581.918 276.043 581.95 276.121 581.984 276.194L581.982 276.195C582.283 276.84 582.967 277.052 583.616 277.214C587.62 278.215 591.675 278.314 595.754 277.817C596.663 277.707 597.56 277.485 598.468 277.36C599.357 277.238 600.26 277.106 601.278 277.527C601.037 277.916 600.896 278.212 600.696 278.457C592.996 287.892 584.9 296.952 576.35 305.646C567.68 314.462 557.426 320.209 545.656 323.53C542.785 324.341 539.916 325.154 536.913 325.311C533.011 325.514 531.095 324.324 529.503 320.745C528.649 318.824 528.3 316.789 528.234 314.718C527.955 306.04 529.948 298.028 534.996 290.814C540.15 283.445 546.108 276.774 552.301 270.298C554.759 267.728 557.417 265.349 559.919 262.818Z" fill="#AE72FF"/>
<path d="M559.919 262.818L560.417 263.311L560.417 263.31L559.919 262.818ZM562.208 262.472L561.81 263.048L561.81 263.048L562.208 262.472ZM564.294 264.426L563.738 264.85L563.738 264.851L564.294 264.426ZM568.429 270.13L567.884 270.568L567.884 270.569L568.429 270.13ZM573.28 273.582L573.043 274.241L573.043 274.241L573.28 273.582ZM576.433 273.084L575.966 272.563L575.966 272.563L576.433 273.084ZM585.212 265.343L585.69 265.854L585.691 265.854L585.212 265.343ZM588.825 264.283L588.708 264.974L588.709 264.974L588.825 264.283ZM590.341 265.277L590.924 264.889L590.902 264.856L590.876 264.826L590.341 265.277ZM590.349 265.288L590.82 265.806L591.363 265.312L590.844 264.793L590.349 265.288ZM557.533 294.509L556.915 294.179L557.951 295.07L557.533 294.509ZM559.53 291.624L559.001 291.165L559.001 291.165L559.53 291.624ZM567.105 283.166L566.587 282.695L566.587 282.695L567.105 283.166ZM573.075 276.733L573.589 277.207L573.589 277.207L573.075 276.733ZM574.165 275.381L574.711 275.819L575.274 275.116L574.454 274.744L574.165 275.381ZM572.542 275.911L572.038 275.425L572.037 275.426L572.542 275.911ZM562.795 286.116L562.278 285.645L562.278 285.645L562.795 286.116ZM556.925 293.304L557.477 293.734L557.478 293.734L556.925 293.304ZM555.666 295.735L556.297 296.037L556.298 296.036L555.666 295.735ZM555.925 297.305L556.387 296.779L556.387 296.779L555.925 297.305ZM557.524 297.357L557.165 296.756L557.164 296.756L557.524 297.357ZM560.572 295.434L560.993 295.993L560.993 295.993L560.572 295.434ZM564.983 291.859L565.44 292.389L565.44 292.389L564.983 291.859ZM578.219 280.333L577.758 279.807L577.758 279.807L578.219 280.333ZM580.271 277.798L580.92 278.061L581.353 276.992L580.205 277.101L580.271 277.798ZM580.133 277.808L580.081 277.11L579.433 277.158V277.808H580.133ZM580.133 277.809L580.181 278.507L580.833 278.463V277.809H580.133ZM579.18 277.926L579.581 278.5L579.581 278.5L579.18 277.926ZM577.452 279.341L577.914 279.866L577.915 279.866L577.452 279.341ZM567.638 287.987L567.181 287.457L567.181 287.457L567.638 287.987ZM559.958 294.36L560.399 294.904L560.399 294.904L559.958 294.36ZM556.707 296.314L556.055 296.059L555.483 297.523L556.954 296.969L556.707 296.314ZM557.534 294.511L557.116 293.949L556.991 294.042L556.917 294.179L557.534 294.511ZM590.35 265.29L590.888 264.842L590.42 264.281L589.879 264.772L590.35 265.29ZM590.212 267.253L590.697 267.758L590.698 267.758L590.212 267.253ZM582.954 274.364L583.445 274.863L583.446 274.862L582.954 274.364ZM581.895 275.958L582.571 275.775L582.57 275.771L581.895 275.958ZM581.984 276.194L582.297 276.821L582.907 276.515L582.618 275.897L581.984 276.194ZM581.982 276.195L581.669 275.569L581.06 275.874L581.348 276.491L581.982 276.195ZM583.616 277.214L583.786 276.535L583.785 276.535L583.616 277.214ZM595.754 277.817L595.67 277.123L595.67 277.123L595.754 277.817ZM598.468 277.36L598.564 278.054L598.564 278.054L598.468 277.36ZM601.278 277.527L601.873 277.896L602.307 277.196L601.546 276.881L601.278 277.527ZM600.696 278.457L600.154 278.014L600.154 278.015L600.696 278.457ZM576.35 305.646L575.851 305.155L575.851 305.155L576.35 305.646ZM545.656 323.53L545.466 322.857L545.466 322.857L545.656 323.53ZM536.913 325.311L536.949 326.01L536.949 326.01L536.913 325.311ZM529.503 320.745L528.864 321.03L528.864 321.03L529.503 320.745ZM528.234 314.718L527.534 314.74L527.534 314.74L528.234 314.718ZM534.996 290.814L535.569 291.215L535.569 291.215L534.996 290.814ZM552.301 270.298L551.795 269.814L551.795 269.814L552.301 270.298ZM559.919 262.818L560.417 263.31C560.728 262.996 560.977 262.879 561.161 262.851C561.33 262.825 561.537 262.859 561.81 263.048L562.208 262.472L562.605 261.896C562.105 261.55 561.543 261.377 560.95 261.467C560.371 261.556 559.863 261.88 559.422 262.326L559.919 262.818ZM562.208 262.472L561.81 263.048C562.538 263.55 563.218 264.169 563.738 264.85L564.294 264.426L564.851 264.001C564.227 263.184 563.434 262.467 562.605 261.895L562.208 262.472ZM564.294 264.426L563.738 264.851C564.439 265.768 565.095 266.722 565.771 267.692C566.443 268.656 567.132 269.634 567.884 270.568L568.429 270.13L568.975 269.691C568.257 268.798 567.591 267.856 566.919 266.892C566.252 265.933 565.575 264.949 564.851 264.001L564.294 264.426ZM568.429 270.13L567.884 270.569C569.232 272.246 570.967 273.494 573.043 274.241L573.28 273.582L573.517 272.923C571.684 272.264 570.162 271.169 568.975 269.691L568.429 270.13ZM573.28 273.582L573.043 274.241C573.696 274.475 574.354 274.608 575.02 274.522C575.699 274.434 576.317 274.128 576.9 273.605L576.433 273.084L575.966 272.563C575.556 272.93 575.192 273.088 574.84 273.133C574.476 273.18 574.054 273.116 573.517 272.923L573.28 273.582ZM576.433 273.084L576.9 273.605C579.766 271.038 582.844 268.515 585.69 265.854L585.212 265.343L584.734 264.831C581.883 267.497 578.913 269.923 575.966 272.563L576.433 273.084ZM585.212 265.343L585.691 265.854C586.622 264.983 587.57 264.782 588.708 264.974L588.825 264.283L588.941 263.593C587.429 263.338 586.024 263.626 584.734 264.832L585.212 265.343ZM588.825 264.283L588.709 264.974C589.024 265.027 589.474 265.335 589.807 265.729L590.341 265.277L590.876 264.826C590.45 264.321 589.73 263.726 588.941 263.593L588.825 264.283ZM590.341 265.277L589.759 265.666C589.754 265.659 589.75 265.652 589.752 265.655C589.753 265.656 589.758 265.665 589.765 265.675C589.78 265.697 589.81 265.739 589.854 265.783L590.349 265.288L590.844 264.793C590.885 264.834 590.912 264.872 590.924 264.89C590.927 264.895 590.93 264.899 590.931 264.901C590.932 264.902 590.933 264.903 590.933 264.904C590.933 264.904 590.934 264.904 590.934 264.904C590.934 264.904 590.934 264.905 590.934 264.905C590.934 264.905 590.934 264.905 590.934 264.905C590.935 264.906 590.93 264.898 590.924 264.889L590.341 265.277ZM590.349 265.288L589.878 264.77C579.013 274.641 568.837 285.225 557.115 293.947L557.533 294.509L557.951 295.07C569.745 286.295 580.049 275.591 590.82 265.806L590.349 265.288ZM557.533 294.509L558.15 294.839C558.711 293.789 559.344 292.906 560.059 292.083L559.53 291.624L559.001 291.165C558.227 292.057 557.531 293.025 556.915 294.179L557.533 294.509ZM559.53 291.624L560.058 292.083C562.533 289.232 565.075 286.436 567.623 283.637L567.105 283.166L566.587 282.695C564.041 285.493 561.488 288.3 559.001 291.165L559.53 291.624ZM567.105 283.166L567.623 283.637C569.593 281.473 571.593 279.37 573.589 277.207L573.075 276.733L572.56 276.258C570.588 278.394 568.556 280.532 566.587 282.695L567.105 283.166ZM573.075 276.733L573.589 277.207C573.976 276.788 574.335 276.288 574.711 275.819L574.165 275.381L573.618 274.943C573.173 275.499 572.905 275.884 572.56 276.258L573.075 276.733ZM574.165 275.381L574.454 274.744C573.825 274.458 573.268 274.464 572.791 274.736C572.583 274.855 572.425 275.005 572.31 275.126C572.252 275.187 572.198 275.248 572.154 275.297C572.107 275.35 572.072 275.39 572.038 275.425L572.542 275.911L573.046 276.397C573.103 276.338 573.157 276.277 573.201 276.227C573.248 276.174 573.286 276.131 573.324 276.091C573.401 276.011 573.449 275.972 573.485 275.952C573.51 275.938 573.531 275.931 573.567 275.931C573.61 275.931 573.707 275.942 573.875 276.018L574.165 275.381ZM572.542 275.911L572.037 275.426C568.785 278.804 565.452 282.158 562.278 285.645L562.795 286.116L563.313 286.588C566.47 283.12 569.773 279.796 573.046 276.397L572.542 275.911ZM562.795 286.116L562.278 285.645C560.176 287.954 558.268 290.442 556.373 292.874L556.925 293.304L557.478 293.734C559.384 291.286 561.256 288.848 563.313 286.587L562.795 286.116ZM556.925 293.304L556.373 292.873C556.051 293.287 555.808 293.742 555.603 294.176C555.499 294.394 555.402 294.614 555.31 294.824C555.216 295.037 555.126 295.239 555.033 295.435L555.666 295.735L556.298 296.036C556.401 295.819 556.498 295.6 556.59 295.39C556.685 295.177 556.774 294.973 556.868 294.775C557.056 294.377 557.247 294.029 557.477 293.734L556.925 293.304ZM555.666 295.735L555.034 295.434C554.858 295.802 554.753 296.222 554.812 296.66C554.872 297.11 555.098 297.51 555.464 297.831L555.925 297.305L556.387 296.779C556.25 296.658 556.211 296.556 556.2 296.473C556.187 296.377 556.203 296.234 556.297 296.037L555.666 295.735ZM555.925 297.305L555.464 297.831C555.841 298.162 556.276 298.321 556.728 298.315C557.161 298.309 557.555 298.154 557.884 297.957L557.524 297.357L557.164 296.756C556.97 296.872 556.819 296.913 556.71 296.915C556.619 296.916 556.516 296.892 556.387 296.779L555.925 297.305ZM557.524 297.357L557.883 297.957C558.886 297.358 559.996 296.742 560.993 295.993L560.572 295.434L560.151 294.874C559.233 295.565 558.223 296.124 557.165 296.756L557.524 297.357ZM560.572 295.434L560.993 295.993C562.519 294.844 563.999 293.633 565.44 292.389L564.983 291.859L564.526 291.33C563.103 292.557 561.647 293.748 560.151 294.874L560.572 295.434ZM564.983 291.859L565.44 292.389C569.871 288.565 574.282 284.719 578.681 280.859L578.219 280.333L577.758 279.807C573.361 283.665 568.952 287.508 564.526 291.33L564.983 291.859ZM578.219 280.333L578.681 280.86C579.412 280.218 580.35 279.465 580.92 278.061L580.271 277.798L579.622 277.535C579.197 278.584 578.526 279.134 577.758 279.807L578.219 280.333ZM580.271 277.798L580.205 277.101C580.161 277.105 580.162 277.104 580.081 277.11L580.133 277.808L580.185 278.506C580.196 278.505 580.286 278.5 580.337 278.495L580.271 277.798ZM580.133 277.808H579.433V277.809H580.133H580.833V277.808H580.133ZM580.133 277.809L580.086 277.11C579.988 277.117 579.897 277.12 579.803 277.122C579.715 277.124 579.611 277.126 579.516 277.131C579.347 277.141 579.046 277.166 578.779 277.352L579.18 277.926L579.581 278.5C579.501 278.556 579.45 278.537 579.597 278.529C579.661 278.525 579.731 278.524 579.835 278.521C579.934 278.519 580.051 278.516 580.181 278.507L580.133 277.809ZM579.18 277.926L578.779 277.352C578.132 277.804 577.542 278.329 576.989 278.816L577.452 279.341L577.915 279.866C578.481 279.367 579.011 278.898 579.581 278.5L579.18 277.926ZM577.452 279.341L576.989 278.816C573.709 281.705 570.48 284.613 567.181 287.457L567.638 287.987L568.095 288.518C571.4 285.668 574.651 282.741 577.914 279.866L577.452 279.341ZM567.638 287.987L567.181 287.457C564.671 289.622 562.099 291.719 559.516 293.817L559.958 294.36L560.399 294.904C562.98 292.806 565.568 290.698 568.095 288.517L567.638 287.987ZM559.958 294.36L559.516 293.817C558.646 294.524 557.774 295.163 556.46 295.659L556.707 296.314L556.954 296.969C558.473 296.396 559.481 295.649 560.399 294.904L559.958 294.36ZM556.707 296.314L557.359 296.568C557.605 295.938 557.868 295.367 558.15 294.843L557.534 294.511L556.917 294.179C556.606 294.758 556.32 295.38 556.055 296.059L556.707 296.314ZM557.534 294.511L557.952 295.072C569.746 286.297 580.05 275.592 590.821 265.808L590.35 265.29L589.879 264.772C579.014 274.643 568.838 285.227 557.116 293.949L557.534 294.511ZM590.35 265.29L589.813 265.739C589.994 265.956 590.036 266.117 590.032 266.226C590.028 266.329 589.98 266.505 589.727 266.749L590.212 267.253L590.698 267.758C591.136 267.336 591.411 266.836 591.431 266.275C591.45 265.722 591.216 265.235 590.888 264.842L590.35 265.29ZM590.212 267.253L589.728 266.748C587.28 269.099 584.87 271.487 582.462 273.866L582.954 274.364L583.446 274.862C585.857 272.48 588.259 270.1 590.697 267.758L590.212 267.253ZM582.954 274.364L582.462 273.866C582.391 273.936 582.297 274.006 582.148 274.114C582.016 274.21 581.833 274.342 581.671 274.499C581.504 274.662 581.327 274.882 581.228 275.179C581.126 275.485 581.127 275.81 581.221 276.146L581.895 275.958L582.57 275.771C582.54 275.665 582.555 275.627 582.556 275.622C582.561 275.608 582.577 275.571 582.648 275.502C582.724 275.428 582.822 275.355 582.971 275.247C583.102 275.152 583.286 275.02 583.445 274.863L582.954 274.364ZM581.895 275.958L581.219 276.141C581.256 276.277 581.305 276.395 581.35 276.492L581.984 276.194L582.618 275.897C582.594 275.848 582.58 275.809 582.571 275.775L581.895 275.958ZM581.984 276.194L581.671 275.568L581.669 275.569L581.982 276.195L582.295 276.821L582.297 276.821L581.984 276.194ZM581.982 276.195L581.348 276.491C581.806 277.475 582.836 277.741 583.447 277.893L583.616 277.214L583.785 276.535C583.099 276.364 582.759 276.205 582.616 275.9L581.982 276.195ZM583.616 277.214L583.446 277.893C587.55 278.919 591.693 279.017 595.839 278.512L595.754 277.817L595.67 277.123C591.658 277.611 587.691 277.511 583.786 276.535L583.616 277.214ZM595.754 277.817L595.839 278.512C596.319 278.454 596.791 278.367 597.241 278.282C597.698 278.197 598.131 278.114 598.564 278.054L598.468 277.36L598.373 276.667C597.898 276.732 597.428 276.823 596.982 276.907C596.53 276.992 596.099 277.071 595.67 277.123L595.754 277.817ZM598.468 277.36L598.564 278.054C599.467 277.929 600.189 277.834 601.01 278.174L601.278 277.527L601.546 276.881C600.33 276.377 599.246 276.546 598.373 276.667L598.468 277.36ZM601.278 277.527L600.683 277.159C600.558 277.361 600.448 277.556 600.369 277.69C600.283 277.836 600.219 277.934 600.154 278.014L600.696 278.457L601.238 278.9C601.373 278.735 601.48 278.562 601.575 278.402C601.676 278.229 601.757 278.083 601.873 277.896L601.278 277.527ZM600.696 278.457L600.154 278.015C592.467 287.434 584.386 296.477 575.851 305.155L576.35 305.646L576.849 306.136C585.415 297.427 593.525 288.351 601.238 278.9L600.696 278.457ZM576.35 305.646L575.851 305.155C567.273 313.877 557.13 319.565 545.466 322.857L545.656 323.53L545.846 324.204C557.723 320.853 568.086 315.047 576.849 306.136L576.35 305.646ZM545.656 323.53L545.466 322.857C542.582 323.671 539.788 324.459 536.876 324.612L536.913 325.311L536.949 326.01C540.044 325.848 542.988 325.011 545.846 324.204L545.656 323.53ZM536.913 325.311L536.876 324.612C534.994 324.709 533.704 324.464 532.709 323.85C531.714 323.237 530.912 322.19 530.143 320.461L529.503 320.745L528.864 321.03C529.686 322.88 530.638 324.217 531.974 325.042C533.311 325.867 534.93 326.115 536.949 326.01L536.913 325.311ZM529.503 320.745L530.143 320.461C529.336 318.644 528.998 316.704 528.934 314.695L528.234 314.718L527.534 314.74C527.603 316.875 527.963 319.004 528.864 321.03L529.503 320.745ZM528.234 314.718L528.934 314.695C528.659 306.147 530.62 298.289 535.569 291.215L534.996 290.814L534.422 290.412C529.276 297.768 527.252 305.933 527.534 314.74L528.234 314.718ZM534.996 290.814L535.569 291.215C540.694 283.89 546.623 277.248 552.807 270.782L552.301 270.298L551.795 269.814C545.593 276.3 539.607 283.001 534.422 290.412L534.996 290.814ZM552.301 270.298L552.807 270.782C554.025 269.509 555.294 268.28 556.578 267.048C557.859 265.819 559.158 264.584 560.417 263.311L559.919 262.818L559.422 262.326C558.179 263.583 556.897 264.802 555.609 266.038C554.324 267.271 553.036 268.517 551.795 269.814L552.301 270.298Z" fill="#512473" mask="url(#path-42-outside-1_726_2272)"/>
<path d="M587.547 261.654C587.478 261.692 587.41 261.732 587.344 261.775C587.409 261.778 587.462 261.777 587.511 261.77L587.983 261.715C589.073 261.621 590.055 261.767 590.905 262.203C591.819 262.672 592.544 263.458 593.082 264.561L593.188 264.785V264.786C593.194 264.801 593.224 264.843 593.361 264.933C593.396 264.955 593.44 264.981 593.49 265.012L593.839 264.315L593.979 265.47C594.003 265.662 594 265.852 593.98 266.039V266.226L593.959 266.209C593.892 266.614 593.743 267.004 593.562 267.369L593.528 267.438L593.47 267.485C592.836 268.003 592.093 268.453 591.119 268.582L590.227 268.699L590.806 268.01C591.246 267.485 591.506 266.977 591.584 266.475C591.66 265.98 591.565 265.455 591.227 264.883H591.226C590.865 264.272 590.407 263.856 589.884 263.613C589.359 263.37 588.748 263.29 588.067 263.386C586.998 263.535 585.996 263.923 584.821 264.244L584.526 264.325L584.406 264.043C584.144 263.423 584.266 262.873 584.545 262.404L584.57 262.362L584.605 262.329C585.341 261.636 586.3 261.096 587.347 260.998L587.547 261.654Z" fill="#512473" stroke="#512473" stroke-width="0.7"/>
<path d="M610.507 237.878C611.897 236.594 613.515 236.637 615.025 237.041C615.965 237.292 616.756 237.806 617.298 238.529L617.404 238.677L617.449 238.744L617.46 238.824C617.67 240.301 616.847 241.877 616.003 242.931L616.002 242.93C609.508 251.54 601.328 257.656 593.753 264.498L593.314 264.895L593.178 264.319C592.895 263.121 592.052 262.175 590.742 261.63C589.598 261.154 588.442 261.165 587.545 261.654L587.482 261.689L587.411 261.695C586.559 261.774 585.74 262.221 585.084 262.839L584.543 262.405C584.761 262.04 585.078 261.712 585.378 261.419L589.426 257.435C590.779 256.106 592.141 254.784 593.529 253.493C599.158 248.257 604.862 243.089 610.507 237.878Z" fill="#512473" stroke="#512473" stroke-width="0.7"/>
<path d="M617.404 238.679C617.731 239.162 617.948 239.724 618.035 240.349V240.35C618.3 242.246 617.331 243.85 616.203 245.133C614.458 247.117 612.661 249.073 610.763 250.922C605.336 256.207 599.861 261.441 594.377 266.664V266.665C594.091 266.936 593.79 267.222 593.468 267.486L592.933 267.061C593.195 266.528 593.341 266.031 593.283 265.556L593.279 265.525L593.28 265.495C593.302 265.078 593.265 264.686 593.179 264.319L593.131 264.118L593.284 263.979C600.922 257.08 609.008 251.045 615.451 242.503L615.457 242.495C616.261 241.488 616.935 240.11 616.768 238.924L617.404 238.679Z" fill="#512473" stroke="#512473" stroke-width="0.7"/>
<path d="M573.012 275.128C573.338 274.942 573.74 274.916 574.266 275.155L574.558 275.288L574.358 275.539C573.96 276.036 573.63 276.5 573.256 276.904H573.255C571.267 279.059 569.257 281.172 567.288 283.336C564.74 286.135 562.195 288.934 559.716 291.79C558.723 292.934 557.875 294.196 557.164 295.853C558.249 295.369 559.036 294.785 559.799 294.166C562.381 292.068 564.958 289.968 567.473 287.798C569.123 286.375 570.758 284.935 572.389 283.49L577.286 279.152C577.843 278.662 578.414 278.155 579.036 277.721C579.205 277.602 579.415 277.584 579.592 277.577C579.792 277.569 579.989 277.574 580.246 277.549L580.658 277.508L580.502 277.892C579.979 279.181 579.128 279.869 578.384 280.521L578.383 280.52C573.985 284.379 569.575 288.224 565.146 292.048C563.711 293.287 562.239 294.491 560.722 295.633C559.751 296.363 558.673 296.961 557.652 297.57C557.367 297.741 557.051 297.86 556.722 297.864C556.387 297.869 556.058 297.754 555.76 297.492V297.491C555.468 297.235 555.303 296.931 555.258 296.6C555.214 296.272 555.291 295.94 555.44 295.627C555.536 295.424 555.628 295.216 555.721 295.005C555.814 294.794 555.909 294.58 556.009 294.368C556.209 293.945 556.435 293.525 556.728 293.149C558.627 290.713 560.522 288.241 562.61 285.947C565.778 282.467 569.102 279.121 572.361 275.736C572.402 275.694 572.444 275.647 572.49 275.596C572.534 275.546 572.583 275.49 572.634 275.437C572.737 275.329 572.86 275.215 573.012 275.128Z" fill="#512473" stroke="#512473" stroke-width="0.5"/>
<path d="M586.234 261.82C587.427 260.474 589.3 260.271 591.013 260.984C592.961 261.796 594.093 263.436 593.981 265.542L593.946 266.199L593.421 265.804C593.276 265.694 593.152 265.63 592.982 265.52C592.843 265.429 592.648 265.291 592.55 265.071C592.053 263.962 591.39 263.239 590.587 262.827C589.78 262.413 588.793 262.292 587.612 262.463H587.611C587.433 262.488 587.26 262.477 587.087 262.46C586.906 262.442 586.723 262.418 586.473 262.401L585.762 262.354L586.234 261.82Z" fill="#512473" stroke="#512473" stroke-width="0.7"/>
</svg>
