<svg width="100" height="98" viewBox="0 0 100 98" fill="none" xmlns="http://www.w3.org/2000/svg">
<g clip-path="url(#clip0_8026_44298)">
<path d="M97.9166 48.6116C97.9166 21.7644 76.1526 0.000488281 49.3054 0.000488281C22.4583 0.000488281 0.694336 21.7644 0.694336 48.6116C0.694336 75.4588 22.4583 97.2227 49.3054 97.2227C76.1526 97.2227 97.9166 75.4588 97.9166 48.6116Z" fill="#FBF9FF"/>
<g opacity="0.65">
<path d="M85.4529 7.36816H13.5306C11.0192 7.36816 8.9834 9.404 8.9834 11.9153V54.238C8.9834 56.7493 11.0192 58.7851 13.5306 58.7851H85.4529C87.9642 58.7851 90.0001 56.7493 90.0001 54.238V11.9153C90.0001 9.404 87.9642 7.36816 85.4529 7.36816Z" fill="#E8DEFF"/>
<path d="M83.0109 14.5142H15.9737C14.9208 14.5142 14.0674 15.3676 14.0674 16.4204V24.8399C14.0674 25.8927 14.9208 26.7461 15.9737 26.7461H83.0109C84.0637 26.7461 84.9172 25.8927 84.9172 24.8399V16.4204C84.9172 15.3676 84.0637 14.5142 83.0109 14.5142Z" fill="#FBF9FF"/>
<path d="M33.236 30.5603H15.9737C14.9208 30.5603 14.0674 31.4138 14.0674 32.4666V49.7295C14.0674 50.7823 14.9208 51.6358 15.9737 51.6358H33.236C34.2888 51.6358 35.1423 50.7823 35.1423 49.7295V32.4666C35.1423 31.4138 34.2888 30.5603 33.236 30.5603Z" fill="white"/>
<path d="M58.1228 30.5603H40.8604C39.8076 30.5603 38.9541 31.4138 38.9541 32.4666V49.7295C38.9541 50.7823 39.8076 51.6358 40.8604 51.6358H58.1228C59.1756 51.6358 60.029 50.7823 60.029 49.7295V32.4666C60.029 31.4138 59.1756 30.5603 58.1228 30.5603Z" fill="white"/>
<path d="M83.0105 30.5603H65.7481C64.6953 30.5603 63.8418 31.4138 63.8418 32.4666V49.7295C63.8418 50.7823 64.6953 51.6358 65.7481 51.6358H83.0105C84.0633 51.6358 84.9167 50.7823 84.9167 49.7295V32.4666C84.9167 31.4138 84.0633 30.5603 83.0105 30.5603Z" fill="white"/>
</g>
<path d="M93.4278 16.668H5.55555C2.48731 16.668 0 19.1553 0 22.2235V73.9319C0 77.0001 2.48731 79.4874 5.55555 79.4874H93.4278C96.496 79.4874 98.9833 77.0001 98.9833 73.9319V22.2235C98.9833 19.1553 96.496 16.668 93.4278 16.668Z" fill="#E8DEFF"/>
<path d="M90.4437 25.3984H8.53995C7.25367 25.3984 6.21094 26.4412 6.21094 27.7275V38.014C6.21094 39.3003 7.25367 40.343 8.53995 40.343H90.4437C91.73 40.343 92.7727 39.3003 92.7727 38.014V27.7275C92.7727 26.4412 91.73 25.3984 90.4437 25.3984Z" fill="#FBF9FF"/>
<path d="M29.6305 45.0029H8.53995C7.25367 45.0029 6.21094 46.0457 6.21094 47.3319V68.4232C6.21094 69.7095 7.25367 70.7522 8.53995 70.7522H29.6305C30.9168 70.7522 31.9595 69.7095 31.9595 68.4232V47.3319C31.9595 46.0457 30.9168 45.0029 29.6305 45.0029Z" fill="white"/>
<path d="M60.0368 45.0029H38.9462C37.6599 45.0029 36.6172 46.0457 36.6172 47.3319V68.4232C36.6172 69.7095 37.6599 70.7522 38.9462 70.7522H60.0368C61.3231 70.7522 62.3658 69.7095 62.3658 68.4232V47.3319C62.3658 46.0457 61.3231 45.0029 60.0368 45.0029Z" fill="white"/>
<path d="M90.443 45.0029H69.3524C68.0662 45.0029 67.0234 46.0457 67.0234 47.3319V68.4232C67.0234 69.7095 68.0662 70.7522 69.3524 70.7522H90.443C91.7293 70.7522 92.7721 69.7095 92.7721 68.4232V47.3319C92.7721 46.0457 91.7293 45.0029 90.443 45.0029Z" fill="white"/>
</g>
<defs>
<clipPath id="clip0_8026_44298">
<rect width="100" height="97.2222" fill="white"/>
</clipPath>
</defs>
</svg>
