<svg width="120" height="121" viewBox="0 0 120 121" fill="none" xmlns="http://www.w3.org/2000/svg">
<g clip-path="url(#clip0_11297_2159)">
<path d="M60.9784 120.383C93.5763 120.383 120.002 93.5643 120.002 60.4821C120.002 27.3999 93.5763 0.581421 60.9784 0.581421C28.3805 0.581421 1.95471 27.3999 1.95471 60.4821C1.95471 93.5643 28.3805 120.383 60.9784 120.383Z" fill="#FBF9FF"/>
<path opacity="0.2" d="M87.0484 49.4344C84.4859 49.4344 82.1672 48.337 80.5297 46.5801C78.8921 48.337 76.5796 49.4344 74.0109 49.4344C71.4422 49.4344 69.1297 48.337 67.4921 46.5801C65.8546 48.337 63.5421 49.4344 60.9734 49.4344C58.4047 49.4344 56.0921 48.337 54.4546 46.5801C52.8171 48.337 50.5046 49.4344 47.9359 49.4344C45.3672 49.4344 43.0546 48.337 41.4171 46.5801C39.7796 48.337 37.4672 49.4344 34.8983 49.4344C34.8046 49.4344 34.7109 49.4217 34.6172 49.4217V109.457C34.6172 111.226 36.0358 112.666 37.7797 112.666H45.6233C46.9046 112.666 48.0734 111.867 48.4859 110.63C49.2983 108.176 51.5296 106.285 54.1546 106.285H67.7859C70.4109 106.285 72.6422 108.176 73.4547 110.63C73.8609 111.861 75.0359 112.666 76.3172 112.666H84.1546C85.8985 112.666 87.3172 111.226 87.3172 109.457V49.4217C87.2234 49.4217 87.1297 49.4344 87.0359 49.4344H87.0484Z" fill="url(#paint0_linear_11297_2159)"/>
<path d="M31.1328 17.6564V10.6983C31.1328 7.84406 33.4142 5.52892 36.2266 5.52892H45.2328C45.9016 5.52892 46.4453 6.08074 46.4453 6.75943C46.4453 7.93285 47.3891 8.89063 48.5453 8.89063H73.4204C74.5767 8.89063 75.5204 7.93285 75.5204 6.75943C75.5204 6.08074 76.0641 5.52892 76.7328 5.52892H85.7391C88.5517 5.52892 90.8329 7.84406 90.8329 10.6983V17.6564H94.6516V7.69184C94.6516 3.7656 91.5142 0.581482 87.6454 0.581482H34.3204C30.4516 0.581482 27.3141 3.7656 27.3141 7.69184V17.6564H31.1328Z" fill="#E8DEFF"/>
<path d="M93.5642 46.5801C92.7954 47.253 91.8641 47.7975 90.8392 48.1931V98.7943C90.8392 101.106 88.5579 102.981 85.7454 102.981H76.4204C75.7516 102.981 75.2079 102.534 75.2079 101.985V99.6317C75.2079 98.63 74.2142 97.8132 72.9953 97.8132H48.9766C47.7579 97.8132 46.7642 98.63 46.7642 99.6317V101.985C46.7642 102.534 46.2203 102.981 45.5516 102.981H36.2266C33.4142 102.981 31.1328 101.106 31.1328 98.7943V48.1931C30.1016 47.7975 29.1766 47.2479 28.4079 46.5801C28.0703 46.8729 27.7016 47.1349 27.3141 47.3763V101.234C27.3141 104.414 30.4516 106.993 34.3204 106.993H87.6454C91.5142 106.993 94.6516 104.414 94.6516 101.234V47.3763C94.2641 47.1349 93.8954 46.8729 93.5579 46.5801H93.5642Z" fill="#E8DEFF"/>
<path d="M67.4782 99.858H54.6969C54.2033 99.858 53.8031 100.187 53.8031 100.593V103.618C53.8031 104.024 54.2033 104.353 54.6969 104.353H67.4782C67.9717 104.353 68.3719 104.024 68.3719 103.618V100.593C68.3719 100.187 67.9717 99.858 67.4782 99.858Z" fill="white"/>
<path d="M28.4016 37.2109H15.3704L27.3141 29.3901H36.9329L28.4016 37.2109Z" fill="#D2B8FF"/>
<path d="M41.4391 37.2109H28.4016L36.9328 29.3901H46.5516L41.4391 37.2109Z" fill="#E1D7F8"/>
<path d="M54.4688 37.2109H41.4375L46.5501 29.3901H56.1751L54.4688 37.2109Z" fill="#D2B8FF"/>
<path d="M67.5 37.2109H54.4688L56.175 29.3901H65.7938L67.5 37.2109Z" fill="#E1D7F8"/>
<path d="M80.5359 37.2109H67.5046L65.7983 29.3901H75.4172L80.5359 37.2109Z" fill="#D2B8FF"/>
<path d="M93.5626 37.2109H80.5313L75.4126 29.3901H85.0376L93.5626 37.2109Z" fill="#E1D7F8"/>
<path d="M106.603 37.2109H93.5657L85.0406 29.3901H94.6594L106.603 37.2109Z" fill="#D2B8FF"/>
<path d="M36.9328 20.8671H27.3141V29.3919H36.9328V20.8671Z" fill="#E1D7F8"/>
<path d="M46.5516 20.8671H36.9327V29.3919H46.5516V20.8671Z" fill="#D2B8FF"/>
<path d="M56.1704 20.8671H46.5516V29.3919H56.1704V20.8671Z" fill="#E1D7F8"/>
<path d="M65.7938 20.8671H56.175V29.3919H65.7938V20.8671Z" fill="#D2B8FF"/>
<path d="M75.4172 20.8671H65.7983V29.3919H75.4172V20.8671Z" fill="#E1D7F8"/>
<path d="M85.0313 20.8671H75.4126V29.3919H85.0313V20.8671Z" fill="#D2B8FF"/>
<path d="M94.6594 20.8671H85.0406V29.3919H94.6594V20.8671Z" fill="#E1D7F8"/>
<path d="M28.4016 38.6711C28.4016 42.3247 25.4829 45.2868 21.8829 45.2868C18.2829 45.2868 15.3704 42.3247 15.3704 38.6711V37.2123H28.4016V38.6711Z" fill="#D2B8FF"/>
<path d="M54.4703 38.6711C54.4703 42.3247 51.5515 45.2868 47.9515 45.2868C44.3515 45.2868 41.4327 42.3247 41.4327 38.6711V37.2123H54.464V38.6711H54.4703Z" fill="#D2B8FF"/>
<path d="M80.5329 38.6711C80.5329 42.3247 77.6141 45.2868 74.0141 45.2868C70.4141 45.2868 67.4954 42.3247 67.4954 38.6711V37.2123H80.5266V38.6711H80.5329Z" fill="#D2B8FF"/>
<path d="M106.6 38.6711C106.6 42.3247 103.681 45.2868 100.081 45.2868C96.4811 45.2868 93.5625 42.3247 93.5625 38.6711V37.2123H106.594V38.6711H106.6Z" fill="#D2B8FF"/>
<path d="M41.4391 38.6711C41.4391 42.3247 38.5204 45.2868 34.9204 45.2868C31.3204 45.2868 28.4016 42.3247 28.4016 38.6711V37.2123H41.4329V38.6711H41.4391Z" fill="#E1D7F8"/>
<path d="M67.5015 38.6711C67.5015 42.3247 64.5828 45.2868 60.9828 45.2868C57.3828 45.2868 54.464 42.3247 54.464 38.6711V37.2123H67.4953V38.6711H67.5015Z" fill="#E1D7F8"/>
<path d="M93.5641 38.6711C93.5641 42.3247 90.6454 45.2868 87.0454 45.2868C83.4454 45.2868 80.5266 42.3247 80.5266 38.6711V37.2123H93.5579V38.6711H93.5641Z" fill="#E1D7F8"/>
<path d="M28.4017 38.6713C28.5892 42.2866 25.4392 45.5088 21.8829 45.4455C18.3267 45.5088 15.1767 42.293 15.3642 38.6713C15.4204 42.1661 18.4392 45.2044 21.8829 45.1284C25.3204 45.2044 28.3454 42.1661 28.4017 38.6713Z" fill="#E1D7F8"/>
<path d="M54.4736 38.6713C54.661 42.2866 51.511 45.5088 47.9548 45.4455C44.3985 45.5088 41.2485 42.293 41.4361 38.6713C41.4924 42.1661 44.5111 45.2044 47.9548 45.1284C51.3923 45.2044 54.4173 42.1661 54.4736 38.6713Z" fill="#E1D7F8"/>
<path d="M80.5314 38.6713C80.719 42.2866 77.569 45.5088 74.0127 45.4455C70.4565 45.5088 67.3065 42.293 67.4939 38.6713C67.5502 42.1661 70.5689 45.2044 74.0127 45.1284C77.4502 45.2044 80.4752 42.1661 80.5314 38.6713Z" fill="#E1D7F8"/>
<path d="M106.603 38.6713C106.791 42.2866 103.641 45.5088 100.085 45.4455C96.5283 45.5088 93.3783 42.293 93.5658 38.6713C93.6221 42.1661 96.6408 45.2044 100.085 45.1284C103.522 45.2044 106.547 42.1661 106.603 38.6713Z" fill="#E1D7F8"/>
<path d="M41.4377 38.6713C41.6251 42.2866 38.4751 45.5088 34.9189 45.4455C31.3626 45.5088 28.2126 42.293 28.4002 38.6713C28.4565 42.1661 31.4752 45.2044 34.9189 45.1284C38.3565 45.2044 41.3814 42.1661 41.4377 38.6713Z" fill="#E1D7F8"/>
<path d="M67.5001 38.6713C67.6876 42.2866 64.5376 45.5088 60.9813 45.4455C57.4251 45.5088 54.2751 42.293 54.4626 38.6713C54.5188 42.1661 57.5375 45.2044 60.9813 45.1284C64.4188 45.2044 67.4439 42.1661 67.5001 38.6713Z" fill="#D2B8FF"/>
<path d="M93.5627 38.6713C93.7501 42.2866 90.6001 45.5088 87.0439 45.4455C83.4876 45.5088 80.3376 42.293 80.5252 38.6713C80.5815 42.1661 83.6002 45.2044 87.0439 45.1284C90.4815 45.2044 93.5064 42.1661 93.5627 38.6713Z" fill="#D2B8FF"/>
<path fill-rule="evenodd" clip-rule="evenodd" d="M60.6011 55.0225C59.8372 55.0225 59.226 55.6428 59.226 56.418C59.226 57.9908 59.7136 59.5116 60.6011 60.7742C61.4888 59.5116 61.9762 57.9908 61.9762 56.418C61.9762 55.6428 61.365 55.0225 60.6011 55.0225ZM62.4345 62.7826C63.8459 60.9884 64.6317 58.7438 64.6317 56.4254C64.6317 54.107 62.8274 52.335 60.6011 52.335C58.3749 52.335 56.5706 54.1661 56.5706 56.4254C56.5706 58.6848 57.3563 60.9884 58.7678 62.7826L56.0541 65.5366C54.2861 64.1042 52.0744 63.3067 49.79 63.3067C47.5055 63.3067 45.7594 65.1379 45.7594 67.3972C45.7594 69.6566 47.5637 71.4876 49.79 71.4876C52.0162 71.4876 54.2861 70.6902 56.0541 69.2579L58.7678 72.0119C57.3563 73.8061 56.5706 76.0507 56.5706 78.3689C56.5706 80.6874 58.3749 82.4595 60.6011 82.4595C62.8274 82.4595 64.6317 80.6283 64.6317 78.3689C64.6317 76.1097 63.8459 73.8061 62.4345 72.0119L65.1483 69.2579C66.9161 70.6902 69.1278 71.4876 71.4123 71.4876C73.6967 71.4876 75.4428 69.6566 75.4428 67.3972C75.4428 65.1379 73.6385 63.3067 71.4123 63.3067C69.186 63.3067 66.9161 64.1042 65.1483 65.5366L62.4345 62.7826ZM60.6011 64.7318L57.9747 67.3972L60.6011 70.0626L63.2276 67.3972L60.6011 64.7318ZM67.1271 67.3972C68.3712 68.298 69.8699 68.7927 71.4196 68.7927C72.1835 68.7927 72.7947 68.1725 72.7947 67.3972C72.7947 66.622 72.1835 66.0018 71.4196 66.0018C69.8699 66.0018 68.3712 66.4965 67.1271 67.3972ZM60.6011 74.0201C59.7136 75.2827 59.226 76.8037 59.226 78.3764C59.226 79.1516 59.8372 79.7718 60.6011 79.7718C61.365 79.7718 61.9762 79.1516 61.9762 78.3764C61.9762 76.8037 61.4888 75.2827 60.6011 74.0201ZM54.0752 67.3972C52.831 66.4965 51.3323 66.0018 49.7826 66.0018C49.0187 66.0018 48.4077 66.622 48.4077 67.3972C48.4077 68.1725 49.0187 68.7927 49.7826 68.7927C51.3323 68.7927 52.831 68.298 54.0752 67.3972Z" fill="#EADDFF"/>
<mask id="mask0_11297_2159" style="mask-type:alpha" maskUnits="userSpaceOnUse" x="1" y="0" width="120" height="121">
<path d="M60.9784 120.383C93.5763 120.383 120.002 93.5643 120.002 60.4821C120.002 27.3999 93.5763 0.581421 60.9784 0.581421C28.3805 0.581421 1.95471 27.3999 1.95471 60.4821C1.95471 93.5643 28.3805 120.383 60.9784 120.383Z" fill="#FBF9FF"/>
</mask>
<g mask="url(#mask0_11297_2159)">
<path opacity="0.2" d="M87.0485 49.4344C84.4861 49.4344 82.1673 48.337 80.5298 46.5801C78.8923 48.337 76.5798 49.4344 74.011 49.4344C71.4423 49.4344 69.1298 48.337 67.4923 46.5801C65.8547 48.337 63.5422 49.4344 60.9735 49.4344C58.4048 49.4344 56.0923 48.337 54.4547 46.5801C52.8172 48.337 50.5047 49.4344 47.936 49.4344C45.3673 49.4344 43.0548 48.337 41.4172 46.5801C39.7797 48.337 37.4673 49.4344 34.8985 49.4344C34.8048 49.4344 34.711 49.4217 34.6173 49.4217V109.457C34.6173 111.226 36.036 112.666 37.7798 112.666H45.6235C46.9047 112.666 48.0735 111.867 48.4861 110.63C49.2985 108.176 51.5297 106.285 54.1547 106.285H67.786C70.411 106.285 72.6423 108.176 73.4548 110.63C73.861 111.861 75.0361 112.666 76.3173 112.666H84.1547C85.8986 112.666 87.3173 111.226 87.3173 109.457V49.4217C87.2235 49.4217 87.1298 49.4344 87.0361 49.4344H87.0485Z" fill="url(#paint1_linear_11297_2159)"/>
<path d="M31.1328 17.6564V10.6983C31.1328 7.84406 33.4142 5.52892 36.2266 5.52892H45.2328C45.9016 5.52892 46.4453 6.08074 46.4453 6.75943C46.4453 7.93285 47.3891 8.89063 48.5453 8.89063H73.4204C74.5767 8.89063 75.5204 7.93285 75.5204 6.75943C75.5204 6.08074 76.0641 5.52892 76.7328 5.52892H85.7391C88.5517 5.52892 90.8329 7.84406 90.8329 10.6983V17.6564H94.6516V7.69184C94.6516 3.7656 91.5142 0.581482 87.6454 0.581482H34.3204C30.4516 0.581482 27.3141 3.7656 27.3141 7.69184V17.6564H31.1328Z" fill="#E8DEFF"/>
<path d="M93.5642 46.5801C92.7954 47.411 91.8641 48.0833 90.8392 48.5717V111.049C90.8392 113.903 88.5579 116.218 85.7454 116.218H76.4204C75.7516 116.218 75.2079 115.667 75.2079 114.988V112.083C75.2079 110.846 74.2142 109.838 72.9953 109.838H48.9766C47.7579 109.838 46.7642 110.846 46.7642 112.083V114.988C46.7642 115.667 46.2203 116.218 45.5516 116.218H36.2266C33.4142 116.218 31.1328 113.903 31.1328 111.049V48.5717C30.1016 48.0833 29.1766 47.4046 28.4079 46.5801C28.0703 46.9416 27.7016 47.2652 27.3141 47.5632V114.062C27.3141 117.988 30.4516 121.173 34.3204 121.173H87.6454C91.5142 121.173 94.6516 117.988 94.6516 114.062V47.5632C94.2641 47.2652 93.8954 46.9416 93.5579 46.5801H93.5642Z" fill="#E8DEFF"/>
<path d="M67.4735 112.362H54.6922C54.1987 112.362 53.7985 112.768 53.7985 113.269V117.005C53.7985 117.506 54.1987 117.912 54.6922 117.912H67.4735C67.9671 117.912 68.3673 117.506 68.3673 117.005V113.269C68.3673 112.768 67.9671 112.362 67.4735 112.362Z" fill="white"/>
<path d="M28.4016 37.2109H15.3704L27.3141 29.3901H36.9329L28.4016 37.2109Z" fill="#D8C2FF"/>
<path d="M41.4391 37.2109H28.4016L36.9328 29.3901H46.5516L41.4391 37.2109Z" fill="#EDE6FF"/>
<path d="M54.4688 37.2109H41.4375L46.5501 29.3901H56.1751L54.4688 37.2109Z" fill="#D8C2FF"/>
<path d="M67.5 37.2109H54.4688L56.175 29.3901H65.7938L67.5 37.2109Z" fill="#EDE6FF"/>
<path d="M80.536 37.2109H67.5047L65.7985 29.3901H75.4173L80.536 37.2109Z" fill="#D8C2FF"/>
<path d="M93.5626 37.2109H80.5313L75.4126 29.3901H85.0376L93.5626 37.2109Z" fill="#EDE6FF"/>
<path d="M106.603 37.2109H93.5657L85.0406 29.3901H94.6594L106.603 37.2109Z" fill="#D8C2FF"/>
<path d="M36.9328 20.8671H27.3141V29.3919H36.9328V20.8671Z" fill="#EDE6FF"/>
<path d="M46.5516 20.8671H36.9327V29.3919H46.5516V20.8671Z" fill="#D8C2FF"/>
<path d="M56.1704 20.8671H46.5516V29.3919H56.1704V20.8671Z" fill="#EDE6FF"/>
<path d="M65.7938 20.8671H56.175V29.3919H65.7938V20.8671Z" fill="#D8C2FF"/>
<path d="M75.4173 20.8671H65.7985V29.3919H75.4173V20.8671Z" fill="#EDE6FF"/>
<path d="M85.0313 20.8671H75.4126V29.3919H85.0313V20.8671Z" fill="#D8C2FF"/>
<path d="M94.6594 20.8671H85.0406V29.3919H94.6594V20.8671Z" fill="#EDE6FF"/>
<path d="M28.4016 38.6712C28.4016 42.3248 25.4829 45.2869 21.8829 45.2869C18.2829 45.2869 15.3704 42.3248 15.3704 38.6712V37.2123H28.4016V38.6712Z" fill="#D8C2FF"/>
<path d="M54.4703 38.6712C54.4703 42.3248 51.5515 45.2869 47.9515 45.2869C44.3515 45.2869 41.4327 42.3248 41.4327 38.6712V37.2123H54.464V38.6712H54.4703Z" fill="#D8C2FF"/>
<path d="M80.5329 38.6712C80.5329 42.3248 77.6141 45.2869 74.0141 45.2869C70.4141 45.2869 67.4954 42.3248 67.4954 38.6712V37.2123H80.5266V38.6712H80.5329Z" fill="#D8C2FF"/>
<path d="M106.6 38.6712C106.6 42.3248 103.681 45.2869 100.081 45.2869C96.4813 45.2869 93.5626 42.3248 93.5626 38.6712V37.2123H106.594V38.6712H106.6Z" fill="#D8C2FF"/>
<path d="M41.4391 38.6712C41.4391 42.3248 38.5204 45.2869 34.9204 45.2869C31.3204 45.2869 28.4016 42.3248 28.4016 38.6712V37.2123H41.4329V38.6712H41.4391Z" fill="#EDE6FF"/>
<path d="M67.5016 38.6712C67.5016 42.3248 64.5829 45.2869 60.9829 45.2869C57.3829 45.2869 54.4641 42.3248 54.4641 38.6712V37.2123H67.4954V38.6712H67.5016Z" fill="#EDE6FF"/>
<path d="M93.5641 38.6712C93.5641 42.3248 90.6454 45.2869 87.0454 45.2869C83.4454 45.2869 80.5266 42.3248 80.5266 38.6712V37.2123H93.5579V38.6712H93.5641Z" fill="#EDE6FF"/>
<path d="M28.4018 38.6713C28.5894 42.2866 25.4394 45.5088 21.883 45.4455C18.3268 45.5088 15.1768 42.293 15.3643 38.6713C15.4206 42.1661 18.4393 45.2044 21.883 45.1284C25.3206 45.2044 28.3455 42.1661 28.4018 38.6713Z" fill="#EDE6FF"/>
<path d="M54.4737 38.6713C54.6612 42.2866 51.5112 45.5088 47.955 45.4455C44.3986 45.5088 41.2486 42.293 41.4362 38.6713C41.4925 42.1661 44.5112 45.2044 47.955 45.1284C51.3925 45.2044 54.4174 42.1661 54.4737 38.6713Z" fill="#EDE6FF"/>
<path d="M80.5314 38.6713C80.719 42.2866 77.569 45.5088 74.0127 45.4455C70.4565 45.5088 67.3065 42.293 67.4939 38.6713C67.5502 42.1661 70.5689 45.2044 74.0127 45.1284C77.4502 45.2044 80.4752 42.1661 80.5314 38.6713Z" fill="#EDE6FF"/>
<path d="M106.603 38.6713C106.791 42.2866 103.641 45.5088 100.085 45.4455C96.5283 45.5088 93.3783 42.293 93.5658 38.6713C93.6221 42.1661 96.6408 45.2044 100.085 45.1284C103.522 45.2044 106.547 42.1661 106.603 38.6713Z" fill="#EDE6FF"/>
<path d="M41.4377 38.6713C41.6251 42.2866 38.4751 45.5088 34.9189 45.4455C31.3626 45.5088 28.2126 42.293 28.4002 38.6713C28.4565 42.1661 31.4752 45.2044 34.9189 45.1284C38.3565 45.2044 41.3814 42.1661 41.4377 38.6713Z" fill="#EDE6FF"/>
<path d="M67.5002 38.6713C67.6878 42.2866 64.5378 45.5088 60.9814 45.4455C57.4252 45.5088 54.2752 42.293 54.4627 38.6713C54.519 42.1661 57.5377 45.2044 60.9814 45.1284C64.419 45.2044 67.444 42.1661 67.5002 38.6713Z" fill="#D8C2FF"/>
<path d="M93.5627 38.6713C93.7501 42.2866 90.6001 45.5088 87.0439 45.4455C83.4876 45.5088 80.3376 42.293 80.5252 38.6713C80.5815 42.1661 83.6002 45.2044 87.0439 45.1284C90.4815 45.2044 93.5064 42.1661 93.5627 38.6713Z" fill="#D8C2FF"/>
<path fill-rule="evenodd" clip-rule="evenodd" d="M60.6011 55.0225C59.8372 55.0225 59.226 55.6428 59.226 56.418C59.226 57.9908 59.7136 59.5116 60.6011 60.7742C61.4888 59.5116 61.9762 57.9908 61.9762 56.418C61.9762 55.6428 61.365 55.0225 60.6011 55.0225ZM62.4345 62.7826C63.8459 60.9884 64.6317 58.7438 64.6317 56.4254C64.6317 54.107 62.8274 52.335 60.6011 52.335C58.3749 52.335 56.5706 54.1661 56.5706 56.4254C56.5706 58.6848 57.3563 60.9884 58.7678 62.7826L56.0541 65.5366C54.2861 64.1042 52.0744 63.3067 49.79 63.3067C47.5055 63.3067 45.7594 65.1379 45.7594 67.3972C45.7594 69.6566 47.5637 71.4876 49.79 71.4876C52.0162 71.4876 54.2861 70.6902 56.0541 69.2579L58.7678 72.0119C57.3563 73.8061 56.5706 76.0507 56.5706 78.3689C56.5706 80.6874 58.3749 82.4595 60.6011 82.4595C62.8274 82.4595 64.6317 80.6283 64.6317 78.3689C64.6317 76.1097 63.8459 73.8061 62.4345 72.0119L65.1483 69.2579C66.9161 70.6902 69.1278 71.4876 71.4123 71.4876C73.6967 71.4876 75.4428 69.6566 75.4428 67.3972C75.4428 65.1379 73.6385 63.3067 71.4123 63.3067C69.186 63.3067 66.9161 64.1042 65.1483 65.5366L62.4345 62.7826ZM60.6011 64.7318L57.9747 67.3972L60.6011 70.0626L63.2276 67.3972L60.6011 64.7318ZM67.1271 67.3972C68.3712 68.298 69.8699 68.7927 71.4196 68.7927C72.1835 68.7927 72.7947 68.1725 72.7947 67.3972C72.7947 66.622 72.1835 66.0018 71.4196 66.0018C69.8699 66.0018 68.3712 66.4965 67.1271 67.3972ZM60.6011 74.0201C59.7136 75.2827 59.226 76.8037 59.226 78.3764C59.226 79.1516 59.8372 79.7718 60.6011 79.7718C61.365 79.7718 61.9762 79.1516 61.9762 78.3764C61.9762 76.8037 61.4888 75.2827 60.6011 74.0201ZM54.0752 67.3972C52.831 66.4965 51.3323 66.0018 49.7826 66.0018C49.0187 66.0018 48.4077 66.622 48.4077 67.3972C48.4077 68.1725 49.0187 68.7927 49.7826 68.7927C51.3323 68.7927 52.831 68.298 54.0752 67.3972Z" fill="#EADDFF"/>
<path d="M29.6531 79.5082C30.729 79.4976 31.7841 80.0195 32.4234 80.9952L42.6175 96.5097H79.261L89.4527 80.9963C90.0921 80.0207 91.1472 79.4989 92.223 79.5093H120.106C121.919 79.5093 123.39 81.0017 123.39 82.8425V156.513C123.39 158.353 121.92 159.846 120.106 159.846H36.3492C36.3414 159.846 36.3336 159.845 36.3258 159.845H1.77073C-0.0430549 159.845 -1.51379 158.352 -1.51404 156.512V82.8414C-1.51383 81.0006 -0.0430803 79.5084 1.77073 79.5082H29.6531Z" fill="#D2B8FF"/>
<mask id="mask1_11297_2159" style="mask-type:luminance" maskUnits="userSpaceOnUse" x="-2" y="79" width="126" height="81">
<path d="M29.6531 79.5082C30.729 79.4976 31.7841 80.0195 32.4234 80.9952L42.6175 96.5097H79.261L89.4527 80.9963C90.0921 80.0207 91.1472 79.4989 92.223 79.5093H120.106C121.919 79.5093 123.39 81.0017 123.39 82.8425V156.513C123.39 158.353 121.92 159.846 120.106 159.846H36.3492C36.3414 159.846 36.3336 159.845 36.3258 159.845H1.77073C-0.0430549 159.845 -1.51379 158.352 -1.51404 156.512V82.8414C-1.51383 81.0006 -0.0430803 79.5084 1.77073 79.5082H29.6531Z" fill="white"/>
</mask>
<g mask="url(#mask1_11297_2159)">
<path d="M29.6531 79.5081V80.0015H29.658L29.6531 79.5081ZM42.6175 96.5097L42.2045 96.7803L42.3508 97.003H42.6175V96.5097ZM79.2609 96.5097V97.003H79.5277L79.6741 96.7803L79.2609 96.5097ZM92.223 79.5093L92.2182 80.0027H92.223V79.5093ZM36.3258 159.845L36.3293 159.351H36.3258V159.845ZM29.6531 79.5081L29.658 80.0015C30.5704 79.9925 31.4654 80.4344 32.01 81.2653L32.4234 80.9952L32.8369 80.7251C32.1026 79.6046 30.8876 79.0028 29.6483 79.0149L29.6531 79.5081ZM32.4234 80.9952L32.01 81.2653L42.2045 96.7803L42.6175 96.5097L43.0307 96.2392L32.8369 80.7251L32.4234 80.9952ZM42.6175 96.5097V97.003H79.2609V96.5097V96.0165H42.6175V96.5097ZM79.2609 96.5097L79.6741 96.7803L89.8659 81.2669L89.4527 80.9963L89.0395 80.7258L78.8478 96.2392L79.2609 96.5097ZM89.4527 80.9963L89.8659 81.2669C90.4104 80.4361 91.3058 79.9937 92.2182 80.0027L92.223 79.5093L92.2279 79.0161C90.9887 79.004 89.7738 79.6053 89.0395 80.7258L89.4527 80.9963ZM92.223 79.5093V80.0027H120.106V79.5093V79.0161H92.223V79.5093ZM120.106 79.5093V80.0027C121.639 80.0027 122.896 81.2664 122.896 82.8426L123.39 82.8424H123.884C123.884 80.7369 122.2 79.0161 120.106 79.0161V79.5093ZM123.39 82.8424L122.896 82.8426V156.513H123.39H123.884V82.8424H123.39ZM123.39 156.513H122.896C122.896 158.088 121.639 159.352 120.106 159.352V159.846V160.339C122.2 160.339 123.884 158.618 123.884 156.513H123.39ZM120.106 159.846V159.352H36.3492V159.846V160.339H120.106V159.846ZM36.3492 159.846V159.352C36.3588 159.352 36.3662 159.352 36.37 159.353C36.3734 159.353 36.3758 159.353 36.3736 159.353C36.3727 159.353 36.3666 159.352 36.36 159.352C36.3529 159.352 36.3422 159.351 36.3293 159.351L36.3258 159.845L36.3222 160.338C36.3133 160.338 36.3065 160.337 36.3032 160.337C36.3006 160.337 36.2983 160.337 36.3014 160.337C36.303 160.337 36.3094 160.338 36.3167 160.338C36.3245 160.338 36.3358 160.339 36.3492 160.339V159.846ZM36.3258 159.845V159.351H1.7707V159.845L1.77065 160.338H36.3258V159.845ZM1.7707 159.845V159.351C0.2373 159.351 -1.01974 158.087 -1.01995 156.512H-1.51407H-2.00818C-2.0079 158.617 -0.323526 160.338 1.77065 160.338L1.7707 159.845ZM-1.51407 156.512H-1.01995V82.8414H-1.51407L-2.00818 82.8412V156.512H-1.51407ZM-1.51407 82.8414H-1.01995C-1.01977 81.2655 0.237324 80.0017 1.77077 80.0015L1.7707 79.5081V79.0149C-0.323481 79.0151 -2.00795 80.7357 -2.00818 82.8412L-1.51407 82.8414ZM1.7707 79.5081L1.77077 80.0015H29.6531V79.5081V79.0149H1.7707V79.5081Z" fill="#E1D7F8"/>
</g>
</g>
<path d="M19.1659 63.4875L11.6248 62.8686L11.6983 61.9463L17.7319 55.2255L12.5305 54.7985L12.6266 53.5931L19.6908 54.1728L19.6165 55.1044L13.6009 61.8266L19.2612 62.2912L19.1659 63.4875Z" fill="#D2B8FF"/>
<path d="M10.2609 55.3402L-0.000244141 54.6781L0.078382 53.423L8.12206 44.1476L1.04459 43.691L1.14734 42.0507L10.7595 42.6709L10.6801 43.9384L2.66089 53.2154L10.3628 53.7124L10.2609 55.3402Z" fill="#D2B8FF"/>
</g>
<defs>
<linearGradient id="paint0_linear_11297_2159" x1="2.89211" y1="21.1515" x2="56.9274" y2="74.3958" gradientUnits="userSpaceOnUse">
<stop stop-color="white"/>
<stop offset="1" stop-color="white" stop-opacity="0"/>
</linearGradient>
<linearGradient id="paint1_linear_11297_2159" x1="2.89223" y1="21.1516" x2="56.9275" y2="74.3959" gradientUnits="userSpaceOnUse">
<stop stop-color="white"/>
<stop offset="1" stop-color="white" stop-opacity="0"/>
</linearGradient>
<clipPath id="clip0_11297_2159">
<rect width="120" height="121" fill="white"/>
</clipPath>
</defs>
</svg>
