<svg width="100" height="101" viewBox="0 0 100 101" fill="none" xmlns="http://www.w3.org/2000/svg">
<ellipse cx="50.8153" cy="50.485" rx="49.1864" ry="49.9997" fill="#FBF9FF"/>
<path opacity="0.2" d="M72.5404 41.2634C70.405 41.2634 68.4727 40.3474 67.1081 38.8809C65.7435 40.3474 63.8164 41.2634 61.6758 41.2634C59.5352 41.2634 57.6081 40.3474 56.2435 38.8809C54.8789 40.3474 52.9518 41.2634 50.8112 41.2634C48.6706 41.2634 46.7435 40.3474 45.3789 38.8809C44.0143 40.3474 42.0872 41.2634 39.9466 41.2634C37.806 41.2634 35.8789 40.3474 34.5143 38.8809C33.1497 40.3474 31.2227 41.2634 29.082 41.2634C29.0039 41.2634 28.9258 41.2528 28.8477 41.2528V91.3648C28.8477 92.8419 30.0299 94.0438 31.4831 94.0438H38.0195C39.0872 94.0438 40.0612 93.3767 40.405 92.3443C41.082 90.2953 42.9414 88.7176 45.1289 88.7176H56.4883C58.6758 88.7176 60.5352 90.2953 61.2123 92.3443C61.5508 93.3714 62.53 94.0438 63.5977 94.0438H70.1289C71.5821 94.0438 72.7644 92.8419 72.7644 91.3648V41.2528C72.6862 41.2528 72.6081 41.2634 72.53 41.2634H72.5404Z" fill="url(#paint0_linear_1273_17237)"/>
<path d="M25.944 14.738V8.93001C25.944 6.5475 27.8451 4.61503 30.1888 4.61503H37.694C38.2513 4.61503 38.7044 5.07564 38.7044 5.64215C38.7044 6.62162 39.4909 7.42109 40.4544 7.42109H61.1836C62.1472 7.42109 62.9336 6.62162 62.9336 5.64215C62.9336 5.07564 63.3867 4.61503 63.944 4.61503H71.4492C73.793 4.61503 75.694 6.5475 75.694 8.93001V14.738H78.8763V6.42044C78.8763 3.14317 76.2618 0.485352 73.0378 0.485352H28.6003C25.3763 0.485352 22.7617 3.14317 22.7617 6.42044V14.738H25.944Z" fill="#E8DEFF"/>
<path d="M77.9701 38.8809C77.3295 39.4426 76.5534 39.8971 75.6993 40.2273V82.4647C75.6993 84.3943 73.7982 85.9595 71.4545 85.9595H63.6836C63.1263 85.9595 62.6732 85.5864 62.6732 85.1276V83.1637C62.6732 82.3275 61.8451 81.6457 60.8294 81.6457H40.8138C39.7982 81.6457 38.9701 82.3275 38.9701 83.1637V85.1276C38.9701 85.5864 38.5169 85.9595 37.9596 85.9595H30.1888C27.8451 85.9595 25.944 84.3943 25.944 82.4647V40.2273C25.0846 39.8971 24.3138 39.4383 23.6732 38.8809C23.3919 39.1253 23.0846 39.344 22.7617 39.5455V84.5015C22.7617 87.1558 25.3763 89.3084 28.6003 89.3084H73.0378C76.2618 89.3084 78.8763 87.1558 78.8763 84.5015V39.5455C78.5534 39.344 78.2461 39.1253 77.9649 38.8809H77.9701Z" fill="#E8DEFF"/>
<path d="M56.2318 83.3525H45.5807C45.1694 83.3525 44.8359 83.6271 44.8359 83.9657V86.4914C44.8359 86.8301 45.1694 87.1046 45.5807 87.1046H56.2318C56.6431 87.1046 56.9766 86.8301 56.9766 86.4914V83.9657C56.9766 83.6271 56.6431 83.3525 56.2318 83.3525Z" fill="white"/>
<path d="M23.668 31.0603H12.8086L22.7617 24.5322H30.7774L23.668 31.0603Z" fill="#D2B8FF"/>
<path d="M34.5326 31.0603H23.668L30.7773 24.5322H38.793L34.5326 31.0603Z" fill="#E1D7F8"/>
<path d="M45.3906 31.0603H34.5312L38.7917 24.5322H46.8125L45.3906 31.0603Z" fill="#D2B8FF"/>
<path d="M56.25 31.0603H45.3906L46.8125 24.5322H54.8281L56.25 31.0603Z" fill="#E1D7F8"/>
<path d="M67.1133 31.0603H56.2539L54.832 24.5322H62.8477L67.1133 31.0603Z" fill="#D2B8FF"/>
<path d="M77.9688 31.0603H67.1094L62.8438 24.5322H70.8646L77.9688 31.0603Z" fill="#E1D7F8"/>
<path d="M88.8359 31.0603H77.9714L70.8672 24.5322H78.8828L88.8359 31.0603Z" fill="#D2B8FF"/>
<path d="M30.7773 17.418H22.7617V24.5337H30.7773V17.418Z" fill="#E1D7F8"/>
<path d="M38.793 17.418H30.7773V24.5337H38.793V17.418Z" fill="#D2B8FF"/>
<path d="M46.8086 17.418H38.793V24.5337H46.8086V17.418Z" fill="#E1D7F8"/>
<path d="M54.8281 17.418H46.8125V24.5337H54.8281V17.418Z" fill="#D2B8FF"/>
<path d="M62.8477 17.418H54.832V24.5337H62.8477V17.418Z" fill="#E1D7F8"/>
<path d="M70.8594 17.418H62.8438V24.5337H70.8594V17.418Z" fill="#D2B8FF"/>
<path d="M78.8828 17.418H70.8672V24.5337H78.8828V17.418Z" fill="#E1D7F8"/>
<path d="M23.668 32.2792C23.668 35.3289 21.2357 37.8014 18.2357 37.8014C15.2357 37.8014 12.8086 35.3289 12.8086 32.2792V31.0615H23.668V32.2792Z" fill="#D2B8FF"/>
<path d="M45.3919 32.2792C45.3919 35.3289 42.9596 37.8014 39.9596 37.8014C36.9596 37.8014 34.5273 35.3289 34.5273 32.2792V31.0615H45.3867V32.2792H45.3919Z" fill="#D2B8FF"/>
<path d="M67.1107 32.2792C67.1107 35.3289 64.6784 37.8014 61.6784 37.8014C58.6784 37.8014 56.2461 35.3289 56.2461 32.2792V31.0615H67.1055V32.2792H67.1107Z" fill="#D2B8FF"/>
<path d="M88.8333 32.2792C88.8333 35.3289 86.401 37.8014 83.401 37.8014C80.401 37.8014 77.9688 35.3289 77.9688 32.2792V31.0615H88.8281V32.2792H88.8333Z" fill="#D2B8FF"/>
<path d="M34.5326 32.2792C34.5326 35.3289 32.1003 37.8014 29.1003 37.8014C26.1003 37.8014 23.668 35.3289 23.668 32.2792V31.0615H34.5274V32.2792H34.5326Z" fill="#E1D7F8"/>
<path d="M56.2513 32.2792C56.2513 35.3289 53.819 37.8014 50.819 37.8014C47.819 37.8014 45.3867 35.3289 45.3867 32.2792V31.0615H56.2461V32.2792H56.2513Z" fill="#E1D7F8"/>
<path d="M77.9701 32.2792C77.9701 35.3289 75.5378 37.8014 72.5378 37.8014C69.5378 37.8014 67.1055 35.3289 67.1055 32.2792V31.0615H77.9649V32.2792H77.9701Z" fill="#E1D7F8"/>
<path d="M23.6681 32.2793C23.8244 35.2971 21.1994 37.9867 18.2358 37.9338C15.2723 37.9867 12.6473 35.3024 12.8035 32.2793C12.8504 35.1965 15.366 37.7326 18.2358 37.6691C21.1004 37.7326 23.6212 35.1965 23.6681 32.2793Z" fill="#E1D7F8"/>
<path d="M45.3947 32.2793C45.5509 35.2971 42.9259 37.9867 39.9624 37.9338C36.9988 37.9867 34.3738 35.3024 34.5301 32.2793C34.577 35.1965 37.0926 37.7326 39.9624 37.6691C42.827 37.7326 45.3478 35.1965 45.3947 32.2793Z" fill="#E1D7F8"/>
<path d="M67.1095 32.2793C67.2658 35.2971 64.6408 37.9867 61.6772 37.9338C58.7137 37.9867 56.0887 35.3024 56.2449 32.2793C56.2918 35.1965 58.8074 37.7326 61.6772 37.6691C64.5418 37.7326 67.0626 35.1965 67.1095 32.2793Z" fill="#E1D7F8"/>
<path d="M88.8361 32.2793C88.9923 35.2971 86.3673 37.9867 83.4038 37.9338C80.4402 37.9867 77.8152 35.3024 77.9715 32.2793C78.0184 35.1965 80.534 37.7326 83.4038 37.6691C86.2684 37.7326 88.7892 35.1965 88.8361 32.2793Z" fill="#E1D7F8"/>
<path d="M34.5314 32.2793C34.6876 35.2971 32.0626 37.9867 29.0991 37.9338C26.1355 37.9867 23.5105 35.3024 23.6668 32.2793C23.7137 35.1965 26.2293 37.7326 29.0991 37.6691C31.9637 37.7326 34.4845 35.1965 34.5314 32.2793Z" fill="#E1D7F8"/>
<path d="M56.2501 32.2793C56.4064 35.2971 53.7814 37.9867 50.8178 37.9338C47.8543 37.9867 45.2293 35.3024 45.3855 32.2793C45.4324 35.1965 47.948 37.7326 50.8178 37.6691C53.6824 37.7326 56.2033 35.1965 56.2501 32.2793Z" fill="#D2B8FF"/>
<path d="M77.9689 32.2793C78.1251 35.2971 75.5001 37.9867 72.5366 37.9338C69.573 37.9867 66.948 35.3024 67.1043 32.2793C67.1512 35.1965 69.6668 37.7326 72.5366 37.6691C75.4012 37.7326 77.922 35.1965 77.9689 32.2793Z" fill="#D2B8FF"/>
<path fill-rule="evenodd" clip-rule="evenodd" d="M50.5009 45.9279C49.8643 45.9279 49.355 46.4456 49.355 47.0927C49.355 48.4055 49.7613 49.675 50.5009 50.7289C51.2406 49.675 51.6468 48.4055 51.6468 47.0927C51.6468 46.4456 51.1375 45.9279 50.5009 45.9279ZM52.0287 52.4053C53.2049 50.9077 53.8597 49.0341 53.8597 47.0989C53.8597 45.1637 52.3561 43.6846 50.5009 43.6846C48.6457 43.6846 47.1421 45.213 47.1421 47.0989C47.1421 48.9848 47.7969 50.9077 48.9731 52.4053L46.7117 54.7041C45.2384 53.5085 43.3953 52.8428 41.4916 52.8428C39.5879 52.8428 38.1328 54.3713 38.1328 56.2572C38.1328 58.1431 39.6364 59.6715 41.4916 59.6715C43.3468 59.6715 45.2384 59.0059 46.7117 57.8103L48.9731 60.1091C47.7969 61.6067 47.1421 63.4803 47.1421 65.4154C47.1421 67.3506 48.6457 68.8298 50.5009 68.8298C52.3561 68.8298 53.8597 67.3013 53.8597 65.4154C53.8597 63.5296 53.2049 61.6067 52.0287 60.1091L54.2902 57.8103C55.7634 59.0059 57.6065 59.6715 59.5102 59.6715C61.4139 59.6715 62.869 58.1431 62.869 56.2572C62.869 54.3713 61.3654 52.8428 59.5102 52.8428C57.655 52.8428 55.7634 53.5085 54.2902 54.7041L52.0287 52.4053ZM50.5009 54.0323L48.3122 56.2572L50.5009 58.482L52.6896 56.2572L50.5009 54.0323ZM55.9392 56.2572C56.976 57.0091 58.2249 57.422 59.5163 57.422C60.1529 57.422 60.6622 56.9043 60.6622 56.2572C60.6622 55.6101 60.1529 55.0924 59.5163 55.0924C58.2249 55.0924 56.976 55.5053 55.9392 56.2572ZM50.5009 61.7854C49.7613 62.8393 49.355 64.1089 49.355 65.4216C49.355 66.0687 49.8643 66.5864 50.5009 66.5864C51.1375 66.5864 51.6468 66.0687 51.6468 65.4216C51.6468 64.1089 51.2406 62.8393 50.5009 61.7854ZM45.0626 56.2572C44.0258 55.5053 42.7769 55.0924 41.4855 55.0924C40.8489 55.0924 40.3397 55.6101 40.3397 56.2572C40.3397 56.9043 40.8489 57.422 41.4855 57.422C42.7769 57.422 44.0258 57.0091 45.0626 56.2572Z" fill="#EADDFF"/>
<mask id="mask0_1273_17237" style="mask-type:alpha" maskUnits="userSpaceOnUse" x="1" y="0" width="99" height="101">
<ellipse cx="50.8153" cy="50.485" rx="49.1864" ry="49.9997" fill="#FBF9FF"/>
</mask>
<g mask="url(#mask0_1273_17237)">
<path opacity="0.2" d="M72.5404 41.2634C70.405 41.2634 68.4727 40.3474 67.1081 38.8809C65.7435 40.3474 63.8164 41.2634 61.6758 41.2634C59.5352 41.2634 57.6081 40.3474 56.2435 38.8809C54.8789 40.3474 52.9518 41.2634 50.8112 41.2634C48.6706 41.2634 46.7435 40.3474 45.3789 38.8809C44.0143 40.3474 42.0872 41.2634 39.9466 41.2634C37.806 41.2634 35.8789 40.3474 34.5143 38.8809C33.1497 40.3474 31.2227 41.2634 29.082 41.2634C29.0039 41.2634 28.9258 41.2528 28.8477 41.2528V91.3648C28.8477 92.8419 30.0299 94.0438 31.4831 94.0438H38.0195C39.0872 94.0438 40.0612 93.3767 40.405 92.3443C41.082 90.2953 42.9414 88.7176 45.1289 88.7176H56.4883C58.6758 88.7176 60.5352 90.2953 61.2123 92.3443C61.5508 93.3714 62.53 94.0438 63.5977 94.0438H70.1289C71.5821 94.0438 72.7644 92.8419 72.7644 91.3648V41.2528C72.6862 41.2528 72.6081 41.2634 72.53 41.2634H72.5404Z" fill="url(#paint1_linear_1273_17237)"/>
<path d="M25.944 14.738V8.93001C25.944 6.5475 27.8451 4.61503 30.1888 4.61503H37.694C38.2513 4.61503 38.7044 5.07564 38.7044 5.64215C38.7044 6.62162 39.4909 7.42109 40.4544 7.42109H61.1836C62.1472 7.42109 62.9336 6.62162 62.9336 5.64215C62.9336 5.07564 63.3867 4.61503 63.944 4.61503H71.4492C73.793 4.61503 75.694 6.5475 75.694 8.93001V14.738H78.8763V6.42044C78.8763 3.14317 76.2618 0.485352 73.0378 0.485352H28.6003C25.3763 0.485352 22.7617 3.14317 22.7617 6.42044V14.738H25.944Z" fill="#E8DEFF"/>
<path d="M77.9701 38.8809C77.3295 39.5744 76.5534 40.1356 75.6993 40.5433V92.6937C75.6993 95.0762 73.7982 97.0087 71.4545 97.0087H63.6836C63.1263 97.0087 62.6732 96.5481 62.6732 95.9816V93.5567C62.6732 92.5243 61.8451 91.6825 60.8294 91.6825H40.8138C39.7982 91.6825 38.9701 92.5243 38.9701 93.5567V95.9816C38.9701 96.5481 38.5169 97.0087 37.9596 97.0087H30.1888C27.8451 97.0087 25.944 95.0762 25.944 92.6937V40.5433C25.0846 40.1356 24.3138 39.5691 23.6732 38.8809C23.3919 39.1826 23.0846 39.4527 22.7617 39.7015V95.2086C22.7617 98.4858 25.3763 101.144 28.6003 101.144H73.0378C76.2618 101.144 78.8763 98.4858 78.8763 95.2086V39.7015C78.5534 39.4527 78.2461 39.1826 77.9649 38.8809H77.9701Z" fill="#E8DEFF"/>
<path d="M56.2279 93.79H45.5768C45.1655 93.79 44.832 94.129 44.832 94.5472V97.6656C44.832 98.0837 45.1655 98.4227 45.5768 98.4227H56.2279C56.6392 98.4227 56.9727 98.0837 56.9727 97.6656V94.5472C56.9727 94.129 56.6392 93.79 56.2279 93.79Z" fill="white"/>
<path d="M23.668 31.0603H12.8086L22.7617 24.5322H30.7774L23.668 31.0603Z" fill="#D8C2FF"/>
<path d="M34.5326 31.0603H23.668L30.7773 24.5322H38.793L34.5326 31.0603Z" fill="#EDE6FF"/>
<path d="M45.3906 31.0603H34.5312L38.7917 24.5322H46.8125L45.3906 31.0603Z" fill="#D8C2FF"/>
<path d="M56.25 31.0603H45.3906L46.8125 24.5322H54.8281L56.25 31.0603Z" fill="#EDE6FF"/>
<path d="M67.1133 31.0603H56.2539L54.832 24.5322H62.8477L67.1133 31.0603Z" fill="#D8C2FF"/>
<path d="M77.9688 31.0603H67.1094L62.8438 24.5322H70.8646L77.9688 31.0603Z" fill="#EDE6FF"/>
<path d="M88.8359 31.0603H77.9714L70.8672 24.5322H78.8828L88.8359 31.0603Z" fill="#D8C2FF"/>
<path d="M30.7773 17.418H22.7617V24.5337H30.7773V17.418Z" fill="#EDE6FF"/>
<path d="M38.793 17.418H30.7773V24.5337H38.793V17.418Z" fill="#D8C2FF"/>
<path d="M46.8086 17.418H38.793V24.5337H46.8086V17.418Z" fill="#EDE6FF"/>
<path d="M54.8281 17.418H46.8125V24.5337H54.8281V17.418Z" fill="#D8C2FF"/>
<path d="M62.8477 17.418H54.832V24.5337H62.8477V17.418Z" fill="#EDE6FF"/>
<path d="M70.8594 17.418H62.8438V24.5337H70.8594V17.418Z" fill="#D8C2FF"/>
<path d="M78.8828 17.418H70.8672V24.5337H78.8828V17.418Z" fill="#EDE6FF"/>
<path d="M23.668 32.2792C23.668 35.3289 21.2357 37.8014 18.2357 37.8014C15.2357 37.8014 12.8086 35.3289 12.8086 32.2792V31.0615H23.668V32.2792Z" fill="#D8C2FF"/>
<path d="M45.3919 32.2792C45.3919 35.3289 42.9596 37.8014 39.9596 37.8014C36.9596 37.8014 34.5273 35.3289 34.5273 32.2792V31.0615H45.3867V32.2792H45.3919Z" fill="#D8C2FF"/>
<path d="M67.1107 32.2792C67.1107 35.3289 64.6784 37.8014 61.6784 37.8014C58.6784 37.8014 56.2461 35.3289 56.2461 32.2792V31.0615H67.1055V32.2792H67.1107Z" fill="#D8C2FF"/>
<path d="M88.8333 32.2792C88.8333 35.3289 86.401 37.8014 83.401 37.8014C80.401 37.8014 77.9688 35.3289 77.9688 32.2792V31.0615H88.8281V32.2792H88.8333Z" fill="#D8C2FF"/>
<path d="M34.5326 32.2792C34.5326 35.3289 32.1003 37.8014 29.1003 37.8014C26.1003 37.8014 23.668 35.3289 23.668 32.2792V31.0615H34.5274V32.2792H34.5326Z" fill="#EDE6FF"/>
<path d="M56.2513 32.2792C56.2513 35.3289 53.819 37.8014 50.819 37.8014C47.819 37.8014 45.3867 35.3289 45.3867 32.2792V31.0615H56.2461V32.2792H56.2513Z" fill="#EDE6FF"/>
<path d="M77.9701 32.2792C77.9701 35.3289 75.5378 37.8014 72.5378 37.8014C69.5378 37.8014 67.1055 35.3289 67.1055 32.2792V31.0615H77.9649V32.2792H77.9701Z" fill="#EDE6FF"/>
<path d="M23.6681 32.2793C23.8244 35.2971 21.1994 37.9867 18.2358 37.9338C15.2723 37.9867 12.6473 35.3024 12.8035 32.2793C12.8504 35.1965 15.366 37.7326 18.2358 37.6691C21.1004 37.7326 23.6212 35.1965 23.6681 32.2793Z" fill="#EDE6FF"/>
<path d="M45.3947 32.2793C45.5509 35.2971 42.9259 37.9867 39.9624 37.9338C36.9988 37.9867 34.3738 35.3024 34.5301 32.2793C34.577 35.1965 37.0926 37.7326 39.9624 37.6691C42.827 37.7326 45.3478 35.1965 45.3947 32.2793Z" fill="#EDE6FF"/>
<path d="M67.1095 32.2793C67.2658 35.2971 64.6408 37.9867 61.6772 37.9338C58.7137 37.9867 56.0887 35.3024 56.2449 32.2793C56.2918 35.1965 58.8074 37.7326 61.6772 37.6691C64.5418 37.7326 67.0626 35.1965 67.1095 32.2793Z" fill="#EDE6FF"/>
<path d="M88.8361 32.2793C88.9923 35.2971 86.3673 37.9867 83.4038 37.9338C80.4402 37.9867 77.8152 35.3024 77.9715 32.2793C78.0184 35.1965 80.534 37.7326 83.4038 37.6691C86.2684 37.7326 88.7892 35.1965 88.8361 32.2793Z" fill="#EDE6FF"/>
<path d="M34.5314 32.2793C34.6876 35.2971 32.0626 37.9867 29.0991 37.9338C26.1355 37.9867 23.5105 35.3024 23.6668 32.2793C23.7137 35.1965 26.2293 37.7326 29.0991 37.6691C31.9637 37.7326 34.4845 35.1965 34.5314 32.2793Z" fill="#EDE6FF"/>
<path d="M56.2501 32.2793C56.4064 35.2971 53.7814 37.9867 50.8178 37.9338C47.8543 37.9867 45.2293 35.3024 45.3855 32.2793C45.4324 35.1965 47.948 37.7326 50.8178 37.6691C53.6824 37.7326 56.2033 35.1965 56.2501 32.2793Z" fill="#D8C2FF"/>
<path d="M77.9689 32.2793C78.1251 35.2971 75.5001 37.9867 72.5366 37.9338C69.573 37.9867 66.948 35.3024 67.1043 32.2793C67.1512 35.1965 69.6668 37.7326 72.5366 37.6691C75.4012 37.7326 77.922 35.1965 77.9689 32.2793Z" fill="#D8C2FF"/>
<path fill-rule="evenodd" clip-rule="evenodd" d="M50.5009 45.9279C49.8643 45.9279 49.355 46.4456 49.355 47.0927C49.355 48.4055 49.7613 49.675 50.5009 50.7289C51.2406 49.675 51.6468 48.4055 51.6468 47.0927C51.6468 46.4456 51.1375 45.9279 50.5009 45.9279ZM52.0287 52.4053C53.2049 50.9077 53.8597 49.0341 53.8597 47.0989C53.8597 45.1637 52.3561 43.6846 50.5009 43.6846C48.6457 43.6846 47.1421 45.213 47.1421 47.0989C47.1421 48.9848 47.7969 50.9077 48.9731 52.4053L46.7117 54.7041C45.2384 53.5085 43.3953 52.8428 41.4916 52.8428C39.5879 52.8428 38.1328 54.3713 38.1328 56.2572C38.1328 58.1431 39.6364 59.6715 41.4916 59.6715C43.3468 59.6715 45.2384 59.0059 46.7117 57.8103L48.9731 60.1091C47.7969 61.6067 47.1421 63.4803 47.1421 65.4154C47.1421 67.3506 48.6457 68.8298 50.5009 68.8298C52.3561 68.8298 53.8597 67.3013 53.8597 65.4154C53.8597 63.5296 53.2049 61.6067 52.0287 60.1091L54.2902 57.8103C55.7634 59.0059 57.6065 59.6715 59.5102 59.6715C61.4139 59.6715 62.869 58.1431 62.869 56.2572C62.869 54.3713 61.3654 52.8428 59.5102 52.8428C57.655 52.8428 55.7634 53.5085 54.2902 54.7041L52.0287 52.4053ZM50.5009 54.0323L48.3122 56.2572L50.5009 58.482L52.6896 56.2572L50.5009 54.0323ZM55.9392 56.2572C56.976 57.0091 58.2249 57.422 59.5163 57.422C60.1529 57.422 60.6622 56.9043 60.6622 56.2572C60.6622 55.6101 60.1529 55.0924 59.5163 55.0924C58.2249 55.0924 56.976 55.5053 55.9392 56.2572ZM50.5009 61.7854C49.7613 62.8393 49.355 64.1089 49.355 65.4216C49.355 66.0687 49.8643 66.5864 50.5009 66.5864C51.1375 66.5864 51.6468 66.0687 51.6468 65.4216C51.6468 64.1089 51.2406 62.8393 50.5009 61.7854ZM45.0626 56.2572C44.0258 55.5053 42.7769 55.0924 41.4855 55.0924C40.8489 55.0924 40.3397 55.6101 40.3397 56.2572C40.3397 56.9043 40.8489 57.422 41.4855 57.422C42.7769 57.422 44.0258 57.0091 45.0626 56.2572Z" fill="#EADDFF"/>
<mask id="path-69-inside-1_1273_17237" fill="white">
<path d="M24.7109 66.3663C25.6075 66.3575 26.4867 66.7931 27.0195 67.6076L35.5146 80.5577H66.0508L74.5439 67.6085C75.0767 66.7941 75.956 66.3586 76.8525 66.3673H100.088C101.599 66.3673 102.825 67.613 102.825 69.1495V130.643C102.825 132.179 101.6 133.425 100.088 133.425H30.291C30.2845 133.425 30.278 133.424 30.2715 133.424H1.47559C-0.0359007 133.424 -1.26151 132.178 -1.26172 130.642V69.1486C-1.26155 67.6121 -0.0359218 66.3665 1.47559 66.3663H24.7109Z"/>
</mask>
<path d="M24.7109 66.3663C25.6075 66.3575 26.4867 66.7931 27.0195 67.6076L35.5146 80.5577H66.0508L74.5439 67.6085C75.0767 66.7941 75.956 66.3586 76.8525 66.3673H100.088C101.599 66.3673 102.825 67.613 102.825 69.1495V130.643C102.825 132.179 101.6 133.425 100.088 133.425H30.291C30.2845 133.425 30.278 133.424 30.2715 133.424H1.47559C-0.0359007 133.424 -1.26151 132.178 -1.26172 130.642V69.1486C-1.26155 67.6121 -0.0359218 66.3665 1.47559 66.3663H24.7109Z" fill="#D2B8FF"/>
<path d="M24.7109 66.3663V66.7781L24.715 66.7781L24.7109 66.3663ZM27.0195 67.6076L26.675 67.833L26.6752 67.8334L27.0195 67.6076ZM35.5146 80.5577L35.1704 80.7836L35.2923 80.9695H35.5146V80.5577ZM66.0508 80.5577V80.9695H66.2731L66.3951 80.7836L66.0508 80.5577ZM74.5439 67.6085L74.8883 67.8344L74.8885 67.834L74.5439 67.6085ZM76.8525 66.3673L76.8485 66.7791H76.8525V66.3673ZM102.825 69.1495H103.237V69.1495L102.825 69.1495ZM102.825 130.643L103.237 130.643V130.643H102.825ZM30.291 133.425L30.291 133.837H30.291V133.425ZM30.2715 133.424L30.2744 133.012H30.2715V133.424ZM1.47559 133.424L1.47554 133.836H1.47559V133.424ZM-1.26172 130.642H-1.67348V130.642L-1.26172 130.642ZM-1.26172 69.1486L-1.67348 69.1485V69.1486H-1.26172ZM1.47559 66.3663V65.9546H1.47554L1.47559 66.3663ZM24.7109 66.3663L24.715 66.7781C25.4753 66.7706 26.2212 67.1395 26.675 67.833L27.0195 67.6076L27.3641 67.3821C26.7522 66.4468 25.7397 65.9445 24.7069 65.9546L24.7109 66.3663ZM27.0195 67.6076L26.6752 67.8334L35.1704 80.7836L35.5146 80.5577L35.8589 80.3319L27.3638 67.3817L27.0195 67.6076ZM35.5146 80.5577V80.9695H66.0508V80.5577V80.146H35.5146V80.5577ZM66.0508 80.5577L66.3951 80.7836L74.8883 67.8344L74.5439 67.6085L74.1996 67.3827L65.7065 80.3319L66.0508 80.5577ZM74.5439 67.6085L74.8885 67.834C75.3422 67.1405 76.0882 66.7716 76.8485 66.7791L76.8525 66.3673L76.8566 65.9556C75.8239 65.9455 74.8113 66.4478 74.1994 67.3831L74.5439 67.6085ZM76.8525 66.3673V66.7791H100.088V66.3673V65.9556H76.8525V66.3673ZM100.088 66.3673V66.7791C101.366 66.7791 102.413 67.834 102.413 69.1496L102.825 69.1495L103.237 69.1495C103.237 67.392 101.833 65.9556 100.088 65.9556V66.3673ZM102.825 69.1495H102.413V130.643H102.825H103.237V69.1495H102.825ZM102.825 130.643L102.413 130.643C102.413 131.958 101.366 133.013 100.088 133.013V133.425V133.837C101.833 133.837 103.237 132.4 103.237 130.643L102.825 130.643ZM100.088 133.425V133.013H30.291V133.425V133.837H100.088V133.425ZM30.291 133.425L30.291 133.013C30.299 133.013 30.3052 133.013 30.3083 133.014C30.3112 133.014 30.3132 133.014 30.3113 133.014C30.3106 133.014 30.3055 133.013 30.3 133.013C30.2941 133.013 30.2852 133.012 30.2744 133.012L30.2715 133.424L30.2685 133.836C30.2611 133.836 30.2554 133.835 30.2527 133.835C30.2505 133.835 30.2486 133.835 30.2512 133.835C30.2525 133.835 30.2578 133.836 30.2639 133.836C30.2704 133.836 30.2798 133.837 30.291 133.837L30.291 133.425ZM30.2715 133.424V133.012H1.47559V133.424V133.836H30.2715V133.424ZM1.47559 133.424L1.47564 133.012C0.197802 133.012 -0.84978 131.957 -0.849954 130.642L-1.26172 130.642L-1.67348 130.642C-1.67325 132.399 -0.269603 133.836 1.47554 133.836L1.47559 133.424ZM-1.26172 130.642H-0.849954V69.1486H-1.26172H-1.67348V130.642H-1.26172ZM-1.26172 69.1486L-0.849954 69.1486C-0.849809 67.8332 0.197772 66.7783 1.47564 66.7781L1.47559 66.3663L1.47554 65.9546C-0.269615 65.9548 -1.67329 67.391 -1.67348 69.1485L-1.26172 69.1486ZM1.47559 66.3663V66.7781H24.7109V66.3663V65.9546H1.47559V66.3663Z" fill="#E1D7F8" mask="url(#path-69-inside-1_1273_17237)"/>
</g>
<path d="M15.9716 52.9937L9.68731 52.4771L9.74856 51.7072L14.7766 46.0973L10.4421 45.7409L10.5222 44.7347L16.409 45.2186L16.3471 45.9962L11.3341 51.6073L16.051 51.9951L15.9716 52.9937Z" fill="#D2B8FF"/>
<path d="M8.55067 46.1931L-0.000252078 45.6404L0.0652697 44.5928L6.76833 36.8505L0.870439 36.4694L0.956071 35.1002L8.96618 35.6179L8.90001 36.6759L2.21736 44.4195L8.63565 44.8343L8.55067 46.1931Z" fill="#D2B8FF"/>
<defs>
<linearGradient id="paint0_linear_1273_17237" x1="2.41013" y1="17.6554" x2="47.5128" y2="62.0245" gradientUnits="userSpaceOnUse">
<stop stop-color="white"/>
<stop offset="1" stop-color="white" stop-opacity="0"/>
</linearGradient>
<linearGradient id="paint1_linear_1273_17237" x1="2.41013" y1="17.6554" x2="47.5128" y2="62.0245" gradientUnits="userSpaceOnUse">
<stop stop-color="white"/>
<stop offset="1" stop-color="white" stop-opacity="0"/>
</linearGradient>
</defs>
</svg>
