<svg width="499" height="534" viewBox="0 0 499 534" fill="none" xmlns="http://www.w3.org/2000/svg">
<rect x="0.5" y="0.5" width="498" height="533" rx="28.175" fill="#1F0433" stroke="#AE72FF"/>
<rect x="180.072" y="317.5" width="138.805" height="186.825" rx="24.5" fill="#1F0433" stroke="#AE72FF"/>
<rect x="333.25" y="317.5" width="138.805" height="186.825" rx="24.5" fill="#1F0433" stroke="#AE72FF"/>
<rect x="25.8047" y="136" width="447" height="160" rx="25" fill="#2E1044"/>
<rect x="26.8945" y="317.5" width="138.805" height="186.825" rx="24.5" fill="#1F0433" stroke="#AE72FF"/>
<circle cx="71" cy="69" r="37.5" stroke="#AE72FF"/>
<rect x="125" y="55" width="110" height="28" rx="5" fill="#2E1044"/>
<rect x="43" y="334" width="106" height="104" rx="17" fill="#2E1044"/>
<rect x="196" y="334" width="106" height="104" rx="17" fill="#2E1044"/>
<rect x="350" y="334" width="106" height="104" rx="17" fill="#2E1044"/>
<path d="M434.965 53.0151L430 48.1304L432.165 46L437.131 50.8847H460.469C461.314 50.8847 462 51.5592 462 52.3911C462 52.5377 461.978 52.6836 461.936 52.824L458.261 64.8752C458.066 65.5124 457.47 65.9488 456.794 65.9488H438.028V68.9616H454.871V71.9744H436.496C435.651 71.9744 434.965 71.2998 434.965 70.468V53.0151ZM437.262 78C435.993 78 434.965 76.9883 434.965 75.7404C434.965 74.4923 435.993 73.4808 437.262 73.4808C438.53 73.4808 439.559 74.4923 439.559 75.7404C439.559 76.9883 438.53 78 437.262 78ZM455.636 78C454.368 78 453.34 76.9883 453.34 75.7404C453.34 74.4923 454.368 73.4808 455.636 73.4808C456.905 73.4808 457.933 74.4923 457.933 75.7404C457.933 76.9883 456.905 78 455.636 78Z" fill="#AE72FF"/>
<path d="M394.253 69.0257L401 75.7722L398.772 78L392.026 71.2535C389.6 73.1943 386.524 74.3552 383.178 74.3552C375.352 74.3552 369 68.0037 369 60.1776C369 52.3516 375.352 46 383.178 46C391.004 46 397.355 52.3516 397.355 60.1776C397.355 63.5235 396.194 66.5999 394.253 69.0257ZM391.093 67.8569C393.019 65.8717 394.205 63.1637 394.205 60.1776C394.205 54.0852 389.27 49.1506 383.178 49.1506C377.085 49.1506 372.151 54.0852 372.151 60.1776C372.151 66.2701 377.085 71.2047 383.178 71.2047C386.164 71.2047 388.872 70.0193 390.857 68.093L391.093 67.8569Z" fill="#AE72FF"/>
<g opacity="0.21">
<path fill-rule="evenodd" clip-rule="evenodd" d="M61.6506 68.896C59.9839 67.7049 57.975 67.0514 55.9023 67.0514C54.8794 67.0514 54.0577 67.8731 54.0577 68.896C54.0577 69.9188 54.8794 70.7405 55.9023 70.7405C57.975 70.7405 59.9839 70.087 61.6506 68.896ZM70.396 77.6413C69.2049 79.308 68.5514 81.3169 68.5514 83.3897C68.5514 84.4125 69.3731 85.2342 70.396 85.2342C71.4188 85.2342 72.2405 84.4125 72.2405 83.3897C72.2405 81.3169 71.587 79.308 70.396 77.6413ZM79.1413 68.896C80.808 70.087 82.8169 70.7405 84.8897 70.7405C85.9125 70.7405 86.7342 69.9188 86.7342 68.896C86.7342 67.8731 85.9125 67.0514 84.8897 67.0514C82.8169 67.0514 80.808 67.7049 79.1413 68.896ZM70.396 65.3731L66.8731 68.896L70.396 72.4188L73.9188 68.896L70.396 65.3731ZM72.8535 62.7976C74.7483 60.4271 75.7982 57.4669 75.7982 54.4023C75.7982 51.3376 73.3833 49 70.396 49C67.4087 49 64.9937 51.415 64.9937 54.4023C64.9937 57.3896 66.0436 60.4271 67.9385 62.7976L64.2996 66.4365C61.9291 64.5417 58.9688 63.4918 55.9042 63.4918C52.8396 63.4918 50.5 65.9087 50.5 68.896C50.5 71.8833 52.915 74.2982 55.9023 74.2982C58.8896 74.2982 61.9271 73.2483 64.2976 71.3535L67.9365 74.9924C66.0417 77.3629 64.9918 80.3231 64.9918 83.3877C64.9918 86.4524 67.4067 88.79 70.394 88.79C73.3813 88.79 75.7963 86.375 75.7963 83.3877C75.7963 80.4004 74.7464 77.3629 72.8515 74.9924L76.4904 71.3535C78.8609 73.2483 81.8212 74.2982 84.8858 74.2982C87.9504 74.2982 90.2881 71.8833 90.2881 68.896C90.2881 65.9087 87.8731 63.4937 84.8858 63.4937C81.8985 63.4937 78.8609 64.5436 76.4904 66.4385L72.8515 62.7996L72.8535 62.7976ZM70.396 52.5577C69.3731 52.5577 68.5514 53.3794 68.5514 54.4023C68.5514 56.475 69.2049 58.4839 70.396 60.1506C71.587 58.4839 72.2405 56.475 72.2405 54.4023C72.2405 53.3794 71.4188 52.5577 70.396 52.5577Z" fill="#AE72FF"/>
</g>
<path d="M82.9651 377.015L78 372.13L80.1654 370L85.1306 374.885H108.469C109.314 374.885 110 375.559 110 376.391C110 376.538 109.978 376.684 109.936 376.824L106.261 388.875C106.066 389.512 105.47 389.949 104.794 389.949H86.0276V392.962H102.871V395.974H84.4964C83.6507 395.974 82.9651 395.3 82.9651 394.468V377.015ZM85.262 402C83.9935 402 82.9651 400.988 82.9651 399.74C82.9651 398.492 83.9935 397.481 85.262 397.481C86.5304 397.481 87.5588 398.492 87.5588 399.74C87.5588 400.988 86.5304 402 85.262 402ZM103.636 402C102.368 402 101.34 400.988 101.34 399.74C101.34 398.492 102.368 397.481 103.636 397.481C104.905 397.481 105.933 398.492 105.933 399.74C105.933 400.988 104.905 402 103.636 402Z" fill="#482067"/>
<path d="M235.965 377.015L231 372.13L233.165 370L238.131 374.885H261.469C262.314 374.885 263 375.559 263 376.391C263 376.538 262.978 376.684 262.936 376.824L259.261 388.875C259.066 389.512 258.47 389.949 257.794 389.949H239.028V392.962H255.871V395.974H237.496C236.651 395.974 235.965 395.3 235.965 394.468V377.015ZM238.262 402C236.993 402 235.965 400.988 235.965 399.74C235.965 398.492 236.993 397.481 238.262 397.481C239.53 397.481 240.559 398.492 240.559 399.74C240.559 400.988 239.53 402 238.262 402ZM256.636 402C255.368 402 254.34 400.988 254.34 399.74C254.34 398.492 255.368 397.481 256.636 397.481C257.905 397.481 258.933 398.492 258.933 399.74C258.933 400.988 257.905 402 256.636 402Z" fill="#482067"/>
<path d="M389.965 377.015L385 372.13L387.165 370L392.131 374.885H415.469C416.314 374.885 417 375.559 417 376.391C417 376.538 416.978 376.684 416.936 376.824L413.261 388.875C413.066 389.512 412.47 389.949 411.794 389.949H393.028V392.962H409.871V395.974H391.496C390.651 395.974 389.965 395.3 389.965 394.468V377.015ZM392.262 402C390.993 402 389.965 400.988 389.965 399.74C389.965 398.492 390.993 397.481 392.262 397.481C393.53 397.481 394.559 398.492 394.559 399.74C394.559 400.988 393.53 402 392.262 402ZM410.636 402C409.368 402 408.34 400.988 408.34 399.74C408.34 398.492 409.368 397.481 410.636 397.481C411.905 397.481 412.933 398.492 412.933 399.74C412.933 400.988 411.905 402 410.636 402Z" fill="#482067"/>
<rect opacity="0.31" x="43" y="452" width="106" height="23" rx="11.5" fill="#AE72FF"/>
<rect opacity="0.31" x="196" y="452" width="106" height="23" rx="11.5" fill="#AE72FF"/>
<rect opacity="0.31" x="350" y="452" width="106" height="23" rx="11.5" fill="#AE72FF"/>
<circle cx="230.365" cy="69.0002" r="41.4668" fill="#1F0433" stroke="#3C1C54" stroke-width="1.02183"/>
<path d="M220.665 64.6186C221.461 64.6186 222.107 65.264 222.107 66.0602C224.463 66.0602 226.631 66.868 228.348 68.2217L231.476 68.2224C233.397 68.2224 235.122 69.0567 236.31 70.3827L240.846 70.3846C243.718 70.3846 246.197 72.0642 247.356 74.4948C243.947 78.9931 238.427 81.9165 232.197 81.9165C228.174 81.9165 224.773 81.0468 222.019 79.5265C221.82 80.0794 221.289 80.475 220.665 80.475H216.341C215.545 80.475 214.899 79.8296 214.899 79.0335V66.0602C214.899 65.264 215.545 64.6186 216.341 64.6186H220.665ZM222.108 68.9431L222.107 76.1809L222.172 76.2291C224.758 78.0459 228.13 79.0335 232.197 79.0335C236.527 79.0335 240.556 77.3676 243.491 74.5224L243.683 74.3299L243.511 74.1852C242.842 73.662 242.022 73.3372 241.142 73.2775L240.846 73.2676L237.802 73.2661C237.908 73.7301 237.963 74.213 237.963 74.709V76.1505H224.99V73.2676L234.777 73.2661L234.728 73.153C234.179 72.009 233.045 71.1995 231.713 71.113L231.476 71.1053L227.254 71.1051C225.946 69.7712 224.124 68.9435 222.108 68.9431ZM219.224 67.5016H217.782V77.592H219.224V67.5016ZM233.129 56.7992L233.638 57.3091L234.148 56.7992C235.556 55.3918 237.837 55.3918 239.245 56.7992C240.652 58.2065 240.652 60.4882 239.245 61.8956L233.639 67.5016L228.033 61.8956C226.625 60.4882 226.625 58.2065 228.033 56.7992C229.44 55.3918 231.722 55.3918 233.129 56.7992ZM230.071 58.8377C229.821 59.0879 229.793 59.4763 229.987 59.7561L230.07 59.8555L233.637 63.4237L237.206 59.857C237.456 59.6068 237.484 59.2184 237.29 58.9375L237.206 58.8377C236.956 58.5875 236.568 58.5597 236.286 58.7545L236.187 58.838L233.636 61.3875L231.089 58.8362L230.991 58.7543C230.71 58.5597 230.321 58.5875 230.071 58.8377Z" fill="#3C1C54"/>
<circle cx="172.922" cy="69.0002" r="41.4668" fill="#1F0433" stroke="#2E1044" stroke-width="1.02183"/>
<path d="M187.383 79.065H190.597V82.2563H155.247V79.065H158.461V55.1303C158.461 54.2491 159.18 53.5347 160.067 53.5347H176.136C177.023 53.5347 177.742 54.2491 177.742 55.1303V79.065H184.17V66.2998H180.956V63.1085H185.776C186.664 63.1085 187.383 63.8229 187.383 64.7042V79.065ZM161.674 56.726V79.065H174.529V56.726H161.674ZM164.888 66.2998H171.315V69.4911H164.888V66.2998ZM164.888 59.9172H171.315V63.1085H164.888V59.9172Z" fill="#3C1C54"/>
<circle cx="121.002" cy="69.0002" r="41.4668" fill="#1F0433" stroke="#3C1C54" stroke-width="1.02183"/>
<path d="M133.656 79.3841H136.468V82.2563H105.537V79.3841H108.349V54.9707C108.349 54.1776 108.978 53.5347 109.755 53.5347H132.25C133.027 53.5347 133.656 54.1776 133.656 54.9707V79.3841ZM130.844 79.3841V56.4068H111.161V79.3841H130.844ZM115.379 66.4594H119.597V69.3316H115.379V66.4594ZM115.379 60.7151H119.597V63.5872H115.379V60.7151ZM115.379 72.2037H119.597V75.0759H115.379V72.2037ZM122.409 72.2037H126.626V75.0759H122.409V72.2037ZM122.409 66.4594H126.626V69.3316H122.409V66.4594ZM122.409 60.7151H126.626V63.5872H122.409V60.7151Z" fill="#3C1C54"/>
<g filter="url(#filter0_d_726_2281)">
<circle cx="67.9777" cy="69.0002" r="41.4254" fill="#1F0433" stroke="#AE72FF" stroke-width="1.10468"/>
<path d="M56.9307 82.4571C56.9307 76.372 61.8424 71.439 67.9012 71.439C73.9602 71.439 78.8718 76.372 78.8718 82.4571H76.1292C76.1292 77.8933 72.4454 74.1936 67.9012 74.1936C63.3571 74.1936 59.6733 77.8933 59.6733 82.4571H56.9307ZM67.9012 70.0618C63.3553 70.0618 59.6733 66.3638 59.6733 61.7982C59.6733 57.2326 63.3553 53.5347 67.9012 53.5347C72.4472 53.5347 76.1292 57.2326 76.1292 61.7982C76.1292 66.3638 72.4472 70.0618 67.9012 70.0618ZM67.9012 67.3073C70.9319 67.3073 73.3865 64.842 73.3865 61.7982C73.3865 58.7545 70.9319 56.2892 67.9012 56.2892C64.8706 56.2892 62.416 58.7545 62.416 61.7982C62.416 64.842 64.8706 67.3073 67.9012 67.3073Z" fill="#AE72FF"/>
</g>
<defs>
<filter id="filter0_d_726_2281" x="9.2" y="9.22246" width="117.555" height="117.556" filterUnits="userSpaceOnUse" color-interpolation-filters="sRGB">
<feFlood flood-opacity="0" result="BackgroundImageFix"/>
<feColorMatrix in="SourceAlpha" type="matrix" values="0 0 0 0 0 0 0 0 0 0 0 0 0 0 0 0 0 0 127 0" result="hardAlpha"/>
<feOffset dy="-1"/>
<feGaussianBlur stdDeviation="8.4"/>
<feComposite in2="hardAlpha" operator="out"/>
<feColorMatrix type="matrix" values="0 0 0 0 0.682353 0 0 0 0 0.447059 0 0 0 0 1 0 0 0 0.3 0"/>
<feBlend mode="normal" in2="BackgroundImageFix" result="effect1_dropShadow_726_2281"/>
<feBlend mode="normal" in="SourceGraphic" in2="effect1_dropShadow_726_2281" result="shape"/>
</filter>
</defs>
</svg>
