<svg width="120" height="119" viewBox="0 0 120 119" fill="none" xmlns="http://www.w3.org/2000/svg">
<mask id="mask0_11297_2164" style="mask-type:luminance" maskUnits="userSpaceOnUse" x="0" y="24" width="120" height="71">
<path d="M119.406 24.99H0.594116V94.01H119.406V24.99Z" fill="white"/>
</mask>
<g mask="url(#mask0_11297_2164)">
<path d="M60.6737 92.029C76.1442 92.029 88.6856 79.4614 88.6856 63.9586C88.6856 48.4557 76.1442 35.8882 60.6737 35.8882C45.203 35.8882 32.6616 48.4557 32.6616 63.9586C32.6616 79.4614 45.203 92.029 60.6737 92.029Z" fill="#FBF9FF"/>
<path opacity="0.49" d="M15.0164 66.8293C15.0164 64.1498 17.184 61.9775 19.8578 61.9775H100.142C102.817 61.9775 104.985 64.1498 104.985 66.8293V80.2427C104.985 82.9221 102.817 85.0944 100.142 85.0944H19.8578C17.184 85.0944 15.0164 82.9221 15.0164 80.2427V66.8293Z" fill="#ECE2FF"/>
<path opacity="0.49" d="M21.6066 85.0931H98.7223V89.158C98.7223 91.8375 96.5544 94.0096 93.8802 94.0096H26.4482C23.7743 94.0096 21.6066 91.8375 21.6066 89.158V85.0931Z" fill="#F6F2FF"/>
<g filter="url(#filter0_d_11297_2164)">
<path d="M9.74402 55.6709C9.74402 52.4053 12.3858 49.7581 15.6446 49.7581H104.357C107.616 49.7581 110.257 52.4053 110.257 55.6709V69.6038C110.257 72.8694 107.616 75.5167 104.357 75.5167H15.6446C12.3858 75.5167 9.74402 72.8694 9.74402 69.6038V55.6709Z" fill="white"/>
</g>
<mask id="mask1_11297_2164" style="mask-type:luminance" maskUnits="userSpaceOnUse" x="14" y="53" width="20" height="20">
<path d="M29.1628 53.3907H18.6234C16.2672 53.3907 14.3573 55.2757 14.3573 57.6008V68.0023C14.3573 70.3275 16.2672 72.2124 18.6234 72.2124H29.1628C31.5188 72.2124 33.4287 70.3275 33.4287 68.0023V57.6008C33.4287 55.2757 31.5188 53.3907 29.1628 53.3907Z" fill="white"/>
</mask>
<g mask="url(#mask1_11297_2164)">
<path d="M29.1628 53.3907H18.6234C16.2672 53.3907 14.3573 55.2757 14.3573 57.6008V68.0023C14.3573 70.3275 16.2672 72.2124 18.6234 72.2124H29.1628C31.5188 72.2124 33.4287 70.3275 33.4287 68.0023V57.6008C33.4287 55.2757 31.5188 53.3907 29.1628 53.3907Z" fill="#E2D2FF"/>
<path d="M33.4287 53.3907H14.3573V72.2124H33.4287V53.3907Z" fill="#E2D2FF"/>
</g>
<mask id="mask2_11297_2164" style="mask-type:luminance" maskUnits="userSpaceOnUse" x="18" y="57" width="12" height="12">
<path d="M29.5162 57.0224H18.3114V68.5808H29.5162V57.0224Z" fill="white"/>
</mask>
<g mask="url(#mask2_11297_2164)">
<path fill-rule="evenodd" clip-rule="evenodd" d="M21.4514 62.8016C20.9819 62.4556 20.4163 62.2658 19.8327 62.2658C19.5447 62.2658 19.3132 62.5045 19.3132 62.8016C19.3132 63.0987 19.5447 63.3374 19.8327 63.3374C20.4163 63.3374 20.9819 63.1476 21.4514 62.8016ZM23.9139 65.3418C23.5785 65.8259 23.3944 66.4095 23.3944 67.0115C23.3944 67.3086 23.6259 67.5474 23.9139 67.5474C24.2019 67.5474 24.4332 67.3086 24.4332 67.0115C24.4332 66.4095 24.2491 65.8259 23.9139 65.3418ZM26.3765 62.8016C26.8458 63.1476 27.4113 63.3374 27.995 63.3374C28.283 63.3374 28.5144 63.0987 28.5144 62.8016C28.5144 62.5045 28.283 62.2658 27.995 62.2658C27.4113 62.2658 26.8458 62.4556 26.3765 62.8016ZM23.9139 61.7782L22.9218 62.8016L23.9139 63.8249L24.9058 62.8016L23.9139 61.7782ZM24.6058 61.0302C25.1394 60.3417 25.435 59.4818 25.435 58.5915C25.435 57.7013 24.7549 57.0224 23.9139 57.0224C23.0727 57.0224 22.3926 57.7239 22.3926 58.5915C22.3926 59.4593 22.6882 60.3417 23.2218 61.0302L22.1971 62.0872C21.5297 61.5368 20.6961 61.2318 19.8331 61.2318C18.9702 61.2318 18.3114 61.9338 18.3114 62.8016C18.3114 63.6693 18.9915 64.3708 19.8327 64.3708C20.6737 64.3708 21.5292 64.0658 22.1967 63.5154L23.2213 64.5724C22.6877 65.2609 22.3921 66.1208 22.3921 67.011C22.3921 67.9013 23.0721 68.5802 23.9133 68.5802C24.7545 68.5802 25.4344 67.8786 25.4344 67.011C25.4344 66.1433 25.1389 65.2609 24.6052 64.5724L25.63 63.5154C26.2975 64.0658 27.1309 64.3708 27.9939 64.3708C28.8569 64.3708 29.5151 63.6693 29.5151 62.8016C29.5151 61.9338 28.8352 61.2324 27.9939 61.2324C27.1528 61.2324 26.2975 61.5373 25.63 62.0878L24.6058 61.0302ZM23.9139 58.0558C23.6259 58.0558 23.3944 58.2945 23.3944 58.5915C23.3944 59.1937 23.5785 59.7773 23.9139 60.2613C24.2491 59.7773 24.4332 59.1937 24.4332 58.5915C24.4332 58.2945 24.2019 58.0558 23.9139 58.0558Z" fill="#F0E7FF"/>
</g>
<path opacity="0.49" d="M55.8806 56.6923H39.7325C39.0046 56.6923 38.4143 57.2838 38.4143 58.0133V60.6553C38.4143 61.3847 39.0046 61.9762 39.7325 61.9762H55.8806C56.6087 61.9762 57.1988 61.3847 57.1988 60.6553V58.0133C57.1988 57.2838 56.6087 56.6923 55.8806 56.6923Z" fill="#E2D2FF"/>
<path opacity="0.49" d="M87.1881 63.9578H39.7325C39.0046 63.9578 38.4143 64.5493 38.4143 65.2787V67.9206C38.4143 68.6502 39.0046 69.2417 39.7325 69.2417H87.1881C87.9161 69.2417 88.5063 68.6502 88.5063 67.9206V65.2787C88.5063 64.5493 87.9161 63.9578 87.1881 63.9578Z" fill="#E2D2FF"/>
</g>
<defs>
<filter id="filter0_d_11297_2164" x="-0.552622" y="41.1643" width="121.106" height="46.3519" filterUnits="userSpaceOnUse" color-interpolation-filters="sRGB">
<feFlood flood-opacity="0" result="BackgroundImageFix"/>
<feColorMatrix in="SourceAlpha" type="matrix" values="0 0 0 0 0 0 0 0 0 0 0 0 0 0 0 0 0 0 127 0" result="hardAlpha"/>
<feOffset dy="1.70292"/>
<feGaussianBlur stdDeviation="5.14832"/>
<feComposite in2="hardAlpha" operator="out"/>
<feColorMatrix type="matrix" values="0 0 0 0 0.823529 0 0 0 0 0.721569 0 0 0 0 1 0 0 0 0.4 0"/>
<feBlend mode="normal" in2="BackgroundImageFix" result="effect1_dropShadow_11297_2164"/>
<feBlend mode="normal" in="SourceGraphic" in2="effect1_dropShadow_11297_2164" result="shape"/>
</filter>
</defs>
</svg>
