<svg width="101" height="100" viewBox="0 0 101 100" fill="none" xmlns="http://www.w3.org/2000/svg">
<g clip-path="url(#clip0_1273_16924)">
<path d="M51.067 77.3353C64.088 77.3353 74.6437 66.7743 74.6437 53.7467C74.6437 40.7191 64.088 30.1582 51.067 30.1582C38.0459 30.1582 27.4902 40.7191 27.4902 53.7467C27.4902 66.7743 38.0459 77.3353 51.067 77.3353Z" fill="#FBF9FF"/>
<path opacity="0.49" d="M12.6387 56.1591C12.6387 53.9074 14.4631 52.082 16.7136 52.082H84.2865C86.5372 52.082 88.3619 53.9074 88.3619 56.1591V67.4309C88.3619 69.6825 86.5372 71.5079 84.2865 71.5079H16.7136C14.4631 71.5079 12.6387 69.6825 12.6387 67.4309V56.1591Z" fill="#ECE2FF"/>
<path opacity="0.49" d="M18.1855 71.5068H83.0912V74.9227C83.0912 77.1744 81.2666 78.9997 79.0158 78.9997H22.2605C20.01 78.9997 18.1855 77.1744 18.1855 74.9227V71.5068Z" fill="#F6F2FF"/>
<g filter="url(#filter0_d_1273_16924)">
<path d="M8.20117 46.7823C8.20117 44.0381 10.4247 41.8135 13.1675 41.8135H87.8338C90.5765 41.8135 92.7997 44.0381 92.7997 46.7823V58.4906C92.7997 61.2348 90.5765 63.4594 87.8338 63.4594H13.1675C10.4247 63.4594 8.20117 61.2348 8.20117 58.4906V46.7823Z" fill="white"/>
</g>
<mask id="mask0_1273_16924" style="mask-type:luminance" maskUnits="userSpaceOnUse" x="12" y="44" width="17" height="17">
<path d="M24.5453 44.8662H15.6746C13.6915 44.8662 12.084 46.4502 12.084 48.4041V57.1448C12.084 59.0988 13.6915 60.6827 15.6746 60.6827H24.5453C26.5283 60.6827 28.1358 59.0988 28.1358 57.1448V48.4041C28.1358 46.4502 26.5283 44.8662 24.5453 44.8662Z" fill="white"/>
</mask>
<g mask="url(#mask0_1273_16924)">
<path d="M24.5453 44.8662H15.6746C13.6915 44.8662 12.084 46.4502 12.084 48.4041V57.1448C12.084 59.0988 13.6915 60.6827 15.6746 60.6827H24.5453C26.5283 60.6827 28.1358 59.0988 28.1358 57.1448V48.4041C28.1358 46.4502 26.5283 44.8662 24.5453 44.8662Z" fill="#E2D2FF"/>
<path d="M28.1358 44.8662H12.084V60.6827H28.1358V44.8662Z" fill="#E2D2FF"/>
</g>
<mask id="mask1_1273_16924" style="mask-type:luminance" maskUnits="userSpaceOnUse" x="15" y="47" width="10" height="11">
<path d="M24.8428 47.918H15.4121V57.6309H24.8428V47.918Z" fill="white"/>
</mask>
<g mask="url(#mask1_1273_16924)">
<path fill-rule="evenodd" clip-rule="evenodd" d="M18.0549 52.7745C17.6598 52.4837 17.1837 52.3242 16.6925 52.3242C16.4501 52.3242 16.2553 52.5248 16.2553 52.7745C16.2553 53.0241 16.4501 53.2247 16.6925 53.2247C17.1837 53.2247 17.6598 53.0652 18.0549 52.7745ZM20.1275 54.9091C19.8452 55.3159 19.6903 55.8063 19.6903 56.3122C19.6903 56.5619 19.8851 56.7625 20.1275 56.7625C20.3699 56.7625 20.5646 56.5619 20.5646 56.3122C20.5646 55.8063 20.4097 55.3159 20.1275 54.9091ZM22.2002 52.7745C22.5952 53.0652 23.0712 53.2247 23.5625 53.2247C23.8049 53.2247 23.9996 53.0241 23.9996 52.7745C23.9996 52.5248 23.8049 52.3242 23.5625 52.3242C23.0712 52.3242 22.5952 52.4837 22.2002 52.7745ZM20.1275 51.9145L19.2925 52.7745L20.1275 53.6344L20.9624 52.7745L20.1275 51.9145ZM20.7099 51.2859C21.159 50.7073 21.4078 49.9847 21.4078 49.2366C21.4078 48.4885 20.8354 47.918 20.1275 47.918C19.4195 47.918 18.8471 48.5075 18.8471 49.2366C18.8471 49.9658 19.0959 50.7073 19.545 51.2859L18.6826 52.1741C18.1208 51.7116 17.4192 51.4553 16.6929 51.4553C15.9666 51.4553 15.4121 52.0452 15.4121 52.7745C15.4121 53.5036 15.9845 54.0931 16.6925 54.0931C17.4004 54.0931 18.1204 53.8368 18.6822 53.3743L19.5446 54.2625C19.0955 54.8411 18.8467 55.5637 18.8467 56.3118C18.8467 57.0599 19.419 57.6304 20.127 57.6304C20.835 57.6304 21.4073 57.0409 21.4073 56.3118C21.4073 55.5826 21.1586 54.8411 20.7094 54.2625L21.5719 53.3743C22.1337 53.8368 22.8352 54.0931 23.5615 54.0931C24.2879 54.0931 24.8419 53.5036 24.8419 52.7745C24.8419 52.0452 24.2696 51.4558 23.5615 51.4558C22.8536 51.4558 22.1337 51.712 21.5719 52.1746L20.7099 51.2859ZM20.1275 48.7864C19.8851 48.7864 19.6903 48.987 19.6903 49.2366C19.6903 49.7426 19.8452 50.233 20.1275 50.6398C20.4097 50.233 20.5646 49.7426 20.5646 49.2366C20.5646 48.987 20.3699 48.7864 20.1275 48.7864Z" fill="#F0E7FF"/>
</g>
<path opacity="0.49" d="M47.0328 47.6406H33.4415C32.8288 47.6406 32.332 48.1376 32.332 48.7507V50.9708C32.332 51.5838 32.8288 52.0808 33.4415 52.0808H47.0328C47.6456 52.0808 48.1423 51.5838 48.1423 50.9708V48.7507C48.1423 48.1376 47.6456 47.6406 47.0328 47.6406Z" fill="#E2D2FF"/>
<path opacity="0.49" d="M73.3833 53.7461H33.4415C32.8288 53.7461 32.332 54.2431 32.332 54.8561V57.0762C32.332 57.6893 32.8288 58.1863 33.4415 58.1863H73.3833C73.996 58.1863 74.4928 57.6893 74.4928 57.0762V54.8561C74.4928 54.2431 73.996 53.7461 73.3833 53.7461Z" fill="#E2D2FF"/>
</g>
<defs>
<filter id="filter0_d_1273_16924" x="-2.09547" y="33.2198" width="105.191" height="42.2388" filterUnits="userSpaceOnUse" color-interpolation-filters="sRGB">
<feFlood flood-opacity="0" result="BackgroundImageFix"/>
<feColorMatrix in="SourceAlpha" type="matrix" values="0 0 0 0 0 0 0 0 0 0 0 0 0 0 0 0 0 0 127 0" result="hardAlpha"/>
<feOffset dy="1.70292"/>
<feGaussianBlur stdDeviation="5.14832"/>
<feComposite in2="hardAlpha" operator="out"/>
<feColorMatrix type="matrix" values="0 0 0 0 0.823529 0 0 0 0 0.721569 0 0 0 0 1 0 0 0 0.4 0"/>
<feBlend mode="normal" in2="BackgroundImageFix" result="effect1_dropShadow_1273_16924"/>
<feBlend mode="normal" in="SourceGraphic" in2="effect1_dropShadow_1273_16924" result="shape"/>
</filter>
<clipPath id="clip0_1273_16924">
<rect width="100" height="58" fill="white" transform="translate(0.5 21)"/>
</clipPath>
</defs>
</svg>
