<svg width="100" height="100" viewBox="0 0 100 100" fill="none" xmlns="http://www.w3.org/2000/svg">
<g clip-path="url(#clip0_1904_11088)">
<path d="M51.606 81.4999C68.4267 81.4999 82.0626 67.8777 82.0626 51.0738C82.0626 34.2699 68.4267 20.6477 51.606 20.6477C34.7853 20.6477 21.1494 34.2699 21.1494 51.0738C21.1494 67.8777 34.7853 81.4999 51.606 81.4999Z" fill="#FBF9FF"/>
<path d="M39.9283 38.8203C47.2237 34.4347 64.2389 25.7511 72.7835 27.5053C76.1791 28.2022 76.5283 30.5469 78.1322 33.2223C79.3586 35.2671 81.2192 37.8212 82.1529 39.9558C84.0728 44.3415 77.1285 51.0532 74.1489 53.6252C67.0691 59.7346 57.9298 64.8313 49.2378 68.2457C43.9886 70.3082 36.4802 72.6469 30.8322 72.3019C29.9233 72.2465 27.6139 72.0214 27.0493 71.3081C25.2692 67.5858 22.5736 63.9086 20.9046 60.1802C19.1474 56.2555 23.889 51.3582 26.512 48.8453C30.4058 45.1173 35.302 41.6017 39.9283 38.8203ZM40.1997 39.8445C34.8839 43.0513 28.5984 47.6238 24.5865 52.3563C22.9438 54.2944 19.4646 58.8669 23.0584 60.5824C27.2504 62.5839 37.9997 58.7594 42.1688 57.0345C51.412 53.2104 61.988 47.0696 69.2778 40.2079C71.6542 37.9707 79.575 29.8303 72.5044 28.4719C69.6156 27.9171 65.2216 28.9071 62.3952 29.7057C54.7575 31.8639 46.9943 35.7454 40.1997 39.8445ZM75.0738 35.1216L72.285 38.8065L77.7392 48.468C78.0603 48.5591 80.5606 45.1353 80.4605 44.6682L75.0738 35.1216ZM30.6533 61.6482L26.136 62.2122L30.5883 71.2102C30.7974 71.3669 33.2604 71.2651 33.7004 71.2274C34.0619 71.1965 34.9038 71.1597 35.181 71.0246C35.4248 70.9051 35.3254 70.9396 35.2591 70.7608C35.0874 70.2982 34.6807 69.7711 34.451 69.296C34.3553 69.0983 34.3481 68.8654 34.25 68.6705C33.07 66.3216 31.7996 64.0117 30.6533 61.6482ZM71.3087 54.6479L75.3147 51.0304C74.2318 49.336 73.3283 47.5348 72.3098 45.8034C71.5985 44.5948 70.6616 42.7649 69.9013 41.7017C69.7973 41.5571 69.7237 41.3823 69.5021 41.4276C69.0024 41.5277 66.4846 44.241 65.7007 44.5637L65.6145 44.8224L71.3113 54.6478L71.3087 54.6479ZM44.475 68.8359L39.6264 59.2782L39.3593 59.2141L34.5004 60.8463L39.0176 70.3575L44.4756 68.8369L44.475 68.8359ZM58.6704 49.5786L64.1948 59.5918L68.5155 56.7741C66.6119 53.4629 64.6537 50.1993 62.7087 46.9082L58.6711 49.5796L58.6704 49.5786ZM47.6325 55.6561L42.9399 57.7997L48.0561 67.5908L52.808 65.5693L47.6325 55.6561ZM55.5788 51.4275L50.8483 54.0321L55.972 64.1179C57.6456 63.3418 59.2734 62.4805 60.879 61.5642L55.5788 51.4275Z" fill="#E2D2FF"/>
<path d="M40.2004 39.8443C46.9949 35.7452 54.7571 31.8642 62.3958 29.7054C65.2213 28.9075 69.6163 27.9168 72.505 28.4717C79.5756 29.8301 71.6559 37.97 69.2785 40.2076C61.9887 47.0693 51.4126 53.2102 42.1695 57.0344C38.0003 58.7592 27.251 62.5837 23.059 60.5822C19.4662 58.866 22.9444 54.2942 24.5871 52.3561C28.5991 47.6236 34.8852 43.0521 40.2004 39.8443ZM69.9389 33.0703C69.9896 32.8863 69.91 32.603 69.7375 32.488C69.5384 32.3836 69.3588 32.3829 69.1652 32.5057C68.938 32.6482 67.7712 34.3499 67.4166 34.7524C61.6194 41.3575 51.874 47.2725 43.9323 50.9454C40.0319 52.7497 34.2815 54.9415 30.0078 55.2193C29.2119 55.2713 26.9528 54.8126 27.4273 55.9779C27.759 56.4669 30.2536 56.2266 30.8728 56.1549C41.7807 54.889 59.0387 44.7919 66.7156 37.0078C67.4204 36.2927 68.1879 35.4691 68.8047 34.6799C68.9855 34.4485 69.8961 33.2176 69.9372 33.0698L69.9389 33.0703Z" fill="white"/>
<path d="M55.5792 51.4271L60.8793 61.5638C59.2748 62.4796 57.6469 63.3409 55.9724 64.1176L50.8486 54.0318L55.5792 51.4271Z" fill="white"/>
<path d="M71.3092 54.6472L65.6123 44.8219L65.6985 44.5631C66.4825 44.2405 69.0012 41.5266 69.5 41.427C69.7221 41.3827 69.7961 41.5559 69.8992 41.7011C70.6594 42.7643 71.5969 44.5953 72.3076 45.8029C73.3271 47.5336 74.2306 49.3348 75.3126 51.0298L71.3065 54.6473L71.3092 54.6472Z" fill="white"/>
<path d="M44.4751 68.8357L39.0172 70.3563L34.5 60.8451L39.3594 59.2139L39.6266 59.2781L44.4751 68.8357Z" fill="white"/>
<path d="M47.632 55.6558L52.8075 65.569L48.0557 67.5906L42.9395 57.7994L47.632 55.6558Z" fill="white"/>
<path d="M58.6706 49.578L62.7082 46.9067C64.6533 50.1978 66.6109 53.463 68.515 56.7725L64.1943 59.5903L58.6699 49.577L58.6706 49.578Z" fill="white"/>
<path d="M75.0739 35.1217L80.4607 44.6684C80.5614 45.1365 78.0621 48.5596 77.7395 48.4681L72.2852 38.8066L75.0739 35.1217Z" fill="white"/>
<path d="M30.6529 61.6479C31.7993 64.0113 33.0696 66.3213 34.2496 68.6702C34.3478 68.8651 34.3556 69.0991 34.4506 69.2957C34.6804 69.7708 35.0866 70.2995 35.2588 70.7605C35.3251 70.9394 35.4246 70.9048 35.1806 71.0242C34.9035 71.1593 34.0617 71.1962 33.7001 71.2271C33.2602 71.2647 30.7976 71.3676 30.588 71.2098L26.1357 62.212L30.6529 61.6479Z" fill="white"/>
<path d="M69.9391 33.0699C69.898 33.2177 68.9874 34.4485 68.8066 34.68C68.1897 35.4691 67.4223 36.2928 66.7175 37.0078C59.0405 44.7919 41.7826 54.8891 30.8747 56.1549C30.2565 56.2261 27.7609 56.4669 27.4292 55.9779C26.9541 54.8115 29.2148 55.2707 30.0096 55.2193C34.2833 54.9416 40.0338 52.7497 43.9341 50.9454C51.8759 47.2725 61.6213 41.3575 67.4185 34.7524C67.7725 34.349 68.9399 32.6482 69.1671 32.5057C69.3613 32.384 69.5409 32.3847 69.7394 32.488C69.9114 32.602 69.9914 32.8863 69.9407 33.0703L69.9391 33.0699Z" fill="#E2D2FF"/>
<path d="M30.8089 36.0398C35.6573 36.0398 39.5876 32.1134 39.5876 27.2699C39.5876 22.4264 35.6573 18.5 30.8089 18.5C25.9606 18.5 22.0303 22.4264 22.0303 27.2699C22.0303 32.1134 25.9606 36.0398 30.8089 36.0398Z" fill="#FFA97D"/>
<path d="M34.326 27.5619V30.5951C34.326 30.8344 34.1319 31.0283 33.8923 31.0283H27.8198C27.5803 31.0283 27.3861 30.8344 27.3861 30.5951V27.5619H34.326ZM31.9404 22.7954C32.7789 22.7954 33.4586 23.4744 33.4586 24.312C33.4586 24.5448 33.4061 24.7653 33.3123 24.9624L34.7598 24.962C34.9994 24.962 35.1935 25.156 35.1935 25.3953V26.6952C35.1935 26.9345 34.9994 27.1285 34.7598 27.1285H26.9523C26.7128 27.1285 26.5186 26.9345 26.5186 26.6952V25.3953C26.5186 25.156 26.7128 24.962 26.9523 24.962L28.3999 24.9624C28.3061 24.7653 28.2536 24.5448 28.2536 24.312C28.2536 23.4744 28.9332 22.7954 29.7717 22.7954C30.1968 22.7954 30.5811 22.9699 30.8566 23.2512C31.1311 22.9699 31.5154 22.7954 31.9404 22.7954ZM29.7717 23.662C29.4123 23.662 29.1211 23.953 29.1211 24.312C29.1211 24.6499 29.3791 24.9275 29.709 24.959L29.7717 24.962H30.4223V24.312C30.4223 23.9741 30.1643 23.6965 29.8343 23.665L29.7717 23.662ZM31.9404 23.662L31.8777 23.665C31.5685 23.6945 31.3223 23.9404 31.2928 24.2494L31.2898 24.312V24.962H31.9404L32.0031 24.959C32.3331 24.9275 32.5911 24.6499 32.5911 24.312C32.5911 23.9741 32.3331 23.6965 32.0031 23.665L31.9404 23.662Z" fill="#FFEDE6"/>
<path d="M83.7624 66.9968C83.9195 67.1782 84.1526 67.2726 84.3908 67.2512C84.6362 67.2312 84.8471 67.0911 84.9648 66.8884C86.4358 64.4167 88.691 62.4061 91.35 61.3094C94.305 60.0895 96.8807 57.8877 98.5122 55.1418C98.6771 54.8682 98.6455 54.5186 98.4356 54.2754L92.5428 47.5385C92.3852 47.3571 92.1527 47.2627 91.914 47.2841C91.6762 47.3055 91.4626 47.4378 91.3401 47.6468C89.8691 50.1185 87.5971 52.0856 84.935 53.1781C81.9797 54.4015 79.4522 56.5837 77.8191 59.3331C77.6536 59.6102 77.6862 59.9563 77.8965 60.1995L83.7624 66.9968ZM91.0347 53.7637C91.3446 53.4939 91.8158 53.5304 92.0861 53.8404C92.3563 54.1504 92.3194 54.6214 92.0095 54.8912C91.6987 55.161 91.2275 55.1245 90.9572 54.8145C90.6879 54.5045 90.7239 54.0335 91.0347 53.7637ZM86.6804 55.5599C87.6142 54.7547 89.0264 54.8564 89.8325 55.7893C90.6392 56.7185 90.5365 58.1329 89.6028 58.9381C88.6733 59.7405 87.2631 59.6464 86.4507 58.7087C85.6441 57.7795 85.7467 56.365 86.6804 55.5599ZM84.2745 59.6033C84.5849 59.3335 85.0563 59.37 85.3264 59.68C85.5964 59.99 85.5599 60.461 85.2496 60.7308C84.9393 61.0006 84.4679 60.9641 84.1978 60.6541C83.9277 60.3441 83.9643 59.8731 84.2745 59.6033Z" fill="#EEE5FF"/>
<path d="M5.62746 56.2109C5.74536 56.0749 5.92032 56.004 6.09909 56.0201C6.28314 56.0351 6.44149 56.1402 6.52978 56.2923C7.63357 58.1469 9.32578 59.6557 11.3213 60.4787C13.5383 61.394 15.4707 63.0461 16.6956 65.1065C16.8193 65.3118 16.7954 65.5742 16.6375 65.7567L12.2159 70.8118C12.098 70.9479 11.9231 71.0188 11.7443 71.0027C11.5655 70.9867 11.4056 70.8873 11.3136 70.7306C10.2098 68.8758 8.50495 67.3998 6.50738 66.58C4.28979 65.662 2.39327 64.0246 1.16788 61.9615C1.04366 61.7536 1.06805 61.4939 1.22597 61.3114L5.62746 56.2109ZM11.0842 66.1406C11.317 66.3431 11.6707 66.3157 11.8734 66.083C12.0761 65.8505 12.0487 65.4971 11.8158 65.2946C11.5829 65.0921 11.2292 65.1196 11.0265 65.3522C10.8239 65.5848 10.8513 65.9382 11.0842 66.1406ZM7.8171 64.7928C8.51773 65.3971 9.5775 65.3207 10.1823 64.6207C10.7876 63.9234 10.7106 62.8621 10.0099 62.2579C9.31254 61.6559 8.25433 61.7264 7.64479 62.43C7.03946 63.1274 7.11647 64.1886 7.8171 64.7928ZM6.01181 61.7588C6.24465 61.9612 6.59843 61.9339 6.80108 61.7012C7.00373 61.4687 6.97631 61.1152 6.74347 60.9127C6.51062 60.7103 6.15685 60.7377 5.9542 60.9703C5.75154 61.2029 5.77897 61.5563 6.01181 61.7588Z" fill="#EEE5FF"/>
</g>
<defs>
<clipPath id="clip0_1904_11088">
<rect width="100" height="63" fill="white" transform="translate(0 18.5)"/>
</clipPath>
</defs>
</svg>
