<svg width="111" height="70" viewBox="0 0 111 70" fill="none" xmlns="http://www.w3.org/2000/svg">
<circle cx="57.2829" cy="36.1932" r="33.8068" fill="#FBF9FF"/>
<path d="M44.3204 22.5781C52.4182 17.7053 71.3051 8.05681 80.7896 10.0059C84.5587 10.7803 84.9463 13.3855 86.7267 16.3581C88.088 18.6301 90.1532 21.4681 91.1897 23.8398C93.3207 28.7128 85.6126 36.1703 82.3052 39.028C74.4466 45.8163 64.302 51.4793 54.6539 55.273C48.8273 57.5647 40.493 60.1633 34.2237 59.7799C33.2148 59.7184 30.6514 59.4683 30.0247 58.6757C28.0487 54.5398 25.0566 50.454 23.204 46.3114C21.2536 41.9506 26.5167 36.5091 29.4282 33.717C33.7504 29.5748 39.1852 25.6686 44.3204 22.5781ZM44.6216 23.7161C38.7211 27.2793 31.7442 32.3598 27.291 37.6181C25.4676 39.7716 21.6056 44.8521 25.5948 46.7583C30.2479 48.9821 42.1796 44.7327 46.8073 42.8162C57.0672 38.5671 68.8066 31.744 76.8983 24.1199C79.5361 21.6342 88.3282 12.5893 80.4798 11.0799C77.2733 10.4635 72.3959 11.5635 69.2586 12.4508C60.7808 14.8488 52.1636 19.1616 44.6216 23.7161ZM83.3318 18.4685L80.2363 22.5628L86.2905 33.2978C86.6469 33.399 89.4222 29.5948 89.3111 29.0758L83.3318 18.4685ZM34.0251 47.9425L29.0109 48.5692L33.9529 58.5669C34.185 58.741 36.919 58.6279 37.4074 58.586C37.8087 58.5517 38.7432 58.5108 39.0508 58.3607C39.3215 58.2279 39.2111 58.2663 39.1375 58.0676C38.9469 57.5536 38.4955 56.9679 38.2405 56.44C38.1343 56.2204 38.1263 55.9616 38.0174 55.745C36.7076 53.1351 35.2975 50.5686 34.0251 47.9425ZM79.1526 40.1644L83.5993 36.1449C82.3972 34.2623 81.3943 32.2609 80.2638 30.3372C79.4743 28.9943 78.4343 26.961 77.5904 25.7797C77.4749 25.619 77.3932 25.4248 77.1473 25.4751C76.5926 25.5864 73.7979 28.6012 72.9277 28.9597L72.832 29.2472L79.1555 40.1643L79.1526 40.1644ZM49.3672 55.9288L43.9852 45.3092L43.6887 45.2379L38.2954 47.0515L43.3095 57.6195L49.3678 55.9299L49.3672 55.9288ZM65.1241 34.5318L71.2562 45.6576L76.0521 42.5268C73.9391 38.8477 71.7655 35.2215 69.6066 31.5647L65.1248 34.5329L65.1241 34.5318ZM52.872 41.2846L47.6632 43.6664L53.3422 54.5454L58.6168 52.2993L52.872 41.2846ZM61.6924 36.5862L56.4415 39.4802L62.1289 50.6866C63.9865 49.8243 65.7934 48.8673 67.5756 47.8491L61.6924 36.5862Z" fill="#E2D2FF"/>
<path d="M44.6226 23.7159C52.1645 19.1614 60.7806 14.8492 69.2595 12.4505C72.3958 11.5639 77.2743 10.4632 80.4807 11.0797C88.3291 12.5891 79.5382 21.6334 76.8993 24.1196C68.8076 31.7437 57.0682 38.5669 46.8083 42.816C42.1805 44.7325 30.2488 48.9819 25.5957 46.7581C21.6077 44.8512 25.4685 39.7714 27.2919 37.6179C31.7452 32.3596 38.7227 27.2802 44.6226 23.7159ZM77.6323 16.1893C77.6886 15.9848 77.6003 15.67 77.4088 15.5423C77.1878 15.4263 76.9885 15.4255 76.7736 15.5619C76.5214 15.7203 75.2262 17.6111 74.8326 18.0583C68.3977 25.3973 57.5803 31.9695 48.765 36.0505C44.4356 38.0553 38.0526 40.4906 33.3088 40.7993C32.4254 40.857 29.9178 40.3474 30.4445 41.6422C30.8127 42.1855 33.5817 41.9185 34.269 41.8388C46.3768 40.4323 65.5331 29.2133 74.0545 20.5643C74.8368 19.7697 75.6887 18.8546 76.3734 17.9777C76.5741 17.7206 77.5849 16.3529 77.6305 16.1887L77.6323 16.1893Z" fill="white"/>
<path d="M61.6924 36.5857L67.5755 47.8487C65.7945 48.8662 63.9876 49.8232 62.1289 50.6862L56.4415 39.4798L61.6924 36.5857Z" fill="white"/>
<path d="M79.1536 40.1636L72.8301 29.2465L72.9258 28.959C73.796 28.6005 76.5918 25.5851 77.1454 25.4744C77.392 25.4252 77.4741 25.6177 77.5885 25.779C78.4324 26.9603 79.473 28.9948 80.2619 30.3365C81.3935 32.2595 82.3964 34.2609 83.5974 36.1442L79.1507 40.1637L79.1536 40.1636Z" fill="white"/>
<path d="M49.3679 55.9285L43.3096 57.6181L38.2955 47.0501L43.6894 45.2376L43.986 45.309L49.3679 55.9285Z" fill="white"/>
<path d="M52.8718 41.2842L58.6166 52.2989L53.3421 54.5451L47.6631 43.666L52.8718 41.2842Z" fill="white"/>
<path d="M65.1246 34.5311L69.6064 31.563C71.7654 35.2197 73.9384 38.8477 76.0519 42.525L71.256 45.6558L65.1239 34.53L65.1246 34.5311Z" fill="white"/>
<path d="M83.3321 18.4685L89.3115 29.0759C89.4232 29.596 86.649 33.3995 86.2909 33.2978L80.2366 22.5628L83.3321 18.4685Z" fill="white"/>
<path d="M34.0257 47.9422C35.2981 50.5682 36.7082 53.1348 38.018 55.7447C38.1269 55.9613 38.1356 56.2212 38.2411 56.4397C38.4961 56.9676 38.947 57.555 39.1381 58.0673C39.2118 58.266 39.3222 58.2276 39.0514 58.3603C38.7438 58.5104 37.8094 58.5514 37.408 58.5857C36.9197 58.6275 34.1863 58.7418 33.9535 58.5665L29.0115 48.5689L34.0257 47.9422Z" fill="white"/>
<path d="M77.6325 16.1888C77.5869 16.353 76.5761 17.7206 76.3754 17.9778C75.6907 18.8546 74.8388 19.7698 74.0565 20.5643C65.5351 29.2133 46.3788 40.4324 34.2709 41.8388C33.5848 41.9179 30.8147 42.1855 30.4465 41.6422C29.9191 40.3462 32.4285 40.8564 33.3107 40.7993C38.0545 40.4907 44.4376 38.0553 48.767 36.0505C57.5823 31.9695 68.3997 25.3973 74.8346 18.0583C75.2275 17.61 76.5234 15.7203 76.7756 15.5619C76.9911 15.4267 77.1905 15.4275 77.4108 15.5423C77.6017 15.6689 77.6905 15.9848 77.6343 16.1893L77.6325 16.1888Z" fill="#E2D2FF"/>
<circle cx="34.1974" cy="9.74432" r="9.74432" fill="#FFA97D"/>
<path d="M38.1018 10.0688V13.439C38.1018 13.7049 37.8863 13.9204 37.6204 13.9204H30.8799C30.614 13.9204 30.3985 13.7049 30.3985 13.439V10.0688H38.1018ZM35.4538 4.77271C36.3845 4.77271 37.1389 5.52715 37.1389 6.45781C37.1389 6.71645 37.0807 6.96149 36.9765 7.1805L38.5833 7.18C38.8492 7.18 39.0647 7.39556 39.0647 7.66146V9.10584C39.0647 9.37175 38.8492 9.5873 38.5833 9.5873H29.917C29.6511 9.5873 29.4355 9.37175 29.4355 9.10584V7.66146C29.4355 7.39556 29.6511 7.18 29.917 7.18L31.5238 7.1805C31.4197 6.96149 31.3614 6.71645 31.3614 6.45781C31.3614 5.52715 32.1158 4.77271 33.0465 4.77271C33.5183 4.77271 33.9449 4.96662 34.2507 5.27909C34.5554 4.96662 34.982 4.77271 35.4538 4.77271ZM33.0465 5.73562C32.6476 5.73562 32.3243 6.05896 32.3243 6.45781C32.3243 6.8332 32.6107 7.1417 32.9769 7.1767L33.0465 7.18H33.7687V6.45781C33.7687 6.08242 33.4823 5.77392 33.116 5.73893L33.0465 5.73562ZM35.4538 5.73562L35.3842 5.73893C35.0409 5.77174 34.7677 6.04493 34.7349 6.38826L34.7316 6.45781V7.18H35.4538L35.5233 7.1767C35.8896 7.1417 36.176 6.8332 36.176 6.45781C36.176 6.08242 35.8896 5.77392 35.5233 5.73893L35.4538 5.73562Z" fill="#FFEDE6"/>
<path d="M92.9771 53.8854C93.1516 54.0869 93.4104 54.1918 93.6748 54.168C93.9471 54.1458 94.1813 53.9901 94.3119 53.7649C95.9447 51.0186 98.448 48.7846 101.4 47.566C104.68 46.2106 107.538 43.7641 109.35 40.7131C109.533 40.4092 109.498 40.0207 109.264 39.7505L102.723 32.265C102.549 32.0635 102.29 31.9586 102.026 31.9824C101.761 32.0061 101.525 32.1532 101.388 32.3854C99.7557 35.1317 97.2337 37.3174 94.2788 38.5313C90.9984 39.8906 88.1929 42.3153 86.3802 45.3702C86.1965 45.678 86.2325 46.0626 86.4661 46.3328L92.9771 53.8854ZM101.049 39.1819C101.393 38.8821 101.917 38.9227 102.217 39.2671C102.516 39.6116 102.476 40.1349 102.131 40.4347C101.787 40.7345 101.264 40.6939 100.964 40.3495C100.664 40.005 100.705 39.4817 101.049 39.1819ZM96.2162 41.1777C97.2527 40.283 98.8203 40.3961 99.715 41.4326C100.61 42.4651 100.496 44.0366 99.4601 44.9313C98.4283 45.8228 96.863 45.7183 95.9613 44.6764C95.0659 43.6439 95.1798 42.0723 96.2162 41.1777ZM93.5457 45.6704C93.8901 45.3706 94.4135 45.4112 94.7133 45.7556C95.013 46.1 94.9725 46.6234 94.628 46.9232C94.2836 47.2229 93.7603 47.1824 93.4605 46.8379C93.1607 46.4935 93.2013 45.9702 93.5457 45.6704Z" fill="#EEE5FF"/>
<path d="M6.24694 41.901C6.37782 41.7498 6.57202 41.6711 6.77046 41.6889C6.97475 41.7056 7.15052 41.8224 7.24852 41.9914C8.47373 44.0521 10.3521 45.7285 12.5671 46.6429C15.028 47.6599 17.173 49.4956 18.5326 51.785C18.6699 52.0131 18.6434 52.3046 18.4681 52.5074L13.5601 58.1242C13.4293 58.2754 13.2351 58.3542 13.0366 58.3363C12.8382 58.3185 12.6607 58.2081 12.5586 58.0339C11.3333 55.9731 9.44096 54.3331 7.22366 53.4222C4.76212 52.4022 2.657 50.5828 1.29682 48.2905C1.15893 48.0595 1.186 47.771 1.36128 47.5682L6.24694 41.901ZM12.3039 52.934C12.5623 53.1589 12.955 53.1285 13.1799 52.87C13.4049 52.6116 13.3744 52.2189 13.116 51.994C12.8575 51.769 12.4649 51.7995 12.2399 52.0579C12.015 52.3164 12.0454 52.7091 12.3039 52.934ZM8.67745 51.4364C9.45515 52.1078 10.6315 52.0229 11.3028 51.2452C11.9747 50.4704 11.8892 49.2912 11.1115 48.6198C10.3373 47.9509 9.16278 48.0293 8.48619 48.8111C7.81427 49.5859 7.89975 50.7651 8.67745 51.4364ZM6.67358 48.0653C6.93203 48.2902 7.32472 48.2598 7.54966 48.0013C7.77461 47.7429 7.74417 47.3502 7.48571 47.1252C7.22726 46.9003 6.83457 46.9307 6.60963 47.1892C6.38468 47.4476 6.41512 47.8403 6.67358 48.0653Z" fill="#EEE5FF"/>
</svg>
