<svg width="80" height="81" viewBox="0 0 80 81" fill="none" xmlns="http://www.w3.org/2000/svg">
<circle cx="40" cy="40.4999" r="40" fill="#FBF9FF"/>
<circle cx="67.5099" cy="67.7942" r="7.05882" fill="#D2B8FF"/>
<path d="M65.7799 67.8217C64.9033 67.8217 64.2157 67.1984 64.2157 66.4022C64.2157 65.598 64.8993 64.9707 65.7839 64.9707C66.6726 64.9707 67.3522 65.5819 67.3522 66.3942C67.3522 67.1984 66.6606 67.8217 65.7799 67.8217ZM66.6766 70.5722H65.3497L68.7033 65.1034H70.0504L66.6766 70.5722ZM65.788 66.8244C66.0051 66.8244 66.1338 66.6435 66.1338 66.4062C66.1338 66.1489 66.0051 65.9559 65.7839 65.9559C65.5668 65.9559 65.4381 66.1409 65.4381 66.3982C65.4381 66.6395 65.5668 66.8244 65.788 66.8244ZM69.5236 70.6847C68.651 70.6847 67.9634 70.0655 67.9634 69.2733C67.9634 68.4651 68.651 67.8378 69.5357 67.8378C70.4163 67.8378 71.0959 68.449 71.0959 69.2613C71.0959 70.0655 70.4083 70.6847 69.5236 70.6847ZM69.5357 69.6955C69.7528 69.6955 69.8815 69.5106 69.8815 69.2733C69.8815 69.016 69.7488 68.823 69.5316 68.823C69.3145 68.823 69.1858 69.0079 69.1858 69.2653C69.1858 69.5025 69.3145 69.6955 69.5357 69.6955Z" fill="white"/>
<circle cx="13.1568" cy="12.9707" r="9.64706" fill="#FFC2A7"/>
<path d="M13.3729 17.3634C13.2862 17.4173 13.1766 17.42 13.0873 17.3696C12.3126 16.9363 8.71974 14.7715 8.86034 11.94C9.0089 8.94667 12.2569 9.46575 13.059 10.939C13.089 10.9947 13.1492 11.0283 13.2128 11.0248C13.2765 11.0212 13.3322 10.9823 13.357 10.9231C13.7505 9.97688 15.0212 9.29155 16.2177 9.74077C17.6449 10.2767 19.0952 13.8165 13.3738 17.3625L13.3729 17.3634Z" fill="#FFEDE6"/>
<mask id="mask0_642_2420" style="mask-type:alpha" maskUnits="userSpaceOnUse" x="0" y="0" width="80" height="81">
<circle cx="40" cy="40.5001" r="40" fill="#FBF9FF"/>
</mask>
<g mask="url(#mask0_642_2420)">
<path d="M31.6809 50.2838V47.8705H32.0921C34.5835 47.8705 36.603 45.851 36.603 43.3599H28.0464H28.0462H28.046C27.6207 43.3599 27.276 43.705 27.276 44.1302V52.5092L35.9225 52.5144C35.9225 50.1715 34.0235 50.2838 31.6809 50.2838Z" fill="#FFE4CA"/>
<path d="M29.0751 46.7128L29.3303 46.7191L29.3336 50.6203L29.0751 46.7128Z" fill="#EBC49A"/>
<path d="M67.0048 3.79419L20.2162 32.2034L22.0205 38.6887L23.9554 38.6946V41.3445C23.9554 44.3082 26.3666 46.7195 29.3303 46.7195H46.4819C49.4457 46.7195 51.8569 44.3081 51.8569 41.3445V38.7793L76.7581 38.8549L67.0048 3.79419ZM47.9725 41.3445C47.9725 42.1665 47.3038 42.835 46.4819 42.835H29.3303C28.5085 42.835 27.8399 42.1665 27.8399 41.3445V38.7064L47.9725 38.7673V41.3445Z" fill="#E2D2FF"/>
<path d="M13.3922 28.8589L17.9037 45.0765L22.0205 38.6886L20.2162 32.2033L13.3922 28.8589Z" fill="#D2B8FF"/>
<path d="M23.9553 38.6945L27.8399 38.7062V40.4415L23.9553 38.6945Z" fill="#D2B8FF"/>
<path d="M47.9724 38.7675L51.8568 38.7795V40.5148L47.9724 38.7675Z" fill="#D2B8FF"/>
<path d="M44.4966 39.3948H31.2849C30.2117 39.3948 29.3335 40.2729 29.3335 41.3459V50.6206H27.276V52.5091L31.305 55.1438V62.2986L46.4318 62.2893C46.4318 62.2893 46.4476 48.07 46.4478 47.4486V41.3459C46.4479 40.2729 45.5698 39.3948 44.4966 39.3948Z" fill="#FFE4CA"/>
<path d="M30.0393 60.4678L47.3904 60.4258L47.3271 65.1654L30.0303 65.0996L30.0393 60.4678Z" fill="#F7F7F7"/>
<path d="M47.9667 57.6249L48.1255 91.7943H28.4589L29.4816 57.6605L47.9667 57.6249Z" fill="white"/>
<path d="M46.7063 46.7139V42.8162C46.6328 42.8274 46.5583 42.835 46.4818 42.835H46.4478V46.7196H46.4818C46.5571 46.7196 46.6317 46.7171 46.7063 46.7139Z" fill="#D2B8FF"/>
<path d="M29.3336 46.7195V42.8349H29.3303C29.2432 42.8349 29.1582 42.8259 29.0751 42.8116V46.7132C29.1597 46.7173 29.2447 46.7195 29.3303 46.7195H29.3336Z" fill="#D2B8FF"/>
</g>
<path d="M67.0048 3.79419L20.2162 32.2034L22.0205 38.6887L23.9554 38.6946V41.3446C23.9554 33.4412 28.0755 34.1471 31.0393 34.1471L49.1569 29.4412C52.1207 29.4412 51.8569 44.3081 51.8569 41.3446V38.7793L76.7581 38.8549L67.0048 3.79419Z" fill="#E2D2FF"/>
</svg>
