<svg width="96" height="80" viewBox="0 0 96 80" fill="none" xmlns="http://www.w3.org/2000/svg">
<circle cx="40.1868" cy="39.9963" r="39.9963" fill="#FBF9FF"/>
<circle cx="72.8698" cy="67.2953" r="7.52872" fill="white"/>
<path fill-rule="evenodd" clip-rule="evenodd" d="M73.34 77.7257C79.6203 77.7257 84.7115 72.6345 84.7115 66.3542C84.7115 60.0739 79.6203 54.9827 73.34 54.9827C67.0597 54.9827 61.9685 60.0739 61.9685 66.3542C61.9685 72.6345 67.0597 77.7257 73.34 77.7257ZM74.1929 62.9428C74.1929 62.4718 73.811 62.0899 73.34 62.0899C72.869 62.0899 72.4871 62.4718 72.4871 62.9428V65.5014H69.9286C69.4575 65.5014 69.0757 65.8832 69.0757 66.3542C69.0757 66.8252 69.4575 67.2071 69.9286 67.2071H72.4871V69.7657C72.4871 70.2367 72.869 70.6185 73.34 70.6185C73.811 70.6185 74.1929 70.2367 74.1929 69.7657V67.2071H76.7515C77.2225 67.2071 77.6043 66.8252 77.6043 66.3542C77.6043 65.8832 77.2225 65.5014 76.7515 65.5014H74.1929V62.9428Z" fill="#AE72FF"/>
<g filter="url(#filter0_d_642_2515)">
<path d="M18.3723 48.9369H82.6657C86.6113 48.9369 89.8095 45.9455 89.8095 42.2552V22.2099C89.8095 18.5196 86.6113 15.5282 82.6657 15.5282H18.3723C14.4268 15.5282 11.2285 18.5196 11.2285 22.2099V42.2552C11.2285 45.9455 14.4268 48.9369 18.3723 48.9369Z" fill="white"/>
<path d="M17.9016 48.8947V59.7828L28.789 48.8947H17.9016Z" fill="white"/>
</g>
<path d="M79.2308 31.0438H22.4057C21.7607 31.0438 21.2378 31.5666 21.2378 32.2116C21.2378 32.8566 21.7607 33.3795 22.4057 33.3795H79.2308C79.8758 33.3795 80.3987 32.8566 80.3987 32.2116C80.3987 31.5666 79.8758 31.0438 79.2308 31.0438Z" fill="#F1EAFF"/>
<path d="M79.2308 23.703H22.4057C21.7607 23.703 21.2378 24.2259 21.2378 24.8709C21.2378 25.5159 21.7607 26.0387 22.4057 26.0387H79.2308C79.8758 26.0387 80.3987 25.5159 80.3987 24.8709C80.3987 24.2259 79.8758 23.703 79.2308 23.703Z" fill="#F1EAFF"/>
<path d="M48.0832 38.3841H22.4057C21.7607 38.3841 21.2378 38.907 21.2378 39.552C21.2378 40.197 21.7607 40.7198 22.4057 40.7198H48.0832C48.7282 40.7198 49.2511 40.197 49.2511 39.552C49.2511 38.907 48.7282 38.3841 48.0832 38.3841Z" fill="#F1EAFF"/>
<path d="M70.2089 38.3841H57.8144C57.1694 38.3841 56.6465 38.907 56.6465 39.552C56.6465 40.197 57.1694 40.7198 57.8144 40.7198H70.2089C70.8538 40.7198 71.3767 40.197 71.3767 39.552C71.3767 38.907 70.8538 38.3841 70.2089 38.3841Z" fill="#F1EAFF"/>
<defs>
<filter id="filter0_d_642_2515" x="5.67608" y="10.9169" width="89.6859" height="55.3595" filterUnits="userSpaceOnUse" color-interpolation-filters="sRGB">
<feFlood flood-opacity="0" result="BackgroundImageFix"/>
<feColorMatrix in="SourceAlpha" type="matrix" values="0 0 0 0 0 0 0 0 0 0 0 0 0 0 0 0 0 0 127 0" result="hardAlpha"/>
<feOffset dy="0.94109"/>
<feGaussianBlur stdDeviation="2.77622"/>
<feComposite in2="hardAlpha" operator="out"/>
<feColorMatrix type="matrix" values="0 0 0 0 0.823529 0 0 0 0 0.721569 0 0 0 0 1 0 0 0 0.3 0"/>
<feBlend mode="normal" in2="BackgroundImageFix" result="effect1_dropShadow_642_2515"/>
<feBlend mode="normal" in="SourceGraphic" in2="effect1_dropShadow_642_2515" result="shape"/>
</filter>
</defs>
</svg>
