<svg width="100" height="100" viewBox="0 0 100 100" fill="none" xmlns="http://www.w3.org/2000/svg">
<path d="M2.66731 71.1118L66.2056 83.5869C66.4767 82.2026 67.819 81.2995 69.2016 81.571C70.5843 81.8424 71.4864 83.1863 71.2153 84.5705L70.7586 73.6228C72.2254 73.9108 67.4931 73.9785 67.7808 72.51L68.9353 62.151C69.223 60.6827 73.4147 56.3493 71.9479 56.0613L80.4687 37.3327C80.1975 38.7169 78.8553 39.6201 77.4727 39.3486C76.09 39.0772 75.1879 37.7333 75.459 36.3491L11.9208 23.8741C10.454 23.5861 9.0185 24.552 8.73083 26.0203L0.52341 67.9183C0.235747 69.3867 1.2005 70.8238 2.66731 71.1118ZM77.0064 41.729C77.5643 41.8385 77.9289 42.3815 77.8194 42.9401C77.71 43.4986 77.1676 43.8636 76.6097 43.754C76.0516 43.6444 75.6872 43.1016 75.7967 42.5429C75.906 41.9843 76.4483 41.6194 77.0064 41.729ZM76.3123 45.2718C76.8704 45.3813 77.2347 45.9243 77.1253 46.4829C77.016 47.0416 76.4737 47.4064 75.9156 47.2968C75.3576 47.1872 74.9931 46.6444 75.1026 46.0857C75.212 45.5271 75.7543 45.1622 76.3123 45.2718ZM75.6179 48.8166C76.1758 48.9262 76.5404 49.4692 76.4309 50.0277C76.3215 50.5865 75.7793 50.9513 75.2212 50.8417C74.6632 50.7323 74.2987 50.1893 74.4082 49.6306C74.5176 49.072 75.06 48.7072 75.6179 48.8166ZM74.9239 52.3596C75.4819 52.469 75.8464 53.012 75.7369 53.5707C75.6275 54.1293 75.0852 54.4941 74.5272 54.3846C73.9693 54.2751 73.6047 53.7321 73.7142 53.1735C73.8236 52.6148 74.3658 52.25 74.9239 52.3596ZM74.2295 55.9045C74.7875 56.014 75.152 56.5568 75.0425 57.1156C74.9331 57.6741 74.3908 58.0391 73.8328 57.9295C73.2747 57.8199 72.9104 57.277 73.0198 56.7184C73.1291 56.1597 73.6715 55.7949 74.2295 55.9045ZM73.5354 59.4473C74.0935 59.5568 74.4579 60.0997 74.3484 60.6584C74.2391 61.217 73.6968 61.5819 73.1387 61.4723C72.5808 61.3627 72.2163 60.8198 72.3257 60.2612C72.4352 59.7026 72.9775 59.3377 73.5354 59.4473ZM72.8415 62.9901C73.3994 63.0997 73.7639 63.6426 73.6545 64.2012C73.545 64.7598 73.0028 65.1247 72.4447 65.0151C71.8868 64.9056 71.5223 64.3627 71.6317 63.804C71.7412 63.2454 72.2835 62.8805 72.8415 62.9901ZM72.1471 66.5349C72.705 66.6445 73.0695 67.1875 72.9601 67.7461C72.8506 68.3048 72.3083 68.6696 71.7504 68.56C71.1924 68.4504 70.8279 67.9076 70.9373 67.3489C71.0468 66.7903 71.589 66.4254 72.1471 66.5349ZM71.4531 70.0778C72.011 70.1873 72.3756 70.7303 72.2661 71.2889C72.1567 71.8476 71.6143 72.2124 71.0564 72.1029C70.4983 71.9934 70.1339 71.4504 70.2434 70.8918C70.3527 70.3331 70.895 69.9683 71.4531 70.0778ZM70.7586 73.6228C71.3167 73.7322 71.681 74.2752 71.5716 74.8339C71.4623 75.3925 70.92 75.7574 70.3619 75.6478C69.8039 75.5382 69.4394 74.9953 69.5489 74.4367C69.6583 73.878 70.2006 73.5132 70.7586 73.6228ZM70.0646 77.1656C70.6226 77.2752 70.9871 77.818 70.8776 78.3767C70.7682 78.9353 70.226 79.3002 69.6679 79.1906C69.1099 79.081 68.7454 78.5381 68.8549 77.9795C68.9643 77.4208 69.5067 77.056 70.0646 77.1656Z" fill="#E2D2FF"/>
<path d="M48.7536 97.9995C72.8244 97.9995 92.3376 78.464 92.3376 54.3657C92.3376 30.2674 72.8244 10.7319 48.7536 10.7319C24.6829 10.7319 5.16968 30.2674 5.16968 54.3657C5.16968 78.464 24.6829 97.9995 48.7536 97.9995Z" fill="#FBF9FF"/>
<mask id="mask0_6689_43488" style="mask-type:alpha" maskUnits="userSpaceOnUse" x="5" y="10" width="88" height="88">
<path d="M48.7536 97.9995C72.8244 97.9995 92.3376 78.464 92.3376 54.3657C92.3376 30.2674 72.8244 10.7319 48.7536 10.7319C24.6829 10.7319 5.16968 30.2674 5.16968 54.3657C5.16968 78.464 24.6829 97.9995 48.7536 97.9995Z" fill="#FBF9FF"/>
</mask>
<g mask="url(#mask0_6689_43488)">
<path d="M3.34724 71.3097L66.8854 83.7848C67.1567 82.4005 68.4988 81.4974 69.8816 81.7688C71.2643 82.0403 72.1664 83.384 71.8951 84.7684L86.2268 87.5821C87.6936 87.8701 89.129 86.9044 89.4166 85.4358L97.6242 43.538C97.9118 42.0695 96.9471 40.6324 95.4802 40.3444L81.1487 37.5305C80.8775 38.9148 79.5353 39.8179 78.1525 39.5465C76.7698 39.2749 75.8678 37.9312 76.139 36.5469L12.6007 24.0718C11.1339 23.7838 9.69843 24.7497 9.41077 26.2182L1.20334 68.1161C0.91568 69.5846 1.88043 71.0217 3.34724 71.3097ZM77.6862 41.9268C78.2443 42.0363 78.6087 42.5792 78.4993 43.138C78.3898 43.6965 77.8476 44.0615 77.2895 43.9519C76.7316 43.8423 76.3671 43.2994 76.4765 42.7408C76.586 42.1821 77.1283 41.8173 77.6862 41.9268ZM76.9923 45.4697C77.5502 45.5792 77.9147 46.122 77.8053 46.6808C77.6958 47.2393 77.1535 47.6043 76.5956 47.4947C76.0376 47.3851 75.6731 46.8422 75.7825 46.2836C75.892 45.7249 76.4342 45.3601 76.9923 45.4697ZM76.2979 49.0145C76.8558 49.1241 77.2204 49.6669 77.1109 50.2256C77.0014 50.7842 76.4591 51.1492 75.9012 51.0396C75.3431 50.93 74.9787 50.3871 75.0882 49.8285C75.1976 49.2699 75.7398 48.905 76.2979 49.0145ZM75.6038 52.5573C76.1619 52.6669 76.5262 53.2099 76.4169 53.7684C76.3075 54.327 75.7651 54.692 75.2072 54.5824C74.6491 54.4728 74.2847 53.93 74.394 53.3713C74.5035 52.8127 75.0458 52.4478 75.6038 52.5573ZM74.9094 56.1022C75.4675 56.2118 75.8319 56.7547 75.7224 57.3133C75.613 57.872 75.0708 58.2368 74.5127 58.1273C73.9547 58.0177 73.5902 57.4749 73.6997 56.9162C73.8091 56.3576 74.3514 55.9926 74.9094 56.1022ZM74.2154 59.645C74.7734 59.7546 75.1379 60.2975 75.0284 60.8561C74.919 61.4148 74.3766 61.7797 73.8187 61.6702C73.2608 61.5606 72.8962 61.0177 73.0057 60.4591C73.1151 59.9004 73.6575 59.5356 74.2154 59.645ZM73.5214 63.188C74.0794 63.2974 74.4439 63.8404 74.3345 64.3991C74.225 64.9577 73.6827 65.3226 73.1247 65.213C72.5667 65.1034 72.2023 64.5605 72.3117 64.0019C72.4212 63.4432 72.9634 63.0784 73.5214 63.188ZM72.8269 66.7328C73.385 66.8424 73.7494 67.3852 73.6401 67.944C73.5306 68.5025 72.9883 68.8675 72.4304 68.7579C71.8723 68.6483 71.5079 68.1054 71.6172 67.5468C71.7266 66.9881 72.269 66.6233 72.8269 66.7328ZM72.1329 70.2757C72.691 70.3852 73.0554 70.928 72.946 71.4868C72.8365 72.0453 72.2943 72.4103 71.7362 72.3007C71.1783 72.1911 70.8138 71.6482 70.9232 71.0896C71.0327 70.531 71.575 70.1661 72.1329 70.2757ZM71.4386 73.8205C71.9965 73.9301 72.361 74.473 72.2516 75.0316C72.1421 75.5902 71.5998 75.9552 71.0419 75.8456C70.4839 75.736 70.1194 75.1932 70.2288 74.6345C70.3383 74.0759 70.8806 73.7109 71.4386 73.8205ZM70.7446 77.3633C71.3025 77.4729 71.6671 78.0159 71.5576 78.5744C71.4482 79.1332 70.9058 79.498 70.3479 79.3884C69.7898 79.2789 69.4254 78.736 69.5349 78.1773C69.6443 77.6187 70.1865 77.2538 70.7446 77.3633Z" fill="#E2D2FF"/>
<path d="M28.4727 53.9703C23.5282 54.1563 20.5504 51.1933 20.4086 47.4156C20.2639 43.5633 23.105 40.4001 27.9753 40.2169C33.05 40.0262 35.9163 42.9932 36.0587 46.7896C36.2019 50.6047 33.3801 53.7857 28.4727 53.9703ZM33.7109 66.0732L27.4465 66.3088L42.0183 40.4156L48.3942 40.1758L33.7109 66.0732ZM28.3326 49.242C29.1319 49.212 29.5686 48.4502 29.5169 47.073C29.4624 45.6214 28.9691 44.8759 28.1512 44.9067C27.3519 44.9367 26.9152 45.6985 26.9697 47.1502C27.022 48.5459 27.5146 49.2727 28.3326 49.242ZM47.5446 66.1493C42.6186 66.3345 39.6228 63.3908 39.4817 59.6317C39.3365 55.7608 42.1961 52.5969 47.0664 52.4137C52.1224 52.2236 54.9889 55.1907 55.1313 58.9871C55.2745 62.8022 52.4705 65.964 47.5446 66.1493ZM47.4057 61.4582C48.2237 61.4274 48.6598 60.647 48.608 59.2698C48.5537 57.8182 48.0417 57.0734 47.2238 57.1041C46.4245 57.1342 45.9876 57.896 46.0422 59.3477C46.0938 60.7247 46.5879 61.4889 47.4057 61.4582Z" fill="#F1EAFF"/>
</g>
<path d="M83.3432 92.3472C87.8742 92.3472 91.5472 88.67 91.5472 84.1338C91.5472 79.5977 87.8742 75.9204 83.3432 75.9204C78.8122 75.9204 75.1392 79.5977 75.1392 84.1338C75.1392 88.67 78.8122 92.3472 83.3432 92.3472Z" fill="white"/>
<path fill-rule="evenodd" clip-rule="evenodd" d="M83.8559 95.5125C90.6996 95.5125 96.2475 89.9582 96.2475 83.1068C96.2475 76.2555 90.6996 70.7012 83.8559 70.7012C77.0123 70.7012 71.4644 76.2555 71.4644 83.1068C71.4644 89.9582 77.0123 95.5125 83.8559 95.5125ZM84.7853 79.3852C84.7853 78.8713 84.3691 78.4548 83.8559 78.4548C83.3427 78.4548 82.9265 78.8713 82.9265 79.3852V82.1765H80.1385C79.6252 82.1765 79.2092 82.5931 79.2092 83.1068C79.2092 83.6207 79.6252 84.0374 80.1385 84.0374H82.9265V86.8286C82.9265 87.3424 83.3427 87.759 83.8559 87.759C84.3691 87.759 84.7853 87.3424 84.7853 86.8286V84.0374H87.5734C88.0867 84.0374 88.5027 83.6207 88.5027 83.1068C88.5027 82.5931 88.0867 82.1765 87.5734 82.1765H84.7853V79.3852Z" fill="#AE72FF"/>
<path d="M54.1169 23.5602C60.0638 23.5602 64.8847 18.7338 64.8847 12.7801C64.8847 6.82642 60.0638 2 54.1169 2C48.17 2 43.3491 6.82642 43.3491 12.7801C43.3491 18.7338 48.17 23.5602 54.1169 23.5602Z" fill="#FFA97D"/>
<path d="M54.0775 18.7934C51.8337 18.7934 50.0146 16.9723 50.0146 14.7259C50.0146 13.5579 50.5066 12.5048 51.2941 11.763C52.0212 11.0781 53.8067 9.8447 53.5359 7.1333C56.7862 9.30263 58.4112 11.472 55.161 14.7259C55.7027 14.7259 56.5152 14.7259 57.8696 13.3862C58.0156 13.8057 58.1404 14.2565 58.1404 14.7259C58.1404 16.9723 56.3214 18.7934 54.0775 18.7934Z" fill="#FFEDE6"/>
</svg>
