<svg width="538" height="305" viewBox="0 0 538 305" fill="none" xmlns="http://www.w3.org/2000/svg">
<rect x="56.5" y="0.5" width="425" height="304" rx="8.5" stroke="#AE72FF"/>
<path d="M65 0.5H473C477.694 0.5 481.5 4.30558 481.5 9V42.5H56.5V9C56.5 4.30558 60.3056 0.5 65 0.5Z" fill="#AE72FF" stroke="#AE72FF"/>
<circle cx="83.5" cy="21.5" r="7" fill="#1F0433" stroke="#AE72FF"/>
<circle cx="103.5" cy="21.5" r="7" fill="#1F0433" stroke="#AE72FF"/>
<circle cx="123.5" cy="21.5" r="7" fill="#1F0433" stroke="#AE72FF"/>
<rect x="107.5" y="77.5" width="124" height="124" rx="26.0152" fill="#1F0433" stroke="#AE72FF"/>
<path d="M10.4971 238.5H528.358C533.318 238.5 537.34 242.521 537.34 247.481C537.34 252.441 533.318 256.462 528.358 256.462H10.4971C5.53699 256.462 1.51577 252.441 1.51562 247.481C1.51562 242.521 5.5369 238.5 10.4971 238.5Z" fill="#36174D" stroke="#AE72FF"/>
<rect x="0.5" y="238.5" width="262" height="18" rx="7.5" fill="#AE72FF" stroke="#AE72FF"/>
<path fill-rule="evenodd" clip-rule="evenodd" d="M170.132 105.899C167.987 105.899 166.271 107.615 166.271 109.76C166.271 114.11 167.64 118.318 170.132 121.81C172.623 118.318 173.992 114.11 173.992 109.76C173.992 107.615 172.276 105.899 170.132 105.899ZM175.279 127.366C179.241 122.403 181.447 116.194 181.447 109.78C181.447 103.367 176.382 98.4648 170.132 98.4648C163.882 98.4648 158.816 103.53 158.816 109.78C158.816 116.03 161.022 122.403 164.984 127.366L157.366 134.984C152.403 131.022 146.194 128.816 139.78 128.816C133.367 128.816 128.465 133.882 128.465 140.132C128.465 146.382 133.53 151.447 139.78 151.447C146.03 151.447 152.403 149.241 157.366 145.279L164.984 152.897C161.022 157.86 158.816 164.069 158.816 170.483C158.816 176.896 163.882 181.798 170.132 181.798C176.382 181.798 181.447 176.733 181.447 170.483C181.447 164.233 179.241 157.86 175.279 152.897L182.897 145.279C187.86 149.241 194.069 151.447 200.483 151.447C206.896 151.447 211.798 146.382 211.798 140.132C211.798 133.882 206.733 128.816 200.483 128.816C194.233 128.816 187.86 131.022 182.897 134.984L175.279 127.366ZM170.132 132.758L162.758 140.132L170.132 147.505L177.505 140.132L170.132 132.758ZM188.453 140.132C191.945 142.623 196.153 143.992 200.503 143.992C202.648 143.992 204.364 142.276 204.364 140.132C204.364 137.987 202.648 136.271 200.503 136.271C196.153 136.271 191.945 137.64 188.453 140.132ZM170.132 158.453C167.64 161.945 166.271 166.153 166.271 170.503C166.271 172.648 167.987 174.364 170.132 174.364C172.276 174.364 173.992 172.648 173.992 170.503C173.992 166.153 172.623 161.945 170.132 158.453ZM151.81 140.132C148.318 137.64 144.11 136.271 139.76 136.271C137.615 136.271 135.899 137.987 135.899 140.132C135.899 142.276 137.615 143.992 139.76 143.992C144.11 143.992 148.318 142.623 151.81 140.132Z" fill="#401A65"/>
<path d="M287.059 138.91C286.97 138.68 286.837 138.471 286.667 138.293L281.993 133.619C281.641 133.267 281.163 133.069 280.666 133.069C280.168 133.069 279.69 133.267 279.338 133.619C278.986 133.971 278.789 134.449 278.789 134.946C278.789 135.444 278.986 135.922 279.338 136.274L280.834 137.751H272.253C271.757 137.751 271.282 137.948 270.931 138.298C270.581 138.649 270.384 139.124 270.384 139.62C270.384 140.116 270.581 140.591 270.931 140.942C271.282 141.293 271.757 141.489 272.253 141.489H280.834L279.338 142.966C279.163 143.14 279.024 143.347 278.929 143.575C278.834 143.803 278.785 144.047 278.785 144.294C278.785 144.54 278.834 144.785 278.929 145.013C279.024 145.24 279.163 145.447 279.338 145.621C279.512 145.796 279.719 145.935 279.947 146.03C280.175 146.125 280.419 146.174 280.666 146.174C280.912 146.174 281.157 146.125 281.385 146.03C281.612 145.935 281.819 145.796 281.993 145.621L286.667 140.947C286.837 140.77 286.97 140.56 287.059 140.33C287.246 139.875 287.246 139.365 287.059 138.91ZM264.775 137.751H256.195L257.69 136.274C258.042 135.922 258.24 135.444 258.24 134.946C258.24 134.449 258.042 133.971 257.69 133.619C257.338 133.267 256.861 133.069 256.363 133.069C255.865 133.069 255.388 133.267 255.036 133.619L250.362 138.293C250.192 138.471 250.058 138.68 249.969 138.91C249.782 139.365 249.782 139.875 249.969 140.33C250.058 140.56 250.192 140.77 250.362 140.947L255.036 145.621C255.209 145.796 255.416 145.935 255.644 146.03C255.872 146.125 256.116 146.174 256.363 146.174C256.61 146.174 256.854 146.125 257.082 146.03C257.31 145.935 257.516 145.796 257.69 145.621C257.865 145.447 258.004 145.24 258.099 145.013C258.194 144.785 258.243 144.54 258.243 144.294C258.243 144.047 258.194 143.803 258.099 143.575C258.004 143.347 257.865 143.14 257.69 142.966L256.195 141.489H264.775C265.271 141.489 265.747 141.293 266.097 140.942C266.448 140.591 266.645 140.116 266.645 139.62C266.645 139.124 266.448 138.649 266.097 138.298C265.747 137.948 265.271 137.751 264.775 137.751Z" fill="#401A65"/>
<rect x="305.732" y="77.5" width="124" height="124" rx="26.0152" fill="#1F0433" stroke="#AE72FF"/>
<path d="M334.273 122.416C334.273 131.169 341.369 138.265 350.123 138.265C358.876 138.265 365.972 131.169 365.972 122.416C365.972 113.662 358.876 106.566 350.123 106.566C341.369 106.566 334.273 113.662 334.273 122.416ZM334.273 157.636C334.273 166.39 341.369 173.486 350.123 173.486C358.876 173.486 365.972 166.39 365.972 157.636C365.972 148.883 358.876 141.787 350.123 141.787C341.369 141.787 334.273 148.883 334.273 157.636ZM369.494 157.636C369.494 166.39 376.59 173.486 385.343 173.486C394.097 173.486 401.193 166.39 401.193 157.636C401.193 148.883 394.097 141.787 385.343 141.787C376.59 141.787 369.494 148.883 369.494 157.636ZM381.821 136.504V125.938H371.255V118.894H381.821V108.327H388.865V118.894H399.432V125.938H388.865V136.504H381.821Z" fill="#401A65"/>
</svg>
