<svg width="482" height="475" viewBox="0 0 482 475" fill="none" xmlns="http://www.w3.org/2000/svg">
<rect x="35.4825" y="0.482549" width="410.035" height="474.035" rx="8.20333" fill="#1F0433" stroke="#AE72FF" stroke-width="0.965098"/>
<path d="M43.6855 0.482422H437.446C441.977 0.482603 445.649 4.15524 445.649 8.68555V41.0166H35.4824V8.68555C35.4826 4.15523 39.1552 0.482604 43.6855 0.482422Z" fill="#AE72FF" stroke="#AE72FF" stroke-width="0.965098"/>
<circle cx="61.54" cy="20.7495" r="7.23824" fill="#1F0433"/>
<circle cx="80.8418" cy="20.7495" r="7.23824" fill="#1F0433"/>
<circle cx="100.144" cy="20.7495" r="7.23824" fill="#1F0433"/>
<path d="M29.2393 121.557H1V152.563H29.2393V121.557Z" fill="#1F0433" stroke="#AE72FF" stroke-miterlimit="10"/>
<path d="M57.4649 121.557H29.2256V152.563H57.4649V121.557Z" fill="#3C1C54" stroke="#AE72FF" stroke-miterlimit="10"/>
<path d="M85.7042 121.557H57.4648V152.563H85.7042V121.557Z" fill="#1F0433" stroke="#AE72FF" stroke-miterlimit="10"/>
<path d="M113.943 121.557H85.7041V152.563H113.943V121.557Z" fill="#3C1C54" stroke="#AE72FF" stroke-miterlimit="10"/>
<path d="M142.184 121.557H113.944V152.563H142.184V121.557Z" fill="#1F0433" stroke="#AE72FF" stroke-miterlimit="10"/>
<path d="M170.408 121.557H142.169V152.563H170.408V121.557Z" fill="#3C1C54" stroke="#AE72FF" stroke-miterlimit="10"/>
<path d="M198.648 121.557H170.408V152.563H198.648V121.557Z" fill="#1F0433" stroke="#AE72FF" stroke-miterlimit="10"/>
<path d="M226.888 121.557H198.648V152.563H226.888V121.557Z" fill="#3C1C54" stroke="#AE72FF" stroke-miterlimit="10"/>
<path d="M255.112 121.557H226.873V152.563H255.112V121.557Z" fill="#1F0433" stroke="#AE72FF" stroke-miterlimit="10"/>
<path d="M283.353 121.557H255.113V152.563H283.353V121.557Z" fill="#3C1C54" stroke="#AE72FF" stroke-miterlimit="10"/>
<path d="M311.591 121.557H283.352V152.563H311.591V121.557Z" fill="#1F0433" stroke="#AE72FF" stroke-miterlimit="10"/>
<path d="M339.831 121.557H311.592V152.563H339.831V121.557Z" fill="#3C1C54" stroke="#AE72FF" stroke-miterlimit="10"/>
<path d="M368.057 121.557H339.817V152.563H368.057V121.557Z" fill="#1F0433" stroke="#AE72FF" stroke-miterlimit="10"/>
<path d="M396.295 121.557H368.056V152.563H396.295V121.557Z" fill="#3C1C54" stroke="#AE72FF" stroke-miterlimit="10"/>
<path d="M424.535 121.557H396.296V152.563H424.535V121.557Z" fill="#1F0433" stroke="#AE72FF" stroke-miterlimit="10"/>
<path d="M452.761 121.557H424.521V152.563H452.761V121.557Z" fill="#3C1C54" stroke="#AE72FF" stroke-miterlimit="10"/>
<path d="M480.999 121.557H452.76V152.563H480.999V121.557Z" fill="#1F0433" stroke="#AE72FF" stroke-miterlimit="10"/>
<path d="M29.2256 121.998H1L25.0007 42H50.4051L29.2256 121.998Z" fill="#1F0433" stroke="#AE72FF" stroke-miterlimit="10"/>
<path d="M57.4649 121.998H29.2256L50.4051 42H75.8233L57.4649 121.998Z" fill="#3C1C54" stroke="#AE72FF" stroke-miterlimit="10"/>
<path d="M85.7042 121.998H57.4648L75.8232 42H101.228L85.7042 121.998Z" fill="#1F0433" stroke="#AE72FF" stroke-miterlimit="10"/>
<path d="M113.943 121.998H85.7041L101.227 42H126.646L113.943 121.998Z" fill="#3C1C54" stroke="#AE72FF" stroke-miterlimit="10"/>
<path d="M142.17 121.998H113.944L126.647 42H152.051L142.17 121.998Z" fill="#1F0433" stroke="#AE72FF" stroke-miterlimit="10"/>
<path d="M170.408 121.998H142.169L152.05 42H177.468L170.408 121.998Z" fill="#3C1C54" stroke="#AE72FF" stroke-miterlimit="10"/>
<path d="M198.648 121.998H170.408L177.468 42H202.872L198.648 121.998Z" fill="#1F0433" stroke="#AE72FF" stroke-miterlimit="10"/>
<path d="M226.874 121.998H198.648L202.873 42H228.291L226.874 121.998Z" fill="#3C1C54" stroke="#AE72FF" stroke-miterlimit="10"/>
<path d="M255.112 121.998H226.873L228.291 42H253.709L255.112 121.998Z" fill="#1F0433" stroke="#AE72FF" stroke-miterlimit="10"/>
<path d="M283.352 121.998H255.113L253.709 42H279.113L283.352 121.998Z" fill="#3C1C54" stroke="#AE72FF" stroke-miterlimit="10"/>
<path d="M311.591 121.998H283.352L279.113 42H304.531L311.591 121.998Z" fill="#1F0433" stroke="#AE72FF" stroke-miterlimit="10"/>
<path d="M339.817 121.998H311.591L304.531 42H329.936L339.817 121.998Z" fill="#3C1C54" stroke="#AE72FF" stroke-miterlimit="10"/>
<path d="M368.056 121.998H339.817L329.936 42H355.354L368.056 121.998Z" fill="#1F0433" stroke="#AE72FF" stroke-miterlimit="10"/>
<path d="M396.296 121.998H368.057L355.354 42H380.759L396.296 121.998Z" fill="#3C1C54" stroke="#AE72FF" stroke-miterlimit="10"/>
<path d="M424.522 121.998H396.296L380.759 42H406.177L424.522 121.998Z" fill="#1F0433" stroke="#AE72FF" stroke-miterlimit="10"/>
<path d="M452.761 121.998H424.521L406.177 42H431.581L452.761 121.998Z" fill="#3C1C54" stroke="#AE72FF" stroke-miterlimit="10"/>
<path d="M481 121.998H452.761L431.581 42H456.999L481 121.998Z" fill="#1F0433" stroke="#AE72FF" stroke-miterlimit="10"/>
<path fill-rule="evenodd" clip-rule="evenodd" d="M233.885 20.5005C233.005 19.8719 231.945 19.527 230.851 19.527C230.311 19.527 229.878 19.9607 229.878 20.5005C229.878 21.0403 230.311 21.474 230.851 21.474C231.945 21.474 233.005 21.1291 233.885 20.5005ZM238.501 25.116C237.872 25.9957 237.527 27.0559 237.527 28.1499C237.527 28.6897 237.961 29.1234 238.501 29.1234C239.04 29.1234 239.474 28.6897 239.474 28.1499C239.474 27.0559 239.129 25.9957 238.501 25.116ZM243.116 20.5005C243.996 21.1291 245.056 21.474 246.15 21.474C246.69 21.474 247.123 21.0403 247.123 20.5005C247.123 19.9607 246.69 19.527 246.15 19.527C245.056 19.527 243.996 19.8719 243.116 20.5005ZM238.501 18.6412L236.641 20.5005L238.501 22.3598L240.36 20.5005L238.501 18.6412ZM239.798 17.282C240.798 16.0309 241.352 14.4686 241.352 12.8512C241.352 11.2337 240.077 10 238.501 10C236.924 10 235.649 11.2746 235.649 12.8512C235.649 14.4278 236.203 16.0309 237.204 17.282L235.283 19.2025C234.032 18.2024 232.47 17.6483 230.852 17.6483C229.235 17.6483 228 18.9239 228 20.5005C228 22.0771 229.275 23.3517 230.851 23.3517C232.428 23.3517 234.031 22.7976 235.282 21.7975L237.202 23.718C236.202 24.9691 235.648 26.5314 235.648 28.1488C235.648 29.7663 236.923 31 238.499 31C240.076 31 241.351 29.7254 241.351 28.1488C241.351 26.5722 240.797 24.9691 239.796 23.718L241.717 21.7975C242.968 22.7976 244.53 23.3517 246.148 23.3517C247.765 23.3517 248.999 22.0771 248.999 20.5005C248.999 18.9239 247.724 17.6494 246.148 17.6494C244.571 17.6494 242.968 18.2035 241.717 19.2035L239.796 17.283L239.798 17.282ZM238.501 11.8776C237.961 11.8776 237.527 12.3113 237.527 12.8512C237.527 13.9451 237.872 15.0053 238.501 15.885C239.129 15.0053 239.474 13.9451 239.474 12.8512C239.474 12.3113 239.04 11.8776 238.501 11.8776Z" fill="#3C1C54"/>
<rect x="4.4625" y="213.463" width="155.122" height="192.951" rx="11.5375" fill="#1F0433" stroke="#AE72FF" stroke-width="0.925"/>
<rect opacity="0.64" x="16.8164" y="228.343" width="130.512" height="127.674" rx="14" fill="#2E1044"/>
<rect opacity="0.64" x="17.251" y="365.73" width="130.413" height="23.0141" rx="7" fill="#2E1044"/>
<rect x="316.463" y="213.463" width="154.896" height="192.671" rx="11.5375" fill="#1F0433" stroke="#AE72FF" stroke-width="0.925"/>
<rect opacity="0.64" x="328.799" y="228.321" width="130.323" height="127.49" rx="14" fill="#2E1044"/>
<rect opacity="0.64" x="329.231" y="365.51" width="130.225" height="22.9809" rx="7" fill="#2E1044"/>
<rect x="135.509" y="183.463" width="203.407" height="252.942" rx="11.5375" fill="#1F0433" stroke="#AE72FF" stroke-width="0.925"/>
<rect opacity="0.64" x="151.829" y="203.09" width="170.896" height="167.181" rx="14" fill="#2E1044"/>
<rect opacity="0.64" x="152.397" y="382.989" width="170.767" height="30.1353" rx="7" fill="#2E1044"/>
<path d="M128.054 356.16H41.8312C41.8086 347.432 41.7785 338.712 41.7559 329.984H128.054V356.16Z" fill="#1F0433"/>
<path d="M94.0549 298.133C92.7284 303.959 89.1332 308.135 84.9125 308.135C80.6919 308.135 77.0892 303.944 75.7627 298.118L76.7802 294.161L77.0892 292.978H92.7284L93.889 297.5L93.9946 297.907L94.0549 298.133Z" fill="#3C1C54"/>
<path d="M64.5096 303.952H103.92C108.216 303.952 111.698 307.434 111.698 311.73V317.865H56.7314V311.73C56.7314 307.434 60.2135 303.952 64.5096 303.952Z" fill="#1F0433"/>
<path d="M73.4258 251.487C73.4258 248.457 75.604 246 78.2946 246H90.7758C98.5615 246 104.87 253.107 104.87 261.88V278.929H75.1894L73.4258 251.487Z" fill="#3C1C54"/>
<path d="M68.7751 280.904H64.5996V258.021C64.5996 252.904 69.2499 249.452 73.4254 251.487C74.3675 257.17 68.7751 280.904 68.7751 280.904Z" fill="#3C1C54"/>
<path d="M104.584 275.959C112.37 267.224 107.177 288.584 102.866 286.082C95.2912 281.695 104.584 275.959 104.584 275.959Z" fill="#F4F4F4"/>
<path d="M128.054 329.984C124.007 334.175 119.356 337.777 114.246 340.656C106.363 345.096 97.3785 347.794 87.7991 348.246C86.8419 348.299 85.8771 348.322 84.9049 348.322C80.0737 348.322 75.3782 347.749 70.8786 346.671C64.6079 345.171 58.7291 342.684 53.4004 339.383C49.127 336.737 45.2229 333.579 41.7559 329.984L42.7884 325.914C44.3486 319.802 49.1647 315.053 55.3073 313.584L55.9856 313.426L63.515 311.624L65.5726 311.134C66.4394 310.923 67.2684 310.629 68.0523 310.252C68.708 309.936 69.3335 309.567 69.9214 309.145C70.5545 308.692 71.1499 308.18 71.6851 307.615C73.1246 306.1 74.1873 304.23 74.73 302.128L75.5289 299.022L75.7399 298.186L75.755 298.118L76.78 294.161L77.0815 292.978H92.7207L93.8889 297.5L93.9944 297.907L94.0547 298.133V298.186L94.2808 299.03L95.0797 302.128C95.8259 305.007 97.5519 307.471 99.8959 309.145C101.177 310.072 102.647 310.757 104.237 311.134L106.136 311.586L114.502 313.584C120.645 315.053 125.461 319.802 127.021 325.914L128.054 329.984Z" fill="#F4F4F4"/>
<path d="M98.8334 323.661H70.0498V338.396H98.8334V323.661Z" fill="#3C1C54"/>
<path d="M94.0549 298.133C92.7284 303.959 89.1332 308.135 84.9125 308.135C80.6919 308.135 77.0892 303.944 75.7627 298.118L76.7802 294.161L77.0892 292.978H92.7284L93.889 297.5L93.9946 297.907L94.0549 298.133Z" fill="#3C1C54"/>
<path d="M65.2322 275.959C57.4465 267.224 62.6395 288.584 66.9506 286.082C74.5253 281.695 65.2322 275.959 65.2322 275.959Z" fill="#F4F4F4"/>
<path d="M103.023 269.666C103.023 270.329 102.985 270.978 102.91 271.626C102.82 272.545 102.232 278.1 101.131 283.67C101.124 283.692 101.124 283.722 101.116 283.745C100.159 288.591 98.8099 293.415 97.0463 295.171C95.0565 297.161 93.4587 298.97 91.6347 300.274C89.8108 301.585 87.7683 302.399 84.9042 302.399C82.0402 302.399 79.9977 301.585 78.1738 300.274C76.3574 298.97 74.752 297.161 72.7622 295.171C70.9986 293.407 69.6495 288.576 68.6847 283.738C68.6847 283.738 68.6772 283.715 68.6772 283.707C68.5566 283.082 68.4436 282.456 68.3305 281.838C68.2853 281.582 68.2401 281.326 68.1948 281.069C67.313 275.959 66.8834 271.49 66.8834 271.49C66.8231 270.895 66.793 270.284 66.793 269.666C66.793 269.508 66.793 269.35 66.8005 269.191C66.8382 267.767 67.0341 266.38 67.3884 265.053L67.4336 264.873C69.446 257.517 75.9805 252.022 83.8641 251.585C84.2108 251.562 84.55 251.555 84.9042 251.555C89.9088 251.555 94.4385 253.582 97.7171 256.861C100.996 260.132 103.023 264.662 103.023 269.666Z" fill="#F4F4F4"/>
<path d="M87.7539 285.953C87.7539 287.205 86.4801 288.214 84.9049 288.214C83.3297 288.214 82.0635 287.205 82.0635 285.953C82.0635 285.803 82.0786 285.652 82.1238 285.516C82.3725 286.556 83.5256 287.34 84.9049 287.34C86.2842 287.34 87.4449 286.556 87.6936 285.516C87.7388 285.659 87.7539 285.803 87.7539 285.953Z" fill="#DEDFE0"/>
<path d="M127.224 326.059C125.66 319.684 120.832 314.73 114.675 313.201L111.827 312.49L101.016 306.176V311.734C101.016 315.372 99.7694 318.896 97.4954 321.664L84.841 337.09L71.0987 320.341C68.8247 317.574 67.5781 314.05 67.5781 310.411V306.184L56.7671 312.498L56.8956 312.819L56.0116 313.041L55.3317 313.209C49.1745 314.745 44.3469 319.691 42.7831 326.067L41.748 330.309C45.2233 334.063 49.1367 337.35 53.4203 340.109C58.7616 343.549 64.6544 346.148 70.9401 347.708C75.4503 348.832 80.157 349.428 84.9997 349.428C85.9742 349.428 86.9413 349.405 87.9007 349.351C97.503 348.877 106.508 346.064 114.411 341.432C119.533 338.428 124.194 334.674 128.251 330.302L127.216 326.059H127.224Z" fill="#1F0433"/>
<path d="M69.4612 321.837H67.7578V339.888H69.4612V321.837Z" fill="#3C1C54"/>
<path d="M102.059 321.837H100.355V339.888H102.059V321.837Z" fill="#3C1C54"/>
<path d="M103.935 267.006C103.935 267.699 103.897 268.385 103.814 269.063C103.754 269.681 102.458 275.266 102.458 275.266C75.905 268.814 73.7871 257.532 73.7871 257.532C73.8776 268.317 67.3581 275.274 67.3581 275.274C66.7853 271.422 65.9788 268.92 65.9788 268.92C65.9185 268.294 65.8809 267.654 65.8809 267.006C65.8809 266.84 65.8809 266.674 65.8884 266.508C65.9261 265.016 66.1371 263.554 66.5064 262.167C66.5215 262.107 66.5366 262.039 66.5516 261.978C68.662 254.253 75.5282 248.487 83.8037 248.028C84.1655 248.005 84.5273 247.997 84.8966 247.997C90.1498 247.997 94.9056 250.123 98.35 253.567C101.327 256.537 103.317 260.494 103.807 264.903C103.882 265.596 103.927 266.305 103.927 267.013L103.935 267.006Z" fill="#3C1C54"/>
<path d="M222.52 235.54C222.52 231.93 225.45 229 229.06 229H245.82C256.27 229 264.75 237.48 264.75 247.93V268.25H224.89L222.52 235.54Z" fill="#3C1C54"/>
<path d="M216.27 270.6H210.67V243.33C210.67 237.23 216.92 233.12 222.52 235.54C223.79 242.32 216.27 270.6 216.27 270.6Z" fill="#3C1C54"/>
<path d="M250.39 292.22C248.63 299.95 243.86 305.49 238.26 305.49C232.66 305.49 227.88 299.93 226.12 292.2L227.47 286.95L227.88 285.38H248.63L250.17 291.38L250.31 291.92L250.39 292.22Z" fill="#290C3E"/>
<path d="M264.359 262.8C274.689 251.21 267.799 279.55 262.079 276.23C252.029 270.41 264.359 262.8 264.359 262.8Z" fill="#F4F4F4"/>
<path d="M295.51 334.48C290.14 340.04 283.97 344.82 277.19 348.64C266.73 354.53 254.81 358.11 242.1 358.71C240.83 358.78 239.55 358.81 238.26 358.81C231.85 358.81 225.62 358.05 219.65 356.62C211.33 354.63 203.53 351.33 196.46 346.95C190.79 343.44 185.61 339.25 181.01 334.48L182.38 329.08C184.45 320.97 190.84 314.67 198.99 312.72L199.89 312.51L209.88 310.12L212.61 309.47C213.76 309.19 214.86 308.8 215.9 308.3C216.77 307.88 217.6 307.39 218.38 306.83C219.22 306.23 220.01 305.55 220.72 304.8C222.63 302.79 224.04 300.31 224.76 297.52L225.82 293.4L226.1 292.29L226.12 292.2L227.48 286.95L227.88 285.38H248.63L250.18 291.38L250.32 291.92L250.4 292.22V292.29L250.7 293.41L251.76 297.52C252.75 301.34 255.04 304.61 258.15 306.83C259.85 308.06 261.8 308.97 263.91 309.47L266.43 310.07L277.53 312.72C285.68 314.67 292.07 320.97 294.14 329.08L295.51 334.48Z" fill="#F4F4F4"/>
<path d="M250.39 292.22C248.63 299.95 243.86 305.49 238.26 305.49C232.66 305.49 227.88 299.93 226.12 292.2L227.47 286.95L227.88 285.38H248.63L250.17 291.38L250.31 291.92L250.39 292.22Z" fill="#290C3E"/>
<path d="M212.159 262.8C201.829 251.21 208.719 279.55 214.439 276.23C224.489 270.41 212.159 262.8 212.159 262.8Z" fill="#F4F4F4"/>
<path d="M262.3 254.45C262.3 255.33 262.25 256.19 262.15 257.05C262.07 257.83 261.72 261.16 261.1 265.4C260.76 267.76 260.32 270.39 259.8 273.03C259.8 273.06 259.8 273.1 259.78 273.13C258.51 279.56 256.72 285.96 254.38 288.29C251.74 290.93 249.62 293.33 247.2 295.06C244.78 296.8 242.07 297.88 238.27 297.88C234.47 297.88 231.76 296.8 229.34 295.06C226.93 293.33 224.8 290.93 222.16 288.29C219.82 285.95 218.03 279.54 216.75 273.12C216.75 273.12 216.75 273.09 216.75 273.08C216.59 272.25 216.44 271.42 216.29 270.6C216.23 270.26 216.17 269.92 216.11 269.58C215.86 268.14 215.64 266.73 215.44 265.41C214.72 260.54 214.37 256.87 214.37 256.87C214.29 256.08 214.25 255.27 214.25 254.45C214.25 254.24 214.25 254.03 214.25 253.82C214.3 251.93 214.56 250.09 215.03 248.33C215.05 248.25 215.07 248.17 215.09 248.09C217.76 238.33 226.43 231.04 236.89 230.46C237.35 230.43 237.8 230.42 238.27 230.42C244.91 230.42 250.92 233.11 255.27 237.46C259.03 241.21 261.55 246.21 262.16 251.78C262.26 252.66 262.31 253.55 262.31 254.45H262.3Z" fill="#F4F4F4"/>
<path d="M242.04 276.06C242.04 277.72 240.35 279.06 238.26 279.06C236.17 279.06 234.49 277.72 234.49 276.06C234.49 275.86 234.51 275.66 234.57 275.48C234.9 276.86 236.43 277.9 238.26 277.9C240.09 277.9 241.63 276.86 241.96 275.48C242.02 275.67 242.04 275.86 242.04 276.06Z" fill="#CBCBCB"/>
<path d="M263.02 254.65C263.02 255.56 262.97 256.44 262.87 257.33C262.79 258.13 261.1 265.4 261.1 265.4C226.55 257.01 223.79 242.32 223.79 242.32C223.9 256.36 215.42 265.41 215.42 265.41C214.68 260.39 213.63 257.14 213.63 257.14C213.55 256.33 213.51 255.49 213.51 254.65C213.51 254.43 213.51 254.22 213.52 254C213.57 252.05 213.84 250.16 214.32 248.34C214.34 248.26 214.36 248.18 214.38 248.09C217.13 238.04 226.06 230.53 236.84 229.94C237.31 229.91 237.78 229.9 238.26 229.9C245.1 229.9 251.29 232.67 255.77 237.15C259.64 241.01 262.24 246.16 262.87 251.9C262.97 252.81 263.02 253.72 263.02 254.65Z" fill="#3C1C54"/>
<path d="M296 334.493C281.468 349.598 261.081 359 238.505 359C215.929 359 195.532 349.598 181 334.483L182.376 329.051C184.455 320.868 190.872 314.52 199.057 312.555L210.014 309.935L212.735 309.28C213.96 308.988 215.145 308.554 216.25 308C221.814 313.945 229.718 317.664 238.495 317.664C247.272 317.664 255.176 313.945 260.74 308C261.844 308.544 263.019 308.988 264.255 309.28L266.635 309.854L277.933 312.555C286.118 314.52 292.535 320.868 294.604 329.051L295.99 334.493H296Z" fill="#1F0433"/>
<path d="M266.28 310.08C263.84 313.04 254.87 322.41 238.26 323.07C219.12 323.84 210.42 310.94 209.9 310.16L212.61 309.51C213.83 309.22 215.01 308.79 216.11 308.24C221.65 314.14 229.52 317.83 238.26 317.83C247 317.83 254.87 314.14 260.41 308.24C261.51 308.78 262.68 309.22 263.91 309.51L266.28 310.08Z" fill="#1F0433"/>
<path d="M295.51 334.38H181V370.72H295.51V334.38Z" fill="#1F0433"/>
<path d="M241 316.586L235 317V372H241V316.586Z" fill="#3C1C54"/>
<path d="M218.22 305.74L238.1 316.79L225.96 327.61L212.45 308.37L218.22 305.74Z" fill="#3C1C54"/>
<path d="M257.981 305.74L238.101 316.79L250.241 327.61L263.751 308.37L257.981 305.74Z" fill="#3C1C54"/>
<path d="M440.389 342.456H351.531V355.69H440.389V342.456Z" fill="#1F0433"/>
<path d="M440.359 332.717C436.489 336.727 432.076 340.217 427.251 343.055C427.12 343.133 426.98 343.218 426.84 343.296C426.274 343.629 425.7 343.947 425.119 344.258C425.049 344.296 424.979 344.335 424.909 344.366C424.397 344.645 423.885 344.909 423.366 345.165C423.319 345.188 423.265 345.212 423.218 345.235C422.613 345.537 422.001 345.824 421.388 346.104C421.349 346.119 421.318 346.135 421.287 346.15C420.783 346.375 420.279 346.6 419.767 346.809C418.697 347.259 417.603 347.678 416.502 348.074C415.866 348.299 415.222 348.516 414.57 348.717C413.903 348.927 413.236 349.128 412.562 349.315C412.228 349.408 411.895 349.501 411.553 349.586C410.933 349.749 410.305 349.904 409.676 350.044C409.242 350.144 408.792 350.238 408.358 350.331C408.218 350.354 408.086 350.385 407.947 350.408C407.916 350.416 407.885 350.424 407.861 350.431C407.768 350.447 407.675 350.47 407.59 350.478C407.497 350.501 407.404 350.517 407.311 350.532C407.148 350.563 406.993 350.594 406.83 350.618C406.527 350.68 406.225 350.734 405.922 350.78C405.884 350.78 405.845 350.796 405.806 350.796C405.232 350.889 404.658 350.974 404.084 351.052C403.805 351.083 403.526 351.122 403.247 351.153C403.022 351.184 402.789 351.207 402.556 351.23C402.471 351.238 402.378 351.246 402.285 351.261C402.153 351.261 402.021 351.285 401.889 351.3C401.315 351.354 400.741 351.401 400.16 351.44C399.811 351.463 399.469 351.486 399.12 351.502C399.074 351.502 399.035 351.502 398.989 351.51C398.391 351.533 397.794 351.556 397.189 351.564C396.786 351.572 396.375 351.579 395.971 351.579C395.196 351.579 394.428 351.564 393.66 351.533C393.412 351.525 393.164 351.517 392.916 351.502C391.838 351.455 390.775 351.37 389.72 351.269C388.526 351.145 387.339 350.99 386.16 350.804C385.765 350.742 385.377 350.672 384.981 350.602C384.888 350.587 384.795 350.571 384.702 350.548C384.524 350.517 384.353 350.486 384.175 350.455C383.996 350.416 383.826 350.385 383.647 350.346C382.592 350.137 381.545 349.889 380.506 349.617C380.235 349.555 379.971 349.485 379.715 349.408C379.335 349.307 378.963 349.198 378.59 349.09C378.327 349.012 378.071 348.935 377.815 348.857C377.435 348.748 377.062 348.624 376.69 348.5C376.504 348.438 376.318 348.376 376.124 348.314C375.69 348.167 375.255 348.019 374.821 347.856C374.2 347.632 373.588 347.399 372.983 347.151C372.393 346.91 371.804 346.67 371.222 346.414C370.602 346.142 369.989 345.863 369.392 345.568C368.802 345.289 368.213 345.002 367.639 344.7C367.057 344.405 366.483 344.095 365.917 343.777C365.506 343.544 365.103 343.311 364.699 343.079C359.86 340.217 355.431 336.727 351.568 332.709L352.631 328.528C354.229 322.231 359.193 317.344 365.506 315.832L367.453 315.367L368.763 315.056L373.495 313.924L374.262 313.746L375.023 313.559L375.876 313.358L376.07 313.311C376.969 313.102 377.83 312.792 378.645 312.396C380.048 311.729 381.305 310.806 382.36 309.689C383.027 308.999 383.608 308.231 384.097 307.393C384.718 306.37 385.191 305.245 385.493 304.051L386.315 300.847L386.54 299.986V299.94L386.556 299.924L387.192 297.458L387.603 295.852L387.921 294.635H404.014L404.736 297.45L405.209 299.288L405.317 299.707L405.38 299.94L405.395 299.979V299.994L405.62 300.863L406.434 304.051C406.745 305.245 407.21 306.37 407.823 307.393C409.126 309.573 411.041 311.333 413.353 312.427C413.353 312.435 413.368 312.443 413.376 312.443C413.376 312.443 413.43 312.466 413.454 312.474C414.221 312.83 415.028 313.11 415.858 313.311L416.897 313.559L416.951 313.575L417.316 313.66L417.735 313.761L418.084 313.846L418.503 313.947L424.071 315.273L424.521 315.382L426.422 315.832C432.735 317.344 437.699 322.231 439.297 328.528L440.367 332.717H440.359Z" fill="#F4F4F4"/>
<path d="M440.326 347.579C431.833 345.865 428.66 345.623 428.032 346.025C428.032 346.025 427.849 346.146 427.61 346.299C426.608 346.943 426.099 347.241 425.845 347.393C425.749 347.45 425.781 347.426 425.63 347.514C425.105 347.828 424.58 348.126 424.048 348.423C424 348.448 423.944 348.48 423.897 348.504C423.276 348.85 422.648 349.172 422.02 349.486C421.98 349.502 421.948 349.518 421.916 349.542C421.4 349.8 420.883 350.049 420.358 350.29C419.26 350.797 418.139 351.272 417.01 351.723C416.366 351.98 415.706 352.222 415.046 352.447C415.046 352.447 415.04 352.45 415.03 352.455C414.346 352.696 413.662 352.922 412.97 353.131C412.628 353.236 412.286 353.34 411.936 353.437C411.3 353.622 410.656 353.799 410.012 353.952C409.567 354.064 409.105 354.169 408.66 354.274C408.517 354.298 408.382 354.338 408.239 354.362C408.207 354.37 408.175 354.378 408.151 354.386C408.056 354.402 407.96 354.427 407.873 354.443C407.777 354.467 407.682 354.483 407.587 354.507C407.42 354.539 407.26 354.579 407.093 354.604C406.783 354.676 406.473 354.732 406.163 354.789C406.123 354.797 406.084 354.805 406.044 354.805C405.455 354.909 404.867 355.006 404.278 355.094C403.992 355.127 403.706 355.175 403.42 355.207C403.189 355.239 402.95 355.272 402.712 355.296C402.624 355.304 402.529 355.312 402.433 355.328C402.298 355.336 402.163 355.352 402.028 355.368C401.439 355.432 400.851 355.481 400.255 355.529C399.897 355.553 399.547 355.585 399.189 355.601C399.141 355.601 399.101 355.601 399.054 355.61C398.441 355.634 397.829 355.666 397.209 355.674C396.795 355.682 396.374 355.69 395.96 355.69C395.165 355.69 394.386 355.674 393.599 355.634C393.344 355.626 393.09 355.618 392.835 355.601C391.73 355.545 390.64 355.449 389.559 355.336C388.334 355.199 387.117 355.022 385.909 354.805C385.503 354.732 385.106 354.652 384.7 354.579C384.605 354.563 384.509 354.547 384.414 354.515C384.231 354.483 384.056 354.443 383.873 354.41C383.69 354.37 383.515 354.33 383.332 354.29C382.251 354.056 381.177 353.775 380.112 353.461C379.833 353.389 379.563 353.308 379.3 353.228C378.911 353.115 378.529 352.986 378.147 352.865C377.877 352.777 377.615 352.688 377.352 352.6C376.962 352.479 376.581 352.334 376.199 352.198C376.008 352.125 375.817 352.061 375.619 351.988C375.173 351.819 374.728 351.65 374.283 351.473C373.646 351.216 373.018 350.958 372.398 350.677C371.794 350.403 371.189 350.129 370.593 349.84C369.201 349.164 369.114 348.794 368.716 348.882C367.778 349.091 367.809 350.999 367.022 351.119C366.322 351.232 366.028 349.759 364.732 349.132C363.69 348.625 362.648 348.971 362.084 349.132C360.382 349.614 357.297 350.017 351.531 350.121C351.531 343.265 351.531 336.409 351.531 329.553C353.169 322.415 358.259 316.871 364.732 315.157L366.728 314.626L368.072 314.272L372.923 312.984L373.71 312.783L374.489 312.574L375.364 312.349L375.563 312.292C376.485 312.059 377.368 311.705 378.203 311.254C379.642 310.498 380.931 309.452 382.012 308.188C382.696 307.408 383.292 306.539 383.793 305.589H408.119C409.455 308.059 411.42 310.055 413.789 311.294C413.789 311.302 413.805 311.311 413.813 311.311C413.813 311.311 413.869 311.335 413.893 311.343C414.68 311.745 415.507 312.067 416.358 312.292L417.423 312.574L417.479 312.59L417.853 312.687L418.282 312.799L418.64 312.896L419.07 313.008L424.779 314.513L425.24 314.634L427.189 315.141C433.662 316.855 438.751 322.399 440.389 329.537C440.374 335.548 440.358 341.551 440.342 347.562L440.326 347.579Z" fill="#1F0433"/>
<path d="M426.414 315.832L396.026 332.368L389.929 329.064L365.49 315.832L377.466 268.458L396.026 261.804L414.438 268.288L426.414 315.832Z" fill="#3C1C54"/>
<path opacity="0.3" d="M396.026 316.003V332.368L389.93 329.064L396.026 316.003Z" fill="#1F0433"/>
<path d="M414.587 270.638C414.587 271.32 414.548 271.995 414.478 272.654C414.432 273.12 414.269 274.679 413.982 276.827C413.982 276.912 413.966 276.998 413.951 277.091V277.122C413.835 277.944 413.703 278.844 413.563 279.798C412.609 286.041 410.918 294.418 408.444 296.884C406.397 298.939 404.745 300.793 402.875 302.143C400.998 303.492 398.897 304.322 395.949 304.322C390.062 304.322 387.557 300.979 383.462 296.884C381.415 294.836 379.902 288.748 378.894 283.171C378.847 282.908 378.801 282.636 378.762 282.38C378.622 281.55 378.49 280.728 378.366 279.945C378.211 278.937 378.079 277.975 377.955 277.106C377.591 274.392 377.412 272.522 377.412 272.522C377.35 271.902 377.319 271.274 377.319 270.638C377.319 270.475 377.319 270.312 377.319 270.149C377.358 268.683 377.56 267.256 377.917 265.891C377.932 265.829 377.955 265.767 377.971 265.705C380.042 258.135 386.766 252.489 394.879 252.031C395.236 252.008 395.585 252 395.941 252C406.234 252 414.579 260.345 414.579 270.638H414.587Z" fill="#F4F4F4"/>
<path d="M398.957 288.957C398.957 290.245 397.647 291.284 396.026 291.284C394.405 291.284 393.102 290.245 393.102 288.957C393.102 288.802 393.117 288.647 393.164 288.508C393.42 289.578 394.606 290.384 396.026 290.384C397.445 290.384 398.639 289.578 398.895 288.508C398.942 288.655 398.957 288.802 398.957 288.957Z" fill="#DEDFE0"/>
<path d="M393.715 281.209C392.963 278.285 390.31 276.121 387.154 276.121C384.524 276.121 382.229 277.626 381.104 279.821C380.631 280.744 380.367 281.791 380.367 282.9C380.367 284.172 380.716 285.359 381.329 286.375C382.516 288.36 384.687 289.686 387.154 289.686C390.892 289.686 393.932 286.638 393.932 282.9C393.932 282.318 393.855 281.752 393.715 281.209ZM387.154 288.911C384.889 288.911 382.903 287.647 381.887 285.785C381.414 284.932 381.143 283.947 381.143 282.9C381.143 282.039 381.321 281.225 381.655 280.488C382.585 278.37 384.703 276.897 387.154 276.897C390.466 276.897 393.157 279.588 393.157 282.9C393.157 286.212 390.466 288.911 387.154 288.911Z" fill="#1F0433"/>
<path d="M410.886 279.704C409.739 277.579 407.482 276.121 404.899 276.121C401.742 276.121 399.09 278.285 398.337 281.209C398.198 281.752 398.12 282.318 398.12 282.9C398.12 286.638 401.16 289.686 404.899 289.686C407.326 289.686 409.467 288.399 410.662 286.468C411.313 285.428 411.685 284.211 411.685 282.9C411.685 281.744 411.398 280.658 410.886 279.704ZM410.103 285.902C409.064 287.701 407.117 288.911 404.899 288.911C401.587 288.911 398.896 286.212 398.896 282.9C398.896 279.588 401.587 276.897 404.899 276.897C407.303 276.897 409.382 278.316 410.336 280.356C410.708 281.124 410.91 281.993 410.91 282.9C410.91 283.994 410.615 285.017 410.103 285.902Z" fill="#1F0433"/>
<path d="M398.896 282.9H398.12C398.12 281.744 397.182 280.806 396.026 280.806C394.87 280.806 393.932 281.744 393.932 282.9H393.156C393.156 281.318 394.444 280.03 396.026 280.03C397.608 280.03 398.896 281.318 398.896 282.9Z" fill="#1F0433"/>
<path d="M414.587 270.638C414.587 271.32 414.548 271.995 414.478 272.654C414.432 273.12 414.269 274.679 413.982 276.827C413.982 276.912 413.966 276.998 413.951 277.091V277.122C413.835 277.944 413.703 278.844 413.563 279.798C412.981 278.254 407.7 265.162 395.988 264.146C383.54 265.224 378.359 279.945 378.359 279.945C378.203 278.937 378.072 277.975 377.948 277.106C377.583 274.392 377.405 272.522 377.405 272.522C377.343 271.902 377.312 271.274 377.312 270.638C377.312 270.475 377.312 270.312 377.312 270.149C377.35 268.683 377.552 267.256 377.909 265.891C377.924 265.829 377.948 265.767 377.963 265.705C380.042 258.135 386.766 252.489 394.879 252.031C395.236 252.008 395.585 252 395.941 252C406.234 252 414.579 260.345 414.579 270.638H414.587Z" fill="#3C1C54"/>
<path d="M414.586 314.831V348.71C414.586 348.71 414.578 348.717 414.571 348.717C413.904 348.927 413.237 349.128 412.562 349.315C412.228 349.408 411.895 349.501 411.553 349.586C410.933 349.749 410.305 349.904 409.677 350.044C409.242 350.145 408.792 350.238 408.358 350.331C408.218 350.354 408.087 350.385 407.947 350.408C407.916 350.416 407.885 350.424 407.862 350.431C407.769 350.447 407.675 350.47 407.59 350.478C407.497 350.501 407.404 350.517 407.311 350.532C407.148 350.563 406.993 350.594 406.83 350.618C406.528 350.68 406.225 350.734 405.923 350.78C405.884 350.78 405.845 350.796 405.806 350.796C405.232 350.889 404.658 350.974 404.084 351.052C403.805 351.083 403.526 351.122 403.247 351.153C403.022 351.184 402.789 351.207 402.557 351.23C402.471 351.238 402.378 351.246 402.285 351.261C402.153 351.261 402.021 351.285 401.89 351.3C401.316 351.354 400.742 351.401 400.16 351.44C399.811 351.463 399.47 351.486 399.121 351.502C399.074 351.502 399.035 351.502 398.989 351.51C398.392 351.533 397.794 351.556 397.189 351.564C396.786 351.572 396.375 351.579 395.972 351.579V314.831H414.609H414.586Z" fill="#3C1C54"/>
</svg>
