<svg width="535" height="531" viewBox="0 0 535 531" fill="none" xmlns="http://www.w3.org/2000/svg">
<rect x="0.463405" y="0.463405" width="368.115" height="394" rx="23.4053" fill="#1F0433" stroke="#898989" stroke-width="0.926811"/>
<circle cx="52.5096" cy="51.0298" r="27.6872" stroke="#898989" stroke-opacity="0.7" stroke-width="0.832387"/>
<rect x="92.4453" y="40.676" width="81.3519" height="20.7078" rx="4.16193" fill="#2E1044"/>
<path d="M321.685 39.2079L318.013 35.5954L319.614 34.0198L323.286 37.6324H340.546C341.172 37.6324 341.679 38.1312 341.679 38.7465C341.679 38.8549 341.663 38.9627 341.631 39.0666L338.913 47.9792C338.77 48.4505 338.329 48.7732 337.828 48.7732H323.95V51.0014H336.406V53.2295H322.817C322.192 53.2295 321.685 52.7307 321.685 52.1155V39.2079ZM323.383 57.6859C322.445 57.6859 321.685 56.9376 321.685 56.0147C321.685 55.0917 322.445 54.3436 323.383 54.3436C324.321 54.3436 325.082 55.0917 325.082 56.0147C325.082 56.9376 324.321 57.6859 323.383 57.6859ZM336.972 57.6859C336.034 57.6859 335.274 56.9376 335.274 56.0147C335.274 55.0917 336.034 54.3436 336.972 54.3436C337.911 54.3436 338.671 55.0917 338.671 56.0147C338.671 56.9376 337.911 57.6859 336.972 57.6859Z" fill="#898989"/>
<path d="M291.576 51.0488L296.565 56.0383L294.918 57.6859L289.928 52.6964C288.134 54.1317 285.859 54.9903 283.385 54.9903C277.597 54.9903 272.899 50.2929 272.899 44.5051C272.899 38.7172 277.597 34.0198 283.385 34.0198C289.173 34.0198 293.87 38.7172 293.87 44.5051C293.87 46.9796 293.011 49.2548 291.576 51.0488ZM289.239 50.1844C290.663 48.7162 291.54 46.7135 291.54 44.5051C291.54 39.9993 287.89 36.3499 283.385 36.3499C278.879 36.3499 275.229 39.9993 275.229 44.5051C275.229 49.0108 278.879 52.6603 283.385 52.6603C285.593 52.6603 287.596 51.7836 289.064 50.359L289.239 50.1844Z" fill="#898989"/>
<rect x="24.4062" y="109.455" width="317.272" height="107.976" rx="13.3182" fill="#2E1044"/>
<rect opacity="0.31" x="240.357" y="233.702" width="101.32" height="96.8827" rx="13.3182" fill="#E4E4E4"/>
<rect x="25.8848" y="233.702" width="101.32" height="96.8827" rx="13.3182" fill="#2E1044"/>
<rect opacity="0.31" x="133.121" y="233.702" width="101.32" height="96.8827" rx="13.3182" fill="#E4E4E4"/>
<rect x="90.0484" y="136.087" width="368.115" height="394" rx="23.4053" fill="#1F0433" stroke="#AE72FF" stroke-width="0.926811"/>
<rect x="113.991" y="245.079" width="317.272" height="107.976" rx="13.3182" fill="#2E1044"/>
<rect x="115.161" y="369.325" width="94.5489" height="89.899" rx="13.3182" fill="#2E1044"/>
<rect x="336.807" y="369.325" width="94.5489" height="89.899" rx="13.3182" fill="#2E1044"/>
<rect x="226.759" y="369.325" width="94.5489" height="89.899" rx="13.3182" fill="#2E1044"/>
<rect opacity="0.31" x="115.16" y="469.42" width="94.5489" height="24.7997" rx="12.3999" fill="#AE72FF"/>
<rect opacity="0.31" x="336.807" y="469.299" width="94.5489" height="24.7997" rx="12.3999" fill="#AE72FF"/>
<rect opacity="0.31" x="226.759" y="469.299" width="94.5489" height="24.7997" rx="12.3999" fill="#AE72FF"/>
<circle cx="142.095" cy="186.653" r="27.6872" fill="#1F0433" stroke="#AE72FF" stroke-width="0.832387"/>
<path fill-rule="evenodd" clip-rule="evenodd" d="M135.18 186.576C133.948 185.696 132.462 185.212 130.929 185.212C130.172 185.212 129.565 185.82 129.565 186.576C129.565 187.333 130.172 187.941 130.929 187.941C132.462 187.941 133.948 187.457 135.18 186.576ZM141.648 193.044C140.767 194.277 140.284 195.762 140.284 197.295C140.284 198.052 140.891 198.66 141.648 198.66C142.404 198.66 143.012 198.052 143.012 197.295C143.012 195.762 142.529 194.277 141.648 193.044ZM148.116 186.576C149.348 187.457 150.834 187.941 152.367 187.941C153.123 187.941 153.731 187.333 153.731 186.576C153.731 185.82 153.123 185.212 152.367 185.212C150.834 185.212 149.348 185.696 148.116 186.576ZM141.648 183.971L139.043 186.576L141.648 189.182L144.253 186.576L141.648 183.971ZM143.465 182.066C144.867 180.313 145.643 178.124 145.643 175.857C145.643 173.591 143.857 171.862 141.648 171.862C139.439 171.862 137.653 173.648 137.653 175.857C137.653 178.067 138.429 180.313 139.83 182.066L137.139 184.757C135.386 183.356 133.197 182.58 130.93 182.58C128.664 182.58 126.934 184.367 126.934 186.576C126.934 188.786 128.72 190.572 130.929 190.572C133.138 190.572 135.385 189.795 137.138 188.394L139.829 191.085C138.428 192.838 137.651 195.027 137.651 197.294C137.651 199.56 139.437 201.289 141.646 201.289C143.856 201.289 145.642 199.503 145.642 197.294C145.642 195.085 144.865 192.838 143.464 191.085L146.155 188.394C147.908 189.795 150.098 190.572 152.364 190.572C154.631 190.572 156.359 188.786 156.359 186.576C156.359 184.367 154.573 182.581 152.364 182.581C150.155 182.581 147.908 183.358 146.155 184.759L143.464 182.068L143.465 182.066ZM141.648 174.493C140.891 174.493 140.284 175.101 140.284 175.857C140.284 177.39 140.767 178.876 141.648 180.109C142.529 178.876 143.012 177.39 143.012 175.857C143.012 175.101 142.404 174.493 141.648 174.493Z" fill="#401A65"/>
<rect x="182.03" y="176.299" width="81.3519" height="20.7078" rx="4.16193" fill="#2E1044"/>
<path d="M411.27 174.831L407.598 171.219L409.199 169.643L412.871 173.256H430.131C430.757 173.256 431.264 173.755 431.264 174.37C431.264 174.478 431.248 174.586 431.216 174.69L428.498 183.603C428.354 184.074 427.914 184.397 427.413 184.397H413.535V186.625H425.991V188.853H412.402C411.777 188.853 411.27 188.354 411.27 187.739V174.831ZM412.968 193.309C412.03 193.309 411.27 192.561 411.27 191.638C411.27 190.715 412.03 189.967 412.968 189.967C413.906 189.967 414.667 190.715 414.667 191.638C414.667 192.561 413.906 193.309 412.968 193.309ZM426.557 193.309C425.619 193.309 424.859 192.561 424.859 191.638C424.859 190.715 425.619 189.967 426.557 189.967C427.496 189.967 428.256 190.715 428.256 191.638C428.256 192.561 427.496 193.309 426.557 193.309Z" fill="#AE72FF"/>
<path d="M381.16 186.672L386.149 191.662L384.502 193.309L379.512 188.32C377.718 189.755 375.443 190.614 372.969 190.614C367.181 190.614 362.483 185.916 362.483 180.128C362.483 174.341 367.181 169.643 372.969 169.643C378.756 169.643 383.454 174.341 383.454 180.128C383.454 182.603 382.595 184.878 381.16 186.672ZM378.823 185.808C380.247 184.34 381.124 182.337 381.124 180.128C381.124 175.623 377.474 171.973 372.969 171.973C368.463 171.973 364.813 175.623 364.813 180.128C364.813 184.634 368.463 188.284 372.969 188.284C375.177 188.284 377.18 187.407 378.648 185.982L378.823 185.808Z" fill="#AE72FF"/>
<path d="M100.732 460.152C100.496 460.396 100.138 460.521 99.7924 460.452C99.2064 460.356 98.823 459.808 98.9187 459.222C99.5492 455.465 97.727 451.102 94.2629 448.128C92.698 446.789 90.8368 445.664 88.5887 444.725C87.7493 446.627 86.4732 448.401 84.817 449.835C81.9633 452.323 78.4129 453.398 75.0907 452.776C72.6561 452.365 70.7625 451.091 69.8951 449.306C69.2755 448.026 69.2367 446.513 69.7835 445.066C70.4598 443.271 71.9637 441.689 73.7354 440.927C76.6831 439.651 80.0034 440.154 82.8614 440.798C84.4559 441.163 85.9162 441.575 87.2724 442.033C87.4976 441.1 87.6024 440.139 87.5578 439.211C87.2953 432.994 81.9436 427.218 75.1307 425.751C69.1294 424.422 62.1876 426.194 56.1407 430.546C55.6663 430.883 55.0051 430.774 54.6679 430.3C54.3307 429.825 54.4103 429.164 54.9146 428.827C61.4501 424.093 69.0047 422.205 75.622 423.63C83.3372 425.293 89.3919 431.927 89.699 439.072C89.7483 440.3 89.6177 441.531 89.3069 442.735C91.8261 443.76 93.9142 445.016 95.677 446.547C99.7489 450.051 101.791 455.04 101.038 459.593C100.997 459.818 100.895 460.015 100.762 460.152L100.732 460.152ZM72.9148 444.027C72.4133 444.545 72.0184 445.165 71.7737 445.814C71.5291 446.462 71.3496 447.439 71.7995 448.406C72.3421 449.552 73.7196 450.415 75.4635 450.747C78.1393 451.244 81.0479 450.344 83.3987 448.284C84.7589 447.094 85.83 445.623 86.5543 444.023C85.2732 443.578 83.8885 443.21 82.3692 442.859C79.8571 442.284 76.9572 441.835 74.5604 442.877C73.9501 443.141 73.372 443.555 72.9 444.042L72.9148 444.027Z" fill="#FA3768"/>
<path d="M458.127 335.668C457.708 335.517 457.41 335.095 457.421 334.626C457.448 334.05 457.928 333.591 458.531 333.605C464.552 333.833 470.49 330.156 472.945 324.642C473.298 323.846 473.572 323.021 473.786 322.174C468.072 321.72 462.74 318.317 460.405 313.222C459.154 310.498 458.932 306.792 461.274 304.661C464.144 302.066 468.749 303.541 471.55 306.462C474.993 310.041 476.651 315.141 476.255 320.066C476.766 320.024 477.264 319.955 477.776 319.847C483.75 318.638 488.821 313.614 490.382 307.328C492.046 300.629 489.936 293.903 487.702 286.772C485.542 279.87 483.295 272.711 484.842 265.587C486.604 257.55 493.43 250.837 501.471 249.267C502.05 249.16 502.591 249.534 502.726 250.101C502.833 250.68 502.458 251.221 501.892 251.355C494.653 252.762 488.499 258.794 486.937 266.025C485.517 272.609 487.57 279.179 489.754 286.135C491.983 293.22 494.28 300.554 492.455 307.825C490.702 314.898 484.973 320.564 478.204 321.915C477.449 322.072 476.696 322.161 475.958 322.211C475.71 323.338 475.356 324.45 474.882 325.518C472.068 331.781 465.314 335.975 458.441 335.735C458.327 335.739 458.227 335.704 458.127 335.668ZM466.792 305.788C465.297 305.25 463.761 305.262 462.713 306.236C461.172 307.642 461.412 310.295 462.343 312.342C464.346 316.732 469.131 319.713 474.137 320.071C474.56 315.696 473.098 311.117 470.027 307.941C469.124 307.009 467.962 306.231 466.785 305.808L466.792 305.788Z" fill="#AE72FF"/>
<path d="M448.028 459.097C448.028 459.097 448.069 458.955 448.113 458.879C448.392 458.364 449.041 458.174 449.557 458.454C452.745 460.179 456.721 459.066 460.593 458.011C464.709 456.872 469.789 455.985 473.374 458.948C473.91 459.387 474.361 459.891 474.76 460.423C481.892 458.602 490.015 461.956 494.427 467.425C499.6 473.861 501.291 483.226 499.04 493.119C498.944 493.687 498.336 494.042 497.774 493.926C497.192 493.804 496.851 493.221 496.967 492.659C499.038 483.552 497.466 474.618 492.763 468.78C489.038 464.146 482.024 461.152 475.858 462.368C476.467 463.71 476.802 465.084 477.032 466.207C477.394 468.03 477.741 470.443 477.023 472.729C476.266 475.224 474.337 477.12 472.101 477.539C470.543 477.822 468.948 477.389 467.585 476.295C466.027 475.035 465.002 473.067 464.937 471.131C464.829 468.036 466.636 464.871 469.753 462.675C470.658 462.052 471.602 461.528 472.577 461.123C472.393 460.916 472.198 460.75 471.983 460.578C469.143 458.247 464.745 459.064 461.211 460.017C457.048 461.165 452.454 462.433 448.518 460.317C448.078 460.081 447.874 459.56 448.008 459.092L448.028 459.097ZM473.803 462.927C472.819 463.286 471.882 463.79 471.003 464.398C469.05 465.758 466.998 468.236 467.08 471.037C467.118 472.37 467.835 473.721 468.927 474.606C469.809 475.298 470.802 475.604 471.739 475.409C473.396 475.088 474.574 473.507 475.008 472.065C475.598 470.228 475.292 468.135 474.968 466.566C474.683 465.096 474.295 463.905 473.809 462.907L473.803 462.927Z" fill="#FF8C3A"/>
<path d="M528.762 268.147C525.388 273.051 523.819 276.445 522.387 281.231C526.251 282.114 528.841 281.977 531.234 281.29C531.43 278.21 532.725 276.17 535 273.208C531.724 272.208 530.312 270.874 528.762 268.147Z" fill="#9EEC98"/>
<path d="M46.2404 488.927C46.0613 491.078 46.9444 492.529 48.4644 494.841C53.4021 491.335 59.6919 489.083 67.215 487.151C66.0762 485.225 65.8448 483.749 65.9701 481.299C57.8882 482.85 53.5044 484.434 46.2404 488.927Z" fill="#AE72FF"/>
<path d="M495.263 387.848C495.969 388.888 496.302 389.967 495.989 391.635C500.108 391.223 502.678 390.438 506.386 389.065C506.503 386.652 506.013 385.318 505.562 384.396C502.011 386.711 499.363 387.319 495.263 387.848Z" fill="#FA3768"/>
<path d="M64.1172 51.7634V61.0936H65.49V63.8549H38.0339V61.0936H39.4067V51.7634C37.7512 50.649 36.6611 48.7509 36.6611 46.5968C36.6611 45.4548 36.9692 44.3549 37.5304 43.4178L41.2536 36.9323C41.4988 36.5051 41.952 36.2419 42.4424 36.2419H61.0815C61.5719 36.2419 62.0252 36.5051 62.2703 36.9323L65.9807 43.3961C66.5547 44.3549 66.8628 45.4548 66.8628 46.5968C66.8628 48.7509 65.7728 50.649 64.1172 51.7634ZM61.3716 52.7717C61.1461 52.7969 60.9172 52.8097 60.6852 52.8097C58.9567 52.8097 57.3615 52.089 56.2236 50.895C55.0856 52.089 53.4904 52.8097 51.762 52.8097C50.0335 52.8097 48.4383 52.089 47.3003 50.895C46.1624 52.089 44.5672 52.8097 42.8387 52.8097C42.6067 52.8097 42.3777 52.7969 42.1523 52.7717V61.0936H61.3716V52.7717ZM43.235 39.0032L39.8954 44.8202C39.5771 45.352 39.4067 45.9602 39.4067 46.5968C39.4067 48.503 40.9433 50.0484 42.8387 50.0484C44.254 50.0484 45.5084 49.179 46.0261 47.8801C46.4868 46.7241 48.1139 46.7241 48.5746 47.8801C49.0923 49.179 50.3466 50.0484 51.762 50.0484C53.1773 50.0484 54.4316 49.179 54.9493 47.8801C55.41 46.7241 57.0371 46.7241 57.4978 47.8801C58.0155 49.179 59.2698 50.0484 60.6852 50.0484C62.5806 50.0484 64.1172 48.503 64.1172 46.5968C64.1172 45.9602 63.9468 45.352 63.6157 44.7984L60.2888 39.0032H43.235Z" fill="#898989"/>
</svg>
