<svg width="687" height="580" viewBox="0 0 687 580" fill="none" xmlns="http://www.w3.org/2000/svg">
<path d="M241.088 213.596L76.9373 215.029C66.4192 215.121 57.967 223.722 58.0588 234.24L60.9073 560.652C60.9991 571.17 69.6001 579.622 80.1182 579.53L244.269 578.098C254.787 578.006 263.24 569.405 263.148 558.887L260.299 232.475C260.208 221.957 251.607 213.505 241.088 213.596Z" fill="#AE72FF" stroke="#3C1C54" stroke-width="0.831486" stroke-linecap="round" stroke-linejoin="round"/>
<path d="M250.247 545.435L73.5622 546.987L70.8535 237.153L112.725 236.787L117.465 240.652C119.13 242.006 121.19 242.74 123.334 242.712L197.23 242.063C199.46 242.063 201.604 241.216 203.269 239.721L207.501 235.94L247.539 235.602L250.247 545.435Z" fill="#1F0433" stroke="#3C1C54" stroke-width="0.831486" stroke-linecap="round" stroke-linejoin="round"/>
<g opacity="0.15">
<path fill-rule="evenodd" clip-rule="evenodd" d="M139.55 386.271C135.557 383.417 130.744 381.852 125.777 381.852C123.327 381.852 121.358 383.82 121.358 386.271C121.358 388.722 123.327 390.691 125.777 390.691C130.744 390.691 135.557 389.125 139.55 386.271ZM160.503 407.224C157.65 411.218 156.084 416.031 156.084 420.997C156.084 423.448 158.053 425.417 160.503 425.417C162.954 425.417 164.923 423.448 164.923 420.997C164.923 416.031 163.357 411.218 160.503 407.224ZM181.457 386.271C185.45 389.125 190.263 390.691 195.229 390.691C197.68 390.691 199.649 388.722 199.649 386.271C199.649 383.82 197.68 381.852 195.229 381.852C190.263 381.852 185.45 383.417 181.457 386.271ZM160.503 377.83L152.063 386.271L160.503 394.712L168.944 386.271L160.503 377.83ZM166.391 371.66C170.931 365.98 173.447 358.888 173.447 351.545C173.447 344.202 167.661 338.602 160.503 338.602C153.346 338.602 147.56 344.388 147.56 351.545C147.56 358.702 150.075 365.98 154.615 371.66L145.897 380.378C140.217 375.838 133.125 373.323 125.782 373.323C118.439 373.323 112.834 379.114 112.834 386.271C112.834 393.428 118.62 399.215 125.777 399.215C132.935 399.215 140.213 396.699 145.892 392.159L154.611 400.878C150.071 406.557 147.555 413.65 147.555 420.992C147.555 428.335 153.341 433.936 160.499 433.936C167.656 433.936 173.442 428.15 173.442 420.992C173.442 413.835 170.927 406.557 166.387 400.878L175.105 392.159C180.785 396.699 187.877 399.215 195.22 399.215C202.563 399.215 208.164 393.428 208.164 386.271C208.164 379.114 202.378 373.328 195.22 373.328C188.063 373.328 180.785 375.843 175.105 380.383L166.387 371.664L166.391 371.66ZM160.503 347.126C158.053 347.126 156.084 349.094 156.084 351.545C156.084 356.511 157.65 361.324 160.503 365.318C163.357 361.324 164.923 356.511 164.923 351.545C164.923 349.094 162.954 347.126 160.503 347.126Z" fill="#AE72FF"/>
</g>
<path d="M598.088 106.596L433.937 108.029C423.419 108.121 414.967 116.722 415.059 127.24L417.907 453.652C417.999 464.17 426.6 472.622 437.118 472.53L601.269 471.098C611.787 471.006 620.24 462.405 620.148 451.887L617.299 125.475C617.208 114.957 608.607 106.505 598.088 106.596Z" fill="#AE72FF" stroke="#3C1C54" stroke-width="0.831486" stroke-linecap="round" stroke-linejoin="round"/>
<path d="M607.247 438.435L430.562 439.987L427.854 130.153L469.725 129.787L474.465 133.652C476.13 135.006 478.19 135.74 480.334 135.712L554.23 135.063C556.46 135.063 558.604 134.216 560.269 132.721L564.501 128.94L604.539 128.602L607.247 438.435Z" fill="#1F0433" stroke="#3C1C54" stroke-width="0.831486" stroke-linecap="round" stroke-linejoin="round"/>
<path d="M206.297 189.494C223.121 167.386 224.379 117.137 224.379 117.137C224.379 117.137 211.057 120.909 198.259 119.398C185.446 117.886 172.887 121.658 172.887 121.658C172.887 121.658 174.639 168.629 167.109 192.503C167.109 192.503 174.074 188.985 182.366 188.604C190.658 188.222 206.297 189.48 206.297 189.48V189.494Z" fill="#AE72FF"/>
<path d="M356.292 71.1837C341.727 56.1106 332.121 61.8884 332.121 61.8884C332.955 58.2437 334.028 54.7121 335.271 51.3217C345.019 39.5966 356.306 31.8411 367.113 26.7273C354.653 47.2109 356.263 70.5904 356.292 71.1837Z" fill="#3C1C54"/>
<path d="M409.902 16.8248C409.902 16.8248 389.56 16.0902 367.127 26.7134H367.113C356.32 31.8555 345.019 39.5968 335.271 51.3078C338.521 42.4928 342.985 34.5678 347.717 27.6881C348.042 27.2078 348.367 26.7275 348.706 26.2755C350.387 23.8881 352.096 21.6702 353.777 19.5795C354.159 19.1133 354.54 18.6612 354.907 18.2092C356.815 15.9207 358.679 13.8299 360.445 11.937H360.459C360.911 11.4567 361.335 11.0046 361.773 10.5384C363.468 8.77262 365.079 7.20456 366.491 5.84841C367.014 5.35398 367.523 4.8878 368.003 4.464C371.181 1.55393 373.216 0 373.216 0C390.549 0.0847596 409.888 16.8106 409.888 16.8106L409.902 16.8248Z" fill="#AE72FF"/>
<path d="M388.443 12.7986C387.821 12.8975 387.129 13.0105 386.394 13.1377C380.404 8.32049 370.12 6.4134 366.504 5.87659C367.027 5.38216 367.535 4.91599 368.015 4.49219C372.79 5.2974 382.82 7.54353 388.443 12.8128V12.7986Z" fill="#3C1C54"/>
<path d="M374.049 16.4434C373.498 16.613 372.933 16.8249 372.368 17.0509C368.681 13.6605 363.256 12.4032 360.459 11.9653C360.911 11.485 361.335 11.033 361.773 10.5668C365.093 11.1883 370.432 12.7281 374.049 16.4576V16.4434Z" fill="#3C1C54"/>
<path d="M362.395 21.4159C361.872 21.6843 361.35 21.9527 360.799 22.2635C358.482 20.7943 355.657 20.0032 353.764 19.5935C354.145 19.1274 354.526 18.6753 354.894 18.2233C357.069 18.7318 360.008 19.7066 362.381 21.4159H362.395Z" fill="#3C1C54"/>
<path d="M352.082 27.5188C351.587 27.8578 351.079 28.1969 350.585 28.55C349.666 28.1686 348.55 27.8719 347.717 27.6883C348.042 27.208 348.367 26.7277 348.706 26.2756C349.723 26.5299 351.037 26.9255 352.082 27.5188Z" fill="#3C1C54"/>
<path d="M311.016 37.9442C311.016 37.9442 303.091 51.1949 291.776 64.7706C280.121 78.7277 264.836 93.0662 250.851 93.6171C250.851 93.6171 243.18 93.6171 231.145 91.7948C231.145 91.7948 250.682 75.0547 263.466 32.5337C263.466 32.5337 292.327 44.5978 311.016 37.9583V37.9442Z" fill="#3C1C54"/>
<path d="M291.774 64.7706C280.12 78.7277 264.835 93.0662 250.85 93.6171C250.85 93.6171 255.61 93.6171 251.612 85.7345C251.612 85.7345 276.235 79.9285 291.774 64.7706Z" fill="#AE72FF"/>
<path d="M229.185 211.141C252.321 196.378 273.884 155.374 315.179 126.921C356.481 98.4599 399.623 125.647 410.453 158.182" stroke="#3C1C54" stroke-width="2.10676" stroke-miterlimit="10" stroke-linecap="round" stroke-dasharray="6.32 6.32"/>
<path fill-rule="evenodd" clip-rule="evenodd" d="M193.637 146.005C193.637 147.192 192.666 148.163 191.479 148.163C190.292 148.163 189.321 147.192 189.321 146.005C189.321 144.818 190.292 143.847 191.479 143.847C192.666 143.847 193.637 144.818 193.637 146.005ZM194.284 153.612L198.05 147.58C198.492 146.879 199.517 146.911 199.917 147.634L205.182 157.356C205.57 158.078 205.052 158.952 204.232 158.952H185.232C184.412 158.952 183.883 158.068 184.304 157.345L187.627 151.432C187.962 150.85 188.728 150.698 189.246 151.119L192.698 153.881C193.195 154.281 193.939 154.162 194.284 153.612Z" fill="#1F0433"/>
<path d="M1 579.545H335.257" stroke="#AE72FF" stroke-width="0.831486" stroke-linecap="round" stroke-linejoin="round"/>
<path d="M351.699 472.284H685.956" stroke="#AE72FF" stroke-width="0.831486" stroke-linecap="round" stroke-linejoin="round"/>
<path d="M549.749 284.244V307.333H553.166V314.167H484.833V307.333H488.249V284.244C484.129 281.486 481.416 276.789 481.416 271.458C481.416 268.632 482.183 265.91 483.58 263.591L492.846 247.542C493.456 246.484 494.584 245.833 495.805 245.833H542.194C543.415 245.833 544.543 246.484 545.153 247.542L554.387 263.537C555.816 265.91 556.583 268.632 556.583 271.458C556.583 276.789 553.87 281.486 549.749 284.244ZM542.916 286.739C542.355 286.801 541.785 286.833 541.208 286.833C536.906 286.833 532.936 285.05 530.104 282.095C527.271 285.05 523.301 286.833 518.999 286.833C514.697 286.833 510.727 285.05 507.895 282.095C505.063 285.05 501.093 286.833 496.791 286.833C496.214 286.833 495.644 286.801 495.083 286.739V307.333H542.916V286.739ZM497.777 252.667L489.466 267.062C488.673 268.378 488.249 269.883 488.249 271.458C488.249 276.176 492.074 280 496.791 280C500.313 280 503.435 277.848 504.724 274.634C505.87 271.773 509.92 271.773 511.067 274.634C512.355 277.848 515.477 280 518.999 280C522.522 280 525.644 277.848 526.932 274.634C528.079 271.773 532.128 271.773 533.275 274.634C534.563 277.848 537.685 280 541.208 280C545.925 280 549.749 276.176 549.749 271.458C549.749 269.883 549.325 268.378 548.501 267.008L540.221 252.667H497.777Z" fill="#3C1C54"/>
</svg>
