<svg width="704" height="437" viewBox="0 0 704 437" fill="none" xmlns="http://www.w3.org/2000/svg">
<path d="M195.467 347.966C164.556 375.469 127.475 391.785 86.3013 395.91C85.4842 387.49 84.6656 379.068 83.8485 370.648C118.969 365.996 149.957 351.372 175.822 327.153C182.369 334.089 188.918 341.028 195.467 347.966Z" fill="#AE72FF"/>
<path d="M145.712 378.233C128.637 385.996 110.427 391.168 91.2005 393.7L90.5218 393.789L87.7527 371.909L88.4044 371.806C120.7 366.734 149.489 353.226 173.974 331.655L174.481 331.209L190.809 349.469L190.274 349.92C176.476 361.561 161.584 371.017 145.712 378.233ZM91.7025 392.259C128.033 387.352 160.716 372.91 188.862 349.33L174.368 333.121C149.963 354.462 121.338 367.892 89.2693 373.046L91.7025 392.259Z" fill="#3C1C54"/>
<path d="M0 395.709H703.351" stroke="#AE72FF" stroke-miterlimit="10"/>
<path d="M308.094 84.2097H392.66C401.303 84.2098 408.335 91.2418 408.335 99.8845V143.736C408.335 152.38 401.303 159.411 392.66 159.411H308.094C299.451 159.411 292.419 152.38 292.419 143.736V99.8845C292.419 91.3767 299.233 84.4294 307.69 84.2146L308.094 84.2097ZM308.316 143.514H392.439V100.106H308.316V143.514Z" fill="#1F0433" stroke="#AE72FF"/>
<path d="M202.302 385.134H222.014C224.848 385.134 227.145 387.432 227.146 390.264C227.146 393.099 224.847 395.397 222.014 395.397H202.302C199.468 395.397 197.17 393.1 197.17 390.264C197.17 387.432 199.467 385.134 202.302 385.134Z" fill="#3C1C54" stroke="#AE72FF"/>
<path d="M473.908 385.134H493.622C496.456 385.134 498.753 387.432 498.753 390.264C498.753 393.099 496.456 395.397 493.622 395.397H473.908C471.075 395.397 468.777 393.1 468.777 390.264C468.777 387.432 471.075 385.134 473.908 385.134Z" fill="#3C1C54" stroke="#AE72FF"/>
<path d="M171.619 124.733H524.304C529.625 124.733 533.941 129.047 533.941 134.37V376.396C533.941 381.719 529.625 386.034 524.304 386.034H171.619C166.297 386.034 161.982 381.719 161.981 376.396V134.37C161.982 129.047 166.296 124.733 171.619 124.733Z" fill="#1F0433" stroke="#AE72FF"/>
<path d="M439.014 280.684L301.22 215.606L292.241 234.617L430.035 299.695L439.014 280.684Z" fill="#3C1C54"/>
<path d="M446.031 265.83L308.237 200.752L299.259 219.762L437.053 284.841L446.031 265.83Z" fill="#AE72FF"/>
<path d="M432.63 281.776L304.445 221.236L312.665 203.833L440.85 264.373L432.63 281.776ZM307.354 220.193L431.588 278.868L437.943 265.414L313.708 206.74L307.354 220.193Z" fill="#3C1C54"/>
<path d="M300.428 226.192L431.354 288.027C431.354 288.027 339.952 240.94 300.428 226.192Z" fill="#3C1C54"/>
<path d="M303.204 231.628L406.459 280.394C406.459 280.394 334.873 242.204 303.204 231.628Z" fill="#3C1C54"/>
<path d="M325.6 247.192L428.854 295.958C428.854 295.958 357.268 257.768 325.6 247.192Z" fill="#3C1C54"/>
<path d="M390.979 238.67L364.183 226.015L354.76 245.966L381.556 258.622L390.979 238.67Z" fill="#3C1C54"/>
<path d="M381.556 258.622L354.76 245.966L347.627 261.07L374.423 273.725L381.556 258.622Z" fill="#1F0433"/>
<path d="M371.485 248.136C371.075 248.493 370.718 248.922 370.432 249.411L375.153 250.458C375.562 250.101 375.919 249.673 376.205 249.184L371.485 248.136Z" fill="#683D89"/>
<path d="M376.399 247.719C376.809 247.362 377.165 246.933 377.452 246.444L373.774 245.626L374.4 244.255L377.651 244.976C378.06 244.619 378.417 244.19 378.704 243.701L375.026 242.883L377.275 237.955C376.631 238.009 375.997 238.184 375.421 238.469L373.556 242.557L372.086 242.231L374.901 236.062C374.256 236.115 373.623 236.291 373.047 236.576L370.615 241.905L367.325 241.175C366.915 241.532 366.558 241.96 366.272 242.449L369.99 243.276L369.201 245.004L365.216 244.118C364.807 244.475 364.45 244.904 364.163 245.393L368.335 246.319C368.674 246.395 369.024 246.333 369.312 246.161L370.48 245.445C370.602 245.371 370.702 245.262 370.766 245.123L371.46 243.602L372.93 243.929L371.679 246.669L376.4 247.716L376.399 247.719Z" fill="#683D89"/>
<path d="M331.855 254.153L190.955 312.202L201.777 338.469L342.676 280.421L331.855 254.153Z" fill="#1F0433"/>
<path d="M325.598 238.965L184.698 297.013L192.706 316.451L333.606 258.403L325.598 238.965Z" fill="#AE72FF"/>
<path d="M328.359 259.621L197.283 313.615L189.952 295.818L321.028 241.824L328.359 259.621ZM198.47 310.763L325.507 258.433L319.84 244.676L192.803 297.006L198.47 310.763Z" fill="#1F0433"/>
<path d="M198.24 319.923L332.119 264.774C332.119 264.774 235.759 300.637 198.24 319.923Z" fill="#1F0433"/>
<path d="M204.13 321.531L309.713 278.037C309.713 278.037 233.273 305.242 204.13 321.531Z" fill="#1F0433"/>
<path d="M230.716 315.456L336.301 271.962C336.301 271.962 259.861 299.167 230.716 315.456Z" fill="#1F0433"/>
<path d="M268.448 261.375L241.048 272.664L249.453 293.065L276.853 281.777L268.448 261.375Z" fill="#3C1C54"/>
<path d="M276.854 281.777L249.454 293.065L258.728 315.577L286.128 304.288L276.854 281.777Z" fill="#1F0433"/>
<path d="M262.307 281.473C262.271 282.015 262.323 282.571 262.467 283.119L266.541 280.513C266.577 279.971 266.525 279.416 266.381 278.868L262.307 281.473Z" fill="#683D89"/>
<path d="M265.479 277.697C265.515 277.155 265.464 276.599 265.319 276.051L262.144 278.08L261.614 276.668L264.419 274.874C264.455 274.332 264.404 273.777 264.259 273.229L261.084 275.257L259.18 270.186C258.763 270.68 258.44 271.253 258.236 271.862L259.816 276.069L258.547 276.88L256.163 270.532C255.746 271.026 255.424 271.599 255.219 272.208L257.278 277.691L254.439 279.508C254.403 280.05 254.455 280.605 254.599 281.153L257.809 279.103L258.476 280.88L255.036 283.079C255 283.621 255.052 284.176 255.197 284.724L258.797 282.422C259.09 282.236 259.294 281.944 259.374 281.619L259.691 280.286C259.725 280.147 259.718 279.999 259.665 279.856L259.077 278.291L260.346 277.48L261.405 280.3L265.478 277.694L265.479 277.697Z" fill="#683D89"/>
<path d="M445.598 298.776L293.825 284.983L291.254 313.279L443.027 327.071L445.598 298.776Z" fill="#3C1C54"/>
<path d="M447.086 282.414L295.312 268.622L293.41 289.561L445.183 303.353L447.086 282.414Z" fill="#AE72FF"/>
<path d="M439.962 301.97L298.781 289.145L300.522 269.977L441.702 282.801L439.962 301.97ZM301.155 287.166L437.985 299.595L439.33 284.779L302.501 272.35L301.155 287.166Z" fill="#3C1C54"/>
<path d="M296.711 295.178L440.91 308.277C440.91 308.277 338.896 295.453 296.711 295.178Z" fill="#3C1C54"/>
<path d="M301.187 299.33L414.91 309.66C414.91 309.66 334.562 298.384 301.187 299.33Z" fill="#3C1C54"/>
<path d="M327.563 306.254L441.287 316.584C441.287 316.584 360.939 305.309 327.563 306.254Z" fill="#3C1C54"/>
<path d="M386.051 275.817L356.536 273.135L354.539 295.111L384.054 297.793L386.051 275.817Z" fill="#3C1C54"/>
<path d="M384.055 297.793L354.54 295.11L352.337 319.359L381.851 322.041L384.055 297.793Z" fill="#1F0433"/>
<path d="M370.393 291.842C370.12 292.311 369.919 292.831 369.805 293.386L374.612 292.866C374.886 292.396 375.086 291.876 375.201 291.321L370.393 291.842Z" fill="#683D89"/>
<path d="M374.915 289.871C375.188 289.402 375.389 288.881 375.503 288.326L371.758 288.73L371.911 287.23L375.221 286.872C375.495 286.402 375.695 285.882 375.81 285.327L372.064 285.731L372.615 280.341C372.022 280.599 371.478 280.968 371.024 281.422L370.567 285.893L369.07 286.055L369.76 279.309C369.166 279.566 368.623 279.936 368.168 280.39L367.573 286.217L364.222 286.58C363.948 287.05 363.747 287.57 363.633 288.125L367.419 287.717L367.226 289.606L363.168 290.044C362.894 290.514 362.693 291.034 362.579 291.589L366.828 291.13C367.173 291.093 367.485 290.922 367.702 290.667L368.579 289.614C368.671 289.505 368.731 289.369 368.747 289.218L368.917 287.555L370.414 287.392L370.107 290.389L374.915 289.868L374.915 289.871Z" fill="#683D89"/>
<path d="M367.52 305.955L217.179 330.851L221.82 358.879L372.161 333.984L367.52 305.955Z" fill="#3C1C54"/>
<path d="M364.836 289.749L214.495 314.645L217.93 335.385L368.271 310.49L364.836 289.749Z" fill="#AE72FF"/>
<path d="M362.885 310.497L223.027 333.65L219.883 314.661L359.741 291.508L362.885 310.497ZM224.824 331.138L360.372 308.699L357.942 294.02L222.394 316.459L224.824 331.138Z" fill="#3C1C54"/>
<path d="M222.541 340.012L365.39 316.364C365.39 316.364 263.435 329.652 222.541 340.012Z" fill="#3C1C54"/>
<path d="M227.918 342.902L340.576 324.252C340.576 324.252 259.977 333.58 227.918 342.902Z" fill="#3C1C54"/>
<path d="M255.19 342.959L367.85 324.308C367.85 324.308 287.251 333.636 255.19 342.959Z" fill="#3C1C54"/>
<path d="M304.112 298.742L274.876 303.583L278.481 325.352L307.717 320.51L304.112 298.742Z" fill="#3C1C54"/>
<path d="M307.718 320.511L278.481 325.352L282.459 349.372L311.695 344.53L307.718 320.511Z" fill="#1F0433"/>
<path d="M415.572 333.476L263.676 345.762L265.371 366.717L417.267 354.431L415.572 333.476Z" fill="#3C1C54"/>
<path d="M414.248 317.1L262.352 329.386L264.047 350.342L415.943 338.057L414.248 317.1Z" fill="#AE72FF"/>
<path d="M410.572 337.599L269.272 349.027L267.721 329.843L409.021 318.415L410.572 337.599ZM271.274 346.675L408.22 335.598L407.02 320.769L270.075 331.845L271.274 346.675Z" fill="#3C1C54"/>
<path d="M268.262 355.327L412.584 343.654C412.584 343.654 309.875 348.406 268.262 355.327Z" fill="#3C1C54"/>
<path d="M273.378 358.655L387.198 349.449C387.198 349.449 306.104 352.033 273.378 358.655Z" fill="#3C1C54"/>
<path d="M300.552 360.982L414.372 351.776C414.372 351.776 333.278 354.36 300.552 360.982Z" fill="#3C1C54"/>
<path d="M352.985 321.006L323.446 323.395L325.225 345.389L354.764 342.999L352.985 321.006Z" fill="#3C1C54"/>
<path d="M354.764 342.999L325.226 345.388L326.572 362.037L356.111 359.648L354.764 342.999Z" fill="#1F0433"/>
<path d="M339.647 337.698C339.457 338.207 339.348 338.754 339.329 339.321L343.978 337.992C344.168 337.483 344.278 336.936 344.296 336.37L339.647 337.698Z" fill="#683D89"/>
<path d="M343.768 334.99C343.958 334.481 344.068 333.934 344.087 333.367L340.464 334.401L340.36 332.896L343.562 331.982C343.752 331.473 343.861 330.926 343.88 330.359L340.257 331.392L339.886 325.988C339.345 326.342 338.872 326.799 338.501 327.323L338.809 331.806L337.361 332.22L336.896 325.455C336.356 325.809 335.882 326.266 335.512 326.79L335.913 332.634L332.672 333.56C332.482 334.069 332.373 334.616 332.354 335.183L336.016 334.138L336.147 336.032L332.221 337.153C332.031 337.662 331.922 338.209 331.903 338.775L336.012 337.602C336.346 337.507 336.625 337.286 336.795 336.997L337.481 335.811C337.553 335.688 337.589 335.544 337.579 335.392L337.464 333.724L338.912 333.31L339.119 336.315L343.768 334.987L343.768 334.99Z" fill="#683D89"/>
<path d="M489.691 343.333L341.623 307.302L336.652 327.73L484.72 363.761L489.691 343.333Z" fill="#3C1C54"/>
<path d="M493.577 327.371L345.509 291.339L340.538 311.768L488.606 347.799L493.577 327.371Z" fill="#AE72FF"/>
<path d="M483.656 345.687L345.915 312.168L350.466 293.467L488.208 326.986L483.656 345.687ZM348.554 310.561L482.051 343.048L485.57 328.591L352.072 296.104L348.554 310.561Z" fill="#3C1C54"/>
<path d="M342.976 317.831L483.663 352.067C483.663 352.067 384.659 324.327 342.976 317.831Z" fill="#3C1C54"/>
<path d="M346.789 322.597L457.743 349.597C457.743 349.597 379.938 326.587 346.789 322.597Z" fill="#3C1C54"/>
<path d="M371.857 333.338L482.811 360.339C482.811 360.339 405.006 337.328 371.857 333.338Z" fill="#3C1C54"/>
<path d="M434.187 311.839L405.393 304.832L400.175 326.272L428.97 333.279L434.187 311.839Z" fill="#3C1C54"/>
<path d="M428.97 333.279L400.176 326.272L396.226 342.501L425.02 349.508L428.97 333.279Z" fill="#1F0433"/>
<path d="M349.895 349.843L197.504 349.77L197.494 370.793L349.885 370.867L349.895 349.843Z" fill="#3C1C54"/>
<path d="M349.905 333.416L197.514 333.342L197.504 354.365L349.895 354.439L349.905 333.416Z" fill="#AE72FF"/>
<path d="M344.585 353.545L202.824 353.479L202.832 334.232L344.593 334.296L344.585 353.545ZM205.01 351.296L342.403 351.359L342.409 336.48L205.016 336.418L205.01 351.296Z" fill="#3C1C54"/>
<path d="M201.304 359.676L346.096 359.743C346.096 359.743 243.342 356.152 201.304 359.676Z" fill="#3C1C54"/>
<path d="M206.135 363.407L320.327 363.459C320.327 363.459 239.289 359.461 206.135 363.407Z" fill="#3C1C54"/>
<path d="M233.031 367.93L347.223 367.982C347.223 367.982 266.185 363.984 233.031 367.93Z" fill="#3C1C54"/>
<path d="M288.527 332.34L258.893 332.325L258.882 354.391L288.517 354.405L288.527 332.34Z" fill="#3C1C54"/>
<path d="M288.517 354.404L258.882 354.39L258.874 371.093L288.509 371.108L288.517 354.404Z" fill="#1F0433"/>
<path d="M409.635 299.573C441.613 295.336 463.729 268.676 495.708 264.439C491.851 256.001 487.993 247.565 484.135 239.128C452.592 245.816 432.798 274.556 401.256 281.245C404.048 287.355 406.842 293.463 409.635 299.573Z" fill="#AE72FF"/>
<path d="M412.505 298.167L405.013 281.78L405.815 281.556C419.776 277.685 431.704 269.534 443.238 261.652C454.868 253.706 466.892 245.488 481.075 241.555L481.659 241.393L491.564 263.056L490.694 263.238C476.535 266.194 464.109 273.498 452.095 280.559C439.981 287.68 427.453 295.043 413.063 298.049L412.505 298.167ZM406.996 282.699L413.324 296.541C427.257 293.511 439.514 286.306 451.374 279.336C463.243 272.359 475.508 265.15 489.533 262.036L480.87 243.089C467.165 247.023 455.411 255.055 444.038 262.826C432.627 270.625 420.836 278.683 406.996 282.699Z" fill="#1F0433"/>
<path d="M512.851 223.187C474.444 238.577 434.028 241.352 393.894 231.271C395.98 223.071 398.068 214.873 400.154 206.673C434.77 214.206 468.881 210.958 501.427 196.944C505.234 205.692 509.042 214.441 512.851 223.187Z" fill="#AE72FF"/>
<path d="M455.779 234.788C437.084 236.3 418.199 234.991 399.253 230.853L398.585 230.707L403.4 209.185L404.048 209.31C436.15 215.491 467.814 212.546 498.163 200.555L498.791 200.307L507.959 223.021L507.302 223.265C490.374 229.538 473.158 233.382 455.779 234.788ZM400.213 229.669C436.056 237.372 471.699 234.87 506.173 222.231L498.034 202.068C467.838 213.867 436.354 216.794 404.44 210.769L400.213 229.669Z" fill="#1F0433"/>
<path d="M556.136 106.106C515.047 110.963 475.301 103.117 439.179 82.9317C443.329 75.5586 447.478 68.1856 451.628 60.8126C483.088 77.1008 516.868 82.8478 551.94 77.7932C553.339 87.2303 554.737 96.6675 556.136 106.106Z" fill="#AE72FF"/>
<path d="M498.013 102.444C479.569 99.036 461.675 92.8545 444.463 83.9247L443.856 83.6101L454.109 64.0841L454.702 64.374C484.087 78.701 515.425 84.1043 547.85 80.4322L548.521 80.3565L551.457 104.675L550.759 104.738C532.781 106.384 515.158 105.613 498.013 102.444ZM445.698 83.0302C478.298 99.8018 513.363 106.669 549.939 103.444L547.332 81.8587C515.105 85.3873 483.945 80.014 454.702 65.8861L445.698 83.0302Z" fill="#1F0433"/>
<path d="M130.91 113.193C170.873 102.475 204.878 80.4564 230.947 48.3203C224.36 43.0097 217.773 37.7011 211.186 32.3906C188.004 59.1795 158.76 77.0373 124.312 85.342C126.512 94.6258 128.712 103.91 130.91 113.193Z" fill="#AE72FF"/>
<path d="M135.395 109.929L134.723 110.128L128.438 86.4541L129.09 86.276C160.566 77.6689 187.67 61.0366 209.651 36.8385L210.096 36.3494L226.856 50.6851L226.409 51.2027C213.731 65.877 199.403 78.2495 183.537 88.2513C168.786 97.5479 152.704 104.796 135.395 109.929ZM210.213 38.2407C188.289 62.2022 161.34 78.7415 130.1 87.4093L135.679 108.424C170.846 97.8626 200.868 78.4884 224.93 50.8279L210.213 38.2407Z" fill="#1F0433"/>
<path d="M292.386 317.92C292.229 318.44 292.155 318.993 292.172 319.56L296.727 317.936C296.884 317.416 296.959 316.863 296.941 316.297L292.386 317.92Z" fill="#683D89"/>
<path d="M296.326 314.953C296.483 314.433 296.558 313.88 296.54 313.314L292.991 314.577L292.791 313.082L295.928 311.965C296.085 311.445 296.159 310.892 296.142 310.325L292.592 311.588L291.876 306.218C291.359 306.607 290.916 307.092 290.579 307.639L291.174 312.094L289.755 312.599L288.859 305.878C288.341 306.266 287.898 306.752 287.562 307.299L288.336 313.105L285.161 314.237C285.004 314.757 284.93 315.309 284.948 315.876L288.536 314.599L288.787 316.481L284.941 317.851C284.784 318.371 284.71 318.923 284.727 319.49L288.753 318.056C289.08 317.94 289.344 317.702 289.496 317.403L290.104 316.175C290.169 316.047 290.195 315.902 290.175 315.751L289.954 314.094L291.373 313.588L291.771 316.574L296.326 314.95L296.326 314.953Z" fill="#683D89"/>
<path d="M273.815 348.404C273.591 348.899 273.444 349.437 273.387 350.001L278.116 348.994C278.341 348.5 278.487 347.962 278.545 347.398L273.815 348.404Z" fill="#683D89"/>
<path d="M278.113 345.985C278.337 345.49 278.484 344.952 278.542 344.388L274.856 345.17L274.857 343.663L278.113 342.97C278.338 342.475 278.484 341.937 278.542 341.373L274.857 342.155L274.857 336.738C274.293 337.054 273.79 337.477 273.384 337.975L273.384 342.469L271.911 342.782L271.911 336.001C271.347 336.317 270.844 336.74 270.438 337.238L270.438 343.096L267.141 343.797C266.916 344.292 266.77 344.83 266.712 345.394L270.438 344.603L270.437 346.502L266.444 347.35C266.22 347.845 266.073 348.383 266.016 348.947L270.196 348.058C270.535 347.987 270.829 347.785 271.019 347.509L271.784 346.373C271.864 346.255 271.91 346.114 271.91 345.961L271.911 344.29L273.384 343.976L273.383 346.988L278.113 345.982L278.113 345.985Z" fill="#683D89"/>
<path d="M416.975 323.834C416.645 324.266 416.382 324.758 416.2 325.294L421.035 325.371C421.364 324.939 421.628 324.447 421.81 323.91L416.975 323.834Z" fill="#683D89"/>
<path d="M421.705 322.437C422.035 322.005 422.298 321.513 422.48 320.976L418.713 320.915L419.05 319.445L422.38 319.498C422.709 319.066 422.972 318.574 423.154 318.037L419.388 317.976L420.599 312.696C419.979 312.878 419.394 313.178 418.887 313.572L417.882 317.952L416.376 317.928L417.893 311.319C417.272 311.501 416.687 311.801 416.18 312.195L414.87 317.905L411.5 317.851C411.171 318.283 410.907 318.775 410.725 319.312L414.533 319.374L414.108 321.225L410.027 321.159C409.697 321.591 409.434 322.082 409.252 322.619L413.525 322.688C413.872 322.693 414.203 322.563 414.45 322.336L415.45 321.4C415.554 321.303 415.631 321.175 415.665 321.027L416.039 319.398L417.545 319.421L416.871 322.357L421.706 322.434L421.705 322.437Z" fill="#683D89"/>
</svg>
