<svg width="495" height="426" viewBox="0 0 495 426" fill="none" xmlns="http://www.w3.org/2000/svg">
<rect x="69.5" y="0.5" width="425" height="304" rx="8.5" stroke="#AE72FF"/>
<path d="M78 0.5H486C490.694 0.5 494.5 4.30558 494.5 9V42.5H69.5V9C69.5 4.30558 73.3056 0.5 78 0.5Z" fill="#AE72FF" stroke="#AE72FF"/>
<path fill-rule="evenodd" clip-rule="evenodd" d="M463.5 11.2304C462.857 11.2304 462.342 11.7451 462.342 12.3885C462.342 13.6936 462.752 14.9559 463.5 16.0037C464.248 14.9559 464.658 13.6936 464.658 12.3885C464.658 11.7451 464.143 11.2304 463.5 11.2304ZM465.044 17.6703C466.233 16.1814 466.895 14.3186 466.895 12.3946C466.895 10.4706 465.375 9 463.5 9C461.625 9 460.105 10.5196 460.105 12.3946C460.105 14.2696 460.767 16.1814 461.956 17.6703L459.67 19.9559C458.181 18.7672 456.319 18.1054 454.395 18.1054C452.471 18.1054 451 19.625 451 21.5C451 23.375 452.52 24.8946 454.395 24.8946C456.27 24.8946 458.181 24.2328 459.67 23.0441L461.956 25.3297C460.767 26.8186 460.105 28.6814 460.105 30.6054C460.105 32.5294 461.625 34 463.5 34C465.375 34 466.895 32.4804 466.895 30.6054C466.895 28.7304 466.233 26.8186 465.044 25.3297L467.33 23.0441C468.819 24.2328 470.681 24.8946 472.605 24.8946C474.529 24.8946 476 23.375 476 21.5C476 19.625 474.48 18.1054 472.605 18.1054C470.73 18.1054 468.819 18.7672 467.33 19.9559L465.044 17.6703ZM463.5 19.288L461.288 21.5L463.5 23.712L465.712 21.5L463.5 19.288ZM468.996 21.5C470.044 22.2475 471.306 22.6581 472.612 22.6581C473.255 22.6581 473.77 22.1434 473.77 21.5C473.77 20.8566 473.255 20.3419 472.612 20.3419C471.306 20.3419 470.044 20.7525 468.996 21.5ZM463.5 26.9963C462.752 28.0441 462.342 29.3064 462.342 30.6115C462.342 31.2549 462.857 31.7696 463.5 31.7696C464.143 31.7696 464.658 31.2549 464.658 30.6115C464.658 29.3064 464.248 28.0441 463.5 26.9963ZM458.004 21.5C456.956 20.7525 455.694 20.3419 454.388 20.3419C453.745 20.3419 453.23 20.8566 453.23 21.5C453.23 22.1434 453.745 22.6581 454.388 22.6581C455.694 22.6581 456.956 22.2475 458.004 21.5Z" fill="#1F0433"/>
<circle cx="96.5" cy="21.5" r="7.5" fill="#1F0433"/>
<circle cx="116.5" cy="21.5" r="7.5" fill="#1F0433"/>
<circle cx="136.5" cy="21.5" r="7.5" fill="#1F0433"/>
<rect x="0.5" y="90.5" width="444.21" height="160.498" rx="36.9698" fill="#1F0433" stroke="#AE72FF"/>
<rect x="45.1035" y="136.558" width="128.034" height="69.8369" rx="34.9185" fill="#3C1C54"/>
<g filter="url(#filter0_dd_726_2263)">
<circle cx="80.0225" cy="171.477" r="29.0987" fill="#AE72FF"/>
</g>
<path d="M91.6647 162.747L75.6604 178.751L68.3857 171.477" stroke="#3C1C54" stroke-width="4.84959" stroke-linecap="round" stroke-linejoin="round"/>
<circle cx="256.796" cy="167.839" r="46.7854" fill="#1F0433" stroke="#AE72FF"/>
<path opacity="0.4" d="M261.955 152.562H270.653L261.908 166.621H266.633V172.193H258.452L258.311 172.404V174.168H266.633V179.692H258.334V184.535H250.882V179.692H242.606V174.168H250.882V172.451L250.717 172.193H242.606V166.621H247.284L238.609 152.562H247.237L254.643 165.845L261.955 152.562Z" fill="#3C1C54"/>
<circle cx="304.809" cy="167.839" r="46.7854" fill="#1F0433" stroke="#AE72FF"/>
<path opacity="0.6" d="M315.901 174.649C315.901 179.628 312.392 182.699 306.93 183.598V187.042H300.547V183.664C293.572 182.699 290.918 178.159 290.918 173.881H297.871C297.871 176.36 299.867 178.027 303.42 178.027C307.303 178.027 308.86 176.886 308.86 174.627C308.86 172.565 306.732 171.71 302.872 170.833C297.849 169.626 291.664 167.652 291.664 161.335C291.664 156.773 294.603 153.439 300.547 152.693V148.898H306.93V152.869C312.238 153.899 314.87 157.233 314.87 161.927H307.917C307.917 160.26 306.732 158.593 303.091 158.593C299.385 158.593 298.617 160.019 298.617 161.379C298.617 163.287 300.591 164.23 305.285 165.108C311.273 166.314 315.901 168.837 315.901 174.649Z" fill="#3C1C54"/>
<circle cx="358.642" cy="167.839" r="46.7854" fill="#1F0433" stroke="#AE72FF"/>
<path d="M361.709 180.588C361.149 181.822 360.783 183.164 360.64 184.571L372.436 182.059C372.996 180.825 373.362 179.483 373.505 178.077L361.709 180.588Z" fill="#3C1C54"/>
<path d="M372.428 174.552C372.988 173.318 373.354 171.976 373.497 170.57L364.306 172.522V168.761L372.428 167.032C372.988 165.798 373.354 164.456 373.497 163.05L364.306 165.001V151.489C362.899 152.279 361.644 153.334 360.632 154.575V165.783L356.958 166.566V149.652C355.552 150.442 354.296 151.497 353.284 152.738V167.348L345.061 169.099C344.502 170.333 344.136 171.675 343.992 173.081L353.284 171.108V175.844L343.325 177.961C342.765 179.195 342.399 180.537 342.256 181.943L352.682 179.726C353.528 179.547 354.26 179.044 354.734 178.355L356.642 175.521C356.843 175.227 356.958 174.875 356.958 174.495V170.326L360.632 169.544V177.057L372.428 174.545V174.552Z" fill="#3C1C54"/>
<rect x="0.5" y="264.5" width="444.21" height="160.498" rx="36.9698" fill="#1F0433" stroke="#AE72FF"/>
<circle cx="256.796" cy="341.839" r="46.7854" fill="#1F0433" stroke="#AE72FF"/>
<g opacity="0.4">
<path d="M238.609 356.61H255.925V362.936L266.362 356.61H272.993V323.652H238.609V356.61Z" stroke="#3C1C54" stroke-miterlimit="10"/>
<path d="M247.338 336.121H264.33" stroke="#3C1C54" stroke-miterlimit="10"/>
<path d="M251.551 336.121C251.551 341.726 256.254 347.331 264.33 347.331" stroke="#3C1C54" stroke-miterlimit="10"/>
<path d="M260.117 336.121C260.117 341.726 255.414 347.331 247.338 347.331" stroke="#3C1C54" stroke-miterlimit="10"/>
<path d="M255.835 336.121V330.927" stroke="#3C1C54" stroke-miterlimit="10"/>
</g>
<rect x="45.1035" y="310.558" width="128.034" height="69.8369" rx="34.9185" fill="#3C1C54"/>
<g filter="url(#filter1_dd_726_2263)">
<circle cx="80.0225" cy="345.477" r="29.0987" fill="#AE72FF"/>
</g>
<path d="M91.6647 336.747L75.6604 352.751L68.3857 345.477" stroke="#3C1C54" stroke-width="4.84959" stroke-linecap="round" stroke-linejoin="round"/>
<circle cx="304.809" cy="341.839" r="46.7854" fill="#1F0433" stroke="#AE72FF"/>
<g opacity="0.6">
<path d="M288.077 356.61H305.393V362.936L315.83 356.61H322.461V323.652H288.077V356.61Z" stroke="#3C1C54" stroke-miterlimit="10"/>
</g>
<path opacity="0.6" d="M317.177 349.841H312.348L311.079 346.534H302.905L301.637 349.841H296.808L304.851 329.472H309.133L317.177 349.841ZM306.841 336.237L304.405 342.598H309.58L307.144 336.237L307.014 335.608H306.971L306.841 336.237Z" fill="#3C1C54"/>
<circle cx="358.642" cy="341.839" r="46.7854" fill="#1F0433" stroke="#AE72FF"/>
<path d="M341.729 356.61H359.044V362.936L369.481 356.61H376.112V323.652H341.729V356.61Z" stroke="#3C1C54" stroke-miterlimit="10"/>
<path d="M362.822 344.702L365.332 347.334C363.969 348.527 362.228 349.336 360.19 349.322C355.655 349.295 352.511 346.169 352.497 342.206C352.484 339.464 353.941 337.243 356.087 336.077C355.952 335.584 355.858 335.104 355.858 334.528C355.858 330.675 358.463 329.153 362.687 329.153H364.333V332.842H362.768C360.406 332.842 359.502 333.774 359.407 335.214H359.623C361.499 335.214 362.862 335.68 363.996 336.393L362.552 339.533C361.945 339.149 361.054 338.737 360.177 338.751C358.193 338.779 356.668 339.93 356.668 342.083C356.668 344.249 358.274 345.648 360.231 345.634C361.351 345.62 362.214 345.291 362.822 344.702Z" fill="#3C1C54"/>
<defs>
<filter id="filter0_dd_726_2263" x="47.9238" y="140.378" width="64.1973" height="64.1973" filterUnits="userSpaceOnUse" color-interpolation-filters="sRGB">
<feFlood flood-opacity="0" result="BackgroundImageFix"/>
<feColorMatrix in="SourceAlpha" type="matrix" values="0 0 0 0 0 0 0 0 0 0 0 0 0 0 0 0 0 0 127 0" result="hardAlpha"/>
<feOffset dy="1"/>
<feGaussianBlur stdDeviation="1"/>
<feColorMatrix type="matrix" values="0 0 0 0 0.0627451 0 0 0 0 0.0941176 0 0 0 0 0.156863 0 0 0 0.06 0"/>
<feBlend mode="normal" in2="BackgroundImageFix" result="effect1_dropShadow_726_2263"/>
<feColorMatrix in="SourceAlpha" type="matrix" values="0 0 0 0 0 0 0 0 0 0 0 0 0 0 0 0 0 0 127 0" result="hardAlpha"/>
<feOffset dy="1"/>
<feGaussianBlur stdDeviation="1.5"/>
<feColorMatrix type="matrix" values="0 0 0 0 0.0627451 0 0 0 0 0.0941176 0 0 0 0 0.156863 0 0 0 0.1 0"/>
<feBlend mode="normal" in2="effect1_dropShadow_726_2263" result="effect2_dropShadow_726_2263"/>
<feBlend mode="normal" in="SourceGraphic" in2="effect2_dropShadow_726_2263" result="shape"/>
</filter>
<filter id="filter1_dd_726_2263" x="47.9238" y="314.378" width="64.1973" height="64.1973" filterUnits="userSpaceOnUse" color-interpolation-filters="sRGB">
<feFlood flood-opacity="0" result="BackgroundImageFix"/>
<feColorMatrix in="SourceAlpha" type="matrix" values="0 0 0 0 0 0 0 0 0 0 0 0 0 0 0 0 0 0 127 0" result="hardAlpha"/>
<feOffset dy="1"/>
<feGaussianBlur stdDeviation="1"/>
<feColorMatrix type="matrix" values="0 0 0 0 0.0627451 0 0 0 0 0.0941176 0 0 0 0 0.156863 0 0 0 0.06 0"/>
<feBlend mode="normal" in2="BackgroundImageFix" result="effect1_dropShadow_726_2263"/>
<feColorMatrix in="SourceAlpha" type="matrix" values="0 0 0 0 0 0 0 0 0 0 0 0 0 0 0 0 0 0 127 0" result="hardAlpha"/>
<feOffset dy="1"/>
<feGaussianBlur stdDeviation="1.5"/>
<feColorMatrix type="matrix" values="0 0 0 0 0.0627451 0 0 0 0 0.0941176 0 0 0 0 0.156863 0 0 0 0.1 0"/>
<feBlend mode="normal" in2="effect1_dropShadow_726_2263" result="effect2_dropShadow_726_2263"/>
<feBlend mode="normal" in="SourceGraphic" in2="effect2_dropShadow_726_2263" result="shape"/>
</filter>
</defs>
</svg>
