<svg width="100" height="101" viewBox="0 0 100 101" fill="none" xmlns="http://www.w3.org/2000/svg">
<ellipse cx="50.8136" cy="49.9997" rx="49.1864" ry="49.9997" fill="#FBF9FF"/>
<path opacity="0.2" d="M72.5387 40.777C70.4033 40.777 68.471 39.8611 67.1064 38.3945C65.7418 39.8611 63.8147 40.777 61.6741 40.777C59.5335 40.777 57.6064 39.8611 56.2418 38.3945C54.8772 39.8611 52.9501 40.777 50.8095 40.777C48.6689 40.777 46.7418 39.8611 45.3772 38.3945C44.0126 39.8611 42.0855 40.777 39.9449 40.777C37.8043 40.777 35.8772 39.8611 34.5126 38.3945C33.148 39.8611 31.2209 40.777 29.0803 40.777C29.0022 40.777 28.9241 40.7664 28.8459 40.7664V90.8785C28.8459 92.3556 30.0282 93.5575 31.4814 93.5575H38.0178C39.0855 93.5575 40.0595 92.8904 40.4032 91.8579C41.0803 89.809 42.9397 88.2312 45.1272 88.2312H56.4866C58.6741 88.2312 60.5335 89.809 61.2106 91.8579C61.5491 92.8851 62.5283 93.5575 63.596 93.5575H70.1272C71.5804 93.5575 72.7626 92.3556 72.7626 90.8785V40.7664C72.6845 40.7664 72.6064 40.777 72.5283 40.777H72.5387Z" fill="url(#paint0_linear_12527_13463)"/>
<path d="M25.9403 14.2527V8.44466C25.9403 6.06215 27.8414 4.12968 30.1851 4.12968H37.6904C38.2477 4.12968 38.7008 4.59029 38.7008 5.1568C38.7008 6.13627 39.4872 6.93574 40.4508 6.93574H61.18C62.1435 6.93574 62.93 6.13627 62.93 5.1568C62.93 4.59029 63.3831 4.12968 63.9404 4.12968H71.4456C73.7893 4.12968 75.6904 6.06215 75.6904 8.44466V14.2527H78.8727V5.93508C78.8727 2.65782 76.2581 0 73.0341 0H28.5966C25.3726 0 22.7581 2.65782 22.7581 5.93508V14.2527H25.9403Z" fill="#E8DEFF"/>
<path d="M77.9664 38.3965C77.3258 38.9582 76.5498 39.4128 75.6956 39.7429V81.9803C75.6956 83.91 73.7945 85.4751 71.4508 85.4751H63.68C63.1227 85.4751 62.6695 85.102 62.6695 84.6432V82.6793C62.6695 81.8431 61.8414 81.1613 60.8258 81.1613H40.8102C39.7945 81.1613 38.9664 81.8431 38.9664 82.6793V84.6432C38.9664 85.102 38.5133 85.4751 37.956 85.4751H30.1851C27.8414 85.4751 25.9403 83.91 25.9403 81.9803V39.7429C25.081 39.4128 24.3101 38.9539 23.6695 38.3965C23.3883 38.6409 23.081 38.8596 22.7581 39.0611V84.0172C22.7581 86.6715 25.3726 88.8241 28.5966 88.8241H73.0341C76.2581 88.8241 78.8727 86.6715 78.8727 84.0172V39.0611C78.5498 38.8596 78.2425 38.6409 77.9612 38.3965H77.9664Z" fill="#E8DEFF"/>
<path d="M56.2279 82.8672H45.5768C45.1655 82.8672 44.832 83.1417 44.832 83.4804V86.0061C44.832 86.3447 45.1655 86.6192 45.5768 86.6192H56.2279C56.6392 86.6192 56.9727 86.3447 56.9727 86.0061V83.4804C56.9727 83.1417 56.6392 82.8672 56.2279 82.8672Z" fill="white"/>
<path d="M23.6653 30.5769H12.8059L22.759 24.0488H30.7747L23.6653 30.5769Z" fill="#D2B8FF"/>
<path d="M34.5289 30.5769H23.6643L30.7737 24.0488H38.7893L34.5289 30.5769Z" fill="#E1D7F8"/>
<path d="M45.3887 30.5769H34.5293L38.7897 24.0488H46.8106L45.3887 30.5769Z" fill="#D2B8FF"/>
<path d="M56.2481 30.5769H45.3887L46.8105 24.0488H54.8262L56.2481 30.5769Z" fill="#E1D7F8"/>
<path d="M67.1084 30.5769H56.249L54.8271 24.0488H62.8428L67.1084 30.5769Z" fill="#D2B8FF"/>
<path d="M77.9668 30.5769H67.1074L62.8418 24.0488H70.8626L77.9668 30.5769Z" fill="#E1D7F8"/>
<path d="M88.8311 30.5769H77.9665L70.8623 24.0488H78.8779L88.8311 30.5769Z" fill="#D2B8FF"/>
<path d="M30.7737 16.9336H22.7581V24.0493H30.7737V16.9336Z" fill="#E1D7F8"/>
<path d="M38.7903 16.9336H30.7747V24.0493H38.7903V16.9336Z" fill="#D2B8FF"/>
<path d="M46.8047 16.9336H38.7891V24.0493H46.8047V16.9336Z" fill="#E1D7F8"/>
<path d="M54.8252 16.9336H46.8096V24.0493H54.8252V16.9336Z" fill="#D2B8FF"/>
<path d="M62.8428 16.9336H54.8271V24.0493H62.8428V16.9336Z" fill="#E1D7F8"/>
<path d="M70.8574 16.9336H62.8418V24.0493H70.8574V16.9336Z" fill="#D2B8FF"/>
<path d="M78.8779 16.9336H70.8623V24.0493H78.8779V16.9336Z" fill="#E1D7F8"/>
<path d="M23.6653 31.7958C23.6653 34.8455 21.233 37.318 18.233 37.318C15.233 37.318 12.8059 34.8455 12.8059 31.7958V30.5781H23.6653V31.7958Z" fill="#D2B8FF"/>
<path d="M45.388 31.7958C45.388 34.8455 42.9557 37.318 39.9557 37.318C36.9557 37.318 34.5234 34.8455 34.5234 31.7958V30.5781H45.3828V31.7958H45.388Z" fill="#D2B8FF"/>
<path d="M67.1078 31.7958C67.1078 34.8455 64.6755 37.318 61.6755 37.318C58.6755 37.318 56.2432 34.8455 56.2432 31.7958V30.5781H67.1025V31.7958H67.1078Z" fill="#D2B8FF"/>
<path d="M88.8311 31.7958C88.8311 34.8455 86.3989 37.318 83.3988 37.318C80.3988 37.318 77.9666 34.8455 77.9666 31.7958V30.5781H88.8259V31.7958H88.8311Z" fill="#D2B8FF"/>
<path d="M34.5289 31.7958C34.5289 34.8455 32.0966 37.318 29.0966 37.318C26.0966 37.318 23.6643 34.8455 23.6643 31.7958V30.5781H34.5237V31.7958H34.5289Z" fill="#E1D7F8"/>
<path d="M56.2484 31.7958C56.2484 34.8455 53.8161 37.318 50.8161 37.318C47.8161 37.318 45.3838 34.8455 45.3838 31.7958V30.5781H56.2432V31.7958H56.2484Z" fill="#E1D7F8"/>
<path d="M77.9662 31.7958C77.9662 34.8455 75.5339 37.318 72.5339 37.318C69.5339 37.318 67.1016 34.8455 67.1016 31.7958V30.5781H77.9609V31.7958H77.9662Z" fill="#E1D7F8"/>
<path d="M23.6644 31.7949C23.8207 34.8128 21.1957 37.5023 18.2321 37.4494C15.2686 37.5023 12.6436 34.8181 12.7999 31.7949C12.8467 34.7122 15.3624 37.2482 18.2321 37.1847C21.0967 37.2482 23.6176 34.7122 23.6644 31.7949Z" fill="#E1D7F8"/>
<path d="M45.3898 31.7949C45.546 34.8128 42.921 37.5023 39.9575 37.4494C36.9939 37.5023 34.3689 34.8181 34.5252 31.7949C34.5721 34.7122 37.0877 37.2482 39.9575 37.1847C42.8221 37.2482 45.3429 34.7122 45.3898 31.7949Z" fill="#E1D7F8"/>
<path d="M67.1076 31.7949C67.2638 34.8128 64.6388 37.5023 61.6753 37.4494C58.7117 37.5023 56.0867 34.8181 56.243 31.7949C56.2898 34.7122 58.8055 37.2482 61.6753 37.1847C64.5398 37.2482 67.0607 34.7122 67.1076 31.7949Z" fill="#E1D7F8"/>
<path d="M88.8309 31.7949C88.9872 34.8128 86.3622 37.5023 83.3987 37.4494C80.4351 37.5023 77.8101 34.8181 77.9664 31.7949C78.0132 34.7122 80.5289 37.2482 83.3987 37.1847C86.2632 37.2482 88.7841 34.7122 88.8309 31.7949Z" fill="#E1D7F8"/>
<path d="M34.5297 31.7949C34.6859 34.8128 32.0609 37.5023 29.0974 37.4494C26.1338 37.5023 23.5088 34.8181 23.6651 31.7949C23.712 34.7122 26.2276 37.2482 29.0974 37.1847C31.962 37.2482 34.4828 34.7122 34.5297 31.7949Z" fill="#E1D7F8"/>
<path d="M56.2482 31.7949C56.4044 34.8128 53.7794 37.5023 50.8159 37.4494C47.8523 37.5023 45.2273 34.8181 45.3836 31.7949C45.4305 34.7122 47.9461 37.2482 50.8159 37.1847C53.6805 37.2482 56.2013 34.7122 56.2482 31.7949Z" fill="#D2B8FF"/>
<path d="M77.9669 31.7949C78.1232 34.8128 75.4982 37.5023 72.5346 37.4494C69.5711 37.5023 66.9461 34.8181 67.1023 31.7949C67.1492 34.7122 69.6648 37.2482 72.5346 37.1847C75.3992 37.2482 77.9201 34.7122 77.9669 31.7949Z" fill="#D2B8FF"/>
<path fill-rule="evenodd" clip-rule="evenodd" d="M50.497 45.4426C49.8604 45.4426 49.3511 45.9603 49.3511 46.6074C49.3511 47.9201 49.7573 49.1897 50.497 50.2436C51.2367 49.1897 51.6429 47.9201 51.6429 46.6074C51.6429 45.9603 51.1336 45.4426 50.497 45.4426ZM52.0248 51.9199C53.201 50.4223 53.8558 48.5487 53.8558 46.6135C53.8558 44.6783 52.3522 43.1992 50.497 43.1992C48.6418 43.1992 47.1382 44.7277 47.1382 46.6135C47.1382 48.4994 47.793 50.4223 48.9692 51.9199L46.7078 54.2187C45.2345 53.0231 43.3914 52.3575 41.4877 52.3575C39.584 52.3575 38.1289 53.8859 38.1289 55.7718C38.1289 57.6577 39.6325 59.1861 41.4877 59.1861C43.3429 59.1861 45.2345 58.5205 46.7078 57.3249L48.9692 59.6237C47.793 61.1213 47.1382 62.9949 47.1382 64.9301C47.1382 66.8653 48.6418 68.3444 50.497 68.3444C52.3522 68.3444 53.8558 66.816 53.8558 64.9301C53.8558 63.0442 53.201 61.1213 52.0248 59.6237L54.2863 57.3249C55.7595 58.5205 57.6026 59.1861 59.5063 59.1861C61.41 59.1861 62.8651 57.6577 62.8651 55.7718C62.8651 53.8859 61.3615 52.3575 59.5063 52.3575C57.6511 52.3575 55.7595 53.0231 54.2863 54.2187L52.0248 51.9199ZM50.497 53.547L48.3083 55.7718L50.497 57.9967L52.6857 55.7718L50.497 53.547ZM55.9353 55.7718C56.9721 56.5237 58.221 56.9366 59.5124 56.9366C60.149 56.9366 60.6582 56.4189 60.6582 55.7718C60.6582 55.1247 60.149 54.607 59.5124 54.607C58.221 54.607 56.9721 55.0199 55.9353 55.7718ZM50.497 61.3001C49.7573 62.3539 49.3511 63.6235 49.3511 64.9363C49.3511 65.5834 49.8604 66.1011 50.497 66.1011C51.1336 66.1011 51.6429 65.5834 51.6429 64.9363C51.6429 63.6235 51.2367 62.3539 50.497 61.3001ZM45.0587 55.7718C44.0219 55.0199 42.773 54.607 41.4816 54.607C40.845 54.607 40.3358 55.1247 40.3358 55.7718C40.3358 56.4189 40.845 56.9366 41.4816 56.9366C42.773 56.9366 44.0219 56.5237 45.0587 55.7718Z" fill="#EADDFF"/>
<mask id="mask0_12527_13463" style="mask-type:alpha" maskUnits="userSpaceOnUse" x="1" y="0" width="99" height="100">
<ellipse cx="50.8136" cy="49.9997" rx="49.1864" ry="49.9997" fill="#FBF9FF"/>
</mask>
<g mask="url(#mask0_12527_13463)">
<path opacity="0.2" d="M72.5387 40.777C70.4033 40.777 68.471 39.8611 67.1064 38.3945C65.7418 39.8611 63.8147 40.777 61.6741 40.777C59.5335 40.777 57.6064 39.8611 56.2418 38.3945C54.8772 39.8611 52.9501 40.777 50.8095 40.777C48.6689 40.777 46.7418 39.8611 45.3772 38.3945C44.0126 39.8611 42.0855 40.777 39.9449 40.777C37.8043 40.777 35.8772 39.8611 34.5126 38.3945C33.148 39.8611 31.2209 40.777 29.0803 40.777C29.0022 40.777 28.9241 40.7664 28.8459 40.7664V90.8785C28.8459 92.3556 30.0282 93.5575 31.4814 93.5575H38.0178C39.0855 93.5575 40.0595 92.8904 40.4032 91.8579C41.0803 89.809 42.9397 88.2312 45.1272 88.2312H56.4866C58.6741 88.2312 60.5335 89.809 61.2106 91.8579C61.5491 92.8851 62.5283 93.5575 63.596 93.5575H70.1272C71.5804 93.5575 72.7626 92.3556 72.7626 90.8785V40.7664C72.6845 40.7664 72.6064 40.777 72.5283 40.777H72.5387Z" fill="url(#paint1_linear_12527_13463)"/>
<path d="M25.9403 14.2527V8.44466C25.9403 6.06215 27.8414 4.12968 30.1851 4.12968H37.6904C38.2477 4.12968 38.7008 4.59029 38.7008 5.1568C38.7008 6.13627 39.4872 6.93574 40.4508 6.93574H61.18C62.1435 6.93574 62.93 6.13627 62.93 5.1568C62.93 4.59029 63.3831 4.12968 63.9404 4.12968H71.4456C73.7893 4.12968 75.6904 6.06215 75.6904 8.44466V14.2527H78.8727V5.93508C78.8727 2.65782 76.2581 0 73.0341 0H28.5966C25.3726 0 22.7581 2.65782 22.7581 5.93508V14.2527H25.9403Z" fill="#E8DEFF"/>
<path d="M77.9664 38.3965C77.3258 39.0901 76.5498 39.6513 75.6956 40.0589V92.2093C75.6956 94.5918 73.7945 96.5243 71.4508 96.5243H63.68C63.1227 96.5243 62.6695 96.0637 62.6695 95.4972V93.0723C62.6695 92.0399 61.8414 91.1981 60.8258 91.1981H40.8102C39.7945 91.1981 38.9664 92.0399 38.9664 93.0723V95.4972C38.9664 96.0637 38.5133 96.5243 37.956 96.5243H30.1851C27.8414 96.5243 25.9403 94.5918 25.9403 92.2093V40.0589C25.081 39.6513 24.3101 39.0848 23.6695 38.3965C23.3883 38.6983 23.081 38.9683 22.7581 39.2171V94.7242C22.7581 98.0015 25.3726 100.659 28.5966 100.659H73.0341C76.2581 100.659 78.8727 98.0015 78.8727 94.7242V39.2171C78.5498 38.9683 78.2425 38.6983 77.9612 38.3965H77.9664Z" fill="#E8DEFF"/>
<path d="M56.2259 93.3066H45.5749C45.1635 93.3066 44.8301 93.6456 44.8301 94.0638V97.1822C44.8301 97.6003 45.1635 97.9393 45.5749 97.9393H56.2259C56.6373 97.9393 56.9707 97.6003 56.9707 97.1822V94.0638C56.9707 93.6456 56.6373 93.3066 56.2259 93.3066Z" fill="white"/>
<path d="M23.6653 30.5769H12.8059L22.759 24.0488H30.7747L23.6653 30.5769Z" fill="#D8C2FF"/>
<path d="M34.5289 30.5769H23.6643L30.7737 24.0488H38.7893L34.5289 30.5769Z" fill="#EDE6FF"/>
<path d="M45.3887 30.5769H34.5293L38.7897 24.0488H46.8106L45.3887 30.5769Z" fill="#D8C2FF"/>
<path d="M56.2481 30.5769H45.3887L46.8105 24.0488H54.8262L56.2481 30.5769Z" fill="#EDE6FF"/>
<path d="M67.1084 30.5769H56.249L54.8271 24.0488H62.8428L67.1084 30.5769Z" fill="#D8C2FF"/>
<path d="M77.9668 30.5769H67.1074L62.8418 24.0488H70.8626L77.9668 30.5769Z" fill="#EDE6FF"/>
<path d="M88.8311 30.5769H77.9665L70.8623 24.0488H78.8779L88.8311 30.5769Z" fill="#D8C2FF"/>
<path d="M30.7737 16.9336H22.7581V24.0493H30.7737V16.9336Z" fill="#EDE6FF"/>
<path d="M38.7903 16.9336H30.7747V24.0493H38.7903V16.9336Z" fill="#D8C2FF"/>
<path d="M46.8047 16.9336H38.7891V24.0493H46.8047V16.9336Z" fill="#EDE6FF"/>
<path d="M54.8252 16.9336H46.8096V24.0493H54.8252V16.9336Z" fill="#D8C2FF"/>
<path d="M62.8428 16.9336H54.8271V24.0493H62.8428V16.9336Z" fill="#EDE6FF"/>
<path d="M70.8574 16.9336H62.8418V24.0493H70.8574V16.9336Z" fill="#D8C2FF"/>
<path d="M78.8779 16.9336H70.8623V24.0493H78.8779V16.9336Z" fill="#EDE6FF"/>
<path d="M23.6653 31.7958C23.6653 34.8455 21.233 37.318 18.233 37.318C15.233 37.318 12.8059 34.8455 12.8059 31.7958V30.5781H23.6653V31.7958Z" fill="#D8C2FF"/>
<path d="M45.388 31.7958C45.388 34.8455 42.9557 37.318 39.9557 37.318C36.9557 37.318 34.5234 34.8455 34.5234 31.7958V30.5781H45.3828V31.7958H45.388Z" fill="#D8C2FF"/>
<path d="M67.1078 31.7958C67.1078 34.8455 64.6755 37.318 61.6755 37.318C58.6755 37.318 56.2432 34.8455 56.2432 31.7958V30.5781H67.1025V31.7958H67.1078Z" fill="#D8C2FF"/>
<path d="M88.8311 31.7958C88.8311 34.8455 86.3989 37.318 83.3988 37.318C80.3988 37.318 77.9666 34.8455 77.9666 31.7958V30.5781H88.8259V31.7958H88.8311Z" fill="#D8C2FF"/>
<path d="M34.5289 31.7958C34.5289 34.8455 32.0966 37.318 29.0966 37.318C26.0966 37.318 23.6643 34.8455 23.6643 31.7958V30.5781H34.5237V31.7958H34.5289Z" fill="#EDE6FF"/>
<path d="M56.2484 31.7958C56.2484 34.8455 53.8161 37.318 50.8161 37.318C47.8161 37.318 45.3838 34.8455 45.3838 31.7958V30.5781H56.2432V31.7958H56.2484Z" fill="#EDE6FF"/>
<path d="M77.9662 31.7958C77.9662 34.8455 75.5339 37.318 72.5339 37.318C69.5339 37.318 67.1016 34.8455 67.1016 31.7958V30.5781H77.9609V31.7958H77.9662Z" fill="#EDE6FF"/>
<path d="M23.6644 31.7949C23.8207 34.8128 21.1957 37.5023 18.2321 37.4494C15.2686 37.5023 12.6436 34.8181 12.7999 31.7949C12.8467 34.7122 15.3624 37.2482 18.2321 37.1847C21.0967 37.2482 23.6176 34.7122 23.6644 31.7949Z" fill="#EDE6FF"/>
<path d="M45.3898 31.7949C45.546 34.8128 42.921 37.5023 39.9575 37.4494C36.9939 37.5023 34.3689 34.8181 34.5252 31.7949C34.5721 34.7122 37.0877 37.2482 39.9575 37.1847C42.8221 37.2482 45.3429 34.7122 45.3898 31.7949Z" fill="#EDE6FF"/>
<path d="M67.1076 31.7949C67.2638 34.8128 64.6388 37.5023 61.6753 37.4494C58.7117 37.5023 56.0867 34.8181 56.243 31.7949C56.2898 34.7122 58.8055 37.2482 61.6753 37.1847C64.5398 37.2482 67.0607 34.7122 67.1076 31.7949Z" fill="#EDE6FF"/>
<path d="M88.8309 31.7949C88.9872 34.8128 86.3622 37.5023 83.3987 37.4494C80.4351 37.5023 77.8101 34.8181 77.9664 31.7949C78.0132 34.7122 80.5289 37.2482 83.3987 37.1847C86.2632 37.2482 88.7841 34.7122 88.8309 31.7949Z" fill="#EDE6FF"/>
<path d="M34.5297 31.7949C34.6859 34.8128 32.0609 37.5023 29.0974 37.4494C26.1338 37.5023 23.5088 34.8181 23.6651 31.7949C23.712 34.7122 26.2276 37.2482 29.0974 37.1847C31.962 37.2482 34.4828 34.7122 34.5297 31.7949Z" fill="#EDE6FF"/>
<path d="M56.2482 31.7949C56.4044 34.8128 53.7794 37.5023 50.8159 37.4494C47.8523 37.5023 45.2273 34.8181 45.3836 31.7949C45.4305 34.7122 47.9461 37.2482 50.8159 37.1847C53.6805 37.2482 56.2013 34.7122 56.2482 31.7949Z" fill="#D8C2FF"/>
<path d="M77.9669 31.7949C78.1232 34.8128 75.4982 37.5023 72.5346 37.4494C69.5711 37.5023 66.9461 34.8181 67.1023 31.7949C67.1492 34.7122 69.6648 37.2482 72.5346 37.1847C75.3992 37.2482 77.9201 34.7122 77.9669 31.7949Z" fill="#D8C2FF"/>
<path fill-rule="evenodd" clip-rule="evenodd" d="M50.497 45.4426C49.8604 45.4426 49.3511 45.9603 49.3511 46.6074C49.3511 47.9201 49.7573 49.1897 50.497 50.2436C51.2367 49.1897 51.6429 47.9201 51.6429 46.6074C51.6429 45.9603 51.1336 45.4426 50.497 45.4426ZM52.0248 51.9199C53.201 50.4223 53.8558 48.5487 53.8558 46.6135C53.8558 44.6783 52.3522 43.1992 50.497 43.1992C48.6418 43.1992 47.1382 44.7277 47.1382 46.6135C47.1382 48.4994 47.793 50.4223 48.9692 51.9199L46.7078 54.2187C45.2345 53.0231 43.3914 52.3575 41.4877 52.3575C39.584 52.3575 38.1289 53.8859 38.1289 55.7718C38.1289 57.6577 39.6325 59.1861 41.4877 59.1861C43.3429 59.1861 45.2345 58.5205 46.7078 57.3249L48.9692 59.6237C47.793 61.1213 47.1382 62.9949 47.1382 64.9301C47.1382 66.8653 48.6418 68.3444 50.497 68.3444C52.3522 68.3444 53.8558 66.816 53.8558 64.9301C53.8558 63.0442 53.201 61.1213 52.0248 59.6237L54.2863 57.3249C55.7595 58.5205 57.6026 59.1861 59.5063 59.1861C61.41 59.1861 62.8651 57.6577 62.8651 55.7718C62.8651 53.8859 61.3615 52.3575 59.5063 52.3575C57.6511 52.3575 55.7595 53.0231 54.2863 54.2187L52.0248 51.9199ZM50.497 53.547L48.3083 55.7718L50.497 57.9967L52.6857 55.7718L50.497 53.547ZM55.9353 55.7718C56.9721 56.5237 58.221 56.9366 59.5124 56.9366C60.149 56.9366 60.6582 56.4189 60.6582 55.7718C60.6582 55.1247 60.149 54.607 59.5124 54.607C58.221 54.607 56.9721 55.0199 55.9353 55.7718ZM50.497 61.3001C49.7573 62.3539 49.3511 63.6235 49.3511 64.9363C49.3511 65.5834 49.8604 66.1011 50.497 66.1011C51.1336 66.1011 51.6429 65.5834 51.6429 64.9363C51.6429 63.6235 51.2367 62.3539 50.497 61.3001ZM45.0587 55.7718C44.0219 55.0199 42.773 54.607 41.4816 54.607C40.845 54.607 40.3358 55.1247 40.3358 55.7718C40.3358 56.4189 40.845 56.9366 41.4816 56.9366C42.773 56.9366 44.0219 56.5237 45.0587 55.7718Z" fill="#EADDFF"/>
<mask id="path-69-inside-1_12527_13463" fill="white">
<path d="M24.7073 65.8809C25.6038 65.8721 26.483 66.3077 27.0159 67.1221L35.511 80.0723H66.0471L74.5403 67.123C75.0731 66.3086 75.9524 65.8731 76.8489 65.8818H100.084C101.596 65.8818 102.821 67.1275 102.822 68.6641V130.157C102.821 131.694 101.596 132.939 100.084 132.939H30.2874C30.2808 132.939 30.2743 132.939 30.2678 132.938H1.47192C-0.0395628 132.938 -1.26518 131.693 -1.26538 130.156V68.6631C-1.26521 67.1266 -0.0395839 65.881 1.47192 65.8809H24.7073Z"/>
</mask>
<path d="M24.7073 65.8809C25.6038 65.8721 26.483 66.3077 27.0159 67.1221L35.511 80.0723H66.0471L74.5403 67.123C75.0731 66.3086 75.9524 65.8731 76.8489 65.8818H100.084C101.596 65.8818 102.821 67.1275 102.822 68.6641V130.157C102.821 131.694 101.596 132.939 100.084 132.939H30.2874C30.2808 132.939 30.2743 132.939 30.2678 132.938H1.47192C-0.0395628 132.938 -1.26518 131.693 -1.26538 130.156V68.6631C-1.26521 67.1266 -0.0395839 65.881 1.47192 65.8809H24.7073Z" fill="#D2B8FF"/>
<path d="M24.7073 65.8809V66.2926L24.7113 66.2926L24.7073 65.8809ZM27.0159 67.1221L26.6713 67.3475L26.6716 67.3479L27.0159 67.1221ZM35.511 80.0723L35.1667 80.2981L35.2886 80.484H35.511V80.0723ZM66.0471 80.0723V80.484H66.2695L66.3914 80.2981L66.0471 80.0723ZM74.5403 67.123L74.8846 67.3489L74.8849 67.3485L74.5403 67.123ZM76.8489 65.8818L76.8449 66.2936H76.8489V65.8818ZM102.822 68.6641H103.233V68.664L102.822 68.6641ZM102.822 130.157L103.233 130.157V130.157H102.822ZM30.2874 132.939L30.2873 133.351H30.2874V132.939ZM30.2678 132.938L30.2708 132.527H30.2678V132.938ZM1.47192 132.938L1.47187 133.35H1.47192V132.938ZM-1.26538 130.156H-1.67715V130.156L-1.26538 130.156ZM-1.26538 68.6631L-1.67715 68.663V68.6631H-1.26538ZM1.47192 65.8809V65.4691H1.47187L1.47192 65.8809ZM24.7073 65.8809L24.7113 66.2926C25.4716 66.2851 26.2176 66.654 26.6713 67.3475L27.0159 67.1221L27.3604 66.8966C26.7485 65.9613 25.736 65.459 24.7032 65.4691L24.7073 65.8809ZM27.0159 67.1221L26.6716 67.3479L35.1667 80.2981L35.511 80.0723L35.8553 79.8464L27.3602 66.8962L27.0159 67.1221ZM35.511 80.0723V80.484H66.0471V80.0723V79.6605H35.511V80.0723ZM66.0471 80.0723L66.3914 80.2981L74.8846 67.3489L74.5403 67.123L74.196 66.8972L65.7028 79.8464L66.0471 80.0723ZM74.5403 67.123L74.8849 67.3485C75.3385 66.655 76.0845 66.2862 76.8449 66.2936L76.8489 65.8818L76.8529 65.4701C75.8202 65.46 74.8076 65.9623 74.1957 66.8976L74.5403 67.123ZM76.8489 65.8818V66.2936H100.084V65.8818V65.4701H76.8489V65.8818ZM100.084 65.8818V66.2936C101.362 66.2936 102.41 67.3486 102.41 68.6641L102.822 68.6641L103.233 68.664C103.233 66.9065 101.83 65.4701 100.084 65.4701V65.8818ZM102.822 68.6641H102.41V130.157H102.822H103.233V68.6641H102.822ZM102.822 130.157L102.41 130.157C102.41 131.473 101.362 132.528 100.084 132.528V132.939V133.351C101.83 133.351 103.233 131.915 103.233 130.157L102.822 130.157ZM100.084 132.939V132.528H30.2874V132.939V133.351H100.084V132.939ZM30.2874 132.939L30.2874 132.528C30.2953 132.528 30.3015 132.528 30.3047 132.528C30.3075 132.528 30.3096 132.528 30.3076 132.528C30.3069 132.528 30.3019 132.528 30.2964 132.528C30.2905 132.527 30.2815 132.527 30.2708 132.527L30.2678 132.938L30.2649 133.35C30.2574 133.35 30.2517 133.35 30.249 133.35C30.2468 133.35 30.245 133.349 30.2475 133.35C30.2489 133.35 30.2542 133.35 30.2603 133.35C30.2667 133.351 30.2761 133.351 30.2873 133.351L30.2874 132.939ZM30.2678 132.938V132.527H1.47192V132.938V133.35H30.2678V132.938ZM1.47192 132.938L1.47197 132.527C0.19414 132.527 -0.853442 131.472 -0.853616 130.156L-1.26538 130.156L-1.67715 130.156C-1.67691 131.914 -0.273265 133.35 1.47187 133.35L1.47192 132.938ZM-1.26538 130.156H-0.853616V68.6631H-1.26538H-1.67715V130.156H-1.26538ZM-1.26538 68.6631L-0.853616 68.6631C-0.853471 67.3477 0.194109 66.2928 1.47197 66.2926L1.47192 65.8809L1.47187 65.4691C-0.273277 65.4693 -1.67695 66.9055 -1.67715 68.663L-1.26538 68.6631ZM1.47192 65.8809V66.2926H24.7073V65.8809V65.4691H1.47192V65.8809Z" fill="#E1D7F8" mask="url(#path-69-inside-1_12527_13463)"/>
</g>
<path d="M15.9728 52.5094L9.68853 51.9928L9.74978 51.2228L14.7778 45.6129L10.4433 45.2566L10.5234 44.2503L16.4102 44.7342L16.3483 45.5118L11.3353 51.123L16.0522 51.5107L15.9728 52.5094Z" fill="#D2B8FF"/>
<path d="M8.55091 45.7077L-7.9376e-06 45.1551L0.0655139 44.1075L6.76857 36.3652L0.870683 35.984L0.956315 34.6148L8.96643 35.1325L8.90026 36.1905L2.2176 43.9341L8.6359 44.3489L8.55091 45.7077Z" fill="#D2B8FF"/>
<defs>
<linearGradient id="paint0_linear_12527_13463" x1="2.40843" y1="17.1691" x2="47.5111" y2="61.5381" gradientUnits="userSpaceOnUse">
<stop stop-color="white"/>
<stop offset="1" stop-color="white" stop-opacity="0"/>
</linearGradient>
<linearGradient id="paint1_linear_12527_13463" x1="2.40843" y1="17.1691" x2="47.5111" y2="61.5381" gradientUnits="userSpaceOnUse">
<stop stop-color="white"/>
<stop offset="1" stop-color="white" stop-opacity="0"/>
</linearGradient>
</defs>
</svg>
