<svg width="679" height="534" viewBox="0 0 679 534" fill="none" xmlns="http://www.w3.org/2000/svg">
<rect x="90.4346" y="0.5" width="498" height="533" rx="28.175" fill="#1F0433" stroke="#AE72FF"/>
<circle cx="160.934" cy="69" r="37.5" stroke="#AE72FF"/>
<rect x="214.935" y="55" width="110" height="28" rx="5" fill="#2E1044"/>
<path d="M524.899 53.0151L519.934 48.1304L522.1 46L527.065 50.8847H550.403C551.249 50.8847 551.934 51.5592 551.934 52.3911C551.934 52.5377 551.912 52.6836 551.87 52.824L548.195 64.8752C548 65.5124 547.404 65.9488 546.728 65.9488H527.962V68.9616H544.805V71.9744H526.43C525.585 71.9744 524.899 71.2998 524.899 70.468V53.0151ZM527.196 78C525.928 78 524.899 76.9883 524.899 75.7404C524.899 74.4923 525.928 73.4808 527.196 73.4808C528.465 73.4808 529.493 74.4923 529.493 75.7404C529.493 76.9883 528.465 78 527.196 78ZM545.571 78C544.302 78 543.274 76.9883 543.274 75.7404C543.274 74.4923 544.302 73.4808 545.571 73.4808C546.839 73.4808 547.867 74.4923 547.867 75.7404C547.867 76.9883 546.839 78 545.571 78Z" fill="#AE72FF"/>
<path d="M484.188 69.0257L490.935 75.7722L488.707 78L481.96 71.2535C479.535 73.1943 476.458 74.3552 473.112 74.3552C465.286 74.3552 458.935 68.0037 458.935 60.1776C458.935 52.3516 465.286 46 473.112 46C480.938 46 487.29 52.3516 487.29 60.1776C487.29 63.5235 486.129 66.5999 484.188 69.0257ZM481.028 67.8569C482.954 65.8717 484.139 63.1637 484.139 60.1776C484.139 54.0852 479.205 49.1506 473.112 49.1506C467.02 49.1506 462.085 54.0852 462.085 60.1776C462.085 66.2701 467.02 71.2047 473.112 71.2047C476.098 71.2047 478.806 70.0193 480.791 68.093L481.028 67.8569Z" fill="#AE72FF"/>
<g opacity="0.21">
<path fill-rule="evenodd" clip-rule="evenodd" d="M151.585 68.896C149.919 67.7049 147.91 67.0514 145.837 67.0514C144.814 67.0514 143.992 67.8731 143.992 68.896C143.992 69.9188 144.814 70.7405 145.837 70.7405C147.91 70.7405 149.919 70.087 151.585 68.896ZM160.331 77.6413C159.139 79.308 158.486 81.3169 158.486 83.3897C158.486 84.4125 159.308 85.2342 160.331 85.2342C161.353 85.2342 162.175 84.4125 162.175 83.3897C162.175 81.3169 161.522 79.308 160.331 77.6413ZM169.076 68.896C170.743 70.087 172.751 70.7405 174.824 70.7405C175.847 70.7405 176.669 69.9188 176.669 68.896C176.669 67.8731 175.847 67.0514 174.824 67.0514C172.751 67.0514 170.743 67.7049 169.076 68.896ZM160.331 65.3731L156.808 68.896L160.331 72.4188L163.853 68.896L160.331 65.3731ZM162.788 62.7976C164.683 60.4271 165.733 57.4669 165.733 54.4023C165.733 51.3376 163.318 49 160.331 49C157.343 49 154.928 51.415 154.928 54.4023C154.928 57.3896 155.978 60.4271 157.873 62.7976L154.234 66.4365C151.864 64.5417 148.903 63.4918 145.839 63.4918C142.774 63.4918 140.435 65.9087 140.435 68.896C140.435 71.8833 142.85 74.2982 145.837 74.2982C148.824 74.2982 151.862 73.2483 154.232 71.3535L157.871 74.9924C155.976 77.3629 154.926 80.3231 154.926 83.3877C154.926 86.4524 157.341 88.79 160.329 88.79C163.316 88.79 165.731 86.375 165.731 83.3877C165.731 80.4004 164.681 77.3629 162.786 74.9924L166.425 71.3535C168.795 73.2483 171.756 74.2982 174.82 74.2982C177.885 74.2982 180.223 71.8833 180.223 68.896C180.223 65.9087 177.808 63.4937 174.82 63.4937C171.833 63.4937 168.795 64.5436 166.425 66.4385L162.786 62.7996L162.788 62.7976ZM160.331 52.5577C159.308 52.5577 158.486 53.3794 158.486 54.4023C158.486 56.475 159.139 58.4839 160.331 60.1506C161.522 58.4839 162.175 56.475 162.175 54.4023C162.175 53.3794 161.353 52.5577 160.331 52.5577Z" fill="#AE72FF"/>
</g>
<rect x="233.6" y="173.5" width="211.75" height="284.825" rx="28.175" fill="#1F0433" stroke="#AE72FF"/>
<rect x="466.7" y="173.5" width="211.75" height="284.825" rx="28.175" fill="#1F0433" stroke="#AE72FF"/>
<rect x="0.5" y="173.5" width="211.75" height="284.825" rx="28.175" fill="#1F0433" stroke="#AE72FF"/>
<rect x="25" y="381" width="162" height="28" rx="5" fill="#2E1044"/>
<rect x="258" y="381" width="162" height="28" rx="5" fill="#2E1044"/>
<rect x="492" y="381" width="162" height="28" rx="5" fill="#2E1044"/>
<rect x="25" y="199" width="162" height="158" rx="17" fill="#2E1044"/>
<rect x="258" y="199" width="162" height="158" rx="17" fill="#2E1044"/>
<rect x="492" y="199" width="162" height="158" rx="17" fill="#2E1044"/>
<path d="M390.203 307.058L390.032 306.578C389.968 306.395 389.909 306.201 389.838 306.063L389.437 305.139C389.168 304.52 388.828 303.871 388.525 303.234C387.279 300.683 385.969 298.098 384.647 295.489C384.48 295.165 384.319 294.844 384.156 294.529C383.985 294.197 383.818 293.874 383.645 293.549C382.245 290.887 380.657 287.863 378.908 284.516C371.933 271.11 362.292 252.594 351.662 232.162C350.321 229.614 348.989 227.096 347.685 224.621C347.35 224.001 347.018 223.389 346.693 222.779C346.363 222.16 346.034 221.562 345.695 220.995C345.53 220.706 345.37 220.426 345.154 220.107C344.973 219.806 344.815 219.54 344.644 219.377C344.343 219.072 343.779 219.041 343.135 219.133C342.546 219.222 341.927 219.429 341.295 219.653C340.667 219.865 340.049 220.107 339.428 220.341C338.187 220.823 336.971 221.313 335.767 221.807C333.354 222.807 331.003 223.806 328.713 224.805C319.571 228.784 311.403 232.548 304.591 235.784C297.771 239.025 292.303 241.752 288.6 243.772C286.748 244.775 285.335 245.608 284.407 246.21C283.775 246.623 283.389 246.945 283.191 247.099C283.324 247.424 283.433 247.696 283.524 247.92C283.522 247.926 283.52 247.933 283.53 247.943C283.843 248.529 284.286 249.406 284.85 250.538C285.968 252.832 287.591 256.152 289.594 260.247C293.551 268.464 299.028 279.812 305.066 292.345C311.113 304.874 316.59 316.222 320.56 324.443C322.53 328.555 324.136 331.883 325.239 334.186C326.191 336.198 326.746 337.442 326.814 337.761L326.839 337.809C326.968 337.722 327.483 337.481 328.357 337.071C329.388 336.61 330.911 335.92 332.873 335.04C336.798 333.3 342.488 330.786 349.509 327.677C356.532 324.561 364.899 320.854 374.123 316.617C376.426 315.556 378.78 314.463 381.178 313.316C383.564 312.166 386.018 310.99 388.385 309.645C388.651 309.467 388.977 309.293 389.202 309.115C389.426 308.964 389.683 308.708 389.877 308.48C390.078 308.254 390.221 308.016 390.279 307.791C390.334 307.579 390.302 307.359 390.203 307.058ZM290.367 252.337C290.145 252.631 289.773 252.823 289.345 252.916C288.889 253.034 288.499 252.964 288.126 252.716C287.383 252.23 287.145 251.134 287.583 250.565C287.792 250.267 288.146 250.09 288.486 249.975C288.827 249.881 289.179 249.899 289.481 249.968C289.665 250.007 289.824 250.078 289.966 250.143L289.976 250.153C290.075 250.225 290.174 250.317 290.26 250.426C290.643 250.879 290.837 251.731 290.367 252.337ZM294.151 259.783C293.929 260.077 293.557 260.269 293.129 260.362C292.673 260.48 292.277 260.408 291.91 260.162C291.167 259.675 290.929 258.58 291.367 258.011C291.577 257.713 291.93 257.535 292.271 257.421C292.611 257.327 292.964 257.345 293.266 257.414C293.449 257.452 293.609 257.523 293.75 257.589L293.762 257.593C293.861 257.665 293.96 257.757 294.047 257.866C294.429 258.318 294.623 259.17 294.153 259.777L294.151 259.783ZM297.501 267.428C297.273 267.719 296.901 267.911 296.473 268.005C296.016 268.122 295.627 268.052 295.259 267.807C294.517 267.32 294.278 266.225 294.716 265.655C294.92 265.356 295.28 265.18 295.62 265.066C295.955 264.97 296.307 264.987 296.615 265.059C296.799 265.097 296.958 265.168 297.1 265.233C297.1 265.233 297.104 265.235 297.112 265.237C297.21 265.309 297.309 265.402 297.396 265.51C297.778 265.963 297.967 266.813 297.503 267.421L297.501 267.428ZM301.064 275.08C300.836 275.372 300.464 275.564 300.036 275.657C299.58 275.775 299.19 275.704 298.817 275.457C298.074 274.97 297.835 273.875 298.274 273.305C298.483 273.008 298.837 272.83 299.177 272.716C299.518 272.622 299.87 272.64 300.172 272.709C300.356 272.747 300.515 272.818 300.657 272.884L300.669 272.887C300.774 272.961 300.872 273.054 300.959 273.162C301.342 273.615 301.53 274.465 301.066 275.073L301.064 275.08ZM304.116 281.961C303.888 282.253 303.516 282.445 303.09 282.532C302.632 282.656 302.243 282.586 301.875 282.341C301.126 281.852 300.894 280.758 301.332 280.189C301.538 279.883 301.896 279.714 302.236 279.599C302.57 279.503 302.923 279.521 303.231 279.592C303.408 279.629 303.566 279.686 303.711 279.759C303.814 279.839 303.913 279.931 304.004 280.048C304.386 280.501 304.574 281.351 304.11 281.959L304.116 281.961ZM308.108 289.52C307.886 289.814 307.512 290.012 307.08 290.097C306.63 290.217 306.234 290.145 305.867 289.899C305.124 289.413 304.883 288.323 305.324 287.748C305.533 287.45 305.887 287.273 306.227 287.158C306.562 287.062 306.92 287.082 307.222 287.151C307.406 287.19 307.565 287.261 307.707 287.326C307.713 287.328 307.719 287.33 307.719 287.33C307.817 287.402 307.916 287.494 308.003 287.603C308.386 288.056 308.58 288.908 308.11 289.514L308.108 289.52ZM312.165 298.268C311.937 298.56 311.565 298.752 311.139 298.839C310.683 298.957 310.292 298.893 309.918 298.646C309.177 298.153 308.937 297.064 309.381 296.496C309.587 296.19 309.939 296.019 310.279 295.905C310.619 295.811 310.974 295.822 311.274 295.898C311.451 295.934 311.615 295.993 311.754 296.064C311.857 296.144 311.962 296.239 312.053 296.355C312.437 296.802 312.623 297.658 312.159 298.267L312.165 298.268ZM315.723 305.919C315.501 306.212 315.129 306.404 314.696 306.49C314.244 306.615 313.849 306.543 313.481 306.298C312.738 305.811 312.5 304.716 312.938 304.146C313.15 303.842 313.502 303.671 313.842 303.557C314.177 303.461 314.535 303.48 314.837 303.55C315.014 303.586 315.178 303.645 315.317 303.716C315.42 303.796 315.519 303.889 315.61 304.006C315.992 304.458 316.18 305.308 315.716 305.917L315.723 305.919ZM320.141 313.6C319.917 313.9 319.545 314.092 319.119 314.179C318.663 314.297 318.273 314.227 317.899 313.979C317.157 313.493 316.916 312.403 317.356 311.828C317.566 311.53 317.918 311.359 318.258 311.244C318.599 311.15 318.953 311.162 319.255 311.231C319.433 311.268 319.592 311.339 319.733 311.404C319.836 311.484 319.935 311.576 320.026 311.693C320.41 312.14 320.605 312.992 320.134 313.598L320.141 313.6ZM323.704 321.252C323.48 321.552 323.108 321.744 322.676 321.829C322.226 321.949 321.828 321.883 321.463 321.632C320.72 321.145 320.48 320.055 320.92 319.48C321.123 319.18 321.481 319.011 321.821 318.896C322.156 318.801 322.51 318.812 322.818 318.883C322.996 318.92 323.155 318.991 323.297 319.056L323.303 319.058C323.406 319.138 323.504 319.23 323.595 319.347C323.98 319.794 324.168 320.644 323.704 321.252ZM328.523 329.602C328.301 329.896 327.93 330.088 327.495 330.179C327.045 330.299 326.65 330.227 326.282 329.981C325.539 329.495 325.301 328.399 325.739 327.83C325.943 327.53 326.303 327.354 326.643 327.24C326.977 327.144 327.33 327.162 327.638 327.233C327.821 327.271 327.983 327.336 328.122 327.408L328.135 327.412C328.233 327.484 328.332 327.576 328.419 327.685C328.801 328.137 328.989 328.987 328.525 329.596L328.523 329.602Z" fill="#AE72FF"/>
<path d="M391.747 308.907C391.138 310.098 389.919 310.891 388.691 311.546C386.175 312.85 383.606 314.023 381.14 315.215C378.674 316.428 376.214 317.514 373.821 318.601C364.244 322.908 355.701 326.977 348.29 329.827C340.898 332.744 334.877 335.024 330.763 336.724C329.741 337.155 328.825 337.531 328.038 337.861C327.845 337.935 327.641 338.045 327.483 338.076C327.312 338.102 327.143 338.062 327.01 337.972C326.948 337.932 326.903 337.884 326.865 337.831C327.017 337.799 327.562 337.615 328.441 337.274C329.496 336.867 331.046 336.24 333.033 335.429C337.016 333.802 342.752 331.397 349.813 328.375C356.876 325.346 365.278 321.718 374.535 317.526C376.849 316.474 379.215 315.385 381.624 314.249C384.03 313.098 386.478 311.941 388.918 310.558C389.231 310.361 389.524 310.204 389.844 309.962C390.189 309.707 390.426 309.472 390.69 309.172C390.939 308.879 391.19 308.514 391.308 308.059C391.438 307.587 391.342 307.084 391.22 306.727L391.038 306.217C390.987 306.059 390.945 305.917 390.861 305.735L390.422 304.717C390.126 304.036 389.801 303.425 389.497 302.768C388.245 300.195 386.935 297.61 385.607 294.998C374.959 274.115 365.06 255.327 357.889 241.731C357.437 240.884 356.999 240.056 356.573 239.251C356.573 239.251 356.565 239.235 356.56 239.227C355.268 236.736 353.953 234.21 352.62 231.657C351.27 229.114 349.941 226.59 348.631 224.113C348.295 223.492 347.964 222.88 347.634 222.262C347.309 221.652 346.971 221.038 346.595 220.418C346.418 220.105 346.232 219.796 346.064 219.54C345.884 219.26 345.7 218.924 345.37 218.603C345.043 218.276 344.564 218.103 344.161 218.055C343.739 218.002 343.357 218.035 343.005 218.079C342.252 218.196 341.582 218.435 340.95 218.659C340.3 218.877 339.68 219.125 339.051 219.363C337.802 219.85 336.576 220.35 335.368 220.856C332.953 221.863 330.603 222.882 328.317 223.889C319.182 227.931 311.037 231.769 304.257 235.097C297.474 238.432 292.047 241.266 288.394 243.403C286.569 244.469 285.183 245.364 284.282 246.029C283.851 246.384 283.501 246.637 283.314 246.861C283.254 246.923 283.204 246.975 283.162 247.022C283.166 247.01 283.151 246.992 283.143 246.975C283.05 246.696 282.863 246.414 282.887 246.104C282.91 245.78 283.064 245.485 283.436 245.273C284.107 244.778 284.932 244.264 285.877 243.715C289.663 241.498 295.34 238.622 302.404 235.189C309.476 231.772 317.947 227.801 327.426 223.571C332.171 221.478 337.157 219.246 342.404 217.232C343.056 216.987 343.718 216.753 344.375 216.557C344.533 216.506 344.675 216.484 344.829 216.445C344.925 216.422 344.923 216.428 344.998 216.425C345.057 216.43 345.13 216.433 345.2 216.449C345.489 216.494 345.822 216.593 346.137 216.707C346.446 216.819 346.781 216.953 347.045 217.098C347.224 217.195 347.397 217.413 347.58 217.707C348 218.341 348.319 218.949 348.673 219.555C350.039 222.11 351.386 224.748 352.751 227.412C363.557 248.798 373.345 268.164 380.426 282.191C383.972 289.197 386.861 294.858 388.883 298.764L389.409 299.783C389.589 300.15 389.769 300.518 389.949 300.886C390.593 302.233 391.252 303.577 391.781 304.881C392.172 306.241 392.358 307.711 391.747 308.907Z" fill="#512473"/>
<path d="M348.076 254.531C347.332 255.381 346.207 255.988 345.059 256.56C340.357 258.768 335.06 261.023 329.522 263.376C323.97 265.712 318.663 267.936 313.777 269.707C312.539 270.136 311.386 270.511 310.169 270.623C308.985 270.759 307.788 270.742 306.898 270.188C306.006 269.64 305.417 268.669 304.86 267.769C304.289 266.851 303.779 265.972 303.323 265.091C302.939 264.348 302.58 263.632 302.239 262.943C302.22 262.896 302.195 262.848 302.174 262.807C301.599 261.584 300.989 260.215 300.375 258.709C300.019 257.812 299.651 256.871 299.292 255.879C298.941 254.882 298.553 253.854 298.362 252.78C298.157 251.709 298.224 250.568 298.988 249.779C299.355 249.369 299.851 249.041 300.368 248.734C300.887 248.419 301.443 248.138 302.015 247.847C306.585 245.564 311.733 243.248 317.168 240.963C322.678 238.823 327.81 236.408 332.626 234.77C333.836 234.366 335.007 234.017 336.183 233.845C336.768 233.768 337.351 233.697 337.906 233.712C338.472 233.717 339.004 233.806 339.477 233.997C340.44 234.385 341.09 235.247 341.647 236.127C342.21 237.009 342.742 237.881 343.219 238.715C344.379 240.732 345.359 242.55 346.177 244.094C346.185 244.11 346.189 244.118 346.187 244.124C346.386 244.539 346.581 244.966 346.778 245.407C347.174 246.303 347.559 247.256 347.92 248.262C348.275 249.267 348.627 250.324 348.78 251.433C348.951 252.528 348.825 253.683 348.076 254.531Z" fill="#512473"/>
<path d="M326.808 337.84C326.719 337.886 325.985 336.673 324.737 334.445C323.489 332.218 321.747 328.955 319.643 324.901C315.435 316.793 309.802 305.51 303.766 292.971C297.729 280.432 292.406 269.004 288.665 260.681C286.791 256.519 285.319 253.132 284.335 250.773C283.358 248.415 282.871 247.085 282.958 247.045C283.051 247.007 283.706 248.256 284.841 250.542C285.96 252.837 287.584 256.15 289.585 260.252C293.548 268.471 299.019 279.817 305.058 292.35C311.104 304.879 316.581 316.227 320.551 324.447C322.527 328.562 324.127 331.888 325.23 334.191C326.324 336.498 326.889 337.799 326.8 337.844L326.808 337.84Z" fill="#512473"/>
<path d="M283.761 248.638C283.761 248.638 283.449 248.113 282.945 247.068C282.884 246.94 282.815 246.797 282.746 246.653C282.667 246.5 282.613 246.307 282.617 246.105C282.614 245.902 282.66 245.694 282.776 245.501C282.879 245.304 283.072 245.143 283.237 245.027C283.908 244.491 284.723 243.948 285.659 243.362C289.402 241.024 295.034 238.038 302.066 234.514C309.106 231.005 317.547 226.958 327.023 222.673C331.772 220.547 336.736 218.301 342.035 216.25C342.703 215.997 343.376 215.752 344.085 215.54C344.263 215.488 344.472 215.447 344.669 215.402C344.744 215.378 344.931 215.364 345.031 215.368C345.153 215.367 345.255 215.386 345.365 215.401C345.777 215.465 346.138 215.58 346.502 215.709C346.864 215.845 347.201 215.973 347.574 216.179C348.032 216.44 348.291 216.833 348.495 217.148C348.872 217.721 349.239 218.392 349.622 219.054C351.011 221.644 352.354 224.273 353.726 226.939C364.584 248.308 374.18 267.769 381.117 281.865C384.581 288.918 387.364 294.633 389.268 298.596C390.209 300.578 390.939 302.121 391.435 303.17C391.925 304.217 392.166 304.774 392.132 304.797C392.1 304.813 391.794 304.29 391.241 303.27C390.695 302.252 389.9 300.743 388.89 298.786C386.873 294.882 383.985 289.221 380.432 282.214C373.349 268.193 363.563 248.82 352.764 227.436C351.398 224.772 350.045 222.133 348.679 219.577C348.331 218.973 348.006 218.363 347.587 217.73C347.404 217.435 347.234 217.226 347.05 217.126C346.792 216.983 346.452 216.841 346.143 216.729C345.828 216.615 345.502 216.518 345.206 216.471C345.135 216.462 345.063 216.452 345.002 216.453C344.929 216.45 344.929 216.45 344.834 216.474C344.68 216.512 344.537 216.535 344.379 216.586C343.723 216.781 343.067 217.018 342.407 217.267C337.16 219.28 332.174 221.513 327.434 223.607C317.949 227.835 309.479 231.806 302.413 235.225C295.349 238.659 289.678 241.537 285.886 243.751C284.941 244.301 284.114 244.82 283.436 245.313C283.065 245.526 282.91 245.821 282.894 246.147C282.869 246.456 283.05 246.737 283.149 247.018C283.585 248.089 283.8 248.664 283.761 248.678L283.761 248.638Z" fill="#512473"/>
<path d="M325.61 335.648C325.61 335.648 325.705 335.773 325.851 336.036C325.996 336.298 326.217 336.686 326.499 337.201C326.565 337.331 326.644 337.464 326.72 337.609C326.799 337.763 326.868 337.886 327.007 337.978C327.141 338.068 327.31 338.108 327.481 338.082C327.639 338.051 327.835 337.945 328.035 337.867C328.829 337.539 329.739 337.161 330.761 336.73C334.869 335.028 340.894 332.756 348.28 329.837C355.697 326.989 364.24 322.92 373.819 318.607C376.205 317.518 378.671 316.434 381.136 315.227C383.602 314.035 386.171 312.862 388.687 311.558C389.915 310.903 391.134 310.11 391.743 308.92C392.353 307.723 392.167 306.253 391.783 304.895C391.247 303.589 390.589 302.245 389.945 300.898C389.286 299.554 388.629 298.204 387.963 296.843C377.172 275.158 367.192 255.608 360.056 241.415C356.492 234.317 353.611 228.57 351.624 224.594C350.645 222.601 349.884 221.048 349.374 220.001C349.117 219.473 348.937 219.065 348.815 218.79C348.693 218.515 348.637 218.375 348.647 218.365C348.655 218.36 348.734 218.494 348.88 218.756C349.017 219.023 349.23 219.415 349.503 219.934C350.044 220.971 350.845 222.503 351.874 224.465C353.918 228.411 356.864 234.124 360.515 241.183C367.77 255.32 377.818 274.824 388.618 296.525C389.284 297.886 389.947 299.238 390.606 300.583C391.248 301.935 391.906 303.259 392.485 304.686C392.675 305.422 392.864 306.164 392.864 306.948C392.882 307.716 392.765 308.53 392.398 309.236C392.043 309.947 391.495 310.522 390.905 310.996C390.315 311.469 389.677 311.84 389.041 312.184C386.478 313.507 383.938 314.656 381.449 315.854C378.972 317.056 376.508 318.135 374.112 319.214C364.522 323.496 355.94 327.519 348.485 330.315C341.056 333.139 335.041 335.421 330.885 336.999C329.85 337.406 328.933 337.761 328.132 338.073C327.927 338.143 327.76 338.245 327.524 338.284C327.305 338.316 327.082 338.252 326.918 338.132C326.751 338.018 326.649 337.83 326.586 337.688C326.511 337.543 326.44 337.406 326.382 337.272C326.124 336.744 325.928 336.344 325.798 336.073C325.668 335.802 325.612 335.663 325.622 335.652L325.61 335.648Z" fill="#512473"/>
<path d="M390.44 306.101C390.44 306.101 390.108 305.617 389.562 304.639C389.022 303.664 388.24 302.219 387.248 300.356C385.258 296.623 382.411 291.211 378.91 284.511C371.934 271.105 362.294 252.588 351.664 232.156C350.322 229.608 348.997 227.093 347.687 224.615C347.355 224.003 347.026 223.385 346.694 222.773C346.365 222.155 346.035 221.557 345.696 220.99C345.532 220.701 345.371 220.42 345.156 220.101C344.968 219.799 344.81 219.532 344.637 219.376C344.342 219.072 343.772 219.039 343.137 219.127C342.546 219.222 341.928 219.424 341.296 219.647C340.668 219.859 340.049 220.107 339.429 220.335C338.195 220.819 336.972 221.307 335.766 221.807C333.356 222.801 331.003 223.807 328.721 224.801C319.577 228.787 311.409 232.55 304.591 235.785C297.777 239.028 292.309 241.755 288.602 243.767C286.747 244.776 285.342 245.604 284.408 246.204C283.484 246.814 283.077 247.225 283.039 247.193C283.023 247.181 283.119 247.07 283.316 246.855C283.502 246.631 283.853 246.378 284.284 246.023C285.184 245.358 286.564 244.461 288.396 243.397C292.048 241.26 297.476 238.426 304.258 235.091C311.044 231.765 319.183 227.925 328.318 223.883C330.604 222.876 332.955 221.857 335.369 220.85C336.577 220.344 337.801 219.85 339.052 219.357C339.682 219.119 340.307 218.873 340.951 218.653C341.583 218.429 342.26 218.192 343.005 218.079C343.356 218.036 343.74 217.996 344.16 218.056C344.57 218.105 345.042 218.276 345.376 218.605C345.702 218.918 345.889 219.262 346.064 219.54C346.234 219.79 346.417 220.105 346.594 220.418C346.964 221.036 347.308 221.652 347.634 222.262C347.965 222.874 348.301 223.495 348.632 224.107C349.941 226.59 351.272 229.108 352.613 231.656C363.28 252.079 372.751 270.683 379.582 284.158C382.997 290.898 385.736 296.37 387.615 300.156C388.541 302.059 389.261 303.53 389.752 304.531C390.229 305.534 390.47 306.07 390.438 306.087L390.44 306.101Z" fill="#512473"/>
<path d="M346.102 219.802C346.102 219.802 346.434 220.306 346.976 221.296C347.516 222.292 348.311 223.76 349.336 225.647C351.354 229.444 354.28 234.941 357.891 241.724C365.06 255.327 374.961 274.108 385.615 294.994C386.941 297.611 388.247 300.188 389.497 302.768C389.809 303.421 390.128 304.029 390.424 304.711L390.86 305.735C390.944 305.917 390.981 306.057 391.04 306.21L391.221 306.721C391.344 307.077 391.44 307.581 391.31 308.052C391.192 308.507 390.94 308.873 390.684 309.169C390.419 309.47 390.188 309.707 389.846 309.955C389.523 310.204 389.232 310.354 388.92 310.552C386.474 311.933 384.025 313.09 381.619 314.24C379.211 315.377 376.845 316.466 374.531 317.517C365.274 321.71 356.878 325.34 349.815 328.368C342.748 331.389 337.011 333.794 333.035 335.423C331.046 336.24 329.497 336.861 328.443 337.267C327.388 337.674 326.825 337.872 326.81 337.834C326.793 337.802 327.329 337.54 328.358 337.065C329.39 336.604 330.913 335.914 332.875 335.034C336.805 333.296 342.49 330.78 349.519 327.666C356.542 324.551 364.906 320.85 374.13 316.613C376.434 315.551 378.796 314.454 381.186 313.312C383.571 312.162 386.032 310.988 388.393 309.641C388.659 309.462 388.984 309.289 389.21 309.111C389.434 308.96 389.691 308.704 389.885 308.476C390.088 308.243 390.229 308.011 390.287 307.787C390.341 307.575 390.31 307.355 390.21 307.053L390.039 306.573C389.974 306.397 389.916 306.197 389.845 306.059L389.439 305.133C389.17 304.514 388.83 303.865 388.527 303.228C387.282 300.671 385.973 298.086 384.645 295.474C373.936 274.632 364.231 255.745 357.208 242.067C353.704 235.224 350.881 229.678 348.96 225.831C347.999 223.911 347.263 222.407 346.78 221.382C346.296 220.357 346.067 219.804 346.1 219.787L346.102 219.802Z" fill="#512473"/>
<path d="M288.358 249.698C288.35 249.661 288.552 249.557 288.964 249.493C289.358 249.443 290.067 249.507 290.64 250.081C290.929 250.362 291.137 250.766 291.225 251.233C291.306 251.698 291.241 252.264 290.907 252.718C290.583 253.182 290.038 253.474 289.492 253.598C289.35 253.62 289.214 253.644 289.07 253.672C288.915 253.67 288.757 253.68 288.602 253.658C288.29 253.599 287.977 253.499 287.72 253.31C287.195 252.946 286.846 252.409 286.72 251.829C286.586 251.253 286.696 250.613 287.048 250.165C287.796 249.282 288.902 249.223 289.619 249.472C290.367 249.71 290.811 250.264 290.923 250.677C291.038 251.099 290.952 251.328 290.919 251.325C290.858 251.325 290.841 251.104 290.666 250.785C290.501 250.475 290.101 250.098 289.477 249.96C289.175 249.891 288.815 249.877 288.482 249.967C288.142 250.081 287.784 250.251 287.58 250.55C287.14 251.126 287.38 252.215 288.123 252.702C288.491 252.947 288.886 253.02 289.336 252.9C289.762 252.813 290.134 252.621 290.364 252.323C290.828 251.714 290.64 250.864 290.258 250.412C289.871 249.93 289.32 249.795 288.96 249.761C288.589 249.738 288.365 249.741 288.354 249.69L288.358 249.698Z" fill="#512473"/>
<path d="M292.141 257.15C292.126 257.112 292.334 257.009 292.746 256.945C293.14 256.895 293.849 256.959 294.422 257.533C294.711 257.814 294.92 258.218 295.007 258.685C295.089 259.15 295.023 259.717 294.689 260.171C294.365 260.635 293.82 260.927 293.274 261.05C293.132 261.072 292.996 261.096 292.852 261.124C292.697 261.122 292.539 261.133 292.384 261.11C292.072 261.051 291.759 260.952 291.502 260.762C290.977 260.398 290.628 259.862 290.502 259.281C290.369 258.705 290.478 258.065 290.83 257.617C291.578 256.734 292.684 256.675 293.401 256.924C294.149 257.162 294.594 257.716 294.705 258.13C294.82 258.551 294.734 258.78 294.701 258.777C294.64 258.777 294.623 258.556 294.448 258.237C294.283 257.928 293.883 257.55 293.259 257.412C292.957 257.343 292.597 257.329 292.264 257.419C291.924 257.533 291.566 257.703 291.362 258.003C290.922 258.578 291.163 259.667 291.905 260.154C292.273 260.4 292.668 260.472 293.119 260.352C293.545 260.265 293.917 260.073 294.147 259.775C294.611 259.166 294.423 258.316 294.04 257.864C293.653 257.383 293.102 257.247 292.742 257.213C292.371 257.19 292.147 257.193 292.137 257.142L292.141 257.15Z" fill="#512473"/>
<path d="M295.49 264.795C295.482 264.758 295.684 264.654 296.096 264.589C296.49 264.539 297.199 264.603 297.772 265.178C298.061 265.459 298.269 265.863 298.357 266.33C298.438 266.795 298.372 267.361 298.039 267.815C297.715 268.279 297.17 268.571 296.624 268.694C296.482 268.716 296.346 268.741 296.202 268.769C296.047 268.767 295.888 268.777 295.734 268.755C295.421 268.696 295.109 268.596 294.852 268.406C294.326 268.043 293.978 267.506 293.852 266.926C293.718 266.35 293.828 265.71 294.18 265.261C294.927 264.379 296.033 264.32 296.751 264.568C297.499 264.807 297.943 265.361 298.055 265.774C298.17 266.196 298.083 266.425 298.051 266.421C297.99 266.422 297.973 266.2 297.798 265.881C297.633 265.572 297.233 265.195 296.609 265.057C296.307 264.987 295.946 264.974 295.614 265.064C295.274 265.178 294.916 265.347 294.712 265.647C294.272 266.223 294.512 267.312 295.255 267.799C295.622 268.044 296.018 268.116 296.468 267.996C296.894 267.909 297.266 267.717 297.496 267.419C297.96 266.811 297.772 265.961 297.39 265.508C297.003 265.027 296.452 264.892 296.091 264.858C295.721 264.834 295.497 264.837 295.486 264.787L295.49 264.795Z" fill="#512473"/>
<path d="M299.047 272.446C299.039 272.409 299.241 272.305 299.653 272.241C300.047 272.191 300.756 272.255 301.329 272.829C301.618 273.11 301.826 273.514 301.914 273.981C301.995 274.446 301.929 275.012 301.596 275.466C301.272 275.93 300.727 276.222 300.181 276.346C300.039 276.368 299.903 276.392 299.759 276.42C299.604 276.418 299.446 276.428 299.291 276.406C298.979 276.347 298.666 276.247 298.409 276.058C297.884 275.694 297.535 275.158 297.409 274.577C297.275 274.001 297.385 273.361 297.737 272.913C298.485 272.03 299.591 271.971 300.308 272.22C301.056 272.458 301.5 273.012 301.612 273.426C301.727 273.847 301.641 274.076 301.608 274.073C301.547 274.073 301.53 273.852 301.355 273.533C301.19 273.224 300.79 272.846 300.166 272.708C299.864 272.639 299.503 272.625 299.171 272.715C298.831 272.829 298.473 272.999 298.269 273.298C297.829 273.874 298.069 274.963 298.812 275.45C299.18 275.695 299.575 275.768 300.025 275.648C300.451 275.561 300.823 275.369 301.053 275.071C301.517 274.462 301.329 273.612 300.947 273.16C300.56 272.678 300.009 272.543 299.648 272.509C299.278 272.486 299.054 272.489 299.043 272.438L299.047 272.446Z" fill="#512473"/>
<path d="M310.15 295.628C310.136 295.589 310.344 295.487 310.756 295.422C311.15 295.372 311.859 295.436 312.432 296.011C312.721 296.292 312.929 296.696 313.017 297.163C313.098 297.628 313.033 298.194 312.699 298.648C312.375 299.112 311.83 299.404 311.284 299.527C311.142 299.549 311.006 299.574 310.862 299.602C310.707 299.6 310.549 299.61 310.394 299.588C310.082 299.529 309.769 299.429 309.512 299.239C308.987 298.876 308.638 298.339 308.512 297.759C308.378 297.183 308.488 296.543 308.84 296.094C309.588 295.212 310.694 295.153 311.411 295.402C312.159 295.64 312.603 296.194 312.715 296.607C312.83 297.029 312.744 297.258 312.711 297.254C312.65 297.255 312.633 297.033 312.458 296.714C312.293 296.405 311.893 296.028 311.269 295.89C310.967 295.82 310.607 295.807 310.274 295.897C309.934 296.011 309.576 296.18 309.372 296.48C308.932 297.056 309.172 298.145 309.915 298.632C310.283 298.877 310.678 298.949 311.128 298.829C311.554 298.742 311.926 298.55 312.156 298.252C312.62 297.644 312.432 296.794 312.05 296.341C311.663 295.86 311.112 295.725 310.751 295.691C310.381 295.667 310.157 295.67 310.146 295.62L310.15 295.628Z" fill="#512473"/>
<path d="M313.714 303.28C313.699 303.241 313.907 303.139 314.32 303.075C314.714 303.025 315.423 303.089 315.996 303.663C316.284 303.944 316.493 304.348 316.58 304.815C316.662 305.28 316.596 305.846 316.262 306.3C315.939 306.764 315.393 307.056 314.847 307.18C314.705 307.202 314.569 307.226 314.425 307.254C314.271 307.252 314.112 307.262 313.957 307.24C313.645 307.181 313.332 307.081 313.076 306.892C312.55 306.528 312.201 305.992 312.076 305.411C311.942 304.835 312.051 304.195 312.404 303.747C313.151 302.864 314.257 302.805 314.974 303.054C315.722 303.292 316.167 303.846 316.278 304.26C316.394 304.681 316.307 304.91 316.274 304.907C316.213 304.907 316.196 304.686 316.021 304.367C315.856 304.058 315.457 303.68 314.832 303.542C314.53 303.473 314.17 303.459 313.838 303.549C313.497 303.663 313.139 303.833 312.936 304.132C312.496 304.708 312.736 305.797 313.479 306.284C313.846 306.529 314.242 306.602 314.692 306.482C315.118 306.395 315.49 306.203 315.72 305.905C316.184 305.296 315.996 304.446 315.613 303.994C315.227 303.512 314.676 303.377 314.315 303.343C313.944 303.32 313.721 303.323 313.71 303.272L313.714 303.28Z" fill="#512473"/>
<path d="M318.13 310.967C318.121 310.931 318.323 310.827 318.736 310.762C319.13 310.712 319.839 310.776 320.412 311.351C320.7 311.632 320.909 312.036 320.996 312.503C321.078 312.967 321.012 313.534 320.678 313.988C320.355 314.452 319.809 314.744 319.263 314.867C319.121 314.889 318.985 314.913 318.841 314.942C318.687 314.94 318.528 314.95 318.373 314.928C318.061 314.869 317.748 314.769 317.492 314.579C316.966 314.216 316.617 313.679 316.492 313.099C316.358 312.523 316.468 311.882 316.82 311.434C317.567 310.552 318.673 310.492 319.39 310.741C320.138 310.98 320.583 311.533 320.694 311.947C320.81 312.369 320.723 312.598 320.69 312.594C320.629 312.595 320.612 312.373 320.437 312.054C320.272 311.745 319.873 311.368 319.248 311.229C318.946 311.16 318.586 311.147 318.254 311.236C317.913 311.351 317.555 311.52 317.352 311.82C316.912 312.395 317.152 313.485 317.895 313.972C318.262 314.217 318.658 314.289 319.108 314.169C319.534 314.082 319.906 313.89 320.136 313.592C320.6 312.984 320.412 312.134 320.029 311.681C319.643 311.2 319.092 311.065 318.731 311.031C318.36 311.007 318.137 311.01 318.126 310.959L318.13 310.967Z" fill="#512473"/>
<path d="M321.693 318.62C321.679 318.581 321.887 318.479 322.299 318.414C322.693 318.365 323.402 318.429 323.975 319.003C324.264 319.284 324.472 319.688 324.56 320.155C324.641 320.62 324.575 321.186 324.242 321.64C323.918 322.104 323.373 322.396 322.827 322.519C322.685 322.542 322.549 322.566 322.405 322.594C322.25 322.592 322.092 322.602 321.937 322.58C321.625 322.521 321.312 322.421 321.055 322.231C320.53 321.868 320.181 321.331 320.055 320.751C319.921 320.175 320.031 319.535 320.383 319.087C321.131 318.204 322.237 318.145 322.954 318.394C323.702 318.632 324.146 319.186 324.258 319.599C324.373 320.021 324.287 320.25 324.254 320.246C324.193 320.247 324.176 320.026 324.001 319.706C323.836 319.397 323.436 319.02 322.812 318.882C322.51 318.813 322.149 318.799 321.817 318.889C321.477 319.003 321.119 319.173 320.915 319.472C320.475 320.048 320.715 321.137 321.458 321.624C321.826 321.869 322.221 321.941 322.671 321.822C323.097 321.735 323.469 321.543 323.699 321.245C324.163 320.636 323.975 319.786 323.593 319.333C323.206 318.852 322.655 318.717 322.294 318.683C321.924 318.659 321.7 318.662 321.689 318.612L321.693 318.62Z" fill="#512473"/>
<path d="M326.515 326.963C326.506 326.926 326.708 326.822 327.12 326.757C327.514 326.707 328.223 326.771 328.796 327.346C329.085 327.627 329.294 328.031 329.381 328.498C329.463 328.963 329.397 329.529 329.063 329.983C328.739 330.447 328.194 330.739 327.648 330.862C327.506 330.884 327.37 330.909 327.226 330.937C327.071 330.935 326.913 330.945 326.758 330.923C326.446 330.864 326.133 330.764 325.876 330.574C325.351 330.211 325.002 329.674 324.876 329.094C324.743 328.518 324.852 327.878 325.204 327.429C325.952 326.547 327.058 326.487 327.775 326.736C328.523 326.975 328.968 327.529 329.079 327.942C329.194 328.364 329.108 328.593 329.075 328.589C329.014 328.59 328.997 328.368 328.822 328.049C328.657 327.74 328.257 327.363 327.633 327.225C327.331 327.155 326.971 327.142 326.638 327.232C326.298 327.346 325.94 327.515 325.736 327.815C325.296 328.391 325.537 329.48 326.279 329.967C326.647 330.212 327.043 330.284 327.493 330.164C327.919 330.077 328.291 329.885 328.521 329.587C328.985 328.979 328.797 328.129 328.414 327.676C328.027 327.195 327.476 327.06 327.116 327.026C326.745 327.002 326.521 327.005 326.511 326.954L326.515 326.963Z" fill="#512473"/>
<path d="M306.097 286.887C306.089 286.851 306.291 286.746 306.703 286.682C307.097 286.632 307.806 286.696 308.379 287.27C308.667 287.552 308.876 287.956 308.964 288.422C309.045 288.887 308.979 289.454 308.645 289.908C308.322 290.372 307.776 290.664 307.231 290.787C307.089 290.809 306.953 290.833 306.809 290.862C306.654 290.86 306.495 290.87 306.34 290.848C306.028 290.789 305.716 290.689 305.459 290.499C304.933 290.136 304.585 289.599 304.459 289.019C304.325 288.443 304.435 287.802 304.787 287.354C305.534 286.472 306.64 286.412 307.358 286.661C308.106 286.9 308.55 287.453 308.661 287.867C308.777 288.289 308.69 288.518 308.658 288.514C308.597 288.515 308.58 288.293 308.404 287.974C308.24 287.665 307.84 287.288 307.216 287.149C306.914 287.08 306.553 287.067 306.221 287.156C305.881 287.271 305.523 287.44 305.319 287.74C304.879 288.315 305.119 289.405 305.862 289.891C306.229 290.137 306.625 290.209 307.075 290.089C307.501 290.002 307.873 289.81 308.103 289.512C308.567 288.904 308.379 288.054 307.997 287.601C307.61 287.12 307.059 286.985 306.698 286.951C306.328 286.927 306.104 286.93 306.093 286.879L306.097 286.887Z" fill="#512473"/>
<path d="M288.234 258.308C288.305 258.358 288.218 258.695 287.807 259.158C287.404 259.617 286.587 260.147 285.468 260.29C284.916 260.37 284.307 260.352 283.628 260.196C282.952 260.048 282.28 259.658 281.721 259.122C280.602 258.036 279.979 256.284 280.322 254.51C280.488 253.631 280.946 252.784 281.574 252.194C282.189 251.621 282.865 251.235 283.541 250.958C284.889 250.395 286.279 250.312 287.374 250.607C288.476 250.897 289.195 251.545 289.533 252.031C289.881 252.527 289.973 252.853 289.898 252.897C289.809 252.963 289.56 252.749 289.137 252.425C288.72 252.103 288.053 251.715 287.165 251.6C286.284 251.482 285.174 251.641 284.08 252.17C283.538 252.429 282.995 252.776 282.561 253.205C282.146 253.619 281.86 254.156 281.74 254.786C281.486 256.049 281.922 257.39 282.674 258.19C283.425 259.031 284.466 259.281 285.402 259.269C286.313 259.269 287.01 258.992 287.46 258.723C287.91 258.455 288.155 258.236 288.242 258.304L288.234 258.308Z" fill="#512473"/>
<path d="M291.656 265.362C291.699 265.376 291.723 265.471 291.668 265.643C291.609 265.806 291.453 266.02 291.206 266.225C290.708 266.62 289.889 266.966 288.825 267.147C288.555 267.189 288.267 267.226 287.945 267.218C287.636 267.214 287.316 267.179 286.991 267.116C286.339 266.982 285.637 266.705 285.022 266.198C283.754 265.199 283.14 263.248 283.73 261.505C284.007 260.635 284.591 259.862 285.254 259.371C285.907 258.87 286.596 258.529 287.283 258.282C288.654 257.794 290.047 257.766 291.121 258.102C292.206 258.448 292.9 259.088 293.243 259.582C293.583 260.082 293.676 260.402 293.6 260.452C293.513 260.512 293.262 260.304 292.841 259.973C292.417 259.649 291.759 259.257 290.874 259.09C289.989 258.943 288.873 259.053 287.75 259.525C287.19 259.759 286.622 260.077 286.137 260.476C285.648 260.867 285.296 261.356 285.099 261.955C284.702 263.158 285.083 264.482 285.89 265.192C286.701 265.93 287.838 266.177 288.728 266.137C289.678 266.102 290.447 265.936 290.919 265.748C291.4 265.571 291.556 265.337 291.662 265.364L291.656 265.362Z" fill="#512473"/>
<path d="M295.003 272.337C295.077 272.381 294.994 272.746 294.506 273.178C294.029 273.613 293.114 273.963 292.029 274.022C291.478 274.056 290.922 274.061 290.227 273.954C289.554 273.82 288.828 273.535 288.215 273.002C286.962 271.954 286.39 269.935 287.1 268.196C287.436 267.331 288.049 266.595 288.743 266.114C289.424 265.629 290.146 265.312 290.87 265.118C292.303 264.71 293.766 264.846 294.79 265.381C295.834 265.897 296.388 266.661 296.696 267.177C296.959 267.727 297.039 268.05 296.956 268.098C296.865 268.15 296.622 267.917 296.248 267.521C295.839 267.154 295.26 266.618 294.394 266.329C293.547 266.018 292.418 266.003 291.259 266.396C290.684 266.591 290.094 266.875 289.586 267.261C289.08 267.639 288.688 268.129 288.451 268.722C287.969 269.919 288.324 271.281 289.121 272.021C289.513 272.403 290.002 272.647 290.503 272.793C290.993 272.908 291.565 272.976 292.042 273.006C293.007 273.071 293.754 272.931 294.223 272.709C294.702 272.498 294.937 272.269 295.024 272.337L295.003 272.337Z" fill="#512473"/>
<path d="M298.576 279.642C298.734 279.78 297.724 280.957 295.426 281.474C294.852 281.601 294.12 281.611 293.417 281.421C292.709 281.228 291.995 280.839 291.392 280.275C290.798 279.701 290.296 278.947 290.061 278.055C289.939 277.611 289.872 277.144 289.896 276.665C289.906 276.189 290.005 275.687 290.197 275.235C290.567 274.306 291.237 273.581 291.959 273.076C292.684 272.557 293.48 272.244 294.267 272.083C295.054 271.922 295.85 271.926 296.558 272.098C297.267 272.269 297.865 272.575 298.351 272.912C299.327 273.602 299.862 274.38 300.182 274.921C300.493 275.472 300.579 275.817 300.496 275.865C300.411 275.919 300.158 275.676 299.737 275.258C299.308 274.845 298.696 274.245 297.819 273.776C296.946 273.295 295.806 273.039 294.571 273.375C293.356 273.69 292.045 274.521 291.545 275.773C291.29 276.38 291.279 277.072 291.429 277.701C291.58 278.33 291.921 278.891 292.332 279.339C293.188 280.233 294.324 280.589 295.285 280.476C296.285 280.39 297.113 280.121 297.666 279.932C298.221 279.738 298.508 279.58 298.578 279.656L298.576 279.642Z" fill="#512473"/>
<path d="M300.84 286.92C300.912 286.969 300.821 287.319 300.394 287.79C299.975 288.257 299.109 288.792 297.951 288.909C297.386 288.965 296.741 288.955 296.05 288.748C295.37 288.552 294.663 288.144 294.128 287.514C293.053 286.267 292.714 284.282 293.481 282.554C293.856 281.695 294.532 280.972 295.235 280.527C295.936 280.062 296.685 279.747 297.425 279.565C298.92 279.197 300.389 279.483 301.393 280.04C302.417 280.596 302.97 281.339 303.321 281.829C303.623 282.364 303.745 282.68 303.66 282.734C303.575 282.788 303.302 282.586 302.892 282.199C302.442 281.853 301.841 281.303 300.949 280.965C300.074 280.618 298.943 280.501 297.758 280.852C296.603 281.213 295.298 281.959 294.793 283.141C294.255 284.341 294.461 285.791 295.152 286.673C295.842 287.581 296.936 287.876 297.893 287.884C298.837 287.908 299.562 287.626 300.028 287.349C300.5 287.075 300.742 286.848 300.83 286.91L300.84 286.92Z" fill="#512473"/>
<path d="M304.911 294.592C304.975 294.667 304.749 294.952 304.231 295.388C303.683 295.754 302.776 296.248 301.513 296.291C300.89 296.295 300.192 296.241 299.498 295.959C298.791 295.72 298.093 295.261 297.513 294.624C296.909 293.999 296.515 293.097 296.403 292.157C296.258 291.192 296.514 290.22 296.895 289.342C297.133 288.912 297.268 288.509 297.674 288.065C298.039 287.681 298.438 287.404 298.844 287.189C299.658 286.753 300.491 286.512 301.31 286.422C302.941 286.219 304.46 286.623 305.501 287.299C306.561 287.974 307.084 288.857 307.404 289.418C307.659 290.039 307.745 290.384 307.656 290.43C307.567 290.476 307.307 290.211 306.934 289.727C306.503 289.3 305.927 288.63 304.995 288.184C304.078 287.736 302.834 287.509 301.498 287.738C300.83 287.842 300.142 288.075 299.532 288.421C299.372 288.498 299.241 288.612 299.096 288.707C298.963 288.807 298.844 288.924 298.736 289.031C298.559 289.205 298.388 289.616 298.211 289.937C297.547 291.32 297.703 292.801 298.53 293.766C298.922 294.25 299.426 294.64 299.962 294.865C300.484 295.132 301.041 295.229 301.542 295.287C302.567 295.378 303.398 295.102 303.971 294.914C304.517 294.662 304.855 294.534 304.925 294.61L304.911 294.592Z" fill="#512473"/>
<path d="M308.783 302.356C308.848 302.404 308.75 302.798 308.23 303.327C307.973 303.583 307.575 303.855 307.067 304.03C306.561 304.2 305.959 304.264 305.331 304.267C304.728 304.27 303.977 304.213 303.217 303.971C302.465 303.704 301.708 303.24 301.105 302.548C300.501 301.856 300.073 300.956 299.929 299.965C299.79 298.982 299.929 297.892 300.445 296.949C300.945 295.995 301.762 295.276 302.586 294.809C303.414 294.33 304.297 294.038 305.183 293.929C306.06 293.824 306.948 293.898 307.701 294.225C307.897 294.288 308.068 294.389 308.234 294.483C308.398 294.583 308.574 294.666 308.718 294.786C308.99 295.035 309.291 295.232 309.48 295.508C309.93 296.003 310.179 296.535 310.407 296.985C310.572 297.463 310.744 297.856 310.795 298.203C310.92 298.891 310.941 299.269 310.84 299.291C310.745 299.315 310.539 298.986 310.263 298.391C310.128 298.092 309.896 297.761 309.686 297.363C309.416 297 309.14 296.575 308.735 296.216C307.97 295.459 306.743 294.987 305.359 295.241C304.674 295.354 303.954 295.624 303.3 296.023C302.632 296.424 302.075 296.942 301.717 297.618C300.988 298.973 301.279 300.666 302.119 301.696C302.537 302.228 303.073 302.601 303.633 302.854C304.214 303.087 304.777 303.185 305.37 303.253C307.689 303.648 308.595 302.181 308.772 302.366L308.783 302.356Z" fill="#512473"/>
<path d="M313.545 310.248C313.599 310.312 313.391 310.644 312.833 311.061C312.285 311.467 311.354 311.973 310.062 312.088C308.789 312.202 307.143 311.86 305.815 310.666C305.16 310.073 304.61 309.256 304.353 308.283C304.103 307.311 304.202 306.216 304.631 305.272C304.843 304.799 305.108 304.371 305.412 303.988C305.554 303.797 305.769 303.589 305.952 303.417C306.149 303.264 306.338 303.095 306.548 302.986C307.352 302.479 308.204 302.177 309.046 302.014C309.891 301.844 310.733 301.89 311.493 302.071C312.266 302.23 312.9 302.655 313.412 303.061C314.419 303.949 314.717 304.983 314.919 305.621C315.048 306.297 315.071 306.669 314.969 306.691C314.874 306.714 314.672 306.394 314.396 305.819C314.058 305.293 313.64 304.444 312.775 303.851C311.929 303.264 310.683 302.981 309.314 303.314C308.64 303.478 307.936 303.76 307.327 304.166C307.161 304.262 307.041 304.386 306.898 304.496C306.769 304.623 306.667 304.712 306.549 304.87C306.311 305.173 306.11 305.507 305.959 305.851C305.651 306.542 305.585 307.278 305.735 307.953C305.898 308.627 306.266 309.23 306.736 309.704C307.695 310.658 308.98 311.054 310.034 311.073C311.105 311.104 311.98 310.815 312.563 310.576C313.151 310.338 313.483 310.167 313.549 310.256L313.545 310.248Z" fill="#512473"/>
<path d="M316.787 317.785C316.871 317.799 316.865 318.263 316.313 318.742C315.774 319.205 314.835 319.587 313.634 319.69C313.331 319.709 313.012 319.735 312.666 319.679C312.49 319.657 312.313 319.641 312.136 319.604C311.964 319.55 311.784 319.499 311.598 319.447C310.887 319.179 310.189 318.7 309.647 318.048C309.106 317.396 308.704 316.579 308.528 315.672C308.349 314.771 308.389 313.757 308.799 312.808C308.924 312.584 309.035 312.343 309.183 312.133C309.347 311.936 309.493 311.712 309.684 311.557C310.048 311.2 310.441 310.961 310.835 310.743C311.625 310.319 312.46 310.072 313.275 309.974C314.906 309.751 316.461 310.274 317.403 311.067C318.384 311.846 318.804 312.75 319.071 313.334C319.284 313.956 319.348 314.307 319.255 314.345C319.162 314.383 318.924 314.111 318.578 313.609C318.191 313.149 317.673 312.423 316.808 311.897C315.962 311.351 314.766 311.057 313.463 311.29C312.813 311.4 312.141 311.625 311.521 311.981C310.887 312.339 310.39 312.775 310.119 313.391C309.58 314.657 309.935 316.235 310.694 317.22C311.073 317.726 311.548 318.1 312.054 318.336C312.187 318.385 312.312 318.438 312.438 318.485C312.567 318.526 312.704 318.543 312.828 318.576C313.081 318.65 313.356 318.656 313.609 318.669C314.645 318.703 315.497 318.508 316.004 318.272C316.518 318.037 316.691 317.748 316.793 317.787L316.787 317.785Z" fill="#512473"/>
<path d="M320.899 325.685C320.965 325.733 320.868 326.121 320.366 326.636C320.117 326.888 319.74 327.159 319.244 327.339C318.748 327.518 318.163 327.595 317.549 327.595C317.233 327.589 316.944 327.605 316.584 327.551C316.408 327.529 316.227 327.505 316.044 327.487C315.864 327.436 315.682 327.392 315.496 327.339C314.761 327.105 314.001 326.694 313.376 326.049C312.118 324.783 311.554 322.571 312.397 320.625C312.592 320.14 312.879 319.705 313.216 319.326C313.362 319.123 313.574 318.968 313.759 318.79C313.95 318.635 314.154 318.504 314.347 318.364C315.146 317.869 315.997 317.573 316.831 317.413C317.667 317.268 318.501 317.257 319.267 317.44C320.022 317.654 320.706 317.987 321.172 318.473C322.153 319.421 322.336 320.499 322.467 321.148C322.511 321.837 322.481 322.206 322.383 322.215C322.286 322.225 322.125 321.883 321.924 321.285C321.65 320.726 321.323 319.845 320.503 319.239C320.12 318.914 319.593 318.726 319.024 318.605C318.439 318.513 317.778 318.553 317.1 318.708C316.429 318.865 315.727 319.141 315.105 319.544C314.807 319.759 314.519 319.965 314.301 320.246C314.064 320.522 313.865 320.83 313.721 321.175C313.122 322.544 313.477 324.163 314.35 325.13C314.78 325.625 315.326 325.968 315.882 326.193C316.029 326.24 316.166 326.297 316.301 326.34C316.446 326.373 316.587 326.397 316.725 326.428C316.993 326.5 317.317 326.522 317.584 326.553C319.826 326.91 320.715 325.478 320.892 325.663L320.899 325.685Z" fill="#512473"/>
<path d="M324.885 333.472C324.957 333.542 324.768 333.84 324.309 334.348C324.19 334.466 324.029 334.57 323.862 334.692C323.684 334.804 323.522 334.975 323.28 335.054C323.054 335.15 322.803 335.259 322.538 335.35C322.258 335.403 321.957 335.455 321.638 335.502C320.356 335.586 318.773 335.001 317.661 333.681C317.136 333 316.728 332.161 316.587 331.204C316.497 330.257 316.641 329.236 317.105 328.351C317.181 328.112 317.354 327.931 317.479 327.728C317.617 327.529 317.735 327.33 317.897 327.138C318.08 326.947 318.272 326.745 318.468 326.618C318.659 326.463 318.861 326.338 319.065 326.228C319.871 325.776 320.7 325.527 321.522 325.404C322.34 325.273 323.165 325.354 323.895 325.566C324.644 325.758 325.24 326.218 325.707 326.658C326.615 327.622 326.767 328.67 326.875 329.306C326.913 329.972 326.879 330.333 326.781 330.342C326.684 330.352 326.527 330.018 326.334 329.437C326.076 328.889 325.776 328.03 325.007 327.393C324.254 326.768 323.072 326.452 321.737 326.722C321.081 326.851 320.391 327.089 319.781 327.456C319.625 327.541 319.478 327.643 319.349 327.75C319.196 327.85 319.11 327.971 318.996 328.076C318.894 328.206 318.792 328.376 318.688 328.532C318.597 328.692 318.45 328.834 318.402 329.008C318.056 329.667 317.964 330.381 317.999 331.054C318.081 331.728 318.358 332.343 318.715 332.875C319.503 333.897 320.652 334.445 321.641 334.497C322.652 334.569 323.433 334.15 323.982 333.913C324.486 333.581 324.815 333.416 324.888 333.486L324.885 333.472Z" fill="#512473"/>
<path d="M349.174 249.77C349.174 249.77 349.004 249.52 348.735 249.008C348.472 248.499 348.082 247.753 347.585 246.791C346.577 244.87 345.147 242.071 343.219 238.715C342.736 237.879 342.202 237.013 341.647 236.127C341.088 235.253 340.44 234.385 339.48 234.005C339.01 233.807 338.47 233.723 337.91 233.72C337.355 233.705 336.773 233.77 336.187 233.853C335.005 234.023 333.841 234.368 332.626 234.77C327.809 236.408 322.675 238.829 317.173 240.965C311.73 243.254 306.591 245.565 302.021 247.849C301.449 248.139 300.893 248.421 300.368 248.733C299.851 249.041 299.353 249.375 298.994 249.781C298.227 250.576 298.161 251.716 298.36 252.786C298.551 253.86 298.939 254.888 299.292 255.879C299.651 256.871 300.019 257.812 300.375 258.709C301.825 262.291 303.252 265.082 304.278 266.989C304.799 267.938 305.197 268.68 305.47 269.179C305.743 269.678 305.879 269.951 305.853 269.969C305.827 269.988 305.647 269.748 305.319 269.272C304.997 268.798 304.542 268.086 303.981 267.158C302.868 265.29 301.346 262.523 299.806 258.946C299.424 258.048 299.035 257.107 298.658 256.109C298.293 255.114 297.874 254.076 297.645 252.909C297.526 252.331 297.477 251.701 297.574 251.057C297.666 250.411 297.966 249.764 298.422 249.267C298.867 248.761 299.415 248.396 299.96 248.063C300.513 247.726 301.079 247.434 301.647 247.136C306.229 244.795 311.37 242.457 316.835 240.161C322.359 238.02 327.459 235.642 332.376 234.008C333.604 233.61 334.844 233.256 336.071 233.093C336.69 233.014 337.306 232.947 337.925 232.975C338.543 232.983 339.171 233.089 339.748 233.334C340.327 233.572 340.829 233.969 341.217 234.403C341.611 234.839 341.921 235.309 342.201 235.764C342.761 236.678 343.273 237.55 343.742 238.409C345.609 241.827 346.959 244.667 347.876 246.641C348.331 247.63 348.664 248.405 348.881 248.933C349.097 249.461 349.186 249.753 349.162 249.766L349.174 249.77Z" fill="#512473"/>
<path d="M297.803 253.56C297.803 253.56 297.977 253.818 298.228 254.344C298.471 254.874 298.837 255.653 299.3 256.658C300.234 258.664 301.513 261.597 303.321 265.097C303.778 265.972 304.282 266.849 304.854 267.767C305.417 268.669 305.999 269.638 306.898 270.188C307.788 270.741 308.984 270.758 310.169 270.623C311.386 270.511 312.539 270.136 313.776 269.707C318.669 267.938 323.97 265.711 329.522 263.376C335.06 261.023 340.357 258.768 345.06 256.554C346.208 255.981 347.332 255.381 348.077 254.524C348.827 253.676 348.952 252.521 348.781 251.427C348.626 250.324 348.275 249.267 347.914 248.26C347.553 247.254 347.176 246.296 346.773 245.398C345.178 241.804 343.527 239.062 342.429 237.146C341.877 236.187 341.453 235.444 341.161 234.939C340.878 234.43 340.742 234.157 340.768 234.138C340.794 234.12 340.979 234.368 341.313 234.845C341.646 235.323 342.12 236.041 342.722 236.969C343.91 238.834 345.649 241.535 347.334 245.145C347.756 246.042 348.158 247.008 348.541 248.028C348.919 249.047 349.303 250.128 349.49 251.322C349.591 251.915 349.61 252.555 349.498 253.202C349.387 253.848 349.086 254.495 348.651 255.011C347.762 256.044 346.573 256.658 345.409 257.259C340.672 259.537 335.406 261.801 329.852 264.163C324.285 266.501 318.986 268.7 314.032 270.45C313.396 270.646 312.803 270.875 312.152 271.032C311.507 271.212 310.884 271.303 310.248 271.37C309.616 271.446 308.977 271.458 308.344 271.391C307.708 271.331 307.069 271.133 306.523 270.791C305.977 270.448 305.55 269.988 305.206 269.52C304.856 269.051 304.563 268.572 304.286 268.106C303.731 267.179 303.222 266.254 302.782 265.371C301.028 261.807 299.835 258.834 298.996 256.784C298.582 255.754 298.277 254.954 298.072 254.409C297.87 253.859 297.778 253.573 297.805 253.554L297.803 253.56Z" fill="#512473"/>
<path d="M302.108 279.322C302.093 279.283 302.301 279.181 302.714 279.117C303.108 279.067 303.817 279.131 304.39 279.705C304.678 279.986 304.887 280.39 304.974 280.857C305.056 281.322 304.99 281.888 304.656 282.342C304.333 282.806 303.787 283.098 303.242 283.222C303.099 283.244 302.963 283.268 302.819 283.296C302.665 283.294 302.506 283.304 302.351 283.282C302.039 283.223 301.727 283.123 301.47 282.934C300.944 282.57 300.595 282.034 300.47 281.453C300.336 280.877 300.446 280.237 300.798 279.789C301.545 278.906 302.651 278.847 303.368 279.096C304.116 279.334 304.561 279.888 304.672 280.302C304.788 280.723 304.701 280.952 304.668 280.949C304.607 280.949 304.59 280.728 304.415 280.409C304.25 280.1 303.851 279.722 303.226 279.584C302.924 279.515 302.564 279.501 302.232 279.591C301.891 279.705 301.533 279.875 301.33 280.174C300.89 280.75 301.13 281.839 301.873 282.326C302.24 282.571 302.636 282.644 303.086 282.524C303.512 282.437 303.884 282.245 304.114 281.947C304.578 281.338 304.39 280.488 304.007 280.036C303.621 279.554 303.07 279.419 302.709 279.385C302.338 279.362 302.115 279.365 302.104 279.314L302.108 279.322Z" fill="#512473"/>
<path d="M154.877 225.43C155.47 225.3 155.921 225.883 155.548 226.4L155.437 226.547C155.443 226.617 155.442 226.684 155.425 226.756C152.118 238.656 143.754 250.225 133.288 256.844C130.915 259.856 128.403 262.712 125.641 265.421C121.927 269.059 118.162 272.601 115.255 276.945C115.548 277.264 115.83 277.587 116.101 277.914C116.234 278.072 116.233 278.241 116.176 278.387C116.299 278.634 116.295 278.966 116.039 279.201C113.511 281.478 111.028 283.95 108.989 286.695C106.444 290.11 107.284 292.919 108.741 296.511C110.52 300.919 111.785 305.699 111.116 310.482C110.018 318.301 103.302 323.551 95.9307 325.175C89.3999 326.62 80.2589 325.514 77.2494 318.574C74.9945 313.375 76.9139 308.329 79.9494 303.838C74.2272 307.848 66.1476 309.137 60.292 304.717C54.4691 300.323 54.7993 292.701 58.279 286.915C62.0903 280.579 69.015 276.304 76.2209 275.033C80.5342 274.275 84.4702 274.969 88.7376 275.577C91.4841 275.97 94.3121 276.166 96.8192 274.776C99.4369 273.323 100.862 270.667 102.233 268.114C102.31 267.972 102.419 267.886 102.535 267.84C102.474 267.529 102.771 267.19 103.121 267.363C103.603 267.604 104.089 267.873 104.563 268.159C107.586 266.197 110.213 263.945 112.641 261.263C112.811 261.077 113.025 261.05 113.206 261.119C113.366 260.648 113.546 260.181 113.765 259.724C114.889 257.361 116.897 255.645 118.747 253.858C121.053 251.635 123.231 249.288 125.391 246.922C133.67 237.865 142.365 228.15 154.877 225.43ZM153.606 226.996C142.002 230.193 133.861 239.491 125.964 248.113C123.919 250.342 121.856 252.552 119.676 254.654C117.709 256.554 115.575 258.373 114.545 260.987C112.911 265.145 113.634 269.807 112.325 274.067C113.036 274.704 113.737 275.362 114.404 276.044C117.298 271.753 121.032 268.24 124.708 264.633C128.326 261.082 131.524 257.293 134.52 253.207C140.923 244.5 147.245 235.736 153.606 226.996ZM145.951 243.082C148.959 238.943 151.183 234.508 153.05 229.829C147.193 237.893 141.353 245.97 135.449 254.002C135.335 254.157 135.22 254.311 135.1 254.468C139.123 251.058 142.826 247.388 145.951 243.082ZM112.047 268.682C112.199 266.689 112.321 264.682 112.751 262.761C110.661 265.137 108.156 267.154 105.398 268.686C106.467 269.384 107.511 270.163 108.491 270.982C109.611 270.138 110.824 269.334 112.047 268.682ZM111.452 273.295C111.705 272.158 111.845 270.994 111.951 269.818C111.055 270.44 110.1 271.015 109.129 271.53C109.401 271.772 109.663 272.006 109.922 272.246C109.922 272.246 109.936 272.235 109.94 272.228C110.277 271.953 110.72 272.304 110.718 272.66C110.966 272.869 111.208 273.079 111.452 273.295ZM115.059 278.448C113.274 277 111.604 275.206 110.062 273.487C102.349 281.068 94.5639 288.477 87.421 296.618C82.0809 302.7 71.8309 314.285 81.1659 321.654C87.6035 326.737 98.2945 324.769 104.294 319.968C112.003 313.786 110.526 304.206 107.231 296.07C105.951 292.916 105.293 290.074 107.23 287.04C109.289 283.818 112.228 281.012 115.059 278.448ZM108.996 273.041C107.081 271.651 105.124 270.192 103.333 268.638C101.873 271.367 100.27 274.29 97.474 275.854C94.8708 277.314 91.8518 277.209 88.9816 276.841C85.1637 276.347 81.5284 275.566 77.6552 276.049C73.7299 276.538 69.905 277.95 66.6024 280.132C60.4904 284.164 54.0386 292.816 58.0784 300.342C59.9402 303.816 63.7715 305.896 67.6216 306.259C72.5413 306.716 76.8678 304.465 80.9468 302.024C81.0715 301.951 81.1901 301.945 81.2894 301.971C83.1035 299.582 85.1218 297.381 86.8418 295.429C93.7431 287.595 101.015 279.806 108.996 273.041Z" fill="#512473"/>
<path d="M125.964 248.113C133.86 239.491 142.002 230.193 153.606 226.996C147.245 235.736 140.923 244.5 134.52 253.207C131.523 257.293 128.326 261.082 124.708 264.633C121.032 268.24 117.298 271.753 114.403 276.044C113.737 275.362 113.036 274.704 112.325 274.067C113.634 269.807 112.911 265.144 114.545 260.987C115.575 258.373 117.709 256.553 119.676 254.653C121.856 252.552 123.919 250.342 125.964 248.113ZM119.769 266.803C120.964 265.999 121.528 264.361 120.679 263.104C119.913 261.969 117.914 261.301 116.857 262.394C116.733 262.348 116.583 262.352 116.443 262.467C115.327 263.358 115.315 265.061 116.088 266.182C116.932 267.423 118.555 267.619 119.769 266.803Z" fill="#AE72FF"/>
<path d="M153.05 229.829C151.182 234.507 148.959 238.943 145.95 243.081C142.826 247.387 139.123 251.058 135.1 254.467C135.22 254.311 135.335 254.156 135.449 254.002C141.353 245.969 147.193 237.893 153.05 229.829Z" fill="#512473"/>
<path d="M120.679 263.104C121.528 264.361 120.963 265.999 119.769 266.803C118.555 267.62 116.932 267.423 116.088 266.183C115.315 265.061 115.327 263.358 116.443 262.467C116.583 262.352 116.733 262.348 116.857 262.395C117.914 261.301 119.913 261.969 120.679 263.104ZM119.075 265.956C119.843 265.5 120.299 264.532 119.801 263.713C119.432 263.107 118.844 262.855 118.212 262.806C118.323 263.207 118.383 263.637 118.42 264.07C118.635 264.013 118.854 263.966 119.063 263.978C119.424 263.996 119.561 264.472 119.193 264.625C118.964 264.711 118.72 264.736 118.468 264.758C118.485 264.993 118.499 265.223 118.513 265.453C118.536 265.759 118.034 265.874 117.966 265.561C117.918 265.319 117.862 265.073 117.804 264.822C117.576 264.842 117.352 264.872 117.122 264.886C116.843 264.9 116.743 264.477 117.017 264.399C117.238 264.34 117.462 264.291 117.68 264.245C117.594 263.793 117.524 263.336 117.521 262.897C117.525 262.872 117.53 262.852 117.533 262.827C117.413 262.845 117.294 262.868 117.176 262.891C117.176 262.994 117.156 263.091 117.09 263.18C116.065 264.588 117.227 267.061 119.075 265.956Z" fill="#512473"/>
<path d="M119.801 263.713C120.299 264.532 119.843 265.5 119.075 265.955C117.227 267.061 116.065 264.588 117.09 263.18C117.155 263.091 117.176 262.994 117.176 262.891C117.294 262.868 117.412 262.845 117.533 262.827C117.529 262.852 117.524 262.872 117.521 262.897C117.524 263.336 117.594 263.793 117.68 264.245C117.461 264.291 117.237 264.34 117.017 264.399C116.743 264.477 116.843 264.9 117.122 264.886C117.352 264.872 117.576 264.842 117.804 264.822C117.862 265.073 117.918 265.318 117.966 265.56C118.034 265.874 118.536 265.759 118.513 265.453C118.499 265.223 118.484 264.993 118.468 264.758C118.72 264.736 118.964 264.711 119.193 264.625C119.561 264.472 119.424 263.995 119.062 263.977C118.854 263.966 118.635 264.013 118.42 264.07C118.383 263.637 118.322 263.207 118.212 262.805C118.844 262.855 119.432 263.107 119.801 263.713Z" fill="#AE72FF"/>
<path d="M112.75 262.761C112.321 264.683 112.198 266.69 112.047 268.683C110.823 269.334 109.611 270.139 108.491 270.983C107.511 270.163 106.467 269.384 105.397 268.687C108.156 267.154 110.661 265.138 112.75 262.761Z" fill="#AE72FF"/>
<path d="M110.061 273.487C111.603 275.206 113.274 277 115.058 278.448C112.227 281.012 109.289 283.819 107.23 287.04C105.293 290.074 105.951 292.916 107.231 296.071C110.526 304.206 112.003 313.786 104.294 319.969C98.2944 324.769 87.6033 326.737 81.1658 321.654C71.8307 314.285 82.0808 302.7 87.4208 296.618C94.5637 288.477 102.349 281.069 110.061 273.487ZM102.85 316.552C107.046 312.655 108.725 305.307 105.357 300.354C103.836 298.109 101.178 296.781 98.4964 296.642C96.6248 296.545 94.7729 297.037 93.1282 297.914C91.3213 298.878 90.018 300.919 88.1979 301.726C87.88 301.867 87.7947 302.174 87.8688 302.437C83.8638 306.431 81.0286 313.575 86.4417 317.746C91.1669 321.38 98.6265 320.472 102.85 316.552Z" fill="#AE72FF"/>
<path d="M103.332 268.638C105.123 270.191 107.08 271.65 108.995 273.04C101.015 279.806 93.7424 287.595 86.8411 295.428C85.1211 297.38 83.1028 299.581 81.2887 301.97C81.1895 301.945 81.0708 301.95 80.9461 302.024C76.8671 304.465 72.5406 306.715 67.6209 306.258C63.7708 305.896 59.9395 303.816 58.0777 300.341C54.0379 292.816 60.4897 284.164 66.5964 280.133C69.8989 277.952 73.7238 276.539 77.6491 276.05C81.5223 275.567 85.1576 276.348 88.9755 276.842C91.8457 277.21 94.8647 277.315 97.4679 275.855C100.264 274.291 101.867 271.368 103.328 268.645L103.332 268.638ZM82.9057 295.012C85.7102 290.704 87.4686 284.888 81.9807 281.828C76.5744 278.812 68.9553 282.24 64.9427 286.212C61.2187 289.891 60.3223 296.103 65.1573 299.277C70.768 302.962 78.1122 299.661 82.1941 295.164C82.4193 295.308 82.7142 295.308 82.9057 295.012Z" fill="#AE72FF"/>
<path d="M105.357 300.353C108.725 305.306 107.046 312.654 102.85 316.552C98.6266 320.471 91.1671 321.379 86.4419 317.745C81.0288 313.575 83.8639 306.43 87.869 302.437C87.7949 302.174 87.8801 301.867 88.1981 301.725C90.0182 300.919 91.3215 298.878 93.1284 297.913C94.773 297.036 96.6249 296.544 98.4965 296.641C101.178 296.781 103.836 298.109 105.357 300.353ZM102.867 314.775C106.368 310.771 107.535 302.976 102.761 299.389C100.338 297.563 97.0684 297.449 94.357 298.652C92.1296 299.637 90.9034 301.898 88.71 302.757C85.1054 307.188 81.9266 314.555 88.8748 317.742C93.5612 319.89 99.4803 318.66 102.867 314.775Z" fill="#512473"/>
<path d="M81.9813 281.829C87.4692 284.889 85.7108 290.704 82.9063 295.012C82.7148 295.308 82.4199 295.309 82.1947 295.165C78.1128 299.662 70.7687 302.963 65.158 299.278C60.3229 296.103 61.2193 289.891 64.9433 286.213C68.9559 282.241 76.575 278.813 81.9813 281.829ZM84.2955 286.32C83.6198 283.978 81.3185 282.465 79.0174 282.036C74.5001 281.197 68.977 283.987 65.8395 287.086C61.6688 291.192 62.2435 297.768 68.3584 299.367C73.6301 300.744 77.7015 297.095 81.8691 294.562C81.8709 294.447 81.898 294.335 81.9718 294.219C83.4338 291.978 85.0986 289.111 84.2955 286.32Z" fill="#512473"/>
<path d="M520.363 229.228C519.701 228.849 520.014 227.965 520.742 228.001C535.836 228.807 550.522 239.065 550.792 255.302C550.792 255.404 550.774 255.495 550.738 255.573C565.676 263.785 576.98 276.665 587.587 289.744C593.422 296.928 599.18 304.165 605.274 311.126C608.667 315 612.187 318.742 615.646 322.544C618.678 325.871 621.367 329.348 622.667 333.71C622.811 334.191 622.318 334.841 621.794 334.522C614.07 329.824 607.651 322.833 601.015 316.757C594.072 310.404 587.118 304.069 580.199 297.686C567.746 286.195 554.895 273.976 547.219 258.635C547.171 258.545 547.171 258.461 547.195 258.382C541.341 256.896 536.167 253.6 532.287 248.949C530.061 246.272 528.491 243.288 527.257 240.057C525.705 235.966 524.424 231.551 520.363 229.228ZM522.896 229.487C527.137 233.289 527.871 239.552 530.693 244.443C534.356 250.802 540.541 255.278 547.502 257.396C547.484 257.378 547.459 257.36 547.435 257.336C544.656 253.961 541.714 250.989 538.159 248.426C537.767 248.149 538.237 247.571 538.628 247.854C541.383 249.809 543.952 252.114 546.106 254.731C544.108 251.626 541.883 248.793 539.175 246.152C538.814 245.797 539.308 245.177 539.675 245.532C543.044 248.739 545.931 252.475 547.983 256.656C546.569 250.79 544.145 245.532 540.541 240.635C540.258 240.25 540.86 239.817 541.149 240.196C544.812 244.985 547.345 250.513 548.566 256.415C548.873 256.114 549.222 255.88 549.601 255.747C549.535 255.657 549.493 255.549 549.493 255.404C549.252 240.557 536.558 231.123 522.896 229.487ZM550.359 256.848C549.962 257.029 549.553 257.173 549.192 257.462C548.801 257.781 548.512 258.19 548.296 258.635C554.294 268.682 561.651 277.477 569.701 285.726C571.253 284.895 572.607 283.83 573.648 282.381C574.7 280.919 574.965 279.342 575.573 277.694C575.573 277.682 575.585 277.676 575.591 277.67C568.173 269.578 560.045 262.203 550.353 256.842L550.359 256.848ZM576.523 278.693C576.301 281.996 573.359 285.16 570.417 286.46C573.978 290.075 577.66 293.589 581.426 297.054C588.212 303.311 595.035 309.525 601.833 315.764C607.939 321.353 613.871 327.796 620.826 332.398C619.213 328.458 616.416 325.269 613.516 322.135C610.376 318.76 607.265 315.361 604.227 311.896C598.344 305.182 592.779 298.215 587.166 291.284C583.718 287.025 580.205 282.778 576.523 278.699V278.693Z" fill="#512473"/>
<path d="M530.693 244.443C527.865 239.552 527.131 233.289 522.896 229.487C536.565 231.124 549.259 240.563 549.499 255.417C549.499 255.561 549.541 255.669 549.607 255.76C549.228 255.892 548.88 256.127 548.573 256.427C547.351 250.526 544.819 244.997 541.155 240.208C540.866 239.829 540.264 240.256 540.547 240.647C544.151 245.544 546.575 250.796 547.989 256.668C545.938 252.481 543.05 248.751 539.681 245.544C539.308 245.189 538.815 245.809 539.182 246.164C541.889 248.799 544.115 251.639 546.112 254.743C543.958 252.126 541.389 249.816 538.634 247.866C538.249 247.59 537.774 248.161 538.165 248.438C541.72 251.001 544.662 253.973 547.442 257.348C547.466 257.372 547.49 257.39 547.508 257.408C540.547 255.29 534.363 250.814 530.699 244.455L530.693 244.443Z" fill="#512473"/>
<path d="M549.192 257.462C549.553 257.174 549.962 257.029 550.359 256.849C560.051 262.209 568.179 269.579 575.597 277.676C575.597 277.682 575.585 277.688 575.579 277.7C574.971 279.343 574.706 280.919 573.654 282.387C572.613 283.831 571.259 284.902 569.707 285.732C561.651 277.484 554.3 268.688 548.302 258.641C548.518 258.196 548.813 257.787 549.198 257.468L549.192 257.462Z" fill="#BC8AFF"/>
<path d="M570.417 286.459C573.365 285.166 576.307 282.001 576.523 278.692C580.205 282.771 583.719 287.025 587.166 291.278C592.779 298.209 598.344 305.175 604.227 311.889C607.266 315.354 610.376 318.754 613.516 322.129C616.416 325.263 619.214 328.458 620.826 332.392C613.865 327.79 607.939 321.347 601.833 315.758C595.029 309.519 588.207 303.304 581.426 297.048C577.666 293.582 573.979 290.069 570.417 286.453V286.459Z" fill="#AE72FF"/>
</svg>
