<svg width="569" height="348" viewBox="0 0 569 348" fill="none" xmlns="http://www.w3.org/2000/svg">
<path d="M124 347H564.31" stroke="#AE72FF" stroke-miterlimit="10"/>
<path d="M114.227 31.8503C114.285 31.8503 114.345 31.8431 114.403 31.8311C114.831 31.7349 115.1 31.3091 115.001 30.881C113.897 25.9936 112.793 19.6053 114.068 13.5466C114.97 9.25804 116.954 5.74882 119.653 3.66349C122.763 1.26067 127.186 1.06344 131.196 3.14877C135.612 5.44576 138.207 9.55148 138.907 15.3553C139.463 19.9733 138.715 25.5751 136.85 30.7174C136.701 31.1287 136.915 31.5857 137.327 31.7349C137.738 31.884 138.195 31.6699 138.344 31.2586C140.29 25.8878 141.069 20.0214 140.485 15.1653C140.131 12.2285 139.297 9.63566 138.003 7.45893C136.543 5.00079 134.501 3.07662 131.929 1.73931C129.796 0.630503 127.47 0.074896 125.209 0.135027C122.777 0.199968 120.521 0.986476 118.681 2.40556C115.684 4.72179 113.493 8.56052 112.514 13.217C111.175 19.5765 112.312 26.1836 113.452 31.2274C113.537 31.5954 113.864 31.8479 114.227 31.8479V31.8503Z" fill="#3C1C54"/>
<path d="M170.221 26.5444L104.231 25.4861L95.3291 109.188L180.149 109.255L170.221 26.5444Z" fill="#3C1C54"/>
<path d="M124.39 31.8503C124.448 31.8503 124.508 31.8431 124.566 31.8311C124.994 31.7348 125.263 31.3091 125.164 30.881C123.486 23.4464 122.42 14.843 127.262 7.41803C129.585 3.85109 133.309 1.61904 136.977 1.59018C137.001 1.59018 137.025 1.59018 137.046 1.59018C139.99 1.59018 143.095 3.03091 145.364 5.45778C151.629 12.1539 150.694 23.2516 147.988 30.7198C147.839 31.1311 148.053 31.5881 148.464 31.7372C148.875 31.8864 149.332 31.6723 149.481 31.261C151.114 26.7536 151.867 21.8253 151.605 17.3853C151.29 12.089 149.534 7.5888 146.525 4.37302C143.901 1.56612 140.418 -0.0261329 136.965 0.000324551C132.77 0.0339977 128.544 2.54265 125.932 6.54975C123.625 10.0878 122.406 14.0805 122.206 18.7514C122.052 22.3328 122.502 26.299 123.616 31.2322C123.7 31.6002 124.027 31.8527 124.39 31.8527V31.8503Z" fill="#3C1C54"/>
<path d="M149.358 32.9341C150.395 32.7654 151.099 31.7879 150.93 30.7508C150.762 29.7136 149.784 29.0097 148.747 29.1784C147.71 29.3471 147.006 30.3246 147.175 31.3617C147.343 32.3988 148.321 33.1028 149.358 32.9341Z" fill="#3C1C54"/>
<path d="M124.83 32.9079C125.853 32.6657 126.485 31.6405 126.243 30.618C126.001 29.5956 124.975 28.9631 123.953 29.2054C122.93 29.4477 122.298 30.4729 122.54 31.4953C122.782 32.5177 123.808 33.1502 124.83 32.9079Z" fill="#3C1C54"/>
<path d="M79 109.26L91.8703 25.6833L98.0542 25.4861L89.227 97.9026L79 109.26Z" fill="#3C1C54"/>
<path d="M98.0537 25.4861H104.23L95.3286 109.188L89.2266 97.9026L98.0537 25.4861Z" fill="#1F0433"/>
<path d="M89.227 97.9025L95.3291 109.188L79 109.26L89.227 97.9025Z" fill="#1F0433"/>
<path d="M450.142 40.3324H447.085V94.962H450.142V40.3324Z" fill="#AE72FF"/>
<path d="M505.678 107.951C504.753 82.7338 508.49 64.42 516.79 53.5196C523.129 45.1908 529.783 44.537 530.065 44.5135L530.232 46.4281L530.149 45.4725L530.236 46.4281C530.175 46.4348 524.034 47.0953 518.215 54.8541C512.764 62.1232 506.502 77.2216 507.629 107.884L505.678 107.955V107.951Z" fill="#AE72FF"/>
<path d="M422.396 84.6148H468.318C474.827 84.6148 480.11 89.9024 480.11 96.4105V109.453H410.194V96.8162C410.194 90.0801 415.662 84.6115 422.396 84.6115V84.6148Z" fill="#AE72FF"/>
<path d="M431.699 85.0004H477.805C484.264 85.0004 489.507 90.2444 489.507 96.7055V109.457H419.591V97.1112C419.591 90.4288 425.015 85.0004 431.699 85.0004Z" fill="#1F0433"/>
<path d="M490.016 109.953H419.088V96.0483C419.088 89.681 424.354 84.5007 430.824 84.5007H478.656C484.921 84.5007 490.016 89.5167 490.016 95.6795V109.953ZM420.1 108.957H489.004V95.6795C489.004 90.0633 484.361 85.4966 478.656 85.4966H430.824C424.911 85.4966 420.1 90.2309 420.1 96.0483V108.957Z" fill="#AE72FF"/>
<path d="M540.607 68.9532H521.299C519.985 68.9532 518.795 67.9071 518.634 66.6128L514.159 30.2199C514.001 28.929 514.937 27.8795 516.247 27.8795H535.556C536.87 27.8795 538.06 28.9256 538.221 30.2199L542.696 66.6128C542.853 67.9037 541.918 68.9532 540.607 68.9532Z" fill="#AE72FF"/>
<path d="M543.651 68.9532H524.343C523.029 68.9532 521.839 67.9071 521.678 66.6128L517.203 30.2199C517.045 28.929 517.981 27.8795 519.291 27.8795H538.6C539.914 27.8795 541.104 28.9256 541.265 30.2199L545.74 66.6128C545.897 67.9037 544.962 68.9532 543.651 68.9532Z" fill="#AE72FF"/>
<path d="M540.332 44.3324H521.61L519.991 31.1587H538.713L540.332 44.3324Z" fill="#1F0433"/>
<path d="M527.806 51.9202H522.543L522.033 47.7793H527.296L527.806 51.9202Z" fill="#1F0433"/>
<path d="M534.534 51.9202H529.274L528.765 47.7793H534.028L534.534 51.9202Z" fill="#1F0433"/>
<path d="M541.264 51.9202H536.001L535.495 47.7793H540.755L541.264 51.9202Z" fill="#1F0433"/>
<path d="M528.496 57.5531H523.236L522.727 53.4122H527.986L528.496 57.5531Z" fill="#1F0433"/>
<path d="M535.227 57.5531H529.964L529.458 53.4122H534.718L535.227 57.5531Z" fill="#1F0433"/>
<path d="M541.958 57.5531H536.695L536.186 53.4122H541.448L541.958 57.5531Z" fill="#1F0433"/>
<path d="M529.19 63.1827H523.927L523.418 59.0452H528.681L529.19 63.1827Z" fill="#1F0433"/>
<path d="M535.922 63.1827H530.659L530.149 59.0452H535.412L535.922 63.1827Z" fill="#1F0433"/>
<path d="M542.649 63.1827H537.389L536.88 59.0452H542.139L542.649 63.1827Z" fill="#1F0433"/>
<path d="M511.732 106.375H501.578V109.457H511.732V106.375Z" fill="#AE72FF"/>
<path d="M455.415 48.7751H439.61C437.448 48.7751 435.694 47.0215 435.694 44.8589H455.412V48.7751H455.415Z" fill="#AE72FF"/>
<path d="M457.621 48.7751H445.731C443.569 48.7751 441.815 47.0215 441.815 44.8589H461.533C461.533 47.0215 459.78 48.7751 457.618 48.7751H457.621Z" fill="#AE72FF"/>
<path d="M489.614 16H407.62V44.8589H489.614V16Z" fill="#AE72FF"/>
<path d="M493.258 16H411.264V44.8589H493.258V16Z" fill="#AE72FF"/>
<path d="M491.608 17.3076H413.355V43.0885H491.608V17.3076Z" fill="#1F0433"/>
<path d="M231.634 124.414H523.705V314.158C523.705 331.858 509.338 346.232 491.638 346.232H263.698C246.002 346.232 231.631 331.861 231.631 314.158V124.414H231.634Z" fill="#3C1C54"/>
<path d="M551.82 124.414V316.964C551.82 331.137 541.579 342.956 527.983 345.652C526.076 346.031 524.101 346.229 522.077 346.229H289.49C287.465 346.229 285.494 346.031 283.583 345.652C269.987 342.956 259.746 331.137 259.746 316.964V124.414H551.82Z" fill="#1F0433"/>
<path d="M32 124H34V340H32V124Z" fill="#AE72FF"/>
<path d="M334.842 89.3794H244.062L253.431 16.7578H344.211L334.842 89.3794Z" fill="#3C1C54"/>
<path d="M338.234 89.3794H247.454L256.827 16.7578H347.607L338.234 89.3794Z" fill="#3C1C54"/>
<path d="M286.168 74.1771L300.915 109.457H317.501L301.401 72.0883H287.596C286.5 72.0883 285.756 73.1813 286.175 74.1771H286.168Z" fill="#3C1C54"/>
<path d="M289.771 74.4051L304.42 109.457H321.007L305.885 74.3581C305.292 72.9801 303.917 72.0848 302.399 72.0848H291.354C290.14 72.0848 289.312 73.2986 289.775 74.4051H289.771Z" fill="#3C1C54"/>
<path d="M522.076 347H289.49C287.452 347 285.413 346.802 283.429 346.407C269.253 343.597 258.965 331.214 258.965 316.964V123.643H552.601V316.961C552.601 331.211 542.313 343.593 528.137 346.403C526.153 346.796 524.115 346.997 522.076 346.997V347ZM260.527 125.182V316.964C260.527 330.487 270.288 342.236 283.737 344.901C285.621 345.273 287.555 345.464 289.49 345.464H522.076C524.011 345.464 525.945 345.277 527.829 344.901C541.278 342.236 551.039 330.487 551.039 316.964V125.182H260.527Z" fill="#3C1C54"/>
<path d="M37 346H29V337.256C29 334.906 30.791 333 33 333C35.209 333 37 334.906 37 337.256V346Z" fill="#AE72FF"/>
<path d="M563.167 109.457H5.83296C3.04298 109.457 0.78125 111.719 0.78125 114.51V119.361C0.78125 122.152 3.04298 124.414 5.83296 124.414H563.167C565.957 124.414 568.219 122.152 568.219 119.361V114.51C568.219 111.719 565.957 109.457 563.167 109.457Z" fill="#AE72FF"/>
<path d="M563.533 125.182H5.46738C2.45379 125.182 0 122.768 0 119.804V114.067C0 111.1 2.45379 108.689 5.46738 108.689H563.533C566.546 108.689 569 111.103 569 114.067V119.804C569 122.771 566.546 125.182 563.533 125.182ZM5.46738 110.225C3.31529 110.225 1.56211 111.948 1.56211 114.067V119.804C1.56211 121.923 3.31529 123.646 5.46738 123.646H563.533C565.685 123.646 567.438 121.923 567.438 119.804V114.067C567.438 111.948 565.685 110.225 563.533 110.225H5.46738Z" fill="#AE72FF"/>
<g opacity="0.42">
<path fill-rule="evenodd" clip-rule="evenodd" d="M280.502 46.4576C280.08 46.4576 279.713 46.7939 279.676 47.2144C279.602 48.0673 279.799 48.8922 280.229 49.5769C280.78 48.8922 281.121 48.0673 281.196 47.2144C281.232 46.7939 280.924 46.4576 280.502 46.4576ZM281.147 50.6661C282.012 49.693 282.552 48.4757 282.662 47.2184C282.772 45.961 281.86 45 280.63 45C279.4 45 278.316 45.9931 278.209 47.2184C278.102 48.4437 278.426 49.693 279.121 50.6661L277.491 52.1597C276.582 51.3829 275.398 50.9504 274.136 50.9504C272.874 50.9504 271.822 51.9435 271.715 53.1688C271.608 54.3941 272.518 55.3872 273.748 55.3872C274.978 55.3872 276.27 54.9547 277.314 54.1779L278.683 55.6715C277.818 56.6445 277.278 57.8618 277.168 59.1192C277.058 60.3765 277.97 61.3376 279.2 61.3376C280.43 61.3376 281.514 60.3445 281.621 59.1192C281.728 57.8939 281.404 56.6445 280.709 55.6715L282.339 54.1779C283.248 54.9547 284.432 55.3872 285.694 55.3872C286.956 55.3872 288.008 54.3941 288.115 53.1688C288.222 51.9435 287.312 50.9504 286.082 50.9504C284.852 50.9504 283.56 51.3829 282.516 52.1597L281.147 50.6661ZM280.041 51.7232L278.464 53.1688L279.789 54.6143L281.366 53.1688L280.041 51.7232ZM283.521 53.1688C284.165 53.6573 284.97 53.9256 285.826 53.9256C286.248 53.9256 286.615 53.5892 286.652 53.1688C286.689 52.7483 286.38 52.412 285.958 52.412C285.102 52.412 284.251 52.6803 283.521 53.1688ZM279.601 56.7606C279.05 57.4454 278.709 58.2703 278.634 59.1232C278.598 59.5436 278.906 59.88 279.328 59.88C279.75 59.88 280.117 59.5436 280.154 59.1232C280.228 58.2703 280.031 57.4454 279.601 56.7606ZM276.309 53.1688C275.665 52.6803 274.86 52.412 274.004 52.412C273.582 52.412 273.215 52.7483 273.178 53.1688C273.141 53.5892 273.45 53.9256 273.872 53.9256C274.728 53.9256 275.579 53.6573 276.309 53.1688Z" fill="#D2B8FF"/>
<path d="M292.57 59.3076L293.621 47.3026H295.631L295.499 48.8083C296.241 47.7271 297.446 47.0424 298.74 47.0424C301.293 47.0424 302.932 49.1686 302.703 51.7795C302.475 54.3903 300.443 56.5246 297.935 56.5246C296.625 56.5246 295.539 55.8438 295.034 54.8107L294.987 55.8478L294.684 59.3116H292.57L292.57 59.3076ZM300.605 51.7754C300.753 50.0936 299.66 48.9804 298.201 48.9804C296.742 48.9804 295.453 50.2098 295.316 51.7754C295.179 53.3411 296.284 54.5785 297.719 54.5785C299.154 54.5785 300.454 53.5093 300.605 51.7754Z" fill="#D2B8FF"/>
<path d="M303.548 51.7754C303.776 49.1646 305.937 47.0303 308.69 47.0303C311.443 47.0303 313.251 49.1566 313.022 51.7754C312.793 54.3942 310.621 56.5205 307.852 56.5205C305.082 56.5205 303.318 54.4062 303.548 51.7754ZM310.924 51.7754C311.065 50.1656 310.043 48.9804 308.527 48.9804C307.012 48.9804 305.783 50.1656 305.642 51.7754C305.501 53.3851 306.528 54.5624 308.039 54.5624C309.55 54.5624 310.782 53.3971 310.924 51.7754Z" fill="#D2B8FF"/>
<path d="M313.732 53.4052L315.757 53.4132C315.722 54.23 316.278 54.8507 317.484 54.8507C318.577 54.8507 319.124 54.3982 319.183 53.7175C319.249 52.9607 318.597 52.7404 317.387 52.5602C315.675 52.332 314.251 51.6473 314.413 49.7933C314.557 48.1475 315.845 47.0343 318.039 47.0343C320.234 47.0343 321.563 48.1996 321.414 49.9054L319.345 49.8894C319.359 49.2287 318.878 48.7562 317.897 48.7562C316.988 48.7562 316.547 49.2086 316.499 49.7492C316.441 50.4179 316.755 50.6382 318.277 50.8824C320.114 51.1627 321.518 51.6993 321.352 53.5974C321.186 55.4954 319.488 56.5245 317.322 56.5245C314.681 56.5245 313.594 54.9828 313.731 53.4092L313.732 53.4052Z" fill="#D2B8FF"/>
</g>
</svg>
