<svg width="441" height="333" viewBox="0 0 441 333" fill="none" xmlns="http://www.w3.org/2000/svg">
<path d="M87.2798 37.45V302.62" stroke="#AE72FF" stroke-miterlimit="10"/>
<path d="M354.01 40.41V305.58" stroke="#AE72FF" stroke-miterlimit="10"/>
<path d="M392.96 206.12H46.73V332H392.96V206.12Z" fill="#AE72FF" stroke="#AE72FF" stroke-linecap="round" stroke-linejoin="round"/>
<path d="M392.96 206.12H46.73V216.129H392.96V206.12Z" fill="#AE72FF" stroke="#AE72FF" stroke-linecap="round" stroke-linejoin="round"/>
<path d="M392.96 206.12H46.73V212.526H392.96V206.12Z" fill="#3C1C54" stroke="#AE72FF" stroke-linecap="round" stroke-linejoin="round"/>
<path d="M0 332H440.31" stroke="#AE72FF" stroke-miterlimit="10"/>
<path d="M65.9702 79.8101H45.4502V102.34H65.9702V79.8101Z" fill="#3C1C54" stroke="#AE72FF" stroke-miterlimit="10"/>
<path d="M86.48 79.8101H65.96V102.34H86.48V79.8101Z" fill="#1F0433" stroke="#AE72FF" stroke-miterlimit="10"/>
<path d="M107 79.8101H86.48V102.34H107V79.8101Z" fill="#3C1C54" stroke="#AE72FF" stroke-miterlimit="10"/>
<path d="M127.52 79.8101H107V102.34H127.52V79.8101Z" fill="#1F0433" stroke="#AE72FF" stroke-miterlimit="10"/>
<path d="M148.04 79.8101H127.52V102.34H148.04V79.8101Z" fill="#3C1C54" stroke="#AE72FF" stroke-miterlimit="10"/>
<path d="M168.55 79.8101H148.03V102.34H168.55V79.8101Z" fill="#1F0433" stroke="#AE72FF" stroke-miterlimit="10"/>
<path d="M189.07 79.8101H168.55V102.34H189.07V79.8101Z" fill="#3C1C54" stroke="#AE72FF" stroke-miterlimit="10"/>
<path d="M209.59 79.8101H189.07V102.34H209.59V79.8101Z" fill="#1F0433" stroke="#AE72FF" stroke-miterlimit="10"/>
<path d="M230.1 79.8101H209.58V102.34H230.1V79.8101Z" fill="#3C1C54" stroke="#AE72FF" stroke-miterlimit="10"/>
<path d="M250.62 79.8101H230.1V102.34H250.62V79.8101Z" fill="#1F0433" stroke="#AE72FF" stroke-miterlimit="10"/>
<path d="M271.14 79.8101H250.62V102.34H271.14V79.8101Z" fill="#3C1C54" stroke="#AE72FF" stroke-miterlimit="10"/>
<path d="M291.66 79.8101H271.14V102.34H291.66V79.8101Z" fill="#1F0433" stroke="#AE72FF" stroke-miterlimit="10"/>
<path d="M312.17 79.8101H291.65V102.34H312.17V79.8101Z" fill="#3C1C54" stroke="#AE72FF" stroke-miterlimit="10"/>
<path d="M332.69 79.8101H312.17V102.34H332.69V79.8101Z" fill="#1F0433" stroke="#AE72FF" stroke-miterlimit="10"/>
<path d="M353.21 79.8101H332.69V102.34H353.21V79.8101Z" fill="#3C1C54" stroke="#AE72FF" stroke-miterlimit="10"/>
<path d="M373.72 79.8101H353.2V102.34H373.72V79.8101Z" fill="#1F0433" stroke="#AE72FF" stroke-miterlimit="10"/>
<path d="M394.24 79.8101H373.72V102.34H394.24V79.8101Z" fill="#3C1C54" stroke="#AE72FF" stroke-miterlimit="10"/>
<path d="M65.9602 80.13H45.4502L62.8902 22H81.3502L65.9602 80.13Z" fill="#3C1C54" stroke="#AE72FF" stroke-miterlimit="10"/>
<path d="M86.48 80.13H65.96L81.35 22H99.82L86.48 80.13Z" fill="#1F0433" stroke="#AE72FF" stroke-miterlimit="10"/>
<path d="M107 80.13H86.48L99.82 22H118.28L107 80.13Z" fill="#3C1C54" stroke="#AE72FF" stroke-miterlimit="10"/>
<path d="M127.52 80.13H107L118.28 22H136.75L127.52 80.13Z" fill="#1F0433" stroke="#AE72FF" stroke-miterlimit="10"/>
<path d="M148.03 80.13H127.52L136.75 22H155.21L148.03 80.13Z" fill="#3C1C54" stroke="#AE72FF" stroke-miterlimit="10"/>
<path d="M168.55 80.13H148.03L155.21 22H173.68L168.55 80.13Z" fill="#1F0433" stroke="#AE72FF" stroke-miterlimit="10"/>
<path d="M189.07 80.13H168.55L173.68 22H192.14L189.07 80.13Z" fill="#3C1C54" stroke="#AE72FF" stroke-miterlimit="10"/>
<path d="M209.58 80.13H189.07L192.14 22H210.61L209.58 80.13Z" fill="#1F0433" stroke="#AE72FF" stroke-miterlimit="10"/>
<path d="M230.1 80.13H209.58L210.61 22H229.08L230.1 80.13Z" fill="#3C1C54" stroke="#AE72FF" stroke-miterlimit="10"/>
<path d="M250.62 80.13H230.1L229.08 22H247.54L250.62 80.13Z" fill="#1F0433" stroke="#AE72FF" stroke-miterlimit="10"/>
<path d="M271.14 80.13H250.62L247.54 22H266.01L271.14 80.13Z" fill="#3C1C54" stroke="#AE72FF" stroke-miterlimit="10"/>
<path d="M291.65 80.13H271.14L266.01 22H284.47L291.65 80.13Z" fill="#1F0433" stroke="#AE72FF" stroke-miterlimit="10"/>
<path d="M312.17 80.13H291.65L284.47 22H302.94L312.17 80.13Z" fill="#3C1C54" stroke="#AE72FF" stroke-miterlimit="10"/>
<path d="M332.69 80.13H312.17L302.94 22H321.4L332.69 80.13Z" fill="#1F0433" stroke="#AE72FF" stroke-miterlimit="10"/>
<path d="M353.2 80.13H332.69L321.4 22H339.87L353.2 80.13Z" fill="#3C1C54" stroke="#AE72FF" stroke-miterlimit="10"/>
<path d="M373.72 80.13H353.2L339.87 22H358.33L373.72 80.13Z" fill="#1F0433" stroke="#AE72FF" stroke-miterlimit="10"/>
<path d="M394.24 80.13H373.72L358.33 22H376.8L394.24 80.13Z" fill="#3C1C54" stroke="#AE72FF" stroke-miterlimit="10"/>
<path d="M331.64 166H275V205.46H331.64V166Z" fill="#3C1C54" stroke="#AE72FF" stroke-linecap="round" stroke-linejoin="round"/>
<path d="M328.77 171.29H277.87V205.46H328.77V171.29Z" fill="#3C1C54" stroke="#AE72FF" stroke-linecap="round" stroke-linejoin="round"/>
<path d="M311.59 188.38H295.04V205.46H311.59V188.38Z" fill="#AE72FF" stroke="#AE72FF" stroke-linecap="round" stroke-linejoin="round"/>
<path d="M277.87 171.29L275 166H331.64L328.77 171.29H277.87Z" fill="#3C1C54" stroke="#AE72FF" stroke-linecap="round" stroke-linejoin="round"/>
<rect x="63.5" y="0.5" width="313" height="21" fill="#AE72FF" stroke="black"/>
<path fill-rule="evenodd" clip-rule="evenodd" d="M219.643 10.5003C219.099 10.1112 218.442 9.89766 217.765 9.89766C217.431 9.89766 217.162 10.1661 217.162 10.5003C217.162 10.8345 217.431 11.103 217.765 11.103C218.442 11.103 219.099 10.8895 219.643 10.5003ZM222.5 13.3575C222.111 13.9021 221.898 14.5584 221.898 15.2356C221.898 15.5698 222.166 15.8383 222.5 15.8383C222.834 15.8383 223.103 15.5698 223.103 15.2356C223.103 14.5584 222.889 13.9021 222.5 13.3575ZM225.358 10.5003C225.902 10.8895 226.558 11.103 227.236 11.103C227.57 11.103 227.838 10.8345 227.838 10.5003C227.838 10.1661 227.57 9.89766 227.236 9.89766C226.558 9.89766 225.902 10.1112 225.358 10.5003ZM222.5 9.34934L221.349 10.5003L222.5 11.6513L223.651 10.5003L222.5 9.34934ZM223.303 8.5079C223.922 7.73342 224.265 6.76627 224.265 5.765C224.265 4.76374 223.476 4 222.5 4C221.524 4 220.735 4.78901 220.735 5.765C220.735 6.741 221.078 7.73342 221.697 8.5079L220.509 9.69678C219.734 9.0777 218.767 8.73468 217.766 8.73468C216.764 8.73468 216 9.52432 216 10.5003C216 11.4763 216.789 12.2653 217.765 12.2653C218.741 12.2653 219.733 11.9223 220.508 11.3032L221.697 12.4921C221.078 13.2666 220.735 14.2337 220.735 15.235C220.735 16.2363 221.524 17 222.5 17C223.476 17 224.265 16.211 224.265 15.235C224.265 14.259 223.922 13.2666 223.303 12.4921L224.491 11.3032C225.266 11.9223 226.233 12.2653 227.234 12.2653C228.236 12.2653 228.999 11.4763 228.999 10.5003C228.999 9.52432 228.21 8.73531 227.234 8.73531C226.258 8.73531 225.266 9.07833 224.491 9.69741L223.303 8.50853L223.303 8.5079ZM222.5 5.16235C222.166 5.16235 221.898 5.43083 221.898 5.765C221.898 6.4422 222.111 7.09855 222.5 7.64308C222.889 7.09855 223.103 6.4422 223.103 5.765C223.103 5.43083 222.834 5.16235 222.5 5.16235Z" fill="#3C1C54"/>
</svg>
