<svg width="441" height="363" viewBox="0 0 441 363" fill="none" xmlns="http://www.w3.org/2000/svg">
<path d="M400.49 40.7214C400.49 40.7214 385.72 24.1614 371.41 21.4814C357.09 18.8014 348.59 31.7714 344.56 38.4814C340.53 45.1914 336.51 37.1414 327.11 38.9314C317.71 40.7214 318.61 47.4314 314.13 48.3314C309.66 49.2214 309.66 43.8614 302.94 45.6514C296.23 47.4414 296.68 51.4714 292.65 52.3614C288.62 53.2514 282.36 44.3114 275.2 47.8914C268.04 51.4714 266.25 53.7114 266.25 53.7114H429.57C429.57 53.7114 425.99 41.6314 419.28 37.6014C412.57 33.5714 406.75 41.6314 400.49 40.7314V40.7214Z" fill="#3C1C54" stroke="#AE72FF" stroke-miterlimit="10"/>
<path d="M138.42 13.0514C138.42 13.0514 129.34 2.87138 120.53 1.22138C111.72 -0.428623 106.49 7.55138 104.02 11.6814C101.54 15.8114 99.0701 10.8514 93.2901 11.9614C87.5101 13.0614 88.0601 17.1914 85.3101 17.7414C82.5601 18.2914 82.5601 14.9914 78.4301 16.0914C74.3001 17.1914 74.5801 19.6714 72.1001 20.2214C69.6201 20.7714 65.7701 15.2714 61.3701 17.4714C56.9701 19.6714 55.8701 21.0514 55.8701 21.0514H156.32C156.32 21.0514 154.12 13.6214 149.99 11.1414C145.86 8.66138 142.28 13.6214 138.43 13.0714L138.42 13.0514Z" fill="#3C1C54" stroke="#AE72FF" stroke-miterlimit="10"/>
<path d="M330.82 27.9814C330.82 27.9814 325.09 21.5614 319.54 20.5214C313.99 19.4814 310.69 24.5114 309.13 27.1114C307.57 29.7114 306.01 26.5914 302.36 27.2814C298.72 27.9714 299.06 30.5814 297.33 30.9214C295.59 31.2714 295.59 29.1814 292.99 29.8814C290.39 30.5714 290.56 32.1414 289 32.4814C287.44 32.8314 285.01 29.3614 282.23 30.7414C279.45 32.1314 278.76 33.0014 278.76 33.0014H342.09C342.09 33.0014 340.7 28.3114 338.1 26.7514C335.5 25.1914 333.24 28.3114 330.81 27.9614L330.82 27.9814Z" fill="#3C1C54" stroke="#AE72FF" stroke-miterlimit="10"/>
<path d="M57.4199 160.161V361.991H378.78V160.161H57.4199ZM369.15 306.471H175.81V183.671H369.15V306.471Z" fill="#1F0433" stroke="#AE72FF" stroke-miterlimit="10"/>
<path d="M165.19 183.511H77.1699V361.991H165.19V183.511Z" fill="#AE72FF" stroke="#AE72FF" stroke-miterlimit="10"/>
<path d="M158.63 196.821H83.73V348.681H158.63V196.821Z" fill="#1F0433"/>
<path d="M158.63 267.221H83.73V270.091H158.63V267.221Z" fill="#AE72FF" stroke="#AE72FF" stroke-miterlimit="10"/>
<path d="M158.63 279.631H83.73V282.501H158.63V279.631Z" fill="#AE72FF" stroke="#AE72FF" stroke-miterlimit="10"/>
<path d="M378.99 172.461H57.6104V184.091H378.99V172.461Z" fill="#AE72FF" stroke="#AE72FF" stroke-miterlimit="10"/>
<path d="M66.9101 154.611H46.3901V177.141H66.9101V154.611Z" fill="#3C1C54" stroke="#AE72FF" stroke-miterlimit="10"/>
<path d="M87.4302 154.611H66.9102V177.141H87.4302V154.611Z" fill="#1F0433" stroke="#AE72FF" stroke-miterlimit="10"/>
<path d="M107.95 154.611H87.4302V177.141H107.95V154.611Z" fill="#3C1C54" stroke="#AE72FF" stroke-miterlimit="10"/>
<path d="M128.47 154.611H107.95V177.141H128.47V154.611Z" fill="#1F0433" stroke="#AE72FF" stroke-miterlimit="10"/>
<path d="M148.98 154.611H128.46V177.141H148.98V154.611Z" fill="#3C1C54" stroke="#AE72FF" stroke-miterlimit="10"/>
<path d="M169.5 154.611H148.98V177.141H169.5V154.611Z" fill="#1F0433" stroke="#AE72FF" stroke-miterlimit="10"/>
<path d="M190.02 154.611H169.5V177.141H190.02V154.611Z" fill="#3C1C54" stroke="#AE72FF" stroke-miterlimit="10"/>
<path d="M210.53 154.611H190.01V177.141H210.53V154.611Z" fill="#1F0433" stroke="#AE72FF" stroke-miterlimit="10"/>
<path d="M231.05 154.611H210.53V177.141H231.05V154.611Z" fill="#3C1C54" stroke="#AE72FF" stroke-miterlimit="10"/>
<path d="M251.57 154.611H231.05V177.141H251.57V154.611Z" fill="#1F0433" stroke="#AE72FF" stroke-miterlimit="10"/>
<path d="M272.09 154.611H251.57V177.141H272.09V154.611Z" fill="#3C1C54" stroke="#AE72FF" stroke-miterlimit="10"/>
<path d="M292.6 154.611H272.08V177.141H292.6V154.611Z" fill="#1F0433" stroke="#AE72FF" stroke-miterlimit="10"/>
<path d="M313.12 154.611H292.6V177.141H313.12V154.611Z" fill="#3C1C54" stroke="#AE72FF" stroke-miterlimit="10"/>
<path d="M333.64 154.611H313.12V177.141H333.64V154.611Z" fill="#1F0433" stroke="#AE72FF" stroke-miterlimit="10"/>
<path d="M354.15 154.611H333.63V177.141H354.15V154.611Z" fill="#3C1C54" stroke="#AE72FF" stroke-miterlimit="10"/>
<path d="M374.67 154.611H354.15V177.141H374.67V154.611Z" fill="#1F0433" stroke="#AE72FF" stroke-miterlimit="10"/>
<path d="M395.19 154.611H374.67V177.141H395.19V154.611Z" fill="#3C1C54" stroke="#AE72FF" stroke-miterlimit="10"/>
<path d="M66.9101 154.941H46.3901L63.8301 96.8013H82.3001L66.9101 154.941Z" fill="#3C1C54" stroke="#AE72FF" stroke-miterlimit="10"/>
<path d="M87.4302 154.941H66.9102L82.3002 96.8013H100.76L87.4302 154.941Z" fill="#1F0433" stroke="#AE72FF" stroke-miterlimit="10"/>
<path d="M107.95 154.941H87.4302L100.76 96.8013H119.23L107.95 154.941Z" fill="#3C1C54" stroke="#AE72FF" stroke-miterlimit="10"/>
<path d="M128.46 154.941H107.95L119.23 96.8013H137.7L128.46 154.941Z" fill="#1F0433" stroke="#AE72FF" stroke-miterlimit="10"/>
<path d="M148.98 154.941H128.46L137.7 96.8013H156.16L148.98 154.941Z" fill="#3C1C54" stroke="#AE72FF" stroke-miterlimit="10"/>
<path d="M169.5 154.941H148.98L156.16 96.8013H174.63L169.5 154.941Z" fill="#1F0433" stroke="#AE72FF" stroke-miterlimit="10"/>
<path d="M190.01 154.941H169.5L174.63 96.8013H193.09L190.01 154.941Z" fill="#3C1C54" stroke="#AE72FF" stroke-miterlimit="10"/>
<path d="M210.53 154.941H190.01L193.09 96.8013H211.56L210.53 154.941Z" fill="#1F0433" stroke="#AE72FF" stroke-miterlimit="10"/>
<path d="M231.05 154.941H210.53L211.56 96.8013H230.02L231.05 154.941Z" fill="#3C1C54" stroke="#AE72FF" stroke-miterlimit="10"/>
<path d="M251.57 154.941H231.05L230.02 96.8013H248.49L251.57 154.941Z" fill="#1F0433" stroke="#AE72FF" stroke-miterlimit="10"/>
<path d="M272.08 154.941H251.57L248.49 96.8013H266.95L272.08 154.941Z" fill="#3C1C54" stroke="#AE72FF" stroke-miterlimit="10"/>
<path d="M292.6 154.941H272.08L266.95 96.8013H285.42L292.6 154.941Z" fill="#1F0433" stroke="#AE72FF" stroke-miterlimit="10"/>
<path d="M313.12 154.941H292.6L285.42 96.8013H303.88L313.12 154.941Z" fill="#3C1C54" stroke="#AE72FF" stroke-miterlimit="10"/>
<path d="M333.63 154.941H313.12L303.88 96.8013H322.35L333.63 154.941Z" fill="#1F0433" stroke="#AE72FF" stroke-miterlimit="10"/>
<path d="M354.15 154.941H333.63L322.35 96.8013H340.82L354.15 154.941Z" fill="#3C1C54" stroke="#AE72FF" stroke-miterlimit="10"/>
<path d="M374.67 154.941H354.15L340.82 96.8013H359.28L374.67 154.941Z" fill="#1F0433" stroke="#AE72FF" stroke-miterlimit="10"/>
<path d="M395.19 154.941H374.67L359.28 96.8013H377.75L395.19 154.941Z" fill="#3C1C54" stroke="#AE72FF" stroke-miterlimit="10"/>
<path d="M381.88 306.471H163.07V312.351H381.88V306.471Z" fill="#AE72FF" stroke="#AE72FF" stroke-miterlimit="10"/>
<path d="M0 361.991H440.31" stroke="#AE72FF" stroke-miterlimit="10"/>
<line x1="113.68" y1="234.289" x2="118.844" y2="222.67" stroke="#AE72FF"/>
<line x1="127.962" y1="232.239" x2="118.925" y2="221.911" stroke="#AE72FF"/>
<circle cx="118.656" cy="220.936" r="1.93648" fill="#AE72FF"/>
<rect x="102.519" y="234.467" width="37.4386" height="16.7828" rx="1.14286" transform="rotate(-9.88908 102.519 234.467)" fill="#AE72FF"/>
<path fill-rule="evenodd" clip-rule="evenodd" d="M119.943 239.7C119.44 239.464 118.873 239.388 118.321 239.489C118.048 239.539 117.869 239.798 117.919 240.071C117.969 240.343 118.228 240.522 118.5 240.472C119.053 240.371 119.557 240.099 119.943 239.7ZM122.701 241.605C122.464 242.108 122.388 242.675 122.489 243.228C122.539 243.5 122.798 243.679 123.071 243.629C123.344 243.579 123.523 243.32 123.473 243.048C123.372 242.495 123.099 241.991 122.701 241.605ZM124.605 238.847C125.108 239.084 125.675 239.16 126.228 239.059C126.5 239.009 126.679 238.75 126.63 238.477C126.58 238.204 126.321 238.025 126.048 238.075C125.495 238.176 124.992 238.449 124.605 238.847ZM122.102 238.335L121.335 239.446L122.446 240.213L123.213 239.102L122.102 238.335ZM122.632 237.528C123.021 236.804 123.157 235.964 123.007 235.147C122.858 234.33 122.1 233.824 121.304 233.97C120.507 234.116 119.981 234.877 120.127 235.674C120.273 236.47 120.701 237.229 121.322 237.768L120.529 238.916C119.805 238.526 118.964 238.391 118.147 238.54C117.33 238.689 116.825 239.448 116.97 240.244C117.116 241.041 117.878 241.567 118.674 241.421C119.47 241.275 120.229 240.847 120.768 240.226L121.916 241.019C121.526 241.743 121.391 242.584 121.54 243.401C121.69 244.218 122.448 244.723 123.244 244.577C124.04 244.432 124.566 243.67 124.421 242.874C124.275 242.077 123.847 241.319 123.226 240.779L124.019 239.632C124.743 240.021 125.583 240.157 126.4 240.007C127.217 239.858 127.723 239.1 127.577 238.304C127.431 237.507 126.67 236.981 125.873 237.127C125.077 237.273 124.318 237.701 123.779 238.322L122.631 237.529L122.632 237.528ZM121.477 234.918C121.205 234.968 121.026 235.227 121.076 235.5C121.177 236.053 121.449 236.556 121.848 236.943C122.084 236.44 122.16 235.873 122.059 235.32C122.009 235.048 121.75 234.869 121.477 234.918Z" fill="#3C1C54"/>
</svg>
