<svg width="441" height="387" viewBox="0 0 441 387" fill="none" xmlns="http://www.w3.org/2000/svg">
<path d="M0 386H440.31" stroke="#AE72FF" stroke-miterlimit="10"/>
<path d="M375.245 385.239V39.7997C375.245 19.791 359.996 3.26018 340.491 1.20149C340.14 1.17521 339.789 1.14017 339.447 1.11388C339.087 1.0876 338.736 1.07008 338.376 1.05256H338.368C337.701 1.01752 337.051 1 336.376 1H99.8781C99.2025 1 98.5445 1.01752 97.8864 1.05256H97.8601C77.3462 2.10381 61 19.0814 61 39.7997V385.248H375.245V385.239Z" fill="#AE72FF" stroke="#AE72FF" stroke-width="2" stroke-miterlimit="10"/>
<path d="M99.8779 1.46289H336.376C337.043 1.46289 337.685 1.48003 338.344 1.51465H338.354L339.411 1.57422V1.5752C339.579 1.58809 339.75 1.60278 339.925 1.61816C340.099 1.63346 340.277 1.64872 340.456 1.66211C359.722 3.70257 374.782 20.0356 374.782 39.7998V384.785H61.4629V39.7998C61.4629 19.6497 77.1128 3.07802 96.9365 1.57422L97.8838 1.51465H97.9111C98.5608 1.48006 99.2105 1.46289 99.8779 1.46289Z" stroke="#AE72FF" stroke-width="0.925"/>
<path d="M360.075 385.239V39.8086C360.075 27.3425 350.379 17.014 337.955 16.2081H337.745L337.429 16.173C337.051 16.1555 336.709 16.1555 336.385 16.1555H302.262C300.305 16.2519 298.735 17.7587 298.533 19.686C298.533 19.8174 298.515 19.9488 298.515 20.0889V20.1415C298.05 30.1283 289.794 38.074 279.686 38.074H156.568C146.46 38.074 138.203 30.1283 137.738 20.1415V20.0889C137.738 19.9488 137.738 19.8174 137.721 19.686C137.528 17.7587 135.949 16.2519 133.992 16.1555H99.8693C99.5535 16.1555 99.2025 16.1555 98.8252 16.173L98.5093 16.2081H98.2988C85.8746 17.0228 76.1792 27.3425 76.1792 39.8086V385.248H360.075V385.239Z" fill="#1F0433" stroke="#AE72FF" stroke-width="2" stroke-miterlimit="10"/>
<path d="M218.001 10.4629C219.326 10.4631 220.39 11.4941 220.39 12.8516C220.39 14.3563 219.875 15.8097 218.948 16.9766L218.643 17.2832L221.183 19.8232L221.506 19.5645C222.674 18.6305 224.175 18.1124 225.647 18.1123C226.969 18.1123 228.036 19.1798 228.036 20.501C228.036 21.8263 227.005 22.8896 225.647 22.8896C224.136 22.8896 222.675 22.3713 221.506 21.4365L221.183 21.1777L218.677 23.6836L218.936 24.0068C219.869 25.1753 220.388 26.6763 220.388 28.1484C220.388 29.4696 219.32 30.5371 217.999 30.5371C216.674 30.5369 215.61 29.5059 215.61 28.1484C215.61 26.6369 216.129 25.1764 217.063 24.0068L217.322 23.6836L214.816 21.1777L214.493 21.4365C213.325 22.3705 211.824 22.8896 210.352 22.8896C209.031 22.8896 207.963 21.8219 207.963 20.501C207.963 19.1755 208.995 18.1104 210.353 18.1104C211.864 18.1104 213.325 18.6287 214.494 19.5635L214.817 19.8223L217.323 17.3164L217.064 16.9932C216.131 15.8247 215.612 14.3237 215.612 12.8516C215.612 11.5304 216.68 10.4629 218.001 10.4629ZM217.624 24.8467C216.94 25.804 216.565 26.9584 216.564 28.1494C216.564 28.9447 217.206 29.5859 218.001 29.5859C218.796 29.5857 219.437 28.9445 219.437 28.1494C219.436 26.9584 219.061 25.804 218.377 24.8467L218.001 24.3203L217.624 24.8467ZM215.487 20.501L215.814 20.8271L218.001 23.0137L218.327 22.6865L220.187 20.8271L220.514 20.501L218.327 18.3145L218.001 17.9873L215.487 20.501ZM210.352 19.0645C209.556 19.0645 208.915 19.7057 208.915 20.501C208.915 21.296 209.556 21.9365 210.352 21.9365C211.543 21.9364 212.697 21.561 213.654 20.877L214.181 20.501L213.654 20.124C212.697 19.4399 211.543 19.0645 210.352 19.0645ZM225.649 19.0645C224.458 19.0645 223.304 19.4399 222.347 20.124L221.82 20.501L222.347 20.877C223.304 21.561 224.458 21.9364 225.649 21.9365C226.445 21.9365 227.086 21.296 227.086 20.501C227.086 19.7057 226.445 19.0645 225.649 19.0645ZM218.001 11.415C217.206 11.415 216.564 12.0563 216.564 12.8516C216.565 14.0426 216.94 15.197 217.624 16.1543L218.001 16.6807L218.377 16.1543C219.061 15.197 219.436 14.0426 219.437 12.8516C219.437 12.0565 218.796 11.4153 218.001 11.415Z" fill="white" stroke="#1F0433" stroke-width="0.925"/>
<rect x="101" y="197" width="110" height="104" rx="15" fill="#2D1043"/>
<rect x="224" y="197" width="110" height="104" rx="15" fill="#2D1043"/>
<path d="M222 323C222 314.716 228.716 308 237 308H317C325.284 308 332 314.716 332 323V384H222V323Z" fill="#2D1043"/>
<path d="M102 323C102 314.716 108.716 308 117 308H197C205.284 308 212 314.716 212 323V384H102V323Z" fill="#2D1043"/>
<path d="M64.52 109.81H44V132.34H64.52V109.81Z" fill="#1F0433" stroke="#AE72FF" stroke-miterlimit="10"/>
<path d="M85.0298 109.81H64.5098V132.34H85.0298V109.81Z" fill="#3C1C54" stroke="#AE72FF" stroke-miterlimit="10"/>
<path d="M105.55 109.81H85.0298V132.34H105.55V109.81Z" fill="#1F0433" stroke="#AE72FF" stroke-miterlimit="10"/>
<path d="M126.07 109.81H105.55V132.34H126.07V109.81Z" fill="#3C1C54" stroke="#AE72FF" stroke-miterlimit="10"/>
<path d="M146.59 109.81H126.07V132.34H146.59V109.81Z" fill="#1F0433" stroke="#AE72FF" stroke-miterlimit="10"/>
<path d="M167.1 109.81H146.58V132.34H167.1V109.81Z" fill="#3C1C54" stroke="#AE72FF" stroke-miterlimit="10"/>
<path d="M187.62 109.81H167.1V132.34H187.62V109.81Z" fill="#1F0433" stroke="#AE72FF" stroke-miterlimit="10"/>
<path d="M208.14 109.81H187.62V132.34H208.14V109.81Z" fill="#3C1C54" stroke="#AE72FF" stroke-miterlimit="10"/>
<path d="M228.65 109.81H208.13V132.34H228.65V109.81Z" fill="#1F0433" stroke="#AE72FF" stroke-miterlimit="10"/>
<path d="M249.17 109.81H228.65V132.34H249.17V109.81Z" fill="#3C1C54" stroke="#AE72FF" stroke-miterlimit="10"/>
<path d="M269.69 109.81H249.17V132.34H269.69V109.81Z" fill="#1F0433" stroke="#AE72FF" stroke-miterlimit="10"/>
<path d="M290.21 109.81H269.69V132.34H290.21V109.81Z" fill="#3C1C54" stroke="#AE72FF" stroke-miterlimit="10"/>
<path d="M310.72 109.81H290.2V132.34H310.72V109.81Z" fill="#1F0433" stroke="#AE72FF" stroke-miterlimit="10"/>
<path d="M331.24 109.81H310.72V132.34H331.24V109.81Z" fill="#3C1C54" stroke="#AE72FF" stroke-miterlimit="10"/>
<path d="M351.76 109.81H331.24V132.34H351.76V109.81Z" fill="#1F0433" stroke="#AE72FF" stroke-miterlimit="10"/>
<path d="M372.27 109.81H351.75V132.34H372.27V109.81Z" fill="#3C1C54" stroke="#AE72FF" stroke-miterlimit="10"/>
<path d="M392.79 109.81H372.27V132.34H392.79V109.81Z" fill="#1F0433" stroke="#AE72FF" stroke-miterlimit="10"/>
<path d="M64.51 110.13H44L61.44 52H79.9L64.51 110.13Z" fill="#1F0433" stroke="#AE72FF" stroke-miterlimit="10"/>
<path d="M85.0298 110.13H64.5098L79.8998 52H98.3698L85.0298 110.13Z" fill="#3C1C54" stroke="#AE72FF" stroke-miterlimit="10"/>
<path d="M105.55 110.13H85.0298L98.3698 52H116.83L105.55 110.13Z" fill="#1F0433" stroke="#AE72FF" stroke-miterlimit="10"/>
<path d="M126.07 110.13H105.55L116.83 52H135.3L126.07 110.13Z" fill="#3C1C54" stroke="#AE72FF" stroke-miterlimit="10"/>
<path d="M146.58 110.13H126.07L135.3 52H153.76L146.58 110.13Z" fill="#1F0433" stroke="#AE72FF" stroke-miterlimit="10"/>
<path d="M167.1 110.13H146.58L153.76 52H172.23L167.1 110.13Z" fill="#3C1C54" stroke="#AE72FF" stroke-miterlimit="10"/>
<path d="M187.62 110.13H167.1L172.23 52H190.69L187.62 110.13Z" fill="#1F0433" stroke="#AE72FF" stroke-miterlimit="10"/>
<path d="M208.13 110.13H187.62L190.69 52H209.16L208.13 110.13Z" fill="#3C1C54" stroke="#AE72FF" stroke-miterlimit="10"/>
<path d="M228.65 110.13H208.13L209.16 52H227.63L228.65 110.13Z" fill="#1F0433" stroke="#AE72FF" stroke-miterlimit="10"/>
<path d="M249.17 110.13H228.65L227.63 52H246.09L249.17 110.13Z" fill="#3C1C54" stroke="#AE72FF" stroke-miterlimit="10"/>
<path d="M269.69 110.13H249.17L246.09 52H264.56L269.69 110.13Z" fill="#1F0433" stroke="#AE72FF" stroke-miterlimit="10"/>
<path d="M290.2 110.13H269.69L264.56 52H283.02L290.2 110.13Z" fill="#3C1C54" stroke="#AE72FF" stroke-miterlimit="10"/>
<path d="M310.72 110.13H290.2L283.02 52H301.49L310.72 110.13Z" fill="#1F0433" stroke="#AE72FF" stroke-miterlimit="10"/>
<path d="M331.24 110.13H310.72L301.49 52H319.95L331.24 110.13Z" fill="#3C1C54" stroke="#AE72FF" stroke-miterlimit="10"/>
<path d="M351.75 110.13H331.24L319.95 52H338.42L351.75 110.13Z" fill="#1F0433" stroke="#AE72FF" stroke-miterlimit="10"/>
<path d="M372.27 110.13H351.75L338.42 52H356.88L372.27 110.13Z" fill="#3C1C54" stroke="#AE72FF" stroke-miterlimit="10"/>
<path d="M392.79 110.13H372.27L356.88 52H375.35L392.79 110.13Z" fill="#1F0433" stroke="#AE72FF" stroke-miterlimit="10"/>
<rect x="101.463" y="148.463" width="232.075" height="33.075" rx="16.5375" fill="#1F0433" stroke="#AE72FF" stroke-width="0.925"/>
<path d="M141.965 240.015L137 235.13L139.165 233L144.131 237.885H167.469C168.314 237.885 169 238.559 169 239.391C169 239.538 168.978 239.684 168.936 239.824L165.261 251.875C165.066 252.512 164.47 252.949 163.794 252.949H145.028V255.962H161.871V258.974H143.496C142.651 258.974 141.965 258.3 141.965 257.468V240.015ZM144.262 265C142.993 265 141.965 263.988 141.965 262.74C141.965 261.492 142.993 260.481 144.262 260.481C145.53 260.481 146.559 261.492 146.559 262.74C146.559 263.988 145.53 265 144.262 265ZM162.636 265C161.368 265 160.34 263.988 160.34 262.74C160.34 261.492 161.368 260.481 162.636 260.481C163.905 260.481 164.933 261.492 164.933 262.74C164.933 263.988 163.905 265 162.636 265Z" fill="#482067"/>
<path d="M267.965 240.015L263 235.13L265.165 233L270.131 237.885H293.469C294.314 237.885 295 238.559 295 239.391C295 239.538 294.978 239.684 294.936 239.824L291.261 251.875C291.066 252.512 290.47 252.949 289.794 252.949H271.028V255.962H287.871V258.974H269.496C268.651 258.974 267.965 258.3 267.965 257.468V240.015ZM270.262 265C268.993 265 267.965 263.988 267.965 262.74C267.965 261.492 268.993 260.481 270.262 260.481C271.53 260.481 272.559 261.492 272.559 262.74C272.559 263.988 271.53 265 270.262 265ZM288.636 265C287.368 265 286.34 263.988 286.34 262.74C286.34 261.492 287.368 260.481 288.636 260.481C289.905 260.481 290.933 261.492 290.933 262.74C290.933 263.988 289.905 265 288.636 265Z" fill="#482067"/>
<path d="M267.965 343.015L263 338.13L265.165 336L270.131 340.885H293.469C294.314 340.885 295 341.559 295 342.391C295 342.538 294.978 342.684 294.936 342.824L291.261 354.875C291.066 355.512 290.47 355.949 289.794 355.949H271.028V358.962H287.871V361.974H269.496C268.651 361.974 267.965 361.3 267.965 360.468V343.015ZM270.262 368C268.993 368 267.965 366.988 267.965 365.74C267.965 364.492 268.993 363.481 270.262 363.481C271.53 363.481 272.559 364.492 272.559 365.74C272.559 366.988 271.53 368 270.262 368ZM288.636 368C287.368 368 286.34 366.988 286.34 365.74C286.34 364.492 287.368 363.481 288.636 363.481C289.905 363.481 290.933 364.492 290.933 365.74C290.933 366.988 289.905 368 288.636 368Z" fill="#482067"/>
<path d="M141.965 343.015L137 338.13L139.165 336L144.131 340.885H167.469C168.314 340.885 169 341.559 169 342.391C169 342.538 168.978 342.684 168.936 342.824L165.261 354.875C165.066 355.512 164.47 355.949 163.794 355.949H145.028V358.962H161.871V361.974H143.496C142.651 361.974 141.965 361.3 141.965 360.468V343.015ZM144.262 368C142.993 368 141.965 366.988 141.965 365.74C141.965 364.492 142.993 363.481 144.262 363.481C145.53 363.481 146.559 364.492 146.559 365.74C146.559 366.988 145.53 368 144.262 368ZM162.636 368C161.368 368 160.34 366.988 160.34 365.74C160.34 364.492 161.368 363.481 162.636 363.481C163.905 363.481 164.933 364.492 164.933 365.74C164.933 366.988 163.905 368 162.636 368Z" fill="#482067"/>
<path d="M311.994 168.672L316 172.677L314.677 174L310.672 169.994C309.231 171.147 307.405 171.836 305.418 171.836C300.771 171.836 297 168.065 297 163.418C297 158.771 300.771 155 305.418 155C310.065 155 313.836 158.771 313.836 163.418C313.836 165.405 313.147 167.231 311.994 168.672ZM310.118 167.978C311.261 166.799 311.965 165.191 311.965 163.418C311.965 159.801 309.035 156.871 305.418 156.871C301.801 156.871 298.871 159.801 298.871 163.418C298.871 167.035 301.801 169.965 305.418 169.965C307.191 169.965 308.799 169.261 309.978 168.118L310.118 167.978Z" fill="#3C1C54"/>
<line x1="126.5" y1="155" x2="126.5" y2="174" stroke="#AE72FF"/>
</svg>
