<svg width="495" height="387" viewBox="0 0 495 387" fill="none" xmlns="http://www.w3.org/2000/svg">
<path d="M375.245 385.239V39.7997C375.245 19.791 359.996 3.26018 340.491 1.20149C340.14 1.17521 339.789 1.14017 339.447 1.11388C339.087 1.0876 338.736 1.07008 338.376 1.05256H338.368C337.701 1.01752 337.051 1 336.376 1H99.8781C99.2025 1 98.5445 1.01752 97.8864 1.05256H97.8601C77.3462 2.10381 61 19.0814 61 39.7997V385.248H375.245V385.239Z" fill="#AE72FF" stroke="#AE72FF" stroke-miterlimit="10"/>
<path d="M99.8779 1.5H336.376C337.043 1.5 337.684 1.51717 338.342 1.55176L338.354 1.55273H338.368C338.722 1.56997 339.061 1.58602 339.408 1.61133V1.6123C339.576 1.62519 339.747 1.64085 339.922 1.65625C340.096 1.67154 340.274 1.68582 340.453 1.69922C359.7 3.73814 374.745 20.0554 374.745 39.7998V384.748H61.5V39.7998C61.5 19.3552 77.6271 2.59826 97.8701 1.55273H97.8994L97.9131 1.55176C98.2375 1.53448 98.562 1.52134 98.8887 1.5127L99.8779 1.5Z" stroke="#AE72FF"/>
<path d="M360.075 385.239V39.8086C360.075 27.3425 350.379 17.014 337.955 16.2081H337.745L337.429 16.173C337.051 16.1555 336.709 16.1555 336.385 16.1555H302.262C300.305 16.2519 298.735 17.7587 298.533 19.686C298.533 19.8174 298.515 19.9488 298.515 20.0889V20.1415C298.05 30.1283 289.794 38.074 279.686 38.074H156.568C146.46 38.074 138.203 30.1283 137.738 20.1415V20.0889C137.738 19.9488 137.738 19.8174 137.721 19.686C137.528 17.7587 135.949 16.2519 133.992 16.1555H99.8693C99.5535 16.1555 99.2025 16.1555 98.8252 16.173L98.5093 16.2081H98.2988C85.8746 17.0228 76.1792 27.3425 76.1792 39.8086V385.248H360.075V385.239Z" fill="#1F0433" stroke="#AE72FF" stroke-miterlimit="10"/>
<path d="M218.001 10.5C219.306 10.5002 220.352 11.5151 220.352 12.8516C220.351 14.3477 219.84 15.7929 218.919 16.9531L218.59 17.2832L221.18 19.873L221.529 19.5938C222.691 18.6652 224.184 18.1495 225.647 18.1494C226.948 18.1494 227.999 19.2005 227.999 20.501C227.999 21.8059 226.984 22.8516 225.647 22.8516C224.144 22.8515 222.692 22.3367 221.529 21.4072L221.18 21.1279L218.627 23.6807L218.906 24.0303C219.835 25.192 220.35 26.6848 220.351 28.1484C220.351 29.4489 219.299 30.5 217.999 30.5C216.694 30.4998 215.648 29.4849 215.648 28.1484C215.649 26.6455 216.163 25.1932 217.093 24.0303L217.372 23.6807L214.819 21.1279L214.47 21.4072C213.308 22.3358 211.815 22.8515 210.352 22.8516C209.051 22.8516 208 21.8012 208 20.501C208 19.1958 209.016 18.1484 210.353 18.1484C211.856 18.1485 213.308 18.6633 214.471 19.5928L214.82 19.8721L217.373 17.3193L217.094 16.9697C216.165 15.808 215.65 14.3152 215.649 12.8516C215.649 11.5511 216.701 10.5 218.001 10.5ZM217.594 24.8252C216.905 25.7888 216.527 26.9505 216.527 28.1494C216.527 28.9654 217.185 29.623 218.001 29.623C218.817 29.6228 219.474 28.9652 219.474 28.1494C219.474 26.9505 219.096 25.7888 218.407 24.8252L218.001 24.2559L217.594 24.8252ZM217.646 18.2881L215.788 20.1465L215.435 20.501L217.646 22.7129L218.001 23.0664L220.566 20.501L220.213 20.1465L218.001 17.9346L217.646 18.2881ZM210.352 19.0273C209.536 19.0273 208.878 19.685 208.878 20.501C208.878 21.3167 209.536 21.9736 210.352 21.9736C211.551 21.9735 212.712 21.5958 213.676 20.9072L214.245 20.501L213.676 20.0938C212.712 19.4051 211.551 19.0274 210.352 19.0273ZM225.649 19.0273C224.45 19.0274 223.289 19.4052 222.325 20.0938L221.756 20.501L222.325 20.9072C223.289 21.5958 224.45 21.9735 225.649 21.9736C226.465 21.9736 227.123 21.3167 227.123 20.501C227.123 19.685 226.465 19.0273 225.649 19.0273ZM218.001 11.3779C217.185 11.3779 216.527 12.0356 216.527 12.8516C216.527 14.0505 216.905 15.2122 217.594 16.1758L218.001 16.7451L218.407 16.1758C219.096 15.2122 219.474 14.0505 219.474 12.8516C219.474 12.0358 218.817 11.3782 218.001 11.3779Z" fill="white" stroke="#1F0433"/>
<rect opacity="0.48" x="106" y="152" width="227" height="206" rx="26" fill="#3C1C54"/>
<path d="M437.25 264H316V385.25H437.25V264Z" fill="#AE72FF" stroke="#AE72FF" stroke-miterlimit="10"/>
<path d="M472.91 264H351.66V385.25H472.91V264Z" fill="#1F0433" stroke="#AE72FF" stroke-miterlimit="10"/>
<path d="M459.968 264H447.727V317.261H459.968V264Z" fill="#FF8C3A" stroke="#FF8C3A" stroke-miterlimit="10"/>
<path d="M472.503 264H351.253L372.473 294.51H493.723L472.503 264Z" fill="#1F0433" stroke="#AE72FF" stroke-miterlimit="10"/>
<path d="M300 294.51H335.659L351.252 264H315.593L300 294.51Z" fill="#1F0433" stroke="#AE72FF" stroke-miterlimit="10"/>
<path d="M64.52 109.81H44V132.34H64.52V109.81Z" fill="#1F0433" stroke="#AE72FF" stroke-miterlimit="10"/>
<path d="M85.0298 109.81H64.5098V132.34H85.0298V109.81Z" fill="#3C1C54" stroke="#AE72FF" stroke-miterlimit="10"/>
<path d="M105.55 109.81H85.0298V132.34H105.55V109.81Z" fill="#1F0433" stroke="#AE72FF" stroke-miterlimit="10"/>
<path d="M126.07 109.81H105.55V132.34H126.07V109.81Z" fill="#3C1C54" stroke="#AE72FF" stroke-miterlimit="10"/>
<path d="M146.59 109.81H126.07V132.34H146.59V109.81Z" fill="#1F0433" stroke="#AE72FF" stroke-miterlimit="10"/>
<path d="M167.1 109.81H146.58V132.34H167.1V109.81Z" fill="#3C1C54" stroke="#AE72FF" stroke-miterlimit="10"/>
<path d="M187.62 109.81H167.1V132.34H187.62V109.81Z" fill="#1F0433" stroke="#AE72FF" stroke-miterlimit="10"/>
<path d="M208.14 109.81H187.62V132.34H208.14V109.81Z" fill="#3C1C54" stroke="#AE72FF" stroke-miterlimit="10"/>
<path d="M228.65 109.81H208.13V132.34H228.65V109.81Z" fill="#1F0433" stroke="#AE72FF" stroke-miterlimit="10"/>
<path d="M249.17 109.81H228.65V132.34H249.17V109.81Z" fill="#3C1C54" stroke="#AE72FF" stroke-miterlimit="10"/>
<path d="M269.69 109.81H249.17V132.34H269.69V109.81Z" fill="#1F0433" stroke="#AE72FF" stroke-miterlimit="10"/>
<path d="M290.21 109.81H269.69V132.34H290.21V109.81Z" fill="#3C1C54" stroke="#AE72FF" stroke-miterlimit="10"/>
<path d="M310.72 109.81H290.2V132.34H310.72V109.81Z" fill="#1F0433" stroke="#AE72FF" stroke-miterlimit="10"/>
<path d="M331.24 109.81H310.72V132.34H331.24V109.81Z" fill="#3C1C54" stroke="#AE72FF" stroke-miterlimit="10"/>
<path d="M351.76 109.81H331.24V132.34H351.76V109.81Z" fill="#1F0433" stroke="#AE72FF" stroke-miterlimit="10"/>
<path d="M372.27 109.81H351.75V132.34H372.27V109.81Z" fill="#3C1C54" stroke="#AE72FF" stroke-miterlimit="10"/>
<path d="M392.79 109.81H372.27V132.34H392.79V109.81Z" fill="#1F0433" stroke="#AE72FF" stroke-miterlimit="10"/>
<path d="M64.51 110.13H44L61.44 52H79.9L64.51 110.13Z" fill="#1F0433" stroke="#AE72FF" stroke-miterlimit="10"/>
<path d="M85.0298 110.13H64.5098L79.8998 52H98.3698L85.0298 110.13Z" fill="#3C1C54" stroke="#AE72FF" stroke-miterlimit="10"/>
<path d="M105.55 110.13H85.0298L98.3698 52H116.83L105.55 110.13Z" fill="#1F0433" stroke="#AE72FF" stroke-miterlimit="10"/>
<path d="M126.07 110.13H105.55L116.83 52H135.3L126.07 110.13Z" fill="#3C1C54" stroke="#AE72FF" stroke-miterlimit="10"/>
<path d="M146.58 110.13H126.07L135.3 52H153.76L146.58 110.13Z" fill="#1F0433" stroke="#AE72FF" stroke-miterlimit="10"/>
<path d="M167.1 110.13H146.58L153.76 52H172.23L167.1 110.13Z" fill="#3C1C54" stroke="#AE72FF" stroke-miterlimit="10"/>
<path d="M187.62 110.13H167.1L172.23 52H190.69L187.62 110.13Z" fill="#1F0433" stroke="#AE72FF" stroke-miterlimit="10"/>
<path d="M208.13 110.13H187.62L190.69 52H209.16L208.13 110.13Z" fill="#3C1C54" stroke="#AE72FF" stroke-miterlimit="10"/>
<path d="M228.65 110.13H208.13L209.16 52H227.63L228.65 110.13Z" fill="#1F0433" stroke="#AE72FF" stroke-miterlimit="10"/>
<path d="M249.17 110.13H228.65L227.63 52H246.09L249.17 110.13Z" fill="#3C1C54" stroke="#AE72FF" stroke-miterlimit="10"/>
<path d="M269.69 110.13H249.17L246.09 52H264.56L269.69 110.13Z" fill="#1F0433" stroke="#AE72FF" stroke-miterlimit="10"/>
<path d="M290.2 110.13H269.69L264.56 52H283.02L290.2 110.13Z" fill="#3C1C54" stroke="#AE72FF" stroke-miterlimit="10"/>
<path d="M310.72 110.13H290.2L283.02 52H301.49L310.72 110.13Z" fill="#1F0433" stroke="#AE72FF" stroke-miterlimit="10"/>
<path d="M331.24 110.13H310.72L301.49 52H319.95L331.24 110.13Z" fill="#3C1C54" stroke="#AE72FF" stroke-miterlimit="10"/>
<path d="M351.75 110.13H331.24L319.95 52H338.42L351.75 110.13Z" fill="#1F0433" stroke="#AE72FF" stroke-miterlimit="10"/>
<path d="M372.27 110.13H351.75L338.42 52H356.88L372.27 110.13Z" fill="#3C1C54" stroke="#AE72FF" stroke-miterlimit="10"/>
<path d="M392.79 110.13H372.27L356.88 52H375.35L392.79 110.13Z" fill="#1F0433" stroke="#AE72FF" stroke-miterlimit="10"/>
<path d="M246.287 203.648C247.708 204.912 249.477 208.632 250.749 210.437C254.155 215.268 257.85 218.234 262.317 221.874C264.622 223.752 264.718 224.333 266.184 226.707C267.765 229.269 271.223 231.311 274.17 231.706C276.837 232.062 279.111 231.463 280.891 234.155C284.549 239.688 280.364 248.097 275.624 251.616L210.822 293.804C198.893 301.015 177.915 309.183 164.11 305.204C158.096 303.469 154.423 299.609 155.255 292.922C155.906 287.691 159.169 286.382 162.826 283.683C167.547 280.197 174.35 274.827 177.468 269.871C178.372 268.434 178.894 266.515 180.466 265.579C179.939 264.217 180.254 262.167 181.454 261.271C181.71 261.081 182.033 261.129 182.164 261.027C182.228 260.977 182.5 260.128 182.73 259.852C182.975 259.56 183.552 259.311 183.665 259.087C184.085 258.258 183.518 257.159 184.475 255.973C185.093 255.209 185.301 255.567 185.983 255.237C187.208 254.643 186.615 251.863 186.744 250.642C186.996 248.252 190.199 247.721 191.105 245.895C192.017 244.059 189.531 242.119 192.019 240.636C193.319 239.863 194.805 239.25 195.62 237.767C195.684 237.649 196.169 236.468 196.168 236.393C196.169 236.211 195.52 235.317 195.441 234.733C195.101 232.255 198.02 231.21 199.406 229.633C200.599 228.275 202.045 224.987 202.624 223.229C203.639 220.145 203.088 216.118 207.704 216.385C207.984 217.518 208.023 218.135 208.87 218.997C210.721 220.88 214.428 221.538 215.242 224.862C228.791 229.661 239.792 221.351 238.315 206.742C238.19 205.506 237.652 204.639 238.056 203.313C238.574 201.61 240.265 200.586 242.01 200.833C242.996 200.974 243.195 201.738 243.815 202.213C244.492 202.732 245.557 202.992 246.288 203.642L246.287 203.648ZM242.193 202.361C239.768 201.815 239.2 203.36 239.403 205.491C239.527 206.782 239.82 207.994 239.828 209.372C239.903 221.234 231.31 228.977 219.658 227.381C218.711 227.252 216.471 226.48 215.83 226.511C215.54 226.525 215.554 226.481 215.623 226.748C215.687 226.997 215.826 227.804 215.858 227.85C216.178 228.315 220.805 229.385 221.618 229.493C236.745 231.499 245.062 217.409 242.628 203.589C242.587 203.348 242.33 202.486 242.192 202.359L242.193 202.361ZM169.364 280.629C171.141 281.807 172.92 282.426 175.016 282.765C188.267 284.91 211.907 276.657 221.4 266.947C225.647 262.601 229.17 258.207 233.749 253.972C236.689 251.252 239.676 249.945 240.557 245.65C241.335 241.856 240.621 238.84 243.039 235.395C246.332 230.702 251.269 229.826 255.898 227.346C258.514 225.945 259.532 224.838 255.778 224.14C250.746 223.203 244.742 224.9 248.27 217.202C248.962 215.691 249.983 214.229 250.75 212.748C249.992 211.596 249.113 210.52 248.37 209.357C247.164 207.468 246.189 204.728 244.013 203.905C245.184 211.249 243.545 219.558 238.419 225.051C237.737 225.782 236.192 226.828 235.725 227.447C234.982 228.436 234.035 231.058 233.329 232.346C227.615 242.785 219.196 253.101 209.687 260.196C204.36 264.171 197.945 267.909 191.197 268.347C188.749 272.108 184.056 274.388 179.611 274.174C178.294 274.111 177.901 273.535 177.315 272.453L169.364 280.627L169.364 280.629ZM251.886 213.956L251.547 214.085C250.741 215.932 248.637 218.6 248.49 220.607C248.407 221.733 248.976 221.822 249.858 222.042C252.278 222.644 257.036 222.297 258.841 223.883C260.669 225.489 258.989 227.153 257.458 228.097C253.188 230.729 247.988 231.28 244.556 235.629C241.669 239.289 242.741 243.304 241.471 247.5C245.261 244.709 249.073 241.852 253.282 239.718C256.983 237.843 260.813 236.816 263.481 233.296C268.775 226.311 260.652 222.763 256.403 218.856C254.79 217.373 253.152 215.744 251.886 213.952L251.886 213.956ZM206.772 217.738C204.429 217.995 204.804 220.251 204.405 221.942C203.799 224.518 202.489 227.252 201.155 229.513L204.95 230.132C206.484 227.556 209.28 226.26 212.203 226.694C212.872 226.793 213.561 227.146 214.106 227.237C214.853 227.362 213.91 225.242 213.753 224.905C212.093 221.36 207.788 221.483 206.773 217.739L206.772 217.738ZM216.956 229.682C214.296 228.822 212.233 227.251 209.331 228.245C208.651 228.478 206.627 229.633 206.413 230.282C206.309 230.596 206.552 230.493 206.661 230.533C207.346 230.787 208.484 231.125 208.935 231.738C209.946 233.109 208.762 234.172 207.442 234.392C205.557 234.708 203.685 234.125 201.796 234.24C203.111 236.566 205.156 241.99 200.586 241.47C200.738 242.91 199.546 243.349 198.335 242.979C198.375 243.519 197.832 244.406 197.824 244.828C197.806 245.744 198.828 246.194 198.106 247.652C197.294 249.291 195.619 248.191 195.504 248.287C195.469 248.318 195.426 248.647 195.149 248.856C194.634 249.246 194.01 249.416 193.473 249.762C192.937 251.386 194.843 250.97 195.383 251.761C196.105 252.818 195.057 253.803 193.994 253.824C194 254.245 194.408 254.397 194.369 254.864C194.29 255.834 193.223 256.084 193.178 256.36C193.036 257.213 194.614 257.895 193.018 259.424C191.642 260.742 190.304 260.562 188.547 260.479C188.937 261.586 189.082 263.051 187.719 263.352C188.029 263.744 187.775 264.522 187.894 264.775C188.162 265.34 189.48 265.236 188.962 266.681C188.209 268.783 184.72 269.479 182.956 268.301L180.98 266.765C180.008 267.638 177.879 271.315 178.892 272.449C180.027 273.722 185.478 271.697 186.812 270.838C189.698 268.98 189.234 267.884 190.461 265.139C191.861 262.011 196.157 260.72 197.156 258.477C197.923 256.756 195.836 254.931 196.66 253.082C197.183 251.907 198.929 250.573 200.089 250.063C201.372 249.498 203.312 249.53 203.346 247.68C203.362 246.857 202.898 246.103 202.836 245.329C202.601 242.459 205.722 241.25 207.152 239.254C209.603 235.836 208.372 233.86 212.858 231.389L216.95 229.682L216.956 229.682ZM207.921 232.82C207.605 232.273 206.998 232.069 206.439 231.89C204.539 231.283 202.263 231.21 200.302 230.781L198.001 232.701C199.345 232.387 207.427 233.596 207.921 232.82ZM233.543 228.944C230.434 230.323 227.286 231.137 223.856 231.102C222.514 231.088 220.108 230.363 219.137 230.442C217.77 230.553 213.875 232.291 212.642 233.107C209.62 235.105 210.094 237.729 208.072 240.385C207.068 241.703 204.929 242.747 204.391 244.139C203.773 245.734 205.377 247.389 204.359 249.224C203.535 250.708 202.348 250.607 201.076 251.096C200.27 251.406 198.231 252.776 197.934 253.571C197.586 254.5 198.73 256.543 198.77 257.67C198.897 261.375 191.64 262.981 191.324 266.94C197.739 266.473 203.868 262.838 208.942 259.054C219.267 251.355 227.693 240.429 233.544 228.942L233.543 228.944ZM196.744 234.059C196.522 235.715 198.238 235.839 198.902 236.58C199.639 237.401 200.315 241.189 201.845 240.118C202.85 239.413 200.792 234.737 200.029 234.186C199.463 233.779 197.465 234.047 196.744 234.059ZM156.449 293.905L156.653 297.042C156.842 299.955 161.017 302.717 163.468 303.576C177.316 308.433 199.561 299.105 211.527 291.715C233.144 278.364 253.914 263.51 275.459 250.029C279.222 247.173 283.018 238.872 279.616 234.716C278.114 232.881 276.155 233.33 274.099 233.065C271.313 232.707 268.8 231.214 266.593 229.52C266.139 231.059 265.793 232.388 264.852 233.72C261.432 238.557 254.412 240.362 249.437 243.488C241.527 248.456 233.096 255.866 226.747 262.759C224.281 265.437 222.444 268.098 219.558 270.422C216.059 273.239 211.48 275.938 207.632 278.342C193.415 287.222 176.253 298.444 158.843 295.24L156.447 293.904L156.449 293.905ZM199.26 241.731C199.568 241.372 198.289 237.077 197.111 237.102C197.364 238.429 195.84 238.995 195.806 240.188C195.78 241.197 196.593 242.122 196.828 243.08C197.481 241.909 197.856 241.66 199.259 241.731L199.26 241.731ZM194.176 241.04C193.366 242.829 195.209 243.736 195.675 245.23C195.835 245.744 195.822 246.849 195.985 247.059C196.227 247.373 196.951 247.388 197.048 246.859C197.202 246.006 194.764 242.496 194.655 241.303L194.176 241.038L194.176 241.04ZM192.284 250.702C191.538 247.47 195.38 249.199 194.443 245.745C194.139 244.621 192.465 243.459 192.555 241.997C191.841 242.493 192.569 243.49 192.677 244.136C193.275 247.671 189.514 248.319 188.084 250.72L192.283 250.702L192.284 250.702ZM193.565 252.322C191.727 252.187 189.828 251.865 188.021 252.342L188.061 252.839C189.818 253.12 191.594 253.05 193.334 252.673C193.557 252.624 193.873 252.544 193.565 252.322ZM193.06 254.905C192.481 253.864 191.118 254.427 190.091 254.417C189.434 254.411 188.642 254.28 187.977 254.214L187.405 255.782L191.808 256.351C191.721 255.5 192.335 255.107 193.06 254.903L193.06 254.905ZM192.244 257.858L185.564 256.958C185.251 257.051 184.666 258.837 185.684 258.96C186.666 259.079 190.546 259.266 191.281 258.996C191.585 258.884 192.569 258.275 192.242 257.859L192.244 257.858ZM187.479 262.083C187.552 261.552 187.244 260.692 186.794 260.413C186.616 260.303 185.07 260.183 184.752 260.202C183.948 260.253 183.417 260.808 183.236 261.582L186.324 263.689L186.564 262.308L187.479 262.083ZM181.989 262.631C180.139 266.086 185.084 269.221 187.591 266.414L182.472 262.666L181.991 262.63L181.989 262.631ZM202.41 279.847C200.472 280.369 198.61 281.138 196.683 281.698C189.093 283.9 176.188 286.525 169.135 282.08C168.794 281.866 168.459 281.286 168.027 281.424C167.553 281.575 165.063 283.767 164.376 284.263C162.338 285.733 159.304 287.304 157.934 289.395C155.114 293.695 160.363 294.536 163.471 294.639C174.349 294.994 185.632 289.758 194.869 284.401L202.408 279.849L202.41 279.847Z" fill="#1F0433"/>
<path d="M156.449 293.905L158.845 295.241C176.255 298.446 193.417 287.224 207.634 278.343C211.482 275.94 216.061 273.24 219.56 270.423C222.446 268.099 224.282 265.439 226.749 262.761C233.098 255.867 241.529 248.457 249.439 243.489C254.416 240.363 261.434 238.558 264.854 233.721C265.795 232.389 266.14 231.061 266.595 229.521C268.801 231.216 271.314 232.71 274.1 233.067C276.157 233.33 278.116 232.881 279.617 234.718C283.02 238.873 279.222 247.175 275.461 250.031C253.916 263.511 233.146 278.364 211.529 291.717C199.563 299.108 177.316 308.434 163.47 303.578C161.019 302.718 156.844 299.957 156.655 297.043L156.451 293.906L156.449 293.905Z" fill="#512473"/>
<path d="M169.364 280.629L177.315 272.455C177.901 273.537 178.294 274.113 179.611 274.176C184.055 274.39 188.747 272.11 191.197 268.348C197.945 267.913 204.36 264.173 209.687 260.198C219.197 253.102 227.615 242.785 233.329 232.348C234.035 231.059 234.982 228.438 235.725 227.449C236.192 226.828 237.736 225.784 238.419 225.053C243.545 219.56 245.184 211.25 244.013 203.907C246.187 204.73 247.164 207.468 248.37 209.359C249.113 210.523 249.992 211.597 250.75 212.75C249.983 214.229 248.962 215.693 248.27 217.204C244.743 224.901 250.746 223.206 255.778 224.141C259.532 224.84 258.514 225.947 255.898 227.348C251.269 229.828 246.332 230.703 243.039 235.396C240.621 238.842 241.335 241.857 240.557 245.651C239.675 249.945 236.689 251.254 233.749 253.973C229.17 258.209 225.647 262.604 221.4 266.948C211.907 276.659 188.268 284.911 175.016 282.767C172.921 282.428 171.142 281.807 169.364 280.631L169.364 280.629Z" fill="#512473"/>
<path d="M233.543 228.944C227.692 240.431 219.267 251.357 208.942 259.056C203.867 262.839 197.738 266.474 191.323 266.942C191.639 262.983 198.896 261.377 198.769 257.672C198.731 256.543 197.587 254.501 197.934 253.572C198.23 252.778 200.271 251.408 201.075 251.097C202.349 250.608 203.535 250.709 204.358 249.226C205.376 247.391 203.774 245.735 204.39 244.14C204.928 242.749 207.067 241.705 208.071 240.386C210.092 237.731 209.617 235.107 212.641 233.109C213.876 232.292 217.769 230.555 219.136 230.444C220.107 230.365 222.514 231.09 223.855 231.104C227.285 231.139 230.433 230.323 233.542 228.946L233.543 228.944Z" fill="#AE72FF" stroke="#3C1C54" stroke-miterlimit="10"/>
<path d="M202.41 279.848L194.87 284.399C185.633 289.759 174.349 294.993 163.473 294.638C160.365 294.537 155.116 293.695 157.936 289.394C159.306 287.303 162.342 285.732 164.378 284.262C165.064 283.767 167.555 281.575 168.029 281.422C168.461 281.285 168.796 281.863 169.137 282.079C176.189 286.522 189.095 283.898 196.684 281.697C198.612 281.137 200.474 280.367 202.412 279.846L202.41 279.848Z" fill="#AE72FF" stroke="#3C1C54" stroke-miterlimit="10"/>
<path d="M251.886 213.956C253.154 215.749 254.791 217.377 256.403 218.86C260.652 222.767 268.775 226.313 263.481 233.3C260.814 236.819 256.981 237.847 253.282 239.722C249.073 241.854 245.261 244.713 241.471 247.503C242.741 243.308 241.669 239.291 244.557 235.632C247.988 231.284 253.188 230.735 257.459 228.1C258.989 227.157 260.669 225.493 258.841 223.886C257.037 222.299 252.278 222.646 249.858 222.045C248.976 221.826 248.408 221.736 248.49 220.611C248.637 218.604 250.74 215.935 251.548 214.089L251.886 213.959L251.886 213.956Z" fill="#AE72FF" stroke="#3C1C54" stroke-miterlimit="10"/>
<path d="M216.956 229.682L212.864 231.389C208.377 233.859 209.608 235.834 207.158 239.254C205.728 241.25 202.605 242.461 202.841 245.329C202.904 246.103 203.368 246.857 203.352 247.68C203.318 249.53 201.377 249.498 200.094 250.063C198.933 250.574 197.189 251.907 196.666 253.081C195.841 254.931 197.927 256.758 197.162 258.476C196.162 260.72 191.866 262.01 190.467 265.139C189.24 267.885 189.704 268.982 186.818 270.838C185.483 271.697 180.033 273.722 178.897 272.449C177.885 271.314 180.013 267.637 180.986 266.765L182.962 268.301C184.726 269.479 188.216 268.783 188.967 266.681C189.483 265.236 188.168 265.34 187.9 264.775C187.779 264.52 188.033 263.744 187.724 263.352C189.086 263.052 188.943 261.586 188.553 260.479C190.309 260.561 191.648 260.742 193.023 259.424C194.619 257.895 193.041 257.213 193.183 256.36C193.228 256.083 194.296 255.834 194.374 254.863C194.412 254.397 194.004 254.245 194 253.824C195.062 253.805 196.111 252.819 195.389 251.761C194.847 250.97 192.943 251.386 193.478 249.762C194.015 249.416 194.639 249.245 195.155 248.856C195.431 248.647 195.474 248.318 195.509 248.287C195.623 248.191 197.299 249.291 198.111 247.652C198.833 246.194 197.812 245.743 197.829 244.828C197.837 244.406 198.381 243.52 198.341 242.979C199.551 243.349 200.744 242.91 200.591 241.47C205.161 241.99 203.116 236.566 201.801 234.24C203.689 234.125 205.561 234.708 207.447 234.392C208.766 234.17 209.952 233.109 208.941 231.738C208.488 231.125 207.352 230.787 206.666 230.533C206.557 230.493 206.314 230.596 206.419 230.282C206.632 229.633 208.656 228.477 209.336 228.245C212.239 227.251 214.301 228.822 216.962 229.682L216.956 229.682Z" fill="#512473"/>
<path d="M242.193 202.361C242.33 202.486 242.587 203.348 242.629 203.59C245.063 217.411 236.745 231.5 221.619 229.495C220.806 229.386 216.177 228.317 215.859 227.852C215.826 227.805 215.689 226.998 215.624 226.75C215.555 226.482 215.54 226.527 215.83 226.513C216.471 226.482 218.711 227.254 219.658 227.383C231.31 228.977 239.905 221.234 239.828 209.373C239.819 207.996 239.526 206.783 239.403 205.493C239.2 203.362 239.768 201.817 242.193 202.362L242.193 202.361Z" fill="#AE72FF" stroke="#3C1C54" stroke-miterlimit="10"/>
<path d="M206.772 217.738C207.786 221.482 212.09 221.358 213.751 224.904C213.909 225.241 214.853 227.361 214.105 227.236C213.559 227.145 212.871 226.791 212.202 226.692C209.279 226.261 206.483 227.555 204.949 230.13L201.154 229.511C202.49 227.251 203.797 224.515 204.404 221.941C204.802 220.249 204.429 217.994 206.77 217.737L206.772 217.738Z" fill="#AE72FF" stroke="#3C1C54" stroke-miterlimit="10"/>
<path d="M192.284 250.702L188.085 250.72C189.515 248.319 193.277 247.671 192.678 244.136C192.569 243.492 191.842 242.493 192.556 241.997C192.465 243.459 194.139 244.621 194.444 245.745C195.381 249.199 191.539 247.47 192.285 250.702L192.284 250.702Z" fill="#AE72FF" stroke="#3C1C54" stroke-miterlimit="10"/>
<path d="M181.99 262.631L182.471 262.667L187.59 266.414C185.083 269.221 180.138 266.086 181.988 262.631L181.99 262.631Z" fill="#512473"/>
<path d="M196.744 234.06C197.464 234.049 199.463 233.78 200.029 234.187C200.792 234.737 202.851 239.413 201.845 240.118C200.314 241.189 199.638 237.401 198.902 236.58C198.237 235.839 196.52 235.715 196.744 234.06Z" fill="#512473"/>
<path d="M207.921 232.82C207.427 233.598 199.345 232.387 198.001 232.701L200.302 230.781C202.261 231.21 204.54 231.284 206.439 231.89C207 232.069 207.605 232.273 207.921 232.82Z" fill="#512473"/>
<path d="M199.261 241.731C197.858 241.66 197.481 241.909 196.83 243.08C196.595 242.122 195.781 241.196 195.808 240.188C195.84 238.995 197.366 238.429 197.113 237.101C198.291 237.076 199.569 241.372 199.262 241.731L199.261 241.731Z" fill="#AE72FF" stroke="#3C1C54" stroke-miterlimit="10"/>
<path d="M192.243 257.859C192.569 258.273 191.585 258.884 191.281 258.996C190.547 259.267 186.666 259.079 185.684 258.96C184.667 258.837 185.252 257.05 185.565 256.958L192.245 257.858L192.243 257.859Z" fill="#512473"/>
<path d="M187.478 262.083L186.563 262.308L186.323 263.689L183.235 261.582C183.416 260.806 183.947 260.251 184.751 260.202C185.07 260.181 186.615 260.303 186.793 260.413C187.243 260.693 187.551 261.551 187.478 262.083Z" fill="#AE72FF" stroke="#3C1C54" stroke-miterlimit="10"/>
<path d="M193.059 254.905C192.334 255.108 191.72 255.501 191.808 256.352L187.405 255.784L187.976 254.215C188.64 254.281 189.433 254.412 190.09 254.418C191.119 254.426 192.48 253.866 193.06 254.906L193.059 254.905Z" fill="#AE72FF" stroke="#3C1C54" stroke-miterlimit="10"/>
<path d="M194.176 241.04L194.655 241.304C194.764 242.497 197.202 246.008 197.048 246.86C196.953 247.388 196.229 247.373 195.985 247.06C195.822 246.851 195.835 245.745 195.675 245.232C195.21 243.737 193.366 242.83 194.176 241.041L194.176 241.04Z" fill="#512473"/>
<path d="M193.564 252.322C193.872 252.543 193.556 252.624 193.333 252.673C191.593 253.05 189.817 253.121 188.061 252.839L188.02 252.342C189.827 251.865 191.728 252.187 193.564 252.322Z" fill="#512473"/>
<path d="M0 386H473" stroke="#AE72FF" stroke-miterlimit="10"/>
<path d="M407.245 353.37C404.764 353.37 402.579 352.83 400.691 351.75C398.804 350.635 397.336 349.101 396.287 347.15C395.239 345.164 394.714 342.881 394.714 340.303C394.714 337.201 395.483 334.483 397.021 332.149C398.594 329.814 400.814 328.019 403.68 326.765C406.581 325.51 409.972 324.883 413.852 324.883C415.634 324.883 417.085 325.005 418.203 325.249V324.151C418.203 321.503 417.714 319.534 416.735 318.245C415.757 316.921 414.271 316.259 412.279 316.259C409.063 316.259 407.001 317.949 406.092 321.329C405.812 322.304 405.235 322.723 404.362 322.583L397.231 321.329C396.707 321.224 396.34 320.998 396.13 320.649C395.955 320.301 395.938 319.83 396.078 319.238C396.986 315.684 398.909 312.931 401.845 310.979C404.816 308.993 408.539 308 413.013 308C418.326 308 422.363 309.429 425.124 312.286C427.921 315.144 429.319 319.308 429.319 324.779V351.07C429.319 351.454 429.179 351.784 428.899 352.063C428.655 352.307 428.34 352.429 427.955 352.429H421.14C420.301 352.429 419.776 351.976 419.567 351.07L418.518 346.157H418.099C417.155 348.457 415.739 350.234 413.852 351.488C411.999 352.743 409.797 353.37 407.245 353.37ZM406.144 339.048C406.144 340.895 406.616 342.376 407.56 343.491C408.539 344.571 409.849 345.111 411.492 345.111C413.659 345.111 415.32 344.153 416.473 342.236C417.627 340.285 418.203 337.497 418.203 333.874V331.103C417.225 330.929 416.298 330.842 415.425 330.842C412.558 330.842 410.286 331.591 408.609 333.089C406.966 334.553 406.144 336.539 406.144 339.048Z" fill="#3C1C54"/>
<path d="M383.253 353.717C382.987 353.926 382.931 354.275 383.085 354.763C383.225 355.195 383.554 355.732 384.072 356.373C386.159 358.938 388.645 361.071 391.53 362.772C394.416 364.473 397.504 365.727 400.796 366.536C404.101 367.358 407.477 367.77 410.922 367.77C415.334 367.77 419.536 367.128 423.528 365.846C427.52 364.577 430.853 362.793 433.528 360.492C434.467 359.67 434.936 359.015 434.936 358.527C434.936 358.346 434.859 358.164 434.705 357.983C434.495 357.774 434.243 357.704 433.948 357.774C433.654 357.844 433.241 358.018 432.709 358.297C430.146 359.635 427.022 360.702 423.339 361.496C419.669 362.305 415.838 362.709 411.847 362.709C406.902 362.709 402.126 362.04 397.518 360.702C392.91 359.363 388.827 357.272 385.27 354.428C384.752 354.024 384.331 353.766 384.009 353.654C383.701 353.543 383.449 353.564 383.253 353.717Z" fill="#3C1C54"/>
<path d="M429.938 354.762C429.643 355.041 429.566 355.334 429.706 355.641C429.805 355.864 429.994 355.989 430.274 356.017C430.554 356.059 430.953 356.031 431.471 355.934C432.312 355.752 433.187 355.627 434.097 355.557C435.008 355.501 435.799 355.515 436.471 355.599C437.144 355.697 437.564 355.864 437.732 356.101C437.984 356.477 437.893 357.272 437.459 358.485C437.039 359.698 436.465 360.876 435.736 362.019C435.456 362.479 435.288 362.841 435.232 363.106C435.176 363.371 435.246 363.594 435.442 363.775C435.568 363.901 435.708 363.964 435.862 363.964C436.268 363.964 436.857 363.608 437.627 362.897C439.014 361.698 439.987 360.276 440.547 358.631C440.855 357.781 441.045 356.889 441.115 355.954C441.185 355.021 441.08 354.351 440.799 353.947C440.533 353.557 439.945 353.236 439.035 352.985C438.138 352.734 437.235 352.609 436.324 352.609C434.546 352.609 432.858 353.027 431.261 353.863C430.673 354.184 430.232 354.484 429.938 354.762Z" fill="#3C1C54"/>
</svg>
