<svg width="100" height="89" viewBox="0 0 100 89" fill="none" xmlns="http://www.w3.org/2000/svg">
<mask id="mask0_8956_50603" style="mask-type:alpha" maskUnits="userSpaceOnUse" x="4" y="-3" width="91" height="92">
<path d="M49.4819 88.3527C74.5857 88.3527 94.9364 68.0478 94.9364 43.0005C94.9364 17.9533 74.5857 -2.35156 49.4819 -2.35156C24.378 -2.35156 4.02734 17.9533 4.02734 43.0005C4.02734 68.0478 24.378 88.3527 49.4819 88.3527Z" fill="#FBF9FF"/>
</mask>
<g mask="url(#mask0_8956_50603)">
<path d="M82.7068 36.8468L17.2578 36.991L24.0185 24.3936L75.8987 24.2793L82.7068 36.8468Z" fill="#D2B8FF"/>
<path d="M82.6498 36.8496L17.3164 36.9936L17.45 97.3641L82.7834 97.2201L82.6498 36.8496Z" fill="#D2B8FF"/>
<path d="M82.7065 36.8472L99.341 26.4529L89.7197 15.2266L75.8984 24.2798L82.7065 36.8472Z" fill="#F1EAFF"/>
<path d="M17.2585 36.9919L0.578125 26.671L10.1497 15.4023L24.0191 24.3946L17.2585 36.9919Z" fill="#F1EAFF"/>
<path d="M82.6365 5.62695L17.1875 5.77115L24.0172 24.395L75.8975 24.2807L82.6365 5.62695Z" fill="#F1EAFF"/>
<path d="M91.2332 52.666L8.80469 52.8476L17.3173 36.9916L82.6505 36.8477L91.2332 52.666Z" fill="#F1EAFF"/>
<g style="mix-blend-mode:multiply" opacity="0.5">
<path d="M75.8984 24.2812L75.9264 36.8636L82.6488 36.8487L75.8984 24.2812Z" fill="#D2B8FF"/>
</g>
<g style="mix-blend-mode:multiply" opacity="0.5">
<path d="M24.0193 24.3945L24.0472 36.9769L17.3164 36.9918L24.0193 24.3945Z" fill="#D2B8FF"/>
</g>
<g style="mix-blend-mode:soft-light">
<path d="M76.1309 23.5723L23.7305 23.6877L24.021 24.3957L75.9012 24.2814L76.1309 23.5723Z" fill="white"/>
</g>
<g style="mix-blend-mode:soft-light">
<path d="M82.9881 37.4834L16.8789 37.8103L17.3148 36.9936L82.6481 36.8496L82.9881 37.4834Z" fill="white"/>
</g>
<g style="mix-blend-mode:soft-light">
<path d="M82.7065 36.8479L83.2838 36.4923L76.3603 23.9746L75.8984 24.2804L82.7065 36.8479Z" fill="white"/>
</g>
<g style="mix-blend-mode:soft-light">
<path d="M17.2585 36.9929L16.6797 36.6399L23.5477 24.0918L24.0192 24.3957L17.2585 36.9929Z" fill="white"/>
</g>
</g>
<path d="M82.7107 36.8468L17.2617 36.991L24.0224 24.3936L75.9025 24.2793L82.7107 36.8468Z" fill="#D2B8FF"/>
<path d="M82.7104 36.8453L99.3451 26.4511L89.7236 15.2246L75.9023 24.2779L82.7104 36.8453Z" fill="#F1EAFF"/>
<path d="M17.2586 36.9899L0.578125 26.6691L10.1497 15.4004L24.0192 24.3927L17.2586 36.9899Z" fill="#F1EAFF"/>
<path d="M82.6402 5.625L17.1914 5.76921L24.0211 24.3929L75.9013 24.2786L82.6402 5.625Z" fill="#F1EAFF"/>
<path d="M91.2332 52.664L8.80469 52.8457L17.3172 36.9897L82.6506 36.8457L91.2332 52.664Z" fill="#F1EAFF"/>
<g style="mix-blend-mode:multiply" opacity="0.5">
<path d="M75.9023 24.2793L75.9301 36.8617L82.6526 36.8469L75.9023 24.2793Z" fill="#D2B8FF"/>
</g>
<g style="mix-blend-mode:multiply" opacity="0.5">
<path d="M24.0193 24.3926L24.0471 36.9749L17.3164 36.9898L24.0193 24.3926Z" fill="#D2B8FF"/>
</g>
<g style="mix-blend-mode:soft-light">
<path d="M76.131 23.5703L23.7305 23.6858L24.0211 24.3938L75.9012 24.2794L76.131 23.5703Z" fill="white"/>
</g>
<g style="mix-blend-mode:soft-light">
<path d="M82.992 37.4814L16.8828 37.8083L17.3188 36.9916L82.652 36.8477L82.992 37.4814Z" fill="white"/>
</g>
<g style="mix-blend-mode:soft-light">
<path d="M82.7105 36.846L83.2878 36.4905L76.3642 23.9727L75.9023 24.2786L82.7105 36.846Z" fill="white"/>
</g>
<g style="mix-blend-mode:soft-light">
<path d="M17.2586 36.991L16.6797 36.638L23.5479 24.0898L24.0193 24.3937L17.2586 36.991Z" fill="white"/>
</g>
<path fill-rule="evenodd" clip-rule="evenodd" d="M49.9117 62.3648C49.3607 62.3648 48.9199 62.8046 48.9199 63.3543C48.9199 64.4695 49.2714 65.548 49.9117 66.4433C50.5518 65.548 50.9034 64.4695 50.9034 63.3543C50.9034 62.8046 50.4626 62.3648 49.9117 62.3648ZM51.234 67.8673C52.252 66.5951 52.8187 65.0035 52.8187 63.3596C52.8187 61.7156 51.5173 60.459 49.9117 60.459C48.306 60.459 47.0046 61.7575 47.0046 63.3596C47.0046 64.9617 47.5713 66.5951 48.5894 67.8673L46.6321 69.8202C45.3569 68.8046 43.7617 68.2391 42.114 68.2391C40.4664 68.2391 39.207 69.5374 39.207 71.1395C39.207 72.7416 40.5083 74.0401 42.114 74.0401C43.7198 74.0401 45.3569 73.4747 46.6321 72.4589L48.5894 74.4118C47.5713 75.6841 47.0046 77.2757 47.0046 78.9196C47.0046 80.5636 48.306 81.8201 49.9117 81.8201C51.5173 81.8201 52.8187 80.5217 52.8187 78.9196C52.8187 77.3175 52.252 75.6841 51.234 74.4118L53.1913 72.4589C54.4664 73.4747 56.0616 74.0401 57.7092 74.0401C59.3569 74.0401 60.6164 72.7416 60.6164 71.1395C60.6164 69.5374 59.315 68.2391 57.7092 68.2391C56.1035 68.2391 54.4664 68.8046 53.1913 69.8202L51.234 67.8673ZM49.9117 69.2495L48.0173 71.1395L49.9117 73.0296L51.806 71.1395L49.9117 69.2495ZM54.6186 71.1395C55.5159 71.7784 56.5968 72.1291 57.7146 72.1291C58.2655 72.1291 58.7062 71.6893 58.7062 71.1395C58.7062 70.5899 58.2655 70.1501 57.7146 70.1501C56.5968 70.1501 55.5159 70.5008 54.6186 71.1395ZM49.9117 75.8358C49.2714 76.7312 48.9199 77.8097 48.9199 78.9248C48.9199 79.4746 49.3607 79.9144 49.9117 79.9144C50.4626 79.9144 50.9034 79.4746 50.9034 78.9248C50.9034 77.8097 50.5518 76.7312 49.9117 75.8358ZM45.2047 71.1395C44.3074 70.5008 43.2265 70.1501 42.1088 70.1501C41.5578 70.1501 41.117 70.5899 41.117 71.1395C41.117 71.6893 41.5578 72.1291 42.1088 72.1291C43.2265 72.1291 44.3074 71.7784 45.2047 71.1395Z" fill="#F1EAFF" fill-opacity="0.54"/>
<path d="M49.0014 0L47.6953 3.5265L49.0014 6.81231C51.5504 6.81231 53.6242 8.88613 53.6242 11.4351C53.6242 13.9841 51.5504 16.058 49.0014 16.058L47.6953 22.5306L49.0014 32C49.0014 32 60.4366 22.8703 60.4366 11.4352C60.4366 5.11969 55.3169 0 49.0014 0Z" fill="#AE72FF"/>
<path d="M49.0016 2.42656V0C42.6861 0 37.5664 5.11969 37.5664 11.4352C37.5664 22.8703 49.0016 32 49.0016 32V16.058C46.4526 16.058 44.3788 13.9842 44.3788 11.4352C44.3788 8.88619 46.4526 6.81238 49.0016 6.81238V4.38575C52.8887 4.38575 56.051 7.54813 56.051 11.4351H58.0102C58.0102 6.46788 53.969 2.42656 49.0016 2.42656Z" fill="#AE72FF"/>
</svg>
