<svg width="71" height="65" viewBox="0 0 71 65" fill="none" xmlns="http://www.w3.org/2000/svg">
<path d="M60.686 24.7506L10.2903 24.8619L15.496 15.14L55.4438 15.0518L60.686 24.7506Z" fill="#D2B8FF"/>
<path d="M60.6415 24.7519L10.3348 24.863L10.4377 71.4533L60.7444 71.3422L60.6415 24.7519Z" fill="#D2B8FF"/>
<path d="M60.686 24.7506L73.4946 16.7289L66.0862 8.06509L55.4438 15.0518L60.686 24.7506Z" fill="#F1EAFF"/>
<path d="M10.2903 24.862L-2.55358 16.897L4.8165 8.20054L15.496 15.1402L10.2903 24.862Z" fill="#F1EAFF"/>
<path d="M60.6328 0.656596L10.2371 0.767883L15.496 15.1406L55.4438 15.0524L60.6328 0.656596Z" fill="#F1EAFF"/>
<path d="M67.2502 36.9588L3.78021 37.099L10.3349 24.8623L60.6415 24.7512L67.2502 36.9588Z" fill="#F1EAFF"/>
<g style="mix-blend-mode:multiply" opacity="0.5">
<path d="M55.4437 15.0524L55.4652 24.7627L60.6415 24.7512L55.4437 15.0524Z" fill="#D2B8FF"/>
</g>
<g style="mix-blend-mode:multiply" opacity="0.5">
<path d="M15.496 15.1402L15.5175 24.8505L10.3348 24.862L15.496 15.1402Z" fill="#D2B8FF"/>
</g>
<g style="mix-blend-mode:soft-light">
<path d="M55.6206 14.5054L15.2723 14.5945L15.496 15.1409L55.4438 15.0527L55.6206 14.5054Z" fill="white"/>
</g>
<g style="mix-blend-mode:soft-light">
<path d="M60.9033 25.2413L9.99918 25.4936L10.3348 24.8633L60.6415 24.7522L60.9033 25.2413Z" fill="white"/>
</g>
<g style="mix-blend-mode:soft-light">
<path d="M60.686 24.7512L61.1305 24.4768L55.7994 14.8164L55.4438 15.0524L60.686 24.7512Z" fill="white"/>
</g>
<g style="mix-blend-mode:soft-light">
<path d="M10.2903 24.8629L9.84457 24.5905L15.133 14.9066L15.496 15.1411L10.2903 24.8629Z" fill="white"/>
</g>
</svg>
