<svg width="120" height="110" viewBox="0 0 120 110" fill="none" xmlns="http://www.w3.org/2000/svg">
<g clip-path="url(#clip0_11297_2208)">
<path d="M102.568 41.8856L17.3921 42.074L26.1905 25.6216L93.7079 25.4723L102.568 41.8856Z" fill="#D2B8FF"/>
<path d="M102.493 41.8878L17.4673 42.0758L17.6412 120.921L102.667 120.733L102.493 41.8878Z" fill="#D2B8FF"/>
<path d="M102.568 41.8856L124.216 28.3105L111.695 13.6486L93.7078 25.4723L102.568 41.8856Z" fill="#F1EAFF"/>
<path d="M17.392 42.0741L-4.31592 28.5949L8.14056 13.8778L26.1904 25.6218L17.392 42.0741Z" fill="#F1EAFF"/>
<path d="M102.478 1.11115L17.3022 1.29948L26.1905 25.6225L93.7079 25.4733L102.478 1.11115Z" fill="#F1EAFF"/>
<path d="M113.662 62.5457L6.38916 62.7829L17.4675 42.0747L102.493 41.8867L113.662 62.5457Z" fill="#F1EAFF"/>
<g style="mix-blend-mode:multiply" opacity="0.5">
<path d="M93.7078 25.4733L93.7441 41.9061L102.493 41.8866L93.7078 25.4733Z" fill="#D2B8FF"/>
</g>
<g style="mix-blend-mode:multiply" opacity="0.5">
<path d="M26.1904 25.6219L26.2268 42.0547L17.4673 42.0742L26.1904 25.6219Z" fill="#D2B8FF"/>
</g>
<g style="mix-blend-mode:soft-light">
<path d="M94.0066 24.5476L25.8123 24.6984L26.1903 25.6231L93.7077 25.4738L94.0066 24.5476Z" fill="white"/>
</g>
<g style="mix-blend-mode:soft-light">
<path d="M102.935 42.716L16.8999 43.143L17.4671 42.0763L102.493 41.8883L102.935 42.716Z" fill="white"/>
</g>
<g style="mix-blend-mode:soft-light">
<path d="M102.568 41.8867L103.319 41.4223L94.3088 25.0739L93.7078 25.4733L102.568 41.8867Z" fill="white"/>
</g>
<g style="mix-blend-mode:soft-light">
<path d="M17.392 42.0757L16.6387 41.6147L25.5769 25.2266L26.1904 25.6234L17.392 42.0757Z" fill="white"/>
</g>
</g>
<defs>
<clipPath id="clip0_11297_2208">
<rect width="120" height="110" fill="white"/>
</clipPath>
</defs>
</svg>
