<svg width="120" height="107" viewBox="0 0 120 107" fill="none" xmlns="http://www.w3.org/2000/svg">
<g clip-path="url(#clip0_11297_2165)">
<mask id="mask0_11297_2165" style="mask-type:alpha" maskUnits="userSpaceOnUse" x="4" y="-3" width="110" height="110">
<path d="M59.3782 106.222C89.5028 106.222 113.924 81.8103 113.924 51.6972C113.924 21.5843 89.5028 -2.82715 59.3782 -2.82715C29.2536 -2.82715 4.83276 21.5843 4.83276 51.6972C4.83276 81.8103 29.2536 106.222 59.3782 106.222Z" fill="#FBF9FF"/>
</mask>
<g mask="url(#mask0_11297_2165)">
<path d="M99.248 44.299L20.7092 44.4724L28.8221 29.3272L91.0783 29.1898L99.248 44.299Z" fill="#D2B8FF"/>
<path d="M99.1796 44.3024L20.7795 44.4755L20.9399 117.056L99.3399 116.883L99.1796 44.3024Z" fill="#D2B8FF"/>
<path d="M99.2476 44.2995L119.209 31.8029L107.663 18.3062L91.0779 29.1903L99.2476 44.2995Z" fill="#F1EAFF"/>
<path d="M20.7101 44.4734L0.693604 32.0652L12.1795 18.5174L28.8228 29.3284L20.7101 44.4734Z" fill="#F1EAFF"/>
<path d="M99.1636 6.76501L20.6248 6.93838L28.8204 29.3289L91.0768 29.1914L99.1636 6.76501Z" fill="#F1EAFF"/>
<path d="M109.48 63.3176L10.5654 63.5359L20.7806 44.4731L99.1804 44.3L109.48 63.3176Z" fill="#F1EAFF"/>
<g style="mix-blend-mode:multiply" opacity="0.5">
<path d="M91.0779 29.192L91.1115 44.3192L99.1784 44.3013L91.0779 29.192Z" fill="#D2B8FF"/>
</g>
<g style="mix-blend-mode:multiply" opacity="0.5">
<path d="M28.823 29.3282L28.8565 44.4554L20.7795 44.4733L28.823 29.3282Z" fill="#D2B8FF"/>
</g>
<g style="mix-blend-mode:soft-light">
<path d="M91.357 28.3398L28.4766 28.4785L28.8252 29.3297L91.0814 29.1923L91.357 28.3398Z" fill="white"/>
</g>
<g style="mix-blend-mode:soft-light">
<path d="M99.5857 45.0643L20.2546 45.4574L20.7777 44.4755L99.1777 44.3024L99.5857 45.0643Z" fill="white"/>
</g>
<g style="mix-blend-mode:soft-light">
<path d="M99.2476 44.3003L99.9404 43.8728L91.6322 28.8234L91.0779 29.1911L99.2476 44.3003Z" fill="white"/>
</g>
<g style="mix-blend-mode:soft-light">
<path d="M20.7099 44.4747L20.0154 44.0503L28.257 28.9644L28.8228 29.3297L20.7099 44.4747Z" fill="white"/>
</g>
</g>
<path d="M99.2529 44.2989L20.7141 44.4723L28.827 29.3271L91.0831 29.1897L99.2529 44.2989Z" fill="#D2B8FF"/>
<path d="M99.2525 44.2971L119.214 31.8007L107.668 18.3037L91.0828 29.188L99.2525 44.2971Z" fill="#F1EAFF"/>
<path d="M20.7104 44.471L0.693848 32.0628L12.1797 18.5151L28.8231 29.326L20.7104 44.471Z" fill="#F1EAFF"/>
<path d="M99.1682 6.76263L20.6296 6.93601L28.8253 29.3263L91.0815 29.1889L99.1682 6.76263Z" fill="#F1EAFF"/>
<path d="M109.48 63.3151L10.5657 63.5336L20.7807 44.4707L99.1808 44.2976L109.48 63.3151Z" fill="#F1EAFF"/>
<g style="mix-blend-mode:multiply" opacity="0.5">
<path d="M91.0828 29.1897L91.1161 44.3168L99.1831 44.2991L91.0828 29.1897Z" fill="#D2B8FF"/>
</g>
<g style="mix-blend-mode:multiply" opacity="0.5">
<path d="M28.8233 29.3259L28.8566 44.453L20.7798 44.4709L28.8233 29.3259Z" fill="#D2B8FF"/>
</g>
<g style="mix-blend-mode:soft-light">
<path d="M91.3572 28.3373L28.4766 28.4762L28.8253 29.3274L91.0814 29.1899L91.3572 28.3373Z" fill="white"/>
</g>
<g style="mix-blend-mode:soft-light">
<path d="M99.5903 45.0619L20.2593 45.4549L20.7825 44.4731L99.1823 44.3L99.5903 45.0619Z" fill="white"/>
</g>
<g style="mix-blend-mode:soft-light">
<path d="M99.2526 44.298L99.9454 43.8706L91.637 28.8211L91.0828 29.1889L99.2526 44.298Z" fill="white"/>
</g>
<g style="mix-blend-mode:soft-light">
<path d="M20.7103 44.4723L20.0156 44.048L28.2575 28.9619L28.8231 29.3273L20.7103 44.4723Z" fill="white"/>
</g>
<path fill-rule="evenodd" clip-rule="evenodd" d="M59.894 74.9779C59.2328 74.9779 58.7038 75.5066 58.7038 76.1675C58.7038 77.5083 59.1256 78.8049 59.894 79.8813C60.6621 78.8049 61.084 77.5083 61.084 76.1675C61.084 75.5066 60.5551 74.9779 59.894 74.9779ZM61.4807 81.5933C62.7023 80.0638 63.3824 78.1503 63.3824 76.1739C63.3824 74.1974 61.8207 72.6866 59.894 72.6866C57.9671 72.6866 56.4055 74.2478 56.4055 76.1739C56.4055 78.1 57.0855 80.0638 58.3072 81.5933L55.9585 83.9411C54.4282 82.7201 52.514 82.0402 50.5367 82.0402C48.5596 82.0402 47.0483 83.6011 47.0483 85.5273C47.0483 87.4534 48.6099 89.0145 50.5367 89.0145C52.4637 89.0145 54.4282 88.3347 55.9585 87.1135L58.3072 89.4614C57.0855 90.991 56.4055 92.9045 56.4055 94.8809C56.4055 96.8573 57.9671 98.368 59.894 98.368C61.8207 98.368 63.3824 96.807 63.3824 94.8809C63.3824 92.9547 62.7023 90.991 61.4807 89.4614L63.8295 87.1135C65.3596 88.3347 67.2739 89.0145 69.251 89.0145C71.2282 89.0145 72.7396 87.4534 72.7396 85.5273C72.7396 83.6011 71.1779 82.0402 69.251 82.0402C67.3241 82.0402 65.3596 82.7201 63.8295 83.9411L61.4807 81.5933ZM59.894 83.255L57.6207 85.5273L59.894 87.7996L62.1671 85.5273L59.894 83.255ZM65.5423 85.5273C66.619 86.2954 67.9161 86.717 69.2575 86.717C69.9185 86.717 70.4474 86.1882 70.4474 85.5273C70.4474 84.8665 69.9185 84.3377 69.2575 84.3377C67.9161 84.3377 66.619 84.7594 65.5423 85.5273ZM59.894 91.1734C59.1256 92.2499 58.7038 93.5465 58.7038 94.8871C58.7038 95.5481 59.2328 96.0768 59.894 96.0768C60.5551 96.0768 61.084 95.5481 61.084 94.8871C61.084 93.5465 60.6621 92.2499 59.894 91.1734ZM54.2456 85.5273C53.1688 84.7594 51.8717 84.3377 50.5305 84.3377C49.8693 84.3377 49.3403 84.8665 49.3403 85.5273C49.3403 86.1882 49.8693 86.717 50.5305 86.717C51.8717 86.717 53.1688 86.2954 54.2456 85.5273Z" fill="#F1EAFF" fill-opacity="0.54"/>
<path d="M58.8017 0L57.2344 4.23972L58.8017 8.19008C61.8605 8.19008 64.3491 10.6833 64.3491 13.7478C64.3491 16.8123 61.8605 19.3057 58.8017 19.3057L57.2344 27.0873L58.8017 38.4719C58.8017 38.4719 72.5239 27.4958 72.5239 13.7479C72.5239 6.15513 66.3803 0 58.8017 0Z" fill="#AE72FF"/>
<path d="M58.8018 2.91732V0C51.2232 0 45.0796 6.15513 45.0796 13.7479C45.0796 27.4958 58.8018 38.4719 58.8018 38.4719V19.3057C55.743 19.3057 53.2545 16.8125 53.2545 13.7479C53.2545 10.6834 55.743 8.19016 58.8018 8.19016V5.27276C63.4664 5.27276 67.2611 9.07472 67.2611 13.7478H69.6122C69.6122 7.77599 64.7627 2.91732 58.8018 2.91732Z" fill="#AE72FF"/>
</g>
<defs>
<clipPath id="clip0_11297_2165">
<rect width="120" height="107" fill="white"/>
</clipPath>
</defs>
</svg>
