<svg width="84" height="70" viewBox="0 0 84 70" fill="none" xmlns="http://www.w3.org/2000/svg">
<circle cx="41.621" cy="31.1083" r="23.1947" fill="#FBF9FF"/>
<path d="M63.0824 16.1744L20.9713 16.8193C19.6493 16.8395 18.594 17.9276 18.6143 19.2496L18.9793 43.0883C18.9996 44.4103 20.0877 45.4656 21.4097 45.4454L63.5208 44.8005C64.8428 44.7802 65.8981 43.6921 65.8778 42.3701L65.5128 18.5315C65.4925 17.2095 64.4044 16.1542 63.0824 16.1744Z" fill="#D2B8FF"/>
<path d="M63.0824 16.1744L20.9713 16.8193C19.6493 16.8395 18.594 17.9276 18.6143 19.2496L18.9793 43.0883C18.9996 44.4103 20.0877 45.4656 21.4097 45.4454L63.5208 44.8005C64.8428 44.7802 65.8981 43.6921 65.8778 42.3701L65.5128 18.5315C65.4925 17.2095 64.4044 16.1542 63.0824 16.1744Z" fill="#E2D2FF"/>
<path opacity="0.2" d="M31.2731 19.9113L23.0276 20.0375C22.3919 20.0473 21.8844 20.5706 21.8941 21.2063L21.9574 25.3428C21.9672 25.9785 22.4905 26.486 23.1262 26.4763L31.3717 26.35C32.0074 26.3403 32.5149 25.817 32.5052 25.1812L32.4419 21.0448C32.4321 20.409 31.9088 19.9015 31.2731 19.9113Z" fill="white"/>
<path opacity="0.4" d="M30.5958 35.8892L22.5171 36.0129C22.2787 36.0166 22.0884 36.2128 22.0921 36.4512L22.1144 37.9107C22.1181 38.1491 22.3143 38.3395 22.5527 38.3358L30.6314 38.2121C30.8698 38.2084 31.0601 38.0122 31.0565 37.7738L31.0341 36.3143C31.0305 36.0759 30.8342 35.8856 30.5958 35.8892Z" fill="white"/>
<path opacity="0.4" d="M41.1066 35.7266L33.0279 35.8503C32.7895 35.854 32.5992 36.0502 32.6028 36.2886L32.6252 37.7481C32.6288 37.9865 32.825 38.1769 33.0634 38.1732L41.1421 38.0495C41.3806 38.0458 41.5709 37.8496 41.5672 37.6112L41.5449 36.1517C41.5412 35.9133 41.345 35.723 41.1066 35.7266Z" fill="white"/>
<path opacity="0.4" d="M51.6149 35.566L43.5362 35.6897C43.2978 35.6933 43.1075 35.8896 43.1111 36.128L43.1335 37.5875C43.1371 37.8259 43.3333 38.0162 43.5718 38.0126L51.6505 37.8888C51.8889 37.8852 52.0792 37.689 52.0755 37.4506L52.0532 35.991C52.0495 35.7526 51.8533 35.5623 51.6149 35.566Z" fill="white"/>
<path opacity="0.4" d="M62.1251 35.4058L54.0464 35.5295C53.808 35.5332 53.6177 35.7294 53.6214 35.9678L53.6437 37.4273C53.6474 37.6657 53.8436 37.8561 54.082 37.8524L62.1607 37.7287C62.3991 37.725 62.5894 37.5288 62.5858 37.2904L62.5634 35.8309C62.5598 35.5925 62.3635 35.4022 62.1251 35.4058Z" fill="white"/>
<circle cx="42.0184" cy="54.0301" r="4.36607" fill="white"/>
<path fill-rule="evenodd" clip-rule="evenodd" d="M42.2914 60.0788C45.9334 60.0788 48.8859 57.1263 48.8859 53.4842C48.8859 49.8421 45.9334 46.8896 42.2914 46.8896C38.6493 46.8896 35.6968 49.8421 35.6968 53.4842C35.6968 57.1263 38.6493 60.0788 42.2914 60.0788ZM42.7859 51.5059C42.7859 51.2327 42.5645 51.0113 42.2914 51.0113C42.0182 51.0113 41.7968 51.2327 41.7968 51.5059V52.9896H40.313C40.0398 52.9896 39.8184 53.2111 39.8184 53.4842C39.8184 53.7574 40.0398 53.9788 40.313 53.9788H41.7968V55.4626C41.7968 55.7357 42.0182 55.9572 42.2914 55.9572C42.5645 55.9572 42.7859 55.7357 42.7859 55.4626V53.9788H44.2697C44.5429 53.9788 44.7643 53.7574 44.7643 53.4842C44.7643 53.2111 44.5429 52.9896 44.2697 52.9896H42.7859V51.5059Z" fill="#AE72FF"/>
<path d="M0.114007 41.0984C0.00212642 41.243 -0.0333479 41.4313 0.0184992 41.606C0.0703462 41.7861 0.206786 41.9225 0.375971 41.9798C2.44439 42.7057 4.28633 44.0864 5.5061 45.9065C6.86231 47.9286 8.89526 49.5195 11.1929 50.3244C11.4221 50.4063 11.6786 50.3299 11.8287 50.1362L15.9765 44.7222C16.0883 44.5776 16.1238 44.3893 16.072 44.2147C16.0201 44.04 15.8891 43.9009 15.7145 43.8408C13.6461 43.115 11.8342 41.7151 10.6171 39.8923C9.25818 37.8702 7.24707 36.3121 4.94669 35.5071C4.71475 35.4252 4.46097 35.5017 4.31089 35.6954L0.114007 41.0984ZM11.0974 44.534C11.3457 44.725 11.3894 45.0824 11.1984 45.3308C11.0073 45.5791 10.6499 45.6227 10.4015 45.4317C10.1532 45.2407 10.1096 44.8832 10.3006 44.6349C10.4916 44.3866 10.8491 44.3429 11.0974 44.534ZM9.09991 41.5541C9.84214 42.1299 9.97858 43.1996 9.40281 43.9418C8.82976 44.684 7.75735 44.8205 7.01512 44.2447C6.27562 43.6717 6.13372 42.6047 6.71222 41.857C7.28527 41.1148 8.35768 40.9783 9.09991 41.5541ZM5.71621 40.3671C5.96453 40.5581 6.00819 40.9156 5.81718 41.1639C5.62616 41.4122 5.26869 41.4559 5.02037 41.2649C4.77205 41.0738 4.72839 40.7164 4.91941 40.4681C5.11042 40.2197 5.46789 40.1761 5.71621 40.3671Z" fill="#F1EAFF"/>
<path d="M74.7456 37.7448C74.8928 37.8533 75.0818 37.8845 75.2552 37.8287C75.4341 37.7728 75.5674 37.6333 75.6209 37.4629C76.2996 35.3785 77.6382 33.5057 79.4302 32.245C81.4209 30.8433 82.9653 28.7747 83.718 26.4594C83.7946 26.2284 83.7124 25.9737 83.5153 25.8281L78.0087 21.8042C77.8615 21.6956 77.6725 21.6644 77.4991 21.7202C77.3257 21.776 77.1895 21.9101 77.1334 22.0861C76.4547 24.1704 75.0963 26.0136 73.3015 27.2717C71.3109 28.6762 69.7987 30.7221 69.0461 33.0402C68.9696 33.2739 69.0517 33.5259 69.2488 33.6715L74.7456 37.7448ZM77.9311 26.6863C78.1165 26.4337 78.4728 26.3819 78.7254 26.5673C78.978 26.7526 79.0298 27.109 78.8445 27.3616C78.6591 27.6142 78.3027 27.6659 78.0501 27.4806C77.7976 27.2953 77.7458 26.9389 77.9311 26.6863ZM74.9974 28.7508C75.5562 27.9957 76.6225 27.8351 77.3776 28.3939C78.1326 28.9499 78.2933 30.019 77.7346 30.7741C77.1784 31.5264 76.115 31.6924 75.3544 31.131C74.5993 30.575 74.4386 29.5059 74.9974 28.7508ZM73.8874 32.1606C74.0727 31.908 74.4291 31.8562 74.6817 32.0416C74.9343 32.2269 74.9861 32.5833 74.8007 32.8359C74.6154 33.0885 74.259 33.1402 74.0064 32.9549C73.7538 32.7696 73.7021 32.4132 73.8874 32.1606Z" fill="#F1EAFF"/>
</svg>
