<svg width="679" height="534" viewBox="0 0 679 534" fill="none" xmlns="http://www.w3.org/2000/svg">
<rect x="90.4346" y="0.5" width="498" height="533" rx="28.175" fill="#1F0433" stroke="#AE72FF"/>
<circle cx="160.934" cy="69" r="37.5" stroke="#AE72FF"/>
<rect x="214.935" y="55" width="110" height="28" rx="5" fill="#2E1044"/>
<path d="M524.899 53.0151L519.934 48.1304L522.1 46L527.065 50.8847H550.403C551.249 50.8847 551.934 51.5592 551.934 52.3911C551.934 52.5377 551.912 52.6836 551.87 52.824L548.195 64.8752C548 65.5124 547.404 65.9488 546.728 65.9488H527.962V68.9616H544.805V71.9744H526.43C525.585 71.9744 524.899 71.2998 524.899 70.468V53.0151ZM527.196 78C525.928 78 524.899 76.9883 524.899 75.7404C524.899 74.4923 525.928 73.4808 527.196 73.4808C528.465 73.4808 529.493 74.4923 529.493 75.7404C529.493 76.9883 528.465 78 527.196 78ZM545.571 78C544.302 78 543.274 76.9883 543.274 75.7404C543.274 74.4923 544.302 73.4808 545.571 73.4808C546.839 73.4808 547.867 74.4923 547.867 75.7404C547.867 76.9883 546.839 78 545.571 78Z" fill="#AE72FF"/>
<path d="M484.188 69.0257L490.935 75.7722L488.707 78L481.96 71.2535C479.535 73.1943 476.458 74.3552 473.112 74.3552C465.286 74.3552 458.935 68.0037 458.935 60.1776C458.935 52.3516 465.286 46 473.112 46C480.938 46 487.29 52.3516 487.29 60.1776C487.29 63.5235 486.129 66.5999 484.188 69.0257ZM481.028 67.8569C482.954 65.8717 484.139 63.1637 484.139 60.1776C484.139 54.0852 479.205 49.1506 473.112 49.1506C467.02 49.1506 462.085 54.0852 462.085 60.1776C462.085 66.2701 467.02 71.2047 473.112 71.2047C476.098 71.2047 478.806 70.0193 480.791 68.093L481.028 67.8569Z" fill="#AE72FF"/>
<g opacity="0.21">
<path fill-rule="evenodd" clip-rule="evenodd" d="M151.585 68.896C149.919 67.7049 147.91 67.0514 145.837 67.0514C144.814 67.0514 143.992 67.8731 143.992 68.896C143.992 69.9188 144.814 70.7405 145.837 70.7405C147.91 70.7405 149.919 70.087 151.585 68.896ZM160.331 77.6413C159.139 79.308 158.486 81.3169 158.486 83.3897C158.486 84.4125 159.308 85.2342 160.331 85.2342C161.353 85.2342 162.175 84.4125 162.175 83.3897C162.175 81.3169 161.522 79.308 160.331 77.6413ZM169.076 68.896C170.743 70.087 172.751 70.7405 174.824 70.7405C175.847 70.7405 176.669 69.9188 176.669 68.896C176.669 67.8731 175.847 67.0514 174.824 67.0514C172.751 67.0514 170.743 67.7049 169.076 68.896ZM160.331 65.3731L156.808 68.896L160.331 72.4188L163.853 68.896L160.331 65.3731ZM162.788 62.7976C164.683 60.4271 165.733 57.4669 165.733 54.4023C165.733 51.3376 163.318 49 160.331 49C157.343 49 154.928 51.415 154.928 54.4023C154.928 57.3896 155.978 60.4271 157.873 62.7976L154.234 66.4365C151.864 64.5417 148.903 63.4918 145.839 63.4918C142.774 63.4918 140.435 65.9087 140.435 68.896C140.435 71.8833 142.85 74.2982 145.837 74.2982C148.824 74.2982 151.862 73.2483 154.232 71.3535L157.871 74.9924C155.976 77.3629 154.926 80.3231 154.926 83.3877C154.926 86.4524 157.341 88.79 160.329 88.79C163.316 88.79 165.731 86.375 165.731 83.3877C165.731 80.4004 164.681 77.3629 162.786 74.9924L166.425 71.3535C168.795 73.2483 171.756 74.2982 174.82 74.2982C177.885 74.2982 180.223 71.8833 180.223 68.896C180.223 65.9087 177.808 63.4937 174.82 63.4937C171.833 63.4937 168.795 64.5436 166.425 66.4385L162.786 62.7996L162.788 62.7976ZM160.331 52.5577C159.308 52.5577 158.486 53.3794 158.486 54.4023C158.486 56.475 159.139 58.4839 160.331 60.1506C161.522 58.4839 162.175 56.475 162.175 54.4023C162.175 53.3794 161.353 52.5577 160.331 52.5577Z" fill="#AE72FF"/>
</g>
<rect x="233.6" y="173.5" width="211.75" height="284.825" rx="28.175" fill="#1F0433" stroke="#AE72FF"/>
<rect x="466.7" y="173.5" width="211.75" height="284.825" rx="28.175" fill="#1F0433" stroke="#AE72FF"/>
<rect x="0.5" y="173.5" width="211.75" height="284.825" rx="28.175" fill="#1F0433" stroke="#AE72FF"/>
<rect x="25" y="381" width="162" height="28" rx="5" fill="#2E1044"/>
<rect x="258" y="381" width="162" height="28" rx="5" fill="#2E1044"/>
<rect x="492" y="381" width="162" height="28" rx="5" fill="#2E1044"/>
<rect x="25" y="199" width="162" height="158" rx="17" fill="#2E1044"/>
<rect x="258" y="199" width="162" height="158" rx="17" fill="#2E1044"/>
<rect x="492" y="199" width="162" height="158" rx="17" fill="#2E1044"/>
<path d="M573.139 235.082C576.215 234.715 579.235 235.632 582.047 236.751L620.836 255.214C623.533 256.686 626.674 259.475 626.701 262.804C626.776 272.04 626.381 281.391 626.286 290.628C626.239 295.129 626.622 300.209 626.297 304.618C626.11 307.16 624.597 310.302 622.254 311.494C607.868 316.764 593.509 322.124 579.091 327.312C577.28 327.963 576.052 328.693 574.039 328.784C572.22 328.867 570.15 328.588 568.439 327.982L525.636 312.334C523.154 311.161 519.482 307.297 519.24 304.484C519.213 295.072 519.29 285.659 519.251 276.246C519.232 271.559 518.808 266.695 519.106 262C519.309 258.806 520.839 255.005 523.907 253.621L571.671 235.478C572.144 235.313 572.639 235.142 573.139 235.082ZM592.073 269.398L542.181 248.118L523.68 255.124C521.726 256.557 520.755 258.847 520.439 261.203C520.737 275.126 520.02 289.231 520.527 303.125C520.535 303.356 520.416 303.647 520.433 303.949C520.599 306.718 523.834 310.047 526.233 311.205L569.499 327.054C571.485 327.6 574.485 327.693 576.432 327.05L621.772 310.345C625.517 308.05 624.861 304.349 624.954 300.612C625.174 291.744 625.163 282.871 625.22 273.984C625.245 270.264 625.701 265.805 625.365 262.134C625.15 259.775 622.378 257.495 620.435 256.411C607.538 250.622 594.865 243.679 581.911 238.084C579.309 236.96 576.662 236.077 573.769 236.245C568.224 238.022 562.72 240.13 557.29 242.268C556.787 242.466 556.088 242.658 555.726 243.032C555.897 243.031 556.064 243.068 556.22 243.138C571.646 250.084 587.344 256.523 602.682 263.646C603.25 263.91 603.778 264.214 604.287 264.577L618.169 259.541L617.949 259.164L614.247 256.876C613.957 256.549 613.996 255.986 614.433 255.869L615.07 255.917C616.394 256.911 618.004 257.639 619.358 258.555C621.118 259.746 619.661 260.184 618.393 260.765C614.69 262.462 610.358 263.646 606.517 265.133C606.334 265.204 605.522 265.481 605.524 265.601C606.037 266.031 606.378 266.657 606.453 267.331C606.892 271.228 605.932 275.857 606.318 279.845C605.792 283.51 601.21 283.057 598.508 284.132C596.917 283.863 595.858 282.447 595.682 280.897C595.37 278.153 595.511 275.155 595.265 272.393C595.165 271.261 594.705 270.844 593.719 270.359L577.501 276.454C576.721 276.207 576.928 275.353 577.643 275.137L591.884 269.674L592.072 269.398H592.073ZM543.744 247.428L593.137 268.531C594.35 269.313 595.865 269.916 596.437 271.356C596.662 274.344 596.573 277.533 596.883 280.496C596.985 281.479 597.55 282.92 598.758 282.816C600.195 282.693 602.123 281.641 603.663 281.584C604.439 281.145 605.037 280.51 605.128 279.587C605.4 276.802 605.073 273.279 605.116 270.388C605.131 269.339 605.585 267.675 604.929 266.725C604.589 266.232 603.614 265.548 603.08 265.245L554.161 243.586L543.744 247.428Z" fill="black"/>
<path d="M592.073 269.398L591.885 269.674L577.644 275.137C576.928 275.353 576.722 276.207 577.502 276.454L593.72 270.359C594.706 270.844 595.166 271.261 595.267 272.393C595.512 275.155 595.37 278.155 595.683 280.897C595.859 282.446 596.918 283.863 598.509 284.132C601.211 283.057 605.794 283.51 606.319 279.845C605.933 275.857 606.893 271.229 606.455 267.331C606.379 266.658 606.038 266.031 605.525 265.601C605.525 265.481 606.335 265.204 606.518 265.133C610.358 263.645 614.691 262.461 618.394 260.765C619.662 260.184 621.118 259.747 619.359 258.556C618.005 257.639 616.395 256.911 615.071 255.917L614.434 255.869C613.997 255.986 613.958 256.548 614.249 256.876L617.95 259.164L618.17 259.541L604.289 264.577C603.779 264.214 603.251 263.91 602.683 263.646C587.345 256.523 571.646 250.085 556.221 243.138C556.065 243.067 555.899 243.029 555.728 243.032C556.09 242.658 556.789 242.466 557.291 242.268C562.722 240.13 568.225 238.022 573.77 236.246C576.663 236.076 579.312 236.96 581.913 238.084C594.866 243.679 607.539 250.623 620.436 256.411C622.379 257.495 625.15 259.775 625.366 262.134C625.702 265.805 625.246 270.264 625.222 273.984C625.164 282.871 625.175 291.744 624.955 300.612C624.862 304.349 625.519 308.049 621.773 310.345L576.433 327.05C574.486 327.693 571.486 327.6 569.501 327.054L526.234 311.204C523.835 310.047 520.599 306.718 520.434 303.947C520.416 303.646 520.535 303.355 520.528 303.124C520.022 289.23 520.738 275.126 520.44 261.202C520.756 258.846 521.728 256.556 523.681 255.123L542.182 248.116L592.074 269.397L592.073 269.398ZM574.067 321.02C574.155 320.919 574.222 320.495 574.22 320.336C574.192 318.66 573.924 316.937 573.835 315.261C573.55 309.843 573.227 304.437 572.903 299.018C572.568 293.408 572.979 285.978 570.794 280.889C569.001 276.708 565.61 272.927 561.408 271.103L524.366 257.272C523.731 257.286 523.752 257.77 523.771 258.275C523.83 259.78 524.299 262.443 524.592 263.981C524.688 264.482 524.838 265.604 525.636 265.205C526.227 264.909 525.829 264.393 525.781 263.989C525.589 262.394 525.215 260.629 525.101 259.076C525.086 258.869 525.079 258.846 525.297 258.88L561.676 272.564C572.371 278.147 571.091 289.278 571.704 299.549C572.083 305.898 572.528 312.241 572.9 318.591C572.936 319.2 572.803 320.039 572.905 320.584C573.008 321.129 573.732 321.407 574.067 321.019V321.02Z" fill="#AE72FF"/>
<path d="M543.745 247.428L554.162 243.586L603.082 265.244C603.617 265.546 604.591 266.231 604.93 266.723C605.586 267.673 605.133 269.337 605.117 270.387C605.073 273.277 605.402 276.8 605.129 279.586C605.039 280.508 604.44 281.145 603.665 281.582C602.124 281.639 600.196 282.691 598.76 282.815C597.551 282.918 596.987 281.477 596.884 280.495C596.574 277.531 596.663 274.342 596.438 271.354C595.865 269.914 594.351 269.312 593.139 268.53L543.745 247.428Z" fill="#512473" stroke="#512473" stroke-miterlimit="10"/>
<path d="M574.067 321.02C573.732 321.408 573.004 321.11 572.905 320.585C572.806 320.06 572.936 319.201 572.9 318.592C572.528 312.242 572.084 305.899 571.704 299.55C571.091 289.279 572.371 278.148 561.676 272.565L525.298 258.881C525.08 258.847 525.086 258.87 525.102 259.077C525.216 260.63 525.59 262.394 525.782 263.99C525.831 264.394 526.228 264.909 525.637 265.206C524.84 265.605 524.689 264.483 524.593 263.982C524.299 262.444 523.83 259.779 523.772 258.275C523.753 257.771 523.732 257.287 524.367 257.272L561.409 271.104C565.611 272.929 569.002 276.71 570.795 280.89C572.978 285.979 572.569 293.409 572.904 299.019C573.228 304.438 573.55 309.844 573.836 315.262C573.924 316.938 574.192 318.662 574.221 320.337C574.223 320.496 574.156 320.92 574.068 321.021L574.067 321.02Z" fill="black"/>
<path d="M323.545 301.379H353.604L354.492 299.895V295.232L355.406 290.674L356.465 288.237C356.465 288.237 360.281 284.81 360.386 284.775C360.492 284.74 365.226 279.193 365.226 279.193L366.992 275.024L368.511 271.244L370.03 265.273L370.596 259.726L369.995 255.91L368.406 249.692C368.406 249.692 364.202 242.026 364.131 241.885C364.06 241.743 359.044 236.267 358.938 236.161C358.832 236.056 350.001 231.322 350.001 231.322L340.533 229.061H331.949L322.941 232.664L317.748 236.056L313.474 240.436C313.474 240.436 309.8 245.241 309.765 245.347C309.729 245.452 306.656 253.72 306.656 253.72L305.879 258.949C305.879 258.949 305.844 266.529 305.95 266.731C306.056 266.933 308.14 274.564 308.14 274.564L310.436 278.981C311.332 279.923 312.226 280.865 313.121 281.807C313.48 282.35 313.923 282.939 314.464 283.538C315.469 284.652 316.501 285.45 317.361 286.011C317.82 286.518 318.279 287.024 318.738 287.53C318.849 288.157 319.112 289.035 319.834 289.686C320.225 290.039 320.429 290.035 320.705 290.256C321.667 291.03 321.115 292.637 321.07 295.515C321.029 298.136 321.423 300.779 321.423 300.779L323.546 301.38L323.545 301.379Z" fill="#AE72FF"/>
<path d="M324.177 309.612L321.573 307.28L320.998 304.666L321.573 301.998L323.544 301.381H351.166L354.481 302.829L355.263 304.949L354.491 307.351L353.073 308.546C353.073 308.546 349.328 309.188 349.116 309.188C348.904 309.188 324.176 309.612 324.176 309.612H324.177Z" fill="#AE72FF"/>
<path d="M323.047 313.612V316.182L329.052 317.384L349.118 317.737L351.449 316.73L353.356 314.699C353.356 314.699 352.932 311.661 352.862 311.449C352.791 311.237 349.612 310.177 349.612 310.177L341.275 309.611L327.711 309.551L323.545 311.074L323.047 313.612Z" fill="#512473"/>
<path d="M327.286 318.302L329.97 324.034L339.297 324.873L344.101 324.519L345.584 324.034L347.492 322.258L349.117 317.736L327.286 318.302Z" fill="#AE72FF"/>
<path d="M371.065 260.815C371.058 256.539 370.242 252.262 368.61 248.307C367.036 244.492 364.766 240.985 361.897 238.017C359.05 235.07 355.672 232.649 351.942 230.947C348.084 229.188 343.881 228.185 339.644 228.024C335.326 227.861 330.969 228.533 326.918 230.043C323.029 231.492 319.42 233.655 316.323 236.42C313.206 239.203 310.591 242.568 308.698 246.295C306.721 250.186 305.508 254.409 305.127 258.757C304.711 263.511 305.316 268.366 306.94 272.857C308.543 277.29 311.094 281.365 314.407 284.72C315.238 285.562 316.117 286.351 317.024 287.111C317.934 287.874 318.692 288.822 319.27 289.858C320.147 291.429 320.465 293.149 320.465 294.929V298.956C320.465 299.512 320.45 300.072 320.669 300.599C320.887 301.127 321.248 301.566 321.703 301.866C320.691 302.875 320.054 304.276 320.024 305.754C319.981 307.895 321.415 309.796 323.408 310.339C322.951 310.859 322.585 311.468 322.341 312.133C321.572 314.224 322.148 316.657 324.033 317.937C324.707 318.395 325.47 318.609 326.26 318.673C326.533 319.317 326.806 319.961 327.079 320.605C327.426 321.425 327.737 322.274 328.143 323.068C328.947 324.644 330.559 325.734 332.307 325.952C332.906 326.028 333.529 325.991 334.131 325.991H340.684C341.25 325.991 341.816 325.995 342.381 325.991C344.176 325.979 345.821 325.163 346.986 323.806C347.736 322.932 348.14 321.874 348.581 320.83C348.892 320.097 349.203 319.365 349.513 318.631C350.775 318.438 351.903 317.806 352.746 316.788C353.564 315.8 354.027 314.561 354.065 313.282C354.068 313.248 354.069 313.215 354.068 313.182C354.056 311.979 353.614 310.869 352.857 310.032C353.238 309.856 353.601 309.632 353.941 309.36C356.052 307.666 356.798 304.327 355.082 302.1C354.879 301.836 354.648 301.598 354.396 301.387C354.979 300.854 355.391 300.124 355.542 299.302C355.63 298.825 355.599 298.321 355.599 297.838V295.685C355.599 294.352 355.528 293.03 355.799 291.748C355.914 291.209 356.048 290.773 356.286 290.199C356.335 290.079 356.387 289.959 356.442 289.841C356.454 289.817 356.481 289.763 356.487 289.751C356.521 289.686 356.554 289.619 356.589 289.554C356.728 289.293 356.878 289.037 357.04 288.789C357.071 288.741 357.102 288.694 357.134 288.646C357.151 288.623 357.185 288.576 357.192 288.566C357.282 288.447 357.37 288.328 357.463 288.211C357.638 287.992 357.889 287.704 358.038 287.549C358.378 287.197 358.896 286.784 359.316 286.421C361.11 284.871 362.749 283.129 364.179 281.237C367.137 277.322 369.239 272.8 370.293 268.006C370.81 265.648 371.061 263.229 371.064 260.816L371.065 260.815ZM311.934 243.362C311.966 243.317 312.024 243.233 311.934 243.362V243.362ZM309.496 247.586C309.407 247.77 309.476 247.627 309.496 247.586V247.586ZM322.304 303.161C322.311 303.152 322.313 303.15 322.304 303.161V303.161ZM324.603 311.089C324.621 311.075 324.63 311.066 324.603 311.089V311.089ZM346.978 321.27C346.915 321.419 346.852 321.566 346.789 321.714C346.772 321.755 346.755 321.795 346.739 321.835C346.735 321.844 346.728 321.86 346.722 321.876C346.705 321.905 346.629 322.061 346.612 322.092C346.561 322.183 346.502 322.269 346.451 322.36C346.449 322.364 346.448 322.367 346.446 322.371C346.435 322.386 346.425 322.401 346.413 322.416C346.343 322.51 346.27 322.602 346.194 322.69C346.154 322.736 346.007 322.888 346.078 322.82C346.015 322.88 345.953 322.94 345.887 322.998C345.822 323.055 345.755 323.111 345.687 323.165C345.641 323.202 345.595 323.237 345.549 323.271C345.547 323.272 345.546 323.273 345.545 323.274C345.541 323.276 345.537 323.279 345.531 323.282C344.878 323.704 344.231 323.959 343.444 324.015C342.922 324.052 342.389 324.025 341.867 324.025H335.453C334.87 324.025 334.287 324.028 333.703 324.025C332.314 324.017 330.975 323.446 330.082 322.369C329.497 321.663 329.209 320.837 328.852 319.994C328.669 319.561 328.486 319.128 328.302 318.695H348.067C347.908 319.068 347.751 319.442 347.592 319.814C347.387 320.3 347.181 320.785 346.976 321.27H346.978ZM352.441 314.703C352.437 314.718 352.423 314.775 352.419 314.795C352.406 314.836 352.392 314.878 352.377 314.918C352.356 314.98 352.331 315.039 352.308 315.1C352.301 315.119 352.296 315.132 352.292 315.144C352.292 315.145 352.291 315.146 352.29 315.148C352.228 315.259 352.16 315.369 352.1 315.481C352.099 315.483 352.098 315.484 352.098 315.485C352.07 315.523 352.043 315.56 352.014 315.597C351.994 315.622 351.823 315.815 351.843 315.8C351.742 315.899 351.634 315.989 351.525 316.08C351.527 316.08 351.491 316.107 351.468 316.125C351.436 316.146 351.38 316.185 351.371 316.191C351.263 316.26 351.151 316.323 351.037 316.381C350.82 316.492 350.638 316.557 350.371 316.624C350.102 316.691 349.835 316.725 349.558 316.728C349.515 316.724 349.474 316.725 349.433 316.728C349.105 316.73 348.777 316.728 348.449 316.728H328.37C327.998 316.728 327.627 316.731 327.255 316.728C326.561 316.723 325.945 316.573 325.351 316.228C324.638 315.813 324.04 315.124 323.77 314.393C323.591 313.906 323.541 313.618 323.546 313.13C323.549 312.882 323.566 312.803 323.623 312.522C323.628 312.495 323.632 312.475 323.636 312.46C323.651 312.408 323.669 312.356 323.686 312.306C323.708 312.244 323.733 312.185 323.756 312.124C323.764 312.102 323.771 312.084 323.775 312.07C323.781 312.059 323.788 312.047 323.796 312.033C323.85 311.935 323.911 311.84 323.964 311.742C323.965 311.74 323.966 311.738 323.967 311.736C324.006 311.688 324.042 311.638 324.08 311.59C324.12 311.541 324.163 311.493 324.204 311.444C324.212 311.434 324.219 311.427 324.223 311.422C324.324 311.324 324.432 311.235 324.539 311.143C324.559 311.126 324.575 311.113 324.586 311.103C324.634 311.069 324.685 311.038 324.734 311.007C324.843 310.939 324.956 310.877 325.07 310.821C325.261 310.726 325.451 310.66 325.694 310.6C326.191 310.476 326.687 310.495 327.193 310.495H348.693C349.851 310.495 350.936 310.913 351.674 311.796C352.244 312.477 352.51 313.239 352.518 314.042C352.515 314.322 352.497 314.405 352.441 314.702V314.703ZM354.482 306.1C354.486 306.06 354.502 305.963 354.482 306.1V306.1ZM354.49 305.886C354.489 305.958 354.486 306.03 354.482 306.102C354.481 306.109 354.481 306.116 354.479 306.124C354.461 306.251 354.441 306.377 354.413 306.502C354.407 306.531 354.389 306.595 354.382 306.619C354.375 306.643 354.367 306.668 354.359 306.692C354.337 306.758 354.235 306.987 354.247 306.975C354.203 307.057 354.158 307.137 354.112 307.218C354.099 307.24 354.074 307.278 354.057 307.303C354.045 307.32 354.033 307.337 354.02 307.353C353.946 307.45 353.857 307.537 353.784 307.634C353.778 307.639 353.773 307.642 353.766 307.649C353.704 307.702 353.645 307.759 353.583 307.811C353.548 307.841 353.405 307.946 353.403 307.951C353.305 308.016 353.204 308.078 353.101 308.133C353.011 308.182 352.918 308.228 352.824 308.27C352.804 308.279 352.778 308.29 352.771 308.292C352.692 308.321 352.613 308.348 352.533 308.372C352.152 308.486 351.821 308.528 351.452 308.529C350.823 308.53 350.194 308.529 349.564 308.529C349.544 308.529 349.525 308.531 349.505 308.533C349.315 308.528 349.123 308.529 348.93 308.529H328.491C328.082 308.529 327.673 308.527 327.264 308.529C327.259 308.529 327.255 308.529 327.25 308.529C327.246 308.529 327.244 308.529 327.241 308.529C325.872 308.529 324.432 308.702 323.238 307.943C322.406 307.413 321.836 306.578 321.634 305.629C321.556 305.259 321.558 304.797 321.625 304.447C321.638 304.377 321.658 304.309 321.671 304.24C321.671 304.235 321.672 304.232 321.673 304.228C321.674 304.223 321.676 304.217 321.679 304.211C321.716 304.107 321.757 304.003 321.795 303.899C321.797 303.891 321.8 303.884 321.802 303.877C321.833 303.824 321.86 303.766 321.89 303.712C321.917 303.665 321.947 303.618 321.973 303.571C321.98 303.56 321.985 303.551 321.989 303.543C321.991 303.54 321.993 303.538 321.995 303.536C322.079 303.428 322.164 303.322 322.254 303.219C322.255 303.217 322.256 303.216 322.258 303.214C322.311 303.164 322.364 303.114 322.419 303.065C322.471 303.02 322.525 302.979 322.577 302.935C322.603 302.915 322.628 302.896 322.654 302.876C322.778 302.795 322.904 302.72 323.036 302.652C323.256 302.539 323.386 302.485 323.694 302.407C323.912 302.35 324.107 302.318 324.305 302.304C325.061 302.304 325.816 302.295 326.571 302.295H350.793C350.793 302.295 350.795 302.295 350.797 302.295C351.793 302.305 352.779 302.678 353.456 303.383C353.785 303.725 354.089 304.175 354.237 304.552C354.435 305.055 354.496 305.383 354.491 305.886L354.49 305.886ZM333.664 286.15C333.384 283.673 333.058 281.2 332.666 278.738C332.42 277.193 332.158 275.646 331.805 274.12C331.881 274.122 331.957 274.123 332.033 274.125C333.559 274.159 335.086 274.171 336.612 274.175C339.224 274.183 341.848 274.214 344.46 274.097C344.295 274.74 344.147 275.387 344.015 276.038C343.524 278.435 343.17 280.862 342.847 283.286C342.193 288.21 341.763 293.162 341.393 298.114C341.338 298.852 341.284 299.589 341.232 300.327H334.894C334.557 295.595 334.197 290.863 333.665 286.149L333.664 286.15ZM322.897 267C322.897 266.881 322.9 266.955 322.897 267V267ZM322.916 266.889C322.918 266.876 322.929 266.834 322.936 266.802C322.94 266.791 322.943 266.782 322.944 266.778C322.947 266.769 322.952 266.758 322.957 266.747C322.967 266.729 322.977 266.71 322.986 266.692C323.008 266.667 323.028 266.64 323.049 266.615C323.086 266.586 323.123 266.55 323.157 266.522C323.17 266.51 323.178 266.503 323.185 266.497C323.194 266.493 323.208 266.488 323.228 266.478C323.259 266.463 323.387 266.395 323.418 266.377C323.44 266.368 323.474 266.354 323.475 266.354C323.541 266.333 323.606 266.311 323.672 266.293C324.39 266.1 325.171 266.236 325.842 266.63C326.618 267.086 327.191 267.787 327.672 268.535C328.227 269.398 328.678 270.329 329.058 271.281C329.142 271.493 329.223 271.706 329.301 271.921C328.098 271.726 326.928 271.375 325.844 270.786C325.058 270.36 324.298 269.828 323.739 269.121C323.491 268.808 323.262 268.457 323.118 268.097C323.041 267.904 322.978 267.704 322.935 267.5C322.897 267.322 322.899 267.265 322.898 267.026C322.898 267.017 322.898 267.01 322.898 267.003C322.904 266.964 322.909 266.926 322.917 266.888L322.916 266.889ZM322.983 266.695C322.983 266.695 322.984 266.694 322.984 266.694C322.982 266.697 322.976 266.709 322.964 266.732C322.972 266.715 322.98 266.701 322.983 266.695V266.695ZM347.4 269.643C347.405 269.635 347.411 269.621 347.42 269.603C347.488 269.466 347.556 269.329 347.627 269.194C347.854 268.757 348.109 268.341 348.366 267.922C348.369 267.917 348.371 267.914 348.373 267.91C348.402 267.871 348.429 267.831 348.458 267.792C348.526 267.699 348.597 267.608 348.67 267.518C348.742 267.429 348.816 267.341 348.892 267.255C348.925 267.219 348.958 267.183 348.992 267.147C348.997 267.142 348.999 267.139 349.003 267.135C349.015 267.123 349.029 267.111 349.048 267.094C349.409 266.762 349.588 266.625 350.046 266.406C350.214 266.325 350.697 266.212 350.971 266.207C351.331 266.201 351.717 266.249 352.023 266.378C352.385 266.53 352.657 266.725 352.872 267.03C352.98 267.182 353.032 267.279 353.084 267.436C353.166 267.687 353.166 267.725 353.168 267.932C353.168 267.974 353.149 268.181 353.161 268.116C353.151 268.189 353.139 268.263 353.123 268.335C353.115 268.373 353.106 268.411 353.097 268.448C353.095 268.453 353.092 268.459 353.089 268.465C353.042 268.572 353.002 268.688 352.961 268.798C352.94 268.837 352.92 268.876 352.899 268.916C352.847 269.011 352.785 269.1 352.733 269.195C352.731 269.199 352.729 269.202 352.727 269.205C352.713 269.225 352.698 269.246 352.683 269.266C352.608 269.366 352.531 269.462 352.449 269.556C352.414 269.597 352.243 269.77 352.329 269.69C352.259 269.757 352.188 269.824 352.114 269.889C351.925 270.055 351.727 270.214 351.522 270.36C351.524 270.357 351.386 270.451 351.363 270.465C351.263 270.531 351.161 270.594 351.057 270.656C350.835 270.788 350.608 270.91 350.377 271.023C349.545 271.429 348.64 271.697 347.719 271.876C347.298 271.958 346.876 272.014 346.453 272.053C346.626 271.53 346.819 271.002 347.029 270.494C347.123 270.265 347.221 270.038 347.325 269.812C347.35 269.756 347.376 269.7 347.402 269.645L347.4 269.643ZM368.712 268.718C368.446 269.87 368.173 270.805 367.768 271.949C367.571 272.506 367.359 273.057 367.132 273.602C367.025 273.857 366.916 274.11 366.803 274.362C366.743 274.496 366.681 274.629 366.62 274.763C366.62 274.763 366.602 274.802 366.589 274.83C366.567 274.877 366.514 274.987 366.507 275.001C366.004 276.037 365.446 277.044 364.835 278.02C364.69 278.252 364.542 278.482 364.392 278.709C364.311 278.831 364.229 278.951 364.148 279.071C364.143 279.08 364.124 279.107 364.108 279.129C364.062 279.195 364.015 279.262 363.968 279.328C363.642 279.787 363.305 280.238 362.955 280.68C361.506 282.512 360.053 283.939 358.267 285.453C356.304 287.118 354.925 289.411 354.34 291.914C354.011 293.326 354.049 294.76 354.049 296.197C354.049 297.305 354.077 298.417 354.049 299.524C354.045 299.694 354.049 299.512 354.035 299.685C354.033 299.701 354.02 299.754 354.015 299.775C354.006 299.8 353.996 299.825 353.986 299.85C353.978 299.863 353.952 299.903 353.932 299.933C353.91 299.96 353.884 299.991 353.875 300C353.871 300.005 353.868 300.007 353.864 300.01C353.853 300.019 353.84 300.029 353.824 300.042C353.755 300.096 353.595 300.201 353.425 300.252C353.276 300.296 353.129 300.323 352.975 300.328C352.887 300.331 352.798 300.328 352.711 300.328H342.719C343.033 295.921 343.366 291.516 343.846 287.123C344.097 284.818 344.388 282.516 344.735 280.223C345.05 278.142 345.385 276.056 345.892 274.012C347.807 273.834 349.723 273.309 351.349 272.265C352.321 271.64 353.158 270.885 353.797 269.918C354.366 269.055 354.792 267.952 354.709 266.902C354.634 265.944 354.155 265.056 353.281 264.603C352.482 264.189 351.502 264.141 350.645 264.392C348.5 265.021 347.168 267.168 346.253 269.062C345.771 270.059 345.37 271.087 345.028 272.136C344.609 272.149 344.189 272.157 343.766 272.165C342.314 272.195 340.861 272.207 339.409 272.211C336.701 272.218 333.986 272.229 331.279 272.114C331.235 271.967 331.19 271.821 331.144 271.674C330.791 270.557 330.36 269.469 329.843 268.418C329.388 267.495 328.869 266.574 328.167 265.813C327.492 265.081 326.673 264.501 325.682 264.305C324.801 264.13 323.813 264.297 323.06 264.793C322.041 265.464 321.417 266.59 321.35 267.805C321.297 268.786 321.699 269.776 322.264 270.561C323.475 272.242 325.54 273.193 327.496 273.679C328.313 273.883 329.14 273.986 329.973 274.045C330.305 275.261 330.564 276.5 330.79 277.738C331.198 279.982 331.527 282.242 331.814 284.504C332.399 289.109 332.795 293.734 333.139 298.362C333.187 299.018 333.235 299.673 333.282 300.329H324.819C324.489 300.329 324.159 300.335 323.83 300.329C323.008 300.313 322.259 299.818 322.052 298.997C321.971 298.673 322.014 298.212 322.014 297.839V293.913C322.014 291.952 321.597 290.061 320.656 288.332C320.082 287.278 319.326 286.352 318.439 285.548C317.604 284.79 316.731 284.088 315.931 283.29C314.313 281.678 312.865 279.895 311.622 277.979C309.115 274.117 307.462 269.709 306.836 265.146C306.521 262.849 306.467 260.51 306.652 258.199C306.721 257.339 306.873 256.194 307.049 255.222C307.14 254.721 307.243 254.222 307.358 253.726C307.416 253.472 307.478 253.218 307.543 252.965C307.572 252.854 307.601 252.744 307.63 252.634C307.647 252.571 307.664 252.508 307.682 252.446C307.69 252.415 307.705 252.361 307.713 252.333C307.991 251.368 308.313 250.417 308.68 249.483C308.861 249.02 309.054 248.562 309.257 248.108C309.309 247.991 309.362 247.875 309.416 247.759C309.442 247.702 309.469 247.644 309.496 247.587C309.496 247.586 309.496 247.586 309.497 247.585C309.608 247.356 309.72 247.127 309.837 246.9C310.292 246.008 310.788 245.138 311.323 244.293C311.45 244.092 311.58 243.893 311.711 243.696C311.781 243.591 311.852 243.486 311.923 243.381C311.926 243.377 311.929 243.372 311.932 243.367C311.965 243.32 311.997 243.274 312.03 243.227C312.321 242.814 312.622 242.408 312.932 242.008C313.541 241.224 314.188 240.468 314.866 239.743C314.953 239.651 315.04 239.56 315.127 239.468C315.147 239.447 315.168 239.426 315.189 239.405C315.206 239.387 315.229 239.363 315.239 239.353C315.416 239.174 315.595 238.996 315.775 238.821C316.138 238.47 316.507 238.128 316.886 237.794C317.631 237.137 318.406 236.514 319.208 235.928C319.31 235.854 319.412 235.78 319.515 235.707C319.542 235.687 319.569 235.668 319.596 235.649C319.614 235.636 319.659 235.605 319.668 235.6C319.876 235.457 320.085 235.314 320.296 235.175C320.719 234.896 321.148 234.628 321.584 234.37C325.061 232.308 328.841 230.957 332.858 230.335C337.037 229.688 341.352 229.9 345.455 230.917C349.355 231.885 353.057 233.629 356.316 235.974C359.539 238.293 362.306 241.216 364.463 244.549C366.659 247.939 368.181 251.733 368.951 255.698C369.333 257.661 369.512 259.65 369.516 261.678C369.511 264.059 369.25 266.39 368.712 268.721V268.718Z" fill="#512473"/>
<path d="M63.2743 251.306L66.9152 245.644L73.8136 244.826L96.3728 244.442L124.489 244.791L141.143 245.209L143.721 247.508L144.035 250.888L145.951 257.978L148.599 274.51L155.306 309.333L156.002 316.51C156.002 316.51 155.079 318.879 154.278 319.35C153.476 319.82 143.042 320.046 142.118 319.924C141.195 319.802 111.319 319.733 111.319 319.733L60.5742 319.611C60.5742 319.611 57.3863 318.426 57.003 317.695C56.6198 316.963 55.8881 315.848 56.0798 315.169C56.2714 314.489 56.0449 309.072 56.0449 309.072L63.2918 251.306H63.2743Z" fill="#AE72FF"/>
<path d="M135.325 244.147H139.784C141.178 244.147 143.408 245.645 144.018 246.934C148.651 268.587 152.414 290.502 156.752 312.225C157.135 314.977 156.316 320.325 152.884 320.656C147.728 321.162 141.405 320.447 136.178 320.447C111.006 320.447 85.799 320.5 60.5745 320.447C57.7176 320.099 55.4181 317.834 55 315.012C57.5259 294.63 59.6512 274.092 62.5952 253.728C62.9785 251.062 62.9785 248.815 64.8425 246.672C67.9084 243.136 72.037 244.373 76.1308 244.495C80.2245 244.617 78.5174 244.669 79.2664 244.199V239.269C79.2664 237.579 80.8343 233.764 81.7053 232.214C86.7049 223.242 97.6971 219.932 107.226 223.277C107.836 223.486 109.665 224.496 109.961 224.514C110.257 224.531 113.306 223.416 114.159 223.277C122.8 221.918 131.876 227.057 133.914 235.332C135.778 242.84 135.29 239.548 135.29 240.61V244.129H135.325V244.147ZM97.1048 223.695C90.1018 224.409 83.4821 229.844 81.5311 236.604C80.2942 240.837 80.6949 247.143 80.6426 251.655C80.6426 252.317 80.2594 252.648 80.6426 253.327C81.5311 254.843 83.8305 254.25 84.3706 252.735C84.7364 244.791 84.2138 236.917 90.8683 231.325C101.199 222.632 114.943 232.127 115.919 244.077C116.128 246.742 115.309 250.226 115.832 252.892C116.302 255.191 118.88 255.557 119.159 252.979C119.42 250.627 119.281 247.944 119.333 245.575C119.438 241.812 119.96 239.704 118.479 235.994C115.065 227.388 106.163 222.789 97.0874 223.713H97.1048V223.695ZM133.792 244.147V240.819C133.792 239.826 132.869 236.917 132.468 235.872C129.193 227.458 120.796 222.929 111.947 225.333C111.616 225.646 113.166 226.5 113.358 226.657C113.759 226.988 115.1 228.329 115.361 228.451C115.919 228.712 116.859 228.468 117.521 228.573C124.82 229.653 130.29 236.865 130.168 244.112H133.774V244.147H133.792ZM86.6178 244.147H93.7427C93.8472 239.008 95.9899 233.468 99.6307 229.81C99.6656 229.479 99.6307 229.514 99.352 229.514C92.7671 229.635 87.6282 235.907 86.5829 242.004C86.5133 242.439 86.2345 244.025 86.6352 244.147H86.6178ZM99.2301 244.147C99.7178 239.286 102.052 234.409 105.501 230.959C105.501 230.733 102.592 229.723 102.209 229.775C100.955 229.914 98.7597 233.12 98.15 234.217C96.4777 237.161 95.3105 240.75 95.2582 244.147H99.2475H99.2301ZM128.479 244.147C128.705 244.147 128.479 241.882 128.479 241.603C127.625 235.994 122.713 230.803 117.016 230.088L119.298 233.886C120.117 235.558 121.267 238.816 121.284 240.645C121.284 241.673 120.883 243.014 121.093 244.147H128.496H128.479ZM106.965 231.848C105.885 232.005 103.272 236.412 102.749 237.509C102.279 238.468 100.328 243.467 100.833 244.164L114.246 244.443C114.525 244.286 113.846 241.621 113.724 241.168C112.679 237.562 110.257 233.764 106.965 231.848ZM114.246 246.045L86.3216 245.662L85.8513 253.257C84.7887 255.87 81.2175 256.794 79.4755 254.303C78.5348 252.944 79.0922 252.386 79.1097 251.08C79.1271 249.407 79.0748 247.718 79.1097 246.045C75.9217 246.359 72.2809 245.453 69.1627 245.871C66.0444 246.289 64.6683 248.885 64.5115 251.097C62.5081 271.392 58.6408 291.565 56.7246 311.842C56.3762 315.517 56.6723 318.026 60.7835 318.932C82.3672 318.67 103.968 319.298 125.552 318.932C130.761 318.845 133.896 317.364 135.273 311.964C137.694 292.679 140.185 273.413 142.572 254.128C142.85 251.794 143.93 249.373 142.363 247.265C141.84 246.568 140.446 245.645 139.61 245.645H121.197L120.918 245.923V251.237C120.918 251.637 120.779 253.013 120.709 253.501C120.309 256.41 116.807 257.316 115.065 254.808C114.926 254.616 114.281 253.397 114.281 253.327V246.01L114.246 246.045ZM154.87 316.859C155.271 315.395 155.341 313.932 155.236 312.417L144.052 254.773L136.509 313.2L135.325 316.092L144.54 310.465L154.888 316.841H154.87V316.859ZM153.93 318.2L144.54 312.312L134.001 318.949C135.551 319.001 137.119 318.897 138.67 318.949C142.833 319.089 148.669 319.629 152.71 319.158C153.233 319.089 153.93 318.845 153.947 318.2H153.93Z" fill="#512473"/>
<path d="M114.247 246.045V253.361C114.247 253.448 114.909 254.65 115.031 254.842C116.79 257.35 120.292 256.444 120.675 253.535C121.058 250.626 120.884 251.671 120.884 251.271V245.957L121.163 245.679H139.576C140.412 245.679 141.806 246.602 142.328 247.299C143.896 249.389 142.833 251.828 142.537 254.162C140.151 273.447 137.66 292.713 135.238 311.998C133.862 317.415 130.726 318.879 125.518 318.966C103.934 319.332 82.3328 318.704 60.749 318.966C56.6379 318.06 56.3417 315.534 56.6901 311.876C58.6064 291.581 62.4736 271.408 64.477 251.131C64.6338 248.901 66.881 246.201 69.1282 245.905C71.3754 245.609 75.9047 246.393 79.0752 246.079C79.0577 247.752 79.0926 249.441 79.0752 251.114C79.0752 252.42 78.5003 252.978 79.441 254.337C81.183 256.828 84.7368 255.922 85.8168 253.291L86.2872 245.696L114.212 246.079L114.247 246.045Z" fill="#AE72FF"/>
<path d="M154.871 316.858L144.523 310.483L135.308 316.109L136.493 313.218L144.036 254.79L155.219 312.434C155.324 313.949 155.254 315.413 154.854 316.876H154.871V316.858Z" fill="#512473"/>
<path d="M97.1053 223.695C106.181 222.772 115.1 227.37 118.497 235.976C119.961 239.687 119.438 241.777 119.351 245.557C119.281 247.926 119.438 250.627 119.177 252.961C118.881 255.539 116.302 255.173 115.849 252.874C115.309 250.208 116.146 246.724 115.937 244.059C114.978 232.109 101.234 222.615 90.8862 231.307C84.2317 236.899 84.7543 244.773 84.3885 252.717C83.831 254.233 81.549 254.825 80.6605 253.309C80.2599 252.612 80.6431 252.299 80.6605 251.637C80.7128 247.108 80.3121 240.819 81.549 236.586C83.5174 229.827 90.1372 224.392 97.1227 223.677H97.1053V223.695Z" fill="#AE72FF"/>
<path d="M133.792 244.146H130.186C130.308 236.899 124.838 229.687 117.539 228.607C116.877 228.502 115.937 228.746 115.379 228.485C114.822 228.224 113.776 227.022 113.376 226.691C112.975 226.36 111.616 225.68 111.965 225.367C120.814 222.963 129.211 227.492 132.486 235.906C132.887 236.934 133.81 239.86 133.81 240.853V244.181V244.146H133.792Z" fill="#AE72FF"/>
<path d="M153.93 318.2C153.93 318.844 153.233 319.088 152.693 319.158C148.651 319.628 142.815 319.088 138.652 318.949C134.489 318.809 135.534 319.001 133.983 318.949L144.523 312.312L153.912 318.2H153.93Z" fill="#5A307A"/>
<path d="M99.23 244.146H95.2407C95.293 240.749 96.4601 237.161 98.1325 234.217C98.7596 233.119 100.937 229.914 102.191 229.774C102.592 229.722 105.484 230.733 105.484 230.959C102.052 234.408 99.7177 239.286 99.2125 244.146H99.23Z" fill="#AE72FF"/>
</svg>
