<svg width="101" height="100" viewBox="0 0 101 100" fill="none" xmlns="http://www.w3.org/2000/svg">
<g clip-path="url(#clip0_1895_8118)">
<path d="M98.4167 49.9998C98.4167 23.1526 76.6527 1.38867 49.8056 1.38867C22.9584 1.38867 1.19446 23.1526 1.19446 49.9998C1.19446 76.8469 22.9584 98.6109 49.8056 98.6109C76.6527 98.6109 98.4167 76.8469 98.4167 49.9998Z" fill="#FBF9FF"/>
<g opacity="0.65">
<path d="M85.9528 8.75781H14.0304C11.5191 8.75781 9.48328 10.7936 9.48328 13.305V55.6276C9.48328 58.1389 11.5191 60.1748 14.0304 60.1748H85.9528C88.4641 60.1748 90.5 58.1389 90.5 55.6276V13.305C90.5 10.7936 88.4641 8.75781 85.9528 8.75781Z" fill="#E8DEFF"/>
<path d="M83.5104 15.9033H16.4732C15.4204 15.9033 14.5669 16.7568 14.5669 17.8096V26.229C14.5669 27.2818 15.4204 28.1353 16.4732 28.1353H83.5104C84.5632 28.1353 85.4167 27.2818 85.4167 26.229V17.8096C85.4167 16.7568 84.5632 15.9033 83.5104 15.9033Z" fill="#FBF9FF"/>
<path d="M33.7356 31.9492H16.4732C15.4204 31.9492 14.5669 32.8027 14.5669 33.8555V51.1184C14.5669 52.1712 15.4204 53.0247 16.4732 53.0247H33.7356C34.7884 53.0247 35.6418 52.1712 35.6418 51.1184V33.8555C35.6418 32.8027 34.7884 31.9492 33.7356 31.9492Z" fill="white"/>
<path d="M58.6229 31.9492H41.3605C40.3077 31.9492 39.4542 32.8027 39.4542 33.8555V51.1184C39.4542 52.1712 40.3077 53.0247 41.3605 53.0247H58.6229C59.6757 53.0247 60.5292 52.1712 60.5292 51.1184V33.8555C60.5292 32.8027 59.6757 31.9492 58.6229 31.9492Z" fill="white"/>
<path d="M83.5102 31.9492H66.2478C65.195 31.9492 64.3416 32.8027 64.3416 33.8555V51.1184C64.3416 52.1712 65.195 53.0247 66.2478 53.0247H83.5102C84.563 53.0247 85.4165 52.1712 85.4165 51.1184V33.8555C85.4165 32.8027 84.563 31.9492 83.5102 31.9492Z" fill="white"/>
</g>
<path d="M93.9278 18.0566H6.05555C2.98731 18.0566 0.5 20.5439 0.5 23.6122V75.3205C0.5 78.3888 2.98731 80.8761 6.05555 80.8761H93.9278C96.996 80.8761 99.4833 78.3888 99.4833 75.3205V23.6122C99.4833 20.5439 96.996 18.0566 93.9278 18.0566Z" fill="#E8DEFF"/>
<path d="M90.9437 26.7871H9.03995C7.75367 26.7871 6.71094 27.8298 6.71094 29.1161V39.4027C6.71094 40.689 7.75367 41.7317 9.03995 41.7317H90.9437C92.23 41.7317 93.2727 40.689 93.2727 39.4027V29.1161C93.2727 27.8298 92.23 26.7871 90.9437 26.7871Z" fill="#FBF9FF"/>
<path d="M30.1305 46.3916H9.03995C7.75367 46.3916 6.71094 47.4343 6.71094 48.7206V69.8119C6.71094 71.0982 7.75367 72.1409 9.03995 72.1409H30.1305C31.4168 72.1409 32.4595 71.0982 32.4595 69.8119V48.7206C32.4595 47.4343 31.4168 46.3916 30.1305 46.3916Z" fill="white"/>
<path d="M60.537 46.3916H39.4464C38.1602 46.3916 37.1174 47.4343 37.1174 48.7206V69.8119C37.1174 71.0982 38.1602 72.1409 39.4464 72.1409H60.537C61.8233 72.1409 62.866 71.0982 62.866 69.8119V48.7206C62.866 47.4343 61.8233 46.3916 60.537 46.3916Z" fill="white"/>
<path d="M90.9435 46.3916H69.8529C68.5667 46.3916 67.5239 47.4343 67.5239 48.7206V69.8119C67.5239 71.0982 68.5667 72.1409 69.8529 72.1409H90.9435C92.2298 72.1409 93.2725 71.0982 93.2725 69.8119V48.7206C93.2725 47.4343 92.2298 46.3916 90.9435 46.3916Z" fill="white"/>
</g>
<defs>
<clipPath id="clip0_1895_8118">
<rect width="100" height="97.2222" fill="white" transform="translate(0.5 1.38867)"/>
</clipPath>
</defs>
</svg>
