<svg width="85" height="71" viewBox="0 0 85 71" fill="none" xmlns="http://www.w3.org/2000/svg">
<circle cx="42.1212" cy="31.4354" r="23.1947" fill="#FBF9FF"/>
<path d="M63.5825 16.5016L21.4714 17.1464C20.1494 17.1667 19.0941 18.2548 19.1144 19.5768L19.4794 43.4155C19.4997 44.7375 20.5878 45.7927 21.9098 45.7725L64.0209 45.1276C65.3429 45.1074 66.3982 44.0193 66.3779 42.6973L66.0129 18.8586C65.9926 17.5366 64.9045 16.4813 63.5825 16.5016Z" fill="#D2B8FF"/>
<path d="M63.5825 16.5016L21.4714 17.1464C20.1494 17.1667 19.0941 18.2548 19.1144 19.5768L19.4794 43.4155C19.4997 44.7375 20.5878 45.7927 21.9098 45.7725L64.0209 45.1276C65.3429 45.1074 66.3982 44.0193 66.3779 42.6973L66.0129 18.8586C65.9926 17.5366 64.9045 16.4813 63.5825 16.5016Z" fill="#E2D2FF"/>
<path opacity="0.2" d="M31.7732 20.2384L23.5278 20.3647C22.892 20.3744 22.3845 20.8977 22.3943 21.5335L22.4576 25.6699C22.4673 26.3057 22.9906 26.8132 23.6264 26.8034L31.8718 26.6772C32.5076 26.6674 33.0151 26.1442 33.0054 25.5084L32.942 21.372C32.9323 20.7362 32.409 20.2287 31.7732 20.2384Z" fill="white"/>
<path opacity="0.4" d="M31.0962 36.2164L23.0175 36.3401C22.7791 36.3437 22.5887 36.54 22.5924 36.7784L22.6147 38.2379C22.6184 38.4763 22.8146 38.6666 23.053 38.663L31.1317 38.5392C31.3702 38.5356 31.5605 38.3394 31.5568 38.1009L31.5345 36.6414C31.5308 36.403 31.3346 36.2127 31.0962 36.2164Z" fill="white"/>
<path opacity="0.4" d="M41.6065 36.0538L33.5278 36.1775C33.2894 36.1811 33.0991 36.3774 33.1027 36.6158L33.1251 38.0753C33.1287 38.3137 33.325 38.504 33.5634 38.5004L41.6421 38.3766C41.8805 38.373 42.0708 38.1768 42.0672 37.9383L42.0448 36.4788C42.0412 36.2404 41.8449 36.0501 41.6065 36.0538Z" fill="white"/>
<path opacity="0.4" d="M52.1148 35.8931L44.0361 36.0168C43.7977 36.0205 43.6074 36.2167 43.611 36.4551L43.6334 37.9146C43.637 38.153 43.8332 38.3434 44.0717 38.3397L52.1504 38.216C52.3888 38.2123 52.5791 38.0161 52.5754 37.7777L52.5531 36.3182C52.5494 36.0798 52.3532 35.8895 52.1148 35.8931Z" fill="white"/>
<path opacity="0.4" d="M62.6252 35.733L54.5465 35.8567C54.3081 35.8603 54.1178 36.0566 54.1214 36.295L54.1438 37.7545C54.1474 37.9929 54.3437 38.1832 54.5821 38.1796L62.6608 38.0558C62.8992 38.0522 63.0895 37.856 63.0858 37.6175L63.0635 36.158C63.0598 35.9196 62.8636 35.7293 62.6252 35.733Z" fill="white"/>
<circle cx="42.5187" cy="54.3573" r="4.36607" fill="white"/>
<path fill-rule="evenodd" clip-rule="evenodd" d="M42.7916 60.406C46.4337 60.406 49.3862 57.4534 49.3862 53.8114C49.3862 50.1693 46.4337 47.2168 42.7916 47.2168C39.1495 47.2168 36.1971 50.1693 36.1971 53.8114C36.1971 57.4534 39.1495 60.406 42.7916 60.406ZM43.2862 51.833C43.2862 51.5598 43.0648 51.3384 42.7916 51.3384C42.5185 51.3384 42.297 51.5598 42.297 51.833V53.3168H40.8133C40.5401 53.3168 40.3187 53.5382 40.3187 53.8114C40.3187 54.0845 40.5401 54.306 40.8133 54.306H42.297V55.7897C42.297 56.0629 42.5185 56.2843 42.7916 56.2843C43.0648 56.2843 43.2862 56.0629 43.2862 55.7897V54.306H44.77C45.0431 54.306 45.2646 54.0845 45.2646 53.8114C45.2646 53.5382 45.0431 53.3168 44.77 53.3168H43.2862V51.833Z" fill="#AE72FF"/>
<path d="M0.614266 41.4256C0.502386 41.5702 0.466912 41.7585 0.518759 41.9331C0.570606 42.1132 0.707045 42.2496 0.87623 42.307C2.94465 43.0328 4.78659 44.4136 6.00636 46.2337C7.36257 48.2557 9.39551 49.8466 11.6932 50.6516C11.9224 50.7335 12.1789 50.6571 12.329 50.4633L16.4767 45.0494C16.5886 44.9048 16.6241 44.7165 16.5722 44.5418C16.5204 44.3672 16.3894 44.228 16.2148 44.168C14.1463 43.4421 12.3344 42.0423 11.1174 40.2194C9.75844 38.1974 7.74732 36.6393 5.44695 35.8343C5.21501 35.7524 4.96123 35.8288 4.81115 36.0225L0.614266 41.4256ZM11.5976 44.8611C11.846 45.0521 11.8896 45.4096 11.6986 45.6579C11.5076 45.9062 11.1501 45.9499 10.9018 45.7589C10.6535 45.5679 10.6098 45.2104 10.8008 44.9621C10.9919 44.7137 11.3493 44.6701 11.5976 44.8611ZM9.60017 41.8813C10.3424 42.457 10.4788 43.5267 9.90307 44.269C9.33002 45.0112 8.25761 45.1476 7.51538 44.5718C6.77588 43.9988 6.63398 42.9318 7.21248 42.1842C7.78553 41.4419 8.85794 41.3055 9.60017 41.8813ZM6.21647 40.6942C6.46479 40.8853 6.50845 41.2427 6.31744 41.491C6.12642 41.7394 5.76895 41.783 5.52063 41.592C5.27231 41.401 5.22865 41.0435 5.41967 40.7952C5.61068 40.5469 5.96815 40.5032 6.21647 40.6942Z" fill="#F1EAFF"/>
<path d="M75.2457 38.0719C75.3929 38.1805 75.5819 38.2117 75.7553 38.1559C75.9342 38.1 76.0675 37.9605 76.121 37.79C76.7997 35.7057 78.1384 33.8329 79.9303 32.5721C81.9211 31.1704 83.4654 29.1019 84.2181 26.7866C84.2947 26.5556 84.2125 26.3009 84.0154 26.1552L78.5088 22.1313C78.3617 22.0228 78.1726 21.9916 77.9992 22.0474C77.8258 22.1032 77.6896 22.2373 77.6336 22.4132C76.9548 24.4976 75.5964 26.3408 73.8017 27.5989C71.811 29.0033 70.2989 31.0493 69.5463 33.3673C69.4697 33.6011 69.5518 33.853 69.7489 33.9987L75.2457 38.0719ZM78.4312 27.0134C78.6166 26.7608 78.973 26.7091 79.2256 26.8944C79.4781 27.0797 79.5299 27.4361 79.3446 27.6887C79.1592 27.9413 78.8029 27.9931 78.5503 27.8077C78.2977 27.6224 78.2459 27.266 78.4312 27.0134ZM75.4975 29.078C76.0563 28.3229 77.1226 28.1622 77.8777 28.721C78.6327 29.2771 78.7935 30.3461 78.2347 31.1012C77.6786 31.8535 76.6151 32.0196 75.8545 31.4582C75.0994 30.9021 74.9387 29.8331 75.4975 29.078ZM74.3875 32.4877C74.5729 32.2352 74.9293 32.1834 75.1818 32.3687C75.4344 32.5541 75.4862 32.9105 75.3009 33.163C75.1155 33.4156 74.7591 33.4674 74.5065 33.2821C74.254 33.0967 74.2022 32.7403 74.3875 32.4877Z" fill="#F1EAFF"/>
</svg>
