<svg width="120" height="120" viewBox="0 0 120 120" fill="none" xmlns="http://www.w3.org/2000/svg">
<path d="M59.465 87.4649C77.7651 87.4649 92.6003 72.689 92.6003 54.4621C92.6003 36.2352 77.7651 21.4594 59.465 21.4594C41.165 21.4594 26.3297 36.2352 26.3297 54.4621C26.3297 72.689 41.165 87.4649 59.465 87.4649Z" fill="#FBF9FF"/>
<path d="M90.1231 33.2137L29.9645 34.1312C28.0758 34.16 26.5682 35.7083 26.5973 37.5893L27.1187 71.5084C27.1477 73.3894 28.7022 74.8909 30.5908 74.862L90.7494 73.9445C92.6379 73.9157 94.1455 72.3674 94.1166 70.4864L93.5952 36.5674C93.5662 34.6864 92.0117 33.1849 90.1231 33.2137Z" fill="#D2B8FF"/>
<path d="M90.1231 33.2137L29.9645 34.1312C28.0758 34.16 26.5682 35.7083 26.5973 37.5893L27.1187 71.5084C27.1477 73.3894 28.7022 74.8909 30.5908 74.862L90.7494 73.9445C92.6379 73.9157 94.1455 72.3674 94.1166 70.4864L93.5952 36.5674C93.5662 34.6864 92.0117 33.1849 90.1231 33.2137Z" fill="#E2D2FF"/>
<path opacity="0.2" d="M44.683 38.5314L32.9039 38.7111C31.9956 38.7249 31.2706 39.4695 31.2846 40.374L31.375 46.2596C31.389 47.1642 32.1365 47.8863 33.0448 47.8725L44.8239 47.6928C45.7321 47.679 46.4572 46.9344 46.4433 46.0297L46.3528 40.1442C46.3389 39.2397 45.5913 38.5175 44.683 38.5314Z" fill="white"/>
<path opacity="0.4" d="M43.7139 61.2657L32.1729 61.4417C31.8324 61.447 31.5606 61.7261 31.5656 62.0654L31.5977 64.1421C31.6028 64.4815 31.8833 64.7522 32.2238 64.7469L43.7648 64.5709C44.1054 64.5658 44.3773 64.2865 44.3721 63.9472L44.3401 61.8706C44.3349 61.5314 44.0545 61.2607 43.7139 61.2657Z" fill="white"/>
<path opacity="0.4" d="M58.7327 61.0336L47.1917 61.2097C46.851 61.215 46.5792 61.4941 46.5845 61.8333L46.6163 63.9099C46.6216 64.2492 46.9019 64.5199 47.2424 64.5148L58.7834 64.3388C59.124 64.3335 59.396 64.0544 59.3908 63.7152L59.3588 61.6384C59.3536 61.2993 59.0734 61.0284 58.7327 61.0336Z" fill="white"/>
<path opacity="0.4" d="M73.7421 60.8062L62.2011 60.9823C61.8603 60.9875 61.5885 61.2667 61.5938 61.6059L61.6256 63.6826C61.6309 64.0217 61.9112 64.2927 62.2518 64.2874L73.7928 64.1114C74.1333 64.1061 74.4054 63.827 74.4001 63.4877L74.3682 61.4111C74.3629 61.0719 74.0827 60.8012 73.7421 60.8062Z" fill="white"/>
<path opacity="0.4" d="M88.7562 60.5791L77.2152 60.7552C76.8746 60.7603 76.6027 61.0395 76.6079 61.3789L76.6399 63.4555C76.6451 63.7947 76.9254 64.0654 77.2661 64.0601L88.8071 63.8842C89.1476 63.8791 89.4194 63.5998 89.4143 63.2606L89.3823 61.1839C89.3772 60.8447 89.0967 60.5739 88.7562 60.5791Z" fill="white"/>
<path d="M60.0356 93.291C63.4804 93.291 66.2729 90.5097 66.2729 87.0787C66.2729 83.6478 63.4804 80.8665 60.0356 80.8665C56.5909 80.8665 53.7984 83.6478 53.7984 87.0787C53.7984 90.5097 56.5909 93.291 60.0356 93.291Z" fill="white"/>
<path fill-rule="evenodd" clip-rule="evenodd" d="M53.2117 88.5055C57.8609 93.1358 65.3986 93.1358 70.0476 88.5055C74.6968 83.875 74.6968 76.3674 70.0476 71.737C65.3986 67.1064 57.8609 67.1064 53.2117 71.737C48.5628 76.3674 48.5628 83.875 53.2117 88.5055ZM64.7864 78.2347C65.1352 77.8874 65.1352 77.3244 64.7864 76.9771C64.4377 76.6298 63.8725 76.6298 63.5238 76.9771L61.6297 78.8636L59.7358 76.9771C59.387 76.6298 58.8217 76.6298 58.473 76.9771C58.1243 77.3244 58.1243 77.8874 58.473 78.2347L60.3671 80.1211L58.473 82.0078C58.1243 82.3549 58.1243 82.9181 58.473 83.2652C58.8217 83.6125 59.387 83.6125 59.7358 83.2652L61.6297 81.3788L63.5238 83.2652C63.8725 83.6125 64.4377 83.6125 64.7864 83.2652C65.1352 82.9181 65.1352 82.3549 64.7864 82.0078L62.8925 80.1211L64.7864 78.2347Z" fill="#AE72FF"/>
<path d="M0.169843 68.677C0.0100131 68.8827 -0.0406643 69.1506 0.0334028 69.3991C0.10747 69.6555 0.302384 69.8495 0.544078 69.931C3.49897 70.9638 6.1303 72.9285 7.87283 75.5182C9.81028 78.3953 12.7145 80.6587 15.9968 81.8041C16.3243 81.9208 16.6907 81.8121 16.9051 81.5364L22.8305 73.833C22.9903 73.6273 23.041 73.3594 22.967 73.111C22.8929 72.8623 22.7057 72.6645 22.4563 72.579C19.5014 71.5463 16.9128 69.5544 15.1742 66.9609C13.233 64.0836 10.3599 61.8667 7.07369 60.7213C6.74233 60.6048 6.37979 60.7134 6.16538 60.9892L0.169843 68.677ZM15.8604 73.5652C16.2151 73.8371 16.2775 74.3455 16.0045 74.6991C15.7318 75.0523 15.221 75.1144 14.8663 74.8426C14.5116 74.5708 14.4492 74.0621 14.7222 73.7088C14.995 73.3555 15.5057 73.2934 15.8604 73.5652ZM13.0068 69.3253C14.0672 70.1446 14.2621 71.6667 13.4395 72.7227C12.6209 73.7787 11.0889 73.9729 10.0286 73.1537C8.97215 72.3382 8.76943 70.8202 9.59587 69.7563C10.4145 68.7003 11.9465 68.506 13.0068 69.3253ZM8.173 67.6363C8.52774 67.9081 8.59012 68.4168 8.31722 68.7701C8.04436 69.1234 7.53368 69.1855 7.17894 68.9139C6.8242 68.6419 6.76182 68.1334 7.0347 67.78C7.30757 67.4267 7.81825 67.3647 8.173 67.6363Z" fill="#F1EAFF"/>
<path d="M106.784 63.9064C106.994 64.0609 107.264 64.1053 107.512 64.0259C107.768 63.9464 107.958 63.748 108.035 63.5053C109.004 60.5396 110.916 57.8749 113.476 56.0812C116.32 54.0865 118.527 51.1434 119.602 47.849C119.711 47.5204 119.594 47.158 119.312 46.9506L111.446 41.2254C111.236 41.0708 110.966 41.0264 110.718 41.1059C110.47 41.1852 110.276 41.376 110.195 41.6263C109.226 44.5921 107.285 47.2147 104.721 49.0049C101.877 51.0032 99.7172 53.9143 98.642 57.2124C98.5326 57.5452 98.6501 57.9037 98.9316 58.1108L106.784 63.9064ZM111.335 48.1717C111.6 47.8124 112.109 47.7388 112.47 48.0024C112.83 48.2663 112.905 48.7733 112.64 49.1326C112.375 49.4921 111.866 49.5658 111.505 49.3021C111.144 49.0382 111.07 48.5311 111.335 48.1717ZM107.144 51.1094C107.942 50.035 109.466 49.8064 110.544 50.6015C111.623 51.3926 111.852 52.9138 111.054 53.9881C110.26 55.0585 108.741 55.2949 107.654 54.4961C106.575 53.7049 106.346 52.1838 107.144 51.1094ZM105.558 55.961C105.823 55.6016 106.332 55.528 106.693 55.7917C107.054 56.0554 107.128 56.5625 106.863 56.9219C106.598 57.2813 106.089 57.3548 105.728 57.0912C105.367 56.8274 105.294 56.3204 105.558 55.961Z" fill="#F1EAFF"/>
</svg>
