<svg width="98" height="71" viewBox="0 0 98 71" fill="none" xmlns="http://www.w3.org/2000/svg">
<path d="M0.732694 39.6358C0.599874 39.8075 0.55776 40.031 0.619311 40.2384C0.680862 40.4522 0.842837 40.6142 1.04369 40.6822C3.49924 41.5439 5.68591 43.1831 7.13398 45.3439C8.74401 47.7443 11.1575 49.633 13.8851 50.5886C14.1572 50.6858 14.4618 50.5951 14.6399 50.3651L19.564 43.9379C19.6968 43.7662 19.7389 43.5427 19.6774 43.3354C19.6158 43.128 19.4603 42.9628 19.253 42.8915C16.7974 42.0298 14.6464 40.368 13.2016 38.204C11.5883 35.8035 9.20079 33.9537 6.46987 32.9981C6.19452 32.9009 5.89324 32.9916 5.71507 33.2216L0.732694 39.6358ZM13.7717 43.7144C14.0665 43.9411 14.1184 44.3655 13.8916 44.6603C13.6648 44.9551 13.2405 45.0069 12.9457 44.7802C12.6509 44.5534 12.599 44.129 12.8258 43.8342C13.0526 43.5394 13.4769 43.4876 13.7717 43.7144ZM11.4004 40.1768C12.2816 40.8604 12.4435 42.1303 11.76 43.0114C11.0797 43.8925 9.80657 44.0545 8.92543 43.371C8.04752 42.6907 7.87906 41.424 8.56584 40.5364C9.24614 39.6553 10.5193 39.4933 11.4004 40.1768ZM7.38342 38.7676C7.67821 38.9944 7.73005 39.4188 7.50328 39.7136C7.27651 40.0084 6.85214 40.0602 6.55734 39.8334C6.26255 39.6067 6.21071 39.1823 6.43748 38.8875C6.66425 38.5927 7.08862 38.5409 7.38342 38.7676Z" fill="#F1EAFF"/>
<path d="M86.4168 35.6542C86.5915 35.7831 86.8159 35.8201 87.0218 35.7539C87.2341 35.6875 87.3924 35.5219 87.4558 35.3196C88.2616 32.8451 89.8508 30.6218 91.9781 29.1251C94.3415 27.461 96.1749 25.0053 97.0684 22.2567C97.1594 21.9824 97.0618 21.6801 96.8278 21.5072L90.2906 16.7302C90.1159 16.6013 89.8915 16.5642 89.6856 16.6305C89.4797 16.6967 89.3181 16.8559 89.2515 17.0648C88.4457 19.5393 86.8331 21.7275 84.7024 23.221C82.3392 24.8883 80.544 27.3172 79.6506 30.0691C79.5597 30.3466 79.6572 30.6457 79.8912 30.8186L86.4168 35.6542ZM90.1985 22.526C90.4185 22.2261 90.8416 22.1647 91.1415 22.3847C91.4413 22.6047 91.5028 23.0278 91.2828 23.3277C91.0627 23.6275 90.6396 23.689 90.3398 23.469C90.0399 23.249 89.9785 22.8259 90.1985 22.526ZM86.7156 24.977C87.379 24.0805 88.6449 23.8898 89.5413 24.5532C90.4377 25.2133 90.6285 26.4824 89.9651 27.3789C89.3049 28.272 88.0424 28.4691 87.1394 27.8027C86.2431 27.1425 86.0523 25.8734 86.7156 24.977ZM85.398 29.0249C85.618 28.725 86.0411 28.6636 86.3409 28.8836C86.6408 29.1036 86.7022 29.5267 86.4822 29.8266C86.2622 30.1264 85.8391 30.1879 85.5392 29.9679C85.2394 29.7479 85.1779 29.3248 85.398 29.0249Z" fill="#F1EAFF"/>
<circle cx="49.6843" cy="28.4241" r="27.5359" fill="#FBF9FF"/>
<g filter="url(#filter0_d_738_3583)">
<path d="M22.1121 6.49783C22.1121 5.72561 22.7381 5.09961 23.5103 5.09961H75.6351C76.4074 5.09961 77.0334 5.72561 77.0334 6.49783V26.3863C77.0334 27.1585 76.4074 27.7845 75.6351 27.7845H23.5103C22.7381 27.7845 22.1121 27.1585 22.1121 26.3863V6.49783Z" fill="#FBFBFB"/>
<rect x="46.2439" y="11.3047" width="24.4766" height="3.44741" rx="1.72371" fill="#D9DEE3" fill-opacity="0.4"/>
<rect x="46.2439" y="16.1309" width="11.0317" height="3.44741" rx="1.72371" fill="#D9DEE3" fill-opacity="0.3"/>
<circle cx="33.4728" cy="15.3038" r="6.96496" fill="#D2B8FF"/>
<path d="M35.7091 16.2321L35.1817 15.7047L35.7091 15.1773C36.2917 14.5947 36.2917 13.6502 35.7091 13.0676C35.1265 12.485 34.182 12.485 33.5994 13.0676L33.072 13.595L32.5446 13.0676L33.072 12.5402C33.9458 11.6663 35.3627 11.6663 36.2365 12.5402C37.1104 13.414 37.1104 14.8309 36.2365 15.7047L35.7091 16.2321ZM34.6542 17.287L34.1268 17.8144C33.253 18.6883 31.8362 18.6883 30.9623 17.8144C30.0884 16.9405 30.0884 15.5237 30.9623 14.6499L31.4897 14.1224L32.0171 14.6499L31.4897 15.1773C30.9071 15.7599 30.9071 16.7044 31.4897 17.287C32.0723 17.8696 33.0168 17.8696 33.5994 17.287L34.1268 16.7596L34.6542 17.287ZM34.6542 13.595L35.1817 14.1224L32.5446 16.7596L32.0171 16.2321L34.6542 13.595Z" fill="#F1EAFF"/>
</g>
<g filter="url(#filter1_d_738_3583)">
<path d="M17.761 19.8981C17.761 19.0035 18.4862 18.2783 19.3807 18.2783H79.7644C80.659 18.2783 81.3842 19.0035 81.3842 19.8981V42.9377C81.3842 43.8323 80.659 44.5575 79.7644 44.5575H19.3807C18.4862 44.5575 17.761 43.8323 17.761 42.9377V19.8981Z" fill="#FBFBFB"/>
<rect x="45.7166" y="25.4668" width="28.3548" height="3.99363" rx="1.99682" fill="#D9DEE3" fill-opacity="0.4"/>
<rect x="45.7166" y="31.0581" width="12.7796" height="3.99363" rx="1.99682" fill="#D9DEE3" fill-opacity="0.3"/>
</g>
<circle cx="49.1847" cy="55.6359" r="5.18322" fill="white"/>
<path fill-rule="evenodd" clip-rule="evenodd" d="M49.5085 62.8168C53.8322 62.8168 57.3373 59.3117 57.3373 54.988C57.3373 50.6643 53.8322 47.1592 49.5085 47.1592C45.1848 47.1592 41.6797 50.6643 41.6797 54.988C41.6797 59.3117 45.1848 62.8168 49.5085 62.8168ZM50.0957 52.6394C50.0957 52.3151 49.8328 52.0522 49.5085 52.0522C49.1842 52.0522 48.9214 52.3151 48.9214 52.6394V54.4008H47.1599C46.8356 54.4008 46.5727 54.6637 46.5727 54.988C46.5727 55.3123 46.8356 55.5752 47.1599 55.5752H48.9214V57.3367C48.9214 57.6609 49.1842 57.9238 49.5085 57.9238C49.8328 57.9238 50.0957 57.6609 50.0957 57.3367V55.5752H51.8572C52.1814 55.5752 52.4443 55.3123 52.4443 54.988C52.4443 54.6637 52.1814 54.4008 51.8572 54.4008H50.0957V52.6394Z" fill="#AE72FF"/>
<circle cx="31.529" cy="31.1777" r="8.90867" fill="#B5EFEF"/>
<path d="M34.3896 32.3648L33.715 31.6902L34.3896 31.0156C35.1347 30.2704 35.1347 29.0623 34.3896 28.3171C33.6444 27.572 32.4363 27.572 31.6911 28.3171L31.0165 28.9917L30.3419 28.3171L31.0165 27.6425C32.1342 26.5248 33.9464 26.5248 35.0642 27.6425C36.1819 28.7602 36.1819 30.5725 35.0642 31.6902L34.3896 32.3648ZM33.0403 33.714L32.3657 34.3887C31.248 35.5064 29.4358 35.5064 28.318 34.3887C27.2003 33.2709 27.2003 31.4587 28.318 30.341L28.9927 29.6663L29.6673 30.341L28.9927 31.0156C28.2475 31.7607 28.2475 32.9689 28.9927 33.714C29.7378 34.4592 30.9459 34.4592 31.6911 33.714L32.3657 33.0394L33.0403 33.714ZM33.0403 28.9917L33.715 29.6663L30.3419 33.0394L29.6673 32.3648L33.0403 28.9917Z" fill="#E9FAFA"/>
<defs>
<filter id="filter0_d_738_3583" x="18.0389" y="2.59302" width="63.0678" height="30.8315" filterUnits="userSpaceOnUse" color-interpolation-filters="sRGB">
<feFlood flood-opacity="0" result="BackgroundImageFix"/>
<feColorMatrix in="SourceAlpha" type="matrix" values="0 0 0 0 0 0 0 0 0 0 0 0 0 0 0 0 0 0 127 0" result="hardAlpha"/>
<feOffset dy="1.56662"/>
<feGaussianBlur stdDeviation="2.0366"/>
<feComposite in2="hardAlpha" operator="out"/>
<feColorMatrix type="matrix" values="0 0 0 0 0.823529 0 0 0 0 0.721569 0 0 0 0 1 0 0 0 0.4 0"/>
<feBlend mode="normal" in2="BackgroundImageFix" result="effect1_dropShadow_738_3583"/>
<feBlend mode="normal" in="SourceGraphic" in2="effect1_dropShadow_738_3583" result="shape"/>
</filter>
<filter id="filter1_d_738_3583" x="13.0424" y="15.3746" width="73.0605" height="35.7165" filterUnits="userSpaceOnUse" color-interpolation-filters="sRGB">
<feFlood flood-opacity="0" result="BackgroundImageFix"/>
<feColorMatrix in="SourceAlpha" type="matrix" values="0 0 0 0 0 0 0 0 0 0 0 0 0 0 0 0 0 0 127 0" result="hardAlpha"/>
<feOffset dy="1.81484"/>
<feGaussianBlur stdDeviation="2.35929"/>
<feComposite in2="hardAlpha" operator="out"/>
<feColorMatrix type="matrix" values="0 0 0 0 0.823529 0 0 0 0 0.721569 0 0 0 0 1 0 0 0 0.4 0"/>
<feBlend mode="normal" in2="BackgroundImageFix" result="effect1_dropShadow_738_3583"/>
<feBlend mode="normal" in="SourceGraphic" in2="effect1_dropShadow_738_3583" result="shape"/>
</filter>
</defs>
</svg>
