<svg width="85" height="71" viewBox="0 0 85 71" fill="none" xmlns="http://www.w3.org/2000/svg">
<circle cx="42.1211" cy="31.2763" r="23.1947" fill="#FBF9FF"/>
<path d="M63.5824 16.3424L21.4713 16.9873C20.1493 17.0075 19.094 18.0956 19.1143 19.4176L19.4793 43.2563C19.4996 44.5783 20.5877 45.6336 21.9097 45.6133L64.0208 44.9684C65.3428 44.9482 66.3981 43.8601 66.3778 42.5381L66.0128 18.6994C65.9925 17.3774 64.9044 16.3222 63.5824 16.3424Z" fill="#D2B8FF"/>
<path d="M63.5824 16.3424L21.4713 16.9873C20.1493 17.0075 19.094 18.0956 19.1143 19.4176L19.4793 43.2563C19.4996 44.5783 20.5877 45.6336 21.9097 45.6133L64.0208 44.9684C65.3428 44.9482 66.3981 43.8601 66.3778 42.5381L66.0128 18.6994C65.9925 17.3774 64.9044 16.3222 63.5824 16.3424Z" fill="#E2D2FF"/>
<path opacity="0.2" d="M31.7732 20.0792L23.5277 20.2055C22.892 20.2153 22.3845 20.7385 22.3942 21.3743L22.4576 25.5107C22.4673 26.1465 22.9906 26.654 23.6264 26.6443L31.8718 26.518C32.5076 26.5083 33.0151 25.985 33.0053 25.3492L32.942 21.2128C32.9322 20.577 32.409 20.0695 31.7732 20.0792Z" fill="white"/>
<path opacity="0.4" d="M31.0962 36.0572L23.0175 36.1809C22.7791 36.1845 22.5888 36.3808 22.5924 36.6192L22.6148 38.0787C22.6184 38.3171 22.8147 38.5074 23.0531 38.5038L31.1318 38.3801C31.3702 38.3764 31.5605 38.1802 31.5568 37.9418L31.5345 36.4823C31.5308 36.2438 31.3346 36.0535 31.0962 36.0572Z" fill="white"/>
<path opacity="0.4" d="M41.6065 35.8946L33.5278 36.0183C33.2893 36.0219 33.099 36.2182 33.1027 36.4566L33.125 37.9161C33.1287 38.1545 33.3249 38.3448 33.5633 38.3412L41.642 38.2175C41.8804 38.2138 42.0708 38.0176 42.0671 37.7792L42.0448 36.3197C42.0411 36.0812 41.8449 35.8909 41.6065 35.8946Z" fill="white"/>
<path opacity="0.4" d="M52.1148 35.7339L44.0361 35.8576C43.7976 35.8613 43.6073 36.0575 43.611 36.2959L43.6333 37.7555C43.637 37.9939 43.8332 38.1842 44.0716 38.1805L52.1503 38.0568C52.3887 38.0532 52.5791 37.8569 52.5754 37.6185L52.5531 36.159C52.5494 35.9206 52.3532 35.7303 52.1148 35.7339Z" fill="white"/>
<path opacity="0.4" d="M62.6251 35.5738L54.5464 35.6975C54.308 35.7011 54.1177 35.8974 54.1214 36.1358L54.1437 37.5953C54.1474 37.8337 54.3436 38.024 54.582 38.0204L62.6607 37.8967C62.8991 37.893 63.0894 37.6968 63.0858 37.4584L63.0634 35.9989C63.0598 35.7604 62.8635 35.5701 62.6251 35.5738Z" fill="white"/>
<circle cx="42.5188" cy="54.1981" r="4.36607" fill="white"/>
<path fill-rule="evenodd" clip-rule="evenodd" d="M42.7917 60.2468C46.4338 60.2468 49.3863 57.2942 49.3863 53.6522C49.3863 50.0101 46.4338 47.0576 42.7917 47.0576C39.1496 47.0576 36.1971 50.0101 36.1971 53.6522C36.1971 57.2942 39.1496 60.2468 42.7917 60.2468ZM43.2863 51.6738C43.2863 51.4007 43.0649 51.1792 42.7917 51.1792C42.5186 51.1792 42.2971 51.4007 42.2971 51.6738V53.1576H40.8133C40.5402 53.1576 40.3188 53.379 40.3188 53.6522C40.3188 53.9253 40.5402 54.1468 40.8133 54.1468H42.2971V55.6306C42.2971 55.9037 42.5186 56.1252 42.7917 56.1252C43.0649 56.1252 43.2863 55.9037 43.2863 55.6306V54.1468H44.7701C45.0432 54.1468 45.2647 53.9253 45.2647 53.6522C45.2647 53.379 45.0432 53.1576 44.7701 53.1576H43.2863V51.6738Z" fill="#AE72FF"/>
<path d="M0.614251 41.2664C0.502371 41.411 0.466896 41.5993 0.518743 41.7739C0.57059 41.954 0.70703 42.0905 0.876215 42.1478C2.94464 42.8736 4.78657 44.2544 6.00634 46.0745C7.36255 48.0965 9.3955 49.6874 11.6931 50.4924C11.9224 50.5743 12.1789 50.4979 12.3289 50.3041L16.4767 44.8902C16.5886 44.7456 16.6241 44.5573 16.5722 44.3827C16.5204 44.208 16.3894 44.0688 16.2147 44.0088C14.1463 43.2829 12.3344 41.8831 11.1174 40.0602C9.75843 38.0382 7.74731 36.4801 5.44694 35.6751C5.21499 35.5932 4.96121 35.6696 4.81113 35.8634L0.614251 41.2664ZM11.5976 44.7019C11.846 44.8929 11.8896 45.2504 11.6986 45.4987C11.5076 45.747 11.1501 45.7907 10.9018 45.5997C10.6535 45.4087 10.6098 45.0512 10.8008 44.8029C10.9918 44.5546 11.3493 44.5109 11.5976 44.7019ZM9.60016 41.7221C10.3424 42.2979 10.4788 43.3675 9.90305 44.1098C9.33001 44.852 8.25759 44.9884 7.51536 44.4127C6.77586 43.8396 6.63396 42.7727 7.21247 42.025C7.78551 41.2827 8.85793 41.1463 9.60016 41.7221ZM6.21646 40.5351C6.46478 40.7261 6.50844 41.0835 6.31742 41.3319C6.12641 41.5802 5.76894 41.6238 5.52062 41.4328C5.2723 41.2418 5.22864 40.8843 5.41965 40.636C5.61067 40.3877 5.96814 40.344 6.21646 40.5351Z" fill="#F1EAFF"/>
<path d="M75.2457 37.9127C75.3929 38.0213 75.5819 38.0525 75.7553 37.9967C75.9342 37.9408 76.0675 37.8013 76.121 37.6308C76.7997 35.5465 78.1384 33.6737 79.9303 32.413C81.9211 31.0112 83.4654 28.9427 84.2181 26.6274C84.2947 26.3964 84.2125 26.1417 84.0154 25.996L78.5088 21.9722C78.3617 21.8636 78.1726 21.8324 77.9992 21.8882C77.8258 21.944 77.6896 22.0781 77.6336 22.254C76.9548 24.3384 75.5964 26.1816 73.8017 27.4397C71.811 28.8441 70.2989 30.8901 69.5463 33.2081C69.4697 33.4419 69.5518 33.6939 69.7489 33.8395L75.2457 37.9127ZM78.4312 26.8542C78.6166 26.6017 78.973 26.5499 79.2256 26.7352C79.4781 26.9206 79.5299 27.277 79.3446 27.5295C79.1592 27.7821 78.8029 27.8339 78.5503 27.6486C78.2977 27.4632 78.2459 27.1068 78.4312 26.8542ZM75.4975 28.9188C76.0563 28.1637 77.1226 28.003 77.8777 28.5618C78.6327 29.1179 78.7935 30.1869 78.2347 30.942C77.6786 31.6943 76.6151 31.8604 75.8545 31.299C75.0994 30.743 74.9387 29.6739 75.4975 28.9188ZM74.3875 32.3286C74.5729 32.076 74.9293 32.0242 75.1818 32.2096C75.4344 32.3949 75.4862 32.7513 75.3009 33.0039C75.1155 33.2565 74.7591 33.3082 74.5065 33.1229C74.254 32.9375 74.2022 32.5812 74.3875 32.3286Z" fill="#F1EAFF"/>
</svg>
