<svg width="101" height="100" viewBox="0 0 101 100" fill="none" xmlns="http://www.w3.org/2000/svg">
<path d="M50.0535 72.6124C65.1242 72.6124 77.3414 60.4475 77.3414 45.4414C77.3414 30.4354 65.1242 18.2705 50.0535 18.2705C34.9828 18.2705 22.7656 30.4354 22.7656 45.4414C22.7656 60.4475 34.9828 72.6124 50.0535 72.6124Z" fill="#FBF9FF"/>
<path d="M75.3021 27.9476L25.7596 28.7031C24.2043 28.7267 22.9629 30.0013 22.9867 31.55L23.4162 59.4753C23.44 61.0239 24.7201 62.2602 26.2754 62.2364L75.8178 61.481C77.3731 61.4572 78.6147 60.1826 78.5908 58.634L78.1614 30.7087C78.1375 29.16 76.8574 27.9239 75.3021 27.9476Z" fill="#D2B8FF"/>
<path d="M75.3021 27.9476L25.7596 28.7031C24.2043 28.7267 22.9629 30.0013 22.9867 31.55L23.4162 59.4753C23.44 61.0239 24.7201 62.2602 26.2754 62.2364L75.8178 61.481C77.3731 61.4572 78.6147 60.1826 78.5908 58.634L78.1614 30.7087C78.1375 29.16 76.8574 27.9239 75.3021 27.9476Z" fill="#E2D2FF"/>
<path opacity="0.2" d="M37.88 32.3244L28.1794 32.4723C27.4315 32.4837 26.8345 33.0967 26.8459 33.8415L26.9203 38.687C26.9319 39.4317 27.5475 40.0262 28.2954 40.0148L37.996 39.8669C38.7439 39.8555 39.3409 39.2425 39.3295 38.4977L39.255 33.6522C39.2435 32.9075 38.6279 32.313 37.88 32.3244Z" fill="white"/>
<path opacity="0.4" d="M37.0825 51.0421L27.5782 51.187C27.2977 51.1913 27.0738 51.4211 27.0782 51.7004L27.1044 53.4101C27.1088 53.6894 27.3396 53.9124 27.6201 53.9081L37.1244 53.7632C37.4049 53.7588 37.6288 53.529 37.6245 53.2497L37.5982 51.54C37.594 51.2608 37.3631 51.0378 37.0825 51.0421Z" fill="white"/>
<path opacity="0.4" d="M49.4479 50.8516L39.9435 50.9965C39.6631 51.0009 39.4392 51.2307 39.4434 51.51L39.4698 53.2197C39.474 53.4989 39.7048 53.7219 39.9854 53.7176L49.4898 53.5727C49.7702 53.5684 49.9941 53.3386 49.9898 53.0593L49.9635 51.3496C49.9592 51.0703 49.7284 50.8473 49.4479 50.8516Z" fill="white"/>
<path opacity="0.4" d="M61.8102 50.6631L52.3058 50.8081C52.0254 50.8123 51.8015 51.0422 51.8057 51.3215L51.8321 53.0312C51.8363 53.3105 52.0673 53.5334 52.3477 53.5292L61.8521 53.3841C62.1326 53.3799 62.3564 53.1501 62.3522 52.8708L62.3258 51.161C62.3215 50.8817 62.0907 50.6588 61.8102 50.6631Z" fill="white"/>
<path opacity="0.4" d="M74.1763 50.4756L64.6719 50.6205C64.3915 50.6249 64.1676 50.8547 64.1719 51.134L64.1982 52.8437C64.2025 53.123 64.4334 53.346 64.7138 53.3417L74.2182 53.1968C74.4986 53.1924 74.7225 52.9626 74.7183 52.6833L74.6919 50.9736C74.6877 50.6943 74.4569 50.4714 74.1763 50.4756Z" fill="white"/>
<path d="M50.5213 77.4078C53.3582 77.4078 55.6579 75.1179 55.6579 72.2932C55.6579 69.4686 53.3582 67.1787 50.5213 67.1787C47.6845 67.1787 45.3848 69.4686 45.3848 72.2932C45.3848 75.1179 47.6845 77.4078 50.5213 77.4078Z" fill="white"/>
<path fill-rule="evenodd" clip-rule="evenodd" d="M50.8423 79.3779C55.127 79.3779 58.6006 75.9193 58.6006 71.6528C58.6006 67.3864 55.127 63.9277 50.8423 63.9277C46.5575 63.9277 43.084 67.3864 43.084 71.6528C43.084 75.9193 46.5575 79.3779 50.8423 79.3779ZM51.4242 69.3354C51.4242 69.0154 51.1636 68.756 50.8423 68.756C50.5209 68.756 50.2605 69.0154 50.2605 69.3354V71.0735H48.5148C48.1934 71.0735 47.9329 71.3329 47.9329 71.6528C47.9329 71.9729 48.1934 72.2322 48.5148 72.2322H50.2605V73.9704C50.2605 74.2903 50.5209 74.5498 50.8423 74.5498C51.1636 74.5498 51.4242 74.2903 51.4242 73.9704V72.2322H53.1697C53.4912 72.2322 53.7516 71.9729 53.7516 71.6528C53.7516 71.3329 53.4912 71.0735 53.1697 71.0735H51.4242V69.3354Z" fill="#AE72FF"/>
<path d="M1.2219 57.1436C1.09028 57.3129 1.04854 57.5335 1.10954 57.7382C1.17054 57.9491 1.33105 58.1089 1.53009 58.1761C3.96353 59.0264 6.13052 60.6438 7.56554 62.7759C9.16108 65.1446 11.5528 67.0083 14.2559 67.9512C14.5255 68.0471 14.8273 67.9576 15.0039 67.7307L19.8837 61.3886C20.0152 61.2192 20.057 60.9986 19.996 60.7941C19.935 60.5894 19.7808 60.4265 19.5754 60.3561C17.142 59.5059 15.0104 57.866 13.5785 55.7307C11.9798 53.362 9.61374 51.5367 6.90741 50.5937C6.63454 50.4978 6.33598 50.5874 6.15941 50.8143L1.2219 57.1436ZM14.1435 61.1681C14.4357 61.3919 14.4871 61.8105 14.2624 62.1015C14.0375 62.3924 13.6171 62.4435 13.3248 62.2197C13.0327 61.996 12.9814 61.5772 13.2061 61.2863C13.4308 60.9954 13.8514 60.9443 14.1435 61.1681ZM11.7936 57.6774C12.6667 58.3519 12.8273 59.605 12.1499 60.4744C11.4757 61.3438 10.2141 61.5037 9.34086 60.8292C8.47086 60.158 8.30392 58.9081 8.9845 58.0322C9.65868 57.1628 10.9203 57.0029 11.7936 57.6774ZM7.81273 56.2869C8.10487 56.5106 8.15623 56.9294 7.93152 57.2203C7.70679 57.5111 7.28623 57.5623 6.99409 57.3386C6.70195 57.1147 6.65059 56.6961 6.87532 56.4052C7.10003 56.1142 7.52059 56.0631 7.81273 56.2869Z" fill="#F1EAFF"/>
<path d="M89.0238 53.2156C89.1969 53.3427 89.4193 53.3793 89.6233 53.3139C89.8338 53.2484 89.9906 53.085 90.0535 52.8854C90.852 50.4437 92.4268 48.2498 94.5351 46.773C96.8771 45.131 98.694 42.7078 99.5795 39.9956C99.6697 39.725 99.5729 39.4266 99.3411 39.256L92.8627 34.5423C92.6895 34.4151 92.4672 34.3786 92.2632 34.4439C92.0592 34.5093 91.8989 34.6664 91.8329 34.8726C91.0345 37.3142 89.4364 39.4733 87.3248 40.9471C84.9829 42.5924 83.2039 44.989 82.3185 47.7045C82.2285 47.9783 82.3251 48.2735 82.5569 48.444L89.0238 53.2156ZM92.7714 40.2614C92.9895 39.9655 93.4087 39.9048 93.7059 40.122C94.0031 40.339 94.064 40.7565 93.846 41.0524C93.6279 41.3483 93.2086 41.4089 92.9114 41.1918C92.6144 40.9748 92.5534 40.5573 92.7714 40.2614ZM89.32 42.6798C89.9774 41.7952 91.2319 41.6071 92.1202 42.2617C93.0085 42.913 93.1975 44.1654 92.5402 45.0499C91.8859 45.9312 90.6348 46.1257 89.74 45.468C88.8517 44.8167 88.6626 43.5643 89.32 42.6798ZM88.0141 46.6741C88.2321 46.3782 88.6514 46.3175 88.9486 46.5347C89.2458 46.7518 89.3067 47.1693 89.0886 47.4652C88.8706 47.7611 88.4513 47.8216 88.1541 47.6046C87.8569 47.3875 87.7961 46.97 88.0141 46.6741Z" fill="#F1EAFF"/>
</svg>
