<svg width="120" height="87" viewBox="0 0 120 87" fill="none" xmlns="http://www.w3.org/2000/svg">
<path d="M0.897191 48.5678C0.734555 48.7782 0.682986 49.0521 0.758355 49.3062C0.833724 49.5682 1.03206 49.7667 1.278 49.85C4.2848 50.9059 6.96235 52.9145 8.7355 55.5623C10.707 58.5036 13.6623 60.8179 17.0022 61.9889C17.3354 62.108 17.7083 61.9968 17.9264 61.715L23.9559 53.8394C24.1185 53.629 24.1701 53.3552 24.0948 53.1012C24.0194 52.847 23.829 52.6446 23.5751 52.5572C20.5683 51.5013 17.9344 49.465 16.1652 46.8134C14.1898 43.8719 11.2663 41.6053 7.92231 40.4343C7.58514 40.3152 7.21623 40.4264 6.99806 40.7082L0.897191 48.5678ZM16.8633 53.5656C17.2243 53.8433 17.2879 54.3634 17.0101 54.7246C16.7324 55.0859 16.2129 55.1493 15.8519 54.8715C15.4909 54.5936 15.4274 54.0736 15.7051 53.7124C15.9828 53.3511 16.5023 53.2877 16.8633 53.5656ZM13.9597 49.2308C15.0387 50.0684 15.237 51.6245 14.4 52.7041C13.567 53.7838 12.0081 53.9823 10.9291 53.1448C9.85412 52.3112 9.64784 50.759 10.4888 49.6714C11.3218 48.5917 12.8808 48.3932 13.9597 49.2308ZM9.04094 47.504C9.40191 47.7819 9.46538 48.3019 9.18771 48.6632C8.91003 49.0244 8.39039 49.0879 8.02941 48.81C7.66844 48.5322 7.60497 48.0121 7.88264 47.6509C8.16032 47.2897 8.67996 47.2262 9.04094 47.504Z" fill="#F1EAFF"/>
<path d="M105.816 43.689C106.03 43.8469 106.305 43.8922 106.557 43.8111C106.817 43.7298 107.011 43.5268 107.089 43.279C108.075 40.2468 110.021 37.5225 112.626 35.6885C115.52 33.6494 117.765 30.6403 118.859 27.2723C118.971 26.9362 118.851 26.5658 118.565 26.3539L110.56 20.5004C110.346 20.3425 110.071 20.297 109.819 20.3782C109.567 20.4594 109.369 20.6544 109.288 20.9104C108.301 23.9425 106.326 26.6239 103.717 28.4539C100.823 30.4969 98.6253 33.4732 97.5313 36.8453C97.42 37.1853 97.5394 37.5518 97.8259 37.7637L105.816 43.689ZM110.447 27.6023C110.717 27.2348 111.235 27.1596 111.602 27.4292C111.969 27.6987 112.044 28.2172 111.775 28.5847C111.505 28.952 110.987 29.0274 110.62 28.7578C110.253 28.4882 110.178 27.9698 110.447 27.6023ZM106.182 30.6056C106.995 29.5071 108.545 29.2734 109.642 30.0863C110.74 30.8952 110.974 32.4503 110.161 33.5488C109.353 34.6432 107.807 34.8847 106.701 34.0681C105.604 33.2591 105.37 31.704 106.182 30.6056ZM104.569 35.5657C104.838 35.1983 105.356 35.123 105.724 35.3926C106.091 35.6622 106.166 36.1806 105.897 36.5481C105.627 36.9155 105.109 36.9908 104.742 36.7212C104.375 36.4517 104.299 35.9332 104.569 35.5657Z" fill="#F1EAFF"/>
<path d="M60.8379 68.5707C79.4595 68.5707 94.5553 53.4643 94.5553 34.8296C94.5553 16.1948 79.4595 1.08838 60.8379 1.08838C42.2163 1.08838 27.1205 16.1948 27.1205 34.8296C27.1205 53.4643 42.2163 68.5707 60.8379 68.5707Z" fill="#FBF9FF"/>
<g filter="url(#filter0_d_11297_2169)">
<path d="M27.076 7.96215C27.076 7.01591 27.8426 6.24884 28.7881 6.24884H92.6144C93.5601 6.24884 94.3266 7.01591 94.3266 7.96215V32.3325C94.3266 33.2787 93.5601 34.0458 92.6144 34.0458H28.7881C27.8426 34.0458 27.076 33.2787 27.076 32.3325V7.96215Z" fill="#FBFBFB"/>
<path d="M84.4859 13.8522H58.7359C57.5702 13.8522 56.6252 14.7979 56.6252 15.9644C56.6252 17.1309 57.5702 18.0765 58.7359 18.0765H84.4859C85.6516 18.0765 86.5966 17.1309 86.5966 15.9644C86.5966 14.7979 85.6516 13.8522 84.4859 13.8522Z" fill="#D9DEE3" fill-opacity="0.4"/>
<path d="M68.0228 19.7661H58.7359C57.5702 19.7661 56.6252 20.7117 56.6252 21.8782C56.6252 23.0447 57.5702 23.9903 58.7359 23.9903H68.0228C69.1885 23.9903 70.1334 23.0447 70.1334 21.8782C70.1334 20.7117 69.1885 19.7661 68.0228 19.7661Z" fill="#D9DEE3" fill-opacity="0.3"/>
<path d="M40.9871 27.2871C45.6973 27.2871 49.5157 23.466 49.5157 18.7525C49.5157 14.0391 45.6973 10.218 40.9871 10.218C36.277 10.218 32.4586 14.0391 32.4586 18.7525C32.4586 23.466 36.277 27.2871 40.9871 27.2871Z" fill="#D2B8FF"/>
<path d="M43.7254 19.8901L43.0796 19.2438L43.7254 18.5976C44.4388 17.8837 44.4388 16.7263 43.7254 16.0124C43.0121 15.2985 41.8555 15.2985 41.1421 16.0124L40.4963 16.6587L39.8505 16.0124L40.4963 15.3662C41.5663 14.2953 43.3013 14.2953 44.3712 15.3662C45.4413 16.4369 45.4413 18.1731 44.3712 19.2438L43.7254 19.8901ZM42.4337 21.1827L41.7879 21.8289C40.718 22.8998 38.9831 22.8998 37.913 21.8289C36.843 20.7581 36.843 19.022 37.913 17.9513L38.5588 17.3049L39.2046 17.9513L38.5588 18.5976C37.8454 19.3114 37.8454 20.4688 38.5588 21.1827C39.2722 21.8966 40.4287 21.8966 41.1421 21.1827L41.7879 20.5364L42.4337 21.1827ZM42.4337 16.6587L43.0796 17.3049L39.8505 20.5364L39.2046 19.8901L42.4337 16.6587Z" fill="#F1EAFF"/>
</g>
<g filter="url(#filter1_d_11297_2169)">
<path d="M21.7482 24.3822C21.7482 23.286 22.6362 22.3973 23.7315 22.3973H97.6707C98.7661 22.3973 99.6541 23.286 99.6541 24.3822V52.6138C99.6541 53.71 98.7661 54.5986 97.6707 54.5986H23.7315C22.6362 54.5986 21.7482 53.71 21.7482 52.6138V24.3822Z" fill="#FBFBFB"/>
<path d="M88.2546 31.2058H58.4246C57.0742 31.2058 55.9795 32.3013 55.9795 33.6526C55.9795 35.0039 57.0742 36.0994 58.4246 36.0994H88.2546C89.605 36.0994 90.6997 35.0039 90.6997 33.6526C90.6997 32.3013 89.605 31.2058 88.2546 31.2058Z" fill="#D9DEE3" fill-opacity="0.4"/>
<path d="M69.1829 38.0571H58.4246C57.0742 38.0571 55.9795 39.1525 55.9795 40.5039C55.9795 41.8552 57.0742 42.9507 58.4246 42.9507H69.1829C70.5333 42.9507 71.628 41.8552 71.628 40.5039C71.628 39.1525 70.5333 38.0571 69.1829 38.0571Z" fill="#D9DEE3" fill-opacity="0.3"/>
</g>
<path d="M60.2262 74.5248C63.7314 74.5248 66.573 71.6812 66.573 68.1735C66.573 64.6658 63.7314 61.8223 60.2262 61.8223C56.721 61.8223 53.8794 64.6658 53.8794 68.1735C53.8794 71.6812 56.721 74.5248 60.2262 74.5248Z" fill="white"/>
<path fill-rule="evenodd" clip-rule="evenodd" d="M60.6227 76.9727C65.917 76.9727 70.2089 72.6777 70.2089 67.3797C70.2089 62.0816 65.917 57.7866 60.6227 57.7866C55.3283 57.7866 51.0364 62.0816 51.0364 67.3797C51.0364 72.6777 55.3283 76.9727 60.6227 76.9727ZM61.3417 64.5018C61.3417 64.1044 61.0198 63.7823 60.6227 63.7823C60.2256 63.7823 59.9038 64.1044 59.9038 64.5018V66.6601H57.7468C57.3497 66.6601 57.0278 66.9823 57.0278 67.3797C57.0278 67.777 57.3497 68.0992 57.7468 68.0992H59.9038V70.2576C59.9038 70.6549 60.2256 70.977 60.6227 70.977C61.0198 70.977 61.3417 70.6549 61.3417 70.2576V68.0992H63.4986C63.8956 68.0992 64.2175 67.777 64.2175 67.3797C64.2175 66.9823 63.8956 66.6601 63.4986 66.6601H61.3417V64.5018Z" fill="#AE72FF"/>
<path d="M38.6069 49.1199C44.6316 49.1199 49.5155 44.2326 49.5155 38.2037C49.5155 32.1748 44.6316 27.2874 38.6069 27.2874C32.5823 27.2874 27.6984 32.1748 27.6984 38.2037C27.6984 44.2326 32.5823 49.1199 38.6069 49.1199Z" fill="#B5EFEF"/>
<path d="M42.1098 39.6583L41.2837 38.8316L42.1098 38.005C43.0221 37.0919 43.0221 35.6115 42.1098 34.6984C41.1973 33.7854 39.718 33.7854 38.8055 34.6984L37.9794 35.525L37.1534 34.6984L37.9794 33.8718C39.348 32.5022 41.5671 32.5022 42.9358 33.8718C44.3044 35.2414 44.3044 37.4621 42.9358 38.8316L42.1098 39.6583ZM40.4575 41.3115L39.6315 42.1383C38.2629 43.5078 36.0439 43.5078 34.6751 42.1383C33.3065 40.7686 33.3065 38.548 34.6751 37.1784L35.5013 36.3517L36.3273 37.1784L35.5013 38.005C34.5888 38.918 34.5888 40.3985 35.5013 41.3115C36.4137 42.2246 37.893 42.2246 38.8055 41.3115L39.6315 40.4849L40.4575 41.3115ZM40.4575 35.525L41.2837 36.3517L37.1534 40.4849L36.3273 39.6583L40.4575 35.525Z" fill="#E9FAFA"/>
<defs>
<filter id="filter0_d_11297_2169" x="23.0028" y="3.74226" width="75.397" height="35.9434" filterUnits="userSpaceOnUse" color-interpolation-filters="sRGB">
<feFlood flood-opacity="0" result="BackgroundImageFix"/>
<feColorMatrix in="SourceAlpha" type="matrix" values="0 0 0 0 0 0 0 0 0 0 0 0 0 0 0 0 0 0 127 0" result="hardAlpha"/>
<feOffset dy="1.56662"/>
<feGaussianBlur stdDeviation="2.0366"/>
<feComposite in2="hardAlpha" operator="out"/>
<feColorMatrix type="matrix" values="0 0 0 0 0.823529 0 0 0 0 0.721569 0 0 0 0 1 0 0 0 0.4 0"/>
<feBlend mode="normal" in2="BackgroundImageFix" result="effect1_dropShadow_11297_2169"/>
<feBlend mode="normal" in="SourceGraphic" in2="effect1_dropShadow_11297_2169" result="shape"/>
</filter>
<filter id="filter1_d_11297_2169" x="17.0296" y="19.4936" width="87.3432" height="41.6385" filterUnits="userSpaceOnUse" color-interpolation-filters="sRGB">
<feFlood flood-opacity="0" result="BackgroundImageFix"/>
<feColorMatrix in="SourceAlpha" type="matrix" values="0 0 0 0 0 0 0 0 0 0 0 0 0 0 0 0 0 0 127 0" result="hardAlpha"/>
<feOffset dy="1.81484"/>
<feGaussianBlur stdDeviation="2.35929"/>
<feComposite in2="hardAlpha" operator="out"/>
<feColorMatrix type="matrix" values="0 0 0 0 0.823529 0 0 0 0 0.721569 0 0 0 0 1 0 0 0 0.4 0"/>
<feBlend mode="normal" in2="BackgroundImageFix" result="effect1_dropShadow_11297_2169"/>
<feBlend mode="normal" in="SourceGraphic" in2="effect1_dropShadow_11297_2169" result="shape"/>
</filter>
</defs>
</svg>
