<svg width="120" height="100" viewBox="0 0 120 100" fill="none" xmlns="http://www.w3.org/2000/svg">
<path d="M59.465 77.2226C77.5499 77.2226 92.2105 62.5662 92.2105 44.4866C92.2105 26.407 77.5499 11.7505 59.465 11.7505C41.3803 11.7505 26.7197 26.407 26.7197 44.4866C26.7197 62.5662 41.3803 77.2226 59.465 77.2226Z" fill="#FBF9FF"/>
<path d="M89.7632 23.4096L30.3123 24.3199C28.4459 24.3483 26.9561 25.8841 26.9847 27.7499L27.5001 61.3948C27.5287 63.2607 29.0649 64.7501 30.9312 64.7214L90.3821 63.8114C92.2485 63.7828 93.7383 62.247 93.7097 60.3812L93.1943 26.7363C93.1657 24.8705 91.6296 23.3812 89.7632 23.4096Z" fill="#D2B8FF"/>
<path d="M89.7632 23.4096L30.3123 24.3199C28.4459 24.3483 26.9561 25.8841 26.9847 27.7499L27.5001 61.3948C27.5287 63.2607 29.0649 64.7501 30.9312 64.7214L90.3821 63.8114C92.2485 63.7828 93.7383 62.247 93.7097 60.3812L93.1943 26.7363C93.1657 24.8705 91.6296 23.3812 89.7632 23.4096Z" fill="#E2D2FF"/>
<path opacity="0.2" d="M44.8562 28.6829L33.2155 28.8612C32.3181 28.8748 31.6016 29.6134 31.6153 30.5107L31.7047 36.3487C31.7185 37.2459 32.4573 37.9621 33.3547 37.9484L44.9954 37.7702C45.8929 37.7565 46.6094 37.0179 46.5957 36.1206L46.5063 30.2826C46.4925 29.3854 45.7537 28.6691 44.8562 28.6829Z" fill="white"/>
<path opacity="0.4" d="M43.9003 51.2343L32.4952 51.4089C32.1586 51.4141 31.8899 51.6909 31.895 52.0275L31.9266 54.0873C31.9316 54.4238 32.2087 54.6925 32.5454 54.6873L43.9506 54.5128C44.2872 54.5076 44.5559 54.2306 44.5506 53.8941L44.5192 51.8342C44.5139 51.4978 44.2369 51.2293 43.9003 51.2343Z" fill="white"/>
<path opacity="0.4" d="M58.7382 51.0048L47.333 51.1795C46.9964 51.1847 46.7278 51.4616 46.733 51.7981L46.7645 53.858C46.7697 54.1945 47.0467 54.463 47.3832 54.458L58.7885 54.2834C59.1251 54.2781 59.3937 54.0012 59.3886 53.6647L59.357 51.6048C59.3519 51.2685 59.0748 50.9997 58.7382 51.0048Z" fill="white"/>
<path opacity="0.4" d="M73.5736 50.7778L62.1683 50.9524C61.8318 50.9575 61.5632 51.2345 61.5683 51.571L61.5999 53.6309C61.605 53.9674 61.8821 54.2359 62.2186 54.2309L73.6239 54.0562C73.9605 54.051 74.229 53.7741 74.224 53.4376L74.1923 51.3776C74.1873 51.0412 73.9102 50.7725 73.5736 50.7778Z" fill="white"/>
<path opacity="0.4" d="M88.4118 50.552L77.0066 50.7265C76.67 50.7317 76.4014 51.0086 76.4066 51.3451L76.4381 53.405C76.4434 53.7415 76.7203 54.0101 77.0569 54.005L88.4621 53.8304C88.7987 53.8251 89.0673 53.5482 89.0622 53.2117L89.0306 51.1518C89.0255 50.8154 88.7484 50.5468 88.4118 50.552Z" fill="white"/>
<path d="M0.867185 58.5856C0.709238 58.7897 0.659154 59.0553 0.732351 59.302C0.805546 59.5562 0.998168 59.7487 1.23702 59.8295C4.15715 60.854 6.75751 62.8027 8.47955 65.3715C10.3942 68.2255 13.2642 70.4708 16.5079 71.6068C16.8316 71.7223 17.1937 71.6145 17.4055 71.3411L23.2612 63.7C23.4192 63.4959 23.4694 63.2302 23.3961 62.9838C23.323 62.7373 23.1379 62.5409 22.8913 62.4561C19.9713 61.4317 17.4132 59.4559 15.6952 56.8833C13.7766 54.0294 10.9374 51.8304 7.68981 50.6942C7.36235 50.5786 7.00406 50.6865 6.79219 50.96L0.867185 58.5856ZM16.3731 63.4344C16.7238 63.704 16.7854 64.2083 16.5156 64.5589C16.246 64.9094 15.7414 64.971 15.3907 64.7014C15.0402 64.4318 14.9785 63.9273 15.2482 63.5768C15.5178 63.2264 16.0225 63.1647 16.3731 63.4344ZM13.5532 59.2287C14.601 60.0414 14.7936 61.5511 13.9807 62.5986C13.1718 63.6462 11.6578 63.8388 10.6099 63.0261C9.56593 62.2174 9.3656 60.7115 10.1823 59.6562C10.9913 58.6087 12.5053 58.4161 13.5532 59.2287ZM8.77619 57.5534C9.12676 57.823 9.18839 58.3275 8.91871 58.678C8.64906 59.0285 8.14439 59.0901 7.79382 58.8205C7.44325 58.5509 7.38162 58.0464 7.65127 57.6959C7.92095 57.3453 8.42562 57.2839 8.77619 57.5534Z" fill="#F1EAFF"/>
<path d="M106.229 53.853C106.437 54.0061 106.704 54.0502 106.949 53.9714C107.201 53.8925 107.389 53.6957 107.465 53.4552C108.423 50.5134 110.313 47.8701 112.843 46.0908C115.653 44.1125 117.833 41.193 118.896 37.9253C119.004 37.5993 118.888 37.2398 118.61 37.0343L110.836 31.3552C110.628 31.2018 110.361 31.1578 110.116 31.2366C109.872 31.3153 109.679 31.5046 109.6 31.753C108.642 34.6947 106.724 37.2961 104.19 39.0717C101.38 41.054 99.2453 43.9414 98.1828 47.2131C98.0748 47.543 98.1907 47.8987 98.4689 48.1042L106.229 53.853ZM110.726 38.2455C110.988 37.889 111.491 37.8159 111.848 38.0776C112.204 38.3392 112.277 38.8422 112.016 39.1987C111.754 39.5552 111.251 39.6281 110.894 39.3666C110.538 39.1051 110.465 38.602 110.726 38.2455ZM106.585 41.1593C107.373 40.0936 108.879 39.8669 109.945 40.6555C111.011 41.4402 111.238 42.9492 110.449 44.0149C109.664 45.0766 108.162 45.311 107.089 44.5186C106.023 43.7339 105.796 42.2249 106.585 41.1593ZM105.018 45.9717C105.279 45.6152 105.782 45.5422 106.139 45.8037C106.496 46.0653 106.569 46.5683 106.307 46.9248C106.045 47.2813 105.542 47.3543 105.186 47.0928C104.829 46.8312 104.756 46.3282 105.018 45.9717Z" fill="#F1EAFF"/>
</svg>
