<svg width="120" height="100" viewBox="0 0 120 100" fill="none" xmlns="http://www.w3.org/2000/svg">
<path d="M59.4652 76.7197C77.55 76.7197 92.2106 62.0935 92.2106 44.0511C92.2106 26.0087 77.55 11.3825 59.4652 11.3825C41.3804 11.3825 26.7197 26.0087 26.7197 44.0511C26.7197 62.0935 41.3804 76.7197 59.4652 76.7197Z" fill="#FBF9FF"/>
<path d="M89.7633 23.0175L30.3123 23.9258C28.446 23.9543 26.9561 25.4868 26.9848 27.3488L27.5001 60.9244C27.5287 62.7864 29.0649 64.2727 30.9312 64.2441L90.3822 63.3358C92.2486 63.3074 93.7384 61.7748 93.7097 59.9128L93.1944 26.3372C93.1658 24.4752 91.6296 22.989 89.7633 23.0175Z" fill="#D2B8FF"/>
<path d="M89.7633 23.0175L30.3123 23.9258C28.446 23.9543 26.9561 25.4868 26.9848 27.3488L27.5001 60.9244C27.5287 62.7864 29.0649 64.2727 30.9312 64.2441L90.3822 63.3358C92.2486 63.3074 93.7384 61.7748 93.7097 59.9128L93.1944 26.3372C93.1658 24.4752 91.6296 22.989 89.7633 23.0175Z" fill="#E2D2FF"/>
<path opacity="0.2" d="M44.8564 28.2806L33.2157 28.4585C32.3182 28.4723 31.6017 29.2092 31.6154 30.1047L31.7049 35.9306C31.7186 36.8261 32.4574 37.5409 33.355 37.5272L44.9956 37.3493C45.8932 37.3357 46.6096 36.5986 46.5958 35.7031L46.5064 29.8772C46.4926 28.9817 45.754 28.2669 44.8564 28.2806Z" fill="white"/>
<path opacity="0.4" d="M43.9005 50.7848L32.4952 50.959C32.1587 50.9641 31.89 51.2406 31.8951 51.5764L31.9267 53.632C31.9318 53.9678 32.2089 54.2358 32.5455 54.2307L43.9507 54.0565C44.2873 54.0513 44.5559 53.7749 44.5507 53.4392L44.5192 51.3835C44.514 51.0476 44.237 50.7796 43.9005 50.7848Z" fill="white"/>
<path opacity="0.4" d="M58.7386 50.5558L47.3334 50.73C46.9967 50.7351 46.728 51.0116 46.7332 51.3473L46.7647 53.403C46.7699 53.7388 47.0469 54.0068 47.3835 54.0017L58.7887 53.8275C59.1253 53.8223 59.3941 53.5459 59.3889 53.2102L59.3574 51.1545C59.3521 50.8186 59.0752 50.5506 58.7386 50.5558Z" fill="white"/>
<path opacity="0.4" d="M73.5738 50.3294L62.1686 50.5036C61.8319 50.5089 61.5632 50.7852 61.5684 51.121L61.5999 53.1767C61.6051 53.5125 61.8821 53.7805 62.2187 53.7753L73.6239 53.6011C73.9605 53.596 74.2293 53.3196 74.2241 52.9838L74.1926 50.9282C74.1874 50.5924 73.9104 50.3243 73.5738 50.3294Z" fill="white"/>
<path opacity="0.4" d="M88.4118 50.104L77.0066 50.2782C76.67 50.2833 76.4013 50.5597 76.4066 50.8955L76.4381 52.9511C76.4433 53.2869 76.7203 53.5549 77.0568 53.5499L88.4621 53.3757C88.7986 53.3704 89.0673 53.0941 89.0622 52.7583L89.0306 50.7027C89.0255 50.3668 88.7484 50.0987 88.4118 50.104Z" fill="white"/>
<path d="M60.0267 82.4848C63.4309 82.4848 66.1905 79.7316 66.1905 76.3354C66.1905 72.9392 63.4309 70.186 60.0267 70.186C56.6224 70.186 53.8628 72.9392 53.8628 76.3354C53.8628 79.7316 56.6224 82.4848 60.0267 82.4848Z" fill="white"/>
<path fill-rule="evenodd" clip-rule="evenodd" d="M60.4118 84.8547C65.5536 84.8547 69.7218 80.6961 69.7218 75.5665C69.7218 70.4368 65.5536 66.2783 60.4118 66.2783C55.27 66.2783 51.1018 70.4368 51.1018 75.5665C51.1018 80.6961 55.27 84.8547 60.4118 84.8547ZM61.1101 72.78C61.1101 72.3954 60.7975 72.0834 60.4118 72.0834C60.0263 72.0834 59.7136 72.3954 59.7136 72.78V74.8699H57.6188C57.2332 74.8699 56.9207 75.1817 56.9207 75.5665C56.9207 75.9511 57.2332 76.2631 57.6188 76.2631H59.7136V78.353C59.7136 78.7376 60.0263 79.0496 60.4118 79.0496C60.7975 79.0496 61.1101 78.7376 61.1101 78.353V76.2631H63.2049C63.5904 76.2631 63.9031 75.9511 63.9031 75.5665C63.9031 75.1817 63.5904 74.8699 63.2049 74.8699H61.1101V72.78Z" fill="#AE72FF"/>
<path d="M0.867063 58.1217C0.709115 58.3253 0.659033 58.5906 0.732228 58.8365C0.805424 59.0901 0.998045 59.2824 1.23689 59.3631C4.15702 60.3854 6.7574 62.3301 8.47942 64.8937C10.3941 67.7415 13.2641 69.9823 16.5078 71.1161C16.8315 71.2314 17.1936 71.1238 17.4054 70.8508L23.2611 63.2256C23.4191 63.022 23.4692 62.7568 23.3959 62.5108C23.3228 62.2648 23.1379 62.0687 22.8912 61.9842C19.9711 60.9618 17.4132 58.9903 15.695 56.4228C13.7765 53.5749 10.9373 51.3804 7.68968 50.2466C7.36222 50.1313 7.00395 50.2389 6.79207 50.5118L0.867063 58.1217ZM16.373 62.9604C16.7236 63.2294 16.7852 63.733 16.5156 64.0827C16.2459 64.4324 15.7412 64.4939 15.3907 64.2249C15.0401 63.9559 14.9784 63.4524 15.2481 63.1027C15.5177 62.753 16.0224 62.6914 16.373 62.9604ZM13.5531 58.7635C14.6009 59.5745 14.7935 61.081 13.9807 62.1265C13.1717 63.1718 11.6577 63.3639 10.6098 62.5531C9.56581 61.7459 9.36548 60.2432 10.1822 59.1901C10.9912 58.1446 12.5052 57.9525 13.5531 58.7635ZM8.77606 57.0917C9.12663 57.3607 9.18827 57.8641 8.9186 58.2139C8.64893 58.5637 8.14427 58.6251 7.7937 58.3561C7.44313 58.087 7.38149 57.5835 7.65116 57.2338C7.92083 56.8841 8.4255 56.8225 8.77606 57.0917Z" fill="#F1EAFF"/>
<path d="M106.229 53.3981C106.437 53.5511 106.704 53.595 106.949 53.5165C107.201 53.4377 107.39 53.2412 107.465 53.0011C108.423 50.0655 110.313 47.4277 112.843 45.6521C115.653 43.6777 117.834 40.7643 118.896 37.5034C119.004 37.178 118.888 36.8193 118.61 36.6141L110.836 30.9467C110.628 30.7938 110.361 30.7498 110.117 30.8284C109.872 30.907 109.68 31.0959 109.6 31.3436C108.642 34.2794 106.724 36.8755 104.191 38.6474C101.38 40.6255 99.2456 43.5072 98.1831 46.7719C98.075 47.1012 98.1909 47.4562 98.4691 47.6612L106.229 53.3981ZM110.727 37.8228C110.988 37.4672 111.491 37.3942 111.848 37.6552C112.204 37.9163 112.278 38.4183 112.016 38.7739C111.754 39.1297 111.251 39.2026 110.895 38.9417C110.538 38.6805 110.465 38.1786 110.727 37.8228ZM106.585 40.7307C107.374 39.6672 108.879 39.4408 109.945 40.2279C111.011 41.0111 111.238 42.5167 110.449 43.5803C109.664 44.6398 108.163 44.8738 107.089 44.0831C106.023 43.3 105.796 41.7942 106.585 40.7307ZM105.018 45.5332C105.279 45.1774 105.783 45.1045 106.139 45.3656C106.496 45.6266 106.569 46.1286 106.307 46.4843C106.046 46.8401 105.542 46.9129 105.186 46.6519C104.829 46.3908 104.756 45.889 105.018 45.5332Z" fill="#F1EAFF"/>
</svg>
