<svg width="100" height="83" viewBox="0 0 100 83" fill="none" xmlns="http://www.w3.org/2000/svg">
<path d="M49.5542 64.0948C64.6249 64.0948 76.8421 51.93 76.8421 36.9239C76.8421 21.9178 64.6249 9.75293 49.5542 9.75293C34.4836 9.75293 22.2664 21.9178 22.2664 36.9239C22.2664 51.93 34.4836 64.0948 49.5542 64.0948Z" fill="#FBF9FF"/>
<path d="M74.8027 19.43L25.2602 20.1855C23.7049 20.2091 22.4634 21.4838 22.4872 23.0324L22.9167 50.9577C22.9406 52.5064 24.2207 53.7426 25.776 53.7188L75.3184 52.9635C76.8737 52.9397 78.1152 51.665 78.0914 50.1164L77.6619 22.1911C77.6381 20.6425 76.358 19.4064 74.8027 19.43Z" fill="#D2B8FF"/>
<path d="M74.8027 19.43L25.2602 20.1855C23.7049 20.2091 22.4634 21.4838 22.4872 23.0324L22.9167 50.9577C22.9406 52.5064 24.2207 53.7426 25.776 53.7188L75.3184 52.9635C76.8737 52.9397 78.1152 51.665 78.0914 50.1164L77.6619 22.1911C77.6381 20.6425 76.358 19.4064 74.8027 19.43Z" fill="#E2D2FF"/>
<path opacity="0.2" d="M37.3802 23.8068L27.6796 23.9548C26.9318 23.9661 26.3347 24.5791 26.3461 25.3239L26.4206 30.1694C26.4321 30.9141 27.0478 31.5086 27.7956 31.4972L37.4962 31.3493C38.2441 31.3379 38.8412 30.7249 38.8298 29.9801L38.7553 25.1346C38.7438 24.3899 38.1281 23.7954 37.3802 23.8068Z" fill="white"/>
<path opacity="0.4" d="M36.5836 42.5245L27.0793 42.6694C26.7988 42.6737 26.5749 42.9035 26.5792 43.1828L26.6055 44.8925C26.6097 45.1718 26.8406 45.3948 27.1212 45.3905L36.6255 45.2456C36.906 45.2413 37.1299 45.0114 37.1255 44.7321L37.0993 43.0224C37.0949 42.7432 36.8641 42.5203 36.5836 42.5245Z" fill="white"/>
<path opacity="0.4" d="M48.9485 42.334L39.4442 42.479C39.1637 42.4833 38.9398 42.7131 38.9442 42.9924L38.9704 44.7021C38.9747 44.9814 39.2056 45.2043 39.486 45.2001L48.9904 45.0552C49.2709 45.0508 49.4947 44.821 49.4905 44.5417L49.4642 42.832C49.4599 42.5528 49.229 42.3297 48.9485 42.334Z" fill="white"/>
<path opacity="0.4" d="M61.3113 42.1456L51.8069 42.2905C51.5265 42.2947 51.3026 42.5246 51.3069 42.8039L51.3332 44.5136C51.3375 44.7929 51.5684 45.0158 51.8488 45.0116L61.3532 44.8666C61.6337 44.8623 61.8575 44.6325 61.8533 44.3532L61.8269 42.6434C61.8227 42.3642 61.5918 42.1412 61.3113 42.1456Z" fill="white"/>
<path opacity="0.4" d="M73.6765 41.9581L64.1722 42.103C63.8917 42.1073 63.6678 42.3371 63.6722 42.6164L63.6984 44.3261C63.7028 44.6054 63.9336 44.8284 64.2141 44.8241L73.7184 44.6792C73.9989 44.6748 74.2228 44.445 74.2185 44.1657L74.1922 42.456C74.1879 42.1768 73.957 41.9538 73.6765 41.9581Z" fill="white"/>
<path d="M0.722634 48.626C0.591011 48.7954 0.549275 49.0159 0.610272 49.2206C0.671268 49.4316 0.831786 49.5914 1.03083 49.6585C3.46427 50.5088 5.63124 52.1262 7.06627 54.2583C8.66181 56.6271 11.0535 58.4907 13.7566 59.4336C14.0263 59.5295 14.3281 59.44 14.5046 59.2131L19.3843 52.871C19.516 52.7016 19.5578 52.481 19.4967 52.2765C19.4358 52.0719 19.2816 51.9089 19.0761 51.8385C16.6427 50.9883 14.511 49.3484 13.0793 47.2131C11.4805 44.8444 9.11447 43.0192 6.40815 42.0762C6.13527 41.9802 5.8367 42.0698 5.66014 42.2968L0.722634 48.626ZM13.6442 52.6505C13.9365 52.8743 13.9878 53.2929 13.763 53.5839C13.5383 53.8748 13.1178 53.9259 12.8256 53.7021C12.5335 53.4784 12.4821 53.0596 12.7068 52.7687C12.9315 52.4779 13.3521 52.4267 13.6442 52.6505ZM11.2943 49.1598C12.1675 49.8343 12.328 51.0874 11.6506 51.9568C10.9765 52.8263 9.7148 52.9862 8.84159 52.3116C7.97159 51.6404 7.80465 50.3905 8.48524 49.5146C9.15941 48.6452 10.4211 48.4853 11.2943 49.1598ZM7.31347 47.7693C7.60561 47.9931 7.65697 48.4118 7.43224 48.7027C7.20753 48.9936 6.78697 49.0448 6.49483 48.821C6.20269 48.5972 6.15133 48.1785 6.37604 47.8876C6.60077 47.5966 7.02133 47.5456 7.31347 47.7693Z" fill="#F1EAFF"/>
<path d="M88.5243 44.698C88.6974 44.8251 88.9198 44.8617 89.1238 44.7963C89.3343 44.7308 89.4911 44.5674 89.554 44.3678C90.3525 41.9261 91.9273 39.7322 94.0356 38.2554C96.3776 36.6134 98.1945 34.1902 99.08 31.478C99.1701 31.2074 99.0734 30.909 98.8415 30.7385L92.3632 26.0248C92.19 25.8975 91.9677 25.861 91.7637 25.9264C91.5597 25.9917 91.3994 26.1488 91.3334 26.355C90.535 28.7966 88.9368 30.9558 86.8253 32.4295C84.4834 34.0748 82.7044 36.4714 81.819 39.1869C81.729 39.4607 81.8256 39.7559 82.0574 39.9265L88.5243 44.698ZM92.2719 31.7438C92.49 31.4479 92.9092 31.3872 93.2064 31.6044C93.5036 31.8215 93.5645 32.239 93.3465 32.5349C93.1284 32.8308 92.7091 32.8913 92.4119 32.6743C92.1148 32.4572 92.0539 32.0397 92.2719 31.7438ZM88.8205 34.1622C89.4779 33.2777 90.7324 33.0895 91.6207 33.7441C92.509 34.3954 92.698 35.6478 92.0407 36.5324C91.3864 37.4136 90.1353 37.6081 89.2405 36.9504C88.3521 36.2991 88.1631 35.0467 88.8205 34.1622ZM87.5146 38.1565C87.7326 37.8606 88.1519 37.8 88.4491 38.0171C88.7463 38.2342 88.8072 38.6517 88.5891 38.9476C88.3711 39.2435 87.9518 39.3041 87.6546 39.087C87.3574 38.8699 87.2966 38.4524 87.5146 38.1565Z" fill="#F1EAFF"/>
</svg>
