<svg width="100" height="100" viewBox="0 0 100 100" fill="none" xmlns="http://www.w3.org/2000/svg">
<path d="M49.5541 72.8874C64.8042 72.8874 77.1669 60.5742 77.1669 45.3851C77.1669 30.196 64.8042 17.8828 49.5541 17.8828C34.3041 17.8828 21.9414 30.196 21.9414 45.3851C21.9414 60.5742 34.3041 72.8874 49.5541 72.8874Z" fill="#FBF9FF"/>
<path d="M75.1026 27.6781L24.9704 28.4427C23.3965 28.4667 22.1402 29.7569 22.1644 31.3244L22.5989 59.5903C22.6231 61.1578 23.9185 62.4091 25.4923 62.385L75.6245 61.6204C77.1983 61.5964 78.4546 60.3062 78.4305 58.7387L77.996 30.4728C77.9718 28.9053 76.6764 27.6541 75.1026 27.6781Z" fill="#D2B8FF"/>
<path d="M75.1026 27.6781L24.9704 28.4427C23.3965 28.4667 22.1402 29.7569 22.1644 31.3244L22.5989 59.5903C22.6231 61.1578 23.9185 62.4091 25.4923 62.385L75.6245 61.6204C77.1983 61.5964 78.4546 60.3062 78.4305 58.7387L77.996 30.4728C77.9718 28.9053 76.6764 27.6541 75.1026 27.6781Z" fill="#E2D2FF"/>
<path opacity="0.2" d="M37.2358 32.1095L27.4199 32.2593C26.663 32.2708 26.0588 32.8913 26.0705 33.645L26.1458 38.5497C26.1575 39.3035 26.7804 39.9053 27.5373 39.8938L37.3532 39.744C38.1101 39.7325 38.7143 39.112 38.7027 38.3581L38.6273 33.4535C38.6157 32.6998 37.9927 32.0979 37.2358 32.1095Z" fill="white"/>
<path opacity="0.4" d="M36.4283 51.0547L26.8108 51.2014C26.527 51.2058 26.3005 51.4384 26.3047 51.7211L26.3314 53.4517C26.3357 53.7345 26.5694 53.9601 26.8532 53.9557L36.4707 53.809C36.7545 53.8048 36.9811 53.572 36.9768 53.2893L36.9501 51.5588C36.9458 51.2761 36.7121 51.0505 36.4283 51.0547Z" fill="white"/>
<path opacity="0.4" d="M48.9439 50.8614L39.3264 51.0081C39.0425 51.0125 38.816 51.2451 38.8204 51.5278L38.8469 53.2583C38.8513 53.541 39.0849 53.7666 39.3687 53.7624L48.9862 53.6157C49.27 53.6113 49.4967 53.3787 49.4923 53.096L49.4657 51.3654C49.4613 51.0828 49.2278 50.857 48.9439 50.8614Z" fill="white"/>
<path opacity="0.4" d="M61.4518 50.6719L51.8343 50.8186C51.5503 50.823 51.3238 51.0556 51.3282 51.3383L51.3547 53.0689C51.3591 53.3515 51.5927 53.5773 51.8765 53.5729L61.494 53.4262C61.7778 53.4218 62.0045 53.1892 62.0001 52.9065L61.9735 51.176C61.9691 50.8933 61.7356 50.6677 61.4518 50.6719Z" fill="white"/>
<path opacity="0.4" d="M73.9635 50.4825L64.346 50.6293C64.0622 50.6335 63.8356 50.8662 63.8399 51.149L63.8666 52.8795C63.8709 53.1622 64.1045 53.3878 64.3884 53.3834L74.0059 53.2368C74.2897 53.2325 74.5162 52.9998 74.5119 52.7171L74.4853 50.9865C74.481 50.7039 74.2473 50.4782 73.9635 50.4825Z" fill="white"/>
<path d="M50.0297 77.7425C52.9003 77.7425 55.2274 75.4247 55.2274 72.5656C55.2274 69.7065 52.9003 67.3887 50.0297 67.3887C47.1591 67.3887 44.832 69.7065 44.832 72.5656C44.832 75.4247 47.1591 77.7425 50.0297 77.7425Z" fill="white"/>
<path fill-rule="evenodd" clip-rule="evenodd" d="M44.3431 73.7546C48.2174 77.6132 54.4988 77.6132 58.373 73.7546C62.2473 69.8958 62.2473 63.6395 58.373 59.7808C54.4988 55.922 48.2174 55.922 44.3431 59.7808C40.469 63.6395 40.469 69.8958 44.3431 73.7546ZM53.9887 65.1956C54.2793 64.9062 54.2793 64.437 53.9887 64.1476C53.6981 63.8582 53.2271 63.8582 52.9365 64.1476L51.3581 65.7197L49.7798 64.1476C49.4892 63.8582 49.0181 63.8582 48.7275 64.1476C48.4369 64.437 48.4369 64.9062 48.7275 65.1956L50.3059 66.7676L48.7275 68.3398C48.4369 68.6291 48.4369 69.0984 48.7275 69.3877C49.0181 69.6771 49.4892 69.6771 49.7798 69.3877L51.3581 67.8157L52.9365 69.3877C53.2271 69.6771 53.6981 69.6771 53.9887 69.3877C54.2793 69.0984 54.2793 68.6291 53.9887 68.3398L52.4104 66.7676L53.9887 65.1956Z" fill="#AE72FF"/>
<path d="M0.141536 57.2308C0.0083443 57.4022 -0.0338869 57.6255 0.0278357 57.8326C0.0895583 58.0462 0.251987 58.2079 0.453398 58.2758C2.91581 59.1365 5.10858 60.7737 6.56069 62.9318C8.17523 65.3294 10.5954 67.2156 13.3307 68.1701C13.6036 68.2673 13.9089 68.1767 14.0876 67.947L19.0254 61.5275C19.1586 61.3561 19.2008 61.1328 19.1392 60.9258C19.0774 60.7186 18.9214 60.5537 18.7136 60.4825C16.2512 59.6219 14.094 57.962 12.6452 55.8007C11.0275 53.403 8.63327 51.5556 5.89474 50.6011C5.61861 50.504 5.31649 50.5945 5.13782 50.8243L0.141536 57.2308ZM13.217 61.3043C13.5126 61.5309 13.5646 61.9546 13.3371 62.2492C13.1098 62.5436 12.6842 62.5953 12.3886 62.3688C12.093 62.1423 12.041 61.7184 12.2685 61.424C12.4958 61.1296 12.9214 61.0778 13.217 61.3043ZM10.839 57.7711C11.7227 58.4538 11.8851 59.7222 11.1996 60.6022C10.5174 61.4822 9.24075 61.6441 8.35714 60.9614C7.47679 60.2818 7.30786 59.0168 7.99656 58.1302C8.67875 57.2502 9.95544 57.0883 10.839 57.7711ZM6.81083 56.3636C7.10645 56.5901 7.15843 57.014 6.93102 57.3084C6.70363 57.6028 6.27807 57.6546 5.98245 57.4282C5.68683 57.2016 5.63485 56.7778 5.86225 56.4833C6.08964 56.1889 6.51521 56.1372 6.81083 56.3636Z" fill="#F1EAFF"/>
<path d="M88.9869 53.2553C89.162 53.3841 89.3871 53.4211 89.5935 53.3549C89.8065 53.2887 89.9652 53.1233 90.0288 52.9211C90.8369 50.4497 92.4304 48.2291 94.5637 46.7343C96.9336 45.0721 98.7722 42.6195 99.6682 39.8742C99.7595 39.6003 99.6616 39.2983 99.427 39.1255L92.8715 34.3545C92.6963 34.2257 92.4713 34.1887 92.2648 34.2549C92.0583 34.321 91.8963 34.48 91.8295 34.6886C91.0215 37.1601 89.4043 39.3456 87.2677 40.8374C84.8978 42.5027 83.0977 44.9286 82.2017 47.677C82.1105 47.9543 82.2084 48.2531 82.443 48.4257L88.9869 53.2553ZM92.7791 40.1431C92.9997 39.8437 93.424 39.7823 93.7247 40.002C94.0254 40.2219 94.0871 40.6444 93.8664 40.9438C93.6458 41.2434 93.2215 41.3048 92.9208 41.0851C92.6201 40.8652 92.5585 40.4426 92.7791 40.1431ZM89.2865 42.5912C89.9517 41.6958 91.2213 41.5053 92.1202 42.1679C93.019 42.8272 93.2103 44.0948 92.5451 44.9901C91.883 45.8821 90.6171 46.0791 89.7115 45.4134C88.8127 44.7541 88.6214 43.4865 89.2865 42.5912ZM87.9652 46.6342C88.1858 46.3347 88.6101 46.2733 88.9108 46.4931C89.2115 46.7128 89.2732 47.1354 89.0524 47.4349C88.8319 47.7344 88.4076 47.7957 88.1068 47.576C87.8061 47.3562 87.7446 46.9337 87.9652 46.6342Z" fill="#F1EAFF"/>
</svg>
