<svg width="92" height="73" viewBox="0 0 92 73" fill="none" xmlns="http://www.w3.org/2000/svg">
<circle cx="46.7241" cy="37.3535" r="35" fill="#FBF9FF"/>
<path d="M69.0023 6.91546C69.0023 8.29802 67.8805 9.41881 66.4966 9.41881H27.0375C25.6536 9.41767 24.5317 8.29689 24.5317 6.91546C24.5317 5.53289 25.6536 4.41211 27.0375 4.41211H66.4977C67.8816 4.41211 69.0035 5.53289 69.0035 6.91546H69.0023Z" fill="#D2B8FF"/>
<g filter="url(#filter0_d_738_3666)">
<path d="M27.304 63.4794C28.5166 63.4794 28.5166 62.09 29.7292 62.09C30.9418 62.09 30.9418 63.4794 32.1533 63.4794C33.3648 63.4794 33.3659 62.09 34.5785 62.09C35.7911 62.09 35.7911 63.4794 37.0037 63.4794C38.2164 63.4794 38.2164 62.09 39.429 62.09C40.6416 62.09 40.6416 63.4794 41.8542 63.4794C43.0668 63.4794 43.0668 62.09 44.2794 62.09C45.492 62.09 45.492 63.4794 46.7046 63.4794C47.9172 63.4794 47.9172 62.09 49.1298 62.09C50.3424 62.09 50.3424 63.4794 51.555 63.4794C52.7676 63.4794 52.7676 62.09 53.9802 62.09C55.1929 62.09 55.1929 63.4794 56.4043 63.4794C57.6158 63.4794 57.6169 62.09 58.8295 62.09C60.0422 62.09 60.0422 63.4794 61.2559 63.4794C62.4696 63.4794 62.4685 62.09 63.6811 62.09C64.8937 62.09 64.8949 63.4794 66.1075 63.4794C66.2118 63.4794 66.3162 63.4658 66.4205 63.4466V6.91553H27.1157V63.4658C27.1758 63.4737 27.2371 63.4794 27.304 63.4794Z" fill="#FAFAFA"/>
</g>
<rect x="29.8843" y="20.4712" width="32.9412" height="4.94118" rx="0.823529" fill="#F1EAFF"/>
<rect x="29.8843" y="45.1772" width="32.9412" height="3.70588" rx="0.823529" fill="#F1EAFF"/>
<rect x="31.5317" y="31.1772" width="14.4118" height="3.29412" rx="0.823529" fill="#F1EAFF"/>
<rect x="53.7666" y="31.1772" width="7.82353" height="3.29412" rx="0.823529" fill="#D2B8FF"/>
<rect x="31.5317" y="36.1182" width="14.4118" height="3.29412" rx="0.823529" fill="#F1EAFF"/>
<rect x="53.7666" y="36.1182" width="7.82353" height="3.29412" rx="0.823529" fill="#D2B8FF"/>
<g opacity="0.63">
<path fill-rule="evenodd" clip-rule="evenodd" d="M45.1139 13.428C44.807 13.2087 44.4372 13.0884 44.0556 13.0884C43.8673 13.0884 43.716 13.2397 43.716 13.428C43.716 13.6163 43.8673 13.7675 44.0556 13.7675C44.4372 13.7675 44.807 13.6472 45.1139 13.428ZM46.7239 15.038C46.5046 15.3448 46.3843 15.7146 46.3843 16.0962C46.3843 16.2845 46.5356 16.4358 46.7239 16.4358C46.9122 16.4358 47.0634 16.2845 47.0634 16.0962C47.0634 15.7146 46.9431 15.3448 46.7239 15.038ZM48.3339 13.428C48.6407 13.6472 49.0105 13.7675 49.3921 13.7675C49.5804 13.7675 49.7317 13.6163 49.7317 13.428C49.7317 13.2397 49.5804 13.0884 49.3921 13.0884C49.0105 13.0884 48.6407 13.2087 48.3339 13.428ZM46.7239 12.7794L46.0753 13.428L46.7239 14.0765L47.3724 13.428L46.7239 12.7794ZM47.1763 12.3053C47.5251 11.8689 47.7184 11.3239 47.7184 10.7597C47.7184 10.1955 47.2738 9.76514 46.7239 9.76514C46.1739 9.76514 45.7293 10.2097 45.7293 10.7597C45.7293 11.3096 45.9226 11.8689 46.2714 12.3053L45.6015 12.9752C45.1651 12.6263 44.6201 12.4331 44.0559 12.4331C43.4917 12.4331 43.061 12.878 43.061 13.428C43.061 13.9779 43.5056 14.4225 44.0556 14.4225C44.6055 14.4225 45.1648 14.2292 45.6012 13.8804L46.2711 14.5503C45.9222 14.9867 45.729 15.5317 45.729 16.0959C45.729 16.6601 46.1735 17.0904 46.7235 17.0904C47.2735 17.0904 47.7181 16.6458 47.7181 16.0959C47.7181 15.5459 47.5248 14.9867 47.1759 14.5503L47.8458 13.8804C48.2822 14.2292 48.8272 14.4225 49.3914 14.4225C49.9556 14.4225 50.386 13.9779 50.386 13.428C50.386 12.878 49.9414 12.4334 49.3914 12.4334C48.8415 12.4334 48.2822 12.6267 47.8458 12.9755L47.1759 12.3056L47.1763 12.3053ZM46.7239 10.4201C46.5356 10.4201 46.3843 10.5714 46.3843 10.7597C46.3843 11.1413 46.5046 11.5111 46.7239 11.818C46.9431 11.5111 47.0634 11.1413 47.0634 10.7597C47.0634 10.5714 46.9122 10.4201 46.7239 10.4201Z" fill="#D2B8FF"/>
</g>
<path d="M0.416705 40.8982C0.247881 41.1165 0.194352 41.4006 0.272587 41.6641C0.350823 41.9359 0.556705 42.1417 0.811999 42.2282C3.93318 43.3235 6.71259 45.407 8.55318 48.1535C10.5996 51.2047 13.6673 53.6053 17.1344 54.82C17.4802 54.9435 17.8673 54.8282 18.0938 54.5359L24.3526 46.3665C24.5214 46.1482 24.5749 45.8641 24.4967 45.6006C24.4185 45.337 24.2208 45.127 23.9573 45.0365C20.8361 43.9412 18.102 41.8288 16.2655 39.0782C14.2149 36.027 11.1802 33.6759 7.70906 32.4612C7.35906 32.3376 6.97612 32.4529 6.74965 32.7453L0.416705 40.8982ZM16.9902 46.0823C17.3649 46.3706 17.4308 46.91 17.1426 47.2847C16.8544 47.6594 16.3149 47.7253 15.9402 47.437C15.5655 47.1488 15.4996 46.6094 15.7879 46.2347C16.0761 45.86 16.6155 45.7941 16.9902 46.0823ZM13.9761 41.5859C15.0961 42.4547 15.302 44.0688 14.4332 45.1888C13.5685 46.3088 11.9502 46.5147 10.8302 45.6459C9.71435 44.7812 9.50023 43.1712 10.3732 42.0429C11.2379 40.9229 12.8561 40.717 13.9761 41.5859ZM8.87023 39.7947C9.24494 40.0829 9.31082 40.6223 9.02259 40.997C8.73435 41.3717 8.19494 41.4376 7.82023 41.1494C7.44553 40.8612 7.37965 40.3217 7.66788 39.947C7.95612 39.5723 8.49553 39.5065 8.87023 39.7947Z" fill="#F1EAFF"/>
<path d="M77.6215 44.4856C77.8435 44.6494 78.1287 44.6965 78.3904 44.6123C78.6603 44.5279 78.8615 44.3174 78.9421 44.0602C79.9663 40.915 81.9863 38.089 84.6903 36.1866C87.6943 34.0714 90.0246 30.9501 91.1604 27.4564C91.276 27.1078 91.152 26.7234 90.8546 26.5037L82.5453 20.4318C82.3233 20.268 82.038 20.2209 81.7763 20.3051C81.5146 20.3893 81.3092 20.5916 81.2246 20.8571C80.2004 24.0024 78.1506 26.7837 75.4424 28.6821C72.4385 30.8014 70.1568 33.8886 69.0211 37.3865C68.9056 37.7392 69.0295 38.1194 69.3269 38.3392L77.6215 44.4856ZM82.4283 27.7987C82.7079 27.4175 83.2457 27.3394 83.6268 27.6191C84.008 27.8988 84.0861 28.4365 83.8064 28.8177C83.5268 29.1988 82.989 29.2769 82.6078 28.9973C82.2267 28.7176 82.1486 28.1798 82.4283 27.7987ZM78.0013 30.914C78.8445 29.7746 80.4535 29.5322 81.593 30.3754C82.7323 31.2144 82.9748 32.8276 82.1316 33.967C81.2925 35.1022 79.6877 35.3528 78.54 34.5057C77.4007 33.6666 77.1581 32.0535 78.0013 30.914ZM76.3264 36.0592C76.6061 35.6781 77.1439 35.6 77.525 35.8796C77.9062 36.1593 77.9843 36.6971 77.7046 37.0782C77.4249 37.4594 76.8872 37.5375 76.506 37.2578C76.1249 36.9782 76.0468 36.4404 76.3264 36.0592Z" fill="#F1EAFF"/>
<defs>
<filter id="filter0_d_738_3666" x="20.651" y="0.450821" width="52.2341" height="69.4934" filterUnits="userSpaceOnUse" color-interpolation-filters="sRGB">
<feFlood flood-opacity="0" result="BackgroundImageFix"/>
<feColorMatrix in="SourceAlpha" type="matrix" values="0 0 0 0 0 0 0 0 0 0 0 0 0 0 0 0 0 0 127 0" result="hardAlpha"/>
<feOffset/>
<feGaussianBlur stdDeviation="3.23235"/>
<feComposite in2="hardAlpha" operator="out"/>
<feColorMatrix type="matrix" values="0 0 0 0 0.823529 0 0 0 0 0.721569 0 0 0 0 1 0 0 0 0.5 0"/>
<feBlend mode="normal" in2="BackgroundImageFix" result="effect1_dropShadow_738_3666"/>
<feBlend mode="normal" in="SourceGraphic" in2="effect1_dropShadow_738_3666" result="shape"/>
</filter>
</defs>
</svg>
