<svg width="679" height="534" viewBox="0 0 679 534" fill="none" xmlns="http://www.w3.org/2000/svg">
<rect x="90.4346" y="0.5" width="498" height="533" rx="28.175" fill="#1F0433" stroke="#AE72FF"/>
<circle cx="160.934" cy="69" r="37.5" stroke="#AE72FF"/>
<rect x="214.935" y="55" width="110" height="28" rx="5" fill="#2E1044"/>
<path d="M524.899 53.0151L519.934 48.1304L522.1 46L527.065 50.8847H550.403C551.249 50.8847 551.934 51.5592 551.934 52.3911C551.934 52.5377 551.912 52.6836 551.87 52.824L548.195 64.8752C548 65.5124 547.404 65.9488 546.728 65.9488H527.962V68.9616H544.805V71.9744H526.43C525.585 71.9744 524.899 71.2998 524.899 70.468V53.0151ZM527.196 78C525.928 78 524.899 76.9883 524.899 75.7404C524.899 74.4923 525.928 73.4808 527.196 73.4808C528.465 73.4808 529.493 74.4923 529.493 75.7404C529.493 76.9883 528.465 78 527.196 78ZM545.571 78C544.302 78 543.274 76.9883 543.274 75.7404C543.274 74.4923 544.302 73.4808 545.571 73.4808C546.839 73.4808 547.867 74.4923 547.867 75.7404C547.867 76.9883 546.839 78 545.571 78Z" fill="#AE72FF"/>
<path d="M484.188 69.0257L490.935 75.7722L488.707 78L481.96 71.2535C479.535 73.1943 476.458 74.3552 473.112 74.3552C465.286 74.3552 458.935 68.0037 458.935 60.1776C458.935 52.3516 465.286 46 473.112 46C480.938 46 487.29 52.3516 487.29 60.1776C487.29 63.5235 486.129 66.5999 484.188 69.0257ZM481.028 67.8569C482.954 65.8717 484.139 63.1637 484.139 60.1776C484.139 54.0852 479.205 49.1506 473.112 49.1506C467.02 49.1506 462.085 54.0852 462.085 60.1776C462.085 66.2701 467.02 71.2047 473.112 71.2047C476.098 71.2047 478.806 70.0193 480.791 68.093L481.028 67.8569Z" fill="#AE72FF"/>
<g opacity="0.21">
<path fill-rule="evenodd" clip-rule="evenodd" d="M151.585 68.896C149.919 67.7049 147.91 67.0514 145.837 67.0514C144.814 67.0514 143.992 67.8731 143.992 68.896C143.992 69.9188 144.814 70.7405 145.837 70.7405C147.91 70.7405 149.919 70.087 151.585 68.896ZM160.331 77.6413C159.139 79.308 158.486 81.3169 158.486 83.3897C158.486 84.4125 159.308 85.2342 160.331 85.2342C161.353 85.2342 162.175 84.4125 162.175 83.3897C162.175 81.3169 161.522 79.308 160.331 77.6413ZM169.076 68.896C170.743 70.087 172.751 70.7405 174.824 70.7405C175.847 70.7405 176.669 69.9188 176.669 68.896C176.669 67.8731 175.847 67.0514 174.824 67.0514C172.751 67.0514 170.743 67.7049 169.076 68.896ZM160.331 65.3731L156.808 68.896L160.331 72.4188L163.853 68.896L160.331 65.3731ZM162.788 62.7976C164.683 60.4271 165.733 57.4669 165.733 54.4023C165.733 51.3376 163.318 49 160.331 49C157.343 49 154.928 51.415 154.928 54.4023C154.928 57.3896 155.978 60.4271 157.873 62.7976L154.234 66.4365C151.864 64.5417 148.903 63.4918 145.839 63.4918C142.774 63.4918 140.435 65.9087 140.435 68.896C140.435 71.8833 142.85 74.2982 145.837 74.2982C148.824 74.2982 151.862 73.2483 154.232 71.3535L157.871 74.9924C155.976 77.3629 154.926 80.3231 154.926 83.3877C154.926 86.4524 157.341 88.79 160.329 88.79C163.316 88.79 165.731 86.375 165.731 83.3877C165.731 80.4004 164.681 77.3629 162.786 74.9924L166.425 71.3535C168.795 73.2483 171.756 74.2982 174.82 74.2982C177.885 74.2982 180.223 71.8833 180.223 68.896C180.223 65.9087 177.808 63.4937 174.82 63.4937C171.833 63.4937 168.795 64.5436 166.425 66.4385L162.786 62.7996L162.788 62.7976ZM160.331 52.5577C159.308 52.5577 158.486 53.3794 158.486 54.4023C158.486 56.475 159.139 58.4839 160.331 60.1506C161.522 58.4839 162.175 56.475 162.175 54.4023C162.175 53.3794 161.353 52.5577 160.331 52.5577Z" fill="#AE72FF"/>
</g>
<rect x="233.6" y="173.5" width="211.75" height="284.825" rx="24.5" fill="#1F0433" stroke="#AE72FF"/>
<rect x="466.7" y="173.5" width="211.75" height="284.825" rx="24.5" fill="#1F0433" stroke="#AE72FF"/>
<rect x="0.5" y="173.5" width="211.75" height="284.825" rx="24.5" fill="#1F0433" stroke="#AE72FF"/>
<rect x="25" y="381" width="162" height="28" rx="5" fill="#2E1044"/>
<rect x="258" y="381" width="162" height="28" rx="5" fill="#2E1044"/>
<rect x="492" y="381" width="162" height="28" rx="5" fill="#2E1044"/>
<rect x="25" y="199" width="162" height="158" rx="17" fill="#2E1044"/>
<rect x="258" y="199" width="162" height="158" rx="17" fill="#2E1044"/>
<rect x="492" y="199" width="162" height="158" rx="17" fill="#2E1044"/>
<path d="M114.254 250.935H103.084V254.703C105.201 254.796 107.318 255.914 108.29 257.845C109.235 259.749 108.582 262.598 108.636 264.689C120.206 268.923 128.9 279.055 131.497 291.091C133.853 301.996 131.191 313.513 124.28 322.234C121.125 326.215 119.168 326.788 114.268 327.906C103.629 330.316 86.8132 330.862 76.2149 328.372C65.6165 325.882 69.1848 325.216 66.189 320.982C52.3286 301.33 60.7434 273.782 82.8455 265.022C83.2582 262.731 82.233 259.03 83.6444 257.113C84.2835 256.234 85.748 255.275 86.8265 255.076C87.2526 254.996 88.3577 255.089 88.5175 254.876L88.7971 243.399C90.1951 236.488 101.752 237.487 102.884 243.838C104.016 250.189 102.871 244.917 102.95 245.369C103.084 246.075 104.109 245.596 104.615 245.582C107.877 245.476 111.139 245.542 114.401 245.276C116.558 238.885 124.054 235.783 130.312 235.13C138.141 234.318 150.15 237.247 153.279 245.396C156.595 254.037 147.94 260.042 140.537 261.613C131.257 263.584 117.849 260.881 114.268 250.948L114.254 250.935ZM132.362 236.182C124.147 235.903 110.673 242.853 116.305 252.732C122.283 263.224 145.224 263.983 151.469 253.544C157.567 243.359 142.242 235.676 133.92 236.142L132.362 236.182ZM101.912 254.703L101.765 244.477C100.873 239.604 93.6036 238.02 90.6744 241.947C90.4214 242.28 90.1285 242.653 90.1552 243.092C96.3198 243.998 95.2147 252.652 89.7291 253.704V254.996C89.7158 254.996 101.912 254.703 101.912 254.703ZM89.7291 252.386C93.8965 251.6 94.6288 244.704 89.8756 244.264L89.7291 252.386ZM103.084 249.776H113.975C113.695 248.645 113.975 247.54 113.895 246.434L102.937 246.874L103.084 249.776ZM84.0704 259.136C83.8441 260.787 84.2302 262.878 84.0704 264.582C91.5132 261.893 99.928 261.826 107.437 264.289C107.65 261.014 108.343 257.073 104.255 256.087C102.538 255.675 97.8243 255.981 95.7473 256.008C93.2974 256.034 89.6492 255.901 87.3458 256.181C85.8546 256.354 84.2701 257.592 84.0704 259.136ZM93.4705 263.743C66.7882 265.501 51.9025 296.311 66.1491 318.825C69.0117 323.352 71.1021 325.962 76.4811 327.214C87.1195 329.69 105.161 329.198 115.732 326.348C120.339 325.11 121.484 324.151 124.24 320.343C141.909 295.898 123.828 261.746 93.4705 263.743Z" fill="#3C1C54"/>
<path d="M93.4703 263.743C123.841 261.746 141.909 295.898 124.24 320.343C121.484 324.151 120.339 325.11 115.732 326.348C105.16 329.198 87.1193 329.69 76.481 327.214C71.0886 325.962 69.0115 323.366 66.1489 318.826C51.889 296.311 66.7747 265.501 93.4703 263.743ZM106.092 277.537C99.7681 278.017 96.1465 280.293 90.9272 283.276C86.094 286.032 77.16 286.924 73.0991 282.437C72.3801 281.638 72.4999 280.719 71.2217 281.718C60.7299 289.88 65.8293 314.379 75.2028 322.128C81.8068 327.587 100.154 326.535 108.183 324.764C111.898 323.952 116.211 322.847 118.741 319.944C126.597 310.957 130.631 297.562 124.427 286.551C120.193 279.028 114.574 276.911 106.079 277.551L106.092 277.537Z" fill="#AE72FF"/>
<path d="M132.362 236.182L133.92 236.142C142.255 235.676 157.58 243.345 151.469 253.544C145.224 263.97 122.297 263.224 116.305 252.732C110.673 242.853 124.134 235.916 132.362 236.182ZM135.265 240.23C134.466 239.431 129.167 240.669 127.969 241.055C125.465 241.881 119.793 244.65 119.927 247.792C119.966 248.818 121.058 249.124 121.218 248.232C121.378 247.34 121.098 246.9 122.097 245.769C124.8 242.706 131.071 241.029 135.052 241.162L135.425 240.802C135.465 240.643 135.385 240.336 135.265 240.216V240.23Z" fill="#AE72FF"/>
<path d="M84.0707 259.137C84.2837 257.592 85.8549 256.354 87.3461 256.181C89.6495 255.901 93.2977 256.048 95.7475 256.008C97.8113 255.981 102.525 255.662 104.256 256.088C108.356 257.073 107.664 261.014 107.438 264.289C99.9283 261.826 91.5135 261.893 84.0707 264.582C84.2305 262.891 83.8444 260.788 84.0707 259.137Z" fill="#AE72FF"/>
<path d="M101.912 254.703L89.7158 254.996V253.704C95.2147 252.652 96.3065 243.998 90.1552 243.092C90.1286 242.653 90.4215 242.28 90.6745 241.947C93.6037 238.006 100.873 239.591 101.765 244.477L101.912 254.703Z" fill="#AE72FF"/>
<path d="M103.083 249.777L102.937 246.874L113.895 246.435C113.975 247.54 113.695 248.645 113.975 249.777H103.083Z" fill="#AE72FF"/>
<path d="M89.729 252.386L89.8755 244.264C94.6287 244.704 93.8965 251.614 89.729 252.386Z" fill="white"/>
<path d="M106.093 277.538C114.587 276.898 120.206 279.015 124.44 286.538C130.631 297.549 126.61 310.944 118.755 319.931C116.212 322.834 111.898 323.939 108.196 324.751C100.181 326.522 81.8204 327.573 75.2164 322.115C65.8296 314.365 60.7435 289.867 71.2353 281.705C72.5135 280.706 72.3937 281.625 73.1127 282.424C77.1736 286.924 86.0943 286.032 90.9408 283.263C96.1601 280.28 99.7817 278.004 106.106 277.524L106.093 277.538ZM106.532 278.696C103.23 278.922 99.7417 279.881 96.7326 281.239C93.4972 282.69 91.1405 284.94 87.6521 285.952C82.5127 287.43 75.3895 287.204 71.7945 282.73C66.1891 288.069 65.8829 297.363 67.2676 304.526C68.4526 310.677 72.407 320.144 78.545 322.7C87.4657 326.415 105.48 325.47 114.348 321.635C117.091 320.45 118.196 318.946 119.887 316.576C125.998 308.014 128.874 296.923 123.468 287.217C119.567 280.214 114.454 278.15 106.532 278.696Z" fill="#3C1C54"/>
<path d="M135.264 240.23C135.384 240.35 135.464 240.656 135.424 240.816L135.051 241.175C131.07 241.042 124.799 242.72 122.096 245.782C121.098 246.914 121.444 246.994 121.218 248.245C120.991 249.497 119.966 248.831 119.926 247.806C119.793 244.664 125.465 241.881 127.968 241.069C129.166 240.683 134.466 239.444 135.264 240.243V240.23Z" fill="#3C1C54"/>
<path d="M106.532 278.696C114.467 278.136 119.58 280.2 123.468 287.217C128.874 296.923 125.998 308.014 119.886 316.575C118.196 318.945 117.09 320.45 114.348 321.635C105.48 325.47 87.4656 326.415 78.5449 322.7C72.4069 320.144 68.4525 310.677 67.2675 304.526C65.8961 297.363 66.189 288.069 71.7944 282.73C75.3894 287.217 82.5126 287.443 87.652 285.952C91.1404 284.94 93.4971 282.703 96.7325 281.239C99.7283 279.881 103.23 278.922 106.532 278.696Z" fill="#3C1C54" stroke="#3C1C54" stroke-miterlimit="10"/>
<path d="M583.783 249.052H587.13C588.882 249.052 592.11 251.128 592.11 253.051V259.825H600.191C603.361 259.825 608.216 263.987 608.85 267.165C609.392 282.873 609.088 298.686 609.247 314.431C609.259 315.686 609.522 317.003 609.423 318.347C609.056 323.296 604.625 327.65 599.7 328.051C593.361 328.568 585.785 328 579.287 328.046C569.147 328.118 558.918 328.43 548.756 328.21C545.941 328.148 544.03 327.546 541.823 325.689C537.709 322.228 538.508 319.038 538.551 314.091C538.638 304.319 538.8 294.374 538.891 284.561C538.936 279.631 538.364 273.149 538.93 268.44C539.424 264.321 543.863 259.825 548.109 259.825H556.517C557.103 257.525 556.101 254.001 557.028 251.929C557.955 249.856 560.61 249.199 562.661 248.908C563.038 248.855 564.084 249.027 564.15 248.651L564.009 245.315C561.924 244.88 560.007 242.56 559.782 240.484C559.468 237.596 559.82 234.011 559.659 231.054C560.256 228.814 562.649 227.09 564.945 227.033C565.265 227.026 565.568 227.19 565.9 227.187C571.571 227.136 577.394 226.918 583.031 227.033C585.484 227.084 588.357 228.934 588.664 231.523C588.939 233.843 589.174 239.569 588.806 241.749C588.584 243.064 587.036 244.246 585.832 244.652C585.131 244.889 584.344 244.863 583.784 245.217V249.052H583.783ZM564.148 228.525C562.583 228.893 561.148 229.988 560.925 231.668C561.198 234.379 560.753 237.824 561.132 240.44C561.332 241.829 562.652 243.701 564.102 243.837C570.444 244.429 577.909 243.511 584.337 243.649C585.856 243.356 587.383 242.693 587.543 240.978C587.764 238.63 587.677 234.026 587.359 231.682C587.124 229.951 585.209 228.63 583.545 228.477C577.407 227.915 570.377 228.878 564.148 228.523V228.525ZM582.477 245.134H565.334L565.505 248.88L582.558 249.052C582.787 249.024 582.477 248.844 582.477 248.807V245.134ZM557.823 259.825H590.558C590.79 259.681 590.784 259.5 590.811 259.262C591.033 257.367 590.365 254.764 590.602 252.762C590 251.023 587.976 250.475 586.318 250.351C582.117 250.036 577.211 250.391 572.917 250.364C569.436 250.342 562.195 249.419 559.333 251.297C558.563 251.802 558.09 252.443 557.985 253.378C557.748 255.488 558.24 257.716 557.822 259.825H557.823ZM549.824 261.131C545.166 260.912 540.691 264.115 540.212 268.904C539.724 273.785 540.245 279.998 540.198 285.051C540.107 295.094 540.115 305.184 540.035 315.247C540.014 317.837 539.324 320.359 540.875 322.719C542.318 324.912 544.771 326.359 547.311 326.895C556.224 327.077 565.172 326.787 574.061 326.742C582.116 326.7 591.331 327.337 599.218 326.755C603.774 326.42 607.87 322.661 608.117 318.024C608.168 317.082 607.948 316.243 607.939 315.412C607.785 299.53 608.024 283.619 607.605 267.757C606.543 263.763 602.26 260.857 598.149 261.133V314.263C598.149 316.102 593.696 319.728 591.68 319.549L557.416 319.567C553.42 319.179 549.823 315.378 549.823 311.325V261.131H549.824ZM577.743 261.131L577.498 272.232C577.386 272.431 577.221 272.512 577.003 272.552C576.059 272.729 574.313 272.529 573.245 272.551C572.263 272.57 570.314 273.301 570.079 271.813C569.591 268.738 570.605 264.793 570.241 261.694C570.212 261.456 570.22 261.275 569.988 261.131H551.13L551.124 309.862C551.373 310.706 551.214 311.582 551.337 312.424C551.873 316.09 555.683 318.677 559.296 318.262C559.203 309.909 559.203 301.555 559.138 293.2C559.101 288.431 558.541 282.726 558.962 278.019C559.132 276.121 560.953 274.543 562.806 274.356C567.208 273.911 572.932 274.401 577.504 274.36C579.997 274.338 582.658 273.938 585.17 274.192C587.335 274.411 588.538 276.411 589.008 278.353L589.171 318.099H592.356C593.534 318.099 596.846 315.181 596.846 313.937V261.131H577.743ZM576.437 261.131H571.539L571.376 271.251H576.273L576.437 261.131ZM587.865 317.934L587.707 278.999C587.672 277.758 586.664 275.811 585.337 275.654H563.287C561.842 275.689 560.402 276.688 560.265 278.179C559.848 282.66 560.407 288.161 560.443 292.708C560.482 297.828 560.534 302.957 560.606 308.052C560.654 311.403 560.497 314.76 560.67 318.108L587.865 317.936V317.934Z" fill="#3C1C54"/>
<path d="M549.825 261.131V311.324C549.825 315.376 553.422 319.177 557.418 319.565L591.682 319.547C593.699 319.729 598.151 316.103 598.151 314.262V261.131C602.26 260.856 606.544 263.761 607.607 267.756C608.025 283.618 607.787 299.529 607.941 315.411C607.948 316.242 608.169 317.081 608.119 318.023C607.872 322.66 603.776 326.419 599.22 326.754C591.332 327.334 582.116 326.699 574.063 326.741C565.174 326.787 556.226 327.076 547.313 326.894C544.771 326.359 542.318 324.911 540.877 322.718C539.326 320.359 540.018 317.837 540.037 315.246C540.116 305.183 540.109 295.092 540.2 285.05C540.245 279.998 539.726 273.784 540.214 268.903C540.693 264.112 545.17 260.911 549.826 261.13L549.825 261.131Z" fill="#AE72FF" stroke="#512473" stroke-miterlimit="10"/>
<path d="M564.148 228.525C570.377 228.88 577.407 227.918 583.545 228.478C585.21 228.631 587.126 229.951 587.36 231.684C587.677 234.027 587.764 238.631 587.544 240.98C587.382 242.695 585.854 243.358 584.337 243.65C577.909 243.512 570.445 244.43 564.102 243.839C562.652 243.704 561.333 241.832 561.132 240.442C560.753 237.826 561.198 234.381 560.925 231.67C561.148 229.99 562.583 228.895 564.148 228.526V228.525ZM573.465 231.302C566.471 231.85 568.896 242.946 575.678 240.05C580.252 238.097 578.396 230.915 573.465 231.302Z" fill="#AE72FF" stroke="#512473" stroke-miterlimit="10"/>
<path d="M557.824 259.825C558.242 257.716 557.75 255.488 557.987 253.378C558.092 252.445 558.565 251.804 559.335 251.297C562.198 249.419 569.44 250.343 572.919 250.364C577.213 250.391 582.119 250.036 586.32 250.351C587.977 250.475 590.002 251.022 590.604 252.762C590.367 254.764 591.035 257.367 590.813 259.262C590.785 259.5 590.792 259.681 590.56 259.825H557.824Z" fill="#AE72FF" stroke="#512473" stroke-miterlimit="10"/>
<path d="M582.477 245.134V248.807C582.477 248.844 582.787 249.024 582.558 249.052L565.505 248.88L565.334 245.134H582.477Z" fill="#AE72FF" stroke="#512473" stroke-miterlimit="10"/>
<path d="M573.466 231.302C578.396 230.915 580.252 238.097 575.678 240.05C568.896 242.946 566.471 231.85 573.466 231.302ZM572.965 232.768C569.664 233.336 569.717 238.732 573.251 239.094C578.345 239.617 578.144 231.877 572.965 232.768Z" fill="#3C1C54"/>
<path d="M572.965 232.768C578.144 231.877 578.345 239.618 573.251 239.094C569.715 238.73 569.664 233.335 572.965 232.768ZM572.568 234.739C571.185 236.304 573.407 238.432 574.89 237.141C576.615 235.637 574.063 233.049 572.568 234.739Z" fill="#512473"/>
<path d="M572.569 234.739C574.062 233.05 576.615 235.638 574.89 237.141C573.409 238.432 571.186 236.304 572.569 234.739ZM574.15 235.669H573.499V236.157C573.8 236.195 573.978 236.168 574.149 235.91V235.669H574.15Z" fill="#3C1C54"/>
<path d="M574.15 235.668V235.91C573.977 236.166 573.799 236.194 573.498 236.157V235.668H574.15Z" fill="#3C1C54"/>
<path d="M577.743 261.131H596.845V313.936C596.845 315.18 593.533 318.098 592.355 318.098H589.17C589.17 318.098 559.293 318.083 559.294 318.261C555.682 318.676 551.872 316.091 551.336 312.423C551.213 311.581 551.372 310.705 551.123 309.86L551.129 261.13H569.986C570.22 261.274 570.211 261.455 570.24 261.693C570.604 264.792 569.591 268.737 570.078 271.811C570.314 273.3 572.261 272.569 573.244 272.55C574.312 272.529 576.058 272.728 577.002 272.551C577.22 272.511 577.385 272.43 577.497 272.231L577.742 261.13H577.743V261.131Z" fill="#512473"/>
<path d="M336.665 227.072C338.004 226.95 340.319 226.978 341.636 227.194C349.645 228.507 347.116 237.719 353.582 240.865C362.922 245.41 364.173 229.842 373.507 230.769C374.279 230.845 375.314 231.196 375.5 232.029L354.474 281.878L354.48 305.934L361.296 326.505C361.121 326.839 360.828 327.048 360.44 326.932C353.523 322.252 344.049 325.803 339.203 331.821L338.79 332C338.348 331.998 336.964 330.26 336.511 329.838C332.084 325.72 324.818 323.256 319.032 325.812C318.528 326.035 317.403 326.86 317.135 326.928C316.385 327.117 316.08 326.528 316.32 325.862L322.983 306.175C323.275 298.131 323.041 290.053 323.105 281.996L302.001 232.01C301.968 231.36 303.313 230.847 303.843 230.778C312.44 229.648 313.788 242.147 321.236 241.587C324.546 241.338 326.59 239.028 328.101 236.308C330.618 231.778 330.111 227.667 336.665 227.072ZM337.17 227.999C336.334 227.978 335.49 228.208 334.704 228.479C330.941 229.775 331.099 232.443 329.622 235.545C328.195 238.543 325.816 241.83 322.322 242.435C314.655 243.766 313.425 235.643 308.177 232.673C306.637 231.802 304.749 231.242 303.052 231.974L323.915 281.333L337.169 281.571V280.967C334.546 280.996 331.919 280.934 329.295 280.963C329.01 280.966 328.748 281.089 328.464 281.093C327.737 281.104 324.784 281.246 324.444 280.777L304.666 233.418C304.262 231.99 306.915 233.043 307.498 233.353C309.593 234.467 310.701 236.359 312.185 238.047C316.244 242.664 322.273 246.83 327.38 240.88C329.765 238.1 330.146 234.404 332.194 231.619C333.468 229.887 334.963 229.191 337.052 228.783L337.17 227.996V227.999ZM339.332 227.999C338.936 228.043 338.416 227.849 338.131 228.179V281.568H339.332V227.999ZM340.293 281.569L353.448 281.329L353.69 281.209L374.408 232.143C374.399 231.781 373.233 231.605 372.907 231.599C365.994 231.5 364.048 242.017 357.65 242.562C352.834 242.973 349.875 239.63 347.96 235.663C347.104 233.89 346.522 231.028 345.1 229.742C343.913 228.668 341.877 228.061 340.293 227.997C340.308 228.234 340.21 228.631 340.411 228.784C340.556 228.894 342 229.17 342.399 229.32C348.289 231.535 346.71 241.42 354.281 243.655C357.378 244.568 360.98 242.29 363.181 240.28C365.164 238.47 366.575 236.081 368.587 234.382C369.662 233.474 371.326 232.415 372.778 232.8L372.819 233.446L353.033 280.792C352.638 281.247 349.861 281.103 349.117 281.091C348.833 281.087 348.57 280.964 348.287 280.961C345.623 280.929 342.955 280.995 340.293 280.965V281.568V281.569ZM337.17 229.804C332.277 230.266 331.726 235.33 329.907 238.839C326.789 244.857 320.995 246.528 315.387 242.424C312.416 240.25 310.832 237.26 308.22 235.04C308.079 234.921 305.934 233.328 305.935 233.84L325.215 280.006H337.17V229.804ZM340.293 229.804V279.823C340.398 279.995 340.532 279.989 340.707 280.01C343.693 280.361 347.782 279.926 350.929 279.999C351.406 280.01 352.011 280.373 352.364 279.882L371.647 233.779C371.058 233.35 368.315 235.93 367.861 236.424C365.222 239.296 363.402 242.259 359.595 243.911C354.603 246.077 350.131 243.549 347.721 239.035C345.821 235.476 345.295 230.211 340.294 229.806L340.293 229.804ZM324.917 282.412L324.265 282.305L324.076 282.473V306.188L317.589 325.389C318.351 325.105 319.066 324.71 319.846 324.461C326.672 322.29 334.266 325.642 338.792 330.805C343.729 324.955 352.892 321.552 359.993 325.511L353.507 306.43V282.474C353.302 282.158 352.984 282.449 352.672 282.42L352.398 284.553L352.192 284.643L339.271 286.143C334.999 285.636 330.431 285.49 326.194 284.805C325.826 284.745 324.917 284.669 324.917 284.159V282.413V282.412ZM351.705 282.412L340.954 282.653C339.296 282.537 337.562 282.744 335.913 282.527L325.878 282.411L325.871 283.661L338.792 285.19C342.853 284.509 347.228 284.508 351.26 283.824C351.362 283.806 351.567 283.77 351.591 283.656L351.706 282.412H351.705Z" fill="#512473"/>
<path d="M340.293 229.805C345.294 230.211 345.822 235.476 347.721 239.035C350.131 243.549 354.602 246.077 359.595 243.911C363.401 242.259 365.221 239.296 367.861 236.424C368.315 235.93 371.059 233.35 371.646 233.778L352.363 279.882C352.011 280.374 351.406 280.01 350.928 279.999C347.781 279.926 343.693 280.362 340.706 280.01C340.531 279.989 340.398 279.996 340.292 279.824V229.805H340.293Z" fill="#AE72FF"/>
<path d="M337.17 229.805V280.005H325.216L305.935 233.839C305.933 233.327 308.08 234.92 308.221 235.039C310.832 237.26 312.417 240.251 315.387 242.424C320.995 246.527 326.789 244.855 329.908 238.838C331.726 235.329 332.278 230.265 337.17 229.804V229.805Z" fill="#AE72FF"/>
<path d="M324.917 282.412V284.157C324.917 284.668 325.825 284.744 326.194 284.803C330.431 285.488 334.999 285.635 339.272 286.142L352.192 284.642L352.399 284.552L352.673 282.419C352.985 282.447 353.302 282.157 353.507 282.473V306.429L359.993 325.509C352.891 321.552 343.728 324.955 338.792 330.804C334.266 325.641 326.671 322.288 319.847 324.46C319.068 324.708 318.352 325.104 317.59 325.388L324.076 306.187V282.472L324.266 282.304L324.917 282.411V282.412ZM328.133 286.172C328.01 286.053 327.143 285.934 326.898 285.905C326.628 285.872 325.591 285.781 325.391 285.831C324.924 285.947 324.97 286.918 325.157 287.259C325.357 287.622 327.837 287.744 328.165 287.411C328.36 287.212 328.338 286.373 328.134 286.172H328.133ZM351.801 285.812C351.413 285.821 349.813 285.948 349.542 286.084C349.191 286.26 349.08 287.305 349.542 287.529C349.869 287.687 351.827 287.584 352.185 287.408C352.543 287.232 352.738 285.791 351.8 285.812H351.801ZM329.51 286.172L329.381 306.167C329.448 306.367 329.717 306.45 329.91 306.48C330.924 306.634 332.56 306.693 333.621 306.734C334.395 306.763 335.047 306.959 335.135 306.073C335.488 302.484 335.054 297.821 335.002 294.154C334.967 291.673 335.059 289.19 334.983 286.709C334.875 286.34 334.005 286.306 333.624 286.265C332.656 286.16 331.344 286.04 330.384 286.014C330.154 286.007 329.67 286.012 329.509 286.172H329.51ZM342.455 286.806V306.429C342.455 306.804 343.591 306.744 343.842 306.735C344.923 306.694 346.515 306.64 347.553 306.482C348.017 306.411 348.171 306.157 348.223 305.709C348.431 303.916 348.115 301.96 348.095 300.174C348.046 295.566 348.162 290.956 348.077 286.349L347.861 286.084C347.729 286.013 347.587 286.025 347.445 286.015C346.667 285.961 344.814 286.171 343.957 286.266C343.531 286.313 342.537 286.343 342.454 286.806H342.455ZM336.777 287.124C336.355 287.232 335.98 288.386 336.216 288.718C337.432 289.387 339.669 289.466 340.962 288.921C341.381 288.745 341.408 288.592 341.35 288.162C341.12 286.489 339.86 287.37 338.668 287.356C338.21 287.351 337.081 287.048 336.778 287.125L336.777 287.124ZM325.241 288.336C325.024 288.401 324.891 288.616 324.911 288.846C324.979 289.604 327.055 289.296 327.595 289.492C328.26 289.319 328.279 288.611 327.595 288.457C327.338 288.4 325.445 288.275 325.242 288.336H325.241ZM352.518 288.46C352.165 288.119 350.264 288.51 349.711 288.529C349.249 288.716 349.321 289.479 349.959 289.497C350.541 289.248 352.54 289.638 352.635 288.832C352.649 288.721 352.596 288.536 352.518 288.461V288.46ZM336.535 289.777C336.356 289.831 336.23 289.997 336.204 290.183C336.145 290.822 337.708 290.928 338.193 290.957C338.717 290.988 341.996 290.969 341.146 289.924C340.836 289.544 339.458 289.995 338.917 290.003C338.313 290.011 336.936 289.657 336.535 289.776V289.777ZM325.242 289.899C324.86 290.014 324.757 290.679 325.121 290.814C325.663 290.844 327.832 291.341 328.022 290.758C328.155 290.355 328.014 290.189 327.66 290.076C327.447 290.007 325.414 289.847 325.241 289.899H325.242ZM349.573 290.929C349.777 291.131 351.581 290.976 351.952 290.905C352.543 290.793 353.066 290.278 352.397 289.965C352.122 289.836 350.492 289.957 350.112 290.025C349.651 290.105 349.136 290.499 349.573 290.929ZM336.527 291.337C336.207 291.443 336.262 292.078 336.568 292.224C336.665 292.27 338.479 292.51 338.684 292.512C338.97 292.514 340.929 292.247 341.063 292.153C341.311 291.981 341.331 291.72 341.145 291.489C340.82 291.087 339.65 291.441 339.158 291.446C338.499 291.454 336.992 291.182 336.527 291.338V291.337ZM325.361 291.826C324.935 291.956 324.9 292.566 325.366 292.736C325.672 292.848 327.691 293.057 327.92 292.945C328.287 292.766 328.168 292.19 327.837 292.066C327.566 291.965 325.605 291.753 325.362 291.827L325.361 291.826ZM352.396 292.615C352.737 292.285 352.491 291.84 352.008 291.792C351.713 291.763 350.015 291.967 349.755 292.073C349.195 292.302 349.348 292.968 349.963 293.015C350.234 293.036 352.266 292.74 352.396 292.614V292.615ZM336.529 293.145C336.119 293.288 336.178 293.854 336.572 294.027C336.718 294.091 338.443 294.314 338.684 294.317C339.019 294.322 340.98 294.07 341.136 293.911C341.293 293.752 341.321 293.408 341.201 293.237C340.984 292.925 339.682 293.246 339.277 293.251C338.65 293.26 336.92 293.008 336.528 293.144L336.529 293.145ZM325.187 294.301C325.383 294.495 327.906 294.756 328.105 294.456C328.215 294.178 328.236 293.919 327.96 293.748C327.722 293.601 325.79 293.427 325.46 293.492C325.037 293.575 324.906 294.023 325.187 294.302V294.301ZM349.455 294.542C349.645 294.71 351.742 294.504 352.072 294.396C352.564 294.235 352.648 293.559 352.013 293.481C351.655 293.437 350.233 293.553 349.869 293.632C349.436 293.726 349.088 294.218 349.455 294.542ZM340.864 294.961C340.54 294.64 339.273 295.06 338.792 295.062C338.187 295.063 336.416 294.39 336.563 295.471C336.618 295.873 338.057 296.002 338.433 296.014C338.894 296.028 341.836 295.929 340.864 294.962V294.961ZM325.364 295.199C324.796 295.323 324.737 295.869 325.245 296.108C325.834 296.136 328.083 296.647 328.268 295.933C328.338 295.624 327.977 295.377 327.714 295.319C327.493 295.27 325.556 295.157 325.364 295.199ZM351.44 295.208C351.038 295.228 349.436 295.258 349.316 295.609V296.059C349.451 296.441 352.145 296.277 352.432 296.082C352.642 295.94 352.58 295.442 352.376 295.281C352.106 295.068 351.74 295.194 351.439 295.208H351.44ZM336.65 296.756C336.282 296.882 336.317 297.369 336.642 297.568C336.839 297.688 337.783 297.801 338.073 297.82C338.557 297.85 340.753 297.79 341.017 297.523C341.167 297.37 341.202 297.021 341.082 296.849C340.863 296.534 339.455 296.857 339.038 296.862C338.398 296.871 337.138 296.589 336.649 296.756H336.65ZM325.243 296.996C324.862 297.109 324.67 297.685 325.124 297.915C325.383 298.046 327.275 298.258 327.622 298.241C328.341 298.203 328.362 297.45 327.806 297.273C327.596 297.206 325.367 296.959 325.243 296.997V296.996ZM351.806 297.009C351.358 297.026 349.633 297.223 349.415 297.513C349.158 297.856 349.483 298.216 349.839 298.248C350.152 298.276 351.851 298.078 352.167 297.982C353.001 297.73 352.84 296.971 351.806 297.009ZM336.359 298.572C336.142 298.786 336.174 299.177 336.454 299.321C336.7 299.448 338.089 299.612 338.432 299.623C338.962 299.64 341.96 299.593 341.145 298.591C340.832 298.205 339.315 298.672 338.791 298.672C338.268 298.672 336.719 298.215 336.359 298.572ZM325.234 298.921C324.886 299.036 324.978 299.736 325.362 299.841C325.978 299.827 327.497 300.235 327.962 299.973C328.494 299.671 328.198 299.155 327.714 299.049C327.409 298.982 325.462 298.845 325.234 298.92V298.921ZM352.396 299.717C352.691 299.428 352.521 298.985 352.123 298.908C351.799 298.845 349.729 299.025 349.504 299.164C349.052 299.442 349.31 300.073 349.851 300.102C350.334 299.916 352.099 300.01 352.396 299.716V299.717ZM336.647 300.125C336.368 300.217 336.374 300.698 336.567 300.894C336.974 301.307 340.497 301.283 340.959 300.835C341.171 300.629 341.22 300.412 340.963 300.218C340.552 299.905 339.554 300.227 339.038 300.233C338.391 300.242 337.147 299.96 336.647 300.125ZM326.298 301.552C326.857 301.603 327.474 301.516 328.04 301.552C328.12 301.295 328.233 300.875 327.96 300.699C327.755 300.568 325.644 300.409 325.362 300.493C324.917 300.624 324.962 301.266 325.386 301.379C325.569 301.427 326.124 301.536 326.299 301.551L326.298 301.552ZM352.411 300.604C352.272 300.38 348.539 300.305 349.542 301.494C350.044 301.625 353.075 301.675 352.411 300.604ZM336.527 301.811C336.255 301.899 336.243 302.4 336.448 302.577C336.935 302.996 340.606 302.978 341.079 302.521C341.17 302.432 341.258 302.356 341.258 302.215C341.258 301.422 339.298 301.961 338.792 301.965C338.154 301.971 337.081 301.629 336.527 301.811ZM328.01 303.328C328.184 303.16 328.151 302.796 327.981 302.636C327.707 302.381 324.448 301.915 325.22 303.11C325.577 303.416 327.75 303.579 328.01 303.328ZM351.788 302.318C351.387 302.309 350.085 302.394 349.755 302.547C349.646 302.598 349.538 302.64 349.478 302.755L349.44 303.153C349.468 303.254 349.568 303.371 349.663 303.419C349.852 303.512 351.829 303.385 352.072 303.305C352.678 303.107 352.583 302.336 351.789 302.319L351.788 302.318ZM336.359 304.532C336.664 304.832 339.329 304.844 339.871 304.801C340.468 304.753 341.707 304.696 341.084 303.828C340.175 303.647 339.17 303.861 338.185 303.844C337.723 303.836 336.509 303.459 336.262 303.96C336.179 304.128 336.234 304.41 336.358 304.531L336.359 304.532ZM325.361 304.346C324.894 304.485 324.911 305.775 325.226 305.997C325.443 306.15 327.767 306.324 328.041 306.188C328.4 306.011 328.595 304.856 328.157 304.624C327.877 304.477 325.658 304.256 325.361 304.344V304.346ZM351.201 304.357C349.893 304.432 348.614 304.417 349.36 306.129C349.852 306.344 352.173 306.207 352.436 305.835C352.632 305.556 352.607 304.673 352.37 304.438C352.133 304.204 351.527 304.338 351.201 304.357ZM341.113 306.829C341.422 304.585 340.015 305.626 338.778 305.631C337.853 305.636 336.27 304.724 336.323 306.433C336.348 307.273 338.652 307.501 339.338 307.396C339.569 307.361 341.057 306.919 341.113 306.829ZM338.131 308.655L324.73 307.325L324.31 307.866L319.33 323.161C319.348 323.275 319.349 323.472 319.419 323.552C319.68 323.849 321.691 323.376 322.215 323.343C327.16 323.029 332.851 324.025 336.573 327.491C336.944 327.837 337.234 328.618 337.827 328.525C337.928 328.509 338.131 328.417 338.131 328.337V308.655ZM340.259 328.361C343.759 324.114 350.109 322.986 355.368 323.343C356.04 323.388 357.078 323.721 357.658 323.709C357.87 323.704 358.021 323.649 358.134 323.462L352.834 307.346L352.252 307.206L339.331 308.656L339.392 328.278C339.548 328.603 340.007 328.568 340.258 328.362L340.259 328.361Z" fill="#3C1D54" stroke="#512473" stroke-miterlimit="10"/>
<path d="M340.01 281.571V280.968C342.673 280.999 345.341 280.931 348.004 280.963C348.288 280.967 348.551 281.089 348.835 281.094C349.579 281.106 352.357 281.249 352.75 280.794L372.537 233.449L372.496 232.803C371.045 232.417 369.381 233.478 368.305 234.384C366.293 236.083 364.881 238.472 362.899 240.283C360.698 242.292 357.096 244.571 353.999 243.657C346.427 241.423 348.005 231.538 342.116 229.322C341.718 229.172 340.274 228.896 340.128 228.786C339.928 228.635 340.027 228.236 340.01 228C341.595 228.065 343.63 228.67 344.817 229.744C346.239 231.031 346.822 233.893 347.678 235.666C349.593 239.631 352.552 242.975 357.368 242.565C363.766 242.019 365.712 231.503 372.625 231.602C372.951 231.606 374.117 231.783 374.126 232.145L353.406 281.212L353.165 281.331L340.009 281.572L340.01 281.571Z" fill="#3C1D54" stroke="#512473" stroke-miterlimit="10"/>
<path d="M337.17 227.999L337.052 228.785C334.964 229.194 333.468 229.89 332.194 231.622C330.146 234.407 329.767 238.101 327.38 240.883C322.273 246.833 316.244 242.667 312.185 238.049C310.702 236.362 309.594 234.47 307.499 233.356C306.916 233.046 304.262 231.994 304.667 233.42L324.445 280.779C324.785 281.247 327.738 281.105 328.465 281.095C328.75 281.09 329.013 280.968 329.296 280.964C331.92 280.936 334.547 280.997 337.17 280.969V281.572L323.916 281.335L303.053 231.974C304.751 231.242 306.638 231.802 308.179 232.673C313.426 235.643 314.656 243.766 322.324 242.436C325.817 241.829 328.195 238.543 329.623 235.545C331.1 232.444 330.941 229.775 334.706 228.479C335.492 228.209 336.336 227.978 337.171 227.999H337.17Z" fill="#3C1D54" stroke="#512473" stroke-miterlimit="10"/>
<path d="M339.332 227.999V281.568H338.131V228.18C338.416 227.85 338.936 228.044 339.332 228V227.999Z" fill="#3C1D54" stroke="#512473" stroke-miterlimit="10"/>
<path d="M351.705 282.413L351.591 283.656C351.566 283.77 351.361 283.807 351.259 283.824C347.227 284.508 342.853 284.51 338.791 285.191L325.87 283.662L325.877 282.412L335.913 282.528C337.562 282.744 339.297 282.538 340.953 282.654L351.704 282.413H351.705Z" fill="#AE72FF"/>
<path d="M340.259 328.362C340.006 328.569 339.549 328.603 339.393 328.278L339.332 308.655L352.253 307.206L352.835 307.345L358.135 323.462C358.022 323.649 357.871 323.704 357.659 323.708C357.079 323.721 356.04 323.389 355.369 323.343C350.11 322.986 343.759 324.113 340.26 328.361L340.259 328.362ZM340.293 309.618V326.713C340.87 326.362 341.329 325.862 341.888 325.481C345.061 323.319 348.934 322.489 352.728 322.259L356.991 322.498L352.289 308.311L340.293 309.618Z" fill="#512473"/>
<path d="M338.131 308.655V328.337C338.131 328.417 337.928 328.508 337.827 328.525C337.234 328.618 336.944 327.837 336.572 327.491C332.85 324.025 327.158 323.028 322.215 323.343C321.69 323.376 319.679 323.849 319.419 323.552C319.349 323.473 319.348 323.275 319.33 323.161L324.31 307.866L324.729 307.325L338.131 308.655ZM337.17 309.618L325.169 308.306L320.589 322.438C320.568 322.738 320.617 322.567 320.715 322.563C323.19 322.477 324.899 322.166 327.482 322.516C331.007 322.993 334.521 324.31 337.17 326.712V309.618Z" fill="#512473"/>
<path d="M329.51 286.172C329.671 286.012 330.154 286.008 330.385 286.014C331.343 286.041 332.657 286.16 333.625 286.265C334.006 286.306 334.875 286.341 334.983 286.709C335.059 289.189 334.968 291.673 335.003 294.154C335.055 297.822 335.489 302.485 335.135 306.074C335.048 306.958 334.396 306.763 333.621 306.734C332.56 306.694 330.924 306.635 329.911 306.48C329.718 306.45 329.449 306.367 329.382 306.167L329.511 286.172H329.51ZM330.322 287.107V305.526L333.971 305.758L334.171 305.231L334.052 287.418C334.019 287.224 330.749 287.078 330.321 287.108L330.322 287.107Z" fill="#512473"/>
<path d="M342.455 286.806C342.537 286.344 343.53 286.314 343.958 286.266C344.814 286.171 346.669 285.961 347.446 286.016C347.588 286.026 347.73 286.013 347.861 286.084L348.077 286.349C348.164 290.956 348.047 295.567 348.096 300.174C348.114 301.96 348.432 303.916 348.224 305.709C348.172 306.156 348.017 306.412 347.554 306.482C346.515 306.64 344.924 306.693 343.842 306.735C343.591 306.745 342.456 306.805 342.456 306.429V286.806H342.455ZM343.416 287.348V305.767L347.207 305.413C347.314 305.261 347.275 303.313 347.265 302.932C347.257 302.647 347.14 302.384 347.135 302.099C347.033 297.107 347.221 292.099 347.14 287.106L343.416 287.348Z" fill="#512473"/>
<path d="M336.776 287.125C337.079 287.046 338.209 287.349 338.666 287.356C339.858 287.371 341.119 286.489 341.348 288.162C341.408 288.592 341.379 288.745 340.96 288.921C339.668 289.466 337.431 289.387 336.214 288.718C335.978 288.386 336.353 287.232 336.775 287.124L336.776 287.125Z" fill="#AE72FF"/>
<path d="M341.112 306.828C341.057 306.919 339.569 307.361 339.337 307.396C338.652 307.501 336.347 307.273 336.322 306.433C336.269 304.723 337.853 305.634 338.777 305.631C340.014 305.625 341.42 304.585 341.112 306.828Z" fill="#AE72FF"/>
<path d="M351.2 304.357C351.526 304.338 352.133 304.204 352.369 304.438C352.605 304.673 352.631 305.556 352.435 305.835C352.172 306.208 349.852 306.344 349.359 306.13C348.613 304.417 349.892 304.432 351.2 304.357Z" fill="#AE72FF"/>
<path d="M325.361 304.345C325.659 304.256 327.877 304.477 328.157 304.625C328.596 304.856 328.4 306.011 328.041 306.189C327.766 306.325 325.443 306.151 325.225 305.998C324.911 305.776 324.894 304.486 325.361 304.346V304.345Z" fill="#AE72FF"/>
<path d="M328.132 286.173C328.337 286.374 328.358 287.213 328.163 287.412C327.836 287.745 325.356 287.623 325.156 287.26C324.968 286.918 324.922 285.947 325.389 285.831C325.59 285.782 326.627 285.872 326.897 285.905C327.142 285.935 328.01 286.054 328.131 286.173H328.132Z" fill="#AE72FF"/>
<path d="M351.801 285.811C352.738 285.79 352.534 287.236 352.185 287.407C351.836 287.579 349.87 287.687 349.543 287.529C349.081 287.306 349.19 286.26 349.543 286.083C349.814 285.947 351.414 285.82 351.802 285.811H351.801Z" fill="#AE72FF"/>
<path d="M336.535 289.778C336.936 289.657 338.312 290.012 338.916 290.004C339.457 289.997 340.836 289.545 341.146 289.926C341.995 290.971 338.717 290.99 338.192 290.959C337.707 290.93 336.146 290.823 336.203 290.184C336.229 289.999 336.354 289.833 336.535 289.779V289.778Z" fill="#AE72FF"/>
<path d="M336.359 298.573C336.72 298.217 338.252 298.673 338.791 298.673C339.33 298.673 340.832 298.207 341.145 298.591C341.96 299.593 338.962 299.641 338.432 299.624C338.089 299.613 336.699 299.449 336.454 299.322C336.174 299.177 336.142 298.787 336.359 298.573Z" fill="#AE72FF"/>
<path d="M336.528 293.146C336.921 293.01 338.651 293.261 339.278 293.253C339.682 293.247 340.985 292.927 341.202 293.239C341.322 293.41 341.287 293.761 341.137 293.912C340.987 294.064 339.02 294.323 338.685 294.319C338.443 294.315 336.718 294.092 336.573 294.028C336.179 293.856 336.12 293.289 336.53 293.147L336.528 293.146Z" fill="#AE72FF"/>
<path d="M336.526 291.337C336.991 291.183 338.499 291.454 339.158 291.445C339.649 291.44 340.821 291.086 341.145 291.489C341.331 291.719 341.312 291.98 341.063 292.152C340.929 292.246 338.969 292.514 338.684 292.511C338.478 292.509 336.664 292.269 336.568 292.223C336.262 292.077 336.207 291.443 336.526 291.336V291.337Z" fill="#AE72FF"/>
<path d="M336.359 304.533C336.234 304.411 336.18 304.13 336.263 303.962C336.51 303.459 337.724 303.838 338.186 303.846C339.171 303.862 340.176 303.648 341.085 303.829C341.708 304.697 340.469 304.755 339.872 304.802C339.33 304.845 336.664 304.833 336.36 304.534L336.359 304.533Z" fill="#AE72FF"/>
<path d="M336.526 301.811C337.081 301.63 338.153 301.971 338.792 301.966C339.299 301.961 341.259 301.422 341.258 302.215C341.258 302.357 341.17 302.433 341.079 302.521C340.606 302.978 336.935 302.996 336.448 302.577C336.243 302.401 336.254 301.899 336.526 301.811Z" fill="#AE72FF"/>
<path d="M336.65 296.757C337.139 296.59 338.399 296.871 339.039 296.863C339.456 296.857 340.864 296.534 341.083 296.849C341.203 297.022 341.168 297.371 341.018 297.523C340.754 297.79 338.559 297.85 338.074 297.82C337.784 297.803 336.841 297.69 336.643 297.568C336.318 297.37 336.282 296.882 336.651 296.757H336.65Z" fill="#AE72FF"/>
<path d="M336.647 300.124C337.148 299.96 338.391 300.242 339.038 300.233C339.554 300.226 340.552 299.906 340.963 300.217C341.22 300.412 341.172 300.628 340.959 300.835C340.497 301.282 336.974 301.306 336.568 300.893C336.376 300.698 336.368 300.216 336.647 300.124Z" fill="#AE72FF"/>
<path d="M340.864 294.961C341.836 295.928 338.892 296.028 338.433 296.012C338.057 296 336.618 295.872 336.563 295.47C336.416 294.389 338.187 295.061 338.792 295.06C339.273 295.06 340.541 294.638 340.864 294.96V294.961Z" fill="#AE72FF"/>
<path d="M325.243 296.996C325.366 296.96 327.596 297.206 327.806 297.272C328.362 297.449 328.341 298.204 327.622 298.24C327.275 298.258 325.383 298.046 325.124 297.914C324.669 297.684 324.861 297.109 325.243 296.995V296.996Z" fill="#AE72FF"/>
<path d="M351.805 297.009C352.84 296.971 353.001 297.729 352.167 297.982C351.85 298.078 350.152 298.276 349.838 298.249C349.482 298.218 349.157 297.856 349.415 297.513C349.632 297.225 351.358 297.026 351.805 297.009Z" fill="#AE72FF"/>
<path d="M325.364 295.199C325.556 295.157 327.493 295.27 327.714 295.32C327.977 295.378 328.337 295.624 328.268 295.934C328.082 296.647 325.834 296.137 325.245 296.108C324.738 295.87 324.797 295.324 325.364 295.199Z" fill="#AE72FF"/>
<path d="M351.439 295.209C351.74 295.194 352.107 295.068 352.377 295.282C352.581 295.442 352.643 295.94 352.432 296.082C352.146 296.278 349.45 296.441 349.316 296.059V295.61C349.436 295.258 351.036 295.229 351.439 295.209Z" fill="#AE72FF"/>
<path d="M352.396 299.717C352.098 300.01 350.334 299.916 349.85 300.103C349.308 300.074 349.051 299.443 349.503 299.165C349.73 299.026 351.799 298.845 352.123 298.909C352.52 298.986 352.69 299.429 352.396 299.718V299.717Z" fill="#AE72FF"/>
<path d="M349.573 290.93C349.137 290.499 349.651 290.106 350.112 290.026C350.492 289.959 352.122 289.838 352.397 289.966C353.066 290.279 352.543 290.794 351.952 290.906C351.581 290.977 349.778 291.131 349.573 290.93Z" fill="#AE72FF"/>
<path d="M325.234 298.922C325.463 298.847 327.409 298.984 327.714 299.051C328.197 299.157 328.494 299.673 327.962 299.974C327.496 300.237 325.978 299.829 325.362 299.843C324.977 299.738 324.886 299.038 325.234 298.923V298.922Z" fill="#AE72FF"/>
<path d="M325.241 289.898C325.414 289.846 327.447 290.006 327.66 290.075C328.014 290.19 328.155 290.356 328.023 290.758C327.832 291.341 325.662 290.844 325.121 290.814C324.758 290.678 324.86 290.013 325.243 289.898H325.241Z" fill="#AE72FF"/>
<path d="M352.517 288.46C352.596 288.536 352.649 288.722 352.635 288.832C352.538 289.638 350.54 289.248 349.959 289.497C349.319 289.48 349.249 288.716 349.711 288.529C350.265 288.51 352.165 288.119 352.517 288.459V288.46Z" fill="#AE72FF"/>
<path d="M325.24 288.336C325.443 288.275 327.335 288.4 327.593 288.457C328.279 288.611 328.26 289.319 327.593 289.492C327.054 289.295 324.977 289.604 324.91 288.846C324.889 288.616 325.022 288.401 325.239 288.336H325.24Z" fill="#AE72FF"/>
<path d="M325.36 291.826C325.604 291.752 327.564 291.964 327.835 292.065C328.166 292.188 328.285 292.765 327.918 292.944C327.689 293.056 325.67 292.848 325.364 292.735C324.899 292.565 324.934 291.955 325.359 291.825L325.36 291.826Z" fill="#AE72FF"/>
<path d="M349.455 294.543C349.088 294.218 349.436 293.728 349.869 293.633C350.233 293.553 351.654 293.437 352.012 293.481C352.648 293.56 352.563 294.236 352.072 294.396C351.74 294.504 349.644 294.71 349.455 294.543Z" fill="#AE72FF"/>
<path d="M325.186 294.3C324.905 294.022 325.037 293.574 325.46 293.491C325.789 293.427 327.721 293.601 327.959 293.747C328.236 293.918 328.215 294.177 328.105 294.455C327.904 294.754 325.383 294.495 325.186 294.299V294.3Z" fill="#AE72FF"/>
<path d="M352.396 292.615C352.266 292.741 350.234 293.036 349.963 293.016C349.348 292.97 349.195 292.304 349.754 292.074C350.014 291.967 351.713 291.764 352.008 291.793C352.491 291.841 352.738 292.285 352.396 292.616V292.615Z" fill="#AE72FF"/>
<path d="M326.298 301.553C326.122 301.537 325.568 301.429 325.385 301.38C324.962 301.268 324.917 300.626 325.361 300.495C325.643 300.411 327.753 300.57 327.958 300.701C328.232 300.877 328.119 301.295 328.039 301.554C327.472 301.517 326.855 301.605 326.297 301.554L326.298 301.553Z" fill="#AE72FF"/>
<path d="M351.787 302.319C352.582 302.336 352.677 303.107 352.071 303.305C351.827 303.385 349.85 303.512 349.662 303.419C349.567 303.372 349.467 303.255 349.438 303.153L349.477 302.755C349.536 302.641 349.644 302.598 349.753 302.547C350.084 302.394 351.385 302.309 351.786 302.318L351.787 302.319Z" fill="#AE72FF"/>
<path d="M352.41 300.604C353.074 301.675 350.043 301.625 349.541 301.494C348.539 300.305 352.271 300.38 352.41 300.604Z" fill="#AE72FF"/>
<path d="M328.009 303.328C327.749 303.578 325.575 303.415 325.219 303.109C324.447 301.915 327.706 302.38 327.98 302.635C328.152 302.795 328.184 303.16 328.009 303.328Z" fill="#AE72FF"/>
<path d="M340.292 309.618L352.289 308.311L356.991 322.498L352.727 322.259C348.933 322.488 345.061 323.317 341.887 325.481C341.328 325.862 340.87 326.362 340.292 326.713V309.618Z" fill="#512473"/>
<path d="M337.169 309.618V326.713C334.52 324.31 331.007 322.994 327.482 322.517C324.898 322.167 323.188 322.478 320.714 322.564C320.617 322.567 320.568 322.739 320.589 322.438L325.169 308.306L337.169 309.618Z" fill="#512473"/>
<path d="M330.322 287.107C330.75 287.077 334.02 287.223 334.053 287.417L334.172 305.23L333.972 305.757L330.323 305.525V287.106L330.322 287.107Z" fill="#AE72FF"/>
<path d="M343.416 287.347L347.141 287.105C347.221 292.098 347.033 297.105 347.135 302.099C347.141 302.384 347.258 302.647 347.265 302.932C347.275 303.313 347.315 305.259 347.208 305.413L343.416 305.766V287.347Z" fill="#AE72FF"/>
</svg>
