<svg width="679" height="534" viewBox="0 0 679 534" fill="none" xmlns="http://www.w3.org/2000/svg">
<rect x="90.4346" y="0.5" width="498" height="533" rx="28.175" fill="#1F0433" stroke="#AE72FF"/>
<circle cx="160.934" cy="69" r="37.5" stroke="#AE72FF"/>
<rect x="214.935" y="55" width="110" height="28" rx="5" fill="#2E1044"/>
<path d="M524.899 53.0151L519.934 48.1304L522.1 46L527.065 50.8847H550.403C551.249 50.8847 551.934 51.5592 551.934 52.3911C551.934 52.5377 551.912 52.6836 551.87 52.824L548.195 64.8752C548 65.5124 547.404 65.9488 546.728 65.9488H527.962V68.9616H544.805V71.9744H526.43C525.585 71.9744 524.899 71.2998 524.899 70.468V53.0151ZM527.196 78C525.928 78 524.899 76.9883 524.899 75.7404C524.899 74.4923 525.928 73.4808 527.196 73.4808C528.465 73.4808 529.493 74.4923 529.493 75.7404C529.493 76.9883 528.465 78 527.196 78ZM545.571 78C544.302 78 543.274 76.9883 543.274 75.7404C543.274 74.4923 544.302 73.4808 545.571 73.4808C546.839 73.4808 547.867 74.4923 547.867 75.7404C547.867 76.9883 546.839 78 545.571 78Z" fill="#AE72FF"/>
<path d="M484.188 69.0257L490.935 75.7722L488.707 78L481.96 71.2535C479.535 73.1943 476.458 74.3552 473.112 74.3552C465.286 74.3552 458.935 68.0037 458.935 60.1776C458.935 52.3516 465.286 46 473.112 46C480.938 46 487.29 52.3516 487.29 60.1776C487.29 63.5235 486.129 66.5999 484.188 69.0257ZM481.028 67.8569C482.954 65.8717 484.139 63.1637 484.139 60.1776C484.139 54.0852 479.205 49.1506 473.112 49.1506C467.02 49.1506 462.085 54.0852 462.085 60.1776C462.085 66.2701 467.02 71.2047 473.112 71.2047C476.098 71.2047 478.806 70.0193 480.791 68.093L481.028 67.8569Z" fill="#AE72FF"/>
<g opacity="0.21">
<path fill-rule="evenodd" clip-rule="evenodd" d="M151.585 68.896C149.919 67.7049 147.91 67.0514 145.837 67.0514C144.814 67.0514 143.992 67.8731 143.992 68.896C143.992 69.9188 144.814 70.7405 145.837 70.7405C147.91 70.7405 149.919 70.087 151.585 68.896ZM160.331 77.6413C159.139 79.308 158.486 81.3169 158.486 83.3897C158.486 84.4125 159.308 85.2342 160.331 85.2342C161.353 85.2342 162.175 84.4125 162.175 83.3897C162.175 81.3169 161.522 79.308 160.331 77.6413ZM169.076 68.896C170.743 70.087 172.751 70.7405 174.824 70.7405C175.847 70.7405 176.669 69.9188 176.669 68.896C176.669 67.8731 175.847 67.0514 174.824 67.0514C172.751 67.0514 170.743 67.7049 169.076 68.896ZM160.331 65.3731L156.808 68.896L160.331 72.4188L163.853 68.896L160.331 65.3731ZM162.788 62.7976C164.683 60.4271 165.733 57.4669 165.733 54.4023C165.733 51.3376 163.318 49 160.331 49C157.343 49 154.928 51.415 154.928 54.4023C154.928 57.3896 155.978 60.4271 157.873 62.7976L154.234 66.4365C151.864 64.5417 148.903 63.4918 145.839 63.4918C142.774 63.4918 140.435 65.9087 140.435 68.896C140.435 71.8833 142.85 74.2982 145.837 74.2982C148.824 74.2982 151.862 73.2483 154.232 71.3535L157.871 74.9924C155.976 77.3629 154.926 80.3231 154.926 83.3877C154.926 86.4524 157.341 88.79 160.329 88.79C163.316 88.79 165.731 86.375 165.731 83.3877C165.731 80.4004 164.681 77.3629 162.786 74.9924L166.425 71.3535C168.795 73.2483 171.756 74.2982 174.82 74.2982C177.885 74.2982 180.223 71.8833 180.223 68.896C180.223 65.9087 177.808 63.4937 174.82 63.4937C171.833 63.4937 168.795 64.5436 166.425 66.4385L162.786 62.7996L162.788 62.7976ZM160.331 52.5577C159.308 52.5577 158.486 53.3794 158.486 54.4023C158.486 56.475 159.139 58.4839 160.331 60.1506C161.522 58.4839 162.175 56.475 162.175 54.4023C162.175 53.3794 161.353 52.5577 160.331 52.5577Z" fill="#AE72FF"/>
</g>
<rect x="233.6" y="173.5" width="211.75" height="284.825" rx="28.175" fill="#1F0433" stroke="#AE72FF"/>
<rect x="466.7" y="173.5" width="211.75" height="284.825" rx="28.175" fill="#1F0433" stroke="#AE72FF"/>
<rect x="0.5" y="173.5" width="211.75" height="284.825" rx="28.175" fill="#1F0433" stroke="#AE72FF"/>
<rect x="25" y="381" width="162" height="28" rx="5" fill="#2E1044"/>
<rect x="258" y="381" width="162" height="28" rx="5" fill="#2E1044"/>
<rect x="492" y="381" width="162" height="28" rx="5" fill="#2E1044"/>
<rect x="25" y="199" width="162" height="158" rx="17" fill="#2E1044"/>
<rect x="258" y="199" width="162" height="158" rx="17" fill="#2E1044"/>
<rect x="492" y="199" width="162" height="158" rx="17" fill="#2E1044"/>
<path d="M132.681 231.347L131.83 235.956L131.612 240.845L136.276 271.792C136.276 271.792 135.51 287.158 135.362 287.163C135.214 287.168 130.147 301.691 130.147 301.691L118.085 325.449L111.465 325.059L103.651 323.615L82.5191 317.833L69.2607 314.583L66.1296 299.901L63.8899 283.31L64.0237 275.696L64.5519 272.218L66.2036 266.99L69.9518 260.663L76.0331 251.78L87.4828 234.34L89.0538 226.191L94.5102 225.991L104.453 226.425L110.01 227.272L124.682 229.673L131.325 230.737L132.668 231.328L132.681 231.347Z" fill="#AE72FF"/>
<path d="M129.399 240.193L127.374 245.32L125.7 254.38L124.777 262.29L124.402 271.656L121.964 279.726L119.552 287.655L119.067 295.4L118.371 299.875L116.871 307.286L113.384 317.236L110.284 324.825L118.073 325.432L126.972 306.688C126.972 306.688 135.658 278.763 135.111 278.45C134.565 278.137 133.119 255.131 133.088 254.505C133.057 253.879 131.599 240.828 131.599 240.828L129.402 240.177L129.399 240.193Z" fill="#512473"/>
<path d="M87.3189 233.364C84.0186 238.239 80.7627 243.139 77.5354 248.06C74.2836 253.025 70.9055 257.968 67.9777 263.124C66.5722 265.606 65.3415 268.203 64.5727 270.95C63.756 273.868 63.5176 276.926 63.5147 279.945C63.5199 285.659 64.1366 291.421 65.0853 297.065C66.0949 302.997 67.4406 308.878 68.466 314.813C68.6002 315.589 69.8266 315.489 69.6924 314.713C68.807 309.522 67.6674 304.382 66.7159 299.195C65.7276 293.854 65.0912 288.463 64.8353 283.046C64.6804 279.997 64.6949 276.915 65.2046 273.891C65.7114 270.883 66.7748 268.043 68.1867 265.35C70.8258 260.255 74.1718 255.486 77.2939 250.692C80.8962 245.155 84.5587 239.645 88.2628 234.175C88.6939 233.52 87.7817 232.715 87.3347 233.367L87.3189 233.364Z" fill="#512473"/>
<path d="M126.606 239.481C119.116 248.658 113.186 259.103 109.213 270.269C105.298 281.299 103.266 293.003 103.517 304.721C103.646 311.356 104.549 317.954 106.151 324.388C106.336 325.157 107.491 324.734 107.307 323.965C104.493 312.688 104.027 300.898 105.694 289.404C107.362 277.991 111.088 266.927 116.524 256.766C119.643 250.927 123.34 245.407 127.537 240.273C128.041 239.664 127.113 238.856 126.609 239.465L126.606 239.481Z" fill="#512473"/>
<path d="M68.9991 315.288C82.0193 317.971 94.5441 322.717 107.647 325.041C111.268 325.677 114.911 326.105 118.584 326.278C119.362 326.307 119.259 325.097 118.484 325.051C101.54 324.255 85.6921 317.442 69.2266 314.056C68.4531 313.913 68.2344 315.097 69.0049 315.256L68.9991 315.288Z" fill="#512473"/>
<path d="M87.6616 234.424C102.001 237.123 116.446 239.253 130.957 240.759C131.742 240.839 131.964 239.639 131.179 239.559C116.668 238.053 102.223 235.923 87.8832 233.225C87.1098 233.082 86.8881 234.281 87.6616 234.424Z" fill="#512473"/>
<path d="M130.912 240.471C132.096 246.256 133.179 252.055 134.159 257.884C135.125 263.613 136.151 269.368 136.598 275.164C137.036 281.008 136.566 286.732 134.503 292.244C132.485 297.601 129.615 302.62 127.042 307.711C124.056 313.624 121.13 319.564 118.087 325.433C117.729 326.134 118.823 326.663 119.196 325.964C121.921 320.673 124.572 315.335 127.255 310.003C129.886 304.776 132.814 299.62 135.055 294.207C137.225 288.911 138.168 283.453 137.983 277.738C137.79 271.891 136.757 266.085 135.816 260.312C134.733 253.632 133.498 246.972 132.145 240.339C131.992 239.576 130.765 239.676 130.918 240.439L130.912 240.471Z" fill="#512473"/>
<path d="M129.125 239.898C127.035 245.11 125.569 250.569 124.801 256.141C124.429 258.863 124.246 261.621 124.163 264.364C124.081 267.369 123.987 270.355 123.359 273.308C122.184 278.788 119.781 283.927 118.934 289.483C118.088 295.122 118.26 300.818 116.717 306.344C114.99 312.506 112.51 318.512 110.353 324.528C110.087 325.263 111.194 325.81 111.463 325.06C113.353 319.777 115.369 314.518 117.123 309.178C117.985 306.546 118.686 303.9 119.049 301.143C119.435 298.26 119.533 295.34 119.822 292.455C120.087 289.696 120.598 287.016 121.365 284.366C122.166 281.625 123.152 278.934 123.924 276.171C124.684 273.471 125.123 270.744 125.264 267.947C125.407 265.051 125.403 262.161 125.672 259.289C126.279 252.823 127.83 246.465 130.234 240.429C130.532 239.701 129.425 239.153 129.125 239.898Z" fill="#512473"/>
<path d="M135.898 264.377C136.687 269.028 137.452 273.724 137.345 278.454C137.07 290.189 131.503 301.06 126.045 311.429C123.456 316.338 120.884 321.25 118.296 326.158C117.749 326.024 117.202 325.891 116.64 325.754C118.944 321.234 120.589 316.396 122.231 311.574C124.494 304.891 126.757 298.208 129.039 291.513C130.195 288.086 131.369 284.647 132.075 281.088C133.114 275.909 133.165 270.597 132.779 265.351C132.398 259.992 131.6 254.686 130.967 249.362C130.801 247.878 130.631 246.411 130.499 244.917C130.361 243.455 130.07 241.85 130.19 240.404C130.628 240.419 131.343 240.437 131.613 240.83C131.986 241.372 131.979 242.562 132.105 243.206C132.429 244.898 132.75 246.606 133.055 248.311C133.684 251.709 134.295 255.119 134.889 258.526C135.233 260.467 135.573 262.423 135.901 264.361L135.898 264.377Z" fill="#512473"/>
<path d="M74.9901 253.09L114.073 260.311C114.073 260.311 105.768 276.374 104.951 290.686L64.3528 283.184C64.3528 283.184 63.5233 274.51 66.4592 267.544C69.3951 260.577 74.9901 253.09 74.9901 253.09Z" fill="#512473"/>
<path d="M88.3728 233.934C88.6272 231.32 89.1026 228.747 89.6412 226.186C89.7999 225.415 88.6002 225.194 88.4415 225.964C87.8872 228.522 87.4246 231.114 87.1731 233.712C87.0934 234.497 88.3088 234.722 88.3728 233.934Z" fill="#512473"/>
<path d="M127.908 239.769C129.46 236.938 131.056 234.132 132.68 231.347C132.308 231.327 131.921 231.304 131.549 231.285C131.819 231.857 131.652 232.495 131.56 233.082C131.421 233.922 131.317 234.751 131.225 235.6C131.031 237.359 130.918 239.118 130.884 240.891C130.87 241.672 132.097 241.572 132.111 240.791C132.159 238.939 132.286 237.101 132.511 235.266C132.607 234.484 132.737 233.691 132.848 232.912C132.955 232.246 133.01 231.506 132.717 230.88C132.499 230.383 131.869 230.348 131.586 230.818C129.962 233.603 128.35 236.407 126.814 239.241C126.44 239.939 127.534 240.468 127.924 239.772L127.908 239.769Z" fill="#512473"/>
<path d="M89.1073 226.691C96.3414 226.412 103.549 226.895 110.723 227.91C114.317 228.427 117.893 229.039 121.447 229.68C124.942 230.293 128.609 230.676 132.015 231.681C132.773 231.903 132.995 230.703 132.236 230.481C128.768 229.465 125.018 229.082 121.464 228.442C117.828 227.803 114.191 227.163 110.532 226.651C103.402 225.66 96.1912 225.192 88.9917 225.462C88.2019 225.496 88.3047 226.706 89.0915 226.688L89.1073 226.691Z" fill="#512473"/>
<path d="M91.3044 226.02C90.7354 228.657 90.4477 231.362 90.4243 234.052C90.4105 234.833 91.637 234.733 91.6507 233.952C91.6724 231.36 91.9713 228.771 92.504 226.241C92.6627 225.471 91.4631 225.249 91.3044 226.02Z" fill="#512473"/>
<path d="M96.1511 225.937C95.577 228.867 95.1135 231.818 94.7446 234.786C94.6491 235.568 95.8487 235.789 95.9443 235.007C96.3131 232.039 96.7925 229.092 97.3507 226.158C97.4937 225.385 96.294 225.163 96.1511 225.937Z" fill="#512473"/>
<path d="M100.505 226.315C99.9302 229.425 99.4346 232.549 98.9676 235.695C98.8562 236.474 100.056 236.696 100.167 235.917C100.631 232.787 101.143 229.665 101.704 226.537C101.847 225.764 100.632 225.539 100.505 226.315Z" fill="#512473"/>
<path d="M105.361 226.887C104.708 229.982 104.193 233.119 103.824 236.267C103.728 237.049 104.944 237.273 105.024 236.488C105.377 233.338 105.889 230.217 106.561 227.109C106.72 226.338 105.52 226.116 105.361 226.887Z" fill="#512473"/>
<path d="M110.534 227.516C109.766 230.704 108.984 233.874 108.216 237.062C108.025 237.826 109.241 238.051 109.415 237.283C110.184 234.095 110.965 230.926 111.734 227.738C111.924 226.973 110.709 226.749 110.534 227.516Z" fill="#512473"/>
<path d="M116.02 228.303C115.176 231.461 114.562 234.694 114.191 237.939C114.095 238.721 115.311 238.946 115.39 238.16C115.764 234.899 116.359 231.679 117.22 228.525C117.426 227.763 116.226 227.541 116.02 228.303Z" fill="#512473"/>
<path d="M121.004 229.336C120.052 232.457 119.103 235.563 118.166 238.687C117.929 239.443 119.147 239.652 119.366 238.909C120.318 235.788 121.267 232.682 122.204 229.558C122.442 228.802 121.223 228.593 121.004 229.336Z" fill="#512473"/>
<path d="M126.687 229.767C125.327 232.715 124.039 235.709 122.859 238.739C122.576 239.471 123.668 240.015 123.968 239.271C125.149 236.241 126.436 233.246 127.797 230.298C128.127 229.576 127.033 229.047 126.687 229.767Z" fill="#512473"/>
<path d="M93.6438 274.491C93.2792 276.464 84.6818 276.524 79.1413 275.501C73.6008 274.477 73.4021 271.665 73.5655 270.781C73.5655 270.781 74.9191 267.342 80.4596 268.366C86.0001 269.39 94.0083 272.518 93.6438 274.491Z" fill="#AE72FF"/>
<path d="M93.4232 273.832C93.4232 273.832 99.1106 269.643 99.9788 269.803C100.847 269.964 95.3489 274.188 95.3489 274.188C95.3489 274.188 100.329 276.479 99.8657 277.748C99.4026 279.018 92.6336 274.306 92.6336 274.306L93.4419 273.819L93.4232 273.832Z" fill="#AE72FF"/>
<path d="M79.5631 269.067C79.5631 269.067 84.2935 266.17 84.7321 266.447C85.1706 266.724 82.4675 269.603 82.4675 269.603L79.5631 269.067Z" fill="#AE72FF"/>
<path d="M83.1542 275.427C83.1542 275.427 85.0597 277.836 85.2936 277.896C85.5274 277.955 85.3668 275.379 85.3668 275.379L83.1542 275.427Z" fill="#AE72FF"/>
<path d="M290.132 293.352L291.671 296.044L297.028 299.039L307.495 301.951L323.595 304.644L341.453 305.166L356.563 304.012L377.168 300.055L384.174 297.94L386.124 295.083L381.207 280.165L376.426 271.95L373.514 273.818L369.942 275.494L366.536 277.115L363.761 278.022L354.722 278.983L338.54 279.89L318.43 278.928L308.017 277.115L300.6 274.725L295.545 272.582L291.918 285.385L290.132 293.352Z" fill="#AE72FF"/>
<path d="M298.1 270.465L314.007 273.24L355.986 274.916L362.03 272.691L370.575 267.141L373.212 266.812L375.08 268.762L377.003 271.702L374.558 273.213L370.602 275.603L363.761 277.993L358.651 278.955H350.574L344.31 279.532L327.579 279.669L314.968 278.378L308.045 277.087C308.045 277.087 299.501 274.641 299.254 274.641C299.006 274.641 295.572 272.581 295.572 272.581L296.149 269.943L298.072 269.284V270.465H298.1Z" fill="#AE72FF"/>
<path d="M372.113 268.597C373.734 266.042 374.503 262.965 374.201 259.97C373.954 257.608 372.745 255.025 370.41 254.421C368.267 253.871 366.179 255.245 364.393 256.564C362.497 252.8 356.426 252.223 353.843 255.547C354.283 252.525 350.849 250.107 347.826 250.355C344.804 250.602 342.222 252.608 339.832 254.503C339.145 251.124 334.859 249.036 331.782 250.575C330.793 248.487 329.254 246.234 326.974 246.014C325.106 245.849 323.348 247.168 322.441 248.816C321.534 250.465 321.315 252.388 321.095 254.256C319.254 251.976 315.106 252.278 313.622 254.805C314.226 253.761 309.062 251.371 308.43 251.206C306.397 250.657 304.226 250.767 302.358 251.783C298.567 253.871 296.863 259.311 298.677 263.212C297.083 263.13 295.819 264.806 295.874 266.399C295.929 267.993 296.918 269.394 298.072 270.493C302.743 274.888 309.748 275.356 316.15 275.713C325.271 276.207 334.419 276.949 343.568 276.839C351.343 276.757 362.03 277.031 368.679 272.278C370.052 271.289 371.206 270.053 372.085 268.625L372.113 268.597Z" fill="#512473"/>
<path d="M308.347 267.222C308.1 266.81 308.347 266.261 308.76 266.068C309.419 265.766 310.133 266.261 310.573 266.7C311.095 267.25 312.166 267.002 312.331 266.233C312.496 265.381 312.633 264.255 313.375 263.678C314.089 263.074 314.914 263.596 315.573 264.008C316.122 264.337 316.974 264.035 317.111 263.376C317.276 262.607 317.633 261.535 318.458 261.205C318.787 261.068 319.694 261.123 319.749 261.645C319.804 262.222 320.188 262.689 320.793 262.689C321.315 262.689 321.892 262.195 321.837 261.645C321.645 259.914 320.051 258.843 318.348 259.09C316.507 259.365 315.436 261.151 315.051 262.826C315.573 262.607 316.067 262.414 316.589 262.195C315.271 261.425 313.76 260.876 312.359 261.782C311.012 262.662 310.545 264.2 310.271 265.684C310.848 265.519 311.452 265.381 312.029 265.217C310.93 264.008 309.007 263.431 307.551 264.337C306.232 265.134 305.683 266.975 306.507 268.294C307.221 269.447 309.034 268.376 308.32 267.222H308.347Z" fill="#AE72FF"/>
<path d="M326.645 269.584C326.645 269.584 326.7 269.474 326.672 269.529C326.672 269.529 326.782 269.392 326.837 269.365C326.865 269.337 327.029 269.282 327.112 269.255C327.002 269.255 327.167 269.255 327.194 269.255C327.469 269.255 327.194 269.255 327.359 269.255C327.551 269.282 327.661 269.337 327.826 269.447C328.156 269.639 328.376 270.024 328.705 270.244C329.255 270.628 329.997 270.601 330.491 270.134C330.766 269.887 330.931 269.639 331.233 269.529C331.453 269.42 331.81 269.392 332.03 269.447C332.662 269.584 333.046 270.024 333.156 270.683C333.266 271.233 333.925 271.562 334.447 271.425C335.024 271.26 335.299 270.683 335.189 270.134C334.942 268.87 333.898 267.744 332.662 267.441C332.03 267.277 331.315 267.304 330.683 267.524C330.354 267.634 330.052 267.799 329.777 267.991C329.639 268.101 329.502 268.211 329.365 268.321C329.31 268.376 329.255 268.431 329.2 268.513C329.063 268.65 329.09 268.65 329.282 268.513H329.832C329.832 268.513 329.997 268.705 329.832 268.485C329.749 268.376 329.667 268.293 329.584 268.211C329.392 268.018 329.172 267.854 328.98 267.716C328.486 267.414 327.881 267.222 327.304 267.222C326.095 267.222 325.051 267.991 324.667 269.09C324.474 269.612 324.887 270.244 325.409 270.381C325.985 270.546 326.507 270.189 326.7 269.639L326.645 269.584Z" fill="#AE72FF"/>
<path d="M343.87 262.497C344.364 261.563 344.996 260.162 346.178 259.997C347.414 259.832 348.458 261.041 349.035 261.975C349.419 262.607 350.491 262.69 350.848 261.975C351.068 261.563 351.507 261.316 351.919 261.453C352.469 261.646 352.634 262.332 352.716 262.854C352.799 263.404 353.513 263.733 354.007 263.596C354.612 263.431 354.832 262.854 354.749 262.305C354.557 261.014 353.705 259.722 352.359 259.42C351.068 259.118 349.639 259.75 349.035 260.931H350.848C349.886 259.338 348.156 257.717 346.123 257.909C344.09 258.101 342.936 259.777 342.057 261.453C341.425 262.662 343.238 263.706 343.87 262.525V262.497Z" fill="#AE72FF"/>
<path d="M360.74 265.986C360.685 266.206 360.74 265.739 360.74 265.986C360.63 266.151 360.795 265.794 360.74 265.986C360.712 265.986 360.547 266.123 360.74 265.986C360.767 265.986 360.795 265.958 360.849 265.931C360.712 265.986 360.685 265.986 360.767 265.958C360.767 265.958 360.932 265.903 360.959 265.903C360.822 265.903 360.795 265.903 360.877 265.903C360.904 265.903 360.959 265.903 360.987 265.903C361.069 265.903 361.097 265.903 360.987 265.903C360.904 265.903 360.904 265.903 360.987 265.903C360.987 265.903 361.042 265.903 361.069 265.903C360.959 265.848 360.959 265.848 361.069 265.903C361.069 265.903 361.289 266.041 361.179 265.958C361.069 265.876 361.234 266.041 361.262 266.041C361.316 266.096 361.426 266.233 361.316 266.096C361.371 266.178 361.426 266.233 361.454 266.316C361.454 266.316 361.591 266.618 361.509 266.398C361.564 266.563 361.619 266.728 361.674 266.92C361.838 267.662 362.91 267.991 363.432 267.387C363.569 267.25 363.679 267.085 363.817 266.947C363.899 266.865 363.954 266.81 364.036 266.755C364.256 266.563 363.899 266.838 364.119 266.673C364.201 266.618 364.284 266.563 364.366 266.535C364.586 266.398 364.201 266.563 364.448 266.508C364.476 266.508 364.778 266.453 364.531 266.48H364.806C364.806 266.508 364.558 266.425 364.806 266.508C364.641 266.453 364.696 266.48 364.806 266.535C364.668 266.453 364.723 266.48 364.806 266.563C364.751 266.398 364.943 266.673 364.806 266.563C364.806 266.563 364.806 266.618 364.833 266.618C364.888 266.728 364.888 266.7 364.833 266.563V266.618C364.833 266.7 364.833 266.7 364.833 266.618C364.833 266.535 364.833 266.535 364.833 266.618C364.833 266.453 364.861 266.425 364.833 266.508C364.833 266.59 364.833 266.563 364.888 266.425C364.888 266.48 364.833 266.508 364.806 266.535C364.476 266.975 364.723 267.717 365.19 267.964C365.74 268.266 366.262 268.046 366.619 267.579C367.498 266.398 366.509 264.832 365.3 264.42C363.981 263.953 362.663 264.914 361.866 265.876C362.443 266.041 363.047 266.178 363.624 266.343C363.322 265.079 362.443 263.898 361.069 263.761C359.833 263.651 358.569 264.612 358.597 265.903C358.597 266.453 359.064 266.975 359.641 266.947C360.19 266.947 360.712 266.48 360.685 265.903L360.74 265.986Z" fill="#AE72FF"/>
<path d="M299.172 267.334C297.029 267.801 294.282 269.202 294.859 271.867C295.491 274.697 299.474 275.878 301.809 276.73C308.788 279.285 316.343 279.862 323.678 280.301C332.003 280.796 340.355 280.906 348.679 280.576C355.63 280.329 363.185 280.329 369.724 277.636C372.334 276.565 376.097 274.642 376.977 271.702C377.911 268.543 374.861 266.729 372.416 265.713C371.18 265.191 370.63 267.224 371.867 267.746C372.856 268.158 374.037 268.653 374.669 269.559C375.768 271.18 373.954 272.691 372.746 273.57C370.658 275.109 368.213 276.098 365.712 276.757C360.108 278.213 354.091 278.296 348.322 278.488C342.03 278.708 335.766 278.708 329.475 278.488C323.403 278.268 317.277 277.966 311.288 276.977C308.156 276.455 305.024 275.713 302.057 274.587C300.656 274.065 298.622 273.433 297.524 272.334C295.848 270.603 298.21 269.669 299.694 269.339C301.013 269.065 300.463 267.032 299.144 267.306L299.172 267.334Z" fill="#512473"/>
<path d="M294.941 270.656C293.292 276.179 291.754 281.701 290.325 287.278C289.803 289.283 288.677 291.866 289.089 293.954C289.473 295.877 291.204 297.031 292.825 297.883C301.809 302.718 312.276 304.311 322.304 305.3C333.019 306.344 343.843 306.289 354.53 305.136C359.64 304.586 364.723 303.789 369.778 302.773C372.361 302.251 374.916 301.646 377.471 300.987C379.806 300.383 382.416 299.916 384.559 298.817C389.586 296.262 385.768 289.778 384.312 286.097C382.059 280.437 379.559 274.887 376.866 269.448C376.262 268.239 374.449 269.31 375.053 270.519C377.278 274.997 379.394 279.558 381.289 284.201C382.141 286.261 382.965 288.322 383.735 290.382C384.586 292.663 386.262 295.85 383.185 297.141C379.037 298.899 374.229 299.696 369.833 300.63C364.97 301.646 360.08 302.443 355.162 302.993C345.766 304.037 336.288 304.256 326.865 303.597C317.689 302.965 308.238 301.811 299.584 298.624C297.248 297.773 294.776 296.784 292.715 295.41C291.314 294.476 290.984 293.432 291.314 291.838C291.589 290.492 291.974 289.146 292.331 287.827C293.759 282.25 295.298 276.701 296.946 271.206C297.331 269.915 295.298 269.365 294.913 270.656H294.941Z" fill="#512473"/>
<path d="M343.102 296.923C343.102 299.341 339.723 301.346 335.547 301.374C331.343 301.374 327.937 299.451 327.937 297.005C327.937 294.588 331.316 292.582 335.492 292.555C339.695 292.555 343.102 294.478 343.102 296.923Z" fill="#512473"/>
<path d="M342.552 288.544C341.618 290.522 339.722 291.594 338.294 290.934C336.865 290.275 336.453 288.132 337.387 286.154C338.321 284.176 340.217 283.104 341.645 283.764C343.074 284.423 343.486 286.566 342.552 288.544Z" fill="#512473"/>
<path d="M347.277 292.883C346.068 294.23 344.31 294.587 343.348 293.735C342.387 292.856 342.579 291.07 343.815 289.724C345.052 288.378 346.783 288.021 347.744 288.872C348.706 289.751 348.513 291.537 347.277 292.883Z" fill="#512473"/>
<path d="M329.255 287.692C329.64 289.835 331.233 291.346 332.772 291.071C334.31 290.796 335.244 288.818 334.86 286.648C334.475 284.505 332.881 282.994 331.343 283.269C329.804 283.543 328.87 285.521 329.255 287.692Z" fill="#512473"/>
<path d="M324.09 291.649C324.942 293.242 326.535 294.039 327.689 293.434C328.843 292.83 329.09 291.044 328.238 289.451C327.387 287.857 325.793 287.061 324.639 287.665C323.485 288.269 323.238 290.055 324.09 291.649Z" fill="#512473"/>
<path d="M523.006 304.422C523.006 304.422 524.973 304.716 524.967 304.602C524.962 304.489 532.243 297.461 532.243 297.461L543.311 287.315L553.763 280.623C553.763 280.623 559.996 278.283 560.092 278.257C560.187 278.23 562.63 278.765 562.63 278.765L565.302 278.686L572.553 279.633L580.558 280.334L588.24 282.522C588.24 282.522 586.448 286.555 586.156 286.661C585.865 286.766 577.73 295.029 577.436 295.315C577.143 295.601 565.052 307.489 564.851 307.737C564.649 307.985 557.739 312.486 557.646 312.473C557.553 312.46 534.058 309.354 534 309.28C533.941 309.207 523.621 304.792 523.621 304.792L522.994 304.426L523.006 304.422Z" fill="#AE72FF"/>
<path d="M564.877 307.743C564.877 307.743 568.839 306.616 569.35 306.515C569.861 306.413 590.17 291.331 590.17 291.331L599.708 282.196C599.708 282.196 599.352 280.575 599.177 280.263C599.002 279.952 593.997 274.9 593.997 274.9L587.12 271.298L586.897 269.691L607.513 249.279L613.884 241.462L615.861 237.122L613.894 234.583L610.431 234.816L604.651 238.481L597.659 245.019C597.659 245.019 582.718 261.525 582.081 262.149C581.444 262.773 577.386 268.364 577.386 268.364L563.535 269.358L555.09 271.677L554.974 272.889L556.481 273.565L559.641 273.442L563.356 272.909L565.914 273.207L568.576 273.233L571.325 273.479L574.042 273.939L576.492 274.498L580.588 275.541L583.734 276.486C583.734 276.486 585.527 277.084 585.634 277.145C585.74 277.205 587.214 277.621 587.31 277.736C587.406 277.851 588.429 279.571 588.429 279.571C588.429 279.571 589.041 281.097 589.064 281.18C589.087 281.264 589.047 282.66 589.047 282.66L587.012 284.36L586.171 286.669L564.88 307.755L564.877 307.743Z" fill="#AE72FF"/>
<path d="M588.475 281.65L571.152 279.248L563.263 278.643L555.141 280.27L550.702 282.092L541.552 289.274L524.037 305.281C524.037 305.281 523.662 305.923 523.006 304.423C522.35 302.922 524.355 300.551 524.355 300.551L541.227 283.603L549.111 276.295L554.953 272.856L562.578 272.597L571.982 273.44L580.913 274.759L585.424 275.817L588.001 278.009L588.478 281.662L588.475 281.65Z" fill="#512473"/>
<path d="M560.622 312.477C569.664 304.619 578.587 296.333 586.474 287.304C589.246 284.132 591.383 278.927 587.133 275.924C585.178 274.55 582.565 274.049 580.286 273.507C577.529 272.853 574.73 272.377 571.902 272.076C566.363 271.48 560.335 271.25 554.952 272.856C549.545 274.469 545.422 278.372 541.391 282.147C537.002 286.251 532.769 290.504 528.662 294.89C526.771 296.923 524.495 298.959 522.982 301.299C521.863 303.017 522.219 305.062 523.65 306.49C525.616 308.465 528.967 308.661 531.553 309.157C534.996 309.828 538.458 310.429 541.931 310.977C545.271 311.509 548.619 311.975 551.969 312.403C554.665 312.74 558.426 313.914 560.905 312.386C562.024 311.694 560.987 309.927 559.856 310.622C558.685 311.354 557.193 310.968 555.897 310.824C554.585 310.671 553.285 310.515 551.969 310.35C549.231 309.999 546.497 309.62 543.762 309.191C538.606 308.4 533.41 307.556 528.309 306.404C527.268 306.164 526.095 305.909 525.268 305.187C523.902 303.997 524.384 302.761 525.385 301.55C527.024 299.574 528.824 297.72 530.578 295.84C534.102 292.088 537.727 288.425 541.463 284.885C545.146 281.385 548.937 277.394 553.709 275.429C558.251 273.566 563.419 273.559 568.247 273.811C573.232 274.071 578.218 274.896 582.995 276.317C585.158 276.954 587.461 277.913 587.521 280.513C587.603 283.287 585.387 285.448 583.644 287.324C575.913 295.656 567.727 303.548 559.154 311.007C558.16 311.87 559.63 313.301 560.624 312.438L560.622 312.477Z" fill="#512473"/>
<path d="M525.319 305.186C530.032 300.954 534.757 296.719 539.471 292.487C543.702 288.696 547.913 284.692 553.05 282.14C558.447 279.465 564.413 279.328 570.277 280.129C576.208 280.938 582.103 282.321 587.941 283.631C589.226 283.919 589.759 281.938 588.474 281.65C582.351 280.278 576.165 278.82 569.92 278.034C564.204 277.307 558.432 277.493 553.093 279.87C547.731 282.253 543.334 286.282 539.009 290.151C533.954 294.682 528.9 299.212 523.848 303.755C522.872 304.639 524.331 306.073 525.319 305.186Z" fill="#512473"/>
<path d="M560.413 312.649C571.772 306.362 582.65 299.168 592.54 290.757C594.892 288.764 597.469 286.748 599.498 284.421C601.106 282.568 600.718 280.455 599.467 278.516C596.577 274.062 591.289 272.23 586.894 269.678C585.75 269.018 584.738 270.796 585.881 271.457C589.851 273.767 594.87 275.416 597.569 279.357C598.55 280.781 598.916 281.976 597.699 283.337C596.778 284.372 595.632 285.29 594.606 286.226C592.51 288.123 590.37 289.954 588.178 291.736C579.207 299.01 569.467 305.302 559.368 310.897C558.209 311.536 559.258 313.3 560.417 312.661L560.413 312.649Z" fill="#512473"/>
<path d="M587.102 271.277C591.694 266.603 596.271 261.922 600.86 257.237C605.481 252.53 610.336 247.926 613.999 242.392C615.296 240.432 617.659 237.128 615.567 234.88C613.872 233.05 610.959 233.747 608.999 234.644C605.854 236.085 603.281 238.677 600.759 240.986C598.032 243.479 595.393 246.064 592.837 248.715C587.116 254.648 581.79 260.946 576.799 267.486C576.007 268.525 577.469 269.97 578.27 268.917C585.946 258.843 594.428 249.369 603.873 240.926C606.129 238.909 608.912 236.105 612.11 235.791C612.858 235.714 613.526 235.761 614.019 236.344C614.704 237.157 614.075 238.228 613.655 239.036C612.913 240.445 611.975 241.793 611.032 243.078C607.516 247.841 603.166 251.947 599.029 256.174C594.569 260.721 590.121 265.265 585.661 269.812C584.74 270.758 586.199 272.192 587.131 271.243L587.102 271.277Z" fill="#512473"/>
<path d="M577.531 267.208C574.003 267.535 570.46 267.853 566.924 268.196C563.825 268.495 560.676 268.847 557.704 269.842C552.141 271.729 548.018 276.055 543.783 279.924C542.81 280.82 544.28 282.251 545.253 281.355C549.333 277.618 553.333 273.313 558.775 271.639C564.726 269.813 571.358 269.814 577.512 269.24C578.811 269.114 578.827 267.07 577.513 267.187L577.531 267.208Z" fill="#512473"/>
<path d="M609.016 240.733C609.688 241.498 609.021 243.182 607.524 244.504C606.024 245.814 604.275 246.268 603.604 245.503C602.932 244.739 603.598 243.055 605.095 241.733C606.593 240.411 608.344 239.969 609.016 240.733Z" fill="#512473"/>
<path d="M537.796 309.277C537.796 309.277 552.791 293.576 556.123 292.584C559.459 291.604 558.547 294.497 544.95 310.43L537.796 309.277Z" fill="#512473"/>
<path d="M528.993 307.538C528.993 307.538 540.518 295.458 543.082 294.703C545.645 293.948 544.946 296.167 534.484 308.429L528.981 307.541L528.993 307.538Z" fill="#512473"/>
<path d="M548.74 310.967C548.74 310.967 560.265 298.887 562.828 298.132C565.392 297.376 564.693 299.595 554.231 311.858L548.728 310.97L548.74 310.967Z" fill="#512473"/>
</svg>
