<svg xmlns="http://www.w3.org/2000/svg" width="120" height="120" fill="none"><circle cx="60" cy="60" r="60" fill="#F1EAFF"/><rect width="28" height="45" x="65" y="47" fill="#E0CFFF" rx="3"/><rect width="28" height="45" x="27" y="47" fill="#E0CFFF" rx="3"/><rect width="24" height="5" x="29" y="85" fill="#FBF9FF" opacity=".34" rx="2.5"/><rect width="24" height="5" x="67" y="85" fill="#FBF9FF" opacity=".34" rx="2.5"/><g filter="url(#a)"><rect width="34" height="54" x="43" y="29" fill="#634976" rx="3"/></g><path fill="#8863A2" d="M53.913 51.587c-.925 0-1.676-.751-1.676-1.676v-2.235a1.677 1.677 0 0 1 3.352 0v2.235c0 .925-.75 1.676-1.676 1.676m15.085-1.676v-2.235a1.677 1.677 0 0 0-3.352 0v2.235a1.677 1.677 0 0 0 3.352 0m1.307 12.673a1.673 1.673 0 0 0 .749-2.248c-.11-.221-2.787-5.397-10.439-5.397-7.651 0-10.329 5.176-10.438 5.397a1.667 1.667 0 0 0 .737 2.233 1.683 1.683 0 0 0 2.253-.716c.078-.145 1.944-3.56 7.448-3.56s7.37 3.413 7.44 3.543a1.674 1.674 0 0 0 2.248.75z"/><defs><filter id="a" width="42" height="62" x="39" y="25" color-interpolation-filters="sRGB" filterUnits="userSpaceOnUse"><feFlood flood-opacity="0" result="BackgroundImageFix"/><feColorMatrix in="SourceAlpha" result="hardAlpha" values="0 0 0 0 0 0 0 0 0 0 0 0 0 0 0 0 0 0 127 0"/><feOffset/><feGaussianBlur stdDeviation="2"/><feComposite in2="hardAlpha" operator="out"/><feColorMatrix values="0 0 0 0 0.305882 0 0 0 0 0.2 0 0 0 0 0.447059 0 0 0 0.22 0"/><feBlend in2="BackgroundImageFix" result="effect1_dropShadow_3048_9396"/><feBlend in="SourceGraphic" in2="effect1_dropShadow_3048_9396" result="shape"/></filter></defs></svg>