<svg width="120" height="120" viewBox="0 0 120 120" fill="none" xmlns="http://www.w3.org/2000/svg">
<g clip-path="url(#clip0_11297_2188)">
<mask id="mask0_11297_2188" style="mask-type:luminance" maskUnits="userSpaceOnUse" x="0" y="0" width="120" height="120">
<path d="M120 0H0V120H120V0Z" fill="white"/>
</mask>
<g mask="url(#mask0_11297_2188)">
<path d="M60 120C93.137 120 120 93.137 120 60C120 26.863 93.137 0 60 0C26.863 0 0 26.863 0 60C0 93.137 26.863 120 60 120Z" fill="#F8F5FF"/>
<path d="M82.9991 36H58.9991C57.3423 36 55.9991 37.3432 55.9991 39V80C55.9991 81.6569 57.3423 83 58.9991 83H82.9991C84.656 83 85.9991 81.6569 85.9991 80V39C85.9991 37.3432 84.656 36 82.9991 36Z" fill="#E5D3F2"/>
<path d="M75.0009 34.0008H49.0009C47.344 34.0008 46.0009 35.344 46.0009 37.0008V82.0008C46.0009 83.6576 47.344 85.0008 49.0009 85.0008H75.0009C76.6577 85.0008 78.0009 83.6576 78.0009 82.0008V37.0008C78.0009 35.344 76.6577 34.0008 75.0009 34.0008Z" fill="#C4AFD3"/>
<g filter="url(#filter0_d_11297_2188)">
<path d="M65.0008 33H37.0009C35.344 33 34.0009 34.3432 34.0009 36V84C34.0009 85.6568 35.344 87 37.0009 87H65.0008C66.6577 87 68.0008 85.6568 68.0008 84V36C68.0008 34.3432 66.6577 33 65.0008 33Z" fill="#634976"/>
</g>
<path opacity="0.22" d="M62.0008 76.0009H40.0009C38.344 76.0009 37.0009 77.344 37.0009 79.0009C37.0009 80.6577 38.344 82.0009 40.0009 82.0009H62.0008C63.6577 82.0009 65.0008 80.6577 65.0008 79.0009C65.0008 77.344 63.6577 76.0009 62.0008 76.0009Z" fill="#A177C1"/>
<path fill-rule="evenodd" clip-rule="evenodd" d="M46.3261 53.3963C45.4553 52.774 44.4056 52.4324 43.3226 52.4324C42.7882 52.4324 42.3589 52.8619 42.3589 53.3963C42.3589 53.9306 42.7882 54.3601 43.3226 54.3601C44.4056 54.3601 45.4553 54.0186 46.3261 53.3963ZM50.8955 57.9656C50.2732 58.8365 49.9318 59.8862 49.9318 60.9691C49.9318 61.5036 50.3611 61.9328 50.8955 61.9328C51.4298 61.9328 51.8593 61.5036 51.8593 60.9691C51.8593 59.8862 51.5178 58.8365 50.8955 57.9656ZM55.465 53.3963C56.3357 54.0186 57.3854 54.3601 58.4684 54.3601C59.0028 54.3601 59.432 53.9306 59.432 53.3963C59.432 52.8619 59.0028 52.4324 58.4684 52.4324C57.3854 52.4324 56.3357 52.774 55.465 53.3963ZM50.8955 51.5556L49.0548 53.3963L50.8955 55.237L52.7362 53.3963L50.8955 51.5556ZM52.1795 50.21C53.1696 48.9714 53.7181 47.4247 53.7181 45.8234C53.7181 44.2222 52.4563 43.0008 50.8955 43.0008C49.3346 43.0008 48.0728 44.2626 48.0728 45.8234C48.0728 47.3843 48.6214 48.9714 49.6115 50.21L47.7102 52.1113C46.4716 51.1212 44.9249 50.5726 43.3237 50.5726C41.7224 50.5726 40.5 51.8354 40.5 53.3963C40.5 54.9571 41.7618 56.2189 43.3226 56.2189C44.8835 56.2189 46.4706 55.6704 47.7092 54.6803L49.6105 56.5816C48.6204 57.8202 48.0718 59.3669 48.0718 60.968C48.0718 62.5694 49.3337 63.7908 50.8945 63.7908C52.4554 63.7908 53.717 62.529 53.717 60.968C53.717 59.4073 53.1686 57.8202 52.1785 56.5816L54.0798 54.6803C55.3184 55.6704 56.8651 56.2189 58.4663 56.2189C60.0676 56.2189 61.289 54.9571 61.289 53.3963C61.289 51.8354 60.0272 50.5736 58.4663 50.5736C56.9056 50.5736 55.3184 51.1222 54.0798 52.1123L52.1785 50.211L52.1795 50.21ZM50.8955 44.8597C50.3611 44.8597 49.9318 45.289 49.9318 45.8234C49.9318 46.9064 50.2732 47.9561 50.8955 48.8269C51.5178 47.9561 51.8593 46.9064 51.8593 45.8234C51.8593 45.289 51.4298 44.8597 50.8955 44.8597Z" fill="#715386"/>
</g>
</g>
<defs>
<filter id="filter0_d_11297_2188" x="30.0009" y="29" width="42" height="62" filterUnits="userSpaceOnUse" color-interpolation-filters="sRGB">
<feFlood flood-opacity="0" result="BackgroundImageFix"/>
<feColorMatrix in="SourceAlpha" type="matrix" values="0 0 0 0 0 0 0 0 0 0 0 0 0 0 0 0 0 0 127 0" result="hardAlpha"/>
<feOffset/>
<feGaussianBlur stdDeviation="2"/>
<feComposite in2="hardAlpha" operator="out"/>
<feColorMatrix type="matrix" values="0 0 0 0 0.305882 0 0 0 0 0.2 0 0 0 0 0.447059 0 0 0 0.22 0"/>
<feBlend mode="normal" in2="BackgroundImageFix" result="effect1_dropShadow_11297_2188"/>
<feBlend mode="normal" in="SourceGraphic" in2="effect1_dropShadow_11297_2188" result="shape"/>
</filter>
<clipPath id="clip0_11297_2188">
<rect width="120" height="120" fill="white"/>
</clipPath>
</defs>
</svg>
