<svg width="120" height="120" viewBox="0 0 120 120" fill="none" xmlns="http://www.w3.org/2000/svg">
<g clip-path="url(#clip0_11297_2166)">
<path d="M60 120C93.1371 120 120 93.1371 120 60C120 26.8629 93.1371 0 60 0C26.8629 0 0 26.8629 0 60C0 93.1371 26.8629 120 60 120Z" fill="#F1EAFF"/>
<path d="M90 47H68C66.3431 47 65 48.3431 65 50V89C65 90.6569 66.3431 92 68 92H90C91.6569 92 93 90.6569 93 89V50C93 48.3431 91.6569 47 90 47Z" fill="#E0CFFF"/>
<path d="M52 47H30C28.3431 47 27 48.3431 27 50V89C27 90.6569 28.3431 92 30 92H52C53.6569 92 55 90.6569 55 89V50C55 48.3431 53.6569 47 52 47Z" fill="#E0CFFF"/>
<path opacity="0.34" d="M50.5 85H31.5C30.1193 85 29 86.1193 29 87.5C29 88.8807 30.1193 90 31.5 90H50.5C51.8807 90 53 88.8807 53 87.5C53 86.1193 51.8807 85 50.5 85Z" fill="#FBF9FF"/>
<path opacity="0.34" d="M88.5 85H69.5C68.1193 85 67 86.1193 67 87.5C67 88.8807 68.1193 90 69.5 90H88.5C89.8807 90 91 88.8807 91 87.5C91 86.1193 89.8807 85 88.5 85Z" fill="#FBF9FF"/>
<g filter="url(#filter0_d_11297_2166)">
<path d="M74 29H46C44.3431 29 43 30.3431 43 32V80C43 81.6569 44.3431 83 46 83H74C75.6569 83 77 81.6569 77 80V32C77 30.3431 75.6569 29 74 29Z" fill="#634976"/>
</g>
<path d="M53.913 51.587C52.988 51.587 52.237 50.836 52.237 49.911V47.676C52.252 47.2415 52.4352 46.8298 52.7479 46.5278C53.0605 46.2257 53.4783 46.0569 53.913 46.0569C54.3478 46.0569 54.7655 46.2257 55.0782 46.5278C55.3909 46.8298 55.574 47.2415 55.589 47.676V49.911C55.589 50.836 54.839 51.587 53.913 51.587ZM68.998 49.911V47.676C68.983 47.2415 68.7999 46.8298 68.4872 46.5278C68.1745 46.2257 67.7568 46.0569 67.322 46.0569C66.8873 46.0569 66.4695 46.2257 66.1569 46.5278C65.8442 46.8298 65.661 47.2415 65.646 47.676V49.911C65.661 50.3455 65.8442 50.7571 66.1569 51.0592C66.4695 51.3612 66.8873 51.5301 67.322 51.5301C67.7568 51.5301 68.1745 51.3612 68.4872 51.0592C68.7999 50.7571 68.983 50.3455 68.998 49.911ZM70.305 62.584C70.502 62.4858 70.6777 62.3497 70.8221 62.1835C70.9664 62.0173 71.0765 61.8243 71.1461 61.6154C71.2157 61.4066 71.2434 61.1861 71.2276 60.9665C71.2118 60.747 71.1528 60.5327 71.054 60.336C70.944 60.115 68.267 54.939 60.615 54.939C52.964 54.939 50.286 60.115 50.177 60.336C49.9798 60.73 49.9466 61.1861 50.0847 61.6046C50.2228 62.023 50.521 62.3698 50.914 62.569C51.3083 62.7697 51.7658 62.8072 52.1874 62.6732C52.6091 62.5392 52.961 62.2445 53.167 61.853C53.245 61.708 55.111 58.293 60.615 58.293C66.119 58.293 67.985 61.706 68.055 61.836C68.1532 62.033 68.2893 62.2087 68.4555 62.3531C68.6217 62.4974 68.8147 62.6076 69.0235 62.6772C69.2323 62.7469 69.4528 62.7747 69.6723 62.759C69.8919 62.7434 70.1062 62.6846 70.303 62.586L70.305 62.584Z" fill="#8863A2"/>
</g>
<defs>
<filter id="filter0_d_11297_2166" x="39" y="25" width="42" height="62" filterUnits="userSpaceOnUse" color-interpolation-filters="sRGB">
<feFlood flood-opacity="0" result="BackgroundImageFix"/>
<feColorMatrix in="SourceAlpha" type="matrix" values="0 0 0 0 0 0 0 0 0 0 0 0 0 0 0 0 0 0 127 0" result="hardAlpha"/>
<feOffset/>
<feGaussianBlur stdDeviation="2"/>
<feComposite in2="hardAlpha" operator="out"/>
<feColorMatrix type="matrix" values="0 0 0 0 0.305882 0 0 0 0 0.2 0 0 0 0 0.447059 0 0 0 0.22 0"/>
<feBlend mode="normal" in2="BackgroundImageFix" result="effect1_dropShadow_11297_2166"/>
<feBlend mode="normal" in="SourceGraphic" in2="effect1_dropShadow_11297_2166" result="shape"/>
</filter>
<clipPath id="clip0_11297_2166">
<rect width="120" height="120" fill="white"/>
</clipPath>
</defs>
</svg>
