<svg width="120" height="120" viewBox="0 0 120 120" fill="none" xmlns="http://www.w3.org/2000/svg">
<g clip-path="url(#clip0_11297_2153)">
<path d="M60 120C93.1371 120 120 93.1371 120 60C120 26.8629 93.1371 0 60 0C26.8629 0 0 26.8629 0 60C0 93.1371 26.8629 120 60 120Z" fill="#F1EAFF"/>
<path d="M89.7269 44.0001H68.2724C66.4649 44.0001 64.9996 45.4653 64.9996 47.2728V85.7273C64.9996 87.5348 66.4649 89.0001 68.2724 89.0001H89.7269C91.5344 89.0001 92.9997 87.5348 92.9997 85.7273V47.2728C92.9997 45.4653 91.5344 44.0001 89.7269 44.0001Z" fill="#E0CFFF"/>
<path d="M51.7273 44.0001H30.2727C28.4652 44.0001 27 45.4653 27 47.2728V85.7273C27 87.5348 28.4652 89.0001 30.2727 89.0001H51.7273C53.5348 89.0001 55 87.5348 55 85.7273V47.2728C55 45.4653 53.5348 44.0001 51.7273 44.0001Z" fill="#E0CFFF"/>
<path opacity="0.34" d="M50.5007 82H31.5007C30.12 82 29.0007 83.1193 29.0007 84.5C29.0007 85.8807 30.12 87 31.5007 87H50.5007C51.8814 87 53.0007 85.8807 53.0007 84.5C53.0007 83.1193 51.8814 82 50.5007 82Z" fill="#FBF9FF"/>
<path opacity="0.34" d="M88.5004 82H69.5004C68.1197 82 67.0004 83.1193 67.0004 84.5C67.0004 85.8807 68.1197 87 69.5004 87H88.5004C89.8811 87 91.0004 85.8807 91.0004 84.5C91.0004 83.1193 89.8811 82 88.5004 82Z" fill="#FBF9FF"/>
<g filter="url(#filter0_d_11297_2153)">
<path d="M73.7266 25.9999H46.272C44.4645 25.9999 42.9993 27.4652 42.9993 29.2727V76.7272C42.9993 78.5347 44.4645 79.9999 46.272 79.9999H73.7266C75.5341 79.9999 76.9993 78.5347 76.9993 76.7272V29.2727C76.9993 27.4652 75.5341 25.9999 73.7266 25.9999Z" fill="#634976"/>
</g>
<path opacity="0.22" d="M70.9993 69H48.9993C47.3424 69 45.9993 70.3431 45.9993 72C45.9993 73.6569 47.3424 75 48.9993 75H70.9993C72.6562 75 73.9993 73.6569 73.9993 72C73.9993 70.3431 72.6562 69 70.9993 69Z" fill="#A177C1"/>
<path fill-rule="evenodd" clip-rule="evenodd" d="M55.9855 46.8954C55.2403 46.3628 54.342 46.0707 53.4154 46.0707C52.9581 46.0707 52.5907 46.4381 52.5907 46.8954C52.5907 47.3527 52.9581 47.72 53.4154 47.72C54.342 47.72 55.2403 47.4279 55.9855 46.8954ZM59.8954 50.8054C59.3629 51.5506 59.0708 52.4488 59.0708 53.3754C59.0708 53.8327 59.4381 54.2002 59.8954 54.2002C60.3527 54.2002 60.7201 53.8327 60.7201 53.3754C60.7201 52.4488 60.428 51.5506 59.8954 50.8054ZM63.8054 46.8954C64.5506 47.4279 65.4488 47.72 66.3755 47.72C66.8328 47.72 67.2002 47.3527 67.2002 46.8954C67.2002 46.4381 66.8328 46.0707 66.3755 46.0707C65.4488 46.0707 64.5506 46.3628 63.8054 46.8954ZM59.8954 45.3203L58.3203 46.8954L59.8954 48.4705L61.4705 46.8954L59.8954 45.3203ZM60.9941 44.1688C61.8413 43.109 62.3108 41.7855 62.3108 40.4153C62.3108 39.0451 61.2311 37.9999 59.8954 37.9999C58.5598 37.9999 57.4801 39.0797 57.4801 40.4153C57.4801 41.7509 57.9495 43.109 58.7967 44.1688L57.1697 45.7958C56.1099 44.9486 54.7864 44.4792 53.4163 44.4792C52.046 44.4792 51 45.5597 51 46.8954C51 48.231 52.0797 49.3107 53.4154 49.3107C54.751 49.3107 56.1091 48.8413 57.1689 47.9941L58.7959 49.6211C57.9487 50.6809 57.4792 52.0044 57.4792 53.3746C57.4792 54.7448 58.5589 55.7899 59.8946 55.7899C61.2302 55.7899 62.3099 54.7103 62.3099 53.3746C62.3099 52.039 61.8405 50.6809 60.9933 49.6211L62.6203 47.9941C63.6801 48.8413 65.0036 49.3107 66.3737 49.3107C67.7439 49.3107 68.7891 48.231 68.7891 46.8954C68.7891 45.5597 67.7095 44.48 66.3737 44.48C65.0381 44.48 63.6801 44.9495 62.6203 45.7967L60.9933 44.1697L60.9941 44.1688ZM59.8954 39.5906C59.4381 39.5906 59.0708 39.958 59.0708 40.4153C59.0708 41.342 59.3629 42.2402 59.8954 42.9854C60.428 42.2402 60.7201 41.342 60.7201 40.4153C60.7201 39.958 60.3527 39.5906 59.8954 39.5906Z" fill="#715386"/>
</g>
<defs>
<filter id="filter0_d_11297_2153" x="38.9993" y="21.9999" width="42" height="62.0001" filterUnits="userSpaceOnUse" color-interpolation-filters="sRGB">
<feFlood flood-opacity="0" result="BackgroundImageFix"/>
<feColorMatrix in="SourceAlpha" type="matrix" values="0 0 0 0 0 0 0 0 0 0 0 0 0 0 0 0 0 0 127 0" result="hardAlpha"/>
<feOffset/>
<feGaussianBlur stdDeviation="2"/>
<feComposite in2="hardAlpha" operator="out"/>
<feColorMatrix type="matrix" values="0 0 0 0 0.305882 0 0 0 0 0.2 0 0 0 0 0.447059 0 0 0 0.22 0"/>
<feBlend mode="normal" in2="BackgroundImageFix" result="effect1_dropShadow_11297_2153"/>
<feBlend mode="normal" in="SourceGraphic" in2="effect1_dropShadow_11297_2153" result="shape"/>
</filter>
<clipPath id="clip0_11297_2153">
<rect width="120" height="120" fill="white"/>
</clipPath>
</defs>
</svg>
