<svg xmlns="http://www.w3.org/2000/svg" width="138" height="80" fill="none"><g clip-path="url(#a)"><path fill="#FBF9FF" d="M69.782 77.703c17.97 0 32.536-14.567 32.536-32.536S87.751 12.63 69.782 12.63 37.246 27.198 37.246 45.167s14.567 32.536 32.536 32.536"/><path fill="#ECE2FF" d="M16.751 48.495a5.624 5.624 0 0 1 5.623-5.624h93.251a5.624 5.624 0 0 1 5.624 5.624v15.547a5.624 5.624 0 0 1-5.624 5.623h-93.25a5.623 5.623 0 0 1-5.624-5.623z" opacity=".49"/><path fill="#F6F2FF" d="M24.407 69.664h89.569v4.712a5.624 5.624 0 0 1-5.623 5.623H30.03a5.624 5.624 0 0 1-5.623-5.623z" opacity=".49"/><g filter="url(#b)"><path fill="#fff" d="M10.627 35.563a6.854 6.854 0 0 1 6.854-6.854H120.52a6.853 6.853 0 0 1 6.853 6.854v16.149a6.853 6.853 0 0 1-6.853 6.853H17.48a6.854 6.854 0 0 1-6.853-6.853z"/></g><mask id="c" width="24" height="23" x="15" y="32" maskUnits="userSpaceOnUse" style="mask-type:luminance"><path fill="#fff" d="M33.182 32.918H20.941c-2.737 0-4.955 2.185-4.955 4.88v12.056c0 2.695 2.218 4.88 4.955 4.88h12.241c2.737 0 4.955-2.185 4.955-4.88V37.798c0-2.695-2.218-4.88-4.955-4.88"/></mask><g mask="url(#c)"><path fill="#E2D2FF" d="M33.183 32.918H20.94c-2.736 0-4.955 2.185-4.955 4.88v12.056c0 2.695 2.219 4.88 4.955 4.88h12.242c2.736 0 4.955-2.185 4.955-4.88V37.798c0-2.695-2.219-4.88-4.955-4.88"/><path fill="#E2D2FF" d="M38.138 32.918H15.986v21.816h22.152z"/><path fill="#F0E7FF" d="m22.333 43.4 1.334-1.333 3.666 3.667 2.334-2.334 2 2v-6.067h-9.334zm0 1.886v3.38H24.4l1.99-1.99-2.723-2.723zm3.953 3.38h5.38v-1.38l-2-2zM21.666 38h10.667c.369 0 .667.298.667.667v10.666a.667.667 0 0 1-.667.667H21.667a.667.667 0 0 1-.667-.667V38.667c0-.369.299-.667.667-.667m7.667 4.667a1 1 0 1 1 0-2 1 1 0 0 1 0 2"/></g><path fill="#E2D2FF" d="M64.215 36.746H45.46c-.845 0-1.53.686-1.53 1.531v3.062c0 .846.685 1.532 1.53 1.532h18.756c.846 0 1.531-.686 1.531-1.532v-3.062c0-.845-.685-1.53-1.53-1.53M100.579 45.168h-55.12c-.845 0-1.53.685-1.53 1.531v3.062c0 .846.685 1.531 1.53 1.531h55.12a1.53 1.53 0 0 0 1.531-1.53v-3.063a1.53 1.53 0 0 0-1.531-1.531" opacity=".49"/><path fill="#AE72FF" d="M67.55 1.976a1.8 1.8 0 0 1 2.9 0l1.215 1.653a1.8 1.8 0 0 0 1.723.714l2.028-.31a1.8 1.8 0 0 1 2.052 2.051l-.311 2.028a1.8 1.8 0 0 0 .714 1.723l1.653 1.214a1.8 1.8 0 0 1 0 2.902l-1.653 1.214a1.8 1.8 0 0 0-.714 1.723l.31 2.028a1.8 1.8 0 0 1-2.051 2.052l-2.028-.311a1.8 1.8 0 0 0-1.723.714l-1.214 1.653a1.8 1.8 0 0 1-2.902 0l-1.214-1.653a1.8 1.8 0 0 0-1.723-.714l-2.028.31a1.8 1.8 0 0 1-2.052-2.051l.311-2.028a1.8 1.8 0 0 0-.714-1.723l-1.653-1.214a1.8 1.8 0 0 1 0-2.902l1.653-1.214a1.8 1.8 0 0 0 .714-1.723l-.31-2.028a1.8 1.8 0 0 1 2.051-2.051l2.028.31a1.8 1.8 0 0 0 1.723-.714z"/><path fill="#FBF9FF" fill-rule="evenodd" d="M69.09 7.645a.537.537 0 0 0-.539.538c0 .605.191 1.191.538 1.677a2.9 2.9 0 0 0 .538-1.677.537.537 0 0 0-.537-.538m.716 2.987a3.92 3.92 0 0 0 .86-2.449 1.56 1.56 0 0 0-1.576-1.576c-.872 0-1.577.705-1.577 1.576s.307 1.758.86 2.45l-1.062 1.06a3.92 3.92 0 0 0-2.45-.858 1.56 1.56 0 0 0-1.575 1.576c0 .871.705 1.576 1.576 1.576s1.758-.306 2.449-.859l1.061 1.062a3.92 3.92 0 0 0-.859 2.449 1.56 1.56 0 0 0 1.576 1.576c.872 0 1.576-.705 1.576-1.576s-.306-1.758-.859-2.45l1.062-1.061a3.92 3.92 0 0 0 2.449.859 1.56 1.56 0 0 0 1.576-1.576c0-.871-.705-1.576-1.576-1.576s-1.758.306-2.449.859zm-.716.752-1.028 1.027 1.028 1.028 1.027-1.027zm2.55 1.027a2.9 2.9 0 0 0 1.677.538c.298 0 .538-.24.538-.538a.537.537 0 0 0-.538-.538c-.605 0-1.19.19-1.676.538m-2.55 2.551a2.9 2.9 0 0 0-.539 1.677c0 .298.24.538.538.538s.538-.24.538-.538c0-.605-.19-1.191-.537-1.677m-2.552-2.551a2.9 2.9 0 0 0-1.676-.538.537.537 0 0 0-.538.538c0 .298.24.538.538.538.605 0 1.19-.19 1.676-.538" clip-rule="evenodd"/></g><defs><clipPath id="a"><path fill="#fff" d="M0 0h138v80H0z"/></clipPath><filter id="b" width="137.339" height="50.449" x=".33" y="20.115" color-interpolation-filters="sRGB" filterUnits="userSpaceOnUse"><feFlood flood-opacity="0" result="BackgroundImageFix"/><feColorMatrix in="SourceAlpha" result="hardAlpha" values="0 0 0 0 0 0 0 0 0 0 0 0 0 0 0 0 0 0 127 0"/><feOffset dy="1.703"/><feGaussianBlur stdDeviation="5.148"/><feComposite in2="hardAlpha" operator="out"/><feColorMatrix values="0 0 0 0 0.823529 0 0 0 0 0.721569 0 0 0 0 1 0 0 0 0.4 0"/><feBlend in2="BackgroundImageFix" result="effect1_dropShadow_6069_32465"/><feBlend in="SourceGraphic" in2="effect1_dropShadow_6069_32465" result="shape"/></filter></defs></svg>