<svg width="100" height="100" viewBox="0 0 100 100" fill="none" xmlns="http://www.w3.org/2000/svg">
<g clip-path="url(#clip0_1252_9173)">
<path d="M50.567 77.3353C63.588 77.3353 74.1437 66.7743 74.1437 53.7467C74.1437 40.7191 63.588 30.1582 50.567 30.1582C37.5459 30.1582 26.9902 40.7191 26.9902 53.7467C26.9902 66.7743 37.5459 77.3353 50.567 77.3353Z" fill="#FBF9FF"/>
<path opacity="0.49" d="M12.1387 56.1591C12.1387 53.9074 13.9631 52.082 16.2136 52.082H83.7865C86.0372 52.082 87.8619 53.9074 87.8619 56.1591V67.4309C87.8619 69.6825 86.0372 71.5079 83.7865 71.5079H16.2136C13.9631 71.5079 12.1387 69.6825 12.1387 67.4309V56.1591Z" fill="#ECE2FF"/>
<path opacity="0.49" d="M17.6855 71.5068H82.5912V74.9227C82.5912 77.1744 80.7666 78.9997 78.5158 78.9997H21.7605C19.51 78.9997 17.6855 77.1744 17.6855 74.9227V71.5068Z" fill="#F6F2FF"/>
<path d="M51.1061 37.9218C55.7766 37.9218 59.5627 34.1337 59.5627 29.4609C59.5627 24.7881 55.7766 21 51.1061 21C46.4356 21 42.6494 24.7881 42.6494 29.4609C42.6494 34.1337 46.4356 37.9218 51.1061 37.9218Z" fill="#B6F0B1"/>
<path d="M54.2026 31.7512L54.3524 31.9487C54.4145 32.0305 54.3977 32.1466 54.3149 32.208C54.2825 32.232 54.2431 32.245 54.2026 32.245H48.2097C48.1063 32.245 48.0225 32.1621 48.0225 32.0598C48.0225 32.0197 48.0356 31.9807 48.0599 31.9487L48.2097 31.7512V28.5412C48.2097 26.9047 49.5513 25.5781 51.2062 25.5781C52.861 25.5781 54.2026 26.9047 54.2026 28.5412V31.7512ZM50.2698 32.6154H52.1425C52.1425 33.1268 51.7233 33.5413 51.2062 33.5413C50.689 33.5413 50.2698 33.1268 50.2698 32.6154Z" fill="#EFFBEE"/>
<path d="M51.0074 35.3334L49.0176 37.3242L51.0074 39.315L52.9972 37.3242L51.0074 35.3334Z" fill="#B6F0B1"/>
<g filter="url(#filter0_d_1252_9173)">
<path d="M7.70117 46.7823C7.70117 44.0381 9.92465 41.8135 12.6675 41.8135H87.3338C90.0765 41.8135 92.2997 44.0381 92.2997 46.7823V58.4906C92.2997 61.2348 90.0765 63.4594 87.3338 63.4594H12.6675C9.92465 63.4594 7.70117 61.2348 7.70117 58.4906V46.7823Z" fill="white"/>
</g>
<mask id="mask0_1252_9173" style="mask-type:luminance" maskUnits="userSpaceOnUse" x="11" y="44" width="17" height="17">
<path d="M24.0453 44.8662H15.1746C13.1915 44.8662 11.584 46.4502 11.584 48.4041V57.1448C11.584 59.0988 13.1915 60.6827 15.1746 60.6827H24.0453C26.0283 60.6827 27.6358 59.0988 27.6358 57.1448V48.4041C27.6358 46.4502 26.0283 44.8662 24.0453 44.8662Z" fill="white"/>
</mask>
<g mask="url(#mask0_1252_9173)">
<path d="M24.0453 44.8662H15.1746C13.1915 44.8662 11.584 46.4502 11.584 48.4041V57.1448C11.584 59.0988 13.1915 60.6827 15.1746 60.6827H24.0453C26.0283 60.6827 27.6358 59.0988 27.6358 57.1448V48.4041C27.6358 46.4502 26.0283 44.8662 24.0453 44.8662Z" fill="#E2D2FF"/>
<path d="M27.6358 44.8662H11.584V60.6827H27.6358V44.8662Z" fill="#E2D2FF"/>
</g>
<mask id="mask1_1252_9173" style="mask-type:luminance" maskUnits="userSpaceOnUse" x="14" y="47" width="11" height="11">
<path d="M24.3428 47.918H14.9121V57.6309H24.3428V47.918Z" fill="white"/>
</mask>
<g mask="url(#mask1_1252_9173)">
<path fill-rule="evenodd" clip-rule="evenodd" d="M17.5548 52.7745C17.1598 52.4837 16.6837 52.3242 16.1925 52.3242C15.95 52.3242 15.7553 52.5248 15.7553 52.7745C15.7553 53.0241 15.95 53.2247 16.1925 53.2247C16.6837 53.2247 17.1598 53.0652 17.5548 52.7745ZM19.6275 54.9091C19.3452 55.3159 19.1903 55.8063 19.1903 56.3122C19.1903 56.5619 19.385 56.7625 19.6275 56.7625C19.8699 56.7625 20.0646 56.5619 20.0646 56.3122C20.0646 55.8063 19.9097 55.3159 19.6275 54.9091ZM21.7001 52.7745C22.0951 53.0652 22.5712 53.2247 23.0625 53.2247C23.3049 53.2247 23.4996 53.0241 23.4996 52.7745C23.4996 52.5248 23.3049 52.3242 23.0625 52.3242C22.5712 52.3242 22.0951 52.4837 21.7001 52.7745ZM19.6275 51.9145L18.7925 52.7745L19.6275 53.6344L20.4624 52.7745L19.6275 51.9145ZM20.2099 51.2859C20.659 50.7073 20.9078 49.9847 20.9078 49.2366C20.9078 48.4885 20.3354 47.918 19.6275 47.918C18.9195 47.918 18.3471 48.5075 18.3471 49.2366C18.3471 49.9658 18.5959 50.7073 19.045 51.2859L18.1826 52.1741C17.6208 51.7116 16.9192 51.4553 16.1929 51.4553C15.4666 51.4553 14.9121 52.0452 14.9121 52.7745C14.9121 53.5036 15.4844 54.0931 16.1925 54.0931C16.9004 54.0931 17.6204 53.8368 18.1822 53.3743L19.0446 54.2625C18.5955 54.8411 18.3467 55.5637 18.3467 56.3118C18.3467 57.0599 18.919 57.6304 19.627 57.6304C20.335 57.6304 20.9073 57.0409 20.9073 56.3118C20.9073 55.5826 20.6585 54.8411 20.2094 54.2625L21.0718 53.3743C21.6336 53.8368 22.3352 54.0931 23.0615 54.0931C23.7878 54.0931 24.3419 53.5036 24.3419 52.7745C24.3419 52.0452 23.7695 51.4558 23.0615 51.4558C22.3536 51.4558 21.6336 51.712 21.0718 52.1746L20.2099 51.2859ZM19.6275 48.7864C19.385 48.7864 19.1903 48.987 19.1903 49.2366C19.1903 49.7426 19.3452 50.233 19.6275 50.6398C19.9097 50.233 20.0646 49.7426 20.0646 49.2366C20.0646 48.987 19.8699 48.7864 19.6275 48.7864Z" fill="#F0E7FF"/>
</g>
<path opacity="0.49" d="M46.5328 47.6406H32.9415C32.3288 47.6406 31.832 48.1376 31.832 48.7507V50.9708C31.832 51.5838 32.3288 52.0808 32.9415 52.0808H46.5328C47.1456 52.0808 47.6423 51.5838 47.6423 50.9708V48.7507C47.6423 48.1376 47.1456 47.6406 46.5328 47.6406Z" fill="#E2D2FF"/>
<path opacity="0.49" d="M72.8833 53.7461H32.9415C32.3288 53.7461 31.832 54.2431 31.832 54.8561V57.0762C31.832 57.6893 32.3288 58.1863 32.9415 58.1863H72.8833C73.496 58.1863 73.9928 57.6893 73.9928 57.0762V54.8561C73.9928 54.2431 73.496 53.7461 72.8833 53.7461Z" fill="#E2D2FF"/>
</g>
<defs>
<filter id="filter0_d_1252_9173" x="-2.59547" y="33.2198" width="105.192" height="42.2388" filterUnits="userSpaceOnUse" color-interpolation-filters="sRGB">
<feFlood flood-opacity="0" result="BackgroundImageFix"/>
<feColorMatrix in="SourceAlpha" type="matrix" values="0 0 0 0 0 0 0 0 0 0 0 0 0 0 0 0 0 0 127 0" result="hardAlpha"/>
<feOffset dy="1.70292"/>
<feGaussianBlur stdDeviation="5.14832"/>
<feComposite in2="hardAlpha" operator="out"/>
<feColorMatrix type="matrix" values="0 0 0 0 0.823529 0 0 0 0 0.721569 0 0 0 0 1 0 0 0 0.4 0"/>
<feBlend mode="normal" in2="BackgroundImageFix" result="effect1_dropShadow_1252_9173"/>
<feBlend mode="normal" in="SourceGraphic" in2="effect1_dropShadow_1252_9173" result="shape"/>
</filter>
<clipPath id="clip0_1252_9173">
<rect width="100" height="58" fill="white" transform="translate(0 21)"/>
</clipPath>
</defs>
</svg>
