<svg width="173" height="175" viewBox="0 0 173 175" fill="none" xmlns="http://www.w3.org/2000/svg">
<g filter="url(#filter0_d_4979_8898)">
<path d="M66.0856 10.862C73.4171 7.27339 77.0828 5.47908 80.916 4.77202C84.3118 4.14565 87.7908 4.14565 91.1866 4.77202C95.0198 5.47908 98.6856 7.27339 106.017 10.862L133.542 24.3352C140.874 27.9239 144.539 29.7182 147.473 32.3235C150.072 34.6315 152.241 37.3962 153.877 40.4853C155.723 43.9723 156.628 48.0041 158.439 56.0676L165.237 86.3417C167.048 94.4053 167.953 98.437 167.779 102.393C167.624 105.897 166.85 109.345 165.493 112.57C163.962 116.212 161.425 119.445 156.352 125.911L137.304 150.189C132.23 156.656 129.693 159.889 126.542 162.216C123.749 164.278 120.615 165.813 117.288 166.746C113.533 167.799 109.464 167.799 101.327 167.799H70.7759C62.6386 167.799 58.57 167.799 54.8146 166.746C51.4877 165.813 48.3532 164.278 45.561 162.216C42.4093 159.889 39.8725 156.656 34.799 150.189L15.7509 125.911C10.6774 119.445 8.14063 116.212 6.60947 112.57C5.25303 109.345 4.47888 105.897 4.32404 102.393C4.14925 98.437 5.05461 94.4053 6.86532 86.3417L13.6635 56.0676C15.4742 48.0041 16.3796 43.9723 18.2257 40.4853C19.8611 37.3962 22.0303 34.6315 24.6293 32.3235C27.5632 29.7182 31.2289 27.9239 38.5603 24.3352L66.0856 10.862Z" fill="url(#paint0_linear_4979_8898)"/>
<path d="M82.4766 13.2349C84.8405 12.7988 87.2621 12.7988 89.626 13.2349C92.0248 13.6774 94.464 14.7883 102.233 18.5913L129.759 32.064C137.521 35.8633 139.908 37.113 141.76 38.7573C143.585 40.3782 145.115 42.3264 146.271 44.5112C147.452 46.7416 148.128 49.4254 150.043 57.9526L156.841 88.2271C158.755 96.7501 159.294 99.4719 159.182 102.013C159.072 104.503 158.521 106.95 157.561 109.235C156.583 111.561 154.947 113.762 149.582 120.6L130.533 144.877C125.497 151.296 123.655 153.542 121.802 155.01L121.43 155.294C119.473 156.74 117.282 157.81 114.964 158.46C112.616 159.119 109.951 159.194 101.327 159.194H70.7764C62.1526 159.194 59.4869 159.119 57.1387 158.46C54.9656 157.851 52.9046 156.872 51.043 155.561L50.6729 155.294L50.3008 155.01C48.448 153.542 46.6052 151.296 41.5693 144.877L22.5205 120.6C17.1553 113.762 15.52 111.561 14.542 109.235C13.5811 106.95 13.0309 104.503 12.9209 102.013C12.8086 99.4719 13.3478 96.7501 15.2617 88.2271L22.0596 57.9526C23.9744 49.4254 24.6502 46.7416 25.8311 44.5112C26.9878 42.3264 28.5175 40.3782 30.3428 38.7573C32.1944 37.113 34.5817 35.8634 42.3438 32.064L69.8691 18.5913C77.6385 14.7883 80.0778 13.6774 82.4766 13.2349Z" stroke="white" stroke-opacity="0.4" stroke-width="17.2102"/>
<path d="M140.474 56.3943C139.264 51.0843 138.694 49.0443 138.154 48.0143L137.974 47.6943C137.374 46.6243 136.554 45.5943 135.584 44.7143L135.364 44.5243C134.274 43.6343 131.524 42.2343 125.464 39.2743L95.2744 24.5043C90.4944 22.1843 88.6144 21.3743 87.5544 21.1843L87.2644 21.1343C86.0444 20.9443 84.8044 20.9543 83.5844 21.1743L83.3044 21.2343C81.9644 21.5443 79.1744 22.8543 73.1344 25.8143L42.9544 40.5943C38.2344 42.9243 36.4144 43.9243 35.5744 44.6643L35.2844 44.9243C34.3844 45.7643 33.5844 46.8043 32.9544 47.9743L32.8144 48.2443C32.1544 49.6243 31.3944 52.8643 29.9444 59.3243L22.4944 92.5243C21.3244 97.8443 20.9544 99.9443 21.0044 101.114L21.0244 101.434C21.1144 102.774 21.4244 104.084 21.9444 105.324L22.0644 105.604C22.7144 106.984 24.7244 109.594 28.7844 114.774L49.6744 141.394C52.4144 144.854 54.1044 146.904 55.0944 147.714L55.5244 148.034C56.5644 148.754 57.6944 149.304 58.9044 149.644L59.1744 149.714C60.5144 150.024 63.5844 150.074 70.2644 150.074H100.814C108.074 150.074 110.874 150.014 112.124 149.664L112.464 149.564C113.584 149.224 114.724 148.654 115.754 147.894L115.984 147.714C117.084 146.824 119.044 144.404 123.244 139.054L144.124 112.434C147.444 108.164 148.664 106.454 149.104 105.394L149.244 105.054C149.704 103.884 149.994 102.554 150.064 101.184V100.874C150.064 99.3343 149.384 96.0743 147.924 89.6043L140.464 56.4043L140.474 56.3943Z" fill="url(#paint1_linear_4979_8898)"/>
<mask id="mask0_4979_8898" style="mask-type:alpha" maskUnits="userSpaceOnUse" x="21" y="22" width="130" height="130">
<path d="M140.474 57.3943C139.264 52.0843 138.694 50.0443 138.154 49.0143L137.974 48.6943C137.374 47.6243 136.554 46.5943 135.584 45.7143L135.364 45.5243C134.274 44.6343 131.524 43.2343 125.464 40.2743L95.2744 25.5043C90.4944 23.1843 88.6144 22.3743 87.5544 22.1843L87.2644 22.1343C86.0444 21.9443 84.8044 21.9543 83.5844 22.1743L83.3044 22.2343C81.9644 22.5443 79.1744 23.8543 73.1344 26.8143L42.9544 41.5943C38.2344 43.9243 36.4144 44.9243 35.5744 45.6643L35.2844 45.9243C34.3844 46.7643 33.5844 47.8043 32.9544 48.9743L32.8144 49.2443C32.1544 50.6243 31.3944 53.8643 29.9444 60.3243L22.4944 93.5243C21.3244 98.8443 20.9544 100.944 21.0044 102.114L21.0244 102.434C21.1144 103.774 21.4244 105.084 21.9444 106.324L22.0644 106.604C22.7144 107.984 24.7244 110.594 28.7844 115.774L49.6744 142.394C52.4144 145.854 54.1044 147.904 55.0944 148.714L55.5244 149.034C56.5644 149.754 57.6944 150.304 58.9044 150.644L59.1744 150.714C60.5144 151.024 63.5844 151.074 70.2644 151.074H100.814C108.074 151.074 110.874 151.014 112.124 150.664L112.464 150.564C113.584 150.224 114.724 149.654 115.754 148.894L115.984 148.714C117.084 147.824 119.044 145.404 123.244 140.054L144.124 113.434C147.444 109.164 148.664 107.454 149.104 106.394L149.244 106.054C149.704 104.884 149.994 103.554 150.064 102.184V101.874C150.064 100.334 149.384 97.0743 147.924 90.6043L140.464 57.4043L140.474 57.3943Z" fill="url(#paint2_linear_4979_8898)"/>
</mask>
<g mask="url(#mask0_4979_8898)">
<g opacity="0.52" filter="url(#filter1_d_4979_8898)">
<path d="M123.971 158C123.971 158 125.288 140.76 110.28 133.862C110.28 133.862 98.1696 127.761 84.7439 133.862C84.7439 133.862 78.686 117.233 59.9933 119.355C59.9933 119.355 49.7288 120.069 47.0966 124.845C47.0966 124.845 45.1405 120.768 41.2283 116.947C32.6629 108.581 18.6009 109.064 10.9163 118.257C7.4033 122.457 5.10788 128.825 7.21368 138.372C7.21368 138.372 -17.8413 137.487 -21 158H123.971Z" fill="url(#paint3_linear_4979_8898)" shape-rendering="crispEdges"/>
</g>
<path opacity="0.6" d="M-4.95299 137C-4.95299 137 -7.06078 110.223 16.9513 99.5096C16.9513 99.5096 36.3286 90.0336 57.8097 99.5096C57.8097 99.5096 67.5024 73.6818 97.4107 76.9772C97.4107 76.9772 113.834 78.086 118.046 85.5044C118.046 85.5044 121.175 79.1714 127.435 73.2367C141.139 60.2428 163.639 60.9924 175.934 75.2709C181.555 81.7952 185.227 91.6851 181.858 106.514C181.858 106.514 221.946 105.14 227 137H-4.95299Z" fill="url(#paint4_linear_4979_8898)"/>
<path d="M122.033 51.4384L126.698 52.3317L127.46 56.9668C127.468 57.0111 127.532 57.0111 127.54 56.9668L128.302 52.3317L132.968 51.4384C133.011 51.4301 133.011 51.3691 132.968 51.3606L128.302 50.4489L127.54 46.0329C127.532 45.989 127.468 45.989 127.461 46.0329L126.698 50.4489L122.033 51.3606C121.989 51.3691 121.989 51.4301 122.033 51.4384Z" fill="#FFD3B3"/>
<path opacity="0.7" d="M26.0266 92.9551L29.844 93.6048L30.4676 96.9757C30.4735 97.0081 30.5266 97.0081 30.5324 96.9757L31.1561 93.6048L34.9735 92.9551C35.0087 92.949 35.009 92.9046 34.9735 92.8985L31.1558 92.2353L30.5322 89.0239C30.526 88.992 30.4738 88.992 30.4674 89.0239L29.8437 92.2353L26.026 92.8985C25.9911 92.9046 25.9914 92.949 26.0266 92.9551Z" fill="white"/>
</g>
<path opacity="0.7" d="M112.027 43.9551L115.844 44.6048L116.468 47.9757C116.474 48.0081 116.527 48.0081 116.532 47.9757L117.156 44.6048L120.974 43.9551C121.009 43.949 121.009 43.9046 120.974 43.8985L117.156 43.2353L116.532 40.0239C116.526 39.992 116.474 39.992 116.467 40.0239L115.844 43.2353L112.026 43.8985C111.991 43.9046 111.991 43.949 112.027 43.9551Z" fill="white"/>
<path d="M86 136C110.853 136 131 115.853 131 91C131 66.1472 110.853 46 86 46C61.1472 46 41 66.1472 41 91C41 115.853 61.1472 136 86 136Z" fill="#FFF4EC"/>
<path d="M48.9284 117.827C46.7128 114.662 44.9954 111.245 43.6834 107.612C41.4953 101.552 40.6761 95.3035 41.1137 88.8963C41.3828 84.9582 42.2503 81.1341 43.7028 77.4531C44.6377 76.3559 45.4113 75.142 46.2203 73.9541C46.351 73.7623 46.2692 73.5651 46.2048 73.3718C46.0986 73.0535 46.0914 72.7251 46.2928 72.4545C46.8533 71.7012 47.6391 71.2463 48.5466 71.1544C49.426 71.0652 49.8771 71.803 49.4788 72.6049C49.2109 73.1442 49.0314 73.7453 48.5833 74.1812C48.3202 74.4371 48.2948 74.7304 48.3757 75.0582C48.3849 75.753 47.9899 76.3144 47.7453 76.9224C47.3903 77.8048 47.0965 78.7063 46.8131 79.6129C46.2645 81.4401 45.7609 83.2781 45.436 85.1607C45.206 86.6848 44.9686 88.2048 44.9775 89.756C44.9814 90.446 45.2484 90.6814 45.9127 90.6677C47.2227 90.6408 48.5344 90.6381 49.8443 90.6689C50.4991 90.6844 50.7515 90.438 50.8406 89.7805C51.3558 85.974 52.3695 82.3118 54.1499 78.8862C54.674 77.8779 55.2465 76.8985 55.8721 75.9505C57.2091 73.8047 58.627 71.715 60.2427 69.7649C60.4641 69.4976 60.6466 69.1906 60.9984 69.0641C62.0007 68.7348 62.7009 67.818 63.7602 67.6146C65.3997 67.2993 66.7201 66.2922 68.1929 65.6162C68.2988 65.5675 68.4497 65.5317 68.4885 65.4405C69.0151 64.206 70.2799 64.3465 71.2521 63.9563C71.9929 63.6589 72.7407 63.2785 73.2437 62.7287C74.7744 61.0555 76.734 59.8557 78.1901 58.112C78.5869 57.6368 78.7656 57.1278 78.7342 56.5094C78.6764 55.3701 79.083 55.0465 80.1423 55.3725C80.3762 55.4444 80.5322 55.3812 80.6987 55.2499C81.5999 54.539 82.4155 53.7598 82.8024 52.6346C83.3083 51.1645 84.3722 49.9846 84.9354 48.5414C85.0684 48.2007 85.3775 48.0035 85.7707 48.0118C87.4836 48.0491 89.1986 47.9226 90.9101 48.0814C93.7987 48.204 96.61 48.7934 99.3778 49.5732C105.313 51.2453 110.768 53.8997 115.588 57.7746C116.845 58.7853 118.199 59.7059 119.174 61.0331C120.617 64.0777 121.469 67.2996 121.935 70.6189C122.776 76.6032 122.6 82.5502 121.25 88.4628C120.018 93.8642 118.066 98.9711 115.299 103.769C114.892 104.474 114.422 105.141 114.021 105.85C113.748 106.334 113.354 106.56 112.804 106.522C111.731 106.531 110.654 106.446 109.593 106.714C109.052 106.851 108.536 107.038 108.06 107.326C106.356 108.357 106.046 110.017 107.255 111.605C107.343 111.721 107.43 111.837 107.497 111.968C107.758 112.499 107.454 112.864 107.107 113.191C104.129 115.99 100.914 118.458 97.3341 120.467C92.0816 123.415 86.4067 124.938 80.4773 125.51C72.7443 126.256 65.1265 125.737 57.8359 122.745C54.7853 121.492 51.8722 119.979 49.2441 117.962C49.1492 117.889 49.046 117.843 48.9284 117.827Z" fill="#FFF4EC"/>
<path d="M112.787 106.257C113.287 106.305 113.596 106.152 113.902 105.674C117.062 100.743 119.348 95.4378 120.758 89.762C121.398 87.1836 121.848 84.5707 122.093 81.9115C122.313 79.5264 122.326 77.1405 122.194 74.7748C121.95 70.4012 121.193 66.1024 119.445 62.0343C119.309 61.7163 118.999 61.4033 119.245 61C124.734 66.3205 128.568 72.66 130.638 80.0022C133.911 91.6095 132.837 102.838 127.134 113.496C122.107 122.889 114.475 129.46 104.657 133.527C98.2621 136.176 91.5836 137.334 84.6925 136.958C71.9269 136.261 61.0088 131.446 52.2857 121.97C51.0873 120.668 49.9821 119.275 49 117.794C49.3863 117.436 49.5951 117.89 49.7923 118.03C54.5788 121.43 59.8961 123.565 65.6214 124.749C69.8375 125.621 74.1186 125.665 78.3718 125.426C83.4142 125.143 88.4015 124.256 93.0785 122.264C97.0945 120.553 100.883 118.393 104.185 115.476C105.162 114.612 106.142 113.75 107.12 112.887C107.391 112.649 107.648 112.405 107.391 112.004C107.465 111.944 107.55 111.917 107.645 111.923C109.166 112.61 110.72 113.144 112.431 113.011C113.632 112.917 114.789 112.685 115.841 112.064C117.774 110.924 117.786 108.664 115.877 107.484C114.939 106.904 113.863 106.778 112.832 106.5C112.753 106.43 112.739 106.35 112.787 106.257Z" fill="#FFD8BB"/>
<path d="M67.571 96.5547C60.6565 96.3131 57.2569 92.3932 55.7522 86.5521C55.5732 85.8568 55.7412 85.1993 56.421 84.8097C57.1012 84.4201 57.7265 84.6292 58.2584 85.119C58.7715 85.5916 59.244 86.1086 59.7341 86.6061C63.8122 90.7438 69.0163 91.0254 73.5307 87.3528C74.5966 86.4859 75.4776 85.4335 76.4402 84.4627C77.0139 83.8846 77.6836 83.5681 78.4855 83.9845C79.2614 84.3876 79.5511 85.0937 79.3548 85.8994C78.4831 89.4792 77.141 92.7813 73.7989 94.8331C71.9616 95.9611 69.8197 96.5577 67.571 96.5544V96.5547Z" fill="#FC9F5F"/>
<path d="M104.681 96.4943C100.814 96.2712 97.3709 94.705 95.1535 90.9343C94.3078 89.4961 93.6816 87.9669 93.164 86.3891C93.0745 86.1158 93.0205 85.8229 93.0032 85.5359C92.9599 84.8185 93.2982 84.2812 93.934 83.9966C94.5458 83.7227 95.1263 83.8561 95.6042 84.3576C96.447 85.2421 97.245 86.1767 98.1501 86.992C100.71 89.2968 103.66 90.4459 107.134 89.6721C109.027 89.2503 110.589 88.1763 111.982 86.8589C112.637 86.2399 113.237 85.5616 113.906 84.9602C114.433 84.4858 115.083 84.4438 115.693 84.797C116.338 85.1696 116.636 85.7913 116.45 86.5069C114.945 92.2868 111.775 96.1864 104.681 96.4946V96.4943Z" fill="#FC9F5F"/>
<path d="M87.5737 103.622C90.3547 103.679 94.0463 104.737 97.0113 107.691C97.8066 108.483 98.4062 109.4 98.6392 110.527C98.7526 111.075 98.6643 111.579 98.3451 112.022C97.8955 112.645 97.2619 112.662 96.8481 112.012C94.2865 107.989 90.3195 106.931 85.9228 106.886C83.6219 106.863 81.4364 107.498 79.3846 108.557C77.8796 109.334 76.6216 110.381 75.7448 111.853C75.5205 112.229 75.292 112.656 74.7509 112.539C74.187 112.416 73.8496 112.021 73.7324 111.461C73.6008 110.833 73.7694 110.253 74.0567 109.695C75.0569 107.751 76.6664 106.44 78.549 105.44C80.963 104.158 83.5611 103.604 87.5734 103.623L87.5737 103.622Z" fill="#FC9D5B"/>
<path d="M61.1109 106.287C62.4113 106.241 63.669 106.459 64.8128 107.079C65.8769 107.657 66.7357 108.502 66.7122 109.793C66.688 111.109 65.8247 112.013 64.6934 112.521C62.2592 113.613 59.7867 113.573 57.3745 112.411C56.2967 111.892 55.559 111.09 55.5557 109.78C55.5524 108.437 56.3319 107.613 57.4002 107.05C58.5463 106.445 59.8097 106.229 61.1109 106.287Z" fill="#FFE1CC"/>
<path d="M112.716 106.29C112.723 106.342 112.727 106.394 112.731 106.446C111.987 106.71 111.544 107.297 111.071 107.889C109.933 109.317 108.824 110.774 107.493 112.037L107.406 112.038L107.319 112.037C105.236 109.992 106.482 107.676 108.518 106.807C109.879 106.226 111.296 106.286 112.716 106.291V106.29Z" fill="#FFE1CC"/>
<path d="M107.493 112.037C108.006 110.958 108.974 110.236 109.657 109.288C110.193 108.544 110.877 107.903 111.38 107.14C111.733 106.604 112.131 106.389 112.73 106.447C113.991 106.413 115.137 106.778 116.168 107.487C117.919 108.693 117.914 110.94 116.17 112.15C113.939 113.698 109.708 113.643 107.493 112.037Z" fill="#E8936B"/>
<path d="M49.7887 69.0698C49.9743 69.0856 50.2225 69.0797 50.2076 69.352C50.1965 69.5522 49.9814 69.5785 49.8045 69.5802C49.6229 69.582 49.423 69.5358 49.4099 69.3389C49.3959 69.1304 49.5975 69.0868 49.789 69.0701L49.7887 69.0698Z" fill="#FFF4EC"/>
<path d="M61.7579 98C62.1025 98.1462 62.438 98.7285 62.6649 99.0433C64.0704 100.99 65.2526 103.033 66.159 105.281C67.2916 108.09 68.7228 113.084 67.5798 115.926C66.958 117.472 65.7794 118.904 64.266 119.542C62.9328 120.105 61.2293 120.165 59.8784 119.631C60.1771 119.417 60.5591 119.286 60.8921 119.135C61.9143 118.671 62.5986 118.063 63.2732 117.141C66.4643 112.777 64.0323 106.374 62.6784 101.707C62.3392 100.538 61.9161 99.321 61.7702 98.1079L61.7579 98Z" fill="#FC9D5A"/>
<path d="M59.8782 119.631C59.5575 119.516 59.2539 119.358 58.9614 119.179C57.5909 118.34 56.5386 116.815 56.1682 115.211C55.3618 111.724 57.6234 105.478 59.2036 102.375C59.9726 100.864 60.9114 99.4622 61.7577 98L61.7699 98.1079C61.9159 99.321 62.339 100.538 62.6781 101.707C64.0321 106.374 66.4641 112.777 63.2729 117.141C62.5984 118.064 61.914 118.671 60.8918 119.135C60.5588 119.286 60.1762 119.417 59.8782 119.631Z" fill="url(#paint5_linear_4979_8898)"/>
</g>
<defs>
<filter id="filter0_d_4979_8898" x="0" y="0" width="172.102" height="179.102" filterUnits="userSpaceOnUse" color-interpolation-filters="sRGB">
<feFlood flood-opacity="0" result="BackgroundImageFix"/>
<feColorMatrix in="SourceAlpha" type="matrix" values="0 0 0 0 0 0 0 0 0 0 0 0 0 0 0 0 0 0 127 0" result="hardAlpha"/>
<feOffset dy="7"/>
<feComposite in2="hardAlpha" operator="out"/>
<feColorMatrix type="matrix" values="0 0 0 0 0.940749 0 0 0 0 0.557976 0 0 0 0 0.288737 0 0 0 1 0"/>
<feBlend mode="normal" in2="BackgroundImageFix" result="effect1_dropShadow_4979_8898"/>
<feBlend mode="normal" in="SourceGraphic" in2="effect1_dropShadow_4979_8898" result="shape"/>
</filter>
<filter id="filter1_d_4979_8898" x="-31.3" y="98.7" width="165.6" height="67.6" filterUnits="userSpaceOnUse" color-interpolation-filters="sRGB">
<feFlood flood-opacity="0" result="BackgroundImageFix"/>
<feColorMatrix in="SourceAlpha" type="matrix" values="0 0 0 0 0 0 0 0 0 0 0 0 0 0 0 0 0 0 127 0" result="hardAlpha"/>
<feOffset dy="-2"/>
<feGaussianBlur stdDeviation="5.15"/>
<feComposite in2="hardAlpha" operator="out"/>
<feColorMatrix type="matrix" values="0 0 0 0 0.976544 0 0 0 0 0.450905 0 0 0 0 0.0783648 0 0 0 1 0"/>
<feBlend mode="normal" in2="BackgroundImageFix" result="effect1_dropShadow_4979_8898"/>
<feBlend mode="normal" in="SourceGraphic" in2="effect1_dropShadow_4979_8898" result="shape"/>
</filter>
<linearGradient id="paint0_linear_4979_8898" x1="86.0541" y1="1.08888" x2="86.0541" y2="181.495" gradientUnits="userSpaceOnUse">
<stop stop-color="#FFB986"/>
<stop offset="1" stop-color="#F56600"/>
</linearGradient>
<linearGradient id="paint1_linear_4979_8898" x1="85.5444" y1="0.574321" x2="85.5444" y2="180.974" gradientUnits="userSpaceOnUse">
<stop stop-color="#FFB986"/>
<stop offset="1" stop-color="#F56600"/>
</linearGradient>
<linearGradient id="paint2_linear_4979_8898" x1="85.5444" y1="1.57432" x2="85.5444" y2="181.974" gradientUnits="userSpaceOnUse">
<stop stop-color="#FFB986"/>
<stop offset="1" stop-color="#F56600"/>
</linearGradient>
<linearGradient id="paint3_linear_4979_8898" x1="53.2193" y1="74.5464" x2="51.4363" y2="159.425" gradientUnits="userSpaceOnUse">
<stop stop-color="white"/>
<stop offset="0.09" stop-color="#FCFCFC" stop-opacity="0.84"/>
<stop offset="0.23" stop-color="#F9FAFA" stop-opacity="0.62"/>
<stop offset="0.36" stop-color="#F7F7F7" stop-opacity="0.43"/>
<stop offset="0.5" stop-color="#F4F5F5" stop-opacity="0.28"/>
<stop offset="0.63" stop-color="#F3F4F4" stop-opacity="0.16"/>
<stop offset="0.76" stop-color="#F1F2F2" stop-opacity="0.07"/>
<stop offset="0.89" stop-color="#F1F2F2" stop-opacity="0.02"/>
<stop offset="1" stop-color="#F1F2F2" stop-opacity="0"/>
</linearGradient>
<linearGradient id="paint4_linear_4979_8898" x1="108.249" y1="7.38064" x2="110.938" y2="139.216" gradientUnits="userSpaceOnUse">
<stop stop-color="white"/>
<stop offset="0.09" stop-color="#FCFCFC" stop-opacity="0.84"/>
<stop offset="0.23" stop-color="#F9FAFA" stop-opacity="0.62"/>
<stop offset="0.36" stop-color="#F7F7F7" stop-opacity="0.43"/>
<stop offset="0.5" stop-color="#F4F5F5" stop-opacity="0.28"/>
<stop offset="0.63" stop-color="#F3F4F4" stop-opacity="0.16"/>
<stop offset="0.76" stop-color="#F1F2F2" stop-opacity="0.07"/>
<stop offset="0.89" stop-color="#F1F2F2" stop-opacity="0.02"/>
<stop offset="1" stop-color="#F1F2F2" stop-opacity="0"/>
</linearGradient>
<linearGradient id="paint5_linear_4979_8898" x1="60.4226" y1="98" x2="60.4226" y2="119.631" gradientUnits="userSpaceOnUse">
<stop stop-color="#FFE1CC"/>
<stop offset="1" stop-color="#F9C297"/>
</linearGradient>
</defs>
</svg>
