<svg width="175" height="175" viewBox="0 0 175 175" fill="none" xmlns="http://www.w3.org/2000/svg">
<g clip-path="url(#clip0_11312_109)">
<g clip-path="url(#clip1_11312_109)">
<g filter="url(#filter0_d_11312_109)">
<path d="M67.0856 10.8547C74.4171 7.26607 78.0828 5.47176 81.916 4.7647C85.3118 4.13833 88.7908 4.13833 92.1866 4.7647C96.0198 5.47176 99.6856 7.26607 107.017 10.8547L134.542 24.3279C141.874 27.9166 145.539 29.7109 148.473 32.3162C151.072 34.6242 153.241 37.3889 154.877 40.478C156.723 43.965 157.628 47.9968 159.439 56.0603L166.237 86.3344C168.048 94.398 168.953 98.4297 168.779 102.386C168.624 105.89 167.85 109.338 166.493 112.563C164.962 116.205 162.425 119.438 157.352 125.904L138.304 150.182C133.23 156.649 130.693 159.882 127.542 162.209C124.749 164.271 121.615 165.806 118.288 166.739C114.533 167.792 110.464 167.792 102.327 167.792H71.7759C63.6386 167.792 59.57 167.792 55.8146 166.739C52.4877 165.806 49.3532 164.271 46.561 162.209C43.4093 159.882 40.8725 156.649 35.799 150.182L16.7509 125.904C11.6774 119.438 9.14063 116.205 7.60947 112.563C6.25303 109.338 5.47888 105.89 5.32404 102.386C5.14925 98.4297 6.05461 94.398 7.86532 86.3344L14.6635 56.0603C16.4742 47.9968 17.3796 43.965 19.2257 40.478C20.8611 37.3889 23.0303 34.6242 25.6293 32.3162C28.5632 29.7109 32.2289 27.9166 39.5603 24.3279L67.0856 10.8547Z" fill="url(#paint0_linear_11312_109)"/>
<path d="M83.4766 13.2276C85.8405 12.7915 88.2621 12.7915 90.626 13.2276C93.0248 13.6701 95.464 14.781 103.233 18.584L130.759 32.0567C138.521 35.856 140.908 37.1057 142.76 38.75C144.585 40.3709 146.115 42.3191 147.271 44.5039C148.452 46.7343 149.128 49.4181 151.043 57.9453L157.841 88.2198C159.755 96.7428 160.294 99.4646 160.182 102.006C160.072 104.496 159.521 106.943 158.561 109.228C157.583 111.554 155.947 113.755 150.582 120.593L131.533 144.87C126.497 151.289 124.655 153.535 122.802 155.003L122.43 155.287C120.473 156.733 118.282 157.803 115.964 158.453C113.616 159.112 110.951 159.187 102.327 159.187H71.7764C63.1526 159.187 60.4869 159.112 58.1387 158.453C55.9656 157.844 53.9046 156.865 52.043 155.554L51.6729 155.287L51.3008 155.003C49.448 153.535 47.6052 151.289 42.5693 144.87L23.5205 120.593C18.1553 113.755 16.52 111.554 15.542 109.228C14.5811 106.943 14.0309 104.496 13.9209 102.006C13.8086 99.4646 14.3478 96.7428 16.2617 88.2198L23.0596 57.9453C24.9744 49.4181 25.6502 46.7343 26.8311 44.5039C27.9878 42.3191 29.5175 40.3709 31.3428 38.75C33.1944 37.1057 35.5817 35.8561 43.3438 32.0567L70.8691 18.584C78.6385 14.781 81.0778 13.6701 83.4766 13.2276Z" stroke="white" stroke-opacity="0.4" stroke-width="17.2102"/>
<path d="M141.474 56.387C140.264 51.077 139.694 49.037 139.154 48.007L138.974 47.687C138.374 46.617 137.554 45.587 136.584 44.707L136.364 44.517C135.274 43.627 132.524 42.227 126.464 39.267L96.2744 24.497C91.4944 22.177 89.6144 21.367 88.5544 21.177L88.2644 21.127C87.0444 20.937 85.8044 20.947 84.5844 21.167L84.3044 21.227C82.9644 21.537 80.1744 22.847 74.1344 25.807L43.9544 40.587C39.2344 42.917 37.4144 43.917 36.5744 44.657L36.2844 44.917C35.3844 45.757 34.5844 46.797 33.9544 47.967L33.8144 48.237C33.1544 49.617 32.3944 52.857 30.9444 59.317L23.4944 92.517C22.3244 97.837 21.9544 99.937 22.0044 101.107L22.0244 101.427C22.1144 102.767 22.4244 104.077 22.9444 105.317L23.0644 105.597C23.7144 106.977 25.7244 109.587 29.7844 114.767L50.6744 141.387C53.4144 144.847 55.1044 146.897 56.0944 147.707L56.5244 148.027C57.5644 148.747 58.6944 149.297 59.9044 149.637L60.1744 149.707C61.5144 150.017 64.5844 150.067 71.2644 150.067H101.814C109.074 150.067 111.874 150.007 113.124 149.657L113.464 149.557C114.584 149.217 115.724 148.647 116.754 147.887L116.984 147.707C118.084 146.817 120.044 144.397 124.244 139.047L145.124 112.427C148.444 108.157 149.664 106.447 150.104 105.387L150.244 105.047C150.704 103.877 150.994 102.547 151.064 101.177V100.867C151.064 99.327 150.384 96.067 148.924 89.597L141.464 56.397L141.474 56.387Z" fill="url(#paint1_linear_11312_109)"/>
<mask id="mask0_11312_109" style="mask-type:alpha" maskUnits="userSpaceOnUse" x="22" y="21" width="130" height="131">
<path d="M141.474 57.387C140.264 52.077 139.694 50.037 139.154 49.007L138.974 48.687C138.374 47.617 137.554 46.587 136.584 45.707L136.364 45.517C135.274 44.627 132.524 43.227 126.464 40.267L96.2744 25.497C91.4944 23.177 89.6144 22.367 88.5544 22.177L88.2644 22.127C87.0444 21.937 85.8044 21.947 84.5844 22.167L84.3044 22.227C82.9644 22.537 80.1744 23.847 74.1344 26.807L43.9544 41.587C39.2344 43.917 37.4144 44.917 36.5744 45.657L36.2844 45.917C35.3844 46.757 34.5844 47.797 33.9544 48.967L33.8144 49.237C33.1544 50.617 32.3944 53.857 30.9444 60.317L23.4944 93.517C22.3244 98.837 21.9544 100.937 22.0044 102.107L22.0244 102.427C22.1144 103.767 22.4244 105.077 22.9444 106.317L23.0644 106.597C23.7144 107.977 25.7244 110.587 29.7844 115.767L50.6744 142.387C53.4144 145.847 55.1044 147.897 56.0944 148.707L56.5244 149.027C57.5644 149.747 58.6944 150.297 59.9044 150.637L60.1744 150.707C61.5144 151.017 64.5844 151.067 71.2644 151.067H101.814C109.074 151.067 111.874 151.007 113.124 150.657L113.464 150.557C114.584 150.217 115.724 149.647 116.754 148.887L116.984 148.707C118.084 147.817 120.044 145.397 124.244 140.047L145.124 113.427C148.444 109.157 149.664 107.447 150.104 106.387L150.244 106.047C150.704 104.877 150.994 103.547 151.064 102.177V101.867C151.064 100.327 150.384 97.067 148.924 90.597L141.464 57.397L141.474 57.387Z" fill="url(#paint2_linear_11312_109)"/>
</mask>
<g mask="url(#mask0_11312_109)">
<g opacity="0.52" filter="url(#filter1_d_11312_109)">
<path d="M124.971 157.993C124.971 157.993 126.288 140.753 111.28 133.855C111.28 133.855 99.1696 127.754 85.7439 133.855C85.7439 133.855 79.686 117.226 60.9933 119.348C60.9933 119.348 50.7288 120.062 48.0966 124.838C48.0966 124.838 46.1405 120.761 42.2283 116.94C33.6629 108.574 19.6009 109.057 11.9163 118.25C8.4033 122.45 6.10788 128.818 8.21368 138.365C8.21368 138.365 -16.8413 137.48 -20 157.993H124.971Z" fill="url(#paint3_linear_11312_109)"/>
</g>
<path opacity="0.6" d="M-3.95299 136.993C-3.95299 136.993 -6.06078 110.216 17.9513 99.5023C17.9513 99.5023 37.3286 90.0263 58.8097 99.5023C58.8097 99.5023 68.5024 73.6745 98.4107 76.9699C98.4107 76.9699 114.834 78.0787 119.046 85.4971C119.046 85.4971 122.175 79.1641 128.435 73.2294C142.139 60.2355 164.639 60.9851 176.934 75.2636C182.555 81.7879 186.227 91.6778 182.858 106.507C182.858 106.507 222.946 105.133 228 136.993H-3.95299Z" fill="url(#paint4_linear_11312_109)"/>
<path d="M123.033 51.4311L127.698 52.3244L128.46 56.9595C128.468 57.0038 128.532 57.0038 128.54 56.9595L129.302 52.3244L133.968 51.4311C134.011 51.4228 134.011 51.3618 133.968 51.3533L129.302 50.4416L128.54 46.0256C128.532 45.9817 128.468 45.9817 128.461 46.0256L127.698 50.4416L123.033 51.3533C122.989 51.3618 122.989 51.4228 123.033 51.4311Z" fill="#FFD3B3"/>
<path opacity="0.7" d="M27.0266 92.9478L30.844 93.5975L31.4676 96.9684C31.4735 97.0008 31.5266 97.0008 31.5324 96.9684L32.1561 93.5975L35.9735 92.9478C36.0087 92.9417 36.009 92.8973 35.9735 92.8912L32.1558 92.228L31.5322 89.0166C31.526 88.9847 31.4738 88.9847 31.4674 89.0166L30.8437 92.228L27.026 92.8912C26.9911 92.8973 26.9914 92.9417 27.0266 92.9478Z" fill="white"/>
</g>
<path opacity="0.7" d="M113.027 43.9478L116.844 44.5975L117.468 47.9684C117.474 48.0008 117.527 48.0008 117.532 47.9684L118.156 44.5975L121.974 43.9478C122.009 43.9417 122.009 43.8973 121.974 43.8912L118.156 43.228L117.532 40.0166C117.526 39.9847 117.474 39.9847 117.467 40.0166L116.844 43.228L113.026 43.8912C112.991 43.8973 112.991 43.9417 113.027 43.9478Z" fill="white"/>
<path d="M87 135.993C111.853 135.993 132 115.846 132 90.9927C132 66.1399 111.853 45.9927 87 45.9927C62.1472 45.9927 42 66.1399 42 90.9927C42 115.846 62.1472 135.993 87 135.993Z" fill="#FFF4EC"/>
<path d="M49.9284 117.82C47.7128 114.655 45.9954 111.238 44.6834 107.605C42.4953 101.545 41.6761 95.2962 42.1137 88.889C42.3828 84.9509 43.2503 81.1268 44.7028 77.4458C45.6377 76.3486 46.4113 75.1347 47.2203 73.9468C47.351 73.755 47.2692 73.5578 47.2048 73.3645C47.0986 73.0462 47.0914 72.7178 47.2928 72.4472C47.8533 71.6939 48.6391 71.239 49.5466 71.1471C50.426 71.0579 50.8771 71.7957 50.4788 72.5976C50.2109 73.1369 50.0314 73.738 49.5833 74.1739C49.3202 74.4298 49.2948 74.7231 49.3757 75.0509C49.3849 75.7457 48.9899 76.3071 48.7453 76.9151C48.3903 77.7975 48.0965 78.699 47.8131 79.6056C47.2645 81.4328 46.7609 83.2708 46.436 85.1534C46.206 86.6775 45.9686 88.1975 45.9775 89.7487C45.9814 90.4387 46.2484 90.6741 46.9127 90.6604C48.2227 90.6335 49.5344 90.6308 50.8443 90.6616C51.4991 90.6771 51.7515 90.4307 51.8406 89.7732C52.3558 85.9667 53.3695 82.3045 55.1499 78.8789C55.674 77.8706 56.2465 76.8912 56.8721 75.9432C58.2091 73.7974 59.627 71.7077 61.2427 69.7576C61.4641 69.4903 61.6466 69.1833 61.9984 69.0568C63.0007 68.7275 63.7009 67.8107 64.7602 67.6073C66.3997 67.292 67.7201 66.2849 69.1929 65.6089C69.2988 65.5602 69.4497 65.5244 69.4885 65.4332C70.0151 64.1987 71.2799 64.3392 72.2521 63.949C72.9929 63.6516 73.7407 63.2712 74.2437 62.7214C75.7744 61.0482 77.734 59.8484 79.1901 58.1047C79.5869 57.6295 79.7656 57.1205 79.7342 56.5021C79.6764 55.3628 80.083 55.0392 81.1423 55.3652C81.3762 55.4371 81.5322 55.3739 81.6987 55.2426C82.5999 54.5317 83.4155 53.7525 83.8024 52.6273C84.3083 51.1572 85.3722 49.9773 85.9354 48.5341C86.0684 48.1934 86.3775 47.9962 86.7707 48.0045C88.4836 48.0418 90.1986 47.9153 91.9101 48.0741C94.7987 48.1967 97.61 48.7861 100.378 49.5659C106.313 51.238 111.768 53.8924 116.588 57.7673C117.845 58.778 119.199 59.6986 120.174 61.0258C121.617 64.0704 122.469 67.2923 122.935 70.6116C123.776 76.5959 123.6 82.5429 122.25 88.4555C121.018 93.8569 119.066 98.9638 116.299 103.762C115.892 104.467 115.422 105.134 115.021 105.843C114.748 106.327 114.354 106.553 113.804 106.515C112.731 106.524 111.654 106.439 110.593 106.707C110.052 106.844 109.536 107.031 109.06 107.319C107.356 108.35 107.046 110.01 108.255 111.598C108.343 111.714 108.43 111.83 108.497 111.961C108.758 112.492 108.454 112.857 108.107 113.184C105.129 115.983 101.914 118.451 98.3341 120.46C93.0816 123.408 87.4067 124.931 81.4773 125.503C73.7443 126.249 66.1265 125.73 58.8359 122.738C55.7853 121.485 52.8722 119.972 50.2441 117.955C50.1492 117.882 50.046 117.836 49.9284 117.82Z" fill="#FFF4EC"/>
<path d="M113.787 106.25C114.287 106.298 114.596 106.145 114.902 105.667C118.062 100.736 120.348 95.4305 121.758 89.7547C122.398 87.1763 122.848 84.5634 123.093 81.9042C123.313 79.5191 123.326 77.1332 123.194 74.7675C122.95 70.3939 122.193 66.0951 120.445 62.027C120.309 61.709 119.999 61.396 120.245 60.9927C125.734 66.3132 129.568 72.6527 131.638 79.9949C134.911 91.6022 133.837 102.831 128.134 113.489C123.107 122.882 115.475 129.453 105.657 133.52C99.2621 136.169 92.5836 137.327 85.6925 136.951C72.9269 136.254 62.0088 131.439 53.2857 121.963C52.0873 120.661 50.9821 119.268 50 117.787C50.3863 117.429 50.5951 117.883 50.7923 118.023C55.5788 121.423 60.8961 123.558 66.6214 124.742C70.8375 125.614 75.1186 125.658 79.3718 125.419C84.4142 125.136 89.4015 124.249 94.0785 122.257C98.0945 120.546 101.883 118.386 105.185 115.469C106.162 114.605 107.142 113.743 108.12 112.88C108.391 112.642 108.648 112.398 108.391 111.997C108.465 111.937 108.55 111.91 108.645 111.916C110.166 112.603 111.72 113.137 113.431 113.004C114.632 112.91 115.789 112.678 116.841 112.057C118.774 110.917 118.786 108.657 116.877 107.477C115.939 106.897 114.863 106.771 113.832 106.493C113.753 106.423 113.739 106.343 113.787 106.25Z" fill="#FFD8BB"/>
<path d="M68.571 96.5474C61.6565 96.3058 58.2569 92.3859 56.7522 86.5448C56.5732 85.8495 56.7412 85.192 57.421 84.8024C58.1012 84.4128 58.7265 84.6219 59.2584 85.1117C59.7715 85.5843 60.244 86.1013 60.7341 86.5988C64.8122 90.7365 70.0163 91.0181 74.5307 87.3455C75.5966 86.4786 76.4776 85.4262 77.4402 84.4554C78.0139 83.8773 78.6836 83.5608 79.4855 83.9772C80.2614 84.3803 80.5511 85.0864 80.3548 85.8921C79.4831 89.4719 78.141 92.774 74.7989 94.8258C72.9616 95.9538 70.8197 96.5507 68.571 96.5474Z" fill="#FC9F5F"/>
<path d="M105.681 96.487C101.814 96.2639 98.3709 94.6977 96.1535 90.927C95.3078 89.4888 94.6816 87.9596 94.164 86.3818C94.0745 86.1085 94.0205 85.8156 94.0032 85.5286C93.9599 84.8112 94.2982 84.2739 94.934 83.9893C95.5458 83.7154 96.1263 83.8488 96.6042 84.3503C97.447 85.2348 98.245 86.1694 99.1501 86.9847C101.71 89.2895 104.66 90.4386 108.134 89.6648C110.027 89.243 111.589 88.169 112.982 86.8516C113.637 86.2326 114.237 85.5543 114.906 84.9529C115.433 84.4785 116.083 84.4365 116.693 84.7897C117.338 85.1623 117.636 85.784 117.45 86.4996C115.945 92.2795 112.775 96.1788 105.681 96.487Z" fill="#FC9F5F"/>
<path d="M88.5737 103.615C91.3547 103.672 95.0463 104.73 98.0113 107.684C98.8066 108.476 99.4062 109.393 99.6392 110.52C99.7526 111.068 99.6643 111.572 99.3451 112.015C98.8955 112.638 98.2619 112.655 97.8481 112.005C95.2865 107.982 91.3195 106.924 86.9228 106.879C84.6219 106.856 82.4364 107.491 80.3846 108.55C78.8796 109.327 77.6216 110.374 76.7448 111.846C76.5205 112.222 76.292 112.649 75.7509 112.532C75.187 112.409 74.8496 112.014 74.7324 111.454C74.6008 110.826 74.7694 110.246 75.0567 109.688C76.0569 107.744 77.6664 106.433 79.549 105.433C81.963 104.151 84.5611 103.597 88.5734 103.616L88.5737 103.615Z" fill="#FC9D5B"/>
<path d="M62.1109 106.28C63.4113 106.234 64.669 106.452 65.8128 107.072C66.8769 107.65 67.7357 108.495 67.7122 109.786C67.688 111.102 66.8247 112.006 65.6934 112.514C63.2592 113.606 60.7867 113.566 58.3745 112.404C57.2967 111.885 56.559 111.083 56.5557 109.773C56.5524 108.43 57.3319 107.606 58.4002 107.043C59.5463 106.438 60.8097 106.222 62.1109 106.28Z" fill="#FFE1CC"/>
<path d="M113.716 106.283C113.723 106.335 113.727 106.387 113.731 106.439C112.987 106.703 112.544 107.29 112.071 107.882C110.933 109.31 109.824 110.767 108.493 112.03L108.406 112.031L108.319 112.03C106.236 109.985 107.482 107.669 109.518 106.8C110.879 106.219 112.296 106.278 113.716 106.283Z" fill="#FFE1CC"/>
<path d="M108.493 112.03C109.006 110.951 109.974 110.229 110.657 109.281C111.193 108.537 111.877 107.896 112.38 107.133C112.733 106.597 113.131 106.382 113.73 106.44C114.991 106.406 116.137 106.771 117.168 107.48C118.919 108.686 118.914 110.933 117.17 112.143C114.939 113.691 110.708 113.636 108.493 112.03Z" fill="#E8936B"/>
<path d="M50.7887 69.0625C50.9743 69.0783 51.2225 69.0724 51.2076 69.3447C51.1965 69.5449 50.9814 69.5712 50.8045 69.5729C50.6229 69.5747 50.423 69.5285 50.4099 69.3316C50.3959 69.1231 50.5972 69.0792 50.7887 69.0625Z" fill="#FFF4EC"/>
<path d="M62.7579 97.9927C63.1025 98.1389 63.438 98.7212 63.6649 99.036C65.0704 100.983 66.2526 103.026 67.159 105.274C68.2916 108.083 69.7228 113.077 68.5798 115.919C67.958 117.465 66.7794 118.897 65.266 119.535C63.9328 120.098 62.2293 120.158 60.8784 119.624C61.1771 119.41 61.5591 119.279 61.8921 119.128C62.9143 118.664 63.5986 118.056 64.2732 117.134C67.4643 112.77 65.0323 106.367 63.6784 101.7C63.3392 100.531 62.9161 99.3137 62.7702 98.1006L62.7579 97.9927Z" fill="#FC9D5A"/>
<path d="M60.8782 119.624C60.5575 119.509 60.2539 119.351 59.9614 119.172C58.5909 118.333 57.5386 116.808 57.1682 115.204C56.3618 111.717 58.6234 105.471 60.2036 102.368C60.9726 100.857 61.9114 99.4549 62.7577 97.9927L62.7699 98.1006C62.9159 99.3137 63.339 100.531 63.6781 101.7C65.0321 106.367 67.4641 112.77 64.2729 117.134C63.5984 118.057 62.914 118.664 61.8918 119.128C61.5588 119.279 61.1762 119.41 60.8782 119.624Z" fill="url(#paint5_linear_11312_109)"/>
</g>
</g>
</g>
<defs>
<filter id="filter0_d_11312_109" x="5.30273" y="4.29492" width="163.497" height="170.497" filterUnits="userSpaceOnUse" color-interpolation-filters="sRGB">
<feFlood flood-opacity="0" result="BackgroundImageFix"/>
<feColorMatrix in="SourceAlpha" type="matrix" values="0 0 0 0 0 0 0 0 0 0 0 0 0 0 0 0 0 0 127 0" result="hardAlpha"/>
<feOffset dy="7"/>
<feComposite in2="hardAlpha" operator="out"/>
<feColorMatrix type="matrix" values="0 0 0 0 0.940749 0 0 0 0 0.557976 0 0 0 0 0.288737 0 0 0 1 0"/>
<feBlend mode="normal" in2="BackgroundImageFix" result="effect1_dropShadow_11312_109"/>
<feBlend mode="normal" in="SourceGraphic" in2="effect1_dropShadow_11312_109" result="shape"/>
</filter>
<filter id="filter1_d_11312_109" x="-30.3" y="98.6929" width="165.6" height="67.5998" filterUnits="userSpaceOnUse" color-interpolation-filters="sRGB">
<feFlood flood-opacity="0" result="BackgroundImageFix"/>
<feColorMatrix in="SourceAlpha" type="matrix" values="0 0 0 0 0 0 0 0 0 0 0 0 0 0 0 0 0 0 127 0" result="hardAlpha"/>
<feOffset dy="-2"/>
<feGaussianBlur stdDeviation="5.15"/>
<feComposite in2="hardAlpha" operator="out"/>
<feColorMatrix type="matrix" values="0 0 0 0 0.976544 0 0 0 0 0.450905 0 0 0 0 0.0783648 0 0 0 1 0"/>
<feBlend mode="normal" in2="BackgroundImageFix" result="effect1_dropShadow_11312_109"/>
<feBlend mode="normal" in="SourceGraphic" in2="effect1_dropShadow_11312_109" result="shape"/>
</filter>
<linearGradient id="paint0_linear_11312_109" x1="87.0541" y1="1.08156" x2="87.0541" y2="181.488" gradientUnits="userSpaceOnUse">
<stop stop-color="#FFB986"/>
<stop offset="1" stop-color="#F56600"/>
</linearGradient>
<linearGradient id="paint1_linear_11312_109" x1="86.5444" y1="0.56702" x2="86.5444" y2="180.967" gradientUnits="userSpaceOnUse">
<stop stop-color="#FFB986"/>
<stop offset="1" stop-color="#F56600"/>
</linearGradient>
<linearGradient id="paint2_linear_11312_109" x1="86.5444" y1="1.56702" x2="86.5444" y2="181.967" gradientUnits="userSpaceOnUse">
<stop stop-color="#FFB986"/>
<stop offset="1" stop-color="#F56600"/>
</linearGradient>
<linearGradient id="paint3_linear_11312_109" x1="54.2193" y1="74.5391" x2="52.4363" y2="159.418" gradientUnits="userSpaceOnUse">
<stop stop-color="white"/>
<stop offset="0.09" stop-color="#FCFCFC" stop-opacity="0.84"/>
<stop offset="0.23" stop-color="#F9FAFA" stop-opacity="0.62"/>
<stop offset="0.36" stop-color="#F7F7F7" stop-opacity="0.43"/>
<stop offset="0.5" stop-color="#F4F5F5" stop-opacity="0.28"/>
<stop offset="0.63" stop-color="#F3F4F4" stop-opacity="0.16"/>
<stop offset="0.76" stop-color="#F1F2F2" stop-opacity="0.07"/>
<stop offset="0.89" stop-color="#F1F2F2" stop-opacity="0.02"/>
<stop offset="1" stop-color="#F1F2F2" stop-opacity="0"/>
</linearGradient>
<linearGradient id="paint4_linear_11312_109" x1="109.249" y1="7.3733" x2="111.938" y2="139.209" gradientUnits="userSpaceOnUse">
<stop stop-color="white"/>
<stop offset="0.09" stop-color="#FCFCFC" stop-opacity="0.84"/>
<stop offset="0.23" stop-color="#F9FAFA" stop-opacity="0.62"/>
<stop offset="0.36" stop-color="#F7F7F7" stop-opacity="0.43"/>
<stop offset="0.5" stop-color="#F4F5F5" stop-opacity="0.28"/>
<stop offset="0.63" stop-color="#F3F4F4" stop-opacity="0.16"/>
<stop offset="0.76" stop-color="#F1F2F2" stop-opacity="0.07"/>
<stop offset="0.89" stop-color="#F1F2F2" stop-opacity="0.02"/>
<stop offset="1" stop-color="#F1F2F2" stop-opacity="0"/>
</linearGradient>
<linearGradient id="paint5_linear_11312_109" x1="61.4226" y1="97.9927" x2="61.4226" y2="119.624" gradientUnits="userSpaceOnUse">
<stop stop-color="#FFE1CC"/>
<stop offset="1" stop-color="#F9C297"/>
</linearGradient>
<clipPath id="clip0_11312_109">
<rect width="175" height="175" fill="white"/>
</clipPath>
<clipPath id="clip1_11312_109">
<rect width="173" height="175" fill="white" transform="translate(1 -0.00732422)"/>
</clipPath>
</defs>
</svg>
