<svg width="679" height="534" viewBox="0 0 679 534" fill="none" xmlns="http://www.w3.org/2000/svg">
<rect x="90.4346" y="0.5" width="498" height="533" rx="28.175" fill="#1F0433" stroke="#AE72FF"/>
<circle cx="160.934" cy="69" r="37.5" stroke="#AE72FF"/>
<rect x="214.935" y="55" width="110" height="28" rx="5" fill="#2E1044"/>
<path d="M524.899 53.0151L519.934 48.1304L522.1 46L527.065 50.8847H550.403C551.249 50.8847 551.934 51.5592 551.934 52.3911C551.934 52.5377 551.912 52.6836 551.87 52.824L548.195 64.8752C548 65.5124 547.404 65.9488 546.728 65.9488H527.962V68.9616H544.805V71.9744H526.43C525.585 71.9744 524.899 71.2998 524.899 70.468V53.0151ZM527.196 78C525.928 78 524.899 76.9883 524.899 75.7404C524.899 74.4923 525.928 73.4808 527.196 73.4808C528.465 73.4808 529.493 74.4923 529.493 75.7404C529.493 76.9883 528.465 78 527.196 78ZM545.571 78C544.302 78 543.274 76.9883 543.274 75.7404C543.274 74.4923 544.302 73.4808 545.571 73.4808C546.839 73.4808 547.867 74.4923 547.867 75.7404C547.867 76.9883 546.839 78 545.571 78Z" fill="#AE72FF"/>
<path d="M484.188 69.0257L490.935 75.7722L488.707 78L481.96 71.2535C479.535 73.1943 476.458 74.3552 473.112 74.3552C465.286 74.3552 458.935 68.0037 458.935 60.1776C458.935 52.3516 465.286 46 473.112 46C480.938 46 487.29 52.3516 487.29 60.1776C487.29 63.5235 486.129 66.5999 484.188 69.0257ZM481.028 67.8569C482.954 65.8717 484.139 63.1637 484.139 60.1776C484.139 54.0852 479.205 49.1506 473.112 49.1506C467.02 49.1506 462.085 54.0852 462.085 60.1776C462.085 66.2701 467.02 71.2047 473.112 71.2047C476.098 71.2047 478.806 70.0193 480.791 68.093L481.028 67.8569Z" fill="#AE72FF"/>
<g opacity="0.21">
<path fill-rule="evenodd" clip-rule="evenodd" d="M151.585 68.896C149.919 67.7049 147.91 67.0514 145.837 67.0514C144.814 67.0514 143.992 67.8731 143.992 68.896C143.992 69.9188 144.814 70.7405 145.837 70.7405C147.91 70.7405 149.919 70.087 151.585 68.896ZM160.331 77.6413C159.139 79.308 158.486 81.3169 158.486 83.3897C158.486 84.4125 159.308 85.2342 160.331 85.2342C161.353 85.2342 162.175 84.4125 162.175 83.3897C162.175 81.3169 161.522 79.308 160.331 77.6413ZM169.076 68.896C170.743 70.087 172.751 70.7405 174.824 70.7405C175.847 70.7405 176.669 69.9188 176.669 68.896C176.669 67.8731 175.847 67.0514 174.824 67.0514C172.751 67.0514 170.743 67.7049 169.076 68.896ZM160.331 65.3731L156.808 68.896L160.331 72.4188L163.853 68.896L160.331 65.3731ZM162.788 62.7976C164.683 60.4271 165.733 57.4669 165.733 54.4023C165.733 51.3376 163.318 49 160.331 49C157.343 49 154.928 51.415 154.928 54.4023C154.928 57.3896 155.978 60.4271 157.873 62.7976L154.234 66.4365C151.864 64.5417 148.903 63.4918 145.839 63.4918C142.774 63.4918 140.435 65.9087 140.435 68.896C140.435 71.8833 142.85 74.2982 145.837 74.2982C148.824 74.2982 151.862 73.2483 154.232 71.3535L157.871 74.9924C155.976 77.3629 154.926 80.3231 154.926 83.3877C154.926 86.4524 157.341 88.79 160.329 88.79C163.316 88.79 165.731 86.375 165.731 83.3877C165.731 80.4004 164.681 77.3629 162.786 74.9924L166.425 71.3535C168.795 73.2483 171.756 74.2982 174.82 74.2982C177.885 74.2982 180.223 71.8833 180.223 68.896C180.223 65.9087 177.808 63.4937 174.82 63.4937C171.833 63.4937 168.795 64.5436 166.425 66.4385L162.786 62.7996L162.788 62.7976ZM160.331 52.5577C159.308 52.5577 158.486 53.3794 158.486 54.4023C158.486 56.475 159.139 58.4839 160.331 60.1506C161.522 58.4839 162.175 56.475 162.175 54.4023C162.175 53.3794 161.353 52.5577 160.331 52.5577Z" fill="#AE72FF"/>
</g>
<rect x="233.6" y="173.5" width="211.75" height="284.825" rx="24.5" fill="#1F0433" stroke="#AE72FF"/>
<rect x="466.7" y="173.5" width="211.75" height="284.825" rx="24.5" fill="#1F0433" stroke="#AE72FF"/>
<rect x="0.5" y="173.5" width="211.75" height="284.825" rx="24.5" fill="#1F0433" stroke="#AE72FF"/>
<rect x="25" y="381" width="162" height="28" rx="5" fill="#2E1044"/>
<rect x="258" y="381" width="162" height="28" rx="5" fill="#2E1044"/>
<rect x="492" y="381" width="162" height="28" rx="5" fill="#2E1044"/>
<rect x="25" y="199" width="162" height="158" rx="17" fill="#2E1044"/>
<rect x="258" y="199" width="162" height="158" rx="17" fill="#2E1044"/>
<rect x="492" y="199" width="162" height="158" rx="17" fill="#2E1044"/>
<path d="M573.139 233.082C576.215 232.715 579.235 233.632 582.047 234.751L620.836 253.214C623.533 254.686 626.674 257.475 626.701 260.804C626.776 270.04 626.381 279.391 626.286 288.628C626.239 293.129 626.622 298.209 626.297 302.618C626.11 305.16 624.597 308.302 622.254 309.494C607.868 314.764 593.509 320.124 579.091 325.312C577.28 325.963 576.052 326.693 574.039 326.784C572.22 326.867 570.15 326.588 568.439 325.982L525.636 310.334C523.154 309.161 519.482 305.297 519.24 302.484C519.213 293.072 519.29 283.659 519.251 274.246C519.232 269.559 518.808 264.695 519.106 260C519.309 256.806 520.839 253.005 523.907 251.621L571.671 233.478C572.144 233.313 572.639 233.142 573.139 233.082ZM592.073 267.398L542.181 246.118L523.68 253.124C521.726 254.557 520.755 256.847 520.439 259.203C520.737 273.126 520.02 287.231 520.527 301.125C520.535 301.356 520.416 301.647 520.433 301.949C520.599 304.718 523.834 308.047 526.233 309.205L569.499 325.054C571.485 325.6 574.485 325.693 576.432 325.05L621.772 308.345C625.517 306.05 624.861 302.349 624.954 298.612C625.174 289.744 625.163 280.871 625.22 271.984C625.245 268.264 625.701 263.805 625.365 260.134C625.15 257.775 622.378 255.495 620.435 254.411C607.538 248.622 594.865 241.679 581.911 236.084C579.309 234.96 576.662 234.077 573.769 234.245C568.224 236.022 562.72 238.13 557.29 240.268C556.787 240.466 556.088 240.658 555.726 241.032C555.897 241.031 556.064 241.068 556.22 241.138C571.646 248.084 587.344 254.523 602.682 261.646C603.25 261.91 603.778 262.214 604.287 262.577L618.169 257.541L617.949 257.164L614.247 254.876C613.957 254.549 613.996 253.986 614.433 253.869L615.07 253.917C616.394 254.911 618.004 255.639 619.358 256.555C621.118 257.746 619.661 258.184 618.393 258.765C614.69 260.462 610.358 261.646 606.517 263.133C606.334 263.204 605.522 263.481 605.524 263.601C606.037 264.031 606.378 264.657 606.453 265.331C606.892 269.228 605.932 273.857 606.318 277.845C605.792 281.51 601.21 281.057 598.508 282.132C596.917 281.863 595.858 280.447 595.682 278.897C595.37 276.153 595.511 273.155 595.265 270.393C595.165 269.261 594.705 268.844 593.719 268.359L577.501 274.454C576.721 274.207 576.928 273.353 577.643 273.137L591.884 267.674L592.072 267.398H592.073ZM543.744 245.428L593.137 266.531C594.35 267.313 595.865 267.916 596.437 269.356C596.662 272.344 596.573 275.533 596.883 278.496C596.985 279.479 597.55 280.92 598.758 280.816C600.195 280.693 602.123 279.641 603.663 279.584C604.439 279.145 605.037 278.51 605.128 277.587C605.4 274.802 605.073 271.279 605.116 268.388C605.131 267.339 605.585 265.675 604.929 264.725C604.589 264.232 603.614 263.548 603.08 263.245L554.161 241.586L543.744 245.428Z" fill="black"/>
<path d="M592.073 267.398L591.885 267.674L577.644 273.137C576.928 273.353 576.722 274.207 577.502 274.454L593.72 268.359C594.706 268.844 595.166 269.261 595.267 270.393C595.512 273.155 595.37 276.155 595.683 278.897C595.859 280.446 596.918 281.863 598.509 282.132C601.211 281.057 605.794 281.51 606.319 277.845C605.933 273.857 606.893 269.229 606.455 265.331C606.379 264.658 606.038 264.031 605.525 263.601C605.525 263.481 606.335 263.204 606.518 263.133C610.358 261.645 614.691 260.461 618.394 258.765C619.662 258.184 621.118 257.747 619.359 256.556C618.005 255.639 616.395 254.911 615.071 253.917L614.434 253.869C613.997 253.986 613.958 254.548 614.249 254.876L617.95 257.164L618.17 257.541L604.289 262.577C603.779 262.214 603.251 261.91 602.683 261.646C587.345 254.523 571.646 248.085 556.221 241.138C556.065 241.067 555.899 241.029 555.728 241.032C556.09 240.658 556.789 240.466 557.291 240.268C562.722 238.13 568.225 236.022 573.77 234.246C576.663 234.076 579.312 234.96 581.913 236.084C594.866 241.679 607.539 248.623 620.436 254.411C622.379 255.495 625.15 257.775 625.366 260.134C625.702 263.805 625.246 268.264 625.222 271.984C625.164 280.871 625.175 289.744 624.955 298.612C624.862 302.349 625.519 306.049 621.773 308.345L576.433 325.05C574.486 325.693 571.486 325.6 569.501 325.054L526.234 309.204C523.835 308.047 520.599 304.718 520.434 301.947C520.416 301.646 520.535 301.355 520.528 301.124C520.022 287.23 520.738 273.126 520.44 259.202C520.756 256.846 521.728 254.556 523.681 253.123L542.182 246.116L592.074 267.397L592.073 267.398ZM574.067 319.02C574.155 318.919 574.222 318.495 574.22 318.336C574.192 316.66 573.924 314.937 573.835 313.261C573.55 307.843 573.227 302.437 572.903 297.018C572.568 291.408 572.979 283.978 570.794 278.889C569.001 274.708 565.61 270.927 561.408 269.103L524.366 255.272C523.731 255.286 523.752 255.77 523.771 256.275C523.83 257.78 524.299 260.443 524.592 261.981C524.688 262.482 524.838 263.604 525.636 263.205C526.227 262.909 525.829 262.393 525.781 261.989C525.589 260.394 525.215 258.629 525.101 257.076C525.086 256.869 525.079 256.846 525.297 256.88L561.676 270.564C572.371 276.147 571.091 287.278 571.704 297.549C572.083 303.898 572.528 310.241 572.9 316.591C572.936 317.2 572.803 318.039 572.905 318.584C573.008 319.129 573.732 319.407 574.067 319.019V319.02Z" fill="#AE72FF"/>
<path d="M543.745 245.428L554.162 241.586L603.082 263.244C603.617 263.546 604.591 264.231 604.93 264.723C605.586 265.673 605.133 267.337 605.117 268.387C605.073 271.277 605.402 274.8 605.129 277.586C605.039 278.508 604.44 279.145 603.665 279.582C602.124 279.639 600.196 280.691 598.76 280.815C597.551 280.918 596.987 279.477 596.884 278.495C596.574 275.531 596.663 272.342 596.438 269.354C595.865 267.914 594.351 267.312 593.139 266.53L543.745 245.428Z" fill="#512473" stroke="#512473" stroke-miterlimit="10"/>
<path d="M574.067 319.02C573.732 319.408 573.004 319.11 572.905 318.585C572.806 318.06 572.936 317.201 572.9 316.592C572.528 310.242 572.084 303.899 571.704 297.55C571.091 287.279 572.371 276.148 561.676 270.565L525.298 256.881C525.08 256.847 525.086 256.87 525.102 257.077C525.216 258.63 525.59 260.394 525.782 261.99C525.831 262.394 526.228 262.909 525.637 263.206C524.84 263.605 524.689 262.483 524.593 261.982C524.299 260.444 523.83 257.779 523.772 256.275C523.753 255.771 523.732 255.287 524.367 255.272L561.409 269.104C565.611 270.929 569.002 274.71 570.795 278.89C572.978 283.979 572.569 291.409 572.904 297.019C573.228 302.438 573.55 307.844 573.836 313.262C573.924 314.938 574.192 316.662 574.221 318.337C574.223 318.496 574.156 318.92 574.068 319.021L574.067 319.02Z" fill="black"/>
<path d="M142.11 263.368C142.11 263.368 129.787 242.411 126.814 239.623C123.84 236.835 118.179 230.603 115.206 230.517C112.232 230.431 108.644 231.646 110.574 238.608C112.504 245.57 116.707 256.678 116.707 256.678L117.607 258.951C117.607 258.951 121.052 257.35 123.74 256.778C126.428 256.206 130.445 257.207 130.959 257.907C131.474 258.608 131.731 259.837 132.174 260.652C132.618 261.467 132.803 267.428 131.202 268.829C129.601 270.23 126.07 273.403 126.07 273.403C126.07 273.403 137.249 287.999 139.422 289.314C141.595 290.629 146.227 294.046 147.585 292.231C148.943 290.415 150.044 288.099 149.758 287.342C149.472 286.584 147.113 273.832 146.599 273.36C146.084 272.889 142.11 263.397 142.11 263.397V263.368Z" fill="#AE72FF"/>
<path d="M106.271 297.32C106.271 297.32 117.078 292.317 126.856 293.16C136.635 294.004 138.893 294.018 138.893 294.018C138.893 294.018 133.275 288.829 132.432 288.257C131.588 287.685 119.308 272.432 117.464 268.801C115.62 265.17 108.73 251.003 108.63 249.916C108.53 248.83 106.028 236.793 106.028 236.793C106.028 236.793 103.626 242.411 103.197 243.54C102.769 244.67 97.9509 255.963 93.748 259.308C89.5451 262.654 86.4287 265.112 86.4287 265.112L94.7201 278.993L106.257 297.306L106.271 297.32Z" fill="#AE72FF"/>
<path d="M102.583 299.637L83.2266 266.686C83.2266 266.686 65.6574 276.364 65.3286 276.735C64.9998 277.107 60.2251 282.825 60.2822 284.155C60.3394 285.484 61.3258 289.401 61.8833 290.345C62.4409 291.288 72.462 308.429 72.462 308.429C72.462 308.429 77.8943 313.146 84.7419 309.415C91.5895 305.684 102.583 299.637 102.583 299.637Z" fill="#AE72FF"/>
<path d="M147.271 264.34C141.996 252.604 128.801 231.689 116.435 226.929C106.242 223.012 106.342 232.333 104.284 239.009C101.425 248.272 95.5637 258.551 87.1865 263.826C84.9421 265.227 82.4546 266.242 80.1388 267.528C75.5499 270.087 69.8317 272.975 65.543 275.834C62.5982 277.807 59.882 282.124 59.6676 285.698C59.6247 286.441 60.0107 287.828 59.9392 288.171C59.9249 288.271 58.8956 289.401 58.6955 289.715C53.3775 297.835 61.3687 312.316 71.5757 308.071C74.0346 311.316 79.038 311.687 82.7263 310.787C85.5425 310.1 87.9584 308.185 90.5173 306.884C90.8032 306.741 91.5323 306.284 91.7753 306.412L105.027 324.496C108.444 328.47 115.949 323.839 114.048 319.064C113.076 316.648 110.874 313.631 109.63 311.173C109.502 310.901 108.959 309.986 109.102 309.772C113.419 307.627 115.306 301.166 113.319 296.877C113.147 296.52 112.79 296.191 112.647 295.834C112.575 295.662 112.432 295.676 112.675 295.49C115.22 294.919 117.793 294.433 120.395 294.175C126.256 293.589 133.947 293.632 139.637 295.19C143.697 296.305 148.529 299.35 151.759 294.547C156.463 287.528 150.487 271.445 147.299 264.326H147.271V264.34ZM85.7998 266.027L86.2287 266.328L105.327 297.32C104.57 297.392 103.641 298.392 103.026 298.55C102.84 298.593 102.711 298.593 102.597 298.421L84.1272 266.799L85.7855 266.042L85.7998 266.027ZM69.074 307.584C60.511 308.585 54.8786 295.576 60.5253 289.529L61.6689 291.359C61.2973 292.517 60.7111 293.503 60.6111 294.761C60.1536 299.822 64.3851 306.469 70.0175 305.612L70.8753 306.927C70.861 307.198 69.4028 307.57 69.0883 307.613V307.584H69.074ZM62.5553 292.803L69.3314 304.482C64.0992 304.454 60.2966 297.263 62.5553 292.803ZM84.4989 308.828C80.825 310.486 74.8637 310.687 72.3763 306.97C69.3028 300.88 64.5995 294.933 61.6689 288.857C59.5532 284.483 63.027 278.822 66.8868 276.577L83.0408 267.414L101.582 299.264L84.5132 308.842H84.4989V308.828ZM113.047 320.064C113.705 323.267 108.244 326.512 106.028 323.653L92.8761 305.798L102.368 300.437L113.061 320.064H113.047ZM108.287 308.857L103.44 299.765L106.886 298.021C107.629 299.293 107.729 300.88 107.2 302.252C106.971 302.824 106.242 303.353 106.957 303.896C107.443 304.268 108.015 303.482 108.215 303.11C109.144 301.423 108.844 298.936 107.986 297.277C108.058 296.977 110.846 295.905 111.217 296.119C111.417 296.234 112.247 297.692 112.375 298.006C113.776 301.666 111.932 307.141 108.301 308.871L108.287 308.857ZM134.39 292.96C128.329 292.303 121.424 292.531 115.434 293.632C112.361 294.19 109.244 295.004 106.514 296.534L87.1007 265.227C87.7726 265.027 88.4445 264.512 89.0163 264.112C97.3935 258.122 102.84 248.344 105.642 238.594C105.871 238.566 105.885 239.023 105.914 239.18C107.743 250.116 111.317 259.051 116.835 268.615C122.225 277.936 128.915 286.77 137.435 293.432C136.42 293.346 135.405 293.075 134.39 292.974V292.96ZM138.064 292.245C124.455 282.453 109.402 256.635 107.215 240.052C106.7 236.164 106.328 228.044 111.675 227.415C115.02 227.029 118.923 229.431 121.51 231.361C134.676 241.125 148.586 265.084 151.531 281.123C153.718 293.046 150.244 301.023 138.064 292.245Z" fill="#1F0433"/>
<path d="M137.421 293.432C136.406 293.346 135.391 293.075 134.376 292.975C128.315 292.317 121.41 292.546 115.42 293.646C112.347 294.204 109.23 295.019 106.5 296.548L87.0864 265.241C87.7583 265.041 88.4302 264.527 89.002 264.126C97.3792 258.136 102.826 248.358 105.628 238.609C105.856 238.58 105.871 239.038 105.899 239.195C107.729 250.131 111.303 259.066 116.821 268.629C122.211 277.95 128.901 286.785 137.421 293.446V293.432Z" fill="#AE72FF"/>
<path d="M83.0408 267.413L66.8868 276.576C63.027 278.821 59.5532 284.482 61.669 288.856C64.5995 294.932 69.3171 300.879 72.3763 306.968C74.8637 310.685 80.825 310.485 84.4989 308.827L101.568 299.249L83.0265 267.398H83.0408V267.413ZM73.134 285.797L73.0768 285.282C73.2197 284.796 79.3954 281.437 80.3103 280.951C80.8821 280.922 81.1681 281.594 80.8107 282.008L73.62 286.111L73.1483 285.797H73.134ZM77.9659 292.015C77.7085 292.158 77.0509 292.301 76.8365 292.158C76.3219 291.83 76.8937 291.215 77.2368 290.957C79.2096 289.485 81.9829 288.427 84.0272 286.998C84.5704 286.683 85.0136 287.169 84.9278 287.727L84.7705 288.041L77.9802 292.001L77.9659 292.015ZM81.2681 298.606C80.3532 298.863 80.0387 298.062 80.8678 297.405C81.6112 296.819 86.3144 293.945 87.1007 293.659C87.9013 293.373 88.3873 293.917 87.987 294.617L81.2824 298.591H81.2681V298.606Z" fill="#AE72FF"/>
<path d="M151.531 281.124C148.6 265.084 134.676 241.125 121.51 231.361C118.909 229.431 115.02 227.029 111.675 227.415C106.328 228.03 106.7 236.15 107.215 240.053C109.402 256.635 124.455 282.453 138.065 292.245C150.244 301.009 153.718 293.046 151.531 281.124ZM143.511 292.574C136.435 289.844 127 276.392 123.026 269.887C117.751 261.238 109.188 244.255 109.988 234.134C110.145 232.233 111.103 229.903 113.233 229.588C116.007 229.188 119.337 231.661 121.382 233.362C132.689 242.826 146.084 266.585 149.201 280.952C150.187 285.512 151.502 295.648 143.511 292.56V292.574Z" fill="#512473" stroke="#512473" stroke-miterlimit="10"/>
<path d="M102.368 300.437L113.061 320.064C113.719 323.266 108.258 326.512 106.042 323.652L92.8901 305.797L102.382 300.437H102.368Z" fill="#512473" stroke="#512473" stroke-miterlimit="10"/>
<path d="M105.327 297.32C104.57 297.391 103.64 298.378 103.026 298.549C102.411 298.721 102.711 298.592 102.597 298.42L84.127 266.799L85.7852 266.041L86.2141 266.341L105.313 297.334L105.327 297.32Z" fill="#BC8AFF"/>
<path d="M60.5255 289.529L61.6691 291.359C61.2975 292.517 60.7113 293.503 60.6113 294.761C60.1538 299.822 64.3853 306.47 70.0177 305.597L70.8755 306.913C70.8612 307.184 69.403 307.556 69.0885 307.599C60.5255 308.6 54.8931 295.591 60.5398 289.544H60.5255V289.529Z" fill="#512473" stroke="#512473" stroke-miterlimit="10"/>
<path d="M76.8366 292.159C76.3219 291.83 76.8938 291.216 77.2369 290.958C79.2096 289.486 81.983 288.428 84.0272 286.999C84.5705 286.684 85.0136 287.17 84.9279 287.728L84.7706 288.042L77.9802 292.002C77.7229 292.145 77.0653 292.288 76.8509 292.145L76.8366 292.159Z" fill="black"/>
<path d="M80.8109 282.01L73.6202 286.113L73.1485 285.798L73.0913 285.284C73.2343 284.798 79.4099 281.438 80.3248 280.952C80.8967 280.923 81.1826 281.595 80.8252 282.01H80.8109Z" fill="black"/>
<path d="M87.9722 294.633L81.2676 298.621C80.367 298.878 80.0382 298.078 80.8673 297.42C81.6964 296.763 86.3139 293.961 87.1002 293.675C87.9007 293.389 88.3868 293.918 87.9865 294.633H87.9722Z" fill="black"/>
<path d="M149.201 280.966C146.084 266.599 132.689 242.839 121.382 233.376C119.352 231.675 116.021 229.201 113.233 229.602C111.117 229.916 110.145 232.246 109.988 234.148C109.187 244.255 117.736 261.252 123.026 269.901C127 276.405 136.42 289.843 143.511 292.588C151.502 295.676 150.187 285.54 149.201 280.98V280.966ZM120.51 262.582C128.272 257.778 132.275 265.412 123.883 268.814L120.51 262.582ZM124.655 269.972C127.514 268.757 131.245 265.283 129.459 261.895C127.843 258.822 122.225 259.551 119.895 261.481L118.88 259.537C118.851 259.379 118.951 259.322 119.037 259.236C119.266 259.008 120.981 258.15 121.382 257.993C122.282 257.621 123.483 257.278 124.469 257.178C127.085 256.906 129.816 257.621 131.26 259.951C133.976 264.311 130.188 270.215 126.128 272.231L124.655 269.987V269.972ZM148.414 289.843C147.013 294.518 141.038 289.872 138.994 288.056C134.319 283.91 130.473 278.593 126.9 273.489C126.842 273.246 128.815 272.002 129.187 271.688C136.692 265.183 133.776 253.79 122.968 256.134C121.196 256.52 119.738 257.464 118.122 258.207C115.563 252.103 112.375 245.541 111.46 238.922C111.132 236.564 110.503 230.488 114.277 230.803C119.409 231.217 127.757 241.782 130.702 245.856C135.963 253.132 140.766 261.609 144.212 269.901C146.227 274.761 149.944 284.797 148.414 289.829V289.843Z" fill="#1F0433"/>
<path d="M118.108 258.223C115.549 252.119 112.361 245.557 111.446 238.938C111.117 236.58 110.488 230.504 114.262 230.818C119.394 231.233 127.743 241.797 130.688 245.872C135.949 253.134 140.752 261.625 144.197 269.917C146.213 274.777 149.93 284.813 148.4 289.845C146.999 294.519 141.024 289.873 138.979 288.058C134.305 283.912 130.459 278.594 126.885 273.491C126.828 273.248 128.801 272.004 129.158 271.689C136.678 265.185 133.747 253.791 122.954 256.136C121.181 256.522 119.723 257.465 118.094 258.209L118.108 258.223Z" fill="#AE72FF"/>
<path d="M124.455 257.178C127.071 256.906 129.801 257.621 131.259 259.951C133.976 264.311 130.187 270.215 126.127 272.231L124.655 269.986C127.514 268.771 131.245 265.297 129.458 261.909C127.843 258.85 122.225 259.565 119.894 261.495L118.879 259.551C118.851 259.393 118.951 259.336 119.037 259.25C119.265 259.022 120.981 258.164 121.381 258.007C122.296 257.635 123.483 257.292 124.469 257.192L124.455 257.178Z" fill="#BC8AFF"/>
<path d="M123.883 268.8L120.509 262.567C128.272 257.778 132.274 265.397 123.883 268.8Z" fill="#512473" stroke="#512473" stroke-miterlimit="10"/>
<path d="M345.696 306.985L341.135 302.972L341.509 300.554L370.624 283.154C370.624 283.154 372.07 282.032 372.244 282.207C372.419 282.381 373.94 282.207 373.94 282.207L374.488 288.638C374.488 288.638 376.034 289.91 377.305 288.738C378.576 287.566 380.72 284.55 380.595 282.207C380.471 279.864 380.595 255.385 380.595 255.385L343.752 232.177C343.752 232.177 340.736 230.681 339.14 231.18C337.545 231.678 329.194 236.165 329.194 236.165L301.25 252.194C301.25 252.194 292.426 262.564 292.251 265.904C292.077 269.244 292.251 276.05 292.251 276.05C292.251 276.05 290.831 290.657 292.177 292.677C293.523 294.696 301.525 299.307 301.525 299.307L324.084 312.195C324.084 312.195 331.612 316.707 334.678 314.438C337.745 312.17 345.647 306.91 345.647 306.91L345.696 306.985Z" fill="#AE72FF"/>
<path d="M378.028 290.258L390.94 298.335C394.854 296.416 398.543 293.873 402.482 292.028C404.127 291.256 405.324 290.358 406.695 292.178C409.562 296.067 403.803 300.728 400.961 302.697C393.134 308.157 383.911 312.519 375.934 317.878C370.774 320.022 361.152 316.133 356.216 313.84C352.627 312.195 349.336 310.026 345.846 308.181C340.138 310.923 335.152 317.779 328.098 315.585L292.326 294.571C291.529 293.499 291.18 291.43 291.08 290.109C290.532 282.805 291.928 274.928 291.354 267.549C291.828 261.467 296.838 254.961 301.6 251.446C311.72 243.968 325.43 238.658 335.925 231.429C340.337 229.21 341.633 229.709 345.697 232.002C355.394 237.511 364.991 244.042 374.538 249.875C384.085 255.709 381.194 252.443 381.593 256.955C380.944 265.779 381.892 275.426 381.044 284.126C380.944 285.049 380.595 286.245 380.197 287.093C379.623 288.339 378.576 289.037 378.053 290.258H378.028ZM330.192 292.701C330.615 287.342 333.731 282.331 337.67 278.842L378.003 254.512L343.029 232.974C341.509 231.903 340.138 232.077 338.443 232.626C327.499 239.68 313.989 245.364 303.444 252.792C297.586 256.93 292.675 263.96 293.523 271.438L330.142 292.676H330.192V292.701ZM379.399 256.581L339.913 279.988C335.352 283.254 332.709 288.688 332.111 294.197L331.862 313.641C333.033 314.787 342.257 307.633 343.802 306.711C342.855 305.639 343.079 306.785 342.606 307.134C342.132 307.483 341.06 307.608 340.836 306.935C341.035 304.617 339.465 300.878 341.484 299.232L373.217 280.138C373.691 279.814 374.538 280.138 374.713 280.661C375.161 282.007 374.314 287.317 374.887 288.115C377.33 289.361 378.477 285.697 378.851 283.877L379.399 256.581ZM329.668 313.616L329.818 295.144L293.548 273.956C293.947 279.166 292.85 284.7 293.274 289.86C293.348 290.807 293.623 292.552 294.221 293.275L327.873 313.142L329.693 313.641L329.668 313.616ZM372.594 286.444L372.469 283.179C369.553 284.799 369.528 284.999 372.594 286.444ZM388.348 299.232L367.833 286.195L342.755 301.301C342.157 303.196 343.927 304.019 345.223 304.966C351.131 309.328 366.312 317.155 373.541 316.333C377.978 315.834 372.045 310.973 371.646 310.076C370.849 308.331 372.668 308.406 373.541 307.633C374.413 306.86 374.089 306.761 374.488 306.387C375.411 305.489 378.252 302.274 379.249 302.224C380.247 302.174 379.997 302.373 380.147 302.523L380.346 304.093C382.365 302.423 385.955 301.476 387.924 299.98C389.894 298.485 388.473 299.706 388.373 299.207L388.348 299.232ZM377.23 314.438L400.288 300.429C401.61 299.457 406.296 295.643 405.075 293.798L404.102 293.649L374.488 309.577C374.339 309.777 376.333 312.245 376.607 312.743C376.881 313.242 377.106 313.865 377.205 314.463L377.23 314.438Z" fill="#1F0433"/>
<path d="M330.191 292.701L293.573 271.462C292.725 263.984 297.636 256.954 303.494 252.816C314.013 245.363 327.549 239.704 338.492 232.65C340.187 232.101 341.558 231.927 343.079 232.999L378.053 254.536L337.72 278.866C333.781 282.356 330.665 287.366 330.241 292.726H330.191V292.701Z" fill="#AE72FF"/>
<path d="M379.399 256.581L378.851 283.877C378.477 285.697 377.355 289.361 374.887 288.115C374.314 287.317 375.186 282.007 374.713 280.661C374.239 279.315 373.691 279.814 373.217 280.138L341.484 299.232C339.465 300.878 341.06 304.617 340.836 306.935C341.06 307.608 342.132 307.483 342.606 307.134C343.079 306.785 342.855 305.639 343.802 306.711C342.257 307.608 333.008 314.787 331.862 313.641L332.111 294.197C332.709 288.688 335.352 283.254 339.913 279.988L379.399 256.581ZM369.677 262.888L369.104 268.87C369.353 269.793 369.802 270.067 370.749 269.818C371.696 269.568 377.106 265.904 377.729 265.381C378.626 264.633 378.851 264.159 378.851 262.963C378.851 261.766 378.527 259.248 378.427 259.024C378.202 258.55 377.604 258.351 377.131 258.525L369.652 262.888H369.677Z" fill="#AE72FF"/>
<path d="M329.668 313.616L327.848 313.117L294.196 293.25C293.598 292.552 293.323 290.782 293.249 289.835C292.85 284.675 293.947 279.141 293.523 273.931L329.793 295.119L329.643 313.591L329.668 313.616Z" fill="#AE72FF"/>
<path d="M388.348 299.232C388.448 299.706 388.198 299.755 387.899 300.005C385.93 301.5 382.34 302.448 380.321 304.118L380.122 302.547C379.972 302.373 379.474 302.223 379.225 302.248C378.227 302.298 375.386 305.539 374.463 306.411C373.541 307.284 373.865 307.334 373.516 307.658C372.644 308.405 370.799 308.356 371.622 310.1C372.02 310.998 377.978 315.859 373.516 316.357C366.262 317.18 351.106 309.378 345.198 304.99C339.29 300.603 342.132 303.22 342.73 301.326L367.808 286.22L388.323 299.257L388.348 299.232ZM365.464 291.38L354.671 299.332C353.424 300.578 354.496 301.899 356.141 301.077C357.488 300.404 365.29 294.471 366.337 293.349C367.384 292.227 366.761 291.106 365.464 291.38ZM370.35 294.944C370.001 294.595 369.353 294.595 368.979 294.944C366.287 297.387 363.271 299.606 360.628 302.099C359.631 303.046 357.861 304.367 359.98 305.24L360.628 305.09C363.221 302.597 366.187 300.503 368.78 298.035C371.372 295.568 371.347 296.016 370.325 294.969L370.35 294.944ZM374.688 301.052C375.635 299.88 374.613 298.509 373.317 299.257C372.07 301.002 366.711 304.591 366.187 306.287C365.664 307.982 366.337 307.608 367.035 307.658C368.605 307.782 372.968 301.874 374.688 301.052Z" fill="#BC8AFF"/>
<path d="M377.231 314.438C377.131 313.839 376.931 313.241 376.632 312.718C376.333 312.194 374.364 309.751 374.513 309.552L404.128 293.623L405.1 293.773C406.321 295.617 401.635 299.431 400.314 300.403L377.256 314.413L377.231 314.438Z" fill="#BC8AFF"/>
<path d="M372.594 286.444C369.527 284.998 369.552 284.799 372.469 283.179L372.594 286.444Z" fill="#512473" stroke="#512473" stroke-miterlimit="10"/>
<path d="M369.677 262.888L377.155 258.525C377.629 258.351 378.227 258.55 378.451 259.024C378.676 259.497 378.875 262.439 378.875 262.962C378.875 264.159 378.651 264.658 377.753 265.38C376.856 266.103 371.247 269.693 370.774 269.818C369.826 270.067 369.353 269.768 369.128 268.87L369.702 262.888H369.677ZM376.407 261.741C376.233 261.542 371.821 264.159 371.646 264.458C371.322 265.007 371.571 265.979 371.521 266.627L376.432 263.511V261.741H376.407Z" fill="black"/>
<path d="M365.464 291.38C366.76 291.105 367.234 292.377 366.337 293.349C365.439 294.321 357.462 300.404 356.141 301.077C354.521 301.899 353.424 300.578 354.671 299.332L365.464 291.38Z" fill="#1F0433"/>
<path d="M370.35 294.945C371.347 295.967 369.578 297.263 368.805 298.011C366.212 300.479 363.221 302.598 360.653 305.065L360.005 305.215C357.911 304.342 359.656 303.021 360.653 302.074C363.296 299.556 366.312 297.363 369.004 294.92C369.378 294.596 370.026 294.596 370.375 294.92L370.35 294.945Z" fill="#1F0433"/>
<path d="M374.687 301.052C372.992 301.874 368.605 307.807 367.035 307.658C365.464 307.508 365.963 306.96 366.187 306.287C366.736 304.591 372.095 301.002 373.316 299.257C374.588 298.509 375.635 299.88 374.687 301.052Z" fill="#1F0433"/>
<path d="M376.407 261.74V263.51L371.522 266.626C371.596 265.978 371.322 265.006 371.646 264.458C371.97 263.909 376.233 261.541 376.407 261.74Z" fill="#AE72FF"/>
</svg>
