<svg width="554" height="386" viewBox="0 0 554 386" fill="none" xmlns="http://www.w3.org/2000/svg">
<path d="M113 385H553.31" stroke="#AE72FF" stroke-miterlimit="10"/>
<path d="M488.245 384.239V38.7997C488.245 18.791 472.996 2.26018 453.491 0.201489C453.14 0.175208 452.789 0.140166 452.447 0.113885C452.087 0.0876038 451.736 0.0700831 451.376 0.0525624H451.368C450.701 0.0175208 450.051 0 449.376 0H212.878C212.203 0 211.544 0.0175208 210.886 0.0525624H210.86C190.346 1.10381 174 18.0814 174 38.7997V384.248H488.245V384.239Z" fill="#AE72FF"/>
<path d="M488.245 384.239V38.7997C488.245 18.791 472.996 2.26018 453.491 0.201489C453.14 0.175208 452.789 0.140166 452.447 0.113885C452.087 0.0876038 451.736 0.0700831 451.376 0.0525624H451.368C450.701 0.0175208 450.051 0 449.376 0H212.878C212.203 0 211.544 0.0175208 210.886 0.0525624H210.86C190.346 1.10381 174 18.0814 174 38.7997V384.248H488.245V384.239Z" fill="#AE72FF"/>
<path d="M473.075 384.239V38.8086C473.075 26.3425 463.38 16.014 450.956 15.2081H450.745L450.429 15.173C450.052 15.1555 449.71 15.1555 449.385 15.1555H415.262C413.306 15.2519 411.735 16.7587 411.533 18.686C411.533 18.8174 411.516 18.9488 411.516 19.0889V19.1415C411.051 29.1283 402.794 37.074 392.687 37.074H269.568C259.46 37.074 251.204 29.1283 250.739 19.1415V19.0889C250.739 18.9488 250.739 18.8174 250.721 18.686C250.528 16.7587 248.949 15.2519 246.992 15.1555H212.87C212.554 15.1555 212.203 15.1555 211.826 15.173L211.51 15.2081H211.299C198.875 16.0228 189.18 26.3425 189.18 38.8086V384.248H473.075V384.239Z" fill="#1F0433"/>
<path fill-rule="evenodd" clip-rule="evenodd" d="M326.385 19.5005C325.505 18.8719 324.445 18.527 323.351 18.527C322.811 18.527 322.378 18.9607 322.378 19.5005C322.378 20.0403 322.811 20.474 323.351 20.474C324.445 20.474 325.505 20.1291 326.385 19.5005ZM331.001 24.116C330.372 24.9957 330.027 26.0559 330.027 27.1499C330.027 27.6897 330.461 28.1234 331.001 28.1234C331.54 28.1234 331.974 27.6897 331.974 27.1499C331.974 26.0559 331.629 24.9957 331.001 24.116ZM335.616 19.5005C336.496 20.1291 337.556 20.474 338.65 20.474C339.19 20.474 339.623 20.0403 339.623 19.5005C339.623 18.9607 339.19 18.527 338.65 18.527C337.556 18.527 336.496 18.8719 335.616 19.5005ZM331.001 17.6412L329.141 19.5005L331.001 21.3598L332.86 19.5005L331.001 17.6412ZM332.298 16.282C333.298 15.0309 333.852 13.4686 333.852 11.8512C333.852 10.2337 332.577 9 331.001 9C329.424 9 328.149 10.2746 328.149 11.8512C328.149 13.4278 328.703 15.0309 329.704 16.282L327.783 18.2025C326.532 17.2024 324.97 16.6483 323.352 16.6483C321.735 16.6483 320.5 17.9239 320.5 19.5005C320.5 21.0771 321.775 22.3517 323.351 22.3517C324.928 22.3517 326.531 21.7976 327.782 20.7975L329.702 22.718C328.702 23.9691 328.148 25.5314 328.148 27.1488C328.148 28.7663 329.423 30 330.999 30C332.576 30 333.851 28.7254 333.851 27.1488C333.851 25.5722 333.297 23.9691 332.296 22.718L334.217 20.7975C335.468 21.7976 337.03 22.3517 338.648 22.3517C340.265 22.3517 341.499 21.0771 341.499 19.5005C341.499 17.9239 340.224 16.6494 338.648 16.6494C337.071 16.6494 335.468 17.2035 334.217 18.2035L332.296 16.283L332.298 16.282ZM331.001 10.8776C330.461 10.8776 330.027 11.3113 330.027 11.8512C330.027 12.9451 330.372 14.0053 331.001 14.885C331.629 14.0053 331.974 12.9451 331.974 11.8512C331.974 11.3113 331.54 10.8776 331.001 10.8776Z" fill="#3C1C54"/>
<rect x="215" y="107" width="232" height="104" rx="15" fill="#2D1043"/>
<path d="M335 248C335 239.716 341.716 233 350 233H430C438.284 233 445 239.716 445 248V315C445 323.284 438.284 330 430 330H350C341.716 330 335 323.284 335 315V248Z" fill="#2D1043"/>
<path d="M336 355.5C336 348.044 342.044 342 349.5 342H432.5C439.956 342 446 348.044 446 355.5C446 362.956 439.956 369 432.5 369H349.5C342.044 369 336 362.956 336 355.5Z" fill="#2D1043"/>
<path d="M215 248C215 239.716 221.716 233 230 233H310C318.284 233 325 239.716 325 248V315C325 323.284 318.284 330 310 330H230C221.716 330 215 323.284 215 315V248Z" fill="#2D1043"/>
<path d="M216 355.5C216 348.044 222.044 342 229.5 342H312.5C319.956 342 326 348.044 326 355.5C326 362.956 319.956 369 312.5 369H229.5C222.044 369 216 362.956 216 355.5Z" fill="#2D1043"/>
<rect x="216" y="63" width="229" height="28" rx="14" fill="#2D1043"/>
<path d="M424.034 79.9467L427.249 83.1616L426.187 84.2232L422.972 81.0083C421.816 81.9331 420.35 82.4863 418.756 82.4863C415.027 82.4863 412 79.4596 412 75.7303C412 72.001 415.027 68.9742 418.756 68.9742C422.485 68.9742 425.512 72.001 425.512 75.7303C425.512 77.3247 424.959 78.7907 424.034 79.9467ZM422.528 79.3897C423.446 78.4437 424.011 77.1533 424.011 75.7303C424.011 72.8271 421.659 70.4756 418.756 70.4756C415.853 70.4756 413.501 72.8271 413.501 75.7303C413.501 78.6335 415.853 80.985 418.756 80.985C420.179 80.985 421.469 80.4201 422.415 79.5022L422.528 79.3897Z" fill="#AE72FF"/>
<line x1="236.564" y1="68.9742" x2="236.564" y2="84.2232" stroke="#AE72FF"/>
<rect x="206.5" y="101.5" width="250" height="115" stroke="#AE72FF" stroke-dasharray="5 5"/>
<path d="M256.965 272.015L252 267.13L254.165 265L259.131 269.885H282.469C283.314 269.885 284 270.559 284 271.391C284 271.538 283.978 271.684 283.936 271.824L280.261 283.875C280.066 284.512 279.47 284.949 278.794 284.949H260.028V287.962H276.871V290.974H258.496C257.651 290.974 256.965 290.3 256.965 289.468V272.015ZM259.262 297C257.993 297 256.965 295.988 256.965 294.74C256.965 293.492 257.993 292.481 259.262 292.481C260.53 292.481 261.559 293.492 261.559 294.74C261.559 295.988 260.53 297 259.262 297ZM277.636 297C276.368 297 275.34 295.988 275.34 294.74C275.34 293.492 276.368 292.481 277.636 292.481C278.905 292.481 279.933 293.492 279.933 294.74C279.933 295.988 278.905 297 277.636 297Z" fill="#512473"/>
<path d="M376.965 272.015L372 267.13L374.165 265L379.131 269.885H402.469C403.314 269.885 404 270.559 404 271.391C404 271.538 403.978 271.684 403.936 271.824L400.261 283.875C400.066 284.512 399.47 284.949 398.794 284.949H380.028V287.962H396.871V290.974H378.496C377.651 290.974 376.965 290.3 376.965 289.468V272.015ZM379.262 297C377.993 297 376.965 295.988 376.965 294.74C376.965 293.492 377.993 292.481 379.262 292.481C380.53 292.481 381.559 293.492 381.559 294.74C381.559 295.988 380.53 297 379.262 297ZM397.636 297C396.368 297 395.34 295.988 395.34 294.74C395.34 293.492 396.368 292.481 397.636 292.481C398.905 292.481 399.933 293.492 399.933 294.74C399.933 295.988 398.905 297 397.636 297Z" fill="#512473"/>
<rect x="451" y="97" width="9" height="9" fill="#AE72FF"/>
<rect x="202" y="97" width="9" height="9" fill="#AE72FF"/>
<rect x="451" y="213" width="9" height="9" fill="#AE72FF"/>
<rect x="202" y="213" width="9" height="9" fill="#AE72FF"/>
<rect x="0.5" y="90.5" width="164" height="37" rx="11.5" fill="#1F0433" stroke="#AE72FF"/>
<path d="M19.4268 105.382L16.4932 108.52L16.1738 108.862L16.4932 109.202L19.4268 112.339L19.1816 112.601L15.6836 108.861L19.1816 105.12L19.4268 105.382Z" fill="#F2EBFF" stroke="#AE72FF"/>
<path d="M142.509 102.694H150.274C150.328 102.694 150.372 102.738 150.372 102.792V110.558C150.372 110.611 150.328 110.654 150.274 110.654H147.385V113.54C147.385 113.597 147.34 113.642 147.283 113.642H139.526C139.47 113.642 139.425 113.597 139.425 113.54L139.427 105.783C139.427 105.726 139.472 105.681 139.528 105.681H142.411V102.792C142.411 102.738 142.455 102.694 142.509 102.694ZM139.621 106.376L139.62 112.946L139.619 113.447H147.19V105.876H139.621V106.376ZM142.606 105.681H147.283C147.34 105.681 147.385 105.726 147.385 105.783V110.46H150.177V102.889H142.606V105.681Z" fill="#F2EBFF" stroke="#AE72FF"/>
<rect opacity="0.64" x="49" y="100" width="80" height="16" rx="3" fill="#2E1044"/>
<rect y="49" width="165" height="35" rx="12" fill="#AE72FF"/>
<path d="M17.2169 66.6713L20.8857 70.3403L19.8375 71.3885L15.1203 66.6713L19.8375 61.9542L20.8857 63.0025L17.2169 66.6713Z" fill="#975BE9"/>
<path d="M145 58C140.582 58 137 61.5822 137 66C137 70.4178 140.582 74 145 74C145.738 74 146.333 73.4045 146.333 72.6667C146.333 72.32 146.204 72.0089 145.987 71.7733C145.778 71.5378 145.653 71.2311 145.653 70.8889C145.653 70.1511 146.249 69.5555 146.987 69.5555H148.556C151.009 69.5555 153 67.5644 153 65.1111C153 61.1822 149.418 58 145 58ZM140.111 66C139.373 66 138.778 65.4045 138.778 64.6667C138.778 63.9289 139.373 63.3333 140.111 63.3333C140.849 63.3333 141.444 63.9289 141.444 64.6667C141.444 65.4045 140.849 66 140.111 66ZM142.778 62.4445C142.04 62.4445 141.444 61.8489 141.444 61.1111C141.444 60.3733 142.04 59.7778 142.778 59.7778C143.516 59.7778 144.111 60.3733 144.111 61.1111C144.111 61.8489 143.516 62.4445 142.778 62.4445ZM147.222 62.4445C146.484 62.4445 145.889 61.8489 145.889 61.1111C145.889 60.3733 146.484 59.7778 147.222 59.7778C147.96 59.7778 148.556 60.3733 148.556 61.1111C148.556 61.8489 147.96 62.4445 147.222 62.4445ZM149.889 66C149.151 66 148.556 65.4045 148.556 64.6667C148.556 63.9289 149.151 63.3333 149.889 63.3333C150.627 63.3333 151.222 63.9289 151.222 64.6667C151.222 65.4045 150.627 66 149.889 66Z" fill="#975BE9"/>
<rect x="49" y="58" width="80" height="16" rx="3" fill="#975BE9"/>
<rect x="0.5" y="133.5" width="164" height="37" rx="11.5" fill="#1F0433" stroke="#AE72FF"/>
<path d="M20.4268 148.382L17.4932 151.52L17.1738 151.862L17.4932 152.202L20.4268 155.339L20.1816 155.601L16.6836 151.861L20.1816 148.12L20.4268 148.382Z" fill="#F2EBFF" stroke="#AE72FF"/>
<path d="M146.766 149.231L146.88 149.492L147.162 149.527L151.071 150.014L148.164 152.841L147.972 153.029L148.021 153.292L148.786 157.343L145.393 155.346L145.139 155.197L144.886 155.346L141.491 157.343L142.257 153.292L142.307 153.029L142.114 152.841L139.206 150.014L143.116 149.527L143.398 149.492L143.512 149.231L145.139 145.522L146.766 149.231ZM144.682 147.168L143.539 149.77L140.846 150.106L139.812 150.235L140.56 150.96L142.566 152.913L142.033 155.74L141.828 156.822L142.777 156.263L145.139 154.873L147.501 156.263L148.45 156.822L148.245 155.74L147.711 152.913L149.719 150.96L150.466 150.235L149.433 150.106L146.738 149.77L145.597 147.168L145.139 146.125L144.682 147.168Z" fill="#F2EBFF" stroke="#AE72FF"/>
<rect opacity="0.64" x="49" y="144" width="80" height="16" rx="3" fill="#2E1044"/>
<rect x="0.5" y="176.5" width="164" height="37" rx="11.5" fill="#1F0433" stroke="#AE72FF"/>
<path d="M21.9102 191.382L18.7803 194.507L18.4258 194.862L18.7803 195.215L21.9102 198.339L21.623 198.626L17.8506 194.861L21.623 191.095L21.9102 191.382Z" fill="#AE72FF" stroke="#AE72FF"/>
<mask id="path-35-inside-1_576_4919" fill="white">
<path d="M137.723 198.392L137.711 198.403C137.556 198.064 137.458 197.679 137.418 197.253C137.458 197.673 137.567 198.053 137.723 198.392Z"/>
</mask>
<path d="M137.723 198.392L137.711 198.403C137.556 198.064 137.458 197.679 137.418 197.253C137.458 197.673 137.567 198.053 137.723 198.392Z" fill="#AE72FF"/>
<path d="M137.723 198.392L138.43 199.099L138.921 198.608L138.632 197.976L137.723 198.392ZM137.711 198.403L136.802 198.82L137.401 200.128L138.418 199.111L137.711 198.403ZM137.418 197.253L138.413 197.158L136.422 197.348L137.418 197.253ZM137.723 198.392L137.016 197.685L137.004 197.696L137.711 198.403L138.418 199.111L138.43 199.099L137.723 198.392ZM137.711 198.403L138.621 197.987C138.519 197.764 138.445 197.491 138.414 197.159L137.418 197.253L136.422 197.348C136.472 197.867 136.593 198.364 136.802 198.82L137.711 198.403ZM137.418 197.253L136.423 197.349C136.474 197.885 136.614 198.372 136.813 198.808L137.723 198.392L138.632 197.976C138.521 197.733 138.443 197.462 138.413 197.158L137.418 197.253Z" fill="#AE72FF" mask="url(#path-35-inside-1_576_4919)"/>
<path d="M141.414 191.193C141.894 191.193 142.283 191.581 142.283 192.061C142.283 192.54 141.894 192.93 141.414 192.93C140.935 192.93 140.546 192.54 140.546 192.061C140.546 191.581 140.935 191.193 141.414 191.193Z" fill="#AE72FF" stroke="#AE72FF"/>
<path d="M146.656 195.028C146.917 194.804 147.366 194.804 147.627 195.028L147.63 195.03L147.704 195.094L148.39 195.673V196.77C148.39 197.717 148.109 198.413 147.65 198.872C147.192 199.331 146.496 199.611 145.549 199.611H140.73C139.608 199.611 138.824 199.218 138.372 198.559L138.732 198.318L140.883 196.875L140.884 196.874C141.162 196.686 141.561 196.715 141.793 196.917L141.799 196.922L141.804 196.927L141.991 197.08V197.081C142.587 197.593 143.505 197.625 144.142 197.177L144.265 197.081L146.656 195.028Z" fill="#AE72FF" stroke="#AE72FF"/>
<rect opacity="0.64" x="49" y="187" width="80" height="16" rx="3" fill="#2E1044"/>
</svg>
