<svg width="488" height="355" viewBox="0 0 488 355" fill="none" xmlns="http://www.w3.org/2000/svg">
<path d="M0 354H440.31" stroke="#AE72FF" stroke-miterlimit="10"/>
<path d="M110.324 1.02103C110.324 1.02103 127.467 0.201383 136.014 8.79598" stroke="#3C1C54" stroke-linecap="round" stroke-linejoin="round"/>
<path d="M281.396 312.488C281.396 305.532 282.285 298.999 283.831 293.261V271.412H302.355C313.924 271.412 323.315 289.795 323.315 312.464C323.315 335.133 313.924 353.517 302.355 353.517H283.831V331.667C282.285 325.93 281.396 319.396 281.396 312.441V312.488Z" fill="#3C1C54" stroke="#3C1C54" stroke-miterlimit="10"/>
<path d="M283.831 353.54C295.406 353.54 304.79 335.16 304.79 312.488C304.79 289.815 295.406 271.435 283.831 271.435C272.255 271.435 262.871 289.815 262.871 312.488C262.871 335.16 272.255 353.54 283.831 353.54Z" fill="#3C1C54" stroke="#3C1C54" stroke-miterlimit="10"/>
<path d="M282.122 341.012C289.326 341.012 295.166 328.346 295.166 312.722C295.166 297.098 289.326 284.433 282.122 284.433C274.918 284.433 269.078 297.098 269.078 312.722C269.078 328.346 274.918 341.012 282.122 341.012Z" fill="#AE72FF" stroke="#3C1C54" stroke-miterlimit="10"/>
<path d="M136.015 8.79614C138.872 11.6532 140.769 15.5641 140.769 20.8801V316.445C140.769 324.15 147.021 330.403 154.726 330.403H342.051" stroke="#3C1C54" stroke-linecap="round" stroke-linejoin="round"/>
<path d="M255.099 1.02103C255.099 1.02103 272.241 0.201383 280.789 8.79598" stroke="#3C1C54" stroke-linecap="round" stroke-linejoin="round"/>
<path d="M280.812 8.79614C283.669 11.6532 285.565 15.5641 285.565 20.8801V329.208" stroke="#3C1C54" stroke-linecap="round" stroke-linejoin="round"/>
<path d="M142.432 79.4028H286.783" stroke="#3C1C54" stroke-linecap="round" stroke-linejoin="round"/>
<path d="M216.715 78.8174V328.599" stroke="#3C1C54" stroke-linecap="round" stroke-linejoin="round"/>
<path d="M119.764 293.237L141.098 251.412" stroke="#3C1C54" stroke-linecap="round" stroke-linejoin="round"/>
<path d="M140.652 312.44H120.605" stroke="#3C1C54" stroke-linecap="round" stroke-linejoin="round"/>
<path d="M85.5244 312.487C85.5244 305.532 86.4143 298.998 87.9599 293.261V271.411H106.484C118.053 271.411 127.444 289.795 127.444 312.464C127.444 335.133 118.053 353.517 106.484 353.517H87.9599V331.667C86.4143 325.93 85.5244 319.396 85.5244 312.441V312.487Z" fill="#3C1C54" stroke="#3C1C54" stroke-miterlimit="10"/>
<path d="M87.9596 353.54C99.5352 353.54 108.919 335.16 108.919 312.487C108.919 289.815 99.5352 271.435 87.9596 271.435C76.3839 271.435 67 289.815 67 312.487C67 335.16 76.3839 353.54 87.9596 353.54Z" fill="#3C1C54" stroke="#3C1C54" stroke-miterlimit="10"/>
<path d="M73.207 312.722C73.207 328.342 79.0382 341.012 86.2511 341.012C93.464 341.012 99.2953 328.342 99.2953 312.722C99.2953 297.102 93.464 284.432 86.2511 284.432C79.0382 284.432 73.207 297.102 73.207 312.722Z" fill="#AE72FF" stroke="#3C1C54" stroke-miterlimit="10"/>
<path d="M335.986 174.959H164.516V328.327H335.986V174.959Z" fill="#3C1C54" stroke="#3C1C54" stroke-miterlimit="10"/>
<path d="M336.01 174.959H232.594V328.327H336.01V174.959Z" fill="#AE72FF" stroke="#3C1C54" stroke-miterlimit="10"/>
<path d="M295.096 174.959H273.457V246.292H295.096V174.959Z" fill="#1F0433" stroke="#3C1C54" stroke-miterlimit="10"/>
<rect x="323.5" y="24.5" width="164" height="37" rx="11.5" fill="#1F0433" stroke="#AE72FF"/>
<rect x="323.5" y="67.5" width="164" height="37" rx="11.5" fill="#1F0433" stroke="#AE72FF"/>
<rect x="323.5" y="110.5" width="164" height="37" rx="11.5" fill="#1F0433" stroke="#AE72FF"/>
<rect x="323.5" y="153.5" width="164" height="37" rx="11.5" fill="#1F0433" stroke="#AE72FF"/>
<circle cx="467.5" cy="42.5" r="6" fill="#1F0433" stroke="#AE72FF"/>
<circle cx="467.5" cy="85.5" r="6" fill="#1F0433" stroke="#AE72FF"/>
<circle cx="467.5" cy="129.5" r="6" fill="#1F0433" stroke="#AE72FF"/>
<circle opacity="0.58" cx="467.5" cy="129.5" r="3" fill="#D2B8FF" stroke="#AE72FF"/>
<circle cx="467.5" cy="172.5" r="6" fill="#1F0433" stroke="#AE72FF"/>
<mask id="mask0_726_2261" style="mask-type:luminance" maskUnits="userSpaceOnUse" x="432" y="33" width="19" height="20">
<path d="M450.5 34V52H432.5V34H450.5Z" fill="white" stroke="#E8D7FF"/>
<path d="M447.475 46.582C447.711 46.582 447.902 46.3905 447.902 46.1543C447.902 45.9181 447.711 45.7266 447.475 45.7266C447.238 45.7266 447.047 45.9181 447.047 46.1543C447.047 46.3905 447.238 46.582 447.475 46.582Z" fill="white" stroke="#E8D7FF"/>
<path d="M444.877 46.582C445.113 46.582 445.305 46.3905 445.305 46.1543C445.305 45.9181 445.113 45.7266 444.877 45.7266C444.641 45.7266 444.449 45.9181 444.449 46.1543C444.449 46.3905 444.641 46.582 444.877 46.582Z" fill="white" stroke="#E8D7FF"/>
</mask>
<g mask="url(#mask0_726_2261)">
<mask id="mask1_726_2261" style="mask-type:luminance" maskUnits="userSpaceOnUse" x="431" y="33" width="20" height="20">
<path d="M450.499 52.0002V34.0002H432.499V52.0002H450.499Z" fill="white" stroke="white"/>
</mask>
<g mask="url(#mask1_726_2261)">
<path d="M448.773 48.9373H434.227C433.407 48.9373 432.742 48.2727 432.742 47.4529V38.5466C432.742 37.7268 433.407 37.0623 434.227 37.0623H448.773C449.593 37.0623 450.258 37.7268 450.258 38.5466V47.4529C450.258 48.2727 449.593 48.9373 448.773 48.9373Z" stroke="#AE72FF" stroke-miterlimit="10" stroke-linecap="round" stroke-linejoin="round"/>
<path d="M432.742 40.031H450.258" stroke="#AE72FF" stroke-miterlimit="10" stroke-linecap="round" stroke-linejoin="round"/>
<path d="M447.475 46.582C447.711 46.582 447.902 46.3905 447.902 46.1543C447.902 45.9181 447.711 45.7266 447.475 45.7266C447.238 45.7266 447.047 45.9181 447.047 46.1543C447.047 46.3905 447.238 46.582 447.475 46.582Z" fill="#AE72FF" stroke="#AE72FF"/>
<path d="M444.877 46.582C445.113 46.582 445.305 46.3905 445.305 46.1543C445.305 45.9181 445.113 45.7266 444.877 45.7266C444.641 45.7266 444.449 45.9181 444.449 46.1543C444.449 46.3905 444.641 46.582 444.877 46.582Z" fill="#AE72FF" stroke="#AE72FF"/>
</g>
</g>
<mask id="mask2_726_2261" style="mask-type:luminance" maskUnits="userSpaceOnUse" x="432" y="120" width="19" height="19">
<path d="M450.5 120.5V138.5H432.5V120.5H450.5Z" fill="white" stroke="#E8D7FF"/>
<path d="M447.475 133.082C447.711 133.082 447.902 132.891 447.902 132.654C447.902 132.418 447.711 132.227 447.475 132.227C447.238 132.227 447.047 132.418 447.047 132.654C447.047 132.891 447.238 133.082 447.475 133.082Z" fill="white" stroke="#E8D7FF"/>
<path d="M444.877 133.082C445.113 133.082 445.305 132.891 445.305 132.654C445.305 132.418 445.113 132.227 444.877 132.227C444.641 132.227 444.449 132.418 444.449 132.654C444.449 132.891 444.641 133.082 444.877 133.082Z" fill="white" stroke="#E8D7FF"/>
</mask>
<g mask="url(#mask2_726_2261)">
<mask id="mask3_726_2261" style="mask-type:luminance" maskUnits="userSpaceOnUse" x="431" y="120" width="20" height="20">
<path d="M450.499 138.5V120.5H432.499V138.5H450.499Z" fill="white" stroke="white"/>
</mask>
<g mask="url(#mask3_726_2261)">
<path d="M448.773 135.437H434.227C433.407 135.437 432.742 134.773 432.742 133.953V125.047C432.742 124.227 433.407 123.562 434.227 123.562H448.773C449.593 123.562 450.258 124.227 450.258 125.047V133.953C450.258 134.773 449.593 135.437 448.773 135.437Z" stroke="#AE72FF" stroke-miterlimit="10" stroke-linecap="round" stroke-linejoin="round"/>
<path d="M432.742 126.531H450.258" stroke="#AE72FF" stroke-miterlimit="10" stroke-linecap="round" stroke-linejoin="round"/>
<path d="M447.475 133.082C447.711 133.082 447.902 132.891 447.902 132.654C447.902 132.418 447.711 132.227 447.475 132.227C447.238 132.227 447.047 132.418 447.047 132.654C447.047 132.891 447.238 133.082 447.475 133.082Z" fill="#AE72FF" stroke="#AE72FF"/>
<path d="M444.877 133.082C445.113 133.082 445.305 132.891 445.305 132.654C445.305 132.418 445.113 132.227 444.877 132.227C444.641 132.227 444.449 132.418 444.449 132.654C444.449 132.891 444.641 133.082 444.877 133.082Z" fill="#AE72FF" stroke="#AE72FF"/>
</g>
</g>
<path d="M449.55 166H433.95C432.874 166.001 432.001 166.874 432 167.95V177.05C432.001 178.126 432.874 178.999 433.95 179H449.55C450.626 178.999 451.499 178.126 451.5 177.05V167.95C451.499 166.874 450.626 166.001 449.55 166ZM450.2 177.05C450.2 177.409 449.909 177.7 449.55 177.7H433.95C433.591 177.7 433.3 177.409 433.3 177.05V167.95C433.3 167.591 433.591 167.3 433.95 167.3H449.55C449.909 167.3 450.2 167.591 450.2 167.95V177.05Z" fill="#AE72FF"/>
<path d="M448.252 169.9C447.893 169.9 447.602 169.609 447.602 169.25C447.602 168.891 447.311 168.6 446.952 168.6H436.552C436.193 168.6 435.902 168.891 435.902 169.25C435.901 169.609 435.61 169.9 435.252 169.9C434.893 169.9 434.602 170.191 434.602 170.55V174.45C434.602 174.809 434.893 175.1 435.252 175.1C435.61 175.101 435.901 175.391 435.902 175.75C435.902 176.109 436.193 176.4 436.552 176.4H446.952C447.311 176.4 447.602 176.109 447.602 175.75C447.602 175.391 447.893 175.101 448.252 175.1C448.611 175.1 448.902 174.809 448.902 174.45V170.55C448.902 170.191 448.611 169.9 448.252 169.9ZM447.602 173.911C447.047 174.108 446.61 174.545 446.413 175.1H437.09C436.893 174.545 436.456 174.108 435.902 173.911V171.089C436.456 170.892 436.893 170.455 437.09 169.9H446.413C446.61 170.455 447.047 170.892 447.602 171.089V173.911Z" fill="#AE72FF"/>
<path d="M443.05 171.85H440.45C440.091 171.85 439.8 172.141 439.8 172.5C439.8 172.859 440.091 173.15 440.45 173.15H443.05C443.409 173.15 443.7 172.859 443.7 172.5C443.7 172.141 443.409 171.85 443.05 171.85Z" fill="#AE72FF"/>
<rect opacity="0.64" x="343" y="35" width="80" height="16" rx="3" fill="#290C3E"/>
<rect opacity="0.64" x="343" y="76" width="80" height="16" rx="3" fill="#290C3E"/>
<rect opacity="0.64" x="343" y="123" width="80" height="16" rx="3" fill="#290C3E"/>
<rect opacity="0.64" x="343" y="164" width="80" height="16" rx="3" fill="#290C3E"/>
<path d="M441.359 76.0003C441.283 76.0027 441.208 76.0215 441.139 76.0553L433.701 79.7771C433.521 79.8669 433.407 80.0502 433.406 80.2513V81.8429C433.405 82.138 433.645 82.3784 433.94 82.3773H434.719L435.532 83.5975V89.1236L434.716 90.3459H433.94C433.921 90.3449 433.903 90.3449 433.885 90.3459C433.613 90.3731 433.406 90.6018 433.406 90.875V92.4667C433.405 92.7617 433.645 93.0011 433.94 93H448.814C449.108 92.999 449.345 92.7602 449.343 92.4667V90.875C449.342 90.5831 449.106 90.3469 448.814 90.3459H448.038L447.223 89.1236V83.5975L448.035 82.3773H448.814C449.108 82.3762 449.345 82.1364 449.343 81.8429V80.2513C449.344 80.0511 449.232 79.868 449.054 79.7771L441.615 76.0553C441.535 76.0161 441.447 75.9972 441.359 76.0003ZM441.375 77.1261L448.285 80.5771V81.3138H434.469V80.5771L441.375 77.1261ZM435.996 82.3773H438.256L437.904 82.9064H436.348L435.996 82.3773ZM440.243 82.3773H442.508L442.155 82.9064H440.595L440.243 82.3773ZM444.498 82.3773H446.758L446.406 82.9064H444.85L444.498 82.3773ZM439.25 82.8037L439.783 83.6037V89.1184L439.25 89.9184L438.72 89.1226V83.5996L439.25 82.8037ZM443.505 82.8037L444.034 83.6037V89.1184L443.505 89.9142L442.972 89.1184V83.6027L443.505 82.8037ZM436.595 83.9689H437.657V88.749H436.595V83.9689ZM440.846 83.9689H441.908V88.749H440.846V83.9689ZM445.097 83.9689H446.159V88.749H445.097V83.9689ZM436.348 89.8115H437.904L438.26 90.3459H435.993L436.348 89.8115ZM440.595 89.8115H442.155L442.512 90.3459H440.24L440.595 89.8115ZM444.85 89.8115H446.406L446.762 90.3459H444.495L444.85 89.8115ZM434.469 91.4084H448.285V91.9375H434.469V91.4084Z" fill="#AE72FF"/>
</svg>
