<svg width="441" height="387" viewBox="0 0 441 387" fill="none" xmlns="http://www.w3.org/2000/svg">
<path d="M0 386H440.31" stroke="#AE72FF" stroke-miterlimit="10"/>
<path d="M375.245 385.239V39.7997C375.245 19.791 359.996 3.26018 340.491 1.20149C340.14 1.17521 339.789 1.14017 339.447 1.11388C339.087 1.0876 338.736 1.07008 338.376 1.05256H338.368C337.701 1.01752 337.051 1 336.376 1H99.8781C99.2025 1 98.5445 1.01752 97.8864 1.05256H97.8601C77.3462 2.10381 61 19.0814 61 39.7997V385.248H375.245V385.239Z" fill="#AE72FF" stroke="#AE72FF" stroke-miterlimit="10"/>
<path d="M99.8779 1.5H336.376C337.043 1.5 337.684 1.51717 338.342 1.55176L338.354 1.55273H338.368C338.722 1.56997 339.061 1.58602 339.408 1.61133V1.6123C339.576 1.62519 339.747 1.64085 339.922 1.65625C340.096 1.67154 340.274 1.68582 340.453 1.69922C359.7 3.73814 374.745 20.0554 374.745 39.7998V384.748H61.5V39.7998C61.5 19.3552 77.6271 2.59826 97.8701 1.55273H97.8994L97.9131 1.55176C98.2375 1.53448 98.562 1.52134 98.8887 1.5127L99.8779 1.5Z" stroke="#AE72FF"/>
<path d="M360.075 385.239V39.8086C360.075 27.3425 350.379 17.014 337.955 16.2081H337.745L337.429 16.173C337.051 16.1555 336.709 16.1555 336.385 16.1555H302.262C300.305 16.2519 298.735 17.7587 298.533 19.686C298.533 19.8174 298.515 19.9488 298.515 20.0889V20.1415C298.05 30.1283 289.794 38.074 279.686 38.074H156.568C146.46 38.074 138.203 30.1283 137.738 20.1415V20.0889C137.738 19.9488 137.738 19.8174 137.721 19.686C137.528 17.7587 135.949 16.2519 133.992 16.1555H99.8693C99.5535 16.1555 99.2025 16.1555 98.8252 16.173L98.5093 16.2081H98.2988C85.8746 17.0228 76.1792 27.3425 76.1792 39.8086V385.248H360.075V385.239Z" fill="#1F0433" stroke="#AE72FF" stroke-miterlimit="10"/>
<path d="M218.001 10.5C219.306 10.5002 220.352 11.5151 220.352 12.8516C220.351 14.3477 219.84 15.7929 218.919 16.9531L218.59 17.2832L221.18 19.873L221.529 19.5938C222.691 18.6652 224.184 18.1495 225.647 18.1494C226.948 18.1494 227.999 19.2005 227.999 20.501C227.999 21.8059 226.984 22.8516 225.647 22.8516C224.144 22.8515 222.692 22.3367 221.529 21.4072L221.18 21.1279L218.627 23.6807L218.906 24.0303C219.835 25.192 220.35 26.6848 220.351 28.1484C220.351 29.4489 219.299 30.5 217.999 30.5C216.694 30.4998 215.648 29.4849 215.648 28.1484C215.649 26.6455 216.163 25.1932 217.093 24.0303L217.372 23.6807L214.819 21.1279L214.47 21.4072C213.308 22.3358 211.815 22.8515 210.352 22.8516C209.051 22.8516 208 21.8012 208 20.501C208 19.1958 209.016 18.1484 210.353 18.1484C211.856 18.1485 213.308 18.6633 214.471 19.5928L214.82 19.8721L217.373 17.3193L217.094 16.9697C216.165 15.808 215.65 14.3152 215.649 12.8516C215.649 11.5511 216.701 10.5 218.001 10.5ZM217.594 24.8252C216.905 25.7888 216.527 26.9505 216.527 28.1494C216.527 28.9654 217.185 29.623 218.001 29.623C218.817 29.6228 219.474 28.9652 219.474 28.1494C219.474 26.9505 219.096 25.7888 218.407 24.8252L218.001 24.2559L217.594 24.8252ZM217.646 18.2881L215.788 20.1465L215.435 20.501L217.646 22.7129L218.001 23.0664L220.566 20.501L220.213 20.1465L218.001 17.9346L217.646 18.2881ZM210.352 19.0273C209.536 19.0273 208.878 19.685 208.878 20.501C208.878 21.3167 209.536 21.9736 210.352 21.9736C211.551 21.9735 212.712 21.5958 213.676 20.9072L214.245 20.501L213.676 20.0938C212.712 19.4051 211.551 19.0274 210.352 19.0273ZM225.649 19.0273C224.45 19.0274 223.289 19.4052 222.325 20.0938L221.756 20.501L222.325 20.9072C223.289 21.5958 224.45 21.9735 225.649 21.9736C226.465 21.9736 227.123 21.3167 227.123 20.501C227.123 19.685 226.465 19.0273 225.649 19.0273ZM218.001 11.3779C217.185 11.3779 216.527 12.0356 216.527 12.8516C216.527 14.0505 216.905 15.2122 217.594 16.1758L218.001 16.7451L218.407 16.1758C219.096 15.2122 219.474 14.0505 219.474 12.8516C219.474 12.0358 218.817 11.3782 218.001 11.3779Z" fill="white" stroke="#1F0433"/>
<rect x="106" y="145" width="227" height="206" rx="26" fill="#2D1043"/>
<path d="M64.52 109.81H44V132.34H64.52V109.81Z" fill="#1F0433" stroke="#AE72FF" stroke-miterlimit="10"/>
<path d="M85.0298 109.81H64.5098V132.34H85.0298V109.81Z" fill="#3C1C54" stroke="#AE72FF" stroke-miterlimit="10"/>
<path d="M105.55 109.81H85.0298V132.34H105.55V109.81Z" fill="#1F0433" stroke="#AE72FF" stroke-miterlimit="10"/>
<path d="M126.07 109.81H105.55V132.34H126.07V109.81Z" fill="#3C1C54" stroke="#AE72FF" stroke-miterlimit="10"/>
<path d="M146.59 109.81H126.07V132.34H146.59V109.81Z" fill="#1F0433" stroke="#AE72FF" stroke-miterlimit="10"/>
<path d="M167.1 109.81H146.58V132.34H167.1V109.81Z" fill="#3C1C54" stroke="#AE72FF" stroke-miterlimit="10"/>
<path d="M187.62 109.81H167.1V132.34H187.62V109.81Z" fill="#1F0433" stroke="#AE72FF" stroke-miterlimit="10"/>
<path d="M208.14 109.81H187.62V132.34H208.14V109.81Z" fill="#3C1C54" stroke="#AE72FF" stroke-miterlimit="10"/>
<path d="M228.65 109.81H208.13V132.34H228.65V109.81Z" fill="#1F0433" stroke="#AE72FF" stroke-miterlimit="10"/>
<path d="M249.17 109.81H228.65V132.34H249.17V109.81Z" fill="#3C1C54" stroke="#AE72FF" stroke-miterlimit="10"/>
<path d="M269.69 109.81H249.17V132.34H269.69V109.81Z" fill="#1F0433" stroke="#AE72FF" stroke-miterlimit="10"/>
<path d="M290.21 109.81H269.69V132.34H290.21V109.81Z" fill="#3C1C54" stroke="#AE72FF" stroke-miterlimit="10"/>
<path d="M310.72 109.81H290.2V132.34H310.72V109.81Z" fill="#1F0433" stroke="#AE72FF" stroke-miterlimit="10"/>
<path d="M331.24 109.81H310.72V132.34H331.24V109.81Z" fill="#3C1C54" stroke="#AE72FF" stroke-miterlimit="10"/>
<path d="M351.76 109.81H331.24V132.34H351.76V109.81Z" fill="#1F0433" stroke="#AE72FF" stroke-miterlimit="10"/>
<path d="M372.27 109.81H351.75V132.34H372.27V109.81Z" fill="#3C1C54" stroke="#AE72FF" stroke-miterlimit="10"/>
<path d="M392.79 109.81H372.27V132.34H392.79V109.81Z" fill="#1F0433" stroke="#AE72FF" stroke-miterlimit="10"/>
<path d="M64.51 110.13H44L61.44 52H79.9L64.51 110.13Z" fill="#1F0433" stroke="#AE72FF" stroke-miterlimit="10"/>
<path d="M85.0298 110.13H64.5098L79.8998 52H98.3698L85.0298 110.13Z" fill="#3C1C54" stroke="#AE72FF" stroke-miterlimit="10"/>
<path d="M105.55 110.13H85.0298L98.3698 52H116.83L105.55 110.13Z" fill="#1F0433" stroke="#AE72FF" stroke-miterlimit="10"/>
<path d="M126.07 110.13H105.55L116.83 52H135.3L126.07 110.13Z" fill="#3C1C54" stroke="#AE72FF" stroke-miterlimit="10"/>
<path d="M146.58 110.13H126.07L135.3 52H153.76L146.58 110.13Z" fill="#1F0433" stroke="#AE72FF" stroke-miterlimit="10"/>
<path d="M167.1 110.13H146.58L153.76 52H172.23L167.1 110.13Z" fill="#3C1C54" stroke="#AE72FF" stroke-miterlimit="10"/>
<path d="M187.62 110.13H167.1L172.23 52H190.69L187.62 110.13Z" fill="#1F0433" stroke="#AE72FF" stroke-miterlimit="10"/>
<path d="M208.13 110.13H187.62L190.69 52H209.16L208.13 110.13Z" fill="#3C1C54" stroke="#AE72FF" stroke-miterlimit="10"/>
<path d="M228.65 110.13H208.13L209.16 52H227.63L228.65 110.13Z" fill="#1F0433" stroke="#AE72FF" stroke-miterlimit="10"/>
<path d="M249.17 110.13H228.65L227.63 52H246.09L249.17 110.13Z" fill="#3C1C54" stroke="#AE72FF" stroke-miterlimit="10"/>
<path d="M269.69 110.13H249.17L246.09 52H264.56L269.69 110.13Z" fill="#1F0433" stroke="#AE72FF" stroke-miterlimit="10"/>
<path d="M290.2 110.13H269.69L264.56 52H283.02L290.2 110.13Z" fill="#3C1C54" stroke="#AE72FF" stroke-miterlimit="10"/>
<path d="M310.72 110.13H290.2L283.02 52H301.49L310.72 110.13Z" fill="#1F0433" stroke="#AE72FF" stroke-miterlimit="10"/>
<path d="M331.24 110.13H310.72L301.49 52H319.95L331.24 110.13Z" fill="#3C1C54" stroke="#AE72FF" stroke-miterlimit="10"/>
<path d="M351.75 110.13H331.24L319.95 52H338.42L351.75 110.13Z" fill="#1F0433" stroke="#AE72FF" stroke-miterlimit="10"/>
<path d="M372.27 110.13H351.75L338.42 52H356.88L372.27 110.13Z" fill="#3C1C54" stroke="#AE72FF" stroke-miterlimit="10"/>
<path d="M392.79 110.13H372.27L356.88 52H375.35L392.79 110.13Z" fill="#1F0433" stroke="#AE72FF" stroke-miterlimit="10"/>
<path d="M149.044 378.894C143.511 378.894 138.986 374.478 138.964 368.979C138.964 363.502 143.447 359.022 148.98 359.001C154.513 359.001 159.038 363.438 159.06 368.916C159.06 370.869 158.502 372.737 157.43 374.372L159.038 378.002C159.124 378.172 159.081 378.384 158.953 378.512C158.824 378.639 158.61 378.681 158.438 378.618L154.813 377.068C153.119 378.278 151.125 378.915 149.023 378.915L149.044 378.894ZM148.98 359.914C143.94 359.914 139.865 363.99 139.887 368.979C139.887 373.968 144.004 378.002 149.044 377.981C151.017 377.981 152.905 377.344 154.492 376.155C154.62 376.049 154.792 376.028 154.964 376.091L157.752 377.28L156.508 374.499C156.443 374.35 156.465 374.181 156.551 374.053C157.602 372.525 158.159 370.763 158.159 368.916C158.159 363.927 154.041 359.893 149.001 359.914H148.98Z" fill="#AE72FF"/>
<path d="M117.367 379C117.367 379 117.195 378.979 117.131 378.937C116.659 378.639 106 372.037 106 366.284C106 362.59 109.024 359.575 112.756 359.554C114.45 359.554 116.037 360.148 117.302 361.273C118.546 360.148 120.133 359.511 121.828 359.511C125.559 359.511 128.626 362.505 128.626 366.199C128.626 371.952 118.053 378.639 117.603 378.915C117.517 378.958 117.453 378.979 117.367 378.979V379Z" fill="#D2B8FF"/>
<path d="M117.367 379C117.367 379 117.195 378.979 117.131 378.937C116.659 378.639 106 372.037 106 366.284C106 362.59 109.024 359.575 112.756 359.554C114.45 359.554 116.037 360.148 117.302 361.273C118.546 360.148 120.133 359.511 121.828 359.511C125.559 359.511 128.626 362.505 128.626 366.199C128.626 371.952 118.053 378.639 117.603 378.915C117.538 378.958 117.453 378.979 117.367 378.979V379ZM112.756 360.488C109.539 360.488 106.922 363.099 106.922 366.305C106.922 371.103 115.758 376.984 117.367 378.003C118.954 376.962 127.726 371.018 127.726 366.22C127.726 363.035 125.088 360.445 121.849 360.445C120.262 360.445 118.761 361.082 117.646 362.25C117.474 362.42 117.152 362.441 116.981 362.25C115.865 361.103 114.364 360.467 112.777 360.488H112.756Z" fill="#AE72FF"/>
<path d="M337.286 377.238C337.286 377.238 337.072 377.217 336.986 377.153L328.922 371.506L320.901 377.195C320.751 377.302 320.536 377.323 320.365 377.238C320.193 377.153 320.086 376.983 320.086 376.792L320 355.689C320 355.413 320.214 355.18 320.515 355.18L337.2 355.116C337.479 355.116 337.715 355.35 337.715 355.626L337.801 376.728C337.801 376.919 337.694 377.089 337.522 377.174C337.458 377.217 337.372 377.238 337.286 377.238ZM328.922 370.381C328.922 370.381 329.136 370.402 329.222 370.465L336.771 375.752L336.707 356.114L321.072 356.178L321.137 375.815L328.643 370.487C328.643 370.487 328.836 370.402 328.943 370.402L328.922 370.381Z" fill="#AE72FF"/>
<path d="M163.429 279.995L163.426 280.014C163.18 281.677 163.189 283.322 163.455 284.904C164.055 288.458 165.907 293.051 171.323 294.747C172.486 295.113 173.75 295.298 175.082 295.298H260.139C261.47 295.298 262.736 295.113 263.899 294.747C269.313 293.051 271.165 288.458 271.766 284.903C272.033 283.321 272.043 281.676 271.795 280.013C271.173 275.817 269.027 261.368 267.265 249.891C267.04 250.668 266.669 251.578 266.063 252.539C267.668 263.043 269.49 275.296 270.088 279.331C270.326 280.927 270.327 282.553 270.058 284.143C269.501 287.443 267.733 292.167 262.255 293.883C261.053 294.26 259.797 294.428 258.535 294.428H176.686C175.427 294.428 174.168 294.26 172.969 293.883C167.491 292.167 165.721 287.443 165.164 284.143C164.897 282.553 164.899 280.928 165.135 279.331C165.735 275.296 167.556 263.045 169.161 252.542C168.557 251.581 168.186 250.671 167.961 249.894C166.805 257.42 165.284 267.527 163.43 279.993L163.429 279.995Z" fill="#2D1043"/>
<path d="M165.136 279.331C164.899 280.927 164.898 282.553 165.165 284.143C165.722 287.444 167.493 292.167 172.969 293.884C174.17 294.26 175.427 294.429 176.687 294.429H258.535C259.796 294.429 261.053 294.26 262.256 293.884C267.733 292.167 269.502 287.444 270.059 284.143C270.327 282.553 270.326 280.928 270.088 279.331C269.49 275.296 267.668 263.043 266.064 252.539C265.48 253.467 264.676 254.44 263.573 255.385L267.471 282.714C267.655 284 267.658 285.259 267.482 286.458C266.885 290.524 264.599 292.763 261.045 292.763H174.166C170.612 292.763 168.326 290.524 167.729 286.458C167.553 285.259 167.556 284 167.74 282.714L171.64 255.376C170.544 254.435 169.744 253.466 169.162 252.543C167.556 263.046 165.736 275.297 165.136 279.333V279.331Z" fill="#AE72FF"/>
<path d="M266.77 282.813L262.932 255.904C262.275 256.407 261.524 256.898 260.67 257.365L263.811 279.7C263.972 280.843 263.986 282.004 263.821 283.147C263.468 285.582 262.232 288.83 258.139 288.83H177.07C172.978 288.83 171.742 285.582 171.387 283.147C171.223 282.004 171.238 280.843 171.398 279.7L174.539 257.358C173.684 256.891 172.934 256.399 172.277 255.896L168.437 282.814C168.263 284.033 168.26 285.224 168.426 286.356C168.808 288.957 170.114 292.058 174.164 292.058H261.042C265.092 292.058 266.398 288.958 266.78 286.356C266.946 285.224 266.942 284.032 266.768 282.814L266.77 282.813Z" fill="#2D1043"/>
<path d="M171.388 283.146C171.741 285.581 172.977 288.829 177.07 288.829H258.141C262.232 288.829 263.469 285.581 263.823 283.146C263.988 282.003 263.973 280.842 263.812 279.699L260.672 257.364C260.364 257.532 260.045 257.697 259.709 257.858C251.873 261.621 224.392 271.015 217.719 271.015C217.681 271.015 217.642 271.015 217.605 271.015C217.568 271.015 217.53 271.015 217.493 271.015C210.835 271.015 183.351 261.621 175.515 257.858C175.175 257.694 174.851 257.527 174.54 257.357L171.399 279.699C171.239 280.842 171.224 282.003 171.389 283.146H171.388Z" fill="#2D1043"/>
<path d="M259.555 254.978C251.389 258.898 223.853 268.206 217.611 268.099C211.37 268.204 183.834 258.898 175.668 254.978C170.81 252.645 169.008 249.535 168.345 247.398C168.338 247.443 168.331 247.487 168.324 247.532C168.324 247.532 168.324 247.532 168.324 247.533C168.309 247.775 168.044 253.486 175.822 257.22C184.484 261.378 211.277 270.308 217.503 270.308C217.539 270.308 217.573 270.308 217.607 270.308C217.64 270.308 217.675 270.308 217.711 270.308C223.947 270.308 250.743 261.378 259.404 257.22C267.179 253.488 266.917 247.775 266.902 247.533C266.902 247.533 266.902 247.533 266.902 247.532C266.895 247.486 266.888 247.441 266.881 247.394C266.22 249.531 264.418 252.643 259.557 254.978H259.555Z" fill="#AE72FF"/>
<path d="M168.344 247.398C169.007 249.535 170.809 252.645 175.667 254.978C183.833 258.898 211.369 268.206 217.611 268.099C223.853 268.205 251.389 258.898 259.554 254.978C264.416 252.644 266.217 249.531 266.878 247.394C265.753 240.124 265.089 236.053 264.848 234.954C264.841 234.925 264.834 234.896 264.827 234.867C264.814 234.81 264.8 234.754 264.785 234.7C264.773 234.657 264.762 234.614 264.75 234.571C264.731 234.505 264.711 234.44 264.69 234.376C264.675 234.33 264.659 234.284 264.642 234.238C264.633 234.212 264.623 234.185 264.612 234.158C264.58 234.073 264.546 233.989 264.51 233.908C264.509 233.904 264.506 233.901 264.505 233.898C264.03 232.824 263.288 232.188 262.591 231.812C262.916 233.793 263.484 237.588 264.282 243.119C264.285 243.136 264.286 243.153 264.286 243.169C264.3 243.421 264.553 249.588 256.911 253.52C251.153 256.483 234.747 262.671 224.519 265.401C221.927 266.092 219.928 266.506 218.556 266.637C218.239 266.667 217.957 266.682 217.707 266.682C217.671 266.682 217.636 266.682 217.602 266.682C216.301 266.706 213.979 266.276 210.701 265.403C200.465 262.669 184.059 256.482 178.306 253.521C170.719 249.618 170.914 243.511 170.931 243.168C170.931 243.152 170.932 243.133 170.935 243.12C171.746 237.498 172.301 233.782 172.624 231.814C171.93 232.19 171.21 232.811 170.738 233.841C170.727 233.867 170.714 233.894 170.702 233.921C170.678 233.975 170.655 234.032 170.633 234.09C170.612 234.142 170.592 234.196 170.572 234.25C170.56 234.284 170.548 234.318 170.536 234.353C170.511 234.43 170.486 234.507 170.464 234.587C170.456 234.616 170.448 234.645 170.441 234.674C170.42 234.752 170.401 234.831 170.382 234.912C170.378 234.926 170.375 234.939 170.373 234.953C170.131 236.054 169.466 240.127 168.341 247.398H168.344Z" fill="#2D1043"/>
<path d="M256.751 248.817C250.976 251.789 234.817 257.854 224.796 260.571V264.597C235.01 261.819 250.946 255.799 256.589 252.894C263.83 249.168 263.595 243.443 263.583 243.2V243.198C263.515 242.734 263.45 242.284 263.386 241.846C262.634 243.935 260.872 246.697 256.751 248.816V248.817Z" fill="#AE72FF"/>
<path d="M178.471 248.817C174.35 246.697 172.587 243.935 171.835 241.846C171.772 242.284 171.707 242.734 171.64 243.199V243.201C171.626 243.444 171.392 249.171 178.633 252.895C184.272 255.796 200.207 261.818 210.428 264.599V260.574C200.407 257.854 184.247 251.79 178.472 248.818L178.471 248.817Z" fill="#AE72FF"/>
<path d="M173.399 231.482C173.115 233.153 172.602 236.557 171.836 241.846C172.587 243.936 174.351 246.696 178.471 248.817C184.247 251.789 200.406 257.855 210.428 260.572V258.076C210.428 256.094 212.041 254.481 214.027 254.481H221.198C223.182 254.481 224.797 256.093 224.797 258.076V260.571C234.818 257.855 250.977 251.789 256.752 248.817C260.871 246.699 262.635 243.937 263.387 241.847C262.635 236.662 262.111 233.188 261.827 231.505C261.057 231.237 260.441 231.232 260.434 231.232H242.86C243.432 232.512 243.587 234.454 242.765 235.801C242.287 236.583 241.275 237.506 239.154 237.506C239.126 237.506 239.097 237.506 239.069 237.506C236.887 237.48 235.039 236.49 233.998 234.788C233.324 233.683 233.072 232.382 233.274 231.232H201.953C202.154 232.381 201.903 233.683 201.228 234.788C200.188 236.49 198.341 237.48 196.158 237.506C196.129 237.506 196.101 237.506 196.073 237.506C193.952 237.506 192.94 236.582 192.462 235.801C191.64 234.455 191.795 232.513 192.367 231.232H174.725C174.725 231.232 174.136 231.237 173.399 231.482Z" fill="#AE72FF"/>
<path d="M165.955 258.362C165.031 264.47 163.953 271.667 162.731 279.89L162.727 279.91C162.471 281.646 162.481 283.365 162.759 285.021C163.392 288.77 165.355 293.617 171.113 295.421C172.343 295.808 173.68 296.004 175.082 296.004H260.14C261.543 296.004 262.879 295.808 264.111 295.422C267.598 294.33 269.691 292.119 270.941 289.713C271.755 288.147 272.213 286.5 272.462 285.022C272.742 283.368 272.753 281.648 272.494 279.911C272.078 277.107 270.982 269.727 269.773 261.71C269.708 261.281 269.643 260.851 269.578 260.418C267.865 249.065 265.991 236.874 265.538 234.803C265.531 234.772 265.523 234.744 265.516 234.714C265.498 234.641 265.481 234.569 265.462 234.498C265.452 234.459 265.441 234.419 265.431 234.38C265.404 234.287 265.375 234.198 265.346 234.11C265.336 234.078 265.325 234.047 265.315 234.017C265.281 233.923 265.248 233.832 265.21 233.743C265.203 233.726 265.195 233.708 265.188 233.69C264.508 232.08 263.306 231.297 262.334 230.916C261.35 230.529 260.532 230.524 260.499 230.524H242.525C241.853 228.847 241.965 226.471 242.197 222.902C242.249 222.09 242.248 221.205 242.192 220.269C241.947 216.147 240.693 211.975 238.566 208.203C231.339 195.386 219.068 195.003 217.702 195.001C217.565 194.997 214.281 194.942 210.024 196.537C206.097 198.009 200.591 201.226 196.656 208.203C194.529 211.975 193.275 216.147 193.03 220.269C192.974 221.204 192.973 222.09 193.026 222.902C193.258 226.471 193.368 228.847 192.697 230.524H174.659C174.627 230.524 173.886 230.528 172.969 230.859C172.929 230.875 172.893 230.899 172.861 230.926C171.799 231.348 170.537 232.222 169.903 234.031C169.897 234.048 169.891 234.066 169.885 234.083C169.852 234.183 169.819 234.285 169.789 234.39C169.782 234.416 169.775 234.441 169.768 234.467C169.741 234.563 169.717 234.662 169.695 234.762C169.691 234.776 169.688 234.788 169.686 234.802C169.44 235.924 168.764 240.06 167.621 247.448C167.62 247.456 167.619 247.466 167.618 247.478C167.172 250.363 166.662 253.694 166.093 257.456C166.048 257.755 166.002 258.057 165.956 258.362H165.955ZM193.73 222.856C193.679 222.074 193.68 221.218 193.735 220.312C193.974 216.297 195.197 212.229 197.272 208.55C201.095 201.771 206.436 198.641 210.243 197.209C214.379 195.654 217.654 195.706 217.694 195.707C219.027 195.708 230.921 196.082 237.953 208.55C240.028 212.229 241.251 216.296 241.49 220.312C241.543 221.219 241.544 222.075 241.494 222.858C241.233 226.881 241.123 229.441 242.111 231.306C242.607 232.242 242.95 234.142 242.162 235.434C241.727 236.147 241.008 236.584 240.02 236.737C239.728 236.782 239.416 236.804 239.078 236.8C237.145 236.778 235.514 235.91 234.603 234.42C233.827 233.15 233.692 231.596 234.26 230.462C235.682 227.621 237.709 219.518 234.899 212.606C232.058 205.619 224.467 200.103 217.611 200.048C210.761 200.103 203.17 205.619 200.329 212.606C197.518 219.519 199.546 227.621 200.968 230.462C201.536 231.596 201.401 233.15 200.625 234.42C199.714 235.91 198.083 236.778 196.15 236.8C195.812 236.804 195.499 236.782 195.207 236.737C194.221 236.583 193.5 236.147 193.065 235.434C192.275 234.141 192.619 232.242 193.116 231.306C194.104 229.443 193.994 226.881 193.733 222.858L193.73 222.856ZM201.599 230.145C200.223 227.397 198.262 219.56 200.982 212.87C203.724 206.128 211.03 200.804 217.61 200.753C224.196 200.806 231.501 206.128 234.242 212.87C236.962 219.56 235.002 227.398 233.626 230.145C233.564 230.268 233.512 230.396 233.464 230.526H201.76C201.713 230.396 201.66 230.268 201.599 230.145ZM192.46 235.8C192.937 236.582 193.95 237.505 196.071 237.505C196.099 237.505 196.128 237.505 196.156 237.505C198.337 237.479 200.186 236.489 201.226 234.787C201.901 233.682 202.153 232.381 201.951 231.231H233.272C233.071 232.38 233.322 233.682 233.996 234.787C235.037 236.489 236.884 237.479 239.067 237.505C239.096 237.505 239.123 237.505 239.151 237.505C241.273 237.505 242.285 236.581 242.762 235.8C243.584 234.454 243.43 232.512 242.857 231.231H260.431C260.438 231.231 261.056 231.236 261.825 231.504C262.109 233.187 262.633 236.661 263.385 241.846C263.449 242.285 263.514 242.735 263.581 243.198V243.2C263.595 243.443 263.83 249.168 256.588 252.894C250.945 255.797 235.009 261.819 224.795 264.597V258.076C224.795 256.094 223.181 254.481 221.195 254.481H214.025C212.04 254.481 210.425 256.093 210.425 258.076V264.598C200.204 261.817 184.269 255.796 178.631 252.894C171.39 249.17 171.625 243.443 171.637 243.2V243.198C171.705 242.733 171.77 242.283 171.833 241.845C172.599 236.556 173.112 233.152 173.395 231.481C174.133 231.236 174.715 231.231 174.721 231.231H192.363C191.79 232.511 191.636 234.453 192.458 235.8H192.46ZM170.444 234.674C170.452 234.645 170.459 234.616 170.467 234.587C170.49 234.507 170.514 234.43 170.539 234.353C170.551 234.318 170.562 234.284 170.575 234.25C170.595 234.195 170.615 234.142 170.635 234.09C170.658 234.032 170.681 233.976 170.705 233.921C170.717 233.894 170.728 233.867 170.741 233.841C171.212 232.811 171.931 232.189 172.627 231.814C172.304 233.781 171.749 237.497 170.937 243.12C170.935 243.133 170.934 243.153 170.934 243.168C170.916 243.511 170.721 249.618 178.309 253.521C184.062 256.482 200.468 262.67 210.704 265.403C213.982 266.275 216.304 266.706 217.604 266.682C217.639 266.682 217.674 266.682 217.71 266.682C217.959 266.682 218.243 266.667 218.559 266.637C219.93 266.506 221.928 266.092 224.522 265.401C234.75 262.671 251.156 256.483 256.913 253.52C264.556 249.587 264.302 243.421 264.289 243.169C264.289 243.152 264.287 243.135 264.285 243.119C263.486 237.588 262.918 233.793 262.593 231.811C263.291 232.188 264.033 232.824 264.508 233.897C264.509 233.901 264.511 233.904 264.513 233.908C264.549 233.989 264.582 234.073 264.615 234.158C264.625 234.185 264.635 234.212 264.645 234.238C264.661 234.284 264.676 234.33 264.693 234.376C264.713 234.44 264.733 234.505 264.753 234.571C264.765 234.613 264.776 234.656 264.788 234.7C264.802 234.754 264.816 234.81 264.83 234.867C264.837 234.896 264.843 234.925 264.85 234.954C265.092 236.053 265.756 240.124 266.881 247.394C266.888 247.441 266.895 247.486 266.902 247.532V247.534C266.917 247.775 267.18 253.488 259.404 257.22C250.742 261.379 223.947 270.308 217.711 270.308C217.676 270.308 217.641 270.308 217.607 270.308C217.573 270.308 217.538 270.308 217.503 270.308C211.276 270.308 184.484 261.378 175.822 257.22C168.044 253.487 168.309 247.775 168.324 247.534V247.532C168.331 247.487 168.338 247.443 168.345 247.398C169.47 240.126 170.134 236.054 170.377 234.953C170.38 234.939 170.383 234.926 170.386 234.912C170.404 234.831 170.424 234.752 170.445 234.674H170.444ZM224.09 264.769V264.786C224.037 264.8 223.982 264.814 223.93 264.828C223.83 264.855 223.73 264.88 223.631 264.906C223.538 264.93 223.447 264.953 223.355 264.976C223.262 265 223.169 265.024 223.079 265.046C222.986 265.069 222.894 265.091 222.803 265.114C222.718 265.135 222.63 265.157 222.546 265.177C222.453 265.199 222.362 265.221 222.271 265.242C222.192 265.26 222.113 265.279 222.036 265.298C221.942 265.32 221.85 265.34 221.759 265.361C221.688 265.378 221.617 265.394 221.547 265.409C221.453 265.43 221.361 265.449 221.27 265.469C221.206 265.483 221.141 265.497 221.078 265.51C220.984 265.529 220.892 265.548 220.802 265.567C220.745 265.578 220.688 265.59 220.632 265.601C220.538 265.62 220.448 265.637 220.356 265.655C220.306 265.664 220.256 265.674 220.207 265.682C220.114 265.7 220.024 265.716 219.934 265.731C219.892 265.739 219.847 265.746 219.804 265.754C219.713 265.769 219.624 265.785 219.536 265.798C219.499 265.804 219.46 265.811 219.424 265.817C219.334 265.831 219.248 265.842 219.162 265.855C219.13 265.86 219.096 265.865 219.064 265.869C218.977 265.881 218.894 265.891 218.812 265.9C218.784 265.904 218.754 265.907 218.727 265.911C218.642 265.92 218.562 265.928 218.482 265.935C218.459 265.938 218.434 265.94 218.412 265.942C218.331 265.949 218.254 265.955 218.178 265.96C218.159 265.961 218.138 265.963 218.12 265.964C218.041 265.969 217.966 265.971 217.893 265.974C217.879 265.974 217.864 265.975 217.85 265.976C217.764 265.978 217.682 265.978 217.604 265.976C217.526 265.977 217.444 265.976 217.359 265.975C217.352 265.975 217.343 265.975 217.336 265.975C217.258 265.972 217.177 265.969 217.092 265.964C217.07 265.963 217.047 265.961 217.025 265.96C216.953 265.955 216.881 265.95 216.805 265.943C216.768 265.94 216.728 265.935 216.689 265.932C216.625 265.926 216.563 265.919 216.495 265.912C216.445 265.906 216.392 265.899 216.34 265.894C216.282 265.887 216.225 265.88 216.164 265.871C216.102 265.863 216.037 265.853 215.973 265.844C215.919 265.836 215.866 265.829 215.812 265.82C215.74 265.81 215.665 265.797 215.591 265.785C215.54 265.776 215.489 265.768 215.436 265.759C215.358 265.745 215.276 265.731 215.195 265.716C215.142 265.707 215.09 265.698 215.036 265.687C214.953 265.672 214.868 265.655 214.782 265.638C214.726 265.628 214.67 265.618 214.613 265.606C214.527 265.589 214.439 265.571 214.351 265.553C214.289 265.54 214.229 265.528 214.166 265.514C214.079 265.496 213.991 265.477 213.902 265.458C213.833 265.442 213.765 265.429 213.695 265.412C213.609 265.394 213.521 265.373 213.434 265.353C213.356 265.336 213.278 265.318 213.199 265.3C213.116 265.28 213.031 265.26 212.945 265.241C212.857 265.22 212.768 265.199 212.679 265.177C212.598 265.157 212.515 265.137 212.433 265.117C212.335 265.092 212.238 265.069 212.139 265.044C212.058 265.024 211.975 265.003 211.893 264.981C211.788 264.954 211.684 264.928 211.578 264.901C211.495 264.879 211.41 264.857 211.325 264.835C211.262 264.819 211.2 264.801 211.136 264.785L211.136 265.177C212.679 265.353 214.744 266.281 216.34 266.281L220.632 265.817C222.226 265.817 221.27 265.046 222.271 265.716L224.091 264.766L224.09 264.769ZM261.044 292.057H174.166C170.115 292.057 168.81 288.957 168.428 286.355C168.262 285.223 168.266 284.031 168.44 282.813L172.28 255.895C172.937 256.399 173.687 256.891 174.541 257.357C174.852 257.527 175.176 257.694 175.517 257.858C183.354 261.621 210.836 271.015 217.494 271.015C217.532 271.015 217.571 271.015 217.607 271.015C217.644 271.015 217.681 271.015 217.72 271.015C224.392 271.015 251.873 261.619 259.71 257.858C260.046 257.697 260.365 257.532 260.673 257.364C261.527 256.898 262.278 256.407 262.935 255.903L266.773 282.812C266.947 284.031 266.951 285.222 266.785 286.353C266.403 288.954 265.097 292.056 261.047 292.056L261.044 292.057ZM169.161 252.542C169.743 253.465 170.543 254.434 171.639 255.374L167.739 282.713C167.555 283.997 167.552 285.258 167.728 286.457C168.325 290.523 170.611 292.762 174.165 292.762H261.043C264.597 292.762 266.883 290.523 267.48 286.457C267.657 285.258 267.653 283.998 267.47 282.713L263.572 255.384C264.675 254.439 265.479 253.466 266.063 252.538C266.668 251.577 267.038 250.667 267.264 249.89C269.027 261.367 271.174 275.817 271.795 280.012C272.043 281.675 272.033 283.32 271.766 284.902C271.166 288.456 269.312 293.05 263.898 294.746C262.735 295.111 261.469 295.297 260.139 295.297H175.082C173.752 295.297 172.486 295.111 171.324 294.746C165.909 293.05 164.056 288.456 163.455 284.903C163.19 283.32 163.18 281.675 163.426 280.013L163.43 279.993C165.283 267.526 166.804 257.42 167.96 249.894C168.187 250.671 168.556 251.581 169.161 252.542Z" fill="#AE72FF"/>
<path d="M193.114 231.305C192.618 232.241 192.274 234.141 193.063 235.433C193.498 236.146 194.219 236.582 195.205 236.736C194.796 235.436 195.066 233.856 195.502 232.944C196.343 231.19 196.25 228.764 196.016 224.793C195.967 223.941 195.976 223.074 196.02 222.238C196.243 218.102 197.374 214.093 199.211 210.482C205.618 197.903 216.666 197.63 217.618 197.63H217.683C218.672 197.631 229.619 197.931 236.011 210.482C237.85 214.092 238.981 218.102 239.201 222.238C239.248 223.074 239.256 223.941 239.207 224.793C238.974 228.764 238.881 231.19 239.719 232.944C240.156 233.856 240.425 235.436 240.016 236.736C241.004 236.583 241.723 236.146 242.159 235.433C242.948 234.14 242.604 232.241 242.107 231.305C241.119 229.441 241.23 226.88 241.491 222.856C241.542 222.074 241.541 221.218 241.486 220.311C241.247 216.296 240.024 212.228 237.95 208.549C230.919 196.082 219.025 195.71 217.692 195.707C217.653 195.707 214.378 195.654 210.242 197.209C206.435 198.641 201.094 201.77 197.27 208.55C195.196 212.229 193.973 216.296 193.734 220.312C193.68 221.218 193.679 222.075 193.729 222.856C193.99 226.88 194.101 229.44 193.113 231.305H193.114Z" fill="#AE72FF"/>
<path d="M239.721 232.944C238.881 231.19 238.975 228.764 239.208 224.793C239.258 223.941 239.249 223.074 239.203 222.238C238.982 218.102 237.851 214.093 236.012 210.482C229.62 197.932 218.674 197.632 217.685 197.63H217.62C216.667 197.63 205.62 197.903 199.212 210.482C197.374 214.091 196.244 218.102 196.021 222.238C195.977 223.074 195.968 223.941 196.018 224.793C196.251 228.764 196.345 231.19 195.503 232.944C195.067 233.856 194.798 235.436 195.206 236.736C195.498 236.781 195.811 236.803 196.149 236.799C198.082 236.777 199.714 235.909 200.624 234.419C201.401 233.148 201.535 231.595 200.967 230.461C199.545 227.62 197.518 219.517 200.328 212.605C203.169 205.618 210.76 200.102 217.61 200.047C224.466 200.102 232.057 205.618 234.899 212.605C237.71 219.518 235.681 227.62 234.259 230.461C233.691 231.595 233.826 233.148 234.603 234.419C235.513 235.909 237.144 236.777 239.077 236.799C239.415 236.803 239.729 236.781 240.019 236.736C240.428 235.436 240.158 233.856 239.722 232.944H239.721Z" fill="#AE72FF"/>
</svg>
