<svg width="679" height="534" viewBox="0 0 679 534" fill="none" xmlns="http://www.w3.org/2000/svg">
<rect x="90.4346" y="0.5" width="498" height="533" rx="28.175" fill="#1F0433" stroke="#AE72FF"/>
<circle cx="160.934" cy="69" r="37.5" stroke="#AE72FF"/>
<rect x="214.935" y="55" width="110" height="28" rx="5" fill="#2E1044"/>
<path d="M524.899 53.0151L519.934 48.1304L522.1 46L527.065 50.8847H550.403C551.249 50.8847 551.934 51.5592 551.934 52.3911C551.934 52.5377 551.912 52.6836 551.87 52.824L548.195 64.8752C548 65.5124 547.404 65.9488 546.728 65.9488H527.962V68.9616H544.805V71.9744H526.43C525.585 71.9744 524.899 71.2998 524.899 70.468V53.0151ZM527.196 78C525.928 78 524.899 76.9883 524.899 75.7404C524.899 74.4923 525.928 73.4808 527.196 73.4808C528.465 73.4808 529.493 74.4923 529.493 75.7404C529.493 76.9883 528.465 78 527.196 78ZM545.571 78C544.302 78 543.274 76.9883 543.274 75.7404C543.274 74.4923 544.302 73.4808 545.571 73.4808C546.839 73.4808 547.867 74.4923 547.867 75.7404C547.867 76.9883 546.839 78 545.571 78Z" fill="#AE72FF"/>
<path d="M484.188 69.0257L490.935 75.7722L488.707 78L481.96 71.2535C479.535 73.1943 476.458 74.3552 473.112 74.3552C465.286 74.3552 458.935 68.0037 458.935 60.1776C458.935 52.3516 465.286 46 473.112 46C480.938 46 487.29 52.3516 487.29 60.1776C487.29 63.5235 486.129 66.5999 484.188 69.0257ZM481.028 67.8569C482.954 65.8717 484.139 63.1637 484.139 60.1776C484.139 54.0852 479.205 49.1506 473.112 49.1506C467.02 49.1506 462.085 54.0852 462.085 60.1776C462.085 66.2701 467.02 71.2047 473.112 71.2047C476.098 71.2047 478.806 70.0193 480.791 68.093L481.028 67.8569Z" fill="#AE72FF"/>
<g opacity="0.21">
<path fill-rule="evenodd" clip-rule="evenodd" d="M151.585 68.896C149.919 67.7049 147.91 67.0514 145.837 67.0514C144.814 67.0514 143.992 67.8731 143.992 68.896C143.992 69.9188 144.814 70.7405 145.837 70.7405C147.91 70.7405 149.919 70.087 151.585 68.896ZM160.331 77.6413C159.139 79.308 158.486 81.3169 158.486 83.3897C158.486 84.4125 159.308 85.2342 160.331 85.2342C161.353 85.2342 162.175 84.4125 162.175 83.3897C162.175 81.3169 161.522 79.308 160.331 77.6413ZM169.076 68.896C170.743 70.087 172.751 70.7405 174.824 70.7405C175.847 70.7405 176.669 69.9188 176.669 68.896C176.669 67.8731 175.847 67.0514 174.824 67.0514C172.751 67.0514 170.743 67.7049 169.076 68.896ZM160.331 65.3731L156.808 68.896L160.331 72.4188L163.853 68.896L160.331 65.3731ZM162.788 62.7976C164.683 60.4271 165.733 57.4669 165.733 54.4023C165.733 51.3376 163.318 49 160.331 49C157.343 49 154.928 51.415 154.928 54.4023C154.928 57.3896 155.978 60.4271 157.873 62.7976L154.234 66.4365C151.864 64.5417 148.903 63.4918 145.839 63.4918C142.774 63.4918 140.435 65.9087 140.435 68.896C140.435 71.8833 142.85 74.2982 145.837 74.2982C148.824 74.2982 151.862 73.2483 154.232 71.3535L157.871 74.9924C155.976 77.3629 154.926 80.3231 154.926 83.3877C154.926 86.4524 157.341 88.79 160.329 88.79C163.316 88.79 165.731 86.375 165.731 83.3877C165.731 80.4004 164.681 77.3629 162.786 74.9924L166.425 71.3535C168.795 73.2483 171.756 74.2982 174.82 74.2982C177.885 74.2982 180.223 71.8833 180.223 68.896C180.223 65.9087 177.808 63.4937 174.82 63.4937C171.833 63.4937 168.795 64.5436 166.425 66.4385L162.786 62.7996L162.788 62.7976ZM160.331 52.5577C159.308 52.5577 158.486 53.3794 158.486 54.4023C158.486 56.475 159.139 58.4839 160.331 60.1506C161.522 58.4839 162.175 56.475 162.175 54.4023C162.175 53.3794 161.353 52.5577 160.331 52.5577Z" fill="#AE72FF"/>
</g>
<rect x="233.6" y="173.5" width="211.75" height="284.825" rx="28.175" fill="#1F0433" stroke="#AE72FF"/>
<rect x="466.7" y="173.5" width="211.75" height="284.825" rx="28.175" fill="#1F0433" stroke="#AE72FF"/>
<rect x="0.5" y="173.5" width="211.75" height="284.825" rx="28.175" fill="#1F0433" stroke="#AE72FF"/>
<rect x="25" y="381" width="162" height="28" rx="5" fill="#2E1044"/>
<rect x="258" y="381" width="162" height="28" rx="5" fill="#2E1044"/>
<rect x="492" y="381" width="162" height="28" rx="5" fill="#2E1044"/>
<rect x="25" y="199" width="162" height="158" rx="17" fill="#2E1044"/>
<rect x="258" y="199" width="162" height="158" rx="17" fill="#2E1044"/>
<rect x="492" y="199" width="162" height="158" rx="17" fill="#2E1044"/>
<path d="M104.326 319.26C128.565 319.26 148.215 299.611 148.215 275.372C148.215 251.133 128.565 231.483 104.326 231.483C80.0875 231.483 60.438 251.133 60.438 275.372C60.438 299.611 80.0875 319.26 104.326 319.26Z" fill="#AE72FF"/>
<path d="M104.478 320.958C79.6766 320.958 59.5 300.78 59.5 275.98C59.5 251.18 79.6766 231 104.478 231C129.28 231 149.458 251.178 149.458 275.98C149.458 300.781 129.28 320.958 104.478 320.958ZM104.478 233.052C80.8084 233.052 61.5516 252.308 61.5516 275.98C61.5516 299.651 80.8084 318.906 104.478 318.906C128.148 318.906 147.406 299.649 147.406 275.98C147.406 252.31 128.149 233.052 104.478 233.052Z" fill="#512473"/>
<path d="M96.1649 284.879L90.9795 269.269L104.224 259.513L117.595 269.094L112.614 284.773L96.1649 284.881V284.879Z" fill="#512473"/>
<path d="M96.1647 285.905C95.7228 285.905 95.3306 285.622 95.1908 285.203L90.0053 269.593C89.8656 269.17 90.0128 268.707 90.3706 268.443L103.615 258.687C103.973 258.424 104.46 258.421 104.821 258.679L118.192 268.261C118.552 268.519 118.706 268.982 118.572 269.405L113.591 285.083C113.457 285.507 113.065 285.795 112.62 285.798L96.1708 285.906H96.1647V285.905ZM92.1877 269.653L96.9027 283.849L111.862 283.751L116.391 269.493L104.231 260.78L92.1862 269.653H92.1877Z" fill="#512473"/>
<path d="M126.313 313.127L119.429 310.439L120.385 294.016L136.299 289.852L142.069 298.852C142.069 298.852 134.226 310.299 126.311 313.127H126.313Z" fill="#512473"/>
<path d="M126.312 314.152C126.186 314.152 126.058 314.128 125.94 314.082L119.056 311.393C118.643 311.23 118.379 310.822 118.405 310.378L119.361 293.956C119.387 293.513 119.695 293.135 120.126 293.023L136.04 288.858C136.47 288.745 136.924 288.922 137.163 289.297L142.933 298.297C143.155 298.644 143.148 299.09 142.916 299.43C142.589 299.908 134.791 311.185 126.658 314.092C126.547 314.133 126.43 314.152 126.312 314.152ZM120.496 309.754L126.32 312.028C132.742 309.512 139.199 301.062 140.832 298.82L135.839 291.031L121.366 294.819L120.496 309.753V309.754Z" fill="#512473"/>
<path d="M147.212 267.462L142.185 272.121L127.336 265.042L129.48 248.733L137.504 247.054L147.212 267.462Z" fill="#512473"/>
<path d="M142.185 273.147C142.035 273.147 141.884 273.114 141.743 273.048L126.895 265.969C126.493 265.778 126.26 265.349 126.319 264.909L128.462 248.6C128.519 248.168 128.843 247.818 129.269 247.729L137.294 246.05C137.759 245.953 138.228 246.186 138.43 246.614L148.138 267.022C148.331 267.426 148.238 267.91 147.91 268.216L142.882 272.875C142.688 273.055 142.439 273.149 142.185 273.149V273.147ZM128.45 264.437L141.999 270.895L145.964 267.221L136.926 248.222L130.403 249.587L128.45 264.437Z" fill="#512473"/>
<path d="M70.6797 303.532L74.6417 292.71L91.0803 293.314L95.5849 309.135L86.8117 315.03C86.8117 315.03 74.3335 309.652 70.6797 303.532Z" fill="#512473"/>
<path d="M86.8103 316.056C86.6735 316.056 86.5352 316.029 86.4044 315.972C85.8829 315.746 73.5776 310.39 69.7975 304.057C69.6397 303.791 69.6081 303.47 69.7148 303.18L73.6768 292.358C73.8301 291.94 74.2284 291.663 74.6778 291.686L91.1164 292.29C91.5613 292.307 91.9431 292.607 92.0648 293.034L96.5694 308.855C96.6912 309.282 96.5243 309.74 96.1546 309.987L87.3814 315.882C87.2101 315.997 87.0102 316.056 86.8087 316.056H86.8103ZM71.8161 303.411C75.1107 308.339 84.434 312.82 86.7111 313.862L94.393 308.7L90.2958 294.313L75.3467 293.763L71.8145 303.411H71.8161Z" fill="#512473"/>
<path d="M104.023 260.614C104.012 260.614 104.002 260.614 103.991 260.614C103.424 260.596 102.98 260.123 102.998 259.558L103.465 244.469C103.483 243.902 103.961 243.457 104.522 243.475C105.088 243.493 105.533 243.967 105.515 244.532L105.048 259.621C105.031 260.177 104.574 260.614 104.023 260.614Z" fill="#512473"/>
<path d="M117.182 270.374C116.782 270.374 116.402 270.138 116.236 269.747C116.017 269.225 116.26 268.623 116.784 268.403L126.663 264.237C127.186 264.017 127.787 264.261 128.007 264.784C128.226 265.306 127.983 265.908 127.46 266.128L117.58 270.294C117.449 270.348 117.316 270.375 117.182 270.375V270.374Z" fill="#512473"/>
<path d="M90.7435 269.988C90.5646 269.988 90.3828 269.942 90.2174 269.842L82.6587 265.309C82.1732 265.018 82.0154 264.388 82.307 263.902C82.5986 263.417 83.2284 263.259 83.7138 263.551L91.2726 268.084C91.758 268.375 91.9158 269.005 91.6243 269.491C91.4319 269.811 91.0922 269.99 90.7435 269.99V269.988Z" fill="#512473"/>
<path d="M90.9552 294.122C90.7748 294.122 90.5915 294.074 90.4246 293.973C89.9392 293.68 89.7843 293.049 90.0774 292.565L95.0945 284.27C95.3876 283.784 96.0189 283.63 96.5029 283.923C96.9884 284.216 97.1432 284.847 96.8501 285.331L91.833 293.626C91.6406 293.945 91.3009 294.121 90.9537 294.121L90.9552 294.122Z" fill="#512473"/>
<path d="M120.373 295.439C120.07 295.439 119.773 295.306 119.57 295.052L112.313 285.952C111.96 285.508 112.032 284.863 112.476 284.51C112.919 284.157 113.564 284.229 113.917 284.672L121.174 293.773C121.527 294.217 121.455 294.861 121.011 295.215C120.822 295.365 120.597 295.439 120.373 295.439Z" fill="#512473"/>
<path d="M136.118 291.121C136.006 291.121 135.89 291.101 135.777 291.062C135.244 290.873 134.962 290.288 135.152 289.753L141.61 271.461C141.8 270.928 142.384 270.648 142.92 270.836C143.453 271.025 143.734 271.61 143.545 272.145L137.086 290.437C136.937 290.858 136.542 291.121 136.118 291.121Z" fill="#512473"/>
<path d="M118.978 311.734C118.959 311.734 118.94 311.734 118.92 311.732L95.5228 310.456C94.9577 310.425 94.5233 309.942 94.5548 309.376C94.5864 308.81 95.0689 308.379 95.6355 308.408L119.033 309.684C119.598 309.715 120.033 310.198 120.001 310.764C119.971 311.311 119.519 311.734 118.978 311.734Z" fill="#512473"/>
<path d="M74.38 293.705C73.908 293.705 73.4842 293.378 73.379 292.898L69.4441 274.899C69.3238 274.346 69.674 273.799 70.2271 273.677C70.7817 273.556 71.3273 273.907 71.4491 274.46L75.384 292.459C75.5043 293.012 75.1541 293.559 74.6009 293.681C74.5273 293.698 74.4536 293.705 74.3815 293.705H74.38Z" fill="#512473"/>
<path d="M129.076 248.817C128.867 248.817 128.656 248.752 128.472 248.62L116.994 240.248C116.535 239.914 116.436 239.272 116.77 238.814C117.103 238.355 117.745 238.256 118.203 238.59L129.682 246.962C130.141 247.295 130.24 247.937 129.906 248.396C129.705 248.671 129.394 248.817 129.076 248.817Z" fill="#512473"/>
<path d="M69.8591 249.125L77.242 248.815L82.9761 264.233L70.0846 274.451L61.1807 268.535C61.1807 268.535 63.7538 254.9 69.8606 249.125H69.8591Z" fill="#512473"/>
<path d="M70.0846 275.478C69.8877 275.478 69.6893 275.421 69.5165 275.307L60.6125 269.391C60.2699 269.163 60.0955 268.751 60.1722 268.347C60.2804 267.777 62.8791 254.316 69.1543 248.38C69.3346 248.211 69.5691 248.111 69.8156 248.101L77.1985 247.791C77.6479 247.77 78.0477 248.042 78.2025 248.459L83.9365 263.877C84.0913 264.293 83.9606 264.762 83.6119 265.038L70.7204 275.256C70.534 275.403 70.3086 275.478 70.0831 275.478H70.0846ZM62.326 268.066L70.032 273.185L81.7556 263.893L76.5416 249.871L70.295 250.133C65.4237 255.027 62.9152 265.356 62.326 268.064V268.066Z" fill="#512473"/>
<path d="M114.975 233.48L117.061 239.069L104.177 249.297L90.4683 240.205L92.332 234.032C92.332 234.032 108.625 230.718 114.975 233.48Z" fill="#512473"/>
<path d="M104.177 250.323C103.98 250.323 103.784 250.266 103.611 250.151L89.9016 241.06C89.5243 240.81 89.356 240.341 89.4867 239.908L91.3505 233.735C91.4602 233.375 91.7578 233.103 92.1276 233.026C92.8054 232.888 108.813 229.68 115.384 232.537C115.639 232.649 115.839 232.859 115.936 233.119L118.022 238.707C118.177 239.124 118.047 239.593 117.699 239.869L104.815 250.097C104.628 250.245 104.403 250.32 104.177 250.32V250.323ZM91.6706 239.772L104.123 248.031L115.839 238.73L114.172 234.264C108.626 232.217 96.0279 234.385 93.1346 234.924L91.6706 239.773V239.772Z" fill="#512473"/>
<path d="M77.3665 249.1C77.0223 249.1 76.6871 248.928 76.4932 248.615C76.1941 248.134 76.3429 247.501 76.8254 247.202L89.5545 239.319C90.037 239.021 90.6683 239.168 90.9674 239.651C91.2665 240.132 91.1177 240.765 90.6352 241.064L77.9061 248.947C77.7377 249.051 77.5514 249.1 77.3665 249.1Z" fill="#512473"/>
<path d="M294.977 225.423L387.754 234.559L383.947 300.906L339.728 296.017L339.788 293.293L343.342 284.037C344.405 282.554 345.469 281.071 346.532 279.588C346.072 277.361 345.176 275.97 344.428 275.103C341.794 272.052 336.919 270.808 336.852 270.778C334.401 269.753 331.129 268.662 327.171 268.059C323.937 267.566 321.071 267.526 318.75 267.653C316.575 267.702 314.401 267.75 312.226 267.799L301.197 269.96L297.131 273.144L296.164 275.748L298.154 279.773L299.606 289.391L290.759 288.142L294.977 225.423Z" fill="#AE72FF"/>
<path d="M304.548 240.977L368.393 248.264L366.327 289.921C358.713 288.798 351.1 287.673 343.486 286.549C343.812 285.933 344.139 285.317 344.465 284.7C344.333 284.276 344.21 283.655 344.356 282.96C344.564 281.969 345.166 281.558 345.661 280.676C346.003 280.066 346.35 279.132 346.314 277.739C344.718 276.217 343.124 274.694 341.528 273.171C339.96 272.188 337.559 270.874 334.43 269.891C333.676 269.654 331.741 269.078 326.192 268.386C323.793 268.085 320.534 267.741 316.621 267.515C314.91 267.61 313.2 267.705 311.489 267.799L305.589 269.538L303.157 269.727V267.654L304.547 240.977H304.548Z" fill="#512473"/>
<path d="M329.26 268.432L336.852 270.777L342.538 273.143L345.575 275.931L346.314 277.738L345.575 281.459L342.445 288.141L335.335 305.137L334.707 307.245L324.798 308.906L312.503 308.003L302.561 304.823L298.407 284.17L296.166 275.748L298.67 271.939L301.197 269.96C301.197 269.96 306.146 268.877 306.87 268.848C307.595 268.82 310.986 267.321 312.227 267.799C313.468 268.276 321.739 267.799 321.739 267.799L329.261 268.432H329.26Z" fill="#AE72FF"/>
<path d="M324.951 288.143C323.557 288.143 322.128 288.096 320.667 288C306.259 287.057 295.272 281.725 295.655 275.862C296.04 269.999 307.628 266.146 322.036 267.089C336.445 268.032 347.431 273.365 347.048 279.227C346.702 284.496 337.307 288.143 324.95 288.143H324.951ZM297.138 275.959C296.992 278.194 299.337 280.61 303.571 282.586C308.083 284.692 314.189 286.088 320.765 286.519C327.341 286.95 333.576 286.361 338.325 284.861C342.781 283.454 345.421 281.365 345.568 279.129C345.714 276.894 343.369 274.479 339.134 272.502C334.623 270.397 328.517 269 321.941 268.569C315.365 268.14 309.128 268.727 304.38 270.227C299.924 271.634 297.285 273.723 297.138 275.959Z" fill="#512473"/>
<path d="M324.331 285.867C323.164 285.867 321.975 285.831 320.774 285.758C311.683 285.204 303.906 282.679 300.965 279.324C300.063 278.296 299.645 277.222 299.721 276.132C299.887 273.781 302.382 271.779 306.748 270.498C310.875 269.286 316.266 268.81 321.931 269.154C331.022 269.707 338.799 272.232 341.74 275.587C342.642 276.616 343.061 277.69 342.984 278.78C342.818 281.131 340.323 283.132 335.957 284.414C332.706 285.369 328.669 285.867 324.332 285.867H324.331ZM301.201 276.235C301.153 276.915 301.449 277.624 302.08 278.344C304.733 281.369 312.281 283.752 320.864 284.274C326.361 284.609 331.572 284.153 335.537 282.988C339.21 281.91 341.385 280.337 341.502 278.674C341.55 277.994 341.254 277.285 340.623 276.565C337.97 273.54 330.422 271.157 321.839 270.635C316.342 270.3 311.131 270.757 307.166 271.922C303.493 273 301.318 274.572 301.201 276.235Z" fill="#512473"/>
<path d="M303.118 329.233C303.096 329.233 303.075 329.233 303.053 329.23C302.644 329.195 302.342 328.835 302.378 328.426C303.711 312.986 297.2 280.962 296.212 278.298C296.07 277.914 296.265 277.487 296.65 277.344C297.035 277.202 297.462 277.398 297.604 277.783C298.219 279.439 300.105 288.333 301.662 298.496C303.06 307.618 304.576 320.239 303.858 328.555C303.825 328.942 303.5 329.233 303.12 329.233H303.118Z" fill="#512473"/>
<path d="M330.475 334.515C330.475 334.515 330.466 334.515 330.46 334.515C330.05 334.506 329.725 334.168 329.733 333.758C330 320.481 334.064 306.922 337.426 297.886C341.064 288.105 344.693 281.355 344.729 281.288C344.924 280.927 345.375 280.793 345.735 280.988C346.096 281.183 346.23 281.633 346.035 281.994C346 282.06 342.411 288.736 338.808 298.426C335.491 307.349 331.479 320.728 331.216 333.787C331.209 334.192 330.877 334.515 330.474 334.515H330.475Z" fill="#512473"/>
<path d="M309.483 307.864C309.102 307.864 308.776 307.57 308.745 307.183C307.91 297.113 306.685 288.459 305.624 285.14C305.499 284.749 305.715 284.332 306.106 284.206C306.496 284.081 306.914 284.297 307.039 284.688C308.364 288.836 309.554 298.965 310.225 307.06C310.259 307.469 309.955 307.827 309.547 307.862C309.526 307.864 309.505 307.864 309.485 307.864H309.483Z" fill="#512473"/>
<path d="M329.573 308.638C329.515 308.638 329.455 308.63 329.395 308.616C328.997 308.518 328.754 308.116 328.852 307.718C331.626 296.498 333.924 289.631 335.88 286.725C336.108 286.384 336.57 286.294 336.91 286.523C337.25 286.752 337.34 287.213 337.111 287.553C335.28 290.275 332.986 297.179 330.293 308.074C330.21 308.413 329.907 308.639 329.573 308.639V308.638Z" fill="#512473"/>
<path d="M318.837 309.21C318.826 309.21 318.812 309.21 318.8 309.21C318.39 309.19 318.075 308.841 318.096 308.432C318.181 306.709 318.26 305.012 318.337 303.374C318.692 295.832 318.971 289.875 319.423 287.614C319.503 287.212 319.894 286.952 320.296 287.032C320.698 287.113 320.958 287.503 320.879 287.906C320.449 290.057 320.158 296.261 319.82 303.444C319.742 305.083 319.663 306.781 319.578 308.505C319.559 308.902 319.23 309.211 318.837 309.211V309.21Z" fill="#512473"/>
<path d="M321.239 309.781C320.39 309.781 319.533 309.746 318.673 309.666C311.558 309 304.47 306.21 302.14 305.293C301.926 305.21 301.753 305.141 301.623 305.092C301.24 304.947 301.048 304.518 301.194 304.134C301.339 303.751 301.768 303.558 302.151 303.704C302.284 303.754 302.463 303.825 302.684 303.912C304.965 304.809 311.906 307.542 318.812 308.188C323.33 308.61 327.907 307.711 331.248 307.054C332.405 306.827 333.405 306.63 334.26 306.512C334.664 306.455 335.041 306.739 335.097 307.145C335.154 307.55 334.87 307.926 334.464 307.982C333.651 308.095 332.669 308.288 331.535 308.511C328.728 309.062 325.07 309.781 321.24 309.781H321.239Z" fill="#512473"/>
<path d="M330.567 330.593C330.339 330.593 330.113 330.487 329.968 330.289C327.548 326.989 322.883 310.43 322.698 309.325C322.63 308.92 322.903 308.537 323.308 308.471C323.71 308.405 324.094 308.676 324.162 309.081C324.357 310.258 329.015 326.481 331.164 329.412C331.407 329.742 331.335 330.207 331.004 330.449C330.871 330.546 330.718 330.593 330.566 330.593H330.567Z" fill="#512473"/>
<path d="M324.055 334.266C323.794 334.266 323.542 334.128 323.406 333.884C321.648 330.723 315.643 312.245 315.144 308.969C315.082 308.563 315.36 308.185 315.766 308.123C316.172 308.061 316.55 308.339 316.612 308.745C317.079 311.801 323.028 330.149 324.704 333.163C324.903 333.522 324.774 333.973 324.416 334.172C324.302 334.235 324.178 334.266 324.056 334.266H324.055Z" fill="#512473"/>
<path d="M315.948 333.918C315.716 333.918 315.486 333.809 315.341 333.603C312.418 329.468 306.96 309.975 306.96 306.984C306.96 306.574 307.293 306.241 307.703 306.241C308.113 306.241 308.446 306.574 308.446 306.984C308.446 309.661 313.768 328.804 316.555 332.746C316.792 333.081 316.713 333.545 316.378 333.781C316.247 333.873 316.098 333.917 315.951 333.917L315.948 333.918Z" fill="#512473"/>
<path d="M308.534 331.909C308.304 331.909 308.077 331.802 307.932 331.602C306.341 329.405 303.333 319.675 302.744 316.401C302.671 315.997 302.94 315.611 303.344 315.538C303.748 315.465 304.133 315.734 304.206 316.138C304.823 319.563 307.757 328.826 309.135 330.731C309.376 331.062 309.302 331.527 308.97 331.767C308.838 331.863 308.686 331.909 308.535 331.909H308.534Z" fill="#512473"/>
<path d="M332.159 318.54C331.964 318.54 331.77 318.464 331.624 318.311C330.289 316.923 328.167 309.913 327.756 308.521C327.64 308.129 327.864 307.715 328.258 307.599C328.65 307.483 329.064 307.707 329.18 308.101C330.094 311.187 331.857 316.41 332.695 317.284C332.979 317.579 332.969 318.049 332.675 318.333C332.531 318.471 332.345 318.54 332.16 318.54H332.159Z" fill="#512473"/>
<path d="M303.52 319.615C303.292 319.615 303.068 319.51 302.923 319.315C302.679 318.985 302.748 318.521 303.077 318.276C304.719 317.06 311.852 310.074 312.937 308.351C313.155 308.004 313.613 307.9 313.96 308.118C314.307 308.337 314.412 308.795 314.193 309.142C313.035 310.982 305.746 318.146 303.961 319.469C303.829 319.567 303.673 319.615 303.52 319.615Z" fill="#512473"/>
<path d="M305.596 331.482C305.376 331.482 305.158 331.384 305.011 331.198C304.759 330.875 304.815 330.408 305.137 330.156C307.661 328.177 320.044 312.568 322.253 309.24C322.479 308.899 322.94 308.805 323.282 309.032C323.623 309.259 323.717 309.72 323.489 310.061C321.399 313.21 308.835 329.143 306.053 331.325C305.917 331.432 305.756 331.483 305.595 331.483L305.596 331.482Z" fill="#512473"/>
<path d="M317.177 331.626C316.985 331.626 316.794 331.552 316.648 331.405C316.36 331.113 316.363 330.643 316.656 330.355C320.635 326.429 329.797 311.324 331.591 307.662C331.772 307.295 332.217 307.141 332.584 307.322C332.953 307.502 333.105 307.947 332.925 308.315C331.049 312.145 321.861 327.305 317.699 331.411C317.554 331.554 317.366 331.626 317.178 331.626H317.177Z" fill="#512473"/>
<path d="M322.074 335.292C321.876 335.292 321.679 335.214 321.533 335.058C321.252 334.759 321.267 334.289 321.565 334.008C323.005 332.656 329.806 323.482 330.629 320.734C330.746 320.341 331.161 320.118 331.552 320.235C331.945 320.353 332.168 320.766 332.05 321.159C331.144 324.189 324.24 333.533 322.581 335.091C322.438 335.226 322.255 335.292 322.073 335.292H322.074Z" fill="#512473"/>
<path d="M308.243 283.054C308.225 283.054 308.207 283.054 308.189 283.052C307.781 283.023 307.473 282.667 307.502 282.258C307.547 281.63 306.885 279.441 306.354 277.682C305.684 275.467 305.05 273.374 305.006 272.207C304.991 271.797 305.309 271.452 305.719 271.437C306.129 271.424 306.474 271.74 306.489 272.15C306.526 273.127 307.19 275.319 307.774 277.253C308.566 279.872 309.042 281.523 308.982 282.364C308.954 282.754 308.629 283.053 308.243 283.053V283.054Z" fill="#512473"/>
<path d="M333.271 284.754C333.251 284.754 333.232 284.754 333.212 284.751C332.803 284.719 332.499 284.362 332.53 283.953C332.748 281.191 334.957 276.139 336.785 273.467C337.017 273.129 337.479 273.042 337.817 273.273C338.155 273.505 338.242 273.967 338.011 274.305C336.168 276.997 334.188 281.833 334.01 284.069C333.98 284.459 333.655 284.754 333.271 284.754Z" fill="#512473"/>
<path d="M322.504 309.438C322.126 309.438 321.802 309.15 321.766 308.765C321.589 306.887 322.263 296.98 323.008 287.994C323.041 287.585 323.397 287.281 323.809 287.315C324.218 287.349 324.522 287.708 324.488 288.117C323.612 298.669 323.101 307.103 323.244 308.626C323.282 309.033 322.983 309.396 322.574 309.434C322.55 309.436 322.527 309.437 322.503 309.437L322.504 309.438Z" fill="#512473"/>
<path d="M324.015 285.655C323.993 285.655 323.971 285.655 323.95 285.652C323.542 285.616 323.239 285.256 323.274 284.848C323.517 282.053 324.34 272.809 324.739 271.189C324.837 270.791 325.239 270.548 325.638 270.646C326.036 270.744 326.279 271.146 326.182 271.544C325.938 272.537 325.377 277.809 324.755 284.977C324.721 285.363 324.397 285.654 324.016 285.654L324.015 285.655Z" fill="#512473"/>
<path d="M314.18 308.63C314.148 308.63 314.114 308.628 314.08 308.624C313.673 308.569 313.388 308.195 313.444 307.789C313.764 305.408 313.764 295.542 313.621 286.822C313.615 286.411 313.941 286.074 314.351 286.067C314.768 286.056 315.099 286.386 315.106 286.796C315.249 295.574 315.246 305.53 314.916 307.987C314.865 308.36 314.547 308.631 314.18 308.631V308.63Z" fill="#512473"/>
<path d="M314.309 284.572C313.906 284.572 313.575 284.25 313.567 283.845C313.42 276.663 313.194 271.399 312.991 270.432C312.908 270.03 313.165 269.637 313.567 269.553C313.969 269.469 314.362 269.727 314.446 270.128C314.779 271.73 314.994 281.009 315.051 283.814C315.06 284.224 314.735 284.564 314.325 284.571C314.319 284.571 314.315 284.571 314.31 284.571L314.309 284.572Z" fill="#512473"/>
<path d="M338.484 271.939C338.274 271.939 338.065 271.851 337.918 271.678C337.652 271.366 337.69 270.897 338.001 270.632L342.066 267.164L333.098 265.198L328.277 268.566C327.941 268.801 327.478 268.719 327.244 268.383C327.009 268.046 327.092 267.584 327.427 267.349L332.514 263.795C332.684 263.676 332.896 263.634 333.098 263.678L343.843 266.035C344.118 266.096 344.336 266.307 344.404 266.58C344.473 266.853 344.38 267.143 344.166 267.325L338.964 271.763C338.824 271.883 338.653 271.94 338.482 271.94L338.484 271.939Z" fill="#512473"/>
<path d="M342.351 273.544C342.147 273.544 341.942 273.46 341.797 273.295C341.525 272.988 341.552 272.519 341.859 272.246L343.202 271.053L343.591 267.046C343.63 266.638 343.996 266.34 344.402 266.379C344.809 266.419 345.109 266.782 345.068 267.19L344.651 271.487C344.632 271.673 344.545 271.846 344.405 271.97L342.844 273.357C342.703 273.483 342.526 273.544 342.351 273.544Z" fill="#512473"/>
<path d="M366.126 290.859C366.092 290.859 366.057 290.857 366.022 290.851L343.422 287.646C343.016 287.588 342.733 287.213 342.791 286.806C342.848 286.4 343.225 286.118 343.63 286.175L365.438 289.268L368.059 248.937L305.177 241.978L303.933 269.018C303.915 269.426 303.568 269.744 303.158 269.725C302.748 269.706 302.431 269.358 302.45 268.949L303.73 241.119C303.739 240.915 303.833 240.722 303.989 240.589C304.144 240.456 304.349 240.394 304.553 240.415L368.927 247.54C369.322 247.583 369.612 247.929 369.586 248.326L366.867 290.163C366.854 290.369 366.755 290.561 366.595 290.69C366.463 290.798 366.296 290.857 366.126 290.857V290.859Z" fill="#512473"/>
<path d="M384 301.739C383.971 301.739 383.941 301.736 383.912 301.733L339.502 296.394C339.095 296.345 338.805 295.975 338.854 295.568C338.903 295.161 339.272 294.871 339.679 294.92L383.306 300.165L387.104 235.22L295.447 226.552L291.526 287.532L298.971 288.555C299.377 288.611 299.662 288.986 299.606 289.391C299.55 289.797 299.175 290.082 298.769 290.026L290.641 288.907C290.256 288.854 289.977 288.513 290.002 288.124L294.015 225.694C294.028 225.494 294.122 225.307 294.274 225.177C294.426 225.047 294.625 224.985 294.825 225.003L387.956 233.811C388.354 233.849 388.651 234.195 388.627 234.593L384.741 301.04C384.729 301.245 384.633 301.435 384.476 301.567C384.342 301.679 384.172 301.74 383.999 301.74L384 301.739Z" fill="#512473"/>
<path d="M590.183 297.071L591.612 301.329L590.898 303.546L586.281 305.592H583.869L580.301 302.729L590.183 297.071Z" fill="#512473"/>
<path d="M577.022 305.012V309.392L575.19 310.567L569.332 312.165C569.332 312.165 566.957 310.087 567.279 309.86C567.601 309.634 566.558 308.672 567.279 308.222C568.001 307.772 577.022 305.012 577.022 305.012Z" fill="#512473"/>
<path d="M548.157 306.168L547.856 309.391L548.007 310.537L552.158 311.765L555.299 312.164L556.818 311.765L558.241 309.588C556.951 308.703 548.157 306.168 548.157 306.168Z" fill="#512473"/>
<path d="M546.818 305.304L544.735 307.53H542.444C542.444 307.53 539.814 306.527 539.663 306.417C539.513 306.306 537.763 303.695 537.773 303.47C537.782 303.245 536.965 300.739 537.773 299.861C538.581 298.984 539.214 297.894 539.214 297.894C539.214 297.894 540.686 300.969 540.965 301.042C541.245 301.115 543.348 304.223 543.348 304.223L545.303 304.998L546.82 305.305L546.818 305.304Z" fill="#512473"/>
<path d="M630.556 277.295L630.974 280.213V286.255L629.11 288.068L626.181 288.467L624.392 286.904L623.039 287.49L622.437 288.915L621.566 291.249L618.452 292.551L614.731 293.128L613.114 292.551L609.857 288.957L618.602 285.729L622.661 284.267L626.946 280.691C626.946 280.691 628.975 278.216 629.375 277.95C629.774 277.684 630.554 277.295 630.554 277.295H630.556Z" fill="#512473"/>
<path d="M565.825 267.232C565.605 267.564 559.356 271.067 559.356 271.067L549.411 273.446L537.771 274.239L524.059 273.593C524.059 273.593 518.281 274.256 518.311 274.239C518.342 274.222 516.157 277.176 516.157 277.176L514.401 281.579L513.875 284.265C513.875 284.265 515.847 290.006 515.83 290.102C515.813 290.198 521.139 296.056 521.139 296.056L526.417 297.894C526.417 297.894 529.393 298.851 530.059 298.851H536.75L538.422 296.595L540.141 294.675C540.141 294.675 539.838 292.982 540.141 292.456C540.445 291.93 543.645 288.862 543.645 288.862L552.369 281.974L562.22 273.078L566.539 267.966L565.826 267.235L565.825 267.232Z" fill="#BC8AFF"/>
<path d="M592.581 245.806L598.979 249.198L602.069 253.542L600.858 255.803C600.858 255.803 598.488 256.913 597.822 257.18C597.157 257.446 589.705 259.263 589.705 259.263L584.284 257.114L580.74 256.707L577.173 258.21C577.173 258.21 575.906 259.857 575.748 260.449C575.589 261.042 572.072 262.855 572.072 262.855L568.666 265.034C568.666 265.034 562.01 269.428 561.743 269.694C561.477 269.96 552.142 273.076 552.142 273.076L542.705 274.354L531.256 274.087L520.716 273.364C520.716 273.364 528.544 269.864 528.636 269.713C528.728 269.561 537.114 267.431 537.114 267.431L542.439 265.833L550.161 262.372L555.486 257.446L562.217 250.542C562.217 250.542 567.468 249.591 568.4 249.591C569.332 249.591 576.521 249.724 576.521 249.724L579.982 249.857C579.982 249.857 583.577 248.127 583.843 248.127C584.11 248.127 590.641 245.805 590.641 245.805" fill="#AE72FF"/>
<path d="M540.14 293.817L540.962 291.077L549.21 284.267C549.21 284.267 561.76 273.397 562.218 273.078C562.675 272.758 577.175 257.498 577.175 257.498L580.742 255.856L583.153 255.986C583.153 255.986 586.844 259.71 587.076 259.711C587.308 259.712 589.205 262.812 589.205 262.812L591.463 262.86L596.729 264.003L601.83 265.506L604.994 266.405L608.798 266.582L612.962 266.249L615.819 262.86C615.819 262.86 618.458 258.782 618.724 258.382C618.991 257.983 619.946 255.082 619.946 255.082H622.585C622.585 255.082 626.485 260.974 627.397 261.076C628.309 261.177 629.931 266.582 629.931 266.582L630.554 273.079V277.297L627.998 280.103L621.564 284.269L607.991 288.864L596.728 292.27L588.433 297.075L577.022 305.015L570.926 307.844L561.11 308.869L556.852 308.705L550.864 307.842L546.971 306.454L541.856 302.733L540.14 299.488V293.818V293.817Z" fill="#AE72FF"/>
<path d="M560.401 309.64C553.473 309.64 546.2 308.134 542.127 303.78C539.326 300.788 538.09 297.809 538.452 294.927C538.87 291.604 541.339 288.541 546.002 285.564C550.97 282.389 560.44 274.801 564.982 268.599C569.551 262.363 573.699 258.477 573.873 258.314C574.149 258.059 574.553 257.997 574.891 258.163C575.23 258.328 575.431 258.684 575.397 259.059C574.899 264.687 561.13 278.759 559.583 280.179C558.572 281.105 558.171 282.487 558.651 283.392C559.25 284.521 561.16 284.829 563.762 284.211C569.366 282.883 578.827 272.374 583.908 266.728C584.928 265.595 585.808 264.617 586.457 263.938C589.352 260.897 593.208 262.114 597.67 263.522C600.887 264.538 604.532 265.689 608.732 265.689C614.694 265.689 616.707 260.888 618.178 257.382C619.085 255.223 619.941 253.182 621.743 253.846C623.579 254.523 626.677 258.163 628.795 262.134C630.442 265.22 632.927 271.222 631.068 276.753C628.535 284.294 616.176 287.674 607.151 290.142C604.712 290.809 602.409 291.439 600.693 292.047C595.741 293.803 589.706 297.881 584.381 301.479C581.318 303.549 578.423 305.503 576.152 306.72C573.227 308.287 566.966 309.641 560.397 309.641L560.401 309.64ZM571.498 263.431C570.037 265.072 568.269 267.19 566.451 269.673C561.719 276.133 552.218 283.751 546.982 287.096C542.802 289.766 540.603 292.402 540.257 295.155C539.965 297.475 541.041 299.96 543.456 302.54C550.524 310.096 569.45 308.25 575.3 305.117C577.489 303.944 580.346 302.015 583.369 299.973C588.784 296.314 594.921 292.169 600.091 290.335C601.871 289.704 604.206 289.065 606.677 288.389C615.306 286.029 627.126 282.797 629.351 276.175C632.284 267.445 623.306 256.437 621.152 255.565C620.813 255.813 620.264 257.121 619.86 258.087C618.382 261.611 615.91 267.507 608.739 267.507C604.259 267.507 600.472 266.312 597.13 265.256C592.508 263.797 589.796 263.074 587.779 265.192C587.149 265.852 586.277 266.823 585.265 267.945C579.684 274.145 570.344 284.521 564.186 285.981C559.202 287.164 557.535 285.16 557.05 284.245C556.181 282.604 556.731 280.332 558.359 278.839C560.544 276.836 567.855 269.039 571.501 263.429L571.498 263.431Z" fill="#512473"/>
<path d="M588.351 264.457C588.257 264.457 588.159 264.443 588.064 264.411C587.587 264.252 587.33 263.737 587.488 263.262C587.636 262.816 587.441 261.803 586.659 260.633C585.756 259.281 584.051 257.785 581.973 257.636C579.16 257.433 577.614 259.45 575.975 261.583C575.58 262.098 575.171 262.63 574.748 263.125C574.422 263.506 573.848 263.55 573.467 263.223C573.086 262.897 573.042 262.323 573.368 261.943C573.761 261.485 574.137 260.996 574.535 260.478C576.307 258.171 578.314 255.555 582.103 255.824C584.425 255.99 586.694 257.411 588.171 259.625C589.193 261.154 589.583 262.729 589.214 263.837C589.087 264.218 588.732 264.459 588.353 264.459L588.351 264.457Z" fill="#512473"/>
<path d="M589.545 259.942C588.15 259.942 586.864 259.773 585.961 259.339C585.509 259.122 585.318 258.579 585.535 258.126C585.752 257.673 586.296 257.483 586.748 257.7C589.237 258.894 598.393 257.458 601.192 254.41C602.993 252.447 607.312 249.198 612.274 249.198C612.398 249.198 612.521 249.201 612.645 249.205C615.998 249.315 618.93 250.909 621.365 253.942C621.68 254.333 621.617 254.906 621.226 255.218C620.834 255.533 620.262 255.47 619.949 255.079C617.861 252.479 615.384 251.114 612.587 251.021C608.113 250.874 604.057 253.978 602.532 255.639C600.354 258.01 595.982 259.093 594.204 259.447C592.766 259.733 591.09 259.941 589.547 259.941L589.545 259.942Z" fill="#512473"/>
<path d="M543.466 308.866C541.835 308.866 540.215 307.548 538.685 306.178C536.281 304.024 536.11 300.785 538.206 297.057C538.452 296.619 539.006 296.465 539.442 296.71C539.88 296.956 540.035 297.51 539.79 297.947C538.633 300.004 537.713 302.866 539.898 304.823C541.293 306.072 542.714 307.206 543.667 307.029C544.199 306.932 544.73 306.375 545.246 305.376C545.476 304.93 546.025 304.755 546.469 304.984C546.915 305.215 547.09 305.763 546.861 306.208C546.063 307.755 545.126 308.607 543.996 308.814C543.819 308.846 543.641 308.862 543.466 308.862V308.866Z" fill="#512473"/>
<path d="M555.433 313.19C553.365 313.19 550.161 312.474 548.86 312.001C546.572 311.168 546.745 309.179 546.898 307.423C546.924 307.109 546.954 306.783 546.971 306.452C546.999 305.952 547.432 305.571 547.928 305.594C548.429 305.62 548.814 306.049 548.787 306.551C548.767 306.91 548.738 307.25 548.71 307.58C548.546 309.46 548.602 309.972 549.483 310.293C551.559 311.048 555.456 311.589 556.142 311.321C556.602 311.105 556.957 309.806 556.853 308.702C556.807 308.203 557.174 307.76 557.673 307.713C558.173 307.668 558.616 308.033 558.663 308.533C558.793 309.923 558.434 312.252 556.909 312.968C556.576 313.125 556.056 313.189 555.433 313.189V313.19Z" fill="#512473"/>
<path d="M569.504 312.999C567.069 312.999 566.556 310.499 566.178 308.656C566.077 308.165 566.394 307.684 566.886 307.583C567.379 307.485 567.858 307.8 567.959 308.291C568.505 310.957 568.905 311.227 569.633 311.176C571.523 311.049 575.42 310.121 576.071 309.396C576.518 308.9 576.486 307.144 576.291 306.067C576.202 305.573 576.529 305.1 577.023 305.011C577.516 304.921 577.99 305.249 578.079 305.743C578.183 306.318 578.642 309.258 577.421 310.613C576.086 312.096 571 312.906 569.754 312.991C569.669 312.996 569.585 312.999 569.504 312.999Z" fill="#512473"/>
<path d="M584.845 307.017C583.103 307.017 581.84 305.338 581.046 304.282C580.875 304.053 580.711 303.838 580.572 303.674C580.248 303.29 580.296 302.718 580.679 302.393C581.061 302.07 581.635 302.116 581.96 302.5C582.131 302.702 582.31 302.939 582.498 303.189C583.416 304.409 584.248 305.399 585.122 305.16C586.795 304.703 589.562 303.073 590.332 302.401C590.608 301.629 589.952 298.109 589.516 296.848C589.353 296.374 589.604 295.856 590.078 295.693C590.553 295.529 591.07 295.78 591.234 296.254C591.425 296.81 591.798 298.269 592.027 299.773C592.441 302.501 592.058 303.277 591.628 303.678C590.702 304.542 587.569 306.374 585.601 306.91C585.34 306.982 585.087 307.014 584.845 307.014V307.017Z" fill="#512473"/>
<path d="M615.1 294.459C613.478 294.459 612.742 293.824 612.409 293.29C611.415 291.691 610.098 290.706 607.863 289.888C607.391 289.717 607.149 289.195 607.321 288.723C607.493 288.252 608.014 288.01 608.486 288.182C611.104 289.139 612.739 290.38 613.952 292.33C614.06 292.503 614.443 292.622 614.955 292.639C617.014 292.713 620.091 291.326 620.466 290.803C620.627 290.538 620.801 290.063 620.983 289.561C621.515 288.094 622.234 286.083 624.086 286.177C625.252 286.236 625.685 287.038 625.918 287.469C626.043 287.702 626.107 287.807 626.182 287.841C626.256 287.874 626.568 287.959 627.476 287.696C627.574 287.668 627.678 287.638 627.786 287.609C629.113 287.242 630.059 286.894 630.129 285.756L630.141 285.556C630.301 283.025 630.542 279.202 629.594 276.721C629.414 276.253 629.65 275.727 630.118 275.549C630.587 275.369 631.113 275.605 631.291 276.073C632.38 278.922 632.125 282.984 631.956 285.671L631.944 285.87C631.787 288.389 629.499 289.022 628.271 289.361C628.171 289.389 628.074 289.416 627.982 289.442C625.782 290.079 624.928 289.46 624.319 288.335C624.199 288.112 624.091 287.998 623.994 287.994C623.494 287.961 622.992 289.356 622.691 290.184C622.477 290.774 622.274 291.331 622.015 291.757C621.273 292.981 617.543 294.448 615.134 294.461C615.122 294.461 615.11 294.461 615.1 294.461V294.459Z" fill="#512473"/>
<path d="M613.247 294.557C613.161 294.557 613.072 294.544 612.984 294.519C611.916 294.196 610.718 293.754 609.559 293.328C607.114 292.427 604.343 291.407 602.824 291.551C602.328 291.595 601.882 291.232 601.834 290.732C601.786 290.233 602.153 289.79 602.653 289.742C604.583 289.558 607.433 290.608 610.188 291.623C611.374 292.06 612.494 292.472 613.51 292.78C613.99 292.925 614.262 293.432 614.117 293.913C613.998 294.306 613.637 294.559 613.247 294.559V294.557Z" fill="#512473"/>
<path d="M594.499 307.406C594.259 307.406 594.021 307.311 593.841 307.125C593.495 306.763 593.507 306.186 593.871 305.84C595.499 304.284 595.162 303.621 593.097 300.363C592.715 299.759 592.281 299.074 591.82 298.308C588.742 293.175 590.32 286.403 591.846 279.854C593.253 273.814 590.288 268.578 589.32 268.221C588.841 268.21 588.448 267.826 588.434 267.341C588.418 266.839 588.812 266.42 589.314 266.404C589.971 266.389 590.64 266.788 591.311 267.607C592.956 269.614 594.928 274.642 593.616 280.267C592.172 286.464 590.68 292.872 593.379 297.373C593.828 298.121 594.255 298.796 594.634 299.391C596.66 302.589 597.883 304.52 595.127 307.154C594.952 307.322 594.725 307.406 594.499 307.406Z" fill="#512473"/>
<path d="M578.25 278.668C578.226 278.668 578.202 278.668 578.178 278.666C577.678 278.627 577.304 278.189 577.342 277.69C577.557 274.941 575.308 264.958 573.407 262.543C573.097 262.149 573.165 261.578 573.559 261.268C573.953 260.958 574.524 261.026 574.834 261.42C577.075 264.266 579.403 274.629 579.154 277.831C579.117 278.307 578.719 278.67 578.249 278.67L578.25 278.668Z" fill="#512473"/>
<path d="M586.165 270.639C586.025 270.639 585.884 270.607 585.751 270.54C583.411 269.341 571.556 267.513 568.556 268.862C568.099 269.068 567.56 268.863 567.355 268.407C567.148 267.949 567.353 267.411 567.81 267.206C571.558 265.518 584.076 267.64 586.579 268.923C587.025 269.152 587.202 269.7 586.973 270.147C586.812 270.461 586.494 270.641 586.164 270.641L586.165 270.639Z" fill="#512473"/>
<path d="M572.198 284.267C572.192 284.267 572.185 284.267 572.177 284.267C571.675 284.257 571.277 283.84 571.289 283.338C571.398 278.464 569.382 273.024 566.497 270.403C566.126 270.066 566.098 269.491 566.436 269.12C566.773 268.748 567.348 268.721 567.72 269.058C571.012 272.05 573.226 277.938 573.105 283.378C573.094 283.873 572.689 284.266 572.197 284.266L572.198 284.267Z" fill="#512473"/>
<path d="M579.832 276.35C579.666 276.35 579.497 276.305 579.345 276.208C576.62 274.473 565.595 274.542 562.38 275.936C561.919 276.136 561.384 275.924 561.185 275.463C560.985 275.003 561.197 274.468 561.657 274.268C565.111 272.77 576.826 272.451 580.321 274.673C580.744 274.942 580.87 275.503 580.599 275.927C580.426 276.198 580.132 276.347 579.831 276.347L579.832 276.35Z" fill="#512473"/>
<path d="M565.411 287.49C564.953 287.49 564.56 287.145 564.509 286.681C563.963 281.721 561.095 278.48 559.792 277.688C559.363 277.427 559.227 276.867 559.488 276.439C559.749 276.01 560.308 275.873 560.737 276.135C562.577 277.255 565.719 281.053 566.315 286.482C566.37 286.982 566.01 287.43 565.511 287.485C565.478 287.489 565.443 287.49 565.411 287.49Z" fill="#512473"/>
<path d="M569.654 285.059C569.437 285.059 569.219 284.982 569.044 284.825C566.364 282.398 558.194 281.242 555.087 282.349C554.614 282.518 554.093 282.27 553.926 281.797C553.757 281.325 554.004 280.806 554.477 280.637C558.227 279.3 567.025 280.543 570.264 283.476C570.635 283.813 570.664 284.388 570.328 284.76C570.148 284.958 569.902 285.058 569.654 285.058V285.059Z" fill="#512473"/>
<path d="M531.344 300.269C528.15 300.269 524.916 299.25 521.83 297.225C516.509 293.733 512.642 287.632 513.026 283.334C513.514 277.902 515.817 274.772 520.277 273.485C524.268 272.333 529.693 272.681 536.562 273.122C537.352 273.172 538.162 273.224 538.989 273.275C555.375 274.281 565.716 266.51 565.819 266.432C566.217 266.127 566.788 266.201 567.093 266.599C567.398 266.997 567.323 267.569 566.925 267.873C566.484 268.212 555.936 276.137 538.878 275.088C538.049 275.037 537.238 274.985 536.446 274.935C522.077 274.012 515.688 274.004 514.837 283.495C514.553 286.66 517.529 292.227 522.828 295.705C525.703 297.593 531.492 300.231 537.955 296.713C538.396 296.472 538.949 296.635 539.188 297.076C539.428 297.517 539.265 298.069 538.825 298.309C536.423 299.616 533.896 300.267 531.344 300.267V300.269Z" fill="#512473"/>
<path d="M516.602 277.295C516.38 277.295 516.156 277.214 515.982 277.05C515.616 276.707 515.597 276.132 515.939 275.765C519.578 271.879 527.39 268.574 539.82 265.659C548.79 263.559 554.384 258.084 559.093 252.482C562.642 248.262 568.785 248.716 573.721 249.079C575.744 249.228 577.654 249.369 578.868 249.115C580.666 248.74 582.726 247.889 584.721 247.066C587.445 245.942 590.023 244.883 591.939 245.01C595.244 245.233 602.349 249.694 602.78 254.344C602.827 254.844 602.459 255.287 601.959 255.334C601.458 255.378 601.016 255.013 600.97 254.512C600.641 250.968 594.486 247.003 591.817 246.824C590.32 246.721 587.825 247.75 585.414 248.746C583.344 249.601 581.202 250.485 579.24 250.894C577.775 251.2 575.835 251.056 573.587 250.891C569.063 250.558 563.434 250.143 560.484 253.651C555.808 259.213 549.747 265.201 540.234 267.429C528.332 270.219 520.604 273.442 517.265 277.008C517.087 277.199 516.844 277.295 516.602 277.295Z" fill="#512473"/>
<path d="M529.167 283.802C528.836 283.802 528.516 283.663 528.291 283.566C527.414 283.187 522.57 280.552 522.239 278.034C522.139 277.275 522.483 276.253 524.685 275.694C526.049 275.348 528.01 275.209 529.802 275.334C532.846 275.546 533.482 276.309 533.695 276.865C534.56 279.107 530.624 282.995 529.75 283.619C529.564 283.754 529.363 283.802 529.167 283.802ZM524.059 277.892C524.381 279.183 527.796 281.395 528.999 281.901C530.284 280.811 532.087 278.372 532.017 277.604C531.433 277.242 528.927 276.927 526.457 277.22C524.916 277.402 524.245 277.736 524.059 277.892Z" fill="#512473"/>
<path d="M518.483 290.677C517.929 290.677 517.556 290.446 517.337 290.243C516.023 289.029 516.128 286.044 516.192 285.158C516.257 284.25 516.592 281.202 518.163 280.124C520.487 278.524 524.058 282.952 525.097 284.347C525.346 284.683 525.335 285.144 525.069 285.468C524.093 286.653 520.743 290.528 518.624 290.673C518.576 290.676 518.529 290.679 518.483 290.679V290.677ZM519.344 281.581C519.282 281.581 519.231 281.594 519.191 281.622C518.708 281.955 518.145 283.321 518.004 285.288C517.866 287.203 518.214 288.491 518.525 288.862C519.22 288.839 521.324 287.028 523.2 284.864C521.641 282.923 519.967 281.581 519.347 281.581H519.344Z" fill="#512473"/>
<path d="M528.39 297.072C526.411 297.072 523.874 295.853 522.498 295.003C520.274 293.625 520.159 292.813 520.121 292.546C519.954 291.383 521.54 289.748 524.835 287.69C525.206 287.458 525.69 287.523 525.987 287.846C527.548 289.547 531.124 293.726 530.596 295.768C530.453 296.318 530.067 296.723 529.509 296.909C529.168 297.022 528.79 297.073 528.39 297.073V297.072ZM521.969 292.313C522.722 293.325 527.117 295.652 528.844 295.212C528.822 294.406 527.205 291.97 525.158 289.644C523.625 290.667 522.272 291.794 521.969 292.315V292.313Z" fill="#512473"/>
<path d="M531.654 292.268C531.304 292.268 530.983 292.195 530.706 292.03C529.194 291.12 526.85 287.904 526.588 287.541C526.443 287.338 526.386 287.085 526.432 286.839C526.479 286.594 526.624 286.378 526.834 286.244L531.185 283.455C531.517 283.242 531.947 283.267 532.25 283.516L537.438 287.758C537.647 287.928 537.77 288.184 537.773 288.454C537.774 288.724 537.657 288.981 537.45 289.155C536.236 290.181 533.531 292.269 531.655 292.269L531.654 292.268ZM531.626 290.461C532.108 290.591 533.799 289.673 535.416 288.451L531.609 285.34L528.634 287.246C529.581 288.475 530.888 290.01 531.625 290.461H531.626Z" fill="#512473"/>
<path d="M537.855 283.37C536.527 283.37 535.562 283.238 535.451 283.222C534.989 283.156 534.652 282.751 534.672 282.285L534.84 278.212C534.857 277.796 535.157 277.444 535.566 277.36C535.655 277.342 537.773 276.909 540.08 276.688C544.6 276.253 545.75 277.016 546.248 277.726C546.566 278.182 546.802 278.959 546.116 280.068C544.384 282.873 540.436 283.37 537.857 283.37H537.855ZM536.523 281.501C538.399 281.635 542.986 281.676 544.569 279.111C544.692 278.914 544.725 278.797 544.734 278.745C544.596 278.636 543.761 278.15 540.188 278.5C538.771 278.638 537.412 278.863 536.624 279.006L536.521 281.499L536.523 281.501Z" fill="#512473"/>
<path d="M534.692 297.53C533.824 297.53 533.049 297.376 532.594 296.944C532.442 296.8 531.976 296.261 532.366 295.373C533.153 293.58 538.148 289.961 540.119 290.105C540.619 290.139 540.997 290.573 540.963 291.074C540.928 291.575 540.498 291.954 539.994 291.918C539.646 291.897 538.387 292.4 536.699 293.602C535.494 294.461 534.68 295.234 534.287 295.715C535.44 295.8 538.018 295.262 538.722 294.96C539.183 294.762 539.718 294.976 539.915 295.437C540.112 295.899 539.899 296.433 539.438 296.63C539.404 296.644 536.78 297.527 534.695 297.527L534.692 297.53Z" fill="#512473"/>
<path d="M558.715 306.169C554.572 306.169 550.588 305.173 547.153 303.211C545.654 302.355 544.5 301.566 543.52 300.729C543.283 300.525 543.062 300.29 542.849 300.062C542.522 299.712 542.182 299.35 541.853 299.186C541.517 299.018 541.379 298.61 541.547 298.271C541.715 297.935 542.125 297.797 542.462 297.965C543.01 298.238 543.454 298.712 543.845 299.13C544.042 299.34 544.228 299.54 544.408 299.693C545.32 300.472 546.407 301.214 547.83 302.027C553.305 305.156 560.286 305.668 566.982 303.436C567.34 303.316 567.725 303.509 567.845 303.867C567.963 304.224 567.772 304.61 567.414 304.73C564.525 305.693 561.581 306.17 558.715 306.17V306.169Z" fill="#512473"/>
<path d="M589.453 262.857C589.371 262.857 589.286 262.842 589.204 262.809C588.854 262.671 588.683 262.275 588.82 261.925C588.929 261.648 589.058 261.399 589.182 261.16C589.238 261.052 589.294 260.944 589.347 260.833C589.512 260.495 589.919 260.354 590.259 260.519C590.597 260.684 590.738 261.092 590.573 261.431C590.514 261.551 590.453 261.67 590.392 261.787C590.279 262.006 590.171 262.213 590.088 262.424C589.983 262.692 589.726 262.857 589.453 262.857Z" fill="#512473"/>
<path d="M608.938 292.55C608.667 292.55 608.413 292.389 608.305 292.123C608.164 291.774 608.333 291.376 608.682 291.236C609.4 290.947 610.118 290.613 610.815 290.289L611.307 290.062C611.649 289.905 612.054 290.052 612.211 290.395C612.368 290.737 612.221 291.141 611.878 291.299L611.39 291.525C610.679 291.855 609.944 292.197 609.193 292.499C609.109 292.533 609.023 292.549 608.939 292.549L608.938 292.55Z" fill="#512473"/>
<path d="M607.504 291.248C607.212 291.248 606.943 291.06 606.853 290.766C606.742 290.407 606.943 290.025 607.304 289.914C607.846 289.748 608.365 289.54 608.916 289.322C609.229 289.198 609.542 289.073 609.859 288.955C610.211 288.825 610.604 289.006 610.733 289.359C610.864 289.712 610.683 290.104 610.33 290.234C610.024 290.347 609.722 290.467 609.419 290.586C608.868 290.806 608.298 291.032 607.705 291.215C607.638 291.236 607.57 291.245 607.504 291.245V291.248Z" fill="#512473"/>
</svg>
