<svg width="679" height="534" viewBox="0 0 679 534" fill="none" xmlns="http://www.w3.org/2000/svg">
<rect x="90.4346" y="0.5" width="498" height="533" rx="28.175" fill="#1F0433" stroke="#AE72FF"/>
<circle cx="160.934" cy="69" r="37.5" stroke="#AE72FF"/>
<rect x="214.935" y="55" width="110" height="28" rx="5" fill="#2E1044"/>
<path d="M524.899 53.0151L519.934 48.1304L522.1 46L527.065 50.8847H550.403C551.249 50.8847 551.934 51.5592 551.934 52.3911C551.934 52.5377 551.912 52.6836 551.87 52.824L548.195 64.8752C548 65.5124 547.404 65.9488 546.728 65.9488H527.962V68.9616H544.805V71.9744H526.43C525.585 71.9744 524.899 71.2998 524.899 70.468V53.0151ZM527.196 78C525.928 78 524.899 76.9883 524.899 75.7404C524.899 74.4923 525.928 73.4808 527.196 73.4808C528.465 73.4808 529.493 74.4923 529.493 75.7404C529.493 76.9883 528.465 78 527.196 78ZM545.571 78C544.302 78 543.274 76.9883 543.274 75.7404C543.274 74.4923 544.302 73.4808 545.571 73.4808C546.839 73.4808 547.867 74.4923 547.867 75.7404C547.867 76.9883 546.839 78 545.571 78Z" fill="#AE72FF"/>
<path d="M484.188 69.0257L490.935 75.7722L488.707 78L481.96 71.2535C479.535 73.1943 476.458 74.3552 473.112 74.3552C465.286 74.3552 458.935 68.0037 458.935 60.1776C458.935 52.3516 465.286 46 473.112 46C480.938 46 487.29 52.3516 487.29 60.1776C487.29 63.5235 486.129 66.5999 484.188 69.0257ZM481.028 67.8569C482.954 65.8717 484.139 63.1637 484.139 60.1776C484.139 54.0852 479.205 49.1506 473.112 49.1506C467.02 49.1506 462.085 54.0852 462.085 60.1776C462.085 66.2701 467.02 71.2047 473.112 71.2047C476.098 71.2047 478.806 70.0193 480.791 68.093L481.028 67.8569Z" fill="#AE72FF"/>
<g opacity="0.21">
<path fill-rule="evenodd" clip-rule="evenodd" d="M151.585 68.896C149.919 67.7049 147.91 67.0514 145.837 67.0514C144.814 67.0514 143.992 67.8731 143.992 68.896C143.992 69.9188 144.814 70.7405 145.837 70.7405C147.91 70.7405 149.919 70.087 151.585 68.896ZM160.331 77.6413C159.139 79.308 158.486 81.3169 158.486 83.3897C158.486 84.4125 159.308 85.2342 160.331 85.2342C161.353 85.2342 162.175 84.4125 162.175 83.3897C162.175 81.3169 161.522 79.308 160.331 77.6413ZM169.076 68.896C170.743 70.087 172.751 70.7405 174.824 70.7405C175.847 70.7405 176.669 69.9188 176.669 68.896C176.669 67.8731 175.847 67.0514 174.824 67.0514C172.751 67.0514 170.743 67.7049 169.076 68.896ZM160.331 65.3731L156.808 68.896L160.331 72.4188L163.853 68.896L160.331 65.3731ZM162.788 62.7976C164.683 60.4271 165.733 57.4669 165.733 54.4023C165.733 51.3376 163.318 49 160.331 49C157.343 49 154.928 51.415 154.928 54.4023C154.928 57.3896 155.978 60.4271 157.873 62.7976L154.234 66.4365C151.864 64.5417 148.903 63.4918 145.839 63.4918C142.774 63.4918 140.435 65.9087 140.435 68.896C140.435 71.8833 142.85 74.2982 145.837 74.2982C148.824 74.2982 151.862 73.2483 154.232 71.3535L157.871 74.9924C155.976 77.3629 154.926 80.3231 154.926 83.3877C154.926 86.4524 157.341 88.79 160.329 88.79C163.316 88.79 165.731 86.375 165.731 83.3877C165.731 80.4004 164.681 77.3629 162.786 74.9924L166.425 71.3535C168.795 73.2483 171.756 74.2982 174.82 74.2982C177.885 74.2982 180.223 71.8833 180.223 68.896C180.223 65.9087 177.808 63.4937 174.82 63.4937C171.833 63.4937 168.795 64.5436 166.425 66.4385L162.786 62.7996L162.788 62.7976ZM160.331 52.5577C159.308 52.5577 158.486 53.3794 158.486 54.4023C158.486 56.475 159.139 58.4839 160.331 60.1506C161.522 58.4839 162.175 56.475 162.175 54.4023C162.175 53.3794 161.353 52.5577 160.331 52.5577Z" fill="#AE72FF"/>
</g>
<rect x="233.6" y="173.5" width="211.75" height="284.825" rx="28.175" fill="#1F0433" stroke="#AE72FF"/>
<rect x="466.7" y="173.5" width="211.75" height="284.825" rx="28.175" fill="#1F0433" stroke="#AE72FF"/>
<rect x="0.5" y="173.5" width="211.75" height="284.825" rx="28.175" fill="#1F0433" stroke="#AE72FF"/>
<rect x="25" y="381" width="162" height="28" rx="5" fill="#2E1044"/>
<rect x="258" y="381" width="162" height="28" rx="5" fill="#2E1044"/>
<rect x="492" y="381" width="162" height="28" rx="5" fill="#2E1044"/>
<rect x="25" y="199" width="162" height="158" rx="17" fill="#2E1044"/>
<rect x="258" y="199" width="162" height="158" rx="17" fill="#2E1044"/>
<path d="M327.686 309.743C326.999 306.87 325.614 304.546 323.505 302.796C326.759 307.997 328.32 315.224 323.085 319.228C317.508 323.493 308.67 323.506 303.003 319.179C304.026 320.356 305.341 321.296 306.93 322.011C308.453 322.697 310.061 323.06 311.72 323.273C314.043 323.571 316.319 323.363 318.572 322.812C320.638 322.306 322.522 321.407 324.17 320.043C326.212 318.353 327.485 316.215 327.869 313.582C328.056 312.297 327.987 311.006 327.686 309.743Z" fill="#AE72FF"/>
<path d="M323.084 319.228C328.32 315.224 326.759 307.997 323.504 302.796C322.705 302.134 321.802 301.552 320.793 301.056C320.459 300.891 320.127 300.722 319.797 300.548C319.647 300.47 319.496 300.39 319.363 300.286C319.175 300.139 319.002 299.965 319.073 299.69C319.093 299.612 319.142 299.545 319.21 299.493C318.542 299.242 317.85 299.06 317.138 298.931C317.189 299.029 317.218 299.151 317.194 299.229C317.156 299.356 316.972 299.493 316.83 299.522C316.641 299.56 316.432 299.499 316.232 299.478C313.647 299.21 311.083 299.321 308.575 300.035C305.148 301.011 302.814 303.227 301.479 306.5C300.456 309.006 300.148 311.607 300.676 314.275C301.061 316.219 301.845 317.849 303.001 319.178C308.669 323.506 317.507 323.493 323.084 319.228Z" fill="#AE72FF"/>
<path d="M313.957 324.837C311.457 324.861 309.172 324.437 306.968 323.589C305.631 323.075 304.403 322.361 303.295 321.449C301.111 319.651 299.805 317.324 299.278 314.57C298.661 311.341 299.075 308.217 300.487 305.255C302.325 301.402 305.388 299.128 309.588 298.373C310.992 298.121 312.402 297.951 313.832 298.013C314.647 298.048 315.452 298.151 316.23 298.4C316.515 298.491 316.794 298.633 317.037 298.805C317.145 298.881 317.232 299.111 317.196 299.231C317.158 299.358 316.974 299.496 316.832 299.524C316.643 299.562 316.434 299.501 316.234 299.481C313.648 299.212 311.085 299.323 308.577 300.038C305.15 301.014 302.816 303.23 301.481 306.503C300.457 309.009 300.15 311.61 300.678 314.278C301.404 317.944 303.546 320.49 306.929 322.014C308.453 322.699 310.06 323.062 311.719 323.275C314.043 323.573 316.318 323.365 318.571 322.814C320.637 322.308 322.521 321.409 324.169 320.045C326.211 318.355 327.485 316.217 327.868 313.584C328.056 312.299 327.988 311.009 327.685 309.745C326.738 305.784 324.464 302.864 320.793 301.059C320.459 300.894 320.127 300.725 319.797 300.551C319.647 300.473 319.496 300.393 319.363 300.289C319.175 300.142 319.002 299.968 319.073 299.693C319.125 299.495 319.349 299.368 319.653 299.374C320.585 299.392 321.462 299.625 322.269 300.094C324.172 301.198 325.795 302.611 327.032 304.444C328.57 306.721 329.425 309.24 329.471 311.979C329.524 315.095 328.446 317.818 326.289 320.093C324.644 321.827 322.65 323.015 320.408 323.789C318.279 324.525 316.079 324.873 313.957 324.837Z" fill="#512473" fill-opacity="0.266667"/>
<path d="M323.601 316.327C323.5 316.9 323.181 317.335 322.87 317.771C322.832 317.823 322.765 317.88 322.708 317.885C322.614 317.893 322.494 317.89 322.427 317.838C322.361 317.788 322.294 317.647 322.321 317.584C322.544 317.05 322.842 316.561 323.328 316.222C323.37 316.194 323.491 316.283 323.601 316.327Z" fill="#AE72FF"/>
<path d="M321.994 315.839C322.005 316.024 322.057 316.169 322.012 316.268C321.87 316.57 321.704 316.863 321.52 317.141C321.397 317.328 321.133 317.354 320.988 317.221C320.846 317.09 320.822 316.92 320.936 316.769C321.137 316.502 321.348 316.24 321.579 315.999C321.66 315.917 321.811 315.906 321.994 315.839Z" fill="#AE72FF"/>
<path d="M352.124 293.281C351.766 293.765 351.207 293.936 350.655 294.097C348.803 294.634 346.952 295.178 345.089 295.677C340.052 297.027 334.938 297.365 329.772 296.669C323.36 295.805 317.691 293.254 312.756 289.06C309.938 286.665 307.597 283.855 305.683 280.72C301.378 273.668 299.456 265.969 299.863 257.724C300.261 249.659 302.893 242.357 307.664 235.835C308.826 234.247 310.119 232.774 311.521 231.396C311.882 231.041 312.297 230.74 312.705 230.437C313.766 229.649 314.877 228.923 315.894 228.082C317.614 226.661 319.557 225.661 321.595 224.804C334.678 219.307 350.547 221.026 362.645 230.887C365.448 233.172 367.893 235.79 369.923 238.78C374.067 244.886 376.089 251.628 375.778 259.019C375.592 263.432 374.529 267.662 372.821 271.728C371.993 273.698 371.02 275.596 369.875 277.402C368.97 278.831 368.054 280.254 367.118 281.663C366.764 282.196 366.338 282.68 365.946 283.188C365.74 283.456 365.563 283.73 365.479 284.074C365.122 285.537 365.189 285.316 365.887 286.305C366.397 287.027 366.944 287.69 367.582 288.311C368.843 289.539 370.016 290.858 371.22 292.143C372.261 293.255 373.299 294.373 374.333 295.493C374.907 296.115 375.484 296.736 376.037 297.378C377.454 299.019 378.859 300.673 380.269 302.32C381.217 303.427 382.192 304.51 383.109 305.643C384.707 307.619 386.428 309.496 387.876 311.592C388.285 312.184 388.589 312.822 388.881 313.471C389.243 314.275 389.2 315.074 388.709 315.796C388.235 316.493 387.728 317.177 387.167 317.805C385.644 319.505 383.852 320.898 381.998 322.217C380.835 323.045 379.614 323.773 378.31 324.349C377.663 324.634 376.981 324.854 376.298 325.039C375.914 325.143 375.494 325.133 375.09 325.135C374.776 325.136 374.502 325.002 374.284 324.761C373.921 324.359 373.558 323.959 373.181 323.57C372.353 322.713 371.658 321.762 371.029 320.747C370.209 319.422 369.312 318.145 368.464 316.837C367.487 315.33 366.528 313.811 365.562 312.297C364.87 311.211 364.164 310.134 363.488 309.037C362.511 307.451 361.546 305.857 360.593 304.256C359.815 302.946 359.039 301.632 358.307 300.295C357.477 298.783 356.492 297.353 355.845 295.74C355.759 295.526 355.595 295.339 355.448 295.155C355.109 294.733 354.753 294.325 354.415 293.902C354.212 293.648 353.965 293.508 353.642 293.473C353.172 293.425 352.707 293.357 352.124 293.281ZM367.775 238.326C366.156 236.212 364.126 233.993 361.763 232.091C355.146 226.766 347.614 223.767 339.119 223.324C332.32 222.969 325.845 224.274 319.774 227.413C317.909 228.377 316.084 229.414 314.53 230.856C314.232 231.133 313.95 231.43 313.63 231.678C312.308 232.701 311.198 233.935 310.144 235.215C302.698 244.264 299.758 256.192 302.124 267.652C303.079 272.278 304.775 276.608 307.332 280.582C309.082 283.301 311.164 285.745 313.618 287.868C318.278 291.899 323.661 294.367 329.742 295.264C334.483 295.964 339.206 295.729 343.879 294.666C346.156 294.148 348.416 293.558 350.69 293.032C351.27 292.899 351.768 292.72 352.147 292.223C352.346 291.962 352.661 291.786 352.933 291.584C355.706 289.521 358.479 287.455 361.259 285.401C362.239 284.677 363.192 283.911 364.291 283.36C364.502 283.254 364.686 283.097 364.89 282.976C365.16 282.816 365.342 282.592 365.501 282.318C366.162 281.177 366.844 280.046 367.524 278.915C368.972 276.507 370.39 274.083 371.473 271.48C373.195 267.343 374.268 263.052 374.378 258.56C374.559 251.182 372.337 244.554 367.775 238.326ZM356.955 295.457C357.995 297.13 358.984 298.707 359.958 300.293C360.967 301.938 361.941 303.605 362.968 305.238C364.265 307.302 365.601 309.343 366.922 311.392C367.581 312.417 368.24 313.443 368.907 314.463C370.057 316.22 371.192 317.987 372.373 319.722C373.158 320.874 373.873 322.054 374.393 323.351C374.584 323.83 374.845 324.006 375.328 323.919C375.79 323.835 376.253 323.709 376.69 323.535C378.11 322.969 379.425 322.198 380.687 321.344C382.486 320.124 384.132 318.715 385.653 317.166C386.485 316.319 387.233 315.4 387.714 314.297C387.804 314.089 387.845 313.86 387.907 313.649C387.778 313.513 387.694 313.406 387.592 313.321C386.81 312.668 386.103 311.949 385.469 311.146C384.547 309.977 383.599 308.826 382.642 307.684C380.925 305.633 379.2 303.588 377.463 301.553C375.441 299.184 373.405 296.827 371.371 294.467C370.774 293.775 370.164 293.094 369.563 292.405C368.561 291.258 367.562 290.107 366.56 288.96C366.453 288.838 366.332 288.727 366.233 288.628C362.463 290.005 359.508 292.397 356.955 295.457ZM356.379 294.601C356.701 294.088 356.966 293.618 357.279 293.183C357.896 292.327 358.687 291.639 359.458 290.923C360.588 289.873 361.861 289.048 363.19 288.296C363.716 287.998 364.283 287.762 364.901 287.682C365.038 287.664 365.251 287.754 365.309 287.489C365.128 287.301 364.926 287.12 364.762 286.91C364.575 286.671 364.401 286.416 364.258 286.149C364.136 285.919 364.065 285.662 363.95 285.359C363.004 285.84 362.232 286.495 361.408 287.065C360.6 287.625 359.809 288.21 359.004 288.773C358.17 289.355 357.323 289.918 356.49 290.502C355.673 291.075 354.81 291.589 353.989 292.327C355.129 292.538 355.729 293.211 356.069 294.17C356.118 294.314 356.251 294.428 356.379 294.601Z" fill="#512473"/>
<path d="M367.774 238.326C372.337 244.554 374.558 251.181 374.377 258.56C374.267 263.052 373.194 267.343 371.473 271.48C370.39 274.083 368.971 276.506 367.523 278.915C366.843 280.046 366.161 281.177 365.5 282.319C365.342 282.593 365.16 282.817 364.889 282.976C364.686 283.097 364.501 283.254 364.29 283.36C363.191 283.91 362.238 284.677 361.258 285.401C358.478 287.456 355.706 289.522 352.932 291.585C352.66 291.787 352.345 291.963 352.146 292.224C351.767 292.721 351.269 292.899 350.689 293.033C348.414 293.558 346.156 294.148 343.878 294.666C339.206 295.728 334.482 295.963 329.741 295.265C323.66 294.367 318.278 291.9 313.617 287.868C311.163 285.745 309.081 283.301 307.331 280.582C304.774 276.609 303.078 272.279 302.123 267.653C299.757 256.193 302.697 244.265 310.142 235.216C311.196 233.935 312.306 232.702 313.628 231.678C313.949 231.431 314.231 231.133 314.528 230.857C316.083 229.415 317.908 228.379 319.772 227.414C325.843 224.275 332.319 222.97 339.117 223.325C347.612 223.769 355.144 226.767 361.762 232.092C364.126 233.993 366.157 236.212 367.774 238.326ZM365.341 271.192C365.227 271.193 365.103 271.157 365.059 271.202C364.806 271.454 364.77 271.984 364.974 272.305C365.001 272.347 365.091 272.371 365.149 272.366C365.207 272.361 365.284 272.322 365.314 272.275C365.526 271.928 365.435 271.577 365.341 271.192ZM366.72 271.211C366.277 271.564 366.316 271.848 366.401 272.135C366.414 272.18 366.518 272.237 366.561 272.224C366.645 272.198 366.777 272.128 366.779 272.073C366.787 271.847 366.753 271.619 366.72 271.211Z" fill="#AE72FF"/>
<path d="M358.285 295.214C358.547 294.905 358.824 294.604 359.124 294.332C359.676 293.832 360.243 293.346 360.813 292.868C361.83 292.014 362.979 291.356 364.109 290.672C364.394 290.5 364.732 290.413 365.048 290.295C365.117 290.269 365.132 290.274 365.34 290.435C365.881 290.101 366.407 289.731 366.958 289.413C366.826 289.262 366.694 289.11 366.561 288.959C366.454 288.837 366.333 288.726 366.235 288.627C362.463 290.004 359.508 292.397 356.955 295.456C357.165 295.794 357.372 296.127 357.578 296.458C357.791 296.138 358.01 295.823 358.252 295.523C358.251 295.41 358.229 295.28 358.285 295.214Z" fill="#512473"/>
<path d="M387.592 313.32C386.81 312.667 386.103 311.948 385.469 311.145C384.547 309.976 383.599 308.825 382.642 307.683C380.925 305.632 379.2 303.587 377.463 301.552C375.441 299.183 373.405 296.826 371.371 294.466C370.775 293.774 370.164 293.093 369.563 292.404C368.693 291.409 367.825 290.41 366.956 289.414C366.405 289.731 365.879 290.101 365.339 290.436C365.378 290.465 365.422 290.5 365.475 290.541C365.365 290.665 365.274 290.812 365.145 290.905C364.87 291.101 364.582 291.283 364.286 291.446C362.403 292.478 360.731 293.8 359.112 295.195C358.959 295.328 358.807 295.473 358.631 295.565C358.53 295.617 358.38 295.574 358.252 295.575C358.253 295.559 358.253 295.541 358.253 295.524C358.01 295.824 357.792 296.139 357.579 296.46C358.394 297.767 359.181 299.028 359.958 300.294C360.968 301.938 361.941 303.605 362.968 305.238C364.265 307.303 365.601 309.343 366.922 311.392C367.581 312.417 368.24 313.443 368.907 314.463C370.057 316.22 371.192 317.987 372.373 319.722C373.158 320.874 373.873 322.055 374.393 323.351C374.584 323.83 374.845 324.006 375.328 323.919C375.79 323.835 376.253 323.709 376.69 323.536C378.11 322.97 379.425 322.198 380.687 321.344C382.486 320.125 384.132 318.715 385.653 317.166C386.485 316.319 387.233 315.4 387.714 314.298C387.804 314.089 387.845 313.86 387.907 313.649C387.778 313.513 387.694 313.406 387.592 313.32ZM379.869 315.512C379.552 315.966 379.127 316.297 378.535 316.325C377.879 316.356 377.324 316.005 377.138 315.38C377.044 315.064 377.005 314.716 377.02 314.386C377.036 313.99 377.255 313.68 377.651 313.554C377.709 313.535 377.778 313.544 377.873 313.559C378.074 313.367 378.347 313.343 378.614 313.431C378.619 313.399 378.626 313.367 378.635 313.338C378.685 313.18 378.954 313.158 379.175 313.253C380.116 313.659 380.444 314.686 379.869 315.512ZM367.835 297.915C367.829 298.539 367.533 299.003 367.04 299.359C366.147 300.002 365.098 299.551 364.921 298.45C364.82 297.818 365.101 297.341 365.551 296.944C365.609 296.894 365.755 296.893 365.828 296.93C365.856 296.944 365.882 296.972 365.904 297.005C366.113 296.92 366.335 296.92 366.539 296.995C366.598 296.896 366.701 296.813 366.807 296.802C367.053 296.777 367.275 296.832 367.455 297.01C367.707 297.259 367.839 297.558 367.835 297.915Z" fill="#512473"/>
<path d="M378.186 313.608C378.014 313.894 377.923 314.029 377.85 314.172C377.735 314.396 377.748 314.623 377.842 314.856C377.947 315.119 378.09 315.355 378.396 315.376C378.645 315.393 378.84 315.247 378.997 315.054C379.138 314.88 379.182 314.677 379.086 314.488C378.964 314.25 378.772 314.046 378.658 313.805C378.608 313.7 378.595 313.558 378.614 313.433C378.347 313.344 378.074 313.368 377.873 313.561C377.953 313.573 378.053 313.592 378.186 313.608Z" fill="#512473"/>
<path d="M365.898 297.452C365.846 297.612 365.772 297.766 365.735 297.929C365.655 298.284 365.764 298.57 366.017 298.726C366.203 298.841 366.454 298.785 366.653 298.584C366.91 298.325 366.963 298.069 366.805 297.767C366.712 297.589 366.587 297.428 366.505 297.246C366.471 297.169 366.49 297.077 366.539 296.996C366.334 296.92 366.113 296.921 365.904 297.006C365.937 297.054 365.961 297.114 365.967 297.164C365.977 297.256 365.929 297.357 365.898 297.452Z" fill="#512473"/>
<path d="M356.379 294.601C356.251 294.428 356.119 294.313 356.068 294.17C355.728 293.211 355.127 292.538 353.988 292.326C354.809 291.588 355.672 291.074 356.489 290.501C357.322 289.918 358.169 289.355 359.003 288.773C359.809 288.21 360.599 287.625 361.407 287.065C362.232 286.494 363.003 285.839 363.949 285.359C364.064 285.662 364.135 285.919 364.257 286.148C364.4 286.416 364.574 286.67 364.761 286.909C364.926 287.119 365.128 287.3 365.308 287.488C365.249 287.754 365.037 287.665 364.9 287.682C364.283 287.761 363.716 287.997 363.189 288.295C361.86 289.046 360.587 289.873 359.457 290.922C358.686 291.638 357.895 292.326 357.278 293.183C356.966 293.618 356.702 294.088 356.379 294.601Z" fill="#AE72FF"/>
<path d="M365.341 271.192C365.434 271.576 365.527 271.928 365.314 272.275C365.285 272.323 365.208 272.361 365.149 272.366C365.091 272.371 365.002 272.346 364.974 272.305C364.77 271.984 364.806 271.454 365.059 271.202C365.104 271.159 365.227 271.194 365.341 271.192Z" fill="#AE72FF"/>
<path d="M366.721 271.21C366.753 271.618 366.787 271.846 366.779 272.073C366.777 272.128 366.645 272.197 366.561 272.223C366.519 272.237 366.414 272.179 366.401 272.135C366.317 271.848 366.277 271.563 366.721 271.21Z" fill="#AE72FF"/>
<path d="M365.476 290.542C365.365 290.666 365.275 290.813 365.145 290.905C364.87 291.101 364.583 291.284 364.286 291.447C362.403 292.479 360.731 293.8 359.113 295.196C358.959 295.328 358.808 295.473 358.631 295.565C358.53 295.618 358.38 295.575 358.252 295.575C358.261 295.453 358.222 295.291 358.286 295.215C358.547 294.905 358.824 294.605 359.124 294.333C359.676 293.833 360.243 293.347 360.814 292.868C361.83 292.015 362.979 291.357 364.109 290.673C364.394 290.5 364.732 290.414 365.048 290.296C365.129 290.264 365.133 290.276 365.476 290.542Z" fill="#512473"/>
<path d="M378.186 313.607C378.015 313.893 377.924 314.028 377.85 314.171C377.735 314.395 377.749 314.622 377.842 314.855C377.947 315.118 378.09 315.354 378.396 315.375C378.645 315.392 378.84 315.246 378.997 315.053C379.139 314.879 379.182 314.676 379.086 314.487C378.965 314.249 378.772 314.045 378.658 313.804C378.595 313.672 378.59 313.48 378.635 313.339C378.685 313.18 378.954 313.158 379.175 313.253C380.116 313.658 380.445 314.686 379.869 315.512C379.552 315.967 379.126 316.298 378.535 316.326C377.879 316.357 377.324 316.005 377.138 315.381C377.043 315.064 377.005 314.717 377.02 314.387C377.036 313.99 377.255 313.681 377.651 313.555C377.759 313.52 377.895 313.574 378.186 313.607Z" fill="#512473"/>
<path d="M367.04 299.36C366.147 300.002 365.097 299.551 364.921 298.45C364.819 297.819 365.1 297.341 365.551 296.944C365.608 296.894 365.754 296.893 365.828 296.93C365.898 296.966 365.957 297.079 365.966 297.163C365.976 297.255 365.929 297.357 365.897 297.452C365.846 297.612 365.772 297.765 365.734 297.929C365.654 298.283 365.763 298.57 366.017 298.726C366.202 298.841 366.454 298.785 366.653 298.584C366.91 298.325 366.962 298.069 366.804 297.766C366.712 297.589 366.587 297.427 366.505 297.245C366.428 297.074 366.613 296.822 366.806 296.802C367.053 296.777 367.275 296.832 367.454 297.01C367.706 297.258 367.839 297.557 367.835 297.914C367.828 298.539 367.532 299.003 367.04 299.36Z" fill="#512473"/>
<rect x="492" y="199" width="162" height="158" rx="17" fill="#2E1044"/>
<path d="M515.783 299.549C516.065 299.392 516.17 299.199 515.972 299.001C515.779 298.808 515.324 298.925 515.11 299.026C514.905 299.122 514.748 299.436 514.982 299.597C515.03 299.63 515.179 299.678 515.316 299.666C515.364 299.823 515.553 300.564 515.666 300.717C515.715 300.781 515.815 300.801 515.872 300.733C515.944 300.648 515.843 299.835 515.779 299.549H515.783Z" fill="black"/>
<path d="M618.347 279.761C620.309 281.545 633.593 292.216 637.874 294.982C638.164 295.172 638.107 295.47 637.817 295.264C630.247 289.957 621.078 282.314 618.255 280.002C618.094 279.869 618.178 279.6 618.351 279.757L618.347 279.761Z" fill="black"/>
<path d="M617.772 283.115C617.308 283.107 616.048 283.006 615.476 283.184C615.496 285.237 615.396 288.523 615.46 290.307C615.516 291.95 615.867 294.467 615.843 296.11C615.827 297.197 616.318 298.643 615.601 299.545C615.114 300.157 608.856 300.322 607.241 300.382C601.918 300.584 599.389 301.111 595.563 301.361C593.349 301.506 587.268 301.752 573.081 303.286C570.959 303.515 563.485 304.095 561.601 304.341C558.009 304.812 554.09 305.283 550.764 305.633C549.886 305.714 549.447 305.529 548.537 305.203C544.366 303.777 540.504 302.468 536.094 301.248C534.19 300.717 532.156 300.068 530.356 299.247C528.419 298.365 526.233 298.043 524.344 297.068C522.548 296.146 520.063 295.079 518.259 294.141C518.002 294.004 517.853 291.89 517.877 290.738C517.929 288.781 517.78 288.229 517.76 285.64C517.76 285.141 517.563 283.582 517.551 282.974C516.153 282.785 514.502 282.382 513.161 281.923C512.618 281.738 513.081 281.146 513.375 280.759C514.663 279.088 516.27 277.397 516.934 276.632C518.372 274.977 519.508 273.02 520.849 271.264C524.722 266.178 525.697 263.448 528.371 259.707C531.242 255.692 533.912 251.516 536.88 247.538C538.446 245.44 539.964 243.366 541.337 241.131C541.957 240.132 543.641 236.266 543.995 235.787C544.402 235.236 548.203 236.226 549.689 236.407C551.614 236.645 553.635 237.015 555.588 236.951C561.87 236.754 563.86 236.754 567.581 236.593C571.861 236.411 574.136 235.852 577.644 235.296C580.35 234.869 585.782 233.907 586.555 234.007C587.425 234.12 588.677 237.305 589.495 238.646C590.638 240.519 595.793 248.335 597.053 250.272C598.499 252.487 600.122 254.548 601.644 256.707C604.567 260.851 607.443 265.038 610.431 269.138C611.792 271.002 613.459 272.722 614.985 274.457C616.342 276 620.578 280.405 621.625 282.145C622.229 283.151 620.619 283.163 617.784 283.111L617.772 283.115Z" fill="black"/>
<path d="M515.159 281.078C515.811 280.458 516.302 279.656 516.906 278.939C518.469 277.099 519.81 275.142 521.195 273.153C523.953 269.194 526.651 265.087 529.204 260.992C532.019 256.477 535.176 252.173 538.358 247.904C539.86 245.887 541.853 242.79 544.913 237.116C550.627 238.018 554.256 238.437 559.213 238.336C557.232 242.206 554.489 245.943 552.508 249.813C550.241 254.243 547.668 258.257 545.32 262.647C544.14 264.853 543.033 267.104 541.748 269.255C540.391 271.526 538.68 273.555 537.194 275.742C535.277 278.557 533.082 281.082 531.286 283.949C528.898 283.498 526.506 283.067 524.098 282.692C520.696 282.165 518.066 281.839 515.159 281.074V281.078Z" fill="#AE72FF"/>
<path d="M549.536 291.318C549.48 293.001 549.476 294.688 549.444 296.371C549.419 297.696 549.387 299.021 549.359 300.35C549.343 301.139 549.291 302.585 549.266 303.741C545.63 302.223 541.821 301.566 538.068 300.354C534.488 299.194 531.166 298.26 527.694 296.798C525.935 296.057 524.014 295.478 522.286 294.628C522.25 294.608 519.5 293.359 519.504 293.436C519.451 292.357 519.246 291.072 519.258 289.973C519.278 288.145 519.266 287.222 519.258 285.394C519.258 285.004 519.21 283.675 519.101 283.188C520.273 283.32 521.421 283.518 522.592 283.703C525.363 284.138 532.881 285.499 533.55 285.688C536.646 286.554 539.916 286.602 543.021 287.371C544.474 287.73 545.904 287.818 547.37 288.064C548.127 288.189 548.884 288.366 549.649 288.515C549.782 289.393 549.568 290.537 549.54 291.318H549.536Z" fill="#512473"/>
<path d="M546.955 286.514C545.525 286.276 544.108 286.144 542.69 285.793C540.008 285.133 537.141 284.927 534.415 284.404C533.718 284.271 533.022 284.134 532.325 284.005C534.266 280.925 536.638 278.118 538.72 275.118C540.021 273.241 541.446 271.478 542.654 269.541C543.975 267.423 545.082 265.151 546.238 262.941C548.541 258.535 551.199 254.275 553.366 249.805C554.437 247.594 555.903 245.605 557.211 243.531C557.848 242.52 558.44 241.485 559.003 240.43C559.309 239.859 560.034 238.187 560.034 238.187C560.976 238.175 561.959 238.167 562.998 238.187C564.903 238.22 569.175 237.769 571.052 237.535C572.832 237.314 574.579 236.879 576.367 236.706C579.23 236.436 582.085 235.546 584.944 235.385C584.465 236.323 583.982 237.249 583.495 238.204C582.109 240.902 581.046 242.951 579.657 245.295C576.323 250.916 573.222 256.743 569.59 262.176C568.1 264.402 566.566 266.682 565.209 268.993C563.606 271.723 561.693 274.139 560.026 276.829C558.609 279.113 557.175 281.674 555.472 283.74C554.489 284.936 553.39 286.079 552.307 287.187C552.242 287.255 552.162 287.327 552.077 287.404C552.037 287.396 551.996 287.388 551.952 287.388C550.309 287.34 548.582 286.8 546.951 286.53L546.955 286.514Z" fill="#AE72FF"/>
<path d="M614.095 293.242C609.521 293.327 600.138 294.18 600.058 294.189C598.568 292.288 597.481 290.073 596.365 287.943C595.451 286.195 592.544 279.921 591.327 276.37C590.53 274.042 589.515 270.49 588.75 268.155C587.172 263.327 586.906 259.63 585.875 254.685C585.348 252.156 585.344 249.623 585.033 247.066C584.639 243.804 584.772 243.418 584.683 241.146C586.447 244.867 588.444 247.67 591.017 250.799C594.332 254.83 597.376 259.038 600.38 263.302C603.235 267.357 606.179 271.505 609.05 275.536C610.608 277.723 613.793 282.313 613.818 282.656C614.047 285.567 613.979 291.893 614.087 293.242H614.095Z" fill="#AE72FF"/>
<path d="M551.054 289.099C551.211 289.119 551.832 289.111 552.415 289.219C552.818 289.296 555.891 285.547 556.877 284.339C557.534 283.534 558.609 282.06 559.12 281.162C559.877 279.833 560.888 278.593 561.718 277.3C563.224 274.952 564.718 272.629 566.107 270.213C567.641 267.539 569.816 264.982 571.37 262.324C574.6 256.807 577.785 251.564 581.095 246.092C582.001 244.598 582.722 243.051 583.451 241.501C583.314 243.104 583.378 244.759 583.306 246.349C583.181 249.108 582.971 251.834 582.762 254.58C582.44 258.865 581.88 262.606 581.196 266.85C580.35 272.069 580.314 274.505 578.735 279.547C578.026 281.806 576.589 285.857 575.393 289.191C573.617 294.14 572.425 295.759 572.256 296.126C571.604 296.19 567.649 296.726 566.292 296.85C563.574 297.104 561.424 297.354 558.689 297.499C556.289 297.628 553.285 298.167 550.909 298.59C550.905 298.252 550.966 293.846 550.994 291.978C551.01 291.015 551.248 290.158 551.058 289.099H551.054Z" fill="#AE72FF"/>
<path d="M578.135 284.706C579.871 279.64 581.397 273.938 582.126 268.618C583.128 261.301 584.01 255.205 584.232 252.221C584.445 254.754 584.453 256.928 584.413 259.022C584.336 263.238 584.626 267.402 584.675 271.61C584.723 275.911 585.005 280.248 584.928 284.536C584.896 286.405 584.981 293.524 584.868 295.143C584.312 295.171 583.757 295.208 583.205 295.276C580.229 295.626 577.281 295.365 574.301 295.856C574.1 295.888 573.899 295.916 573.693 295.945C575.759 292.469 576.826 288.531 578.135 284.702V284.706Z" fill="#512473"/>
<path d="M585.565 284.79C585.428 280.578 585.488 276.491 585.315 271.691C585.17 267.748 584.953 264.181 585.021 260.238C585.061 257.983 584.84 252.974 584.864 253.143C585.666 258.221 586.451 264.241 587.993 269.162C588.738 271.546 589.559 273.905 590.276 276.305C590.933 278.504 594.517 286.655 595.479 288.406C596.566 290.391 597.605 292.457 598.97 294.273C596.647 294.41 594.327 294.326 592.02 294.728C589.878 295.103 587.679 295.038 585.492 295.119C585.597 291.688 585.714 289.397 585.565 284.794V284.79Z" fill="#512473"/>
<path d="M610.882 298.811C607.716 298.864 603.855 299.331 600.71 299.569C596.212 299.907 591.742 300.289 583.45 300.93C581.707 301.067 573.327 301.791 571.583 301.977C569.711 302.174 561.536 302.919 559.676 303.165C556.434 303.591 553.885 303.914 550.631 304.256C550.805 302.46 550.933 300.362 550.913 299.323C552.117 299.359 556.913 298.574 557.63 298.57C560.324 298.55 573.436 297.011 573.653 296.991C575.195 296.842 581.606 296.508 583.289 296.335C583.797 296.283 589.454 296.142 591.42 295.864C594.198 295.465 596.896 295.397 599.695 295.207C604.515 294.881 609.343 294.293 614.167 294.185C614.296 295.751 614.558 297.535 614.582 298.28C614.594 298.679 612.758 298.779 610.877 298.811H610.882Z" fill="#512473"/>
<path d="M615.328 281.96C615.328 281.96 615.316 281.972 615.308 281.976C614.695 280.736 611.796 277.43 610.801 275.763C608.236 271.466 605.848 268.136 602.82 264.129C599.526 259.768 596.466 255.278 593.075 250.985C591.372 248.835 589.773 246.668 588.239 244.389C587.019 242.573 585.976 240.64 584.748 238.832C585.319 237.733 585.637 236.927 586.27 235.703C587.144 237.06 587.76 238.615 588.561 239.996C589.729 242.005 591.239 243.854 592.443 245.855C595.02 250.119 597.807 254.138 600.686 258.205C603.618 262.345 606.255 265.901 609.247 269.996C610.592 271.836 612.585 274.083 614.116 275.775C615.287 277.067 618.561 280.446 619.926 281.92C619.266 282.093 617.2 282.193 615.324 281.96H615.328Z" fill="#AE72FF"/>
<path d="M513.456 281.726C511.652 283.852 505.269 289.969 500.84 293.492C500.542 293.73 500.735 294 501.029 293.75C506.948 288.696 509.481 286.429 513.742 282.024C513.899 281.863 513.613 281.54 513.456 281.73V281.726Z" fill="black"/>
<path d="M531.375 284.445C529.571 286.571 520.253 296.328 515.824 299.815C515.522 300.053 515.421 300.588 515.723 300.347C521.763 295.422 527.401 289.144 531.665 284.739C531.822 284.577 531.536 284.255 531.379 284.445H531.375Z" fill="black"/>
<path d="M552.4 288.66C550.596 290.786 538.072 303.491 533.642 306.982C533.34 307.22 533.248 307.763 533.542 307.513C541.595 300.575 550.294 291.317 552.637 288.897C552.794 288.736 552.561 288.474 552.404 288.664L552.4 288.66Z" fill="black"/>
<path d="M500.875 293.186C501.137 293.021 501.226 292.832 501.033 292.655C500.839 292.478 500.412 292.615 500.215 292.719C500.026 292.82 499.893 293.13 500.118 293.271C500.167 293.299 500.308 293.335 500.437 293.319C500.489 293.468 500.706 294.165 500.823 294.302C500.871 294.358 500.968 294.378 501.02 294.31C501.085 294.225 500.948 293.456 500.875 293.186Z" fill="black"/>
<path d="M533.562 306.934C533.84 306.765 533.936 306.572 533.735 306.378C533.534 306.189 533.083 306.326 532.877 306.431C532.676 306.532 532.531 306.854 532.769 307.007C532.821 307.039 532.966 307.079 533.103 307.063C533.155 307.22 533.373 307.953 533.489 308.102C533.538 308.162 533.638 308.183 533.695 308.114C533.763 308.025 533.634 307.22 533.562 306.934Z" fill="black"/>
<path d="M637.898 294.809C637.6 294.648 637.495 294.451 637.709 294.257C637.918 294.068 638.405 294.193 638.627 294.297C638.844 294.398 639.001 294.716 638.748 294.869C638.695 294.902 638.538 294.946 638.389 294.93C638.337 295.087 638.112 295.824 637.987 295.973C637.934 296.037 637.826 296.057 637.765 295.989C637.689 295.9 637.822 295.091 637.894 294.805L637.898 294.809Z" fill="black"/>
<path d="M89.0399 281.335C89.0111 282.309 89.0039 283.202 88.9556 284.095C88.6628 289.524 87.9477 294.886 86.0932 300.027C85.5106 301.642 84.8089 303.248 83.9222 304.714C81.6495 308.472 78.298 310.377 72.7437 309.644C71.2087 309.441 70.1237 308.721 69.085 307.771C67.063 305.919 65.5455 303.682 64.2509 301.283C63.917 300.665 63.5841 300.045 63.3334 299.58C62.1374 299.338 61.1121 299.085 60.0713 298.938C59.3367 298.833 58.8692 298.425 58.4448 297.888C57.3434 296.493 56.4341 294.987 55.7437 293.347C54.7656 291.024 54.0248 288.631 53.583 286.148C53.4946 285.654 53.3611 285.169 53.2337 284.613C52.0881 284.695 51 284.772 49.912 284.852C48.8547 284.931 47.7965 284.996 46.7413 285.096C46.0693 285.16 45.6163 284.832 45.2382 284.346C44.595 283.52 44.2641 282.573 44.108 281.541C43.8285 279.698 44.0987 277.949 44.8929 276.268C45.2977 275.411 45.9286 274.944 46.8933 274.869C48.5362 274.74 50.175 274.563 51.8158 274.402C52.122 274.373 52.4271 274.325 52.7908 274.279C52.9861 272.928 53.1689 271.616 53.3672 270.307C53.6919 268.164 54.3012 266.101 55.0779 264.079C55.792 262.221 57.0948 261.041 58.9822 260.468C59.5052 260.309 60.022 260.128 60.5655 259.948C61.3792 257.149 62.3707 254.424 63.768 251.871C64.4255 250.67 65.1191 249.465 65.9646 248.396C67.0938 246.967 68.5343 245.855 70.2963 245.278C73.017 244.388 75.4499 245.145 77.5295 246.911C78.7429 247.942 79.796 249.2 80.7628 250.478C84.2623 255.1 86.3069 260.379 87.5254 266.003C87.8244 267.382 88.0279 268.782 88.2837 270.17C88.3248 270.394 88.4101 270.61 88.5066 270.936C100.118 269.822 111.704 268.71 123.275 267.6C123.478 265.764 123.612 264.045 123.864 262.343C124.615 257.268 125.931 252.362 128.361 247.799C129.178 246.266 130.092 244.803 131.367 243.617C131.841 243.177 132.447 242.797 133.06 242.604C135.388 241.873 137.762 241.821 140.142 242.364C140.401 242.423 140.68 242.524 140.883 242.688C142.195 243.75 143.58 244.758 144.448 246.249C145.491 248.045 146.467 249.879 147.467 251.7C147.636 252.006 147.771 252.331 147.955 252.715C148.433 252.715 148.9 252.735 149.366 252.712C151.699 252.595 153.74 253.449 155.707 254.576C157.01 255.322 157.907 256.456 158.72 257.665C159.915 259.441 160.705 261.402 161.267 263.46C161.328 263.687 161.383 263.915 161.455 264.139C161.477 264.209 161.544 264.266 161.657 264.416C162.957 264.249 164.321 264.132 165.66 263.884C166.574 263.714 167.257 263.967 167.9 264.577C170.056 266.624 170.419 270.375 168.693 272.805C168.079 273.67 167.262 274.102 166.208 274.15C164.954 274.206 163.703 274.296 162.384 274.374C162.202 275.605 162.039 276.798 161.847 277.988C161.552 279.82 160.927 281.548 160.229 283.263C159.402 285.295 157.908 286.622 155.916 287.331C154.563 287.813 153.114 288.028 151.706 288.357C151.445 288.418 151.176 288.45 150.949 288.489C150.469 290.165 150.096 291.813 149.52 293.386C148.888 295.111 148.136 296.802 147.317 298.449C146.072 300.954 143.937 302.4 141.297 303.166C139.735 303.619 138.14 303.78 136.522 303.679C135.297 303.603 134.308 303.117 133.463 302.165C129.723 297.948 127.568 292.915 126.016 287.608C125.193 284.793 124.723 281.875 124.092 279.003C124.027 278.706 123.955 278.411 123.867 278.032C112.252 279.13 100.704 280.226 89.0399 281.335ZM125.287 277.899C125.287 278.268 125.252 278.54 125.292 278.801C125.944 283.08 126.928 287.272 128.488 291.322C129.895 294.974 131.648 298.412 134.201 301.42C134.991 302.352 135.857 302.847 137.051 302.671C138.444 302.466 139.842 302.263 141.216 301.964C143.471 301.473 145.054 300.062 146.087 298.052C146.822 296.625 147.521 295.169 148.098 293.673C149.495 290.053 150.064 286.238 150.443 282.408C151.135 275.404 150.791 268.44 149.306 261.552C148.275 256.767 146.689 252.19 144.159 247.961C143.171 246.311 141.917 244.941 140.444 243.746C140.184 243.535 139.839 243.304 139.529 243.297C137.728 243.254 135.922 243.066 134.131 243.489C133.059 243.742 132.134 244.172 131.515 245.125C130.938 246.013 130.311 246.873 129.789 247.793C127.135 252.475 125.794 257.58 125.036 262.86C124.826 264.323 124.737 265.803 124.584 267.364C124.999 267.364 125.264 267.384 125.526 267.361C127.6 267.186 129.672 267.001 131.744 266.821C133.274 266.688 134.131 267.101 134.712 268.513C135.696 270.905 135.698 273.341 134.64 275.722C134.233 276.637 133.522 277.178 132.433 277.204C131.296 277.232 130.162 277.371 129.03 277.484C127.791 277.607 126.554 277.757 125.287 277.899ZM61.9145 259.583C62.4488 259.509 62.6748 259.473 62.9029 259.446C64.6906 259.23 66.4794 259.018 68.2671 258.8C69.2576 258.679 69.9367 259.108 70.3539 259.981C71.2827 261.927 72.3594 263.821 73.094 265.839C75.6041 272.734 76.1383 279.843 74.9804 287.074C74.477 290.221 73.6098 293.271 72.3142 296.201C71.6125 297.787 70.4844 298.684 68.7716 298.912C67.4688 299.086 66.1732 299.32 64.8273 299.536C64.8817 299.73 64.8992 299.887 64.967 300.02C66.164 302.377 67.6229 304.546 69.4322 306.491C70.8583 308.025 72.455 308.966 74.6239 308.576C74.777 308.548 74.9373 308.562 75.0945 308.557C78.2559 308.461 80.8122 307.2 82.5084 304.496C83.2955 303.242 83.9448 301.882 84.512 300.511C86.0541 296.781 86.7713 292.836 87.2665 288.859C88.2056 281.316 87.9025 273.805 86.3428 266.364C85.2455 261.13 83.4177 256.171 80.2625 251.802C79.1652 250.282 77.8583 248.911 76.5966 247.516C75.7489 246.579 74.6116 246.072 73.3735 245.964C71.3474 245.788 69.5021 246.26 68.0339 247.799C66.0181 249.912 64.7245 252.466 63.5882 255.105C62.9882 256.5 62.5186 257.952 61.9145 259.583ZM54.0926 274.166C55.1601 274.08 56.093 274.043 57.0146 273.921C57.9332 273.798 58.5168 274.189 58.9216 274.959C60.0743 277.155 60.5274 279.469 59.9202 281.9C59.5791 283.267 58.8055 284.242 57.1194 284.265C56.2728 284.276 55.4293 284.422 54.518 284.513C54.6187 285.113 54.6834 285.573 54.7748 286.028C55.4899 289.587 56.5697 293.006 58.5085 296.118C59.2473 297.304 60.0096 298.336 61.6258 298.057C61.6628 298.051 61.7028 298.067 61.7419 298.072C64.3731 298.374 66.9859 298.28 69.5864 297.756C70.0076 297.671 70.3117 297.532 70.4956 297.128C70.9837 296.06 71.5673 295.028 71.9752 293.93C74.2756 287.744 74.8797 281.351 74.1461 274.82C73.5708 269.695 72.0337 264.863 69.573 260.328C69.4641 260.127 69.3162 259.948 69.161 259.723C65.8506 259.985 62.6121 260.44 59.425 261.334C58.1294 261.698 57.2982 262.422 56.7085 263.543C56.5256 263.891 56.3478 264.241 56.1989 264.603C54.9649 267.607 54.4183 270.763 54.0926 274.166ZM89.1221 280.338C91.2129 280.129 93.2 279.936 95.185 279.731C98.6207 279.376 102.055 279.006 105.492 278.657C108.968 278.304 112.446 277.969 115.922 277.623C119.633 277.255 123.343 276.884 127.054 276.514C128.851 276.335 130.648 276.162 132.445 275.975C132.955 275.922 133.428 275.85 133.689 275.265C134.655 273.099 134.642 270.924 133.783 268.748C133.485 267.993 132.921 267.558 132.021 267.748C131.64 267.828 131.239 267.809 130.848 267.849C126.632 268.286 122.416 268.735 118.198 269.162C113.941 269.594 109.681 270 105.422 270.424C100.852 270.879 96.2823 271.342 91.7133 271.806C90.6797 271.911 89.6481 272.041 88.6299 272.158C88.7953 274.921 88.9525 277.539 89.1221 280.338ZM151.056 287.511C152.855 287.037 154.443 286.646 156.014 286.193C157.032 285.9 157.846 285.3 158.281 284.29C158.914 282.818 159.707 281.387 160.128 279.855C161.57 274.606 161.513 269.314 160.252 264.024C159.766 261.985 158.976 260.083 157.893 258.283C156.33 255.688 153.819 254.59 151.068 253.898C150.227 253.686 149.318 253.742 148.335 253.667C152.245 264.704 152.872 275.865 151.056 287.511ZM59.275 279.702C59.0664 278.244 58.8312 276.862 58.1428 275.585C57.8684 275.077 57.552 274.894 56.9201 274.966C53.5676 275.356 50.2079 275.683 46.8492 276.009C46.4567 276.047 46.1752 276.162 45.9995 276.515C44.9022 278.708 44.7059 280.931 45.7765 283.196C46.094 283.869 46.5615 284.189 47.3588 284.08C48.8743 283.874 50.402 283.752 51.9237 283.586C53.8748 283.373 55.8228 283.136 57.776 282.946C58.2342 282.901 58.5209 282.739 58.6318 282.303C58.8517 281.439 59.0603 280.57 59.275 279.702ZM162.489 273.413C163.825 273.222 165.134 273.026 166.446 272.85C167.123 272.76 167.583 272.392 167.939 271.832C169.091 270.016 168.849 267.167 167.41 265.576C167.076 265.206 166.732 265.001 166.186 265.066C165.294 265.171 164.389 265.163 163.492 265.227C162.924 265.268 162.36 265.356 161.898 265.41C162.099 268.138 162.289 270.706 162.489 273.413Z" fill="#512473"/>
<path d="M140.081 297.723C139.693 298.486 139.173 299.188 138.674 299.889C138.523 300.102 138.232 300.215 137.856 300.478C137.858 300.457 137.859 300.439 137.86 300.419C137.361 301.21 136.851 301.998 136.254 302.685C136.504 302.715 136.769 302.713 137.052 302.671C138.445 302.466 139.843 302.263 141.217 301.964C143.473 301.473 145.055 300.062 146.089 298.052C146.823 296.625 147.522 295.169 148.099 293.673C148.591 292.399 148.979 291.101 149.293 289.786C147.22 290.04 145.096 290.274 143.031 290.382C142.271 292.888 141.295 295.337 140.081 297.723Z" fill="#AE72FF"/>
<path d="M149.307 261.551C148.276 256.766 146.69 252.189 144.16 247.96C143.172 246.31 141.918 244.94 140.444 243.745C140.185 243.534 139.84 243.303 139.53 243.296C137.729 243.253 135.923 243.064 134.132 243.488C133.822 243.561 133.525 243.649 133.243 243.761C133.766 244.168 134.22 244.664 134.632 245.211C135.1 245.58 135.593 245.924 136.009 246.343C137.462 247.805 138.556 249.528 139.487 251.354C141.916 256.112 143.444 261.163 144.335 266.416C145.021 270.457 145.291 274.524 145.061 278.617C144.834 282.655 144.18 286.584 143.028 290.382C145.094 290.274 147.217 290.041 149.291 289.786C149.869 287.366 150.196 284.89 150.442 282.408C151.137 275.404 150.792 268.44 149.307 261.551Z" fill="#AE72FF"/>
<path d="M139.35 252.832C138.594 251.163 137.571 249.606 136.574 248.059C136.071 247.279 135.347 246.64 134.727 245.934C134.562 245.746 134.409 245.547 134.251 245.354C134.334 245.271 134.417 245.189 134.5 245.106C134.544 245.142 134.588 245.177 134.632 245.211C134.22 244.666 133.766 244.169 133.243 243.762C132.551 244.035 131.956 244.448 131.516 245.125C130.939 246.014 130.312 246.874 129.79 247.793C127.136 252.475 125.795 257.581 125.037 262.861C124.826 264.324 124.738 265.803 124.585 267.365C125 267.365 125.265 267.385 125.527 267.362C127.6 267.186 129.673 267.001 131.745 266.822C133.275 266.689 134.132 267.102 134.712 268.514C135.697 270.906 135.699 273.342 134.64 275.722C134.234 276.638 133.523 277.178 132.434 277.205C131.297 277.233 130.163 277.371 129.031 277.484C127.792 277.608 126.555 277.758 125.289 277.899C125.289 278.268 125.254 278.54 125.294 278.801C125.946 283.081 126.93 287.273 128.49 291.323C129.897 294.974 131.65 298.412 134.203 301.42C134.806 302.13 135.452 302.587 136.255 302.685C136.852 302 137.362 301.211 137.86 300.42C137.882 300.118 137.864 300.002 137.908 299.928C141.309 294.331 143.198 288.233 143.947 281.758C145.11 271.69 143.526 262.044 139.35 252.832Z" fill="#AE72FF"/>
<path d="M75.3302 305.029C78.0283 300.371 79.4277 295.287 80.265 290.019C81.2216 284.003 81.2616 277.967 80.4654 271.939C79.6825 266.014 78.0129 260.352 75.0313 255.129C73.8199 253.006 72.3887 251.041 70.6955 249.273C70.567 249.139 70.4612 248.982 70.3451 248.837C70.3913 248.773 70.4366 248.709 70.4828 248.646C69.9567 248.077 69.3321 247.616 68.6601 247.228C68.4454 247.399 68.2368 247.589 68.0365 247.8C66.0206 249.913 64.7271 252.466 63.5907 255.106C62.9897 256.501 62.5201 257.953 61.916 259.584C62.4503 259.51 62.6763 259.474 62.9044 259.447C64.6921 259.231 66.4809 259.018 68.2687 258.801C69.2591 258.679 69.9383 259.109 70.3554 259.982C71.2842 261.929 72.3609 263.822 73.0956 265.84C75.6056 272.735 76.1399 279.844 74.9819 287.075C74.4785 290.222 73.6113 293.272 72.3157 296.201C71.614 297.788 70.4859 298.685 68.7731 298.913C67.4703 299.086 66.1747 299.321 64.8288 299.536C64.8832 299.731 64.9007 299.888 64.9685 300.02C66.1655 302.378 67.6245 304.547 69.4338 306.492C70.5321 307.673 71.7311 308.502 73.2147 308.643C74.0305 307.798 74.8062 306.899 75.3898 305.837C75.2614 305.902 75.1176 305.959 74.9563 306.006C75.1217 305.566 75.1885 305.276 75.3302 305.029Z" fill="#AE72FF"/>
<path d="M87.2676 288.86C88.2067 281.317 87.9036 273.806 86.344 266.364C85.2467 261.131 83.4189 256.171 80.2636 251.802C79.1663 250.283 77.8594 248.911 76.5977 247.517C75.7501 246.58 74.6127 246.072 73.3746 245.965C71.6259 245.812 70.0118 246.144 68.6587 247.227C69.3306 247.616 69.9553 248.077 70.4814 248.646C70.504 248.615 70.5255 248.585 70.5481 248.554C70.9303 248.844 71.3865 249.074 71.6814 249.435C72.8958 250.921 74.1894 252.364 75.2209 253.973C77.7022 257.844 79.2988 262.111 80.3098 266.579C82.3976 275.813 82.4921 284.972 80.3592 294.018C82.3853 293.952 84.4483 293.883 86.5001 293.737C86.8217 292.124 87.0642 290.495 87.2676 288.86Z" fill="#AE72FF"/>
<path d="M80.3602 294.016C79.9328 295.829 79.418 297.638 78.8088 299.441C78.1985 301.25 77.2666 302.954 76.4313 304.682C76.2206 305.117 75.9484 305.553 75.3894 305.836C74.8059 306.899 74.0301 307.798 73.2144 308.641C73.6572 308.684 74.1257 308.665 74.625 308.576C74.7781 308.548 74.9384 308.561 75.0956 308.556C78.257 308.461 80.8133 307.2 82.5096 304.496C83.2966 303.241 83.946 301.882 84.5131 300.51C85.4214 298.314 86.0419 296.042 86.5012 293.734C84.4484 293.881 82.3853 293.951 80.3602 294.016Z" fill="#AE72FF"/>
<path d="M61.0567 296.404C61.1482 296.136 61.1975 295.844 61.3372 295.603C64.1822 290.695 64.6743 285.378 64.0558 279.876C63.5267 275.168 62.3934 270.614 60.3879 266.303C59.9451 265.352 59.4118 264.441 58.9166 263.505C58.9916 263.427 59.0615 263.379 59.1272 263.352C58.8426 262.845 58.5077 262.359 58.2138 261.86C57.5727 262.263 57.0919 262.82 56.7107 263.542C56.5278 263.89 56.3501 264.24 56.2011 264.602C54.964 267.606 54.4174 270.762 54.0928 274.165C55.1603 274.079 56.0932 274.042 57.0148 273.919C57.9333 273.797 58.5169 274.188 58.9217 274.958C60.0745 277.154 60.5276 279.468 59.9204 281.898C59.5793 283.266 58.8056 284.241 57.1196 284.264C56.273 284.275 55.4295 284.421 54.5181 284.512C54.6188 285.112 54.6836 285.572 54.775 286.027C55.4901 289.586 56.5699 293.005 58.5087 296.117C58.9957 296.899 59.493 297.613 60.2379 297.93C60.6098 297.49 60.9458 297.027 61.2283 296.515C61.1718 296.479 61.1143 296.442 61.0567 296.404Z" fill="#AE72FF"/>
<path d="M64.6701 288.824C64.3424 290.658 63.8112 292.448 63.0067 294.174C62.6943 294.844 62.2628 295.461 61.8467 296.077C61.7142 296.273 61.4573 296.384 61.257 296.533C61.2477 296.527 61.2385 296.521 61.2292 296.516C60.9467 297.028 60.6107 297.491 60.2388 297.93C60.6241 298.095 61.0761 298.152 61.6268 298.057C61.6638 298.051 61.7039 298.067 61.7429 298.071C64.3742 298.373 66.987 298.28 69.5874 297.756C70.0087 297.67 70.3128 297.532 70.4967 297.128C70.9847 296.059 71.5683 295.028 71.9762 293.93C72.6009 292.251 73.0992 290.556 73.4804 288.848C70.5162 289.201 67.6353 288.937 64.6701 288.824Z" fill="#AE72FF"/>
<path d="M74.1494 274.821C73.5741 269.696 72.037 264.864 69.5763 260.329C69.4674 260.128 69.3194 259.95 69.1643 259.725C65.8539 259.987 62.6154 260.441 59.4283 261.336C58.968 261.465 58.5673 261.641 58.2139 261.863C58.5077 262.361 58.8427 262.847 59.1273 263.355C59.3646 263.257 59.5475 263.447 59.6769 263.647C60.1013 264.306 60.5215 264.972 60.8749 265.669C62.6801 269.239 63.7209 273.053 64.4257 276.968C64.885 279.522 65.1758 282.099 65.0905 284.699C65.0443 286.094 64.9128 287.472 64.6703 288.827C67.6355 288.939 70.5154 289.203 73.4816 288.851C74.507 284.264 74.6837 279.579 74.1494 274.821Z" fill="#AE72FF"/>
<path d="M88.9702 277.821C89.0195 278.65 89.0699 279.485 89.1223 280.338C91.2131 280.129 93.2002 279.936 95.1852 279.731C98.6209 279.376 102.056 279.007 105.492 278.657C108.968 278.304 112.446 277.969 115.922 277.624C119.633 277.255 123.343 276.884 127.054 276.514C128.851 276.335 130.648 276.163 132.445 275.976C132.955 275.922 133.428 275.85 133.689 275.266C133.892 274.813 134.048 274.359 134.166 273.905L88.9702 277.821Z" fill="#512473"/>
<path d="M133.782 268.749C133.484 267.994 132.92 267.558 132.02 267.749C131.638 267.829 131.238 267.81 130.847 267.85C126.631 268.287 122.415 268.736 118.197 269.163C113.94 269.595 109.68 270.001 105.421 270.425C100.851 270.88 96.2813 271.343 91.7122 271.807C90.6786 271.912 89.6471 272.042 88.6289 272.159C88.745 274.079 88.856 275.93 88.97 277.819L134.165 273.905C134.61 272.189 134.461 270.469 133.782 268.749Z" fill="#512473"/>
<path d="M151.816 280.977C151.653 283.14 151.398 285.317 151.056 287.512C152.855 287.037 154.444 286.647 156.015 286.193C157.032 285.901 157.846 285.301 158.281 284.291C158.914 282.817 159.707 281.387 160.128 279.855C160.172 279.699 160.213 279.544 160.253 279.388C157.586 280.331 154.646 280.643 151.816 280.977Z" fill="#AE72FF"/>
<path d="M160.252 264.025C159.766 261.985 158.976 260.083 157.893 258.283C156.33 255.688 153.819 254.591 151.068 253.898C150.227 253.687 149.318 253.742 148.335 253.667C151.508 262.625 152.519 271.664 151.817 280.977C154.647 280.642 157.587 280.331 160.254 279.387C161.565 274.292 161.475 269.157 160.252 264.025Z" fill="#AE72FF"/>
<path d="M58.1429 275.586C57.8686 275.078 57.5521 274.895 56.9202 274.968C53.5893 275.355 50.2522 275.68 46.915 276.004C47.1041 276.205 47.2798 276.417 47.4103 276.658C47.7401 276.927 47.9517 277.029 48.0329 277.192C48.7131 278.556 48.8014 279.941 48.5096 281.326L59.1015 280.409C59.159 280.174 59.2166 279.938 59.2751 279.703C59.0665 278.244 58.8313 276.863 58.1429 275.586Z" fill="#512473"/>
<path d="M47.4039 282.267C47.5991 281.595 47.8508 280.928 47.9474 280.241C48.0789 279.308 48.0296 278.37 47.558 277.501C47.4604 277.321 47.4645 277.086 47.371 276.626C47.3844 276.637 47.3967 276.646 47.4101 276.657C47.2796 276.417 47.1039 276.204 46.9148 276.004C46.8932 276.006 46.8706 276.008 46.8491 276.01C46.4566 276.048 46.1751 276.163 45.9994 276.516C44.9021 278.709 44.7058 280.932 45.7764 283.197C45.984 283.637 46.2562 283.924 46.6415 284.042C46.8963 283.693 47.1779 283.352 47.4142 282.986C47.1511 282.832 47.3279 282.527 47.4039 282.267Z" fill="#1F0433"/>
<path d="M48.5095 281.326C48.4171 281.764 48.2876 282.203 48.1253 282.642C48.0554 282.832 47.6876 283.084 47.5376 283.039C47.4872 283.025 47.4472 283.007 47.4133 282.987C47.1769 283.353 46.8954 283.694 46.6406 284.042C46.8451 284.105 47.0814 284.119 47.3578 284.082C48.8732 283.877 50.4011 283.755 51.9227 283.588C53.8738 283.375 55.8218 283.138 57.775 282.948C58.2332 282.904 58.5199 282.741 58.6308 282.306C58.7921 281.675 58.9463 281.042 59.1014 280.409L48.5095 281.326Z" fill="#512473"/>
<path d="M167.41 265.576C167.076 265.206 166.732 265.002 166.186 265.067C165.294 265.171 164.389 265.163 163.492 265.228C162.924 265.269 162.36 265.356 161.897 265.411C162.051 267.478 162.196 269.453 162.345 271.465L168.366 270.943C168.989 269.182 168.631 266.926 167.41 265.576Z" fill="#512473"/>
<path d="M162.346 271.464C162.393 272.109 162.441 272.756 162.49 273.412C163.825 273.221 165.134 273.025 166.446 272.849C167.123 272.759 167.584 272.391 167.939 271.831C168.114 271.556 168.256 271.257 168.367 270.942L162.346 271.464Z" fill="#512473"/>
<path d="M134.5 245.104C135.006 245.514 135.554 245.883 136.01 246.343C137.463 247.805 138.557 249.528 139.488 251.353C141.917 256.111 143.445 261.162 144.337 266.416C145.022 270.457 145.292 274.523 145.062 278.616C144.686 285.317 143.135 291.72 140.081 297.723C139.693 298.486 139.173 299.188 138.674 299.888C138.522 300.101 138.232 300.214 137.856 300.477C137.885 300.129 137.86 300.006 137.908 299.927C141.309 294.33 143.198 288.232 143.947 281.757C145.111 271.688 143.527 262.043 139.352 252.831C138.595 251.162 137.573 249.605 136.575 248.058C136.072 247.278 135.349 246.638 134.728 245.933C134.564 245.745 134.411 245.546 134.252 245.353C134.335 245.27 134.417 245.187 134.5 245.104Z" fill="#512473"/>
<path d="M70.5491 248.554C70.9313 248.844 71.3875 249.074 71.6824 249.435C72.8968 250.921 74.1904 252.364 75.2219 253.973C77.7032 257.844 79.2998 262.111 80.3108 266.579C82.8167 277.664 82.4541 288.642 78.8087 299.443C78.1984 301.252 77.2665 302.956 76.4312 304.684C76.1723 305.219 75.8199 305.755 74.9568 306.007C75.1223 305.568 75.188 305.278 75.3308 305.032C78.0289 300.374 79.4283 295.29 80.2656 290.022C81.2222 284.005 81.2622 277.97 80.466 271.942C79.683 266.017 78.0135 260.355 75.0318 255.131C73.8205 253.009 72.3893 251.044 70.6961 249.276C70.5676 249.141 70.4618 248.985 70.3457 248.839C70.4125 248.742 70.4813 248.648 70.5491 248.554Z" fill="#512473"/>
<path d="M61.0567 296.404C61.1481 296.136 61.1974 295.844 61.3372 295.604C64.1821 290.696 64.6743 285.379 64.0557 279.877C63.5266 275.168 62.3934 270.615 60.3878 266.303C59.945 265.352 59.4117 264.442 58.9165 263.506C59.2607 263.148 59.5114 263.39 59.6768 263.645C60.1011 264.304 60.5214 264.97 60.8748 265.667C62.68 269.237 63.7208 273.051 64.4256 276.966C64.8849 279.52 65.1757 282.097 65.0904 284.697C64.9815 287.979 64.4061 291.175 63.0067 294.174C62.6944 294.844 62.2629 295.461 61.8468 296.077C61.7142 296.273 61.4574 296.384 61.257 296.533C61.1902 296.492 61.1234 296.447 61.0567 296.404Z" fill="#512473"/>
<path d="M47.3703 276.626C47.7237 276.921 47.9477 277.022 48.033 277.191C48.9279 278.988 48.7994 280.819 48.1254 282.642C48.0556 282.832 47.6877 283.083 47.5377 283.039C47.1021 282.912 47.3189 282.56 47.4042 282.267C47.5994 281.595 47.8511 280.928 47.9477 280.24C48.0792 279.308 48.0299 278.37 47.5583 277.5C47.4607 277.322 47.4648 277.086 47.3703 276.626Z" fill="#512473"/>
</svg>
