<svg width="120" height="70" viewBox="0 0 120 70" fill="none" xmlns="http://www.w3.org/2000/svg">
<g clip-path="url(#clip0_11297_2174)">
<mask id="mask0_11297_2174" style="mask-type:luminance" maskUnits="userSpaceOnUse" x="0" y="0" width="120" height="70">
<path d="M0 0H120V70H0V0Z" fill="white"/>
</mask>
<g mask="url(#mask0_11297_2174)">
<path d="M60.68 67.9902C76.3061 67.9902 88.9722 55.244 88.9722 39.5211C88.9722 23.7983 76.3052 11.0513 60.68 11.0513C45.0548 11.0513 32.3878 23.7983 32.3878 39.5211C32.3878 55.244 45.0548 67.9902 60.68 67.9902Z" fill="#FBF9FF"/>
<path opacity="0.49" d="M14.566 42.4332C14.566 41.1282 15.0812 39.8767 15.9981 38.9538C16.9151 38.031 18.1587 37.5124 19.4556 37.5122H100.543C101.84 37.5122 103.084 38.0307 104.001 38.9535C104.919 39.8764 105.434 41.1281 105.434 42.4332V56.0368C105.434 57.3418 104.918 58.5933 104.001 59.5159C103.084 60.4386 101.84 60.957 100.543 60.957H19.4565C18.8143 60.9571 18.1784 60.8299 17.5851 60.5827C16.9917 60.3355 16.4526 59.9731 15.9985 59.5162C15.5443 59.0593 15.1841 58.5169 14.9383 57.9199C14.6925 57.3229 14.566 56.683 14.566 56.0368V42.4332Z" fill="#ECE2FF"/>
<path opacity="0.49" d="M21.2234 60.9561H99.1095V65.0791C99.1093 66.3839 98.5941 67.6352 97.6772 68.5579C96.7602 69.4805 95.5167 69.9989 94.22 69.9992H26.113C24.8163 69.9989 23.5727 69.4805 22.6558 68.5579C21.7389 67.6352 21.2237 66.3839 21.2234 65.0791V60.9561Z" fill="#F6F2FF"/>
<g filter="url(#filter0_d_11297_2174)">
<path d="M9.24084 31.1177C9.24084 29.5272 9.86877 28.0017 10.9865 26.877C12.1042 25.7523 13.6202 25.1205 15.2008 25.1205H104.8C105.583 25.1205 106.358 25.2756 107.081 25.577C107.804 25.8784 108.461 26.3202 109.014 26.8771C109.567 27.434 110.006 28.0951 110.306 28.8228C110.605 29.5504 110.759 30.3302 110.759 31.1177V45.2481C110.759 46.8384 110.131 48.3636 109.014 49.4882C107.896 50.6127 106.38 51.2445 104.8 51.2445H15.2C13.6196 51.2443 12.104 50.6124 10.9865 49.4879C9.86898 48.3634 9.24108 46.8384 9.24084 45.2481V31.1177Z" fill="white"/>
</g>
<mask id="mask1_11297_2174" style="mask-type:luminance" maskUnits="userSpaceOnUse" x="13" y="28" width="21" height="20">
<path d="M28.8539 28.8033H18.2095C15.8295 28.8033 13.9008 30.7152 13.9008 33.0733V43.6223C13.9008 45.9805 15.8295 47.8923 18.2095 47.8923H28.8539C31.2339 47.8923 33.1626 45.9805 33.1626 43.6223V33.0733C33.1626 30.7152 31.2339 28.8033 28.8539 28.8033Z" fill="white"/>
</mask>
<g mask="url(#mask1_11297_2174)">
<path d="M28.8546 28.8033H18.2085C15.8294 28.8033 13.8998 30.7152 13.8998 33.0733V43.6223C13.8998 45.9805 15.8294 47.8923 18.2085 47.8923H28.8538C31.2329 47.8923 33.1625 45.9805 33.1625 43.6223V33.0733C33.1625 30.7152 31.2338 28.8033 28.8546 28.8033Z" fill="#E2D2FF"/>
<path d="M33.1634 28.8033H13.9008V47.8923H33.1634V28.8033Z" fill="#E2D2FF"/>
<path d="M19.42 37.9751L20.58 36.8087L23.7678 40.0174L25.7974 37.9751L27.5365 39.7251V34.4165H19.42V37.9751ZM19.42 39.6254V42.5829H21.2174L22.9478 40.8416L20.58 38.459L19.42 39.6254ZM22.8574 42.5829H27.5356V41.3754L25.7965 39.6254L22.8574 42.5829ZM18.84 33.2501H28.1156C28.4365 33.2501 28.6956 33.5109 28.6956 33.8337V43.1665C28.6956 43.2431 28.6806 43.319 28.6515 43.3898C28.6223 43.4606 28.5796 43.525 28.5258 43.5792C28.4719 43.6334 28.408 43.6764 28.3376 43.7057C28.2672 43.735 28.1918 43.7501 28.1156 43.7501H18.8409C18.687 43.7501 18.5395 43.6886 18.4307 43.5792C18.322 43.4697 18.2609 43.3213 18.2609 43.1665V33.8337C18.2609 33.5109 18.52 33.2501 18.84 33.2501ZM25.5078 37.3337C25.2772 37.3337 25.056 37.2416 24.8929 37.0775C24.7299 36.9134 24.6383 36.6908 24.6383 36.4587C24.6383 36.2267 24.7299 36.0041 24.8929 35.84C25.056 35.6759 25.2772 35.5837 25.5078 35.5837C25.7384 35.5837 25.9596 35.6759 26.1227 35.84C26.2858 36.0041 26.3774 36.2267 26.3774 36.4587C26.3774 36.6908 26.2858 36.9134 26.1227 37.0775C25.9596 37.2416 25.7384 37.3337 25.5078 37.3337Z" fill="#F0E7FF"/>
</g>
<path opacity="0.49" d="M55.8391 32.1528H39.5304C38.7956 32.1528 38.2 32.7531 38.2 33.4925V36.1717C38.2 36.912 38.7956 37.5122 39.5304 37.5122H55.84C56.5756 37.5122 57.1713 36.912 57.1713 36.1717V33.4925C57.1713 32.7531 56.5756 32.1537 55.8408 32.1537M87.46 39.5221H39.5295C38.7947 39.5221 38.1991 40.1215 38.1991 40.8617V43.541C38.1991 44.2812 38.7947 44.8806 39.5295 44.8806H87.46C87.6348 44.8807 87.8078 44.8462 87.9694 44.7789C88.1309 44.7117 88.2777 44.6131 88.4013 44.4888C88.5249 44.3645 88.623 44.2168 88.6899 44.0544C88.7568 43.8919 88.7913 43.7177 88.7913 43.5418V40.8617C88.7914 40.6858 88.757 40.5115 88.6902 40.3489C88.6233 40.1863 88.5252 40.0386 88.4016 39.9142C88.278 39.7898 88.1311 39.6911 87.9696 39.6238C87.808 39.5565 87.6348 39.522 87.46 39.5221Z" fill="#E2D2FF"/>
<path d="M58.7391 1.72906C58.8846 1.5301 59.0745 1.36834 59.2935 1.25685C59.5125 1.14537 59.7545 1.08728 60 1.08728C60.2455 1.08728 60.4875 1.14537 60.7065 1.25685C60.9255 1.36834 61.1154 1.5301 61.2609 1.72906L62.3174 3.17544C62.4866 3.40733 62.7157 3.58817 62.9798 3.6983C63.244 3.80844 63.533 3.84368 63.8157 3.80019L65.5791 3.52894C65.8219 3.4915 66.07 3.51208 66.3034 3.58902C66.5369 3.66596 66.749 3.79708 66.9227 3.9718C67.0964 4.14652 67.2268 4.35992 67.3034 4.59475C67.38 4.82958 67.4006 5.07925 67.3635 5.32356L67.093 7.09806C67.0498 7.38245 67.0848 7.67332 67.1943 7.9391C67.3037 8.20488 67.4835 8.43541 67.7139 8.60569L69.1513 9.66794C69.3494 9.81424 69.5104 10.0054 69.6214 10.226C69.7324 10.4466 69.7903 10.6903 69.7903 10.9376C69.7903 11.1848 69.7324 11.4286 69.6214 11.6491C69.5104 11.8697 69.3494 12.0609 69.1513 12.2072L67.7139 13.2694C67.4835 13.4397 67.3037 13.6702 67.1943 13.936C67.0848 14.2018 67.0498 14.4927 67.093 14.7771L67.3626 16.5516C67.3998 16.7959 67.3794 17.0455 67.3029 17.2804C67.2264 17.5153 67.0961 17.7287 66.9225 17.9035C66.7489 18.0783 66.5368 18.2096 66.3034 18.2866C66.07 18.3637 65.8219 18.3844 65.5791 18.3471L63.8157 18.0749C63.533 18.0314 63.244 18.0667 62.9798 18.1768C62.7157 18.287 62.4866 18.4678 62.3174 18.6997L61.2617 20.1461C61.1163 20.3454 60.9264 20.5074 60.7072 20.6191C60.488 20.7308 60.2457 20.789 60 20.789C59.7543 20.789 59.512 20.7308 59.2928 20.6191C59.0736 20.5074 58.8837 20.3454 58.7383 20.1461L57.6826 18.6997C57.5134 18.4678 57.2843 18.287 57.0202 18.1768C56.756 18.0667 56.467 18.0314 56.1843 18.0749L54.4209 18.3462C54.1781 18.3836 53.93 18.363 53.6966 18.2861C53.4631 18.2092 53.251 18.078 53.0773 17.9033C52.9036 17.7286 52.7732 17.5152 52.6966 17.2804C52.62 17.0455 52.5994 16.7959 52.6365 16.5516L52.907 14.7771C52.9502 14.4927 52.9152 14.2018 52.8057 13.936C52.6963 13.6702 52.5165 13.4397 52.2861 13.2694L50.8487 12.2072C50.6506 12.0609 50.4896 11.8697 50.3786 11.6491C50.2676 11.4286 50.2097 11.1848 50.2097 10.9376C50.2097 10.6903 50.2676 10.4466 50.3786 10.226C50.4896 10.0054 50.6506 9.81424 50.8487 9.66794L52.2861 8.60569C52.5165 8.43541 52.6963 8.20488 52.8057 7.9391C52.9152 7.67332 52.9502 7.38245 52.907 7.09806L52.6374 5.32356C52.6003 5.07933 52.6209 4.82975 52.6974 4.595C52.774 4.36025 52.9043 4.14691 53.0779 3.97221C53.2515 3.79751 53.4635 3.66636 53.6968 3.58936C53.9301 3.51235 54.1782 3.49166 54.4209 3.52894L56.1843 3.80019C56.467 3.84368 56.756 3.80844 57.0202 3.6983C57.2843 3.58817 57.5134 3.40733 57.6826 3.17544L58.7391 1.72906Z" fill="#AE72FF"/>
<path fill-rule="evenodd" clip-rule="evenodd" d="M60.0782 6.68945C60.0167 6.68922 59.9557 6.70123 59.8988 6.7248C59.8419 6.74836 59.7902 6.78301 59.7466 6.82676C59.703 6.87051 59.6685 6.92249 59.645 6.97971C59.6215 7.03694 59.6094 7.09827 59.6095 7.1602C59.6095 7.68958 59.7756 8.20233 60.0773 8.62758C60.3807 8.19908 60.5442 7.6863 60.5452 7.1602C60.5453 7.09842 60.5333 7.03723 60.5099 6.98012C60.4865 6.92301 60.4521 6.87111 60.4087 6.82738C60.3653 6.78366 60.3138 6.74897 60.2571 6.7253C60.2004 6.70163 60.1396 6.68945 60.0782 6.68945ZM60.7008 9.30308C61.1847 8.69496 61.4484 7.93922 61.4487 7.1602C61.4505 6.97859 61.4163 6.79843 61.3481 6.63027C61.2799 6.46212 61.179 6.30935 61.0514 6.18093C60.9238 6.0525 60.772 5.95099 60.6049 5.88236C60.4377 5.81372 60.2587 5.77933 60.0782 5.7812C59.32 5.7812 58.7069 6.39808 58.7069 7.1602C58.7069 7.92233 58.9739 8.69845 59.4547 9.30395L58.5313 10.2315C57.9265 9.74499 57.1751 9.48022 56.4008 9.4807C56.2204 9.47895 56.0415 9.51342 55.8745 9.58211C55.7075 9.6508 55.5557 9.75233 55.4282 9.88074C55.3007 10.0092 55.1999 10.1619 55.1317 10.33C55.0636 10.4981 55.0294 10.6782 55.0313 10.8597C55.0313 11.6218 55.6443 12.2387 56.4017 12.2387C57.1591 12.2387 57.9304 11.971 58.5313 11.4871L59.4539 12.4163C58.9703 13.0246 58.7069 13.7803 58.7069 14.5592C58.7051 14.7408 58.7392 14.921 58.8074 15.0891C58.8757 15.2573 58.9765 15.41 59.1042 15.5385C59.2318 15.6669 59.3836 15.7684 59.5507 15.837C59.7178 15.9057 59.8969 15.9401 60.0773 15.9382C60.8356 15.9382 61.4478 15.3213 61.4478 14.5592C61.4478 13.7971 61.1817 13.021 60.7008 12.4155L61.6243 11.4871C62.2288 11.9737 62.9798 12.2387 63.7539 12.2387C63.9344 12.2406 64.1134 12.2062 64.2805 12.1375C64.4476 12.0689 64.5994 11.9674 64.7271 11.839C64.8547 11.7105 64.9556 11.5578 65.0238 11.3896C65.092 11.2215 65.1262 11.0413 65.1243 10.8597C65.1243 10.0976 64.5113 9.4807 63.7539 9.4807C62.9965 9.4807 62.2252 9.74845 61.6243 10.2323L60.7008 9.30308ZM60.0782 9.96108L59.1843 10.8597L60.0782 11.7592L60.9713 10.8606L60.0782 9.96108ZM62.2956 10.8597C62.7214 11.1649 63.231 11.3294 63.7539 11.3305C64.013 11.3305 64.2217 11.1205 64.2217 10.8597C64.2218 10.7978 64.2098 10.7366 64.1863 10.6794C64.1628 10.6223 64.1284 10.5703 64.0849 10.5266C64.0415 10.4828 63.9898 10.4482 63.933 10.4245C63.8762 10.4009 63.8153 10.3888 63.7539 10.389C63.2278 10.389 62.7182 10.5552 62.2956 10.8597ZM60.0791 13.0918C59.7754 13.5202 59.6116 14.033 59.6104 14.5592C59.6104 14.8199 59.8191 15.0299 60.0782 15.0299C60.3373 15.0299 60.546 14.8199 60.546 14.5592C60.546 14.0298 60.3808 13.5171 60.0791 13.0918ZM57.86 10.8597C57.4344 10.5546 56.9251 10.3901 56.4026 10.389C56.3411 10.3888 56.2802 10.4009 56.2234 10.4245C56.1666 10.4482 56.115 10.4828 56.0715 10.5266C56.028 10.5703 55.9936 10.6223 55.9701 10.6794C55.9466 10.7366 55.9346 10.7978 55.9347 10.8597C55.9347 11.1205 56.1434 11.3305 56.4026 11.3305C56.9287 11.3305 57.4373 11.1642 57.86 10.8597Z" fill="#FBF9FF"/>
</g>
</g>
<defs>
<filter id="filter0_d_11297_2174" x="-1.05515" y="16.5275" width="122.11" height="46.716" filterUnits="userSpaceOnUse" color-interpolation-filters="sRGB">
<feFlood flood-opacity="0" result="BackgroundImageFix"/>
<feColorMatrix in="SourceAlpha" type="matrix" values="0 0 0 0 0 0 0 0 0 0 0 0 0 0 0 0 0 0 127 0" result="hardAlpha"/>
<feOffset dy="1.703"/>
<feGaussianBlur stdDeviation="5.148"/>
<feComposite in2="hardAlpha" operator="out"/>
<feColorMatrix type="matrix" values="0 0 0 0 0.823529 0 0 0 0 0.721569 0 0 0 0 1 0 0 0 0.4 0"/>
<feBlend mode="normal" in2="BackgroundImageFix" result="effect1_dropShadow_11297_2174"/>
<feBlend mode="normal" in="SourceGraphic" in2="effect1_dropShadow_11297_2174" result="shape"/>
</filter>
<clipPath id="clip0_11297_2174">
<rect width="120" height="70" fill="white"/>
</clipPath>
</defs>
</svg>
