<svg width="120" height="69" viewBox="0 0 120 69" fill="none" xmlns="http://www.w3.org/2000/svg">
<g clip-path="url(#clip0_11297_2181)">
<mask id="mask0_11297_2181" style="mask-type:luminance" maskUnits="userSpaceOnUse" x="0" y="0" width="120" height="69">
<path d="M120 0H0V69H120V0Z" fill="white"/>
</mask>
<g mask="url(#mask0_11297_2181)">
<path d="M60.6802 67.0187C76.3055 67.0187 88.9722 54.4548 88.9722 38.9567C88.9722 23.4584 76.3055 10.8945 60.6802 10.8945C45.0547 10.8945 32.3879 23.4584 32.3879 38.9567C32.3879 54.4548 45.0547 67.0187 60.6802 67.0187Z" fill="#FBF9FF"/>
<path opacity="0.49" d="M14.5662 41.8261C14.5662 39.1475 16.7555 36.9758 19.4561 36.9758H100.544C103.245 36.9758 105.434 39.1475 105.434 41.8261V55.2357C105.434 57.9144 103.245 60.0861 100.544 60.0861H19.4561C16.7555 60.0861 14.5662 57.9144 14.5662 55.2357V41.8261Z" fill="#ECE2FF"/>
<path opacity="0.49" d="M21.2233 60.0861H99.1098V64.1496C99.1098 66.8283 96.9202 68.9999 94.2199 68.9999H26.1133C23.4127 68.9999 21.2233 66.8283 21.2233 64.1496V60.0861Z" fill="#F6F2FF"/>
<g filter="url(#filter0_d_11297_2181)">
<path d="M9.24103 30.672C9.24103 27.4072 11.9092 24.7607 15.2007 24.7607H104.8C108.091 24.7607 110.759 27.4072 110.759 30.672V44.6007C110.759 47.8653 108.091 50.5119 104.8 50.5119H15.2007C11.9092 50.5119 9.24103 47.8654 9.24103 44.6007V30.672Z" fill="white"/>
</g>
<mask id="mask1_11297_2181" style="mask-type:luminance" maskUnits="userSpaceOnUse" x="13" y="28" width="21" height="20">
<path d="M28.8542 28.3922H18.2093C15.8297 28.3922 13.9006 30.2766 13.9006 32.6011V42.9995C13.9006 45.324 15.8297 47.2084 18.2093 47.2084H28.8542C31.2338 47.2084 33.1628 45.324 33.1628 42.9995V32.6011C33.1628 30.2766 31.2338 28.3922 28.8542 28.3922Z" fill="white"/>
</mask>
<g mask="url(#mask1_11297_2181)">
<path d="M28.8547 28.3922H18.2099C15.8302 28.3922 13.9012 30.2766 13.9012 32.6011V42.9995C13.9012 45.324 15.8302 47.2084 18.2099 47.2084H28.8547C31.2343 47.2084 33.1633 45.324 33.1633 42.9995V32.6011C33.1633 30.2766 31.2343 28.3922 28.8547 28.3922Z" fill="#E2D2FF"/>
<path d="M33.1633 28.3922H13.9012V47.2084H33.1633V28.3922Z" fill="#E2D2FF"/>
<path d="M20.9242 41.4239L21.3141 41.6499C21.9657 42.0276 22.7061 42.2292 23.4788 42.2292C25.8564 42.2292 27.7837 40.3134 27.7837 37.9502C27.7837 35.5869 25.8564 33.6711 23.4788 33.6711C21.1013 33.6711 19.1738 35.5869 19.1738 37.9502C19.1738 38.7184 19.3769 39.4547 19.757 40.1024L19.9843 40.4897L19.6326 41.7743L20.9242 41.4239ZM18.0999 43.299L18.8274 40.6414C18.3634 39.8509 18.0976 38.9314 18.0976 37.9502C18.0976 34.996 20.5069 32.6013 23.4788 32.6013C26.4507 32.6013 28.86 34.996 28.86 37.9502C28.86 40.9042 26.4507 43.299 23.4788 43.299C22.492 43.299 21.5672 43.035 20.772 42.5741L18.0999 43.299ZM21.5369 35.4406C21.609 35.4356 21.6812 35.4349 21.7534 35.4383C21.7825 35.4403 21.8115 35.4436 21.8406 35.447C21.9262 35.4568 22.0205 35.5086 22.0522 35.58C22.2127 35.9419 22.3685 36.3057 22.5195 36.6716C22.5528 36.7523 22.5327 36.857 22.4693 36.9583C22.4371 37.0103 22.3865 37.0831 22.328 37.1576C22.2672 37.235 22.1362 37.3774 22.1362 37.3774C22.1362 37.3774 22.0831 37.4406 22.1031 37.5193C22.1109 37.549 22.1358 37.5923 22.1583 37.6287C22.1708 37.6489 22.1824 37.6669 22.1899 37.6794C22.3276 37.908 22.5127 38.1397 22.7389 38.3575C22.8036 38.4199 22.8665 38.4836 22.9341 38.5428C23.1861 38.7637 23.4712 38.9441 23.7791 39.0778L23.7818 39.079C23.8273 39.0985 23.8507 39.1091 23.9172 39.1372C23.9508 39.1513 23.9851 39.1635 24.0204 39.1728C24.0331 39.1761 24.0462 39.178 24.0593 39.1789C24.1463 39.1841 24.1967 39.1286 24.2181 39.1031C24.6075 38.6343 24.6431 38.6037 24.6458 38.6039V38.6047C24.6969 38.5512 24.7774 38.5325 24.8492 38.5369C24.882 38.5389 24.9146 38.5452 24.9444 38.5587C25.2305 38.6885 25.6984 38.8909 25.6984 38.8909L26.0114 39.0307C26.0638 39.0558 26.1116 39.115 26.1139 39.1726C26.1153 39.2084 26.1192 39.2661 26.1063 39.3718C26.0895 39.5102 26.0471 39.6768 26.0051 39.7641C25.9755 39.8254 25.9371 39.8797 25.8926 39.9257C25.8322 39.9881 25.7873 40.0259 25.7146 40.0797C25.6704 40.1125 25.6475 40.1279 25.6475 40.1279C25.5727 40.1747 25.5306 40.1982 25.4415 40.2453C25.303 40.3186 25.15 40.3608 24.9932 40.3688C24.8933 40.3739 24.7936 40.381 24.6938 40.3757C24.6894 40.3754 24.3881 40.3294 24.3881 40.3294C23.6229 40.1294 22.9153 39.7546 22.3215 39.2349C22.2001 39.1287 22.0875 39.0138 21.9726 38.9001C21.4941 38.4266 21.132 37.9161 20.9124 37.4332C20.8041 37.1951 20.7355 36.9401 20.7344 36.6777C20.7324 36.353 20.8394 36.037 21.0383 35.7795C21.0775 35.7288 21.1147 35.6761 21.179 35.6159C21.2469 35.552 21.2902 35.5177 21.3368 35.494C21.399 35.4624 21.4673 35.4455 21.5369 35.4406Z" fill="#F8F5FF"/>
</g>
<path opacity="0.49" d="M55.8393 31.6938H39.5298C38.7945 31.6938 38.1984 32.2851 38.1984 33.0144V35.6556C38.1984 36.3849 38.7945 36.9761 39.5298 36.9761H55.8393C56.5749 36.9761 57.1706 36.3849 57.1706 35.6556V33.0144C57.1706 32.2851 56.5749 31.6938 55.8393 31.6938Z" fill="#E2D2FF"/>
<path opacity="0.49" d="M87.4601 38.9572H39.5298C38.7945 38.9572 38.1984 39.5484 38.1984 40.2777V42.9189C38.1984 43.6482 38.7945 44.2395 39.5298 44.2395H87.4601C88.1952 44.2395 88.7914 43.6482 88.7914 42.9189V40.2777C88.7914 39.5484 88.1952 38.9572 87.4601 38.9572Z" fill="#E2D2FF"/>
<path d="M55.8259 1.9116C56.428 1.09653 57.6528 1.09653 58.2549 1.9116L59.35 3.39429C59.682 3.8439 60.2384 4.07281 60.7927 3.98831L62.6223 3.70967C63.6275 3.55649 64.4938 4.41742 64.3394 5.41693L64.059 7.23511C63.9746 7.78646 64.2043 8.33911 64.6569 8.66924L66.1486 9.75783C66.9686 10.3563 66.9686 11.5738 66.1486 12.1723L64.6569 13.2609C64.2043 13.591 63.9746 14.1437 64.059 14.695L64.3394 16.5132C64.4938 17.5127 63.6275 18.3736 62.6223 18.2204L60.7927 17.9418C60.2384 17.8573 59.682 18.0862 59.35 18.5359L58.2549 20.0185C57.6528 20.8336 56.428 20.8336 55.8259 20.0185L54.7308 18.5359C54.3988 18.0862 53.8424 17.8573 53.2879 17.9418L51.4587 18.2204C50.4532 18.3736 49.587 17.5127 49.7412 16.5132L50.0215 14.695C50.1065 14.1437 49.8762 13.591 49.4238 13.2609L47.9322 12.1723C47.1122 11.5738 47.1122 10.3563 47.9322 9.75783L49.4238 8.66924C49.8762 8.33911 50.1065 7.78646 50.0215 7.23511L49.7412 5.41693C49.587 4.41742 50.4532 3.55649 51.4587 3.70967L53.2879 3.98831C53.8424 4.07281 54.3988 3.8439 54.7308 3.39429L55.8259 1.9116Z" fill="#AE72FF"/>
<path fill-rule="evenodd" clip-rule="evenodd" d="M57.1173 6.81064C56.8607 6.81064 56.654 7.01583 56.654 7.27113C56.654 7.78863 56.8187 8.29003 57.1173 8.7059C57.4165 8.29003 57.5807 7.78814 57.5807 7.27113C57.5807 7.01583 57.374 6.81064 57.1173 6.81064ZM57.7346 9.36691C58.2108 8.7749 58.4745 8.03612 58.4745 7.27113C58.4745 6.50608 57.868 5.92236 57.1173 5.92236C56.3667 5.92236 55.7608 6.52544 55.7608 7.27113C55.7608 8.01681 56.0244 8.77538 56.5001 9.36691L55.5859 10.2755C54.9902 9.80209 54.247 9.54037 53.4775 9.54037C52.7079 9.54037 52.1206 10.1435 52.1206 10.8891C52.1206 11.6348 52.7273 12.2379 53.4775 12.2379C54.2277 12.2379 54.9907 11.9757 55.5859 11.5028L56.5001 12.4113C56.0239 13.0034 55.7608 13.7421 55.7608 14.5071C55.7608 15.2721 56.3672 15.8559 57.1173 15.8559C57.8675 15.8559 58.4745 15.2528 58.4745 14.5071C58.4745 13.7615 58.2108 13.0029 57.7346 12.4113L58.6488 11.5028C59.2445 11.9761 59.9877 12.2379 60.7572 12.2379C61.5267 12.2379 62.1143 11.6348 62.1143 10.8891C62.1143 10.1435 61.5073 9.54037 60.7572 9.54037C60.007 9.54037 59.244 9.80257 58.6488 10.2755L57.7346 9.36691ZM57.1173 10.0101L56.2327 10.8896L57.1173 11.7691L58.0025 10.8896L57.1173 10.0101ZM59.3139 10.8891C59.732 11.1863 60.2373 11.3496 60.7572 11.3496C61.0144 11.3496 61.2205 11.1444 61.2205 10.8891C61.2205 10.6338 61.0144 10.4287 60.7572 10.4287C60.2368 10.4287 59.732 10.592 59.3139 10.8891ZM57.1173 13.0724C56.8187 13.4882 56.654 13.9901 56.654 14.5071C56.654 14.7624 56.8607 14.9676 57.1173 14.9676C57.374 14.9676 57.5807 14.7624 57.5807 14.5071C57.5807 13.9896 57.4165 13.4882 57.1173 13.0724ZM54.9207 10.8891C54.5026 10.592 53.9979 10.4287 53.4775 10.4287C53.2207 10.4287 53.0143 10.6338 53.0143 10.8891C53.0143 11.1444 53.2207 11.3496 53.4775 11.3496C53.9984 11.3496 54.5026 11.1863 54.9207 10.8891Z" fill="#FBF9FF"/>
</g>
</g>
<defs>
<filter id="filter0_d_11297_2181" x="-1.05561" y="16.167" width="122.112" height="46.3444" filterUnits="userSpaceOnUse" color-interpolation-filters="sRGB">
<feFlood flood-opacity="0" result="BackgroundImageFix"/>
<feColorMatrix in="SourceAlpha" type="matrix" values="0 0 0 0 0 0 0 0 0 0 0 0 0 0 0 0 0 0 127 0" result="hardAlpha"/>
<feOffset dy="1.70292"/>
<feGaussianBlur stdDeviation="5.14832"/>
<feComposite in2="hardAlpha" operator="out"/>
<feColorMatrix type="matrix" values="0 0 0 0 0.823529 0 0 0 0 0.721569 0 0 0 0 1 0 0 0 0.4 0"/>
<feBlend mode="normal" in2="BackgroundImageFix" result="effect1_dropShadow_11297_2181"/>
<feBlend mode="normal" in="SourceGraphic" in2="effect1_dropShadow_11297_2181" result="shape"/>
</filter>
<clipPath id="clip0_11297_2181">
<rect width="120" height="69" fill="white"/>
</clipPath>
</defs>
</svg>
