<svg width="50" height="50" viewBox="0 0 50 50" fill="none" xmlns="http://www.w3.org/2000/svg">
<path d="M29.9684 47.3399C26.7519 49.7509 22.3963 49.7509 19.1797 47.3399L3.78369 35.7999C0.567122 33.3889 -0.778819 29.1154 0.449802 25.2144L6.33056 6.54222C7.55919 2.64119 11.0829 7.40763e-09 15.0588 6.63396e-09L34.0894 2.93082e-09C38.0653 2.15716e-09 41.589 2.64119 42.8176 6.54222L48.6984 25.2144C49.927 29.1154 48.581 33.3889 45.3645 35.7999L29.9684 47.3399Z" fill="url(#paint0_linear_1265_17042)"/>
<g filter="url(#filter0_d_1265_17042)">
<path d="M28.8549 42.717C26.3024 44.6532 22.8462 44.6532 20.2938 42.717L8.07672 33.4494C5.5243 31.5132 4.45627 28.0812 5.43121 24.9484L10.0977 9.95315C11.0726 6.82031 13.8688 4.69922 17.0238 4.69922L32.1249 4.69922C35.2798 4.69922 38.076 6.82031 39.0509 9.95315L43.7174 24.9484C44.6924 28.0813 43.6243 31.5132 41.0719 33.4494L28.8549 42.717Z" fill="url(#paint1_linear_1265_17042)"/>
<path d="M17.0235 4.95605L32.1251 4.95605C35.1614 4.95613 37.8623 6.99807 38.8057 10.0293L43.4717 25.0244C44.4156 28.0573 43.3805 31.3764 40.9171 33.2451L28.6993 42.5127C26.2388 44.3789 22.9098 44.3789 20.4493 42.5127L8.23151 33.2451C5.76813 31.3764 4.73299 28.0573 5.67682 25.0244L10.3428 10.0293C11.2862 6.99808 13.9872 4.95617 17.0235 4.95605Z" stroke="#82FCFC" stroke-opacity="0.83" stroke-width="0.513736"/>
</g>
<g filter="url(#filter1_d_1265_17042)">
<path d="M18.3829 31.4737C14.1629 31.4737 12.3303 28.2145 12.3303 24.4403C12.3303 20.5076 14.3511 17.3178 18.373 17.3178C22.8308 17.3178 24.4356 20.7453 24.4356 24.3908C24.4356 28.2245 22.5336 31.4737 18.3829 31.4737ZM18.3829 28.066C19.8094 28.066 20.701 26.6989 20.701 24.3908C20.701 22.0826 19.7995 20.7255 18.3631 20.7255C16.9663 20.7255 16.0649 22.0925 16.0649 24.4007C16.0649 26.7088 16.9663 28.066 18.3829 28.066ZM30.6963 31.4737C27.6551 31.4737 25.2578 29.9382 25.1785 26.2333L28.8735 26.2333C28.9627 27.6301 29.7453 28.0957 30.7854 28.0957C31.6175 28.0957 32.2416 27.5112 32.2416 26.6989C32.2416 25.9559 31.6869 25.2031 30.518 25.2031L28.1108 25.2031L28.1108 23.3704L30.3793 20.6462L25.9908 20.6462L25.9908 17.6546L34.837 17.6546L34.837 19.5269L31.9841 22.6572C34.3318 23.0039 35.9961 23.9252 35.9961 26.8079C35.9961 29.5023 33.6978 31.4737 30.6963 31.4737Z" fill="#E9FFFF"/>
</g>
<defs>
<filter id="filter0_d_1265_17042" x="5.07428" y="4.69922" width="39.0001" height="41.5256" filterUnits="userSpaceOnUse" color-interpolation-filters="sRGB">
<feFlood flood-opacity="0" result="BackgroundImageFix"/>
<feColorMatrix in="SourceAlpha" type="matrix" values="0 0 0 0 0 0 0 0 0 0 0 0 0 0 0 0 0 0 127 0" result="hardAlpha"/>
<feOffset dy="2.05494"/>
<feComposite in2="hardAlpha" operator="out"/>
<feColorMatrix type="matrix" values="0 0 0 0 0.136486 0 0 0 0 0.828146 0 0 0 0 0.828146 0 0 0 1 0"/>
<feBlend mode="multiply" in2="BackgroundImageFix" result="effect1_dropShadow_1265_17042"/>
<feBlend mode="normal" in="SourceGraphic" in2="effect1_dropShadow_1265_17042" result="shape"/>
</filter>
<filter id="filter1_d_1265_17042" x="11.5062" y="16.8526" width="25.3139" height="15.8044" filterUnits="userSpaceOnUse" color-interpolation-filters="sRGB">
<feFlood flood-opacity="0" result="BackgroundImageFix"/>
<feColorMatrix in="SourceAlpha" type="matrix" values="0 0 0 0 0 0 0 0 0 0 0 0 0 0 0 0 0 0 127 0" result="hardAlpha"/>
<feOffset dy="0.358286"/>
<feGaussianBlur stdDeviation="0.412028"/>
<feComposite in2="hardAlpha" operator="out"/>
<feColorMatrix type="matrix" values="0 0 0 0 0.266667 0 0 0 0 0.564706 0 0 0 0 0.564706 0 0 0 1 0"/>
<feBlend mode="normal" in2="BackgroundImageFix" result="effect1_dropShadow_1265_17042"/>
<feBlend mode="normal" in="SourceGraphic" in2="effect1_dropShadow_1265_17042" result="shape"/>
</filter>
<linearGradient id="paint0_linear_1265_17042" x1="24.5747" y1="51.3832" x2="24.5747" y2="-5.42475" gradientUnits="userSpaceOnUse">
<stop stop-color="#54C9C9"/>
<stop offset="1" stop-color="#70F4F4"/>
</linearGradient>
<linearGradient id="paint1_linear_1265_17042" x1="24.5742" y1="47.1391" x2="24.5742" y2="1.72939" gradientUnits="userSpaceOnUse">
<stop stop-color="#04BEBE"/>
<stop offset="1" stop-color="#6BE3E3"/>
</linearGradient>
</defs>
</svg>
