<svg width="50" height="50" viewBox="0 0 50 50" fill="none" xmlns="http://www.w3.org/2000/svg">
<path d="M29.9684 47.3399C26.7519 49.7509 22.3963 49.7509 19.1797 47.3399L3.78369 35.7999C0.567122 33.3889 -0.778819 29.1154 0.449802 25.2144L6.33056 6.54222C7.55919 2.64119 11.0829 7.40763e-09 15.0588 6.63396e-09L34.0894 2.93082e-09C38.0653 2.15716e-09 41.589 2.64119 42.8176 6.54222L48.6984 25.2144C49.927 29.1154 48.581 33.3889 45.3645 35.7999L29.9684 47.3399Z" fill="url(#paint0_linear_507_33570)"/>
<g filter="url(#filter0_d_507_33570)">
<path d="M28.8548 42.717C26.3024 44.6532 22.8461 44.6532 20.2937 42.717L8.07666 33.4494C5.52424 31.5132 4.45621 28.0812 5.43115 24.9484L10.0977 9.95315C11.0726 6.82031 13.8687 4.69922 17.0237 4.69922L32.1248 4.69922C35.2798 4.69922 38.0759 6.82031 39.0509 9.95315L43.7174 24.9484C44.6923 28.0813 43.6243 31.5132 41.0719 33.4494L28.8548 42.717Z" fill="url(#paint1_linear_507_33570)"/>
<path d="M17.0234 4.95605L32.125 4.95605C35.1613 4.95613 37.8623 6.99807 38.8057 10.0293L43.4717 25.0244C44.4155 28.0573 43.3804 31.3764 40.917 33.2451L28.6992 42.5127C26.2387 44.3789 22.9097 44.3789 20.4492 42.5127L8.23145 33.2451C5.76807 31.3764 4.73293 28.0573 5.67676 25.0244L10.3428 10.0293C11.2861 6.99808 13.9872 4.95617 17.0234 4.95605Z" stroke="#82FCFC" stroke-opacity="0.83" stroke-width="0.513736"/>
</g>
<g filter="url(#filter1_d_507_33570)">
<path d="M18.383 31.4737C14.163 31.4737 12.3303 28.2145 12.3303 24.4403C12.3303 20.5076 14.3512 17.3178 18.3731 17.3178C22.8308 17.3178 24.4356 20.7453 24.4356 24.3908C24.4356 28.2245 22.5337 31.4737 18.383 31.4737ZM18.383 28.066C19.8095 28.066 20.701 26.6989 20.701 24.3908C20.701 22.0826 19.7996 20.7255 18.3632 20.7255C16.9664 20.7255 16.0649 22.0925 16.0649 24.4007C16.0649 26.7088 16.9664 28.066 18.383 28.066ZM30.8647 31.4737C28.1207 31.4737 25.4659 30.1363 25.3767 26.3324L28.9925 26.3324C29.0717 27.531 29.9237 28.0957 30.8647 28.0957C31.9643 28.0957 32.4398 27.4121 32.4398 26.5998C32.4398 25.5597 31.7167 25.2427 30.4784 25.2328L27.7443 25.213L26.2584 23.9747L27.1796 17.6447L35.2234 17.6447L35.2234 20.6462L30.3199 20.6462L30.0425 22.6374L31.5185 22.6374C34.4012 22.6374 36.1645 24.0639 36.1645 26.6296C36.1645 29.1259 34.1635 31.4737 30.8647 31.4737Z" fill="#E9FFFF"/>
</g>
<defs>
<filter id="filter0_d_507_33570" x="5.07422" y="4.69922" width="39" height="41.5256" filterUnits="userSpaceOnUse" color-interpolation-filters="sRGB">
<feFlood flood-opacity="0" result="BackgroundImageFix"/>
<feColorMatrix in="SourceAlpha" type="matrix" values="0 0 0 0 0 0 0 0 0 0 0 0 0 0 0 0 0 0 127 0" result="hardAlpha"/>
<feOffset dy="2.05494"/>
<feComposite in2="hardAlpha" operator="out"/>
<feColorMatrix type="matrix" values="0 0 0 0 0.136486 0 0 0 0 0.828146 0 0 0 0 0.828146 0 0 0 1 0"/>
<feBlend mode="multiply" in2="BackgroundImageFix" result="effect1_dropShadow_507_33570"/>
<feBlend mode="normal" in="SourceGraphic" in2="effect1_dropShadow_507_33570" result="shape"/>
</filter>
<filter id="filter1_d_507_33570" x="11.5065" y="16.8526" width="25.4821" height="15.8044" filterUnits="userSpaceOnUse" color-interpolation-filters="sRGB">
<feFlood flood-opacity="0" result="BackgroundImageFix"/>
<feColorMatrix in="SourceAlpha" type="matrix" values="0 0 0 0 0 0 0 0 0 0 0 0 0 0 0 0 0 0 127 0" result="hardAlpha"/>
<feOffset dy="0.358286"/>
<feGaussianBlur stdDeviation="0.412028"/>
<feComposite in2="hardAlpha" operator="out"/>
<feColorMatrix type="matrix" values="0 0 0 0 0.266667 0 0 0 0 0.564706 0 0 0 0 0.564706 0 0 0 1 0"/>
<feBlend mode="normal" in2="BackgroundImageFix" result="effect1_dropShadow_507_33570"/>
<feBlend mode="normal" in="SourceGraphic" in2="effect1_dropShadow_507_33570" result="shape"/>
</filter>
<linearGradient id="paint0_linear_507_33570" x1="24.5747" y1="51.3832" x2="24.5747" y2="-5.42475" gradientUnits="userSpaceOnUse">
<stop stop-color="#54C9C9"/>
<stop offset="1" stop-color="#70F4F4"/>
</linearGradient>
<linearGradient id="paint1_linear_507_33570" x1="24.5742" y1="47.1391" x2="24.5742" y2="1.72939" gradientUnits="userSpaceOnUse">
<stop stop-color="#04BEBE"/>
<stop offset="1" stop-color="#6BE3E3"/>
</linearGradient>
</defs>
</svg>
