<svg width="120" height="120" viewBox="0 0 120 120" fill="none" xmlns="http://www.w3.org/2000/svg">
<g clip-path="url(#clip0_11297_2203)">
<path d="M45.346 4.81458C50.7271 2.18069 53.4174 0.863744 56.231 0.344798C58.7234 -0.114933 61.2768 -0.114933 63.769 0.344798C66.5826 0.863744 69.2729 2.18069 74.654 4.81458L94.8564 14.7034C100.237 17.3373 102.928 18.6542 105.081 20.5664C106.989 22.2604 108.581 24.2896 109.781 26.5568C111.136 29.1161 111.801 32.0752 113.13 37.9935L118.119 60.2134C119.448 66.1317 120.113 69.0909 119.984 71.9944C119.871 74.5665 119.302 77.0967 118.307 79.4643C117.183 82.1367 115.321 84.5099 111.597 89.256L97.6169 107.075C93.8934 111.821 92.0313 114.194 89.7181 115.902C87.6689 117.416 85.3683 118.542 82.9264 119.227C80.1702 120 77.184 120 71.2116 120H48.7884C42.816 120 39.8298 120 37.0736 119.227C34.6317 118.542 32.3311 117.416 30.2819 115.902C27.9687 114.194 26.1066 111.821 22.383 107.075L8.40245 89.256C4.67872 84.5099 2.81686 82.1367 1.69305 79.4643C0.697478 77.0967 0.129284 74.5665 0.0156377 71.9944C-0.112648 69.0909 0.551847 66.1317 1.88083 60.2134L6.87041 37.9935C8.1994 32.0752 8.86389 29.1161 10.2189 26.5568C11.4192 24.2896 13.0113 22.2604 14.9189 20.5664C17.0722 18.6542 19.7626 17.3373 25.1436 14.7034L45.346 4.81458Z" fill="url(#paint0_linear_11297_2203)"/>
<path d="M58.7908 14.2196C59.5907 14.0721 60.4093 14.0721 61.2092 14.2196C61.6708 14.3048 62.3505 14.5028 68.45 17.4884L88.6537 27.3771C94.7402 30.3562 95.3333 30.7806 95.7122 31.1171C96.3513 31.6844 96.8949 32.3743 97.3105 33.1591C97.5745 33.658 97.8628 34.4063 99.3625 41.0855L104.352 63.3036C105.85 69.9756 105.914 70.788 105.888 71.3722C105.847 72.2812 105.646 73.1702 105.299 73.9951C105.082 74.5106 104.696 75.1928 100.497 80.5453L86.5167 98.3653C82.3042 103.734 81.7486 104.246 81.3355 104.551C80.6558 105.053 79.9036 105.42 79.1165 105.641C78.6676 105.767 77.9816 105.89 71.2126 105.89H48.7874C42.0184 105.89 41.3323 105.767 40.8835 105.641C40.0963 105.42 39.3441 105.053 38.6645 104.551C38.2514 104.246 37.6958 103.734 33.4833 98.3653L19.503 80.5453C15.3034 75.1926 14.9176 74.5106 14.7008 73.9951C14.3538 73.1702 14.1526 72.2812 14.1123 71.3722C14.0865 70.7883 14.1501 69.9756 15.6483 63.3036L20.6375 41.0855C22.1373 34.4063 22.4253 33.658 22.6895 33.1591C23.105 32.3743 23.6488 31.6844 24.2877 31.1171C24.6666 30.7806 25.2598 30.3562 31.3463 27.3771L51.5499 17.4884C57.6495 14.5028 58.3292 14.3048 58.7908 14.2196Z" stroke="url(#paint1_linear_11297_2203)" stroke-opacity="0.4" stroke-width="11.0526"/>
<g filter="url(#filter0_d_11297_2203)">
<path d="M48.4177 16.3724C52.6713 14.2903 54.7979 13.2493 57.022 12.8391C58.992 12.4757 61.0106 12.4757 62.9806 12.8391C65.2047 13.2493 67.3315 14.2903 71.5849 16.3724L87.5546 24.1892C91.8079 26.2711 93.9348 27.3123 95.637 28.8238C97.1449 30.1629 98.4033 31.7668 99.3521 33.5592C100.423 35.5821 100.948 37.9213 101.999 42.5995L105.943 60.164C106.994 64.8422 107.519 67.1814 107.418 69.4765C107.328 71.5096 106.879 73.5097 106.092 75.3812C105.203 77.4937 103.732 79.3696 100.788 83.1212L89.7368 97.2067C86.7932 100.958 85.3213 102.834 83.4927 104.185C81.873 105.381 80.0543 106.271 78.1241 106.813C75.9452 107.424 73.5848 107.424 68.8637 107.424H51.1389C46.4178 107.424 44.0574 107.424 41.8785 106.813C39.9483 106.271 38.1299 105.381 36.5099 104.185C34.6813 102.834 33.2094 100.958 30.2661 97.2067L19.2147 83.1212C16.2712 79.3696 14.7994 77.4937 13.9111 75.3812C13.1241 73.5097 12.6749 71.5096 12.5851 69.4765C12.4837 67.1814 13.009 64.8422 14.0595 60.164L18.0037 42.5995C19.0542 37.9213 19.5795 35.5821 20.6505 33.5592C21.5994 31.7668 22.8579 30.1629 24.3657 28.8238C26.0679 27.3123 28.1947 26.2711 32.4483 24.1892L48.4177 16.3724Z" fill="url(#paint2_linear_11297_2203)"/>
<path d="M57.2535 14.095C59.0706 13.7598 60.9319 13.7598 62.749 14.095C64.7602 14.4659 66.7057 15.4045 71.0244 17.5184L86.9944 25.335C91.3108 27.4479 93.2471 28.4094 94.7885 29.7782C96.1815 31.0152 97.3465 32.4984 98.2243 34.1564C99.1966 35.9929 99.6868 38.1322 100.752 42.8781L104.697 60.4438C105.763 65.1902 106.235 67.3349 106.143 69.4201C106.06 71.3025 105.642 73.1536 104.914 74.8854C104.108 76.8026 102.77 78.526 99.7825 82.3331L88.7321 96.418C85.7448 100.225 84.3919 101.934 82.7356 103.157C81.2395 104.262 79.5595 105.084 77.7789 105.583C75.8088 106.136 73.6555 106.147 68.8626 106.147H51.1399C46.3471 106.147 44.1937 106.136 42.2236 105.583C40.4433 105.084 38.7654 104.262 37.2694 103.157C35.6127 101.934 34.2582 100.226 31.2705 96.418L20.2198 82.3331C17.233 78.526 15.8948 76.8026 15.0885 74.8854C14.3604 73.1536 13.9425 71.3025 13.8593 69.4201C13.7672 67.3349 14.2396 65.1902 15.3054 60.4438L19.2499 42.8781C20.3157 38.1322 20.806 35.9929 21.7782 34.1564C22.656 32.4984 23.8209 31.0152 25.214 29.7782C26.7554 28.4094 28.6917 27.4479 33.0082 25.335L48.9781 17.5184C53.2966 15.4045 55.2424 14.4659 57.2535 14.095Z" stroke="#FFCB9D"/>
</g>
<g filter="url(#filter1_d_11297_2203)">
<path d="M45.3028 79.5496C34.9032 79.5496 30.3868 71.518 30.3868 62.2167C30.3868 52.5251 35.3671 44.6641 45.2786 44.6641C56.2642 44.6641 60.2188 53.1108 60.2188 62.0947C60.2188 71.5423 55.5317 79.5496 45.3028 79.5496ZM45.3028 71.1516C48.8183 71.1516 51.0154 67.7827 51.0154 62.0947C51.0154 56.4067 48.7938 53.062 45.2541 53.062C41.8119 53.062 39.5903 56.431 39.5903 62.1192C39.5903 67.8072 41.8119 71.1516 45.3028 71.1516ZM86.2915 78.6953H77.088V72.4701H62.0742L61.4153 66.0251L75.8428 45.4211H86.2915V64.9997H90.6858V72.4701H86.2915V78.6953ZM77.088 56.431L71.229 65.073H77.088V56.431Z" fill="#FFEDE6"/>
</g>
</g>
<defs>
<filter id="filter0_d_11297_2203" x="12.5728" y="12.5665" width="94.8572" height="98.8573" filterUnits="userSpaceOnUse" color-interpolation-filters="sRGB">
<feFlood flood-opacity="0" result="BackgroundImageFix"/>
<feColorMatrix in="SourceAlpha" type="matrix" values="0 0 0 0 0 0 0 0 0 0 0 0 0 0 0 0 0 0 127 0" result="hardAlpha"/>
<feOffset dy="4"/>
<feComposite in2="hardAlpha" operator="out"/>
<feColorMatrix type="matrix" values="0 0 0 0 0.872728 0 0 0 0 0.473686 0 0 0 0 0.0448099 0 0 0 1 0"/>
<feBlend mode="normal" in2="BackgroundImageFix" result="effect1_dropShadow_11297_2203"/>
<feBlend mode="normal" in="SourceGraphic" in2="effect1_dropShadow_11297_2203" result="shape"/>
</filter>
<filter id="filter1_d_11297_2203" x="29.6007" y="44.2197" width="61.8712" height="36.4578" filterUnits="userSpaceOnUse" color-interpolation-filters="sRGB">
<feFlood flood-opacity="0" result="BackgroundImageFix"/>
<feColorMatrix in="SourceAlpha" type="matrix" values="0 0 0 0 0 0 0 0 0 0 0 0 0 0 0 0 0 0 127 0" result="hardAlpha"/>
<feOffset dy="0.341798"/>
<feGaussianBlur stdDeviation="0.393068"/>
<feComposite in2="hardAlpha" operator="out"/>
<feColorMatrix type="matrix" values="0 0 0 0 0.760784 0 0 0 0 0.168627 0 0 0 0 0.317647 0 0 0 1 0"/>
<feBlend mode="normal" in2="BackgroundImageFix" result="effect1_dropShadow_11297_2203"/>
<feBlend mode="normal" in="SourceGraphic" in2="effect1_dropShadow_11297_2203" result="shape"/>
</filter>
<linearGradient id="paint0_linear_11297_2203" x1="60.002" y1="-2.35847" x2="60.002" y2="130.052" gradientUnits="userSpaceOnUse">
<stop stop-color="#FFB986"/>
<stop offset="1" stop-color="#F56600"/>
</linearGradient>
<linearGradient id="paint1_linear_11297_2203" x1="60" y1="4.01187e-05" x2="60" y2="120" gradientUnits="userSpaceOnUse">
<stop stop-color="white"/>
<stop offset="1" stop-color="#FEA12B"/>
</linearGradient>
<linearGradient id="paint2_linear_11297_2203" x1="10.9332" y1="65.0806" x2="106.741" y2="56.0712" gradientUnits="userSpaceOnUse">
<stop stop-color="#FA7907"/>
<stop offset="1" stop-color="#FFA700" stop-opacity="0.499"/>
</linearGradient>
<clipPath id="clip0_11297_2203">
<rect width="120" height="120" fill="white"/>
</clipPath>
</defs>
</svg>
