<svg width="120" height="120" viewBox="0 0 120 120" fill="none" xmlns="http://www.w3.org/2000/svg">
<g clip-path="url(#clip0_11297_2206)">
<path d="M2.52307 44.3776C0.0133667 25.884 -1.24149 16.6372 1.72214 10.7324C4.30719 5.58188 8.84588 1.82693 14.211 0.400117C20.3619 -1.23564 28.6004 2.23339 45.0775 9.17144L48.3905 10.5665C52.6795 12.3724 54.8238 13.2754 57.0378 13.6329C59.0011 13.9499 60.9989 13.9499 62.9622 13.6329C65.1762 13.2754 67.3205 12.3724 71.6095 10.5665L74.9225 9.17144C91.3996 2.23339 99.6381 -1.23564 105.789 0.400117C111.154 1.82693 115.693 5.58188 118.278 10.7324C121.241 16.6372 119.987 25.884 117.477 44.3776L113.93 70.5159C113.254 75.4957 112.916 77.9857 112.064 80.2484C111.308 82.2545 110.257 84.1229 108.949 85.7851C107.475 87.66 105.563 89.1689 101.74 92.1871L78.7555 110.334C72.0297 115.644 68.6669 118.299 64.9735 119.323C61.7134 120.226 58.2866 120.226 55.0265 119.323C51.3331 118.299 47.9703 115.644 41.2445 110.334L18.2598 92.1871C14.4369 89.1689 12.5255 87.66 11.0506 85.7851C9.74298 84.1229 8.69202 82.2545 7.93633 80.2484C7.08397 77.9857 6.74606 75.4957 6.07028 70.5159L2.52307 44.3776Z" fill="url(#paint0_linear_11297_2206)"/>
<g filter="url(#filter0_d_11297_2206)">
<path d="M106.789 16.0785C105.875 14.3642 104.321 13.0728 102.549 12.5699C102.446 12.5699 101.281 12.5242 97.9433 13.5642C93.6233 14.9128 87.509 17.4957 79.7719 20.7528L73.6235 23.3357C70.4805 24.6271 67.8176 25.5757 64.9263 26.0442L64.3777 26.1243C61.2118 26.5698 58.0691 26.5357 54.9833 26.0442L54.2863 25.9185C50.789 25.2442 47.6576 23.9185 44.0349 22.3985L34.3206 18.3185C29.212 16.2042 25.1434 14.5814 21.9319 13.5757C18.7776 12.5814 17.5662 12.5699 17.3148 12.5699L17.1776 12.6157C15.4634 13.1185 13.9091 14.4671 12.9834 16.2842L12.9377 16.3757C12.8348 16.6271 12.4234 17.9757 12.6291 22.1699C12.8576 26.9815 13.7491 33.5413 14.9834 42.6157L18.9948 72.0556C19.3376 74.3984 19.5205 75.21 19.6919 75.69L19.8519 76.0784C20.1262 76.7186 20.4691 77.3129 20.8805 77.85L21.0977 78.1127C21.6691 78.7414 23.1091 79.907 26.0348 82.2157L51.3948 102.227C53.4063 103.804 55.0177 105.039 56.3205 105.93C57.7376 106.89 58.252 107.073 58.3433 107.096L58.5948 107.164C59.5548 107.393 60.5377 107.37 61.4977 107.119L61.6462 107.073C61.8405 107.004 62.4006 106.741 63.5891 105.941C65.2806 104.799 67.4633 103.084 70.8804 100.376L96.389 80.2156C98.1035 78.8327 98.6633 78.3071 98.9377 77.9643L99.1777 77.6442C99.5777 77.0844 99.9092 76.4786 100.16 75.8158L100.286 75.4615C100.549 74.5698 100.823 72.7299 101.36 68.7642L105.783 36.1127C106.549 30.3527 107.086 25.7585 107.258 22.1814C107.475 17.5528 106.949 16.3985 106.926 16.3528L106.789 16.09V16.0785Z" fill="url(#paint1_linear_11297_2206)"/>
<path d="M102.478 13.0104C104.078 13.4803 105.495 14.6481 106.353 16.2076L106.399 16.2942L106.531 16.5464C106.509 16.5019 107.031 17.5801 106.817 22.1612C106.646 25.7171 106.112 30.2938 105.347 36.053L100.924 68.705C100.389 72.6556 100.118 74.4538 99.8693 75.3133L99.747 75.6598C99.5111 76.2817 99.2012 76.8512 98.8248 77.3794L98.5929 77.6878C98.3547 77.9857 97.8363 78.4811 96.1167 79.8684L70.6081 100.03H70.6055C68.0396 102.064 66.179 103.53 64.7028 104.613L63.3426 105.576C62.1729 106.363 61.6488 106.601 61.5032 106.653L61.3783 106.691C60.4905 106.923 59.5884 106.945 58.7085 106.737L58.4589 106.671L58.4513 106.669L58.036 106.475C57.8863 106.395 57.6943 106.287 57.4524 106.139L56.5686 105.566C55.2791 104.683 53.6761 103.456 51.6645 101.879L26.3088 81.8682C23.3642 79.5449 21.9624 78.4091 21.4225 77.8151L21.2212 77.568C20.9346 77.1921 20.6815 76.7862 20.4646 76.3529L20.2582 75.9045L20.1054 75.5351C19.9517 75.102 19.772 74.3309 19.4303 71.9964L15.4204 42.557C14.3394 34.6096 13.5254 28.6109 13.1862 24.0286L13.0691 22.1485C12.8641 17.9706 13.2791 16.7004 13.3442 16.5413L13.3747 16.4827L13.3773 16.4853C14.2554 14.7616 15.7203 13.5027 17.3031 13.0384L17.3184 13.0333L17.3769 13.0129C17.6559 13.0176 18.6018 13.0684 20.7168 13.6702L21.7995 13.9963C24.9894 14.9953 29.0419 16.6119 34.1526 18.7271L43.864 22.8057C47.4778 24.322 50.6521 25.6674 54.2017 26.352H54.207L54.905 26.4793H54.9152C58.0436 26.9773 61.2296 27.0125 64.438 26.5607L64.9908 26.4819L64.9957 26.4793C67.9381 26.0025 70.6391 25.0379 73.7899 23.7432H73.7951L79.9423 21.16C87.6896 17.8986 93.7814 15.3267 98.0758 13.9861C100.966 13.0855 102.185 13.0139 102.478 13.0104Z" stroke="#C89DFF" stroke-width="0.338203"/>
</g>
<g filter="url(#filter1_d_11297_2206)">
<path d="M46.8687 74.0009C36.7655 74.0009 32.3779 66.1982 32.3779 57.1623C32.3779 47.7467 37.216 40.11 46.845 40.11C57.5174 40.11 61.3595 48.3159 61.3595 57.0436C61.3595 66.222 56.806 74.0009 46.8687 74.0009ZM46.8687 65.8424C50.284 65.8424 52.4185 62.5695 52.4185 57.0436C52.4185 51.5175 50.2603 48.2684 46.8212 48.2684C43.4771 48.2684 41.319 51.5413 41.319 57.0673C41.319 62.5933 43.4771 65.8424 46.8687 65.8424ZM76.3483 74.0009C69.0674 74.0009 63.328 70.3249 63.1384 61.4549H71.9845C72.1981 64.7989 74.0717 65.9136 76.5619 65.9136C78.5539 65.9136 80.0482 64.5143 80.0482 62.5696C80.0482 60.7909 78.7201 58.9883 75.9215 58.9883H70.1584V54.6008L75.5894 48.0788H65.0831V40.9163H86.2619V45.3989L79.4315 52.8931C85.0525 53.7232 89.0367 55.9289 89.0367 62.8304C89.0367 69.2812 83.5345 74.0009 76.3483 74.0009Z" fill="#F8F2FF"/>
</g>
</g>
<defs>
<filter id="filter0_d_11297_2206" x="12.5723" y="12.5696" width="94.7378" height="96.1054" filterUnits="userSpaceOnUse" color-interpolation-filters="sRGB">
<feFlood flood-opacity="0" result="BackgroundImageFix"/>
<feColorMatrix in="SourceAlpha" type="matrix" values="0 0 0 0 0 0 0 0 0 0 0 0 0 0 0 0 0 0 127 0" result="hardAlpha"/>
<feOffset dy="1.35281"/>
<feComposite in2="hardAlpha" operator="out"/>
<feColorMatrix type="matrix" values="0 0 0 0 0.36213 0 0 0 0 0.215427 0 0 0 0 0.52248 0 0 0 0.84 0"/>
<feBlend mode="normal" in2="BackgroundImageFix" result="effect1_dropShadow_11297_2206"/>
<feBlend mode="normal" in="SourceGraphic" in2="effect1_dropShadow_11297_2206" result="shape"/>
</filter>
<filter id="filter1_d_11297_2206" x="31.6305" y="39.6875" width="58.1536" height="35.3858" filterUnits="userSpaceOnUse" color-interpolation-filters="sRGB">
<feFlood flood-opacity="0" result="BackgroundImageFix"/>
<feColorMatrix in="SourceAlpha" type="matrix" values="0 0 0 0 0 0 0 0 0 0 0 0 0 0 0 0 0 0 127 0" result="hardAlpha"/>
<feOffset dy="0.324989"/>
<feGaussianBlur stdDeviation="0.373737"/>
<feComposite in2="hardAlpha" operator="out"/>
<feColorMatrix type="matrix" values="0 0 0 0 0.756863 0 0 0 0 0.698039 0 0 0 0 0.396078 0 0 0 1 0"/>
<feBlend mode="normal" in2="BackgroundImageFix" result="effect1_dropShadow_11297_2206"/>
<feBlend mode="normal" in="SourceGraphic" in2="effect1_dropShadow_11297_2206" result="shape"/>
</filter>
<linearGradient id="paint0_linear_11297_2206" x1="60.0016" y1="123.262" x2="60.0016" y2="-3.2623" gradientUnits="userSpaceOnUse">
<stop stop-color="#A46BF0"/>
<stop offset="1" stop-color="#8251BD"/>
</linearGradient>
<linearGradient id="paint1_linear_11297_2206" x1="10.9348" y1="65.0259" x2="106.622" y2="56.0291" gradientUnits="userSpaceOnUse">
<stop stop-color="#8251BC"/>
<stop offset="1" stop-color="#B073F8"/>
</linearGradient>
<clipPath id="clip0_11297_2206">
<rect width="120" height="120" fill="white"/>
</clipPath>
</defs>
</svg>
