<svg width="49" height="49" viewBox="0 0 49 49" fill="none" xmlns="http://www.w3.org/2000/svg">
<path d="M30.7941 46.3929C27.3179 49.869 21.682 49.869 18.2059 46.3929L2.60709 30.7941C-0.869029 27.3179 -0.869029 21.682 2.60709 18.2059L18.2059 2.60709C21.682 -0.869029 27.3179 -0.869029 30.7941 2.60709L46.3929 18.2059C49.869 21.682 49.869 27.3179 46.3929 30.7941L30.7941 46.3929Z" fill="url(#paint0_linear_487_31632)"/>
<g filter="url(#filter0_d_487_31632)">
<path d="M29.3233 40.5896C26.6594 43.2535 22.3403 43.2535 19.6763 40.5896L7.72207 28.6353C5.05814 25.9714 5.05814 21.6523 7.72207 18.9883L19.6763 7.03409C22.3403 4.37015 26.6594 4.37015 29.3233 7.03409L41.2776 18.9883C43.9415 21.6523 43.9415 25.9714 41.2776 28.6353L29.3233 40.5896Z" fill="url(#paint1_linear_487_31632)"/>
<path d="M19.853 7.21094C22.4191 4.64484 26.5798 4.64499 29.146 7.21094L41.1001 19.165C43.6663 21.7312 43.6663 25.8918 41.1001 28.458L29.146 40.4121C26.5798 42.9783 22.4192 42.9783 19.853 40.4121L7.89893 28.458C5.33298 25.8918 5.33283 21.7311 7.89893 19.165L19.853 7.21094Z" stroke="#B8FEB2" stroke-opacity="0.83" stroke-width="0.500685"/>
</g>
<g filter="url(#filter1_d_487_31632)">
<path d="M20.9364 30.9799C16.9137 30.9799 15.1668 27.8732 15.1668 24.2754C15.1668 20.5266 17.0931 17.4859 20.927 17.4859C25.1763 17.4859 26.7061 20.7532 26.7061 24.2282C26.7061 27.8826 24.893 30.9799 20.9364 30.9799ZM20.9364 27.7315C22.2962 27.7315 23.1461 26.4284 23.1461 24.2282C23.1461 22.028 22.2868 20.7343 20.9175 20.7343C19.5861 20.7343 18.7268 22.0374 18.7268 24.2377C18.7268 26.4379 19.5861 27.7315 20.9364 27.7315ZM32.9478 30.6494H29.3879V21.1215L27.3576 21.8391L27.3482 18.7607L30.0205 17.7976H32.9478V30.6494Z" fill="#E4FFE2"/>
</g>
<defs>
<filter id="filter0_d_487_31632" x="5.72412" y="5.03613" width="37.5513" height="39.5545" filterUnits="userSpaceOnUse" color-interpolation-filters="sRGB">
<feFlood flood-opacity="0" result="BackgroundImageFix"/>
<feColorMatrix in="SourceAlpha" type="matrix" values="0 0 0 0 0 0 0 0 0 0 0 0 0 0 0 0 0 0 127 0" result="hardAlpha"/>
<feOffset dy="2.00274"/>
<feComposite in2="hardAlpha" operator="out"/>
<feColorMatrix type="matrix" values="0 0 0 0 0.396078 0 0 0 0 0.780392 0 0 0 0 0.372549 0 0 0 0.7 0"/>
<feBlend mode="multiply" in2="BackgroundImageFix" result="effect1_dropShadow_487_31632"/>
<feBlend mode="normal" in="SourceGraphic" in2="effect1_dropShadow_487_31632" result="shape"/>
</filter>
<filter id="filter1_d_487_31632" x="14.4258" y="17.0674" width="19.2631" height="14.9755" filterUnits="userSpaceOnUse" color-interpolation-filters="sRGB">
<feFlood flood-opacity="0" result="BackgroundImageFix"/>
<feColorMatrix in="SourceAlpha" type="matrix" values="0 0 0 0 0 0 0 0 0 0 0 0 0 0 0 0 0 0 127 0" result="hardAlpha"/>
<feOffset dy="0.322257"/>
<feGaussianBlur stdDeviation="0.370595"/>
<feComposite in2="hardAlpha" operator="out"/>
<feColorMatrix type="matrix" values="0 0 0 0 0.478431 0 0 0 0 0.717647 0 0 0 0 0.462745 0 0 0 1 0"/>
<feBlend mode="normal" in2="BackgroundImageFix" result="effect1_dropShadow_487_31632"/>
<feBlend mode="normal" in="SourceGraphic" in2="effect1_dropShadow_487_31632" result="shape"/>
</filter>
<linearGradient id="paint0_linear_487_31632" x1="24.4999" y1="52.6871" x2="24.4999" y2="-3.6869" gradientUnits="userSpaceOnUse">
<stop stop-color="#60BA59"/>
<stop offset="1" stop-color="#B0FFAA"/>
</linearGradient>
<linearGradient id="paint1_linear_487_31632" x1="24.4997" y1="45.4131" x2="24.4997" y2="2.21066" gradientUnits="userSpaceOnUse">
<stop stop-color="#61DE58"/>
<stop offset="1" stop-color="#CAF4C8"/>
</linearGradient>
</defs>
</svg>
