<svg width="120" height="120" viewBox="0 0 120 120" fill="none" xmlns="http://www.w3.org/2000/svg">
<g clip-path="url(#clip0_11297_2179)">
<path d="M45.346 4.81458C50.7271 2.18069 53.4174 0.863744 56.231 0.344798C58.7234 -0.114933 61.2768 -0.114933 63.769 0.344798C66.5826 0.863744 69.2729 2.18069 74.654 4.81458L94.8564 14.7034C100.237 17.3373 102.928 18.6542 105.081 20.5664C106.989 22.2604 108.581 24.2896 109.781 26.5568C111.136 29.1161 111.801 32.0752 113.13 37.9935L118.119 60.2134C119.448 66.1317 120.113 69.0909 119.984 71.9944C119.871 74.5665 119.302 77.0967 118.307 79.4643C117.183 82.1367 115.321 84.5099 111.597 89.256L97.6169 107.075C93.8934 111.821 92.0313 114.194 89.7181 115.902C87.6689 117.416 85.3683 118.542 82.9264 119.227C80.1702 120 77.184 120 71.2116 120H48.7884C42.816 120 39.8298 120 37.0736 119.227C34.6317 118.542 32.3311 117.416 30.2819 115.902C27.9687 114.194 26.1066 111.821 22.383 107.075L8.40245 89.256C4.67872 84.5099 2.81686 82.1367 1.69305 79.4643C0.697478 77.0967 0.129284 74.5665 0.0156377 71.9944C-0.112648 69.0909 0.551847 66.1317 1.88083 60.2134L6.87041 37.9935C8.1994 32.0752 8.86389 29.1161 10.2189 26.5568C11.4192 24.2896 13.0113 22.2604 14.9189 20.5664C17.0722 18.6542 19.7626 17.3373 25.1436 14.7034L45.346 4.81458Z" fill="url(#paint0_linear_11297_2179)"/>
<g filter="url(#filter0_d_11297_2179)">
<path d="M48.4177 16.3724C52.6713 14.2903 54.7979 13.2493 57.022 12.8391C58.992 12.4757 61.0106 12.4757 62.9806 12.8391C65.2047 13.2493 67.3315 14.2903 71.5849 16.3724L87.5546 24.1892C91.8079 26.2711 93.9348 27.3123 95.637 28.8238C97.1449 30.1629 98.4033 31.7668 99.3521 33.5592C100.423 35.5821 100.948 37.9213 101.999 42.5995L105.943 60.164C106.994 64.8422 107.519 67.1814 107.418 69.4765C107.328 71.5096 106.879 73.5097 106.092 75.3812C105.203 77.4937 103.732 79.3696 100.788 83.1212L89.7368 97.2067C86.7932 100.958 85.3213 102.834 83.4927 104.185C81.873 105.381 80.0543 106.271 78.1241 106.813C75.9452 107.424 73.5848 107.424 68.8637 107.424H51.1389C46.4178 107.424 44.0574 107.424 41.8785 106.813C39.9483 106.271 38.1299 105.381 36.5099 104.185C34.6813 102.834 33.2094 100.958 30.2661 97.2067L19.2147 83.1212C16.2712 79.3696 14.7994 77.4937 13.9111 75.3812C13.1241 73.5097 12.6749 71.5096 12.5851 69.4765C12.4837 67.1814 13.009 64.8422 14.0595 60.164L18.0037 42.5995C19.0542 37.9213 19.5795 35.5821 20.6505 33.5592C21.5994 31.7668 22.8579 30.1629 24.3657 28.8238C26.0679 27.3123 28.1947 26.2711 32.4483 24.1892L48.4177 16.3724Z" fill="url(#paint1_linear_11297_2179)"/>
<path d="M57.1264 13.4118C59.0267 13.0613 60.9758 13.0613 62.8762 13.4118C65.0024 13.8042 67.0463 14.7989 71.3285 16.895L87.2984 24.7117C91.5809 26.8078 93.6209 27.813 95.2498 29.2597C96.7052 30.5521 97.9213 32.1014 98.8376 33.8324C99.8635 35.77 100.373 38.0176 101.431 42.7262L105.375 60.2919C106.433 65.0003 106.933 67.2509 106.836 69.45C106.749 71.4141 106.315 73.3471 105.555 75.1545C104.704 77.1782 103.292 78.9851 100.329 82.7618L89.2782 96.8467C86.3145 100.624 84.8972 102.424 83.147 103.716C81.5836 104.871 79.8278 105.73 77.9658 106.252C75.8826 106.836 73.6159 106.84 68.8626 106.84H51.1399C46.3864 106.84 44.1199 106.836 42.0367 106.252C40.1747 105.73 38.4189 104.871 36.8556 103.716C35.1053 102.424 33.6878 100.624 30.7243 96.8467L19.6738 82.7618C16.7105 78.9851 15.2986 77.1782 14.4477 75.1545C13.6877 73.3471 13.2529 71.4141 13.1661 69.45C13.0691 67.2509 13.5699 65.0003 14.6272 60.2919L18.5717 42.7262C19.629 38.0176 20.1391 35.77 21.1648 33.8324C22.0812 32.1014 23.2972 30.5521 24.7527 29.2597C26.3816 27.813 28.4213 26.8081 32.7041 24.7117L48.674 16.895C52.9562 14.7989 55.0001 13.8042 57.1264 13.4118Z" stroke="#FFB0BD" stroke-width="0.456284"/>
</g>
<g filter="url(#filter1_d_11297_2179)">
<path d="M45.3027 79.5496C34.9031 79.5496 30.3867 71.518 30.3867 62.2167C30.3867 52.5251 35.367 44.6641 45.2785 44.6641C56.2641 44.6641 60.2187 53.1108 60.2187 62.0947C60.2187 71.5423 55.5316 79.5496 45.3027 79.5496ZM45.3027 71.1516C48.8182 71.1516 51.0152 67.7827 51.0152 62.0947C51.0152 56.4067 48.7937 53.062 45.254 53.062C41.8117 53.062 39.5902 56.431 39.5902 62.1192C39.5902 67.8072 41.8117 71.1516 45.3027 71.1516ZM86.2914 78.6953H77.0879V72.4701H62.0741L61.4151 66.0251L75.8427 45.4211H86.2914V64.9997H90.6857V72.4701H86.2914V78.6953ZM77.0879 56.431L71.2288 65.073H77.0879V56.431Z" fill="#FFE3E7"/>
</g>
</g>
<defs>
<filter id="filter0_d_11297_2179" x="12.5728" y="12.5665" width="94.8572" height="96.6824" filterUnits="userSpaceOnUse" color-interpolation-filters="sRGB">
<feFlood flood-opacity="0" result="BackgroundImageFix"/>
<feColorMatrix in="SourceAlpha" type="matrix" values="0 0 0 0 0 0 0 0 0 0 0 0 0 0 0 0 0 0 127 0" result="hardAlpha"/>
<feOffset dy="1.82513"/>
<feComposite in2="hardAlpha" operator="out"/>
<feColorMatrix type="matrix" values="0 0 0 0 0.80927 0 0 0 0 0.231984 0 0 0 0 0.363518 0 0 0 1 0"/>
<feBlend mode="normal" in2="BackgroundImageFix" result="effect1_dropShadow_11297_2179"/>
<feBlend mode="normal" in="SourceGraphic" in2="effect1_dropShadow_11297_2179" result="shape"/>
</filter>
<filter id="filter1_d_11297_2179" x="29.6006" y="44.2197" width="61.8713" height="36.4578" filterUnits="userSpaceOnUse" color-interpolation-filters="sRGB">
<feFlood flood-opacity="0" result="BackgroundImageFix"/>
<feColorMatrix in="SourceAlpha" type="matrix" values="0 0 0 0 0 0 0 0 0 0 0 0 0 0 0 0 0 0 127 0" result="hardAlpha"/>
<feOffset dy="0.341798"/>
<feGaussianBlur stdDeviation="0.393068"/>
<feComposite in2="hardAlpha" operator="out"/>
<feColorMatrix type="matrix" values="0 0 0 0 0.760784 0 0 0 0 0.168627 0 0 0 0 0.317647 0 0 0 1 0"/>
<feBlend mode="normal" in2="BackgroundImageFix" result="effect1_dropShadow_11297_2179"/>
<feBlend mode="normal" in="SourceGraphic" in2="effect1_dropShadow_11297_2179" result="shape"/>
</filter>
<linearGradient id="paint0_linear_11297_2179" x1="60.0015" y1="123.262" x2="60.0015" y2="-3.26229" gradientUnits="userSpaceOnUse">
<stop stop-color="#FA3768"/>
<stop offset="1" stop-color="#FCA7B4"/>
</linearGradient>
<linearGradient id="paint1_linear_11297_2179" x1="10.9332" y1="65.0806" x2="106.741" y2="56.0712" gradientUnits="userSpaceOnUse">
<stop stop-color="#E0315D"/>
<stop offset="1" stop-color="#FB7C93"/>
</linearGradient>
<clipPath id="clip0_11297_2179">
<rect width="120" height="120" fill="white"/>
</clipPath>
</defs>
</svg>
