<svg width="46" height="46" viewBox="0 0 46 46" fill="none" xmlns="http://www.w3.org/2000/svg">
<path d="M0.967178 17.0114C0.00512371 9.92219 -0.475904 6.3776 0.660153 4.11409C1.65109 2.13972 3.39092 0.700321 5.44756 0.153378C7.80538 -0.473662 10.9635 0.856131 17.2797 3.51572L18.5497 4.0505C20.1938 4.74277 21.0158 5.0889 21.8645 5.22594C22.6171 5.34746 23.3829 5.34746 24.1355 5.22594C24.9842 5.0889 25.8062 4.74277 27.4503 4.0505L28.7203 3.51572C35.0365 0.856132 38.1946 -0.473662 40.5524 0.153378C42.6091 0.700321 44.3489 2.13972 45.3398 4.11409C46.4759 6.3776 45.9949 9.92219 45.0328 17.0114L43.6731 27.0311C43.414 28.94 43.2845 29.8945 42.9577 30.7619C42.6681 31.5309 42.2652 32.2471 41.7639 32.8843C41.1986 33.603 40.4659 34.1814 39.0004 35.3384L30.1896 42.2947C27.6114 44.3302 26.3223 45.3479 24.9065 45.7403C23.6568 46.0866 22.3432 46.0866 21.0935 45.7403C19.6777 45.3479 18.3886 44.3302 15.8104 42.2947L6.99958 35.3384C5.53415 34.1814 4.80144 33.603 4.23607 32.8843C3.73481 32.2471 3.33194 31.5309 3.04226 30.7619C2.71552 29.8945 2.58599 28.94 2.32694 27.0311L0.967178 17.0114Z" fill="url(#paint0_linear_487_31693)"/>
<g filter="url(#filter0_d_487_31693)">
<path d="M40.9358 6.16343C40.5853 5.50628 39.9895 5.01124 39.3105 4.81847C39.271 4.81847 38.8242 4.80095 37.5449 5.19962C35.8889 5.71657 33.5451 6.70666 30.5792 7.95524L28.2223 8.94533C27.0175 9.44038 25.9967 9.804 24.8884 9.98362L24.6781 10.0143C23.4645 10.1851 22.2598 10.172 21.0769 9.98362L20.8097 9.93543C19.4691 9.67695 18.2687 9.16876 16.88 8.58609L13.1562 7.02209C11.1979 6.21162 9.63826 5.58952 8.40721 5.204C7.19806 4.82285 6.73368 4.81847 6.6373 4.81847L6.58473 4.836C5.92759 5.02876 5.33178 5.54571 4.97692 6.24228L4.9594 6.27733C4.91997 6.37371 4.76225 6.89066 4.84111 8.49847C4.92873 10.3429 5.27045 12.8575 5.74359 16.336L7.2813 27.6213C7.41273 28.5194 7.48283 28.8305 7.54854 29.0145L7.60987 29.1634C7.71502 29.4088 7.84645 29.6366 8.00416 29.8425L8.0874 29.9432C8.30645 30.1842 8.85845 30.631 9.97997 31.516L19.7013 39.187C20.4724 39.7916 21.0901 40.2648 21.5895 40.6065C22.1327 40.9745 22.3299 41.0446 22.3649 41.0533L22.4613 41.0796C22.8293 41.1672 23.2061 41.1585 23.5741 41.0621L23.631 41.0446C23.7055 41.0183 23.9202 40.9175 24.3758 40.6109C25.0242 40.1728 25.8609 39.5156 27.1708 38.4773L36.9491 30.7493C37.6063 30.2192 37.8209 30.0177 37.9261 29.8863L38.0181 29.7636C38.1714 29.549 38.2985 29.3168 38.3948 29.0627L38.443 28.9269C38.5438 28.5851 38.6489 27.8798 38.8548 26.3596L40.5503 13.8432C40.8438 11.6352 41.0497 9.87409 41.1154 8.50286C41.1986 6.72857 40.9971 6.28609 40.9884 6.26857L40.9358 6.16781L40.9358 6.16343Z" fill="url(#paint1_linear_487_31693)"/>
<path d="M39.2832 4.9873C39.8967 5.16742 40.4396 5.61511 40.7686 6.21289L40.7861 6.24609L40.8369 6.34277L40.8369 6.34375C40.8284 6.32671 41.0287 6.73901 40.9463 8.49512C40.8809 9.85822 40.6763 11.6126 40.3828 13.8203L38.6875 26.3369C38.4824 27.8513 38.3786 28.5406 38.2832 28.8701L38.2363 29.0029C38.1459 29.2413 38.0271 29.4596 37.8828 29.6621L37.7939 29.7803C37.7026 29.8945 37.5039 30.0844 36.8447 30.6162L27.0664 38.3447L27.0654 38.3447C26.0818 39.1244 25.3686 39.6864 24.8027 40.1016L24.2813 40.4707C23.8329 40.7725 23.632 40.8637 23.5762 40.8838L23.5283 40.8984C23.188 40.9871 22.8422 40.9955 22.5049 40.916L22.5059 40.916L22.4092 40.8906L22.4063 40.8896L22.2471 40.8154C22.1897 40.7849 22.1161 40.7433 22.0234 40.6865L21.6846 40.4668C21.1903 40.1286 20.5758 39.6583 19.8047 39.0537L10.085 31.3828C8.95626 30.4922 8.41889 30.0568 8.21191 29.8291L8.13477 29.7344C8.02491 29.5903 7.92789 29.4347 7.84473 29.2686L7.76563 29.0967L7.70703 28.9551C7.64811 28.7891 7.57923 28.4935 7.44824 27.5986L7.44922 27.5986L5.91113 16.3135C5.49675 13.267 5.18472 10.9675 5.05469 9.21094L5.00977 8.49023C4.93122 6.88871 5.09028 6.40182 5.11523 6.34082L5.12695 6.31836L5.12793 6.31934C5.46454 5.65859 6.02607 5.17602 6.63281 4.99805L6.63867 4.99609L6.66113 4.98828C6.76805 4.99007 7.13065 5.00955 7.94141 5.24023L8.35645 5.36523C9.57924 5.74817 11.1327 6.36789 13.0918 7.17871L13.0918 7.17773L16.8145 8.74219C18.1998 9.32342 19.4166 9.83916 20.7773 10.1016L20.7793 10.1016L21.0469 10.1504L21.0508 10.1504C22.25 10.3413 23.4713 10.3548 24.7012 10.1816L24.7021 10.1816L24.9131 10.1514L24.915 10.1504C26.0429 9.96761 27.0783 9.59786 28.2861 9.10156L28.2881 9.10156L30.6445 8.11133C33.6143 6.86112 35.9495 5.87524 37.5957 5.36133C38.7036 5.01608 39.1708 4.98866 39.2832 4.9873Z" stroke="#C89DFF" stroke-width="0.338203"/>
</g>
<g filter="url(#filter1_d_487_31693)">
<path d="M17.9663 28.367C14.0934 28.367 12.4115 25.376 12.4115 21.9122C12.4115 18.3029 14.2661 15.3755 17.9572 15.3755C22.0483 15.3755 23.5211 18.5211 23.5211 21.8667C23.5211 25.3851 21.7756 28.367 17.9663 28.367ZM17.9663 25.2396C19.2755 25.2396 20.0937 23.985 20.0937 21.8667C20.0937 19.7484 19.2664 18.5029 17.9481 18.5029C16.6662 18.5029 15.8389 19.7575 15.8389 21.8758C15.8389 23.9941 16.6662 25.2396 17.9663 25.2396ZM29.2668 28.367C26.4758 28.367 24.2757 26.9579 24.203 23.5577L27.594 23.5577C27.6759 24.8396 28.3941 25.2669 29.3487 25.2669C30.1123 25.2669 30.6851 24.7305 30.6851 23.985C30.6851 23.3032 30.176 22.6122 29.1032 22.6122L26.894 22.6122L26.894 20.9303L28.9759 18.4302L24.9485 18.4302L24.9485 15.6846L33.067 15.6846L33.067 17.4029L30.4487 20.2757C32.6034 20.5939 34.1307 21.4394 34.1307 24.085C34.1307 26.5578 32.0215 28.367 29.2668 28.367Z" fill="#F8F2FF"/>
</g>
<defs>
<filter id="filter0_d_487_31693" x="4.81934" y="4.81836" width="36.3164" height="37.6751" filterUnits="userSpaceOnUse" color-interpolation-filters="sRGB">
<feFlood flood-opacity="0" result="BackgroundImageFix"/>
<feColorMatrix in="SourceAlpha" type="matrix" values="0 0 0 0 0 0 0 0 0 0 0 0 0 0 0 0 0 0 127 0" result="hardAlpha"/>
<feOffset dy="1.35281"/>
<feComposite in2="hardAlpha" operator="out"/>
<feColorMatrix type="matrix" values="0 0 0 0 0.36213 0 0 0 0 0.215427 0 0 0 0 0.52248 0 0 0 0.84 0"/>
<feBlend mode="normal" in2="BackgroundImageFix" result="effect1_dropShadow_487_31693"/>
<feBlend mode="normal" in="SourceGraphic" in2="effect1_dropShadow_487_31693" result="shape"/>
</filter>
<filter id="filter1_d_487_31693" x="11.6641" y="14.9535" width="23.2142" height="14.4862" filterUnits="userSpaceOnUse" color-interpolation-filters="sRGB">
<feFlood flood-opacity="0" result="BackgroundImageFix"/>
<feColorMatrix in="SourceAlpha" type="matrix" values="0 0 0 0 0 0 0 0 0 0 0 0 0 0 0 0 0 0 127 0" result="hardAlpha"/>
<feOffset dy="0.324989"/>
<feGaussianBlur stdDeviation="0.373737"/>
<feComposite in2="hardAlpha" operator="out"/>
<feColorMatrix type="matrix" values="0 0 0 0 0.756863 0 0 0 0 0.698039 0 0 0 0 0.396078 0 0 0 1 0"/>
<feBlend mode="normal" in2="BackgroundImageFix" result="effect1_dropShadow_487_31693"/>
<feBlend mode="normal" in="SourceGraphic" in2="effect1_dropShadow_487_31693" result="shape"/>
</filter>
<linearGradient id="paint0_linear_487_31693" x1="23.0006" y1="47.2505" x2="23.0006" y2="-1.25055" gradientUnits="userSpaceOnUse">
<stop stop-color="#A46BF0"/>
<stop offset="1" stop-color="#8251BD"/>
</linearGradient>
<linearGradient id="paint1_linear_487_31693" x1="4.19162" y1="24.9266" x2="40.8717" y2="21.4778" gradientUnits="userSpaceOnUse">
<stop stop-color="#8251BC"/>
<stop offset="1" stop-color="#B073F8"/>
</linearGradient>
</defs>
</svg>
