<svg width="120" height="132" viewBox="0 0 120 132" fill="none" xmlns="http://www.w3.org/2000/svg">
<g clip-path="url(#clip0_11297_2184)">
<path d="M71.5469 128.892C64.4018 133.036 55.5982 133.036 48.4531 128.892L11.547 107.49C4.4017 103.347 9.9602e-09 95.689 8.3446e-09 87.4018L0 44.5982C-1.61559e-09 36.311 4.4017 28.6533 11.547 24.5097L48.4531 3.1077C55.5982 -1.0359 64.4018 -1.0359 71.5469 3.1077L108.453 24.5097C115.598 28.6533 120 36.311 120 44.5982V87.4018C120 95.689 115.598 103.347 108.453 107.49L71.5469 128.892Z" fill="url(#paint0_linear_11297_2184)"/>
<g filter="url(#filter0_d_11297_2184)">
<path d="M70.2657 117.288C64.4327 120.741 57.2461 120.741 51.4134 117.288L21.286 99.4535C15.4531 96.0004 11.8599 89.619 11.8599 82.7129V47.0431C11.8599 40.1371 15.4531 33.7558 21.286 30.3028L51.4134 12.4678C57.2461 9.0148 64.4327 9.0148 70.2657 12.4678L100.393 30.3028C106.226 33.7558 109.819 40.1371 109.819 47.0431V82.7129C109.819 89.619 106.226 96.0004 100.393 99.4535L70.2657 117.288Z" fill="url(#paint1_linear_11297_2184)"/>
<path d="M51.6869 12.9264C57.3509 9.57368 64.3278 9.57368 69.992 12.9264L100.119 30.7633C105.785 34.1176 109.283 40.3216 109.283 47.0435V82.7124C109.283 89.4344 105.785 95.6384 100.119 98.9929L69.992 116.83C64.3278 120.182 57.3509 120.182 51.6869 116.83L21.5601 98.9929C15.8938 95.6384 12.3955 89.4344 12.3955 82.7124V47.0435C12.3955 40.3216 15.8938 34.1176 21.5601 30.7633L51.6869 12.9264Z" stroke="#FFF1A6" stroke-opacity="0.83" stroke-width="0.437268"/>
</g>
<g filter="url(#filter1_d_11297_2184)">
<path d="M46.2424 81.5605C36.5638 81.5605 32.3606 74.0996 32.3606 65.4592C32.3606 56.4561 36.9953 49.1538 46.2196 49.1538C56.4439 49.1538 60.1244 57.0005 60.1244 65.3458C60.1244 74.1223 55.7621 81.5605 46.2424 81.5605ZM46.2424 73.7593C49.5142 73.7593 51.5589 70.6297 51.5589 65.3458C51.5589 60.0619 49.4915 56.955 46.1971 56.955C42.9936 56.955 40.9259 60.0846 40.9259 65.3685C40.9259 70.6525 42.9936 73.7593 46.2424 73.7593ZM86.7977 80.7668H62.4419V76.1405L71.3934 68.0445C75.5057 64.3252 77.5279 62.0575 77.5279 59.7444C77.5279 58.2249 76.5282 57.0005 74.5516 57.0005C72.5523 57.0005 70.7574 57.8621 70.7574 62.6699H62.3055C62.3055 56.6829 64.7138 49.1993 74.3244 49.1993C82.2309 49.1993 86.0934 54.0977 86.0934 59.7444C86.0934 63.5315 84.1621 66.888 80.5952 69.8587L75.2332 74.3265L78.7776 73.4645H86.7977V80.7668Z" fill="#FFFCED"/>
</g>
</g>
<defs>
<filter id="filter0_d_11297_2184" x="11.8599" y="9.87805" width="97.9592" height="111.749" filterUnits="userSpaceOnUse" color-interpolation-filters="sRGB">
<feFlood flood-opacity="0" result="BackgroundImageFix"/>
<feColorMatrix in="SourceAlpha" type="matrix" values="0 0 0 0 0 0 0 0 0 0 0 0 0 0 0 0 0 0 127 0" result="hardAlpha"/>
<feOffset dy="1.74907"/>
<feComposite in2="hardAlpha" operator="out"/>
<feColorMatrix type="matrix" values="0 0 0 0 0.846049 0 0 0 0 0.711246 0 0 0 0 0.0088481 0 0 0 1 0"/>
<feBlend mode="normal" in2="BackgroundImageFix" result="effect1_dropShadow_11297_2184"/>
<feBlend mode="normal" in="SourceGraphic" in2="effect1_dropShadow_11297_2184" result="shape"/>
</filter>
<filter id="filter1_d_11297_2184" x="31.62" y="48.7352" width="55.9184" height="33.8879" filterUnits="userSpaceOnUse" color-interpolation-filters="sRGB">
<feFlood flood-opacity="0" result="BackgroundImageFix"/>
<feColorMatrix in="SourceAlpha" type="matrix" values="0 0 0 0 0 0 0 0 0 0 0 0 0 0 0 0 0 0 127 0" result="hardAlpha"/>
<feOffset dy="0.321989"/>
<feGaussianBlur stdDeviation="0.370287"/>
<feComposite in2="hardAlpha" operator="out"/>
<feColorMatrix type="matrix" values="0 0 0 0 0.756863 0 0 0 0 0.698039 0 0 0 0 0.396078 0 0 0 1 0"/>
<feBlend mode="normal" in2="BackgroundImageFix" result="effect1_dropShadow_11297_2184"/>
<feBlend mode="normal" in="SourceGraphic" in2="effect1_dropShadow_11297_2184" result="shape"/>
</filter>
<linearGradient id="paint0_linear_11297_2184" x1="60.0015" y1="135.588" x2="60.0015" y2="-3.58854" gradientUnits="userSpaceOnUse">
<stop stop-color="#E1C534"/>
<stop offset="1" stop-color="#F9E683"/>
</linearGradient>
<linearGradient id="paint1_linear_11297_2184" x1="10.1667" y1="70.7755" x2="109.287" y2="62.4747" gradientUnits="userSpaceOnUse">
<stop stop-color="#E1C534"/>
<stop offset="1" stop-color="#FDE565"/>
</linearGradient>
<clipPath id="clip0_11297_2184">
<rect width="120" height="132" fill="white"/>
</clipPath>
</defs>
</svg>
