<svg width="120" height="120" viewBox="0 0 120 120" fill="none" xmlns="http://www.w3.org/2000/svg">
<g clip-path="url(#clip0_11297_2205)">
<path d="M45.346 4.81458C50.7271 2.18069 53.4174 0.863744 56.231 0.344798C58.7234 -0.114933 61.2768 -0.114933 63.769 0.344798C66.5826 0.863744 69.2729 2.18069 74.654 4.81458L94.8564 14.7034C100.237 17.3373 102.928 18.6542 105.081 20.5664C106.989 22.2604 108.581 24.2896 109.781 26.5568C111.136 29.1161 111.801 32.0752 113.13 37.9935L118.119 60.2134C119.448 66.1317 120.113 69.0909 119.984 71.9944C119.871 74.5665 119.302 77.0967 118.307 79.4643C117.183 82.1367 115.321 84.5099 111.597 89.256L97.6169 107.075C93.8934 111.821 92.0313 114.194 89.7181 115.902C87.6689 117.416 85.3683 118.542 82.9264 119.227C80.1702 120 77.184 120 71.2116 120H48.7884C42.816 120 39.8298 120 37.0736 119.227C34.6317 118.542 32.3311 117.416 30.2819 115.902C27.9687 114.194 26.1066 111.821 22.383 107.075L8.40245 89.256C4.67872 84.5099 2.81686 82.1367 1.69305 79.4643C0.697478 77.0967 0.129284 74.5665 0.0156377 71.9944C-0.112648 69.0909 0.551847 66.1317 1.88083 60.2134L6.87041 37.9935C8.1994 32.0752 8.86389 29.1161 10.2189 26.5568C11.4192 24.2896 13.0113 22.2604 14.9189 20.5664C17.0722 18.6542 19.7626 17.3373 25.1436 14.7034L45.346 4.81458Z" fill="url(#paint0_linear_11297_2205)"/>
<g filter="url(#filter0_d_11297_2205)">
<path d="M48.4165 16.3724C52.6701 14.2903 54.7969 13.2493 57.0207 12.8391C58.9908 12.4757 61.0093 12.4757 62.9794 12.8391C65.2035 13.2493 67.3303 14.2903 71.5836 16.3724L87.5533 24.1892C91.8067 26.2711 93.9335 27.3123 95.6357 28.8238C97.1436 30.1629 98.4021 31.7668 99.3509 33.5592C100.422 35.5821 100.947 37.9213 101.998 42.5995L105.942 60.164C106.993 64.8422 107.518 67.1814 107.416 69.4765C107.327 71.5096 106.877 73.5097 106.09 75.3812C105.202 77.4937 103.73 79.3696 100.787 83.1212L89.7355 97.2067C86.792 100.958 85.3203 102.834 83.4917 104.185C81.8717 105.381 80.0531 106.271 78.1229 106.813C75.9442 107.424 73.5835 107.424 68.8624 107.424H51.1377C46.4166 107.424 44.0561 107.424 41.8772 106.813C39.947 106.271 38.1287 105.381 36.5087 104.185C34.6801 102.834 33.2081 100.958 30.2648 97.2067L19.2135 83.1212C16.2699 79.3696 14.7982 77.4937 13.9098 75.3812C13.1229 73.5097 12.6737 71.5096 12.5839 69.4765C12.4825 67.1814 13.0078 64.8422 14.0583 60.164L18.0024 42.5995C19.053 37.9213 19.5782 35.5821 20.6493 33.5592C21.5981 31.7668 22.8566 30.1629 24.3646 28.8238C26.0666 27.3123 28.1934 26.2711 32.447 24.1892L48.4165 16.3724Z" fill="url(#paint1_linear_11297_2205)"/>
<path d="M57.1251 13.4118C59.0255 13.0613 60.9746 13.0613 62.8749 13.4118C65.0012 13.8042 67.045 14.7989 71.3272 16.895L87.2972 24.7117C91.5799 26.8078 93.6197 27.813 95.2486 29.2597C96.7042 30.5521 97.92 32.1014 98.8363 33.8324C99.8622 35.77 100.372 38.0176 101.43 42.7262L105.374 60.2919C106.431 65.0003 106.932 67.2509 106.835 69.45C106.748 71.4141 106.314 73.3471 105.554 75.1545C104.703 77.1782 103.291 78.9851 100.327 82.7618L89.2769 96.8467C86.3135 100.624 84.8959 102.424 83.1457 103.716C81.5824 104.871 79.8266 105.73 77.9645 106.252C75.8814 106.836 73.6146 106.84 68.8614 106.84H51.1386C46.3854 106.84 44.1186 106.836 42.0355 106.252C40.1735 105.73 38.4176 104.871 36.8543 103.716C35.1041 102.424 33.6866 100.624 30.7231 96.8467L19.6726 82.7618C16.7093 78.9851 15.2974 77.1782 14.4465 75.1545C13.6865 73.3471 13.2517 71.4141 13.1649 69.45C13.0679 67.2509 13.5687 65.0003 14.626 60.2919L18.5705 42.7262C19.6278 38.0176 20.1379 35.77 21.1636 33.8324C22.08 32.1014 23.296 30.5521 24.7515 29.2597C26.3803 27.813 28.4201 26.8081 32.7028 24.7117L48.6728 16.895C52.955 14.7989 54.9988 13.8042 57.1251 13.4118Z" stroke="#FFB0BD" stroke-width="0.456284"/>
</g>
<g filter="url(#filter1_d_11297_2205)">
<path d="M45.3041 79.5496C34.9044 79.5496 30.3881 71.518 30.3881 62.2167C30.3881 52.5251 35.3683 44.6641 45.2796 44.6641C56.2654 44.6641 60.2201 53.1108 60.2201 62.0947C60.2201 71.5423 55.5329 79.5496 45.3041 79.5496ZM45.3041 71.1516C48.8196 71.1516 51.0166 67.7827 51.0166 62.0947C51.0166 56.4067 48.795 53.062 45.2553 53.062C41.8131 53.062 39.5915 56.431 39.5915 62.1192C39.5915 67.8072 41.8131 71.1516 45.3041 71.1516ZM88.8804 78.6953H62.7102V73.715L72.3288 64.9997C76.7474 60.9961 78.9201 58.555 78.9201 56.0648C78.9201 54.4293 77.846 53.1108 75.722 53.1108C73.5738 53.1108 71.6451 54.0386 71.6451 59.2139H62.5636C62.5636 52.7692 65.1516 44.7131 75.4779 44.7131C83.9734 44.7131 88.1236 49.9862 88.1236 56.0648C88.1236 60.1418 86.0487 63.7548 82.2158 66.9529L76.4545 71.7621L80.2629 70.8343H88.8804V78.6953Z" fill="#FFE3E7"/>
</g>
</g>
<defs>
<filter id="filter0_d_11297_2205" x="12.5715" y="12.5665" width="94.8572" height="96.6824" filterUnits="userSpaceOnUse" color-interpolation-filters="sRGB">
<feFlood flood-opacity="0" result="BackgroundImageFix"/>
<feColorMatrix in="SourceAlpha" type="matrix" values="0 0 0 0 0 0 0 0 0 0 0 0 0 0 0 0 0 0 127 0" result="hardAlpha"/>
<feOffset dy="1.82513"/>
<feComposite in2="hardAlpha" operator="out"/>
<feColorMatrix type="matrix" values="0 0 0 0 0.80927 0 0 0 0 0.231984 0 0 0 0 0.363518 0 0 0 1 0"/>
<feBlend mode="normal" in2="BackgroundImageFix" result="effect1_dropShadow_11297_2205"/>
<feBlend mode="normal" in="SourceGraphic" in2="effect1_dropShadow_11297_2205" result="shape"/>
</filter>
<filter id="filter1_d_11297_2205" x="29.6019" y="44.2197" width="60.0646" height="36.4578" filterUnits="userSpaceOnUse" color-interpolation-filters="sRGB">
<feFlood flood-opacity="0" result="BackgroundImageFix"/>
<feColorMatrix in="SourceAlpha" type="matrix" values="0 0 0 0 0 0 0 0 0 0 0 0 0 0 0 0 0 0 127 0" result="hardAlpha"/>
<feOffset dy="0.341798"/>
<feGaussianBlur stdDeviation="0.393068"/>
<feComposite in2="hardAlpha" operator="out"/>
<feColorMatrix type="matrix" values="0 0 0 0 0.760784 0 0 0 0 0.168627 0 0 0 0 0.317647 0 0 0 1 0"/>
<feBlend mode="normal" in2="BackgroundImageFix" result="effect1_dropShadow_11297_2205"/>
<feBlend mode="normal" in="SourceGraphic" in2="effect1_dropShadow_11297_2205" result="shape"/>
</filter>
<linearGradient id="paint0_linear_11297_2205" x1="60.0015" y1="123.262" x2="60.0015" y2="-3.26229" gradientUnits="userSpaceOnUse">
<stop stop-color="#FA3768"/>
<stop offset="1" stop-color="#FCA7B4"/>
</linearGradient>
<linearGradient id="paint1_linear_11297_2205" x1="10.932" y1="65.0806" x2="106.739" y2="56.0712" gradientUnits="userSpaceOnUse">
<stop stop-color="#E0315D"/>
<stop offset="1" stop-color="#FB7C93"/>
</linearGradient>
<clipPath id="clip0_11297_2205">
<rect width="120" height="120" fill="white"/>
</clipPath>
</defs>
</svg>
