<svg width="47" height="47" viewBox="0 0 47 47" fill="none" xmlns="http://www.w3.org/2000/svg">
<path d="M17.7605 1.88571C19.8681 0.854105 20.9218 0.3383 22.0238 0.135046C23 -0.0450152 24.0001 -0.0450152 24.9762 0.135046C26.0782 0.3383 27.1319 0.854105 29.2395 1.88571L37.1521 5.75882C39.2596 6.79043 40.3134 7.30624 41.1568 8.05518C41.9039 8.71866 42.5275 9.51341 42.9976 10.4014C43.5283 11.4038 43.7886 12.5628 44.3091 14.8808L46.2633 23.5836C46.7839 25.9016 47.0441 27.0606 46.9939 28.1978C46.9494 29.2052 46.7268 30.1962 46.3369 31.1235C45.8967 32.1702 45.1675 33.0997 43.709 34.9586L38.2333 41.9377C36.7749 43.7966 36.0456 44.726 35.1396 45.3951C34.337 45.9878 33.4359 46.4289 32.4795 46.6972C31.4 47 30.2304 47 27.8912 47H19.1088C16.7696 47 15.6 47 14.5205 46.6972C13.5641 46.4289 12.663 45.9878 11.8604 45.3951C10.9544 44.726 10.2251 43.7966 8.76666 41.9377L3.29096 34.9586C1.8325 33.0997 1.10327 32.1702 0.66311 31.1235C0.273179 30.1962 0.0506364 29.2052 0.00612476 28.1978C-0.0441203 27.0606 0.21614 25.9016 0.73666 23.5836L2.69091 14.8808C3.21143 12.5628 3.47169 11.4038 4.00239 10.4014C4.47253 9.51341 5.09608 8.71866 5.84322 8.05518C6.6866 7.30624 7.74037 6.79043 9.84791 5.75882L17.7605 1.88571Z" fill="url(#paint0_linear_487_16783)"/>
<g filter="url(#filter0_d_487_16783)">
<path d="M18.9636 6.41249C20.6296 5.59702 21.4625 5.18929 22.3336 5.02863C23.1052 4.88629 23.8958 4.88629 24.6674 5.02863C25.5385 5.18929 26.3715 5.59702 28.0374 6.41249L34.2922 9.47409C35.9581 10.2895 36.7911 10.6973 37.4578 11.2893C38.0484 11.8138 38.5413 12.442 38.9129 13.144C39.3324 13.9363 39.5381 14.8525 39.9496 16.6848L41.4944 23.5642C41.9058 25.3965 42.1116 26.3127 42.0719 27.2116C42.0367 28.0079 41.8608 28.7913 41.5525 29.5243C41.2046 30.3517 40.6282 31.0864 39.4753 32.5558L35.1469 38.0726C33.994 39.542 33.4175 40.2767 32.7013 40.8056C32.0669 41.2742 31.3546 41.6228 30.5986 41.8349C29.7452 42.0743 28.8207 42.0743 26.9716 42.0743H20.0294C18.1803 42.0743 17.2558 42.0743 16.4024 41.8349C15.6464 41.6228 14.9342 41.2742 14.2997 40.8056C13.5835 40.2767 13.007 39.542 11.8542 38.0726L7.52574 32.5558C6.37286 31.0864 5.79642 30.3517 5.44849 29.5243C5.14026 28.7913 4.96434 28.0079 4.92916 27.2116C4.88944 26.3127 5.09517 25.3965 5.50663 23.5642L7.05142 16.6848C7.46288 14.8525 7.66861 13.9363 8.08811 13.144C8.45974 12.442 8.95265 11.8138 9.54324 11.2893C10.2099 10.6973 11.0429 10.2895 12.7089 9.47409L18.9636 6.41249Z" fill="url(#paint1_linear_487_16783)"/>
<path d="M22.3745 5.25293C23.1188 5.11564 23.8822 5.11564 24.6265 5.25293C25.4593 5.40663 26.2598 5.79622 27.937 6.61719L34.1919 9.67871C35.8692 10.4997 36.6682 10.8934 37.3062 11.46C37.8762 11.9662 38.3525 12.573 38.7114 13.251C39.1132 14.0099 39.3129 14.8902 39.7271 16.7344L41.272 23.6143C41.6861 25.4584 41.8822 26.3399 41.8442 27.2012C41.8102 27.9705 41.64 28.7276 41.3423 29.4355C41.009 30.2281 40.456 30.9358 39.2954 32.415L34.9673 37.9316C33.8065 39.4111 33.2514 40.1159 32.5659 40.6221C31.9536 41.0743 31.2659 41.4107 30.5366 41.6152C29.7207 41.8441 28.8329 41.8457 26.9712 41.8457H20.0298C18.168 41.8457 17.2803 41.8441 16.4644 41.6152C15.7351 41.4107 15.0474 41.0743 14.4351 40.6221C13.7496 40.1159 13.1944 39.4111 12.0337 37.9316L7.70557 32.415C6.54495 30.9358 5.99196 30.2281 5.65869 29.4355C5.36102 28.7276 5.19073 27.9705 5.15674 27.2012C5.11874 26.3399 5.31489 25.4584 5.729 23.6143L7.27393 16.7344C7.68803 14.8902 7.88782 14.0099 8.28955 13.251C8.64849 12.573 9.12474 11.9662 9.69482 11.46C10.3328 10.8934 11.1317 10.4998 12.8091 9.67871L19.064 6.61719C20.7412 5.79622 21.5417 5.40663 22.3745 5.25293Z" stroke="#FFB0BD" stroke-width="0.456284"/>
</g>
<g filter="url(#filter1_d_487_16783)">
<path d="M17.7436 31.1569C13.6704 31.1569 11.9015 28.0112 11.9015 24.3682C11.9015 20.5723 13.8521 17.4934 17.7341 17.4934C22.0368 17.4934 23.5857 20.8017 23.5857 24.3204C23.5857 28.0207 21.7499 31.1569 17.7436 31.1569ZM17.7436 27.8677C19.1205 27.8677 19.981 26.5482 19.981 24.3204C19.981 22.0926 19.1109 20.7826 17.7245 20.7826C16.3763 20.7826 15.5062 22.1021 15.5062 24.33C15.5062 26.5578 16.3763 27.8677 17.7436 27.8677ZM33.7975 30.8223H30.1928V28.3841H24.3124L24.0543 25.8598L29.7051 17.7899H33.7975V25.4582H35.5186V28.3841H33.7975V30.8223ZM30.1928 22.1021L27.898 25.4869H30.1928V22.1021Z" fill="#FFE3E7"/>
</g>
<defs>
<filter id="filter0_d_487_16783" x="4.92432" y="4.92188" width="37.1523" height="38.9775" filterUnits="userSpaceOnUse" color-interpolation-filters="sRGB">
<feFlood flood-opacity="0" result="BackgroundImageFix"/>
<feColorMatrix in="SourceAlpha" type="matrix" values="0 0 0 0 0 0 0 0 0 0 0 0 0 0 0 0 0 0 127 0" result="hardAlpha"/>
<feOffset dy="1.82513"/>
<feComposite in2="hardAlpha" operator="out"/>
<feColorMatrix type="matrix" values="0 0 0 0 0.80927 0 0 0 0 0.231984 0 0 0 0 0.363518 0 0 0 1 0"/>
<feBlend mode="normal" in2="BackgroundImageFix" result="effect1_dropShadow_487_16783"/>
<feBlend mode="normal" in="SourceGraphic" in2="effect1_dropShadow_487_16783" result="shape"/>
</filter>
<filter id="filter1_d_487_16783" x="11.1152" y="17.0488" width="25.1895" height="15.2363" filterUnits="userSpaceOnUse" color-interpolation-filters="sRGB">
<feFlood flood-opacity="0" result="BackgroundImageFix"/>
<feColorMatrix in="SourceAlpha" type="matrix" values="0 0 0 0 0 0 0 0 0 0 0 0 0 0 0 0 0 0 127 0" result="hardAlpha"/>
<feOffset dy="0.341798"/>
<feGaussianBlur stdDeviation="0.393068"/>
<feComposite in2="hardAlpha" operator="out"/>
<feColorMatrix type="matrix" values="0 0 0 0 0.760784 0 0 0 0 0.168627 0 0 0 0 0.317647 0 0 0 1 0"/>
<feBlend mode="normal" in2="BackgroundImageFix" result="effect1_dropShadow_487_16783"/>
<feBlend mode="normal" in="SourceGraphic" in2="effect1_dropShadow_487_16783" result="shape"/>
</filter>
<linearGradient id="paint0_linear_487_16783" x1="23.5006" y1="48.2777" x2="23.5006" y2="-1.27773" gradientUnits="userSpaceOnUse">
<stop stop-color="#FA3768"/>
<stop offset="1" stop-color="#FCA7B4"/>
</linearGradient>
<linearGradient id="paint1_linear_487_16783" x1="4.28215" y1="25.4899" x2="41.8067" y2="21.9612" gradientUnits="userSpaceOnUse">
<stop stop-color="#E0315D"/>
<stop offset="1" stop-color="#FB7C93"/>
</linearGradient>
</defs>
</svg>
