<svg width="47" height="47" viewBox="0 0 47 47" fill="none" xmlns="http://www.w3.org/2000/svg">
<path d="M17.7605 1.88571C19.8681 0.854105 20.9218 0.3383 22.0238 0.135046C23 -0.0450152 24.0001 -0.0450152 24.9762 0.135046C26.0782 0.3383 27.1319 0.854105 29.2395 1.88571L37.1521 5.75882C39.2596 6.79043 40.3134 7.30624 41.1568 8.05518C41.9039 8.71866 42.5275 9.51341 42.9976 10.4014C43.5283 11.4038 43.7886 12.5628 44.3091 14.8808L46.2633 23.5836C46.7839 25.9016 47.0441 27.0606 46.9939 28.1978C46.9494 29.2052 46.7268 30.1962 46.3369 31.1235C45.8967 32.1702 45.1675 33.0997 43.709 34.9586L38.2333 41.9377C36.7749 43.7966 36.0456 44.726 35.1396 45.3951C34.337 45.9878 33.4359 46.4289 32.4795 46.6972C31.4 47 30.2304 47 27.8912 47H19.1088C16.7696 47 15.6 47 14.5205 46.6972C13.5641 46.4289 12.663 45.9878 11.8604 45.3951C10.9544 44.726 10.2251 43.7966 8.76666 41.9377L3.29096 34.9586C1.8325 33.0997 1.10327 32.1702 0.66311 31.1235C0.273179 30.1962 0.0506364 29.2052 0.00612476 28.1978C-0.0441203 27.0606 0.21614 25.9016 0.73666 23.5836L2.69091 14.8808C3.21143 12.5628 3.47169 11.4038 4.00239 10.4014C4.47253 9.51341 5.09608 8.71866 5.84322 8.05518C6.6866 7.30624 7.74037 6.79043 9.84791 5.75882L17.7605 1.88571Z" fill="url(#paint0_linear_795_18158)"/>
<path d="M23.0264 5.56934C23.3397 5.51157 23.6603 5.51157 23.9736 5.56934C24.1544 5.60269 24.4206 5.68023 26.8096 6.84961L34.7227 10.7227C37.1066 11.8895 37.3389 12.0557 37.4873 12.1875C37.7376 12.4097 37.9505 12.6799 38.1133 12.9873C38.2167 13.1827 38.3296 13.4758 38.917 16.0918L40.8711 24.7939C41.4579 27.4071 41.4828 27.7253 41.4727 27.9541C41.4569 28.3101 41.3781 28.6583 41.2422 28.9814C41.1573 29.1833 41.0061 29.4505 39.3613 31.5469L33.8857 38.5264C32.2358 40.6293 32.0182 40.8297 31.8564 40.9492C31.5902 41.1458 31.2956 41.2894 30.9873 41.376C30.8115 41.4253 30.5428 41.4736 27.8916 41.4736H19.1084C16.4572 41.4736 16.1885 41.4253 16.0127 41.376C15.7044 41.2894 15.4098 41.1458 15.1436 40.9492C14.9818 40.8297 14.7642 40.6293 13.1143 38.5264L7.63867 31.5469C5.99383 29.4504 5.84274 29.1833 5.75781 28.9814C5.62193 28.6583 5.5431 28.3101 5.52734 27.9541C5.51724 27.7254 5.54212 27.4071 6.12891 24.7939L8.08301 16.0918C8.67044 13.4758 8.78327 13.1827 8.88672 12.9873C9.04945 12.6799 9.26245 12.4097 9.5127 12.1875C9.66108 12.0557 9.89344 11.8895 12.2773 10.7227L20.1904 6.84961C22.5794 5.68023 22.8456 5.60269 23.0264 5.56934Z" stroke="url(#paint1_linear_795_18158)" stroke-opacity="0.4" stroke-width="11.0526"/>
<g filter="url(#filter0_d_795_18158)">
<path d="M18.9636 6.41249C20.6296 5.59702 21.4625 5.18929 22.3336 5.02863C23.1052 4.88629 23.8958 4.88629 24.6674 5.02863C25.5385 5.18929 26.3715 5.59702 28.0374 6.41249L34.2922 9.47409C35.9581 10.2895 36.7911 10.6973 37.4578 11.2893C38.0484 11.8138 38.5413 12.442 38.9129 13.144C39.3324 13.9363 39.5381 14.8525 39.9496 16.6848L41.4944 23.5642C41.9058 25.3965 42.1116 26.3127 42.0719 27.2116C42.0367 28.0079 41.8608 28.7913 41.5525 29.5243C41.2046 30.3517 40.6282 31.0864 39.4753 32.5558L35.1469 38.0726C33.994 39.542 33.4175 40.2767 32.7013 40.8056C32.0669 41.2742 31.3546 41.6228 30.5986 41.8349C29.7452 42.0743 28.8207 42.0743 26.9716 42.0743H20.0294C18.1803 42.0743 17.2558 42.0743 16.4024 41.8349C15.6464 41.6228 14.9342 41.2742 14.2997 40.8056C13.5835 40.2767 13.007 39.542 11.8542 38.0726L7.52574 32.5558C6.37286 31.0864 5.79642 30.3517 5.44849 29.5243C5.14026 28.7913 4.96434 28.0079 4.92916 27.2116C4.88944 26.3127 5.09517 25.3965 5.50663 23.5642L7.05142 16.6848C7.46288 14.8525 7.66861 13.9363 8.08811 13.144C8.45974 12.442 8.95265 11.8138 9.54324 11.2893C10.2099 10.6973 11.0429 10.2895 12.7089 9.47409L18.9636 6.41249Z" fill="url(#paint2_linear_795_18158)" shape-rendering="crispEdges"/>
<path d="M22.4243 5.52051C23.136 5.38924 23.865 5.38924 24.5767 5.52051C25.3644 5.6658 26.1264 6.0334 27.8179 6.86133L34.0728 9.92285C35.7634 10.7504 36.5218 11.127 37.1255 11.6631C37.6711 12.1476 38.1274 12.7285 38.4712 13.3779C38.852 14.0972 39.044 14.9351 39.4614 16.7939L41.0063 23.6738C41.4238 25.5328 41.6088 26.3728 41.5728 27.1895C41.5402 27.9268 41.3765 28.6518 41.0913 29.3301C40.7755 30.081 40.2514 30.756 39.0815 32.2471L34.7534 37.7637C33.5834 39.2549 33.0535 39.9242 32.4048 40.4033C31.8188 40.836 31.1608 41.1579 30.4634 41.3535C29.6918 41.5699 28.8484 41.5742 26.9712 41.5742H20.0298C18.1526 41.5742 17.3092 41.5699 16.5376 41.3535C15.8403 41.1579 15.1831 40.8359 14.5972 40.4033C13.9483 39.9242 13.4178 39.2552 12.2476 37.7637L7.91943 32.2471C6.7496 30.756 6.22546 30.081 5.90967 29.3301C5.62448 28.6518 5.4608 27.9268 5.42822 27.1895C5.39215 26.3728 5.5772 25.5328 5.99463 23.6738L7.53955 16.7939C7.95697 14.9351 8.14901 14.0972 8.52979 13.3779C8.87361 12.7285 9.32984 12.1476 9.87549 11.6631C10.4792 11.127 11.2376 10.7504 12.9282 9.92285L19.1831 6.86133C20.8745 6.0334 21.6366 5.6658 22.4243 5.52051Z" stroke="#FFCB9D" shape-rendering="crispEdges"/>
</g>
<g filter="url(#filter1_d_795_18158)">
<path d="M17.7436 31.1569C13.6704 31.1569 11.9015 28.0112 11.9015 24.3682C11.9015 20.5723 13.8521 17.4934 17.7341 17.4934C22.0368 17.4934 23.5857 20.8017 23.5857 24.3204C23.5857 28.0207 21.7499 31.1569 17.7436 31.1569ZM17.7436 27.8677C19.1205 27.8677 19.981 26.5482 19.981 24.3204C19.981 22.0926 19.1109 20.7826 17.7245 20.7826C16.3763 20.7826 15.5062 22.1021 15.5062 24.33C15.5062 26.5578 16.3763 27.8677 17.7436 27.8677ZM33.7975 30.8223H30.1928V28.3841H24.3124L24.0543 25.8598L29.7051 17.7899H33.7975V25.4582H35.5186V28.3841H33.7975V30.8223ZM30.1928 22.1021L27.898 25.4869H30.1928V22.1021Z" fill="#FFEDE6"/>
</g>
<defs>
<filter id="filter0_d_795_18158" x="4.92432" y="4.92188" width="37.1524" height="41.1523" filterUnits="userSpaceOnUse" color-interpolation-filters="sRGB">
<feFlood flood-opacity="0" result="BackgroundImageFix"/>
<feColorMatrix in="SourceAlpha" type="matrix" values="0 0 0 0 0 0 0 0 0 0 0 0 0 0 0 0 0 0 127 0" result="hardAlpha"/>
<feOffset dy="4"/>
<feComposite in2="hardAlpha" operator="out"/>
<feColorMatrix type="matrix" values="0 0 0 0 0.872728 0 0 0 0 0.473686 0 0 0 0 0.0448099 0 0 0 1 0"/>
<feBlend mode="normal" in2="BackgroundImageFix" result="effect1_dropShadow_795_18158"/>
<feBlend mode="normal" in="SourceGraphic" in2="effect1_dropShadow_795_18158" result="shape"/>
</filter>
<filter id="filter1_d_795_18158" x="11.1154" y="17.0498" width="25.1893" height="15.2344" filterUnits="userSpaceOnUse" color-interpolation-filters="sRGB">
<feFlood flood-opacity="0" result="BackgroundImageFix"/>
<feColorMatrix in="SourceAlpha" type="matrix" values="0 0 0 0 0 0 0 0 0 0 0 0 0 0 0 0 0 0 127 0" result="hardAlpha"/>
<feOffset dy="0.341798"/>
<feGaussianBlur stdDeviation="0.393068"/>
<feComposite in2="hardAlpha" operator="out"/>
<feColorMatrix type="matrix" values="0 0 0 0 0.760784 0 0 0 0 0.168627 0 0 0 0 0.317647 0 0 0 1 0"/>
<feBlend mode="normal" in2="BackgroundImageFix" result="effect1_dropShadow_795_18158"/>
<feBlend mode="normal" in="SourceGraphic" in2="effect1_dropShadow_795_18158" result="shape"/>
</filter>
<linearGradient id="paint0_linear_795_18158" x1="23.5008" y1="-0.923735" x2="23.5008" y2="50.9371" gradientUnits="userSpaceOnUse">
<stop stop-color="#FFB986"/>
<stop offset="1" stop-color="#F56600"/>
</linearGradient>
<linearGradient id="paint1_linear_795_18158" x1="23.5" y1="0" x2="23.5" y2="47" gradientUnits="userSpaceOnUse">
<stop stop-color="white"/>
<stop offset="1" stop-color="#FEA12B"/>
</linearGradient>
<linearGradient id="paint2_linear_795_18158" x1="4.28215" y1="25.4899" x2="41.8067" y2="21.9612" gradientUnits="userSpaceOnUse">
<stop stop-color="#FA7907"/>
<stop offset="1" stop-color="#FFA700" stop-opacity="0.499"/>
</linearGradient>
</defs>
</svg>
