<svg width="120" height="120" viewBox="0 0 120 120" fill="none" xmlns="http://www.w3.org/2000/svg">
<path d="M71.9242 113.616C64.2046 119.402 53.7511 119.402 46.0313 113.616L9.08086 85.9198C1.36109 80.1334 -1.86917 69.877 1.07952 60.5146L15.1933 15.7013C18.1421 6.33886 26.599 1.07443e-08 36.1411 8.88754e-09L81.8146 0C91.3567 -1.85678e-09 99.8136 6.33886 102.762 15.7013L116.876 60.5146C119.825 69.877 116.594 80.1334 108.875 85.9198L71.9242 113.616Z" fill="url(#paint0_linear_11297_2191)"/>
<g filter="url(#filter0_d_11297_2191)">
<path d="M69.2517 102.521C63.1257 107.168 54.8308 107.168 48.7051 102.521L19.3841 80.2785C13.2583 75.6316 10.695 67.3948 13.0349 59.8761L24.2344 23.8875C26.5742 16.3687 33.2851 11.2781 40.8571 11.2781H77.0997C84.6715 11.2781 91.3824 16.3687 93.7221 23.8875L104.922 59.8761C107.262 67.3951 104.698 75.6316 98.5725 80.2785L69.2517 102.521Z" fill="url(#paint1_linear_11297_2191)"/>
<path d="M40.8563 11.8944H77.1002C84.3873 11.8946 90.8694 16.7953 93.1336 24.0702L104.332 60.0585C106.597 67.3374 104.113 75.3032 98.201 79.7881L68.8783 102.03C62.9731 106.509 54.9835 106.509 49.0783 102.03L19.7556 79.7881C13.8434 75.3032 11.3591 67.3374 13.6243 60.0585L24.8227 24.0702C27.0868 16.7953 33.5692 11.8947 40.8563 11.8944Z" stroke="#82FCFC" stroke-opacity="0.83" stroke-width="0.513736"/>
</g>
<g filter="url(#filter1_d_11297_2191)">
<path d="M44.119 75.5369C33.991 75.5369 29.5928 67.7148 29.5928 58.6567C29.5928 49.2183 34.4427 41.5627 44.0953 41.5627C54.794 41.5627 58.6455 49.7887 58.6455 58.5379C58.6455 67.7388 54.0807 75.5369 44.119 75.5369ZM44.119 67.3584C47.5426 67.3584 49.6825 64.0774 49.6825 58.5379C49.6825 52.9983 47.5189 49.7412 44.0715 49.7412C40.7192 49.7412 38.5558 53.022 38.5558 58.5617C38.5558 64.1011 40.7192 67.3584 44.119 67.3584ZM73.6712 75.5369C66.3723 75.5369 60.6188 71.8517 60.4284 62.9599H69.2965C69.5105 66.3123 71.3888 67.4297 73.885 67.4297C75.8821 67.4297 77.3799 66.0269 77.3799 64.0774C77.3799 62.2942 76.0486 60.4875 73.2432 60.4875H67.466V56.089L72.9104 49.5509H62.378V42.3711H83.6089V46.8646L76.7619 54.3773C82.3964 55.2094 86.3907 57.4205 86.3907 64.339C86.3907 70.8055 80.8748 75.5369 73.6712 75.5369Z" fill="#E9FFFF"/>
</g>
<defs>
<filter id="filter0_d_11297_2191" x="12.1782" y="11.2781" width="93.6001" height="96.7827" filterUnits="userSpaceOnUse" color-interpolation-filters="sRGB">
<feFlood flood-opacity="0" result="BackgroundImageFix"/>
<feColorMatrix in="SourceAlpha" type="matrix" values="0 0 0 0 0 0 0 0 0 0 0 0 0 0 0 0 0 0 127 0" result="hardAlpha"/>
<feOffset dy="2.05494"/>
<feComposite in2="hardAlpha" operator="out"/>
<feColorMatrix type="matrix" values="0 0 0 0 0.136486 0 0 0 0 0.828146 0 0 0 0 0.828146 0 0 0 1 0"/>
<feBlend mode="multiply" in2="BackgroundImageFix" result="effect1_dropShadow_11297_2191"/>
<feBlend mode="normal" in="SourceGraphic" in2="effect1_dropShadow_11297_2191" result="shape"/>
</filter>
<filter id="filter1_d_11297_2191" x="28.7687" y="41.097" width="58.446" height="35.6222" filterUnits="userSpaceOnUse" color-interpolation-filters="sRGB">
<feFlood flood-opacity="0" result="BackgroundImageFix"/>
<feColorMatrix in="SourceAlpha" type="matrix" values="0 0 0 0 0 0 0 0 0 0 0 0 0 0 0 0 0 0 127 0" result="hardAlpha"/>
<feOffset dy="0.358286"/>
<feGaussianBlur stdDeviation="0.412028"/>
<feComposite in2="hardAlpha" operator="out"/>
<feColorMatrix type="matrix" values="0 0 0 0 0.266667 0 0 0 0 0.564706 0 0 0 0 0.564706 0 0 0 1 0"/>
<feBlend mode="normal" in2="BackgroundImageFix" result="effect1_dropShadow_11297_2191"/>
<feBlend mode="normal" in="SourceGraphic" in2="effect1_dropShadow_11297_2191" result="shape"/>
</filter>
<linearGradient id="paint0_linear_11297_2191" x1="58.9793" y1="123.32" x2="58.9793" y2="-13.0194" gradientUnits="userSpaceOnUse">
<stop stop-color="#54C9C9"/>
<stop offset="1" stop-color="#70F4F4"/>
</linearGradient>
<linearGradient id="paint1_linear_11297_2191" x1="58.978" y1="113.134" x2="58.978" y2="4.15048" gradientUnits="userSpaceOnUse">
<stop stop-color="#04BEBE"/>
<stop offset="1" stop-color="#6BE3E3"/>
</linearGradient>
</defs>
</svg>
