<svg width="120" height="120" viewBox="0 0 120 120" fill="none" xmlns="http://www.w3.org/2000/svg">
<path d="M71.9242 113.616C64.2046 119.402 53.7511 119.402 46.0313 113.616L9.08086 85.9198C1.36109 80.1334 -1.86917 69.877 1.07952 60.5146L15.1933 15.7013C18.1421 6.33886 26.599 1.07443e-08 36.1411 8.88754e-09L81.8146 0C91.3567 -1.85678e-09 99.8136 6.33886 102.762 15.7013L116.876 60.5146C119.825 69.877 116.594 80.1334 108.875 85.9198L71.9242 113.616Z" fill="url(#paint0_linear_11297_2213)"/>
<g filter="url(#filter0_d_11297_2213)">
<path d="M69.2516 102.521C63.1259 107.168 54.8307 107.168 48.705 102.521L19.3841 80.2785C13.2583 75.6316 10.695 67.3948 13.0349 59.8761L24.2346 23.8875C26.5743 16.3687 33.285 11.2781 40.857 11.2781H77.0996C84.6716 11.2781 91.3822 16.3687 93.7223 23.8875L104.922 59.8761C107.262 67.3951 104.698 75.6316 98.5726 80.2785L69.2516 102.521Z" fill="url(#paint1_linear_11297_2213)"/>
<path d="M40.8562 11.8944H77.1001C84.3872 11.8946 90.8696 16.7953 93.1338 24.0702L104.332 60.0585C106.597 67.3374 104.113 75.3032 98.2009 79.7881L68.8782 102.03C62.973 106.509 54.9834 106.509 49.0782 102.03L19.7556 79.7881C13.8434 75.3032 11.3591 67.3374 13.6243 60.0585L24.8228 24.0702C27.0867 16.7953 33.5694 11.8947 40.8562 11.8944Z" stroke="#82FCFC" stroke-opacity="0.83" stroke-width="0.513736"/>
</g>
<g filter="url(#filter1_d_11297_2213)">
<path d="M44.1193 75.5369C33.9913 75.5369 29.5928 67.7148 29.5928 58.6567C29.5928 49.2183 34.4429 41.5627 44.0955 41.5627C54.794 41.5627 58.6455 49.7887 58.6455 58.5379C58.6455 67.7388 54.0809 75.5369 44.1193 75.5369ZM44.1193 67.3584C47.5429 67.3584 49.6825 64.0774 49.6825 58.5379C49.6825 52.9983 47.5191 49.7412 44.0717 49.7412C40.7194 49.7412 38.5558 53.022 38.5558 58.5617C38.5558 64.1011 40.7194 67.3584 44.1193 67.3584ZM74.0753 75.5369C67.4897 75.5369 61.1182 72.3271 60.9041 63.1978H69.5821C69.7721 66.0744 71.8169 67.4297 74.0753 67.4297C76.7144 67.4297 77.8556 65.7891 77.8556 63.8395C77.8556 61.3433 76.1201 60.5825 73.1482 60.5587L66.5864 60.5112L63.0202 57.5393L65.2311 42.3473H84.5362V49.5509H72.7678L72.1021 54.3298H75.6444C82.5629 54.3298 86.7949 57.7534 86.7949 63.9111C86.7949 69.9022 81.9925 75.5369 74.0753 75.5369Z" fill="#E9FFFF"/>
</g>
<defs>
<filter id="filter0_d_11297_2213" x="12.1782" y="11.2781" width="93.6001" height="96.7827" filterUnits="userSpaceOnUse" color-interpolation-filters="sRGB">
<feFlood flood-opacity="0" result="BackgroundImageFix"/>
<feColorMatrix in="SourceAlpha" type="matrix" values="0 0 0 0 0 0 0 0 0 0 0 0 0 0 0 0 0 0 127 0" result="hardAlpha"/>
<feOffset dy="2.05494"/>
<feComposite in2="hardAlpha" operator="out"/>
<feColorMatrix type="matrix" values="0 0 0 0 0.136486 0 0 0 0 0.828146 0 0 0 0 0.828146 0 0 0 1 0"/>
<feBlend mode="multiply" in2="BackgroundImageFix" result="effect1_dropShadow_11297_2213"/>
<feBlend mode="normal" in="SourceGraphic" in2="effect1_dropShadow_11297_2213" result="shape"/>
</filter>
<filter id="filter1_d_11297_2213" x="28.7687" y="41.097" width="58.8503" height="35.6222" filterUnits="userSpaceOnUse" color-interpolation-filters="sRGB">
<feFlood flood-opacity="0" result="BackgroundImageFix"/>
<feColorMatrix in="SourceAlpha" type="matrix" values="0 0 0 0 0 0 0 0 0 0 0 0 0 0 0 0 0 0 127 0" result="hardAlpha"/>
<feOffset dy="0.358286"/>
<feGaussianBlur stdDeviation="0.412028"/>
<feComposite in2="hardAlpha" operator="out"/>
<feColorMatrix type="matrix" values="0 0 0 0 0.266667 0 0 0 0 0.564706 0 0 0 0 0.564706 0 0 0 1 0"/>
<feBlend mode="normal" in2="BackgroundImageFix" result="effect1_dropShadow_11297_2213"/>
<feBlend mode="normal" in="SourceGraphic" in2="effect1_dropShadow_11297_2213" result="shape"/>
</filter>
<linearGradient id="paint0_linear_11297_2213" x1="58.9793" y1="123.32" x2="58.9793" y2="-13.0194" gradientUnits="userSpaceOnUse">
<stop stop-color="#54C9C9"/>
<stop offset="1" stop-color="#70F4F4"/>
</linearGradient>
<linearGradient id="paint1_linear_11297_2213" x1="58.9782" y1="113.134" x2="58.9782" y2="4.15048" gradientUnits="userSpaceOnUse">
<stop stop-color="#04BEBE"/>
<stop offset="1" stop-color="#6BE3E3"/>
</linearGradient>
</defs>
</svg>
