<svg width="138" height="80" viewBox="0 0 138 80" fill="none" xmlns="http://www.w3.org/2000/svg">
<circle cx="69.782" cy="45.1675" r="32.5359" fill="#FBF9FF"/>
<path opacity="0.49" d="M16.751 48.4943C16.751 45.3886 19.2687 42.8708 22.3744 42.8708H115.625C118.731 42.8708 121.249 45.3886 121.249 48.4943V64.0416C121.249 67.1474 118.731 69.6651 115.625 69.6651H22.3744C19.2687 69.6651 16.751 67.1474 16.751 64.0416V48.4943Z" fill="#ECE2FF"/>
<path opacity="0.49" d="M24.4067 69.665H113.976V74.3765C113.976 77.4823 111.458 80 108.353 80H30.0302C26.9245 80 24.4067 77.4823 24.4067 74.3765V69.665Z" fill="#F6F2FF"/>
<circle cx="70.5267" cy="11.6702" r="11.6702" fill="#B6F0B1"/>
<path d="M74.7991 14.8288L75.0058 15.1012C75.0915 15.2141 75.0683 15.3742 74.9541 15.4588C74.9094 15.492 74.855 15.5099 74.7991 15.5099H66.5289C66.3862 15.5099 66.2705 15.3955 66.2705 15.2545C66.2705 15.1992 66.2886 15.1454 66.3222 15.1012L66.5289 14.8288V10.4012C66.5289 8.14401 68.3803 6.31421 70.664 6.31421C72.9477 6.31421 74.7991 8.14401 74.7991 10.4012V14.8288ZM69.3718 16.0208H71.9562C71.9562 16.7261 71.3777 17.298 70.664 17.298C69.9503 17.298 69.3718 16.7261 69.3718 16.0208Z" fill="#EFFBEE"/>
<rect x="67.6436" y="22.5154" width="3.88334" height="3.88334" transform="rotate(-45 67.6436 22.5154)" fill="#B6F0B1"/>
<g filter="url(#filter0_d_525_38134)">
<path d="M10.627 35.5619C10.627 31.7767 13.6954 28.7083 17.4806 28.7083H120.52C124.305 28.7083 127.373 31.7767 127.373 35.5619V51.7111C127.373 55.4962 124.305 58.5647 120.52 58.5647H17.4806C13.6954 58.5647 10.627 55.4963 10.627 51.7111V35.5619Z" fill="white"/>
</g>
<mask id="mask0_525_38134" style="mask-type:luminance" maskUnits="userSpaceOnUse" x="15" y="32" width="24" height="23">
<path d="M33.1824 32.9187H20.9408C18.2042 32.9187 15.9858 35.1035 15.9858 37.7986V49.8547C15.9858 52.5498 18.2042 54.7346 20.9408 54.7346H33.1824C35.9189 54.7346 38.1373 52.5498 38.1373 49.8547V37.7986C38.1373 35.1035 35.9189 32.9187 33.1824 32.9187Z" fill="white"/>
</mask>
<g mask="url(#mask0_525_38134)">
<path d="M33.1829 32.9187H20.9413C18.2047 32.9187 15.9863 35.1035 15.9863 37.7986V49.8547C15.9863 52.5498 18.2047 54.7346 20.9413 54.7346H33.1829C35.9194 54.7346 38.1378 52.5498 38.1378 49.8547V37.7986C38.1378 35.1035 35.9194 32.9187 33.1829 32.9187Z" fill="#E2D2FF"/>
<path d="M38.1378 32.9187H15.9863V54.7346H38.1378V32.9187Z" fill="#E2D2FF"/>
</g>
<g clip-path="url(#clip0_525_38134)">
<path fill-rule="evenodd" clip-rule="evenodd" d="M24.226 43.828C23.6809 43.427 23.0239 43.2069 22.346 43.2069C22.0114 43.2069 21.7427 43.4836 21.7427 43.828C21.7427 44.1723 22.0114 44.449 22.346 44.449C23.0239 44.449 23.6809 44.229 24.226 43.828ZM27.0863 46.7723C26.6967 47.3335 26.483 48.0098 26.483 48.7077C26.483 49.0521 26.7517 49.3287 27.0863 49.3287C27.4208 49.3287 27.6896 49.0521 27.6896 48.7077C27.6896 48.0098 27.4758 47.3335 27.0863 46.7723ZM29.9465 43.828C30.4916 44.229 31.1487 44.449 31.8266 44.449C32.1611 44.449 32.4299 44.1723 32.4299 43.828C32.4299 43.4836 32.1611 43.2069 31.8266 43.2069C31.1487 43.2069 30.4916 43.427 29.9465 43.828ZM27.0863 42.6419L25.9341 43.828L27.0863 45.014L28.2385 43.828L27.0863 42.6419ZM27.89 41.7748C28.5098 40.9767 28.8531 39.98 28.8531 38.9482C28.8531 37.9164 28.0633 37.1294 27.0863 37.1294C26.1093 37.1294 25.3194 37.9425 25.3194 38.9482C25.3194 39.954 25.6628 40.9767 26.2825 41.7748L25.0924 42.9999C24.3171 42.362 23.3489 42.0085 22.3466 42.0085C21.3443 42.0085 20.5791 42.8222 20.5791 43.828C20.5791 44.8337 21.3689 45.6468 22.346 45.6468C23.323 45.6468 24.3165 45.2933 25.0918 44.6554L26.2819 45.8805C25.6622 46.6786 25.3188 47.6752 25.3188 48.707C25.3188 49.7388 26.1086 50.5259 27.0856 50.5259C28.0627 50.5259 28.8525 49.7128 28.8525 48.707C28.8525 47.7013 28.5091 46.6786 27.8894 45.8805L29.0795 44.6554C29.8548 45.2933 30.823 45.6468 31.8253 45.6468C32.8276 45.6468 33.5922 44.8337 33.5922 43.828C33.5922 42.8222 32.8023 42.0091 31.8253 42.0091C30.8483 42.0091 29.8548 42.3626 29.0795 43.0006L27.8894 41.7754L27.89 41.7748ZM27.0863 38.3272C26.7517 38.3272 26.483 38.6039 26.483 38.9482C26.483 39.6461 26.6967 40.3224 27.0863 40.8836C27.4758 40.3224 27.6896 39.6461 27.6896 38.9482C27.6896 38.6039 27.4208 38.3272 27.0863 38.3272Z" fill="#F0E7FF"/>
</g>
<rect opacity="0.49" x="43.9282" y="36.7466" width="21.8182" height="6.1244" rx="1.5311" fill="#E2D2FF"/>
<rect opacity="0.49" x="43.9282" y="45.1675" width="58.1818" height="6.1244" rx="1.5311" fill="#E2D2FF"/>
<defs>
<filter id="filter0_d_525_38134" x="0.330303" y="20.1145" width="137.34" height="50.4497" filterUnits="userSpaceOnUse" color-interpolation-filters="sRGB">
<feFlood flood-opacity="0" result="BackgroundImageFix"/>
<feColorMatrix in="SourceAlpha" type="matrix" values="0 0 0 0 0 0 0 0 0 0 0 0 0 0 0 0 0 0 127 0" result="hardAlpha"/>
<feOffset dy="1.70292"/>
<feGaussianBlur stdDeviation="5.14832"/>
<feComposite in2="hardAlpha" operator="out"/>
<feColorMatrix type="matrix" values="0 0 0 0 0.823529 0 0 0 0 0.721569 0 0 0 0 1 0 0 0 0.4 0"/>
<feBlend mode="normal" in2="BackgroundImageFix" result="effect1_dropShadow_525_38134"/>
<feBlend mode="normal" in="SourceGraphic" in2="effect1_dropShadow_525_38134" result="shape"/>
</filter>
<clipPath id="clip0_525_38134">
<rect width="13.0144" height="13.3971" fill="white" transform="translate(20.5791 37.1294)"/>
</clipPath>
</defs>
</svg>
