<svg width="681" height="582" viewBox="0 0 681 582" fill="none" xmlns="http://www.w3.org/2000/svg">
<path d="M614.832 565.344H67.1816V210.935C67.1816 202.114 74.333 194.963 83.1542 194.963H598.86C607.681 194.963 614.832 202.114 614.832 210.935V565.344Z" fill="#1F0433" stroke="#AE72FF" stroke-width="0.965098" stroke-miterlimit="10" stroke-linecap="round" stroke-linejoin="round"/>
<path d="M619.058 565.344H62.9561V207.269C62.9561 198.333 70.1994 191.089 79.1352 191.089H602.879C611.815 191.089 619.058 198.333 619.058 207.269V565.344Z" fill="#1F0433" stroke="#AE72FF" stroke-width="0.965098" stroke-miterlimit="10" stroke-linecap="round" stroke-linejoin="round"/>
<path d="M604.602 214.326H76.7659V545.45H604.602V214.326Z" fill="#1F0433" stroke="#AE72FF" stroke-width="0.965098" stroke-miterlimit="10" stroke-linecap="round" stroke-linejoin="round"/>
<path d="M1 565.408V569.446H274.849C277.547 569.446 280.226 569.83 282.852 570.456C283.16 570.531 283.472 570.597 283.786 570.655V565.409H1V565.408Z" fill="#1F0433" stroke="#AE72FF" stroke-width="0.965098" stroke-miterlimit="10" stroke-linecap="round" stroke-linejoin="round"/>
<path d="M397.549 565.408V570.654C396.382 570.871 395.196 570.983 394.004 570.983H287.331C286.139 570.983 284.953 570.871 283.787 570.654V565.408H397.549Z" fill="#1F0433" stroke="#AE72FF" stroke-width="0.965098" stroke-miterlimit="10" stroke-linecap="round" stroke-linejoin="round"/>
<path d="M276.266 569.445C276.266 569.445 281.286 569.789 283.795 570.626H397.574C397.574 570.626 400.921 569.79 404.267 569.445H679.822C679.915 569.445 679.935 569.579 679.846 569.607C656.12 576.952 631.424 580.688 606.585 580.688H340.685H74.7839C49.945 580.688 25.2483 576.953 1.5229 569.607C1.43339 569.579 1.45347 569.445 1.54717 569.445H276.266Z" fill="#AE72FF" stroke="#AE72FF" stroke-width="0.965098" stroke-miterlimit="10" stroke-linecap="round" stroke-linejoin="round"/>
<path d="M680.335 565.408V569.446H406.487C403.789 569.446 401.11 569.83 398.484 570.456C398.175 570.531 397.864 570.597 397.549 570.655V565.409H680.335V565.408Z" fill="#1F0433" stroke="#AE72FF" stroke-width="0.965098" stroke-miterlimit="10" stroke-linecap="round" stroke-linejoin="round"/>
<rect x="135.631" y="153.933" width="410.167" height="293.39" rx="8.20333" fill="#1F0433" stroke="#AE72FF" stroke-width="0.965098"/>
<path d="M143.834 153.933H537.595C542.125 153.933 545.798 157.606 545.798 162.136V194.467H135.631V162.136C135.631 157.606 139.304 153.933 143.834 153.933Z" fill="#AE72FF" stroke="#AE72FF" stroke-width="0.965098"/>
<circle cx="161.689" cy="174.2" r="7.23824" fill="#1F0433"/>
<circle cx="180.991" cy="174.2" r="7.23824" fill="#1F0433"/>
<circle cx="200.293" cy="174.2" r="7.23824" fill="#1F0433"/>
<path d="M378.635 428.658C378.635 487.737 341.393 535.63 341.393 535.63C341.393 535.63 304.151 487.737 304.151 428.658C304.151 369.58 320.825 321.687 341.393 321.687C361.96 321.687 378.635 369.58 378.635 428.658Z" fill="#3C1C54"/>
<path d="M369.126 437.374C369.126 481.136 341.393 516.612 341.393 516.612C341.393 516.612 313.66 481.136 313.66 437.374C313.66 393.612 326.077 358.135 341.393 358.135C356.709 358.135 369.126 393.612 369.126 437.374Z" fill="#AE72FF"/>
<path d="M361.203 403.302C361.203 444.001 340.601 476.993 340.601 476.993C340.601 476.993 319.999 444.001 319.999 403.302C319.999 362.603 329.223 329.61 340.601 329.61C351.979 329.61 361.203 362.603 361.203 403.302Z" fill="#BF8FFF"/>
<path d="M333.991 339.169C333.758 339.165 333.498 339.162 333.212 339.163C331.793 339.168 329.733 339.254 327.144 339.577C322.127 340.201 315.125 341.711 306.964 345.231L306.171 345.578C302.788 347.078 299.218 348.918 295.514 351.186C267.384 368.394 260.585 397.689 252.039 415.88C252.031 415.896 252.025 415.91 252.02 415.92C252.013 415.936 252.009 415.943 252.005 415.951L251.991 415.972L251.97 416.012C251.674 416.592 251.27 417.017 250.819 417.299L250.812 417.303C249.767 417.973 248.347 418.005 247.102 417.443C245.871 416.887 244.892 415.784 244.684 414.277V414.276C242.731 400.187 240.138 375.85 240.138 346.027C240.138 320.006 250.146 295.067 260.191 276.599C265.21 267.372 270.229 259.776 273.993 254.489C275.874 251.846 277.441 249.78 278.537 248.376C278.951 247.846 279.298 247.409 279.569 247.073L333.991 339.169Z" fill="#1F0433" stroke="#AE72FF" stroke-width="1.51742"/>
<path d="M401.776 247.071C402.047 247.408 402.395 247.843 402.809 248.375C403.905 249.778 405.472 251.844 407.353 254.488C411.117 259.776 416.135 267.372 421.154 276.599C431.199 295.068 441.206 320.007 441.206 346.027C441.205 375.849 438.612 400.189 436.661 414.277C436.404 416.133 434.966 417.389 433.342 417.741C431.728 418.09 430.081 417.525 429.307 415.879C420.759 397.689 413.962 368.397 385.829 351.189C374.663 344.359 364.71 341.367 357.535 340.085C353.948 339.445 351.056 339.231 349.053 339.178C348.384 339.161 347.814 339.162 347.351 339.17L401.776 247.071Z" fill="#1F0433" stroke="#AE72FF" stroke-width="1.51742"/>
<path d="M305.213 346.009C302.543 347.231 299.762 348.664 296.896 350.353L295.514 351.184C267.956 368.041 260.87 396.499 252.557 414.753C252.578 414.641 252.6 414.527 252.622 414.41C253.06 412.097 253.725 408.815 254.624 404.942C256.423 397.193 259.162 387.097 262.922 377.671C268.468 363.766 276.782 353.131 283.717 345.97C287.183 342.39 290.3 339.682 292.549 337.871C293.672 336.966 294.579 336.285 295.202 335.832C295.362 335.716 295.505 335.616 295.627 335.529L305.213 346.009Z" fill="#AE72FF" stroke="#AE72FF" stroke-width="1.51742"/>
<path d="M386.139 335.833C386.762 336.287 387.669 336.967 388.792 337.873C391.041 339.684 394.158 342.392 397.625 345.971C404.559 353.133 412.874 363.768 418.42 377.672C422.18 387.098 424.919 397.194 426.718 404.944C427.618 408.816 428.281 412.099 428.719 414.412C428.741 414.528 428.761 414.641 428.782 414.752C420.47 396.498 413.384 368.042 385.827 351.185H385.828C382.472 349.13 379.224 347.428 376.127 346.01L385.713 335.531C385.835 335.617 385.979 335.717 386.139 335.833Z" fill="#AE72FF" stroke="#AE72FF" stroke-width="1.51742"/>
<path d="M340.963 1.24756C341.501 1.67967 342.294 2.33359 343.306 3.21631C345.328 4.98183 348.224 7.66155 351.702 11.3071C358.659 18.5986 367.944 29.7541 377.232 45.188C395.806 76.0503 414.405 124.042 414.405 192.506C414.405 273.452 395.793 321.424 377.252 349.135C367.98 362.993 358.717 371.797 351.788 377.13C348.324 379.797 345.442 381.597 343.433 382.728C342.428 383.293 341.641 383.692 341.109 383.947C340.913 384.041 340.751 384.114 340.626 384.17C340.499 384.103 340.333 384.015 340.132 383.903C339.598 383.606 338.81 383.148 337.804 382.508C335.791 381.228 332.905 379.221 329.437 376.324C322.5 370.529 313.231 361.17 303.954 346.94C285.405 318.486 266.796 270.508 266.796 192.506C266.796 124.042 285.395 76.0503 303.969 45.188C313.257 29.7541 322.543 18.5986 329.499 11.3071C332.977 7.66152 335.873 4.98184 337.896 3.21631C338.907 2.33356 339.7 1.67968 340.238 1.24756C340.375 1.1374 340.497 1.04283 340.601 0.961426C340.704 1.04282 340.826 1.1374 340.963 1.24756Z" fill="#1F0433" stroke="#AE72FF" stroke-width="1.51742"/>
<path d="M341.251 1.47852C341.976 2.06783 343.037 2.96048 344.379 4.16602C347.064 6.5775 350.869 10.2423 355.334 15.2422C364.264 25.242 375.835 40.5828 386.364 61.9229L386.573 62.3457H386.574C387.542 64.3175 388.504 66.3354 389.448 68.4072C357.09 60.7229 324.515 60.8251 291.753 68.417C292.658 66.4368 293.573 64.502 294.502 62.6143L294.513 62.5918L294.523 62.5684L294.522 62.5674C305.08 41.0034 316.728 25.5029 325.729 15.3984C330.23 10.3447 334.071 6.64133 336.781 4.2041C338.135 2.98554 339.208 2.08391 339.94 1.48828C340.206 1.27148 340.428 1.0961 340.601 0.959961C340.771 1.09415 340.99 1.26597 341.251 1.47852Z" fill="#AE72FF" stroke="#AE72FF" stroke-width="1.51742"/>
<path d="M338.613 56.6934C360.892 56.6824 383.398 61.5532 386.523 62.248L389.42 68.4014C357.079 60.7255 324.522 60.827 291.778 68.4111L294.373 62.8877C294.53 62.8438 294.741 62.7852 295.003 62.7139C295.633 62.5427 296.56 62.2981 297.746 62.0039C300.119 61.4152 303.526 60.6299 307.656 59.8438C315.921 58.2708 327.067 56.6988 338.613 56.6934Z" fill="#AE72FF" stroke="#AE72FF" stroke-width="1.51742"/>
<path d="M338.178 256.061C338.936 254.725 340.632 254.255 341.975 255.014H341.976C342.424 255.268 342.781 255.639 343.021 256.058V256.059C343.5 256.909 343.934 257.755 344.344 258.61V258.611L344.952 259.907L345.515 261.19V261.191C346.08 262.475 346.593 263.759 347.078 265.047L347.555 266.338C348.643 269.348 349.57 272.356 350.381 275.37L350.722 276.662C352.392 283.117 353.531 289.576 354.266 296.039L354.407 297.332C354.723 300.351 354.962 303.37 355.116 306.385L355.178 307.677L355.237 309.335C355.321 312.233 355.352 315.129 355.321 318.029V318.034C355.292 324.087 355.179 330.139 354.951 336.19L354.847 338.784C354.251 352.624 353.143 366.453 351.318 380.281V380.282C350.408 387.2 349.316 394.111 347.987 401.021C347.651 402.751 347.305 404.479 346.939 406.201L345.783 411.393C344.958 414.846 344.096 418.289 343.028 421.72L343.027 421.721C342.612 423.061 341.191 423.81 339.847 423.397C339.079 423.155 338.494 422.569 338.223 421.861L338.173 421.717C337.105 418.287 336.247 414.846 335.422 411.393L334.261 406.204H334.262C333.9 404.48 333.548 402.751 333.213 401.023H333.214C331.89 394.113 330.798 387.2 329.882 380.281C328.057 366.453 326.955 352.623 326.359 338.784V338.783C326.056 331.868 325.917 324.952 325.879 318.033V318.028C325.847 315.165 325.874 312.301 325.969 309.44V309.435C325.985 308.849 326.006 308.268 326.028 307.675C326.171 304.232 326.431 300.783 326.792 297.332C327.519 290.438 328.697 283.548 330.479 276.662C331.369 273.217 332.407 269.78 333.645 266.34C334.277 264.615 334.936 262.903 335.69 261.191L335.692 261.188L336.246 259.91L336.86 258.614V258.613C337.263 257.759 337.696 256.911 338.177 256.06L338.178 256.061Z" fill="#AE72FF" stroke="#AE72FF" stroke-width="1.51742"/>
<path d="M338.178 256.061C338.889 254.809 340.425 254.319 341.72 254.888L341.976 255.016C342.425 255.269 342.781 255.64 343.021 256.06V256.061C343.502 256.912 343.937 257.761 344.347 258.618V258.617L344.953 259.908L345.515 261.191V261.192C346.08 262.477 346.594 263.76 347.079 265.049L347.555 266.34C348.643 269.35 349.571 272.358 350.382 275.371L350.722 276.663C352.392 283.119 353.532 289.578 354.267 296.04L354.409 297.332C354.725 300.352 354.963 303.372 355.118 306.387L355.178 307.679C355.197 308.231 355.219 308.776 355.234 309.321C355.174 312.537 355.088 315.753 354.969 318.971L354.841 322.196C354.25 336.031 353.143 349.862 351.317 363.694C350.407 370.607 349.311 377.518 347.986 384.429C347.652 386.154 347.301 387.88 346.94 389.602L345.785 394.789C344.959 398.246 344.095 401.692 343.026 405.133V405.134C342.612 406.47 341.188 407.219 339.843 406.803H339.842C339.026 406.544 338.416 405.897 338.173 405.133H338.174C337.104 401.692 336.239 398.246 335.414 394.789L334.261 389.608C334.078 388.748 333.9 387.885 333.725 387.021L333.214 384.429C332.055 378.382 331.071 372.335 330.233 366.286L329.883 363.694L329.549 361.101C328.029 348.997 327.049 336.896 326.475 324.791L326.359 322.196L326.23 318.998C326.112 315.807 326.026 312.615 325.97 309.424C325.986 308.841 326.007 308.262 326.028 307.672C326.154 304.66 326.369 301.644 326.663 298.626L326.793 297.332C327.52 290.438 328.698 283.549 330.479 276.663C331.37 273.217 332.408 269.778 333.646 266.337C334.278 264.613 334.938 262.903 335.691 261.192L335.692 261.189L336.247 259.911L336.86 258.615L336.861 258.614C337.264 257.76 337.697 256.912 338.178 256.061Z" fill="#1F0433" stroke="#AE72FF" stroke-width="1.51742"/>
<circle cx="340.601" cy="158.455" r="42.03" stroke="#AE72FF" stroke-width="1.51742"/>
<g opacity="0.21">
<path fill-rule="evenodd" clip-rule="evenodd" d="M330.072 158.337C328.196 156.996 325.934 156.26 323.6 156.26C322.448 156.26 321.523 157.186 321.523 158.337C321.523 159.489 322.448 160.414 323.6 160.414C325.934 160.414 328.196 159.678 330.072 158.337ZM339.92 168.185C338.579 170.061 337.843 172.324 337.843 174.657C337.843 175.809 338.768 176.734 339.92 176.734C341.072 176.734 341.997 175.809 341.997 174.657C341.997 172.324 341.261 170.061 339.92 168.185ZM349.767 158.337C351.644 159.678 353.906 160.414 356.24 160.414C357.392 160.414 358.317 159.489 358.317 158.337C358.317 157.186 357.392 156.26 356.24 156.26C353.906 156.26 351.644 156.996 349.767 158.337ZM339.92 154.37L335.953 158.337L339.92 162.304L343.887 158.337L339.92 154.37ZM342.687 151.47C344.821 148.801 346.003 145.468 346.003 142.017C346.003 138.566 343.284 135.934 339.92 135.934C336.556 135.934 333.837 138.653 333.837 142.017C333.837 145.381 335.019 148.801 337.153 151.47L333.055 155.568C330.386 153.434 327.053 152.252 323.602 152.252C320.151 152.252 317.517 154.974 317.517 158.337C317.517 161.701 320.236 164.42 323.6 164.42C326.963 164.42 330.384 163.238 333.053 161.104L337.15 165.202C335.017 167.871 333.835 171.204 333.835 174.655C333.835 178.106 336.554 180.738 339.918 180.738C343.281 180.738 346.001 178.019 346.001 174.655C346.001 171.292 344.818 167.871 342.685 165.202L346.782 161.104C349.452 163.238 352.785 164.42 356.236 164.42C359.686 164.42 362.319 161.701 362.319 158.337C362.319 154.974 359.599 152.254 356.236 152.254C352.872 152.254 349.452 153.436 346.782 155.57L342.685 151.473L342.687 151.47ZM339.92 139.94C338.768 139.94 337.843 140.865 337.843 142.017C337.843 144.351 338.579 146.613 339.92 148.49C341.261 146.613 341.997 144.351 341.997 142.017C341.997 140.865 341.072 139.94 339.92 139.94Z" fill="#AE72FF"/>
</g>
</svg>
