<svg width="100" height="100" viewBox="0 0 100 100" fill="none" xmlns="http://www.w3.org/2000/svg">
<g clip-path="url(#clip0_3243_39765)">
<path d="M50 100C77.6142 100 100 77.6142 100 50C100 22.3858 77.6142 0 50 0C22.3858 0 0 22.3858 0 50C0 77.6142 22.3858 100 50 100Z" fill="#F8F5FF"/>
<path d="M69.166 30H49.166C47.7853 30 46.666 31.1193 46.666 32.5V66.6667C46.666 68.0474 47.7853 69.1667 49.166 69.1667H69.166C70.5467 69.1667 71.666 68.0474 71.666 66.6667V32.5C71.666 31.1193 70.5467 30 69.166 30Z" fill="#E5D3F2"/>
<path d="M62.5007 28.334H40.834C39.4533 28.334 38.334 29.4533 38.334 30.834V68.334C38.334 69.7147 39.4533 70.834 40.834 70.834H62.5007C63.8814 70.834 65.0007 69.7147 65.0007 68.334V30.834C65.0007 29.4533 63.8814 28.334 62.5007 28.334Z" fill="#C4AFD3"/>
<g filter="url(#filter0_d_3243_39765)">
<path d="M54.1673 27.5H30.834C29.4533 27.5 28.334 28.6193 28.334 30V70C28.334 71.3807 29.4533 72.5 30.834 72.5H54.1673C55.548 72.5 56.6673 71.3807 56.6673 70V30C56.6673 28.6193 55.548 27.5 54.1673 27.5Z" fill="#634976"/>
</g>
<path opacity="0.22" d="M51.6673 63.334H33.334C31.9533 63.334 30.834 64.4533 30.834 65.834C30.834 67.2147 31.9533 68.334 33.334 68.334H51.6673C53.048 68.334 54.1673 67.2147 54.1673 65.834C54.1673 64.4533 53.048 63.334 51.6673 63.334Z" fill="#A177C1"/>
<path fill-rule="evenodd" clip-rule="evenodd" d="M38.6051 44.4969C37.8794 43.9783 37.0047 43.6937 36.1022 43.6937C35.6568 43.6937 35.2991 44.0516 35.2991 44.4969C35.2991 44.9422 35.6568 45.3001 36.1022 45.3001C37.0047 45.3001 37.8794 45.0155 38.6051 44.4969ZM42.4129 48.3047C41.8943 49.0304 41.6098 49.9052 41.6098 50.8076C41.6098 51.253 41.9676 51.6107 42.4129 51.6107C42.8582 51.6107 43.2161 51.253 43.2161 50.8076C43.2161 49.9052 42.9315 49.0304 42.4129 48.3047ZM46.2208 44.4969C46.9464 45.0155 47.8212 45.3001 48.7237 45.3001C49.169 45.3001 49.5267 44.9422 49.5267 44.4969C49.5267 44.0516 49.169 43.6937 48.7237 43.6937C47.8212 43.6937 46.9464 43.9783 46.2208 44.4969ZM42.4129 42.963L40.879 44.4969L42.4129 46.0308L43.9468 44.4969L42.4129 42.963ZM43.4829 41.8417C44.308 40.8095 44.7651 39.5206 44.7651 38.1862C44.7651 36.8518 43.7136 35.834 42.4129 35.834C41.1122 35.834 40.0607 36.8855 40.0607 38.1862C40.0607 39.4869 40.5178 40.8095 41.3429 41.8417L39.7585 43.4261C38.7263 42.601 37.4374 42.1438 36.1031 42.1438C34.7687 42.1438 33.75 43.1962 33.75 44.4969C33.75 45.7976 34.8015 46.8491 36.1022 46.8491C37.4029 46.8491 38.7255 46.392 39.7577 45.5669L41.3421 47.1513C40.517 48.1835 40.0598 49.4724 40.0598 50.8067C40.0598 52.1412 41.1114 53.159 42.4121 53.159C43.7128 53.159 44.7642 52.1075 44.7642 50.8067C44.7642 49.5061 44.3072 48.1835 43.4821 47.1513L45.0665 45.5669C46.0987 46.392 47.3876 46.8491 48.7219 46.8491C50.0563 46.8491 51.0742 45.7976 51.0742 44.4969C51.0742 43.1962 50.0227 42.1447 48.7219 42.1447C47.4213 42.1447 46.0987 42.6018 45.0665 43.4269L43.4821 41.8425L43.4829 41.8417ZM42.4129 37.3831C41.9676 37.3831 41.6098 37.7408 41.6098 38.1862C41.6098 39.0887 41.8943 39.9634 42.4129 40.6891C42.9315 39.9634 43.2161 39.0887 43.2161 38.1862C43.2161 37.7408 42.8582 37.3831 42.4129 37.3831Z" fill="#715386"/>
</g>
<defs>
<filter id="filter0_d_3243_39765" x="24.334" y="23.5" width="36.334" height="53" filterUnits="userSpaceOnUse" color-interpolation-filters="sRGB">
<feFlood flood-opacity="0" result="BackgroundImageFix"/>
<feColorMatrix in="SourceAlpha" type="matrix" values="0 0 0 0 0 0 0 0 0 0 0 0 0 0 0 0 0 0 127 0" result="hardAlpha"/>
<feOffset/>
<feGaussianBlur stdDeviation="2"/>
<feComposite in2="hardAlpha" operator="out"/>
<feColorMatrix type="matrix" values="0 0 0 0 0.305882 0 0 0 0 0.2 0 0 0 0 0.447059 0 0 0 0.22 0"/>
<feBlend mode="normal" in2="BackgroundImageFix" result="effect1_dropShadow_3243_39765"/>
<feBlend mode="normal" in="SourceGraphic" in2="effect1_dropShadow_3243_39765" result="shape"/>
</filter>
<clipPath id="clip0_3243_39765">
<rect width="100" height="100" fill="white"/>
</clipPath>
</defs>
</svg>
