<svg width="100" height="100" viewBox="0 0 100 100" fill="none" xmlns="http://www.w3.org/2000/svg">
<g clip-path="url(#clip0_1273_18459)">
<path d="M50 100C77.6142 100 100 77.6142 100 50C100 22.3858 77.6142 0 50 0C22.3858 0 0 22.3858 0 50C0 77.6142 22.3858 100 50 100Z" fill="#FBF9FF"/>
<path d="M84.386 92.941C89.2591 92.941 93.2095 88.9906 93.2095 84.1175C93.2095 79.2444 89.2591 75.2939 84.386 75.2939C79.5129 75.2939 75.5625 79.2444 75.5625 84.1175C75.5625 88.9906 79.5129 92.941 84.386 92.941Z" fill="#D2B8FF"/>
<path d="M82.2249 84.1516C81.1292 84.1516 80.2695 83.3725 80.2695 82.3773C80.2695 81.372 81.124 80.5879 82.2299 80.5879C83.3408 80.5879 84.1902 81.3519 84.1902 82.3673C84.1902 83.3725 83.3257 84.1516 82.2249 84.1516ZM83.3458 87.5898H81.687L85.879 80.7538H87.5629L83.3458 87.5898ZM82.2349 82.905C82.5064 82.905 82.6672 82.6789 82.6672 82.3823C82.6672 82.0606 82.5064 81.8194 82.2299 81.8194C81.9584 81.8194 81.7977 82.0506 81.7977 82.3723C81.7977 82.6739 81.9584 82.905 82.2349 82.905ZM86.9044 87.7304C85.8138 87.7304 84.9542 86.9564 84.9542 85.9661C84.9542 84.9559 85.8138 84.1718 86.9195 84.1718C88.0203 84.1718 88.8698 84.9358 88.8698 85.9511C88.8698 86.9564 88.0103 87.7304 86.9044 87.7304ZM86.9195 86.4939C87.191 86.4939 87.3518 86.2628 87.3518 85.9661C87.3518 85.6445 87.1859 85.4033 86.9145 85.4033C86.643 85.4033 86.4823 85.6344 86.4823 85.9561C86.4823 86.2526 86.643 86.4939 86.9195 86.4939Z" fill="white"/>
<path d="M16.4455 27.6479C23.1054 27.6479 28.5044 22.249 28.5044 15.5891C28.5044 8.92919 23.1054 3.53027 16.4455 3.53027C9.78564 3.53027 4.38672 8.92919 4.38672 15.5891C4.38672 22.249 9.78564 27.6479 16.4455 27.6479Z" fill="#FFC2A7"/>
<path d="M16.716 21.0806C16.6077 21.1481 16.4706 21.1514 16.359 21.0884C15.3907 20.5467 10.8996 17.8407 11.0753 14.3014C11.261 10.5597 15.3211 11.2086 16.3236 13.0501C16.3612 13.1197 16.4364 13.1617 16.516 13.1574C16.5956 13.1529 16.6652 13.1042 16.6961 13.0302C17.188 11.8475 18.7765 10.9908 20.272 11.5524C22.0561 12.2222 23.8689 16.647 16.7171 21.0795L16.716 21.0806Z" fill="#FFEDE6"/>
<mask id="mask0_1273_18459" style="mask-type:alpha" maskUnits="userSpaceOnUse" x="0" y="0" width="100" height="100">
<path d="M50 100C77.6142 100 100 77.6142 100 50C100 22.3858 77.6142 0 50 0C22.3858 0 0 22.3858 0 50C0 77.6142 22.3858 100 50 100Z" fill="#FBF9FF"/>
</mask>
<g mask="url(#mask0_1273_18459)">
<path d="M39.596 62.2291V59.2126H40.1101C43.2243 59.2126 45.7487 56.6882 45.7487 53.5742H35.0528C34.5212 53.5742 34.0898 54.0056 34.0898 54.5371V65.0108L44.898 65.0173C44.898 62.0887 42.5242 62.2291 39.596 62.2291Z" fill="#FFE4CA"/>
<path d="M36.3438 57.7656L36.6627 57.7735L36.6669 62.65L36.3438 57.7656Z" fill="#EBC49A"/>
<path d="M83.7553 4.11719L25.2695 39.6287L27.5249 47.7353L29.9435 47.7428V51.0551C29.9435 54.7596 32.9575 57.7738 36.6622 57.7738H58.1017C61.8065 57.7738 64.8204 54.7595 64.8204 51.0551V47.8486L95.947 47.9431L83.7553 4.11719ZM59.9649 51.0551C59.9649 52.0825 59.1292 52.9183 58.1017 52.9183H36.6622C35.6349 52.9183 34.7993 52.0825 34.7993 51.0551V47.7574L59.9649 47.8336V51.0551Z" fill="#E2D2FF"/>
<path d="M16.7383 35.4473L22.3777 55.7193L27.5237 47.7344L25.2683 39.6278L16.7383 35.4473Z" fill="#D2B8FF"/>
<path d="M29.9414 47.7422L34.7972 47.7569V49.9261L29.9414 47.7422Z" fill="#D2B8FF"/>
<path d="M59.9648 47.834L64.8203 47.849V50.018L59.9648 47.834Z" fill="#D2B8FF"/>
<path d="M55.6156 48.6182H39.101C37.7595 48.6182 36.6618 49.7158 36.6618 51.057V62.6504H34.0898V65.0109L39.1262 68.3044V77.2479L58.0347 77.2363C58.0347 77.2363 58.0545 59.4622 58.0546 58.6854V51.057C58.0547 49.7158 56.9571 48.6182 55.6156 48.6182Z" fill="#FFE4CA"/>
<path d="M37.5465 74.9597L59.2354 74.9072L59.1563 80.8316L37.5352 80.7494L37.5465 74.9597Z" fill="#F7F7F7"/>
<path d="M59.9552 71.4062L60.1536 114.118H35.5703L36.8488 71.4506L59.9552 71.4062Z" fill="white"/>
<path d="M58.3817 57.7676V52.8955C58.2898 52.9095 58.1967 52.919 58.1012 52.919H58.0586V57.7746H58.1012C58.1952 57.7746 58.2885 57.7716 58.3817 57.7676Z" fill="#D2B8FF"/>
<path d="M36.6669 57.7735V52.9178H36.6627C36.5539 52.9178 36.4478 52.9065 36.3438 52.8887V57.7657C36.4495 57.7708 36.5559 57.7735 36.6627 57.7735H36.6669Z" fill="#D2B8FF"/>
</g>
<path d="M83.7553 4.11719L25.2695 39.6287L27.5249 47.7353L29.9435 47.7428V51.0551C29.9435 41.176 35.0938 42.0584 38.7984 42.0584L61.4455 36.176C65.1503 36.176 64.8204 54.7595 64.8204 51.0551V47.8486L95.947 47.9431L83.7553 4.11719Z" fill="#E2D2FF"/>
</g>
<defs>
<clipPath id="clip0_1273_18459">
<rect width="100" height="100" fill="white"/>
</clipPath>
</defs>
</svg>
