<svg width="103" height="100" viewBox="0 0 103 100" fill="none" xmlns="http://www.w3.org/2000/svg">
<rect x="1" width="100" height="100" rx="50" fill="#FBF9FF"/>
<rect x="0.285706" y="17.1429" width="101.811" height="64.6143" rx="5.71429" fill="#E8DEFF"/>
<rect x="6.67389" y="26.1262" width="89.035" height="15.3715" rx="2.39556" fill="#FBF9FF"/>
<rect x="6.67389" y="46.2889" width="26.4843" height="26.4849" rx="2.39556" fill="white"/>
<rect x="37.9493" y="46.2889" width="26.4843" height="26.4849" rx="2.39556" fill="white"/>
<rect x="69.2247" y="46.2889" width="26.4843" height="26.4849" rx="2.39556" fill="white"/>
<circle cx="51.2101" cy="20.1682" r="13.7815" fill="#FFC2A7"/>
<path d="M54.0934 18.9525L55.9496 20.9413C56.2508 21.2597 56.4902 21.6388 56.6541 22.0568C56.818 22.4747 56.9031 22.9233 56.9045 23.3767C56.9059 23.83 56.8236 24.2792 56.6624 24.6983C56.5011 25.1175 56.264 25.4983 55.9648 25.8188C55.6656 26.1394 55.3102 26.3934 54.919 26.5662C54.5278 26.739 54.1086 26.8272 53.6854 26.8256C53.2623 26.8241 52.8436 26.7329 52.4535 26.5574C52.0634 26.3818 51.7096 26.1252 51.4124 25.8025L50.7941 25.14C50.7105 25.0536 50.6438 24.9502 50.5979 24.8358C50.5519 24.7214 50.5278 24.5984 50.5267 24.474C50.5256 24.3495 50.5477 24.226 50.5917 24.1108C50.6356 23.9955 50.7005 23.8908 50.7826 23.8028C50.8648 23.7147 50.9624 23.645 51.0699 23.5979C51.1775 23.5507 51.2927 23.5269 51.4088 23.5279C51.525 23.5289 51.6399 23.5547 51.7466 23.6038C51.8534 23.6529 51.95 23.7243 52.0307 23.8138L52.6502 24.4769C52.9242 24.7677 53.2945 24.9305 53.6802 24.9295C54.0658 24.9286 54.4354 24.764 54.7081 24.4717C54.9808 24.1795 55.1343 23.7835 55.1351 23.3702C55.1359 22.957 54.9839 22.5603 54.7123 22.2669L52.8562 20.2781C52.6555 20.0631 52.4007 19.9154 52.1229 19.8533C51.8451 19.7911 51.5564 19.8171 51.2922 19.9281C51.1981 19.9681 51.1099 20.009 51.0274 20.0506L50.7567 20.1863C50.3951 20.3613 50.1168 20.4363 49.7627 20.0575C49.2541 19.5125 49.3859 19.0094 50.006 18.5513C50.6237 18.0959 51.3707 17.8866 52.1174 17.9599C52.8641 18.0332 53.5632 18.3844 54.0934 18.9525ZM50.5876 15.1963L51.2059 15.8588C51.3654 16.0355 51.4537 16.2723 51.4518 16.5181C51.4499 16.7639 51.358 16.9991 51.1958 17.173C51.0337 17.3469 50.8143 17.4456 50.5848 17.4478C50.3554 17.4501 50.1343 17.3557 49.9692 17.185L49.3503 16.5225C49.2158 16.3732 49.055 16.2541 48.877 16.1722C48.6991 16.0903 48.5078 16.0471 48.3142 16.0452C48.1205 16.0434 47.9285 16.0829 47.7492 16.1614C47.57 16.2399 47.4071 16.3558 47.2702 16.5025C47.1332 16.6492 47.0249 16.8236 46.9515 17.0156C46.8781 17.2076 46.8412 17.4133 46.8428 17.6208C46.8444 17.8283 46.8846 18.0333 46.961 18.224C47.0374 18.4146 47.1484 18.5871 47.2877 18.7313L49.1438 20.72C49.3444 20.9351 49.5993 21.0827 49.8771 21.1449C50.1549 21.2071 50.4435 21.181 50.7077 21.07C50.8019 21.03 50.8901 20.9892 50.9726 20.9475L51.2432 20.8119C51.6049 20.6369 51.8837 20.5619 52.2372 20.9406C52.7459 21.4856 52.6141 21.9888 51.994 22.4469C51.3763 22.9023 50.6292 23.1115 49.8826 23.0382C49.1359 22.9649 48.4367 22.6137 47.9066 22.0456L46.0504 20.0569C45.7492 19.7385 45.5098 19.3594 45.3459 18.9414C45.182 18.5234 45.0969 18.0748 45.0955 17.6215C45.0941 17.1681 45.1764 16.719 45.3376 16.2998C45.4989 15.8807 45.736 15.4999 46.0352 15.1793C46.3344 14.8587 46.6898 14.6047 47.081 14.4319C47.4722 14.2591 47.8914 14.171 48.3145 14.1725C48.7377 14.174 49.1563 14.2652 49.5464 14.4408C49.9366 14.6164 50.2904 14.8735 50.5876 15.1963Z" fill="#FFEDE6"/>
</svg>
