<svg width="120" height="127" viewBox="0 0 120 127" fill="none" xmlns="http://www.w3.org/2000/svg">
<mask id="mask0_11297_2210" style="mask-type:luminance" maskUnits="userSpaceOnUse" x="0" y="0" width="120" height="127">
<path d="M119.302 0H0.697693V127H119.302V0Z" fill="white"/>
</mask>
<g mask="url(#mask0_11297_2210)">
<path d="M52.4894 104.73C80.6777 104.73 103.529 81.8924 103.529 53.721C103.529 25.5496 80.6777 2.71216 52.4894 2.71216C24.301 2.71216 1.44989 25.5496 1.44989 53.721C1.44989 81.8924 24.301 104.73 52.4894 104.73Z" fill="#FBF9FF"/>
<mask id="mask1_11297_2210" style="mask-type:alpha" maskUnits="userSpaceOnUse" x="1" y="0" width="112" height="111">
<path d="M57.1287 110.986C87.8642 110.986 112.78 86.141 112.78 55.4931C112.78 24.8451 87.8642 0 57.1287 0C26.3932 0 1.47711 24.8451 1.47711 55.4931C1.47711 86.141 26.3932 110.986 57.1287 110.986Z" fill="#FBF9FF"/>
</mask>
<g mask="url(#mask1_11297_2210)">
<path d="M0.779419 82.3198H111.496V69.1205H0.779419V82.3198Z" fill="#F1EAFF"/>
<path d="M-0.663982 39.8161C-0.165887 38.3944 0.173934 37.4372 1.68218 37.4142C6.86794 37.3398 21.1079 37.3584 35.5339 37.3026C51.4217 37.2423 67.5331 37.1539 72.0439 38.1713C78.7098 39.6766 99.5322 57.9029 99.5322 57.9029C99.9929 58.4001 108.614 59.0691 114.74 65.1833C116.1 66.5398 114.494 68.0219 115.234 69.6248C116.453 72.2637 116.593 74.2847 116.593 76.1662C116.593 76.1662 115.168 80.408 114.242 81.5975C113.386 82.6987 103.009 83.4559 108.433 83.4466C107.204 83.4466 105.681 83.4466 103.908 83.4466C104.006 82.8936 104.057 82.3223 104.057 81.7416C104.057 76.3615 99.6904 72.0036 94.2999 72.0036C88.9092 72.0036 84.5428 76.3615 84.5428 81.7416C84.5428 82.3223 84.594 82.8892 84.6917 83.4418C67.5331 83.4326 45.3748 83.4094 27.7461 83.3863C27.839 82.8519 27.8858 82.3037 27.8858 81.7416C27.8858 76.3615 23.5193 72.0036 18.1286 72.0036C12.738 72.0036 8.37154 76.3615 8.37154 81.7416C8.37154 82.2201 8.40879 82.6893 8.47396 83.1447C1.93821 82.7683 -2.08844 82.0482 -2.08844 82.0482C-2.30722 82.0482 -2.53998 69.5689 -2.53998 62.5768C-2.53998 53.7449 -1.65552 42.6455 -0.659327 39.8068L-0.663982 39.8161Z" fill="#D2B8FF"/>
<path d="M95.0939 89.6898C99.4997 89.2548 102.718 85.3376 102.282 80.9406C101.846 76.5436 97.9213 73.3316 93.5155 73.7666C89.1099 74.2016 85.8918 78.1188 86.3277 82.516C86.7637 86.9129 90.6884 90.1248 95.0939 89.6898Z" fill="#D2B8FF"/>
<path d="M94.3123 87.0624C97.2689 87.0624 99.6656 84.6702 99.6656 81.7195C99.6656 78.7686 97.2689 76.3767 94.3123 76.3767C91.3559 76.3767 88.9589 78.7686 88.9589 81.7195C88.9589 84.6702 91.3559 87.0624 94.3123 87.0624Z" fill="#D2B8FF"/>
<path d="M94.9969 85.9159C97.3215 85.5394 98.9001 83.3534 98.5228 81.0334C98.1455 78.7132 95.9551 77.1378 93.6307 77.5144C91.306 77.891 89.7275 80.0771 90.1048 82.3972C90.4821 84.7171 92.6725 86.2926 94.9969 85.9159Z" fill="#D2B8FF"/>
<path d="M18.1542 89.7197C22.5813 89.7197 26.1702 86.1379 26.1702 81.7194C26.1702 77.3008 22.5813 73.719 18.1542 73.719C13.727 73.719 10.1381 77.3008 10.1381 81.7194C10.1381 86.1379 13.727 89.7197 18.1542 89.7197Z" fill="#D2B8FF"/>
<path d="M18.1568 87.0624C21.1133 87.0624 23.5102 84.6702 23.5102 81.7195C23.5102 78.7686 21.1133 76.3767 18.1568 76.3767C15.2002 76.3767 12.8034 78.7686 12.8034 81.7195C12.8034 84.6702 15.2002 87.0624 18.1568 87.0624Z" fill="#BF9EFF"/>
<path d="M18.6793 85.9414C21.0165 85.6542 22.6779 83.5302 22.3901 81.1974C22.1022 78.8646 19.9743 77.2064 17.6369 77.4938C15.2996 77.781 13.6381 79.9048 13.926 82.2377C14.2137 84.5703 16.3419 86.2286 18.6793 85.9414Z" fill="#BF9EFF"/>
<path d="M96.7838 58.581C96.7838 58.581 83.568 47.1473 77.8048 45.3956C72.0465 43.6396 65.7994 44.4618 65.7994 44.4618L65.9019 54.0512L71.246 57.3405L96.7838 58.581Z" fill="#F1EAFF"/>
<path d="M74.0168 44.5703C74.0168 44.5703 71.9035 44.31 69.8275 44.245L85.6732 58.0528L88.6898 58.1784L74.0168 44.5703Z" fill="#FBFAFE"/>
<path d="M68.3219 44.3076L66.6879 44.368L80.9604 57.7996L82.4081 57.8599L68.3219 44.3076Z" fill="#FBFAFE"/>
<path d="M113.72 68.9866L114.144 66.9517C114.144 66.9517 114.046 63.8854 106.951 61.9108L108.232 67.816L113.72 68.9866Z" fill="#F1EAFF"/>
<path d="M103.692 74.7678C111.587 74.7631 116.554 74.7586 116.559 74.7493C116.559 74.7493 116.633 75.1813 116.452 77.1745C116.452 77.1838 112.113 77.1931 105.088 77.2023C104.721 76.3336 104.251 75.5159 103.692 74.7678Z" fill="url(#paint0_linear_11297_2210)"/>
<path d="M104.062 81.7459C104.062 78.7261 102.684 76.0267 100.52 74.2426C105.138 74.2381 112.623 74.2286 113.265 74.2286H116.375C116.924 74.2286 117.367 74.6375 117.367 75.144C117.367 75.144 117.273 78.294 116.906 79.3438C116.622 80.1478 114.764 82.5636 114.764 82.5636C114.764 83.0701 114.178 83.4788 113.628 83.4788H103.904C104.006 82.9167 104.058 82.3407 104.058 81.7459H104.062Z" fill="#BF9EFF"/>
<path d="M-2.41461 74.8362C-2.41461 74.8362 1.82153 74.8267 8.70174 74.8175C8.14313 75.5702 7.67762 76.3972 7.31454 77.2752C2.05893 77.2752 -2.31685 77.2845 -2.31685 77.2845C-2.31685 77.2845 -2.38666 75.8349 -2.40994 74.8362H-2.41461Z" fill="#BF9EFF"/>
<path d="M27.5472 74.8091C45.0504 74.7998 67.1154 74.7858 84.8979 74.7766C84.3393 75.5293 83.869 76.3469 83.5014 77.2203C66.4497 77.2343 45.744 77.2484 28.9391 77.2622C28.576 76.3841 28.1058 75.5618 27.5472 74.8091Z" fill="#BF9EFF"/>
<path d="M-4.73851 83.4785H2.11842C2.30095 83.4785 2.44893 83.3308 2.44893 83.1485V77.606C2.44893 77.4238 2.30095 77.2761 2.11842 77.2761H-4.73851C-4.92105 77.2761 -5.06903 77.4238 -5.06903 77.606V83.1485C-5.06903 83.3308 -4.92105 83.4785 -4.73851 83.4785Z" fill="#BF9EFF"/>
<path d="M82.4729 83.4925C82.3894 82.9164 82.3474 82.331 82.3474 81.7457C82.3474 75.1622 87.7147 69.8102 94.3063 69.8102C97.8208 69.8102 101.14 71.3433 103.421 74.0147L102.927 74.4376C100.772 71.91 97.6299 70.4605 94.3109 70.4605C88.0732 70.4605 82.9991 75.5246 82.9991 81.7503C82.9991 82.3032 83.041 82.8606 83.1201 83.4042L82.4777 83.4972L82.4729 83.4925Z" fill="#F1EAFF"/>
<path d="M29.9576 83.5007L29.315 83.4077C29.3944 82.8642 29.4361 82.3065 29.4361 81.7491C29.4361 79.073 28.4818 76.476 26.7456 74.441C24.5902 71.9136 21.448 70.4641 18.1289 70.4641C11.8912 70.4641 6.81711 75.5281 6.81711 81.7539C6.81711 82.1674 6.84037 82.5854 6.88692 82.9989L6.23987 83.0685C6.19332 82.6364 6.17004 82.1904 6.17004 81.7539C6.17004 75.1704 11.5374 69.8182 18.1289 69.8182C21.6437 69.8182 24.9626 71.3514 27.2436 74.0229C29.0777 76.1786 30.0879 78.9197 30.0879 81.7539C30.0879 82.3392 30.046 82.9292 29.9622 83.5052L29.9576 83.5007Z" fill="#F1EAFF"/>
<path d="M98.891 70.9406H98.2394V58.7356C97.1548 57.7319 87.7653 49.1369 80.0241 44.7325C79.5957 44.4862 76.4813 43.0786 73.0274 42.7162C71.9474 42.6836 -0.364735 42.614 -1.09558 42.614V41.9635C11.2357 41.9727 72.762 42.0333 73.0879 42.0658C76.7048 42.4421 79.8749 43.8915 80.3498 44.1656C88.6032 48.8628 98.6862 58.257 98.7886 58.3546L98.891 58.452V70.9406Z" fill="#F1EAFF"/>
<path d="M82.6777 82.475H63.1123V42.5195H63.7641V81.8292H82.6777V82.475Z" fill="#F1EAFF"/>
<path d="M63.4468 81.8528H29.7765V82.5033H63.4468V81.8528Z" fill="#F1EAFF"/>
<path d="M63.0784 13.7107H25.912V37.3588H63.0784V13.7107Z" fill="#E9FAFA"/>
<path d="M53.7626 13.7107H23.7372V37.3588H53.7626V13.7107Z" fill="#D1F4F4"/>
<path d="M59.8185 13.7107H57.2256V18.5238H59.8185V13.7107Z" fill="#D1F4F4"/>
<path d="M40.8649 13.7107H37.9088V18.5238H40.8649V13.7107Z" fill="#B5EFEF"/>
</g>
<mask id="mask2_11297_2210" style="mask-type:alpha" maskUnits="userSpaceOnUse" x="11" y="0" width="112" height="111">
<path d="M67.0542 110.986C97.7897 110.986 122.706 86.141 122.706 55.4931C122.706 24.8451 97.7897 0 67.0542 0C36.3187 0 11.4026 24.8451 11.4026 55.4931C11.4026 86.141 36.3187 110.986 67.0542 110.986Z" fill="#FBF9FF"/>
</mask>
<g mask="url(#mask2_11297_2210)">
<path d="M0.784912 82.3198H111.502V69.1205H0.784912V82.3198Z" fill="#F1EAFF"/>
<path d="M-0.65848 39.8161C-0.160384 38.3944 0.179435 37.4372 1.68769 37.4142C6.87344 37.3398 21.1133 37.3584 35.5394 37.3026C51.4272 37.2423 67.5386 37.1539 72.0494 38.1713C78.7153 39.6766 99.5377 57.9029 99.5377 57.9029C99.9984 58.4001 108.62 59.0691 114.746 65.1833C116.105 66.5398 114.499 68.0219 115.239 69.6248C116.459 72.2637 116.599 74.2847 116.599 76.1662C116.599 76.1662 115.174 80.408 114.248 81.5975C113.391 82.6987 103.015 83.4559 108.438 83.4466C107.209 83.4466 105.687 83.4466 103.913 83.4466C104.011 82.8936 104.062 82.3223 104.062 81.7416C104.062 76.3615 99.6959 72.0036 94.3054 72.0036C88.9147 72.0036 84.5483 76.3615 84.5483 81.7416C84.5483 82.3223 84.5995 82.8892 84.6972 83.4418C67.5386 83.4326 45.3803 83.4094 27.7516 83.3863C27.8445 82.8519 27.8913 82.3037 27.8913 81.7416C27.8913 76.3615 23.5248 72.0036 18.1341 72.0036C12.7435 72.0036 8.37703 76.3615 8.37703 81.7416C8.37703 82.2201 8.41429 82.6893 8.47946 83.1447C1.94372 82.7683 -2.08295 82.0482 -2.08295 82.0482C-2.30173 82.0482 -2.53448 69.5689 -2.53448 62.5768C-2.53448 53.7449 -1.65002 42.6455 -0.653824 39.8068L-0.65848 39.8161Z" fill="#D2B8FF"/>
<path d="M95.0993 89.6898C99.5051 89.2548 102.723 85.3376 102.287 80.9406C101.851 76.5436 97.9267 73.3316 93.521 73.7666C89.1154 74.2016 85.8973 78.1188 86.3332 82.516C86.7691 86.9129 90.6938 90.1248 95.0993 89.6898Z" fill="#D2B8FF"/>
<path d="M94.3178 87.0624C97.2744 87.0624 99.6711 84.6702 99.6711 81.7195C99.6711 78.7686 97.2744 76.3767 94.3178 76.3767C91.3613 76.3767 88.9644 78.7686 88.9644 81.7195C88.9644 84.6702 91.3613 87.0624 94.3178 87.0624Z" fill="#BF9EFF"/>
<path d="M95.0024 85.9159C97.327 85.5394 98.9056 83.3534 98.5283 81.0334C98.151 78.7132 95.9606 77.1378 93.6362 77.5144C91.3115 77.891 89.733 80.0771 90.1103 82.3972C90.4876 84.7171 92.678 86.2926 95.0024 85.9159Z" fill="#BF9EFF"/>
<path d="M18.1597 89.7197C22.5868 89.7197 26.1757 86.1379 26.1757 81.7194C26.1757 77.3008 22.5868 73.719 18.1597 73.719C13.7325 73.719 10.1436 77.3008 10.1436 81.7194C10.1436 86.1379 13.7325 89.7197 18.1597 89.7197Z" fill="#D2B8FF"/>
<path d="M18.1623 87.0624C21.1188 87.0624 23.5157 84.6702 23.5157 81.7195C23.5157 78.7686 21.1188 76.3767 18.1623 76.3767C15.2057 76.3767 12.8089 78.7686 12.8089 81.7195C12.8089 84.6702 15.2057 87.0624 18.1623 87.0624Z" fill="#BF9EFF"/>
<path d="M18.6848 85.9414C21.022 85.6542 22.6834 83.5302 22.3957 81.1974C22.1078 78.8646 19.9798 77.2064 17.6424 77.4938C15.3051 77.781 13.6436 79.9048 13.9315 82.2377C14.2192 84.5703 16.3474 86.2286 18.6848 85.9414Z" fill="#BF9EFF"/>
<path d="M96.7838 58.581C96.7838 58.581 83.568 47.1473 77.8048 45.3956C72.0465 43.6396 65.7994 44.4618 65.7994 44.4618L65.9019 54.0512L71.246 57.3405L96.7838 58.581Z" fill="#F1EAFF"/>
<path d="M113.725 68.9866L114.149 66.9517C114.149 66.9517 114.051 63.8854 106.957 61.9108L108.237 67.816L113.725 68.9866Z" fill="#F1EAFF"/>
<path d="M103.692 74.7678C111.587 74.7631 116.554 74.7586 116.559 74.7493C116.559 74.7493 116.633 75.1813 116.452 77.1745C116.452 77.1838 112.113 77.1931 105.088 77.2023C104.721 76.3336 104.251 75.5159 103.692 74.7678Z" fill="url(#paint1_linear_11297_2210)"/>
<path d="M104.062 81.7459C104.062 78.7261 102.684 76.0267 100.52 74.2426C105.138 74.2381 112.623 74.2286 113.265 74.2286H116.375C116.924 74.2286 117.367 74.6375 117.367 75.144C117.367 75.144 117.273 78.294 116.906 79.3438C116.622 80.1478 114.764 82.5636 114.764 82.5636C114.764 83.0701 114.178 83.4788 113.628 83.4788H103.904C104.006 82.9167 104.058 82.3407 104.058 81.7459H104.062Z" fill="#BF9EFF"/>
<path d="M27.5527 74.8091C45.0558 74.7998 67.1209 74.7858 84.9034 74.7766C84.3448 75.5293 83.8746 76.3469 83.5069 77.2203C66.4552 77.2343 45.7495 77.2484 28.9446 77.2622C28.5815 76.3841 28.1113 75.5618 27.5527 74.8091Z" fill="#BF9EFF"/>
<path d="M82.473 83.4925C82.3894 82.9164 82.3474 82.331 82.3474 81.7457C82.3474 75.1622 87.7148 69.8102 94.3064 69.8102C97.8209 69.8102 101.14 71.3433 103.421 74.0147L102.928 74.4376C100.772 71.91 97.63 70.4605 94.311 70.4605C88.0732 70.4605 82.9992 75.5246 82.9992 81.7503C82.9992 82.3032 83.041 82.8606 83.1202 83.4042L82.4777 83.4972L82.473 83.4925Z" fill="#F1EAFF"/>
<path d="M29.9631 83.5007L29.3205 83.4077C29.3999 82.8642 29.4416 82.3065 29.4416 81.7491C29.4416 79.073 28.4873 76.476 26.7511 74.441C24.5957 71.9136 21.4535 70.4641 18.1344 70.4641C11.8966 70.4641 6.82262 75.5281 6.82262 81.7539C6.82262 82.1674 6.84588 82.5854 6.89243 82.9989L6.24537 83.0685C6.19881 82.6364 6.17554 82.1904 6.17554 81.7539C6.17554 75.1704 11.5429 69.8182 18.1344 69.8182C21.6491 69.8182 24.9681 71.3514 27.2491 74.0229C29.0831 76.1786 30.0934 78.9197 30.0934 81.7539C30.0934 82.3392 30.0515 82.9292 29.9677 83.5052L29.9631 83.5007Z" fill="#F1EAFF"/>
<path d="M98.8965 70.9406H98.2449V58.7356C97.1603 57.7319 87.7708 49.1369 80.0296 44.7325C79.6012 44.4862 76.4869 43.0786 73.0329 42.7162C71.9529 42.6836 -0.359242 42.614 -1.09009 42.614V41.9635C11.2412 41.9727 72.7675 42.0333 73.0934 42.0658C76.7103 42.4421 79.8804 43.8915 80.3552 44.1656C88.6087 48.8628 98.6917 58.257 98.7941 58.3546L98.8965 58.452V70.9406Z" fill="#F1EAFF"/>
<path d="M82.6832 82.475H63.1178V42.5195H63.7696V81.8292H82.6832V82.475Z" fill="#F1EAFF"/>
<path d="M63.4523 81.8528H29.7821V82.5033H63.4523V81.8528Z" fill="#F1EAFF"/>
<path d="M63.0839 13.7107H25.9175V37.3588H63.0839V13.7107Z" fill="#E9FAFA"/>
<path d="M53.7681 13.7107H23.7427V37.3588H53.7681V13.7107Z" fill="#D1F4F4"/>
<path d="M59.8239 13.7107H57.2311V18.5238H59.8239V13.7107Z" fill="#D1F4F4"/>
<path d="M40.8704 13.7107H37.9143V18.5238H40.8704V13.7107Z" fill="#B5EFEF"/>
</g>
<path d="M61.7939 112.793C65.6781 108.92 65.6781 102.64 61.7939 98.7665C57.9095 94.8931 51.6116 94.8931 47.7274 98.7665C43.843 102.64 43.843 108.92 47.7274 112.793C51.6117 116.666 57.9095 116.666 61.7939 112.793Z" fill="white"/>
<path fill-rule="evenodd" clip-rule="evenodd" d="M64.9453 115.059C70.8122 109.208 70.8122 99.7229 64.9453 93.8727C59.0783 88.0223 49.5659 88.0225 43.6989 93.8727C37.832 99.7229 37.832 109.208 43.6989 115.059C49.5659 120.909 59.0783 120.909 64.9453 115.059ZM51.9318 100.493C51.4919 100.054 50.7785 100.054 50.3384 100.493C49.8984 100.932 49.8984 101.643 50.3384 102.082L52.7286 104.466L50.3384 106.849C49.8984 107.288 49.8984 107.999 50.3384 108.438C50.7785 108.877 51.4919 108.877 51.9318 108.438L54.3221 106.055L56.7123 108.438C57.1524 108.877 57.8658 108.877 58.3058 108.438C58.7459 107.999 58.7459 107.288 58.3058 106.849L55.9156 104.466L58.3058 102.082C58.7459 101.643 58.7459 100.932 58.3058 100.493C57.8658 100.054 57.1524 100.054 56.7123 100.493L54.3221 102.877L51.9318 100.493Z" fill="#AE72FF"/>
</g>
<defs>
<linearGradient id="paint0_linear_11297_2210" x1="116.573" y1="75.9759" x2="103.692" y2="75.9759" gradientUnits="userSpaceOnUse">
<stop stop-color="#161616"/>
<stop offset="0.48" stop-color="#080808"/>
<stop offset="0.98"/>
</linearGradient>
<linearGradient id="paint1_linear_11297_2210" x1="116.573" y1="75.9759" x2="103.692" y2="75.9759" gradientUnits="userSpaceOnUse">
<stop stop-color="#161616"/>
<stop offset="0.48" stop-color="#080808"/>
<stop offset="0.98"/>
</linearGradient>
</defs>
</svg>
