<svg width="86" height="91" viewBox="0 0 86 91" fill="none" xmlns="http://www.w3.org/2000/svg">
<g clip-path="url(#clip0_8644_45156)">
<path d="M37.6174 75.0426C57.819 75.0426 74.1956 58.6788 74.1956 38.493C74.1956 18.3072 57.819 1.94336 37.6174 1.94336C17.4157 1.94336 1.03906 18.3072 1.03906 38.493C1.03906 58.6788 17.4157 75.0426 37.6174 75.0426Z" fill="#FBF9FF"/>
<mask id="mask0_8644_45156" style="mask-type:alpha" maskUnits="userSpaceOnUse" x="1" y="0" width="80" height="80">
<path d="M40.9422 79.5255C62.9693 79.5255 80.8258 61.7231 80.8258 39.7628C80.8258 17.8024 62.9693 0 40.9422 0C18.9151 0 1.05859 17.8024 1.05859 39.7628C1.05859 61.7231 18.9151 79.5255 40.9422 79.5255Z" fill="#FBF9FF"/>
</mask>
<g mask="url(#mask0_8644_45156)">
<path d="M0.558594 58.9851H79.9055V49.5273H0.558594V58.9851Z" fill="#F1EAFF"/>
<path d="M-0.475846 28.5296C-0.118878 27.5109 0.12466 26.8251 1.20557 26.8086C4.92203 26.7553 15.1273 26.7686 25.466 26.7286C36.8522 26.6854 48.3987 26.6221 51.6315 27.3511C56.4087 28.4297 71.3314 41.4895 71.3314 41.4895C71.6616 41.8457 77.8401 42.3251 82.2306 46.7061C83.2047 47.6781 82.0537 48.7401 82.5842 49.8886C83.4583 51.7795 83.5584 53.2276 83.5584 54.5758C83.5584 54.5758 82.5374 57.6152 81.8735 58.4675C81.2597 59.2565 73.8234 59.7991 77.7101 59.7924C76.8294 59.7924 75.7384 59.7924 74.4673 59.7924C74.5374 59.3962 74.5741 58.9868 74.5741 58.5707C74.5741 54.7157 71.4448 51.5931 67.5816 51.5931C63.7183 51.5931 60.589 54.7157 60.589 58.5707C60.589 58.9868 60.6257 59.393 60.6957 59.789C48.3987 59.7824 32.5186 59.7658 19.8847 59.7492C19.9513 59.3663 19.9848 58.9735 19.9848 58.5707C19.9848 54.7157 16.8555 51.5931 12.9922 51.5931C9.12892 51.5931 5.99961 54.7157 5.99961 58.5707C5.99961 58.9136 6.02631 59.2498 6.07301 59.5761C1.38906 59.3064 -1.49671 58.7904 -1.49671 58.7904C-1.6535 58.7904 -1.82031 49.8486 -1.82031 44.8385C-1.82031 38.5101 -1.18645 30.557 -0.47251 28.523L-0.475846 28.5296Z" fill="#D2B8FF"/>
<path d="M68.1506 64.2659C71.3081 63.9542 73.6144 61.1474 73.302 57.9968C72.9896 54.8462 70.1769 52.5447 67.0194 52.8564C63.8621 53.1681 61.5558 55.9749 61.8682 59.1256C62.1806 62.2762 64.9933 64.5776 68.1506 64.2659Z" fill="#D2B8FF"/>
<path d="M67.5905 62.3833C69.7094 62.3833 71.427 60.6692 71.427 58.5549C71.427 56.4405 69.7094 54.7266 67.5905 54.7266C65.4717 54.7266 63.7539 56.4405 63.7539 58.5549C63.7539 60.6692 65.4717 62.3833 67.5905 62.3833Z" fill="#D2B8FF"/>
<path d="M68.0811 61.5618C69.7471 61.292 70.8784 59.7257 70.608 58.0633C70.3376 56.4008 68.7678 55.272 67.102 55.5418C65.436 55.8117 64.3047 57.3781 64.5751 59.0405C64.8455 60.7028 66.4153 61.8317 68.0811 61.5618Z" fill="#D2B8FF"/>
<path d="M13.0105 64.2874C16.1833 64.2874 18.7553 61.7209 18.7553 58.5549C18.7553 55.3888 16.1833 52.8223 13.0105 52.8223C9.83768 52.8223 7.26562 55.3888 7.26562 58.5549C7.26562 61.7209 9.83768 64.2874 13.0105 64.2874Z" fill="#D2B8FF"/>
<path d="M13.0124 62.3833C15.1312 62.3833 16.849 60.6692 16.849 58.5549C16.849 56.4405 15.1312 54.7266 13.0124 54.7266C10.8935 54.7266 9.17578 56.4405 9.17578 58.5549C9.17578 60.6692 10.8935 62.3833 13.0124 62.3833Z" fill="#BF9EFF"/>
<path d="M13.3868 61.5801C15.0618 61.3743 16.2525 59.8524 16.0462 58.1809C15.8399 56.5093 14.3149 55.3212 12.6398 55.5271C10.9647 55.7329 9.77398 57.2547 9.98026 58.9263C10.1865 60.5977 11.7117 61.7859 13.3868 61.5801Z" fill="#BF9EFF"/>
<path d="M69.3617 41.9754C69.3617 41.9754 59.8904 33.7827 55.7601 32.5276C51.6333 31.2693 47.1562 31.8585 47.1562 31.8585L47.2297 38.7296L51.0596 41.0865L69.3617 41.9754Z" fill="#F1EAFF"/>
<path d="M53.0454 31.9362C53.0454 31.9362 51.5308 31.7497 50.043 31.7031L61.3991 41.5969L63.561 41.6869L53.0454 31.9362Z" fill="#FBFAFE"/>
<path d="M48.964 31.748L47.793 31.7913L58.0216 41.4155L59.0591 41.4587L48.964 31.748Z" fill="#FBFAFE"/>
<path d="M81.4992 49.4314L81.8029 47.9733C81.8029 47.9733 81.7327 45.7762 76.6484 44.3613L77.5659 48.5926L81.4992 49.4314Z" fill="#F1EAFF"/>
<path d="M74.3125 53.5738C79.9706 53.5704 83.5304 53.5672 83.5336 53.5605C83.5336 53.5605 83.5871 53.8701 83.457 55.2983C83.457 55.3049 80.3477 55.3116 75.3134 55.3182C75.0498 54.6957 74.7129 54.1098 74.3125 53.5738Z" fill="url(#paint0_linear_8644_45156)"/>
<path d="M74.578 58.5739C74.578 56.4101 73.5904 54.4759 72.0391 53.1975C75.3486 53.1943 80.7131 53.1875 81.1735 53.1875H83.402C83.7957 53.1875 84.1127 53.4805 84.1127 53.8434C84.1127 53.8434 84.0459 56.1005 83.7824 56.8527C83.5789 57.4288 82.2477 59.1598 82.2477 59.1598C82.2477 59.5227 81.8274 59.8156 81.4337 59.8156H74.4645C74.5379 59.4128 74.5746 59.0001 74.5746 58.5739H74.578Z" fill="#BF9EFF"/>
<path d="M-1.73047 53.6228C-1.73047 53.6228 1.30543 53.616 6.23625 53.6094C5.83591 54.1487 5.5023 54.7413 5.24209 55.3704C1.47557 55.3704 -1.66041 55.3771 -1.66041 55.3771C-1.66041 55.3771 -1.71044 54.3384 -1.72712 53.6228H-1.73047Z" fill="#BF9EFF"/>
<path d="M19.7422 53.6034C32.2861 53.5967 48.0994 53.5867 60.8435 53.5801C60.4432 54.1194 60.1061 54.7053 59.8427 55.3311C47.6223 55.3411 32.7832 55.3512 20.7397 55.3611C20.4795 54.7319 20.1425 54.1427 19.7422 53.6034Z" fill="#BF9EFF"/>
<path d="M-3.39594 59.8153H1.5182C1.64901 59.8153 1.75506 59.7095 1.75506 59.5789V55.6075C1.75506 55.4769 1.64901 55.3711 1.5182 55.3711H-3.39594C-3.52676 55.3711 -3.63281 55.4769 -3.63281 55.6075V59.5789C-3.63281 59.7095 -3.52676 59.8153 -3.39594 59.8153Z" fill="#BF9EFF"/>
<path d="M59.1056 59.8254C59.0457 59.4126 59.0156 58.9931 59.0156 58.5737C59.0156 53.8564 62.8622 50.0215 67.5862 50.0215C70.1049 50.0215 72.4836 51.12 74.1183 53.0342L73.7647 53.3372C72.22 51.5261 69.9681 50.4875 67.5895 50.4875C63.1191 50.4875 59.4827 54.1161 59.4827 58.577C59.4827 58.9732 59.5127 59.3726 59.5694 59.7621L59.109 59.8287L59.1056 59.8254Z" fill="#F1EAFF"/>
<path d="M21.4696 59.8313L21.0091 59.7646C21.066 59.3752 21.0959 58.9756 21.0959 58.5762C21.0959 56.6587 20.412 54.7978 19.1677 53.3397C17.623 51.5287 15.3711 50.4901 12.9924 50.4901C8.52201 50.4901 4.88561 54.1186 4.88561 58.5796C4.88561 58.8759 4.90228 59.1754 4.93564 59.4717L4.47192 59.5216C4.43856 59.212 4.42188 58.8924 4.42188 58.5796C4.42188 53.8623 8.26846 50.0273 12.9924 50.0273C15.5113 50.0273 17.8899 51.1259 19.5246 53.0401C20.839 54.5847 21.563 56.5488 21.563 58.5796C21.563 58.999 21.533 59.4218 21.4729 59.8345L21.4696 59.8313Z" fill="#F1EAFF"/>
<path d="M70.8719 50.8315H70.4049V42.0862C69.6276 41.367 62.8985 35.2084 57.3506 32.0525C57.0436 31.876 54.8116 30.8674 52.3363 30.6077C51.5623 30.5844 -0.261383 30.5345 -0.785156 30.5345V30.0684C8.05229 30.075 52.1461 30.1184 52.3797 30.1417C54.9718 30.4113 57.2437 31.4499 57.584 31.6463C63.499 35.012 70.7251 41.7433 70.7985 41.8132L70.8719 41.883V50.8315Z" fill="#F1EAFF"/>
<path d="M59.2524 59.0963H45.2305V30.4668H45.6976V58.6336H59.2524V59.0963Z" fill="#F1EAFF"/>
<path d="M45.4702 58.6504H21.3398V59.1165H45.4702V58.6504Z" fill="#F1EAFF"/>
<path d="M45.2062 9.82422H18.5703V26.7689H45.2062V9.82422Z" fill="#E9FAFA"/>
<path d="M38.5299 9.82422H17.0117V26.7689H38.5299V9.82422Z" fill="#D1F4F4"/>
<path d="M42.8699 9.82422H41.0117V13.273H42.8699V9.82422Z" fill="#D1F4F4"/>
<path d="M29.2865 9.82422H27.168V13.273H29.2865V9.82422Z" fill="#B5EFEF"/>
</g>
<mask id="mask1_8644_45156" style="mask-type:alpha" maskUnits="userSpaceOnUse" x="8" y="0" width="80" height="80">
<path d="M48.0555 79.5255C70.0826 79.5255 87.9391 61.7231 87.9391 39.7628C87.9391 17.8024 70.0826 0 48.0555 0C26.0284 0 8.17188 17.8024 8.17188 39.7628C8.17188 61.7231 26.0284 79.5255 48.0555 79.5255Z" fill="#FBF9FF"/>
</mask>
<g mask="url(#mask1_8644_45156)">
<path d="M0.5625 58.9851H79.9094V49.5273H0.5625V58.9851Z" fill="#F1EAFF"/>
<path d="M-0.47194 28.5296C-0.114971 27.5109 0.128566 26.8251 1.20948 26.8086C4.92594 26.7553 15.1312 26.7686 25.4699 26.7286C36.8561 26.6854 48.4026 26.6221 51.6354 27.3511C56.4126 28.4297 71.3353 41.4895 71.3353 41.4895C71.6655 41.8457 77.844 42.3251 82.2345 46.7061C83.2086 47.6781 82.0576 48.7401 82.5881 49.8886C83.4622 51.7795 83.5623 53.2276 83.5623 54.5758C83.5623 54.5758 82.5413 57.6152 81.8774 58.4675C81.2636 59.2565 73.8273 59.7991 77.714 59.7924C76.8333 59.7924 75.7423 59.7924 74.4712 59.7924C74.5413 59.3962 74.578 58.9868 74.578 58.5707C74.578 54.7157 71.4487 51.5931 67.5855 51.5931C63.7222 51.5931 60.5929 54.7157 60.5929 58.5707C60.5929 58.9868 60.6296 59.393 60.6996 59.789C48.4026 59.7824 32.5225 59.7658 19.8886 59.7492C19.9552 59.3663 19.9887 58.9735 19.9887 58.5707C19.9887 54.7157 16.8594 51.5931 12.9961 51.5931C9.13283 51.5931 6.00351 54.7157 6.00351 58.5707C6.00351 58.9136 6.03021 59.2498 6.07692 59.5761C1.39297 59.3064 -1.49281 58.7904 -1.49281 58.7904C-1.6496 58.7904 -1.81641 49.8486 -1.81641 44.8385C-1.81641 38.5101 -1.18254 30.557 -0.468603 28.523L-0.47194 28.5296Z" fill="#D2B8FF"/>
<path d="M68.1545 64.2659C71.312 63.9542 73.6183 61.1474 73.3059 57.9968C72.9935 54.8462 70.1808 52.5447 67.0234 52.8564C63.866 53.1681 61.5597 55.9749 61.8721 59.1256C62.1845 62.2762 64.9972 64.5776 68.1545 64.2659Z" fill="#D2B8FF"/>
<path d="M67.5944 62.3833C69.7133 62.3833 71.4309 60.6692 71.4309 58.5549C71.4309 56.4405 69.7133 54.7266 67.5944 54.7266C65.4756 54.7266 63.7578 56.4405 63.7578 58.5549C63.7578 60.6692 65.4756 62.3833 67.5944 62.3833Z" fill="#BF9EFF"/>
<path d="M68.085 61.5618C69.751 61.292 70.8823 59.7257 70.6119 58.0633C70.3415 56.4008 68.7717 55.272 67.1059 55.5418C65.4399 55.8117 64.3086 57.3781 64.579 59.0405C64.8494 60.7028 66.4192 61.8317 68.085 61.5618Z" fill="#BF9EFF"/>
<path d="M13.0144 64.2874C16.1872 64.2874 18.7592 61.7209 18.7592 58.5549C18.7592 55.3888 16.1872 52.8223 13.0144 52.8223C9.84158 52.8223 7.26953 55.3888 7.26953 58.5549C7.26953 61.7209 9.84158 64.2874 13.0144 64.2874Z" fill="#D2B8FF"/>
<path d="M13.0163 62.3833C15.1351 62.3833 16.8529 60.6692 16.8529 58.5549C16.8529 56.4405 15.1351 54.7266 13.0163 54.7266C10.8974 54.7266 9.17969 56.4405 9.17969 58.5549C9.17969 60.6692 10.8974 62.3833 13.0163 62.3833Z" fill="#BF9EFF"/>
<path d="M13.3907 61.5801C15.0657 61.3743 16.2564 59.8524 16.0502 58.1809C15.8439 56.5093 14.3188 55.3212 12.6437 55.5271C10.9686 55.7329 9.77789 57.2547 9.98416 58.9263C10.1904 60.5977 11.7156 61.7859 13.3907 61.5801Z" fill="#BF9EFF"/>
<path d="M69.3617 41.9754C69.3617 41.9754 59.8904 33.7827 55.7601 32.5276C51.6333 31.2693 47.1562 31.8585 47.1562 31.8585L47.2297 38.7296L51.0596 41.0865L69.3617 41.9754Z" fill="#F1EAFF"/>
<path d="M81.5032 49.4314L81.8068 47.9733C81.8068 47.9733 81.7366 45.7762 76.6523 44.3613L77.5698 48.5926L81.5032 49.4314Z" fill="#F1EAFF"/>
<path d="M74.3125 53.5738C79.9706 53.5704 83.5304 53.5672 83.5336 53.5605C83.5336 53.5605 83.5871 53.8701 83.457 55.2983C83.457 55.3049 80.3477 55.3116 75.3134 55.3182C75.0498 54.6957 74.7129 54.1098 74.3125 53.5738Z" fill="url(#paint1_linear_8644_45156)"/>
<path d="M74.578 58.5739C74.578 56.4101 73.5904 54.4759 72.0391 53.1975C75.3486 53.1943 80.7131 53.1875 81.1735 53.1875H83.402C83.7957 53.1875 84.1127 53.4805 84.1127 53.8434C84.1127 53.8434 84.0459 56.1005 83.7824 56.8527C83.5789 57.4288 82.2477 59.1598 82.2477 59.1598C82.2477 59.5227 81.8274 59.8156 81.4337 59.8156H74.4645C74.5379 59.4128 74.5746 59.0001 74.5746 58.5739H74.578Z" fill="#BF9EFF"/>
<path d="M19.7461 53.6034C32.29 53.5967 48.1033 53.5867 60.8474 53.5801C60.4471 54.1194 60.1101 54.7053 59.8466 55.3311C47.6262 55.3411 32.7871 55.3512 20.7436 55.3611C20.4834 54.7319 20.1464 54.1427 19.7461 53.6034Z" fill="#BF9EFF"/>
<path d="M59.1056 59.8254C59.0457 59.4126 59.0156 58.9931 59.0156 58.5737C59.0156 53.8564 62.8622 50.0215 67.5862 50.0215C70.1049 50.0215 72.4836 51.12 74.1183 53.0342L73.7647 53.3372C72.22 51.5261 69.9681 50.4875 67.5895 50.4875C63.1191 50.4875 59.4827 54.1161 59.4827 58.577C59.4827 58.9732 59.5127 59.3726 59.5694 59.7621L59.109 59.8287L59.1056 59.8254Z" fill="#F1EAFF"/>
<path d="M21.4735 59.8313L21.013 59.7646C21.0699 59.3752 21.0998 58.9756 21.0998 58.5762C21.0998 56.6587 20.4159 54.7978 19.1716 53.3397C17.6269 51.5287 15.375 50.4901 12.9963 50.4901C8.52591 50.4901 4.88952 54.1186 4.88952 58.5796C4.88952 58.8759 4.90619 59.1754 4.93955 59.4717L4.47583 59.5216C4.44246 59.212 4.42578 58.8924 4.42578 58.5796C4.42578 53.8623 8.27236 50.0273 12.9963 50.0273C15.5152 50.0273 17.8938 51.1259 19.5285 53.0401C20.8429 54.5847 21.5669 56.5488 21.5669 58.5796C21.5669 58.999 21.5369 59.4218 21.4768 59.8345L21.4735 59.8313Z" fill="#F1EAFF"/>
<path d="M70.8758 50.8315H70.4088V42.0862C69.6315 41.367 62.9024 35.2084 57.3545 32.0525C57.0475 31.876 54.8156 30.8674 52.3402 30.6077C51.5662 30.5844 -0.257477 30.5345 -0.78125 30.5345V30.0684C8.0562 30.075 52.15 30.1184 52.3836 30.1417C54.9757 30.4113 57.2476 31.4499 57.5879 31.6463C63.5029 35.012 70.729 41.7433 70.8024 41.8132L70.8758 41.883V50.8315Z" fill="#F1EAFF"/>
<path d="M59.2563 59.0963H45.2344V30.4668H45.7015V58.6336H59.2563V59.0963Z" fill="#F1EAFF"/>
<path d="M45.4741 58.6504H21.3438V59.1165H45.4741V58.6504Z" fill="#F1EAFF"/>
<path d="M45.2101 9.82422H18.5742V26.7689H45.2101V9.82422Z" fill="#E9FAFA"/>
<path d="M38.5338 9.82422H17.0156V26.7689H38.5338V9.82422Z" fill="#D1F4F4"/>
<path d="M42.8738 9.82422H41.0156V13.273H42.8738V9.82422Z" fill="#D1F4F4"/>
<path d="M29.2904 9.82422H27.1719V13.273H29.2904V9.82422Z" fill="#B5EFEF"/>
</g>
<path d="M44.2856 80.8201C47.0693 78.0448 47.0693 73.5451 44.2856 70.7697C41.5018 67.9943 36.9883 67.9943 34.2046 70.7697C31.4208 73.5451 31.4208 78.0448 34.2046 80.8201C36.9884 83.5955 41.5018 83.5955 44.2856 80.8201Z" fill="white"/>
<path fill-rule="evenodd" clip-rule="evenodd" d="M46.5441 82.4435C50.7487 78.2515 50.7487 71.455 46.5441 67.2631C42.3394 63.0711 35.5222 63.0712 31.3175 67.2631C27.1129 71.455 27.1129 78.2515 31.3175 82.4435C35.5222 86.6354 42.3394 86.6354 46.5441 82.4435ZM37.2178 72.007C36.9025 71.6925 36.3912 71.6925 36.0758 72.007C35.7605 72.3213 35.7605 72.831 36.0758 73.1455L37.7888 74.8533L36.0758 76.5611C35.7605 76.8754 35.7605 77.3852 36.0758 77.6996C36.3912 78.014 36.9025 78.014 37.2178 77.6996L38.9308 75.9918L40.6438 77.6996C40.9592 78.014 41.4705 78.014 41.7858 77.6996C42.1012 77.3852 42.1012 76.8754 41.7858 76.5611L40.0728 74.8533L41.7858 73.1455C42.1012 72.831 42.1012 72.3213 41.7858 72.007C41.4705 71.6925 40.9592 71.6925 40.6438 72.007L38.9308 73.7148L37.2178 72.007Z" fill="#AE72FF"/>
</g>
<defs>
<linearGradient id="paint0_linear_8644_45156" x1="83.5437" y1="54.4394" x2="74.3125" y2="54.4394" gradientUnits="userSpaceOnUse">
<stop stop-color="#161616"/>
<stop offset="0.48" stop-color="#080808"/>
<stop offset="0.98"/>
</linearGradient>
<linearGradient id="paint1_linear_8644_45156" x1="83.5437" y1="54.4394" x2="74.3125" y2="54.4394" gradientUnits="userSpaceOnUse">
<stop stop-color="#161616"/>
<stop offset="0.48" stop-color="#080808"/>
<stop offset="0.98"/>
</linearGradient>
<clipPath id="clip0_8644_45156">
<rect width="85" height="91" fill="white" transform="translate(0.5)"/>
</clipPath>
</defs>
</svg>
