<svg width="679" height="534" viewBox="0 0 679 534" fill="none" xmlns="http://www.w3.org/2000/svg">
<rect x="90.4346" y="0.5" width="498" height="533" rx="28.175" fill="#1F0433" stroke="#AE72FF"/>
<circle cx="160.934" cy="69" r="37.5" stroke="#AE72FF"/>
<rect x="214.935" y="55" width="110" height="28" rx="5" fill="#2E1044"/>
<path d="M524.899 53.0151L519.934 48.1304L522.1 46L527.065 50.8847H550.403C551.249 50.8847 551.934 51.5592 551.934 52.3911C551.934 52.5377 551.912 52.6836 551.87 52.824L548.195 64.8752C548 65.5124 547.404 65.9488 546.728 65.9488H527.962V68.9616H544.805V71.9744H526.43C525.585 71.9744 524.899 71.2998 524.899 70.468V53.0151ZM527.196 78C525.928 78 524.899 76.9883 524.899 75.7404C524.899 74.4923 525.928 73.4808 527.196 73.4808C528.465 73.4808 529.493 74.4923 529.493 75.7404C529.493 76.9883 528.465 78 527.196 78ZM545.571 78C544.302 78 543.274 76.9883 543.274 75.7404C543.274 74.4923 544.302 73.4808 545.571 73.4808C546.839 73.4808 547.867 74.4923 547.867 75.7404C547.867 76.9883 546.839 78 545.571 78Z" fill="#AE72FF"/>
<path d="M484.188 69.0257L490.935 75.7722L488.707 78L481.96 71.2535C479.535 73.1943 476.458 74.3552 473.112 74.3552C465.286 74.3552 458.935 68.0037 458.935 60.1776C458.935 52.3516 465.286 46 473.112 46C480.938 46 487.29 52.3516 487.29 60.1776C487.29 63.5235 486.129 66.5999 484.188 69.0257ZM481.028 67.8569C482.954 65.8717 484.139 63.1637 484.139 60.1776C484.139 54.0852 479.205 49.1506 473.112 49.1506C467.02 49.1506 462.085 54.0852 462.085 60.1776C462.085 66.2701 467.02 71.2047 473.112 71.2047C476.098 71.2047 478.806 70.0193 480.791 68.093L481.028 67.8569Z" fill="#AE72FF"/>
<g opacity="0.21">
<path fill-rule="evenodd" clip-rule="evenodd" d="M151.585 68.896C149.919 67.7049 147.91 67.0514 145.837 67.0514C144.814 67.0514 143.992 67.8731 143.992 68.896C143.992 69.9188 144.814 70.7405 145.837 70.7405C147.91 70.7405 149.919 70.087 151.585 68.896ZM160.331 77.6413C159.139 79.308 158.486 81.3169 158.486 83.3897C158.486 84.4125 159.308 85.2342 160.331 85.2342C161.353 85.2342 162.175 84.4125 162.175 83.3897C162.175 81.3169 161.522 79.308 160.331 77.6413ZM169.076 68.896C170.743 70.087 172.751 70.7405 174.824 70.7405C175.847 70.7405 176.669 69.9188 176.669 68.896C176.669 67.8731 175.847 67.0514 174.824 67.0514C172.751 67.0514 170.743 67.7049 169.076 68.896ZM160.331 65.3731L156.808 68.896L160.331 72.4188L163.853 68.896L160.331 65.3731ZM162.788 62.7976C164.683 60.4271 165.733 57.4669 165.733 54.4023C165.733 51.3376 163.318 49 160.331 49C157.343 49 154.928 51.415 154.928 54.4023C154.928 57.3896 155.978 60.4271 157.873 62.7976L154.234 66.4365C151.864 64.5417 148.903 63.4918 145.839 63.4918C142.774 63.4918 140.435 65.9087 140.435 68.896C140.435 71.8833 142.85 74.2982 145.837 74.2982C148.824 74.2982 151.862 73.2483 154.232 71.3535L157.871 74.9924C155.976 77.3629 154.926 80.3231 154.926 83.3877C154.926 86.4524 157.341 88.79 160.329 88.79C163.316 88.79 165.731 86.375 165.731 83.3877C165.731 80.4004 164.681 77.3629 162.786 74.9924L166.425 71.3535C168.795 73.2483 171.756 74.2982 174.82 74.2982C177.885 74.2982 180.223 71.8833 180.223 68.896C180.223 65.9087 177.808 63.4937 174.82 63.4937C171.833 63.4937 168.795 64.5436 166.425 66.4385L162.786 62.7996L162.788 62.7976ZM160.331 52.5577C159.308 52.5577 158.486 53.3794 158.486 54.4023C158.486 56.475 159.139 58.4839 160.331 60.1506C161.522 58.4839 162.175 56.475 162.175 54.4023C162.175 53.3794 161.353 52.5577 160.331 52.5577Z" fill="#AE72FF"/>
</g>
<rect x="233.6" y="173.5" width="211.75" height="284.825" rx="28.175" fill="#1F0433" stroke="#AE72FF"/>
<rect x="466.7" y="173.5" width="211.75" height="284.825" rx="28.175" fill="#1F0433" stroke="#AE72FF"/>
<rect x="0.5" y="173.5" width="211.75" height="284.825" rx="28.175" fill="#1F0433" stroke="#AE72FF"/>
<rect x="25" y="381" width="162" height="28" rx="5" fill="#2E1044"/>
<rect x="258" y="381" width="162" height="28" rx="5" fill="#2E1044"/>
<rect x="492" y="381" width="162" height="28" rx="5" fill="#2E1044"/>
<rect x="25" y="199" width="162" height="158" rx="17" fill="#2E1044"/>
<rect x="258" y="199" width="162" height="158" rx="17" fill="#2E1044"/>
<rect x="492" y="202" width="162" height="158" rx="17" fill="#2E1044"/>
<path d="M97.3024 240.277C97.5164 239.523 97.7976 238.806 98.2527 238.164C98.5783 237.705 98.9984 237.37 99.5558 237.245C100.237 237.094 100.918 236.925 101.607 236.827C103.567 236.55 105.528 236.276 107.495 236.057C109.695 235.813 111.897 235.567 114.105 235.434C117.441 235.235 120.779 235.027 124.129 235.112C126.611 235.263 129.094 235.389 131.573 235.572C133.431 235.709 135.287 235.895 137.138 236.104C138.178 236.222 139.214 236.403 140.241 236.606C141.488 236.853 142.555 237.477 143.497 238.318C143.669 238.471 143.849 238.644 143.951 238.845C143.991 238.924 144.029 239.004 144.067 239.082C143.917 237.338 142.706 235.682 141.049 235.305C126.57 232.551 113.109 234.285 98.8339 236.529C97.4064 236.732 95.9789 238.364 96.1826 239.893C96.261 240.522 96.7647 241.15 97.4575 241.545C97.2257 241.188 97.161 240.775 97.3024 240.277Z" fill="#512473"/>
<path d="M124.141 235.562H124.149L124.158 235.562C126.633 235.713 129.126 235.84 131.609 236.022C133.476 236.16 135.338 236.347 137.193 236.557C138.253 236.676 139.304 236.861 140.337 237.065C141.694 237.333 142.839 238.01 143.829 238.894C143.999 239.045 144.247 239.274 144.396 239.569L144.534 239.852C145.165 241.175 145.572 242.6 145.31 244.167L145.243 244.505C144.942 245.827 144.174 246.75 142.976 247.271L142.73 247.371C141.76 247.732 140.76 247.911 139.759 247.995C137.411 248.193 135.058 248.24 132.695 248.084V248.083C131.579 248.009 130.459 247.965 129.332 247.918C128.207 247.871 127.074 247.824 125.942 247.746C123.725 247.594 121.512 247.364 119.313 247.151C117.571 246.983 115.831 246.8 114.093 246.604C112.431 246.416 110.771 246.209 109.115 245.997C107.734 245.82 106.335 245.649 104.945 245.423C103.089 245.121 101.151 244.853 99.291 244.228C98.726 244.037 98.1151 243.797 97.582 243.363L97.4609 243.26C97.1863 243.013 96.9648 242.722 96.8389 242.375C96.6932 241.974 96.6915 241.542 96.8193 241.09C97.0414 240.307 97.3421 239.53 97.8428 238.824C98.2216 238.29 98.7395 237.865 99.4453 237.707C100.11 237.559 100.82 237.383 101.535 237.281C103.495 237.004 105.463 236.73 107.438 236.51C109.635 236.265 111.85 236.018 114.073 235.885H114.074C117.406 235.686 120.766 235.476 124.141 235.562ZM126.316 238.266C121.751 238.078 117.183 238.207 112.611 238.494C111.527 238.562 110.447 238.637 109.374 238.742C107.327 238.943 105.282 239.156 103.239 239.389C102.185 239.509 101.217 239.68 100.131 239.819C99.862 239.854 99.6739 239.943 99.5352 240.095L99.4785 240.164C99.1321 240.633 98.8402 241.054 98.6758 241.508C98.8162 241.709 99.0391 241.816 99.3789 241.916C100.253 242.173 101.07 242.436 101.906 242.569C104.549 242.991 107.194 243.386 109.844 243.726C112.225 244.03 114.61 244.245 117.016 244.501L118.464 244.655C118.946 244.706 119.427 244.756 119.908 244.802C121.265 244.931 122.612 245.065 123.961 245.164C124.77 245.224 125.581 245.272 126.396 245.319C127.211 245.367 128.029 245.415 128.848 245.475C132.204 245.721 135.566 245.74 138.935 245.614C139.832 245.581 140.714 245.457 141.553 245.188C142.106 245.01 142.397 244.813 142.567 244.583C142.738 244.352 142.844 244.012 142.859 243.423C142.891 242.184 142.481 241.056 141.871 239.864C141.024 239.752 140.252 239.653 139.483 239.548C137.422 239.266 135.42 238.922 133.386 238.727C131.039 238.501 128.679 238.363 126.316 238.266Z" fill="#512473" stroke="#512473"/>
<path d="M153.453 278.406C153.278 264.856 153.453 239.896 148.619 237.087C148.044 236.311 147.352 235.621 146.516 235.039C145.321 234.206 143.994 233.641 142.593 233.305C140.061 232.698 137.492 232.306 134.895 232.058C128.026 231.405 121.145 231.491 114.263 231.652C112.633 231.69 111.007 231.886 109.38 232.018C108.219 232.113 107.056 232.207 105.896 232.328C102.494 232.684 99.1055 233.125 95.8388 234.202C95.1792 234.419 94.5272 234.694 93.9212 235.031C92.9556 235.569 92.1605 236.313 91.6432 237.309C91.2682 238.032 90.9008 238.761 90.5736 239.505C90.4031 239.893 90.1705 240.173 89.7656 240.272C89.3915 240.363 89.0105 240.458 88.6279 240.477C86.3754 240.586 84.122 240.672 81.8687 240.767C81.4042 240.786 80.932 240.771 80.448 241.091C80.4369 241.264 80.4232 241.489 80.407 241.713C80.2997 243.152 79.6929 244.404 78.9378 245.596C78.3932 246.458 77.7063 247.202 76.9435 247.87C74.1166 250.346 70.9112 252.097 67.2201 252.912C65.381 253.319 63.5418 253.502 61.6736 252.955C61.1836 253.573 60.8589 254.236 60.674 254.941C60.4081 255.953 60.1524 256.98 60.0373 258.016C59.8226 259.948 59.6666 261.887 59.566 263.828C59.2132 270.59 59.1996 277.357 59.3675 284.124C59.4629 287.973 59.6086 291.821 59.7893 295.666C59.9461 299.006 60.1703 302.343 60.3893 305.679C60.5478 308.084 60.7498 310.485 60.9279 312.89C61.0089 313.975 61.1325 315.059 61.1359 316.145C61.1367 316.314 61.1529 316.471 61.1836 316.616C61.6736 318.93 66.9836 320.833 72.7764 321.118C75.0195 321.22 85.3463 321.965 87.488 322.067C104.619 322.679 115.919 322.067 132.098 321.118C133.933 321.118 139.279 319.634 141.114 319.329C143.969 318.82 149.512 318.899 150.329 316.145C152.98 306.356 152.504 299.213 152.504 289.322C152.605 287.079 153.453 280.65 153.453 278.406ZM120.397 291.195C120.189 293.543 119.274 295.618 117.765 297.432C116.001 299.553 113.761 300.963 111.18 301.872C109.258 302.549 107.281 302.906 105.358 302.87C103.715 302.898 102.207 302.76 100.756 302.274C96.3629 300.802 93.6911 297.744 92.6872 293.261C91.9747 290.081 92.2806 286.911 93.2403 283.824C94.9388 278.355 97.7496 273.527 101.736 269.397C102.876 268.217 104.205 267.264 105.48 266.247C106.073 265.775 106.678 265.742 107.302 266.173C107.589 266.372 107.887 266.559 108.149 266.786C108.589 267.168 109.029 267.555 109.425 267.98C111.786 270.512 114.073 273.107 115.919 276.053C117.471 278.531 118.775 281.127 119.627 283.937C120.345 286.307 120.614 288.732 120.397 291.195ZM144.756 243.446C144.473 244.69 143.739 245.514 142.556 245.954C141.64 246.295 140.687 246.467 139.716 246.549C137.39 246.745 135.063 246.791 132.729 246.637C130.48 246.489 128.224 246.454 125.976 246.3C123.768 246.148 121.566 245.919 119.362 245.706C117.622 245.538 115.885 245.354 114.149 245.158C112.49 244.971 110.833 244.765 109.178 244.553C107.793 244.376 106.404 244.206 105.025 243.981C103.15 243.676 101.263 243.415 99.4515 242.805C98.8976 242.619 98.3581 242.402 97.897 242.027C97.7146 241.879 97.5663 241.72 97.4555 241.547C96.7626 241.152 96.259 240.525 96.1806 239.896C95.9769 238.366 97.4044 236.735 98.8319 236.531C113.108 234.288 126.568 232.554 141.047 235.307C142.704 235.684 143.915 237.34 144.065 239.084C144.727 240.459 145.111 241.884 144.756 243.446Z" fill="#AE72FF"/>
<path d="M60.5737 252.4C59.8373 252.081 59.5476 251.489 59.2408 250.904C58.4558 249.409 58.0348 247.794 57.6624 246.163C57.4902 245.41 57.6343 244.712 58.0118 244.032C59.0277 242.202 60.3717 240.648 62.0089 239.366C65.1844 236.88 68.7647 235.241 72.7388 234.539C73.7214 234.366 74.7535 234.438 75.7617 234.461C76.089 234.469 76.4682 234.61 76.7248 234.815C77.2677 235.246 77.8293 235.661 78.2392 236.251C78.9287 237.241 79.6241 238.223 80.1278 239.327C80.2062 239.498 80.3128 239.657 80.4005 239.811C83.4542 239.439 86.4729 239.24 89.5827 239.036C89.6662 238.839 89.7685 238.6 89.8699 238.359C90.0361 237.966 90.204 237.573 90.3668 237.178C91.208 235.148 92.7412 233.835 94.7499 233.075C96.7877 232.306 98.8953 231.753 101.052 231.442C103.435 231.099 105.823 230.761 108.22 230.548C111.238 230.281 114.26 229.988 117.297 230C120.914 230.015 124.532 229.972 128.148 230.046C130.283 230.088 132.414 230.309 134.548 230.444C137.268 230.617 139.95 231.058 142.602 231.668C144.629 232.134 146.519 232.924 148.143 234.268C149.84 235.671 150.972 237.469 151.681 239.523C152.482 241.84 153.032 244.222 153.353 246.659C153.739 249.591 153.93 252.537 154.065 255.49C154.403 262.877 154.245 270.265 154.12 277.652C154.106 278.508 154.087 279.364 154.066 280.219C153.96 284.534 153.88 288.85 153.737 293.165C153.631 296.352 153.498 299.539 153.277 302.72C153.056 305.898 152.75 309.072 152.17 312.211C152.041 312.909 151.842 313.569 151.456 314.167C151.373 314.298 151.291 314.443 151.171 314.532C151.057 314.616 150.892 314.679 150.754 314.671C150.529 314.657 150.427 314.452 150.408 314.262C150.382 313.994 150.393 313.718 150.426 313.45C150.569 312.293 150.741 311.139 150.875 309.982C151.089 308.129 151.319 306.277 151.477 304.419C151.942 298.954 152.058 293.471 152.239 287.991C152.53 279.166 152.646 270.339 152.628 261.51C152.621 258.319 152.482 255.134 152.223 251.955C152.075 250.136 151.917 248.314 151.692 246.503C151.415 244.26 150.875 242.069 150.112 239.944C149.402 237.962 148.273 236.264 146.515 235.04C145.319 234.207 143.992 233.642 142.591 233.306C140.059 232.699 137.49 232.307 134.894 232.059C128.024 231.406 121.143 231.492 114.261 231.653C112.632 231.691 111.006 231.887 109.379 232.019C108.217 232.114 107.055 232.208 105.895 232.329C102.493 232.685 99.1041 233.126 95.8374 234.203C95.1778 234.42 94.5258 234.695 93.9198 235.032C92.9542 235.57 92.1591 236.314 91.6418 237.31C91.2668 238.033 90.8995 238.762 90.5722 239.506C90.4017 239.894 90.1691 240.174 89.7643 240.273C89.3901 240.364 89.0092 240.459 88.6265 240.478C86.374 240.587 84.1206 240.673 81.8673 240.768C81.4028 240.787 80.9306 240.772 80.4466 241.092C80.4355 241.265 80.4218 241.49 80.4057 241.714C80.2983 243.153 79.6915 244.405 78.9364 245.598C78.3918 246.459 77.7049 247.204 76.9421 247.872C74.1152 250.348 70.9098 252.098 67.2187 252.914C65.3796 253.321 63.5404 253.504 61.6723 252.957C61.1822 253.575 60.8575 254.238 60.6726 254.943C60.4067 255.955 60.151 256.982 60.0359 258.018C59.8212 259.949 59.6652 261.889 59.5646 263.83C59.2118 270.592 59.1982 277.359 59.3661 284.126C59.4615 287.975 59.6072 291.823 59.7879 295.668C59.9447 299.008 60.1689 302.345 60.3879 305.681C60.5464 308.086 60.7484 310.487 60.9265 312.891C61.0075 313.976 61.1311 315.061 61.1345 316.147C61.137 316.854 61.4055 317.34 61.9433 317.725C62.7359 318.292 63.5549 318.829 64.4821 319.137C65.5483 319.49 66.6256 319.839 67.7241 320.062C69.7806 320.482 71.8686 320.706 73.966 320.824C77.4202 321.019 80.8735 321.221 84.3277 321.42C84.5996 321.435 84.8715 321.449 85.1433 321.453C91.871 321.551 98.5962 321.826 105.326 321.7C108.591 321.639 111.858 321.559 115.122 321.437C118.036 321.328 120.949 321.181 123.859 320.992C126.262 320.836 128.661 320.602 131.061 320.386C132.88 320.223 134.698 320.047 136.513 319.85C137.825 319.708 139.136 319.538 140.443 319.351C141.826 319.152 143.208 318.94 144.584 318.693C145.653 318.501 146.697 318.199 147.716 317.808C148.537 317.493 149.244 317.05 149.756 316.323C149.823 316.229 149.896 316.136 149.978 316.053C150.126 315.902 150.329 315.81 150.487 315.969C150.604 316.087 150.709 316.323 150.672 316.468C150.441 317.382 149.875 318.078 149.067 318.525C148.357 318.917 147.61 319.267 146.843 319.529C145.408 320.019 143.92 320.314 142.419 320.532C140.421 320.822 138.425 321.135 136.423 321.39C134.689 321.611 132.946 321.768 131.207 321.944C129.931 322.074 128.654 322.195 127.377 322.307C126.215 322.409 125.053 322.51 123.889 322.58C122.026 322.692 120.162 322.793 118.299 322.873C115.113 323.009 111.926 323.128 108.741 323.25C108.08 323.275 107.419 323.299 106.757 323.3C102.596 323.302 98.4342 323.325 94.2727 323.284C90.9676 323.252 87.6617 323.166 84.3584 323.055C82.0667 322.979 79.7767 322.824 77.4867 322.694C75.9347 322.605 74.3802 322.528 72.8317 322.391C70.3942 322.174 67.961 321.906 65.5926 321.242C64.4293 320.915 63.3035 320.499 62.2782 319.841C61.0424 319.048 60.2558 317.914 59.8467 316.531C59.5271 315.451 59.3524 314.339 59.2723 313.207C59.0959 310.725 58.8607 308.248 58.6638 305.768C58.5624 304.489 58.4823 303.208 58.4098 301.927C58.3178 300.297 58.2257 298.666 58.1635 297.034C58.0451 293.925 57.9803 290.814 57.832 287.706C57.5814 282.458 57.6121 277.207 57.699 271.958C57.7544 268.616 57.9786 265.276 58.178 261.939C58.2615 260.543 58.432 259.15 58.6425 257.768C58.9016 256.07 59.3524 254.423 60.2839 252.946C60.3683 252.813 60.4314 252.671 60.5737 252.4ZM74.9359 235.85C74.1322 235.765 73.1308 235.946 72.1482 236.156C69.0775 236.813 66.2531 238.067 63.6563 239.825C61.7004 241.15 60.1246 242.847 58.8675 244.847C58.5539 245.347 58.4567 245.815 58.7175 246.377C59.4206 247.889 60.1084 249.409 60.7629 250.942C61.0066 251.514 61.4353 251.803 61.9842 251.897C62.631 252.009 63.2958 252.092 63.9495 252.071C65.2696 252.029 66.5761 251.836 67.8468 251.457C70.9831 250.521 73.776 248.972 76.1861 246.751C77.623 245.425 78.5716 243.812 79.0258 241.902C79.1665 241.311 79.1869 240.764 78.9023 240.212C78.3526 239.144 77.8395 238.057 77.2745 236.997C76.5859 235.704 76.666 235.935 75.5009 235.877C75.385 235.872 75.2691 235.866 74.9359 235.85Z" fill="#512473"/>
<path d="M105.36 302.869C103.717 302.897 102.208 302.759 100.758 302.274C96.3643 300.802 93.6924 297.744 92.6885 293.261C91.976 290.08 92.282 286.911 93.2416 283.823C94.9401 278.355 97.7509 273.526 101.738 269.397C102.877 268.217 104.206 267.264 105.482 266.247C106.074 265.775 106.679 265.742 107.303 266.173C107.59 266.372 107.888 266.558 108.15 266.786C108.59 267.168 109.03 267.555 109.427 267.98C111.787 270.512 114.074 273.107 115.92 276.053C117.472 278.531 118.776 281.127 119.628 283.937C120.348 286.308 120.615 288.732 120.399 291.194C120.192 293.542 119.276 295.618 117.767 297.432C116.003 299.552 113.763 300.963 111.182 301.871C109.258 302.548 107.282 302.906 105.36 302.869ZM106.565 266.709C106.377 266.839 106.213 266.931 106.075 267.052C105.725 267.359 105.396 267.691 105.04 267.993C102.194 270.405 99.9088 273.282 98.027 276.49C96.4887 279.112 95.2222 281.853 94.4339 284.8C93.7214 287.462 93.4666 290.161 94.0555 292.868C94.9768 297.106 97.5105 299.897 101.725 301.086C103.124 301.48 104.561 301.498 106.002 301.45C108.821 301.354 111.447 300.557 113.801 299.033C117.371 296.721 119.186 293.424 118.992 289.118C118.898 287.049 118.48 285.039 117.752 283.098C116.404 279.501 114.447 276.255 112.041 273.271C110.263 271.066 108.231 269.073 106.565 266.709Z" fill="#512473"/>
<path d="M78.9034 240.211C78.3537 239.143 77.8406 238.056 77.2756 236.995C76.8537 236.204 76.7199 235.984 76.4123 235.919C76.2103 236.718 75.6878 237.382 75.0844 237.984C75.1569 238.158 75.1202 238.342 75.0256 238.499C74.7657 238.928 74.5262 239.394 74.1734 239.738C73.3399 240.548 72.4928 241.361 71.5646 242.058C68.8494 244.095 65.7582 245.319 62.4719 246.08C62.0944 246.168 61.7049 246.201 61.1765 246.281C61.0044 246.228 60.7862 246.165 60.551 246.091C59.8947 246.186 59.2001 245.802 58.6172 245.391C58.5311 245.703 58.5533 246.021 58.7186 246.376C59.4217 247.888 60.1095 249.408 60.764 250.941C61.0078 251.513 61.4365 251.802 61.9853 251.896C62.6322 252.008 63.2969 252.09 63.9506 252.07C65.2707 252.028 66.5772 251.835 67.848 251.456C70.9843 250.52 73.7771 248.97 76.1873 246.749C77.6242 245.424 78.5727 243.811 79.027 241.901C79.1676 241.31 79.1881 240.763 78.9034 240.211ZM63.8995 250.435C63.8731 250.523 63.7444 250.581 63.6711 250.644C63.5748 250.614 63.4904 250.609 63.435 250.567C63.3464 250.498 63.2449 250.419 63.2032 250.321C62.8393 249.477 62.4856 248.629 62.1353 247.779C62.1089 247.715 62.1183 247.623 62.1421 247.555C62.1651 247.489 62.2163 247.412 62.2751 247.385C62.3339 247.359 62.4362 247.364 62.4873 247.401C62.6092 247.488 62.7506 247.583 62.8146 247.709C63.1921 248.462 63.5577 249.223 63.9063 249.99C63.9617 250.115 63.9404 250.296 63.8995 250.435ZM67.4602 249.783C67.346 249.836 67.1721 249.782 67.0306 249.747C66.9667 249.731 66.902 249.656 66.8679 249.593C66.3386 248.577 65.8324 247.551 65.3287 246.427C65.5605 246.385 65.7114 246.31 65.8273 246.347C65.9602 246.389 66.0957 246.507 66.1724 246.628C66.6437 247.374 67.1065 248.126 67.5522 248.887C67.6443 249.044 67.6937 249.252 67.686 249.432C67.6818 249.557 67.571 249.731 67.4602 249.783ZM70.8803 248.418C70.7567 248.465 70.5888 248.419 70.4482 248.383C70.3868 248.368 70.3238 248.283 70.2973 248.217C69.8934 247.171 69.492 246.125 69.105 245.073C69.0744 244.989 69.1468 244.78 69.1817 244.777C69.3155 244.768 69.48 244.782 69.5831 244.857C69.6999 244.943 69.7783 245.095 69.8457 245.232C70.2258 245.993 70.6016 246.757 70.9698 247.523C71.0524 247.695 71.1019 247.882 71.1803 248.103C71.0789 248.216 71.0004 248.372 70.8803 248.418ZM74.2211 246.135C74.0242 246.253 73.8495 246.173 73.6902 246.053C73.6305 246.008 73.5726 245.945 73.5444 245.877C73.1413 244.915 72.7356 243.954 72.3538 242.984C72.3138 242.882 72.4143 242.724 72.4561 242.568C72.6291 242.62 72.7961 242.619 72.8345 242.689C73.3748 243.666 73.9075 244.647 74.4163 245.64C74.5032 245.81 74.412 246.021 74.2211 246.135ZM77.2134 242.89C77.0941 242.943 76.8989 242.942 76.7898 242.878C76.6321 242.783 76.4813 242.63 76.4012 242.465C76.0611 241.77 75.7424 241.063 75.4313 240.353C75.3717 240.218 75.3546 240.05 75.37 239.902C75.3793 239.811 75.4748 239.711 75.5575 239.652C75.6009 239.62 75.7177 239.643 75.7722 239.682C75.8949 239.771 76.0305 239.867 76.1072 239.993C76.5324 240.686 76.9466 241.386 77.3531 242.091C77.4273 242.219 77.446 242.378 77.504 242.566C77.4077 242.68 77.3335 242.836 77.2134 242.89Z" fill="#512473"/>
<path d="M60.5514 246.091C60.4023 246.044 60.248 245.994 60.0938 245.938C60.0128 245.909 59.9702 245.773 59.9105 245.685C59.9992 245.632 60.1074 245.517 60.1739 245.537C60.9529 245.776 61.7054 245.643 62.4665 245.439C65.3394 244.672 68.053 243.555 70.5015 241.842C71.814 240.924 73.0259 239.899 73.9855 238.601C74.1236 238.414 74.2753 238.236 74.4287 238.06C74.6597 237.796 74.8915 237.712 75.0006 237.844C75.0381 237.889 75.0645 237.936 75.0841 237.983C75.6875 237.382 76.2099 236.717 76.4119 235.918C76.2176 235.877 75.9534 235.897 75.5017 235.875C75.3849 235.869 75.269 235.864 74.9366 235.848C74.133 235.763 73.1316 235.943 72.1489 236.154C69.0782 236.811 66.2539 238.064 63.6571 239.823C61.7011 241.148 60.1253 242.845 58.8682 244.845C58.7532 245.028 58.6671 245.208 58.6177 245.389C59.2006 245.801 59.8952 246.186 60.5514 246.091Z" fill="#512473"/>
<path d="M106.565 266.709C108.231 269.073 110.262 271.066 112.041 273.271C114.446 276.254 116.403 279.5 117.752 283.098C118.479 285.038 118.897 287.049 118.991 289.118C119.186 293.424 117.371 296.721 113.8 299.032C111.446 300.557 108.821 301.354 106.001 301.449C104.56 301.498 103.123 301.48 101.724 301.086C97.5105 299.897 94.9759 297.106 94.0546 292.868C93.4657 290.16 93.7205 287.462 94.433 284.8C95.2222 281.853 96.4886 279.112 98.0261 276.489C99.9079 273.282 102.193 270.405 105.039 267.992C105.395 267.692 105.724 267.359 106.074 267.052C106.213 266.931 106.376 266.839 106.565 266.709ZM96.74 288.407C96.7946 288.799 96.7264 289.359 97.2855 289.618C97.8156 289.863 98.3627 289.793 98.8195 289.433C99.0863 289.224 99.3215 288.946 99.4945 288.654C99.6684 288.36 99.7851 288.017 99.8601 287.681C99.9701 287.191 100.048 286.689 100.091 286.189C100.239 284.463 100.74 282.85 101.566 281.332C101.696 281.094 101.835 280.857 101.926 280.604C102.039 280.29 101.963 279.995 101.731 279.744C101.162 279.129 100.372 279.077 99.7783 279.661C99.192 280.237 98.7795 280.94 98.4352 281.685C97.4645 283.787 97.0647 286.034 96.74 288.407ZM103.572 275.261C103.135 275.243 102.723 275.331 102.37 275.595C101.898 275.947 101.693 276.432 101.781 277.013C101.865 277.568 102.242 277.893 102.754 278.042C103.572 278.281 104.553 277.861 104.919 277.106C105.389 276.137 104.843 275.284 103.918 275.276C103.803 275.274 103.688 275.266 103.572 275.261Z" fill="#BC8AFF"/>
<path d="M61.1772 246.281C60.896 246.195 60.4903 246.082 60.0949 245.94C60.0139 245.911 59.9713 245.775 59.9116 245.687C60.0003 245.634 60.1085 245.519 60.175 245.539C60.9539 245.778 61.7065 245.645 62.4675 245.441C65.3405 244.674 68.0541 243.557 70.5026 241.844C71.8151 240.926 73.027 239.901 73.9866 238.603C74.1247 238.416 74.2764 238.238 74.4298 238.062C74.6607 237.798 74.8925 237.714 75.0016 237.846C75.1763 238.056 75.1465 238.3 75.0263 238.499C74.7664 238.929 74.5269 239.395 74.1741 239.739C73.3406 240.549 72.4934 241.362 71.5653 242.058C68.8501 244.095 65.7589 245.32 62.4726 246.081C62.0951 246.169 61.7048 246.201 61.1772 246.281Z" fill="#512473"/>
<path d="M77.5036 242.565C77.4073 242.68 77.3332 242.836 77.213 242.889C77.0937 242.943 76.8985 242.942 76.7894 242.877C76.6318 242.783 76.4809 242.629 76.4008 242.465C76.0608 241.769 75.742 241.063 75.4309 240.353C75.3713 240.217 75.3542 240.05 75.3696 239.902C75.379 239.811 75.4744 239.711 75.5571 239.651C75.6005 239.62 75.7173 239.643 75.7718 239.682C75.8954 239.771 76.0301 239.867 76.1068 239.992C76.5321 240.685 76.9462 241.386 77.3528 242.091C77.4269 242.218 77.4457 242.378 77.5036 242.565Z" fill="#512473"/>
<path d="M65.3286 246.427C65.5604 246.384 65.7113 246.31 65.8272 246.347C65.9601 246.389 66.0956 246.507 66.1723 246.628C66.6436 247.374 67.1064 248.125 67.5521 248.887C67.6442 249.043 67.6936 249.251 67.6859 249.432C67.6808 249.556 67.57 249.731 67.4592 249.782C67.345 249.836 67.1712 249.781 67.0297 249.746C66.9658 249.73 66.901 249.656 66.8669 249.592C66.3385 248.576 65.8331 247.55 65.3286 246.427Z" fill="#512473"/>
<path d="M72.4551 242.568C72.6281 242.62 72.7951 242.619 72.8335 242.689C73.3738 243.666 73.9065 244.647 74.4153 245.64C74.5022 245.81 74.411 246.021 74.2201 246.135C74.0232 246.253 73.8485 246.173 73.6891 246.053C73.6295 246.008 73.5715 245.945 73.5434 245.877C73.1403 244.915 72.7346 243.954 72.3528 242.984C72.3119 242.882 72.4133 242.724 72.4551 242.568Z" fill="#512473"/>
<path d="M71.1806 248.101C71.0784 248.215 71 248.371 70.8798 248.417C70.7562 248.464 70.5883 248.418 70.4477 248.382C70.3863 248.367 70.3233 248.282 70.2969 248.216C69.8929 247.17 69.4915 246.123 69.1046 245.072C69.0739 244.988 69.1463 244.779 69.1813 244.776C69.3151 244.767 69.4795 244.781 69.5827 244.856C69.6994 244.942 69.7779 245.094 69.8452 245.231C70.2253 245.992 70.6011 246.756 70.9693 247.522C71.052 247.694 71.1014 247.882 71.1806 248.101Z" fill="#512473"/>
<path d="M63.6708 250.645C63.5745 250.615 63.4902 250.61 63.4348 250.567C63.3461 250.499 63.2447 250.42 63.2029 250.322C62.839 249.478 62.4853 248.629 62.1351 247.779C62.1086 247.716 62.118 247.624 62.1419 247.555C62.1649 247.49 62.216 247.412 62.2748 247.386C62.3336 247.359 62.4359 247.364 62.4871 247.401C62.6089 247.489 62.7504 247.583 62.8143 247.71C63.1919 248.463 63.5575 249.223 63.906 249.99C63.9623 250.115 63.941 250.296 63.8992 250.434C63.8728 250.524 63.7441 250.582 63.6708 250.645Z" fill="#512473"/>
<path d="M96.7402 288.407C97.0649 286.033 97.4646 283.787 98.4354 281.684C98.7788 280.94 99.1922 280.236 99.7785 279.66C100.373 279.077 101.162 279.129 101.731 279.744C101.963 279.994 102.04 280.289 101.926 280.604C101.835 280.857 101.696 281.094 101.567 281.332C100.74 282.849 100.239 284.463 100.091 286.189C100.049 286.69 99.9703 287.191 99.8603 287.681C99.7853 288.017 99.6686 288.359 99.4947 288.653C99.3217 288.946 99.0865 289.223 98.8197 289.433C98.3629 289.793 97.8158 289.863 97.2857 289.617C96.7266 289.358 96.7948 288.797 96.7402 288.407ZM97.2558 288.571C97.6266 288.59 97.8482 288.62 98.0672 288.606C98.1737 288.6 98.3007 288.538 98.3749 288.46C98.507 288.322 98.6339 288.165 98.7106 287.993C98.8206 287.747 98.9092 287.485 98.9612 287.222C99.0524 286.765 99.1299 286.304 99.1768 285.841C99.3481 284.156 99.8569 282.579 100.65 281.089C100.79 280.826 100.914 280.555 101.03 280.321C100.867 280.099 100.713 280.109 100.588 280.22C100.06 280.691 99.6635 281.261 99.3396 281.889C98.5709 283.381 98.0152 284.953 97.6138 286.578C97.4663 287.177 97.3931 287.795 97.2558 288.571Z" fill="#BC8AFF"/>
<path d="M103.571 275.261C103.687 275.266 103.802 275.275 103.917 275.275C104.842 275.284 105.388 276.137 104.919 277.105C104.552 277.861 103.571 278.281 102.753 278.042C102.241 277.893 101.864 277.568 101.781 277.012C101.694 276.432 101.898 275.947 102.37 275.594C102.723 275.332 103.135 275.243 103.571 275.261ZM103.074 277.082C103.559 277.123 103.928 276.824 104.039 276.363C104.083 276.182 103.915 275.98 103.726 275.971C103.351 275.954 103.036 276.081 102.839 276.4C102.771 276.511 102.749 276.702 102.796 276.82C102.845 276.942 103.004 277.021 103.074 277.082Z" fill="#BC8AFF"/>
<path d="M97.2554 288.571C97.3926 287.796 97.4667 287.178 97.615 286.578C98.0164 284.953 98.5713 283.381 99.3408 281.889C99.6647 281.261 100.061 280.691 100.589 280.22C100.714 280.109 100.868 280.099 101.031 280.321C100.915 280.556 100.791 280.826 100.652 281.089C99.8582 282.579 99.3502 284.157 99.1781 285.841C99.1312 286.304 99.0536 286.765 98.9624 287.222C98.9096 287.486 98.8218 287.747 98.7119 287.993C98.6352 288.165 98.5073 288.322 98.3761 288.46C98.3019 288.538 98.175 288.6 98.0684 288.606C97.8477 288.621 97.6261 288.592 97.2554 288.571Z" fill="#BC8AFF"/>
<path d="M103.074 277.082C103.004 277.02 102.846 276.942 102.796 276.819C102.749 276.702 102.77 276.512 102.84 276.4C103.036 276.08 103.351 275.952 103.726 275.97C103.916 275.98 104.083 276.182 104.04 276.362C103.929 276.823 103.559 277.123 103.074 277.082Z" fill="#BC8AFF"/>
<path d="M371.843 238.965C368.292 235.239 363.743 233.057 359.06 231.117C349.396 227.108 339.464 225.646 329.259 228.451C325.43 229.501 321.581 230.674 319.074 234.441C315.107 240.4 311.443 246.519 308.592 253.07C305.699 259.719 303.898 266.728 302.169 273.773C299.524 284.585 299.55 295.433 300.903 306.369C300.944 306.683 301.073 307.095 300.929 307.306C300.322 308.186 300.939 308.752 301.454 309.215C307.886 315.009 315.045 319.698 323.073 322.955C328.034 324.972 333.283 325.858 338.563 326.609C340.77 326.928 342.86 327.139 345.032 326.388C349.396 324.885 352.771 322.075 355.509 318.499C361.901 310.146 367.17 301.156 370.083 291.857C371.951 286.906 373.089 282.614 374.37 278.369C376.058 272.78 377.916 267.227 378.868 261.458C380.288 252.828 377.87 245.284 371.843 238.965ZM352.983 231.132C353.95 231.564 354.974 231.863 355.973 231.997C353.641 232.064 351.31 232.131 348.922 232.197C350.003 230.268 351.408 230.432 352.983 231.132ZM357.887 233.082C358.165 233.021 358.535 233.165 358.808 233.314C361.664 234.796 364.577 236.165 367.227 238.007C367.521 238.208 367.943 238.321 367.958 238.759C364.016 239.273 360.295 237.699 356.415 237.462C351.943 237.184 347.512 237.354 343.102 238.162C342.891 238.198 342.701 238.326 342.495 238.409C342.495 238.409 342.495 238.404 342.49 238.404C342.443 238.332 342.392 238.265 342.34 238.193C342.387 238.177 342.438 238.162 342.484 238.151C342.484 238.234 342.49 238.321 342.49 238.404C342.793 236.968 343.92 236.108 344.857 235.156C345.937 234.065 347.152 233.443 348.902 233.468C351.887 233.515 354.918 233.762 357.887 233.082ZM318.776 289.176C318.575 289.248 318.39 289.459 318.02 289.243C318.457 285.419 319.512 281.745 320.469 278.039C320.644 277.376 321.004 277.154 321.632 276.902C327.391 274.576 333.247 272.528 339.145 270.603C339.438 270.506 339.726 270.408 340.498 270.145C339.011 274.303 337.652 278.06 336.32 281.827C336.16 282.275 335.887 282.486 335.45 282.62C329.717 284.349 324.385 287.117 318.776 289.176ZM335.373 284.894C334.41 289.413 333.335 293.792 332.784 298.279C332.733 298.696 332.594 298.902 332.13 299.005C326.933 300.178 321.967 302.098 316.96 303.878C316.666 303.986 316.373 304.094 315.936 304.259C316.105 300.641 316.754 297.229 317.186 293.787C317.376 292.284 317.973 291.471 319.363 290.802C324.344 288.398 329.511 286.53 334.791 284.94C334.95 284.894 335.125 284.91 335.373 284.894ZM340.38 268.437C338.532 268.601 336.901 269.456 335.218 270.125C330.633 271.936 326.068 273.789 321.277 275.718C322.487 271.704 323.598 267.927 325.312 264.351C325.482 263.99 325.693 263.743 326.068 263.61C332.269 261.433 338.373 258.968 344.847 257.661C345.068 257.614 345.289 257.568 345.706 257.48C344.065 260.954 342.562 264.294 341.316 267.737C341.157 268.179 340.858 268.395 340.38 268.437ZM327.931 261.577C327.509 261.726 327.128 262.045 326.475 261.947C327.504 259.549 328.976 257.429 329.918 255.092C331.07 252.226 333.134 250.991 335.985 250.286C341.203 248.989 346.452 248.016 351.804 247.553C351.907 247.584 352.005 247.615 352.108 247.646C352.046 247.728 351.979 247.805 351.912 247.883C350.235 250.121 348.567 252.365 347.235 254.835C347.039 255.2 346.782 255.355 346.38 255.453C340.056 256.966 334.04 259.405 327.931 261.577ZM333.751 249.591C333.674 249.622 333.571 249.586 333.227 249.561C334.817 247.389 336.412 245.377 337.822 243.241C339.381 240.884 341.394 239.767 344.275 239.453C349.633 238.872 354.918 239.067 360.218 239.819C360.475 239.855 360.717 239.989 361.098 240.122C358.69 241.676 356.523 243.344 354.506 245.207C354.3 245.392 354.068 245.485 353.76 245.5C346.879 245.835 340.21 247.214 333.751 249.591ZM346.905 229.681C347.08 229.707 347.255 229.768 347.45 229.82C345.778 231.76 345.639 231.739 343.55 229.207C344.821 229.388 345.866 229.532 346.905 229.681ZM340.128 229.007C340.508 229.022 340.874 229.079 341.121 229.408C342.042 230.633 343.241 231.554 344.543 232.48C342.762 233.906 341.455 235.661 340.045 237.313C339.453 238.007 339.037 238.11 338.259 237.493C335.429 235.249 332.81 232.784 330.067 230.129C333.479 229.285 336.772 228.883 340.128 229.007ZM320.258 236.952C320.51 236.211 321.241 235.625 321.771 234.976C323.305 233.124 325.235 231.796 327.396 230.792C327.72 230.638 328.086 230.592 328.41 230.504C328.538 230.659 328.631 230.762 328.713 230.88C330.854 234.05 334.137 236.016 336.886 238.548C337.709 239.309 337.935 239.659 337.138 240.565C334.987 243.01 333.366 245.855 331.441 248.475C330.957 249.128 330.731 249.097 330.247 248.583C327.293 245.428 324.231 242.371 321.637 238.908C321.154 238.265 319.913 237.971 320.258 236.952ZM313.455 247.852C315.261 244.692 317.032 241.517 319.147 238.47C321.951 242.191 325.127 245.48 328.286 248.794C328.842 249.375 329.933 249.684 329.923 250.476C329.907 251.156 329.172 251.82 328.78 252.504C327.2 255.304 325.718 258.149 324.288 261.216C320.341 257.269 316.846 253.219 313.573 248.974C313.275 248.588 313.203 248.289 313.455 247.852ZM308.371 259.451C309.575 256.317 310.841 253.214 312.297 250.075C315.477 254.496 319.074 258.309 322.692 262.112C323.243 262.694 323.366 263.105 322.991 263.898C321.539 266.98 320.531 270.243 319.476 273.48C319.172 274.427 318.936 274.638 318.179 273.85C315.359 270.907 312.482 268.015 309.961 264.798C309.672 264.433 309.451 263.965 309.086 263.718C307.285 262.529 307.727 261.124 308.371 259.451ZM306.935 311.134C305.978 310.471 305.139 309.637 304.182 308.978C302.823 308.042 302.211 306.812 302.442 304.918C305.859 307.933 308.854 311.124 311.829 314.361C309.992 313.584 308.535 312.246 306.935 311.134ZM312.179 314.804C312.163 314.798 312.168 314.747 312.163 314.721C312.199 314.726 312.24 314.726 312.277 314.742C312.292 314.747 312.292 314.783 312.297 314.809C312.256 314.809 312.215 314.814 312.179 314.804ZM313.681 313.805C312.606 312.761 311.649 311.963 310.856 311.026C308.443 308.175 305.617 305.782 302.767 303.41C302.473 303.168 302.087 303.004 302.087 302.453C302.092 300.286 302.02 298.125 301.974 295.747C305.942 298.943 309.693 302 313.265 305.263C313.666 305.628 313.702 306.045 313.702 306.513C313.692 308.829 313.687 311.145 313.681 313.805ZM315.174 291.106C314.736 295.212 313.939 299.278 313.784 303.76C310.403 300.436 306.749 297.929 303.42 295.022C302.226 293.977 301.871 292.938 301.912 291.44C302.02 287.431 302.37 283.453 303.034 279.501C303.111 279.053 303.24 278.611 303.379 278.024C307.038 282.424 310.908 286.412 314.942 290.236C315.241 290.514 315.21 290.771 315.174 291.106ZM308.746 282.249C307.135 280.448 305.659 278.528 304.115 276.665C303.873 276.377 303.636 276.115 303.729 275.682C304.578 271.638 305.694 267.665 306.935 263.62C309.93 266.955 312.843 270.197 315.755 273.439C315.971 273.681 316.162 273.974 316.429 274.144C318.529 275.477 318.627 277.216 317.839 279.413C316.769 282.388 316.188 285.512 315.513 288.821C313.048 286.664 310.805 284.549 308.746 282.249ZM315.817 306.632C315.822 306.009 316.105 305.834 316.568 305.664C321.684 303.75 326.835 301.959 332.357 300.919C332.326 302.942 331.986 304.897 332.094 306.868C332.151 307.887 332.537 309.189 332.064 309.848C331.585 310.517 330.226 310.558 329.244 310.851C324.916 312.159 320.593 313.471 316.244 315.025C316.002 312.179 315.776 309.416 315.817 306.632ZM323.938 320.742C321.385 319.744 318.915 318.56 316.321 317.176C321.015 315.179 325.59 313.363 330.412 312.241C332.516 311.747 332.516 311.773 333 313.846C333.278 315.025 333.535 316.214 333.885 317.372C334.076 318.005 333.818 318.149 333.299 318.308C330.617 319.116 327.947 319.945 325.286 320.799C324.797 320.953 324.391 320.917 323.938 320.742ZM327.293 321.802C329.671 321.036 331.703 320.326 333.834 319.898C334.333 319.796 334.595 319.826 334.77 320.351C335.167 321.535 335.62 322.708 336.026 323.815C333.386 323.439 330.432 322.971 327.293 321.802ZM376.629 257.517C376.475 262.019 375.446 266.404 374.226 270.706C372.682 276.141 371.087 281.58 369.137 286.875C365.267 297.41 360.903 307.728 353.698 316.548C351.3 319.487 348.346 321.725 345.068 323.578C344.903 323.665 344.723 323.727 344.553 323.804C340.668 325.508 338.98 324.196 337.292 320.403C334.276 313.641 334.559 306.395 335.254 299.216C336.026 291.209 337.174 286.222 342.14 272.317C344.167 266.728 346.972 259.513 351.439 253.07C353.966 249.427 357.079 246.38 360.537 243.643C362.282 242.263 364.268 241.533 366.45 241.316C369.065 241.054 371.051 242.284 372.687 244.152C376.043 247.986 376.799 252.648 376.629 257.517Z" fill="#512473"/>
<path d="M372.687 244.152C371.051 242.284 369.064 241.054 366.45 241.316C364.268 241.533 362.282 242.263 360.537 243.643C357.079 246.38 353.966 249.427 351.439 253.07C346.972 259.513 344.167 266.728 342.14 272.317C337.174 286.222 336.026 291.209 335.254 299.216C334.559 306.395 334.276 313.641 337.292 320.403C338.98 324.195 340.668 325.508 344.553 323.804C344.723 323.727 344.903 323.665 345.068 323.578C348.346 321.725 351.3 319.487 353.698 316.548C360.903 307.728 365.267 297.41 369.137 286.875C371.087 281.58 372.682 276.141 374.226 270.706C375.446 266.404 376.475 262.02 376.629 257.517C376.799 252.648 376.043 247.986 372.687 244.152ZM338.028 294.904C338.306 294.456 338.512 294.008 339.114 294.137C339.659 294.255 339.942 294.662 339.896 295.151C339.701 297.23 339.459 299.304 339.207 301.372C339.155 301.799 338.939 302.227 338.43 302.221C337.93 302.221 337.719 301.825 337.673 301.372C337.457 299.18 337.822 297.024 338.028 294.904ZM344.826 319.883C343.797 320.13 342.793 320.027 341.651 319.574C340.575 319.224 339.819 318.36 339.386 317.135C338.234 313.898 337.915 310.517 337.575 307.136C337.549 306.863 337.596 306.58 337.652 306.307C337.765 305.746 337.909 305.119 338.625 305.149C339.304 305.175 339.505 305.772 339.556 306.348C339.721 308.386 339.87 310.429 339.999 312.472C340.076 313.687 340.302 314.865 340.724 316.013C341.414 317.902 342.453 318.535 344.486 318.231C345.001 318.154 345.582 317.938 345.721 318.668C345.84 319.302 345.454 319.729 344.826 319.883ZM371.365 265.622C370.603 268.895 369.78 272.152 368.272 276.12C367.124 279.836 365.658 284.369 363.692 288.713C360.12 296.617 356.549 304.522 351.609 311.706C350.863 312.792 350.003 313.764 348.938 314.541C346.149 316.574 343.128 315.504 342.176 312.164C340.709 307.002 340.966 301.774 341.517 296.525C341.882 293.015 342.973 289.691 343.987 286.351C345.588 281.081 347.096 275.775 349.061 270.629C351.166 265.133 353.616 259.791 357.053 254.969C358.381 253.096 359.951 251.429 361.803 250.07C365.19 247.595 368.812 247.95 371.128 250.914C371.936 251.943 372.266 253.132 372.415 254.408C372.852 258.222 372.219 261.942 371.365 265.622Z" fill="#AE72FF"/>
<path d="M355.973 231.996C353.641 232.063 351.31 232.13 348.922 232.197C350.003 230.267 351.408 230.432 352.983 231.132C353.95 231.564 354.974 231.863 355.973 231.996Z" fill="#AE72FF"/>
<path d="M347.451 229.819C345.778 231.76 345.639 231.739 343.55 229.207C344.821 229.387 345.866 229.531 346.905 229.68C347.08 229.706 347.255 229.768 347.451 229.819Z" fill="#AE72FF"/>
<path d="M311.829 314.361C309.992 313.584 308.535 312.246 306.935 311.135C305.978 310.471 305.139 309.637 304.182 308.978C302.823 308.042 302.211 306.812 302.442 304.918C305.859 307.934 308.854 311.124 311.829 314.361Z" fill="#AE72FF"/>
<path d="M336.026 323.815C333.386 323.439 330.432 322.971 327.293 321.803C329.67 321.036 331.703 320.326 333.834 319.899C334.333 319.796 334.595 319.827 334.77 320.351C335.167 321.535 335.619 322.708 336.026 323.815Z" fill="#AE72FF"/>
<path d="M333.299 318.308C330.617 319.116 327.947 319.945 325.286 320.799C324.797 320.954 324.39 320.918 323.938 320.743C321.385 319.744 318.915 318.561 316.321 317.176C321.015 315.179 325.59 313.363 330.412 312.241C332.516 311.747 332.516 311.773 333 313.847C333.278 315.025 333.535 316.214 333.885 317.372C334.076 318.005 333.818 318.149 333.299 318.308Z" fill="#AE72FF"/>
<path d="M345.706 257.48C344.065 260.954 342.562 264.294 341.316 267.737C341.157 268.179 340.858 268.396 340.38 268.437C338.532 268.601 336.901 269.456 335.218 270.125C330.633 271.936 326.068 273.789 321.277 275.718C322.487 271.704 323.598 267.927 325.312 264.351C325.482 263.99 325.693 263.743 326.068 263.61C332.27 261.433 338.373 258.968 344.847 257.661C345.068 257.614 345.289 257.568 345.706 257.48Z" fill="#AE72FF"/>
<path d="M340.498 270.146C339.011 274.304 337.652 278.06 336.319 281.827C336.16 282.275 335.887 282.486 335.45 282.62C329.717 284.349 324.385 287.118 318.776 289.176C318.575 289.248 318.39 289.459 318.02 289.243C318.457 285.419 319.512 281.745 320.469 278.04C320.644 277.376 321.004 277.155 321.632 276.903C327.391 274.576 333.247 272.528 339.145 270.604C339.438 270.506 339.726 270.408 340.498 270.146Z" fill="#AE72FF"/>
<path d="M335.373 284.895C334.41 289.413 333.335 293.792 332.784 298.28C332.733 298.697 332.594 298.902 332.13 299.005C326.933 300.179 321.967 302.098 316.96 303.879C316.666 303.987 316.373 304.095 315.936 304.26C316.105 300.642 316.754 297.23 317.186 293.787C317.376 292.284 317.973 291.471 319.363 290.802C324.344 288.399 329.511 286.531 334.791 284.941C334.951 284.895 335.126 284.91 335.373 284.895Z" fill="#AE72FF"/>
<path d="M332.094 306.868C332.151 307.887 332.537 309.189 332.063 309.848C331.585 310.517 330.226 310.558 329.243 310.851C324.915 312.158 320.593 313.47 316.244 315.025C316.002 312.179 315.776 309.415 315.817 306.631C315.822 306.008 316.105 305.834 316.568 305.664C321.683 303.749 326.835 301.959 332.357 300.919C332.326 302.941 331.986 304.897 332.094 306.868Z" fill="#AE72FF"/>
<path d="M313.702 306.513C313.692 308.828 313.687 311.144 313.682 313.805C312.606 312.76 311.649 311.963 310.856 311.026C308.443 308.175 305.618 305.782 302.767 303.41C302.473 303.168 302.087 303.003 302.087 302.452C302.093 300.286 302.021 298.125 301.974 295.747C305.942 298.943 309.693 302 313.265 305.262C313.666 305.628 313.702 306.044 313.702 306.513Z" fill="#AE72FF"/>
<path d="M315.174 291.106C314.737 295.213 313.939 299.278 313.785 303.76C310.404 300.436 306.75 297.93 303.42 295.022C302.226 293.977 301.871 292.938 301.912 291.44C302.02 287.432 302.37 283.454 303.034 279.501C303.111 279.054 303.24 278.611 303.379 278.024C307.038 282.424 310.908 286.413 314.943 290.236C315.241 290.514 315.21 290.771 315.174 291.106Z" fill="#AE72FF"/>
<path d="M317.84 279.414C316.769 282.388 316.188 285.512 315.514 288.821C313.049 286.665 310.805 284.55 308.747 282.249C307.136 280.448 305.659 278.529 304.115 276.666C303.873 276.378 303.636 276.115 303.729 275.683C304.578 271.638 305.695 267.665 306.935 263.62C309.93 266.955 312.843 270.197 315.756 273.439C315.972 273.681 316.162 273.974 316.43 274.144C318.529 275.477 318.627 277.216 317.84 279.414Z" fill="#AE72FF"/>
<path d="M322.991 263.898C321.54 266.98 320.531 270.243 319.476 273.48C319.172 274.427 318.936 274.638 318.179 273.85C315.359 270.907 312.482 268.015 309.961 264.798C309.673 264.433 309.451 263.965 309.086 263.718C307.285 262.529 307.727 261.124 308.371 259.452C309.575 256.317 310.841 253.214 312.297 250.075C315.477 254.496 319.074 258.309 322.692 262.112C323.243 262.693 323.367 263.105 322.991 263.898Z" fill="#AE72FF"/>
<path d="M344.543 232.48C342.763 233.905 341.456 235.66 340.045 237.312C339.454 238.007 339.037 238.11 338.26 237.492C335.429 235.249 332.81 232.784 330.067 230.128C333.479 229.284 336.772 228.883 340.128 229.006C340.509 229.022 340.874 229.078 341.121 229.408C342.042 230.633 343.241 231.554 344.543 232.48Z" fill="#AE72FF"/>
<path d="M337.137 240.565C334.986 243.009 333.365 245.855 331.441 248.474C330.957 249.128 330.73 249.097 330.247 248.582C327.293 245.428 324.231 242.371 321.637 238.908C321.153 238.264 319.913 237.971 320.258 236.952C320.51 236.211 321.241 235.624 321.771 234.976C323.305 233.123 325.234 231.796 327.396 230.792C327.72 230.638 328.085 230.591 328.41 230.504C328.538 230.658 328.631 230.761 328.713 230.88C330.854 234.05 334.137 236.015 336.885 238.547C337.709 239.309 337.935 239.659 337.137 240.565Z" fill="#AE72FF"/>
<path d="M329.923 250.477C329.907 251.156 329.171 251.82 328.78 252.504C327.2 255.304 325.718 258.15 324.287 261.217C320.34 257.27 316.846 253.22 313.573 248.974C313.275 248.588 313.202 248.29 313.455 247.852C315.261 244.692 317.031 241.517 319.146 238.471C321.951 242.191 325.126 245.48 328.286 248.794C328.842 249.375 329.933 249.684 329.923 250.477Z" fill="#AE72FF"/>
<path d="M367.958 238.758C364.016 239.273 360.296 237.698 356.415 237.461C351.943 237.184 347.512 237.353 343.102 238.161C342.891 238.197 342.701 238.326 342.495 238.408C342.495 238.408 342.495 238.403 342.49 238.403C342.793 236.967 343.92 236.108 344.857 235.156C345.938 234.065 347.152 233.442 348.902 233.468C351.887 233.514 354.918 233.761 357.887 233.082C358.165 233.02 358.536 233.164 358.808 233.314C361.664 234.796 364.577 236.165 367.227 238.007C367.521 238.208 367.943 238.321 367.958 238.758Z" fill="#AE72FF"/>
<path d="M361.098 240.122C358.69 241.676 356.523 243.344 354.506 245.207C354.3 245.392 354.068 245.485 353.76 245.5C346.879 245.834 340.21 247.214 333.751 249.591C333.674 249.622 333.571 249.586 333.227 249.56C334.817 247.389 336.412 245.377 337.822 243.241C339.381 240.884 341.394 239.767 344.275 239.453C349.632 238.872 354.918 239.067 360.218 239.819C360.476 239.855 360.717 239.988 361.098 240.122Z" fill="#AE72FF"/>
<path d="M352.108 247.646C352.046 247.729 351.979 247.806 351.912 247.883C350.235 250.122 348.567 252.365 347.235 254.836C347.039 255.201 346.782 255.355 346.38 255.453C340.056 256.966 334.04 259.405 327.931 261.577C327.509 261.726 327.129 262.045 326.475 261.948C327.504 259.55 328.976 257.429 329.918 255.093C331.071 252.226 333.134 250.991 335.985 250.286C341.204 248.989 346.453 248.017 351.805 247.554C351.907 247.585 352.005 247.615 352.108 247.646Z" fill="#AE72FF"/>
<path d="M372.415 254.408C372.265 253.132 371.936 251.943 371.128 250.914C368.812 247.95 365.189 247.595 361.803 250.07C359.951 251.429 358.381 253.096 357.053 254.969C353.616 259.791 351.166 265.133 349.061 270.629C347.095 275.775 345.587 281.081 343.987 286.351C342.973 289.691 341.882 293.015 341.517 296.525C340.966 301.774 340.709 307.002 342.176 312.164C343.128 315.504 346.148 316.574 348.938 314.541C350.003 313.764 350.862 312.792 351.608 311.706C356.549 304.522 360.12 296.617 363.692 288.713C365.658 284.369 367.124 279.836 368.272 276.12C369.78 272.152 370.603 268.895 371.365 265.622C372.219 261.942 372.852 258.222 372.415 254.408ZM369.666 264.577C368.462 271.17 366.625 277.582 363.918 283.701C360.542 291.327 357.172 298.974 352.89 306.153C351.562 308.376 350.044 310.538 348.078 312.288C346.221 313.945 345.052 313.605 344.404 311.222C344.116 310.152 343.791 309.045 343.781 307.954C343.73 301.635 343.647 295.285 344.97 289.078C345.845 284.977 347.291 281.004 348.902 276.882C351.022 270.259 354.007 263.785 357.851 257.728C359.081 255.793 360.573 254.064 362.225 252.479C362.94 251.794 363.738 251.233 364.68 250.904C367.572 249.895 369.944 251.377 370.299 254.434C370.696 257.851 370.279 261.212 369.666 264.577Z" fill="#512473"/>
<path d="M369.666 264.577C368.462 271.169 366.625 277.581 363.918 283.7C360.542 291.326 357.171 298.974 352.89 306.153C351.562 308.376 350.044 310.537 348.078 312.287C346.22 313.944 345.052 313.604 344.404 311.222C344.116 310.151 343.791 309.045 343.781 307.954C343.73 301.634 343.647 295.284 344.97 289.078C345.845 284.976 347.291 281.003 348.901 276.881C351.022 270.258 354.006 263.784 357.851 257.727C359.08 255.792 360.573 254.063 362.225 252.478C362.94 251.794 363.738 251.233 364.68 250.903C367.572 249.895 369.944 251.377 370.299 254.434C370.696 257.851 370.279 261.211 369.666 264.577Z" fill="#512473"/>
<path d="M344.826 319.883C343.797 320.13 342.793 320.027 341.651 319.574C340.575 319.224 339.819 318.36 339.387 317.135C338.234 313.898 337.915 310.517 337.575 307.136C337.549 306.863 337.596 306.58 337.652 306.307C337.765 305.746 337.91 305.119 338.625 305.15C339.304 305.175 339.505 305.772 339.556 306.349C339.721 308.386 339.87 310.43 339.999 312.472C340.076 313.687 340.303 314.865 340.725 316.013C341.414 317.902 342.454 318.535 344.486 318.231C345.001 318.154 345.582 317.938 345.721 318.669C345.84 319.302 345.454 319.729 344.826 319.883Z" fill="#AE72FF"/>
<path d="M339.896 295.151C339.7 297.23 339.458 299.303 339.206 301.372C339.155 301.799 338.939 302.227 338.429 302.221C337.93 302.221 337.719 301.825 337.673 301.372C337.456 299.18 337.822 297.024 338.028 294.904C338.306 294.456 338.511 294.008 339.114 294.137C339.659 294.255 339.942 294.662 339.896 295.151Z" fill="#AE72FF"/>
<path d="M623.56 260.488C616.026 234.768 591.365 219.47 565.593 225.199C541.391 230.585 523.835 252.415 524.001 277.191C524.156 279.036 524.122 281.156 524.356 283.287C525.714 295.6 530.831 306.257 539.769 314.588C553.4 327.297 569.506 331.187 587.572 325.801C615.739 317.396 631.37 287.154 623.56 260.488ZM610.749 307.472C602.997 316.427 593.371 322.415 581.424 324.088C578.542 324.495 575.62 324.564 573.345 324.741C564.39 324.85 556.723 322.558 549.521 318.467C545.189 316.003 541.213 313.035 537.93 309.334C531.845 302.47 528.018 294.437 526.648 285.315C523.159 262.144 535.999 239.34 557.503 230.465C580.152 221.114 606.05 230.195 617.762 251.693C620.69 257.073 622.374 262.855 622.867 269.014C624.013 283.493 620.283 296.459 610.749 307.472Z" fill="#512473"/>
<path d="M622.867 269.014C622.374 262.854 620.69 257.073 617.762 251.693C606.05 230.195 580.152 221.114 557.502 230.464C535.999 239.34 523.159 262.144 526.648 285.315C528.018 294.437 531.845 302.469 537.93 309.334C541.213 313.035 545.189 316.003 549.521 318.467C556.723 322.558 564.389 324.85 573.345 324.741C575.62 324.563 578.542 324.495 581.424 324.088C593.37 322.415 602.996 316.427 610.749 307.472C620.283 296.459 624.013 283.493 622.867 269.014ZM547.585 312.731C546.719 313.791 545.803 312.697 545.104 312.095C538.789 306.629 533.896 300.143 531.026 292.23C530.527 290.85 530.837 289.824 531.753 289.812C532.498 289.904 532.905 290.494 533.105 291.125C534.899 296.854 538.394 301.553 542.072 306.153C543.379 307.787 544.96 309.133 546.53 310.497C547.183 311.064 548.312 311.838 547.585 312.731ZM554.976 317.378C554.758 317.745 554.414 317.957 553.956 317.98C553.045 318.014 549.791 315.986 549.47 315.155C549.412 315.012 549.407 314.857 549.372 314.697C549.446 313.82 550.071 313.614 550.684 313.923C552.059 314.616 553.555 315.132 554.661 316.278C554.941 316.57 555.239 316.931 554.976 317.378ZM603.306 304.36C600.493 307.477 597.209 309.93 593.542 311.883C582.232 317.894 570.446 320.106 558.236 315.109C545.401 309.861 537.718 300.143 535.042 286.518C534.773 285.149 534.578 283.756 534.481 282.364C534.383 281.023 534.458 279.666 534.458 278.313C535.546 260.036 543.763 246.422 560.757 238.67C565.415 236.538 570.337 235.467 575.431 235.18C594.081 234.126 608.096 245.201 613.453 260.935C619.074 277.442 614.714 291.738 603.306 304.36Z" fill="#AE72FF"/>
<path d="M613.453 260.936C608.096 245.202 594.081 234.127 575.431 235.181C570.337 235.467 565.415 236.539 560.757 238.67C543.763 246.422 535.547 260.036 534.458 278.314C534.458 279.666 534.383 281.024 534.481 282.365C534.578 283.757 534.773 285.149 535.042 286.519C537.718 300.144 545.401 309.862 558.236 315.11C570.446 320.106 582.232 317.894 593.542 311.884C597.209 309.93 600.492 307.478 603.306 304.361C614.714 291.739 619.074 277.443 613.453 260.936ZM539.42 292.323C535.002 280.864 535.862 269.633 541.511 258.919C547.528 247.517 556.804 239.822 569.61 237.272C580.668 235.066 592.208 237.994 601.255 246.434C599.691 247.74 598.178 249.075 596.591 250.324C593.697 252.604 590.747 254.816 587.842 257.091C587.166 257.618 586.621 257.767 585.767 257.326C582.811 255.807 579.86 256.048 577.012 257.692C574.165 259.331 571.506 261.233 569.054 263.416C565.215 266.837 561.25 270.132 557.887 274.062C556.231 275.999 555.371 278.09 555.99 280.646C556.168 281.368 556.013 281.832 555.343 282.319C550.558 285.797 545.78 289.286 541.093 292.896C539.93 293.796 539.798 293.297 539.42 292.323ZM592.889 309.758C588.392 312.302 583.796 314.571 578.548 315.127C576.743 315.322 574.944 315.568 573.111 315.534C563.41 315.339 555.016 311.936 547.894 305.312C546.748 304.246 546.897 303.708 548.009 302.745C552.18 299.124 555.687 294.838 559.64 290.994C560.391 290.266 560.689 290.467 561.336 290.931C564.447 293.137 567.782 294.919 571.581 295.6C574.984 296.213 578.307 296.03 581.327 294.111C581.934 293.727 582.272 293.612 582.817 294.288C586.57 298.947 589.681 304.057 593.199 308.876C593.629 309.472 593.222 309.569 592.889 309.758ZM600.109 304.269C598.487 305.553 596.895 306.871 595.347 308.125C591.503 303.353 588.798 297.846 584.679 293.337C583.527 292.076 582.656 291.624 580.932 292.478C575.729 295.033 570.664 294.271 565.845 291.274C564.35 290.346 562.849 289.406 561.411 288.392C560.631 287.837 560.098 287.928 559.354 288.49C557.847 289.63 556.615 291.034 555.291 292.357C552.174 295.486 549.063 298.626 545.981 301.794C545.516 302.27 545.287 302.425 544.818 301.812C543.293 299.829 541.97 297.726 540.812 295.509C540.48 294.879 540.738 294.603 541.225 294.283C546.691 290.701 552.048 286.96 557.234 282.972C557.847 282.502 558.087 282.067 557.956 281.293C557.44 278.234 558.494 275.712 560.591 273.495C565.805 267.983 571.615 263.245 578.21 259.469C580.588 258.111 583.046 258.42 585.447 259.239C586.593 259.629 587.406 259.354 588.283 258.724C592.838 255.452 597.456 252.261 601.771 248.674C602.601 247.981 603.048 247.986 603.702 248.817C604.756 250.163 605.925 251.418 606.83 252.902C602.275 255.968 597.754 259.016 593.222 262.047C592.002 262.866 591.01 263.692 592.231 265.267C592.643 265.794 592.363 266.195 591.967 266.722C589.715 269.708 586.736 271.908 583.997 274.372C583.424 274.881 582.771 275.317 582.341 276.004C583.012 276.377 583.441 275.873 583.859 275.592C585.836 274.257 587.796 272.899 589.721 271.501C590.827 270.693 592.041 270.126 593.268 269.57C593.554 269.438 593.875 269.031 594.184 269.559C594.465 270.034 594.024 270.2 593.789 270.43C591.709 272.469 589.612 274.486 587.538 276.537C587.154 276.916 586.656 277.248 586.53 278.153C589.755 276.927 592.076 274.561 594.941 272.985C595.382 274.572 595.136 275.735 593.915 276.812C591.772 278.703 589.755 280.737 587.704 282.731C587.326 283.098 586.713 283.396 587.045 284.295C589.521 283.218 591.526 281.436 594.093 279.861C593.107 282.96 591.692 285.441 589.882 287.699C587.676 290.449 587.647 290.701 590.128 293.222C593.411 296.551 596.425 300.155 600.08 303.106C600.63 303.547 600.676 303.822 600.109 304.269ZM602.785 301.508C602.143 302.339 601.707 302.316 600.991 301.622C597.857 298.574 595.147 295.13 591.938 292.162C590.26 290.615 590.386 290.627 591.818 288.771C594.626 285.121 596.843 281.144 597.691 276.561C598.092 274.412 597.479 272.315 596.677 270.344C596.006 268.677 595.445 266.912 594.276 265.497C593.606 264.689 593.921 264.316 594.631 263.812C598.258 261.205 601.988 258.758 605.896 256.593C608.428 255.189 608.422 255.177 609.666 257.887C611.677 262.265 612.852 268.717 612.777 274.905C612.72 285 608.881 293.675 602.785 301.508Z" fill="#512473"/>
<path d="M600.109 304.269C598.487 305.552 596.894 306.87 595.347 308.125C591.503 303.352 588.798 297.846 584.679 293.336C583.527 292.076 582.656 291.623 580.931 292.477C575.729 295.032 570.664 294.27 565.845 291.274C564.35 290.346 562.848 289.406 561.41 288.392C560.631 287.836 560.098 287.928 559.353 288.489C557.847 289.629 556.615 291.033 555.291 292.357C552.174 295.485 549.063 298.625 545.98 301.794C545.516 302.269 545.287 302.424 544.817 301.811C543.293 299.828 541.97 297.725 540.812 295.508C540.48 294.878 540.738 294.603 541.225 294.282C546.691 290.701 552.048 286.959 557.234 282.971C557.847 282.502 558.087 282.066 557.956 281.293C557.44 278.233 558.494 275.712 560.591 273.494C565.805 267.982 571.615 263.244 578.21 259.468C580.588 258.11 583.046 258.42 585.447 259.239C586.593 259.628 587.406 259.353 588.283 258.723C592.838 255.451 597.456 252.26 601.771 248.673C602.601 247.98 603.048 247.986 603.701 248.816C604.756 250.163 605.925 251.418 606.83 252.902C602.275 255.967 597.754 259.015 593.222 262.046C592.001 262.866 591.01 263.691 592.231 265.266C592.643 265.793 592.362 266.194 591.967 266.722C589.715 269.707 586.736 271.907 583.997 274.371C583.424 274.881 582.771 275.316 582.341 276.004C583.011 276.376 583.441 275.872 583.859 275.591C585.836 274.256 587.796 272.898 589.721 271.5C590.827 270.692 592.041 270.125 593.268 269.569C593.554 269.438 593.875 269.031 594.184 269.558C594.465 270.033 594.024 270.2 593.789 270.429C591.709 272.469 589.612 274.486 587.538 276.537C587.154 276.915 586.656 277.247 586.53 278.152C589.755 276.926 592.076 274.56 594.941 272.984C595.382 274.571 595.136 275.734 593.915 276.812C591.772 278.702 589.755 280.737 587.704 282.73C587.326 283.097 586.713 283.395 587.045 284.295C589.52 283.218 591.526 281.436 594.093 279.86C593.107 282.96 591.692 285.441 589.881 287.698C587.676 290.448 587.647 290.7 590.128 293.221C593.411 296.55 596.425 300.155 600.08 303.105C600.63 303.547 600.676 303.822 600.109 304.269Z" fill="#AE72FF"/>
<path d="M547.584 312.731C546.719 313.791 545.803 312.697 545.103 312.095C538.789 306.629 533.896 300.143 531.026 292.23C530.527 290.85 530.836 289.824 531.753 289.812C532.498 289.904 532.905 290.494 533.105 291.125C534.899 296.854 538.394 301.553 542.072 306.154C543.379 307.787 544.96 309.133 546.53 310.497C547.183 311.064 548.312 311.838 547.584 312.731Z" fill="#AE72FF"/>
<path d="M554.976 317.379C554.758 317.745 554.414 317.957 553.956 317.98C553.045 318.014 549.791 315.986 549.47 315.155C549.412 315.012 549.407 314.857 549.372 314.697C549.446 313.82 550.071 313.614 550.684 313.923C552.059 314.617 553.555 315.132 554.661 316.278C554.941 316.571 555.239 316.932 554.976 317.379Z" fill="#AE72FF"/>
<ellipse cx="586" cy="275" rx="10" ry="13" fill="#AE72FF"/>
</svg>
