<svg width="223" height="129" viewBox="0 0 223 129" fill="none" xmlns="http://www.w3.org/2000/svg">
<g clip-path="url(#clip0_17121_46935)">
<path d="M112.764 125.296C141.801 125.296 165.34 101.807 165.34 72.8323C165.34 43.8572 141.801 20.3682 112.764 20.3682C83.7266 20.3682 60.1875 43.8572 60.1875 72.8323C60.1875 101.807 83.7266 125.296 112.764 125.296Z" fill="#FBF9FF"/>
<path opacity="0.49" d="M27.0688 78.1968C27.0688 73.1889 31.1373 69.1289 36.1559 69.1289H186.844C191.863 69.1289 195.932 73.1889 195.932 78.1968V103.267C195.932 108.275 191.863 112.335 186.844 112.335H36.1559C31.1373 112.335 27.0688 108.275 27.0688 103.267V78.1968Z" fill="#ECE2FF"/>
<path opacity="0.49" d="M39.4399 112.335H184.179V119.932C184.179 124.94 180.11 129 175.092 129H48.5272C43.5086 129 39.4399 124.94 39.4399 119.932V112.335Z" fill="#F6F2FF"/>
<g filter="url(#filter0_d_17121_46935)">
<path d="M17.1729 57.3434C17.1729 51.2398 22.1312 46.292 28.2479 46.292H194.754C200.87 46.292 205.828 51.2398 205.828 57.3434V83.384C205.828 89.4875 200.87 94.4354 194.754 94.4354H28.2479C22.1312 94.4354 17.1729 89.4876 17.1729 83.384V57.3434Z" fill="white"/>
</g>
<mask id="mask0_17121_46935" style="mask-type:luminance" maskUnits="userSpaceOnUse" x="25" y="53" width="37" height="36">
<path d="M53.6207 53.0811H33.839C29.4168 53.0811 25.832 56.604 25.832 60.9499V80.3904C25.832 84.7362 29.4168 88.2592 33.839 88.2592H53.6207C58.0428 88.2592 61.6276 84.7362 61.6276 80.3904V60.9499C61.6276 56.604 58.0428 53.0811 53.6207 53.0811Z" fill="white"/>
</mask>
<g mask="url(#mask0_17121_46935)">
<path d="M53.6217 53.0811H33.84C29.4178 53.0811 25.833 56.604 25.833 60.9499V80.3904C25.833 84.7362 29.4178 88.2592 33.84 88.2592H53.6217C58.0437 88.2592 61.6285 84.7362 61.6285 80.3904V60.9499C61.6285 56.604 58.0437 53.0811 53.6217 53.0811Z" fill="#E2D2FF"/>
<path d="M61.6285 53.0811H25.833V88.2592H61.6285V53.0811Z" fill="#E2D2FF"/>
<path d="M38.884 77.4446L39.6087 77.8672C40.8195 78.5732 42.1955 78.9502 43.6314 78.9502C48.0497 78.9502 51.6314 75.3685 51.6314 70.9502C51.6314 66.5319 48.0497 62.9502 43.6314 62.9502C39.2131 62.9502 35.6313 66.5319 35.6313 70.9502C35.6313 72.3865 36.0086 73.763 36.715 74.974L37.1374 75.698L36.4839 78.0996L38.884 77.4446ZM33.6355 80.9502L34.9875 75.9817C34.1253 74.5038 33.6313 72.7847 33.6313 70.9502C33.6313 65.4273 38.1085 60.9502 43.6314 60.9502C49.1542 60.9502 53.6314 65.4273 53.6314 70.9502C53.6314 76.473 49.1542 80.9502 43.6314 80.9502C41.7975 80.9502 40.0789 80.4566 38.6012 79.5949L33.6355 80.9502ZM40.0227 66.2585C40.1566 66.2491 40.2909 66.2477 40.425 66.2542C40.4791 66.2578 40.533 66.264 40.587 66.2703C40.7462 66.2887 40.9213 66.3856 40.9802 66.5191C41.2785 67.1956 41.568 67.8758 41.8486 68.5598C41.9105 68.7108 41.8732 68.9065 41.7554 69.0959C41.6956 69.193 41.6016 69.3292 41.4928 69.4685C41.3798 69.6132 41.1364 69.8793 41.1364 69.8793C41.1364 69.8793 41.0377 69.9975 41.0749 70.1446C41.0894 70.2002 41.1356 70.2812 41.1774 70.3493C41.2006 70.387 41.2222 70.4207 41.2361 70.444C41.4921 70.8713 41.8361 71.3045 42.2563 71.7118C42.3767 71.8285 42.4935 71.9476 42.6191 72.0582C43.0874 72.4711 43.6172 72.8085 44.1894 73.0584L44.1945 73.0607C44.279 73.0971 44.3224 73.117 44.4461 73.1695C44.5085 73.1959 44.5723 73.2187 44.6378 73.236C44.6615 73.2422 44.6858 73.2457 44.7102 73.2474C44.8719 73.2571 44.9654 73.1534 45.0053 73.1057C45.7288 72.2292 45.795 72.172 45.8 72.1724V72.174C45.8951 72.0738 46.0446 72.039 46.178 72.0472C46.2389 72.0509 46.2995 72.0626 46.3549 72.0879C46.8867 72.3305 47.7562 72.7089 47.7562 72.7089L48.3377 72.9703C48.4351 73.0173 48.524 73.128 48.5283 73.2356C48.5309 73.3025 48.5381 73.4105 48.5142 73.6081C48.4829 73.8668 48.4042 74.1783 48.326 74.3415C48.271 74.456 48.1998 74.5576 48.117 74.6436C48.0047 74.7602 47.9213 74.831 47.7863 74.9316C47.7041 74.9928 47.6615 75.0216 47.6615 75.0216C47.5226 75.1092 47.4443 75.153 47.2788 75.2411C47.0214 75.3782 46.737 75.457 46.4457 75.472C46.26 75.4815 46.0748 75.4949 45.8893 75.4849C45.8811 75.4844 45.3211 75.3984 45.3211 75.3984C43.8992 75.0244 42.5842 74.3238 41.4807 73.3522C41.2551 73.1536 41.0459 72.9387 40.8323 72.7261C39.9432 71.841 39.2702 70.8866 38.8621 69.9838C38.6608 69.5386 38.5334 69.0618 38.5313 68.5712C38.5277 67.9642 38.7264 67.3734 39.0961 66.8921C39.1689 66.7972 39.2381 66.6987 39.3575 66.5861C39.4838 66.4667 39.5643 66.4026 39.6509 66.3583C39.7664 66.2992 39.8933 66.2676 40.0227 66.2585Z" fill="#F8F5FF"/>
</g>
<path opacity="0.49" d="M103.768 59.2539H73.4595C72.0931 59.2539 70.9854 60.3593 70.9854 61.7228V66.6606C70.9854 68.0241 72.0931 69.1295 73.4595 69.1295H103.768C105.135 69.1295 106.242 68.0241 106.242 66.6606V61.7228C106.242 60.3593 105.135 59.2539 103.768 59.2539Z" fill="#E2D2FF"/>
<path opacity="0.49" d="M162.53 72.833H73.4595C72.0931 72.833 70.9854 73.9384 70.9854 75.3019V80.2397C70.9854 81.6032 72.0931 82.7086 73.4595 82.7086H162.53C163.896 82.7086 165.004 81.6032 165.004 80.2397V75.3019C165.004 73.9384 163.896 72.833 162.53 72.833Z" fill="#E2D2FF"/>
<path d="M103.743 3.57395C104.862 2.05012 107.138 2.05012 108.257 3.57395L110.292 6.34594C110.909 7.18652 111.943 7.61447 112.973 7.4565L116.373 6.93556C118.241 6.64918 119.851 8.25875 119.564 10.1274L119.043 13.5266C118.886 14.5574 119.313 15.5906 120.154 16.2078L122.926 18.243C124.45 19.3619 124.45 21.6381 122.926 22.757L120.154 24.7922C119.313 25.4094 118.886 26.4426 119.043 27.4734L119.564 30.8726C119.851 32.7412 118.241 34.3508 116.373 34.0644L112.973 33.5435C111.943 33.3855 110.909 33.8135 110.292 34.6541L108.257 37.426C107.138 38.9499 104.862 38.9499 103.743 37.426L101.708 34.6541C101.091 33.8135 100.057 33.3855 99.0266 33.5435L95.6274 34.0644C93.7588 34.3508 92.1492 32.7412 92.4356 30.8726L92.9565 27.4734C93.1145 26.4426 92.6865 25.4094 91.8459 24.7922L89.074 22.757C87.5501 21.6381 87.5501 19.3619 89.074 18.243L91.8459 16.2078C92.6865 15.5906 93.1145 14.5574 92.9565 13.5266L92.4356 10.1274C92.1492 8.25875 93.7588 6.64918 95.6274 6.93556L99.0266 7.4565C100.057 7.61447 101.091 7.18652 101.708 6.34594L103.743 3.57395Z" fill="#AE72FF"/>
<path fill-rule="evenodd" clip-rule="evenodd" d="M106.143 12.733C105.666 12.733 105.282 13.1166 105.282 13.5939C105.282 14.5614 105.588 15.4988 106.143 16.2763C106.699 15.4988 107.004 14.5605 107.004 13.5939C107.004 13.1166 106.62 12.733 106.143 12.733ZM107.29 17.5121C108.175 16.4053 108.665 15.0241 108.665 13.5939C108.665 12.1636 107.538 11.0723 106.143 11.0723C104.748 11.0723 103.622 12.1998 103.622 13.5939C103.622 14.988 104.112 16.4062 104.996 17.5121L103.297 19.2107C102.19 18.3257 100.809 17.8364 99.379 17.8364C97.9488 17.8364 96.8574 18.9639 96.8574 20.358C96.8574 21.7521 97.9849 22.8796 99.379 22.8796C100.773 22.8796 102.191 22.3894 103.297 21.5053L104.996 23.2038C104.111 24.3107 103.622 25.6919 103.622 27.1221C103.622 28.5523 104.749 29.6437 106.143 29.6437C107.537 29.6437 108.665 28.5162 108.665 27.1221C108.665 25.728 108.175 24.3098 107.29 23.2038L108.989 21.5053C110.096 22.3902 111.477 22.8796 112.907 22.8796C114.337 22.8796 115.429 21.7521 115.429 20.358C115.429 18.9639 114.301 17.8364 112.907 17.8364C111.513 17.8364 110.095 18.3266 108.989 19.2107L107.29 17.5121ZM106.143 18.7145L104.499 20.3588L106.143 22.0032L107.788 20.3588L106.143 18.7145ZM110.225 20.358C111.002 20.9136 111.941 21.2189 112.907 21.2189C113.385 21.2189 113.768 20.8353 113.768 20.358C113.768 19.8807 113.385 19.4971 112.907 19.4971C111.94 19.4971 111.002 19.8024 110.225 20.358ZM106.143 24.4397C105.588 25.2171 105.282 26.1554 105.282 27.1221C105.282 27.5994 105.666 27.983 106.143 27.983C106.62 27.983 107.004 27.5994 107.004 27.1221C107.004 26.1546 106.699 25.2171 106.143 24.4397ZM102.061 20.358C101.284 19.8024 100.346 19.4971 99.379 19.4971C98.9017 19.4971 98.5181 19.8807 98.5181 20.358C98.5181 20.8353 98.9017 21.2189 99.379 21.2189C100.347 21.2189 101.284 20.9136 102.061 20.358Z" fill="#FBF9FF"/>
</g>
<defs>
<filter id="filter0_d_17121_46935" x="6.87621" y="37.6983" width="209.248" height="68.7368" filterUnits="userSpaceOnUse" color-interpolation-filters="sRGB">
<feFlood flood-opacity="0" result="BackgroundImageFix"/>
<feColorMatrix in="SourceAlpha" type="matrix" values="0 0 0 0 0 0 0 0 0 0 0 0 0 0 0 0 0 0 127 0" result="hardAlpha"/>
<feOffset dy="1.70292"/>
<feGaussianBlur stdDeviation="5.14832"/>
<feComposite in2="hardAlpha" operator="out"/>
<feColorMatrix type="matrix" values="0 0 0 0 0.823529 0 0 0 0 0.721569 0 0 0 0 1 0 0 0 0.4 0"/>
<feBlend mode="normal" in2="BackgroundImageFix" result="effect1_dropShadow_17121_46935"/>
<feBlend mode="normal" in="SourceGraphic" in2="effect1_dropShadow_17121_46935" result="shape"/>
</filter>
<clipPath id="clip0_17121_46935">
<rect width="223" height="129" fill="white"/>
</clipPath>
</defs>
</svg>
