<svg width="100" height="100" viewBox="0 0 100 100" fill="none" xmlns="http://www.w3.org/2000/svg">
<g clip-path="url(#clip0_716_46183)">
<path d="M50 100C77.6142 100 100 77.6142 100 50C100 22.3858 77.6142 0 50 0C22.3858 0 0 22.3858 0 50C0 77.6142 22.3858 100 50 100Z" fill="#FBF9FF"/>
<path d="M84.3851 92.942C89.2582 92.942 93.2086 88.9915 93.2086 84.1184C93.2086 79.2453 89.2582 75.2949 84.3851 75.2949C79.512 75.2949 75.5615 79.2453 75.5615 84.1184C75.5615 88.9915 79.512 92.942 84.3851 92.942Z" fill="#D2B8FF"/>
<path d="M82.2239 84.1516C81.1282 84.1516 80.2686 83.3725 80.2686 82.3773C80.2686 81.372 81.1231 80.5879 82.2289 80.5879C83.3398 80.5879 84.1892 81.3519 84.1892 82.3673C84.1892 83.3725 83.3247 84.1516 82.2239 84.1516ZM83.3448 87.5898H81.6861L85.8781 80.7538H87.5619L83.3448 87.5898ZM82.2339 82.905C82.5054 82.905 82.6662 82.6789 82.6662 82.3823C82.6662 82.0606 82.5054 81.8194 82.2289 81.8194C81.9574 81.8194 81.7967 82.0506 81.7967 82.3723C81.7967 82.6739 81.9574 82.905 82.2339 82.905ZM86.9034 87.7304C85.8128 87.7304 84.9532 86.9564 84.9532 85.9661C84.9532 84.9559 85.8128 84.1718 86.9186 84.1718C88.0193 84.1718 88.8688 84.9358 88.8688 85.9511C88.8688 86.9564 88.0093 87.7304 86.9034 87.7304ZM86.9186 86.4939C87.1901 86.4939 87.3508 86.2628 87.3508 85.9661C87.3508 85.6445 87.1849 85.4033 86.9136 85.4033C86.6421 85.4033 86.4813 85.6344 86.4813 85.9561C86.4813 86.2526 86.6421 86.4939 86.9186 86.4939Z" fill="white"/>
<path d="M16.4436 27.6489C23.1035 27.6489 28.5024 22.25 28.5024 15.5901C28.5024 8.93017 23.1035 3.53125 16.4436 3.53125C9.78368 3.53125 4.38477 8.93017 4.38477 15.5901C4.38477 22.25 9.78368 27.6489 16.4436 27.6489Z" fill="#FFC2A7"/>
<path d="M16.715 21.0796C16.6068 21.1471 16.4696 21.1504 16.358 21.0874C15.3898 20.5458 10.8986 17.8398 11.0744 14.3004C11.2601 10.5588 15.3201 11.2076 16.3226 13.0491C16.3603 13.1188 16.4354 13.1608 16.515 13.1564C16.5946 13.1519 16.6643 13.1033 16.6951 13.0293C17.187 11.8465 18.7755 10.9898 20.271 11.5514C22.0551 12.2212 23.8679 16.646 16.7161 21.0785L16.715 21.0796Z" fill="#FFEDE6"/>
<mask id="mask0_716_46183" style="mask-type:alpha" maskUnits="userSpaceOnUse" x="0" y="0" width="100" height="100">
<path d="M50 100C77.6142 100 100 77.6142 100 50C100 22.3858 77.6142 0 50 0C22.3858 0 0 22.3858 0 50C0 77.6142 22.3858 100 50 100Z" fill="#FBF9FF"/>
</mask>
<g mask="url(#mask0_716_46183)">
<path d="M39.5979 62.2291V59.2126H40.112C43.2263 59.2126 45.7507 56.6882 45.7507 53.5742H35.0548C34.5232 53.5742 34.0918 54.0056 34.0918 54.5371V65.0108L44.8999 65.0173C44.8999 62.0887 42.5262 62.2291 39.5979 62.2291Z" fill="#FFE4CA"/>
<path d="M36.3428 57.7656L36.6618 57.7735L36.6659 62.65L36.3428 57.7656Z" fill="#EBC49A"/>
<path d="M83.7543 4.11719L25.2686 39.6287L27.5239 47.7353L29.9426 47.7428V51.0551C29.9426 54.7596 32.9566 57.7738 36.6612 57.7738H58.1007C61.8056 57.7738 64.8194 54.7595 64.8194 51.0551V47.8486L95.9461 47.9431L83.7543 4.11719ZM59.9639 51.0551C59.9639 52.0825 59.1282 52.9183 58.1007 52.9183H36.6612C35.6339 52.9183 34.7983 52.0825 34.7983 51.0551V47.7574L59.9639 47.8336V51.0551Z" fill="#E2D2FF"/>
<path d="M16.7383 35.4473L22.3777 55.7193L27.5237 47.7344L25.2683 39.6278L16.7383 35.4473Z" fill="#D2B8FF"/>
<path d="M29.9414 47.7422L34.7972 47.7569V49.9261L29.9414 47.7422Z" fill="#D2B8FF"/>
<path d="M59.9658 47.834L64.8213 47.849V50.018L59.9658 47.834Z" fill="#D2B8FF"/>
<path d="M55.6175 48.6172H39.1029C37.7614 48.6172 36.6638 49.7148 36.6638 51.0561V62.6494H34.0918V65.0099L39.1282 68.3034V77.2469L58.0367 77.2353C58.0367 77.2353 58.0564 59.4612 58.0565 58.6844V51.0561C58.0567 49.7148 56.959 48.6172 55.6175 48.6172Z" fill="#FFE4CA"/>
<path d="M37.5456 74.9587L59.2344 74.9062L59.1553 80.8306L37.5342 80.7484L37.5456 74.9587Z" fill="#F7F7F7"/>
<path d="M59.9562 71.4062L60.1545 114.118H35.5713L36.8498 71.4506L59.9562 71.4062Z" fill="white"/>
<path d="M58.3798 57.7667V52.8945C58.2879 52.9085 58.1948 52.918 58.0993 52.918H58.0566V57.7737H58.0993C58.1933 57.7737 58.2865 57.7707 58.3798 57.7667Z" fill="#D2B8FF"/>
<path d="M36.6659 57.7735V52.9178H36.6618C36.5529 52.9178 36.4468 52.9065 36.3428 52.8887V57.7657C36.4485 57.7708 36.5549 57.7735 36.6618 57.7735H36.6659Z" fill="#D2B8FF"/>
</g>
<path d="M83.7543 4.11719L25.2686 39.6287L27.5239 47.7353L29.9426 47.7428V51.0551C29.9426 41.176 35.0928 42.0584 38.7974 42.0584L61.4446 36.176C65.1493 36.176 64.8194 54.7595 64.8194 51.0551V47.8486L95.9461 47.9431L83.7543 4.11719Z" fill="#E2D2FF"/>
</g>
<defs>
<clipPath id="clip0_716_46183">
<rect width="100" height="100" fill="white"/>
</clipPath>
</defs>
</svg>
