<svg width="120" height="125" viewBox="0 0 120 125" fill="none" xmlns="http://www.w3.org/2000/svg">
<g clip-path="url(#clip0_11297_2192)">
<path d="M100.555 93.2144C99.6597 92.8409 98.6219 93.2712 98.2483 94.1697L90.9434 112.879C90.5661 113.258 84.9057 116.288 85.2831 116.288L107.365 124.678C109.626 125.626 111.164 124.411 110.784 121.984L110.277 118.74L109.768 115.503C109.768 115.503 109.768 115.502 109.768 115.5L109.077 111.084L112.684 108.467C112.684 108.467 112.685 108.464 112.688 108.464L115.334 106.545L117.987 104.622C119.969 103.183 119.742 101.232 117.479 100.288L100.555 93.2144Z" fill="#C3F0C8"/>
<path d="M18.7821 93.2144C19.6767 92.8409 20.7148 93.2712 21.0881 94.1697L28.3934 112.879C28.7707 113.258 34.4311 116.288 34.0537 116.288L11.9711 124.678C9.71077 125.626 8.17281 124.411 8.55266 121.984L9.06005 118.74L9.56926 115.503C9.56926 115.503 9.56926 115.502 9.56926 115.5L10.2601 111.084L6.65259 108.467C6.65259 108.467 6.65257 108.464 6.64884 108.464L4.00306 106.545L1.34981 104.622C-0.632212 103.183 -0.405046 101.232 1.8572 100.288L18.7821 93.2144Z" fill="#C3F0C8"/>
<g filter="url(#filter0_d_11297_2192)">
<path d="M4.52832 12.3861C4.52832 5.54546 10.0528 -2.1586e-07 16.8677 0L102.594 2.71538e-06C109.409 2.93123e-06 114.934 5.54547 114.934 12.3861V64.5384C114.934 93.7015 89.1721 117.342 59.731 117.342C30.2895 117.342 4.52832 93.7015 4.52832 64.5384V12.3861Z" fill="url(#paint0_linear_11297_2192)"/>
<mask id="mask0_11297_2192" style="mask-type:luminance" maskUnits="userSpaceOnUse" x="4" y="0" width="111" height="118">
<path d="M4.52832 12.3861C4.52832 5.54546 10.0528 -2.1586e-07 16.8677 0L102.594 2.71538e-06C109.409 2.93123e-06 114.934 5.54547 114.934 12.3861V64.5384C114.934 93.7015 89.1721 117.342 59.731 117.342C30.2895 117.342 4.52832 93.7015 4.52832 64.5384V12.3861Z" fill="white"/>
</mask>
<g mask="url(#mask0_11297_2192)">
<path d="M114.934 12.3861H101.945V64.5383H114.934H127.922V12.3861H114.934ZM4.52838 64.5383H17.5172V12.3861H4.52838H-8.46045V64.5383H4.52838ZM59.731 117.342V104.304C36.7027 104.304 17.5172 85.7598 17.5172 64.5383H4.52838H-8.46045C-8.46045 101.642 23.8765 130.38 59.731 130.38V117.342ZM114.934 64.5383H101.945C101.945 85.7598 82.7593 104.304 59.731 104.304V117.342V130.38C95.5857 130.38 127.922 101.642 127.922 64.5383H114.934ZM16.8678 -5.62668e-05V13.038H102.594V-5.34058e-05V-13.0381H16.8678V-5.62668e-05ZM4.52838 12.3861H17.5172C17.5172 12.7462 17.2265 13.038 16.8678 13.038V-5.62668e-05V-13.0381C2.87939 -13.0381 -8.46045 -1.65531 -8.46045 12.3861H4.52838ZM114.934 12.3861H127.922C127.922 -1.65528 116.583 -13.0381 102.594 -13.0381V-5.34058e-05V13.038C102.236 13.038 101.945 12.7461 101.945 12.3861H114.934Z" fill="#32BA46" fill-opacity="0.5"/>
</g>
</g>
<g opacity="0.5">
<mask id="mask1_11297_2192" style="mask-type:alpha" maskUnits="userSpaceOnUse" x="17" y="12" width="85" height="93">
<g opacity="0.5">
<path d="M17.4281 12.4208H101.956V62.4208C101.956 85.4325 83.372 104.088 60.447 104.088H58.9375C36.0125 104.088 17.4281 85.4325 17.4281 62.4208V12.4208Z" fill="#D9D9D9"/>
</g>
</mask>
<g mask="url(#mask1_11297_2192)">
<path d="M23.4229 22.6771L27.2643 23.4152L27.8918 27.2459C27.8978 27.2826 27.951 27.2826 27.957 27.2459L28.5846 23.4152L32.426 22.6771C32.4615 22.6702 32.4617 22.6198 32.4261 22.6127L28.5846 21.8593L27.957 18.2097C27.9509 18.1734 27.8981 18.1734 27.892 18.2097L27.2644 21.8593L23.4229 22.6127C23.3872 22.6198 23.3872 22.6702 23.4229 22.6771Z" fill="#8ED999"/>
<path opacity="0.7" d="M21.1504 32.2953L23.7938 32.7469L24.2257 35.09C24.2298 35.1125 24.2664 35.1125 24.2705 35.09L24.7024 32.7469L27.3458 32.2953C27.3702 32.2911 27.3704 32.2602 27.3458 32.2559L24.7022 31.795L24.2704 29.5627C24.2661 29.5406 24.2299 29.5406 24.2255 29.5627L23.7936 31.795L21.15 32.2559C21.1258 32.2602 21.126 32.2911 21.1504 32.2953Z" fill="white"/>
<path opacity="0.7" d="M88.3199 21.6892L90.9636 22.1408L91.3953 24.4839C91.3999 24.5064 91.4361 24.5064 91.4406 24.4839L91.8723 22.1408L94.5153 21.6892C94.5402 21.685 94.5402 21.6542 94.5153 21.6498L91.8723 21.1889L91.4399 18.9567C91.4361 18.9345 91.3999 18.9345 91.3953 18.9567L90.9636 21.1889L88.3199 21.6498C88.2957 21.6542 88.2957 21.685 88.3199 21.6892Z" fill="white"/>
<g opacity="0.25">
<path d="M74.2433 -114.094L59.6471 57.8299L45.0659 -114.094H74.2433Z" fill="white"/>
<path d="M-13.3567 -98.3818L59.6471 57.8301L-38.6171 -83.7379L-13.3567 -98.3818Z" fill="white"/>
<path d="M-81.3865 -40.8137L59.647 57.8302L-95.9752 -15.4577L-81.3865 -40.8137Z" fill="white"/>
<path d="M-111.629 43.1863L59.6469 57.8302L-111.629 72.4742V43.1863Z" fill="white"/>
<path d="M-95.9752 131.111L59.647 57.8302L-81.3865 156.474L-95.9752 131.111Z" fill="white"/>
<path d="M-38.6248 199.406L59.6469 57.8302L-13.3644 214.042L-38.6248 199.406Z" fill="white"/>
<path d="M45.0581 229.762L59.6469 57.8302L74.2355 229.762H45.0581Z" fill="white"/>
<path d="M132.65 214.05L59.6469 57.8302L157.918 199.406L132.65 214.05Z" fill="white"/>
<path d="M200.688 156.482L59.6469 57.8302L215.269 131.118L200.688 156.482Z" fill="white"/>
<path d="M230.93 72.4815L59.6469 57.83L230.93 43.1936V72.4815Z" fill="white"/>
<path d="M215.277 -15.4503L59.6469 57.83L200.688 -40.8064L215.277 -15.4503Z" fill="white"/>
<path d="M157.926 -83.7379L59.6469 57.8301L132.658 -98.3818L157.926 -83.7379Z" fill="white"/>
</g>
<path d="M59.2407 76.506C54.1555 76.506 49.1679 75.1555 44.7504 72.5917L33.4314 76.506L35.758 64.4747C32.111 59.4578 30.1886 53.5563 30.1886 47.3446C30.1886 31.2643 43.2216 18.1825 59.2407 18.1825C75.2619 18.1825 88.2935 31.2643 88.2935 47.3446C88.2935 63.4239 75.2619 76.506 59.2407 76.506Z" fill="#32BA46"/>
<path d="M59.2409 66.3954C55.9193 66.3954 52.6606 65.5126 49.7751 63.8374L42.3805 66.3954L43.8995 58.5348C41.5177 55.257 40.2616 51.4023 40.2616 47.3433C40.2616 36.8384 48.7756 28.2921 59.2409 28.2921C69.707 28.2921 78.2211 36.8384 78.2211 47.3433C78.2211 57.8488 69.707 66.3954 59.2409 66.3954ZM50.1158 60.7218L50.6877 61.0812C53.265 62.7033 56.2231 63.5605 59.2407 63.5605C68.1501 63.5605 75.3974 56.2858 75.3974 47.3433C75.3974 38.4017 68.1501 31.127 59.2407 31.127C50.3328 31.127 43.0854 38.4017 43.0854 47.3433C43.0854 50.9815 44.2728 54.4289 46.517 57.3119L46.9139 57.8212L46.0833 62.1162L50.1158 60.7218Z" fill="white"/>
<path d="M49.6589 40.0241C49.6589 40.0241 50.7733 38.0701 51.6807 37.9585C52.5886 37.8463 53.7576 37.8463 54.0724 38.442C54.3879 39.0372 55.7962 42.4994 55.7962 42.4994C55.7962 42.4994 56.038 43.0949 55.6673 43.6721C55.2966 44.2488 54.4623 45.086 54.4623 45.086C54.4623 45.086 53.9987 45.6814 54.4623 46.3146C54.9258 46.9467 55.6448 48.1103 57.1324 49.6017C58.6174 51.0941 61.4698 52.1583 61.4698 52.1583C61.4698 52.1583 61.8781 52.2138 62.1382 51.9535C62.3969 51.693 63.8068 49.9249 63.8068 49.9249C63.8068 49.9249 64.259 49.3391 65.011 49.6832C65.7616 50.0272 69.0152 51.6558 69.0152 51.6558C69.0152 51.6558 69.3959 51.795 69.3959 52.372C69.3959 52.9487 69.1633 54.3604 68.6879 54.8375C68.2121 55.3153 66.8222 56.7864 64.7326 56.7864C62.6435 56.7864 57.6683 55.0798 55.0171 52.4191C52.3659 49.7573 50.0119 47.0584 49.4562 44.6027C48.8996 42.146 48.9743 41.0359 49.6589 40.0241Z" fill="white"/>
<path fill-rule="evenodd" clip-rule="evenodd" d="M59.2404 18.1825C67.3478 18.1825 74.6885 21.5339 79.9637 26.9271C80.0761 27.0385 80.1878 27.1506 80.2988 27.2638C80.4271 27.3905 80.5539 27.5187 80.6799 27.6477C80.7841 27.7508 80.8875 27.8545 80.9901 27.9592C81.1116 28.0791 81.2324 28.1997 81.3524 28.3217C81.4716 28.4399 81.5901 28.5595 81.7078 28.6798C81.8346 28.8046 81.9599 28.9307 82.0837 29.0578C82.1969 29.1696 82.3086 29.2823 82.4203 29.3959C82.5327 29.5073 82.6444 29.6194 82.7554 29.7326C82.8784 29.8542 83.0007 29.9772 83.1214 30.101C83.2293 30.2072 83.3358 30.3142 83.4414 30.422C83.5803 30.5589 83.7176 30.6975 83.8535 30.8371C83.9524 30.9351 84.0505 31.0336 84.1486 31.133C84.2746 31.2579 84.4007 31.3839 84.5252 31.5111C84.6376 31.6226 84.7493 31.7351 84.8603 31.8484C84.9833 31.97 85.1056 32.0924 85.2263 32.2161C85.3448 32.3331 85.4625 32.4508 85.5788 32.5698C85.6807 32.6707 85.7818 32.7729 85.8822 32.8753C86.0263 33.017 86.169 33.1604 86.3101 33.3051C86.409 33.4033 86.5071 33.5023 86.6044 33.6018C86.7365 33.7316 86.8671 33.8624 86.9961 33.9946C87.0965 34.0941 87.1961 34.1942 87.2958 34.295C87.4309 34.4288 87.5652 34.5641 87.6988 34.7004C87.8097 34.8103 87.9192 34.9211 88.0286 35.0326C88.1448 35.1476 88.261 35.2634 88.375 35.3803C88.4859 35.4897 88.5954 35.5999 88.7048 35.7111C88.8384 35.8429 88.9705 35.9761 89.1018 36.1105C89.2097 36.217 89.3161 36.3242 89.4226 36.4323C89.5403 36.5488 89.6573 36.6661 89.7735 36.7845C89.8912 36.9011 90.0082 37.0189 90.1244 37.1374C90.2527 37.2642 90.3795 37.3923 90.5056 37.5214C90.6165 37.631 90.7267 37.7414 90.8354 37.8528C90.9501 37.9661 91.0641 38.0802 91.1765 38.1954C91.2943 38.3117 91.4112 38.4292 91.5275 38.5475C91.661 38.6794 91.7931 38.8133 91.9237 38.9477C92.018 39.0411 92.1116 39.135 92.2044 39.2296C92.341 39.3642 92.4769 39.5 92.6105 39.6373C92.7146 39.7401 92.818 39.8436 92.9207 39.948C93.0452 40.0711 93.169 40.1954 93.292 40.3208C93.4067 40.4341 93.5207 40.5483 93.6331 40.6634C93.7614 40.7901 93.889 40.9183 94.015 41.0473C94.1275 41.159 94.2392 41.272 94.3501 41.3854C94.458 41.4917 94.5644 41.5987 94.6701 41.7065C94.7931 41.8279 94.9154 41.9506 95.0361 42.0742C95.1599 42.1958 95.2814 42.3183 95.4029 42.4419C95.5229 42.5608 95.6422 42.6806 95.7599 42.8014C95.8799 42.9195 95.9976 43.0386 96.1154 43.1588C96.2241 43.2667 96.3327 43.3755 96.4399 43.4851C96.5576 43.6016 96.6746 43.7195 96.7908 43.8379C96.9116 43.9578 97.0324 44.0786 97.1516 44.2004C97.2663 44.3137 97.3803 44.4279 97.4927 44.543C97.6105 44.6594 97.7275 44.7768 97.8437 44.8951C97.9614 45.0117 98.0784 45.1295 98.1946 45.248C98.3229 45.3748 98.4505 45.5029 98.5765 45.632C98.6912 45.7455 98.8044 45.8599 98.9176 45.9753C99.0263 46.0829 99.1342 46.1915 99.2414 46.3008C99.3629 46.4211 99.4837 46.5424 99.6037 46.6648C99.729 46.7882 99.8527 46.9128 99.975 47.0384C100.084 47.1464 100.193 47.255 100.3 47.3647C100.42 47.483 100.539 47.6023 100.657 47.7227C100.773 47.8372 100.888 47.9526 101.002 48.069C101.125 48.1907 101.247 48.3136 101.368 48.4374C101.487 48.5555 101.606 48.6746 101.724 48.7948C101.84 48.9099 101.955 49.0261 102.07 49.1432C102.188 49.2601 102.305 49.378 102.421 49.4968C102.529 49.6028 102.635 49.7095 102.74 49.8172C102.878 49.9526 103.014 50.0896 103.149 50.2278C103.244 50.3217 103.337 50.4166 103.431 50.5119C103.563 50.6419 103.694 50.7729 103.824 50.9054C103.94 51.0206 104.056 51.1368 104.17 51.2539C104.284 51.367 104.398 51.4808 104.511 51.5957C104.627 51.7101 104.742 51.8256 104.856 51.942C104.986 52.0705 105.115 52.2008 105.243 52.3318C105.352 52.4403 105.461 52.5494 105.569 52.6595C105.685 52.774 105.8 52.8894 105.914 53.0058C106.038 53.1275 106.159 53.2505 106.281 53.3742C106.398 53.4908 106.515 53.6086 106.632 53.7271C106.749 53.8437 106.866 53.9614 106.982 54.08C107.095 54.1914 107.207 54.3035 107.318 54.4167C107.438 54.5348 107.555 54.6545 107.673 54.7747C107.788 54.8876 107.902 55.0011 108.014 55.1158C108.144 55.2444 108.273 55.3746 108.401 55.5057C108.509 55.6122 108.616 55.7193 108.721 55.8275C108.839 55.9439 108.956 56.0613 109.072 56.1796C109.201 56.3063 109.327 56.4346 109.453 56.5636C109.561 56.6701 109.668 56.7773 109.774 56.8854C109.9 57.009 110.023 57.1339 110.146 57.2598C110.252 57.3641 110.356 57.4691 110.46 57.5749C110.587 57.6997 110.712 57.826 110.836 57.9529C110.956 58.0714 111.075 58.1906 111.193 58.3111C111.3 58.4173 111.407 58.5243 111.512 58.6321C111.652 58.7691 111.789 58.9075 111.925 59.0472C112.024 59.1451 112.122 59.2438 112.22 59.3431C112.346 59.4683 112.472 59.5945 112.597 59.7219C112.709 59.8333 112.821 59.9454 112.932 60.0585C113.063 60.1875 113.192 60.3177 113.321 60.4492C113.426 60.5534 113.53 60.6585 113.634 60.7643C113.749 60.8775 113.863 60.9917 113.975 61.1068C114.112 61.2419 114.247 61.3783 114.382 61.516C114.484 61.6173 114.586 61.7194 114.686 61.8223C114.806 61.9404 114.924 62.0601 115.042 62.1803C120.404 67.4738 123.733 74.8334 123.733 82.9605C123.733 99.0401 110.702 112.122 94.6814 112.122C89.5961 112.122 84.6082 110.771 80.1901 108.207L68.8719 112.122L68.9699 111.613L68.5204 111.769L68.6183 111.261L68.1695 111.417L68.2675 110.907L67.8194 111.064L67.9174 110.555L67.4678 110.711L67.5659 110.204L67.117 110.359L67.2151 109.851L66.7662 110.006L66.8642 109.498L66.4154 109.653L66.5134 109.145L66.0645 109.301L66.1625 108.792L65.7137 108.948L65.8118 108.44L65.3629 108.595L65.4609 108.086L65.0113 108.242L65.1093 107.734L64.6605 107.889L64.7578 107.382L64.3104 107.538L64.4084 107.029L63.9589 107.185L64.0569 106.676L63.6081 106.832L63.706 106.325L63.2572 106.48L63.3552 105.972L62.9064 106.127L63.0044 105.619L62.5555 105.774L62.6536 105.267L62.2047 105.422L62.3028 104.913L61.8539 105.068L61.9519 104.561L61.5023 104.717L61.6004 104.209L61.1515 104.364L61.2496 103.856L60.8014 104.011L60.8995 103.503L60.4499 103.659L60.5479 103.15L60.099 103.305L60.197 102.798L59.7482 102.953L59.8463 102.445L59.3974 102.601L59.4954 102.093L59.0466 102.248L59.1446 101.739L58.6958 101.895L58.7938 101.387L58.3449 101.542L58.4429 101.034L57.9933 101.19L58.0914 100.682L57.6432 100.837L57.7413 100.329L57.2917 100.485L57.389 99.9779L56.9409 100.133L57.0389 99.6226L56.59 99.7787L56.6873 99.2719L56.2392 99.4272L56.3373 98.9196L55.8891 99.0749L55.9872 98.5658L55.5376 98.7219L55.6356 98.2136L55.1868 98.3689L55.2847 97.8613L54.8367 98.0166L54.9347 97.5075L54.4851 97.6636L54.5824 97.1567L54.1342 97.312L54.2323 96.8029L53.7827 96.959L53.8807 96.4507L53.4319 96.6067L53.5299 96.0984L53.0818 96.2537L53.1798 95.7446L52.7302 95.9007L52.8283 95.3931L52.3794 95.5484L52.4774 95.0393L52.0293 95.1946L52.1273 94.6863L51.6777 94.8423L51.7758 94.334L51.3269 94.4901L51.425 93.9825L50.9761 94.1378L51.0741 93.6302L50.6253 93.7855L50.7233 93.2764L50.2737 93.4325L50.3718 92.9242L49.9229 93.0795L50.0209 92.5711L49.5728 92.7264L49.6709 92.2181L49.2213 92.3742L49.3192 91.8666L48.8704 92.0219L48.9684 91.5128L48.5196 91.6681L48.6169 91.1613L48.1687 91.3166L48.2668 90.8083L47.8179 90.9636L47.916 90.4552L47.4671 90.6105L47.5651 90.1037L47.1163 90.259L47.2143 89.7507L46.7655 89.906L46.8635 89.3969L46.4139 89.5529L46.5119 89.0446L46.0638 89.1999L46.1611 88.6923L45.7122 88.8484L45.8102 88.3378L45.3614 88.4939L45.4587 87.9878L45.0113 88.1431L45.1093 87.634L44.6598 87.7901L44.7578 87.2825L44.309 87.4378L44.407 86.9295L43.9581 87.0848L44.0561 86.5764L43.6073 86.7317L43.7053 86.2234L43.2564 86.3795L43.3545 85.8719L42.9056 86.0272L43.0037 85.5181L42.5549 85.6734L42.6521 85.1658L42.2032 85.3219L42.3013 84.8136L41.8524 84.9689L41.9505 84.4613L41.5016 84.6166L41.5996 84.1075L41.1515 84.2635L41.2496 83.7552L40.8 83.9113L40.8979 83.403L40.4491 83.5583L40.5472 83.0507L40.0983 83.206L40.1964 82.6961L39.7475 82.8522L39.8447 82.3454L39.3967 82.5007L39.4947 81.9923L39.0458 82.1484L39.1438 81.6401L38.695 81.7954L38.793 81.2863L38.3435 81.4423L38.4415 80.9348L37.9926 81.0901L38.0906 80.5825L37.6425 80.7378L37.7405 80.228L37.2909 80.384L37.389 79.8772L36.9401 80.0325L37.0382 79.5249L36.5893 79.6802L36.6873 79.1719L36.2385 79.3272L36.3365 78.8189L35.8877 78.9742L35.9857 78.4658L35.5368 78.6211L35.6349 78.1128L35.186 78.2681L35.2833 77.762L34.8352 77.9173L34.9332 77.409L34.4844 77.5643L34.5824 77.056L34.1336 77.2113L34.2315 76.7029L33.7819 76.859L33.88 76.3499L33.4312 76.5052L35.7579 64.4745C32.1111 59.4576 30.189 53.5563 30.189 47.3447C30.189 31.2645 43.2214 18.1826 59.2404 18.1825Z" fill="url(#paint1_linear_11297_2192)"/>
</g>
</g>
<path d="M59.2408 76.5053C54.1557 76.5053 49.168 75.1548 44.7505 72.5909L33.4315 76.5053L35.7582 64.474C32.1111 59.4571 30.1887 53.5556 30.1887 47.3439C30.1887 31.2636 43.2217 18.1818 59.2408 18.1818C75.262 18.1818 88.2936 31.2636 88.2936 47.3439C88.2936 63.4231 75.262 76.5053 59.2408 76.5053Z" fill="url(#paint2_linear_11297_2192)"/>
<path d="M59.241 66.3946C55.9194 66.3946 52.6607 65.5119 49.7752 63.8367L42.3807 66.3946L43.8996 58.534C41.5178 55.2563 40.2617 51.4016 40.2617 47.3426C40.2617 36.8377 48.7758 28.2914 59.241 28.2914C69.7071 28.2914 78.2212 36.8377 78.2212 47.3426C78.2212 57.848 69.7071 66.3946 59.241 66.3946ZM50.1159 60.7211L50.6878 61.0805C53.2651 62.7026 56.2232 63.5598 59.2408 63.5598C68.1503 63.5598 75.3976 56.285 75.3976 47.3426C75.3976 38.401 68.1503 31.1262 59.2408 31.1262C50.3329 31.1262 43.0856 38.401 43.0856 47.3426C43.0856 50.9808 44.273 54.4282 46.5171 57.3112L46.914 57.8205L46.0834 62.1155L50.1159 60.7211Z" fill="white"/>
<path d="M49.6591 40.0234C49.6591 40.0234 50.7734 38.0695 51.6808 37.9579C52.5887 37.8457 53.7577 37.8457 54.0725 38.4414C54.388 39.0365 55.7963 42.4988 55.7963 42.4988C55.7963 42.4988 56.0382 43.0943 55.6674 43.6715C55.2967 44.2482 54.4624 45.0854 54.4624 45.0854C54.4624 45.0854 53.9988 45.6808 54.4624 46.314C54.9259 46.9461 55.6449 48.1096 57.1325 49.6011C58.6176 51.0936 61.4699 52.1577 61.4699 52.1577C61.4699 52.1577 61.8782 52.2131 62.1383 51.9529C62.397 51.6924 63.8069 49.9243 63.8069 49.9243C63.8069 49.9243 64.2591 49.3385 65.0111 49.6825C65.7617 50.0265 69.0154 51.6552 69.0154 51.6552C69.0154 51.6552 69.396 51.7944 69.396 52.3713C69.396 52.9481 69.1634 54.3599 68.688 54.8368C68.2122 55.3146 66.8223 56.7859 64.7327 56.7859C62.6436 56.7859 57.6684 55.0791 55.0172 52.4184C52.366 49.7567 50.012 47.0578 49.4564 44.6021C48.8998 42.1454 48.9744 41.0353 49.6591 40.0234Z" fill="white"/>
<path d="M102.497 113.02C101.468 115.252 98.7328 116.208 96.3819 115.273C72.8119 105.892 46.554 105.892 22.9848 115.273C20.6304 116.208 17.8971 115.254 16.8703 113.02C14.4833 107.708 12.0935 102.401 9.7065 97.0909C8.67963 94.8591 10.2651 91.9114 13.2851 90.7121C43.0834 78.8538 76.2838 78.8538 106.082 90.7121C109.1 91.9114 110.689 94.8591 109.662 97.0909C107.272 102.401 104.885 107.708 102.497 113.02Z" fill="#E6F7E8"/>
<path d="M49.4293 100H46.4539V92.0068L44.7572 92.6083L44.7493 90.0257L46.9828 89.2182H49.4293V100ZM55.5221 100.277C52.1601 100.277 50.7 97.6712 50.7 94.6522C50.7 91.5075 52.31 88.9568 55.5142 88.9568C59.0657 88.9568 60.3442 91.6977 60.3442 94.6129C60.3442 97.6788 58.829 100.277 55.5221 100.277ZM55.5221 97.5522C56.6586 97.5522 57.3689 96.4591 57.3689 94.6129C57.3689 92.7674 56.6507 91.6818 55.5063 91.6818C54.3935 91.6818 53.6753 92.775 53.6753 94.6212C53.6753 96.4666 54.3935 97.5522 55.5221 97.5522ZM65.7977 100.277C62.4357 100.277 60.9756 97.6712 60.9756 94.6522C60.9756 91.5075 62.5856 88.9568 65.7899 88.9568C69.3413 88.9568 70.6198 91.6977 70.6198 94.6129C70.6198 97.6788 69.1046 100.277 65.7977 100.277ZM65.7977 97.5522C66.9342 97.5522 67.6445 96.4591 67.6445 94.6129C67.6445 92.7674 66.9263 91.6818 65.7819 91.6818C64.6691 91.6818 63.9509 92.775 63.9509 94.6212C63.9509 96.4666 64.6691 97.5522 65.7977 97.5522ZM81.5585 89.2257L77.849 94.0348L82.0007 100H78.4966L75.9079 96.1735L74.8579 97.5598V100H71.8826V89.2257H74.8579V93.6151L78.1094 89.2257H81.5585Z" fill="url(#paint3_linear_11297_2192)"/>
<path d="M44.0239 22.4615C44.0258 22.0591 44.3754 21.6524 45.1108 21.2591C48.2397 19.5874 57.1663 18.7972 65.0483 19.4957C71.0768 20.0294 74.7482 21.2777 74.7429 22.584L74.7495 12.0389C74.7439 12.0913 74.7354 12.1602 74.7294 12.2119C74.6824 12.2329 74.6203 12.2594 74.5734 12.2797C74.5397 12.2573 71.2375 9.98338 69.2719 3.20206C66.16 12.3672 54.5184 10.6816 51.6916 4.32013C51.5058 3.90186 51.3347 3.31274 51.1828 2.88074C48.6826 10.5753 44.3297 11.7657 44.2891 11.7667C44.0342 11.4519 44.0342 11.4519 44.034 11.0396L44.0239 22.4615Z" fill="#6DCF7B"/>
<path d="M58.7906 8.44306C58.0052 10.4275 58.0052 10.4275 57.4053 11.2839C55.6634 13.7709 46.6375 20.4954 45.2994 5.94739C45.2921 6.01658 45.2832 6.08513 45.2755 6.15396C45.2824 6.07263 45.2906 6.00011 45.2994 5.94739L44.5732 6.46916L44.5939 10.0878L44.8069 10.1107C44.7991 10.2465 44.7903 10.3818 44.7861 10.5177L44.7844 21.9384C44.7803 23.2446 48.2932 24.4957 54.0585 25.0336C55.3513 25.1548 56.6741 25.2306 57.9929 25.2662L58.6786 8.95473L58.7906 8.44306Z" fill="#55D267"/>
<path d="M73.6904 6.94188C73.586 6.80254 73.4283 6.67108 73.1462 6.44067L73.1237 6.95076C72.9886 7.88417 72.7399 9.51023 72.1309 10.9935C69.6089 17.1273 62.014 16.8277 58.7905 8.44341L58.6785 8.95508L57.9928 25.2667C64.3621 25.4418 70.6469 24.6683 73.1247 23.2847V23.2717L73.1289 23.2827C73.8292 22.8898 74.162 22.4842 74.1636 22.0831L74.1625 11.5383C74.0342 10.1725 73.9806 8.27295 73.6904 6.94188Z" fill="#98DCA2"/>
<path d="M73.6906 6.94218L73.6665 7.45241C73.5246 8.38604 73.2634 10.0125 72.6252 11.4957C69.984 17.6313 62.0422 17.3379 58.6782 8.95506C57.8557 10.9401 57.8557 10.9401 57.2277 11.7972C55.4042 14.2854 45.9622 21.0167 44.5729 6.46948C44.4011 7.99422 44.0888 9.50256 44.0329 11.0403L44.0228 22.4617C44.0171 23.7669 47.6894 25.016 53.7175 25.5497C61.5997 26.2477 70.5269 25.4583 73.6554 23.7863L73.6549 23.7729L73.6592 23.7838C74.3917 23.3912 74.7402 22.985 74.7418 22.5843L74.7484 12.0391C74.5801 10.3025 73.9703 8.65657 73.6906 6.94218Z" fill="#E6F7E8"/>
<path d="M72.7178 11.7867C73.3559 10.3032 73.5242 8.38346 73.6662 7.44983C73.5242 8.38346 73.263 10.0099 72.6249 11.4931C69.9836 17.6288 62.0419 17.3353 58.6779 8.95247C62.0422 17.3352 70.0766 17.9229 72.7178 11.7867Z" fill="#55D267"/>
<path d="M57.2158 12.136C57.844 11.2793 57.8561 10.9389 58.6786 8.9538C57.8561 10.9389 57.8561 10.9389 57.228 11.7959C55.4046 14.2841 45.9625 21.0155 44.5732 6.46826C45.9625 21.0155 55.3932 14.6245 57.2158 12.136Z" fill="#55D267"/>
<path d="M74.7464 20.0826C74.5634 20.2799 74.2951 20.4772 73.9333 20.6718L73.929 20.6605L73.9294 20.6738C70.729 22.3842 61.5984 23.1916 53.5356 22.477C48.5453 22.0359 45.1435 21.114 44.0277 20.0712L44.0266 20.8403C45.1394 21.8846 48.5521 22.8075 53.5482 23.2497C61.6109 23.9636 70.7416 23.1561 73.942 21.4461L73.9415 21.4324L73.9458 21.4437C74.2996 21.2538 74.563 21.0612 74.746 20.8675L74.7464 20.0826Z" fill="#55D267"/>
<path d="M74.7449 19.962C74.5619 20.1601 74.2936 20.3573 73.9322 20.5515L73.928 20.5406V20.5539C70.728 22.2643 61.597 23.0714 53.5346 22.3571C48.5442 21.9155 45.1421 20.9941 44.0262 19.9513L44.0256 20.7205C45.1384 21.7647 48.5511 22.6876 53.5472 23.1299C61.6095 23.8437 70.7405 23.0358 73.9406 21.3263L73.9405 21.3125L73.9447 21.3239C74.2985 21.1339 74.5616 20.9413 74.745 20.7472L74.7449 19.962Z" fill="#AFE9B9"/>
<path fill-rule="evenodd" clip-rule="evenodd" d="M59.2105 14.6441C59.035 14.6456 58.8951 14.7933 58.8967 14.9756C58.8998 15.3452 59.0151 15.7023 59.222 15.9976C59.4239 15.6988 59.5332 15.3394 59.53 14.9702C59.5285 14.7879 59.3862 14.6426 59.2105 14.6441ZM59.6481 16.466C59.97 16.0404 60.1456 15.5113 60.141 14.965C60.1364 14.4187 59.7183 14.0053 59.2052 14.0097C58.6921 14.0141 58.2813 14.4483 58.2858 14.9808C58.2902 15.5134 58.4752 16.0535 58.804 16.4732L58.1847 17.1274C57.7746 16.7929 57.265 16.6103 56.7388 16.6148C56.2127 16.6192 55.8149 17.0534 55.8194 17.5859C55.8239 18.1185 56.2423 18.5456 56.7551 18.5412C57.268 18.5368 57.7881 18.3451 58.1921 18.0039L58.8225 18.6474C58.5005 19.073 58.325 19.6021 58.3296 20.1485C58.3342 20.6948 58.7525 21.1082 59.2653 21.1038C59.7782 21.0994 60.1893 20.6651 60.1848 20.1326C60.1803 19.6001 59.9953 19.0599 59.6665 18.6402L60.2859 17.986C60.6959 18.3206 61.2056 18.5032 61.7317 18.4987C62.2578 18.4942 62.6556 18.0601 62.6511 17.5276C62.6466 16.995 62.2282 16.5679 61.7154 16.5723C61.2025 16.5766 60.6824 16.7683 60.2784 17.1095L59.6481 16.466ZM59.2299 16.9289L58.6304 17.5623L59.2406 18.1852L59.8402 17.5519L59.2299 16.9289ZM60.7367 17.5439C61.0246 17.7537 61.3707 17.8673 61.7263 17.8643C61.9019 17.8628 62.0418 17.7151 62.0402 17.5328C62.0387 17.3504 61.8964 17.2051 61.7207 17.2066C61.3648 17.2097 61.021 17.3292 60.7367 17.5439ZM59.2485 19.1159C59.0466 19.4146 58.9373 19.774 58.9405 20.1432C58.942 20.3256 59.0844 20.4709 59.26 20.4694C59.4355 20.4679 59.5754 20.3201 59.5739 20.1379C59.5707 19.7682 59.4554 19.4111 59.2485 19.1159ZM57.7338 17.5695C57.4459 17.3598 57.0998 17.2461 56.7442 17.2491C56.5687 17.2507 56.4288 17.3984 56.4303 17.5807C56.4319 17.763 56.5742 17.9083 56.7498 17.9068C57.1057 17.9038 57.4496 17.7842 57.7338 17.5695Z" fill="#AFE9B9"/>
</g>
<defs>
<filter id="filter0_d_11297_2192" x="4.52832" y="0" width="110.405" height="124.342" filterUnits="userSpaceOnUse" color-interpolation-filters="sRGB">
<feFlood flood-opacity="0" result="BackgroundImageFix"/>
<feColorMatrix in="SourceAlpha" type="matrix" values="0 0 0 0 0 0 0 0 0 0 0 0 0 0 0 0 0 0 127 0" result="hardAlpha"/>
<feOffset dy="7"/>
<feComposite in2="hardAlpha" operator="out"/>
<feColorMatrix type="matrix" values="0 0 0 0 0.122874 0 0 0 0 0.501728 0 0 0 0 0.179702 0 0 0 1 0"/>
<feBlend mode="normal" in2="BackgroundImageFix" result="effect1_dropShadow_11297_2192"/>
<feBlend mode="normal" in="SourceGraphic" in2="effect1_dropShadow_11297_2192" result="shape"/>
</filter>
<linearGradient id="paint0_linear_11297_2192" x1="59.7303" y1="141.01" x2="56.1999" y2="-8.71149" gradientUnits="userSpaceOnUse">
<stop stop-color="#32BA46"/>
<stop offset="1" stop-color="white"/>
</linearGradient>
<linearGradient id="paint1_linear_11297_2192" x1="99.6226" y1="78.7886" x2="60.3037" y2="56.1902" gradientUnits="userSpaceOnUse">
<stop stop-color="white"/>
<stop offset="1" stop-color="#08C925"/>
</linearGradient>
<linearGradient id="paint2_linear_11297_2192" x1="72.8302" y1="35.606" x2="12.5609" y2="108.109" gradientUnits="userSpaceOnUse">
<stop stop-color="#67DD78"/>
<stop offset="1" stop-color="#7BDE8A"/>
</linearGradient>
<linearGradient id="paint3_linear_11297_2192" x1="69.9618" y1="88.1674" x2="62.5433" y2="131.447" gradientUnits="userSpaceOnUse">
<stop stop-color="#67DD78"/>
<stop offset="1" stop-color="#225B2A"/>
</linearGradient>
<clipPath id="clip0_11297_2192">
<rect width="120" height="125" fill="white"/>
</clipPath>
</defs>
</svg>
