<svg width="178" height="165" viewBox="0 0 178 165" fill="none" xmlns="http://www.w3.org/2000/svg">
<path d="M142.418 123.043C141.233 122.55 139.857 123.118 139.363 124.304L129.683 149C129.183 149.5 121.683 153.5 122.183 153.5L151.442 164.575C154.437 165.826 156.475 164.223 155.972 161.019L155.3 156.737L154.625 152.464C154.625 152.464 154.625 152.463 154.625 152.46L153.71 146.631L158.49 143.176C158.49 143.176 158.49 143.172 158.495 143.172L162 140.639L165.516 138.101C168.142 136.201 167.841 133.626 164.843 132.38L142.418 123.043Z" fill="#C3F0C8"/>
<path d="M34.0698 123.043C35.2552 122.55 36.6306 123.118 37.1252 124.304L46.8048 149C47.3047 149.5 54.8047 153.5 54.3047 153.5L25.0453 164.575C22.0503 165.826 20.0125 164.223 20.5158 161.019L21.1881 156.737L21.8628 152.464C21.8628 152.464 21.8628 152.463 21.8628 152.46L22.7781 146.631L17.9982 143.176C17.9982 143.176 17.9982 143.172 17.9932 143.172L14.4876 140.639L10.972 138.101C8.34584 136.201 8.64684 133.626 11.6443 132.38L34.0698 123.043Z" fill="#C3F0C8"/>
<g filter="url(#filter0_d_17425_41248)">
<mask id="path-3-inside-1_17425_41248" fill="white">
<path d="M15.1831 16.3497C15.1831 7.32001 22.5031 2.30986e-07 31.5328 5.15921e-07L145.12 4.10022e-06C154.15 4.38515e-06 161.47 7.32002 161.47 16.3497V85.1907C161.47 123.686 127.336 154.892 88.3266 154.892C49.3167 154.892 15.1831 123.686 15.1831 85.1907V16.3497Z"/>
</mask>
<path d="M15.1831 16.3497C15.1831 7.32001 22.5031 2.30986e-07 31.5328 5.15921e-07L145.12 4.10022e-06C154.15 4.38515e-06 161.47 7.32002 161.47 16.3497V85.1907C161.47 123.686 127.336 154.892 88.3266 154.892C49.3167 154.892 15.1831 123.686 15.1831 85.1907V16.3497Z" fill="url(#paint0_linear_17425_41248)"/>
<path d="M161.47 16.3497H144.26V85.1907H161.47H178.68V16.3497H161.47ZM15.1831 85.1907H32.3933V16.3497H15.1831H-2.02712V85.1907H15.1831ZM88.3266 154.892V137.682C57.8141 137.682 32.3933 113.203 32.3933 85.1907H15.1831H-2.02712C-2.02712 134.168 40.8193 172.102 88.3266 172.102V154.892ZM161.47 85.1907H144.26C144.26 113.203 118.839 137.682 88.3266 137.682V154.892V172.102C135.834 172.102 178.68 134.168 178.68 85.1907H161.47ZM31.5328 5.15921e-07V17.2102L145.12 17.2102V4.10022e-06V-17.2102L31.5328 -17.2102V5.15921e-07ZM15.1831 16.3497H32.3933C32.3933 16.825 32.0081 17.2102 31.5328 17.2102V5.15921e-07V-17.2102C12.9982 -17.2102 -2.02712 -2.18494 -2.02712 16.3497H15.1831ZM161.47 16.3497H178.68C178.68 -2.1849 163.655 -17.2102 145.12 -17.2102V4.10022e-06V17.2102C144.645 17.2102 144.26 16.8249 144.26 16.3497H161.47Z" fill="#32BA46" fill-opacity="0.5" mask="url(#path-3-inside-1_17425_41248)"/>
</g>
<g opacity="0.5">
<mask id="mask0_17425_41248" style="mask-type:alpha" maskUnits="userSpaceOnUse" x="32" y="16" width="113" height="122">
<path d="M32.2754 16.3945H144.275V82.3945C144.275 112.77 119.651 137.395 89.2754 137.395H87.2754C56.8997 137.395 32.2754 112.77 32.2754 82.3945V16.3945Z" fill="#D9D9D9"/>
</mask>
<g mask="url(#mask0_17425_41248)">
<g opacity="0.25">
<path d="M107.556 -150.605L88.2155 76.3345L68.8955 -150.605H107.556Z" fill="white"/>
<path d="M-8.51437 -129.865L88.2156 76.3348L-41.9844 -110.535L-8.51437 -129.865Z" fill="white"/>
<path d="M-98.6544 -53.875L88.2156 76.335L-117.984 -20.405L-98.6544 -53.875Z" fill="white"/>
<path d="M-138.725 57.0049L88.2154 76.3349L-138.725 95.6649V57.0049Z" fill="white"/>
<path d="M-117.984 173.065L88.2156 76.335L-98.6544 206.545L-117.984 173.065Z" fill="white"/>
<path d="M-41.9946 263.215L88.2154 76.335L-8.52464 282.535L-41.9946 263.215Z" fill="white"/>
<path d="M68.8853 303.285L88.2153 76.335L107.545 303.285H68.8853Z" fill="white"/>
<path d="M184.945 282.545L88.2153 76.335L218.425 263.215L184.945 282.545Z" fill="white"/>
<path d="M275.095 206.555L88.2153 76.335L294.415 173.075L275.095 206.555Z" fill="white"/>
<path d="M315.165 95.6747L88.2153 76.3347L315.165 57.0146V95.6747Z" fill="white"/>
<path d="M294.425 -20.3952L88.2153 76.3348L275.095 -53.8652L294.425 -20.3952Z" fill="white"/>
<path d="M218.435 -110.535L88.2153 76.3348L184.955 -129.865L218.435 -110.535Z" fill="white"/>
</g>
<path d="M87.6771 100.987C80.9393 100.987 74.3307 99.2044 68.4775 95.8201L53.4798 100.987L56.5626 85.1057C51.7303 78.4834 49.1831 70.6934 49.1831 62.494C49.1831 41.268 66.4518 24 87.6771 24C108.905 24 126.172 41.268 126.172 62.494C126.172 83.7186 108.905 100.987 87.6771 100.987Z" fill="#32BA46"/>
<path d="M87.6774 87.641C83.2762 87.641 78.9586 86.4758 75.1352 84.2645L65.3374 87.641L67.35 77.265C64.1941 72.9384 62.5298 67.8502 62.5298 62.4923C62.5298 48.6259 73.8109 37.3447 87.6774 37.3447C101.545 37.3447 112.826 48.6259 112.826 62.4923C112.826 76.3595 101.545 87.641 87.6774 87.641ZM75.5866 80.1519L76.3444 80.6263C79.7593 82.7675 83.6788 83.899 87.6771 83.899C99.4821 83.899 109.085 74.2963 109.085 62.4923C109.085 50.6894 99.4821 41.0867 87.6771 41.0867C75.8741 41.0867 66.2714 50.6894 66.2714 62.4923C66.2714 67.2947 67.8447 71.8453 70.8182 75.6508L71.3441 76.3231L70.2435 81.9925L75.5866 80.1519Z" fill="white"/>
<path d="M74.9815 52.8309C74.9815 52.8309 76.4579 50.2517 77.6602 50.1044C78.8632 49.9563 80.4121 49.9563 80.8292 50.7426C81.2472 51.5282 83.1132 56.0984 83.1132 56.0984C83.1132 56.0984 83.4337 56.8844 82.9425 57.6463C82.4513 58.4076 81.3458 59.5127 81.3458 59.5127C81.3458 59.5127 80.7316 60.2986 81.3458 61.1344C81.96 61.9688 82.9126 63.5047 84.8837 65.4734C86.8514 67.4435 90.6308 68.8481 90.6308 68.8481C90.6308 68.8481 91.1718 68.9213 91.5164 68.5778C91.8592 68.2339 93.7273 65.9 93.7273 65.9C93.7273 65.9 94.3264 65.1268 95.3229 65.5809C96.3174 66.035 100.629 68.1848 100.629 68.1848C100.629 68.1848 101.133 68.3686 101.133 69.1301C101.133 69.8914 100.825 71.755 100.195 72.3846C99.5643 73.0153 97.7227 74.9573 94.954 74.9573C92.1859 74.9573 85.5938 72.7044 82.081 69.1923C78.5681 65.6788 75.449 62.1162 74.7128 58.8747C73.9753 55.6319 74.0742 54.1665 74.9815 52.8309Z" fill="white"/>
<path d="M41.2186 31.9328L46.3084 32.9073L47.1399 37.9638C47.1479 38.0121 47.2184 38.0121 47.2263 37.9638L48.0579 32.9073L53.1477 31.9328C53.1947 31.9238 53.195 31.8572 53.1479 31.848L48.0579 30.8533L47.2263 26.0359C47.2182 25.988 47.1483 25.988 47.1402 26.0359L46.3086 30.8533L41.2186 31.848C41.1713 31.8572 41.1713 31.9238 41.2186 31.9328Z" fill="#8ED999"/>
<path opacity="0.7" d="M38.2075 44.6289L41.7101 45.225L42.2823 48.3179C42.2877 48.3476 42.3363 48.3476 42.3417 48.3179L42.914 45.225L46.4165 44.6289C46.4488 44.6233 46.4491 44.5826 46.4165 44.577L42.9137 43.9685L42.3415 41.0219C42.3358 40.9927 42.2879 40.9927 42.282 41.0219L41.7098 43.9685L38.207 44.577C38.1749 44.5826 38.1752 44.6233 38.2075 44.6289Z" fill="white"/>
<path opacity="0.7" d="M127.207 30.6289L130.71 31.225L131.282 34.3179C131.288 34.3476 131.336 34.3476 131.342 34.3179L131.914 31.225L135.417 30.6289C135.449 30.6233 135.449 30.5826 135.417 30.577L131.914 29.9685L131.341 27.0219C131.336 26.9927 131.288 26.9927 131.282 27.0219L130.71 29.9685L127.207 30.577C127.175 30.5826 127.175 30.6233 127.207 30.6289Z" fill="white"/>
<path d="M87.6768 24C98.4191 24 108.146 28.4238 115.135 35.543C115.284 35.6899 115.432 35.8379 115.579 35.9873C115.749 36.1545 115.917 36.3238 116.084 36.4941C116.222 36.6302 116.359 36.7671 116.495 36.9053C116.656 37.0635 116.816 37.2228 116.975 37.3838C117.133 37.5399 117.29 37.6977 117.446 37.8564C117.614 38.0213 117.78 38.1876 117.944 38.3555C118.094 38.503 118.242 38.6518 118.39 38.8018C118.539 38.9487 118.687 39.0967 118.834 39.2461C118.997 39.4067 119.159 39.569 119.319 39.7324C119.462 39.8726 119.603 40.0139 119.743 40.1562C119.927 40.3369 120.109 40.5199 120.289 40.7041C120.42 40.8335 120.551 40.9635 120.68 41.0947C120.848 41.2596 121.014 41.4259 121.179 41.5938C121.328 41.7409 121.476 41.8895 121.623 42.0391C121.786 42.1995 121.948 42.3611 122.108 42.5244C122.265 42.6788 122.421 42.8342 122.575 42.9912C122.711 43.1245 122.844 43.2593 122.978 43.3945C123.168 43.5816 123.357 43.7709 123.544 43.9619C123.675 44.0915 123.805 44.2221 123.935 44.3535C124.109 44.5248 124.282 44.6975 124.453 44.8721C124.586 45.0033 124.718 45.1354 124.85 45.2686C125.03 45.4451 125.207 45.6237 125.384 45.8037C125.531 45.9487 125.677 46.0949 125.821 46.2422C125.976 46.394 126.129 46.5468 126.28 46.7012C126.427 46.8455 126.572 46.9911 126.717 47.1377C126.894 47.3117 127.069 47.4877 127.243 47.665C127.386 47.8057 127.528 47.947 127.668 48.0898C127.824 48.2435 127.979 48.3984 128.133 48.5547C128.289 48.7085 128.444 48.8641 128.598 49.0205C128.768 49.1879 128.936 49.3569 129.104 49.5273C129.25 49.672 129.396 49.8179 129.54 49.9648C129.692 50.1144 129.843 50.265 129.992 50.417C130.148 50.5706 130.303 50.7256 130.457 50.8818C130.634 51.056 130.809 51.2327 130.982 51.4102C131.107 51.5334 131.231 51.6573 131.354 51.7822C131.536 51.9599 131.715 52.1392 131.893 52.3203C132.03 52.4561 132.167 52.5927 132.303 52.7305C132.468 52.8931 132.632 53.0571 132.795 53.2227C132.947 53.3722 133.098 53.5228 133.247 53.6748C133.417 53.8422 133.586 54.0112 133.753 54.1816C133.902 54.329 134.05 54.4781 134.197 54.6279C134.34 54.7681 134.481 54.9094 134.621 55.0518C134.784 55.2121 134.946 55.374 135.106 55.5371C135.27 55.6975 135.431 55.8592 135.592 56.0225C135.751 56.1793 135.909 56.3375 136.065 56.4971C136.224 56.653 136.381 56.8102 136.536 56.9688C136.681 57.1111 136.824 57.2548 136.966 57.3994C137.122 57.5532 137.277 57.7088 137.431 57.8652C137.592 58.0234 137.751 58.1828 137.909 58.3438C138.061 58.4933 138.212 58.6439 138.361 58.7959C138.518 58.9495 138.673 59.1045 138.826 59.2607C138.983 59.4145 139.137 59.5701 139.291 59.7266C139.461 59.8939 139.63 60.0629 139.797 60.2334C139.949 60.3832 140.1 60.5342 140.249 60.6865C140.393 60.8285 140.536 60.972 140.678 61.1162C140.839 61.275 140.999 61.4351 141.158 61.5967C141.324 61.7596 141.488 61.924 141.65 62.0898C141.795 62.2324 141.939 62.3757 142.081 62.5205C142.24 62.6767 142.398 62.8342 142.554 62.9932C142.707 63.1443 142.86 63.2966 143.011 63.4502C143.174 63.6108 143.336 63.7731 143.496 63.9365C143.654 64.0924 143.811 64.2497 143.967 64.4082C144.121 64.5602 144.274 64.7136 144.426 64.8682C144.582 65.0224 144.738 65.1781 144.892 65.335C145.034 65.4748 145.175 65.6158 145.314 65.7578C145.497 65.9367 145.677 66.1174 145.855 66.2998C145.981 66.4238 146.106 66.5491 146.229 66.6748C146.405 66.8465 146.578 67.0194 146.75 67.1943C146.904 67.3463 147.057 67.4998 147.209 67.6543C147.361 67.8035 147.511 67.9538 147.66 68.1055C147.814 68.2565 147.966 68.4089 148.117 68.5625C148.29 68.7322 148.46 68.9042 148.63 69.0771C148.775 69.2203 148.92 69.3643 149.062 69.5098C149.216 69.6609 149.368 69.8132 149.52 69.9668C149.683 70.1274 149.844 70.2897 150.005 70.4531C150.161 70.607 150.316 70.7624 150.47 70.9189C150.626 71.0729 150.781 71.2282 150.935 71.3848C151.084 71.5317 151.232 71.6797 151.379 71.8291C151.538 71.9852 151.695 72.143 151.851 72.3018C152.002 72.4508 152.153 72.6005 152.302 72.752C152.474 72.9217 152.645 73.0937 152.814 73.2666C152.957 73.4072 153.099 73.5486 153.239 73.6914C153.396 73.845 153.55 74 153.704 74.1562C153.874 74.3234 154.042 74.4928 154.209 74.6631C154.352 74.8037 154.493 74.9451 154.634 75.0879C154.8 75.251 154.964 75.4159 155.127 75.582C155.267 75.7197 155.405 75.8583 155.543 75.998C155.711 76.1627 155.876 76.3294 156.041 76.4971C156.2 76.6534 156.358 76.8107 156.514 76.9697C156.656 77.1099 156.797 77.2512 156.938 77.3936C157.122 77.5743 157.304 77.757 157.484 77.9414C157.615 78.0706 157.745 78.2009 157.874 78.332C158.042 78.4972 158.209 78.6638 158.374 78.832C158.523 78.979 158.671 79.127 158.818 79.2764C158.992 79.4466 159.163 79.6185 159.333 79.792C159.472 79.9296 159.611 80.0683 159.748 80.208C159.9 80.3574 160.051 80.5082 160.2 80.6602C160.382 80.8384 160.561 81.0184 160.739 81.2002C160.875 81.334 161.009 81.4688 161.143 81.6045C161.301 81.7606 161.458 81.9184 161.614 82.0771C168.718 89.0645 173.13 98.7792 173.13 109.507C173.13 130.732 155.864 148 134.636 148C127.898 148 121.289 146.217 115.436 142.833L100.438 148L100.568 147.328L99.9727 147.534L100.103 146.864L99.5078 147.069L99.6377 146.397L99.0439 146.603L99.1738 145.932L98.5781 146.138L98.708 145.468L98.1133 145.673L98.2432 145.002L97.6484 145.207L97.7783 144.536L97.1836 144.741L97.3135 144.071L96.7188 144.276L96.8486 143.605L96.2539 143.811L96.3838 143.14L95.7891 143.345L95.9189 142.673L95.3232 142.879L95.4531 142.208L94.8584 142.413L94.9873 141.744L94.3945 141.949L94.5244 141.277L93.9287 141.483L94.0586 140.812L93.4639 141.018L93.5938 140.348L92.999 140.553L93.1289 139.882L92.5342 140.087L92.6641 139.416L92.0693 139.621L92.1992 138.951L91.6045 139.156L91.7344 138.484L91.1396 138.689L91.2695 138.019L90.6738 138.225L90.8037 137.555L90.209 137.76L90.3389 137.089L89.7451 137.294L89.875 136.623L89.2793 136.829L89.4092 136.157L88.8145 136.362L88.9443 135.692L88.3496 135.897L88.4795 135.227L87.8848 135.432L88.0146 134.762L87.4199 134.967L87.5498 134.294L86.9551 134.5L87.085 133.83L86.4902 134.035L86.6201 133.364L86.0244 133.57L86.1543 132.899L85.5605 133.104L85.6904 132.433L85.0947 132.639L85.2236 131.97L84.6299 132.175L84.7598 131.501L84.165 131.707L84.2939 131.038L83.7002 131.243L83.8301 130.573L83.2363 130.778L83.3662 130.106L82.7705 130.312L82.9004 129.641L82.3057 129.846L82.4355 129.176L81.8418 129.381L81.9717 128.709L81.376 128.915L81.5049 128.246L80.9111 128.451L81.041 127.779L80.4453 127.985L80.5752 127.314L79.9805 127.52L80.1104 126.849L79.5166 127.054L79.6465 126.382L79.0508 126.588L79.1807 125.918L78.5859 126.123L78.7158 125.451L78.1221 125.656L78.252 124.985L77.6562 125.191L77.7861 124.521L77.1914 124.726L77.3213 124.056L76.7266 124.261L76.8564 123.591L76.2617 123.796L76.3916 123.124L75.7959 123.33L75.9258 122.659L75.3311 122.864L75.4609 122.193L74.8672 122.398L74.9971 121.727L74.4014 121.933L74.5312 121.263L73.9365 121.468L74.0664 120.796L73.4717 121.001L73.6006 120.332L73.0068 120.537L73.1367 119.866L72.542 120.071L72.6719 119.4L72.0771 119.605L72.207 118.936L71.6123 119.141L71.7422 118.47L71.1475 118.675L71.2773 118.003L70.6816 118.209L70.8115 117.538L70.2178 117.743L70.3467 117.073L69.752 117.279L69.8818 116.605L69.2871 116.812L69.416 116.143L68.8232 116.348L68.9531 115.676L68.3574 115.882L68.4873 115.212L67.8926 115.417L68.0225 114.746L67.4277 114.951L67.5576 114.28L66.9629 114.485L67.0928 113.814L66.498 114.02L66.6279 113.35L66.0332 113.555L66.1631 112.883L65.5684 113.088L65.6973 112.418L65.1025 112.624L65.2324 111.953L64.6377 112.158L64.7676 111.488L64.1729 111.693L64.3027 111.021L63.709 111.227L63.8389 110.556L63.2432 110.762L63.373 110.091L62.7783 110.296L62.9082 109.626L62.3135 109.831L62.4434 109.158L61.8486 109.364L61.9775 108.695L61.3838 108.9L61.5137 108.229L60.9189 108.435L61.0488 107.764L60.4541 107.969L60.584 107.297L59.9883 107.503L60.1182 106.833L59.5234 107.038L59.6533 106.368L59.0596 106.573L59.1895 105.9L58.5938 106.106L58.7236 105.437L58.1289 105.642L58.2588 104.972L57.6641 105.177L57.7939 104.506L57.1992 104.711L57.3291 104.04L56.7344 104.245L56.8643 103.574L56.2695 103.779L56.3994 103.108L55.8047 103.313L55.9336 102.645L55.3398 102.85L55.4697 102.179L54.875 102.384L55.0049 101.713L54.4102 101.918L54.54 101.247L53.9443 101.453L54.0742 100.781L53.4795 100.986L56.5625 85.1055C51.7304 78.4832 49.1836 70.6934 49.1836 62.4941C49.1836 41.2682 66.4516 24.0002 87.6768 24Z" fill="url(#paint1_linear_17425_41248)"/>
</g>
</g>
<path d="M87.6771 100.987C80.9393 100.987 74.3307 99.2044 68.4775 95.8201L53.4798 100.987L56.5626 85.1057C51.7303 78.4834 49.1831 70.6934 49.1831 62.494C49.1831 41.268 66.4518 24 87.6771 24C108.905 24 126.172 41.268 126.172 62.494C126.172 83.7186 108.905 100.987 87.6771 100.987Z" fill="url(#paint2_linear_17425_41248)"/>
<path d="M87.6774 87.641C83.2762 87.641 78.9586 86.4758 75.1352 84.2645L65.3374 87.641L67.35 77.265C64.1941 72.9384 62.5298 67.8502 62.5298 62.4923C62.5298 48.6259 73.8109 37.3447 87.6774 37.3447C101.545 37.3447 112.826 48.6259 112.826 62.4923C112.826 76.3595 101.545 87.641 87.6774 87.641ZM75.5866 80.1519L76.3444 80.6263C79.7593 82.7675 83.6788 83.899 87.6771 83.899C99.4821 83.899 109.085 74.2963 109.085 62.4923C109.085 50.6894 99.4821 41.0867 87.6771 41.0867C75.8741 41.0867 66.2714 50.6894 66.2714 62.4923C66.2714 67.2947 67.8447 71.8453 70.8182 75.6508L71.3441 76.3231L70.2435 81.9925L75.5866 80.1519Z" fill="white"/>
<path d="M74.9815 52.8309C74.9815 52.8309 76.4579 50.2517 77.6602 50.1044C78.8632 49.9563 80.4121 49.9563 80.8292 50.7426C81.2472 51.5282 83.1132 56.0984 83.1132 56.0984C83.1132 56.0984 83.4337 56.8844 82.9425 57.6463C82.4513 58.4076 81.3458 59.5127 81.3458 59.5127C81.3458 59.5127 80.7316 60.2986 81.3458 61.1344C81.96 61.9688 82.9126 63.5047 84.8837 65.4734C86.8514 67.4435 90.6308 68.8481 90.6308 68.8481C90.6308 68.8481 91.1718 68.9213 91.5164 68.5778C91.8592 68.2339 93.7273 65.9 93.7273 65.9C93.7273 65.9 94.3264 65.1268 95.3229 65.5809C96.3174 66.035 100.629 68.1848 100.629 68.1848C100.629 68.1848 101.133 68.3686 101.133 69.1301C101.133 69.8914 100.825 71.755 100.195 72.3846C99.5643 73.0153 97.7227 74.9573 94.954 74.9573C92.1859 74.9573 85.5938 72.7044 82.081 69.1923C78.5681 65.6788 75.449 62.1162 74.7128 58.8747C73.9753 55.6319 74.0742 54.1665 74.9815 52.8309Z" fill="white"/>
<path d="M138.622 93.6838C138.171 90.814 139.414 87.943 141.834 86.3356C145.337 84.0088 148.912 81.572 148.912 81.572C151.328 79.9098 153.608 78.0252 155.713 75.9789C160.652 71.1766 164.585 65.1247 167.128 58.7919C168.095 56.3839 171.155 55.8945 172.273 58.5136C175.131 65.2127 174.313 73.2547 171.061 79.7918C171.59 79.2892 172.108 78.7779 172.609 78.2556C174.313 76.4818 177.176 77.1363 177.23 79.8346C177.357 86.2176 174.312 92.4933 169.76 97.0345C170.51 96.7153 171.25 96.3785 171.975 96.0208C173.954 95.0441 176.171 96.4704 175.392 98.7639C173.738 103.638 169.95 107.658 165.408 110.195C165.784 110.164 166.159 110.129 166.532 110.085C168.284 109.88 169.57 111.548 168.369 113.066C165.621 116.539 161.277 118.602 156.842 119.129C157.548 119.443 158.264 119.728 158.984 119.981C160.367 120.467 160.719 122.18 159.27 122.876C154.573 125.13 148.514 124.111 144.421 121.097C143.683 120.554 142.686 120.524 141.907 121.006C141.114 121.495 140.225 121.809 139.301 121.925C136.294 122.303 133.55 120.171 133.172 117.164C132.99 115.717 133.38 114.247 134.289 113.107C139.514 106.555 139.39 98.5826 138.622 93.6838Z" fill="url(#paint3_linear_17425_41248)"/>
<path d="M138.622 93.6838C138.171 90.814 139.414 87.943 141.834 86.3356C145.337 84.0088 148.912 81.572 148.912 81.572C151.328 79.9098 153.608 78.0252 155.713 75.9789C160.652 71.1766 164.585 65.1247 167.128 58.7919C168.095 56.3839 171.155 55.8945 172.273 58.5136C175.131 65.2127 174.313 73.2547 171.061 79.7918C171.59 79.2892 172.108 78.7779 172.609 78.2556C174.313 76.4818 177.176 77.1363 177.23 79.8346C177.357 86.2176 174.312 92.4933 169.76 97.0345C170.51 96.7153 171.25 96.3785 171.975 96.0208C173.954 95.0441 176.171 96.4704 175.392 98.7639C173.738 103.638 169.95 107.658 165.408 110.195C165.784 110.164 166.159 110.129 166.532 110.085C168.284 109.88 169.57 111.548 168.369 113.066C165.621 116.539 161.277 118.602 156.842 119.129C157.548 119.443 158.264 119.728 158.984 119.981C160.367 120.467 160.719 122.18 159.27 122.876C154.573 125.13 148.514 124.111 144.421 121.097C143.683 120.554 142.686 120.524 141.907 121.006C141.114 121.495 140.225 121.809 139.301 121.925C136.294 122.303 133.55 120.171 133.172 117.164C132.99 115.717 133.38 114.247 134.289 113.107C139.514 106.555 139.39 98.5826 138.622 93.6838Z" fill="url(#paint4_linear_17425_41248)"/>
<path d="M139.742 102.331C140.269 101.552 141.01 101.012 141.86 100.648C143.608 99.8976 145.807 99.897 147.507 100.117C149.98 100.434 152.494 100.535 154.99 100.431C160.026 100.226 165.116 99.0109 169.755 97.039C170.508 96.7205 171.25 96.3797 171.976 96.0221C173.954 95.0449 176.171 96.4713 175.393 98.7641C173.739 103.638 169.951 107.66 165.408 110.195C161.136 110.555 156.673 110.128 152.563 108.852C150.657 108.259 148.792 107.51 147.014 106.607C145.198 105.684 142.426 104.832 140.574 106.192C140.251 106.431 139.994 106.701 139.805 106.994C138.952 105.535 138.7 103.869 139.742 102.331Z" fill="url(#paint5_linear_17425_41248)"/>
<path d="M148.912 81.5743C151.328 79.9126 153.609 78.0274 155.712 75.9806C160.652 71.1772 164.584 65.1257 167.129 58.7934C168.095 56.385 171.156 55.8967 172.272 58.515C175.132 65.2128 174.315 73.2567 171.065 79.7932C166.871 83.7814 161.851 87.1236 156.483 89.3188C153.908 90.371 151.237 91.2183 148.524 91.8232C147.64 92.0191 146.656 92.3101 145.703 92.7175C144.732 92.0073 144.036 90.9912 143.847 89.6048C143.393 86.2548 146.445 83.2707 148.912 81.5743Z" fill="url(#paint6_linear_17425_41248)"/>
<path d="M141.225 97.0867C142.011 93.9793 145.753 92.4387 148.524 91.8219C151.237 91.2169 153.908 90.3697 156.483 89.3175C162.527 86.8463 168.129 82.9217 172.61 78.2562C174.313 76.4813 177.177 77.1354 177.231 79.8352C177.357 86.221 174.312 92.5006 169.756 97.0388C165.116 99.0106 160.027 100.225 154.991 100.431C152.495 100.535 149.981 100.434 147.508 100.117C145.808 99.8968 143.608 99.8972 141.861 100.647C141.181 99.6435 140.88 98.4481 141.225 97.0867Z" fill="url(#paint7_linear_17425_41248)"/>
<path d="M140.575 106.193C142.427 104.833 145.198 105.685 147.014 106.607C148.792 107.511 150.657 108.26 152.564 108.853C157.034 110.241 161.925 110.624 166.533 110.085C168.286 109.881 169.57 111.55 168.37 113.068C165.623 116.54 161.282 118.604 156.847 119.13C153.988 117.865 151.279 116.114 149.005 113.973C147.799 112.837 146.679 111.598 145.681 110.276C144.663 108.928 142.904 107.282 141.028 107.621C140.225 107.767 139.66 108.206 139.284 108.798C139.291 107.799 139.655 106.867 140.575 106.193Z" fill="url(#paint8_linear_17425_41248)"/>
<path d="M141.026 107.622C142.904 107.281 144.662 108.928 145.682 110.278C146.679 111.599 147.799 112.838 149.006 113.974C151.838 116.64 155.349 118.707 158.984 119.983C160.367 120.469 160.719 122.182 159.27 122.878C154.114 125.352 147.317 123.882 143.281 120.159C141.295 118.327 139.879 116.02 138.979 113.382C138.322 111.455 138.496 108.081 141.026 107.622Z" fill="url(#paint9_linear_17425_41248)"/>
<path d="M38.6136 92.6838C39.0639 89.814 37.821 86.943 35.4013 85.3356C31.8988 83.0088 28.3232 80.572 28.3232 80.572C25.907 78.9098 23.627 77.0252 21.5226 74.9789C16.5836 70.1766 12.6506 64.1247 10.1072 57.7919C9.14008 55.3839 6.08031 54.8945 4.96278 57.5136C2.10463 64.2127 2.92207 72.2547 6.17393 78.7918C5.64535 78.2892 5.12762 77.7779 4.62607 77.2556C2.92241 75.4818 0.059262 76.1363 0.00557725 78.8346C-0.121696 85.2176 2.92358 91.4933 7.47574 96.0345C6.72501 95.7153 5.98507 95.3785 5.26018 95.0208C3.28096 94.0441 1.06472 95.4704 1.84296 97.7639C3.4971 102.638 7.285 106.658 11.8278 109.195C11.4514 109.164 11.0762 109.129 10.7032 109.085C8.95129 108.88 7.66512 110.548 8.86624 112.066C11.6139 115.539 15.9583 117.602 20.3937 118.129C19.6871 118.443 18.9718 118.728 18.251 118.981C16.8688 119.467 16.5163 121.18 17.9657 121.876C22.662 124.13 28.7212 123.111 32.8142 120.097C33.5521 119.554 34.5492 119.524 35.3287 120.006C36.1214 120.495 37.0103 120.809 37.9348 120.925C40.9418 121.303 43.6858 119.171 44.0636 116.164C44.2454 114.717 43.8556 113.247 42.9461 112.107C37.7216 105.555 37.845 97.5826 38.6136 92.6838Z" fill="url(#paint10_linear_17425_41248)"/>
<path d="M38.6136 92.6838C39.0639 89.814 37.821 86.943 35.4013 85.3356C31.8988 83.0088 28.3232 80.572 28.3232 80.572C25.907 78.9098 23.627 77.0252 21.5226 74.9789C16.5836 70.1766 12.6506 64.1247 10.1072 57.7919C9.14008 55.3839 6.08031 54.8945 4.96278 57.5136C2.10463 64.2127 2.92207 72.2547 6.17393 78.7918C5.64535 78.2892 5.12762 77.7779 4.62607 77.2556C2.92241 75.4818 0.059262 76.1363 0.00557725 78.8346C-0.121696 85.2176 2.92358 91.4933 7.47574 96.0345C6.72501 95.7153 5.98507 95.3785 5.26018 95.0208C3.28096 94.0441 1.06472 95.4704 1.84296 97.7639C3.4971 102.638 7.285 106.658 11.8278 109.195C11.4514 109.164 11.0762 109.129 10.7032 109.085C8.95129 108.88 7.66512 110.548 8.86624 112.066C11.6139 115.539 15.9583 117.602 20.3937 118.129C19.6871 118.443 18.9718 118.728 18.251 118.981C16.8688 119.467 16.5163 121.18 17.9657 121.876C22.662 124.13 28.7212 123.111 32.8142 120.097C33.5521 119.554 34.5492 119.524 35.3287 120.006C36.1214 120.495 37.0103 120.809 37.9348 120.925C40.9418 121.303 43.6858 119.171 44.0636 116.164C44.2454 114.717 43.8556 113.247 42.9461 112.107C37.7216 105.555 37.845 97.5826 38.6136 92.6838Z" fill="url(#paint11_linear_17425_41248)"/>
<path d="M37.493 101.331C36.9661 100.552 36.2253 100.012 35.375 99.6476C33.6277 98.8976 31.428 98.897 29.7285 99.1173C27.2555 99.4338 24.7411 99.5352 22.2453 99.4315C17.2089 99.2256 12.1198 98.0109 7.47986 96.039C6.72761 95.7205 5.98524 95.3797 5.25912 95.0221C3.28105 94.0449 1.06462 95.4713 1.84232 97.7641C3.4959 102.638 7.28421 106.66 11.8275 109.195C16.0996 109.555 20.5625 109.128 24.672 107.852C26.5786 107.259 28.4434 106.51 30.2216 105.607C32.0375 104.684 34.8089 103.832 36.6611 105.192C36.9847 105.431 37.2409 105.701 37.4305 105.994C38.2835 104.535 38.5351 102.869 37.493 101.331Z" fill="url(#paint12_linear_17425_41248)"/>
<path d="M28.3231 80.5733C25.9076 78.9116 23.6263 77.0264 21.5232 74.9797C16.5834 70.1763 12.6516 64.1247 10.1059 57.7924C9.13996 55.384 6.07959 54.8958 4.96313 57.514C2.10328 64.2118 2.92008 72.2557 6.17079 78.7922C10.3641 82.7804 15.384 86.1226 20.7527 88.3178C23.3273 89.37 25.9984 90.2173 28.7118 90.8222C29.595 91.0181 30.5794 91.3091 31.5326 91.7166C32.5038 91.0063 33.1996 89.9902 33.3879 88.6038C33.842 85.2538 30.7908 82.2697 28.3231 80.5733Z" fill="url(#paint13_linear_17425_41248)"/>
<path d="M36.0103 96.0867C35.224 92.9793 31.4825 91.4387 28.7116 90.8219C25.9982 90.2169 23.3271 89.3697 20.7525 88.3175C14.7085 85.8463 9.10652 81.9217 4.62567 77.2562C2.92222 75.4813 0.0579652 76.1354 0.00395067 78.8352C-0.121757 85.221 2.92326 91.5006 7.47916 96.0388C12.1194 98.0106 17.2082 99.2254 22.2446 99.4313C24.7402 99.535 27.2548 99.4336 29.7278 99.1171C31.4273 98.8968 33.6271 98.8972 35.3743 99.6474C36.0546 98.6435 36.3557 97.4481 36.0103 96.0867Z" fill="url(#paint14_linear_17425_41248)"/>
<path d="M36.6607 105.193C34.8084 103.833 32.037 104.685 30.2211 105.607C28.4429 106.511 26.5781 107.26 24.6715 107.853C20.2011 109.241 15.3101 109.624 10.7021 109.085C8.94977 108.881 7.6651 110.55 8.86551 112.068C11.6124 115.54 15.9534 117.604 20.3883 118.13C23.2471 116.865 25.9568 115.114 28.2301 112.973C29.4362 111.837 30.5561 110.598 31.5545 109.276C32.5728 107.928 34.331 106.282 36.2078 106.621C37.01 106.767 37.575 107.206 37.9509 107.798C37.9443 106.799 37.5804 105.867 36.6607 105.193Z" fill="url(#paint15_linear_17425_41248)"/>
<path d="M36.2085 106.622C34.331 106.281 32.5724 107.928 31.5532 109.278C30.5554 110.599 29.4355 111.838 28.229 112.974C25.3972 115.64 21.8856 117.707 18.2505 118.983C16.8683 119.469 16.5158 121.182 17.9652 121.878C23.1204 124.352 29.918 122.882 33.9542 119.159C35.94 117.327 37.3559 115.02 38.2559 112.382C38.9132 110.455 38.7387 107.081 36.2085 106.622Z" fill="url(#paint16_linear_17425_41248)"/>
<path d="M144.991 149.186C143.628 152.132 140.004 153.394 136.889 152.161C105.659 139.777 70.8672 139.777 39.638 152.161C36.5184 153.394 32.8968 152.135 31.5362 149.186C28.3734 142.174 25.207 135.169 22.0442 128.16C20.6836 125.214 22.7843 121.323 26.7859 119.74C66.2686 104.087 110.259 104.087 149.741 119.74C153.74 121.323 155.846 125.214 154.485 128.16C151.318 135.169 148.155 142.175 144.991 149.186Z" fill="#E6F7E8"/>
<path d="M89.7727 122.321C90.3576 121.76 90.9075 121.222 91.4706 120.696C92.586 119.655 93.8095 118.769 95.311 118.327C98.635 117.35 102.141 118.613 103.981 121.433C105.818 124.246 105.526 127.903 103.267 130.408C100.639 133.32 96.5568 133.832 93.2402 131.669C92.2875 131.048 91.4731 130.276 90.6673 129.491C90.3687 129.2 90.1302 128.84 89.7313 128.659C89.3815 128.735 89.2162 129.024 88.9933 129.24C88.1862 130.022 87.3963 130.82 86.4776 131.485C83.9554 133.308 80.5191 133.506 77.9382 131.969C75.1744 130.324 73.778 127.368 74.2861 124.238C74.7737 121.234 77.0284 118.871 80.1489 118.208C82.7066 117.665 85.0256 118.244 87.0355 119.88C87.6888 120.412 88.2685 121.029 88.8871 121.602C89.1419 121.838 89.3311 122.148 89.7727 122.321ZM92.5849 125.536C93.4552 126.407 94.1823 127.259 95.0763 127.953C95.584 128.347 96.1323 128.651 96.7685 128.798C98.5888 129.217 100.533 128.035 101.028 126.205C101.476 124.548 100.341 122.754 98.528 122.325C97.1939 122.01 95.9773 122.335 94.935 123.18C94.0891 123.866 93.3388 124.653 92.5849 125.536ZM86.7764 125.472C86.0289 124.666 85.3085 123.905 84.5073 123.221C84.0478 122.829 83.5261 122.538 82.9439 122.354C81.2219 121.81 79.4679 122.495 78.6855 124.013C77.9222 125.494 78.3624 127.274 79.7813 128.258C81.0126 129.112 82.3133 129.07 83.5954 128.368C84.8873 127.66 85.7908 126.543 86.7764 125.472Z" fill="url(#paint17_linear_17425_41248)"/>
<defs>
<filter id="filter0_d_17425_41248" x="15.1831" y="0" width="146.287" height="161.892" filterUnits="userSpaceOnUse" color-interpolation-filters="sRGB">
<feFlood flood-opacity="0" result="BackgroundImageFix"/>
<feColorMatrix in="SourceAlpha" type="matrix" values="0 0 0 0 0 0 0 0 0 0 0 0 0 0 0 0 0 0 127 0" result="hardAlpha"/>
<feOffset dy="7"/>
<feComposite in2="hardAlpha" operator="out"/>
<feColorMatrix type="matrix" values="0 0 0 0 0.122874 0 0 0 0 0.501728 0 0 0 0 0.179702 0 0 0 1 0"/>
<feBlend mode="normal" in2="BackgroundImageFix" result="effect1_dropShadow_17425_41248"/>
<feBlend mode="normal" in="SourceGraphic" in2="effect1_dropShadow_17425_41248" result="shape"/>
</filter>
<linearGradient id="paint0_linear_17425_41248" x1="88.3257" y1="186.133" x2="83.6831" y2="-11.5" gradientUnits="userSpaceOnUse">
<stop stop-color="#32BA46"/>
<stop offset="1" stop-color="white"/>
</linearGradient>
<linearGradient id="paint1_linear_17425_41248" x1="141.183" y1="104" x2="89.1831" y2="74" gradientUnits="userSpaceOnUse">
<stop stop-color="white"/>
<stop offset="1" stop-color="#08C925"/>
</linearGradient>
<linearGradient id="paint2_linear_17425_41248" x1="105.683" y1="47" x2="26.1831" y2="143" gradientUnits="userSpaceOnUse">
<stop stop-color="#67DD78"/>
<stop offset="1" stop-color="#7BDE8A"/>
</linearGradient>
<linearGradient id="paint3_linear_17425_41248" x1="167.931" y1="82.9372" x2="135.25" y2="125.04" gradientUnits="userSpaceOnUse">
<stop stop-color="#F9F7F8"/>
<stop offset="1" stop-color="#E5E1E5"/>
</linearGradient>
<linearGradient id="paint4_linear_17425_41248" x1="146.025" y1="102.305" x2="135.92" y2="109.254" gradientUnits="userSpaceOnUse">
<stop stop-color="#B6E8BD" stop-opacity="0"/>
<stop offset="0.3465" stop-color="#B6E8BD" stop-opacity="0.347"/>
<stop offset="0.7135" stop-color="#B6E8BD" stop-opacity="0.714"/>
<stop offset="1" stop-color="#B6E8BD"/>
</linearGradient>
<linearGradient id="paint5_linear_17425_41248" x1="157.955" y1="105.312" x2="159.069" y2="114.15" gradientUnits="userSpaceOnUse">
<stop stop-color="#7BDE8A" stop-opacity="0"/>
<stop offset="0.3465" stop-color="#7BDE8A" stop-opacity="0.347"/>
<stop offset="0.7135" stop-color="#7BDE8A" stop-opacity="0.714"/>
<stop offset="1" stop-color="#7BDE8A"/>
</linearGradient>
<linearGradient id="paint6_linear_17425_41248" x1="161.094" y1="77.9993" x2="169.197" y2="88.008" gradientUnits="userSpaceOnUse">
<stop stop-color="#7BDE8A" stop-opacity="0"/>
<stop offset="0.3465" stop-color="#7BDE8A" stop-opacity="0.347"/>
<stop offset="0.7135" stop-color="#7BDE8A" stop-opacity="0.714"/>
<stop offset="1" stop-color="#7BDE8A"/>
</linearGradient>
<linearGradient id="paint7_linear_17425_41248" x1="161.688" y1="93.0289" x2="167.845" y2="103.047" gradientUnits="userSpaceOnUse">
<stop stop-color="#7BDE8A" stop-opacity="0"/>
<stop offset="0.3465" stop-color="#7BDE8A" stop-opacity="0.347"/>
<stop offset="0.7135" stop-color="#7BDE8A" stop-opacity="0.714"/>
<stop offset="1" stop-color="#7BDE8A"/>
</linearGradient>
<linearGradient id="paint8_linear_17425_41248" x1="154.68" y1="114.101" x2="155.536" y2="120.895" gradientUnits="userSpaceOnUse">
<stop stop-color="#7BDE8A" stop-opacity="0"/>
<stop offset="0.3465" stop-color="#7BDE8A" stop-opacity="0.347"/>
<stop offset="0.7135" stop-color="#7BDE8A" stop-opacity="0.714"/>
<stop offset="1" stop-color="#7BDE8A"/>
</linearGradient>
<linearGradient id="paint9_linear_17425_41248" x1="149.121" y1="117.363" x2="146.755" y2="124.798" gradientUnits="userSpaceOnUse">
<stop stop-color="#7BDE8A" stop-opacity="0"/>
<stop offset="0.3465" stop-color="#7BDE8A" stop-opacity="0.347"/>
<stop offset="0.7135" stop-color="#7BDE8A" stop-opacity="0.714"/>
<stop offset="1" stop-color="#7BDE8A"/>
</linearGradient>
<linearGradient id="paint10_linear_17425_41248" x1="9.30475" y1="81.9372" x2="41.9855" y2="124.04" gradientUnits="userSpaceOnUse">
<stop stop-color="#F9F7F8"/>
<stop offset="1" stop-color="#E5E1E5"/>
</linearGradient>
<linearGradient id="paint11_linear_17425_41248" x1="31.21" y1="101.305" x2="41.3154" y2="108.254" gradientUnits="userSpaceOnUse">
<stop stop-color="#B6E8BD" stop-opacity="0"/>
<stop offset="0.3465" stop-color="#B6E8BD" stop-opacity="0.347"/>
<stop offset="0.7135" stop-color="#B6E8BD" stop-opacity="0.714"/>
<stop offset="1" stop-color="#B6E8BD"/>
</linearGradient>
<linearGradient id="paint12_linear_17425_41248" x1="19.28" y1="104.312" x2="18.1666" y2="113.15" gradientUnits="userSpaceOnUse">
<stop stop-color="#7BDE8A" stop-opacity="0"/>
<stop offset="0.3465" stop-color="#7BDE8A" stop-opacity="0.347"/>
<stop offset="0.7135" stop-color="#7BDE8A" stop-opacity="0.714"/>
<stop offset="1" stop-color="#7BDE8A"/>
</linearGradient>
<linearGradient id="paint13_linear_17425_41248" x1="16.1411" y1="76.9983" x2="8.03808" y2="87.007" gradientUnits="userSpaceOnUse">
<stop stop-color="#7BDE8A" stop-opacity="0"/>
<stop offset="0.3465" stop-color="#7BDE8A" stop-opacity="0.347"/>
<stop offset="0.7135" stop-color="#7BDE8A" stop-opacity="0.714"/>
<stop offset="1" stop-color="#7BDE8A"/>
</linearGradient>
<linearGradient id="paint14_linear_17425_41248" x1="15.5476" y1="92.0289" x2="9.38993" y2="102.047" gradientUnits="userSpaceOnUse">
<stop stop-color="#7BDE8A" stop-opacity="0"/>
<stop offset="0.3465" stop-color="#7BDE8A" stop-opacity="0.347"/>
<stop offset="0.7135" stop-color="#7BDE8A" stop-opacity="0.714"/>
<stop offset="1" stop-color="#7BDE8A"/>
</linearGradient>
<linearGradient id="paint15_linear_17425_41248" x1="22.5551" y1="113.101" x2="21.6992" y2="119.895" gradientUnits="userSpaceOnUse">
<stop stop-color="#7BDE8A" stop-opacity="0"/>
<stop offset="0.3465" stop-color="#7BDE8A" stop-opacity="0.347"/>
<stop offset="0.7135" stop-color="#7BDE8A" stop-opacity="0.714"/>
<stop offset="1" stop-color="#7BDE8A"/>
</linearGradient>
<linearGradient id="paint16_linear_17425_41248" x1="28.1138" y1="116.363" x2="30.4799" y2="123.798" gradientUnits="userSpaceOnUse">
<stop stop-color="#7BDE8A" stop-opacity="0"/>
<stop offset="0.3465" stop-color="#7BDE8A" stop-opacity="0.347"/>
<stop offset="0.7135" stop-color="#7BDE8A" stop-opacity="0.714"/>
<stop offset="1" stop-color="#7BDE8A"/>
</linearGradient>
<linearGradient id="paint17_linear_17425_41248" x1="95.0767" y1="120.113" x2="88.932" y2="155.811" gradientUnits="userSpaceOnUse">
<stop stop-color="#67DD78"/>
<stop offset="1" stop-color="#225B2A"/>
</linearGradient>
</defs>
</svg>
