<svg width="100" height="100" viewBox="0 0 100 100" fill="none" xmlns="http://www.w3.org/2000/svg">
<g clip-path="url(#clip0_17360_40133)">
<path d="M41.8613 91.4923C64.871 91.4923 83.5241 72.9139 83.5241 49.9962C83.5241 27.0785 64.871 8.5 41.8613 8.5C18.8516 8.5 0.198486 27.0785 0.198486 49.9962C0.198486 72.9139 18.8516 91.4923 41.8613 91.4923Z" fill="#FBF9FF"/>
<path d="M75.9056 86.1299C80.2369 86.1299 83.7481 82.6328 83.7481 78.3189C83.7481 74.0049 80.2369 70.5078 75.9056 70.5078C71.5744 70.5078 68.0632 74.0049 68.0632 78.3189C68.0632 82.6328 71.5744 86.1299 75.9056 86.1299Z" fill="white"/>
<path fill-rule="evenodd" clip-rule="evenodd" d="M76.3961 89.1408C82.938 89.1408 88.2414 83.8587 88.2414 77.3429C88.2414 70.827 82.938 65.5449 76.3961 65.5449C69.854 65.5449 64.5508 70.827 64.5508 77.3429C64.5508 83.8587 69.854 89.1408 76.3961 89.1408ZM77.2844 73.8035C77.2844 73.3149 76.8867 72.9186 76.3961 72.9186C75.9054 72.9186 75.5077 73.3149 75.5077 73.8035V76.4581H72.8425C72.3518 76.4581 71.954 76.8542 71.954 77.3429C71.954 77.8315 72.3518 78.2277 72.8425 78.2277H75.5077V80.8823C75.5077 81.3709 75.9054 81.7671 76.3961 81.7671C76.8867 81.7671 77.2844 81.3709 77.2844 80.8823V78.2277H79.9496C80.4403 78.2277 80.8381 77.8315 80.8381 77.3429C80.8381 76.8542 80.4403 76.4581 79.9496 76.4581H77.2844V73.8035Z" fill="#AE72FF"/>
<g filter="url(#filter0_d_17360_40133)">
<path d="M19.1377 59.2719H86.11C90.22 59.2719 93.5515 56.1683 93.5515 52.3396V31.5426C93.5515 27.7139 90.22 24.6104 86.11 24.6104H19.1377C15.0279 24.6104 11.6963 27.7139 11.6963 31.5426V52.3396C11.6963 56.1683 15.0279 59.2719 19.1377 59.2719Z" fill="white"/>
<path d="M18.6477 59.2285V70.5249L29.9887 59.2285H18.6477Z" fill="white"/>
</g>
<path d="M82.5322 40.708H23.3394C22.6675 40.708 22.1228 41.2505 22.1228 41.9197C22.1228 42.5889 22.6675 43.1314 23.3394 43.1314H82.5322C83.204 43.1314 83.7487 42.5889 83.7487 41.9197C83.7487 41.2505 83.204 40.708 82.5322 40.708Z" fill="#F1EAFF"/>
<path d="M82.5322 33.0918H23.3394C22.6675 33.0918 22.1228 33.6343 22.1228 34.3035C22.1228 34.9727 22.6675 35.5151 23.3394 35.5151H82.5322C83.204 35.5151 83.7487 34.9727 83.7487 34.3035C83.7487 33.6343 83.204 33.0918 82.5322 33.0918Z" fill="#F1EAFF"/>
<path d="M50.0868 48.3232H23.3394C22.6675 48.3232 22.1228 48.8657 22.1228 49.5349C22.1228 50.2041 22.6675 50.7465 23.3394 50.7465H50.0868C50.7586 50.7465 51.3033 50.2041 51.3033 49.5349C51.3033 48.8657 50.7586 48.3232 50.0868 48.3232Z" fill="#F1EAFF"/>
<path d="M73.1343 48.3232H60.2234C59.5515 48.3232 59.0068 48.8657 59.0068 49.5349C59.0068 50.2041 59.5515 50.7465 60.2234 50.7465H73.1343C73.8061 50.7465 74.3508 50.2041 74.3508 49.5349C74.3508 48.8657 73.8061 48.3232 73.1343 48.3232Z" fill="#F1EAFF"/>
</g>
<defs>
<filter id="filter0_d_17360_40133" x="6.14385" y="19.999" width="92.9601" height="57.0199" filterUnits="userSpaceOnUse" color-interpolation-filters="sRGB">
<feFlood flood-opacity="0" result="BackgroundImageFix"/>
<feColorMatrix in="SourceAlpha" type="matrix" values="0 0 0 0 0 0 0 0 0 0 0 0 0 0 0 0 0 0 127 0" result="hardAlpha"/>
<feOffset dy="0.94109"/>
<feGaussianBlur stdDeviation="2.77622"/>
<feComposite in2="hardAlpha" operator="out"/>
<feColorMatrix type="matrix" values="0 0 0 0 0.823529 0 0 0 0 0.721569 0 0 0 0 1 0 0 0 0.3 0"/>
<feBlend mode="normal" in2="BackgroundImageFix" result="effect1_dropShadow_17360_40133"/>
<feBlend mode="normal" in="SourceGraphic" in2="effect1_dropShadow_17360_40133" result="shape"/>
</filter>
<clipPath id="clip0_17360_40133">
<rect width="100" height="83" fill="white" transform="translate(0 8.5)"/>
</clipPath>
</defs>
</svg>
