<svg width="159" height="165" viewBox="0 0 159 165" fill="none" xmlns="http://www.w3.org/2000/svg">
<path d="M133.235 123.043C132.049 122.55 130.674 123.118 130.179 124.304L120.5 149C120 149.5 112.5 153.5 113 153.5L142.259 164.575C145.254 165.826 147.292 164.223 146.789 161.019L146.117 156.737L145.442 152.464C145.442 152.464 145.442 152.463 145.442 152.46L144.527 146.631L149.306 143.176C149.306 143.176 149.307 143.172 149.311 143.172L152.817 140.639L156.333 138.101C158.959 136.201 158.658 133.626 155.66 132.38L133.235 123.043Z" fill="#C3F0C8"/>
<path d="M24.8862 123.043C26.0716 122.55 27.447 123.118 27.9416 124.304L37.6212 149C38.1211 149.5 45.6211 153.5 45.1211 153.5L15.8617 164.575C12.8667 165.826 10.8289 164.223 11.3322 161.019L12.0045 156.737L12.6792 152.464C12.6792 152.464 12.6792 152.463 12.6792 152.46L13.5945 146.631L8.81461 143.176C8.81461 143.176 8.81458 143.172 8.80964 143.172L5.30399 140.639L1.78843 138.101C-0.837749 136.201 -0.536755 133.626 2.46072 132.38L24.8862 123.043Z" fill="#C3F0C8"/>
<g filter="url(#filter0_d_17425_41100)">
<mask id="path-3-inside-1_17425_41100" fill="white">
<path d="M6 16.3497C6 7.32001 13.32 2.30986e-07 22.3497 5.15921e-07L135.937 4.10022e-06C144.967 4.38515e-06 152.287 7.32002 152.287 16.3497V85.1907C152.287 123.686 118.153 154.892 79.1435 154.892C40.1336 154.892 6 123.686 6 85.1907V16.3497Z"/>
</mask>
<path d="M6 16.3497C6 7.32001 13.32 2.30986e-07 22.3497 5.15921e-07L135.937 4.10022e-06C144.967 4.38515e-06 152.287 7.32002 152.287 16.3497V85.1907C152.287 123.686 118.153 154.892 79.1435 154.892C40.1336 154.892 6 123.686 6 85.1907V16.3497Z" fill="url(#paint0_linear_17425_41100)"/>
<path d="M152.287 16.3497H135.077V85.1907H152.287H169.497V16.3497H152.287ZM6 85.1907H23.2102V16.3497H6H-11.2102V85.1907H6ZM79.1435 154.892V137.682C48.631 137.682 23.2102 113.203 23.2102 85.1907H6H-11.2102C-11.2102 134.168 31.6362 172.102 79.1435 172.102V154.892ZM152.287 85.1907H135.077C135.077 113.203 109.656 137.682 79.1435 137.682V154.892V172.102C126.651 172.102 169.497 134.168 169.497 85.1907H152.287ZM22.3497 5.15921e-07V17.2102L135.937 17.2102V4.10022e-06V-17.2102L22.3497 -17.2102V5.15921e-07ZM6 16.3497H23.2102C23.2102 16.825 22.825 17.2102 22.3497 17.2102V5.15921e-07V-17.2102C3.81508 -17.2102 -11.2102 -2.18494 -11.2102 16.3497H6ZM152.287 16.3497H169.497C169.497 -2.1849 154.472 -17.2102 135.937 -17.2102V4.10022e-06V17.2102C135.462 17.2102 135.077 16.8249 135.077 16.3497H152.287Z" fill="#32BA46" fill-opacity="0.5" mask="url(#path-3-inside-1_17425_41100)"/>
</g>
<g opacity="0.5">
<mask id="mask0_17425_41100" style="mask-type:alpha" maskUnits="userSpaceOnUse" x="23" y="16" width="113" height="122">
<path d="M23.0923 16.3955H135.092V82.3955C135.092 112.771 110.468 137.396 80.0923 137.396H78.0923C47.7166 137.396 23.0923 112.771 23.0923 82.3955V16.3955Z" fill="#D9D9D9"/>
</mask>
<g mask="url(#mask0_17425_41100)">
<path d="M31.0355 29.9338L36.1253 30.9082L36.9568 35.9647C36.9648 36.0131 37.0353 36.0131 37.0432 35.9647L37.8748 30.9082L42.9646 29.9338C43.0116 29.9247 43.0119 29.8582 42.9648 29.8489L37.8748 28.8543L37.0432 24.0369C37.0351 23.989 36.9652 23.989 36.9571 24.0369L36.1255 28.8543L31.0355 29.8489C30.9882 29.8582 30.9882 29.9247 31.0355 29.9338Z" fill="#8ED999"/>
<path opacity="0.7" d="M28.0244 42.6299L31.5269 43.226L32.0992 46.3189C32.1046 46.3486 32.1532 46.3486 32.1586 46.3189L32.7309 43.226L36.2334 42.6299C36.2657 42.6243 36.266 42.5836 36.2334 42.5779L32.7306 41.9695L32.1584 39.0229C32.1527 38.9937 32.1048 38.9937 32.0989 39.0229L31.5267 41.9695L28.0239 42.5779C27.9918 42.5836 27.9921 42.6243 28.0244 42.6299Z" fill="white"/>
<path opacity="0.7" d="M117.024 28.6299L120.527 29.226L121.099 32.3189C121.105 32.3486 121.153 32.3486 121.159 32.3189L121.731 29.226L125.233 28.6299C125.266 28.6243 125.266 28.5836 125.233 28.5779L121.731 27.9695L121.158 25.0229C121.153 24.9937 121.105 24.9937 121.099 25.0229L120.527 27.9695L117.024 28.5779C116.992 28.5836 116.992 28.6243 117.024 28.6299Z" fill="white"/>
<g opacity="0.25">
<path d="M98.3724 -150.604L79.0324 76.3355L59.7124 -150.604H98.3724Z" fill="white"/>
<path d="M-17.6975 -129.864L79.0325 76.3357L-51.1675 -110.534L-17.6975 -129.864Z" fill="white"/>
<path d="M-107.837 -53.874L79.0325 76.336L-127.167 -20.404L-107.837 -53.874Z" fill="white"/>
<path d="M-147.908 57.0059L79.0323 76.3359L-147.908 95.6659V57.0059Z" fill="white"/>
<path d="M-127.167 173.066L79.0325 76.3359L-107.837 206.546L-127.167 173.066Z" fill="white"/>
<path d="M-51.1777 263.216L79.0323 76.3359L-17.7077 282.536L-51.1777 263.216Z" fill="white"/>
<path d="M59.7021 303.286L79.0322 76.3359L98.3622 303.286H59.7021Z" fill="white"/>
<path d="M175.762 282.546L79.0322 76.3359L209.242 263.216L175.762 282.546Z" fill="white"/>
<path d="M265.912 206.556L79.0322 76.3359L285.232 173.076L265.912 206.556Z" fill="white"/>
<path d="M305.982 95.6756L79.0322 76.3356L305.982 57.0156V95.6756Z" fill="white"/>
<path d="M285.242 -20.3942L79.0322 76.3358L265.912 -53.8643L285.242 -20.3942Z" fill="white"/>
<path d="M209.252 -110.534L79.0322 76.3357L175.772 -129.864L209.252 -110.534Z" fill="white"/>
</g>
<path d="M78.494 100.988C71.7562 100.988 65.1476 99.2054 59.2944 95.8211L44.2967 100.988L47.3795 85.1067C42.5472 78.4844 40 70.6944 40 62.495C40 41.269 57.2687 24.001 78.494 24.001C99.7221 24.001 116.989 41.269 116.989 62.495C116.989 83.7196 99.7221 100.988 78.494 100.988Z" fill="#32BA46"/>
<path d="M78.4943 87.642C74.0931 87.642 69.7754 86.4767 65.9521 84.2655L56.1543 87.642L58.1669 77.266C55.011 72.9394 53.3467 67.8512 53.3467 62.4933C53.3467 48.6268 64.6278 37.3457 78.4943 37.3457C92.3618 37.3457 103.643 48.6268 103.643 62.4933C103.643 76.3605 92.3618 87.642 78.4943 87.642ZM66.4035 80.1529L67.1613 80.6273C70.5762 82.7685 74.4957 83.9 78.494 83.9C90.299 83.9 99.9017 74.2973 99.9017 62.4933C99.9017 50.6904 90.299 41.0877 78.494 41.0877C66.691 41.0877 57.0883 50.6904 57.0883 62.4933C57.0883 67.2957 58.6616 71.8463 61.6351 75.6518L62.161 76.3241L61.0604 81.9935L66.4035 80.1529Z" fill="white"/>
<path d="M65.7983 52.8319C65.7983 52.8319 67.2748 50.2527 68.4771 50.1053C69.6801 49.9573 71.229 49.9573 71.6461 50.7436C72.0641 51.5292 73.9301 56.0994 73.9301 56.0994C73.9301 56.0994 74.2506 56.8854 73.7594 57.6473C73.2682 58.4085 72.1627 59.5136 72.1627 59.5136C72.1627 59.5136 71.5485 60.2996 72.1627 61.1354C72.7769 61.9698 73.7295 63.5057 75.7006 65.4744C77.6683 67.4444 81.4477 68.8491 81.4477 68.8491C81.4477 68.8491 81.9887 68.9223 82.3333 68.5787C82.6761 68.2349 84.5442 65.901 84.5442 65.901C84.5442 65.901 85.1433 65.1277 86.1398 65.5819C87.1343 66.036 91.4454 68.1858 91.4454 68.1858C91.4454 68.1858 91.9497 68.3695 91.9497 69.1311C91.9497 69.8924 91.6416 71.7559 91.0116 72.3856C90.3812 73.0163 88.5396 74.9582 85.7709 74.9582C83.0028 74.9582 76.4107 72.7054 72.8978 69.1933C69.385 65.6798 66.2659 62.1172 65.5297 58.8757C64.7922 55.6329 64.8911 54.1675 65.7983 52.8319Z" fill="white"/>
<path fill-rule="evenodd" clip-rule="evenodd" d="M78.4937 24.001C89.236 24.001 98.9624 28.4248 105.952 35.5439C106.101 35.6909 106.249 35.8389 106.396 35.9883C106.566 36.1555 106.734 36.3248 106.901 36.4951C107.039 36.6312 107.176 36.7681 107.312 36.9062C107.473 37.0645 107.633 37.2237 107.792 37.3848C107.95 37.5408 108.107 37.6987 108.263 37.8574C108.431 38.0222 108.597 38.1886 108.761 38.3564C108.911 38.504 109.059 38.6528 109.207 38.8027C109.356 38.9497 109.504 39.0977 109.651 39.2471C109.814 39.4076 109.976 39.57 110.136 39.7334C110.279 39.8736 110.42 40.0149 110.56 40.1572C110.744 40.3378 110.926 40.5208 111.106 40.7051C111.237 40.8345 111.367 40.9645 111.497 41.0957C111.664 41.2606 111.831 41.4268 111.996 41.5947C112.145 41.7419 112.293 41.8905 112.44 42.04C112.603 42.2005 112.765 42.3621 112.925 42.5254C113.082 42.6798 113.238 42.8351 113.392 42.9922C113.527 43.1254 113.661 43.2603 113.794 43.3955C113.985 43.5826 114.174 43.7719 114.361 43.9629C114.492 44.0925 114.622 44.2231 114.751 44.3545C114.926 44.5258 115.099 44.6985 115.27 44.873C115.403 45.0043 115.535 45.1364 115.667 45.2695C115.846 45.4461 116.024 45.6247 116.201 45.8047C116.348 45.9497 116.493 46.0959 116.638 46.2432C116.792 46.3949 116.946 46.5478 117.097 46.7021C117.244 46.8465 117.389 46.992 117.534 47.1387C117.711 47.3127 117.886 47.4886 118.06 47.666C118.203 47.8066 118.344 47.948 118.485 48.0908C118.641 48.2445 118.796 48.3994 118.95 48.5557C119.106 48.7095 119.261 48.8651 119.415 49.0215C119.585 49.1888 119.753 49.3579 119.92 49.5283C120.067 49.673 120.213 49.8188 120.357 49.9658C120.509 50.1153 120.66 50.266 120.809 50.418C120.965 50.5716 121.12 50.7266 121.274 50.8828C121.451 51.0569 121.626 51.2336 121.799 51.4111C121.924 51.5344 122.048 51.6583 122.171 51.7832C122.352 51.9608 122.532 52.1401 122.709 52.3213C122.847 52.4571 122.984 52.5936 123.12 52.7314C123.285 52.894 123.449 53.0581 123.612 53.2236C123.764 53.3731 123.915 53.5238 124.064 53.6758C124.234 53.8431 124.403 54.0122 124.57 54.1826C124.719 54.33 124.867 54.4791 125.014 54.6289C125.157 54.7691 125.298 54.9104 125.438 55.0527C125.601 55.213 125.763 55.3749 125.923 55.5381C126.087 55.6985 126.248 55.8602 126.409 56.0234C126.568 56.1803 126.726 56.3385 126.882 56.498C127.041 56.6539 127.197 56.8111 127.353 56.9697C127.497 57.1121 127.641 57.2558 127.783 57.4004C127.939 57.5542 128.094 57.7098 128.248 57.8662C128.408 58.0244 128.568 58.1838 128.726 58.3447C128.878 58.4942 129.029 58.6449 129.178 58.7969C129.334 58.9505 129.489 59.1055 129.643 59.2617C129.799 59.4155 129.954 59.5711 130.108 59.7275C130.278 59.8949 130.447 60.0639 130.614 60.2344C130.766 60.3842 130.916 60.5352 131.066 60.6875C131.21 60.8295 131.353 60.9729 131.495 61.1172C131.656 61.2759 131.816 61.4361 131.975 61.5977C132.141 61.7605 132.305 61.925 132.467 62.0908C132.612 62.2333 132.756 62.3767 132.898 62.5215C133.057 62.6777 133.214 62.8352 133.371 62.9941C133.524 63.1452 133.677 63.2975 133.828 63.4512C133.991 63.6118 134.153 63.7741 134.313 63.9375C134.471 64.0934 134.628 64.2506 134.784 64.4092C134.938 64.5612 135.091 64.7146 135.243 64.8691C135.399 65.0234 135.554 65.1791 135.708 65.3359C135.851 65.4758 135.991 65.6167 136.131 65.7588C136.314 65.9376 136.494 66.1184 136.672 66.3008C136.798 66.4248 136.922 66.55 137.046 66.6758C137.221 66.8474 137.395 67.0204 137.567 67.1953C137.721 67.3473 137.874 67.5007 138.026 67.6553C138.177 67.8045 138.328 67.9548 138.477 68.1064C138.631 68.2575 138.783 68.4099 138.934 68.5635C139.107 68.7332 139.277 68.9052 139.447 69.0781C139.592 69.2213 139.736 69.3653 139.879 69.5107C140.033 69.6618 140.185 69.8141 140.336 69.9678C140.5 70.1284 140.661 70.2907 140.822 70.4541C140.978 70.608 141.133 70.7634 141.287 70.9199C141.443 71.0738 141.598 71.2292 141.751 71.3857C141.901 71.5327 142.049 71.6807 142.196 71.8301C142.355 71.9861 142.511 72.144 142.667 72.3027C142.819 72.4517 142.97 72.6015 143.119 72.7529C143.291 72.9227 143.462 73.0946 143.631 73.2676C143.774 73.4082 143.916 73.5496 144.056 73.6924C144.212 73.846 144.367 74.001 144.521 74.1572C144.691 74.3244 144.859 74.4938 145.026 74.6641C145.168 74.8047 145.31 74.9461 145.451 75.0889C145.617 75.252 145.781 75.4169 145.944 75.583C146.084 75.7207 146.222 75.8593 146.36 75.999C146.528 76.1637 146.693 76.3304 146.858 76.498C147.017 76.6543 147.174 76.8117 147.331 76.9707C147.473 77.1109 147.614 77.2522 147.754 77.3945C147.939 77.5753 148.121 77.758 148.301 77.9424C148.432 78.0716 148.562 78.2019 148.691 78.333C148.859 78.4982 149.026 78.6648 149.191 78.833C149.34 78.98 149.488 79.128 149.635 79.2773C149.808 79.4476 149.98 79.6195 150.15 79.793C150.289 79.9306 150.428 80.0693 150.565 80.209C150.717 80.3584 150.868 80.5092 151.017 80.6611C151.199 80.8394 151.378 81.0194 151.556 81.2012C151.692 81.3349 151.826 81.4697 151.959 81.6055C152.118 81.7615 152.275 81.9194 152.431 82.0781C159.535 89.0655 163.947 98.7802 163.947 109.508C163.947 130.733 146.68 148.001 125.453 148.001C118.715 148.001 112.106 146.218 106.252 142.834L91.2554 148.001L91.3853 147.329L90.7896 147.535L90.9194 146.865L90.3247 147.07L90.4546 146.398L89.8608 146.604L89.9907 145.933L89.395 146.139L89.5249 145.469L88.9302 145.674L89.0601 145.003L88.4653 145.208L88.5952 144.537L88.0005 144.742L88.1304 144.072L87.5356 144.277L87.6655 143.606L87.0708 143.812L87.2007 143.141L86.606 143.346L86.7358 142.674L86.1401 142.88L86.27 142.209L85.6753 142.414L85.8042 141.745L85.2114 141.95L85.3413 141.278L84.7456 141.484L84.8755 140.813L84.2808 141.019L84.4106 140.349L83.8159 140.554L83.9458 139.883L83.3511 140.088L83.481 139.417L82.8862 139.622L83.0161 138.952L82.4214 139.157L82.5513 138.485L81.9565 138.69L82.0864 138.02L81.4907 138.226L81.6206 137.556L81.0259 137.761L81.1558 137.09L80.562 137.295L80.6919 136.624L80.0962 136.83L80.2261 136.158L79.6313 136.363L79.7612 135.693L79.1665 135.898L79.2964 135.228L78.7017 135.433L78.8315 134.763L78.2368 134.968L78.3667 134.295L77.772 134.501L77.9019 133.831L77.3071 134.036L77.437 133.365L76.8413 133.571L76.9712 132.9L76.3774 133.105L76.5073 132.434L75.9116 132.64L76.0405 131.971L75.4468 132.176L75.5767 131.502L74.9819 131.708L75.1108 131.039L74.5171 131.244L74.647 130.574L74.0532 130.779L74.1831 130.107L73.5874 130.313L73.7173 129.642L73.1226 129.847L73.2524 129.177L72.6587 129.382L72.7886 128.71L72.1929 128.916L72.3218 128.247L71.728 128.452L71.8579 127.78L71.2622 127.986L71.3921 127.315L70.7974 127.521L70.9272 126.85L70.3335 127.055L70.4634 126.383L69.8677 126.589L69.9976 125.919L69.4028 126.124L69.5327 125.452L68.939 125.657L69.0688 124.986L68.4731 125.192L68.603 124.521L68.0083 124.727L68.1382 124.057L67.5435 124.262L67.6733 123.592L67.0786 123.797L67.2085 123.125L66.6128 123.331L66.7427 122.66L66.1479 122.865L66.2778 122.194L65.6841 122.399L65.814 121.728L65.2183 121.934L65.3481 121.264L64.7534 121.469L64.8833 120.797L64.2886 121.002L64.4175 120.333L63.8237 120.538L63.9536 119.867L63.3589 120.072L63.4888 119.401L62.894 119.606L63.0239 118.937L62.4292 119.142L62.5591 118.471L61.9644 118.676L62.0942 118.004L61.4985 118.21L61.6284 117.539L61.0347 117.744L61.1636 117.074L60.5688 117.28L60.6987 116.606L60.104 116.812L60.2329 116.144L59.6401 116.349L59.77 115.677L59.1743 115.883L59.3042 115.213L58.7095 115.418L58.8394 114.747L58.2446 114.952L58.3745 114.281L57.7798 114.486L57.9097 113.815L57.3149 114.021L57.4448 113.351L56.8501 113.556L56.98 112.884L56.3853 113.089L56.5142 112.419L55.9194 112.625L56.0493 111.954L55.4546 112.159L55.5845 111.489L54.9897 111.694L55.1196 111.022L54.5259 111.228L54.6558 110.557L54.0601 110.763L54.1899 110.092L53.5952 110.297L53.7251 109.627L53.1304 109.832L53.2603 109.159L52.6655 109.365L52.7944 108.696L52.2007 108.901L52.3306 108.23L51.7358 108.436L51.8657 107.765L51.271 107.97L51.4009 107.298L50.8052 107.504L50.9351 106.834L50.3403 107.039L50.4702 106.369L49.8765 106.574L50.0063 105.901L49.4106 106.107L49.5405 105.438L48.9458 105.643L49.0757 104.973L48.481 105.178L48.6108 104.507L48.0161 104.712L48.146 104.041L47.5513 104.246L47.6812 103.575L47.0864 103.78L47.2163 103.109L46.6216 103.314L46.7505 102.646L46.1567 102.851L46.2866 102.18L45.6919 102.385L45.8218 101.714L45.2271 101.919L45.3569 101.248L44.7612 101.454L44.8911 100.782L44.2964 100.987L47.3794 85.1064C42.5473 78.4842 40.0005 70.6944 40.0005 62.4951C40.0005 41.2692 57.2685 24.0012 78.4937 24.001Z" fill="url(#paint1_linear_17425_41100)"/>
</g>
</g>
<path d="M78.494 100.987C71.7562 100.987 65.1476 99.2044 59.2944 95.8201L44.2967 100.987L47.3795 85.1057C42.5472 78.4834 40 70.6934 40 62.494C40 41.268 57.2687 24 78.494 24C99.7221 24 116.989 41.268 116.989 62.494C116.989 83.7186 99.7221 100.987 78.494 100.987Z" fill="url(#paint2_linear_17425_41100)"/>
<path d="M78.4943 87.641C74.0931 87.641 69.7754 86.4758 65.9521 84.2645L56.1543 87.641L58.1669 77.265C55.011 72.9384 53.3467 67.8502 53.3467 62.4923C53.3467 48.6259 64.6278 37.3447 78.4943 37.3447C92.3618 37.3447 103.643 48.6259 103.643 62.4923C103.643 76.3595 92.3618 87.641 78.4943 87.641ZM66.4035 80.1519L67.1613 80.6263C70.5762 82.7675 74.4957 83.899 78.494 83.899C90.299 83.899 99.9017 74.2963 99.9017 62.4923C99.9017 50.6894 90.299 41.0867 78.494 41.0867C66.691 41.0867 57.0883 50.6894 57.0883 62.4923C57.0883 67.2947 58.6616 71.8453 61.6351 75.6508L62.161 76.3231L61.0604 81.9925L66.4035 80.1519Z" fill="white"/>
<path d="M65.7983 52.8309C65.7983 52.8309 67.2748 50.2517 68.4771 50.1044C69.6801 49.9563 71.229 49.9563 71.6461 50.7426C72.0641 51.5282 73.9301 56.0984 73.9301 56.0984C73.9301 56.0984 74.2506 56.8844 73.7594 57.6463C73.2682 58.4076 72.1627 59.5127 72.1627 59.5127C72.1627 59.5127 71.5485 60.2986 72.1627 61.1344C72.7769 61.9688 73.7295 63.5047 75.7006 65.4734C77.6683 67.4435 81.4477 68.8481 81.4477 68.8481C81.4477 68.8481 81.9887 68.9213 82.3333 68.5778C82.6761 68.2339 84.5442 65.9 84.5442 65.9C84.5442 65.9 85.1433 65.1268 86.1398 65.5809C87.1343 66.035 91.4454 68.1848 91.4454 68.1848C91.4454 68.1848 91.9497 68.3686 91.9497 69.1301C91.9497 69.8914 91.6416 71.755 91.0116 72.3846C90.3812 73.0153 88.5396 74.9573 85.7709 74.9573C83.0028 74.9573 76.4107 72.7044 72.8978 69.1923C69.385 65.6788 66.2659 62.1162 65.5297 58.8747C64.7922 55.6319 64.8911 54.1665 65.7983 52.8309Z" fill="white"/>
<path d="M135.808 149.186C134.445 152.132 130.821 153.394 127.706 152.161C96.4757 139.777 61.6841 139.777 30.4549 152.161C27.3353 153.394 23.7137 152.135 22.3531 149.186C19.1903 142.174 16.0239 135.169 12.8611 128.16C11.5005 125.214 13.6012 121.323 17.6028 119.74C57.0855 104.087 101.076 104.087 140.558 119.74C144.557 121.323 146.663 125.214 145.302 128.16C142.135 135.169 138.972 142.175 135.808 149.186Z" fill="#E6F7E8"/>
<path d="M65.4939 132H61.5515V121.449L59.3033 122.243L59.2928 118.834L62.2522 117.768H65.4939V132ZM73.5668 132.366C69.1121 132.366 67.1775 128.926 67.1775 124.941C67.1775 120.79 69.3108 117.423 73.5564 117.423C78.2621 117.423 79.9561 121.041 79.9561 124.889C79.9561 128.936 77.9484 132.366 73.5668 132.366ZM73.5668 128.769C75.0726 128.769 76.0138 127.326 76.0138 124.889C76.0138 122.453 75.0622 121.02 73.5459 121.02C72.0714 121.02 71.1198 122.463 71.1198 124.9C71.1198 127.336 72.0714 128.769 73.5668 128.769ZM87.182 132.366C82.7273 132.366 80.7927 128.926 80.7927 124.941C80.7927 120.79 82.926 117.423 87.1716 117.423C91.8773 117.423 93.5713 121.041 93.5713 124.889C93.5713 128.936 91.5636 132.366 87.182 132.366ZM87.182 128.769C88.6879 128.769 89.629 127.326 89.629 124.889C89.629 122.453 88.6774 121.02 87.1611 121.02C85.6866 121.02 84.735 122.463 84.735 124.9C84.735 127.336 85.6866 128.769 87.182 128.769ZM108.065 117.778L103.15 124.126L108.651 132H104.008L100.578 126.949L99.1868 128.779V132H95.2445V117.778H99.1868V123.572L103.495 117.778H108.065Z" fill="url(#paint3_linear_17425_41100)"/>
<path d="M58.3317 29.6491C58.3342 29.118 58.7974 28.5811 59.7718 28.0619C63.9176 25.8553 75.7454 24.8122 86.189 25.7342C94.1767 26.4387 99.0413 28.0865 99.0344 29.8108L99.0431 15.8913C99.0357 15.9605 99.0244 16.0514 99.0164 16.1196C98.9542 16.1474 98.8719 16.1824 98.8097 16.2091C98.7651 16.1796 94.3897 13.178 91.7853 4.22665C87.662 16.3246 72.2369 14.0997 68.4913 5.70251C68.2452 5.15039 68.0185 4.37276 67.8172 3.80251C64.5045 13.9593 58.7369 15.5306 58.683 15.532C58.3453 15.1164 58.3453 15.1164 58.345 14.5722L58.3317 29.6491Z" fill="#6DCF7B"/>
<path d="M77.8976 11.1449C76.8569 13.7643 76.8569 13.7643 76.0621 14.8948C73.754 18.1776 61.7947 27.054 60.0217 7.85061C60.0121 7.94195 60.0003 8.03243 59.9901 8.12329C59.9993 8.01593 60.0101 7.9202 60.0217 7.85061L59.0596 8.53935L59.087 13.316L59.3692 13.3462C59.3588 13.5254 59.3472 13.7041 59.3416 13.8834L59.3394 28.9587C59.334 30.6829 63.9886 32.3344 71.6275 33.0444C73.3405 33.2044 75.0933 33.3045 76.8407 33.3515L77.7492 11.8203L77.8976 11.1449Z" fill="#55D267"/>
<path d="M97.6397 9.16328C97.5014 8.97935 97.2925 8.80582 96.9187 8.50169L96.8889 9.17501C96.7099 10.4071 96.3803 12.5535 95.5734 14.5114C92.2318 22.608 82.1685 22.2126 77.8973 11.1453L77.7489 11.8207L76.8404 33.352C85.2797 33.5832 93.6071 32.5621 96.8902 30.7358L96.8902 30.7187L96.8958 30.7331C97.8237 30.2145 98.2646 29.6792 98.2667 29.1497L98.2653 15.2306C98.0952 13.4277 98.0243 10.9203 97.6397 9.16328Z" fill="#98DCA2"/>
<path d="M97.64 9.1636L97.6081 9.83711C97.42 11.0695 97.0739 13.2164 96.2284 15.1742C92.7287 23.2733 82.2059 22.8859 77.7486 11.8206C76.6588 14.4408 76.6588 14.4408 75.8266 15.5722C73.4105 18.8566 60.8999 27.742 59.059 8.53964C58.8314 10.5523 58.4176 12.5433 58.3436 14.5731L58.3302 29.6494C58.3226 31.3722 63.1884 33.021 71.1756 33.7255C81.6196 34.6469 93.4481 33.6049 97.5933 31.3978L97.5927 31.3802L97.5984 31.3946C98.569 30.8763 99.0307 30.3401 99.0329 29.8112L99.0416 15.8916C98.8186 13.5992 98.0106 11.4266 97.64 9.1636Z" fill="#E6F7E8"/>
<path d="M96.351 15.5585C97.1965 13.6002 97.4195 11.0662 97.6076 9.83381C97.4195 11.0662 97.0734 13.2131 96.2279 15.1709C92.7282 23.27 82.2054 22.8826 77.7481 11.8173C82.2059 22.8825 92.8514 23.6582 96.351 15.5585Z" fill="#55D267"/>
<path d="M75.811 16.0195C76.6433 14.8887 76.6594 14.4393 77.7492 11.819C76.6594 14.4393 76.6594 14.4393 75.8271 15.5706C73.4111 18.855 60.9004 27.7404 59.0596 8.53809C60.9004 27.7404 73.3961 19.3043 75.811 16.0195Z" fill="#55D267"/>
<path d="M99.039 26.509C98.7965 26.7694 98.441 27.0298 97.9616 27.2867L97.9559 27.2718L97.9565 27.2894C93.716 29.5471 81.6179 30.6129 70.9347 29.6696C64.3225 29.0873 59.8152 27.8704 58.3367 26.4939L58.3353 27.5092C59.8097 28.8876 64.3316 30.1058 70.9514 30.6896C81.6345 31.6319 93.7326 30.566 97.9732 28.3088L97.9725 28.2907L97.9782 28.3057C98.447 28.055 98.796 27.8007 99.0385 27.5451L99.039 26.509Z" fill="#55D267"/>
<path d="M99.0369 26.3498C98.7945 26.6113 98.439 26.8716 97.9601 27.128L97.9545 27.1136L97.9545 27.1312C93.7145 29.3889 81.6159 30.4543 70.9333 29.5114C64.321 28.9285 59.8132 27.7122 58.3347 26.3357L58.3339 27.351C59.8083 28.7294 64.3301 29.9476 70.95 30.5314C81.6325 31.4737 93.7311 30.4073 97.9712 28.1507L97.9711 28.1325L97.9767 28.1475C98.4455 27.8968 98.794 27.6425 99.037 27.3863L99.0369 26.3498Z" fill="#AFE9B9"/>
<path fill-rule="evenodd" clip-rule="evenodd" d="M78.454 19.3301C78.2214 19.3321 78.0361 19.5271 78.0381 19.7677C78.0423 20.2556 78.1951 20.727 78.4692 21.1167C78.7367 20.7224 78.8815 20.248 78.8773 19.7606C78.8753 19.5199 78.6867 19.3281 78.454 19.3301ZM79.0337 21.7351C79.4603 21.1733 79.6929 20.4749 79.6868 19.7537C79.6807 19.0326 79.1268 18.4869 78.4469 18.4927C77.767 18.4985 77.2227 19.0717 77.2287 19.7746C77.2346 20.4776 77.4797 21.1906 77.9153 21.7446L77.0947 22.6081C76.5514 22.1665 75.8761 21.9255 75.179 21.9314C74.4819 21.9373 73.9548 22.5104 73.9607 23.2133C73.9667 23.9163 74.5211 24.4801 75.2006 24.4743C75.8801 24.4685 76.5693 24.2155 77.1046 23.7651L77.9398 24.6145C77.5132 25.1763 77.2806 25.8747 77.2867 26.5959C77.2929 27.317 77.8471 27.8627 78.5266 27.8569C79.2061 27.8511 79.7508 27.2779 79.7449 26.575C79.7389 25.872 79.4938 25.159 79.0582 24.605L79.8788 23.7415C80.4221 24.1831 81.0974 24.4241 81.7945 24.4182C82.4916 24.4123 83.0187 23.8392 83.0128 23.1363C83.0068 22.4333 82.4524 21.8695 81.7729 21.8753C81.0934 21.8811 80.4042 22.1341 79.8689 22.5845L79.0337 21.7351ZM78.4797 22.3461L77.6853 23.1821L78.4938 24.0044L79.2883 23.1684L78.4797 22.3461ZM80.4762 23.1579C80.8576 23.4348 81.3162 23.5848 81.7874 23.5808C82.02 23.5788 82.2054 23.3838 82.2033 23.1432C82.2013 22.9025 82.0127 22.7107 81.78 22.7127C81.3084 22.7167 80.8528 22.8745 80.4762 23.1579ZM78.5043 25.2329C78.2368 25.6272 78.092 26.1016 78.0962 26.589C78.0982 26.8297 78.2868 27.0215 78.5195 27.0195C78.7521 27.0175 78.9374 26.8225 78.9354 26.5819C78.9312 26.094 78.7784 25.6226 78.5043 25.2329ZM76.4973 23.1917C76.1159 22.9148 75.6573 22.7648 75.1861 22.7688C74.9535 22.7708 74.7682 22.9658 74.7702 23.2064C74.7723 23.4471 74.9609 23.6389 75.1935 23.6369C75.6651 23.6329 76.1207 23.4751 76.4973 23.1917Z" fill="#AFE9B9"/>
<defs>
<filter id="filter0_d_17425_41100" x="6" y="0" width="146.287" height="161.892" filterUnits="userSpaceOnUse" color-interpolation-filters="sRGB">
<feFlood flood-opacity="0" result="BackgroundImageFix"/>
<feColorMatrix in="SourceAlpha" type="matrix" values="0 0 0 0 0 0 0 0 0 0 0 0 0 0 0 0 0 0 127 0" result="hardAlpha"/>
<feOffset dy="7"/>
<feComposite in2="hardAlpha" operator="out"/>
<feColorMatrix type="matrix" values="0 0 0 0 0.122874 0 0 0 0 0.501728 0 0 0 0 0.179702 0 0 0 1 0"/>
<feBlend mode="normal" in2="BackgroundImageFix" result="effect1_dropShadow_17425_41100"/>
<feBlend mode="normal" in="SourceGraphic" in2="effect1_dropShadow_17425_41100" result="shape"/>
</filter>
<linearGradient id="paint0_linear_17425_41100" x1="79.1426" y1="186.133" x2="74.5" y2="-11.5" gradientUnits="userSpaceOnUse">
<stop stop-color="#32BA46"/>
<stop offset="1" stop-color="white"/>
</linearGradient>
<linearGradient id="paint1_linear_17425_41100" x1="132" y1="104.001" x2="80.0005" y2="74.0013" gradientUnits="userSpaceOnUse">
<stop stop-color="white"/>
<stop offset="1" stop-color="#08C925"/>
</linearGradient>
<linearGradient id="paint2_linear_17425_41100" x1="96.5" y1="47" x2="17" y2="143" gradientUnits="userSpaceOnUse">
<stop stop-color="#67DD78"/>
<stop offset="1" stop-color="#7BDE8A"/>
</linearGradient>
<linearGradient id="paint3_linear_17425_41100" x1="92.6994" y1="116.381" x2="82.9419" y2="173.523" gradientUnits="userSpaceOnUse">
<stop stop-color="#67DD78"/>
<stop offset="1" stop-color="#225B2A"/>
</linearGradient>
</defs>
</svg>
