<svg width="120" height="111" viewBox="0 0 120 111" fill="none" xmlns="http://www.w3.org/2000/svg">
<g clip-path="url(#clip0_11297_2214)">
<path d="M96.0122 82.7744C95.2133 82.4427 94.2857 82.8249 93.9526 83.6227L87.4268 100.236C87.0897 100.573 82.0335 103.264 82.3706 103.264L102.096 110.714C104.115 111.556 105.489 110.477 105.15 108.322L104.697 105.441L104.242 102.567C104.242 102.567 104.242 102.566 104.242 102.564L103.625 98.6427L106.847 96.3184C106.847 96.3184 106.847 96.3157 106.851 96.3157L109.214 94.6117L111.584 92.9043C113.354 91.6261 113.151 89.8939 111.13 89.0557L96.0122 82.7744Z" fill="#C3F0C8"/>
<path d="M22.9684 82.7744C23.7676 82.4427 24.6948 82.8249 25.0282 83.6227L31.5538 100.236C31.8908 100.573 36.947 103.264 36.6099 103.264L16.8845 110.714C14.8654 111.556 13.4916 110.477 13.8309 108.322L14.2841 105.441L14.739 102.567C14.739 102.567 14.739 102.566 14.739 102.564L15.356 98.6427L12.1336 96.3184C12.1336 96.3184 12.1336 96.3157 12.1303 96.3157L9.76695 94.6117L7.39688 92.9043C5.62643 91.6261 5.82936 89.8939 7.85012 89.0557L22.9684 82.7744Z" fill="#C3F0C8"/>
<g filter="url(#filter0_d_11297_2214)">
<path d="M10.2358 10.9989C10.2358 4.92437 15.1707 -1.91684e-07 21.2581 0L97.8337 2.41126e-06C103.921 2.60294e-06 108.856 4.92438 108.856 10.9989V57.3101C108.856 83.2069 85.8445 104.2 59.5461 104.2C33.2473 104.2 10.2358 83.2069 10.2358 57.3101V10.9989Z" fill="url(#paint0_linear_11297_2214)"/>
<mask id="mask0_11297_2214" style="mask-type:luminance" maskUnits="userSpaceOnUse" x="10" y="0" width="99" height="105">
<path d="M10.2358 10.9989C10.2358 4.92437 15.1707 -1.91684e-07 21.2581 0L97.8337 2.41126e-06C103.921 2.60294e-06 108.856 4.92438 108.856 10.9989V57.3101C108.856 83.2069 85.8445 104.2 59.5461 104.2C33.2473 104.2 10.2358 83.2069 10.2358 57.3101V10.9989Z" fill="white"/>
</mask>
<g mask="url(#mask0_11297_2214)">
<path d="M108.856 10.9989H97.2541V57.3101H108.856H120.459V10.9989H108.856ZM10.2359 57.3101H21.8383V10.9989H10.2359H-1.36646V57.3101H10.2359ZM59.5462 104.2V92.6225C38.9759 92.6225 21.8383 76.1548 21.8383 57.3101H10.2359H-1.36646C-1.36646 90.2585 27.5188 115.778 59.5462 115.778V104.2ZM108.856 57.3101H97.2541C97.2541 76.1548 80.1163 92.6225 59.5462 92.6225V104.2V115.778C91.5736 115.778 120.459 90.2585 120.459 57.3101H108.856ZM21.2582 1.23978e-05V11.5778H97.8338V1.43051e-05V-11.5778H21.2582V1.23978e-05ZM10.2359 10.9989H21.8383C21.8383 11.3186 21.5786 11.5778 21.2582 11.5778V1.23978e-05V-11.5778C8.76298 -11.5778 -1.36646 -1.46986 -1.36646 10.9989H10.2359ZM108.856 10.9989H120.459C120.459 -1.46983 110.329 -11.5778 97.8338 -11.5778V1.43051e-05V11.5778C97.5136 11.5778 97.2541 11.3186 97.2541 10.9989H108.856Z" fill="#32BA46" fill-opacity="0.5"/>
</g>
</g>
<g opacity="0.5">
<mask id="mask1_11297_2214" style="mask-type:alpha" maskUnits="userSpaceOnUse" x="21" y="11" width="77" height="82">
<g opacity="0.5">
<path d="M21.7588 11.0291H97.2641V55.4291C97.2641 75.8635 80.6637 92.4294 60.1858 92.4294H58.8374C38.3594 92.4294 21.7588 75.8635 21.7588 55.4291V11.0291Z" fill="#D9D9D9"/>
</g>
</mask>
<g mask="url(#mask1_11297_2214)">
<g opacity="0.25">
<path d="M72.5098 -101.316L59.4713 51.3524L46.4465 -101.316H72.5098Z" fill="white"/>
<path d="M-5.74014 -87.3636L59.4711 51.3526L-28.3042 -74.3598L-5.74014 -87.3636Z" fill="white"/>
<path d="M-66.5086 -36.2432L59.4712 51.3526L-79.5398 -13.727L-66.5086 -36.2432Z" fill="white"/>
<path d="M-93.5225 38.3488L59.4711 51.3526L-93.5225 64.3564V38.3488Z" fill="white"/>
<path d="M-79.5398 116.426L59.4712 51.3527L-66.5086 138.948L-79.5398 116.426Z" fill="white"/>
<path d="M-28.311 177.072L59.471 51.3527L-5.74702 190.069L-28.311 177.072Z" fill="white"/>
<path d="M46.4395 204.028L59.4709 51.3527L72.5022 204.028H46.4395Z" fill="white"/>
<path d="M124.682 190.076L59.4709 51.3527L147.253 177.072L124.682 190.076Z" fill="white"/>
<path d="M185.457 138.955L59.4709 51.3527L198.482 116.432L185.457 138.955Z" fill="white"/>
<path d="M212.471 64.3631L59.4709 51.3525L212.471 38.3553V64.3631Z" fill="white"/>
<path d="M198.489 -13.7204L59.4709 51.3525L185.457 -36.2366L198.489 -13.7204Z" fill="white"/>
<path d="M147.26 -74.3598L59.4709 51.3526L124.689 -87.3636L147.26 -74.3598Z" fill="white"/>
</g>
<path d="M59.1082 67.9368C54.5659 67.9368 50.1107 66.7376 46.1647 64.4608L36.0539 67.9368L38.1322 57.253C34.8744 52.798 33.1572 47.5574 33.1572 42.0415C33.1572 27.7622 44.799 16.1455 59.1082 16.1455C73.4192 16.1455 85.0598 27.7622 85.0598 42.0415C85.0598 56.3198 73.4192 67.9368 59.1082 67.9368Z" fill="#32BA46"/>
<path d="M59.1085 58.9585C56.1414 58.9585 53.2306 58.1746 50.6531 56.687L44.0478 58.9585L45.4046 51.9783C43.277 49.0677 42.155 45.6447 42.155 42.0403C42.155 32.712 49.7603 25.1228 59.1085 25.1228C68.4574 25.1228 76.0626 32.712 76.0626 42.0403C76.0626 51.3691 68.4574 58.9585 59.1085 58.9585ZM50.9574 53.9204L51.4682 54.2395C53.7704 55.68 56.4128 56.4412 59.1083 56.4412C67.0667 56.4412 73.5406 49.9812 73.5406 42.0403C73.5406 34.1001 67.0667 27.6401 59.1083 27.6401C51.1512 27.6401 44.6775 34.1001 44.6775 42.0403C44.6775 45.271 45.7381 48.3323 47.7427 50.8924L48.0973 51.3446L47.3553 55.1586L50.9574 53.9204Z" fill="white"/>
<path d="M50.5494 35.5409C50.5494 35.5409 51.5448 33.8058 52.3553 33.7067C53.1663 33.6071 54.2105 33.6071 54.4917 34.136C54.7735 34.6645 56.0315 37.739 56.0315 37.739C56.0315 37.739 56.2475 38.2678 55.9164 38.7803C55.5852 39.2925 54.84 40.0359 54.84 40.0359C54.84 40.0359 54.4259 40.5646 54.84 41.1269C55.254 41.6882 55.8962 42.7214 57.2251 44.0458C58.5516 45.3712 61.0995 46.3161 61.0995 46.3161C61.0995 46.3161 61.4642 46.3653 61.6966 46.1343C61.9277 45.9029 63.187 44.3328 63.187 44.3328C63.187 44.3328 63.5909 43.8127 64.2627 44.1182C64.9332 44.4236 67.8399 45.8699 67.8399 45.8699C67.8399 45.8699 68.1797 45.9935 68.1797 46.5058C68.1797 47.018 67.972 48.2716 67.5473 48.6952C67.1221 49.1195 65.8806 50.4259 64.014 50.4259C62.1479 50.4259 57.7038 48.9103 55.3356 46.5476C52.9674 44.184 50.8646 41.7874 50.3683 39.6067C49.8711 37.4252 49.9378 36.4394 50.5494 35.5409Z" fill="white"/>
<path d="M27.7878 21.4821L31.2192 22.1377L31.7797 25.5394C31.7851 25.5718 31.8326 25.5718 31.838 25.5394L32.3986 22.1377L35.8299 21.4821C35.8616 21.4761 35.8618 21.4313 35.8301 21.4251L32.3986 20.7559L31.838 17.5151C31.8325 17.4829 31.7854 17.4829 31.7799 17.5151L31.2193 20.7559L27.7878 21.4251C27.7559 21.4313 27.7559 21.4761 27.7878 21.4821Z" fill="#8ED999"/>
<path opacity="0.7" d="M25.7579 30.0232L28.1192 30.4242L28.505 32.5049C28.5086 32.5248 28.5414 32.5248 28.545 32.5049L28.9308 30.4242L31.2921 30.0232C31.3138 30.0194 31.314 29.992 31.2921 29.9883L28.9306 29.5789L28.5449 27.5966C28.541 27.577 28.5087 27.577 28.5048 27.5966L28.119 29.5789L25.7576 29.9883C25.7359 29.992 25.7361 30.0194 25.7579 30.0232Z" fill="white"/>
<path opacity="0.7" d="M85.7576 20.605L88.1192 21.006L88.5048 23.0866C88.5089 23.1066 88.5412 23.1066 88.5453 23.0866L88.9309 21.006L91.2925 20.605C91.314 20.6012 91.314 20.5738 91.2925 20.57L88.9309 20.1607L88.5446 18.1784C88.5412 18.1588 88.5089 18.1588 88.5048 18.1784L88.1192 20.1607L85.7576 20.57C85.7361 20.5738 85.7361 20.6012 85.7576 20.605Z" fill="white"/>
<path d="M59.1079 16.1455C66.3499 16.1455 72.9074 19.1215 77.6191 23.9108C77.7195 24.0096 77.8193 24.1092 77.9184 24.2097C78.033 24.3222 78.1463 24.4361 78.2589 24.5506C78.3519 24.6422 78.4443 24.7343 78.5359 24.8273C78.6445 24.9337 78.7523 25.0408 78.8595 25.1492C78.9661 25.2542 79.0719 25.3603 79.1771 25.4671C79.2903 25.578 79.4022 25.6899 79.5128 25.8028C79.6139 25.9021 79.7137 26.0022 79.8135 26.1031C79.9139 26.2019 80.0137 26.3015 80.1128 26.402C80.2227 26.51 80.3319 26.6192 80.4398 26.7291C80.5362 26.8234 80.6312 26.9185 80.7256 27.0142C80.8496 27.1358 80.9723 27.2589 81.0937 27.3828C81.182 27.4699 81.2703 27.5573 81.3573 27.6456C81.4706 27.7565 81.5825 27.8684 81.6937 27.9813C81.7941 28.0803 81.8939 28.1803 81.993 28.2809C82.1029 28.3888 82.2121 28.4975 82.32 28.6074C82.4258 28.7112 82.531 28.8158 82.6348 28.9214C82.7265 29.0111 82.8162 29.1018 82.9065 29.1927C83.0346 29.3186 83.162 29.4459 83.2881 29.5744C83.3764 29.6616 83.464 29.7495 83.5517 29.8379C83.669 29.9531 83.7856 30.0693 83.9009 30.1867C83.9906 30.275 84.0795 30.3639 84.1685 30.4535C84.2899 30.5722 84.4092 30.6924 84.5285 30.8135C84.6276 30.911 84.7261 31.0093 84.8231 31.1084C84.9276 31.2106 85.0308 31.3134 85.1326 31.4172C85.2317 31.5143 85.3294 31.6122 85.4272 31.7109C85.5465 31.8279 85.6645 31.9463 85.7818 32.0656C85.8782 32.1603 85.9739 32.2553 86.0683 32.3514C86.1735 32.4548 86.278 32.559 86.3818 32.6641C86.4869 32.7676 86.5915 32.8723 86.6953 32.9775C86.8099 33.0901 86.9231 33.2038 87.0364 33.3184C87.1348 33.4158 87.2332 33.5139 87.3303 33.6127C87.4328 33.7134 87.5346 33.8147 87.635 33.9169C87.7402 34.0203 87.8447 34.1245 87.9485 34.2296C88.0679 34.3468 88.1858 34.4657 88.3025 34.5851C88.3867 34.668 88.4703 34.7513 88.5532 34.8354C88.6759 34.9549 88.7966 35.0755 88.9166 35.1973C89.009 35.2887 89.1013 35.3806 89.193 35.4733C89.3043 35.5827 89.4148 35.693 89.5247 35.8044C89.6272 35.905 89.729 36.0063 89.8294 36.1086C89.944 36.2212 90.058 36.3349 90.1706 36.4495C90.271 36.5487 90.3708 36.649 90.4699 36.7497C90.5663 36.844 90.6613 36.9391 90.7557 37.0349C90.8656 37.1427 90.9748 37.2517 91.0827 37.3614C91.1932 37.4693 91.3018 37.5781 91.4103 37.6879C91.5175 37.7934 91.624 37.8998 91.7292 38.0072C91.8364 38.1121 91.9422 38.2178 92.0467 38.3245C92.1445 38.4202 92.2409 38.5169 92.3366 38.6142C92.4418 38.7177 92.5463 38.8223 92.6501 38.9276C92.7586 39.034 92.8658 39.1412 92.9723 39.2495C93.0748 39.3501 93.1766 39.4514 93.2771 39.5537C93.3829 39.657 93.4874 39.7613 93.5906 39.8663C93.6964 39.9698 93.8002 40.0745 93.904 40.1798C94.0186 40.2923 94.1326 40.406 94.2452 40.5207C94.3476 40.6215 94.4494 40.7231 94.5499 40.8255C94.6469 40.921 94.7434 41.0176 94.8391 41.1146C94.9476 41.2214 95.0555 41.3291 95.1627 41.4378C95.2746 41.5474 95.3852 41.658 95.4944 41.7696C95.5921 41.8655 95.6892 41.9619 95.7849 42.0593C95.8921 42.1644 95.9986 42.2703 96.1038 42.3773C96.207 42.4789 96.3101 42.5814 96.4119 42.6847C96.5218 42.7928 96.631 42.902 96.7389 43.0119C96.8454 43.1168 96.9512 43.2226 97.0564 43.3292C97.1602 43.4315 97.2634 43.5347 97.3658 43.6387C97.471 43.7424 97.5762 43.8471 97.68 43.9527C97.7757 44.0467 97.8708 44.1416 97.9645 44.2371C98.0879 44.3575 98.2092 44.479 98.3292 44.6017C98.4141 44.6852 98.4984 44.7694 98.5813 44.854C98.7 44.9695 98.8166 45.0858 98.9326 45.2035C99.0364 45.3057 99.1395 45.409 99.242 45.5129C99.3445 45.6133 99.4456 45.7144 99.5461 45.8165C99.6499 45.9181 99.7523 46.0206 99.8541 46.1239C99.9708 46.2381 100.085 46.3538 100.2 46.4701C100.298 46.5664 100.395 46.6633 100.491 46.7612C100.595 46.8628 100.698 46.9653 100.8 47.0686C100.91 47.1767 101.018 47.2859 101.127 47.3958C101.232 47.4993 101.337 47.6038 101.44 47.7091C101.546 47.8127 101.65 47.9172 101.754 48.0226C101.854 48.1214 101.954 48.2209 102.053 48.3214C102.16 48.4265 102.266 48.5326 102.371 48.6395C102.473 48.7397 102.575 48.8404 102.675 48.9423C102.791 49.0565 102.907 49.1722 103.021 49.2885C103.117 49.3831 103.213 49.4782 103.307 49.5743C103.413 49.6776 103.517 49.7819 103.621 49.887C103.735 49.9994 103.849 50.1134 103.961 50.228C104.058 50.3225 104.153 50.4177 104.248 50.5137C104.36 50.6235 104.47 50.7344 104.58 50.8461C104.674 50.9388 104.767 51.032 104.86 51.126C104.974 51.2368 105.085 51.3489 105.196 51.4617C105.303 51.5669 105.41 51.6727 105.515 51.7797C105.611 51.874 105.706 51.969 105.801 52.0648C105.925 52.1864 106.048 52.3093 106.169 52.4334C106.257 52.5203 106.345 52.6079 106.432 52.6961C106.545 52.8073 106.658 52.9193 106.769 53.0325C106.869 53.1314 106.969 53.2309 107.068 53.3314C107.186 53.4459 107.301 53.5616 107.415 53.6783C107.509 53.7709 107.603 53.8642 107.695 53.9582C107.798 54.0587 107.9 54.1601 108 54.2624C108.123 54.3823 108.243 54.5033 108.363 54.6256C108.455 54.7157 108.545 54.8063 108.636 54.8976C108.742 55.0026 108.848 55.1088 108.953 55.2156C113.742 59.9162 116.717 66.4515 116.717 73.6684C116.717 87.947 105.077 99.5637 90.7658 99.5637C86.2234 99.5637 81.7679 98.3642 77.822 96.0877L67.711 99.5637L67.7986 99.1116L67.3973 99.2502L67.4852 98.7995L67.0839 98.9374L67.1715 98.4853L66.7712 98.6239L66.8587 98.1725L66.4571 98.3111L66.5447 97.8603L66.1438 97.9983L66.2314 97.5469L65.8304 97.6848L65.9179 97.2334L65.517 97.3713L65.6046 96.9205L65.2037 97.0585L65.2912 96.6071L64.8903 96.7456L64.9778 96.2942L64.5769 96.4321L64.6644 95.9801L64.2628 96.1187L64.3504 95.6673L63.9495 95.8052L64.0364 95.3551L63.6367 95.493L63.7243 95.0409L63.3227 95.1795L63.4103 94.7281L63.0094 94.8667L63.0969 94.416L62.6959 94.5539L62.7835 94.1025L62.3826 94.2404L62.4702 93.789L62.0692 93.9269L62.1568 93.4762L61.7558 93.6141L61.8434 93.162L61.4424 93.2999L61.53 92.8492L61.1284 92.9878L61.216 92.537L60.815 92.675L60.9026 92.2236L60.5023 92.3615L60.5899 91.9101L60.1883 92.0487L60.2759 91.5966L59.8749 91.7345L59.9624 91.2838L59.5615 91.4217L59.6491 90.9709L59.2482 91.1089L59.3357 90.6581L58.9348 90.796L59.0223 90.3433L58.6214 90.4819L58.709 90.0311L58.308 90.1691L58.3956 89.7177L57.994 89.8562L58.0815 89.4048L57.6812 89.5427L57.7688 89.0913L57.3672 89.2299L57.4541 88.7799L57.0539 88.9178L57.1414 88.4644L56.7404 88.6029L56.8273 88.1529L56.4271 88.2908L56.5147 87.8401L56.1143 87.978L56.2019 87.5259L55.8003 87.6645L55.8879 87.2131L55.487 87.351L55.5745 86.9003L55.1742 87.0382L55.2618 86.5861L54.8602 86.7247L54.9471 86.2746L54.5468 86.4126L54.6344 85.9605L54.2328 86.0991L54.3203 85.6477L53.9194 85.7862L54.007 85.3348L53.6067 85.4727L53.6943 85.0207L53.2927 85.1593L53.3802 84.7085L52.9792 84.8464L53.0668 84.3944L52.6666 84.5323L52.7541 84.0809L52.3525 84.2195L52.4401 83.7687L52.0391 83.9066L52.1267 83.4559L51.7258 83.5938L51.8133 83.1431L51.4124 83.281L51.4999 82.8289L51.0983 82.9675L51.1859 82.5161L50.785 82.654L50.8725 82.2026L50.4723 82.3405L50.5598 81.8891L50.1582 82.0277L50.2457 81.577L49.8448 81.7149L49.9324 81.2628L49.5315 81.4007L49.6184 80.9507L49.2181 81.0886L49.3056 80.6372L48.9047 80.7751L48.9923 80.3237L48.5913 80.4616L48.6789 80.0115L48.2779 80.1495L48.3655 79.6981L47.9646 79.836L48.0521 79.3839L47.6505 79.5225L47.7381 79.0711L47.3378 79.209L47.4247 78.7583L47.0238 78.8968L47.1113 78.4434L46.7104 78.5827L46.7973 78.1326L46.3976 78.2705L46.4852 77.8185L46.0836 77.957L46.1712 77.5063L45.7703 77.6442L45.8579 77.1928L45.4569 77.3307L45.5444 76.8793L45.1435 77.0172L45.2311 76.5658L44.8301 76.7044L44.9177 76.2537L44.5168 76.3916L44.6043 75.9395L44.2034 76.0774L44.2903 75.6267L43.8893 75.7653L43.9769 75.3139L43.576 75.4518L43.6635 75.0011L43.2626 75.139L43.3501 74.6869L42.9499 74.8255L43.0374 74.3741L42.6359 74.5127L42.7234 74.0613L42.3224 74.1992L42.41 73.7485L42.0091 73.8864L42.0967 73.4336L41.6957 73.5722L41.7826 73.1221L41.3823 73.2601L41.4699 72.8087L41.0689 72.9472L41.1565 72.4958L40.7556 72.6337L40.8431 72.1817L40.4415 72.3203L40.5291 71.8695L40.1281 72.0074L40.2157 71.5567L39.8154 71.6946L39.903 71.2419L39.5014 71.3805L39.5889 70.9304L39.188 71.0683L39.2756 70.6176L38.8747 70.7555L38.9622 70.3041L38.5612 70.442L38.6488 69.9906L38.2479 70.1285L38.3355 69.6771L37.9345 69.815L38.0221 69.3636L37.6211 69.5015L37.708 69.0521L37.3077 69.1901L37.3953 68.7387L36.9944 68.8766L37.0819 68.4252L36.681 68.5631L36.7685 68.1117L36.3669 68.2503L36.4545 67.7982L36.0536 67.9361L38.132 57.2528C34.8744 52.7978 33.1575 47.5574 33.1575 42.0415C33.1575 27.7623 44.7988 16.1456 59.1079 16.1455Z" fill="url(#paint1_linear_11297_2214)"/>
</g>
</g>
<path d="M59.1082 67.9368C54.5659 67.9368 50.1107 66.7376 46.1647 64.4608L36.0539 67.9368L38.1322 57.253C34.8744 52.798 33.1572 47.5574 33.1572 42.0415C33.1572 27.7622 44.799 16.1455 59.1082 16.1455C73.4192 16.1455 85.0598 27.7622 85.0598 42.0415C85.0598 56.3198 73.4192 67.9368 59.1082 67.9368Z" fill="url(#paint2_linear_11297_2214)"/>
<path d="M59.1085 58.9585C56.1414 58.9585 53.2306 58.1746 50.6531 56.687L44.0478 58.9585L45.4046 51.9783C43.277 49.0677 42.155 45.6447 42.155 42.0403C42.155 32.712 49.7603 25.1228 59.1085 25.1228C68.4574 25.1228 76.0626 32.712 76.0626 42.0403C76.0626 51.3691 68.4574 58.9585 59.1085 58.9585ZM50.9574 53.9204L51.4682 54.2395C53.7704 55.68 56.4128 56.4412 59.1083 56.4412C67.0667 56.4412 73.5406 49.9812 73.5406 42.0403C73.5406 34.1001 67.0667 27.6401 59.1083 27.6401C51.1512 27.6401 44.6775 34.1001 44.6775 42.0403C44.6775 45.271 45.7381 48.3323 47.7427 50.8924L48.0973 51.3446L47.3553 55.1586L50.9574 53.9204Z" fill="white"/>
<path d="M50.5494 35.5408C50.5494 35.5408 51.5448 33.8057 52.3553 33.7066C53.1663 33.6069 54.2105 33.6069 54.4917 34.1359C54.7735 34.6644 56.0315 37.7389 56.0315 37.7389C56.0315 37.7389 56.2475 38.2677 55.9164 38.7802C55.5852 39.2924 54.84 40.0358 54.84 40.0358C54.84 40.0358 54.4259 40.5645 54.84 41.1268C55.254 41.6881 55.8962 42.7213 57.2251 44.0457C58.5516 45.3711 61.0995 46.316 61.0995 46.316C61.0995 46.316 61.4642 46.3652 61.6966 46.1341C61.9277 45.9028 63.187 44.3327 63.187 44.3327C63.187 44.3327 63.5909 43.8126 64.2627 44.118C64.9332 44.4235 67.8399 45.8698 67.8399 45.8698C67.8399 45.8698 68.1797 45.9934 68.1797 46.5057C68.1797 47.0178 67.972 48.2715 67.5473 48.6951C67.1221 49.1194 65.8806 50.4258 64.014 50.4258C62.1479 50.4258 57.7038 48.9102 55.3356 46.5475C52.9674 44.1839 50.8646 41.7872 50.3683 39.6066C49.8711 37.4251 49.9378 36.4393 50.5494 35.5408Z" fill="white"/>
<path d="M93.4531 63.0237C93.149 61.0931 93.987 59.1617 95.6185 58.0803C97.9801 56.515 100.39 54.8757 100.39 54.8757C102.019 53.7575 103.556 52.4897 104.975 51.1131C108.305 47.8824 110.956 43.8112 112.671 39.5509C113.323 37.931 115.385 37.6018 116.139 39.3637C118.066 43.8704 117.514 49.2804 115.322 53.6781C115.679 53.34 116.028 52.996 116.366 52.6447C117.514 51.4514 119.445 51.8917 119.481 53.7069C119.567 58.0009 117.514 62.2228 114.445 65.2778C114.951 65.063 115.45 64.8365 115.938 64.5958C117.272 63.9388 118.767 64.8983 118.242 66.4412C117.127 69.7201 114.573 72.4245 111.511 74.1312C111.765 74.1103 112.017 74.0868 112.269 74.0572C113.45 73.9193 114.317 75.0414 113.507 76.0626C111.655 78.399 108.726 79.7868 105.736 80.1413C106.212 80.3526 106.695 80.5443 107.18 80.7145C108.113 81.0414 108.35 82.1938 107.373 82.662C104.207 84.1784 100.122 83.4929 97.3625 81.4653C96.865 81.1 96.1929 81.0798 95.6677 81.404C95.1331 81.733 94.5338 81.9442 93.9108 82.0223C91.8837 82.2766 90.0338 80.8423 89.7789 78.8194C89.6562 77.846 89.9192 76.8571 90.532 76.0902C94.0544 71.6825 93.9708 66.3192 93.4531 63.0237Z" fill="url(#paint3_linear_11297_2214)"/>
<path d="M93.4531 63.0237C93.149 61.0931 93.987 59.1617 95.6185 58.0803C97.9801 56.515 100.39 54.8757 100.39 54.8757C102.019 53.7575 103.556 52.4897 104.975 51.1131C108.305 47.8824 110.956 43.8112 112.671 39.5509C113.323 37.931 115.385 37.6018 116.139 39.3637C118.066 43.8704 117.514 49.2804 115.322 53.6781C115.679 53.34 116.028 52.996 116.366 52.6447C117.514 51.4514 119.445 51.8917 119.481 53.7069C119.567 58.0009 117.514 62.2228 114.445 65.2778C114.951 65.063 115.45 64.8365 115.938 64.5958C117.272 63.9388 118.767 64.8983 118.242 66.4412C117.127 69.7201 114.573 72.4245 111.511 74.1312C111.765 74.1103 112.017 74.0868 112.269 74.0572C113.45 73.9193 114.317 75.0414 113.507 76.0626C111.655 78.399 108.726 79.7868 105.736 80.1413C106.212 80.3526 106.695 80.5443 107.18 80.7145C108.113 81.0414 108.35 82.1938 107.373 82.662C104.207 84.1784 100.122 83.4929 97.3625 81.4653C96.865 81.1 96.1929 81.0798 95.6677 81.404C95.1331 81.733 94.5338 81.9442 93.9108 82.0223C91.8837 82.2766 90.0338 80.8423 89.7789 78.8194C89.6562 77.846 89.9192 76.8571 90.532 76.0902C94.0544 71.6825 93.9708 66.3192 93.4531 63.0237Z" fill="url(#paint4_linear_11297_2214)"/>
<path d="M94.2082 68.8409C94.5635 68.3168 95.063 67.9536 95.6361 67.7087C96.8145 67.2039 98.297 67.2035 99.443 67.3515C101.11 67.5647 102.805 67.6327 104.488 67.5627C107.883 67.4248 111.314 66.6074 114.442 65.2808C114.949 65.0665 115.45 64.8373 115.939 64.5967C117.272 63.9393 118.767 64.8989 118.243 66.4413C117.128 69.7201 114.574 72.4258 111.511 74.1312C108.631 74.3734 105.622 74.0861 102.852 73.2277C101.567 72.8288 100.309 72.3249 99.1107 71.7175C97.8864 71.0965 96.0176 70.5234 94.7691 71.4383C94.5513 71.5991 94.3781 71.7807 94.2507 71.9778C93.6756 70.9963 93.5057 69.8755 94.2082 68.8409Z" fill="url(#paint5_linear_11297_2214)"/>
<path d="M100.39 54.8773C102.019 53.7594 103.557 52.4912 104.974 51.1142C108.305 47.8829 110.956 43.8118 112.671 39.5519C113.323 37.9317 115.386 37.6032 116.139 39.3646C118.067 43.8704 117.516 49.2818 115.325 53.6791C112.497 56.362 109.113 58.6104 105.494 60.0872C103.758 60.795 101.958 61.365 100.129 61.772C99.5327 61.9038 98.8693 62.0995 98.2268 62.3736C97.5722 61.8958 97.103 61.2123 96.9756 60.2796C96.6695 58.026 98.727 56.0185 100.39 54.8773Z" fill="url(#paint6_linear_11297_2214)"/>
<path d="M95.2077 65.3128C95.7376 63.2224 98.2603 62.186 100.128 61.7711C101.957 61.3641 103.758 60.7941 105.494 60.0863C109.569 58.4238 113.345 55.7837 116.366 52.6451C117.514 51.451 119.445 51.8911 119.481 53.7073C119.566 58.0032 117.514 62.2277 114.442 65.2806C111.314 66.6071 107.883 67.4241 104.488 67.5626C102.805 67.6326 101.111 67.5647 99.4435 67.3514C98.2974 67.2033 96.8143 67.2035 95.6365 67.708C95.1781 67.0329 94.9752 66.2287 95.2077 65.3128Z" fill="url(#paint7_linear_11297_2214)"/>
<path d="M94.7698 71.4389C96.0183 70.524 97.8864 71.0972 99.1107 71.7174C100.309 72.3256 101.567 72.8294 102.852 73.2284C105.866 74.1621 109.163 74.4198 112.27 74.0572C113.451 73.9199 114.317 75.0427 113.508 76.0639C111.656 78.3996 108.73 79.7881 105.74 80.142C103.812 79.291 101.986 78.113 100.453 76.6727C99.6399 75.9085 98.8848 75.075 98.212 74.1857C97.5257 73.2788 96.3399 72.1715 95.0751 72.3996C94.5338 72.4978 94.1529 72.7931 93.8994 73.1914C93.9041 72.5193 94.1495 71.8923 94.7698 71.4389Z" fill="url(#paint8_linear_11297_2214)"/>
<path d="M95.0737 72.4003C96.3397 72.1709 97.5249 73.2789 98.2125 74.1871C98.8847 75.0757 99.6397 75.9093 100.453 76.6735C102.363 78.467 104.73 79.8575 107.18 80.7159C108.113 81.0428 108.35 82.1952 107.373 82.6634C103.897 84.3278 99.3148 83.3389 96.5939 80.8343C95.255 79.6019 94.3004 78.0499 93.6937 76.2752C93.2507 74.9789 93.368 72.7091 95.0737 72.4003Z" fill="url(#paint9_linear_11297_2214)"/>
<path d="M26.0317 62.3509C26.3353 60.4203 25.4974 58.4889 23.8661 57.4076C21.5049 55.8423 19.0943 54.203 19.0943 54.203C17.4654 53.0848 15.9284 51.817 14.5097 50.4404C11.18 47.2097 8.52854 43.1384 6.81389 38.8782C6.1619 37.2583 4.09914 36.929 3.34575 38.691C1.4189 43.1976 1.96999 48.6077 4.16225 53.0054C3.80591 52.6673 3.45687 52.3233 3.11875 51.972C1.97022 50.7787 0.0400034 51.219 0.00381143 53.0342C-0.0819907 57.3282 1.971 61.55 5.03988 64.605C4.53377 64.3903 4.03493 64.1637 3.54624 63.9231C2.21193 63.266 0.71784 64.2255 1.2425 65.7684C2.35765 69.0474 4.91129 71.7518 7.97385 73.4585C7.7201 73.4376 7.46715 73.4141 7.21569 73.3845C6.03463 73.2466 5.16755 74.3687 5.97729 75.3899C7.82965 77.7262 10.7585 79.1141 13.7486 79.4686C13.2723 79.6798 12.79 79.8716 12.3041 80.0418C11.3723 80.3687 11.1346 81.5211 12.1118 81.9893C15.2778 83.5056 19.3627 82.8201 22.122 80.7925C22.6194 80.4272 23.2916 80.4071 23.8172 80.7313C24.3516 81.0603 24.9508 81.2715 25.5741 81.3496C27.6013 81.6038 29.4511 80.1696 29.7058 78.1467C29.8284 77.1733 29.5656 76.1844 28.9525 75.4174C25.4303 71.0097 25.5135 65.6465 26.0317 62.3509Z" fill="url(#paint10_linear_11297_2214)"/>
<path d="M26.0317 62.3509C26.3353 60.4203 25.4974 58.4889 23.8661 57.4076C21.5049 55.8423 19.0943 54.203 19.0943 54.203C17.4654 53.0848 15.9284 51.817 14.5097 50.4404C11.18 47.2097 8.52854 43.1384 6.81389 38.8782C6.1619 37.2583 4.09914 36.929 3.34575 38.691C1.4189 43.1976 1.96999 48.6077 4.16225 53.0054C3.80591 52.6673 3.45687 52.3233 3.11875 51.972C1.97022 50.7787 0.0400034 51.219 0.00381143 53.0342C-0.0819907 57.3282 1.971 61.55 5.03988 64.605C4.53377 64.3903 4.03493 64.1637 3.54624 63.9231C2.21193 63.266 0.71784 64.2255 1.2425 65.7684C2.35765 69.0474 4.91129 71.7518 7.97385 73.4585C7.7201 73.4376 7.46715 73.4141 7.21569 73.3845C6.03463 73.2466 5.16755 74.3687 5.97729 75.3899C7.82965 77.7262 10.7585 79.1141 13.7486 79.4686C13.2723 79.6798 12.79 79.8716 12.3041 80.0418C11.3723 80.3687 11.1346 81.5211 12.1118 81.9893C15.2778 83.5056 19.3627 82.8201 22.122 80.7925C22.6194 80.4272 23.2916 80.4071 23.8172 80.7313C24.3516 81.0603 24.9508 81.2715 25.5741 81.3496C27.6013 81.6038 29.4511 80.1696 29.7058 78.1467C29.8284 77.1733 29.5656 76.1844 28.9525 75.4174C25.4303 71.0097 25.5135 65.6465 26.0317 62.3509Z" fill="url(#paint11_linear_11297_2214)"/>
<path d="M25.2762 68.1681C24.921 67.6441 24.4216 67.2808 23.8483 67.0357C22.6704 66.5311 21.1874 66.5307 20.0417 66.6789C18.3745 66.8919 16.6794 66.9601 14.9968 66.8903C11.6015 66.7518 8.17066 65.9346 5.04261 64.6081C4.53547 64.3938 4.035 64.1645 3.54548 63.924C2.21195 63.2666 0.717725 64.2262 1.24202 65.7686C2.35679 69.0474 4.91071 71.7531 7.9736 73.4585C10.8537 73.7007 13.8624 73.4134 16.6328 72.555C17.9182 72.1561 19.1753 71.6522 20.3741 71.0447C21.5983 70.4238 23.4667 69.8506 24.7154 70.7655C24.9335 70.9263 25.1062 71.108 25.234 71.3051C25.8091 70.3236 25.9787 69.2028 25.2762 68.1681Z" fill="url(#paint12_linear_11297_2214)"/>
<path d="M19.0942 54.2039C17.4658 53.086 15.9278 51.8178 14.51 50.4409C11.1798 47.2096 8.52915 43.1385 6.81295 38.8786C6.16175 37.2584 4.09858 36.9299 3.34591 38.6913C1.41793 43.1971 1.96858 48.6084 4.16007 53.0057C6.98702 55.6887 10.3712 57.9371 13.9906 59.4138C15.7263 60.1217 17.527 60.6917 19.3563 61.0986C19.9517 61.2304 20.6153 61.4262 21.2579 61.7003C21.9127 61.2225 22.3817 60.5389 22.5087 59.6062C22.8148 57.3526 20.7578 55.3451 19.0942 54.2039Z" fill="url(#paint13_linear_11297_2214)"/>
<path d="M24.2767 64.6401C23.7466 62.5497 21.2243 61.5133 19.3562 61.0983C17.527 60.6913 15.7262 60.1214 13.9906 59.4136C9.91595 57.7511 6.13934 55.1109 3.11854 51.9723C1.97015 50.7783 0.0391871 51.2183 0.00277285 53.0346C-0.0819739 57.3305 1.97085 61.5549 5.04224 64.6079C8.17049 65.9344 11.6011 66.7516 14.9965 66.8901C16.6789 66.9599 18.3741 66.8917 20.0413 66.6788C21.1871 66.5306 22.6701 66.5308 23.848 67.0355C24.3066 66.3601 24.5096 65.556 24.2767 64.6401Z" fill="url(#paint14_linear_11297_2214)"/>
<path d="M24.7151 70.7662C23.4664 69.8513 21.598 70.4244 20.3738 71.0447C19.175 71.6528 17.9178 72.1567 16.6325 72.5556C13.6187 73.4894 10.3214 73.747 7.21493 73.3844C6.03358 73.2472 5.16751 74.37 5.97678 75.3912C7.82861 77.7269 10.7551 79.1154 13.7449 79.4692C15.6722 78.6182 17.499 77.4403 19.0316 76C19.8447 75.2358 20.5996 74.4023 21.2727 73.5129C21.9592 72.6061 23.1445 71.4988 24.4098 71.7268C24.9506 71.8251 25.3315 72.1204 25.5849 72.5186C25.5805 71.8466 25.3351 71.2196 24.7151 70.7662Z" fill="url(#paint15_linear_11297_2214)"/>
<path d="M24.4102 71.7276C23.1445 71.4982 21.9589 72.6062 21.2718 73.5143C20.5991 74.403 19.8441 75.2365 19.0308 76.0007C17.1217 77.7942 14.7543 79.1848 12.3037 80.0432C11.3719 80.3701 11.1342 81.5225 12.1113 81.9907C15.5868 83.655 20.1694 82.6661 22.8904 80.1616C24.2292 78.9291 25.1837 77.3771 25.7905 75.6025C26.2336 74.3061 26.1159 72.0364 24.4102 71.7276Z" fill="url(#paint16_linear_11297_2214)"/>
<path d="M97.7467 100.361C96.8279 102.343 94.3847 103.192 92.2847 102.363C71.2308 94.0317 47.7757 94.0317 26.7223 102.363C24.6192 103.192 22.1776 102.345 21.2604 100.361C19.1281 95.6443 16.9935 90.9318 14.8613 86.2167C13.944 84.2348 15.3602 81.6172 18.0579 80.5523C44.6755 70.0221 74.3319 70.0221 100.949 80.5523C103.645 81.6172 105.065 84.2348 104.147 86.2167C102.012 90.9318 99.8798 95.645 97.7467 100.361Z" fill="#E6F7E8"/>
<path d="M60.5208 82.2887C60.9151 81.9113 61.2858 81.5494 61.6655 81.1955C62.4174 80.4952 63.2422 79.8992 64.2545 79.6019C66.4954 78.9446 68.859 79.7943 70.0994 81.6913C71.3379 83.5837 71.141 86.0439 69.6181 87.7291C67.8464 89.6881 65.0944 90.0325 62.8585 88.5774C62.2162 88.1596 61.6671 87.6403 61.1239 87.1122C60.9226 86.9164 60.7618 86.6742 60.4929 86.5525C60.2571 86.6036 60.1456 86.798 59.9954 86.9433C59.4513 87.4694 58.9187 88.0062 58.2994 88.4536C56.599 89.68 54.2824 89.8132 52.5425 88.7792C50.6793 87.6726 49.7379 85.684 50.0804 83.5783C50.4091 81.5575 51.9292 79.9678 54.0329 79.5218C55.7572 79.1565 57.3205 79.546 58.6755 80.6466C59.1159 81.0045 59.5067 81.4196 59.9238 81.805C60.0956 81.9638 60.2231 82.1723 60.5208 82.2887ZM62.4167 84.4515C63.0034 85.0375 63.4936 85.6107 64.0963 86.0775C64.4385 86.3426 64.8082 86.5471 65.2371 86.646C66.4643 86.9279 67.7749 86.1327 68.1087 84.9016C68.4107 83.7869 67.6455 82.58 66.4233 82.2914C65.5239 82.0795 64.7037 82.2981 64.001 82.8666C63.4307 83.3281 62.9249 83.8575 62.4167 84.4515ZM58.5008 84.4085C57.9969 83.8663 57.5112 83.3543 56.9711 82.8942C56.6613 82.6305 56.3096 82.4347 55.9171 82.3109C54.7562 81.945 53.5738 82.4058 53.0463 83.427C52.5317 84.4233 52.8285 85.6207 53.785 86.2827C54.6151 86.8572 55.492 86.829 56.3563 86.3567C57.2273 85.8804 57.8364 85.129 58.5008 84.4085Z" fill="url(#paint17_linear_11297_2214)"/>
</g>
<defs>
<filter id="filter0_d_11297_2214" x="10.2358" y="0" width="98.6204" height="111.2" filterUnits="userSpaceOnUse" color-interpolation-filters="sRGB">
<feFlood flood-opacity="0" result="BackgroundImageFix"/>
<feColorMatrix in="SourceAlpha" type="matrix" values="0 0 0 0 0 0 0 0 0 0 0 0 0 0 0 0 0 0 127 0" result="hardAlpha"/>
<feOffset dy="7"/>
<feComposite in2="hardAlpha" operator="out"/>
<feColorMatrix type="matrix" values="0 0 0 0 0.122874 0 0 0 0 0.501728 0 0 0 0 0.179702 0 0 0 1 0"/>
<feBlend mode="normal" in2="BackgroundImageFix" result="effect1_dropShadow_11297_2214"/>
<feBlend mode="normal" in="SourceGraphic" in2="effect1_dropShadow_11297_2214" result="shape"/>
</filter>
<linearGradient id="paint0_linear_11297_2214" x1="59.5455" y1="125.217" x2="56.4289" y2="-7.73667" gradientUnits="userSpaceOnUse">
<stop stop-color="#32BA46"/>
<stop offset="1" stop-color="white"/>
</linearGradient>
<linearGradient id="paint1_linear_11297_2214" x1="95.1795" y1="69.9637" x2="60.1606" y2="49.7175" gradientUnits="userSpaceOnUse">
<stop stop-color="white"/>
<stop offset="1" stop-color="#08C925"/>
</linearGradient>
<linearGradient id="paint2_linear_11297_2214" x1="71.247" y1="31.6182" x2="17.7866" y2="96.3116" gradientUnits="userSpaceOnUse">
<stop stop-color="#67DD78"/>
<stop offset="1" stop-color="#7BDE8A"/>
</linearGradient>
<linearGradient id="paint3_linear_11297_2214" x1="113.212" y1="55.7941" x2="91.2382" y2="84.163" gradientUnits="userSpaceOnUse">
<stop stop-color="#F9F7F8"/>
<stop offset="1" stop-color="#E5E1E5"/>
</linearGradient>
<linearGradient id="paint4_linear_11297_2214" x1="98.4439" y1="68.8234" x2="91.6408" y2="73.5116" gradientUnits="userSpaceOnUse">
<stop stop-color="#B6E8BD" stop-opacity="0"/>
<stop offset="0.3465" stop-color="#B6E8BD" stop-opacity="0.347"/>
<stop offset="0.7135" stop-color="#B6E8BD" stop-opacity="0.714"/>
<stop offset="1" stop-color="#B6E8BD"/>
</linearGradient>
<linearGradient id="paint5_linear_11297_2214" x1="106.487" y1="70.8463" x2="107.234" y2="76.7922" gradientUnits="userSpaceOnUse">
<stop stop-color="#7BDE8A" stop-opacity="0"/>
<stop offset="0.3465" stop-color="#7BDE8A" stop-opacity="0.347"/>
<stop offset="0.7135" stop-color="#7BDE8A" stop-opacity="0.714"/>
<stop offset="1" stop-color="#7BDE8A"/>
</linearGradient>
<linearGradient id="paint6_linear_11297_2214" x1="108.603" y1="52.4723" x2="114.051" y2="59.2167" gradientUnits="userSpaceOnUse">
<stop stop-color="#7BDE8A" stop-opacity="0"/>
<stop offset="0.3465" stop-color="#7BDE8A" stop-opacity="0.347"/>
<stop offset="0.7135" stop-color="#7BDE8A" stop-opacity="0.714"/>
<stop offset="1" stop-color="#7BDE8A"/>
</linearGradient>
<linearGradient id="paint7_linear_11297_2214" x1="109.003" y1="62.5831" x2="113.141" y2="69.3303" gradientUnits="userSpaceOnUse">
<stop stop-color="#7BDE8A" stop-opacity="0"/>
<stop offset="0.3465" stop-color="#7BDE8A" stop-opacity="0.347"/>
<stop offset="0.7135" stop-color="#7BDE8A" stop-opacity="0.714"/>
<stop offset="1" stop-color="#7BDE8A"/>
</linearGradient>
<linearGradient id="paint8_linear_11297_2214" x1="104.279" y1="76.7588" x2="104.853" y2="81.3296" gradientUnits="userSpaceOnUse">
<stop stop-color="#7BDE8A" stop-opacity="0"/>
<stop offset="0.3465" stop-color="#7BDE8A" stop-opacity="0.347"/>
<stop offset="0.7135" stop-color="#7BDE8A" stop-opacity="0.714"/>
<stop offset="1" stop-color="#7BDE8A"/>
</linearGradient>
<linearGradient id="paint9_linear_11297_2214" x1="100.531" y1="78.9533" x2="98.942" y2="83.957" gradientUnits="userSpaceOnUse">
<stop stop-color="#7BDE8A" stop-opacity="0"/>
<stop offset="0.3465" stop-color="#7BDE8A" stop-opacity="0.347"/>
<stop offset="0.7135" stop-color="#7BDE8A" stop-opacity="0.714"/>
<stop offset="1" stop-color="#7BDE8A"/>
</linearGradient>
<linearGradient id="paint10_linear_11297_2214" x1="6.27292" y1="55.1214" x2="28.2465" y2="83.4903" gradientUnits="userSpaceOnUse">
<stop stop-color="#F9F7F8"/>
<stop offset="1" stop-color="#E5E1E5"/>
</linearGradient>
<linearGradient id="paint11_linear_11297_2214" x1="21.0405" y1="68.1506" x2="27.8438" y2="72.8389" gradientUnits="userSpaceOnUse">
<stop stop-color="#B6E8BD" stop-opacity="0"/>
<stop offset="0.3465" stop-color="#B6E8BD" stop-opacity="0.347"/>
<stop offset="0.7135" stop-color="#B6E8BD" stop-opacity="0.714"/>
<stop offset="1" stop-color="#B6E8BD"/>
</linearGradient>
<linearGradient id="paint12_linear_11297_2214" x1="12.9978" y1="70.1735" x2="12.2503" y2="76.1195" gradientUnits="userSpaceOnUse">
<stop stop-color="#7BDE8A" stop-opacity="0"/>
<stop offset="0.3465" stop-color="#7BDE8A" stop-opacity="0.347"/>
<stop offset="0.7135" stop-color="#7BDE8A" stop-opacity="0.714"/>
<stop offset="1" stop-color="#7BDE8A"/>
</linearGradient>
<linearGradient id="paint13_linear_11297_2214" x1="10.8816" y1="51.7989" x2="5.43292" y2="58.5433" gradientUnits="userSpaceOnUse">
<stop stop-color="#7BDE8A" stop-opacity="0"/>
<stop offset="0.3465" stop-color="#7BDE8A" stop-opacity="0.347"/>
<stop offset="0.7135" stop-color="#7BDE8A" stop-opacity="0.714"/>
<stop offset="1" stop-color="#7BDE8A"/>
</linearGradient>
<linearGradient id="paint14_linear_11297_2214" x1="10.4816" y1="61.9103" x2="6.34318" y2="68.6576" gradientUnits="userSpaceOnUse">
<stop stop-color="#7BDE8A" stop-opacity="0"/>
<stop offset="0.3465" stop-color="#7BDE8A" stop-opacity="0.347"/>
<stop offset="0.7135" stop-color="#7BDE8A" stop-opacity="0.714"/>
<stop offset="1" stop-color="#7BDE8A"/>
</linearGradient>
<linearGradient id="paint15_linear_11297_2214" x1="15.2057" y1="76.0861" x2="14.6311" y2="80.6569" gradientUnits="userSpaceOnUse">
<stop stop-color="#7BDE8A" stop-opacity="0"/>
<stop offset="0.3465" stop-color="#7BDE8A" stop-opacity="0.347"/>
<stop offset="0.7135" stop-color="#7BDE8A" stop-opacity="0.714"/>
<stop offset="1" stop-color="#7BDE8A"/>
</linearGradient>
<linearGradient id="paint16_linear_11297_2214" x1="18.9531" y1="78.2806" x2="20.5421" y2="83.2843" gradientUnits="userSpaceOnUse">
<stop stop-color="#7BDE8A" stop-opacity="0"/>
<stop offset="0.3465" stop-color="#7BDE8A" stop-opacity="0.347"/>
<stop offset="0.7135" stop-color="#7BDE8A" stop-opacity="0.714"/>
<stop offset="1" stop-color="#7BDE8A"/>
</linearGradient>
<linearGradient id="paint17_linear_11297_2214" x1="64.0965" y1="80.8033" x2="59.9711" y2="104.821" gradientUnits="userSpaceOnUse">
<stop stop-color="#67DD78"/>
<stop offset="1" stop-color="#225B2A"/>
</linearGradient>
<clipPath id="clip0_11297_2214">
<rect width="120" height="111" fill="white"/>
</clipPath>
</defs>
</svg>
