<svg width="120" height="125" viewBox="0 0 120 125" fill="none" xmlns="http://www.w3.org/2000/svg">
<g clip-path="url(#clip0_11297_2186)">
<path d="M100.555 93.2144C99.6595 92.8409 98.6218 93.2712 98.2482 94.1697L90.9433 112.879C90.566 113.258 84.9056 116.288 85.2829 116.288L107.365 124.678C109.626 125.626 111.164 124.411 110.784 121.984L110.277 118.74L109.767 115.503C109.767 115.503 109.767 115.502 109.767 115.5L109.077 111.084L112.684 108.467C112.684 108.467 112.684 108.464 112.687 108.464L115.334 106.545L117.987 104.622C119.969 103.183 119.742 101.232 117.479 100.288L100.555 93.2144Z" fill="#C3F0C8"/>
<path d="M18.7821 93.2144C19.6767 92.8409 20.7148 93.2712 21.0881 94.1697L28.3934 112.879C28.7707 113.258 34.4311 116.288 34.0537 116.288L11.9711 124.678C9.71077 125.626 8.17281 124.411 8.55266 121.984L9.06005 118.74L9.56926 115.503C9.56926 115.503 9.56926 115.502 9.56926 115.5L10.2601 111.084L6.65259 108.467C6.65259 108.467 6.65257 108.464 6.64884 108.464L4.00306 106.545L1.34981 104.622C-0.632212 103.183 -0.405046 101.232 1.8572 100.288L18.7821 93.2144Z" fill="#C3F0C8"/>
<g filter="url(#filter0_d_11297_2186)">
<path d="M4.52832 12.3861C4.52832 5.54546 10.0528 -2.1586e-07 16.8677 0L102.594 2.71538e-06C109.409 2.93123e-06 114.934 5.54547 114.934 12.3861V64.5384C114.934 93.7015 89.1721 117.342 59.731 117.342C30.2895 117.342 4.52832 93.7015 4.52832 64.5384V12.3861Z" fill="url(#paint0_linear_11297_2186)"/>
<mask id="mask0_11297_2186" style="mask-type:luminance" maskUnits="userSpaceOnUse" x="4" y="0" width="111" height="118">
<path d="M4.52832 12.3861C4.52832 5.54546 10.0528 -2.1586e-07 16.8677 0L102.594 2.71538e-06C109.409 2.93123e-06 114.934 5.54547 114.934 12.3861V64.5384C114.934 93.7015 89.1721 117.342 59.731 117.342C30.2895 117.342 4.52832 93.7015 4.52832 64.5384V12.3861Z" fill="white"/>
</mask>
<g mask="url(#mask0_11297_2186)">
<path d="M114.934 12.3861H101.945V64.5383H114.934H127.922V12.3861H114.934ZM4.52838 64.5383H17.5172V12.3861H4.52838H-8.46045V64.5383H4.52838ZM59.731 117.342V104.304C36.7027 104.304 17.5172 85.7598 17.5172 64.5383H4.52838H-8.46045C-8.46045 101.642 23.8765 130.38 59.731 130.38V117.342ZM114.934 64.5383H101.945C101.945 85.7598 82.7593 104.304 59.731 104.304V117.342V130.38C95.5857 130.38 127.922 101.642 127.922 64.5383H114.934ZM16.8678 -5.62668e-05V13.038H102.594V-5.34058e-05V-13.0381H16.8678V-5.62668e-05ZM4.52838 12.3861H17.5172C17.5172 12.7462 17.2265 13.038 16.8678 13.038V-5.62668e-05V-13.0381C2.87939 -13.0381 -8.46045 -1.65531 -8.46045 12.3861H4.52838ZM114.934 12.3861H127.922C127.922 -1.65528 116.583 -13.0381 102.594 -13.0381V-5.34058e-05V13.038C102.236 13.038 101.945 12.7461 101.945 12.3861H114.934Z" fill="#32BA46" fill-opacity="0.5"/>
</g>
</g>
<g opacity="0.5">
<mask id="mask1_11297_2186" style="mask-type:alpha" maskUnits="userSpaceOnUse" x="17" y="12" width="85" height="93">
<g opacity="0.5">
<path d="M17.4281 12.42H101.956V62.42C101.956 85.4318 83.372 104.087 60.447 104.087H58.9375C36.0125 104.087 17.4281 85.4318 17.4281 62.42V12.42Z" fill="#D9D9D9"/>
</g>
</mask>
<g mask="url(#mask1_11297_2186)">
<g opacity="0.25">
<path d="M74.2433 -114.095L59.6471 57.8291L45.0659 -114.095H74.2433Z" fill="white"/>
<path d="M-13.3567 -98.3826L59.6471 57.8294L-38.6171 -83.7386L-13.3567 -98.3826Z" fill="white"/>
<path d="M-81.3865 -40.8145L59.647 57.8295L-95.9752 -15.4584L-81.3865 -40.8145Z" fill="white"/>
<path d="M-111.629 43.1855L59.6469 57.8295L-111.629 72.4734V43.1855Z" fill="white"/>
<path d="M-95.9752 131.11L59.647 57.8295L-81.3865 156.473L-95.9752 131.11Z" fill="white"/>
<path d="M-38.6248 199.405L59.6469 57.8295L-13.3644 214.042L-38.6248 199.405Z" fill="white"/>
<path d="M45.0581 229.761L59.6469 57.8295L74.2355 229.761H45.0581Z" fill="white"/>
<path d="M132.651 214.049L59.647 57.8295L157.919 199.405L132.651 214.049Z" fill="white"/>
<path d="M200.688 156.481L59.647 57.8295L215.269 131.117L200.688 156.481Z" fill="white"/>
<path d="M230.93 72.4808L59.647 57.8293L230.93 43.1929V72.4808Z" fill="white"/>
<path d="M215.277 -15.4509L59.647 57.8294L200.688 -40.807L215.277 -15.4509Z" fill="white"/>
<path d="M157.926 -83.7386L59.647 57.8294L132.658 -98.3826L157.926 -83.7386Z" fill="white"/>
</g>
<path d="M59.2406 76.5053C54.1554 76.5053 49.1678 75.1548 44.7503 72.5909L33.4313 76.5053L35.7579 64.474C32.1109 59.4571 30.1885 53.5556 30.1885 47.3439C30.1885 31.2636 43.2215 18.1818 59.2406 18.1818C75.2618 18.1818 88.2934 31.2636 88.2934 47.3439C88.2934 63.4231 75.2618 76.5053 59.2406 76.5053Z" fill="#32BA46"/>
<path d="M59.2408 66.3946C55.9191 66.3946 52.6605 65.5119 49.775 63.8367L42.3804 66.3946L43.8994 58.534C41.5176 55.2563 40.2615 51.4016 40.2615 47.3426C40.2615 36.8377 48.7755 28.2914 59.2408 28.2914C69.7068 28.2914 78.2209 36.8377 78.2209 47.3426C78.2209 57.848 69.7068 66.3946 59.2408 66.3946ZM50.1157 60.7211L50.6876 61.0805C53.2649 62.7026 56.223 63.5598 59.2406 63.5598C68.15 63.5598 75.3973 56.285 75.3973 47.3426C75.3973 38.401 68.15 31.1262 59.2406 31.1262C50.3326 31.1262 43.0853 38.401 43.0853 47.3426C43.0853 50.9808 44.2727 54.4282 46.5169 57.3112L46.9138 57.8205L46.0831 62.1155L50.1157 60.7211Z" fill="white"/>
<path d="M49.6591 40.0233C49.6591 40.0233 50.7734 38.0694 51.6808 37.9578C52.5887 37.8456 53.7577 37.8456 54.0725 38.4413C54.388 39.0364 55.7963 42.4987 55.7963 42.4987C55.7963 42.4987 56.0382 43.0941 55.6674 43.6713C55.2967 44.2481 54.4624 45.0853 54.4624 45.0853C54.4624 45.0853 53.9988 45.6807 54.4624 46.3138C54.9259 46.946 55.6449 48.1095 57.1325 49.601C58.6176 51.0935 61.4699 52.1576 61.4699 52.1576C61.4699 52.1576 61.8782 52.213 62.1383 51.9528C62.397 51.6922 63.8069 49.9241 63.8069 49.9241C63.8069 49.9241 64.2591 49.3384 65.0111 49.6824C65.7617 50.0264 69.0154 51.6551 69.0154 51.6551C69.0154 51.6551 69.396 51.7943 69.396 52.3712C69.396 52.9479 69.1634 54.3597 68.688 54.8367C68.2122 55.3145 66.8223 56.7857 64.7327 56.7857C62.6436 56.7857 57.6684 55.079 55.0172 52.4183C52.366 49.7566 50.012 47.0576 49.4564 44.6019C48.8998 42.1453 48.9744 41.0351 49.6591 40.0233Z" fill="white"/>
<path d="M23.4229 24.1915L27.2643 24.9297L27.8918 28.7604C27.8978 28.797 27.951 28.797 27.957 28.7604L28.5846 24.9297L32.426 24.1915C32.4615 24.1846 32.4617 24.1342 32.4261 24.1272L28.5846 23.3737L27.957 19.7241C27.9509 19.6878 27.8981 19.6878 27.892 19.7241L27.2644 23.3737L23.4229 24.1272C23.3872 24.1342 23.3872 24.1846 23.4229 24.1915Z" fill="#8ED999"/>
<path opacity="0.7" d="M21.1504 33.8097L23.7938 34.2613L24.2257 36.6044C24.2298 36.6269 24.2664 36.6269 24.2705 36.6044L24.7024 34.2613L27.3458 33.8097C27.3702 33.8055 27.3704 33.7746 27.3458 33.7704L24.7022 33.3094L24.2704 31.0771C24.2661 31.055 24.2299 31.055 24.2255 31.0771L23.7936 33.3094L21.15 33.7704C21.1258 33.7746 21.126 33.8055 21.1504 33.8097Z" fill="white"/>
<path opacity="0.7" d="M88.3199 23.2036L90.9636 23.6552L91.3953 25.9983C91.3999 26.0208 91.4361 26.0208 91.4406 25.9983L91.8723 23.6552L94.5153 23.2036C94.5402 23.1994 94.5402 23.1686 94.5153 23.1643L91.8723 22.7033L91.4399 20.4711C91.4361 20.4489 91.3999 20.4489 91.3953 20.4711L90.9636 22.7033L88.3199 23.1643C88.2957 23.1686 88.2957 23.1994 88.3199 23.2036Z" fill="white"/>
<path fill-rule="evenodd" clip-rule="evenodd" d="M59.2405 18.1818C67.3479 18.1818 74.6885 21.5331 79.9637 26.9265C80.0762 27.0377 80.1879 27.1499 80.2988 27.2631C80.4271 27.3897 80.5539 27.518 80.6799 27.647C80.7841 27.7501 80.8875 27.8538 80.9901 27.9585C81.1116 28.0784 81.2324 28.199 81.3524 28.321C81.4716 28.4393 81.5901 28.5588 81.7079 28.679C81.8346 28.804 81.9599 28.9299 82.0837 29.0571C82.1969 29.1689 82.3086 29.2816 82.4203 29.3952C82.5328 29.5065 82.6445 29.6187 82.7554 29.7318C82.8784 29.8535 83.0007 29.9765 83.1214 30.1002C83.2294 30.2065 83.3358 30.3135 83.4414 30.4213C83.5803 30.5582 83.7177 30.6968 83.8535 30.8364C83.9524 30.9344 84.0505 31.0329 84.1486 31.1323C84.2746 31.2572 84.4007 31.3832 84.5252 31.5104C84.6377 31.6218 84.7494 31.7344 84.8603 31.8477C84.9833 31.9693 85.1056 32.0917 85.2263 32.2154C85.3448 32.3324 85.4626 32.4501 85.5788 32.569C85.6807 32.67 85.7818 32.7721 85.8822 32.8746C86.0263 33.0163 86.169 33.1597 86.3101 33.3044C86.409 33.4026 86.5071 33.5015 86.6045 33.6011C86.7365 33.7309 86.8671 33.8617 86.9961 33.994C87.0965 34.0934 87.1962 34.1934 87.2958 34.2943C87.4309 34.4281 87.5652 34.5634 87.6988 34.6997C87.8097 34.8096 87.9192 34.9203 88.0286 35.0319C88.1448 35.1469 88.2611 35.2627 88.375 35.3796C88.486 35.489 88.5954 35.5993 88.7048 35.7103C88.8384 35.8421 88.9705 35.9755 89.1018 36.1098C89.2097 36.2164 89.3162 36.3234 89.4226 36.4316C89.5403 36.5481 89.6573 36.6654 89.7735 36.7838C89.8912 36.9003 90.0082 37.0182 90.1245 37.1367C90.2528 37.2635 90.3796 37.3915 90.5056 37.5206C90.6165 37.6302 90.7267 37.7408 90.8354 37.8521C90.9501 37.9654 91.0641 38.0795 91.1765 38.1946C91.2943 38.311 91.4113 38.4284 91.5275 38.5468C91.6611 38.6787 91.7931 38.8126 91.9237 38.9471C92.018 39.0404 92.1116 39.1343 92.2044 39.2289C92.3411 39.3635 92.4769 39.4993 92.6105 39.6365C92.7146 39.7394 92.818 39.8429 92.9207 39.9473C93.0452 40.0705 93.169 40.1947 93.292 40.3202C93.4067 40.4334 93.5207 40.5475 93.6331 40.6627C93.7614 40.7895 93.889 40.9175 94.015 41.0466C94.1275 41.1583 94.2392 41.2712 94.3501 41.3847C94.458 41.4909 94.5645 41.598 94.6701 41.7059C94.7931 41.8273 94.9154 41.9499 95.0361 42.0735C95.1599 42.195 95.2814 42.3175 95.4029 42.4412C95.5229 42.56 95.6422 42.6799 95.7599 42.8008C95.8799 42.9189 95.9977 43.038 96.1154 43.1581C96.2241 43.2659 96.3327 43.3748 96.4399 43.4843C96.5577 43.6009 96.6746 43.7187 96.7909 43.8372C96.9116 43.9571 97.0324 44.0778 97.1516 44.1998C97.2663 44.313 97.3803 44.4271 97.4928 44.5423C97.6105 44.6587 97.7275 44.7761 97.8437 44.8944C97.9614 45.0109 98.0784 45.1288 98.1946 45.2474C98.323 45.3741 98.4505 45.5021 98.5765 45.6313C98.6912 45.7448 98.8045 45.8592 98.9177 45.9746C99.0263 46.0821 99.1343 46.1909 99.2414 46.3001C99.3629 46.4204 99.4837 46.5417 99.6037 46.6641C99.729 46.7875 99.8528 46.9121 99.975 47.0377C100.084 47.1457 100.193 47.2543 100.3 47.364C100.42 47.4823 100.539 47.6016 100.657 47.7221C100.773 47.8365 100.888 47.9519 101.002 48.0683C101.125 48.1899 101.247 48.3129 101.368 48.4367C101.487 48.5548 101.606 48.674 101.724 48.794C101.84 48.9092 101.955 49.0254 102.07 49.1425C102.188 49.2593 102.305 49.3773 102.421 49.4962C102.529 49.6021 102.635 49.7089 102.74 49.8165C102.878 49.952 103.014 50.0889 103.149 50.2271C103.244 50.321 103.337 50.4159 103.431 50.5112C103.563 50.6412 103.694 50.7722 103.824 50.9047C103.94 51.0199 104.056 51.1362 104.17 51.2532C104.284 51.3662 104.398 51.4801 104.511 51.595C104.627 51.7094 104.742 51.8249 104.856 51.9412C104.986 52.0698 105.115 52.2001 105.243 52.3311C105.352 52.4396 105.461 52.5487 105.569 52.6589C105.685 52.7734 105.8 52.8887 105.914 53.0051C106.038 53.1268 106.159 53.2497 106.281 53.3735C106.398 53.4901 106.515 53.6078 106.632 53.7264C106.749 53.843 106.866 53.9607 106.982 54.0793C107.095 54.1906 107.207 54.3027 107.318 54.4159C107.438 54.5342 107.555 54.6537 107.673 54.774C107.788 54.8869 107.902 55.0003 108.014 55.1151C108.144 55.2437 108.273 55.374 108.401 55.5049C108.509 55.6115 108.616 55.7186 108.721 55.8268C108.839 55.9431 108.956 56.0605 109.072 56.1789C109.201 56.3055 109.327 56.4339 109.454 56.5629C109.561 56.6694 109.668 56.7765 109.774 56.8847C109.9 57.0083 110.023 57.1332 110.146 57.259C110.252 57.3634 110.356 57.4684 110.46 57.5742C110.587 57.699 110.712 57.8252 110.836 57.9523C110.956 58.0707 111.075 58.1899 111.193 58.3103C111.3 58.4165 111.407 58.5236 111.512 58.6315C111.652 58.7684 111.789 58.9068 111.925 59.0465C112.024 59.1443 112.122 59.243 112.22 59.3424C112.346 59.4675 112.472 59.5937 112.597 59.7212C112.709 59.8325 112.821 59.9446 112.932 60.0578C113.063 60.1868 113.192 60.317 113.321 60.4484C113.426 60.5527 113.53 60.6577 113.634 60.7636C113.749 60.8768 113.863 60.991 113.975 61.1062C114.112 61.2412 114.247 61.3775 114.382 61.5153C114.484 61.6166 114.586 61.7187 114.686 61.8215C114.806 61.9398 114.924 62.0593 115.042 62.1796C120.404 67.4731 123.734 74.8327 123.734 82.9598C123.734 99.0393 110.702 112.121 94.6814 112.121C89.5962 112.121 84.6082 110.77 80.1901 108.207L68.8719 112.121L68.97 111.612L68.5204 111.768L68.6183 111.261L68.1695 111.416L68.2675 110.907L67.8194 111.063L67.9174 110.554L67.4678 110.711L67.5659 110.203L67.1171 110.358L67.2151 109.85L66.7662 110.005L66.8642 109.497L66.4154 109.652L66.5134 109.145L66.0645 109.3L66.1626 108.792L65.7137 108.948L65.8118 108.439L65.3629 108.595L65.4609 108.086L65.0113 108.242L65.1094 107.733L64.6605 107.889L64.7578 107.382L64.3104 107.537L64.4085 107.028L63.9589 107.184L64.0569 106.676L63.6081 106.832L63.706 106.324L63.2572 106.479L63.3553 105.971L62.9064 106.126L63.0045 105.618L62.5555 105.773L62.6536 105.266L62.2048 105.421L62.3028 104.912L61.8539 105.067L61.9519 104.56L61.5023 104.716L61.6004 104.208L61.1516 104.364L61.2496 103.855L60.8014 104.011L60.8995 103.502L60.4499 103.658L60.5479 103.149L60.099 103.304L60.1971 102.797L59.7482 102.952L59.8463 102.445L59.3974 102.6L59.4954 102.092L59.0466 102.248L59.1446 101.738L58.6958 101.894L58.7938 101.386L58.3449 101.542L58.4429 101.033L57.9934 101.189L58.0914 100.681L57.6433 100.836L57.7413 100.328L57.2917 100.484L57.389 99.9772L56.9409 100.133L57.0389 99.6219L56.59 99.778L56.6873 99.2711L56.2392 99.4265L56.3373 98.9189L55.8891 99.0742L55.9872 98.5651L55.5376 98.7212L55.6356 98.2128L55.1868 98.3681L55.2848 97.8605L54.8367 98.0159L54.9347 97.5068L54.4851 97.6628L54.5824 97.156L54.1343 97.3113L54.2323 96.8022L53.7827 96.9583L53.8808 96.4499L53.4319 96.606L53.5299 96.0977L53.0818 96.253L53.1799 95.7439L52.7303 95.8999L52.8283 95.3924L52.3794 95.5477L52.4774 95.0386L52.0294 95.1939L52.1273 94.6855L51.6777 94.8416L51.7758 94.334L51.3269 94.4893L51.425 93.9818L50.9762 94.1371L51.0741 93.6295L50.6253 93.7848L50.7233 93.2757L50.2737 93.4318L50.3718 92.9234L49.9229 93.0787L50.0209 92.5704L49.5728 92.7257L49.6709 92.2174L49.2213 92.3734L49.3192 91.8659L48.8704 92.0212L48.9685 91.5121L48.5196 91.6674L48.6169 91.1606L48.1688 91.3159L48.2668 90.8075L47.818 90.9628L47.916 90.4545L47.4671 90.6098L47.5651 90.103L47.1163 90.2583L47.2143 89.7499L46.7655 89.9053L46.8635 89.3962L46.4139 89.5522L46.5119 89.0439L46.0639 89.1992L46.1611 88.6916L45.7122 88.8477L45.8103 88.3371L45.3614 88.4939L45.4587 87.9871L45.0113 88.1424L45.1094 87.6333L44.6598 87.7893L44.7578 87.2818L44.309 87.4371L44.407 86.9287L43.9581 87.084L44.0562 86.5757L43.6073 86.731L43.7054 86.2227L43.2565 86.3787L43.3545 85.8712L42.9057 86.0265L43.0037 85.5174L42.5549 85.6727L42.6522 85.1651L42.2032 85.3212L42.3013 84.8128L41.8525 84.9681L41.9505 84.4605L41.5016 84.6159L41.5996 84.1068L41.1516 84.2628L41.2496 83.7545L40.8 83.9106L40.898 83.4022L40.4491 83.5575L40.5472 83.0499L40.0983 83.2052L40.1964 82.6954L39.7475 82.8515L39.8448 82.3446L39.3967 82.4999L39.4947 81.9916L39.0458 82.1477L39.1439 81.6393L38.695 81.7946L38.7931 81.2855L38.3435 81.4416L38.4415 80.934L37.9926 81.0893L38.0906 80.5818L37.6426 80.7371L37.7405 80.2272L37.2909 80.3833L37.389 79.8765L36.9402 80.0318L37.0382 79.5242L36.5894 79.6795L36.6873 79.1712L36.2385 79.3265L36.3365 78.8181L35.8877 78.9734L35.9857 78.4651L35.5368 78.6204L35.6349 78.1121L35.186 78.2674L35.2833 77.7613L34.8352 77.9166L34.9332 77.4083L34.4844 77.5636L34.5824 77.0552L34.1336 77.2105L34.2316 76.7022L33.782 76.8583L33.88 76.3492L33.4312 76.5045L35.758 64.4738C32.1111 59.4569 30.1882 53.5555 30.1882 47.344C30.1882 31.2637 43.2214 18.1819 59.2405 18.1818Z" fill="url(#paint1_linear_11297_2186)"/>
</g>
</g>
<path d="M59.2408 76.5053C54.1557 76.5053 49.168 75.1548 44.7505 72.5909L33.4315 76.5053L35.7582 64.474C32.1111 59.4571 30.1887 53.5556 30.1887 47.3439C30.1887 31.2636 43.2217 18.1818 59.2408 18.1818C75.262 18.1818 88.2936 31.2636 88.2936 47.3439C88.2936 63.4231 75.262 76.5053 59.2408 76.5053Z" fill="url(#paint2_linear_11297_2186)"/>
<path d="M59.241 66.3946C55.9194 66.3946 52.6607 65.5119 49.7752 63.8367L42.3807 66.3946L43.8996 58.534C41.5178 55.2563 40.2617 51.4016 40.2617 47.3426C40.2617 36.8377 48.7758 28.2914 59.241 28.2914C69.7071 28.2914 78.2212 36.8377 78.2212 47.3426C78.2212 57.848 69.7071 66.3946 59.241 66.3946ZM50.1159 60.7211L50.6878 61.0805C53.2651 62.7026 56.2232 63.5598 59.2408 63.5598C68.1503 63.5598 75.3976 56.285 75.3976 47.3426C75.3976 38.401 68.1503 31.1262 59.2408 31.1262C50.3329 31.1262 43.0856 38.401 43.0856 47.3426C43.0856 50.9808 44.273 54.4282 46.5171 57.3112L46.914 57.8205L46.0834 62.1155L50.1159 60.7211Z" fill="white"/>
<path d="M49.6591 40.0234C49.6591 40.0234 50.7734 38.0695 51.6808 37.9579C52.5887 37.8457 53.7577 37.8457 54.0725 38.4414C54.388 39.0365 55.7963 42.4988 55.7963 42.4988C55.7963 42.4988 56.0382 43.0943 55.6674 43.6715C55.2967 44.2482 54.4624 45.0854 54.4624 45.0854C54.4624 45.0854 53.9988 45.6808 54.4624 46.314C54.9259 46.9461 55.6449 48.1096 57.1325 49.6011C58.6176 51.0936 61.4699 52.1577 61.4699 52.1577C61.4699 52.1577 61.8782 52.2131 62.1383 51.9529C62.397 51.6924 63.8069 49.9243 63.8069 49.9243C63.8069 49.9243 64.2591 49.3385 65.0111 49.6825C65.7617 50.0265 69.0154 51.6552 69.0154 51.6552C69.0154 51.6552 69.396 51.7944 69.396 52.3713C69.396 52.9481 69.1634 54.3599 68.688 54.8368C68.2122 55.3146 66.8223 56.7859 64.7327 56.7859C62.6436 56.7859 57.6684 55.0791 55.0172 52.4184C52.366 49.7567 50.012 47.0578 49.4564 44.6021C48.8998 42.1454 48.9744 41.0353 49.6591 40.0234Z" fill="white"/>
<path d="M102.497 113.02C101.468 115.252 98.7328 116.208 96.3819 115.273C72.8119 105.892 46.554 105.892 22.9848 115.273C20.6304 116.208 17.8971 115.254 16.8703 113.02C14.4833 107.708 12.0935 102.401 9.7065 97.0909C8.67963 94.8591 10.2651 91.9114 13.2851 90.7121C43.0834 78.8538 76.2838 78.8538 106.082 90.7121C109.1 91.9114 110.689 94.8591 109.662 97.0909C107.272 102.401 104.885 107.708 102.497 113.02Z" fill="#E6F7E8"/>
<path d="M54.9875 100H46.5271V98.3841L49.6366 95.556C51.0651 94.2568 51.7675 93.4644 51.7675 92.656C51.7675 92.1257 51.4203 91.6977 50.7336 91.6977C50.0391 91.6977 49.4157 91.9985 49.4157 93.678H46.4797C46.4797 91.5871 47.3163 88.9727 50.6547 88.9727C53.4012 88.9727 54.7428 90.6833 54.7428 92.656C54.7428 93.9795 54.072 95.1515 52.8329 96.1894L50.9704 97.75L52.2015 97.4492H54.9875V100ZM60.1885 100.277C58.0023 100.277 55.8872 99.2076 55.8162 96.1659H58.6969C58.76 97.1242 59.4387 97.5757 60.1885 97.5757C61.0645 97.5757 61.4434 97.0295 61.4434 96.3795C61.4434 95.5477 60.8672 95.2939 59.8806 95.2863L57.7025 95.2704L56.5186 94.2803L57.2526 89.2182H63.661V91.6182H59.7544L59.5334 93.2106H60.7093C63.006 93.2106 64.4108 94.3515 64.4108 96.403C64.4108 98.4 62.8166 100.277 60.1885 100.277ZM69.8643 100.277C66.5022 100.277 65.0422 97.6712 65.0422 94.6522C65.0422 91.5075 66.6522 88.9568 69.8564 88.9568C73.4079 88.9568 74.6865 91.6977 74.6865 94.6129C74.6865 97.6788 73.1711 100.277 69.8643 100.277ZM69.8643 97.5522C71.0008 97.5522 71.7111 96.4591 71.7111 94.6129C71.7111 92.7674 70.9929 91.6818 69.8485 91.6818C68.7357 91.6818 68.0175 92.775 68.0175 94.6212C68.0175 96.4666 68.7357 97.5522 69.8643 97.5522Z" fill="url(#paint3_linear_11297_2186)"/>
</g>
<defs>
<filter id="filter0_d_11297_2186" x="4.52832" y="0" width="110.405" height="124.342" filterUnits="userSpaceOnUse" color-interpolation-filters="sRGB">
<feFlood flood-opacity="0" result="BackgroundImageFix"/>
<feColorMatrix in="SourceAlpha" type="matrix" values="0 0 0 0 0 0 0 0 0 0 0 0 0 0 0 0 0 0 127 0" result="hardAlpha"/>
<feOffset dy="7"/>
<feComposite in2="hardAlpha" operator="out"/>
<feColorMatrix type="matrix" values="0 0 0 0 0.122874 0 0 0 0 0.501728 0 0 0 0 0.179702 0 0 0 1 0"/>
<feBlend mode="normal" in2="BackgroundImageFix" result="effect1_dropShadow_11297_2186"/>
<feBlend mode="normal" in="SourceGraphic" in2="effect1_dropShadow_11297_2186" result="shape"/>
</filter>
<linearGradient id="paint0_linear_11297_2186" x1="59.7303" y1="141.01" x2="56.1999" y2="-8.71149" gradientUnits="userSpaceOnUse">
<stop stop-color="#32BA46"/>
<stop offset="1" stop-color="white"/>
</linearGradient>
<linearGradient id="paint1_linear_11297_2186" x1="99.6226" y1="78.7878" x2="60.3033" y2="56.1892" gradientUnits="userSpaceOnUse">
<stop stop-color="white"/>
<stop offset="1" stop-color="#08C925"/>
</linearGradient>
<linearGradient id="paint2_linear_11297_2186" x1="72.8302" y1="35.606" x2="12.5609" y2="108.109" gradientUnits="userSpaceOnUse">
<stop stop-color="#67DD78"/>
<stop offset="1" stop-color="#7BDE8A"/>
</linearGradient>
<linearGradient id="paint3_linear_11297_2186" x1="65.876" y1="88.1674" x2="56.5367" y2="130.667" gradientUnits="userSpaceOnUse">
<stop stop-color="#67DD78"/>
<stop offset="1" stop-color="#225B2A"/>
</linearGradient>
<clipPath id="clip0_11297_2186">
<rect width="120" height="125" fill="white"/>
</clipPath>
</defs>
</svg>
