<svg width="159" height="165" viewBox="0 0 159 165" fill="none" xmlns="http://www.w3.org/2000/svg">
<path d="M133.235 123.043C132.049 122.55 130.674 123.118 130.179 124.304L120.5 149C120 149.5 112.5 153.5 113 153.5L142.259 164.575C145.254 165.826 147.292 164.223 146.789 161.019L146.117 156.737L145.442 152.464C145.442 152.464 145.442 152.463 145.442 152.46L144.527 146.631L149.306 143.176C149.306 143.176 149.307 143.172 149.311 143.172L152.817 140.639L156.333 138.101C158.959 136.201 158.658 133.626 155.66 132.38L133.235 123.043Z" fill="#C3F0C8"/>
<path d="M24.8862 123.043C26.0716 122.55 27.447 123.118 27.9416 124.304L37.6212 149C38.1211 149.5 45.6211 153.5 45.1211 153.5L15.8617 164.575C12.8667 165.826 10.8289 164.223 11.3322 161.019L12.0045 156.737L12.6792 152.464C12.6792 152.464 12.6792 152.463 12.6792 152.46L13.5945 146.631L8.81461 143.176C8.81461 143.176 8.81458 143.172 8.80964 143.172L5.30399 140.639L1.78843 138.101C-0.837749 136.201 -0.536755 133.626 2.46072 132.38L24.8862 123.043Z" fill="#C3F0C8"/>
<g filter="url(#filter0_d_17420_40290)">
<mask id="path-3-inside-1_17420_40290" fill="white">
<path d="M6 16.3497C6 7.32001 13.32 2.30986e-07 22.3497 5.15921e-07L135.937 4.10022e-06C144.967 4.38515e-06 152.287 7.32002 152.287 16.3497V85.1907C152.287 123.686 118.153 154.892 79.1435 154.892C40.1336 154.892 6 123.686 6 85.1907V16.3497Z"/>
</mask>
<path d="M6 16.3497C6 7.32001 13.32 2.30986e-07 22.3497 5.15921e-07L135.937 4.10022e-06C144.967 4.38515e-06 152.287 7.32002 152.287 16.3497V85.1907C152.287 123.686 118.153 154.892 79.1435 154.892C40.1336 154.892 6 123.686 6 85.1907V16.3497Z" fill="url(#paint0_linear_17420_40290)"/>
<path d="M152.287 16.3497H135.077V85.1907H152.287H169.497V16.3497H152.287ZM6 85.1907H23.2102V16.3497H6H-11.2102V85.1907H6ZM79.1435 154.892V137.682C48.631 137.682 23.2102 113.203 23.2102 85.1907H6H-11.2102C-11.2102 134.168 31.6362 172.102 79.1435 172.102V154.892ZM152.287 85.1907H135.077C135.077 113.203 109.656 137.682 79.1435 137.682V154.892V172.102C126.651 172.102 169.497 134.168 169.497 85.1907H152.287ZM22.3497 5.15921e-07V17.2102L135.937 17.2102V4.10022e-06V-17.2102L22.3497 -17.2102V5.15921e-07ZM6 16.3497H23.2102C23.2102 16.825 22.825 17.2102 22.3497 17.2102V5.15921e-07V-17.2102C3.81508 -17.2102 -11.2102 -2.18494 -11.2102 16.3497H6ZM152.287 16.3497H169.497C169.497 -2.1849 154.472 -17.2102 135.937 -17.2102V4.10022e-06V17.2102C135.462 17.2102 135.077 16.8249 135.077 16.3497H152.287Z" fill="#32BA46" fill-opacity="0.5" mask="url(#path-3-inside-1_17420_40290)"/>
</g>
<g opacity="0.5">
<mask id="mask0_17420_40290" style="mask-type:alpha" maskUnits="userSpaceOnUse" x="23" y="16" width="113" height="122">
<path d="M23.0923 16.3945H135.092V82.3945C135.092 112.77 110.468 137.395 80.0923 137.395H78.0923C47.7166 137.395 23.0923 112.77 23.0923 82.3945V16.3945Z" fill="#D9D9D9"/>
</mask>
<g mask="url(#mask0_17420_40290)">
<g opacity="0.25">
<path d="M98.3724 -150.605L79.0324 76.3345L59.7124 -150.605H98.3724Z" fill="white"/>
<path d="M-17.6975 -129.865L79.0325 76.3348L-51.1675 -110.535L-17.6975 -129.865Z" fill="white"/>
<path d="M-107.837 -53.875L79.0325 76.335L-127.167 -20.405L-107.837 -53.875Z" fill="white"/>
<path d="M-147.908 57.0049L79.0323 76.3349L-147.908 95.6649V57.0049Z" fill="white"/>
<path d="M-127.167 173.065L79.0325 76.335L-107.837 206.545L-127.167 173.065Z" fill="white"/>
<path d="M-51.1777 263.215L79.0323 76.335L-17.7077 282.535L-51.1777 263.215Z" fill="white"/>
<path d="M59.7021 303.285L79.0322 76.335L98.3622 303.285H59.7021Z" fill="white"/>
<path d="M175.762 282.545L79.0322 76.335L209.242 263.215L175.762 282.545Z" fill="white"/>
<path d="M265.912 206.555L79.0322 76.335L285.232 173.075L265.912 206.555Z" fill="white"/>
<path d="M305.982 95.6747L79.0322 76.3347L305.982 57.0146V95.6747Z" fill="white"/>
<path d="M285.242 -20.3952L79.0322 76.3348L265.912 -53.8652L285.242 -20.3952Z" fill="white"/>
<path d="M209.252 -110.535L79.0322 76.3348L175.772 -129.865L209.252 -110.535Z" fill="white"/>
</g>
<path d="M78.494 100.987C71.7562 100.987 65.1476 99.2044 59.2944 95.8201L44.2967 100.987L47.3795 85.1057C42.5472 78.4834 40 70.6934 40 62.494C40 41.268 57.2687 24 78.494 24C99.7221 24 116.989 41.268 116.989 62.494C116.989 83.7186 99.7221 100.987 78.494 100.987Z" fill="#32BA46"/>
<path d="M78.4943 87.641C74.0931 87.641 69.7754 86.4758 65.9521 84.2645L56.1543 87.641L58.1669 77.265C55.011 72.9384 53.3467 67.8502 53.3467 62.4923C53.3467 48.6259 64.6278 37.3447 78.4943 37.3447C92.3618 37.3447 103.643 48.6259 103.643 62.4923C103.643 76.3595 92.3618 87.641 78.4943 87.641ZM66.4035 80.1519L67.1613 80.6263C70.5762 82.7675 74.4957 83.899 78.494 83.899C90.299 83.899 99.9017 74.2963 99.9017 62.4923C99.9017 50.6894 90.299 41.0867 78.494 41.0867C66.691 41.0867 57.0883 50.6894 57.0883 62.4923C57.0883 67.2947 58.6616 71.8453 61.6351 75.6508L62.161 76.3231L61.0604 81.9925L66.4035 80.1519Z" fill="white"/>
<path d="M65.7983 52.8309C65.7983 52.8309 67.2748 50.2517 68.4771 50.1044C69.6801 49.9563 71.229 49.9563 71.6461 50.7426C72.0641 51.5282 73.9301 56.0984 73.9301 56.0984C73.9301 56.0984 74.2506 56.8844 73.7594 57.6463C73.2682 58.4076 72.1627 59.5127 72.1627 59.5127C72.1627 59.5127 71.5485 60.2986 72.1627 61.1344C72.7769 61.9688 73.7295 63.5047 75.7006 65.4734C77.6683 67.4435 81.4477 68.8481 81.4477 68.8481C81.4477 68.8481 81.9887 68.9213 82.3333 68.5778C82.6761 68.2339 84.5442 65.9 84.5442 65.9C84.5442 65.9 85.1433 65.1268 86.1398 65.5809C87.1343 66.035 91.4454 68.1848 91.4454 68.1848C91.4454 68.1848 91.9497 68.3686 91.9497 69.1301C91.9497 69.8914 91.6416 71.755 91.0116 72.3846C90.3812 73.0153 88.5396 74.9573 85.7709 74.9573C83.0028 74.9573 76.4107 72.7044 72.8978 69.1923C69.385 65.6788 66.2659 62.1162 65.5297 58.8747C64.7922 55.6319 64.8911 54.1665 65.7983 52.8309Z" fill="white"/>
<path d="M31.0355 31.9328L36.1253 32.9073L36.9568 37.9638C36.9648 38.0121 37.0353 38.0121 37.0432 37.9638L37.8748 32.9073L42.9646 31.9328C43.0116 31.9238 43.0119 31.8572 42.9648 31.848L37.8748 30.8533L37.0432 26.0359C37.0351 25.988 36.9652 25.988 36.9571 26.0359L36.1255 30.8533L31.0355 31.848C30.9882 31.8572 30.9882 31.9238 31.0355 31.9328Z" fill="#8ED999"/>
<path opacity="0.7" d="M28.0244 44.6289L31.5269 45.225L32.0992 48.3179C32.1046 48.3476 32.1532 48.3476 32.1586 48.3179L32.7309 45.225L36.2334 44.6289C36.2657 44.6233 36.266 44.5826 36.2334 44.577L32.7306 43.9685L32.1584 41.0219C32.1527 40.9927 32.1048 40.9927 32.0989 41.0219L31.5267 43.9685L28.0239 44.577C27.9918 44.5826 27.9921 44.6233 28.0244 44.6289Z" fill="white"/>
<path opacity="0.7" d="M117.024 30.6289L120.527 31.225L121.099 34.3179C121.105 34.3476 121.153 34.3476 121.159 34.3179L121.731 31.225L125.233 30.6289C125.266 30.6233 125.266 30.5826 125.233 30.577L121.731 29.9685L121.158 27.0219C121.153 26.9927 121.105 26.9927 121.099 27.0219L120.527 29.9685L117.024 30.577C116.992 30.5826 116.992 30.6233 117.024 30.6289Z" fill="white"/>
<path fill-rule="evenodd" clip-rule="evenodd" d="M78.4937 24C89.236 24 98.9624 28.4238 105.952 35.543C106.101 35.6899 106.249 35.8379 106.396 35.9873C106.566 36.1545 106.734 36.3238 106.901 36.4941C107.039 36.6302 107.176 36.7671 107.312 36.9053C107.473 37.0635 107.633 37.2228 107.792 37.3838C107.95 37.5399 108.107 37.6977 108.263 37.8564C108.431 38.0213 108.597 38.1876 108.761 38.3555C108.911 38.503 109.059 38.6518 109.207 38.8018C109.356 38.9487 109.504 39.0967 109.651 39.2461C109.814 39.4067 109.976 39.569 110.136 39.7324C110.279 39.8726 110.42 40.0139 110.56 40.1562C110.744 40.3369 110.926 40.5199 111.106 40.7041C111.237 40.8335 111.367 40.9635 111.497 41.0947C111.664 41.2596 111.831 41.4259 111.996 41.5938C112.145 41.7409 112.293 41.8895 112.44 42.0391C112.603 42.1995 112.765 42.3611 112.925 42.5244C113.082 42.6788 113.238 42.8342 113.392 42.9912C113.527 43.1245 113.661 43.2593 113.794 43.3945C113.985 43.5816 114.174 43.7709 114.361 43.9619C114.492 44.0915 114.622 44.2221 114.751 44.3535C114.926 44.5248 115.099 44.6975 115.27 44.8721C115.403 45.0033 115.535 45.1354 115.667 45.2686C115.846 45.4451 116.024 45.6237 116.201 45.8037C116.348 45.9487 116.493 46.0949 116.638 46.2422C116.792 46.394 116.946 46.5468 117.097 46.7012C117.244 46.8455 117.389 46.9911 117.534 47.1377C117.711 47.3117 117.886 47.4877 118.06 47.665C118.203 47.8057 118.344 47.947 118.485 48.0898C118.641 48.2435 118.796 48.3984 118.95 48.5547C119.106 48.7085 119.261 48.8641 119.415 49.0205C119.585 49.1879 119.753 49.3569 119.92 49.5273C120.067 49.672 120.213 49.8179 120.357 49.9648C120.509 50.1144 120.66 50.265 120.809 50.417C120.965 50.5706 121.12 50.7256 121.274 50.8818C121.451 51.056 121.626 51.2327 121.799 51.4102C121.924 51.5334 122.048 51.6573 122.171 51.7822C122.352 51.9599 122.532 52.1392 122.709 52.3203C122.847 52.4561 122.984 52.5927 123.12 52.7305C123.285 52.8931 123.449 53.0571 123.612 53.2227C123.764 53.3722 123.915 53.5228 124.064 53.6748C124.234 53.8422 124.403 54.0112 124.57 54.1816C124.719 54.329 124.867 54.4781 125.014 54.6279C125.157 54.7681 125.298 54.9094 125.438 55.0518C125.601 55.2121 125.763 55.374 125.923 55.5371C126.087 55.6975 126.248 55.8592 126.409 56.0225C126.568 56.1793 126.726 56.3375 126.882 56.4971C127.041 56.653 127.197 56.8102 127.353 56.9688C127.497 57.1111 127.641 57.2548 127.783 57.3994C127.939 57.5532 128.094 57.7088 128.248 57.8652C128.408 58.0234 128.568 58.1828 128.726 58.3438C128.878 58.4933 129.029 58.6439 129.178 58.7959C129.334 58.9495 129.489 59.1045 129.643 59.2607C129.799 59.4145 129.954 59.5701 130.108 59.7266C130.278 59.8939 130.447 60.0629 130.614 60.2334C130.766 60.3832 130.916 60.5342 131.066 60.6865C131.21 60.8285 131.353 60.972 131.495 61.1162C131.656 61.275 131.816 61.4351 131.975 61.5967C132.141 61.7596 132.305 61.924 132.467 62.0898C132.612 62.2324 132.756 62.3757 132.898 62.5205C133.057 62.6767 133.214 62.8342 133.371 62.9932C133.524 63.1443 133.677 63.2966 133.828 63.4502C133.991 63.6108 134.153 63.7731 134.313 63.9365C134.471 64.0924 134.628 64.2497 134.784 64.4082C134.938 64.5602 135.091 64.7136 135.243 64.8682C135.399 65.0224 135.554 65.1781 135.708 65.335C135.851 65.4748 135.991 65.6158 136.131 65.7578C136.314 65.9367 136.494 66.1174 136.672 66.2998C136.798 66.4238 136.922 66.5491 137.046 66.6748C137.221 66.8465 137.395 67.0194 137.567 67.1943C137.721 67.3463 137.874 67.4998 138.026 67.6543C138.177 67.8035 138.328 67.9538 138.477 68.1055C138.631 68.2565 138.783 68.4089 138.934 68.5625C139.107 68.7322 139.277 68.9042 139.447 69.0771C139.592 69.2203 139.736 69.3643 139.879 69.5098C140.033 69.6609 140.185 69.8132 140.336 69.9668C140.5 70.1274 140.661 70.2897 140.822 70.4531C140.978 70.607 141.133 70.7624 141.287 70.9189C141.443 71.0729 141.598 71.2282 141.751 71.3848C141.901 71.5317 142.049 71.6797 142.196 71.8291C142.355 71.9852 142.511 72.143 142.667 72.3018C142.819 72.4508 142.97 72.6005 143.119 72.752C143.291 72.9217 143.462 73.0937 143.631 73.2666C143.774 73.4072 143.916 73.5486 144.056 73.6914C144.212 73.845 144.367 74 144.521 74.1562C144.691 74.3234 144.859 74.4928 145.026 74.6631C145.168 74.8037 145.31 74.9451 145.451 75.0879C145.617 75.251 145.781 75.4159 145.944 75.582C146.084 75.7197 146.222 75.8583 146.36 75.998C146.528 76.1627 146.693 76.3294 146.858 76.4971C147.017 76.6534 147.174 76.8107 147.331 76.9697C147.473 77.1099 147.614 77.2512 147.754 77.3936C147.939 77.5743 148.121 77.757 148.301 77.9414C148.432 78.0706 148.562 78.2009 148.691 78.332C148.859 78.4972 149.026 78.6638 149.191 78.832C149.34 78.979 149.488 79.127 149.635 79.2764C149.808 79.4466 149.98 79.6185 150.15 79.792C150.289 79.9296 150.428 80.0683 150.565 80.208C150.717 80.3574 150.868 80.5082 151.017 80.6602C151.199 80.8384 151.378 81.0184 151.556 81.2002C151.692 81.334 151.826 81.4688 151.959 81.6045C152.118 81.7606 152.275 81.9184 152.431 82.0771C159.535 89.0645 163.947 98.7792 163.947 109.507C163.947 130.732 146.68 148 125.453 148C118.715 148 112.106 146.217 106.252 142.833L91.2554 148L91.3853 147.328L90.7896 147.534L90.9194 146.864L90.3247 147.069L90.4546 146.397L89.8608 146.603L89.9907 145.932L89.395 146.138L89.5249 145.468L88.9302 145.673L89.0601 145.002L88.4653 145.207L88.5952 144.536L88.0005 144.741L88.1304 144.071L87.5356 144.276L87.6655 143.605L87.0708 143.811L87.2007 143.14L86.606 143.345L86.7358 142.673L86.1401 142.879L86.27 142.208L85.6753 142.413L85.8042 141.744L85.2114 141.949L85.3413 141.277L84.7456 141.483L84.8755 140.812L84.2808 141.018L84.4106 140.348L83.8159 140.553L83.9458 139.882L83.3511 140.087L83.481 139.416L82.8862 139.621L83.0161 138.951L82.4214 139.156L82.5513 138.484L81.9565 138.689L82.0864 138.019L81.4907 138.225L81.6206 137.555L81.0259 137.76L81.1558 137.089L80.562 137.294L80.6919 136.623L80.0962 136.829L80.2261 136.157L79.6313 136.362L79.7612 135.692L79.1665 135.897L79.2964 135.227L78.7017 135.432L78.8315 134.762L78.2368 134.967L78.3667 134.294L77.772 134.5L77.9019 133.83L77.3071 134.035L77.437 133.364L76.8413 133.57L76.9712 132.899L76.3774 133.104L76.5073 132.433L75.9116 132.639L76.0405 131.97L75.4468 132.175L75.5767 131.501L74.9819 131.707L75.1108 131.038L74.5171 131.243L74.647 130.573L74.0532 130.778L74.1831 130.106L73.5874 130.312L73.7173 129.641L73.1226 129.846L73.2524 129.176L72.6587 129.381L72.7886 128.709L72.1929 128.915L72.3218 128.246L71.728 128.451L71.8579 127.779L71.2622 127.985L71.3921 127.314L70.7974 127.52L70.9272 126.849L70.3335 127.054L70.4634 126.382L69.8677 126.588L69.9976 125.918L69.4028 126.123L69.5327 125.451L68.939 125.656L69.0688 124.985L68.4731 125.191L68.603 124.521L68.0083 124.726L68.1382 124.056L67.5435 124.261L67.6733 123.591L67.0786 123.796L67.2085 123.124L66.6128 123.33L66.7427 122.659L66.1479 122.864L66.2778 122.193L65.6841 122.398L65.814 121.727L65.2183 121.933L65.3481 121.263L64.7534 121.468L64.8833 120.796L64.2886 121.001L64.4175 120.332L63.8237 120.537L63.9536 119.866L63.3589 120.071L63.4888 119.4L62.894 119.605L63.0239 118.936L62.4292 119.141L62.5591 118.47L61.9644 118.675L62.0942 118.003L61.4985 118.209L61.6284 117.538L61.0347 117.743L61.1636 117.073L60.5688 117.279L60.6987 116.605L60.104 116.812L60.2329 116.143L59.6401 116.348L59.77 115.676L59.1743 115.882L59.3042 115.212L58.7095 115.417L58.8394 114.746L58.2446 114.951L58.3745 114.28L57.7798 114.485L57.9097 113.814L57.3149 114.02L57.4448 113.35L56.8501 113.555L56.98 112.883L56.3853 113.088L56.5142 112.418L55.9194 112.624L56.0493 111.953L55.4546 112.158L55.5845 111.488L54.9897 111.693L55.1196 111.021L54.5259 111.227L54.6558 110.556L54.0601 110.762L54.1899 110.091L53.5952 110.296L53.7251 109.626L53.1304 109.831L53.2603 109.158L52.6655 109.364L52.7944 108.695L52.2007 108.9L52.3306 108.229L51.7358 108.435L51.8657 107.764L51.271 107.969L51.4009 107.297L50.8052 107.503L50.9351 106.833L50.3403 107.038L50.4702 106.368L49.8765 106.573L50.0063 105.9L49.4106 106.106L49.5405 105.437L48.9458 105.642L49.0757 104.972L48.481 105.177L48.6108 104.506L48.0161 104.711L48.146 104.04L47.5513 104.245L47.6812 103.574L47.0864 103.779L47.2163 103.108L46.6216 103.313L46.7505 102.645L46.1567 102.85L46.2866 102.179L45.6919 102.384L45.8218 101.713L45.2271 101.918L45.3569 101.247L44.7612 101.453L44.8911 100.781L44.2964 100.986L47.3794 85.1055C42.5473 78.4832 39.9995 70.6934 39.9995 62.4941C39.9995 41.2682 57.2685 24.0002 78.4937 24Z" fill="url(#paint1_linear_17420_40290)"/>
</g>
</g>
<path d="M78.494 100.987C71.7562 100.987 65.1476 99.2044 59.2944 95.8201L44.2967 100.987L47.3795 85.1057C42.5472 78.4834 40 70.6934 40 62.494C40 41.268 57.2687 24 78.494 24C99.7221 24 116.989 41.268 116.989 62.494C116.989 83.7186 99.7221 100.987 78.494 100.987Z" fill="url(#paint2_linear_17420_40290)"/>
<path d="M78.4943 87.641C74.0931 87.641 69.7754 86.4758 65.9521 84.2645L56.1543 87.641L58.1669 77.265C55.011 72.9384 53.3467 67.8502 53.3467 62.4923C53.3467 48.6259 64.6278 37.3447 78.4943 37.3447C92.3618 37.3447 103.643 48.6259 103.643 62.4923C103.643 76.3595 92.3618 87.641 78.4943 87.641ZM66.4035 80.1519L67.1613 80.6263C70.5762 82.7675 74.4957 83.899 78.494 83.899C90.299 83.899 99.9017 74.2963 99.9017 62.4923C99.9017 50.6894 90.299 41.0867 78.494 41.0867C66.691 41.0867 57.0883 50.6894 57.0883 62.4923C57.0883 67.2947 58.6616 71.8453 61.6351 75.6508L62.161 76.3231L61.0604 81.9925L66.4035 80.1519Z" fill="white"/>
<path d="M65.7983 52.8309C65.7983 52.8309 67.2748 50.2517 68.4771 50.1044C69.6801 49.9563 71.229 49.9563 71.6461 50.7426C72.0641 51.5282 73.9301 56.0984 73.9301 56.0984C73.9301 56.0984 74.2506 56.8844 73.7594 57.6463C73.2682 58.4076 72.1627 59.5127 72.1627 59.5127C72.1627 59.5127 71.5485 60.2986 72.1627 61.1344C72.7769 61.9688 73.7295 63.5047 75.7006 65.4734C77.6683 67.4435 81.4477 68.8481 81.4477 68.8481C81.4477 68.8481 81.9887 68.9213 82.3333 68.5778C82.6761 68.2339 84.5442 65.9 84.5442 65.9C84.5442 65.9 85.1433 65.1268 86.1398 65.5809C87.1343 66.035 91.4454 68.1848 91.4454 68.1848C91.4454 68.1848 91.9497 68.3686 91.9497 69.1301C91.9497 69.8914 91.6416 71.755 91.0116 72.3846C90.3812 73.0153 88.5396 74.9573 85.7709 74.9573C83.0028 74.9573 76.4107 72.7044 72.8978 69.1923C69.385 65.6788 66.2659 62.1162 65.5297 58.8747C64.7922 55.6319 64.8911 54.1665 65.7983 52.8309Z" fill="white"/>
<path d="M135.808 149.186C134.445 152.132 130.821 153.394 127.706 152.161C96.4757 139.777 61.6841 139.777 30.4549 152.161C27.3353 153.394 23.7137 152.135 22.3531 149.186C19.1903 142.174 16.0239 135.169 12.8611 128.16C11.5005 125.214 13.6012 121.323 17.6028 119.74C57.0855 104.087 101.076 104.087 140.558 119.74C144.557 121.323 146.663 125.214 145.302 128.16C142.135 135.169 138.972 142.175 135.808 149.186Z" fill="#E6F7E8"/>
<path d="M72.8584 132H61.6483V129.867L65.7685 126.134C67.6612 124.419 68.5919 123.373 68.5919 122.306C68.5919 121.606 68.1318 121.041 67.222 121.041C66.3018 121.041 65.4757 121.438 65.4757 123.655H61.5856C61.5856 120.895 62.6941 117.444 67.1174 117.444C70.7565 117.444 72.5342 119.702 72.5342 122.306C72.5342 124.053 71.6454 125.6 70.0036 126.97L67.5357 129.03L69.167 128.633H72.8584V132ZM79.7497 132.366C76.853 132.366 74.0505 130.954 73.9564 126.939H77.7733C77.8569 128.204 78.7562 128.8 79.7497 128.8C80.9104 128.8 81.4124 128.079 81.4124 127.221C81.4124 126.123 80.649 125.788 79.3418 125.778L76.4557 125.757L74.8871 124.45L75.8596 117.768H84.3508V120.936H79.1745L78.8817 123.038H80.4398C83.4829 123.038 85.3442 124.544 85.3442 127.252C85.3442 129.888 83.2319 132.366 79.7497 132.366ZM92.5701 132.366C88.1154 132.366 86.1808 128.926 86.1808 124.941C86.1808 120.79 88.3141 117.423 92.5597 117.423C97.2654 117.423 98.9595 121.041 98.9595 124.889C98.9595 128.936 96.9517 132.366 92.5701 132.366ZM92.5701 128.769C94.076 128.769 95.0171 127.326 95.0171 124.889C95.0171 122.453 94.0655 121.02 92.5492 121.02C91.0748 121.02 90.1232 122.463 90.1232 124.9C90.1232 127.336 91.0748 128.769 92.5701 128.769Z" fill="url(#paint3_linear_17420_40290)"/>
<defs>
<filter id="filter0_d_17420_40290" x="6" y="0" width="146.287" height="161.892" filterUnits="userSpaceOnUse" color-interpolation-filters="sRGB">
<feFlood flood-opacity="0" result="BackgroundImageFix"/>
<feColorMatrix in="SourceAlpha" type="matrix" values="0 0 0 0 0 0 0 0 0 0 0 0 0 0 0 0 0 0 127 0" result="hardAlpha"/>
<feOffset dy="7"/>
<feComposite in2="hardAlpha" operator="out"/>
<feColorMatrix type="matrix" values="0 0 0 0 0.122874 0 0 0 0 0.501728 0 0 0 0 0.179702 0 0 0 1 0"/>
<feBlend mode="normal" in2="BackgroundImageFix" result="effect1_dropShadow_17420_40290"/>
<feBlend mode="normal" in="SourceGraphic" in2="effect1_dropShadow_17420_40290" result="shape"/>
</filter>
<linearGradient id="paint0_linear_17420_40290" x1="79.1426" y1="186.133" x2="74.5" y2="-11.5" gradientUnits="userSpaceOnUse">
<stop stop-color="#32BA46"/>
<stop offset="1" stop-color="white"/>
</linearGradient>
<linearGradient id="paint1_linear_17420_40290" x1="132" y1="104" x2="80" y2="74" gradientUnits="userSpaceOnUse">
<stop stop-color="white"/>
<stop offset="1" stop-color="#08C925"/>
</linearGradient>
<linearGradient id="paint2_linear_17420_40290" x1="96.5" y1="47" x2="17" y2="143" gradientUnits="userSpaceOnUse">
<stop stop-color="#67DD78"/>
<stop offset="1" stop-color="#7BDE8A"/>
</linearGradient>
<linearGradient id="paint3_linear_17420_40290" x1="87.2856" y1="116.381" x2="75" y2="172.5" gradientUnits="userSpaceOnUse">
<stop stop-color="#67DD78"/>
<stop offset="1" stop-color="#225B2A"/>
</linearGradient>
</defs>
</svg>
