<svg width="120" height="120" viewBox="0 0 120 120" fill="none" xmlns="http://www.w3.org/2000/svg">
<path d="M50.9249 12.3525C51.9697 10.9265 53.3358 9.76677 54.9125 8.96736C56.4892 8.16794 58.2321 7.75134 59.9999 7.75134C61.7677 7.75134 63.5106 8.16794 65.0873 8.96736C66.664 9.76677 68.0302 10.9265 69.0749 12.3525L71.8499 16.1475C74.3324 19.5225 78.4874 21.2475 82.6274 20.61L87.2774 19.8975C89.023 19.6299 90.8071 19.777 92.4852 20.3268C94.1634 20.8767 95.6886 21.8139 96.9373 23.0626C98.1861 24.3114 99.1233 25.8365 99.6731 27.5147C100.223 29.1929 100.37 30.9769 100.102 32.7225L99.3899 37.3725C99.079 39.4041 99.3306 41.482 100.117 43.3806C100.904 45.2793 102.196 46.9262 103.852 48.1425L107.647 50.9325C109.071 51.9776 110.228 53.343 111.025 54.9183C111.823 56.4935 112.238 58.2344 112.238 60C112.238 61.7657 111.823 63.5065 111.025 65.0818C110.228 66.657 109.071 68.0224 107.647 69.0675L103.852 71.8575C102.196 73.0738 100.904 74.7207 100.117 76.6194C99.3306 78.5181 99.079 80.596 99.3899 82.6275L100.102 87.2775C100.37 89.0231 100.223 90.8072 99.6731 92.4853C99.1233 94.1635 98.1861 95.6887 96.9373 96.9374C95.6886 98.1861 94.1634 99.1234 92.4852 99.6732C90.8071 100.223 89.023 100.37 87.2774 100.103L82.6274 99.39C80.5959 99.0791 78.518 99.3307 76.6193 100.117C74.7206 100.904 73.0738 102.196 71.8574 103.853L69.0674 107.648C68.0223 109.071 66.6569 110.228 65.0817 111.025C63.5064 111.823 61.7656 112.238 59.9999 112.238C58.2343 112.238 56.4934 111.823 54.9182 111.025C53.3429 110.228 51.9775 109.071 50.9324 107.648L48.1424 103.853C46.9261 102.196 45.2792 100.904 43.3805 100.117C41.4819 99.3307 39.404 99.0791 37.3724 99.39L32.7224 100.103C30.9769 100.37 29.1928 100.223 27.5146 99.6732C25.8364 99.1234 24.3113 98.1861 23.0625 96.9374C21.8138 95.6887 20.8766 94.1635 20.3267 92.4853C19.7769 90.8072 19.6298 89.0231 19.8974 87.2775L20.6099 82.6275C20.9208 80.596 20.6692 78.5181 19.8825 76.6194C19.0958 74.7207 17.8041 73.0738 16.1474 71.8575L12.3524 69.0675C10.9293 68.0224 9.77218 66.657 8.97462 65.0818C8.17706 63.5065 7.76147 61.7657 7.76147 60C7.76147 58.2344 8.17706 56.4935 8.97462 54.9183C9.77218 53.343 10.9293 51.9776 12.3524 50.9325L16.1474 48.1425C17.8041 46.9262 19.0958 45.2793 19.8825 43.3806C20.6692 41.482 20.9208 39.4041 20.6099 37.3725L19.8974 32.7225C19.6298 30.9769 19.7769 29.1929 20.3267 27.5147C20.8766 25.8365 21.8138 24.3114 23.0625 23.0626C24.3113 21.8139 25.8364 20.8767 27.5146 20.3268C29.1928 19.777 30.9769 19.6299 32.7224 19.8975L37.3724 20.61C39.404 20.9209 41.4819 20.6693 43.3805 19.8826C45.2792 19.0959 46.9261 17.8041 48.1424 16.1475L50.9249 12.3525Z" fill="#AE72FF"/>
<path fill-rule="evenodd" clip-rule="evenodd" d="M60.4276 36.6975C60.0885 36.6965 59.7525 36.7626 59.4391 36.8919C59.1256 37.0212 58.8408 37.2112 58.601 37.451C58.3613 37.6908 58.1713 37.9756 58.0419 38.289C57.9126 38.6025 57.8466 38.9384 57.8476 39.2775C57.8476 42.18 58.7626 44.9925 60.4276 47.325C62.1001 45 63.0151 42.18 63.0151 39.2775C63.0161 38.9378 62.9498 38.6013 62.82 38.2873C62.6902 37.9733 62.4995 37.6882 62.259 37.4483C62.0184 37.2085 61.7327 37.0186 61.4184 36.8897C61.104 36.7609 60.7673 36.6956 60.4276 36.6975ZM63.8776 51.03C66.5489 47.696 68.0016 43.5497 67.9951 39.2775C68.0021 38.2825 67.811 37.296 67.433 36.3756C67.055 35.4551 66.4976 34.6191 65.7933 33.9162C65.089 33.2133 64.2519 32.6575 63.3306 32.2813C62.4094 31.9052 61.4226 31.7161 60.4276 31.725C56.2426 31.725 52.8676 35.1 52.8676 39.285C52.8676 43.47 54.3376 47.7225 56.9926 51.0375L51.8926 56.1375C48.5596 53.4635 44.4132 52.0082 40.1401 52.0125C39.1438 52.0035 38.1557 52.1931 37.2335 52.5702C36.3113 52.9473 35.4735 53.5044 34.769 54.2089C34.0645 54.9134 33.5074 55.7513 33.1303 56.6735C32.7532 57.5957 32.5636 58.5837 32.5726 59.58C32.5726 63.7575 35.9551 67.14 40.1401 67.14C44.3251 67.14 48.5776 65.67 51.8926 63.015L56.9926 68.115C54.3186 71.448 52.8632 75.5944 52.8676 79.8675C52.8576 80.8638 53.0462 81.8521 53.4224 82.7747C53.7986 83.6972 54.3548 84.5356 55.0586 85.2408C55.7625 85.946 56.5997 86.5039 57.5215 86.882C58.4434 87.26 59.4313 87.4506 60.4276 87.4425C64.6126 87.4425 67.9951 84.0525 67.9951 79.8675C67.9951 75.69 66.5251 71.4375 63.8701 68.115L68.9701 63.015C72.2851 65.6775 76.4326 67.14 80.7226 67.14C81.7182 67.149 82.7057 66.9597 83.6274 66.583C84.5491 66.2064 85.3866 65.65 86.091 64.9463C86.7954 64.2426 87.3526 63.4056 87.7302 62.4843C88.1077 61.563 88.2981 60.5757 88.2901 59.58C88.2901 55.395 84.9076 52.0125 80.7151 52.0125C76.5376 52.0125 72.2851 53.4825 68.9701 56.1375L63.8776 51.03ZM60.4276 54.6375L55.5001 59.5725L60.4276 64.5075L65.3626 59.5725L60.4276 54.6375ZM72.6751 59.5725C75.0076 61.2375 77.8201 62.1525 80.7226 62.1525C81.0617 62.1535 81.3976 62.0875 81.7111 61.9582C82.0245 61.8289 82.3093 61.6388 82.5491 61.3991C82.7889 61.1593 82.9789 60.8745 83.1082 60.561C83.2375 60.2476 83.3036 59.9116 83.3026 59.5725C83.3046 59.2328 83.2392 58.8961 83.1104 58.5817C82.9815 58.2674 82.7917 57.9817 82.5518 57.7411C82.3119 57.5006 82.0268 57.3099 81.7128 57.1801C81.3989 57.0503 81.0623 56.984 80.7226 56.985C77.8201 56.985 75.0076 57.9075 72.6751 59.5725ZM60.4276 71.8125C58.7517 74.1615 57.8498 76.9745 57.8476 79.86C57.8476 80.5453 58.1198 81.2025 58.6043 81.687C59.0889 82.1716 59.7461 82.4438 60.4313 82.4438C61.1166 82.4438 61.7738 82.1716 62.2583 81.687C62.7429 81.2025 63.0151 80.5453 63.0151 79.86C63.0151 76.9575 62.1001 74.145 60.4276 71.8125ZM48.1876 59.5725C45.8395 57.894 43.0264 56.9895 40.1401 56.985C39.7997 56.983 39.4624 57.0486 39.1475 57.1779C38.8327 57.3073 38.5467 57.4978 38.306 57.7385C38.0653 57.9791 37.8748 58.2652 37.7455 58.58C37.6162 58.8948 37.5506 59.2322 37.5526 59.5725C37.5526 60.9975 38.7076 62.1525 40.1401 62.1525C43.0426 62.1525 45.8551 61.2375 48.1876 59.5725Z" fill="#FBF9FF"/>
</svg>
