<svg xmlns="http://www.w3.org/2000/svg" width="16" height="16" fill="none"><path fill="#AE72FF" d="M6.79 1.647a1.5 1.5 0 0 1 2.42 0l.37.506c.331.45.885.68 1.437.595l.62-.095a1.5 1.5 0 0 1 1.71 1.71l-.095.62a1.5 1.5 0 0 0 .595 1.436l.506.372a1.5 1.5 0 0 1 0 2.418l-.506.372a1.5 1.5 0 0 0-.595 1.436l.095.62a1.5 1.5 0 0 1-1.71 1.71l-.62-.095a1.5 1.5 0 0 0-1.436.595l-.372.506a1.5 1.5 0 0 1-2.418 0l-.372-.506a1.5 1.5 0 0 0-1.436-.595l-.62.095a1.5 1.5 0 0 1-1.71-1.71l.095-.62a1.5 1.5 0 0 0-.595-1.436l-.506-.372a1.5 1.5 0 0 1 0-2.418l.506-.372a1.5 1.5 0 0 0 .595-1.436l-.095-.62a1.5 1.5 0 0 1 1.71-1.71l.62.095a1.5 1.5 0 0 0 1.436-.595z"/><path fill="#FBF9FF" fill-rule="evenodd" d="M8.057 4.893a.343.343 0 0 0-.344.344c0 .387.122.762.344 1.073.223-.31.345-.686.345-1.073a.343.343 0 0 0-.345-.344m.46 1.911a2.5 2.5 0 0 0 .549-1.567A1 1 0 0 0 8.057 4.23c-.558 0-1.008.45-1.008 1.008s.196 1.125.55 1.567l-.68.68a2.5 2.5 0 0 0-1.567-.55 1 1 0 0 0-1.009 1.009c0 .557.451 1.008 1.009 1.008s1.125-.196 1.567-.55l.68.68a2.5 2.5 0 0 0-.55 1.567 1 1 0 0 0 1.008 1.01c.558 0 1.009-.452 1.009-1.01 0-.557-.196-1.124-.55-1.567l.68-.68c.442.355.995.55 1.567.55a1 1 0 0 0 1.009-1.008c0-.558-.451-1.009-1.01-1.009-.557 0-1.124.196-1.566.55zm-.46.481-.657.658.657.658.658-.658zm1.633.658c.311.222.686.344 1.073.344a.343.343 0 0 0 .344-.344.343.343 0 0 0-.344-.345c-.387 0-.762.123-1.073.345M8.057 9.575a1.85 1.85 0 0 0-.344 1.073.343.343 0 1 0 .689 0c0-.387-.122-.762-.345-1.073M6.425 7.943a1.85 1.85 0 0 0-1.073-.345.343.343 0 0 0-.345.345c0 .19.154.344.345.344.387 0 .762-.122 1.073-.344" clip-rule="evenodd"/></svg>