<svg xmlns="http://www.w3.org/2000/svg" fill="none" viewBox="0 0 215.95 215.95" shape-rendering="geometricPrecision">
  <path fill="var(--zid-logo-color, #3C1C54)" fill-rule="evenodd" d="M107.97 19.31a9.98 9.98 0 0 0-10.01 10.01c0 11.25 3.55 22.15 10.01 31.19a53.7 53.7 0 0 0 10.01-31.19c0-5.55-4.46-10.01-10.01-10.01m13.34 55.57c10.29-12.87 15.98-28.93 15.98-45.56S124.19 0 107.97 0 78.65 13.11 78.65 29.32s5.7 32.7 15.98 45.56L74.88 94.63C62.01 84.34 45.95 78.65 29.32 78.65S0 91.76 0 107.97s13.11 29.32 29.32 29.32 32.7-5.7 45.56-15.98l19.75 19.75c-10.29 12.87-15.98 28.93-15.98 45.56s13.11 29.32 29.32 29.32 29.32-13.11 29.32-29.32-5.7-32.7-15.98-45.56l19.75-19.75c12.87 10.29 28.93 15.98 45.56 15.98s29.32-13.11 29.32-29.32-13.11-29.32-29.32-29.32-32.7 5.7-45.56 15.98zm-13.34 13.98-19.12 19.12 19.12 19.12 19.12-19.12zm47.46 19.11a53.7 53.7 0 0 0 31.19 10.01c5.55 0 10.01-4.46 10.01-10.01s-4.46-10.01-10.01-10.01c-11.25 0-22.15 3.55-31.19 10.01m-47.46 47.46a53.7 53.7 0 0 0-10.01 31.19c0 5.55 4.46 10.01 10.01 10.01s10.01-4.46 10.01-10.01c0-11.25-3.55-22.15-10.01-31.19m-47.46-47.46a53.7 53.7 0 0 0-31.19-10.01c-5.55 0-10.01 4.46-10.01 10.01s4.46 10.01 10.01 10.01c11.25 0 22.15-3.55 31.19-10.01"/>
  <style>:root[data-theme="dark"]{--zid-logo-color:#FFFFFF}</style>
</svg>
