<svg xmlns="http://www.w3.org/2000/svg" fill="none" viewBox="0 0 128 128" shape-rendering="geometricPrecision">
  <path fill="var(--zid-logo-color, #3C1C54)" fill-rule="evenodd" d="M63.997 11.446a5.917 5.917 0 0 0-5.933 5.933 31.816 31.816 0 0 0 5.933 18.487A31.828 31.828 0 0 0 69.93 17.38a5.917 5.917 0 0 0-5.933-5.933Zm7.907 32.938a43.261 43.261 0 0 0 9.472-27.005C81.376 7.522 73.61 0 63.997 0S46.618 7.77 46.618 17.379c0 9.608 3.379 19.382 9.472 27.005L44.384 56.09a43.26 43.26 0 0 0-27.005-9.472C7.522 46.618 0 54.388 0 63.997c0 9.608 7.77 17.379 17.379 17.379 9.608 0 19.382-3.379 27.005-9.472L56.09 83.611a43.26 43.26 0 0 0-9.472 27.004c0 9.857 7.77 17.379 17.379 17.379 9.608 0 17.379-7.771 17.379-17.379s-3.379-19.382-9.472-27.004l11.707-11.707a43.26 43.26 0 0 0 27.004 9.472c9.857 0 17.379-7.77 17.379-17.379 0-9.608-7.771-17.379-17.379-17.379s-19.382 3.379-27.004 9.472L71.904 44.384Zm-7.907 8.286L52.664 64.003l11.333 11.333L75.33 64.003 63.997 52.67Zm28.131 11.327a31.828 31.828 0 0 0 18.487 5.933 5.917 5.917 0 0 0 5.933-5.933 5.916 5.916 0 0 0-5.933-5.933 31.815 31.815 0 0 0-18.487 5.933ZM63.997 92.128a31.829 31.829 0 0 0-5.933 18.487 5.916 5.916 0 0 0 5.933 5.933 5.917 5.917 0 0 0 5.933-5.933 31.814 31.814 0 0 0-5.933-18.487Zm-28.13-28.131a31.83 31.83 0 0 0-18.488-5.933 5.917 5.917 0 0 0-5.933 5.933 5.917 5.917 0 0 0 5.933 5.933 31.815 31.815 0 0 0 18.487-5.933Z" clip-rule="evenodd" style="transform-origin:center;animation:rotate 5.6s ease-in-out infinite"/>
  <style>@keyframes rotate{0%{transform:rotate(0deg)}10.7%,12.5%{transform:rotate(45deg)}23.2%,25%{transform:rotate(90deg)}35.7%,37.5%{transform:rotate(135deg)}48.2%,50%{transform:rotate(180deg)}60.7%,62.5%{transform:rotate(225deg)}73.2%,75%{transform:rotate(270deg)}85.7%,87.5%{transform:rotate(315deg)}98.2%,to{transform:rotate(360deg)}}:root[data-theme="dark"]{--zid-logo-color:#FFFFFF}</style>
</svg>
