<svg width="24" height="24" viewBox="0 0 24 24" fill="none" xmlns="http://www.w3.org/2000/svg">
<g clip-path="url(#clip0_11322_574)">
<path d="M23.8521 12.6723C23.8521 12.3031 23.5901 12.0323 23.2286 12.0323C22.8677 12.0323 22.6051 12.3031 22.6051 12.6723C22.6051 13.0415 22.8677 13.312 23.2286 13.312C23.5901 13.312 23.8521 13.0415 23.8521 12.6723ZM23.0649 12.705V13.1236H22.9295V12.2003H23.2657C23.4624 12.2003 23.553 12.2866 23.553 12.4547C23.553 12.5575 23.4829 12.6396 23.3929 12.6514V12.6558C23.4706 12.6682 23.4994 12.7379 23.5159 12.8651C23.5283 12.947 23.5448 13.0906 23.5736 13.1236H23.4135C23.3764 13.0373 23.3805 12.9143 23.3516 12.8119C23.3275 12.7338 23.2863 12.705 23.1962 12.705H23.0649ZM23.2327 12.586C23.364 12.586 23.4011 12.5163 23.4011 12.4547C23.4011 12.3811 23.364 12.3237 23.2327 12.3237H23.0649V12.586H23.2327ZM22.4573 12.6723C22.4573 12.2169 22.8188 11.9092 23.2286 11.9092C23.639 11.9092 23.9999 12.2169 23.9999 12.6723C23.9999 13.1278 23.639 13.4354 23.2286 13.4354C22.8188 13.4354 22.4573 13.1277 22.4573 12.6723Z" fill="#EE7203"/>
<path d="M19.7849 13.3026L18.8956 12.3052L18.0144 13.3026H16.1606L17.9729 11.2662L16.1606 9.22961H18.0727L18.9703 10.2188L19.8347 9.22961H21.6803L19.8765 11.2578L21.705 13.3026H19.7849Z" fill="#EE7203"/>
<path d="M12.5993 13.3026L11.7288 10.0116L12.5993 6.88654H16.1606V8.31669H14.1078V9.22963H16.1606V10.6056H14.1078V11.8686H16.1606V13.3026H12.5993Z" fill="#EE7203"/>
<path d="M11.0969 6.88654V9.51228H11.0804C10.7477 9.13001 10.3322 8.99707 9.85013 8.99707C8.86243 8.99707 8.11848 9.6686 7.85734 10.5562C7.55941 9.57823 6.79136 8.97879 5.65249 8.97879C4.72747 8.97879 3.99725 9.39392 3.61602 10.0704V9.22962H1.70423V8.31669H3.79063V6.88654H0V13.3026H1.70423V10.6056H3.40288C3.35225 10.8038 3.32511 11.0159 3.32511 11.2398C3.32511 12.5781 4.34755 13.5172 5.65249 13.5172C6.74969 13.5172 7.47288 13.002 7.85528 12.0629H6.3948C6.19727 12.3452 6.04741 12.4289 5.65249 12.4289C5.19453 12.4289 4.79965 12.0294 4.79965 11.5557H7.77349C7.90244 12.6187 8.73057 13.5355 9.86691 13.5355C10.3571 13.5355 10.8061 13.2944 11.0804 12.8872H11.0969V13.3026H12.5992V6.88654H11.0969ZM4.84709 10.6248C4.94187 10.2173 5.25795 9.95088 5.65259 9.95088C6.08698 9.95088 6.38693 10.2091 6.46582 10.6248H4.84709ZM10.1852 12.3258C9.63142 12.3258 9.28731 11.8097 9.28731 11.271C9.28731 10.6952 9.5867 10.1414 10.1852 10.1414C10.8059 10.1414 11.0531 10.6951 11.0531 11.271C11.0531 11.8171 10.7911 12.3258 10.1852 12.3258Z" fill="#482683"/>
<path d="M12.5996 16.5106V14.2113H13.8699V14.383H12.8092V15.2305H13.8252V15.4021H12.8092V16.3386H13.9173V16.5105L12.5996 16.5106Z" fill="#482683"/>
<path d="M14.0688 16.5106L14.6883 15.6848L14.1006 14.9037H14.3388L14.8184 15.542L15.2883 14.9037H15.5264L14.9294 15.6848L15.5517 16.5106H15.3106L14.796 15.8276L14.307 16.5106H14.0688Z" fill="#482683"/>
<path d="M15.9552 17.1135H15.7615V15.3833C15.7615 15.2244 15.7615 15.0628 15.7517 14.9038H15.9425L15.949 15.1452C16.0694 14.9544 16.2281 14.8658 16.4665 14.8658C16.9617 14.8658 17.1742 15.2753 17.1742 15.7069C17.1742 16.1391 16.9616 16.5486 16.4665 16.5486C16.244 16.5486 16.0694 16.4629 15.9551 16.2786V17.1135H15.9552ZM16.9682 15.7069C16.9682 15.3643 16.8251 15.0275 16.4442 15.0275C16.0853 15.0275 15.9552 15.323 15.9552 15.7069C15.9552 16.0914 16.0854 16.3864 16.4442 16.3864C16.8251 16.3864 16.9682 16.0502 16.9682 15.7069Z" fill="#482683"/>
<path d="M18.1705 15.0527C17.8496 15.0527 17.7383 15.323 17.7383 15.602V16.5106H17.5446V15.3766C17.5446 15.2211 17.5416 15.0628 17.5352 14.9038H17.7259L17.7383 15.1355C17.8337 14.9514 17.9927 14.8658 18.2052 14.8658C18.2338 14.8658 18.2656 14.8687 18.2942 14.872V15.0657C18.2497 15.0592 18.2147 15.0527 18.1705 15.0527Z" fill="#482683"/>
<path d="M18.5314 15.7419C18.5314 16.1037 18.7028 16.4022 19.0552 16.4022C19.3281 16.4022 19.4552 16.2215 19.5029 16.0404H19.6872C19.6012 16.3769 19.3949 16.5485 19.0298 16.5485C18.5408 16.5485 18.3247 16.1864 18.3247 15.7357C18.3247 15.2752 18.5502 14.8657 19.0551 14.8657C19.5665 14.8657 19.7031 15.3132 19.7031 15.7419H18.5314V15.7419ZM18.5376 15.5959H19.4964C19.4964 15.2815 19.3475 15.0115 19.0425 15.0115C18.7664 15.0115 18.5756 15.2211 18.5376 15.5959Z" fill="#482683"/>
<path d="M20.4592 16.5485C20.1292 16.5485 19.8816 16.3928 19.8816 16.0404H20.0753C20.0753 16.2815 20.234 16.4022 20.4689 16.4022C20.6879 16.4022 20.8593 16.2974 20.8593 16.0819C20.8593 15.8882 20.6594 15.837 20.4498 15.7769C20.196 15.7039 19.9196 15.6244 19.9196 15.3132C19.9196 14.9673 20.2084 14.8657 20.4786 14.8657C20.7896 14.8657 21.0215 14.9861 21.031 15.3194H20.8372C20.8278 15.1292 20.6912 15.0212 20.4848 15.0212C20.3229 15.0212 20.126 15.0844 20.126 15.2941C20.126 15.4848 20.3229 15.5388 20.5322 15.5958C20.7866 15.6656 21.0657 15.7419 21.0657 16.0531C21.0656 16.4152 20.7865 16.5485 20.4592 16.5485Z" fill="#482683"/>
<path d="M21.8023 16.5485C21.472 16.5485 21.2244 16.3928 21.2244 16.0404H21.4181C21.4181 16.2815 21.5768 16.4022 21.812 16.4022C22.031 16.4022 22.2024 16.2974 22.2024 16.0819C22.2024 15.8882 22.0022 15.837 21.7926 15.7769C21.5388 15.7039 21.2627 15.6244 21.2627 15.3132C21.2627 14.9673 21.5515 14.8657 21.8214 14.8657C22.1323 14.8657 22.3643 14.9861 22.3737 15.3194H22.18C22.1706 15.1292 22.034 15.0212 21.8276 15.0212C21.6657 15.0212 21.4687 15.0844 21.4687 15.2941C21.4687 15.4848 21.6657 15.5388 21.8753 15.5958C22.1293 15.6656 22.4088 15.7419 22.4088 16.0531C22.4088 16.4152 22.1294 16.5485 21.8023 16.5485Z" fill="#482683"/>
</g>
<defs>
<clipPath id="clip0_11322_574">
<rect width="24" height="24" fill="white"/>
</clipPath>
</defs>
</svg>
