<svg width="83" height="32" viewBox="0 0 83 32" fill="none" xmlns="http://www.w3.org/2000/svg">
<mask id="mask0_213_1382" style="mask-type:luminance" maskUnits="userSpaceOnUse" x="0" y="0" width="83" height="32">
<path d="M82.4772 0H0V31.9923H82.4772V0Z" fill="white"/>
</mask>
<g mask="url(#mask0_213_1382)">
<path d="M41.7981 11.3111V7.48303H55.8439C56.7935 7.48303 56.7935 8.33636 56.4765 8.81191L48.6306 21.117H56.4765V24.9451H42.4944C41.5448 24.9451 41.5448 24.0903 41.8618 23.6162L49.7388 11.3111H41.7981Z" fill="#1F0433"/>
<path d="M58.2788 3.40297C58.2788 1.94817 59.4492 0.714111 60.9677 0.714111C62.4862 0.714111 63.6565 1.91558 63.6565 3.40297C63.6565 4.89037 62.4225 6.09184 60.9677 6.09184C59.5129 6.09184 58.2788 4.89037 58.2788 3.40297ZM63.181 24.9465H58.7529V7.48442H63.181V24.9465Z" fill="#1F0433"/>
<path d="M78.0489 8.4963V1.1571H82.4771V16.0251C82.4771 21.4029 78.966 25.231 73.9038 25.231C68.8416 25.231 65.2683 21.4029 65.2683 16.3422C65.2683 11.2815 68.8431 7.26371 73.9038 7.26371C75.3912 7.26371 76.8771 7.80149 78.0475 8.49778L78.0489 8.4963ZM73.8742 20.6755C76.3097 20.6755 78.3023 18.6829 78.3023 16.2148C78.3023 13.7466 76.3097 11.8178 73.8742 11.8178C71.4386 11.8178 69.4461 13.7792 69.4461 16.2148C69.4461 18.6503 71.4075 20.6755 73.8742 20.6755Z" fill="#1F0433"/>
<path fill-rule="evenodd" clip-rule="evenodd" d="M15.9947 2.86072C15.1726 2.86072 14.5118 3.52145 14.5118 4.34367C14.5118 6.01032 15.0377 7.62512 15.9947 8.96437C16.9517 7.62512 17.4776 6.00884 17.4776 4.34367C17.4776 3.52145 16.8169 2.86072 15.9947 2.86072ZM17.9709 11.0932C19.4953 9.18659 20.3382 6.80735 20.3382 4.34367C20.3382 1.87998 18.3976 0 15.9947 0C13.5919 0 11.6513 1.94221 11.6513 4.34367C11.6513 6.74513 12.4957 9.18807 14.0185 11.0932L11.0928 14.0191C9.18619 12.4947 6.80706 11.6518 4.34348 11.6518C1.8799 11.6518 0 13.594 0 15.9954C0 18.3969 1.94212 20.3391 4.34348 20.3391C6.74484 20.3391 9.18768 19.4946 11.0928 17.9717L14.0185 20.8976C12.4942 22.8043 11.6513 25.1835 11.6513 27.6472C11.6513 30.1109 13.5934 31.9908 15.9947 31.9908C18.3961 31.9908 20.3382 30.0486 20.3382 27.6472C20.3382 25.2457 19.4938 22.8028 17.9709 20.8976L20.8967 17.9717C22.8033 19.4961 25.1824 20.3391 27.646 20.3391C30.1096 20.3391 31.9895 18.3969 31.9895 15.9954C31.9895 13.594 30.0473 11.6518 27.646 11.6518C25.2446 11.6518 22.8018 12.4962 20.8967 14.0191L17.9709 11.0932ZM15.9947 13.1643L13.1623 15.9969L15.9947 18.8295L18.8272 15.9969L15.9947 13.1643ZM23.0255 15.9954C24.3647 16.9524 25.9809 17.4784 27.646 17.4784C28.4682 17.4784 29.1289 16.8176 29.1289 15.9954C29.1289 15.1732 28.4682 14.5125 27.646 14.5125C25.9794 14.5125 24.3647 15.0384 23.0255 15.9954ZM15.9947 23.0265C15.0377 24.3657 14.5118 25.982 14.5118 27.6472C14.5118 28.4694 15.1726 29.1301 15.9947 29.1301C16.8169 29.1301 17.4776 28.4694 17.4776 27.6472C17.4776 25.9805 16.9517 24.3657 15.9947 23.0265ZM8.96398 15.9954C7.62479 15.0384 6.00858 14.5125 4.34348 14.5125C3.5213 14.5125 2.86059 15.1732 2.86059 15.9954C2.86059 16.8176 3.5213 17.4784 4.34348 17.4784C6.01006 17.4784 7.62479 16.9524 8.96398 15.9954Z" fill="#1F0433"/>
<path fill-rule="evenodd" clip-rule="evenodd" d="M15.9947 2.86072C15.1726 2.86072 14.5118 3.52145 14.5118 4.34367C14.5118 6.01032 15.0377 7.62512 15.9947 8.96437C16.9517 7.62512 17.4776 6.00884 17.4776 4.34367C17.4776 3.52145 16.8169 2.86072 15.9947 2.86072ZM17.9709 11.0932C19.4953 9.18659 20.3382 6.80735 20.3382 4.34367C20.3382 1.87998 18.3976 0 15.9947 0C13.5919 0 11.6513 1.94221 11.6513 4.34367C11.6513 6.74513 12.4957 9.18807 14.0185 11.0932L11.0928 14.0191C9.18619 12.4947 6.80706 11.6518 4.34348 11.6518C1.8799 11.6518 0 13.594 0 15.9954C0 18.3969 1.94212 20.3391 4.34348 20.3391C6.74484 20.3391 9.18768 19.4946 11.0928 17.9717L14.0185 20.8976C12.4942 22.8043 11.6513 25.1835 11.6513 27.6472C11.6513 30.1109 13.5934 31.9908 15.9947 31.9908C18.3961 31.9908 20.3382 30.0486 20.3382 27.6472C20.3382 25.2457 19.4938 22.8028 17.9709 20.8976L20.8967 17.9717C22.8033 19.4961 25.1824 20.3391 27.646 20.3391C30.1096 20.3391 31.9895 18.3969 31.9895 15.9954C31.9895 13.594 30.0473 11.6518 27.646 11.6518C25.2446 11.6518 22.8018 12.4962 20.8967 14.0191L17.9709 11.0932ZM15.9947 13.1643L13.1623 15.9969L15.9947 18.8295L18.8272 15.9969L15.9947 13.1643ZM23.0255 15.9954C24.3647 16.9524 25.9809 17.4784 27.646 17.4784C28.4682 17.4784 29.1289 16.8176 29.1289 15.9954C29.1289 15.1732 28.4682 14.5125 27.646 14.5125C25.9794 14.5125 24.3647 15.0384 23.0255 15.9954ZM15.9947 23.0265C15.0377 24.3657 14.5118 25.982 14.5118 27.6472C14.5118 28.4694 15.1726 29.1301 15.9947 29.1301C16.8169 29.1301 17.4776 28.4694 17.4776 27.6472C17.4776 25.9805 16.9517 24.3657 15.9947 23.0265ZM8.96398 15.9954C7.62479 15.0384 6.00858 14.5125 4.34348 14.5125C3.5213 14.5125 2.86059 15.1732 2.86059 15.9954C2.86059 16.8176 3.5213 17.4784 4.34348 17.4784C6.01006 17.4784 7.62479 16.9524 8.96398 15.9954Z" fill="#1F0433"/>
</g>
</svg>
