<svg width="38" height="24" viewBox="0 0 38 24" fill="none" xmlns="http://www.w3.org/2000/svg">
<path d="M7.18236 6.06335C7.62973 5.50791 7.93332 4.76211 7.85325 4C7.19836 4.03232 6.3992 4.42887 5.93652 4.98475C5.52108 5.46077 5.15339 6.23779 5.24925 6.96796C5.98439 7.03125 6.71886 6.60321 7.18236 6.06335Z" fill="black"/>
<path d="M7.84412 7.1097C6.77651 7.04657 5.86878 7.71115 5.35894 7.71115C4.84883 7.71115 4.0681 7.14151 3.22368 7.15686C2.12461 7.17288 1.10481 7.78973 0.547076 8.7708C-0.600079 10.7334 0.244342 13.6447 1.35989 15.2431C1.90162 16.0339 2.55451 16.9047 3.41478 16.8734C4.22759 16.8417 4.54618 16.3509 5.53419 16.3509C6.52148 16.3509 6.80846 16.8734 7.66887 16.8576C8.56114 16.8417 9.11897 16.0664 9.6607 15.2748C10.2822 14.3733 10.5366 13.5029 10.5526 13.4551C10.5366 13.4393 8.83203 12.7902 8.81623 10.8439C8.80013 9.21418 10.1545 8.43902 10.2182 8.39094C9.45341 7.26811 8.2584 7.14151 7.84412 7.1097Z" fill="black"/>
<path d="M17.1391 4.90625C19.4595 4.90625 21.0753 6.49396 21.0753 8.80555C21.0753 11.1254 19.4263 12.7213 17.0809 12.7213H14.5117V16.7769H12.6555V4.90625H17.1391V4.90625ZM14.5117 11.1747H16.6416C18.2577 11.1747 19.1775 10.3111 19.1775 8.8138C19.1775 7.31669 18.2577 6.46111 16.6499 6.46111H14.5117V11.1747Z" fill="black"/>
<path d="M21.5623 14.317C21.5623 12.8032 22.7308 11.8737 24.8028 11.7585L27.1894 11.6187V10.9524C27.1894 9.98987 26.5346 9.41404 25.4409 9.41404C24.4048 9.41404 23.7583 9.90752 23.601 10.6809H21.9104C22.0098 9.11779 23.3523 7.96613 25.5071 7.96613C27.6204 7.96613 28.9711 9.0767 28.9711 10.8125V16.7766H27.2556V15.3534H27.2143C26.7089 16.316 25.6065 16.9246 24.463 16.9246C22.7557 16.9246 21.5623 15.8717 21.5623 14.317ZM27.1894 13.5355V12.8527L25.0429 12.9842C23.9738 13.0583 23.3689 13.5272 23.3689 14.2676C23.3689 15.0243 23.9987 15.518 24.9601 15.518C26.2114 15.518 27.1894 14.6624 27.1894 13.5355Z" fill="black"/>
<path d="M30.5912 19.9589V18.5193C30.7235 18.5521 31.0218 18.5521 31.1711 18.5521C31.9998 18.5521 32.4474 18.2067 32.7207 17.3183C32.7207 17.3017 32.8784 16.7918 32.8784 16.7835L29.7292 8.12109H31.6683L33.873 15.163H33.9059L36.1106 8.12109H38L34.7346 17.2276C33.989 19.3255 33.1271 20 31.3204 20C31.1711 20 30.7235 19.9835 30.5912 19.9589Z" fill="black"/>
</svg>
