<svg width="40" height="24" viewBox="0 0 40 24" fill="none" xmlns="http://www.w3.org/2000/svg">
<path d="M18.9227 11.8155V16.5057H17.4412V4.9266H21.3574C21.8267 4.9186 22.2928 5.00409 22.7292 5.17815C23.1655 5.35222 23.5633 5.61143 23.8999 5.94087C24.2186 6.24046 24.4757 6.60038 24.6562 7.00005C24.8368 7.39973 24.9374 7.83133 24.9523 8.27019C24.9671 8.70905 24.896 9.14655 24.7429 9.5577C24.5898 9.96884 24.3577 10.3456 24.06 10.6663L23.8999 10.8364C23.2159 11.4915 22.3019 11.8477 21.3574 11.8242L18.9227 11.8155ZM18.9227 6.34541V10.4318H21.3938C21.9425 10.4494 22.4722 10.2339 22.8564 9.83967C23.1312 9.55118 23.3158 9.18767 23.3871 8.79437C23.4584 8.40108 23.4133 7.99535 23.2574 7.62766C23.1015 7.25997 22.8418 6.94655 22.5104 6.72638C22.1791 6.50622 21.7908 6.38902 21.3938 6.38938L18.9227 6.34541ZM28.359 8.32119C29.3049 8.27722 30.2305 8.59675 30.9465 9.21967C31.5941 9.84993 31.9391 10.7294 31.8925 11.6366V16.5233H30.4823V15.4006H30.411C30.1581 15.8217 29.8004 16.1691 29.3734 16.4084C28.9465 16.6477 28.4648 16.7707 27.9762 16.7652C27.1786 16.7912 26.4007 16.5121 25.7991 15.9839C25.514 15.7498 25.2856 15.4534 25.131 15.1172C24.9765 14.781 24.8998 14.4138 24.9069 14.0433C24.8902 13.669 24.9623 13.296 25.1175 12.9554C25.2727 12.6148 25.5063 12.3165 25.7991 12.0851C26.5171 11.565 27.3862 11.2996 28.2702 11.3303C29.0226 11.301 29.7692 11.4666 30.4386 11.8155V11.5106C30.4435 11.2585 30.3914 11.0086 30.2863 10.7798C30.1812 10.551 30.0257 10.3493 29.8318 10.19C29.4422 9.8333 28.9319 9.64031 28.4055 9.65059C28.0233 9.64696 27.6464 9.74156 27.3105 9.92545C26.9746 10.1093 26.6908 10.3764 26.486 10.7015L25.1835 9.87485C25.5371 9.36449 26.0146 8.95378 26.5705 8.68183C27.1263 8.40988 27.742 8.28573 28.359 8.32119ZM26.486 14.0785C26.4825 14.2683 26.5254 14.4561 26.6109 14.6253C26.6964 14.7945 26.8219 14.94 26.9764 15.0488C27.301 15.3068 27.7041 15.4431 28.1188 15.4343C28.7432 15.4328 29.3413 15.1851 29.7866 14.7425C30.2305 14.3233 30.4823 13.7385 30.4823 13.1258C29.922 12.7247 29.2413 12.531 28.5554 12.5776C28.0229 12.5565 27.4977 12.7075 27.0565 13.0085C26.8817 13.1263 26.7383 13.2854 26.6389 13.472C26.5394 13.6585 26.4869 13.8668 26.486 14.0785ZM40.0001 8.58209L35.0665 20H33.5414L35.4056 16.0015L32.169 8.58209H33.7742L36.1202 14.2764L38.4036 8.58209H40.0001Z" fill="#5F6368"/>
<path d="M12.9467 10.8019C12.9467 10.3505 12.9118 9.89907 12.8405 9.45349H6.59717V12.0141H10.1642C10.0915 12.421 9.93809 12.809 9.71303 13.1548C9.48797 13.5006 9.19591 13.7971 8.85437 14.0265V15.6886H10.985C11.6328 15.0573 12.1421 14.2963 12.48 13.4546C12.8178 12.613 12.9769 11.7093 12.9467 10.8019Z" fill="#4285F4"/>
<path d="M6.60765 17.3048C8.2177 17.3493 9.7841 16.7744 10.9882 15.6969L8.85466 14.026C8.34203 14.3571 7.7612 14.566 7.15633 14.637C6.55147 14.7079 5.93851 14.639 5.36405 14.4355C4.7896 14.232 4.26878 13.8993 3.84121 13.4626C3.41364 13.0259 3.09058 12.4968 2.89658 11.9154H0.710693V13.6303C1.25767 14.734 2.09914 15.6625 3.14072 16.3115C4.18231 16.9605 5.38282 17.3045 6.60765 17.3048Z" fill="#34A853"/>
<path d="M2.89476 11.9236C2.61795 11.0989 2.61795 10.2053 2.89476 9.38059V7.66571H0.708868C0.242855 8.59124 0 9.61437 0 10.6521C0 11.6898 0.242855 12.713 0.708868 13.6385L2.89476 11.9236Z" fill="#FBBC04"/>
<path d="M6.60765 6.63335C7.54925 6.61603 8.45948 6.97429 9.1399 7.63003L11.0318 5.73487C9.8255 4.59456 8.22545 3.97258 6.57127 4.00093C5.3537 4.00708 4.16161 4.3527 3.12715 4.99949C2.0927 5.64627 1.25631 6.56895 0.710693 7.66521L2.89658 9.38156C3.15217 8.5902 3.64766 7.89944 4.31335 7.40647C4.97904 6.9135 5.78143 6.64311 6.60765 6.63335Z" fill="#EA4335"/>
</svg>
