<svg width="40" height="24" viewBox="0 0 40 24" fill="none" xmlns="http://www.w3.org/2000/svg">
<path d="M0 14.4888H16.9248V19.9842H0V14.4888Z" fill="#82BC00"/>
<path d="M0 7H16.9248V12.4929H0V7Z" fill="#00A1DF"/>
<path d="M33.8465 18.8619L33.7726 18.8773C33.5927 18.9188 33.4087 18.9412 33.2238 18.9441C32.7831 18.9441 32.2606 18.7257 32.2606 17.6852C32.2606 17.1508 32.3556 16.4443 33.1736 16.4443C33.379 16.4543 33.5822 16.4906 33.7779 16.5522L33.8412 16.5727L33.8465 18.8619ZM33.9837 13.6798L33.8465 13.703V15.6324L33.7304 15.599H33.6961C33.4535 15.5231 33.2013 15.4799 32.9467 15.4706C31.2975 15.4706 30.9492 16.6858 30.9492 17.7032C30.9492 19.0982 31.7408 19.8998 33.1552 19.8998C33.6558 19.9121 34.1552 19.8436 34.6328 19.6968C35.0392 19.5709 35.187 19.3885 35.187 19.0032V13.4897C34.7912 13.5642 34.3954 13.6259 33.9864 13.6901M38.736 18.8978L38.6674 18.9158L38.4036 18.98C38.2061 19.036 38.0022 19.0679 37.7967 19.0751C37.4088 19.0751 37.1766 18.8875 37.1766 18.5613C37.1766 18.3557 37.2716 18.0115 37.9049 18.0115H38.7229L38.736 18.8978ZM38.1608 15.4372C37.5926 15.4532 37.0302 15.5537 36.4931 15.7352L36.0709 15.8611L36.2108 16.786L36.6224 16.6549C37.0655 16.5167 37.5268 16.4414 37.9919 16.4314C38.1766 16.4314 38.7308 16.4314 38.7308 17.0146V17.2715H37.9603C36.5617 17.2715 35.91 17.7057 35.91 18.6383C35.91 19.4374 36.5063 19.9101 37.5143 19.9101C37.8909 19.9027 38.2654 19.8535 38.6305 19.7636H38.6701L38.7941 19.7842C39.1873 19.8536 39.5857 19.9204 39.9894 20V16.9273C39.9894 15.9381 39.3773 15.4372 38.1714 15.4372M28.986 18.8978L28.9174 18.9158L28.6535 18.98C28.4569 19.0362 28.2539 19.0681 28.0492 19.0751C27.6613 19.0751 27.4291 18.8875 27.4291 18.5613C27.4291 18.3557 27.5241 18.0115 28.1574 18.0115H28.9754L28.986 18.8978ZM28.4107 15.4372C27.839 15.4524 27.273 15.5529 26.7325 15.7352L26.3103 15.8611L26.4528 16.786L26.8618 16.6549C27.3057 16.5164 27.7679 16.4412 28.2339 16.4314C28.4134 16.4314 28.9675 16.4314 28.9675 17.0146V17.2715H28.1996C26.8011 17.2715 26.1467 17.7057 26.1467 18.6383C26.1467 19.4374 26.7457 19.9101 27.751 19.9101C28.1285 19.9024 28.5038 19.8533 28.8699 19.7636H28.9094L29.0335 19.7842C29.4266 19.8536 29.8251 19.9204 30.2288 20V16.9273C30.2288 15.9356 29.6166 15.4372 28.4107 15.4372ZM23.6901 15.4372C23.2198 15.4429 22.756 15.5444 22.3285 15.7352L22.2783 15.7583L22.2361 15.7352C21.8688 15.5174 21.4407 15.4168 21.0117 15.4474C20.5236 15.4471 20.038 15.5172 19.571 15.6555C19.1435 15.784 18.9773 15.9818 18.9773 16.3569V19.8458H20.3178V16.6241L20.3811 16.6036C20.57 16.5376 20.7689 16.5028 20.9695 16.5008C21.3574 16.5008 21.55 16.6986 21.55 17.0917V19.8458H22.8694V17.0352C22.8712 16.9423 22.8551 16.8499 22.8219 16.7628L22.7797 16.6781L22.8694 16.6395C23.0745 16.5505 23.2966 16.505 23.5212 16.5059C23.5908 16.4981 23.6612 16.5038 23.7285 16.5228C23.7958 16.5417 23.8585 16.5736 23.913 16.6164C23.9676 16.6592 24.0128 16.7121 24.0461 16.7721C24.0794 16.8321 24.1001 16.8979 24.107 16.9658C24.1122 17.0093 24.1122 17.0533 24.107 17.0968V19.8458H25.4263V16.9607C25.4263 15.933 24.8616 15.4474 23.6953 15.4474M37.7676 10.5814C37.5021 10.582 37.2371 10.5588 36.976 10.5121H36.9021V8.61344C36.9032 8.52647 36.8908 8.43985 36.8652 8.35652L36.823 8.27688L36.9074 8.23834C36.9293 8.23291 36.9506 8.22516 36.9707 8.21522H36.9866L37.0737 8.18696H37.1132C37.3385 8.13305 37.57 8.10715 37.8019 8.10988C38.6199 8.10988 38.7149 8.8164 38.7149 9.35336C38.7149 10.381 38.1872 10.6097 37.7518 10.6097M37.7597 7H37.7333C36.9655 7 36.1738 7.20296 35.8862 7.60632C35.7254 7.81692 35.6409 8.07357 35.6461 8.33597V10.2757C35.6522 10.3583 35.6377 10.4412 35.6039 10.5172L35.5617 10.6045H33.134V9.25573C33.105 7.83241 32.2369 7.05138 30.9861 7.05138H29.7644L29.6219 7.98913H30.8384C31.4769 7.98913 31.812 8.52095 31.812 9.33281V10.6893L31.725 10.6482C31.6325 10.6175 31.5349 10.6044 31.4373 10.6097H29.3264C29.2868 10.8666 29.2366 11.2032 29.1812 11.5423H35.6382C35.8546 11.5038 36.1158 11.4652 36.3348 11.4267C36.7675 11.5881 37.2277 11.6683 37.6911 11.663C39.0949 11.663 40 10.751 40 9.35079C40 7.95059 39.1266 7.03083 37.7597 7ZM26.437 12.1101H26.495C27.8962 12.1101 28.5479 11.6605 28.5479 10.548C28.5479 9.74901 27.949 9.11186 26.9436 9.11186H25.6506C25.5785 9.12047 25.5054 9.11512 25.4354 9.09612C25.3654 9.07713 25.3 9.04486 25.2429 9.00117C25.1857 8.95749 25.138 8.90324 25.1025 8.84155C25.067 8.77986 25.0443 8.71194 25.0358 8.6417C25.0332 8.60749 25.0332 8.57314 25.0358 8.53893C25.0358 8.28202 25.1308 7.98656 25.7615 7.98656H28.5849C28.6429 7.62688 28.6772 7.40593 28.73 7.05138H25.7958C24.4289 7.05138 23.7481 7.60632 23.7481 8.5415C23.7481 9.47668 24.3497 9.93913 25.3524 9.93913H26.6507C26.7306 9.93777 26.81 9.9518 26.8844 9.9804C26.9587 10.009 27.0265 10.0516 27.0839 10.1058C27.1413 10.16 27.1871 10.2247 27.2187 10.2962C27.2503 10.3677 27.2671 10.4445 27.2682 10.5223V10.548C27.2682 10.7561 27.1732 11.1826 26.5425 11.1826H26.3235H22.1886H21.4234C20.7875 11.1826 20.3389 10.8281 20.3389 10.0162V9.44328C20.3389 8.59032 20.6845 8.06107 21.4234 8.06107H22.661C22.7137 7.69881 22.748 7.47273 22.8008 7.12332H21.1252C19.8718 7.12332 19.0142 7.94289 18.9773 9.36621V10.0034C19.009 11.4267 19.8718 12.1049 21.1252 12.1049H22.3496H24.5899L26.437 12.1101Z" fill="black"/>
</svg>
