<svg width="40" height="24" viewBox="0 0 40 24" fill="none" xmlns="http://www.w3.org/2000/svg">
<path d="M15 20C19.4183 20 23 16.4183 23 12C23 7.58172 19.4183 4 15 4C10.5817 4 7 7.58172 7 12C7 16.4183 10.5817 20 15 20Z" fill="#EB001B"/>
<path d="M24.1428 20C28.5611 20 32.1428 16.4183 32.1428 12C32.1428 7.58172 28.5611 4 24.1428 4C19.7245 4 16.1428 7.58172 16.1428 12C16.1428 16.4183 19.7245 20 24.1428 20Z" fill="#F79E1B"/>
<path d="M23 11.9998C23 9.2569 21.6285 6.8569 19.5714 5.48547C17.5143 6.97119 16.1428 9.37119 16.1428 11.9998C16.1428 14.6283 17.5143 17.1426 19.5714 18.514C21.6285 17.1426 23 14.7426 23 11.9998Z" fill="#FF5F00"/>
</svg>
