<svg width="53" height="24" viewBox="0 0 53 24" fill="none" xmlns="http://www.w3.org/2000/svg">
<g clip-path="url(#clip0_11322_414)">
<path d="M22.4095 4.02728V9.49933C22.6647 9.49933 22.9134 9.46969 23.1519 9.41453C23.7528 9.27443 24.2887 8.96812 24.7111 8.54645C25.2999 7.95771 25.6638 7.14404 25.6638 6.24573V4.02728H22.4095ZM23.6376 10.5025C22.8894 11.0985 22.4095 12.0177 22.4095 13.0489V20H25.6638V9.79526C24.8982 9.79526 24.1935 10.0601 23.6376 10.5025ZM36.6456 11.4361C36.5494 11.396 36.4504 11.356 36.3485 11.3185C35.6424 11.0608 34.899 10.8881 34.1799 10.7216C33.7582 10.624 33.323 10.5232 32.9048 10.4064C32.2463 10.2233 31.6063 10.0353 31.0087 9.7576C30.4031 9.47606 30.1326 8.96248 30.2056 8.23198C30.2535 7.7792 30.5111 7.43048 30.8384 7.18318C31.0591 7.01609 31.3119 6.896 31.5527 6.82172C31.9608 6.696 32.4096 6.62972 32.8486 6.62972C33.224 6.62972 33.8096 6.67998 34.3616 6.93366C34.6527 7.06799 34.9343 7.25926 35.1702 7.52894C35.4046 7.79611 35.5976 8.13843 35.7408 8.54008C35.7455 8.55522 35.755 8.59376 35.7685 8.64252C35.9199 9.20962 35.9656 9.38087 36.2198 9.38087L36.276 9.37923L36.3015 9.37125C36.3391 9.36413 36.3775 9.3576 36.4151 9.35047C36.8238 9.27695 37.2288 9.20164 37.6593 9.12244L38.5846 8.95283L38.8735 8.8824L38.8174 8.60486C38.8085 8.55919 38.8 8.51516 38.7877 8.47054C38.7751 8.39686 38.7215 8.09929 38.6016 7.70641C38.4127 7.092 38.0645 6.2481 37.464 5.67447C37.4621 5.67284 37.4615 5.6721 37.4599 5.67047C37.1641 5.38892 36.8134 5.13361 36.4151 4.90973C36.3327 4.86333 36.2479 4.81841 36.1615 4.77452L36.1303 4.75614L36.112 4.74961C35.5862 4.48808 35.0119 4.29208 34.4007 4.16887C34.1752 4.12573 33.9664 4.0937 33.7633 4.07042C33.5072 4.04166 33.2382 4.02728 32.9638 4.02728C32.2822 4.02728 31.5893 4.11283 30.9279 4.2817C29.3351 4.68972 27.9263 5.58255 27.3079 6.93366C27.1503 7.276 27.0446 7.648 26.9991 8.04962C26.9287 8.66803 27.0167 9.27531 27.2463 9.84093C27.6062 10.7352 28.3191 11.5289 29.3199 12.1073C29.579 12.2569 29.8558 12.3904 30.1575 12.5105C30.4711 12.6145 30.8198 12.7193 31.2535 12.84C31.4551 12.8969 31.6558 12.952 31.8574 13.0081C32.1463 13.0873 32.4342 13.1664 32.7206 13.2505C33.0038 13.3328 33.2927 13.4001 33.5718 13.4657C34.0137 13.5688 34.431 13.6656 34.8271 13.8192C34.9431 13.864 35.051 13.9128 35.1513 13.9657C35.8215 14.3161 36.123 14.8329 36.0479 15.5072C35.976 16.1585 35.5471 16.6153 34.9671 16.8976C34.4745 17.1369 33.8702 17.2512 33.2829 17.2512C33.0391 17.2512 32.8039 17.2312 32.5837 17.1921C32.0463 17.0952 31.5959 16.956 31.2175 16.7888C29.6047 16.0768 29.3038 14.8713 29.1903 14.416C29.1559 14.2809 29.1375 14.2056 29.0855 14.1368L28.9711 13.9856L28.6135 14.064C28.0295 14.1921 27.475 14.3128 26.9334 14.4336L26.3607 14.5576L26.4071 14.8369C26.4967 15.376 26.6279 15.8817 26.7984 16.3433C26.8335 16.4344 26.8703 16.524 26.9103 16.6121C27.4983 17.9089 28.6303 18.8769 30.2023 19.42C30.2214 19.428 30.2391 19.4345 30.2535 19.4385C30.2798 19.448 30.3062 19.456 30.3119 19.456C30.5406 19.5217 30.7687 19.5792 30.9967 19.628C31.3447 19.7048 31.6912 19.7625 32.0318 19.8C32.3175 19.832 32.6181 19.848 32.9253 19.848C35.7695 19.848 38.9615 18.5424 39.2479 15.6752C39.2573 15.5849 39.263 15.4937 39.2662 15.4033C39.2693 15.3753 39.2703 15.3496 39.2703 15.3208V15.2921C39.2968 13.4784 38.4134 12.1808 36.6456 11.4361ZM20.7567 5.37602C20.7567 5.36727 20.7567 5.35853 20.7536 5.352C20.7359 5.25771 20.7087 5.16252 20.6768 5.07446C20.6702 5.06808 20.6702 5.05933 20.6648 5.05044C20.6319 4.96163 20.588 4.87845 20.5376 4.79928C20.5312 4.78727 20.5255 4.77852 20.5199 4.76963C20.4662 4.68972 20.4071 4.61292 20.3455 4.54487C20.3359 4.53612 20.3303 4.52722 20.3215 4.52085C20.2504 4.44731 20.1703 4.37925 20.0848 4.3201C20.0815 4.31684 20.0815 4.31684 20.0791 4.31372H20.0759C19.9015 4.19289 19.7031 4.10645 19.4871 4.06242C19.4871 4.05931 19.4848 4.05931 19.4848 4.05931C19.3896 4.04166 19.2895 4.02965 19.1887 4.02965C19.1823 4.02965 19.1735 4.02728 19.1646 4.02728H19.1559C19.0614 4.02728 18.9695 4.03603 18.8784 4.05367C18.8695 4.05367 18.86 4.05367 18.8543 4.05693C18.7568 4.07443 18.668 4.10082 18.5792 4.13373C18.5703 4.13922 18.5615 4.13922 18.5528 4.14574C18.5207 4.15686 18.4895 4.1705 18.4591 4.18562C18.4046 4.21053 18.3519 4.24093 18.3015 4.2728C18.2927 4.27844 18.2807 4.28407 18.2687 4.29045C18.1919 4.34323 18.1175 4.40001 18.0471 4.4648C18.0383 4.4737 18.0287 4.47933 18.0199 4.48808C17.9495 4.55924 17.8814 4.6393 17.8223 4.72248C17.8223 4.72485 17.8192 4.72812 17.8159 4.73123L17.8071 4.7425V4.74561L16.8328 6.16003L13.5792 10.8808V10.8816L12.0183 13.1457V5.65371C12.0183 5.55927 12.0063 5.46735 11.9919 5.37602C11.9919 5.36727 11.9888 5.35853 11.9888 5.352C11.9711 5.25771 11.9447 5.16252 11.9087 5.07446C11.9063 5.06808 11.9031 5.05933 11.9 5.05044C11.8647 4.96163 11.8232 4.87845 11.7728 4.79928C11.7671 4.78727 11.7607 4.77852 11.7551 4.76963C11.7023 4.68972 11.6432 4.61292 11.5775 4.54487C11.5719 4.53612 11.5631 4.52722 11.5567 4.52085C11.483 4.44731 11.4064 4.37925 11.3207 4.3201C11.3176 4.31684 11.3176 4.31684 11.3143 4.31372H11.3111C11.1367 4.19289 10.9391 4.10645 10.723 4.06242C10.723 4.05931 10.7199 4.05931 10.7199 4.05931C10.6224 4.04166 10.5247 4.02965 10.4239 4.02965C10.4151 4.02965 10.4095 4.02728 10.4007 4.02728H10.392C10.2966 4.02728 10.2055 4.03603 10.1136 4.05367C10.1047 4.05367 10.0959 4.05367 10.0872 4.05693C9.99198 4.07443 9.90064 4.10082 9.81199 4.13373C9.80309 4.13922 9.79432 4.13922 9.78559 4.14574C9.69914 4.17762 9.61673 4.22254 9.53665 4.2728C9.52463 4.27844 9.5159 4.28407 9.50388 4.29045C9.42399 4.34323 9.35029 4.40001 9.28223 4.4648C9.27349 4.4737 9.26475 4.47933 9.25586 4.48808C9.18155 4.55924 9.11677 4.6393 9.05748 4.72248C9.05436 4.72485 9.05436 4.72812 9.05199 4.73123L9.0431 4.7425V4.74561L8.06798 6.16092L4.81437 10.8825L3.25437 13.1464V13.1448L0.286887 17.4509C0.0999283 17.7221 0 18.0435 0 18.3728C0 18.468 0.00874679 18.5593 0.0238695 18.6512C0.0271313 18.66 0.0271318 18.6689 0.0271318 18.6753C0.0447751 18.7697 0.0742787 18.864 0.106303 18.9528C0.109565 18.9585 0.112679 18.9681 0.115941 18.9768C0.151079 19.0657 0.195113 19.1481 0.24315 19.228C0.248784 19.24 0.254269 19.2489 0.263164 19.2576C0.313573 19.3377 0.372729 19.4145 0.438261 19.4824C0.447158 19.4913 0.45279 19.5 0.461539 19.5064C0.532704 19.5801 0.612765 19.648 0.695201 19.7072C0.698314 19.7104 0.701575 19.7104 0.701575 19.7128C0.703947 19.7128 0.703947 19.7128 0.70706 19.7161C0.769478 19.7576 0.834269 19.7929 0.899059 19.8289C0.91433 19.8344 0.928712 19.84 0.943983 19.8489C1.00877 19.8784 1.07668 19.9057 1.14473 19.9288C1.15348 19.9288 1.15985 19.9321 1.16549 19.9321C1.2279 19.9496 1.28958 19.9649 1.35511 19.9761C1.37587 19.9792 1.39352 19.9825 1.41427 19.9849C1.47906 19.9945 1.544 19.9969 1.60953 20H1.64793C1.70071 19.9969 1.75438 19.9945 1.80479 19.988C1.82229 19.988 1.83993 19.9849 1.85757 19.9825C1.90235 19.9761 1.94386 19.9672 1.9879 19.9585C2.00554 19.9561 2.02318 19.9496 2.04157 19.9441C2.08234 19.9352 2.12385 19.9201 2.16225 19.9081C2.1799 19.9025 2.19828 19.8937 2.21829 19.8881C2.25758 19.8728 2.29599 19.8553 2.33438 19.8376C2.34877 19.8289 2.36626 19.82 2.3839 19.8105C2.43431 19.7872 2.48235 19.7576 2.52638 19.7281C2.54077 19.7192 2.55278 19.7072 2.5679 19.6984C2.60318 19.672 2.64158 19.6449 2.67746 19.6153C2.69511 19.6009 2.70949 19.5832 2.72713 19.5681C2.75678 19.5417 2.78392 19.5121 2.81031 19.4857C2.82469 19.4673 2.83996 19.4529 2.85434 19.4353C2.89037 19.3969 2.91987 19.3585 2.94952 19.3168C2.95516 19.3104 2.96153 19.3048 2.96391 19.2961L2.97591 19.284V19.2817L4.81437 16.6137L8.06798 11.892L8.76316 10.8832L8.76464 10.8808V18.3728C8.76464 18.468 8.77357 18.5593 8.78868 18.6512C8.79104 18.66 8.79104 18.6689 8.79432 18.6753C8.81195 18.7697 8.83835 18.864 8.87112 18.9528C8.87437 18.9585 8.87673 18.9681 8.87985 18.9768C8.91587 19.0657 8.95993 19.1481 9.01033 19.228C9.01566 19.2396 9.02191 19.2481 9.02739 19.2568C9.07896 19.3371 9.13488 19.415 9.20234 19.4826C9.21123 19.4913 9.2176 19.5 9.22634 19.5064C9.29752 19.5801 9.37669 19.648 9.46313 19.7072C9.46313 19.7104 9.4655 19.7104 9.46875 19.7128C9.46875 19.7128 9.47187 19.7128 9.47187 19.7161C9.53356 19.7576 9.59907 19.7929 9.66713 19.8289C9.67826 19.8344 9.69353 19.84 9.70791 19.8489C9.77357 19.8784 9.84147 19.9057 9.91266 19.9288C9.91827 19.9288 9.92392 19.9321 9.93029 19.9321C9.99198 19.9496 10.0544 19.9649 10.1192 19.9761L10.1815 19.9849C10.2439 19.9945 10.3087 19.9969 10.3734 20H10.4119C10.4655 19.9969 10.5191 19.9945 10.572 19.988C10.5895 19.988 10.6047 19.9849 10.6224 19.9825C10.6663 19.9761 10.7112 19.9672 10.7527 19.9585C10.7704 19.9561 10.788 19.9496 10.8055 19.9441C10.8472 19.9352 10.8887 19.9201 10.9271 19.9081C10.9447 19.9025 10.9655 19.8937 10.9831 19.8881C11.0215 19.8728 11.0599 19.8553 11.0983 19.8376C11.116 19.8289 11.1343 19.82 11.1487 19.8105C11.1991 19.7872 11.2463 19.7576 11.2912 19.7281C11.3056 19.7192 11.3176 19.7072 11.332 19.6984C11.3703 19.672 11.4064 19.6449 11.4415 19.6153C11.4592 19.6009 11.4776 19.5832 11.4919 19.5681C11.5215 19.5417 11.548 19.5121 11.5751 19.4857C11.5928 19.4673 11.6071 19.4529 11.6223 19.4353C11.6543 19.3969 11.6839 19.3585 11.7134 19.3168C11.72 19.3104 11.7254 19.3048 11.732 19.2961L11.7407 19.284V19.2817L12.0112 18.8889L13.5792 16.6137L16.8328 11.892L17.5295 10.8808V19.852C17.5295 19.9025 17.532 19.9529 17.5384 20H20.7743C20.78 19.9529 20.7831 19.9025 20.7831 19.852V5.65371C20.7831 5.55927 20.7743 5.46735 20.7567 5.37602ZM46.7926 5.29685C46.6119 5.19529 46.3949 5.16 46.183 5.18728C46.1215 5.19366 46.0606 5.20641 46.0013 5.22405C45.6216 5.33614 45.403 5.64808 45.3711 6.10562C45.3686 6.1409 45.368 6.1753 45.368 6.20881C45.3737 6.70252 45.6686 7.06799 46.1167 7.1577C46.1773 7.16969 46.2413 7.17681 46.3078 7.17845C46.4135 7.1577 46.5214 7.14642 46.6229 7.11439C47.0014 6.99445 47.2237 6.68087 47.2398 6.22408C47.2559 5.75201 47.0632 5.44971 46.7926 5.29685ZM46.7926 5.29685C46.6119 5.19529 46.3949 5.16 46.183 5.18728C46.1215 5.19366 46.0606 5.20641 46.0013 5.22405C45.6216 5.33614 45.403 5.64808 45.3711 6.10562C45.3686 6.1409 45.368 6.1753 45.368 6.20881C45.3737 6.70252 45.6686 7.06799 46.1167 7.1577C46.1773 7.16969 46.2413 7.17681 46.3078 7.17845C46.4135 7.1577 46.5214 7.14642 46.6229 7.11439C47.0014 6.99445 47.2237 6.68087 47.2398 6.22408C47.2559 5.75201 47.0632 5.44971 46.7926 5.29685ZM42.7206 5.16653C42.679 5.17601 42.6383 5.18891 42.5998 5.20404C42.2702 5.32813 42.0703 5.62733 42.035 6.05046C41.9921 6.57843 42.2895 6.98733 42.7159 7.09927C42.8856 7.1433 43.0761 7.14093 43.2735 7.07999C43.6687 6.95768 43.9024 6.60971 43.9055 6.13838C43.9112 5.4457 43.3814 5.01204 42.7206 5.16653ZM42.7159 7.09927C42.8856 7.1433 43.0761 7.14093 43.2735 7.07999C43.6687 6.95768 43.9024 6.60971 43.9055 6.13838C43.9112 5.4457 43.3814 5.01204 42.7206 5.16653C42.679 5.17601 42.6383 5.18891 42.5998 5.20404C42.2702 5.32813 42.0703 5.62733 42.035 6.05046C41.9921 6.57843 42.2895 6.98733 42.7159 7.09927ZM46.7926 5.29685C46.6119 5.19529 46.3949 5.16 46.183 5.18728C46.1215 5.19366 46.0606 5.20641 46.0013 5.22405C45.6216 5.33614 45.403 5.64808 45.3711 6.10562C45.3686 6.1409 45.368 6.1753 45.368 6.20881C45.3737 6.70252 45.6686 7.06799 46.1167 7.1577C46.1773 7.16969 46.2413 7.17681 46.3078 7.17845C46.4135 7.1577 46.5214 7.14642 46.6229 7.11439C47.0014 6.99445 47.2237 6.68087 47.2398 6.22408C47.2559 5.75201 47.0632 5.44971 46.7926 5.29685ZM50.9608 4.69609C50.576 5.75839 50.1912 6.82172 49.8033 7.88328C49.6573 8.28004 49.3712 8.62962 48.9943 8.82563C48.7464 8.95522 48.496 8.99613 48.2421 8.97522C48.0775 8.9616 47.9119 8.92246 47.7448 8.86493C47.8151 8.66803 47.8838 8.47691 47.9542 8.28004C48.1368 8.33609 48.3061 8.39286 48.4944 8.35283C48.8543 8.27692 49.0621 8.04 49.187 7.71692C49.2047 7.67128 49.1823 7.60322 49.1631 7.55134C48.824 6.61282 48.4821 5.67447 48.1406 4.73612C48.1248 4.6912 48.1087 4.64479 48.0885 4.58801H48.7398C49.0016 5.32012 49.2646 6.05921 49.5286 6.79845C49.539 6.79845 49.5488 6.79771 49.5592 6.79771C49.8206 6.06321 50.083 5.32887 50.348 4.58652H50.9904C50.98 4.62567 50.9734 4.66169 50.9608 4.69609ZM47.2502 7.71692V7.43376C47.2247 7.43685 47.2064 7.43376 47.1991 7.44161C46.9159 7.75517 46.3902 7.86726 45.9007 7.75132C45.6064 7.6809 45.3254 7.52803 45.1166 7.28726C45.0463 7.20573 44.9838 7.11365 44.9318 7.0112C44.8176 6.78407 44.7558 6.52564 44.7464 6.26485C44.7303 5.88812 44.8208 5.50649 45.0103 5.20567C45.0431 5.15289 45.0791 5.10322 45.1176 5.05607C45.4352 4.67207 46.0543 4.46243 46.6015 4.58652C46.739 4.61692 46.8718 4.66881 46.9935 4.74413C47.0575 4.78253 47.1184 4.82804 47.1752 4.88009C47.1887 4.89209 47.2048 4.90158 47.2455 4.93198V4.58727H47.8614V7.71692H47.2502ZM41.4143 4.58801H42.0249C42.0287 4.64479 42.0328 4.69846 42.0375 4.77126C42.0927 4.7425 42.1384 4.71922 42.1838 4.69446C42.2911 4.63767 42.4046 4.59364 42.5222 4.56325C42.8414 4.47844 43.1861 4.48882 43.4936 4.58727C43.6438 4.6353 43.7854 4.7041 43.9112 4.79291C43.9702 4.83531 44.0254 4.88172 44.0768 4.93198C44.3455 5.1984 44.4799 5.52962 44.5199 5.90087C44.5656 6.31052 44.5063 6.70252 44.2903 7.05998C44.1872 7.23122 44.0575 7.36734 43.9112 7.4729C43.7406 7.59521 43.5463 7.67453 43.3423 7.71692C43.1502 7.75697 42.9496 7.76407 42.7512 7.74243C42.7481 7.74243 42.7455 7.7417 42.7424 7.74079C42.4935 7.71294 42.2661 7.62321 42.035 7.48728V8.65602H41.4143V4.58801ZM40.3656 4V9.48571L48.7855 9.47281C50.5823 9.47281 52.0391 8.01612 52.0391 6.21845V4H40.3656ZM42.7206 5.16653C42.679 5.17601 42.6383 5.18891 42.5998 5.20404C42.2702 5.32813 42.0703 5.62733 42.035 6.05046C41.9921 6.57843 42.2895 6.98733 42.7159 7.09927C42.8856 7.1433 43.0761 7.14093 43.2735 7.07999C43.6687 6.95768 43.9024 6.60971 43.9055 6.13838C43.9112 5.4457 43.3814 5.01204 42.7206 5.16653ZM46.7926 5.29685C46.6119 5.19529 46.3949 5.16 46.183 5.18728C46.1215 5.19366 46.0606 5.20641 46.0013 5.22405C45.6216 5.33614 45.403 5.64808 45.3711 6.10562C45.3686 6.1409 45.368 6.1753 45.368 6.20881C45.3737 6.70252 45.6686 7.06799 46.1167 7.1577C46.1773 7.16969 46.2413 7.17681 46.3078 7.17845C46.4135 7.1577 46.5214 7.14642 46.6229 7.11439C47.0014 6.99445 47.2237 6.68087 47.2398 6.22408C47.2559 5.75201 47.0632 5.44971 46.7926 5.29685ZM46.7926 5.29685C46.6119 5.19529 46.3949 5.16 46.183 5.18728C46.1215 5.19366 46.0606 5.20641 46.0013 5.22405C45.6216 5.33614 45.403 5.64808 45.3711 6.10562C45.3686 6.1409 45.368 6.1753 45.368 6.20881C45.3737 6.70252 45.6686 7.06799 46.1167 7.1577C46.1773 7.16969 46.2413 7.17681 46.3078 7.17845C46.4135 7.1577 46.5214 7.14642 46.6229 7.11439C47.0014 6.99445 47.2237 6.68087 47.2398 6.22408C47.2559 5.75201 47.0632 5.44971 46.7926 5.29685ZM42.7206 5.16653C42.679 5.17601 42.6383 5.18891 42.5998 5.20404C42.2702 5.32813 42.0703 5.62733 42.035 6.05046C41.9921 6.57843 42.2895 6.98733 42.7159 7.09927C42.8856 7.1433 43.0761 7.14093 43.2735 7.07999C43.6687 6.95768 43.9024 6.60971 43.9055 6.13838C43.9112 5.4457 43.3814 5.01204 42.7206 5.16653ZM42.7206 5.16653C42.679 5.17601 42.6383 5.18891 42.5998 5.20404C42.2702 5.32813 42.0703 5.62733 42.035 6.05046C41.9921 6.57843 42.2895 6.98733 42.7159 7.09927C42.8856 7.1433 43.0761 7.14093 43.2735 7.07999C43.6687 6.95768 43.9024 6.60971 43.9055 6.13838C43.9112 5.4457 43.3814 5.01204 42.7206 5.16653Z" fill="#6322D0"/>
</g>
<defs>
<clipPath id="clip0_11322_414">
<rect width="52.0391" height="24" fill="white"/>
</clipPath>
</defs>
</svg>
