<svg width="52" height="24" viewBox="0 0 52 24" fill="none" xmlns="http://www.w3.org/2000/svg">
<g clip-path="url(#clip0_11322_418)">
<path d="M11.8797 24V11.8136H13.8101V12.7088C14.0756 12.2715 14.595 11.9604 15.0018 11.8224C15.4116 11.6845 15.8328 11.614 16.2657 11.614C17.3333 11.614 18.4731 11.9809 19.3993 12.9583C20.2535 13.8623 20.7065 14.9629 20.7065 16.2661C20.7065 16.8649 20.594 17.4519 20.3689 18.0183C20.1525 18.5848 19.8408 19.0838 19.4426 19.5006C19.0213 19.9496 18.5423 20.2871 18.0143 20.5161C17.4891 20.7421 16.9957 20.8595 16.3522 20.8595C15.8819 20.8595 15.4289 20.7861 15.0018 20.6335C14.5805 20.4955 13.9919 20.1521 13.7783 19.7735V23.9971H11.8797M16.2022 13.3399C15.4981 13.3399 14.8835 13.5629 14.3814 14.0883C13.8678 14.6342 13.6658 15.4149 13.6658 16.1927C13.6658 17.0204 13.8591 17.8276 14.3612 18.3735C14.8662 18.9223 15.4895 19.1131 16.2166 19.1131C16.9438 19.1131 17.5497 18.8079 18.0028 18.3412C18.525 17.8012 18.7703 17.0703 18.7703 16.2808C18.7703 15.4179 18.5193 14.6518 18.0143 14.1088C17.5815 13.6392 16.9524 13.3399 16.1993 13.3399" fill="#1E4BC6"/>
<path d="M33.9395 24L35.5698 20.158L31.8331 11.8136H33.8674L36.522 18.077L38.9719 11.8136H41.0177L35.9392 24H33.9395Z" fill="#1E4BC6"/>
<path d="M28.7686 20.701V19.7794C28.5551 20.1551 27.9665 20.5014 27.5452 20.6394C27.1152 20.792 26.6593 20.8654 26.1948 20.8654C25.5484 20.8654 25.0579 20.7509 24.5298 20.522C24.0046 20.293 23.5256 19.9526 23.1044 19.5035C22.7033 19.0896 22.3916 18.5877 22.1781 18.0242C21.953 17.4548 21.8376 16.8707 21.8376 16.272C21.8376 14.9688 22.2906 13.8682 23.1476 12.9642C24.0768 11.9839 25.2166 11.6199 26.2842 11.6199C26.7141 11.6199 27.1354 11.6904 27.5452 11.8283C27.9549 11.9663 28.4743 12.2774 28.7398 12.7147V11.8195H30.6673V20.7069H28.7686M24.5269 14.1206C24.022 14.6665 23.7738 15.4326 23.7738 16.2925C23.7738 17.0791 24.022 17.8129 24.5414 18.3529C24.9944 18.8196 25.5917 19.1249 26.3275 19.1249C27.0633 19.1249 27.675 18.9341 28.18 18.3852C28.685 17.8393 28.8754 17.0322 28.8754 16.2045C28.8754 15.4267 28.6763 14.6489 28.1656 14.1C27.6577 13.5717 27.046 13.3516 26.3448 13.3516C25.5888 13.3516 24.9626 13.651 24.5269 14.1206Z" fill="#1E4BC6"/>
<path d="M43.0404 6.17538L42.9423 0.240684H44.7833V7.72802H42.1344L40.3021 1.58201H40.2559L40.3598 7.72802H38.5333V0.240684H41.2889L43 6.17538H43.0404Z" fill="#1E4BC6"/>
<path d="M9.60011 0.939228L8.5844 7.79553H6.57897L7.95248 0.240684H11.2622L12.6357 7.79553H10.636L9.64339 0.939228H9.60011Z" fill="#1E4BC6"/>
<path d="M18.2653 6.02275L19.1858 0.240684H22.2127L22.3801 7.79553H20.5189L20.467 1.0038H20.4295L19.1887 7.79553H17.3073L16.0608 1.0038H16.0175L15.9713 7.79553H14.1131L14.2833 0.240684H17.3131L18.2278 6.02275H18.2653Z" fill="#1E4BC6"/>
<path d="M33.8472 6.6626C34.3694 6.6626 34.5253 6.30158 34.5628 6.11961C34.5772 6.03743 34.5772 5.92883 34.5772 5.82904V0.240684H36.4643V5.65881C36.4643 5.79969 36.4499 6.08146 36.4441 6.15777C36.3172 7.56953 35.2149 8.02153 33.8472 8.02153C32.4794 8.02153 31.3858 7.56953 31.2589 6.15777C31.2502 6.08146 31.2358 5.79969 31.2415 5.65881V0.240684H33.1229V5.83198C33.1171 5.92883 33.1229 6.04036 33.1373 6.12255C33.172 6.30452 33.3335 6.66553 33.8472 6.66553" fill="#1E4BC6"/>
<path d="M3.4482 5.66467C3.51745 5.84664 3.49726 6.08438 3.46263 6.22526C3.40203 6.47768 3.23467 6.73597 2.73548 6.73597C2.27379 6.73597 1.9939 6.463 1.9939 6.04916L1.98813 5.3154H0V5.89947C0 7.58713 1.30137 8.0949 2.69508 8.0949C4.08879 8.0949 5.15066 7.63116 5.32379 6.37202C5.41613 5.7175 5.34976 5.28898 5.31802 5.13049C5.00638 3.54262 2.18146 3.07888 1.97081 2.19249C1.93619 2.03693 1.94196 1.88137 1.96216 1.79626C2.01698 1.54971 2.17857 1.28556 2.64025 1.28556C3.10194 1.28556 3.33567 1.56439 3.33567 1.96649V2.43904H5.19106V1.90779C5.19106 0.258285 3.73675 0 2.68065 0C1.36197 0 0.282781 0.446129 0.0836802 1.68179C0.0317408 2.01639 0.0259697 2.31576 0.0981078 2.69732C0.424172 4.24703 3.06443 4.69023 3.4482 5.6676" fill="#1E4BC6"/>
<path d="M27.6115 5.65587C27.6866 5.83491 27.6548 6.06678 27.626 6.20766C27.5683 6.45421 27.398 6.70662 26.9104 6.70662C26.4487 6.70662 26.1717 6.4366 26.1717 6.02862V5.30073H24.1951V5.88187C24.1951 7.55486 25.4878 8.05088 26.8729 8.05088C28.2579 8.05088 29.2938 7.59301 29.4698 6.34268C29.5593 5.69696 29.4929 5.27431 29.4612 5.10995C29.1524 3.54556 26.3592 3.08182 26.1544 2.2013C26.1197 2.05455 26.1284 1.89606 26.1457 1.81388C26.1948 1.5732 26.3563 1.31198 26.818 1.31198C27.2537 1.31198 27.5048 1.57907 27.5048 1.98118V2.44785H29.3371V1.92247C29.3371 0.293515 27.8972 0.0381651 26.8613 0.0381651C25.5513 0.0381651 24.4779 0.472554 24.2903 1.69941C24.2297 2.02814 24.2239 2.32458 24.3047 2.70614C24.625 4.24117 27.2364 4.6785 27.6173 5.65" fill="#1E4BC6"/>
<path d="M49.3511 6.58628C49.8849 6.58628 50.0754 6.24582 50.11 6.04036C50.1215 5.95525 50.1273 5.84665 50.1273 5.75273V4.65795H49.3684V3.5485H52V5.57956C52 5.72044 51.9942 5.8261 51.974 6.07852C51.8499 7.44626 50.6755 7.94522 49.3569 7.94522C48.0382 7.94522 46.8724 7.44626 46.7541 6.07852C46.7253 5.8261 46.7253 5.72044 46.7253 5.57956V2.40089C46.7253 2.26588 46.7397 2.0252 46.7599 1.90486C46.9215 0.484294 48.0439 0.0352294 49.3597 0.0352294C50.6755 0.0352294 51.8384 0.478423 51.9711 1.90486C52 2.13673 51.9856 2.40089 51.9856 2.40089V2.64743H50.1157V2.22478C50.1157 2.22478 50.1157 2.04281 50.0898 1.93421C50.058 1.77279 49.9138 1.38829 49.3453 1.38829C48.8115 1.38829 48.6499 1.75224 48.6095 1.93421C48.5864 2.03401 48.5807 2.17195 48.5807 2.29523V5.74979C48.5807 5.84665 48.5864 5.95231 48.5951 6.03743C48.6326 6.24288 48.8173 6.58335 49.3597 6.58335" fill="#1E4BC6"/>
</g>
<defs>
<clipPath id="clip0_11322_418">
<rect width="52" height="24" fill="white"/>
</clipPath>
</defs>
</svg>
