<svg width="24" height="24" viewBox="0 0 24 24" fill="none" xmlns="http://www.w3.org/2000/svg">
<g clip-path="url(#clip0_11322_416)">
<path d="M23.7802 8.42223C23.4851 6.1938 22.6964 4.1742 21.3052 2.69501H21.3047C19.8256 1.3041 17.8063 0.515281 15.5779 0.220164C13.4491 -0.0621356 12.0003 0.00763822 12.0003 0.00763822C12.0003 0.00763822 10.5507 -0.0621356 8.42213 0.220084C6.19357 0.515201 4.1743 1.3041 2.69498 2.69493C1.30416 4.17412 0.515038 6.19372 0.219878 8.42223C-0.0623066 10.5505 0.0076989 12.0001 0.0076989 12.0001C0.0076989 12.0001 -0.0623066 13.4491 0.219878 15.578C0.515038 17.8065 1.30416 19.8256 2.69498 21.3046V21.3052C4.1743 22.6959 6.19357 23.4847 8.42205 23.7802C10.5506 24.0623 12.0003 23.9923 12.0003 23.9923C12.0003 23.9923 13.4491 24.0623 15.5778 23.7802C17.8062 23.4847 19.8256 22.696 21.3046 21.3052L21.3051 21.3046C22.6963 19.8256 23.4851 17.8065 23.7802 15.578C24.0622 13.4491 23.9923 12.0001 23.9923 12.0001C23.9923 12.0001 24.0622 10.5505 23.7802 8.42223Z" fill="#1E4BC6"/>
<path d="M4.41908 8.48408H6.57379C6.90155 8.48408 7.20312 8.54304 7.47898 8.66072C7.75499 8.77839 7.99313 8.93781 8.19473 9.1392C8.39562 9.34043 8.55365 9.57739 8.66851 9.8504C8.78345 10.1232 8.84104 10.4148 8.84104 10.7249C8.84104 11.0354 8.78345 11.3284 8.66851 11.6044C8.55373 11.8801 8.39562 12.1186 8.19473 12.3196C7.99313 12.5209 7.75331 12.6808 7.47465 12.7982C7.19615 12.9162 6.8929 12.975 6.5653 12.975H5.59131V14.7764H4.41908V8.48408ZM5.59131 9.5701V11.8889H6.48761C6.66014 11.8889 6.81817 11.8587 6.96155 11.7984C7.10508 11.7381 7.22875 11.6546 7.3324 11.5482C7.43605 11.4421 7.51638 11.3184 7.57365 11.1776C7.63132 11.0368 7.66016 10.8861 7.66016 10.7249C7.66016 10.5644 7.63132 10.4133 7.57365 10.2725C7.51638 10.1317 7.43605 10.0099 7.3324 9.90623C7.22875 9.80281 7.10516 9.72086 6.96155 9.66062C6.81817 9.6003 6.66014 9.5701 6.48761 9.5701H5.59131Z" fill="white"/>
<path d="M11.5477 14.7847C11.2431 14.7847 10.9428 14.7285 10.6471 14.6149C10.3506 14.5014 10.0851 14.3366 9.84947 14.1204C9.61382 13.9044 9.42415 13.6398 9.28046 13.3268C9.13684 13.0142 9.06516 12.658 9.06516 12.2593C9.06516 11.8549 9.13548 11.4965 9.27621 11.1834C9.41702 10.8705 9.60365 10.6057 9.83674 10.3898C10.0693 10.174 10.3366 10.0091 10.638 9.89558C10.9399 9.78214 11.2488 9.72511 11.5648 9.72511C11.8978 9.72511 12.2054 9.78559 12.4871 9.90607C12.7685 10.0266 13.0015 10.1908 13.1855 10.3991V9.734H14.3491V14.7764H13.1855V14.0599C13.0015 14.2853 12.7661 14.4623 12.4783 14.5913C12.1911 14.7208 11.8809 14.7847 11.5477 14.7847ZM11.7373 13.7164C11.9555 13.7164 12.1566 13.6783 12.3408 13.6029C12.5246 13.5273 12.6825 13.422 12.8145 13.2871C12.9468 13.152 13.0515 12.9954 13.1292 12.8173C13.2071 12.6399 13.2459 12.4481 13.2459 12.2425C13.2459 12.043 13.2071 11.854 13.1292 11.6759C13.0515 11.4981 12.9469 11.3428 12.8145 11.2105C12.6825 11.0781 12.5246 10.9744 12.3408 10.899C12.1566 10.8234 11.9554 10.7856 11.7373 10.7856C11.5246 10.7856 11.325 10.8234 11.1381 10.899C10.9512 10.9744 10.7891 11.0768 10.6512 11.2062C10.5132 11.3361 10.4055 11.4899 10.3278 11.668C10.2502 11.8461 10.2116 12.0377 10.2116 12.2424C10.2116 12.448 10.2502 12.6409 10.3278 12.8217C10.4055 13.0024 10.5132 13.1584 10.6512 13.2908C10.789 13.4236 10.9512 13.5272 11.1381 13.6028C11.325 13.6784 11.5246 13.7164 11.7373 13.7164Z" fill="white"/>
<path d="M16.7971 14.5582L14.7284 9.73384H15.9696L17.3743 13.184L18.7022 9.73384H19.9262L16.9175 17.0949H15.7372L16.7971 14.5582Z" fill="white"/>
</g>
<defs>
<clipPath id="clip0_11322_416">
<rect width="24" height="24" fill="white"/>
</clipPath>
</defs>
</svg>
