<svg width="40" height="24" viewBox="0 0 40 24" fill="none" xmlns="http://www.w3.org/2000/svg">
<path d="M25.9421 14.8639V8.52503H26.9957V9.03331C27.3163 8.62435 27.7915 8.40234 28.3813 8.40234C29.5951 8.40234 30.4654 9.38969 30.4654 10.8035C30.4654 12.2173 29.5894 13.2222 28.3813 13.2222C27.7858 13.2222 27.3163 12.9885 26.9957 12.5796V14.8639H25.9421ZM26.9957 10.2193V11.3877C27.219 11.861 27.6198 12.2057 28.1981 12.2057C28.8966 12.2057 29.3661 11.674 29.3661 10.7977C29.3661 9.93302 28.8966 9.40721 28.1981 9.40721C27.6198 9.41306 27.219 9.73438 26.9957 10.2193Z" fill="#02AA7C"/>
<path d="M31.147 11.7842C31.147 11.013 31.6165 10.4755 32.3952 10.3762L34.1873 10.1425V9.91467C34.1873 9.64008 34.0499 9.49403 33.798 9.49403H31.5478V8.51837H33.838C34.7484 8.51837 35.2466 8.97407 35.2466 9.7803V13.0812H34.1816V12.5262C33.8724 12.9702 33.3628 13.2214 32.7044 13.2214C31.7768 13.2214 31.147 12.643 31.147 11.7842ZM32.962 12.345C33.5002 12.345 33.9984 12.0354 34.1816 11.5797V11.0072L32.8131 11.2C32.4352 11.2525 32.2234 11.457 32.2234 11.79C32.2234 12.1464 32.4925 12.345 32.962 12.345Z" fill="#02AA7C"/>
<path d="M36.0149 13.8874H36.7821C37.0741 13.8874 37.2058 13.7647 37.3031 13.4843L37.4405 13.0812L35.8145 8.51837H36.9138L37.9272 11.6966H37.9501L38.9178 8.51837H39.9999L38.2192 13.7589C37.9788 14.4775 37.6581 14.8631 36.8737 14.8631H36.0149V13.8874Z" fill="#02AA7C"/>
<path d="M3.86483 18C5.09013 18 6.09785 17.6086 6.76202 16.9542C7.26016 16.4518 7.55217 15.7741 7.55217 14.9912C7.55217 14.2843 7.29451 13.6475 6.81928 13.1626C6.34405 12.6777 5.6627 12.3213 4.80384 12.1519L3.39533 11.8715C2.81131 11.7605 2.47922 11.4625 2.47922 11.0477C2.47922 10.5044 2.99453 10.1305 3.81903 10.1305C4.33434 10.1305 4.77521 10.2999 5.06722 10.5979C5.25045 10.8023 5.37641 11.0652 5.41649 11.3632L7.44911 10.8958C7.39185 10.2999 7.11702 9.7741 6.69904 9.34177C6.02914 8.66991 5.00424 8.24343 3.79612 8.24343C2.67962 8.24343 1.74633 8.61733 1.09933 9.21324C0.549665 9.73905 0.240478 10.446 0.240478 11.2347C0.240478 11.9241 0.458054 12.5083 0.898931 12.9523C1.33981 13.4021 1.98108 13.7352 2.82276 13.9455L4.2141 14.2843C4.91263 14.4537 5.22182 14.7167 5.22182 15.184C5.22182 15.7624 4.70651 16.1013 3.86483 16.1013C3.25791 16.1013 2.7655 15.8968 2.45632 15.5579C2.23874 15.3359 2.10705 15.0321 2.08987 14.6991L0 15.1665C0.0572568 15.8033 0.349266 16.3642 0.790144 16.814C1.48295 17.556 2.60518 18 3.86483 18ZM19.3356 18C20.6926 18 21.7347 17.4976 22.4504 16.7848C23.0172 16.224 23.3665 15.5696 23.5497 14.8978L21.4083 14.1675C21.3167 14.5063 21.1335 14.8627 20.8415 15.1373C20.4922 15.4761 20.017 15.7157 19.3356 15.7157C18.7115 15.7157 18.1275 15.4703 17.7038 15.0438C17.2801 14.594 17.0224 13.9396 17.0224 13.1159C17.0224 12.2746 17.2801 11.6378 17.7038 11.1879C18.1218 10.7556 18.6943 10.5336 19.3184 10.5336C19.9769 10.5336 20.4349 10.7556 20.767 11.0944C21.0419 11.3749 21.2079 11.7313 21.3167 12.0876L23.4982 11.3398C23.3321 10.6855 22.9829 10.0312 22.4733 9.48783C21.7404 8.75755 20.6754 8.23759 19.2669 8.23759C17.9672 8.23759 16.7934 8.74002 15.9517 9.60467C15.1101 10.481 14.5948 11.702 14.5948 13.1217C14.5948 14.5414 15.1272 15.7566 15.9861 16.6388C16.822 17.4976 18.013 18 19.3356 18ZM11.9323 18C12.8828 18 13.5641 17.702 13.8561 17.4391V15.4177C13.6328 15.5871 13.1977 15.7916 12.6251 15.7916C12.2186 15.7916 11.9266 15.6981 11.709 15.4937C11.5258 15.3067 11.4342 14.9854 11.4342 14.5589V6H9.01222V8.52386H13.8504V10.9192H9.01222V15.1665C9.01222 16.0253 9.26987 16.7205 9.72793 17.2055C10.2432 17.7196 10.999 18 11.9323 18Z" fill="#502C84"/>
</svg>
