<svg width="44" height="24" viewBox="0 0 44 24" fill="none" xmlns="http://www.w3.org/2000/svg">
<g clip-path="url(#clip0_11322_467)">
<path d="M38.0179 21H5.62332C2.50224 21 0 18.4709 0 15.3767V8.62332C0 5.50224 2.52915 3 5.62332 3H38.0179C41.139 3 43.6413 5.52915 43.6413 8.62332V15.3767C43.6413 18.4709 41.139 21 38.0179 21Z" fill="#5AFEAE"/>
<path d="M35.7845 8.78181L33.5514 17.311V17.3379H35.3002L37.5334 8.80872H35.7845V8.78181ZM8.17916 13.6249C7.9101 13.7594 7.64105 13.8132 7.34508 13.8132C6.72625 13.8132 6.37647 13.7056 6.32266 13.1944V13.1675C6.32266 13.1406 6.32266 13.1406 6.32266 13.1136V11.6338V11.4724V10.4231V9.99257V9.83114V8.83562L4.76212 9.02396C5.81145 8.80872 6.40338 8.00154 6.40338 7.16746V6.65625H4.6545V9.05087L4.54688 9.07777V13.4903C4.60069 14.728 5.43477 15.4814 6.75315 15.4814C7.23746 15.4814 7.74867 15.3737 8.15226 15.1854L8.17916 13.6249Z" fill="#292929"/>
<path d="M8.44764 8.45995L3.55078 9.21332V10.451L8.44764 9.69762V8.45995ZM8.44764 10.2895L3.55078 11.0429V12.2268L8.44764 11.4734V10.2895ZM13.9364 10.8546C13.8557 9.48237 12.9947 8.64829 11.5956 8.64829C10.7885 8.64829 10.1158 8.97116 9.65841 9.56309C9.20101 10.155 8.95885 11.016 8.95885 12.0653C8.95885 13.1147 9.20101 13.9756 9.65841 14.5676C10.1158 15.1595 10.7885 15.4555 11.5956 15.4555C12.9947 15.4555 13.8557 14.6483 13.9364 13.2492V15.3209H15.6853V8.80973L13.9364 9.07879V10.8546ZM14.0441 12.0653C14.0441 13.2761 13.3983 14.0833 12.4028 14.0833C11.3804 14.0833 10.7615 13.3299 10.7615 12.0653C10.7615 10.8008 11.3804 10.0474 12.4028 10.0474C12.8871 10.0474 13.3176 10.2357 13.6136 10.6124C13.8826 10.9622 14.0441 11.4734 14.0441 12.0653ZM20.7705 8.64829C19.3714 8.64829 18.5104 9.45547 18.4297 10.8546V6.89941L16.6808 7.16847V15.3209H18.4297V13.2492C18.5104 14.6483 19.3714 15.4555 20.7705 15.4555C22.4118 15.4555 23.4073 14.1909 23.4073 12.0653C23.4073 9.93977 22.4118 8.64829 20.7705 8.64829ZM19.9902 14.0833C18.9947 14.0833 18.349 13.303 18.349 12.0653C18.349 11.4734 18.5104 10.9622 18.7795 10.6124C19.0754 10.2357 19.479 10.0474 19.9902 10.0474C21.0127 10.0474 21.6315 10.8008 21.6315 12.0653C21.6315 13.3299 21.0127 14.0833 19.9902 14.0833ZM28.1427 8.64829C26.7436 8.64829 25.8826 9.45547 25.8019 10.8546V6.89941L24.053 7.16847V15.3209H25.8019V13.2492C25.8826 14.6483 26.7436 15.4555 28.1427 15.4555C29.784 15.4555 30.7795 14.1909 30.7795 12.0653C30.7795 9.93977 29.784 8.64829 28.1427 8.64829ZM27.3624 14.0833C26.3669 14.0833 25.7212 13.303 25.7212 12.0653C25.7212 11.4734 25.8826 10.9622 26.1517 10.6124C26.4476 10.2357 26.8512 10.0474 27.3624 10.0474C28.3849 10.0474 29.0037 10.8008 29.0037 12.0653C29.0037 13.3299 28.3849 14.0833 27.3624 14.0833ZM30.7795 8.78282H32.636L34.1427 15.3209H32.4746L30.7795 8.78282ZM38.9589 9.45547V8.94426H38.7436V8.83663H39.3086V8.94426H39.0934V9.45547H38.9589ZM39.3355 9.45547V8.80973H39.5508L39.6584 9.10569C39.6853 9.18641 39.7122 9.21332 39.7122 9.24022C39.7122 9.21332 39.7391 9.18641 39.766 9.10569L39.8737 8.80973H40.0889V9.45547H39.9544V8.94426L39.766 9.45547H39.6315L39.4701 8.94426V9.45547H39.3355Z" fill="#292929"/>
</g>
<defs>
<clipPath id="clip0_11322_467">
<rect width="43.6413" height="24" fill="white"/>
</clipPath>
</defs>
</svg>
