<svg width="60" height="24" viewBox="0 0 60 24" fill="none" xmlns="http://www.w3.org/2000/svg">
<path d="M29.89 9.771C29.1965 9.51045 28.5257 9.38423 27.681 9.56305C27.0215 9.70222 26.4915 9.96763 26.1436 10.6295C26.2965 10.7541 26.4341 10.8723 26.5684 10.9896C26.7893 11.1814 27.0183 11.3788 27.325 11.6086C27.5677 11.2623 27.9917 10.8723 28.4464 10.8634C28.974 10.8528 29.4797 11.1433 29.5631 11.569C29.5971 11.7453 29.6197 12.4744 29.6197 12.4744L29.343 12.5335C29.2882 12.5539 29.2279 12.5539 29.1731 12.5335L29.1294 12.5165L29.0938 12.5027C28.5255 12.283 27.9228 12.1658 27.3136 12.1564C27.1088 12.1563 26.9043 12.1723 26.7019 12.2041C26.0805 12.302 25.3417 12.6532 25.3547 13.7739C25.3595 14.2003 25.4485 14.52 25.6362 14.7797C25.8014 15.0167 26.0224 15.2094 26.2796 15.3407C26.5369 15.4721 26.8225 15.5381 27.1113 15.533C27.8172 15.5546 28.5061 15.3149 29.046 14.8598C29.0574 14.8509 29.186 14.7384 29.2232 14.7093L29.6044 14.414V15.5249H31.1943V11.641C31.1952 10.7614 30.7161 10.0817 29.89 9.771ZM29.3988 13.4211C29.059 14.0296 28.5047 14.3735 27.8671 14.3735H27.7862C27.652 14.3707 27.5186 14.3536 27.3881 14.3225C26.9115 14.1971 26.6404 13.8136 26.6598 13.2973L26.6695 13.0716H29.593L29.3988 13.4211Z" fill="black"/>
<path d="M46.4995 9.771C45.8061 9.51045 45.1353 9.38423 44.2913 9.56305C43.6311 9.70222 43.1011 9.96763 42.7539 10.6295C42.9069 10.7541 43.0444 10.8723 43.1787 10.9896C43.4005 11.1814 43.6286 11.3788 43.9353 11.6086C44.1781 11.2623 44.6029 10.8723 45.0568 10.8634C45.5852 10.8528 46.0901 11.1433 46.1734 11.569C46.2074 11.7453 46.2301 12.4744 46.2301 12.4744L45.9542 12.5335C45.8994 12.5539 45.839 12.5539 45.7842 12.5335C45.7705 12.5286 45.7551 12.5229 45.7405 12.5165L45.7041 12.5027C45.1359 12.283 44.5332 12.1658 43.924 12.1564C43.7191 12.1563 43.5146 12.1723 43.3123 12.2041C42.6908 12.302 41.9521 12.6532 41.965 13.7739C41.9699 14.2003 42.0597 14.52 42.2466 14.7797C42.4118 15.0167 42.6327 15.2094 42.89 15.3407C43.1472 15.4721 43.4329 15.5381 43.7217 15.533C44.4278 15.5547 45.117 15.3149 45.6572 14.8598C45.6677 14.8509 45.7972 14.7384 45.8336 14.7093L46.2147 14.414V15.5249H47.8047V11.641C47.8047 10.7614 47.3257 10.0817 46.4995 9.771ZM46.0084 13.4211C45.6693 14.0296 45.1143 14.3735 44.4774 14.3735H44.3965C44.2627 14.3707 44.1295 14.3536 43.9992 14.3225C43.5218 14.1971 43.2508 13.8136 43.271 13.2973L43.2807 13.0716H46.2034L46.0084 13.4211Z" fill="black"/>
<path d="M57.3626 9.771C56.6692 9.51045 55.9984 9.38423 55.1536 9.56305C54.4942 9.70222 53.9642 9.96763 53.6162 10.6295C53.7692 10.7541 53.9067 10.8723 54.0411 10.9896C54.262 11.1814 54.4909 11.3788 54.7976 11.6086C55.0404 11.2623 55.4644 10.8723 55.9191 10.8634C56.4475 10.8528 56.9524 11.1433 57.0357 11.569C57.0697 11.7453 57.0924 12.4744 57.0924 12.4744L56.8157 12.5335C56.7611 12.5537 56.7011 12.5537 56.6465 12.5335C56.6328 12.5286 56.6174 12.5229 56.6028 12.5165L56.5664 12.5027C55.9982 12.283 55.3955 12.1658 54.7863 12.1564C54.5814 12.1563 54.3769 12.1723 54.1746 12.2041C53.5531 12.302 52.8144 12.6532 52.8273 13.7739C52.8322 14.2003 52.9212 14.52 53.1089 14.7797C53.2741 15.0167 53.495 15.2094 53.7523 15.3407C54.0095 15.4721 54.2952 15.5381 54.584 15.533C55.2901 15.5547 55.9793 15.3149 56.5195 14.8598C56.53 14.8509 56.6595 14.7384 56.6959 14.7093L57.077 14.414V15.5249H58.667V11.641C58.6678 10.7614 58.1888 10.0817 57.3626 9.771ZM56.8715 13.4211C56.5316 14.0296 55.9774 14.3735 55.3397 14.3735H55.2588C55.1247 14.3707 54.9912 14.3536 54.8607 14.3225C54.3841 14.1971 54.1131 13.8136 54.1325 13.2973L54.1422 13.0716H57.0641L56.8715 13.4211Z" fill="black"/>
<path d="M52.1606 9.97904C51.646 10.0025 51.2794 10.2274 51.0367 10.6701C51.01 10.7186 50.8384 11.0552 50.8384 11.0552L50.4573 10.967V10.0575H48.9199V15.5371H50.4614V13.3969C50.4614 13.2149 50.4492 13.0263 50.4614 12.8378C50.4838 12.5079 50.6206 12.1961 50.8483 11.9563C51.0759 11.7164 51.38 11.5634 51.7083 11.5237C51.9235 11.493 52.4648 11.4905 52.5239 11.4897V9.9758C52.3952 9.97418 52.2771 9.97337 52.1606 9.97904Z" fill="black"/>
<path d="M24.1645 14.2572C24.0291 14.255 23.8939 14.2442 23.7599 14.2249C23.3553 14.1585 23.0972 13.9595 22.9872 13.6317C22.9378 13.4948 22.9105 13.3508 22.9062 13.2053V10.7584L23.1449 10.7479C23.6555 10.7228 24.1968 10.6856 24.7107 10.5432L24.383 9.42574L22.9062 9.64502V8H21.1625V9.64502H19.9844V10.773H21.1625C21.1625 10.773 21.1625 13.0993 21.1722 13.6932C21.1732 14.056 21.2779 14.4109 21.474 14.716C21.7087 15.0729 22.0493 15.2962 22.5478 15.4192C23.0843 15.5511 23.628 15.5446 24.2025 15.5381H24.3401V14.2637H24.2737L24.1645 14.2572Z" fill="black"/>
<path d="M37.5168 12.4506C37.5168 11.8971 37.889 11.4601 38.3947 11.4132C39.0048 11.3558 39.4337 11.6608 39.5429 12.228C39.5593 12.3278 39.566 12.4288 39.5632 12.5299V15.5302H41.1006V11.8243C41.1022 11.6458 41.0876 11.4676 41.0569 11.2918C40.929 10.6121 40.5649 10.1979 39.9508 10.0231C39.2856 9.83697 38.1706 9.97615 37.6527 10.8816L37.4165 11.3541C37.2805 10.6761 36.8929 10.1849 36.2747 10.0077C35.6096 9.8216 34.6063 9.97777 34.09 10.8832L33.8586 11.2878V10.0571H32.25V15.5375H33.8521V12.5646C33.8521 12.4621 33.8585 12.3597 33.8716 12.258C33.89 12.0659 33.9677 11.8842 34.0938 11.7382C34.2199 11.5921 34.3882 11.4887 34.5755 11.4423C35.0141 11.3291 35.4696 11.4699 35.7083 11.7943C35.8496 12.0039 35.9187 12.254 35.905 12.5064C35.905 13.2799 35.905 15.5334 35.905 15.5334H37.5168V12.4506Z" fill="black"/>
<path d="M2.73552 10.1304C2.41627 10.4634 2.16627 10.8564 2 11.2867L7.09769 15.5137C7.34853 15.3598 7.57882 15.1746 7.78305 14.9627L7.88257 14.8591C9.81403 12.8427 8.54527 10.658 7.77576 9.92327C7.10691 9.28332 6.21138 8.93503 5.2859 8.95491C4.36042 8.97478 3.48067 9.3612 2.83991 10.0293L2.73552 10.1304Z" fill="black"/>
<path d="M13.2522 15.9995C15.2015 15.9995 16.7817 14.4193 16.7817 12.47C16.7817 10.5207 15.2015 8.94043 13.2522 8.94043C11.3029 8.94043 9.72266 10.5207 9.72266 12.47C9.72266 14.4193 11.3029 15.9995 13.2522 15.9995Z" fill="black"/>
</svg>
