<svg width="55" height="24" viewBox="0 0 55 24" fill="none" xmlns="http://www.w3.org/2000/svg">
<g clip-path="url(#clip0_11322_449)">
<mask id="mask0_11322_449" style="mask-type:luminance" maskUnits="userSpaceOnUse" x="0" y="3" width="55" height="18">
<path d="M49.5 3H5.14286C2.30254 3 0 5.30254 0 8.14286V15.8571C0 18.6975 2.30254 21 5.14286 21H49.5C52.3403 21 54.6429 18.6975 54.6429 15.8571V8.14286C54.6429 5.30254 52.3403 3 49.5 3Z" fill="white"/>
</mask>
<g mask="url(#mask0_11322_449)">
<mask id="mask1_11322_449" style="mask-type:luminance" maskUnits="userSpaceOnUse" x="0" y="3" width="55" height="18">
<path d="M54.6429 3H0V21H54.6429V3Z" fill="white"/>
</mask>
<g mask="url(#mask1_11322_449)">
<path d="M54.6448 3H0.00195312V21H54.6448V3Z" fill="white"/>
<path d="M54.6459 2.99316H0.00195312V21.0056H54.6459V2.99316Z" fill="url(#paint0_linear_11322_449)"/>
<path d="M15.7915 24.5496C0.360135 18.5267 1.01996 22.8894 -6.7168 22.949L-2.11765 -1.26892C3.02613 -3.78771 4.06353 -1.4306 19.1555 2.59522L44.6216 23.9138C38.4679 24.8772 31.2228 30.5724 15.7915 24.5496Z" fill="url(#paint1_linear_11322_449)" fill-opacity="0.6"/>
<path d="M37.0921 1.99121L-1.86719 2.39288L-0.983767 15.3036L10.4056 15.6492C17.3062 14.7515 24.3068 16.371 28.3073 19.934L35.2776 26.1421C36.3431 27.0925 37.7711 27.87 39.4383 28.4073C41.1055 28.9446 42.9618 29.2257 44.8466 29.2263H79.7874V19.4559C79.7874 17.5668 76.8019 16.2189 73.8602 16.78L56.8533 20.6642C55.1998 20.8832 53.4754 20.776 51.9281 20.358C50.3807 19.94 49.0901 19.2328 48.2419 18.3381L37.0921 1.99121Z" fill="url(#paint2_linear_11322_449)"/>
<path d="M23.0827 19.1492C28.6125 19.1492 33.0952 15.9449 33.0952 11.9921C33.0952 8.03931 28.6125 4.83496 23.0827 4.83496C17.553 4.83496 13.0703 8.03931 13.0703 11.9921C13.0703 15.9449 17.553 19.1492 23.0827 19.1492Z" fill="url(#paint3_radial_11322_449)"/>
<path d="M33.8101 26.667C44.1803 26.667 52.587 22.603 52.587 17.5898C52.587 12.5767 44.1803 8.5127 33.8101 8.5127C23.4399 8.5127 15.0332 12.5767 15.0332 17.5898C15.0332 22.603 23.4399 26.667 33.8101 26.667Z" fill="url(#paint4_radial_11322_449)" fill-opacity="0.7"/>
<path d="M32.7824 24.1031C39.3388 25.3341 45.7795 24.0921 47.1681 21.329C48.5566 18.5659 44.3673 15.3281 37.8109 14.0971C31.2545 12.8661 24.8138 14.1081 23.4252 16.8712C22.0367 19.6342 26.226 22.8721 32.7824 24.1031Z" fill="url(#paint5_radial_11322_449)" fill-opacity="0.7"/>
<path d="M28.4089 2.59209L-0.130859 2.88633L0.516293 12.3441L8.85952 12.5973C13.9146 11.9397 19.043 13.126 21.9736 15.7361L27.0797 20.2839C27.8602 20.9801 28.9063 21.5496 30.1276 21.9432C31.3489 22.3369 32.7087 22.5428 34.0894 22.5433H59.6854L62.3799 10.3931C62.3799 9.00931 60.1928 8.02191 58.0381 8.43291L56.7869 0.949158C55.5757 1.10956 54.3125 1.03101 53.179 0.724807C52.0454 0.418608 51.1001 -0.0994644 50.4787 -0.754883L28.4089 2.59209Z" fill="url(#paint6_linear_11322_449)"/>
</g>
<path fill-rule="evenodd" clip-rule="evenodd" d="M9.91676 14.6051C9.76215 14.6025 9.6078 14.5903 9.45467 14.5683C8.99265 14.493 8.69784 14.267 8.57216 13.8948C8.51571 13.7393 8.48454 13.5759 8.47971 13.4106V10.6322L8.75235 10.6202C9.33549 10.5918 9.95372 10.5495 10.5406 10.3878L10.1663 9.11893L8.47971 9.36792V7.5H6.48814V9.36792H5.14258V10.6487H6.48814C6.48814 10.6487 6.48814 13.2903 6.49926 13.9647C6.50036 14.3766 6.61999 14.7795 6.84396 15.126C7.11197 15.5312 7.50103 15.7848 8.07028 15.9245C8.68151 16.0739 9.30096 16.0669 9.95533 16.0596L9.96021 16.0595H10.1173V14.6124H10.0415L9.91676 14.6051ZM13.9332 9.27513C14.898 9.07208 15.6642 9.21541 16.4562 9.51124C17.3997 9.86411 17.9468 10.6359 17.9458 11.6346V16.0449H16.1299V14.7833L15.6946 15.1187C15.6671 15.1402 15.5954 15.2015 15.5451 15.2447C15.5178 15.268 15.4968 15.286 15.4923 15.2896C14.8756 15.8064 14.0887 16.0785 13.2826 16.0541C12.9527 16.0598 12.6265 15.9849 12.3327 15.8357C12.0388 15.6865 11.7865 15.4677 11.5978 15.1986C11.3834 14.9037 11.2818 14.5408 11.2762 14.0566C11.2614 12.784 12.1052 12.3853 12.8149 12.2741C13.0461 12.2379 13.2797 12.2198 13.5136 12.2199C14.2094 12.2305 14.8977 12.3637 15.5468 12.6132L15.5874 12.6288L15.6373 12.6481C15.6999 12.6713 15.7688 12.6713 15.8314 12.6481L16.1475 12.581C16.1475 12.581 16.1216 11.7531 16.0828 11.5528C15.9876 11.0695 15.41 10.7397 14.8074 10.7516C14.2881 10.7617 13.8038 11.2046 13.5265 11.5978C13.1763 11.3369 12.9148 11.1127 12.6625 10.895C12.5091 10.7617 12.352 10.6276 12.1773 10.4861C12.5746 9.73451 13.18 9.43314 13.9332 9.27513ZM14.1457 14.7374C14.874 14.7374 15.507 14.3469 15.8952 13.6559L16.117 13.259H12.778L12.7669 13.5154C12.7447 14.1016 13.0543 14.5371 13.5987 14.6795C13.7477 14.7149 13.9001 14.7343 14.0533 14.7374H14.1457ZM32.9033 9.27513C33.8672 9.07208 34.6334 9.21541 35.4254 9.51124C36.3689 9.86411 36.916 10.6359 36.916 11.6346V16.0449H35.1001V14.7833L34.6648 15.1187C34.6324 15.1445 34.5353 15.2279 34.4884 15.2681L34.4634 15.2896C33.8463 15.8064 33.0592 16.0786 32.2528 16.0541C31.9229 16.0598 31.5967 15.9849 31.3028 15.8357C31.009 15.6865 30.7566 15.4677 30.568 15.1986C30.3545 14.9037 30.2519 14.5408 30.2464 14.0566C30.2316 12.784 31.0754 12.3853 31.7851 12.2741C32.0163 12.2379 32.2498 12.2198 32.4838 12.2199C33.1796 12.2305 33.8679 12.3637 34.5169 12.6132L34.5585 12.6288C34.5751 12.6361 34.5927 12.6425 34.6084 12.6481C34.671 12.6713 34.7399 12.6713 34.8025 12.6481L35.1177 12.581C35.1177 12.581 35.0917 11.7531 35.0529 11.5528C34.9578 11.0695 34.3811 10.7397 33.7776 10.7516C33.2592 10.7617 32.774 11.2046 32.4967 11.5978C32.1471 11.3374 31.8868 11.1136 31.6341 10.8962L31.6327 10.895C31.4792 10.7617 31.3221 10.6276 31.1474 10.4861C31.5439 9.73451 32.1493 9.43314 32.9033 9.27513ZM33.1159 14.7374C33.8433 14.7374 34.4772 14.3469 34.8644 13.6559L35.0871 13.259H31.7491L31.738 13.5154C31.7149 14.1016 32.0245 14.5371 32.5698 14.6795C32.7185 14.7149 32.8706 14.7343 33.0235 14.7374H33.1159ZM47.8322 9.51124C47.0402 9.21541 46.2741 9.07208 45.3093 9.27513C44.5561 9.43314 43.9507 9.73451 43.5534 10.4861C43.728 10.6276 43.8851 10.7617 44.0385 10.895C44.2908 11.1127 44.5524 11.3369 44.9026 11.5978C45.1798 11.2046 45.6641 10.7617 46.1835 10.7516C46.787 10.7397 47.3636 11.0695 47.4588 11.5528C47.4977 11.7531 47.5235 12.581 47.5235 12.581L47.2075 12.6481C47.1451 12.6711 47.0766 12.6711 47.0143 12.6481C46.9986 12.6425 46.9811 12.6361 46.9644 12.6288L46.9228 12.6132C46.2738 12.3637 45.5854 12.2305 44.8897 12.2199C44.6557 12.2198 44.4221 12.2379 44.191 12.2741C43.4813 12.3853 42.6375 12.784 42.6523 14.0566C42.6579 14.5408 42.7595 14.9037 42.9739 15.1986C43.1626 15.4677 43.4149 15.6865 43.7087 15.8357C44.0025 15.9849 44.3288 16.0598 44.6586 16.0541C45.465 16.0786 46.2522 15.8064 46.8692 15.2896L46.8945 15.268L46.895 15.2675C46.9421 15.227 47.0385 15.1443 47.0707 15.1187L47.506 14.7833V16.0449H49.3219V11.6346C49.3229 10.6359 48.7757 9.86411 47.8322 9.51124ZM47.2713 13.6559C46.8831 14.3469 46.25 14.7374 45.5218 14.7374H45.4294C45.2762 14.7343 45.1237 14.7149 44.9747 14.6795C44.4303 14.5371 44.1208 14.1016 44.143 13.5154L44.154 13.259H47.4912L47.2713 13.6559ZM40.6071 10.532C40.8843 10.0295 41.303 9.77404 41.8908 9.74736C42.0239 9.74094 42.1588 9.7419 42.3057 9.7437V11.4628L42.2769 11.4631C42.1352 11.4644 41.5989 11.4695 41.3742 11.5014C40.9992 11.5465 40.6519 11.7202 40.3919 11.9925C40.1319 12.2649 39.9757 12.6189 39.9501 12.9935C39.9408 13.1368 39.9439 13.2801 39.947 13.4212C39.9485 13.4909 39.9501 13.56 39.9501 13.6284V13.7396V15.4935V16.0586H38.1895V9.83653H39.9454V10.6561V10.8693L40.3807 10.9694C40.3807 10.9694 40.5766 10.5872 40.6071 10.532ZM26.169 11.3755C25.5914 11.4288 25.1663 11.925 25.1663 12.5534V16.0541H23.3254V12.6168C23.341 12.3302 23.2622 12.0463 23.1008 11.8082C22.8282 11.4398 22.3079 11.2799 21.807 11.4086C21.593 11.4612 21.4008 11.5786 21.2568 11.7445C21.1128 11.9104 21.024 12.1166 21.003 12.3347C20.9881 12.4502 20.9807 12.5666 20.9808 12.683V16.0586H19.1509V9.83563H20.9882V11.2331L21.2525 10.7737C21.8421 9.74556 22.988 9.56826 23.7477 9.77957C24.4538 9.98079 24.8964 10.5385 25.0517 11.3084L25.3215 10.7719C25.913 9.7437 27.1865 9.58569 27.9461 9.79699C28.6476 9.99544 29.0635 10.4659 29.2095 11.2377C29.2446 11.4373 29.2613 11.6397 29.2594 11.8422V15.0866V16.0504H27.5035V15.4311V12.6434C27.5067 12.5288 27.499 12.414 27.4804 12.3007C27.3556 11.6567 26.8658 11.3103 26.169 11.3755Z" fill="black"/>
</g>
</g>
<defs>
<linearGradient id="paint0_linear_11322_449" x1="0.522309" y1="19.0175" x2="43.47" y2="-11.0981" gradientUnits="userSpaceOnUse">
<stop offset="0.01" stop-color="#AAE1FF"/>
<stop offset="0.427083" stop-color="#F9BD9A"/>
<stop offset="0.51" stop-color="#FFBC8C"/>
<stop offset="0.640625" stop-color="#FFBE92"/>
<stop offset="0.75" stop-color="#F8BC8B"/>
<stop offset="0.88" stop-color="#F29F7E"/>
<stop offset="1" stop-color="#F0826B"/>
</linearGradient>
<linearGradient id="paint1_linear_11322_449" x1="28.6288" y1="10.4307" x2="4.96391" y2="41.6024" gradientUnits="userSpaceOnUse">
<stop stop-color="white" stop-opacity="0"/>
<stop offset="0.463182" stop-color="#CAEDFF"/>
<stop offset="1" stop-color="#98D6F7" stop-opacity="0"/>
</linearGradient>
<linearGradient id="paint2_linear_11322_449" x1="11.8025" y1="3.41202" x2="20.5982" y2="31.4249" gradientUnits="userSpaceOnUse">
<stop offset="0.01" stop-color="#FFE08B"/>
<stop offset="0.130208" stop-color="#FFE294" stop-opacity="0.590397"/>
<stop offset="0.303475" stop-color="#FFD972" stop-opacity="0"/>
</linearGradient>
<radialGradient id="paint3_radial_11322_449" cx="0" cy="0" r="1" gradientUnits="userSpaceOnUse" gradientTransform="translate(23.0827 11.9921) rotate(90) scale(7.15712 10.0124)">
<stop stop-color="#F8B483" stop-opacity="0.57"/>
<stop offset="1" stop-color="#F8B483" stop-opacity="0"/>
</radialGradient>
<radialGradient id="paint4_radial_11322_449" cx="0" cy="0" r="1" gradientUnits="userSpaceOnUse" gradientTransform="translate(33.8101 17.5898) rotate(90) scale(9.07714 18.7769)">
<stop stop-color="#EB84A4"/>
<stop offset="0.755208" stop-color="#EB84A4" stop-opacity="0"/>
</radialGradient>
<radialGradient id="paint5_radial_11322_449" cx="0" cy="0" r="1" gradientTransform="matrix(-2.51422 5.00299 -11.8714 -2.22893 44.6538 26.332)" gradientUnits="userSpaceOnUse">
<stop stop-color="#EB84A4"/>
<stop offset="0.755208" stop-color="#EB84A4" stop-opacity="0"/>
</radialGradient>
<linearGradient id="paint6_linear_11322_449" x1="24.2365" y1="12.2156" x2="42.8587" y2="30.6577" gradientUnits="userSpaceOnUse">
<stop offset="0.326812" stop-color="#EB84A4" stop-opacity="0"/>
<stop offset="1" stop-color="#9881BB"/>
</linearGradient>
<clipPath id="clip0_11322_449">
<rect width="54.6429" height="24" fill="white"/>
</clipPath>
</defs>
</svg>
