<svg width="40" height="24" viewBox="0 0 40 24" fill="none" xmlns="http://www.w3.org/2000/svg">
<path d="M35.6832 9.15H35.2366C34.6412 10.65 34.1947 11.4 33.7481 13.65H36.5763C36.1298 11.4 36.1298 10.35 35.6832 9.15ZM40 18H37.4695C37.3206 18 37.3206 18 37.1718 17.85L36.874 16.5L36.7252 16.2H33.1527C33.0038 16.2 32.855 16.2 32.855 16.5L32.4084 17.85C32.4084 18 32.2595 18 32.2595 18H29.1336L29.4313 17.25L33.7481 7.05C33.7481 6.3 34.1947 6 34.9389 6H37.1718C37.3206 6 37.4695 6 37.4695 6.3L39.5534 16.05C39.7023 16.65 39.8511 17.1 39.8511 17.7C40 17.85 40 17.85 40 18ZM20.0534 17.55L20.6489 14.85C20.7977 14.85 20.9466 15 20.9466 15C21.9885 15.45 23.0305 15.75 24.0725 15.6C24.3702 15.6 24.8168 15.45 25.1145 15.3C25.8588 15 25.8588 14.25 25.2634 13.65C24.9656 13.35 24.5191 13.2 24.0725 12.9C23.4771 12.6 22.8817 12.3 22.4351 11.85C20.6489 10.35 21.2443 8.25 22.2863 7.2C23.1794 6.6 23.626 6 24.8168 6C26.6031 6 28.5382 6 29.4313 6.3H29.5802C29.4313 7.2 29.2824 7.95 28.9847 8.85C28.2405 8.55 27.4962 8.25 26.7519 8.25C26.3053 8.25 25.8588 8.25 25.4122 8.4C25.1145 8.4 24.9656 8.55 24.8168 8.7C24.5191 9 24.5191 9.45 24.8168 9.75L25.5611 10.35C26.1565 10.65 26.7519 10.95 27.1985 11.25C27.9427 11.7 28.687 12.45 28.8359 13.35C29.1336 14.7 28.687 15.9 27.4962 16.8C26.7519 17.4 26.4542 17.7 25.4122 17.7C23.3282 17.7 21.6908 17.85 20.3511 17.4C20.2023 17.7 20.2023 17.7 20.0534 17.55ZM14.8435 18C14.9924 16.95 14.9924 16.95 15.1412 16.5C15.8855 13.2 16.6298 9.75 17.2252 6.45C17.374 6.15 17.374 6 17.6718 6H20.3511C20.0534 7.8 19.7557 9.15 19.3092 10.8C18.8626 13.05 18.416 15.3 17.8206 17.55C17.8206 17.85 17.6718 17.85 17.374 17.85L14.8435 18ZM1 6.3C1 6.15 1.29771 6 1.44657 6H6.50763C7.25191 6 7.84733 6.45 7.99618 7.2L9.33588 13.8C9.33588 13.95 9.33588 13.95 9.48473 14.1C9.48473 13.95 9.63359 13.95 9.63359 13.95L12.7595 6.3C12.6107 6.15 12.7595 6 12.9084 6H16.0344C16.0344 6.15 16.0344 6.15 15.8855 6.3L11.271 17.25C11.1221 17.55 11.1221 17.7 10.9733 17.85C10.8244 18 10.5267 17.85 10.229 17.85H7.99618C7.84733 17.85 7.69847 17.85 7.69847 17.55L5.31679 8.25C5.01908 7.95 4.57252 7.5 3.9771 7.35C3.08397 6.9 1.44656 6.6 1.14885 6.6L1 6.3Z" fill="#142688"/>
</svg>
